  0
SECTION
  2
HEADER
  9
$ACADVER
  1
AC1006
  9
$EXTMIN
 10
-2.890598
 20
-1.932650
  9
$EXTMAX
 10
3.003264
 20
0.594421
  9
$LTSCALE
 40
0.000394
  9
$PDMODE
 70
    35
  9
$PDSIZE
 40
0.000315
  0
ENDSEC
  0
SECTION
  2
TABLES
  0
TABLE
  2
LTYPE
 70
     9
  0
LTYPE
  2
CONTINUOUS
 70
    64
  3
Solid line
 72
    65
 73
     0
 40
0.000000
  0
LTYPE
  2
DASHED
 70
    64
  3
__ __ __ __ __ __ __ __ __ __ __ __ __ __ __
 72
    65
 73
     2
 40
0.000003
 49
0.000002
 49
-0.000001
  0
LTYPE
  2
HIDDEN
 70
    64
  3
 _ _ _ _ _ _ _ _ _ _ _ _ _ _ _ _ _ _ _ _ _ _
 72
    65
 73
     2
 40
0.000001
 49
0.000001
 49
-0.000000
  0
LTYPE
  2
CENTER
 70
    64
  3
____ _ ____ _ ____ _ ____ _ ____ _ ____ _ ____
 72
    65
 73
     4
 40
0.000008
 49
0.000005
 49
-0.000001
 49
0.000001
 49
-0.000001
  0
LTYPE
  2
PHANTOM
 70
    64
  3
_____ _ _ _____ _ _ _____ _ _ _____ _ _ ____
 72
    65
 73
     6
 40
0.000010
 49
0.000005
 49
-0.000001
 49
0.000001
 49
-0.000001
 49
0.000001
 49
-0.000001
  0
LTYPE
  2
DOT
 70
    64
  3
...............................................
 72
    65
 73
     2
 40
0.000001
 49
0.000000
 49
-0.000001
  0
LTYPE
  2
DASHDOT
 70
    64
  3
__ . __ . __ . __ . __ . __ . __ . __ . __ . __
 72
    65
 73
     4
 40
0.000004
 49
0.000002
 49
-0.000001
 49
0.000000
 49
-0.000001
  0
LTYPE
  2
BORDER
 70
    64
  3
__ __ . __ __ . __ __ . __ __ . __ __ . __ __
 72
    65
 73
     6
 40
0.000007
 49
0.000002
 49
-0.000001
 49
0.000002
 49
-0.000001
 49
0.000000
 49
-0.000001
  0
LTYPE
  2
DIVIDE
 70
    64
  3
__ . . __ . . __ . . __ . . __ . . __ . . __
 72
    65
 73
     6
 40
0.000005
 49
0.000002
 49
-0.000001
 49
0.000000
 49
-0.000001
 49
0.000000
 49
-0.000001
  0
LTYPE
  2
DOTDOT
 70
    64
  3
 . .  . .  . .  . .  . .  . . 
 72
    65
 73
     5
 40
0.000002
 49
-0.000001
 49
0.000000
 49
-0.000001
 49
0.000000
 49
-0.000001
  0
ENDTAB
  0
TABLE
  2
STYLE
 70
     0
  0
ENDTAB
  0
TABLE
  2
LAYER
 70
     3
  0
LAYER
  2
FOREGROUND
 70
    64
 62
     7
  6
CONTINUOUS
  0
LAYER
  2
BACKGROUND
 70
    65
 62
    -7
  6
CONTINUOUS
  0
LAYER
  2
COUCHE1
 70
    64
 62
     7
  6
CONTINUOUS
  0
ENDTAB
  0
ENDSEC
  0
SECTION
  2
ENTITIES
  0
POLYLINE
  8
COUCHE1
 62
     7
  6
CONTINUOUS
 66
     1
 40
0.003000
 41
0.003000
  0
VERTEX
  8
COUCHE1
 62
     7
  6
CONTINUOUS
 10
-1.695402
 20
-0.988236
  0
VERTEX
  8
COUCHE1
 62
     7
  6
CONTINUOUS
 10
-1.649102
 20
-0.975000
  0
VERTEX
  8
COUCHE1
 62
     7
  6
CONTINUOUS
 10
-1.520079
 20
-0.938622
  0
VERTEX
  8
COUCHE1
 62
     7
  6
CONTINUOUS
 10
-1.338154
 20
-0.885697
  0
VERTEX
  8
COUCHE1
 62
     7
  6
CONTINUOUS
 10
-1.129748
 20
-0.822846
  0
VERTEX
  8
COUCHE1
 62
     7
  6
CONTINUOUS
 10
-0.921362
 20
-0.763295
  0
VERTEX
  8
COUCHE1
 62
     7
  6
CONTINUOUS
 10
-0.739425
 20
-0.710374
  0
VERTEX
  8
COUCHE1
 62
     7
  6
CONTINUOUS
 10
-0.610421
 20
-0.673984
  0
VERTEX
  8
COUCHE1
 62
     7
  6
CONTINUOUS
 10
-0.560807
 20
-0.657453
  0
SEQEND
  8
0
  0
POLYLINE
  8
COUCHE1
 62
     7
  6
CONTINUOUS
 66
     1
 40
0.003000
 41
0.003000
  0
VERTEX
  8
COUCHE1
 62
     7
  6
CONTINUOUS
 10
-0.560807
 20
-0.657453
  0
VERTEX
  8
COUCHE1
 62
     7
  6
CONTINUOUS
 10
-0.540957
 20
-0.647531
  0
VERTEX
  8
COUCHE1
 62
     7
  6
CONTINUOUS
 10
-0.484705
 20
-0.621067
  0
VERTEX
  8
COUCHE1
 62
     7
  6
CONTINUOUS
 10
-0.405346
 20
-0.581366
  0
VERTEX
  8
COUCHE1
 62
     7
  6
CONTINUOUS
 10
-0.312717
 20
-0.535071
  0
VERTEX
  8
COUCHE1
 62
     7
  6
CONTINUOUS
 10
-0.220087
 20
-0.492071
  0
VERTEX
  8
COUCHE1
 62
     7
  6
CONTINUOUS
 10
-0.140705
 20
-0.452378
  0
VERTEX
  8
COUCHE1
 62
     7
  6
CONTINUOUS
 10
-0.084480
 20
-0.425906
  0
VERTEX
  8
COUCHE1
 62
     7
  6
CONTINUOUS
 10
-0.061319
 20
-0.412661
  0
SEQEND
  8
0
  0
POLYLINE
  8
COUCHE1
 62
     7
  6
CONTINUOUS
 66
     1
 40
0.003000
 41
0.003000
  0
VERTEX
  8
COUCHE1
 62
     7
  6
CONTINUOUS
 10
-0.061319
 20
-0.412661
  0
VERTEX
  8
COUCHE1
 62
     7
  6
CONTINUOUS
 10
-0.064622
 20
-0.425906
  0
VERTEX
  8
COUCHE1
 62
     7
  6
CONTINUOUS
 10
-0.064622
 20
-0.452378
  0
VERTEX
  8
COUCHE1
 62
     7
  6
CONTINUOUS
 10
-0.058012
 20
-0.492071
  0
VERTEX
  8
COUCHE1
 62
     7
  6
CONTINUOUS
 10
-0.044780
 20
-0.538370
  0
VERTEX
  8
COUCHE1
 62
     7
  6
CONTINUOUS
 10
-0.018335
 20
-0.581366
  0
VERTEX
  8
COUCHE1
 62
     7
  6
CONTINUOUS
 10
0.024685
 20
-0.617756
  0
VERTEX
  8
COUCHE1
 62
     7
  6
CONTINUOUS
 10
0.084232
 20
-0.637602
  0
VERTEX
  8
COUCHE1
 62
     7
  6
CONTINUOUS
 10
0.170236
 20
-0.637602
  0
SEQEND
  8
0
  0
POLYLINE
  8
COUCHE1
 62
     7
  6
CONTINUOUS
 66
     1
 40
0.003000
 41
0.003000
  0
VERTEX
  8
COUCHE1
 62
     7
  6
CONTINUOUS
 10
0.170236
 20
-0.637602
  0
VERTEX
  8
COUCHE1
 62
     7
  6
CONTINUOUS
 10
0.213248
 20
-0.634291
  0
VERTEX
  8
COUCHE1
 62
     7
  6
CONTINUOUS
 10
0.249626
 20
-0.617756
  0
VERTEX
  8
COUCHE1
 62
     7
  6
CONTINUOUS
 10
0.279390
 20
-0.597902
  0
VERTEX
  8
COUCHE1
 62
     7
  6
CONTINUOUS
 10
0.305850
 20
-0.571453
  0
VERTEX
  8
COUCHE1
 62
     7
  6
CONTINUOUS
 10
0.322406
 20
-0.544980
  0
VERTEX
  8
COUCHE1
 62
     7
  6
CONTINUOUS
 10
0.335634
 20
-0.525138
  0
VERTEX
  8
COUCHE1
 62
     7
  6
CONTINUOUS
 10
0.345547
 20
-0.508594
  0
VERTEX
  8
COUCHE1
 62
     7
  6
CONTINUOUS
 10
0.348858
 20
-0.501992
  0
SEQEND
  8
0
  0
POLYLINE
  8
COUCHE1
 62
     7
  6
CONTINUOUS
 66
     1
 40
0.003000
 41
0.003000
  0
VERTEX
  8
COUCHE1
 62
     7
  6
CONTINUOUS
 10
0.348858
 20
-0.501992
  0
VERTEX
  8
COUCHE1
 62
     7
  6
CONTINUOUS
 10
0.378626
 20
-0.498681
  0
VERTEX
  8
COUCHE1
 62
     7
  6
CONTINUOUS
 10
0.458012
 20
-0.482134
  0
VERTEX
  8
COUCHE1
 62
     7
  6
CONTINUOUS
 10
0.573799
 20
-0.462291
  0
VERTEX
  8
COUCHE1
 62
     7
  6
CONTINUOUS
 10
0.702799
 20
-0.435819
  0
VERTEX
  8
COUCHE1
 62
     7
  6
CONTINUOUS
 10
0.831807
 20
-0.409354
  0
VERTEX
  8
COUCHE1
 62
     7
  6
CONTINUOUS
 10
0.947579
 20
-0.389528
  0
VERTEX
  8
COUCHE1
 62
     7
  6
CONTINUOUS
 10
1.026969
 20
-0.372976
  0
VERTEX
  8
COUCHE1
 62
     7
  6
CONTINUOUS
 10
1.060047
 20
-0.366354
  0
SEQEND
  8
0
  0
POLYLINE
  8
COUCHE1
 62
     7
  6
CONTINUOUS
 66
     1
 40
0.003000
 41
0.003000
  0
VERTEX
  8
COUCHE1
 62
     7
  6
CONTINUOUS
 10
1.060047
 20
-0.366354
  0
VERTEX
  8
COUCHE1
 62
     7
  6
CONTINUOUS
 10
1.076583
 20
-0.363055
  0
VERTEX
  8
COUCHE1
 62
     7
  6
CONTINUOUS
 10
1.122898
 20
-0.356441
  0
VERTEX
  8
COUCHE1
 62
     7
  6
CONTINUOUS
 10
1.189063
 20
-0.343205
  0
VERTEX
  8
COUCHE1
 62
     7
  6
CONTINUOUS
 10
1.265146
 20
-0.326654
  0
VERTEX
  8
COUCHE1
 62
     7
  6
CONTINUOUS
 10
1.337917
 20
-0.310122
  0
VERTEX
  8
COUCHE1
 62
     7
  6
CONTINUOUS
 10
1.404059
 20
-0.296890
  0
VERTEX
  8
COUCHE1
 62
     7
  6
CONTINUOUS
 10
1.450370
 20
-0.290272
  0
VERTEX
  8
COUCHE1
 62
     7
  6
CONTINUOUS
 10
1.470236
 20
-0.283657
  0
SEQEND
  8
0
  0
POLYLINE
  8
COUCHE1
 62
     7
  6
CONTINUOUS
 66
     1
 40
0.003000
 41
0.003000
  0
VERTEX
  8
COUCHE1
 62
     7
  6
CONTINUOUS
 10
1.470236
 20
-0.283657
  0
VERTEX
  8
COUCHE1
 62
     7
  6
CONTINUOUS
 10
1.470236
 20
-0.290272
  0
VERTEX
  8
COUCHE1
 62
     7
  6
CONTINUOUS
 10
1.483449
 20
-0.306807
  0
VERTEX
  8
COUCHE1
 62
     7
  6
CONTINUOUS
 10
1.499996
 20
-0.329972
  0
VERTEX
  8
COUCHE1
 62
     7
  6
CONTINUOUS
 10
1.529768
 20
-0.356441
  0
VERTEX
  8
COUCHE1
 62
     7
  6
CONTINUOUS
 10
1.566157
 20
-0.379587
  0
VERTEX
  8
COUCHE1
 62
     7
  6
CONTINUOUS
 10
1.619079
 20
-0.396126
  0
VERTEX
  8
COUCHE1
 62
     7
  6
CONTINUOUS
 10
1.681929
 20
-0.402748
  0
VERTEX
  8
COUCHE1
 62
     7
  6
CONTINUOUS
 10
1.761311
 20
-0.392815
  0
SEQEND
  8
0
  0
POLYLINE
  8
COUCHE1
 62
     7
  6
CONTINUOUS
 66
     1
 40
0.003000
 41
0.003000
  0
VERTEX
  8
COUCHE1
 62
     7
  6
CONTINUOUS
 10
1.761311
 20
-0.392815
  0
VERTEX
  8
COUCHE1
 62
     7
  6
CONTINUOUS
 10
1.820858
 20
-0.379587
  0
VERTEX
  8
COUCHE1
 62
     7
  6
CONTINUOUS
 10
1.867169
 20
-0.356441
  0
VERTEX
  8
COUCHE1
 62
     7
  6
CONTINUOUS
 10
1.900244
 20
-0.329972
  0
VERTEX
  8
COUCHE1
 62
     7
  6
CONTINUOUS
 10
1.923402
 20
-0.296890
  0
VERTEX
  8
COUCHE1
 62
     7
  6
CONTINUOUS
 10
1.939949
 20
-0.270437
  0
VERTEX
  8
COUCHE1
 62
     7
  6
CONTINUOUS
 10
1.946551
 20
-0.243965
  0
VERTEX
  8
COUCHE1
 62
     7
  6
CONTINUOUS
 10
1.949862
 20
-0.227433
  0
VERTEX
  8
COUCHE1
 62
     7
  6
CONTINUOUS
 10
1.953173
 20
-0.220815
  0
SEQEND
  8
0
  0
POLYLINE
  8
COUCHE1
 62
     7
  6
CONTINUOUS
 66
     1
 40
0.003000
 41
0.003000
  0
VERTEX
  8
COUCHE1
 62
     7
  6
CONTINUOUS
 10
1.953173
 20
-0.220815
  0
VERTEX
  8
COUCHE1
 62
     7
  6
CONTINUOUS
 10
1.969717
 20
-0.220815
  0
VERTEX
  8
COUCHE1
 62
     7
  6
CONTINUOUS
 10
2.019331
 20
-0.210890
  0
VERTEX
  8
COUCHE1
 62
     7
  6
CONTINUOUS
 10
2.092106
 20
-0.200961
  0
VERTEX
  8
COUCHE1
 62
     7
  6
CONTINUOUS
 10
2.174815
 20
-0.184413
  0
VERTEX
  8
COUCHE1
 62
     7
  6
CONTINUOUS
 10
2.254193
 20
-0.171189
  0
VERTEX
  8
COUCHE1
 62
     7
  6
CONTINUOUS
 10
2.326969
 20
-0.161280
  0
VERTEX
  8
COUCHE1
 62
     7
  6
CONTINUOUS
 10
2.376575
 20
-0.151343
  0
VERTEX
  8
COUCHE1
 62
     7
  6
CONTINUOUS
 10
2.396425
 20
-0.148039
  0
SEQEND
  8
0
  0
POLYLINE
  8
COUCHE1
 62
     7
  6
CONTINUOUS
 66
     1
 40
0.003000
 41
0.003000
  0
VERTEX
  8
COUCHE1
 62
     7
  6
CONTINUOUS
 10
2.396425
 20
-0.148039
  0
VERTEX
  8
COUCHE1
 62
     7
  6
CONTINUOUS
 10
2.393118
 20
-0.187732
  0
VERTEX
  8
COUCHE1
 62
     7
  6
CONTINUOUS
 10
2.383197
 20
-0.283657
  0
VERTEX
  8
COUCHE1
 62
     7
  6
CONTINUOUS
 10
2.373272
 20
-0.422598
  0
VERTEX
  8
COUCHE1
 62
     7
  6
CONTINUOUS
 10
2.360035
 20
-0.581366
  0
VERTEX
  8
COUCHE1
 62
     7
  6
CONTINUOUS
 10
2.346819
 20
-0.743457
  0
VERTEX
  8
COUCHE1
 62
     7
  6
CONTINUOUS
 10
2.336878
 20
-0.882390
  0
VERTEX
  8
COUCHE1
 62
     7
  6
CONTINUOUS
 10
2.326969
 20
-0.978303
  0
VERTEX
  8
COUCHE1
 62
     7
  6
CONTINUOUS
 10
2.326969
 20
-1.014693
  0
SEQEND
  8
0
  0
POLYLINE
  8
COUCHE1
 62
     7
  6
CONTINUOUS
 66
     1
 40
0.003000
 41
0.003000
  0
VERTEX
  8
COUCHE1
 62
     7
  6
CONTINUOUS
 10
2.326969
 20
-1.014693
  0
VERTEX
  8
COUCHE1
 62
     7
  6
CONTINUOUS
 10
2.320354
 20
-1.021319
  0
VERTEX
  8
COUCHE1
 62
     7
  6
CONTINUOUS
 10
2.310425
 20
-1.027937
  0
VERTEX
  8
COUCHE1
 62
     7
  6
CONTINUOUS
 10
2.293890
 20
-1.041157
  0
VERTEX
  8
COUCHE1
 62
     7
  6
CONTINUOUS
 10
2.274035
 20
-1.054390
  0
VERTEX
  8
COUCHE1
 62
     7
  6
CONTINUOUS
 10
2.254193
 20
-1.070929
  0
VERTEX
  8
COUCHE1
 62
     7
  6
CONTINUOUS
 10
2.237657
 20
-1.084161
  0
VERTEX
  8
COUCHE1
 62
     7
  6
CONTINUOUS
 10
2.227728
 20
-1.090780
  0
VERTEX
  8
COUCHE1
 62
     7
  6
CONTINUOUS
 10
2.224413
 20
-1.094094
  0
SEQEND
  8
0
  0
POLYLINE
  8
COUCHE1
 62
     7
  6
CONTINUOUS
 66
     1
 40
0.003000
 41
0.003000
  0
VERTEX
  8
COUCHE1
 62
     7
  6
CONTINUOUS
 10
2.224413
 20
-1.094094
  0
VERTEX
  8
COUCHE1
 62
     7
  6
CONTINUOUS
 10
2.214484
 20
-1.097398
  0
VERTEX
  8
COUCHE1
 62
     7
  6
CONTINUOUS
 10
2.188035
 20
-1.107307
  0
VERTEX
  8
COUCHE1
 62
     7
  6
CONTINUOUS
 10
2.141717
 20
-1.120567
  0
VERTEX
  8
COUCHE1
 62
     7
  6
CONTINUOUS
 10
2.078878
 20
-1.137098
  0
VERTEX
  8
COUCHE1
 62
     7
  6
CONTINUOUS
 10
1.992862
 20
-1.156925
  0
VERTEX
  8
COUCHE1
 62
     7
  6
CONTINUOUS
 10
1.887024
 20
-1.180091
  0
VERTEX
  8
COUCHE1
 62
     7
  6
CONTINUOUS
 10
1.758008
 20
-1.203248
  0
VERTEX
  8
COUCHE1
 62
     7
  6
CONTINUOUS
 10
1.609161
 20
-1.226417
  0
SEQEND
  8
0
  0
POLYLINE
  8
COUCHE1
 62
     7
  6
CONTINUOUS
 66
     1
 40
0.003000
 41
0.003000
  0
VERTEX
  8
COUCHE1
 62
     7
  6
CONTINUOUS
 10
1.609161
 20
-1.226417
  0
VERTEX
  8
COUCHE1
 62
     7
  6
CONTINUOUS
 10
1.433839
 20
-1.252874
  0
VERTEX
  8
COUCHE1
 62
     7
  6
CONTINUOUS
 10
1.251913
 20
-1.276024
  0
VERTEX
  8
COUCHE1
 62
     7
  6
CONTINUOUS
 10
1.063362
 20
-1.299181
  0
VERTEX
  8
COUCHE1
 62
     7
  6
CONTINUOUS
 10
0.888039
 20
-1.319024
  0
VERTEX
  8
COUCHE1
 62
     7
  6
CONTINUOUS
 10
0.732559
 20
-1.335567
  0
VERTEX
  8
COUCHE1
 62
     7
  6
CONTINUOUS
 10
0.606870
 20
-1.348795
  0
VERTEX
  8
COUCHE1
 62
     7
  6
CONTINUOUS
 10
0.524169
 20
-1.358717
  0
VERTEX
  8
COUCHE1
 62
     7
  6
CONTINUOUS
 10
0.494402
 20
-1.358717
  0
SEQEND
  8
0
  0
POLYLINE
  8
COUCHE1
 62
     7
  6
CONTINUOUS
 66
     1
 40
0.003000
 41
0.003000
  0
VERTEX
  8
COUCHE1
 62
     7
  6
CONTINUOUS
 10
0.494402
 20
-1.358717
  0
VERTEX
  8
COUCHE1
 62
     7
  6
CONTINUOUS
 10
0.385240
 20
-1.365335
  0
VERTEX
  8
COUCHE1
 62
     7
  6
CONTINUOUS
 10
0.104079
 20
-1.375256
  0
VERTEX
  8
COUCHE1
 62
     7
  6
CONTINUOUS
 10
-0.289551
 20
-1.391803
  0
VERTEX
  8
COUCHE1
 62
     7
  6
CONTINUOUS
 10
-0.746055
 20
-1.408350
  0
VERTEX
  8
COUCHE1
 62
     7
  6
CONTINUOUS
 10
-1.202524
 20
-1.428177
  0
VERTEX
  8
COUCHE1
 62
     7
  6
CONTINUOUS
 10
-1.596177
 20
-1.444728
  0
VERTEX
  8
COUCHE1
 62
     7
  6
CONTINUOUS
 10
-1.877327
 20
-1.454650
  0
VERTEX
  8
COUCHE1
 62
     7
  6
CONTINUOUS
 10
-1.983189
 20
-1.457957
  0
SEQEND
  8
0
  0
POLYLINE
  8
COUCHE1
 62
     7
  6
CONTINUOUS
 66
     1
 40
0.003000
 41
0.003000
 70
     1
  0
VERTEX
  8
COUCHE1
 62
     7
  6
CONTINUOUS
 10
2.343500
 20
-0.531752
  0
VERTEX
  8
COUCHE1
 62
     7
  6
CONTINUOUS
 10
-1.910425
 20
-1.087469
  0
SEQEND
  8
0
  0
POLYLINE
  8
COUCHE1
 62
     7
  6
CONTINUOUS
 66
     1
 40
0.003000
 41
0.003000
 70
     1
  0
VERTEX
  8
COUCHE1
 62
     7
  6
CONTINUOUS
 10
2.055713
 20
-1.425177
  0
VERTEX
  8
COUCHE1
 62
     7
  6
CONTINUOUS
 10
2.020382
 20
-1.544941
  0
VERTEX
  8
COUCHE1
 62
     7
  6
CONTINUOUS
 10
1.925902
 20
-1.626591
  0
VERTEX
  8
COUCHE1
 62
     7
  6
CONTINUOUS
 10
1.802264
 20
-1.644201
  0
VERTEX
  8
COUCHE1
 62
     7
  6
CONTINUOUS
 10
1.688732
 20
-1.592185
  0
VERTEX
  8
COUCHE1
 62
     7
  6
CONTINUOUS
 10
1.621358
 20
-1.487039
  0
VERTEX
  8
COUCHE1
 62
     7
  6
CONTINUOUS
 10
1.621520
 20
-1.362157
  0
VERTEX
  8
COUCHE1
 62
     7
  6
CONTINUOUS
 10
1.689161
 20
-1.257201
  0
VERTEX
  8
COUCHE1
 62
     7
  6
CONTINUOUS
 10
1.802823
 20
-1.205465
  0
VERTEX
  8
COUCHE1
 62
     7
  6
CONTINUOUS
 10
1.926406
 20
-1.223390
  0
VERTEX
  8
COUCHE1
 62
     7
  6
CONTINUOUS
 10
2.020677
 20
-1.305280
  0
VERTEX
  8
COUCHE1
 62
     7
  6
CONTINUOUS
 10
2.055713
 20
-1.425134
  0
SEQEND
  8
0
  0
POLYLINE
  8
COUCHE1
 62
     7
  6
CONTINUOUS
 66
     1
 40
0.003000
 41
0.003000
 70
     1
  0
VERTEX
  8
COUCHE1
 62
     7
  6
CONTINUOUS
 10
1.969717
 20
-1.425083
  0
VERTEX
  8
COUCHE1
 62
     7
  6
CONTINUOUS
 10
1.947563
 20
-1.505520
  0
VERTEX
  8
COUCHE1
 62
     7
  6
CONTINUOUS
 10
1.888339
 20
-1.560366
  0
VERTEX
  8
COUCHE1
 62
     7
  6
CONTINUOUS
 10
1.810823
 20
-1.572177
  0
VERTEX
  8
COUCHE1
 62
     7
  6
CONTINUOUS
 10
1.739673
 20
-1.537248
  0
VERTEX
  8
COUCHE1
 62
     7
  6
CONTINUOUS
 10
1.697429
 20
-1.466626
  0
VERTEX
  8
COUCHE1
 62
     7
  6
CONTINUOUS
 10
1.697528
 20
-1.382764
  0
VERTEX
  8
COUCHE1
 62
     7
  6
CONTINUOUS
 10
1.739925
 20
-1.312260
  0
VERTEX
  8
COUCHE1
 62
     7
  6
CONTINUOUS
 10
1.811173
 20
-1.277508
  0
VERTEX
  8
COUCHE1
 62
     7
  6
CONTINUOUS
 10
1.888638
 20
-1.289551
  0
VERTEX
  8
COUCHE1
 62
     7
  6
CONTINUOUS
 10
1.947728
 20
-1.344547
  0
VERTEX
  8
COUCHE1
 62
     7
  6
CONTINUOUS
 10
1.969717
 20
-1.425059
  0
SEQEND
  8
0
  0
POLYLINE
  8
COUCHE1
 62
     7
  6
CONTINUOUS
 66
     1
 40
0.003000
 41
0.003000
  0
VERTEX
  8
COUCHE1
 62
     7
  6
CONTINUOUS
 10
1.787776
 20
-1.537343
  0
VERTEX
  8
COUCHE1
 62
     7
  6
CONTINUOUS
 10
1.791079
 20
-1.530717
  0
VERTEX
  8
COUCHE1
 62
     7
  6
CONTINUOUS
 10
1.807622
 20
-1.514177
  0
VERTEX
  8
COUCHE1
 62
     7
  6
CONTINUOUS
 10
1.834087
 20
-1.491035
  0
VERTEX
  8
COUCHE1
 62
     7
  6
CONTINUOUS
 10
1.867169
 20
-1.461268
  0
VERTEX
  8
COUCHE1
 62
     7
  6
CONTINUOUS
 10
1.903559
 20
-1.431492
  0
VERTEX
  8
COUCHE1
 62
     7
  6
CONTINUOUS
 10
1.949862
 20
-1.408350
  0
VERTEX
  8
COUCHE1
 62
     7
  6
CONTINUOUS
 10
1.996177
 20
-1.391803
  0
VERTEX
  8
COUCHE1
 62
     7
  6
CONTINUOUS
 10
2.049102
 20
-1.381866
  0
SEQEND
  8
0
  0
POLYLINE
  8
COUCHE1
 62
     7
  6
CONTINUOUS
 66
     1
 40
0.003000
 41
0.003000
  0
VERTEX
  8
COUCHE1
 62
     7
  6
CONTINUOUS
 10
2.049102
 20
-1.381866
  0
VERTEX
  8
COUCHE1
 62
     7
  6
CONTINUOUS
 10
2.052409
 20
-1.371953
  0
VERTEX
  8
COUCHE1
 62
     7
  6
CONTINUOUS
 10
2.065638
 20
-1.342173
  0
VERTEX
  8
COUCHE1
 62
     7
  6
CONTINUOUS
 10
2.085496
 20
-1.299181
  0
VERTEX
  8
COUCHE1
 62
     7
  6
CONTINUOUS
 10
2.108634
 20
-1.246256
  0
VERTEX
  8
COUCHE1
 62
     7
  6
CONTINUOUS
 10
2.128484
 20
-1.196638
  0
VERTEX
  8
COUCHE1
 62
     7
  6
CONTINUOUS
 10
2.148335
 20
-1.153638
  0
VERTEX
  8
COUCHE1
 62
     7
  6
CONTINUOUS
 10
2.161567
 20
-1.123854
  0
VERTEX
  8
COUCHE1
 62
     7
  6
CONTINUOUS
 10
2.168185
 20
-1.110634
  0
SEQEND
  8
0
  0
POLYLINE
  8
COUCHE1
 62
     7
  6
CONTINUOUS
 66
     1
 40
0.003000
 41
0.003000
  0
VERTEX
  8
COUCHE1
 62
     7
  6
CONTINUOUS
 10
2.168185
 20
-1.110634
  0
VERTEX
  8
COUCHE1
 62
     7
  6
CONTINUOUS
 10
2.161567
 20
-1.113941
  0
VERTEX
  8
COUCHE1
 62
     7
  6
CONTINUOUS
 10
2.151646
 20
-1.117244
  0
VERTEX
  8
COUCHE1
 62
     7
  6
CONTINUOUS
 10
2.138406
 20
-1.120567
  0
VERTEX
  8
COUCHE1
 62
     7
  6
CONTINUOUS
 10
2.125181
 20
-1.123854
  0
VERTEX
  8
COUCHE1
 62
     7
  6
CONTINUOUS
 10
2.108634
 20
-1.127165
  0
VERTEX
  8
COUCHE1
 62
     7
  6
CONTINUOUS
 10
2.095409
 20
-1.130476
  0
VERTEX
  8
COUCHE1
 62
     7
  6
CONTINUOUS
 10
2.085496
 20
-1.133780
  0
VERTEX
  8
COUCHE1
 62
     7
  6
CONTINUOUS
 10
2.082185
 20
-1.133780
  0
SEQEND
  8
0
  0
POLYLINE
  8
COUCHE1
 62
     7
  6
CONTINUOUS
 66
     1
 40
0.003000
 41
0.003000
  0
VERTEX
  8
COUCHE1
 62
     7
  6
CONTINUOUS
 10
2.082185
 20
-1.133780
  0
VERTEX
  8
COUCHE1
 62
     7
  6
CONTINUOUS
 10
2.075559
 20
-1.143701
  0
VERTEX
  8
COUCHE1
 62
     7
  6
CONTINUOUS
 10
2.065638
 20
-1.170173
  0
VERTEX
  8
COUCHE1
 62
     7
  6
CONTINUOUS
 10
2.052409
 20
-1.206555
  0
VERTEX
  8
COUCHE1
 62
     7
  6
CONTINUOUS
 10
2.039181
 20
-1.249555
  0
VERTEX
  8
COUCHE1
 62
     7
  6
CONTINUOUS
 10
2.022634
 20
-1.292559
  0
VERTEX
  8
COUCHE1
 62
     7
  6
CONTINUOUS
 10
2.009406
 20
-1.328945
  0
VERTEX
  8
COUCHE1
 62
     7
  6
CONTINUOUS
 10
1.999484
 20
-1.355413
  0
VERTEX
  8
COUCHE1
 62
     7
  6
CONTINUOUS
 10
1.996177
 20
-1.362024
  0
SEQEND
  8
0
  0
POLYLINE
  8
COUCHE1
 62
     7
  6
CONTINUOUS
 66
     1
 40
0.003000
 41
0.003000
  0
VERTEX
  8
COUCHE1
 62
     7
  6
CONTINUOUS
 10
1.996177
 20
-1.362024
  0
VERTEX
  8
COUCHE1
 62
     7
  6
CONTINUOUS
 10
1.989555
 20
-1.362024
  0
VERTEX
  8
COUCHE1
 62
     7
  6
CONTINUOUS
 10
1.979634
 20
-1.362024
  0
VERTEX
  8
COUCHE1
 62
     7
  6
CONTINUOUS
 10
1.966398
 20
-1.362024
  0
VERTEX
  8
COUCHE1
 62
     7
  6
CONTINUOUS
 10
1.949862
 20
-1.358717
  0
VERTEX
  8
COUCHE1
 62
     7
  6
CONTINUOUS
 10
1.930012
 20
-1.355413
  0
VERTEX
  8
COUCHE1
 62
     7
  6
CONTINUOUS
 10
1.916791
 20
-1.355413
  0
VERTEX
  8
COUCHE1
 62
     7
  6
CONTINUOUS
 10
1.906862
 20
-1.355413
  0
VERTEX
  8
COUCHE1
 62
     7
  6
CONTINUOUS
 10
1.903559
 20
-1.352106
  0
SEQEND
  8
0
  0
POLYLINE
  8
COUCHE1
 62
     7
  6
CONTINUOUS
 66
     1
 40
0.003000
 41
0.003000
  0
VERTEX
  8
COUCHE1
 62
     7
  6
CONTINUOUS
 10
1.903559
 20
-1.352106
  0
VERTEX
  8
COUCHE1
 62
     7
  6
CONTINUOUS
 10
1.903559
 20
-1.345484
  0
VERTEX
  8
COUCHE1
 62
     7
  6
CONTINUOUS
 10
1.903559
 20
-1.325642
  0
VERTEX
  8
COUCHE1
 62
     7
  6
CONTINUOUS
 10
1.906862
 20
-1.295870
  0
VERTEX
  8
COUCHE1
 62
     7
  6
CONTINUOUS
 10
1.913480
 20
-1.262791
  0
VERTEX
  8
COUCHE1
 62
     7
  6
CONTINUOUS
 10
1.916791
 20
-1.233031
  0
VERTEX
  8
COUCHE1
 62
     7
  6
CONTINUOUS
 10
1.920098
 20
-1.203248
  0
VERTEX
  8
COUCHE1
 62
     7
  6
CONTINUOUS
 10
1.920098
 20
-1.183402
  0
VERTEX
  8
COUCHE1
 62
     7
  6
CONTINUOUS
 10
1.923402
 20
-1.173469
  0
SEQEND
  8
0
  0
POLYLINE
  8
COUCHE1
 62
     7
  6
CONTINUOUS
 66
     1
 40
0.003000
 41
0.003000
  0
VERTEX
  8
COUCHE1
 62
     7
  6
CONTINUOUS
 10
1.923402
 20
-1.173469
  0
VERTEX
  8
COUCHE1
 62
     7
  6
CONTINUOUS
 10
1.920098
 20
-1.176776
  0
VERTEX
  8
COUCHE1
 62
     7
  6
CONTINUOUS
 10
1.913480
 20
-1.176776
  0
VERTEX
  8
COUCHE1
 62
     7
  6
CONTINUOUS
 10
1.906862
 20
-1.176776
  0
VERTEX
  8
COUCHE1
 62
     7
  6
CONTINUOUS
 10
1.900244
 20
-1.180091
  0
VERTEX
  8
COUCHE1
 62
     7
  6
CONTINUOUS
 10
1.890335
 20
-1.183402
  0
VERTEX
  8
COUCHE1
 62
     7
  6
CONTINUOUS
 10
1.883717
 20
-1.183402
  0
VERTEX
  8
COUCHE1
 62
     7
  6
CONTINUOUS
 10
1.877091
 20
-1.183402
  0
SEQEND
  8
0
  0
POLYLINE
  8
COUCHE1
 62
     7
  6
CONTINUOUS
 66
     1
 40
0.003000
 41
0.003000
  0
VERTEX
  8
COUCHE1
 62
     7
  6
CONTINUOUS
 10
1.877091
 20
-1.183402
  0
VERTEX
  8
COUCHE1
 62
     7
  6
CONTINUOUS
 10
1.873772
 20
-1.196638
  0
VERTEX
  8
COUCHE1
 62
     7
  6
CONTINUOUS
 10
1.870480
 20
-1.226417
  0
VERTEX
  8
COUCHE1
 62
     7
  6
CONTINUOUS
 10
1.863866
 20
-1.269406
  0
VERTEX
  8
COUCHE1
 62
     7
  6
CONTINUOUS
 10
1.860547
 20
-1.319024
  0
VERTEX
  8
COUCHE1
 62
     7
  6
CONTINUOUS
 10
1.853925
 20
-1.371953
  0
VERTEX
  8
COUCHE1
 62
     7
  6
CONTINUOUS
 10
1.847323
 20
-1.414949
  0
VERTEX
  8
COUCHE1
 62
     7
  6
CONTINUOUS
 10
1.844016
 20
-1.444728
  0
VERTEX
  8
COUCHE1
 62
     7
  6
CONTINUOUS
 10
1.844016
 20
-1.454650
  0
SEQEND
  8
0
  0
POLYLINE
  8
COUCHE1
 62
     7
  6
CONTINUOUS
 66
     1
 40
0.003000
 41
0.003000
  0
VERTEX
  8
COUCHE1
 62
     7
  6
CONTINUOUS
 10
1.844016
 20
-1.454650
  0
VERTEX
  8
COUCHE1
 62
     7
  6
CONTINUOUS
 10
1.824173
 20
-1.448031
  0
VERTEX
  8
COUCHE1
 62
     7
  6
CONTINUOUS
 10
1.781157
 20
-1.424882
  0
VERTEX
  8
COUCHE1
 62
     7
  6
CONTINUOUS
 10
1.718303
 20
-1.395110
  0
VERTEX
  8
COUCHE1
 62
     7
  6
CONTINUOUS
 10
1.645535
 20
-1.358717
  0
VERTEX
  8
COUCHE1
 62
     7
  6
CONTINUOUS
 10
1.569465
 20
-1.325642
  0
VERTEX
  8
COUCHE1
 62
     7
  6
CONTINUOUS
 10
1.506614
 20
-1.295870
  0
VERTEX
  8
COUCHE1
 62
     7
  6
CONTINUOUS
 10
1.463614
 20
-1.272713
  0
VERTEX
  8
COUCHE1
 62
     7
  6
CONTINUOUS
 10
1.447063
 20
-1.262791
  0
SEQEND
  8
0
  0
POLYLINE
  8
COUCHE1
 62
     7
  6
CONTINUOUS
 66
     1
 40
0.003000
 41
0.003000
  0
VERTEX
  8
COUCHE1
 62
     7
  6
CONTINUOUS
 10
1.447063
 20
-1.262791
  0
VERTEX
  8
COUCHE1
 62
     7
  6
CONTINUOUS
 10
1.440465
 20
-1.266094
  0
VERTEX
  8
COUCHE1
 62
     7
  6
CONTINUOUS
 10
1.430528
 20
-1.272713
  0
VERTEX
  8
COUCHE1
 62
     7
  6
CONTINUOUS
 10
1.427213
 20
-1.285945
  0
VERTEX
  8
COUCHE1
 62
     7
  6
CONTINUOUS
 10
1.437146
 20
-1.305795
  0
VERTEX
  8
COUCHE1
 62
     7
  6
CONTINUOUS
 10
1.470236
 20
-1.342173
  0
VERTEX
  8
COUCHE1
 62
     7
  6
CONTINUOUS
 10
1.533083
 20
-1.388492
  0
VERTEX
  8
COUCHE1
 62
     7
  6
CONTINUOUS
 10
1.635622
 20
-1.454650
  0
VERTEX
  8
COUCHE1
 62
     7
  6
CONTINUOUS
 10
1.787776
 20
-1.537343
  0
SEQEND
  8
0
  0
POLYLINE
  8
COUCHE1
 62
     7
  6
CONTINUOUS
 66
     1
 40
0.003000
 41
0.003000
  0
VERTEX
  8
COUCHE1
 62
     7
  6
CONTINUOUS
 10
0.070988
 20
-0.465602
  0
VERTEX
  8
COUCHE1
 62
     7
  6
CONTINUOUS
 10
0.067689
 20
-0.465602
  0
VERTEX
  8
COUCHE1
 62
     7
  6
CONTINUOUS
 10
0.064378
 20
-0.455669
  0
VERTEX
  8
COUCHE1
 62
     7
  6
CONTINUOUS
 10
0.061063
 20
-0.442441
  0
VERTEX
  8
COUCHE1
 62
     7
  6
CONTINUOUS
 10
0.057764
 20
-0.425906
  0
VERTEX
  8
COUCHE1
 62
     7
  6
CONTINUOUS
 10
0.057764
 20
-0.409354
  0
VERTEX
  8
COUCHE1
 62
     7
  6
CONTINUOUS
 10
0.057764
 20
-0.389528
  0
VERTEX
  8
COUCHE1
 62
     7
  6
CONTINUOUS
 10
0.061063
 20
-0.372976
  0
VERTEX
  8
COUCHE1
 62
     7
  6
CONTINUOUS
 10
0.070988
 20
-0.353126
  0
SEQEND
  8
0
  0
POLYLINE
  8
COUCHE1
 62
     7
  6
CONTINUOUS
 66
     1
 40
0.003000
 41
0.003000
  0
VERTEX
  8
COUCHE1
 62
     7
  6
CONTINUOUS
 10
0.070988
 20
-0.353126
  0
VERTEX
  8
COUCHE1
 62
     7
  6
CONTINUOUS
 10
0.077610
 20
-0.343205
  0
VERTEX
  8
COUCHE1
 62
     7
  6
CONTINUOUS
 10
0.090843
 20
-0.333276
  0
VERTEX
  8
COUCHE1
 62
     7
  6
CONTINUOUS
 10
0.104079
 20
-0.326654
  0
VERTEX
  8
COUCHE1
 62
     7
  6
CONTINUOUS
 10
0.120618
 20
-0.323343
  0
VERTEX
  8
COUCHE1
 62
     7
  6
CONTINUOUS
 10
0.133843
 20
-0.320039
  0
VERTEX
  8
COUCHE1
 62
     7
  6
CONTINUOUS
 10
0.147067
 20
-0.320039
  0
VERTEX
  8
COUCHE1
 62
     7
  6
CONTINUOUS
 10
0.157004
 20
-0.320039
  0
VERTEX
  8
COUCHE1
 62
     7
  6
CONTINUOUS
 10
0.160303
 20
-0.316740
  0
SEQEND
  8
0
  0
POLYLINE
  8
COUCHE1
 62
     7
  6
CONTINUOUS
 66
     1
 40
0.003000
 41
0.003000
  0
VERTEX
  8
COUCHE1
 62
     7
  6
CONTINUOUS
 10
0.160303
 20
-0.316740
  0
VERTEX
  8
COUCHE1
 62
     7
  6
CONTINUOUS
 10
0.176843
 20
-0.320039
  0
VERTEX
  8
COUCHE1
 62
     7
  6
CONTINUOUS
 10
0.190087
 20
-0.326654
  0
VERTEX
  8
COUCHE1
 62
     7
  6
CONTINUOUS
 10
0.203307
 20
-0.333276
  0
VERTEX
  8
COUCHE1
 62
     7
  6
CONTINUOUS
 10
0.213248
 20
-0.339902
  0
VERTEX
  8
COUCHE1
 62
     7
  6
CONTINUOUS
 10
0.216559
 20
-0.346508
  0
VERTEX
  8
COUCHE1
 62
     7
  6
CONTINUOUS
 10
0.223150
 20
-0.353126
  0
VERTEX
  8
COUCHE1
 62
     7
  6
CONTINUOUS
 10
0.223150
 20
-0.356441
  0
VERTEX
  8
COUCHE1
 62
     7
  6
CONTINUOUS
 10
0.226469
 20
-0.356441
  0
SEQEND
  8
0
  0
POLYLINE
  8
COUCHE1
 62
     7
  6
CONTINUOUS
 66
     1
 40
0.003000
 41
0.003000
  0
VERTEX
  8
COUCHE1
 62
     7
  6
CONTINUOUS
 10
0.226469
 20
-0.356441
  0
VERTEX
  8
COUCHE1
 62
     7
  6
CONTINUOUS
 10
0.229776
 20
-0.356441
  0
VERTEX
  8
COUCHE1
 62
     7
  6
CONTINUOUS
 10
0.233087
 20
-0.356441
  0
VERTEX
  8
COUCHE1
 62
     7
  6
CONTINUOUS
 10
0.239693
 20
-0.356441
  0
VERTEX
  8
COUCHE1
 62
     7
  6
CONTINUOUS
 10
0.243000
 20
-0.356441
  0
VERTEX
  8
COUCHE1
 62
     7
  6
CONTINUOUS
 10
0.246315
 20
-0.356441
  0
VERTEX
  8
COUCHE1
 62
     7
  6
CONTINUOUS
 10
0.249626
 20
-0.356441
  0
VERTEX
  8
COUCHE1
 62
     7
  6
CONTINUOUS
 10
0.252929
 20
-0.356441
  0
SEQEND
  8
0
  0
POLYLINE
  8
COUCHE1
 62
     7
  6
CONTINUOUS
 66
     1
 40
0.003000
 41
0.003000
  0
VERTEX
  8
COUCHE1
 62
     7
  6
CONTINUOUS
 10
0.252929
 20
-0.356441
  0
VERTEX
  8
COUCHE1
 62
     7
  6
CONTINUOUS
 10
0.252929
 20
-0.359736
  0
VERTEX
  8
COUCHE1
 62
     7
  6
CONTINUOUS
 10
0.252929
 20
-0.363055
  0
VERTEX
  8
COUCHE1
 62
     7
  6
CONTINUOUS
 10
0.256232
 20
-0.363055
  0
VERTEX
  8
COUCHE1
 62
     7
  6
CONTINUOUS
 10
0.259531
 20
-0.366354
  0
VERTEX
  8
COUCHE1
 62
     7
  6
CONTINUOUS
 10
0.259531
 20
-0.369661
  0
VERTEX
  8
COUCHE1
 62
     7
  6
CONTINUOUS
 10
0.262846
 20
-0.369661
  0
SEQEND
  8
0
  0
POLYLINE
  8
COUCHE1
 62
     7
  6
CONTINUOUS
 66
     1
 40
0.003000
 41
0.003000
  0
VERTEX
  8
COUCHE1
 62
     7
  6
CONTINUOUS
 10
0.262846
 20
-0.369661
  0
VERTEX
  8
COUCHE1
 62
     7
  6
CONTINUOUS
 10
0.259531
 20
-0.376280
  0
VERTEX
  8
COUCHE1
 62
     7
  6
CONTINUOUS
 10
0.259531
 20
-0.379587
  0
VERTEX
  8
COUCHE1
 62
     7
  6
CONTINUOUS
 10
0.252929
 20
-0.382890
  0
VERTEX
  8
COUCHE1
 62
     7
  6
CONTINUOUS
 10
0.249626
 20
-0.386193
  0
VERTEX
  8
COUCHE1
 62
     7
  6
CONTINUOUS
 10
0.243000
 20
-0.389528
  0
VERTEX
  8
COUCHE1
 62
     7
  6
CONTINUOUS
 10
0.239693
 20
-0.389528
  0
VERTEX
  8
COUCHE1
 62
     7
  6
CONTINUOUS
 10
0.236382
 20
-0.389528
  0
SEQEND
  8
0
  0
POLYLINE
  8
COUCHE1
 62
     7
  6
CONTINUOUS
 66
     1
 40
0.003000
 41
0.003000
  0
VERTEX
  8
COUCHE1
 62
     7
  6
CONTINUOUS
 10
0.236382
 20
-0.389528
  0
VERTEX
  8
COUCHE1
 62
     7
  6
CONTINUOUS
 10
0.236382
 20
-0.392815
  0
VERTEX
  8
COUCHE1
 62
     7
  6
CONTINUOUS
 10
0.236382
 20
-0.399437
  0
VERTEX
  8
COUCHE1
 62
     7
  6
CONTINUOUS
 10
0.236382
 20
-0.406055
  0
VERTEX
  8
COUCHE1
 62
     7
  6
CONTINUOUS
 10
0.239693
 20
-0.412661
  0
VERTEX
  8
COUCHE1
 62
     7
  6
CONTINUOUS
 10
0.239693
 20
-0.422598
  0
VERTEX
  8
COUCHE1
 62
     7
  6
CONTINUOUS
 10
0.243000
 20
-0.432508
  0
VERTEX
  8
COUCHE1
 62
     7
  6
CONTINUOUS
 10
0.243000
 20
-0.439130
  0
VERTEX
  8
COUCHE1
 62
     7
  6
CONTINUOUS
 10
0.243000
 20
-0.442441
  0
SEQEND
  8
0
  0
POLYLINE
  8
COUCHE1
 62
     7
  6
CONTINUOUS
 66
     1
 40
0.003000
 41
0.003000
  0
VERTEX
  8
COUCHE1
 62
     7
  6
CONTINUOUS
 10
0.243000
 20
-0.442441
  0
VERTEX
  8
COUCHE1
 62
     7
  6
CONTINUOUS
 10
0.236382
 20
-0.462291
  0
VERTEX
  8
COUCHE1
 62
     7
  6
CONTINUOUS
 10
0.229776
 20
-0.478835
  0
VERTEX
  8
COUCHE1
 62
     7
  6
CONTINUOUS
 10
0.226469
 20
-0.492071
  0
VERTEX
  8
COUCHE1
 62
     7
  6
CONTINUOUS
 10
0.223150
 20
-0.501992
  0
VERTEX
  8
COUCHE1
 62
     7
  6
CONTINUOUS
 10
0.219843
 20
-0.511906
  0
VERTEX
  8
COUCHE1
 62
     7
  6
CONTINUOUS
 10
0.216559
 20
-0.515213
  0
VERTEX
  8
COUCHE1
 62
     7
  6
CONTINUOUS
 10
0.216559
 20
-0.518508
  0
SEQEND
  8
0
  0
POLYLINE
  8
COUCHE1
 62
     7
  6
CONTINUOUS
 66
     1
 40
0.003000
 41
0.003000
  0
VERTEX
  8
COUCHE1
 62
     7
  6
CONTINUOUS
 10
0.216559
 20
-0.518508
  0
VERTEX
  8
COUCHE1
 62
     7
  6
CONTINUOUS
 10
0.209933
 20
-0.518508
  0
VERTEX
  8
COUCHE1
 62
     7
  6
CONTINUOUS
 10
0.193394
 20
-0.511906
  0
VERTEX
  8
COUCHE1
 62
     7
  6
CONTINUOUS
 10
0.170236
 20
-0.501992
  0
VERTEX
  8
COUCHE1
 62
     7
  6
CONTINUOUS
 10
0.143772
 20
-0.492071
  0
VERTEX
  8
COUCHE1
 62
     7
  6
CONTINUOUS
 10
0.113992
 20
-0.485441
  0
VERTEX
  8
COUCHE1
 62
     7
  6
CONTINUOUS
 10
0.090843
 20
-0.475524
  0
VERTEX
  8
COUCHE1
 62
     7
  6
CONTINUOUS
 10
0.074299
 20
-0.468906
  0
VERTEX
  8
COUCHE1
 62
     7
  6
CONTINUOUS
 10
0.070988
 20
-0.465602
  0
SEQEND
  8
0
  0
POLYLINE
  8
COUCHE1
 62
     7
  6
CONTINUOUS
 66
     1
 40
0.003000
 41
0.003000
  0
VERTEX
  8
COUCHE1
 62
     7
  6
CONTINUOUS
 10
0.266169
 20
-0.601217
  0
VERTEX
  8
COUCHE1
 62
     7
  6
CONTINUOUS
 10
0.262846
 20
-0.601217
  0
VERTEX
  8
COUCHE1
 62
     7
  6
CONTINUOUS
 10
0.259531
 20
-0.591295
  0
VERTEX
  8
COUCHE1
 62
     7
  6
CONTINUOUS
 10
0.256232
 20
-0.578051
  0
VERTEX
  8
COUCHE1
 62
     7
  6
CONTINUOUS
 10
0.249626
 20
-0.561516
  0
VERTEX
  8
COUCHE1
 62
     7
  6
CONTINUOUS
 10
0.243000
 20
-0.544980
  0
VERTEX
  8
COUCHE1
 62
     7
  6
CONTINUOUS
 10
0.233087
 20
-0.528453
  0
VERTEX
  8
COUCHE1
 62
     7
  6
CONTINUOUS
 10
0.219843
 20
-0.508594
  0
VERTEX
  8
COUCHE1
 62
     7
  6
CONTINUOUS
 10
0.209933
 20
-0.492071
  0
SEQEND
  8
0
  0
POLYLINE
  8
COUCHE1
 62
     7
  6
CONTINUOUS
 66
     1
 40
0.003000
 41
0.003000
  0
VERTEX
  8
COUCHE1
 62
     7
  6
CONTINUOUS
 10
0.209933
 20
-0.492071
  0
VERTEX
  8
COUCHE1
 62
     7
  6
CONTINUOUS
 10
0.200008
 20
-0.488744
  0
VERTEX
  8
COUCHE1
 62
     7
  6
CONTINUOUS
 10
0.186776
 20
-0.482134
  0
VERTEX
  8
COUCHE1
 62
     7
  6
CONTINUOUS
 10
0.170236
 20
-0.478835
  0
VERTEX
  8
COUCHE1
 62
     7
  6
CONTINUOUS
 10
0.153697
 20
-0.472201
  0
VERTEX
  8
COUCHE1
 62
     7
  6
CONTINUOUS
 10
0.140469
 20
-0.468906
  0
VERTEX
  8
COUCHE1
 62
     7
  6
CONTINUOUS
 10
0.127224
 20
-0.462291
  0
VERTEX
  8
COUCHE1
 62
     7
  6
CONTINUOUS
 10
0.117307
 20
-0.462291
  0
VERTEX
  8
COUCHE1
 62
     7
  6
CONTINUOUS
 10
0.117307
 20
-0.458976
  0
SEQEND
  8
0
  0
POLYLINE
  8
COUCHE1
 62
     7
  6
CONTINUOUS
 66
     1
 40
0.003000
 41
0.003000
  0
VERTEX
  8
COUCHE1
 62
     7
  6
CONTINUOUS
 10
0.117307
 20
-0.458976
  0
VERTEX
  8
COUCHE1
 62
     7
  6
CONTINUOUS
 10
0.113992
 20
-0.462291
  0
VERTEX
  8
COUCHE1
 62
     7
  6
CONTINUOUS
 10
0.104079
 20
-0.468906
  0
VERTEX
  8
COUCHE1
 62
     7
  6
CONTINUOUS
 10
0.094142
 20
-0.475524
  0
VERTEX
  8
COUCHE1
 62
     7
  6
CONTINUOUS
 10
0.080921
 20
-0.482134
  0
VERTEX
  8
COUCHE1
 62
     7
  6
CONTINUOUS
 10
0.064378
 20
-0.492071
  0
VERTEX
  8
COUCHE1
 62
     7
  6
CONTINUOUS
 10
0.054461
 20
-0.498681
  0
VERTEX
  8
COUCHE1
 62
     7
  6
CONTINUOUS
 10
0.044535
 20
-0.505291
  0
SEQEND
  8
0
  0
POLYLINE
  8
COUCHE1
 62
     7
  6
CONTINUOUS
 66
     1
 40
0.003000
 41
0.003000
  0
VERTEX
  8
COUCHE1
 62
     7
  6
CONTINUOUS
 10
0.044535
 20
-0.505291
  0
VERTEX
  8
COUCHE1
 62
     7
  6
CONTINUOUS
 10
0.041220
 20
-0.508594
  0
VERTEX
  8
COUCHE1
 62
     7
  6
CONTINUOUS
 10
0.034602
 20
-0.518508
  0
VERTEX
  8
COUCHE1
 62
     7
  6
CONTINUOUS
 10
0.024685
 20
-0.531752
  0
VERTEX
  8
COUCHE1
 62
     7
  6
CONTINUOUS
 10
0.014760
 20
-0.544980
  0
VERTEX
  8
COUCHE1
 62
     7
  6
CONTINUOUS
 10
0.001528
 20
-0.561516
  0
VERTEX
  8
COUCHE1
 62
     7
  6
CONTINUOUS
 10
-0.005087
 20
-0.578051
  0
VERTEX
  8
COUCHE1
 62
     7
  6
CONTINUOUS
 10
-0.011701
 20
-0.594598
  0
VERTEX
  8
COUCHE1
 62
     7
  6
CONTINUOUS
 10
-0.011701
 20
-0.604520
  0
SEQEND
  8
0
  0
POLYLINE
  8
COUCHE1
 62
     7
  6
CONTINUOUS
 66
     1
 40
0.003000
 41
0.003000
  0
VERTEX
  8
COUCHE1
 62
     7
  6
CONTINUOUS
 10
-0.011701
 20
-0.604520
  0
VERTEX
  8
COUCHE1
 62
     7
  6
CONTINUOUS
 10
0.001528
 20
-0.614441
  0
VERTEX
  8
COUCHE1
 62
     7
  6
CONTINUOUS
 10
0.018071
 20
-0.621067
  0
VERTEX
  8
COUCHE1
 62
     7
  6
CONTINUOUS
 10
0.034602
 20
-0.627681
  0
VERTEX
  8
COUCHE1
 62
     7
  6
CONTINUOUS
 10
0.051161
 20
-0.634291
  0
VERTEX
  8
COUCHE1
 62
     7
  6
CONTINUOUS
 10
0.070988
 20
-0.640917
  0
VERTEX
  8
COUCHE1
 62
     7
  6
CONTINUOUS
 10
0.087543
 20
-0.644209
  0
VERTEX
  8
COUCHE1
 62
     7
  6
CONTINUOUS
 10
0.104079
 20
-0.647531
  0
VERTEX
  8
COUCHE1
 62
     7
  6
CONTINUOUS
 10
0.123921
 20
-0.644209
  0
SEQEND
  8
0
  0
POLYLINE
  8
COUCHE1
 62
     7
  6
CONTINUOUS
 66
     1
 40
0.003000
 41
0.003000
  0
VERTEX
  8
COUCHE1
 62
     7
  6
CONTINUOUS
 10
0.123921
 20
-0.644209
  0
VERTEX
  8
COUCHE1
 62
     7
  6
CONTINUOUS
 10
0.150378
 20
-0.644209
  0
VERTEX
  8
COUCHE1
 62
     7
  6
CONTINUOUS
 10
0.176843
 20
-0.637602
  0
VERTEX
  8
COUCHE1
 62
     7
  6
CONTINUOUS
 10
0.200008
 20
-0.630996
  0
VERTEX
  8
COUCHE1
 62
     7
  6
CONTINUOUS
 10
0.223150
 20
-0.624370
  0
VERTEX
  8
COUCHE1
 62
     7
  6
CONTINUOUS
 10
0.239693
 20
-0.614441
  0
VERTEX
  8
COUCHE1
 62
     7
  6
CONTINUOUS
 10
0.252929
 20
-0.607835
  0
VERTEX
  8
COUCHE1
 62
     7
  6
CONTINUOUS
 10
0.262846
 20
-0.604520
  0
VERTEX
  8
COUCHE1
 62
     7
  6
CONTINUOUS
 10
0.266169
 20
-0.601217
  0
SEQEND
  8
0
  0
POLYLINE
  8
COUCHE1
 62
     7
  6
CONTINUOUS
 66
     1
 40
0.003000
 41
0.003000
  0
VERTEX
  8
COUCHE1
 62
     7
  6
CONTINUOUS
 10
2.383197
 20
-0.217488
  0
VERTEX
  8
COUCHE1
 62
     7
  6
CONTINUOUS
 10
2.389803
 20
-0.217488
  0
VERTEX
  8
COUCHE1
 62
     7
  6
CONTINUOUS
 10
2.399736
 20
-0.217488
  0
VERTEX
  8
COUCHE1
 62
     7
  6
CONTINUOUS
 10
2.409650
 20
-0.214205
  0
VERTEX
  8
COUCHE1
 62
     7
  6
CONTINUOUS
 10
2.419587
 20
-0.214205
  0
VERTEX
  8
COUCHE1
 62
     7
  6
CONTINUOUS
 10
2.429496
 20
-0.214205
  0
VERTEX
  8
COUCHE1
 62
     7
  6
CONTINUOUS
 10
2.436114
 20
-0.214205
  0
VERTEX
  8
COUCHE1
 62
     7
  6
CONTINUOUS
 10
2.439433
 20
-0.210890
  0
SEQEND
  8
0
  0
POLYLINE
  8
COUCHE1
 62
     7
  6
CONTINUOUS
 66
     1
 40
0.003000
 41
0.003000
  0
VERTEX
  8
COUCHE1
 62
     7
  6
CONTINUOUS
 10
2.439433
 20
-0.210890
  0
VERTEX
  8
COUCHE1
 62
     7
  6
CONTINUOUS
 10
2.439433
 20
-0.207575
  0
VERTEX
  8
COUCHE1
 62
     7
  6
CONTINUOUS
 10
2.439433
 20
-0.204260
  0
VERTEX
  8
COUCHE1
 62
     7
  6
CONTINUOUS
 10
2.439433
 20
-0.197650
  0
VERTEX
  8
COUCHE1
 62
     7
  6
CONTINUOUS
 10
2.439433
 20
-0.194343
  0
VERTEX
  8
COUCHE1
 62
     7
  6
CONTINUOUS
 10
2.439433
 20
-0.191035
  0
VERTEX
  8
COUCHE1
 62
     7
  6
CONTINUOUS
 10
2.439433
 20
-0.187732
  0
VERTEX
  8
COUCHE1
 62
     7
  6
CONTINUOUS
 10
2.439433
 20
-0.184413
  0
SEQEND
  8
0
  0
POLYLINE
  8
COUCHE1
 62
     7
  6
CONTINUOUS
 66
     1
 40
0.003000
 41
0.003000
  0
VERTEX
  8
COUCHE1
 62
     7
  6
CONTINUOUS
 10
2.439433
 20
-0.184413
  0
VERTEX
  8
COUCHE1
 62
     7
  6
CONTINUOUS
 10
2.436114
 20
-0.184413
  0
VERTEX
  8
COUCHE1
 62
     7
  6
CONTINUOUS
 10
2.432811
 20
-0.181110
  0
VERTEX
  8
COUCHE1
 62
     7
  6
CONTINUOUS
 10
2.429496
 20
-0.174516
  0
VERTEX
  8
COUCHE1
 62
     7
  6
CONTINUOUS
 10
2.422898
 20
-0.167890
  0
VERTEX
  8
COUCHE1
 62
     7
  6
CONTINUOUS
 10
2.416283
 20
-0.164583
  0
VERTEX
  8
COUCHE1
 62
     7
  6
CONTINUOUS
 10
2.412972
 20
-0.157961
  0
VERTEX
  8
COUCHE1
 62
     7
  6
CONTINUOUS
 10
2.409650
 20
-0.154665
  0
VERTEX
  8
COUCHE1
 62
     7
  6
CONTINUOUS
 10
2.409650
 20
-0.151343
  0
SEQEND
  8
0
  0
POLYLINE
  8
COUCHE1
 62
     7
  6
CONTINUOUS
 66
     1
 40
0.003000
 41
0.003000
  0
VERTEX
  8
COUCHE1
 62
     7
  6
CONTINUOUS
 10
2.409650
 20
-0.151343
  0
VERTEX
  8
COUCHE1
 62
     7
  6
CONTINUOUS
 10
2.409650
 20
-0.148039
  0
VERTEX
  8
COUCHE1
 62
     7
  6
CONTINUOUS
 10
2.409650
 20
-0.141421
  0
VERTEX
  8
COUCHE1
 62
     7
  6
CONTINUOUS
 10
2.409650
 20
-0.134803
  0
VERTEX
  8
COUCHE1
 62
     7
  6
CONTINUOUS
 10
2.409650
 20
-0.131496
  0
VERTEX
  8
COUCHE1
 62
     7
  6
CONTINUOUS
 10
2.409650
 20
-0.124882
  0
VERTEX
  8
COUCHE1
 62
     7
  6
CONTINUOUS
 10
2.409650
 20
-0.121575
  0
VERTEX
  8
COUCHE1
 62
     7
  6
CONTINUOUS
 10
2.409650
 20
-0.118264
  0
SEQEND
  8
0
  0
POLYLINE
  8
COUCHE1
 62
     7
  6
CONTINUOUS
 66
     1
 40
0.003000
 41
0.003000
  0
VERTEX
  8
COUCHE1
 62
     7
  6
CONTINUOUS
 10
2.409650
 20
-0.118264
  0
VERTEX
  8
COUCHE1
 62
     7
  6
CONTINUOUS
 10
2.412972
 20
-0.118264
  0
VERTEX
  8
COUCHE1
 62
     7
  6
CONTINUOUS
 10
2.422898
 20
-0.114953
  0
VERTEX
  8
COUCHE1
 62
     7
  6
CONTINUOUS
 10
2.439433
 20
-0.111646
  0
VERTEX
  8
COUCHE1
 62
     7
  6
CONTINUOUS
 10
2.462583
 20
-0.105051
  0
VERTEX
  8
COUCHE1
 62
     7
  6
CONTINUOUS
 10
2.489051
 20
-0.101732
  0
VERTEX
  8
COUCHE1
 62
     7
  6
CONTINUOUS
 10
2.515508
 20
-0.098417
  0
VERTEX
  8
COUCHE1
 62
     7
  6
CONTINUOUS
 10
2.541972
 20
-0.098417
  0
VERTEX
  8
COUCHE1
 62
     7
  6
CONTINUOUS
 10
2.571744
 20
-0.101732
  0
SEQEND
  8
0
  0
POLYLINE
  8
COUCHE1
 62
     7
  6
CONTINUOUS
 66
     1
 40
0.003000
 41
0.003000
  0
VERTEX
  8
COUCHE1
 62
     7
  6
CONTINUOUS
 10
2.571744
 20
-0.101732
  0
VERTEX
  8
COUCHE1
 62
     7
  6
CONTINUOUS
 10
2.575063
 20
-0.105051
  0
VERTEX
  8
COUCHE1
 62
     7
  6
CONTINUOUS
 10
2.581673
 20
-0.111646
  0
VERTEX
  8
COUCHE1
 62
     7
  6
CONTINUOUS
 10
2.584980
 20
-0.118264
  0
VERTEX
  8
COUCHE1
 62
     7
  6
CONTINUOUS
 10
2.591598
 20
-0.124882
  0
VERTEX
  8
COUCHE1
 62
     7
  6
CONTINUOUS
 10
2.594902
 20
-0.131496
  0
VERTEX
  8
COUCHE1
 62
     7
  6
CONTINUOUS
 10
2.598205
 20
-0.138122
  0
VERTEX
  8
COUCHE1
 62
     7
  6
CONTINUOUS
 10
2.598205
 20
-0.144732
  0
VERTEX
  8
COUCHE1
 62
     7
  6
CONTINUOUS
 10
2.601524
 20
-0.144732
  0
SEQEND
  8
0
  0
POLYLINE
  8
COUCHE1
 62
     7
  6
CONTINUOUS
 66
     1
 40
0.003000
 41
0.003000
  0
VERTEX
  8
COUCHE1
 62
     7
  6
CONTINUOUS
 10
2.601524
 20
-0.144732
  0
VERTEX
  8
COUCHE1
 62
     7
  6
CONTINUOUS
 10
2.598205
 20
-0.148039
  0
VERTEX
  8
COUCHE1
 62
     7
  6
CONTINUOUS
 10
2.598205
 20
-0.154665
  0
VERTEX
  8
COUCHE1
 62
     7
  6
CONTINUOUS
 10
2.598205
 20
-0.161280
  0
VERTEX
  8
COUCHE1
 62
     7
  6
CONTINUOUS
 10
2.598205
 20
-0.167890
  0
VERTEX
  8
COUCHE1
 62
     7
  6
CONTINUOUS
 10
2.594902
 20
-0.174516
  0
VERTEX
  8
COUCHE1
 62
     7
  6
CONTINUOUS
 10
2.594902
 20
-0.181110
  0
VERTEX
  8
COUCHE1
 62
     7
  6
CONTINUOUS
 10
2.594902
 20
-0.187732
  0
SEQEND
  8
0
  0
POLYLINE
  8
COUCHE1
 62
     7
  6
CONTINUOUS
 66
     1
 40
0.003000
 41
0.003000
  0
VERTEX
  8
COUCHE1
 62
     7
  6
CONTINUOUS
 10
2.594902
 20
-0.187732
  0
VERTEX
  8
COUCHE1
 62
     7
  6
CONTINUOUS
 10
2.594902
 20
-0.191035
  0
VERTEX
  8
COUCHE1
 62
     7
  6
CONTINUOUS
 10
2.598205
 20
-0.194343
  0
VERTEX
  8
COUCHE1
 62
     7
  6
CONTINUOUS
 10
2.604811
 20
-0.197650
  0
VERTEX
  8
COUCHE1
 62
     7
  6
CONTINUOUS
 10
2.611433
 20
-0.204260
  0
VERTEX
  8
COUCHE1
 62
     7
  6
CONTINUOUS
 10
2.614744
 20
-0.210890
  0
VERTEX
  8
COUCHE1
 62
     7
  6
CONTINUOUS
 10
2.621370
 20
-0.214205
  0
VERTEX
  8
COUCHE1
 62
     7
  6
CONTINUOUS
 10
2.624657
 20
-0.217488
  0
VERTEX
  8
COUCHE1
 62
     7
  6
CONTINUOUS
 10
2.627980
 20
-0.217488
  0
SEQEND
  8
0
  0
POLYLINE
  8
COUCHE1
 62
     7
  6
CONTINUOUS
 66
     1
 40
0.003000
 41
0.003000
  0
VERTEX
  8
COUCHE1
 62
     7
  6
CONTINUOUS
 10
2.627980
 20
-0.217488
  0
VERTEX
  8
COUCHE1
 62
     7
  6
CONTINUOUS
 10
2.627980
 20
-0.220815
  0
VERTEX
  8
COUCHE1
 62
     7
  6
CONTINUOUS
 10
2.634606
 20
-0.220815
  0
VERTEX
  8
COUCHE1
 62
     7
  6
CONTINUOUS
 10
2.641217
 20
-0.220815
  0
VERTEX
  8
COUCHE1
 62
     7
  6
CONTINUOUS
 10
2.654437
 20
-0.224114
  0
VERTEX
  8
COUCHE1
 62
     7
  6
CONTINUOUS
 10
2.667677
 20
-0.230732
  0
VERTEX
  8
COUCHE1
 62
     7
  6
CONTINUOUS
 10
2.680898
 20
-0.237346
  0
VERTEX
  8
COUCHE1
 62
     7
  6
CONTINUOUS
 10
2.694134
 20
-0.243965
  0
VERTEX
  8
COUCHE1
 62
     7
  6
CONTINUOUS
 10
2.707366
 20
-0.253890
  0
SEQEND
  8
0
  0
POLYLINE
  8
COUCHE1
 62
     7
  6
CONTINUOUS
 66
     1
 40
0.003000
 41
0.003000
  0
VERTEX
  8
COUCHE1
 62
     7
  6
CONTINUOUS
 10
2.707366
 20
-0.253890
  0
VERTEX
  8
COUCHE1
 62
     7
  6
CONTINUOUS
 10
2.717287
 20
-0.263815
  0
VERTEX
  8
COUCHE1
 62
     7
  6
CONTINUOUS
 10
2.727213
 20
-0.273744
  0
VERTEX
  8
COUCHE1
 62
     7
  6
CONTINUOUS
 10
2.737142
 20
-0.283657
  0
VERTEX
  8
COUCHE1
 62
     7
  6
CONTINUOUS
 10
2.743748
 20
-0.290272
  0
VERTEX
  8
COUCHE1
 62
     7
  6
CONTINUOUS
 10
2.750362
 20
-0.300209
  0
VERTEX
  8
COUCHE1
 62
     7
  6
CONTINUOUS
 10
2.753685
 20
-0.306807
  0
VERTEX
  8
COUCHE1
 62
     7
  6
CONTINUOUS
 10
2.756988
 20
-0.310122
  0
VERTEX
  8
COUCHE1
 62
     7
  6
CONTINUOUS
 10
2.760291
 20
-0.310122
  0
SEQEND
  8
0
  0
POLYLINE
  8
COUCHE1
 62
     7
  6
CONTINUOUS
 66
     1
 40
0.003000
 41
0.003000
  0
VERTEX
  8
COUCHE1
 62
     7
  6
CONTINUOUS
 10
2.760291
 20
-0.310122
  0
VERTEX
  8
COUCHE1
 62
     7
  6
CONTINUOUS
 10
2.760291
 20
-0.326654
  0
VERTEX
  8
COUCHE1
 62
     7
  6
CONTINUOUS
 10
2.763594
 20
-0.366354
  0
VERTEX
  8
COUCHE1
 62
     7
  6
CONTINUOUS
 10
2.770217
 20
-0.419291
  0
VERTEX
  8
COUCHE1
 62
     7
  6
CONTINUOUS
 10
2.773528
 20
-0.485441
  0
VERTEX
  8
COUCHE1
 62
     7
  6
CONTINUOUS
 10
2.780130
 20
-0.551602
  0
VERTEX
  8
COUCHE1
 62
     7
  6
CONTINUOUS
 10
2.780130
 20
-0.611146
  0
VERTEX
  8
COUCHE1
 62
     7
  6
CONTINUOUS
 10
2.780130
 20
-0.657453
  0
VERTEX
  8
COUCHE1
 62
     7
  6
CONTINUOUS
 10
2.776839
 20
-0.680606
  0
SEQEND
  8
0
  0
POLYLINE
  8
COUCHE1
 62
     7
  6
CONTINUOUS
 66
     1
 40
0.003000
 41
0.003000
  0
VERTEX
  8
COUCHE1
 62
     7
  6
CONTINUOUS
 10
2.776839
 20
-0.680606
  0
VERTEX
  8
COUCHE1
 62
     7
  6
CONTINUOUS
 10
2.770217
 20
-0.693831
  0
VERTEX
  8
COUCHE1
 62
     7
  6
CONTINUOUS
 10
2.763594
 20
-0.700441
  0
VERTEX
  8
COUCHE1
 62
     7
  6
CONTINUOUS
 10
2.753685
 20
-0.710374
  0
VERTEX
  8
COUCHE1
 62
     7
  6
CONTINUOUS
 10
2.747067
 20
-0.713685
  0
VERTEX
  8
COUCHE1
 62
     7
  6
CONTINUOUS
 10
2.740445
 20
-0.720295
  0
VERTEX
  8
COUCHE1
 62
     7
  6
CONTINUOUS
 10
2.733823
 20
-0.723594
  0
VERTEX
  8
COUCHE1
 62
     7
  6
CONTINUOUS
 10
2.730531
 20
-0.723594
  0
SEQEND
  8
0
  0
POLYLINE
  8
COUCHE1
 62
     7
  6
CONTINUOUS
 66
     1
 40
0.003000
 41
0.003000
  0
VERTEX
  8
COUCHE1
 62
     7
  6
CONTINUOUS
 10
2.730531
 20
-0.723594
  0
VERTEX
  8
COUCHE1
 62
     7
  6
CONTINUOUS
 10
2.727213
 20
-0.730232
  0
VERTEX
  8
COUCHE1
 62
     7
  6
CONTINUOUS
 10
2.723902
 20
-0.743457
  0
VERTEX
  8
COUCHE1
 62
     7
  6
CONTINUOUS
 10
2.720598
 20
-0.763295
  0
VERTEX
  8
COUCHE1
 62
     7
  6
CONTINUOUS
 10
2.713988
 20
-0.783146
  0
VERTEX
  8
COUCHE1
 62
     7
  6
CONTINUOUS
 10
2.707366
 20
-0.806307
  0
VERTEX
  8
COUCHE1
 62
     7
  6
CONTINUOUS
 10
2.697441
 20
-0.829457
  0
VERTEX
  8
COUCHE1
 62
     7
  6
CONTINUOUS
 10
2.687520
 20
-0.846004
  0
VERTEX
  8
COUCHE1
 62
     7
  6
CONTINUOUS
 10
2.677594
 20
-0.855925
  0
SEQEND
  8
0
  0
POLYLINE
  8
COUCHE1
 62
     7
  6
CONTINUOUS
 66
     1
 40
0.003000
 41
0.003000
  0
VERTEX
  8
COUCHE1
 62
     7
  6
CONTINUOUS
 10
2.677594
 20
-0.855925
  0
VERTEX
  8
COUCHE1
 62
     7
  6
CONTINUOUS
 10
2.664362
 20
-0.862531
  0
VERTEX
  8
COUCHE1
 62
     7
  6
CONTINUOUS
 10
2.651142
 20
-0.869161
  0
VERTEX
  8
COUCHE1
 62
     7
  6
CONTINUOUS
 10
2.634606
 20
-0.872465
  0
VERTEX
  8
COUCHE1
 62
     7
  6
CONTINUOUS
 10
2.618055
 20
-0.872465
  0
VERTEX
  8
COUCHE1
 62
     7
  6
CONTINUOUS
 10
2.604811
 20
-0.875768
  0
VERTEX
  8
COUCHE1
 62
     7
  6
CONTINUOUS
 10
2.591598
 20
-0.875768
  0
VERTEX
  8
COUCHE1
 62
     7
  6
CONTINUOUS
 10
2.581673
 20
-0.875768
  0
SEQEND
  8
0
  0
POLYLINE
  8
COUCHE1
 62
     7
  6
CONTINUOUS
 66
     1
 40
0.003000
 41
0.003000
  0
VERTEX
  8
COUCHE1
 62
     7
  6
CONTINUOUS
 10
2.581673
 20
-0.875768
  0
VERTEX
  8
COUCHE1
 62
     7
  6
CONTINUOUS
 10
2.578366
 20
-0.875768
  0
VERTEX
  8
COUCHE1
 62
     7
  6
CONTINUOUS
 10
2.575063
 20
-0.872465
  0
VERTEX
  8
COUCHE1
 62
     7
  6
CONTINUOUS
 10
2.575063
 20
-0.869161
  0
VERTEX
  8
COUCHE1
 62
     7
  6
CONTINUOUS
 10
2.571744
 20
-0.869161
  0
VERTEX
  8
COUCHE1
 62
     7
  6
CONTINUOUS
 10
2.568425
 20
-0.865843
  0
VERTEX
  8
COUCHE1
 62
     7
  6
CONTINUOUS
 10
2.568425
 20
-0.862531
  0
SEQEND
  8
0
  0
POLYLINE
  8
COUCHE1
 62
     7
  6
CONTINUOUS
 66
     1
 40
0.003000
 41
0.003000
  0
VERTEX
  8
COUCHE1
 62
     7
  6
CONTINUOUS
 10
2.568425
 20
-0.862531
  0
VERTEX
  8
COUCHE1
 62
     7
  6
CONTINUOUS
 10
2.565122
 20
-0.865843
  0
VERTEX
  8
COUCHE1
 62
     7
  6
CONTINUOUS
 10
2.565122
 20
-0.869161
  0
VERTEX
  8
COUCHE1
 62
     7
  6
CONTINUOUS
 10
2.561823
 20
-0.872465
  0
VERTEX
  8
COUCHE1
 62
     7
  6
CONTINUOUS
 10
2.558520
 20
-0.879079
  0
VERTEX
  8
COUCHE1
 62
     7
  6
CONTINUOUS
 10
2.555205
 20
-0.885697
  0
VERTEX
  8
COUCHE1
 62
     7
  6
CONTINUOUS
 10
2.551902
 20
-0.892299
  0
VERTEX
  8
COUCHE1
 62
     7
  6
CONTINUOUS
 10
2.545276
 20
-0.898925
  0
VERTEX
  8
COUCHE1
 62
     7
  6
CONTINUOUS
 10
2.541972
 20
-0.902232
  0
SEQEND
  8
0
  0
POLYLINE
  8
COUCHE1
 62
     7
  6
CONTINUOUS
 66
     1
 40
0.003000
 41
0.003000
  0
VERTEX
  8
COUCHE1
 62
     7
  6
CONTINUOUS
 10
2.541972
 20
-0.902232
  0
VERTEX
  8
COUCHE1
 62
     7
  6
CONTINUOUS
 10
2.522130
 20
-0.912157
  0
VERTEX
  8
COUCHE1
 62
     7
  6
CONTINUOUS
 10
2.492358
 20
-0.918768
  0
VERTEX
  8
COUCHE1
 62
     7
  6
CONTINUOUS
 10
2.459280
 20
-0.925394
  0
VERTEX
  8
COUCHE1
 62
     7
  6
CONTINUOUS
 10
2.419587
 20
-0.928709
  0
VERTEX
  8
COUCHE1
 62
     7
  6
CONTINUOUS
 10
2.383197
 20
-0.932000
  0
VERTEX
  8
COUCHE1
 62
     7
  6
CONTINUOUS
 10
2.353429
 20
-0.935315
  0
VERTEX
  8
COUCHE1
 62
     7
  6
CONTINUOUS
 10
2.330268
 20
-0.935315
  0
VERTEX
  8
COUCHE1
 62
     7
  6
CONTINUOUS
 10
2.323657
 20
-0.935315
  0
SEQEND
  8
0
  0
POLYLINE
  8
COUCHE1
 62
     7
  6
CONTINUOUS
 66
     1
 40
0.003000
 41
0.003000
  0
VERTEX
  8
COUCHE1
 62
     7
  6
CONTINUOUS
 10
2.323657
 20
-0.935315
  0
VERTEX
  8
COUCHE1
 62
     7
  6
CONTINUOUS
 10
2.323657
 20
-0.905539
  0
VERTEX
  8
COUCHE1
 62
     7
  6
CONTINUOUS
 10
2.330268
 20
-0.826150
  0
VERTEX
  8
COUCHE1
 62
     7
  6
CONTINUOUS
 10
2.340197
 20
-0.710374
  0
VERTEX
  8
COUCHE1
 62
     7
  6
CONTINUOUS
 10
2.353429
 20
-0.578051
  0
VERTEX
  8
COUCHE1
 62
     7
  6
CONTINUOUS
 10
2.363350
 20
-0.445744
  0
VERTEX
  8
COUCHE1
 62
     7
  6
CONTINUOUS
 10
2.373272
 20
-0.329972
  0
VERTEX
  8
COUCHE1
 62
     7
  6
CONTINUOUS
 10
2.379898
 20
-0.250583
  0
VERTEX
  8
COUCHE1
 62
     7
  6
CONTINUOUS
 10
2.383197
 20
-0.217488
  0
SEQEND
  8
0
  0
POLYLINE
  8
COUCHE1
 62
     7
  6
CONTINUOUS
 66
     1
 40
0.003000
 41
0.003000
  0
VERTEX
  8
COUCHE1
 62
     7
  6
CONTINUOUS
 10
0.338945
 20
-0.518508
  0
VERTEX
  8
COUCHE1
 62
     7
  6
CONTINUOUS
 10
0.335634
 20
-0.511906
  0
VERTEX
  8
COUCHE1
 62
     7
  6
CONTINUOUS
 10
0.335634
 20
-0.492071
  0
VERTEX
  8
COUCHE1
 62
     7
  6
CONTINUOUS
 10
0.332323
 20
-0.465602
  0
VERTEX
  8
COUCHE1
 62
     7
  6
CONTINUOUS
 10
0.325689
 20
-0.432508
  0
VERTEX
  8
COUCHE1
 62
     7
  6
CONTINUOUS
 10
0.322406
 20
-0.399437
  0
VERTEX
  8
COUCHE1
 62
     7
  6
CONTINUOUS
 10
0.315780
 20
-0.369661
  0
VERTEX
  8
COUCHE1
 62
     7
  6
CONTINUOUS
 10
0.309161
 20
-0.346508
  0
VERTEX
  8
COUCHE1
 62
     7
  6
CONTINUOUS
 10
0.305850
 20
-0.333276
  0
SEQEND
  8
0
  0
POLYLINE
  8
COUCHE1
 62
     7
  6
CONTINUOUS
 66
     1
 40
0.003000
 41
0.003000
  0
VERTEX
  8
COUCHE1
 62
     7
  6
CONTINUOUS
 10
0.305850
 20
-0.333276
  0
VERTEX
  8
COUCHE1
 62
     7
  6
CONTINUOUS
 10
0.319091
 20
-0.339902
  0
VERTEX
  8
COUCHE1
 62
     7
  6
CONTINUOUS
 10
0.355472
 20
-0.353126
  0
VERTEX
  8
COUCHE1
 62
     7
  6
CONTINUOUS
 10
0.411701
 20
-0.372976
  0
VERTEX
  8
COUCHE1
 62
     7
  6
CONTINUOUS
 10
0.474559
 20
-0.392815
  0
VERTEX
  8
COUCHE1
 62
     7
  6
CONTINUOUS
 10
0.534098
 20
-0.415976
  0
VERTEX
  8
COUCHE1
 62
     7
  6
CONTINUOUS
 10
0.590339
 20
-0.435819
  0
VERTEX
  8
COUCHE1
 62
     7
  6
CONTINUOUS
 10
0.626724
 20
-0.449067
  0
VERTEX
  8
COUCHE1
 62
     7
  6
CONTINUOUS
 10
0.643256
 20
-0.452378
  0
SEQEND
  8
0
  0
POLYLINE
  8
COUCHE1
 62
     7
  6
CONTINUOUS
 66
     1
 40
0.003000
 41
0.003000
  0
VERTEX
  8
COUCHE1
 62
     7
  6
CONTINUOUS
 10
0.643256
 20
-0.452378
  0
VERTEX
  8
COUCHE1
 62
     7
  6
CONTINUOUS
 10
0.630020
 20
-0.455669
  0
VERTEX
  8
COUCHE1
 62
     7
  6
CONTINUOUS
 10
0.593642
 20
-0.465602
  0
VERTEX
  8
COUCHE1
 62
     7
  6
CONTINUOUS
 10
0.544020
 20
-0.475524
  0
VERTEX
  8
COUCHE1
 62
     7
  6
CONTINUOUS
 10
0.491094
 20
-0.485441
  0
VERTEX
  8
COUCHE1
 62
     7
  6
CONTINUOUS
 10
0.434854
 20
-0.498681
  0
VERTEX
  8
COUCHE1
 62
     7
  6
CONTINUOUS
 10
0.385240
 20
-0.508594
  0
VERTEX
  8
COUCHE1
 62
     7
  6
CONTINUOUS
 10
0.348858
 20
-0.518508
  0
VERTEX
  8
COUCHE1
 62
     7
  6
CONTINUOUS
 10
0.338945
 20
-0.518508
  0
SEQEND
  8
0
  0
POLYLINE
  8
COUCHE1
 62
     7
  6
CONTINUOUS
 66
     1
 40
0.003000
 41
0.003000
 70
     1
  0
VERTEX
  8
COUCHE1
 62
     7
  6
CONTINUOUS
 10
-1.930268
 20
-1.610276
  0
VERTEX
  8
COUCHE1
 62
     7
  6
CONTINUOUS
 10
-1.948728
 20
-1.667465
  0
VERTEX
  8
COUCHE1
 62
     7
  6
CONTINUOUS
 10
-1.998083
 20
-1.706457
  0
VERTEX
  8
COUCHE1
 62
     7
  6
CONTINUOUS
 10
-2.062677
 20
-1.714874
  0
VERTEX
  8
COUCHE1
 62
     7
  6
CONTINUOUS
 10
-2.121972
 20
-1.690028
  0
VERTEX
  8
COUCHE1
 62
     7
  6
CONTINUOUS
 10
-2.157161
 20
-1.639799
  0
VERTEX
  8
COUCHE1
 62
     7
  6
CONTINUOUS
 10
-2.157071
 20
-1.580161
  0
VERTEX
  8
COUCHE1
 62
     7
  6
CONTINUOUS
 10
-2.121744
 20
-1.530024
  0
VERTEX
  8
COUCHE1
 62
     7
  6
CONTINUOUS
 10
-2.062362
 20
-1.505323
  0
VERTEX
  8
COUCHE1
 62
     7
  6
CONTINUOUS
 10
-1.997819
 20
-1.513886
  0
VERTEX
  8
COUCHE1
 62
     7
  6
CONTINUOUS
 10
-1.948559
 20
-1.552996
  0
VERTEX
  8
COUCHE1
 62
     7
  6
CONTINUOUS
 10
-1.930268
 20
-1.610240
  0
SEQEND
  8
0
  0
POLYLINE
  8
COUCHE1
 62
     7
  6
CONTINUOUS
 66
     1
 40
0.003000
 41
0.003000
 70
     1
  0
VERTEX
  8
COUCHE1
 62
     7
  6
CONTINUOUS
 10
-2.016264
 20
-1.520799
  0
VERTEX
  8
COUCHE1
 62
     7
  6
CONTINUOUS
 10
-1.996417
 20
-1.497650
  0
VERTEX
  8
COUCHE1
 62
     7
  6
CONTINUOUS
 10
-2.019579
 20
-1.438106
  0
VERTEX
  8
COUCHE1
 62
     7
  6
CONTINUOUS
 10
-1.956724
 20
-1.431492
  0
VERTEX
  8
COUCHE1
 62
     7
  6
CONTINUOUS
 10
-1.926957
 20
-1.497650
  0
VERTEX
  8
COUCHE1
 62
     7
  6
CONTINUOUS
 10
-1.781406
 20
-1.471185
  0
VERTEX
  8
COUCHE1
 62
     7
  6
CONTINUOUS
 10
-1.754925
 20
-1.424882
  0
VERTEX
  8
COUCHE1
 62
     7
  6
CONTINUOUS
 10
-1.569709
 20
-1.421575
  0
VERTEX
  8
COUCHE1
 62
     7
  6
CONTINUOUS
 10
-1.599492
 20
-1.467878
  0
VERTEX
  8
COUCHE1
 62
     7
  6
CONTINUOUS
 10
-1.877327
 20
-1.563807
  0
VERTEX
  8
COUCHE1
 62
     7
  6
CONTINUOUS
 10
-1.943492
 20
-1.636567
  0
SEQEND
  8
0
  0
SOLID
  8
COUCHE1
 62
     7
  6
CONTINUOUS
 10
0.838417
 20
0.066969
 11
0.775567
 21
-0.445744
 12
0.891346
 22
0.113280
 13
0.841736
 23
-0.432508
  0
POLYLINE
  8
COUCHE1
 62
     7
  6
CONTINUOUS
 66
     1
 40
0.003000
 41
0.003000
 70
     1
  0
VERTEX
  8
COUCHE1
 62
     7
  6
CONTINUOUS
 10
0.838417
 20
0.066969
  0
VERTEX
  8
COUCHE1
 62
     7
  6
CONTINUOUS
 10
0.775567
 20
-0.445744
  0
VERTEX
  8
COUCHE1
 62
     7
  6
CONTINUOUS
 10
0.841736
 20
-0.432508
  0
VERTEX
  8
COUCHE1
 62
     7
  6
CONTINUOUS
 10
0.891346
 20
0.113280
  0
SEQEND
  8
0
  0
POLYLINE
  8
COUCHE1
 62
     7
  6
CONTINUOUS
 66
     1
 40
0.003000
 41
0.003000
 70
     1
  0
VERTEX
  8
COUCHE1
 62
     7
  6
CONTINUOUS
 10
0.838417
 20
0.066969
  0
VERTEX
  8
COUCHE1
 62
     7
  6
CONTINUOUS
 10
0.775567
 20
-0.445744
  0
VERTEX
  8
COUCHE1
 62
     7
  6
CONTINUOUS
 10
0.841736
 20
-0.432508
  0
VERTEX
  8
COUCHE1
 62
     7
  6
CONTINUOUS
 10
0.891346
 20
0.113280
  0
SEQEND
  8
0
  0
SOLID
  8
COUCHE1
 62
     7
  6
CONTINUOUS
 10
1.284984
 20
-0.343205
 11
1.433839
 21
0.189354
 12
1.347839
 22
-0.326654
 13
1.506614
 23
0.215819
  0
POLYLINE
  8
COUCHE1
 62
     7
  6
CONTINUOUS
 66
     1
 40
0.003000
 41
0.003000
 70
     1
  0
VERTEX
  8
COUCHE1
 62
     7
  6
CONTINUOUS
 10
1.284984
 20
-0.343205
  0
VERTEX
  8
COUCHE1
 62
     7
  6
CONTINUOUS
 10
1.433839
 20
0.189354
  0
VERTEX
  8
COUCHE1
 62
     7
  6
CONTINUOUS
 10
1.506614
 20
0.215819
  0
VERTEX
  8
COUCHE1
 62
     7
  6
CONTINUOUS
 10
1.347839
 20
-0.326654
  0
SEQEND
  8
0
  0
POLYLINE
  8
COUCHE1
 62
     7
  6
CONTINUOUS
 66
     1
 40
0.003000
 41
0.003000
 70
     1
  0
VERTEX
  8
COUCHE1
 62
     7
  6
CONTINUOUS
 10
1.284984
 20
-0.343205
  0
VERTEX
  8
COUCHE1
 62
     7
  6
CONTINUOUS
 10
1.433839
 20
0.189354
  0
VERTEX
  8
COUCHE1
 62
     7
  6
CONTINUOUS
 10
1.506614
 20
0.215819
  0
VERTEX
  8
COUCHE1
 62
     7
  6
CONTINUOUS
 10
1.347839
 20
-0.326654
  0
SEQEND
  8
0
  0
POLYLINE
  8
COUCHE1
 62
     7
  6
CONTINUOUS
 66
     1
 40
0.003000
 41
0.003000
  0
VERTEX
  8
COUCHE1
 62
     7
  6
CONTINUOUS
 10
0.408406
 20
-0.492071
  0
VERTEX
  8
COUCHE1
 62
     7
  6
CONTINUOUS
 10
0.401776
 20
-0.508594
  0
VERTEX
  8
COUCHE1
 62
     7
  6
CONTINUOUS
 10
0.391862
 20
-0.544980
  0
VERTEX
  8
COUCHE1
 62
     7
  6
CONTINUOUS
 10
0.375323
 20
-0.604520
  0
VERTEX
  8
COUCHE1
 62
     7
  6
CONTINUOUS
 10
0.355472
 20
-0.677299
  0
VERTEX
  8
COUCHE1
 62
     7
  6
CONTINUOUS
 10
0.332323
 20
-0.766622
  0
VERTEX
  8
COUCHE1
 62
     7
  6
CONTINUOUS
 10
0.309161
 20
-0.859224
  0
VERTEX
  8
COUCHE1
 62
     7
  6
CONTINUOUS
 10
0.282713
 20
-0.955154
  0
VERTEX
  8
COUCHE1
 62
     7
  6
CONTINUOUS
 10
0.256232
 20
-1.051091
  0
SEQEND
  8
0
  0
POLYLINE
  8
COUCHE1
 62
     7
  6
CONTINUOUS
 66
     1
 40
0.003000
 41
0.003000
  0
VERTEX
  8
COUCHE1
 62
     7
  6
CONTINUOUS
 10
0.256232
 20
-1.051091
  0
VERTEX
  8
COUCHE1
 62
     7
  6
CONTINUOUS
 10
0.239693
 20
-1.117244
  0
VERTEX
  8
COUCHE1
 62
     7
  6
CONTINUOUS
 10
0.223150
 20
-1.176776
  0
VERTEX
  8
COUCHE1
 62
     7
  6
CONTINUOUS
 10
0.209933
 20
-1.233031
  0
VERTEX
  8
COUCHE1
 62
     7
  6
CONTINUOUS
 10
0.200008
 20
-1.279327
  0
VERTEX
  8
COUCHE1
 62
     7
  6
CONTINUOUS
 10
0.190087
 20
-1.319024
  0
VERTEX
  8
COUCHE1
 62
     7
  6
CONTINUOUS
 10
0.180169
 20
-1.352106
  0
VERTEX
  8
COUCHE1
 62
     7
  6
CONTINUOUS
 10
0.176843
 20
-1.368626
  0
VERTEX
  8
COUCHE1
 62
     7
  6
CONTINUOUS
 10
0.176843
 20
-1.375256
  0
SEQEND
  8
0
  0
POLYLINE
  8
COUCHE1
 62
     7
  6
CONTINUOUS
 66
     1
 40
0.003000
 41
0.003000
  0
VERTEX
  8
COUCHE1
 62
     7
  6
CONTINUOUS
 10
0.176843
 20
-1.375256
  0
VERTEX
  8
COUCHE1
 62
     7
  6
CONTINUOUS
 10
0.186776
 20
-1.375256
  0
VERTEX
  8
COUCHE1
 62
     7
  6
CONTINUOUS
 10
0.219843
 20
-1.375256
  0
VERTEX
  8
COUCHE1
 62
     7
  6
CONTINUOUS
 10
0.272772
 20
-1.371953
  0
VERTEX
  8
COUCHE1
 62
     7
  6
CONTINUOUS
 10
0.338945
 20
-1.365335
  0
VERTEX
  8
COUCHE1
 62
     7
  6
CONTINUOUS
 10
0.418303
 20
-1.355413
  0
VERTEX
  8
COUCHE1
 62
     7
  6
CONTINUOUS
 10
0.504335
 20
-1.342173
  0
VERTEX
  8
COUCHE1
 62
     7
  6
CONTINUOUS
 10
0.600256
 20
-1.325642
  0
VERTEX
  8
COUCHE1
 62
     7
  6
CONTINUOUS
 10
0.699488
 20
-1.302476
  0
SEQEND
  8
0
  0
POLYLINE
  8
COUCHE1
 62
     7
  6
CONTINUOUS
 66
     1
 40
0.003000
 41
0.003000
  0
VERTEX
  8
COUCHE1
 62
     7
  6
CONTINUOUS
 10
0.699488
 20
-1.302476
  0
VERTEX
  8
COUCHE1
 62
     7
  6
CONTINUOUS
 10
0.795429
 20
-1.279327
  0
VERTEX
  8
COUCHE1
 62
     7
  6
CONTINUOUS
 10
0.891346
 20
-1.249555
  0
VERTEX
  8
COUCHE1
 62
     7
  6
CONTINUOUS
 10
0.980661
 20
-1.219791
  0
VERTEX
  8
COUCHE1
 62
     7
  6
CONTINUOUS
 10
1.060047
 20
-1.190016
  0
VERTEX
  8
COUCHE1
 62
     7
  6
CONTINUOUS
 10
1.126205
 20
-1.163543
  0
VERTEX
  8
COUCHE1
 62
     7
  6
CONTINUOUS
 10
1.179122
 20
-1.140406
  0
VERTEX
  8
COUCHE1
 62
     7
  6
CONTINUOUS
 10
1.212205
 20
-1.127165
  0
VERTEX
  8
COUCHE1
 62
     7
  6
CONTINUOUS
 10
1.225441
 20
-1.120567
  0
SEQEND
  8
0
  0
POLYLINE
  8
COUCHE1
 62
     7
  6
CONTINUOUS
 66
     1
 40
0.003000
 41
0.003000
  0
VERTEX
  8
COUCHE1
 62
     7
  6
CONTINUOUS
 10
1.225441
 20
-1.120567
  0
VERTEX
  8
COUCHE1
 62
     7
  6
CONTINUOUS
 10
1.232059
 20
-1.120567
  0
VERTEX
  8
COUCHE1
 62
     7
  6
CONTINUOUS
 10
1.255209
 20
-1.120567
  0
VERTEX
  8
COUCHE1
 62
     7
  6
CONTINUOUS
 10
1.288291
 20
-1.120567
  0
VERTEX
  8
COUCHE1
 62
     7
  6
CONTINUOUS
 10
1.327984
 20
-1.120567
  0
VERTEX
  8
COUCHE1
 62
     7
  6
CONTINUOUS
 10
1.364378
 20
-1.120567
  0
VERTEX
  8
COUCHE1
 62
     7
  6
CONTINUOUS
 10
1.397457
 20
-1.120567
  0
VERTEX
  8
COUCHE1
 62
     7
  6
CONTINUOUS
 10
1.420602
 20
-1.120567
  0
VERTEX
  8
COUCHE1
 62
     7
  6
CONTINUOUS
 10
1.430528
 20
-1.120567
  0
SEQEND
  8
0
  0
POLYLINE
  8
COUCHE1
 62
     7
  6
CONTINUOUS
 66
     1
 40
0.003000
 41
0.003000
  0
VERTEX
  8
COUCHE1
 62
     7
  6
CONTINUOUS
 10
1.430528
 20
-1.120567
  0
VERTEX
  8
COUCHE1
 62
     7
  6
CONTINUOUS
 10
1.430528
 20
-1.123854
  0
VERTEX
  8
COUCHE1
 62
     7
  6
CONTINUOUS
 10
1.437146
 20
-1.127165
  0
VERTEX
  8
COUCHE1
 62
     7
  6
CONTINUOUS
 10
1.447063
 20
-1.130476
  0
VERTEX
  8
COUCHE1
 62
     7
  6
CONTINUOUS
 10
1.456996
 20
-1.137098
  0
VERTEX
  8
COUCHE1
 62
     7
  6
CONTINUOUS
 10
1.466929
 20
-1.143701
  0
VERTEX
  8
COUCHE1
 62
     7
  6
CONTINUOUS
 10
1.476839
 20
-1.147008
  0
VERTEX
  8
COUCHE1
 62
     7
  6
CONTINUOUS
 10
1.483449
 20
-1.150323
  0
VERTEX
  8
COUCHE1
 62
     7
  6
CONTINUOUS
 10
1.486756
 20
-1.150323
  0
SEQEND
  8
0
  0
POLYLINE
  8
COUCHE1
 62
     7
  6
CONTINUOUS
 66
     1
 40
0.003000
 41
0.003000
  0
VERTEX
  8
COUCHE1
 62
     7
  6
CONTINUOUS
 10
1.486756
 20
-1.150323
  0
VERTEX
  8
COUCHE1
 62
     7
  6
CONTINUOUS
 10
1.493374
 20
-1.120567
  0
VERTEX
  8
COUCHE1
 62
     7
  6
CONTINUOUS
 10
1.513228
 20
-1.034551
  0
VERTEX
  8
COUCHE1
 62
     7
  6
CONTINUOUS
 10
1.542996
 20
-0.915469
  0
VERTEX
  8
COUCHE1
 62
     7
  6
CONTINUOUS
 10
1.576067
 20
-0.779850
  0
VERTEX
  8
COUCHE1
 62
     7
  6
CONTINUOUS
 10
1.605843
 20
-0.644209
  0
VERTEX
  8
COUCHE1
 62
     7
  6
CONTINUOUS
 10
1.635622
 20
-0.525138
  0
VERTEX
  8
COUCHE1
 62
     7
  6
CONTINUOUS
 10
1.655472
 20
-0.439130
  0
VERTEX
  8
COUCHE1
 62
     7
  6
CONTINUOUS
 10
1.665390
 20
-0.406055
  0
SEQEND
  8
0
  0
POLYLINE
  8
COUCHE1
 62
     7
  6
CONTINUOUS
 66
     1
 40
0.003000
 41
0.003000
  0
VERTEX
  8
COUCHE1
 62
     7
  6
CONTINUOUS
 10
1.665390
 20
-0.406055
  0
VERTEX
  8
COUCHE1
 62
     7
  6
CONTINUOUS
 10
1.658764
 20
-0.409354
  0
VERTEX
  8
COUCHE1
 62
     7
  6
CONTINUOUS
 10
1.642232
 20
-0.406055
  0
VERTEX
  8
COUCHE1
 62
     7
  6
CONTINUOUS
 10
1.615768
 20
-0.402748
  0
VERTEX
  8
COUCHE1
 62
     7
  6
CONTINUOUS
 10
1.586004
 20
-0.396126
  0
VERTEX
  8
COUCHE1
 62
     7
  6
CONTINUOUS
 10
1.552913
 20
-0.382890
  0
VERTEX
  8
COUCHE1
 62
     7
  6
CONTINUOUS
 10
1.516539
 20
-0.363055
  0
VERTEX
  8
COUCHE1
 62
     7
  6
CONTINUOUS
 10
1.483449
 20
-0.333276
  0
VERTEX
  8
COUCHE1
 62
     7
  6
CONTINUOUS
 10
1.453685
 20
-0.290272
  0
SEQEND
  8
0
  0
POLYLINE
  8
COUCHE1
 62
     7
  6
CONTINUOUS
 66
     1
 40
0.003000
 41
0.003000
  0
VERTEX
  8
COUCHE1
 62
     7
  6
CONTINUOUS
 10
1.453685
 20
-0.290272
  0
VERTEX
  8
COUCHE1
 62
     7
  6
CONTINUOUS
 10
1.407366
 20
-0.300209
  0
VERTEX
  8
COUCHE1
 62
     7
  6
CONTINUOUS
 10
1.288291
 20
-0.323343
  0
VERTEX
  8
COUCHE1
 62
     7
  6
CONTINUOUS
 10
1.122898
 20
-0.356441
  0
VERTEX
  8
COUCHE1
 62
     7
  6
CONTINUOUS
 10
0.931028
 20
-0.392815
  0
VERTEX
  8
COUCHE1
 62
     7
  6
CONTINUOUS
 10
0.735878
 20
-0.429209
  0
VERTEX
  8
COUCHE1
 62
     7
  6
CONTINUOUS
 10
0.570484
 20
-0.462291
  0
VERTEX
  8
COUCHE1
 62
     7
  6
CONTINUOUS
 10
0.451390
 20
-0.485441
  0
VERTEX
  8
COUCHE1
 62
     7
  6
CONTINUOUS
 10
0.408406
 20
-0.492071
  0
SEQEND
  8
0
  0
POLYLINE
  8
COUCHE1
 62
     7
  6
CONTINUOUS
 66
     1
 40
0.003000
 41
0.003000
  0
VERTEX
  8
COUCHE1
 62
     7
  6
CONTINUOUS
 10
-2.502520
 20
-1.401724
  0
VERTEX
  8
COUCHE1
 62
     7
  6
CONTINUOUS
 10
-2.509146
 20
-1.401724
  0
VERTEX
  8
COUCHE1
 62
     7
  6
CONTINUOUS
 10
-2.528992
 20
-1.395110
  0
VERTEX
  8
COUCHE1
 62
     7
  6
CONTINUOUS
 10
-2.552142
 20
-1.385185
  0
VERTEX
  8
COUCHE1
 62
     7
  6
CONTINUOUS
 10
-2.578602
 20
-1.375256
  0
VERTEX
  8
COUCHE1
 62
     7
  6
CONTINUOUS
 10
-2.605063
 20
-1.368626
  0
VERTEX
  8
COUCHE1
 62
     7
  6
CONTINUOUS
 10
-2.628220
 20
-1.358717
  0
VERTEX
  8
COUCHE1
 62
     7
  6
CONTINUOUS
 10
-2.648067
 20
-1.352106
  0
VERTEX
  8
COUCHE1
 62
     7
  6
CONTINUOUS
 10
-2.651378
 20
-1.348795
  0
SEQEND
  8
0
  0
POLYLINE
  8
COUCHE1
 62
     7
  6
CONTINUOUS
 66
     1
 40
0.003000
 41
0.003000
  0
VERTEX
  8
COUCHE1
 62
     7
  6
CONTINUOUS
 10
-2.651378
 20
-1.348795
  0
VERTEX
  8
COUCHE1
 62
     7
  6
CONTINUOUS
 10
-2.661307
 20
-1.309091
  0
VERTEX
  8
COUCHE1
 62
     7
  6
CONTINUOUS
 10
-2.681138
 20
-1.199949
  0
VERTEX
  8
COUCHE1
 62
     7
  6
CONTINUOUS
 10
-2.710921
 20
-1.041157
  0
VERTEX
  8
COUCHE1
 62
     7
  6
CONTINUOUS
 10
-2.743996
 20
-0.862531
  0
VERTEX
  8
COUCHE1
 62
     7
  6
CONTINUOUS
 10
-2.780382
 20
-0.687228
  0
VERTEX
  8
COUCHE1
 62
     7
  6
CONTINUOUS
 10
-2.810157
 20
-0.528453
  0
VERTEX
  8
COUCHE1
 62
     7
  6
CONTINUOUS
 10
-2.830004
 20
-0.419291
  0
VERTEX
  8
COUCHE1
 62
     7
  6
CONTINUOUS
 10
-2.836626
 20
-0.376280
  0
SEQEND
  8
0
  0
POLYLINE
  8
COUCHE1
 62
     7
  6
CONTINUOUS
 66
     1
 40
0.003000
 41
0.003000
  0
VERTEX
  8
COUCHE1
 62
     7
  6
CONTINUOUS
 10
-2.836626
 20
-0.376280
  0
VERTEX
  8
COUCHE1
 62
     7
  6
CONTINUOUS
 10
-2.826697
 20
-0.372976
  0
VERTEX
  8
COUCHE1
 62
     7
  6
CONTINUOUS
 10
-2.790299
 20
-0.359736
  0
VERTEX
  8
COUCHE1
 62
     7
  6
CONTINUOUS
 10
-2.740689
 20
-0.343205
  0
VERTEX
  8
COUCHE1
 62
     7
  6
CONTINUOUS
 10
-2.684449
 20
-0.320039
  0
VERTEX
  8
COUCHE1
 62
     7
  6
CONTINUOUS
 10
-2.624917
 20
-0.300209
  0
VERTEX
  8
COUCHE1
 62
     7
  6
CONTINUOUS
 10
-2.568677
 20
-0.283657
  0
VERTEX
  8
COUCHE1
 62
     7
  6
CONTINUOUS
 10
-2.528992
 20
-0.270437
  0
VERTEX
  8
COUCHE1
 62
     7
  6
CONTINUOUS
 10
-2.502520
 20
-0.263815
  0
SEQEND
  8
0
  0
POLYLINE
  8
COUCHE1
 62
     7
  6
CONTINUOUS
 66
     1
 40
0.003000
 41
0.003000
  0
VERTEX
  8
COUCHE1
 62
     7
  6
CONTINUOUS
 10
-2.502520
 20
-0.263815
  0
VERTEX
  8
COUCHE1
 62
     7
  6
CONTINUOUS
 10
-2.469453
 20
-0.283657
  0
VERTEX
  8
COUCHE1
 62
     7
  6
CONTINUOUS
 10
-2.416516
 20
-0.333276
  0
VERTEX
  8
COUCHE1
 62
     7
  6
CONTINUOUS
 10
-2.353665
 20
-0.399437
  0
VERTEX
  8
COUCHE1
 62
     7
  6
CONTINUOUS
 10
-2.287508
 20
-0.475524
  0
VERTEX
  8
COUCHE1
 62
     7
  6
CONTINUOUS
 10
-2.224657
 20
-0.551602
  0
VERTEX
  8
COUCHE1
 62
     7
  6
CONTINUOUS
 10
-2.171736
 20
-0.617756
  0
VERTEX
  8
COUCHE1
 62
     7
  6
CONTINUOUS
 10
-2.135339
 20
-0.664055
  0
VERTEX
  8
COUCHE1
 62
     7
  6
CONTINUOUS
 10
-2.118807
 20
-0.680606
  0
SEQEND
  8
0
  0
POLYLINE
  8
COUCHE1
 62
     7
  6
CONTINUOUS
 66
     1
 40
0.003000
 41
0.003000
  0
VERTEX
  8
COUCHE1
 62
     7
  6
CONTINUOUS
 10
-2.118807
 20
-0.680606
  0
VERTEX
  8
COUCHE1
 62
     7
  6
CONTINUOUS
 10
-2.115508
 20
-0.680606
  0
VERTEX
  8
COUCHE1
 62
     7
  6
CONTINUOUS
 10
-2.105583
 20
-0.680606
  0
VERTEX
  8
COUCHE1
 62
     7
  6
CONTINUOUS
 10
-2.089043
 20
-0.677299
  0
VERTEX
  8
COUCHE1
 62
     7
  6
CONTINUOUS
 10
-2.072504
 20
-0.670681
  0
VERTEX
  8
COUCHE1
 62
     7
  6
CONTINUOUS
 10
-2.055965
 20
-0.667366
  0
VERTEX
  8
COUCHE1
 62
     7
  6
CONTINUOUS
 10
-2.039421
 20
-0.664055
  0
VERTEX
  8
COUCHE1
 62
     7
  6
CONTINUOUS
 10
-2.029500
 20
-0.664055
  0
VERTEX
  8
COUCHE1
 62
     7
  6
CONTINUOUS
 10
-2.022874
 20
-0.660744
  0
SEQEND
  8
0
  0
POLYLINE
  8
COUCHE1
 62
     7
  6
CONTINUOUS
 66
     1
 40
0.003000
 41
0.003000
  0
VERTEX
  8
COUCHE1
 62
     7
  6
CONTINUOUS
 10
-2.022874
 20
-0.660744
  0
VERTEX
  8
COUCHE1
 62
     7
  6
CONTINUOUS
 10
-2.009657
 20
-0.677299
  0
VERTEX
  8
COUCHE1
 62
     7
  6
CONTINUOUS
 10
-1.973276
 20
-0.713685
  0
VERTEX
  8
COUCHE1
 62
     7
  6
CONTINUOUS
 10
-1.923650
 20
-0.769929
  0
VERTEX
  8
COUCHE1
 62
     7
  6
CONTINUOUS
 10
-1.864110
 20
-0.829457
  0
VERTEX
  8
COUCHE1
 62
     7
  6
CONTINUOUS
 10
-1.804547
 20
-0.892299
  0
VERTEX
  8
COUCHE1
 62
     7
  6
CONTINUOUS
 10
-1.754925
 20
-0.948535
  0
VERTEX
  8
COUCHE1
 62
     7
  6
CONTINUOUS
 10
-1.718567
 20
-0.984929
  0
VERTEX
  8
COUCHE1
 62
     7
  6
CONTINUOUS
 10
-1.702020
 20
-0.998161
  0
SEQEND
  8
0
  0
POLYLINE
  8
COUCHE1
 62
     7
  6
CONTINUOUS
 66
     1
 40
0.003000
 41
0.003000
  0
VERTEX
  8
COUCHE1
 62
     7
  6
CONTINUOUS
 10
-1.702020
 20
-0.998161
  0
VERTEX
  8
COUCHE1
 62
     7
  6
CONTINUOUS
 10
-1.738402
 20
-1.018008
  0
VERTEX
  8
COUCHE1
 62
     7
  6
CONTINUOUS
 10
-1.827713
 20
-1.064315
  0
VERTEX
  8
COUCHE1
 62
     7
  6
CONTINUOUS
 10
-1.956724
 20
-1.127165
  0
VERTEX
  8
COUCHE1
 62
     7
  6
CONTINUOUS
 10
-2.102276
 20
-1.199949
  0
VERTEX
  8
COUCHE1
 62
     7
  6
CONTINUOUS
 10
-2.251130
 20
-1.276024
  0
VERTEX
  8
COUCHE1
 62
     7
  6
CONTINUOUS
 10
-2.380134
 20
-1.338854
  0
VERTEX
  8
COUCHE1
 62
     7
  6
CONTINUOUS
 10
-2.469453
 20
-1.385185
  0
VERTEX
  8
COUCHE1
 62
     7
  6
CONTINUOUS
 10
-2.502520
 20
-1.401724
  0
SEQEND
  8
0
  0
SOLID
  8
COUCHE1
 62
     7
  6
CONTINUOUS
 10
2.075559
 20
-0.564835
 11
2.049102
 21
-1.368626
 12
2.012717
 22
-0.574756
 13
1.973020
 23
-1.365335
  0
POLYLINE
  8
COUCHE1
 62
     7
  6
CONTINUOUS
 66
     1
 40
0.003000
 41
0.003000
 70
     1
  0
VERTEX
  8
COUCHE1
 62
     7
  6
CONTINUOUS
 10
2.075559
 20
-0.564835
  0
VERTEX
  8
COUCHE1
 62
     7
  6
CONTINUOUS
 10
2.049102
 20
-1.368626
  0
VERTEX
  8
COUCHE1
 62
     7
  6
CONTINUOUS
 10
1.973020
 20
-1.365335
  0
VERTEX
  8
COUCHE1
 62
     7
  6
CONTINUOUS
 10
2.012717
 20
-0.574756
  0
SEQEND
  8
0
  0
POLYLINE
  8
COUCHE1
 62
     7
  6
CONTINUOUS
 66
     1
 40
0.003000
 41
0.003000
 70
     1
  0
VERTEX
  8
COUCHE1
 62
     7
  6
CONTINUOUS
 10
2.075559
 20
-0.564835
  0
VERTEX
  8
COUCHE1
 62
     7
  6
CONTINUOUS
 10
2.049102
 20
-1.368626
  0
VERTEX
  8
COUCHE1
 62
     7
  6
CONTINUOUS
 10
1.973020
 20
-1.365335
  0
VERTEX
  8
COUCHE1
 62
     7
  6
CONTINUOUS
 10
2.012717
 20
-0.574756
  0
SEQEND
  8
0
  0
POLYLINE
  8
COUCHE1
 62
     7
  6
CONTINUOUS
 66
     1
 40
0.003000
 41
0.003000
  0
VERTEX
  8
COUCHE1
 62
     7
  6
CONTINUOUS
 10
0.484472
 20
-1.229717
  0
VERTEX
  8
COUCHE1
 62
     7
  6
CONTINUOUS
 10
0.481181
 20
-1.236323
  0
VERTEX
  8
COUCHE1
 62
     7
  6
CONTINUOUS
 10
0.481181
 20
-1.249555
  0
VERTEX
  8
COUCHE1
 62
     7
  6
CONTINUOUS
 10
0.477862
 20
-1.269406
  0
VERTEX
  8
COUCHE1
 62
     7
  6
CONTINUOUS
 10
0.477862
 20
-1.292559
  0
VERTEX
  8
COUCHE1
 62
     7
  6
CONTINUOUS
 10
0.477862
 20
-1.319024
  0
VERTEX
  8
COUCHE1
 62
     7
  6
CONTINUOUS
 10
0.484472
 20
-1.345484
  0
VERTEX
  8
COUCHE1
 62
     7
  6
CONTINUOUS
 10
0.491094
 20
-1.371953
  0
VERTEX
  8
COUCHE1
 62
     7
  6
CONTINUOUS
 10
0.504335
 20
-1.391803
  0
SEQEND
  8
0
  0
POLYLINE
  8
COUCHE1
 62
     7
  6
CONTINUOUS
 66
     1
 40
0.003000
 41
0.003000
  0
VERTEX
  8
COUCHE1
 62
     7
  6
CONTINUOUS
 10
0.504335
 20
-1.391803
  0
VERTEX
  8
COUCHE1
 62
     7
  6
CONTINUOUS
 10
0.514260
 20
-1.418260
  0
VERTEX
  8
COUCHE1
 62
     7
  6
CONTINUOUS
 10
0.530787
 20
-1.438106
  0
VERTEX
  8
COUCHE1
 62
     7
  6
CONTINUOUS
 10
0.553941
 20
-1.451346
  0
VERTEX
  8
COUCHE1
 62
     7
  6
CONTINUOUS
 10
0.580409
 20
-1.461268
  0
VERTEX
  8
COUCHE1
 62
     7
  6
CONTINUOUS
 10
0.606870
 20
-1.467878
  0
VERTEX
  8
COUCHE1
 62
     7
  6
CONTINUOUS
 10
0.626724
 20
-1.474508
  0
VERTEX
  8
COUCHE1
 62
     7
  6
CONTINUOUS
 10
0.643256
 20
-1.474508
  0
VERTEX
  8
COUCHE1
 62
     7
  6
CONTINUOUS
 10
0.649874
 20
-1.474508
  0
SEQEND
  8
0
  0
POLYLINE
  8
COUCHE1
 62
     7
  6
CONTINUOUS
 66
     1
 40
0.003000
 41
0.003000
  0
VERTEX
  8
COUCHE1
 62
     7
  6
CONTINUOUS
 10
0.649874
 20
-1.474508
  0
VERTEX
  8
COUCHE1
 62
     7
  6
CONTINUOUS
 10
0.663098
 20
-1.471185
  0
VERTEX
  8
COUCHE1
 62
     7
  6
CONTINUOUS
 10
0.706114
 20
-1.454650
  0
VERTEX
  8
COUCHE1
 62
     7
  6
CONTINUOUS
 10
0.765646
 20
-1.431492
  0
VERTEX
  8
COUCHE1
 62
     7
  6
CONTINUOUS
 10
0.838417
 20
-1.405028
  0
VERTEX
  8
COUCHE1
 62
     7
  6
CONTINUOUS
 10
0.914496
 20
-1.378567
  0
VERTEX
  8
COUCHE1
 62
     7
  6
CONTINUOUS
 10
0.983957
 20
-1.355413
  0
VERTEX
  8
COUCHE1
 62
     7
  6
CONTINUOUS
 10
1.043516
 20
-1.338854
  0
VERTEX
  8
COUCHE1
 62
     7
  6
CONTINUOUS
 10
1.086520
 20
-1.328945
  0
SEQEND
  8
0
  0
POLYLINE
  8
COUCHE1
 62
     7
  6
CONTINUOUS
 66
     1
 40
0.003000
 41
0.003000
  0
VERTEX
  8
COUCHE1
 62
     7
  6
CONTINUOUS
 10
1.086520
 20
-1.328945
  0
VERTEX
  8
COUCHE1
 62
     7
  6
CONTINUOUS
 10
1.139433
 20
-1.322327
  0
VERTEX
  8
COUCHE1
 62
     7
  6
CONTINUOUS
 10
1.202283
 20
-1.315720
  0
VERTEX
  8
COUCHE1
 62
     7
  6
CONTINUOUS
 10
1.271752
 20
-1.312409
  0
VERTEX
  8
COUCHE1
 62
     7
  6
CONTINUOUS
 10
1.341220
 20
-1.305795
  0
VERTEX
  8
COUCHE1
 62
     7
  6
CONTINUOUS
 10
1.410677
 20
-1.299181
  0
VERTEX
  8
COUCHE1
 62
     7
  6
CONTINUOUS
 10
1.476839
 20
-1.289264
  0
VERTEX
  8
COUCHE1
 62
     7
  6
CONTINUOUS
 10
1.529768
 20
-1.276024
  0
VERTEX
  8
COUCHE1
 62
     7
  6
CONTINUOUS
 10
1.576067
 20
-1.256169
  0
SEQEND
  8
0
  0
POLYLINE
  8
COUCHE1
 62
     7
  6
CONTINUOUS
 66
     1
 40
0.003000
 41
0.003000
  0
VERTEX
  8
COUCHE1
 62
     7
  6
CONTINUOUS
 10
1.576067
 20
-1.256169
  0
VERTEX
  8
COUCHE1
 62
     7
  6
CONTINUOUS
 10
1.582689
 20
-1.252874
  0
VERTEX
  8
COUCHE1
 62
     7
  6
CONTINUOUS
 10
1.582689
 20
-1.242945
  0
VERTEX
  8
COUCHE1
 62
     7
  6
CONTINUOUS
 10
1.586004
 20
-1.233031
  0
VERTEX
  8
COUCHE1
 62
     7
  6
CONTINUOUS
 10
1.582689
 20
-1.223098
  0
VERTEX
  8
COUCHE1
 62
     7
  6
CONTINUOUS
 10
1.579390
 20
-1.216480
  0
VERTEX
  8
COUCHE1
 62
     7
  6
CONTINUOUS
 10
1.576067
 20
-1.209866
  0
VERTEX
  8
COUCHE1
 62
     7
  6
CONTINUOUS
 10
1.576067
 20
-1.203248
  0
VERTEX
  8
COUCHE1
 62
     7
  6
CONTINUOUS
 10
1.576067
 20
-1.199949
  0
SEQEND
  8
0
  0
POLYLINE
  8
COUCHE1
 62
     7
  6
CONTINUOUS
 66
     1
 40
0.003000
 41
0.003000
  0
VERTEX
  8
COUCHE1
 62
     7
  6
CONTINUOUS
 10
1.576067
 20
-1.199949
  0
VERTEX
  8
COUCHE1
 62
     7
  6
CONTINUOUS
 10
1.562850
 20
-1.193331
  0
VERTEX
  8
COUCHE1
 62
     7
  6
CONTINUOUS
 10
1.529768
 20
-1.176776
  0
VERTEX
  8
COUCHE1
 62
     7
  6
CONTINUOUS
 10
1.483449
 20
-1.150323
  0
VERTEX
  8
COUCHE1
 62
     7
  6
CONTINUOUS
 10
1.430528
 20
-1.120567
  0
VERTEX
  8
COUCHE1
 62
     7
  6
CONTINUOUS
 10
1.374287
 20
-1.090780
  0
VERTEX
  8
COUCHE1
 62
     7
  6
CONTINUOUS
 10
1.327984
 20
-1.064315
  0
VERTEX
  8
COUCHE1
 62
     7
  6
CONTINUOUS
 10
1.294909
 20
-1.047783
  0
VERTEX
  8
COUCHE1
 62
     7
  6
CONTINUOUS
 10
1.284984
 20
-1.037854
  0
SEQEND
  8
0
  0
POLYLINE
  8
COUCHE1
 62
     7
  6
CONTINUOUS
 66
     1
 40
0.003000
 41
0.003000
  0
VERTEX
  8
COUCHE1
 62
     7
  6
CONTINUOUS
 10
1.284984
 20
-1.037854
  0
VERTEX
  8
COUCHE1
 62
     7
  6
CONTINUOUS
 10
1.281689
 20
-1.037854
  0
VERTEX
  8
COUCHE1
 62
     7
  6
CONTINUOUS
 10
1.275059
 20
-1.034551
  0
VERTEX
  8
COUCHE1
 62
     7
  6
CONTINUOUS
 10
1.265146
 20
-1.031244
  0
VERTEX
  8
COUCHE1
 62
     7
  6
CONTINUOUS
 10
1.255209
 20
-1.024614
  0
VERTEX
  8
COUCHE1
 62
     7
  6
CONTINUOUS
 10
1.238673
 20
-1.018008
  0
VERTEX
  8
COUCHE1
 62
     7
  6
CONTINUOUS
 10
1.218827
 20
-1.011386
  0
VERTEX
  8
COUCHE1
 62
     7
  6
CONTINUOUS
 10
1.198972
 20
-1.008083
  0
VERTEX
  8
COUCHE1
 62
     7
  6
CONTINUOUS
 10
1.175823
 20
-1.001472
  0
SEQEND
  8
0
  0
POLYLINE
  8
COUCHE1
 62
     7
  6
CONTINUOUS
 66
     1
 40
0.003000
 41
0.003000
  0
VERTEX
  8
COUCHE1
 62
     7
  6
CONTINUOUS
 10
1.175823
 20
-1.001472
  0
VERTEX
  8
COUCHE1
 62
     7
  6
CONTINUOUS
 10
1.103051
 20
-1.018008
  0
VERTEX
  8
COUCHE1
 62
     7
  6
CONTINUOUS
 10
1.003815
 20
-1.044476
  0
VERTEX
  8
COUCHE1
 62
     7
  6
CONTINUOUS
 10
0.891346
 20
-1.084161
  0
VERTEX
  8
COUCHE1
 62
     7
  6
CONTINUOUS
 10
0.772272
 20
-1.123854
  0
VERTEX
  8
COUCHE1
 62
     7
  6
CONTINUOUS
 10
0.663098
 20
-1.163543
  0
VERTEX
  8
COUCHE1
 62
     7
  6
CONTINUOUS
 10
0.570484
 20
-1.196638
  0
VERTEX
  8
COUCHE1
 62
     7
  6
CONTINUOUS
 10
0.507642
 20
-1.223098
  0
VERTEX
  8
COUCHE1
 62
     7
  6
CONTINUOUS
 10
0.484472
 20
-1.229717
  0
SEQEND
  8
0
  0
POLYLINE
  8
COUCHE1
 62
     7
  6
CONTINUOUS
 66
     1
 40
0.003000
 41
0.003000
  0
VERTEX
  8
COUCHE1
 62
     7
  6
CONTINUOUS
 10
0.504335
 20
-1.398406
  0
VERTEX
  8
COUCHE1
 62
     7
  6
CONTINUOUS
 10
0.501008
 20
-1.398406
  0
VERTEX
  8
COUCHE1
 62
     7
  6
CONTINUOUS
 10
0.501008
 20
-1.395110
  0
VERTEX
  8
COUCHE1
 62
     7
  6
CONTINUOUS
 10
0.497709
 20
-1.388492
  0
VERTEX
  8
COUCHE1
 62
     7
  6
CONTINUOUS
 10
0.494402
 20
-1.381866
  0
VERTEX
  8
COUCHE1
 62
     7
  6
CONTINUOUS
 10
0.487783
 20
-1.375256
  0
VERTEX
  8
COUCHE1
 62
     7
  6
CONTINUOUS
 10
0.484472
 20
-1.368626
  0
VERTEX
  8
COUCHE1
 62
     7
  6
CONTINUOUS
 10
0.484472
 20
-1.365335
  0
VERTEX
  8
COUCHE1
 62
     7
  6
CONTINUOUS
 10
0.484472
 20
-1.362024
  0
SEQEND
  8
0
  0
POLYLINE
  8
COUCHE1
 62
     7
  6
CONTINUOUS
 66
     1
 40
0.003000
 41
0.003000
  0
VERTEX
  8
COUCHE1
 62
     7
  6
CONTINUOUS
 10
0.484472
 20
-1.362024
  0
VERTEX
  8
COUCHE1
 62
     7
  6
CONTINUOUS
 10
0.481181
 20
-1.348795
  0
VERTEX
  8
COUCHE1
 62
     7
  6
CONTINUOUS
 10
0.477862
 20
-1.325642
  0
VERTEX
  8
COUCHE1
 62
     7
  6
CONTINUOUS
 10
0.477862
 20
-1.305795
  0
VERTEX
  8
COUCHE1
 62
     7
  6
CONTINUOUS
 10
0.477862
 20
-1.282634
  0
VERTEX
  8
COUCHE1
 62
     7
  6
CONTINUOUS
 10
0.481181
 20
-1.262791
  0
VERTEX
  8
COUCHE1
 62
     7
  6
CONTINUOUS
 10
0.481181
 20
-1.242945
  0
VERTEX
  8
COUCHE1
 62
     7
  6
CONTINUOUS
 10
0.481181
 20
-1.233031
  0
VERTEX
  8
COUCHE1
 62
     7
  6
CONTINUOUS
 10
0.484472
 20
-1.226417
  0
SEQEND
  8
0
  0
POLYLINE
  8
COUCHE1
 62
     7
  6
CONTINUOUS
 66
     1
 40
0.003000
 41
0.003000
  0
VERTEX
  8
COUCHE1
 62
     7
  6
CONTINUOUS
 10
0.484472
 20
-1.226417
  0
VERTEX
  8
COUCHE1
 62
     7
  6
CONTINUOUS
 10
0.507642
 20
-1.219791
  0
VERTEX
  8
COUCHE1
 62
     7
  6
CONTINUOUS
 10
0.573799
 20
-1.193331
  0
VERTEX
  8
COUCHE1
 62
     7
  6
CONTINUOUS
 10
0.669724
 20
-1.156925
  0
VERTEX
  8
COUCHE1
 62
     7
  6
CONTINUOUS
 10
0.785496
 20
-1.117244
  0
VERTEX
  8
COUCHE1
 62
     7
  6
CONTINUOUS
 10
0.904583
 20
-1.074244
  0
VERTEX
  8
COUCHE1
 62
     7
  6
CONTINUOUS
 10
1.017035
 20
-1.041157
  0
VERTEX
  8
COUCHE1
 62
     7
  6
CONTINUOUS
 10
1.112961
 20
-1.014693
  0
VERTEX
  8
COUCHE1
 62
     7
  6
CONTINUOUS
 10
1.179122
 20
-1.001472
  0
SEQEND
  8
0
  0
POLYLINE
  8
COUCHE1
 62
     7
  6
CONTINUOUS
 66
     1
 40
0.003000
 41
0.003000
  0
VERTEX
  8
COUCHE1
 62
     7
  6
CONTINUOUS
 10
1.179122
 20
-1.001472
  0
VERTEX
  8
COUCHE1
 62
     7
  6
CONTINUOUS
 10
1.189063
 20
-1.001472
  0
VERTEX
  8
COUCHE1
 62
     7
  6
CONTINUOUS
 10
1.205594
 20
-1.004780
  0
VERTEX
  8
COUCHE1
 62
     7
  6
CONTINUOUS
 10
1.222142
 20
-1.011386
  0
VERTEX
  8
COUCHE1
 62
     7
  6
CONTINUOUS
 10
1.241972
 20
-1.018008
  0
VERTEX
  8
COUCHE1
 62
     7
  6
CONTINUOUS
 10
1.258524
 20
-1.024614
  0
VERTEX
  8
COUCHE1
 62
     7
  6
CONTINUOUS
 10
1.271752
 20
-1.031244
  0
VERTEX
  8
COUCHE1
 62
     7
  6
CONTINUOUS
 10
1.281689
 20
-1.037854
  0
VERTEX
  8
COUCHE1
 62
     7
  6
CONTINUOUS
 10
1.288291
 20
-1.037854
  0
SEQEND
  8
0
  0
POLYLINE
  8
COUCHE1
 62
     7
  6
CONTINUOUS
 66
     1
 40
0.003000
 41
0.003000
  0
VERTEX
  8
COUCHE1
 62
     7
  6
CONTINUOUS
 10
1.288291
 20
-1.037854
  0
VERTEX
  8
COUCHE1
 62
     7
  6
CONTINUOUS
 10
1.291602
 20
-1.044476
  0
VERTEX
  8
COUCHE1
 62
     7
  6
CONTINUOUS
 10
1.308142
 20
-1.051091
  0
VERTEX
  8
COUCHE1
 62
     7
  6
CONTINUOUS
 10
1.331295
 20
-1.064315
  0
VERTEX
  8
COUCHE1
 62
     7
  6
CONTINUOUS
 10
1.361059
 20
-1.077551
  0
VERTEX
  8
COUCHE1
 62
     7
  6
CONTINUOUS
 10
1.387528
 20
-1.094094
  0
VERTEX
  8
COUCHE1
 62
     7
  6
CONTINUOUS
 10
1.410677
 20
-1.107307
  0
VERTEX
  8
COUCHE1
 62
     7
  6
CONTINUOUS
 10
1.427213
 20
-1.113941
  0
VERTEX
  8
COUCHE1
 62
     7
  6
CONTINUOUS
 10
1.433839
 20
-1.117244
  0
SEQEND
  8
0
  0
POLYLINE
  8
COUCHE1
 62
     7
  6
CONTINUOUS
 66
     1
 40
0.003000
 41
0.003000
  0
VERTEX
  8
COUCHE1
 62
     7
  6
CONTINUOUS
 10
1.433839
 20
-1.117244
  0
VERTEX
  8
COUCHE1
 62
     7
  6
CONTINUOUS
 10
1.423913
 20
-1.117244
  0
VERTEX
  8
COUCHE1
 62
     7
  6
CONTINUOUS
 10
1.400764
 20
-1.117244
  0
VERTEX
  8
COUCHE1
 62
     7
  6
CONTINUOUS
 10
1.367681
 20
-1.117244
  0
VERTEX
  8
COUCHE1
 62
     7
  6
CONTINUOUS
 10
1.331295
 20
-1.117244
  0
VERTEX
  8
COUCHE1
 62
     7
  6
CONTINUOUS
 10
1.291602
 20
-1.117244
  0
VERTEX
  8
COUCHE1
 62
     7
  6
CONTINUOUS
 10
1.258524
 20
-1.117244
  0
VERTEX
  8
COUCHE1
 62
     7
  6
CONTINUOUS
 10
1.235362
 20
-1.117244
  0
VERTEX
  8
COUCHE1
 62
     7
  6
CONTINUOUS
 10
1.228752
 20
-1.117244
  0
SEQEND
  8
0
  0
POLYLINE
  8
COUCHE1
 62
     7
  6
CONTINUOUS
 66
     1
 40
0.003000
 41
0.003000
  0
VERTEX
  8
COUCHE1
 62
     7
  6
CONTINUOUS
 10
1.228752
 20
-1.117244
  0
VERTEX
  8
COUCHE1
 62
     7
  6
CONTINUOUS
 10
1.212205
 20
-1.123854
  0
VERTEX
  8
COUCHE1
 62
     7
  6
CONTINUOUS
 10
1.169209
 20
-1.137098
  0
VERTEX
  8
COUCHE1
 62
     7
  6
CONTINUOUS
 10
1.112961
 20
-1.153638
  0
VERTEX
  8
COUCHE1
 62
     7
  6
CONTINUOUS
 10
1.046827
 20
-1.173469
  0
VERTEX
  8
COUCHE1
 62
     7
  6
CONTINUOUS
 10
0.980661
 20
-1.196638
  0
VERTEX
  8
COUCHE1
 62
     7
  6
CONTINUOUS
 10
0.924429
 20
-1.213169
  0
VERTEX
  8
COUCHE1
 62
     7
  6
CONTINUOUS
 10
0.881429
 20
-1.226417
  0
VERTEX
  8
COUCHE1
 62
     7
  6
CONTINUOUS
 10
0.868189
 20
-1.229717
  0
SEQEND
  8
0
  0
POLYLINE
  8
COUCHE1
 62
     7
  6
CONTINUOUS
 66
     1
 40
0.003000
 41
0.003000
  0
VERTEX
  8
COUCHE1
 62
     7
  6
CONTINUOUS
 10
0.868189
 20
-1.229717
  0
VERTEX
  8
COUCHE1
 62
     7
  6
CONTINUOUS
 10
0.851650
 20
-1.239646
  0
VERTEX
  8
COUCHE1
 62
     7
  6
CONTINUOUS
 10
0.808650
 20
-1.256169
  0
VERTEX
  8
COUCHE1
 62
     7
  6
CONTINUOUS
 10
0.752421
 20
-1.285945
  0
VERTEX
  8
COUCHE1
 62
     7
  6
CONTINUOUS
 10
0.686256
 20
-1.315720
  0
VERTEX
  8
COUCHE1
 62
     7
  6
CONTINUOUS
 10
0.616803
 20
-1.345484
  0
VERTEX
  8
COUCHE1
 62
     7
  6
CONTINUOUS
 10
0.560567
 20
-1.375256
  0
VERTEX
  8
COUCHE1
 62
     7
  6
CONTINUOUS
 10
0.517567
 20
-1.391803
  0
VERTEX
  8
COUCHE1
 62
     7
  6
CONTINUOUS
 10
0.504335
 20
-1.398406
  0
SEQEND
  8
0
  0
POLYLINE
  8
COUCHE1
 62
     7
  6
CONTINUOUS
 66
     1
 40
0.003000
 41
0.003000
 70
     1
  0
VERTEX
  8
COUCHE1
 62
     7
  6
CONTINUOUS
 10
0.874811
 20
-1.236323
  0
VERTEX
  8
COUCHE1
 62
     7
  6
CONTINUOUS
 10
0.778882
 20
-1.190016
  0
VERTEX
  8
COUCHE1
 62
     7
  6
CONTINUOUS
 10
1.036890
 20
0.106665
  0
VERTEX
  8
COUCHE1
 62
     7
  6
CONTINUOUS
 10
1.185744
 20
0.129823
  0
VERTEX
  8
COUCHE1
 62
     7
  6
CONTINUOUS
 10
1.275059
 20
-0.806307
  0
VERTEX
  8
COUCHE1
 62
     7
  6
CONTINUOUS
 10
1.595921
 20
0.209217
  0
VERTEX
  8
COUCHE1
 62
     7
  6
CONTINUOUS
 10
1.688551
 20
0.222441
  0
VERTEX
  8
COUCHE1
 62
     7
  6
CONTINUOUS
 10
1.738161
 20
0.159594
  0
VERTEX
  8
COUCHE1
 62
     7
  6
CONTINUOUS
 10
1.758008
 20
0.235685
  0
VERTEX
  8
COUCHE1
 62
     7
  6
CONTINUOUS
 10
1.873772
 20
0.255524
  0
VERTEX
  8
COUCHE1
 62
     7
  6
CONTINUOUS
 10
1.797713
 20
0.037213
  0
VERTEX
  8
COUCHE1
 62
     7
  6
CONTINUOUS
 10
2.065638
 20
-0.425906
  0
VERTEX
  8
COUCHE1
 62
     7
  6
CONTINUOUS
 10
2.002791
 20
-0.449067
  0
VERTEX
  8
COUCHE1
 62
     7
  6
CONTINUOUS
 10
1.751386
 20
-0.055409
  0
VERTEX
  8
COUCHE1
 62
     7
  6
CONTINUOUS
 10
1.370984
 20
-1.120567
  0
VERTEX
  8
COUCHE1
 62
     7
  6
CONTINUOUS
 10
1.281689
 20
-1.113941
  0
VERTEX
  8
COUCHE1
 62
     7
  6
CONTINUOUS
 10
1.688551
 20
0.050445
  0
VERTEX
  8
COUCHE1
 62
     7
  6
CONTINUOUS
 10
1.642232
 20
0.129823
  0
VERTEX
  8
COUCHE1
 62
     7
  6
CONTINUOUS
 10
1.261827
 20
-1.087469
  0
VERTEX
  8
COUCHE1
 62
     7
  6
CONTINUOUS
 10
1.205594
 20
-1.087469
  0
VERTEX
  8
COUCHE1
 62
     7
  6
CONTINUOUS
 10
1.112961
 20
-0.005815
  0
SEQEND
  8
0
  0
POLYLINE
  8
COUCHE1
 62
     7
  6
CONTINUOUS
 66
     1
 40
0.003000
 41
0.003000
  0
VERTEX
  8
COUCHE1
 62
     7
  6
CONTINUOUS
 10
0.537398
 20
0.100051
  0
VERTEX
  8
COUCHE1
 62
     7
  6
CONTINUOUS
 10
0.534098
 20
0.093429
  0
VERTEX
  8
COUCHE1
 62
     7
  6
CONTINUOUS
 10
0.534098
 20
0.083500
  0
VERTEX
  8
COUCHE1
 62
     7
  6
CONTINUOUS
 10
0.530787
 20
0.070276
  0
VERTEX
  8
COUCHE1
 62
     7
  6
CONTINUOUS
 10
0.527484
 20
0.053744
  0
VERTEX
  8
COUCHE1
 62
     7
  6
CONTINUOUS
 10
0.524169
 20
0.037213
  0
VERTEX
  8
COUCHE1
 62
     7
  6
CONTINUOUS
 10
0.520862
 20
0.023972
  0
VERTEX
  8
COUCHE1
 62
     7
  6
CONTINUOUS
 10
0.520862
 20
0.014055
  0
VERTEX
  8
COUCHE1
 62
     7
  6
CONTINUOUS
 10
0.520862
 20
0.010740
  0
SEQEND
  8
0
  0
POLYLINE
  8
COUCHE1
 62
     7
  6
CONTINUOUS
 66
     1
 40
0.003000
 41
0.003000
  0
VERTEX
  8
COUCHE1
 62
     7
  6
CONTINUOUS
 10
0.520862
 20
0.010740
  0
VERTEX
  8
COUCHE1
 62
     7
  6
CONTINUOUS
 10
0.577094
 20
0.020657
  0
VERTEX
  8
COUCHE1
 62
     7
  6
CONTINUOUS
 10
0.729268
 20
0.047126
  0
VERTEX
  8
COUCHE1
 62
     7
  6
CONTINUOUS
 10
0.947579
 20
0.086811
  0
VERTEX
  8
COUCHE1
 62
     7
  6
CONTINUOUS
 10
1.195673
 20
0.133126
  0
VERTEX
  8
COUCHE1
 62
     7
  6
CONTINUOUS
 10
1.440465
 20
0.176142
  0
VERTEX
  8
COUCHE1
 62
     7
  6
CONTINUOUS
 10
1.658764
 20
0.215819
  0
VERTEX
  8
COUCHE1
 62
     7
  6
CONTINUOUS
 10
1.810937
 20
0.242295
  0
VERTEX
  8
COUCHE1
 62
     7
  6
CONTINUOUS
 10
1.870480
 20
0.255524
  0
SEQEND
  8
0
  0
POLYLINE
  8
COUCHE1
 62
     7
  6
CONTINUOUS
 66
     1
 40
0.003000
 41
0.003000
  0
VERTEX
  8
COUCHE1
 62
     7
  6
CONTINUOUS
 10
1.870480
 20
0.255524
  0
VERTEX
  8
COUCHE1
 62
     7
  6
CONTINUOUS
 10
1.883717
 20
0.258835
  0
VERTEX
  8
COUCHE1
 62
     7
  6
CONTINUOUS
 10
1.923402
 20
0.272059
  0
VERTEX
  8
COUCHE1
 62
     7
  6
CONTINUOUS
 10
1.979634
 20
0.295217
  0
VERTEX
  8
COUCHE1
 62
     7
  6
CONTINUOUS
 10
2.042488
 20
0.324984
  0
VERTEX
  8
COUCHE1
 62
     7
  6
CONTINUOUS
 10
2.105319
 20
0.361370
  0
VERTEX
  8
COUCHE1
 62
     7
  6
CONTINUOUS
 10
2.154949
 20
0.404378
  0
VERTEX
  8
COUCHE1
 62
     7
  6
CONTINUOUS
 10
2.191350
 20
0.447370
  0
VERTEX
  8
COUCHE1
 62
     7
  6
CONTINUOUS
 10
2.197953
 20
0.497000
  0
SEQEND
  8
0
  0
POLYLINE
  8
COUCHE1
 62
     7
  6
CONTINUOUS
 66
     1
 40
0.003000
 41
0.003000
  0
VERTEX
  8
COUCHE1
 62
     7
  6
CONTINUOUS
 10
2.197953
 20
0.497000
  0
VERTEX
  8
COUCHE1
 62
     7
  6
CONTINUOUS
 10
2.184724
 20
0.513539
  0
VERTEX
  8
COUCHE1
 62
     7
  6
CONTINUOUS
 10
2.168185
 20
0.533386
  0
VERTEX
  8
COUCHE1
 62
     7
  6
CONTINUOUS
 10
2.138406
 20
0.553228
  0
VERTEX
  8
COUCHE1
 62
     7
  6
CONTINUOUS
 10
2.095409
 20
0.573083
  0
VERTEX
  8
COUCHE1
 62
     7
  6
CONTINUOUS
 10
2.032563
 20
0.586303
  0
VERTEX
  8
COUCHE1
 62
     7
  6
CONTINUOUS
 10
1.949862
 20
0.592925
  0
VERTEX
  8
COUCHE1
 62
     7
  6
CONTINUOUS
 10
1.844016
 20
0.586303
  0
VERTEX
  8
COUCHE1
 62
     7
  6
CONTINUOUS
 10
1.715012
 20
0.569756
  0
SEQEND
  8
0
  0
POLYLINE
  8
COUCHE1
 62
     7
  6
CONTINUOUS
 66
     1
 40
0.003000
 41
0.003000
  0
VERTEX
  8
COUCHE1
 62
     7
  6
CONTINUOUS
 10
1.715012
 20
0.569756
  0
VERTEX
  8
COUCHE1
 62
     7
  6
CONTINUOUS
 10
1.546315
 20
0.536685
  0
VERTEX
  8
COUCHE1
 62
     7
  6
CONTINUOUS
 10
1.357752
 20
0.480457
  0
VERTEX
  8
COUCHE1
 62
     7
  6
CONTINUOUS
 10
1.159280
 20
0.404378
  0
VERTEX
  8
COUCHE1
 62
     7
  6
CONTINUOUS
 10
0.970728
 20
0.318374
  0
VERTEX
  8
COUCHE1
 62
     7
  6
CONTINUOUS
 10
0.798732
 20
0.238988
  0
VERTEX
  8
COUCHE1
 62
     7
  6
CONTINUOUS
 10
0.663098
 20
0.166209
  0
VERTEX
  8
COUCHE1
 62
     7
  6
CONTINUOUS
 10
0.570484
 20
0.116614
  0
VERTEX
  8
COUCHE1
 62
     7
  6
CONTINUOUS
 10
0.537398
 20
0.100051
  0
SEQEND
  8
0
  0
POLYLINE
  8
COUCHE1
 62
     7
  6
CONTINUOUS
 66
     1
 40
0.003000
 41
0.003000
 70
     1
  0
VERTEX
  8
COUCHE1
 62
     7
  6
CONTINUOUS
 10
-2.492587
 20
-1.206555
  0
VERTEX
  8
COUCHE1
 62
     7
  6
CONTINUOUS
 10
-2.525681
 20
-1.395110
  0
VERTEX
  8
COUCHE1
 62
     7
  6
CONTINUOUS
 10
-2.241209
 20
-1.464575
  0
VERTEX
  8
COUCHE1
 62
     7
  6
CONTINUOUS
 10
-2.006346
 20
-1.457957
  0
VERTEX
  8
COUCHE1
 62
     7
  6
CONTINUOUS
 10
-1.900492
 20
-1.041157
  0
SEQEND
  8
0
  0
POLYLINE
  8
COUCHE1
 62
     7
  6
CONTINUOUS
 66
     1
 40
0.003000
 41
0.003000
  0
VERTEX
  8
COUCHE1
 62
     7
  6
CONTINUOUS
 10
-2.889543
 20
-1.345484
  0
VERTEX
  8
COUCHE1
 62
     7
  6
CONTINUOUS
 10
-2.886217
 20
-1.342173
  0
VERTEX
  8
COUCHE1
 62
     7
  6
CONTINUOUS
 10
-2.869701
 20
-1.325642
  0
VERTEX
  8
COUCHE1
 62
     7
  6
CONTINUOUS
 10
-2.839921
 20
-1.299181
  0
VERTEX
  8
COUCHE1
 62
     7
  6
CONTINUOUS
 10
-2.796929
 20
-1.269406
  0
VERTEX
  8
COUCHE1
 62
     7
  6
CONTINUOUS
 10
-2.743996
 20
-1.233031
  0
VERTEX
  8
COUCHE1
 62
     7
  6
CONTINUOUS
 10
-2.674528
 20
-1.193331
  0
VERTEX
  8
COUCHE1
 62
     7
  6
CONTINUOUS
 10
-2.591835
 20
-1.153638
  0
VERTEX
  8
COUCHE1
 62
     7
  6
CONTINUOUS
 10
-2.495906
 20
-1.113941
  0
SEQEND
  8
0
  0
POLYLINE
  8
COUCHE1
 62
     7
  6
CONTINUOUS
 66
     1
 40
0.003000
 41
0.003000
  0
VERTEX
  8
COUCHE1
 62
     7
  6
CONTINUOUS
 10
-2.495906
 20
-1.113941
  0
VERTEX
  8
COUCHE1
 62
     7
  6
CONTINUOUS
 10
-2.396669
 20
-1.090780
  0
VERTEX
  8
COUCHE1
 62
     7
  6
CONTINUOUS
 10
-2.287508
 20
-1.064315
  0
VERTEX
  8
COUCHE1
 62
     7
  6
CONTINUOUS
 10
-2.181665
 20
-1.044476
  0
VERTEX
  8
COUCHE1
 62
     7
  6
CONTINUOUS
 10
-2.079130
 20
-1.027937
  0
VERTEX
  8
COUCHE1
 62
     7
  6
CONTINUOUS
 10
-1.986496
 20
-1.011386
  0
VERTEX
  8
COUCHE1
 62
     7
  6
CONTINUOUS
 10
-1.913728
 20
-1.001472
  0
VERTEX
  8
COUCHE1
 62
     7
  6
CONTINUOUS
 10
-1.867409
 20
-0.994843
  0
VERTEX
  8
COUCHE1
 62
     7
  6
CONTINUOUS
 10
-1.847551
 20
-0.991547
  0
SEQEND
  8
0
  0
POLYLINE
  8
COUCHE1
 62
     7
  6
CONTINUOUS
 66
     1
 40
0.003000
 41
0.003000
  0
VERTEX
  8
COUCHE1
 62
     7
  6
CONTINUOUS
 10
-1.847551
 20
-0.991547
  0
VERTEX
  8
COUCHE1
 62
     7
  6
CONTINUOUS
 10
-1.837642
 20
-0.991547
  0
VERTEX
  8
COUCHE1
 62
     7
  6
CONTINUOUS
 10
-1.827713
 20
-0.991547
  0
VERTEX
  8
COUCHE1
 62
     7
  6
CONTINUOUS
 10
-1.817783
 20
-0.994843
  0
VERTEX
  8
COUCHE1
 62
     7
  6
CONTINUOUS
 10
-1.811177
 20
-0.998161
  0
VERTEX
  8
COUCHE1
 62
     7
  6
CONTINUOUS
 10
-1.807874
 20
-1.001472
  0
VERTEX
  8
COUCHE1
 62
     7
  6
CONTINUOUS
 10
-1.804547
 20
-1.004780
  0
VERTEX
  8
COUCHE1
 62
     7
  6
CONTINUOUS
 10
-1.804547
 20
-1.008083
  0
VERTEX
  8
COUCHE1
 62
     7
  6
CONTINUOUS
 10
-1.801260
 20
-1.008083
  0
SEQEND
  8
0
  0
POLYLINE
  8
COUCHE1
 62
     7
  6
CONTINUOUS
 66
     1
 40
0.003000
 41
0.003000
  0
VERTEX
  8
COUCHE1
 62
     7
  6
CONTINUOUS
 10
-1.801260
 20
-1.008083
  0
VERTEX
  8
COUCHE1
 62
     7
  6
CONTINUOUS
 10
-1.821094
 20
-1.018008
  0
VERTEX
  8
COUCHE1
 62
     7
  6
CONTINUOUS
 10
-1.864110
 20
-1.037854
  0
VERTEX
  8
COUCHE1
 62
     7
  6
CONTINUOUS
 10
-1.926957
 20
-1.067626
  0
VERTEX
  8
COUCHE1
 62
     7
  6
CONTINUOUS
 10
-1.999728
 20
-1.097398
  0
VERTEX
  8
COUCHE1
 62
     7
  6
CONTINUOUS
 10
-2.072504
 20
-1.130476
  0
VERTEX
  8
COUCHE1
 62
     7
  6
CONTINUOUS
 10
-2.135339
 20
-1.160252
  0
VERTEX
  8
COUCHE1
 62
     7
  6
CONTINUOUS
 10
-2.178354
 20
-1.180091
  0
VERTEX
  8
COUCHE1
 62
     7
  6
CONTINUOUS
 10
-2.194886
 20
-1.186709
  0
SEQEND
  8
0
  0
POLYLINE
  8
COUCHE1
 62
     7
  6
CONTINUOUS
 66
     1
 40
0.003000
 41
0.003000
  0
VERTEX
  8
COUCHE1
 62
     7
  6
CONTINUOUS
 10
-2.194886
 20
-1.186709
  0
VERTEX
  8
COUCHE1
 62
     7
  6
CONTINUOUS
 10
-2.204815
 20
-1.190016
  0
VERTEX
  8
COUCHE1
 62
     7
  6
CONTINUOUS
 10
-2.227961
 20
-1.190016
  0
VERTEX
  8
COUCHE1
 62
     7
  6
CONTINUOUS
 10
-2.261043
 20
-1.190016
  0
VERTEX
  8
COUCHE1
 62
     7
  6
CONTINUOUS
 10
-2.307358
 20
-1.193331
  0
VERTEX
  8
COUCHE1
 62
     7
  6
CONTINUOUS
 10
-2.353665
 20
-1.199949
  0
VERTEX
  8
COUCHE1
 62
     7
  6
CONTINUOUS
 10
-2.406598
 20
-1.206555
  0
VERTEX
  8
COUCHE1
 62
     7
  6
CONTINUOUS
 10
-2.459520
 20
-1.219791
  0
VERTEX
  8
COUCHE1
 62
     7
  6
CONTINUOUS
 10
-2.505835
 20
-1.233031
  0
SEQEND
  8
0
  0
POLYLINE
  8
COUCHE1
 62
     7
  6
CONTINUOUS
 66
     1
 40
0.003000
 41
0.003000
  0
VERTEX
  8
COUCHE1
 62
     7
  6
CONTINUOUS
 10
-2.505835
 20
-1.233031
  0
VERTEX
  8
COUCHE1
 62
     7
  6
CONTINUOUS
 10
-2.552142
 20
-1.246256
  0
VERTEX
  8
COUCHE1
 62
     7
  6
CONTINUOUS
 10
-2.608374
 20
-1.262791
  0
VERTEX
  8
COUCHE1
 62
     7
  6
CONTINUOUS
 10
-2.671224
 20
-1.282634
  0
VERTEX
  8
COUCHE1
 62
     7
  6
CONTINUOUS
 10
-2.737394
 20
-1.299181
  0
VERTEX
  8
COUCHE1
 62
     7
  6
CONTINUOUS
 10
-2.796929
 20
-1.319024
  0
VERTEX
  8
COUCHE1
 62
     7
  6
CONTINUOUS
 10
-2.846539
 20
-1.332256
  0
VERTEX
  8
COUCHE1
 62
     7
  6
CONTINUOUS
 10
-2.879622
 20
-1.342173
  0
VERTEX
  8
COUCHE1
 62
     7
  6
CONTINUOUS
 10
-2.889543
 20
-1.345484
  0
SEQEND
  8
0
  0
POLYLINE
  8
COUCHE1
 62
     7
  6
CONTINUOUS
 66
     1
 40
0.003000
 41
0.003000
 70
     1
  0
VERTEX
  8
COUCHE1
 62
     7
  6
CONTINUOUS
 10
2.078878
 20
-1.659791
  0
VERTEX
  8
COUCHE1
 62
     7
  6
CONTINUOUS
 10
2.073079
 20
-1.681236
  0
VERTEX
  8
COUCHE1
 62
     7
  6
CONTINUOUS
 10
2.057551
 20
-1.695862
  0
VERTEX
  8
COUCHE1
 62
     7
  6
CONTINUOUS
 10
2.037244
 20
-1.699016
  0
VERTEX
  8
COUCHE1
 62
     7
  6
CONTINUOUS
 10
2.018618
 20
-1.689697
  0
VERTEX
  8
COUCHE1
 62
     7
  6
CONTINUOUS
 10
2.007567
 20
-1.670874
  0
VERTEX
  8
COUCHE1
 62
     7
  6
CONTINUOUS
 10
2.007591
 20
-1.648504
  0
VERTEX
  8
COUCHE1
 62
     7
  6
CONTINUOUS
 10
2.018677
 20
-1.629701
  0
VERTEX
  8
COUCHE1
 62
     7
  6
CONTINUOUS
 10
2.037350
 20
-1.620433
  0
VERTEX
  8
COUCHE1
 62
     7
  6
CONTINUOUS
 10
2.057650
 20
-1.623646
  0
VERTEX
  8
COUCHE1
 62
     7
  6
CONTINUOUS
 10
2.073118
 20
-1.638319
  0
VERTEX
  8
COUCHE1
 62
     7
  6
CONTINUOUS
 10
2.078878
 20
-1.659780
  0
SEQEND
  8
0
  0
POLYLINE
  8
COUCHE1
 62
     7
  6
CONTINUOUS
 66
     1
 40
0.003000
 41
0.003000
 70
     1
  0
VERTEX
  8
COUCHE1
 62
     7
  6
CONTINUOUS
 10
2.333579
 20
-1.633685
  0
VERTEX
  8
COUCHE1
 62
     7
  6
CONTINUOUS
 10
2.285567
 20
-1.796362
  0
VERTEX
  8
COUCHE1
 62
     7
  6
CONTINUOUS
 10
2.157240
 20
-1.907240
  0
VERTEX
  8
COUCHE1
 62
     7
  6
CONTINUOUS
 10
1.989335
 20
-1.931165
  0
VERTEX
  8
COUCHE1
 62
     7
  6
CONTINUOUS
 10
1.835146
 20
-1.860512
  0
VERTEX
  8
COUCHE1
 62
     7
  6
CONTINUOUS
 10
1.743630
 20
-1.717705
  0
VERTEX
  8
COUCHE1
 62
     7
  6
CONTINUOUS
 10
1.743850
 20
-1.548098
  0
VERTEX
  8
COUCHE1
 62
     7
  6
CONTINUOUS
 10
1.835717
 20
-1.405531
  0
VERTEX
  8
COUCHE1
 62
     7
  6
CONTINUOUS
 10
1.990094
 20
-1.335272
  0
VERTEX
  8
COUCHE1
 62
     7
  6
CONTINUOUS
 10
2.157945
 20
-1.359618
  0
VERTEX
  8
COUCHE1
 62
     7
  6
CONTINUOUS
 10
2.285980
 20
-1.470835
  0
VERTEX
  8
COUCHE1
 62
     7
  6
CONTINUOUS
 10
2.333579
 20
-1.633634
  0
SEQEND
  8
0
  0
POLYLINE
  8
COUCHE1
 62
     7
  6
CONTINUOUS
 66
     1
 40
0.003000
 41
0.003000
 70
     1
  0
VERTEX
  8
COUCHE1
 62
     7
  6
CONTINUOUS
 10
2.247579
 20
-1.633571
  0
VERTEX
  8
COUCHE1
 62
     7
  6
CONTINUOUS
 10
2.212760
 20
-1.753343
  0
VERTEX
  8
COUCHE1
 62
     7
  6
CONTINUOUS
 10
2.119693
 20
-1.834996
  0
VERTEX
  8
COUCHE1
 62
     7
  6
CONTINUOUS
 10
1.997902
 20
-1.852598
  0
VERTEX
  8
COUCHE1
 62
     7
  6
CONTINUOUS
 10
1.886075
 20
-1.800567
  0
VERTEX
  8
COUCHE1
 62
     7
  6
CONTINUOUS
 10
1.819685
 20
-1.695449
  0
VERTEX
  8
COUCHE1
 62
     7
  6
CONTINUOUS
 10
1.819850
 20
-1.570571
  0
VERTEX
  8
COUCHE1
 62
     7
  6
CONTINUOUS
 10
1.886492
 20
-1.465594
  0
VERTEX
  8
COUCHE1
 62
     7
  6
CONTINUOUS
 10
1.998445
 20
-1.413862
  0
VERTEX
  8
COUCHE1
 62
     7
  6
CONTINUOUS
 10
2.120185
 20
-1.431776
  0
VERTEX
  8
COUCHE1
 62
     7
  6
CONTINUOUS
 10
2.213055
 20
-1.513677
  0
VERTEX
  8
COUCHE1
 62
     7
  6
CONTINUOUS
 10
2.247579
 20
-1.633531
  0
SEQEND
  8
0
  0
POLYLINE
  8
COUCHE1
 62
     7
  6
CONTINUOUS
 66
     1
 40
0.003000
 41
0.003000
  0
VERTEX
  8
COUCHE1
 62
     7
  6
CONTINUOUS
 10
2.717287
 20
-0.134803
  0
VERTEX
  8
COUCHE1
 62
     7
  6
CONTINUOUS
 10
2.756988
 20
-0.134803
  0
VERTEX
  8
COUCHE1
 62
     7
  6
CONTINUOUS
 10
2.790067
 20
-0.138122
  0
VERTEX
  8
COUCHE1
 62
     7
  6
CONTINUOUS
 10
2.823150
 20
-0.148039
  0
VERTEX
  8
COUCHE1
 62
     7
  6
CONTINUOUS
 10
2.852913
 20
-0.161280
  0
VERTEX
  8
COUCHE1
 62
     7
  6
CONTINUOUS
 10
2.879382
 20
-0.181110
  0
VERTEX
  8
COUCHE1
 62
     7
  6
CONTINUOUS
 10
2.899217
 20
-0.204260
  0
VERTEX
  8
COUCHE1
 62
     7
  6
CONTINUOUS
 10
2.919059
 20
-0.230732
  0
VERTEX
  8
COUCHE1
 62
     7
  6
CONTINUOUS
 10
2.938921
 20
-0.260512
  0
SEQEND
  8
0
  0
POLYLINE
  8
COUCHE1
 62
     7
  6
CONTINUOUS
 66
     1
 40
0.003000
 41
0.003000
  0
VERTEX
  8
COUCHE1
 62
     7
  6
CONTINUOUS
 10
2.938921
 20
-0.260512
  0
VERTEX
  8
COUCHE1
 62
     7
  6
CONTINUOUS
 10
2.948839
 20
-0.290272
  0
VERTEX
  8
COUCHE1
 62
     7
  6
CONTINUOUS
 10
2.962071
 20
-0.320039
  0
VERTEX
  8
COUCHE1
 62
     7
  6
CONTINUOUS
 10
2.972008
 20
-0.353126
  0
VERTEX
  8
COUCHE1
 62
     7
  6
CONTINUOUS
 10
2.978602
 20
-0.386193
  0
VERTEX
  8
COUCHE1
 62
     7
  6
CONTINUOUS
 10
2.985236
 20
-0.419291
  0
VERTEX
  8
COUCHE1
 62
     7
  6
CONTINUOUS
 10
2.991843
 20
-0.455669
  0
VERTEX
  8
COUCHE1
 62
     7
  6
CONTINUOUS
 10
2.995146
 20
-0.492071
  0
VERTEX
  8
COUCHE1
 62
     7
  6
CONTINUOUS
 10
3.001768
 20
-0.525138
  0
SEQEND
  8
0
  0
POLYLINE
  8
COUCHE1
 62
     7
  6
CONTINUOUS
 66
     1
 40
0.003000
 41
0.003000
  0
VERTEX
  8
COUCHE1
 62
     7
  6
CONTINUOUS
 10
3.001768
 20
-0.525138
  0
VERTEX
  8
COUCHE1
 62
     7
  6
CONTINUOUS
 10
2.998465
 20
-0.581366
  0
VERTEX
  8
COUCHE1
 62
     7
  6
CONTINUOUS
 10
2.985236
 20
-0.637602
  0
VERTEX
  8
COUCHE1
 62
     7
  6
CONTINUOUS
 10
2.958768
 20
-0.690531
  0
VERTEX
  8
COUCHE1
 62
     7
  6
CONTINUOUS
 10
2.925685
 20
-0.743457
  0
VERTEX
  8
COUCHE1
 62
     7
  6
CONTINUOUS
 10
2.889295
 20
-0.789756
  0
VERTEX
  8
COUCHE1
 62
     7
  6
CONTINUOUS
 10
2.849618
 20
-0.836075
  0
VERTEX
  8
COUCHE1
 62
     7
  6
CONTINUOUS
 10
2.813220
 20
-0.875768
  0
VERTEX
  8
COUCHE1
 62
     7
  6
CONTINUOUS
 10
2.783449
 20
-0.905539
  0
SEQEND
  8
0
  0
POLYLINE
  8
COUCHE1
 62
     7
  6
CONTINUOUS
 66
     1
 40
0.003000
 41
0.003000
  0
VERTEX
  8
COUCHE1
 62
     7
  6
CONTINUOUS
 10
2.783449
 20
-0.905539
  0
VERTEX
  8
COUCHE1
 62
     7
  6
CONTINUOUS
 10
2.783449
 20
-0.898925
  0
VERTEX
  8
COUCHE1
 62
     7
  6
CONTINUOUS
 10
2.793358
 20
-0.879079
  0
VERTEX
  8
COUCHE1
 62
     7
  6
CONTINUOUS
 10
2.813220
 20
-0.846004
  0
VERTEX
  8
COUCHE1
 62
     7
  6
CONTINUOUS
 10
2.836378
 20
-0.809602
  0
VERTEX
  8
COUCHE1
 62
     7
  6
CONTINUOUS
 10
2.862846
 20
-0.763295
  0
VERTEX
  8
COUCHE1
 62
     7
  6
CONTINUOUS
 10
2.885992
 20
-0.710374
  0
VERTEX
  8
COUCHE1
 62
     7
  6
CONTINUOUS
 10
2.909146
 20
-0.654142
  0
VERTEX
  8
COUCHE1
 62
     7
  6
CONTINUOUS
 10
2.928988
 20
-0.591295
  0
SEQEND
  8
0
  0
POLYLINE
  8
COUCHE1
 62
     7
  6
CONTINUOUS
 66
     1
 40
0.003000
 41
0.003000
  0
VERTEX
  8
COUCHE1
 62
     7
  6
CONTINUOUS
 10
2.928988
 20
-0.591295
  0
VERTEX
  8
COUCHE1
 62
     7
  6
CONTINUOUS
 10
2.938921
 20
-0.521827
  0
VERTEX
  8
COUCHE1
 62
     7
  6
CONTINUOUS
 10
2.942209
 20
-0.449067
  0
VERTEX
  8
COUCHE1
 62
     7
  6
CONTINUOUS
 10
2.935626
 20
-0.379587
  0
VERTEX
  8
COUCHE1
 62
     7
  6
CONTINUOUS
 10
2.919059
 20
-0.313429
  0
VERTEX
  8
COUCHE1
 62
     7
  6
CONTINUOUS
 10
2.892602
 20
-0.257197
  0
VERTEX
  8
COUCHE1
 62
     7
  6
CONTINUOUS
 10
2.856217
 20
-0.207575
  0
VERTEX
  8
COUCHE1
 62
     7
  6
CONTINUOUS
 10
2.806594
 20
-0.167890
  0
VERTEX
  8
COUCHE1
 62
     7
  6
CONTINUOUS
 10
2.750362
 20
-0.141421
  0
SEQEND
  8
0
  0
POLYLINE
  8
COUCHE1
 62
     7
  6
CONTINUOUS
 66
     1
 40
0.003000
 41
0.003000
  0
VERTEX
  8
COUCHE1
 62
     7
  6
CONTINUOUS
 10
1.820858
 20
-1.712657
  0
VERTEX
  8
COUCHE1
 62
     7
  6
CONTINUOUS
 10
2.049102
 20
-1.656425
  0
SEQEND
  8
0
  0
POLYLINE
  8
COUCHE1
 62
     7
  6
CONTINUOUS
 66
     1
 40
0.003000
 41
0.003000
  0
VERTEX
  8
COUCHE1
 62
     7
  6
CONTINUOUS
 10
2.049102
 20
-1.656425
  0
VERTEX
  8
COUCHE1
 62
     7
  6
CONTINUOUS
 10
2.207882
 20
-1.768890
  0
SEQEND
  8
0
  0
POLYLINE
  8
COUCHE1
 62
     7
  6
CONTINUOUS
 66
     1
 40
0.003000
 41
0.003000
  0
VERTEX
  8
COUCHE1
 62
     7
  6
CONTINUOUS
 10
2.049102
 20
-1.656425
  0
VERTEX
  8
COUCHE1
 62
     7
  6
CONTINUOUS
 10
2.108634
 20
-1.418260
  0
SEQEND
  8
0
  0
ENDSEC
  0
EOF
