0
SECTION
2
HEADER
9
$LTSCALE
40
0.4000000
9
$LIMMIN
10
0.0000000
20
0.0000000
9
$LIMMAX
10
12.0000000
20
9.0000000
9
$EXTMIN
10
0.1853282
20
-1.1102230E-016
9
$EXTMAX
10
9.9652967
20
7.2299957
9
$SNAPMODE
70
0
9
$SNAPUNIT
10
0.1250000
20
0.1250000
9
$GRIDMODE
70
0
9
$GRIDUNIT
10
0.1250000
20
0.1250000
9
$ORTHOMODE
70
0
9
$TEXTSTYLE
7
txt
9
$CLAYER
8
1
9
$CECOLOR
62
7
9
$CELTYPE
6
CONTINUOUS
9
$PLINEWID
40
0.0000000
9
$OSMODE
70
0
9
$FILLMODE
70
0
9
$CHAMFERA
40
0.5000000
9
$CHAMFERB
40
0.5000000
9
$COORDS
70
2
9
$FILLETRAD
40
0.5000000
9
$INSBASE
10
0.0000000
20
0.0000000
9
$SPLFRAME
70
0
9
$SPLINESEGS
70
8
0
ENDSEC
0
SECTION
2
TABLES
0
TABLE
2
LTYPE
70
9
0
LTYPE
2
DISCONTINUE
70
0
3
__ __ __ __ __ __ __ __ __ __ __ __ __ __ __
72
65
73
2
40
0.7500000
49
0.5000000
49
-0.2500000
0
LTYPE
2
CACHE
70
0
3
_ _ _ _ _ _ _ _ _ _ _ _ _ _ _ _ _ _ _ _ _ _ 
72
65
73
2
40
0.2500000
49
0.1250000
49
-0.1250000
0
LTYPE
2
AXES
70
0
3
____ _ ____ _ ____ _ ____ _ ____ _ ____ _ __
72
65
73
4
40
2.0000000
49
1.2500000
49
-0.2500000
49
0.2500000
49
-0.2500000
0
LTYPE
2
FANTOME
70
0
3
_____ _ _ _____ _ _ _____ _ _ _____ _ _ ____
72
65
73
6
40
2.5000000
49
1.2500000
49
-0.2500000
49
0.2500000
49
-0.2500000
49
0.2500000
49
-0.2500000
0
LTYPE
2
POINTILLE
70
0
3
............................................
72
65
73
2
40
0.2500000
49
0.0000000
49
-0.2500000
0
LTYPE
2
MIXTE
70
0
3
__ . __ . __ . __ . __ . __ . __ . __ . __ .
72
65
73
4
40
1.0000000
49
0.5000000
49
-0.2500000
49
0.0000000
49
-0.2500000
0
LTYPE
2
BORDURE
70
0
3
__ __ . __ __ . __ __ . __ __ . __ __ . __ _
72
65
73
6
40
1.7500000
49
0.5000000
49
-0.2500000
49
0.5000000
49
-0.2500000
49
0.0000000
49
-0.2500000
0
LTYPE
2
DIVISE
70
0
3
__ . . __ . . __ . . __ . . __ . . __ . . __
72
65
73
6
40
1.2500000
49
0.5000000
49
-0.2500000
49
0.0000000
49
-0.2500000
49
0.0000000
49
-0.2500000
0
LTYPE
2
POINTILLES
70
0
3
fermer
72
65
73
2
40
0.1000000
49
0.0500000
49
-0.0500000
0
ENDTAB
0
TABLE
2
STYLE
70
2
0
STYLE
2
STANDARD
70
0
40
0.0000000
41
1.0000000
50
0.0000000
71
0
42
0.0000000
3
txt
4

0
ENDTAB
0
TABLE
2
LAYER
70
10
0
LAYER
2
1
70
0
62
7
6
CONTINUOUS
0
LAYER
2
2
70
0
62
7
6
CONTINUOUS
0
LAYER
2
3
70
0
62
7
6
CONTINUOUS
0
LAYER
2
4
70
0
62
7
6
CONTINUOUS
0
LAYER
2
5
70
0
62
7
6
CONTINUOUS
0
LAYER
2
6
70
0
62
7
6
CONTINUOUS
0
LAYER
2
7
70
0
62
7
6
CONTINUOUS
0
LAYER
2
8
70
0
62
7
6
CONTINUOUS
0
LAYER
2
9
70
0
62
7
6
CONTINUOUS
0
LAYER
2
10
70
0
62
7
6
CONTINUOUS
0
ENDTAB
0
ENDSEC
0
SECTION
2
BLOCKS
0
BLOCK
8
0
2
ERICSON1-G1
70
0
10
0.0000000
20
0.0000000
0
TEXT
8
1
62
5
40
0.0800000
50
90.0000025
1
P =43.00
7
STANDARD
72
0
10
5.2251353
20
4.3768768
0
TEXT
8
1
62
5
40
0.0400000
50
90.0000025
1
2
7
STANDARD
72
0
10
5.2271104
20
4.4334664
0
ENDBLK
8
0
0
BLOCK
8
0
2
ERICSON1-G2
70
0
10
0.0000000
20
0.0000000
0
LINE
8
8
62
5
10
1.8462325
20
4.6176281
11
1.2617682
21
3.8291192
0
LINE
8
8
62
5
10
1.2617682
20
3.8291192
11
1.3617686
21
3.8291192
0
SOLID
8
8
62
5
10
1.7732955
20
4.5472155
11
1.8462325
21
4.6176281
12
1.8000735
22
4.5273666
13
1.8000735
23
4.5273666
0
TEXT
8
8
62
5
40
0.0800000
1
CONTINUOUS STRAND ROVING
7
STANDARD
72
0
10
1.5117685
20
3.7891192
0
TEXT
8
8
62
5
40
0.0800000
1
RUNNING FORE-AFT TO FUSE
7
STANDARD
72
0
10
1.5117685
20
3.6557858
0
TEXT
8
8
62
5
40
0.0800000
1
HULL HALVES TOGETHER
7
STANDARD
72
0
10
1.5117685
20
3.5224526
0
ENDBLK
8
0
0
BLOCK
8
0
2
ERICSON1-G3
70
0
10
0.0000000
20
0.0000000
0
LINE
8
5
62
4
10
4.1255913
20
4.3873796
11
4.3857627
21
4.2975569
0
LINE
8
5
62
4
10
4.0898037
20
4.3825159
11
4.3804722
21
4.2821932
0
LINE
8
5
62
4
10
4.3857627
20
4.2975569
11
4.3804722
21
4.2821932
0
LINE
8
5
62
4
10
4.1003847
20
4.4132452
11
4.1255913
21
4.3873796
0
LINE
8
5
62
4
10
4.0898037
20
4.3825159
11
4.1003847
21
4.4132452
0
ENDBLK
8
0
0
BLOCK
8
0
2
ERICSON1-G4
70
0
10
0.0000000
20
0.0000000
0
LINE
8
5
62
4
10
3.9206123
20
3.6234505
11
4.1359501
21
3.5493042
0
LINE
8
5
62
4
10
3.8848248
20
3.6185868
11
4.1306601
21
3.5339386
0
LINE
8
5
62
4
10
4.1359501
20
3.5493042
11
4.1306601
21
3.5339386
0
LINE
8
5
62
4
10
3.8954055
20
3.6493161
11
3.9206123
21
3.6234505
0
LINE
8
5
62
4
10
3.8848248
20
3.6185868
11
3.8954055
21
3.6493161
0
ENDBLK
8
0
0
BLOCK
8
0
2
ERICSON1-G5
70
0
10
0.0000000
20
0.0000000
0
ARC
8
2
62
1
10
4.8545785
20
2.3808873
40
0.0128700
50
90.0000025
51
180.0000050
0
ARC
8
2
62
1
10
4.8545785
20
2.3637269
40
0.0128700
50
180.0000050
51
270.0000007
0
ARC
8
2
62
1
10
4.9317989
20
2.3808873
40
0.0128700
50
0.0000000
51
90.0000025
0
ARC
8
2
62
1
10
4.9317989
20
2.3637269
40
0.0128700
50
270.0000007
51
0.0000000
0
LINE
8
2
62
1
10
4.8417087
20
2.3808873
11
4.8417087
21
2.3637269
0
LINE
8
2
62
1
10
4.8545785
20
2.3508561
11
4.9317989
21
2.3508561
0
LINE
8
2
62
1
10
4.9446688
20
2.3637269
11
4.9446688
21
2.3808873
0
LINE
8
2
62
1
10
4.9317989
20
2.3937562
11
4.8545785
21
2.3937562
0
ENDBLK
8
0
0
BLOCK
8
0
2
ERICSON1-G6
70
0
10
0.0000000
20
0.0000000
0
ARC
8
2
62
1
10
5.1565342
20
2.3863766
40
0.0128700
50
90.0000025
51
180.0000050
0
ARC
8
2
62
1
10
5.1565342
20
2.3692181
40
0.0128700
50
180.0000050
51
270.0000007
0
ARC
8
2
62
1
10
5.2337542
20
2.3863766
40
0.0128700
50
0.0000000
51
90.0000025
0
ARC
8
2
62
1
10
5.2337542
20
2.3692181
40
0.0128700
50
270.0000007
51
0.0000000
0
LINE
8
2
62
1
10
5.1436639
20
2.3863766
11
5.1436639
21
2.3692181
0
LINE
8
2
62
1
10
5.1565342
20
2.3563473
11
5.2337542
21
2.3563473
0
LINE
8
2
62
1
10
5.2466245
20
2.3692181
11
5.2466245
21
2.3863766
0
LINE
8
2
62
1
10
5.2337542
20
2.3992474
11
5.1565342
21
2.3992474
0
ENDBLK
8
0
0
BLOCK
8
0
2
ERICSON1-G7
70
0
10
0.0000000
20
0.0000000
0
ARC
8
2
62
1
10
5.4520650
20
2.3946145
40
0.0128700
50
90.0000025
51
180.0000050
0
ARC
8
2
62
1
10
5.4520650
20
2.3774540
40
0.0128700
50
180.0000050
51
270.0000007
0
ARC
8
2
62
1
10
5.5292854
20
2.3946145
40
0.0128700
50
0.0000000
51
90.0000025
0
ARC
8
2
62
1
10
5.5292854
20
2.3774540
40
0.0128700
50
270.0000007
51
0.0000000
0
LINE
8
2
62
1
10
5.4391952
20
2.3946145
11
5.4391952
21
2.3774540
0
LINE
8
2
62
1
10
5.4520650
20
2.3645852
11
5.5292854
21
2.3645852
0
LINE
8
2
62
1
10
5.5421553
20
2.3774540
11
5.5421553
21
2.3946145
0
LINE
8
2
62
1
10
5.5292854
20
2.4074852
11
5.4520650
21
2.4074852
0
ENDBLK
8
0
0
BLOCK
8
0
2
ERICSON1-G8
70
0
10
0.0000000
20
0.0000000
0
LINE
8
8
62
5
10
1.4719369
20
4.8444109
11
1.9610788
21
6.6154037
0
LINE
8
8
62
5
10
1.9610788
20
6.6154037
11
2.0610788
21
6.6154037
0
SOLID
8
8
62
5
10
1.5146244
20
4.9363651
11
1.4719369
21
4.8444109
12
1.4824953
22
4.9452391
13
1.4824953
23
4.9452391
0
TEXT
8
8
62
5
40
0.0800000
1
11 LAMINATIONS:
7
STANDARD
72
0
10
2.2110789
20
6.5754027
0
TEXT
8
8
62
5
40
0.0800000
1
EACH LAMINATE IS
7
STANDARD
72
0
10
2.2110789
20
6.4420695
0
TEXT
8
8
62
5
40
0.0800000
1
3 OZ. MAT
7
STANDARD
72
0
10
2.2110789
20
6.3087363
0
TEXT
8
8
62
5
40
0.0800000
1
16 OZ. ROVING
7
STANDARD
72
0
10
2.2110789
20
6.1754031
0
ENDBLK
8
0
0
BLOCK
8
0
2
ERICSON1-G9
70
0
10
0.0000000
20
0.0000000
0
LINE
8
8
62
5
10
0.8331947
20
5.3512459
11
1.6894884
21
5.3512459
0
LINE
8
8
62
5
10
2.8547413
20
5.3512459
11
2.6334884
21
5.3512459
0
LINE
8
8
62
5
10
0.8331947
20
5.3196764
11
0.8331947
21
5.3112459
0
LINE
8
8
62
5
10
2.8547413
20
5.3196764
11
2.8547413
21
5.3112459
0
SOLID
8
8
62
5
10
0.9331948
20
5.3345799
11
0.8331947
21
5.3512459
12
0.9331948
22
5.3679118
13
0.9331948
23
5.3679118
0
SOLID
8
8
62
5
10
2.7547414
20
5.3345799
11
2.8547413
21
5.3512459
12
2.7547414
22
5.3679118
13
2.7547414
23
5.3679118
0
TEXT
8
8
62
5
40
0.0800000
1
HULL HALVES
7
STANDARD
72
0
10
1.7214884
20
5.3112459
0
ENDBLK
8
0
0
BLOCK
8
0
2
ERICSON1-G10
70
0
10
0.0000000
20
0.0000000
0
LINE
8
5
62
4
10
4.3780065
20
5.1743746
11
4.6272106
21
5.0880175
0
LINE
8
5
62
4
10
4.3422184
20
5.1695108
11
4.6219206
21
5.0726519
0
LINE
8
5
62
4
10
4.6272106
20
5.0880175
11
4.6219206
21
5.0726519
0
LINE
8
5
62
4
10
4.3527994
20
5.2002420
11
4.3780065
21
5.1743746
0
LINE
8
5
62
4
10
4.3422184
20
5.1695108
11
4.3527994
21
5.2002420
0
ENDBLK
8
0
0
BLOCK
8
0
2
ERICSON1-G11
70
0
10
0.0000000
20
0.0000000
0
LINE
8
5
62
4
6
CACHE
10
4.6764970
20
5.9587040
11
4.8918347
21
5.8845577
0
LINE
8
5
62
4
6
CACHE
10
4.6407094
20
5.9538403
11
4.8865438
21
5.8691921
0
LINE
8
5
62
4
6
CACHE
10
4.8918347
20
5.8845577
11
4.8865438
21
5.8691921
0
LINE
8
5
62
4
6
CACHE
10
4.6512904
20
5.9845695
11
4.6764970
21
5.9587040
0
LINE
8
5
62
4
6
CACHE
10
4.6407094
20
5.9538403
11
4.6512904
21
5.9845695
0
ENDBLK
8
0
0
BLOCK
8
0
2
ERICSON1-G12
70
0
10
0.0000000
20
0.0000000
0
LINE
8
8
62
5
10
8.0139551
20
4.6286545
11
8.2892275
21
4.6286545
0
LINE
8
8
62
5
10
8.2892275
20
4.6286545
11
8.2892275
21
4.6286545
0
SOLID
8
8
62
5
10
8.1139555
20
4.6119885
11
8.0139551
21
4.6286545
12
8.1139555
22
4.6453204
13
8.1139555
23
4.6453204
0
TEXT
8
8
62
5
40
0.0800000
1
TEAK LAMINATE
7
STANDARD
72
0
10
8.4392271
20
4.5886545
0
TEXT
8
8
62
5
40
0.0800000
1
GROUND DOWN TO
7
STANDARD
72
0
10
8.4392271
20
4.4553213
0
TEXT
8
8
62
5
40
0.0800000
1
MAHOGANY CORE
7
STANDARD
72
0
10
8.4392271
20
4.3219876
0
ENDBLK
8
0
0
BLOCK
8
0
2
ERICSON1-G13
70
0
10
0.0000000
20
0.0000000
0
LINE
8
8
62
5
10
7.8478613
20
4.3886042
11
7.7876749
21
3.9427960
0
LINE
8
8
62
5
10
7.7876749
20
3.9427960
11
7.6876750
21
3.9427960
0
SOLID
8
8
62
5
10
7.8179660
20
4.2917328
11
7.8478613
21
4.3886042
12
7.8509984
22
4.2872734
13
7.8509984
23
4.2872734
0
TEXT
8
8
62
5
40
0.0800000
1
BULKHEAD
7
STANDARD
72
0
10
6.9243417
20
3.9027960
0
ENDBLK
8
0
0
BLOCK
8
0
2
ERICSON1-G14
70
0
10
0.0000000
20
0.0000000
0
LINE
8
8
62
5
10
7.7396998
20
5.0293655
11
7.4329348
21
4.8601322
0
LINE
8
8
62
5
10
7.4329348
20
4.8601322
11
7.3329344
21
4.8601322
0
SOLID
8
8
62
5
10
7.6440897
20
4.9956541
11
7.7396998
21
5.0293655
12
7.6601906
22
4.9664688
13
7.6601906
23
4.9664688
0
TEXT
8
8
62
5
40
0.0800000
1
BULKHEAD TO
7
STANDARD
72
0
10
6.3296013
20
4.8201323
0
TEXT
8
8
62
5
40
0.0800000
1
HULL AND
7
STANDARD
72
0
10
6.3296013
20
4.6867990
0
TEXT
8
8
62
5
40
0.0800000
1
DECK BOND
7
STANDARD
72
0
10
6.3296013
20
4.5534654
0
ENDBLK
8
0
0
BLOCK
8
0
2
ERICSON1-G15
70
0
10
0.0000000
20
0.0000000
0
LINE
8
8
62
5
10
8.1037769
20
5.7343397
11
8.1428537
21
6.2424612
0
LINE
8
8
62
5
10
8.1428537
20
6.2424612
11
8.0428534
21
6.2424612
0
SOLID
8
8
62
5
10
8.1280613
20
5.8327675
11
8.1037769
21
5.7343397
12
8.0948277
22
5.8353233
13
8.0948277
23
5.8353233
0
TEXT
8
8
62
5
40
0.0800000
1
HULL
7
STANDARD
72
0
10
7.5995202
20
6.2024612
0
ENDBLK
8
0
0
ENDSEC
0
SECTION
2
ENTITIES
0
ARC
8
3
62
7
10
3.8468761
20
30.4683456
40
27.9813766
50
268.3144193
51
275.7643525
0
ARC
8
3
62
7
10
3.8468761
20
30.4780922
40
27.9813766
50
268.3144193
51
275.7643525
0
ARC
8
2
62
1
10
3.7981608
20
28.5829430
40
26.2998600
50
268.3746889
51
275.9617450
0
ARC
8
3
62
7
10
3.9222043
20
26.8944321
40
24.6739197
50
268.1799465
51
275.5446936
0
LINE
8
3
62
7
10
3.3027554
20
1.9785664
11
6.0480971
21
1.9785664
0
LINE
8
3
62
7
10
3.2342436
20
2.0107424
11
6.1168890
21
2.0325100
0
LINE
8
3
62
5
10
2.5280755
20
1.9460671
11
7.2016091
21
1.9460671
0
LINE
8
3
62
5
10
3.0538023
20
1.8857100
11
6.9348226
21
1.8857100
0
LINE
8
3
62
5
10
3.6878538
20
1.7210019
11
6.5645003
21
1.7210019
0
LINE
8
3
62
5
10
3.9483225
20
1.8253529
11
6.8249688
21
1.8253529
0
TEXT
8
8
62
5
40
0.0800000
50
4.9999999
1
J=14.00
7
STANDARD
72
0
10
5.8579612
20
2.3806460
0
ARC
8
3
62
7
10
3.8462367
20
27.5172691
40
25.2589989
50
268.2516362
51
276.0929119
0
LINE
8
4
62
3
6
DISCONTINUE
10
5.1048522
20
5.8542042
11
6.0717230
21
2.5852463
0
LINE
8
10
62
3
10
5.1049037
20
6.9556437
11
6.5272517
21
2.4009621
0
TEXT
8
8
62
5
40
0.0800000
1
301 SQ. FT.
7
STANDARD
72
0
10
5.4863472
20
3.3673158
0
LINE
8
10
62
7
10
6.9902959
20
-1.1102230E-016
11
6.9902959
21
1.3999996
0
LINE
8
10
62
7
10
7.8652959
20
-1.1102230E-016
11
7.8652959
21
0.1749992
0
LINE
8
10
62
7
10
9.0902967
20
-1.1102230E-016
11
9.0902967
21
0.1749992
0
LINE
8
10
62
7
10
9.9652967
20
1.3999996
11
9.9652967
21
-1.1102230E-016
0
POINT
8
10
62
3
10
9.9652967
20
-1.1102230E-016
0
POLYLINE
8
10
62
7
70
1
66
1
40
0.0000000
41
0.0000000
0
VERTEX
8
10
10
0.1853282
20
-1.1102230E-016
0
VERTEX
8
10
10
0.1853282
20
7.2299957
0
VERTEX
8
10
10
9.9652967
20
7.2299957
0
VERTEX
8
10
10
9.9652967
20
-1.1102230E-016
0
SEQEND
8
10
0
LINE
8
10
62
7
10
5.3402953
20
-1.1102230E-016
11
9.9652967
21
-1.1102230E-016
0
LINE
8
10
62
7
10
5.3402953
20
0.9239998
11
6.9902959
21
0.9239998
0
LINE
8
10
62
7
10
5.3402953
20
1.1549997
11
6.9902959
21
1.1549997
0
LINE
8
10
62
7
10
5.3402953
20
0.2309999
11
6.9902959
21
0.2309999
0
LINE
8
10
62
7
10
5.3402953
20
0.4619999
11
6.9902959
21
0.4619999
0
LINE
8
10
62
7
10
5.3402953
20
0.6929998
11
6.9902959
21
0.6929998
0
LINE
8
10
62
7
10
5.3402953
20
-1.1102230E-016
11
9.9652967
21
-1.1102230E-016
0
POLYLINE
8
10
62
7
70
0
66
1
40
0.0000000
41
0.0000000
0
VERTEX
8
10
10
5.3402953
20
-1.1102230E-016
0
VERTEX
8
10
10
5.3402953
20
1.3999996
0
VERTEX
8
10
10
9.9652967
20
1.3999996
0
SEQEND
8
10
0
TEXT
8
10
62
7
40
0.0700000
1
BRUCE KING
7
STANDARD
72
0
10
5.4363122
20
0.4882635
0
TEXT
8
10
62
7
40
0.0700000
1
M. PILLERS
7
STANDARD
72
0
10
5.4283547
20
0.7152672
0
TEXT
8
10
62
7
40
0.0700000
1
RT-114-01A
7
STANDARD
72
0
10
5.4337263
20
1.1783133
0
LINE
8
10
62
7
10
6.5152955
20
-1.1102230E-016
11
6.5152955
21
1.1549997
0
TEXT
8
10
62
7
40
0.0500000
1
DESIGN ACTIVITY
7
STANDARD
72
0
10
5.3752956
20
0.3745003
0
TEXT
8
10
62
7
40
0.0700000
1
FORWARD THINKERS
7
STANDARD
72
0
10
5.3774810
20
0.0356236
0
LINE
8
4
62
11
10
5.0729980
20
5.4739199
11
5.0729980
21
2.5236027
0
LINE
8
4
62
3
6
DISCONTINUE
10
5.0399380
20
6.2926455
11
4.2676554
21
2.4805386
0
LINE
8
10
62
3
10
5.0399041
20
6.9556437
11
3.0069284
21
2.2950108
0
LINE
8
10
62
3
10
5.0401506
20
6.4743528
11
3.8833489
21
2.7261422
0
ARC
8
10
62
3
10
19.7658482
20
-0.2172773
40
16.3367920
50
154.6388296
51
169.2181416
0
TEXT
8
1
62
5
40
0.0800000
50
270.0000007
1
P=35.67
7
STANDARD
72
0
10
4.9192543
20
4.8884773
0
INSERT
8
1
2
ERICSON1-G1
10
0.0000000
20
0.0000000
0
LINE
8
1
62
6
10
5.0399041
20
2.5221817
11
5.0399041
21
6.9556437
0
LINE
8
1
62
6
10
5.1049037
20
2.5250809
11
5.1049037
21
6.9556437
0
INSERT
8
8
2
ERICSON1-G2
10
0.0000000
20
0.0000000
0
TEXT
8
8
62
5
40
0.0800000
1
    . . . . . . . . . . . . . . .
7
STANDARD
72
0
10
1.2215999
20
0.3589546
0
LINE
8
3
62
7
10
2.9254117
20
2.1118157
11
3.0069284
21
2.2950108
0
TEXT
8
8
62
5
40
0.0800000
1
  11,600 LB.
7
STANDARD
72
0
10
2.6682005
20
0.6256220
0
TEXT
8
8
62
5
40
0.0800000
1
533 SQ. FT.
7
STANDARD
72
0
10
2.6682005
20
0.2256214
0
ARC
8
3
62
7
10
2.6213522
20
0.6484148
40
1.4946562
50
60.2490167
51
78.2623361
0
TEXT
8
8
62
5
40
0.0800000
1
   5,000 LB.
7
STANDARD
72
0
10
2.6290798
20
0.4922888
0
TEXT
8
8
62
5
40
0.0800000
1
 . . . . . . . . . . . . . . . . .
7
STANDARD
72
0
10
1.2439545
20
0.7589552
0
TEXT
8
8
62
5
40
0.0800000
1
      6'-2"
7
STANDARD
72
0
10
2.6067252
20
0.3589546
0
TEXT
8
8
62
5
40
0.0800000
1
    25'-10"
7
STANDARD
72
0
10
2.6849666
20
1.0256217
0
TEXT
8
8
62
5
40
0.0800000
1
     10'-0"
7
STANDARD
72
0
10
2.6458461
20
0.8922884
0
TEXT
8
8
62
5
40
0.0800000
1
     4'-11"
7
STANDARD
72
0
10
2.6849666
20
0.7589552
0
TEXT
8
8
62
5
40
0.0800000
1
     34'-8"
7
STANDARD
72
0
10
2.6011364
20
1.1589549
0
TEXT
8
8
62
7
40
0.1000000
51
15.0000004
1
SPECIFICATIONS
7
STANDARD
72
0
10
0.6918231
20
1.4805548
0
LINE
8
8
62
7
10
0.6880628
20
1.4269125
11
2.0246551
21
1.4269125
0
TEXT
8
8
62
5
40
0.0800000
1
. . . . . . . . . . . . . . . . .
7
STANDARD
72
0
10
1.2215999
20
1.1589549
0
TEXT
8
8
62
5
40
0.0800000
1
BALLAST (Internal Lead)
7
STANDARD
72
0
10
0.8365730
20
0.4922888
0
TEXT
8
8
62
5
40
0.0800000
1
DISPLACEMENT
7
STANDARD
72
0
10
0.8365730
20
0.6256220
0
TEXT
8
8
62
5
40
0.0800000
1
SAIL AREA
7
STANDARD
72
0
10
0.8365730
20
0.2256214
0
TEXT
8
8
62
5
40
0.0800000
1
. . . . . . . . . . . . . . . . .
7
STANDARD
72
0
10
1.2215999
20
1.0299903
0
TEXT
8
8
62
5
40
0.0800000
1
. . . . . . . . . . . . . . . . .
7
STANDARD
72
0
10
1.2215999
20
0.9010257
0
TEXT
8
8
62
5
40
0.0800000
1
       . . . . . . . . . .
7
STANDARD
72
0
10
1.2215999
20
0.6256220
0
TEXT
8
8
62
5
40
0.0800000
1
    . . . . . . . . . . .
7
STANDARD
72
0
10
1.2215999
20
0.2256214
0
TEXT
8
8
62
5
40
0.0800000
1
                 . . .
7
STANDARD
72
0
10
1.2215999
20
0.4922888
0
TEXT
8
8
62
5
40
0.0800000
1
HEADROOM
7
STANDARD
72
0
10
0.8365730
20
0.3589546
0
TEXT
8
8
62
5
40
0.0800000
1
DRAFT
7
STANDARD
72
0
10
0.8365730
20
0.7589552
0
TEXT
8
8
62
5
40
0.0800000
1
L.W.L.
7
STANDARD
72
0
10
0.8365730
20
1.0256217
0
TEXT
8
8
62
5
40
0.0800000
1
BEAM
7
STANDARD
72
0
10
0.8365730
20
0.8922884
0
TEXT
8
8
62
5
40
0.0800000
1
L.O.A.
7
STANDARD
72
0
10
0.8365730
20
1.1589549
0
ARC
8
3
62
7
10
2.9053695
20
1.9089768
40
0.3991699
50
54.2576533
51
75.2604884
0
TEXT
8
10
62
7
40
0.0700000
1
S. AUGROS
7
STANDARD
72
0
10
5.4362521
20
0.2495394
0
TEXT
8
10
62
7
40
0.0700000
1
R. PACKER
7
STANDARD
72
0
10
5.4323034
20
0.9481316
0
TEXT
8
10
62
7
40
0.0500000
1
DRAWN
7
STANDARD
72
0
10
5.3752956
20
1.0674992
0
TEXT
8
10
62
7
40
0.0500000
1
CHECK
7
STANDARD
72
0
10
5.3752956
20
0.8365002
0
TEXT
8
10
62
7
40
0.0500000
1
DESIGN
7
STANDARD
72
0
10
5.3752956
20
0.6054993
0
TEXT
8
10
62
7
40
0.0500000
1
CUSTOMER
7
STANDARD
72
0
10
5.3752956
20
0.1434994
0
TEXT
8
10
62
7
40
0.0500000
1
CONTRACT NO.
7
STANDARD
72
0
10
5.3752956
20
1.3160000
0
LINE
8
2
62
1
10
4.3939128
20
2.4290154
11
5.5939913
21
2.4290154
0
LINE
8
2
62
1
10
4.3939128
20
2.4799054
11
5.5564084
21
2.4799054
0
LINE
8
2
62
1
10
4.4840593
20
2.3392003
11
4.6931925
21
2.3392003
0
LINE
8
2
62
1
10
4.6931925
20
2.3992608
11
4.4840593
21
2.3992608
0
LINE
8
4
62
3
6
DISCONTINUE
10
5.0399308
20
3.9171078
11
4.2676554
21
2.4805386
0
LINE
8
10
62
3
10
3.8833489
20
2.7261422
11
4.5939550
21
2.4938958
0
TEXT
8
8
62
5
40
0.0800000
1
232 SQ. FT.
7
STANDARD
72
0
10
4.2702932
20
3.8853354
0
LINE
8
1
62
6
10
3.5621290
20
2.7768223
11
5.0399041
21
2.9321434
0
LINE
8
1
62
6
10
3.5483379
20
2.8211243
11
5.0398731
21
2.9778950
0
LINE
8
2
62
1
10
3.3451471
20
2.3337471
11
3.7239141
21
2.3593819
0
LINE
8
2
62
1
10
3.0905769
20
2.3165677
11
3.2357697
21
2.3263485
0
LINE
8
2
62
1
10
3.0905769
20
2.3165677
11
3.0747898
21
2.2931015
0
LINE
8
3
62
7
10
3.0238125
20
2.5088284
11
3.0238125
21
2.4990799
0
LINE
8
3
62
7
10
3.0473197
20
2.2820370
11
3.1378183
21
2.4959671
0
LINE
8
3
62
7
10
3.0381289
20
2.2853272
11
3.1273391
21
2.4962513
0
ARC
8
2
62
1
10
3.7913580
20
27.6756134
40
25.3927231
50
268.2297249
51
268.3084087
0
LINE
8
3
62
7
10
3.2455592
20
2.2890427
11
3.2455592
21
2.4933331
0
LINE
8
3
62
7
10
3.2358091
20
2.2890999
11
3.2358091
21
2.4933331
0
ARC
8
2
62
1
6
CACHE
10
3.3272653
20
2.3667309
40
0.0582584
50
236.0281151
51
303.9718590
0
POLYLINE
8
2
62
1
6
CACHE
70
0
66
1
40
0.0000000
41
0.0000000
0
VERTEX
8
2
10
3.2947111
20
2.3184159
0
VERTEX
8
2
10
3.3141897
20
2.3387635
0
VERTEX
8
2
10
3.3141897
20
2.3635037
0
SEQEND
8
2
0
POLYLINE
8
2
62
1
6
CACHE
70
0
66
1
40
0.0000000
41
0.0000000
0
VERTEX
8
2
10
3.3598189
20
2.3184159
0
VERTEX
8
2
10
3.3403995
20
2.3387635
0
VERTEX
8
2
10
3.3403995
20
2.3635037
0
SEQEND
8
2
0
LINE
8
2
62
1
6
CACHE
10
3.3141897
20
2.3635037
11
3.3403995
21
2.3635037
0
POLYLINE
8
2
62
1
6
CACHE
70
1
66
1
40
0.0000000
41
0.0000000
0
VERTEX
8
2
10
3.3078041
20
2.3635037
0
VERTEX
8
2
10
3.3078041
20
2.3726609
0
VERTEX
8
2
10
3.3467848
20
2.3726609
0
VERTEX
8
2
10
3.3467848
20
2.3635037
0
SEQEND
8
2
0
LINE
8
2
62
1
10
3.2455986
20
2.3270123
11
3.3069453
21
2.3311589
0
LINE
8
2
62
1
10
3.7336352
20
2.3599789
11
4.0525770
21
2.3815663
0
LINE
8
3
62
7
10
3.7239516
20
2.2830632
11
3.7239516
21
2.4872239
0
LINE
8
3
62
7
10
3.7337015
20
2.2830327
11
3.7337015
21
2.4871628
0
LINE
8
2
62
1
10
4.0525770
20
2.3815663
11
4.1013074
21
2.4880879
0
LINE
8
2
62
1
10
4.0742464
20
2.4290154
11
4.3841634
21
2.4290154
0
LINE
8
2
62
1
10
4.3841634
20
2.3992608
11
4.2037954
21
2.3992608
0
LINE
8
2
62
1
10
4.2037954
20
2.3392003
11
4.3841634
21
2.3392003
0
LINE
8
2
62
1
10
4.1264095
20
2.4799054
11
4.3841634
21
2.4799054
0
LINE
8
2
62
1
10
4.0868549
20
2.4566090
11
4.2591043
21
2.4566090
0
LINE
8
2
62
1
10
4.1157694
20
2.4566090
11
4.1264095
21
2.4799054
0
LINE
8
2
62
1
10
4.2591043
20
2.4566090
11
4.2697449
21
2.4799054
0
ARC
8
2
62
1
10
4.2037954
20
2.3812420
40
0.0180180
50
90.0000025
51
180.0000050
0
ARC
8
2
62
1
10
4.2037954
20
2.3572190
40
0.0180180
50
180.0000050
51
270.0000007
0
LINE
8
2
62
1
10
4.1857777
20
2.3812420
11
4.1857777
21
2.3572190
0
LINE
8
3
62
7
10
4.3939128
20
2.2894833
11
4.3939128
21
2.4923203
0
LINE
8
3
62
7
10
4.3841634
20
2.2894642
11
4.3841634
21
2.4921296
0
ARC
8
2
62
1
10
4.4129291
20
2.3812420
40
0.0180180
50
0.0000000
51
90.0000025
0
ARC
8
2
62
1
10
4.4129291
20
2.3572190
40
0.0180180
50
270.0000007
51
0.0000000
0
LINE
8
2
62
1
10
4.4309468
20
2.3572190
11
4.4309468
21
2.3812420
0
ARC
8
2
62
1
10
4.4840593
20
2.3812420
40
0.0180180
50
90.0000025
51
180.0000050
0
ARC
8
2
62
1
10
4.4840593
20
2.3572190
40
0.0180180
50
180.0000050
51
270.0000007
0
LINE
8
2
62
1
10
4.4660411
20
2.3812420
11
4.4660411
21
2.3572190
0
LINE
8
2
62
1
10
4.4129291
20
2.3992608
11
4.3939128
21
2.3992608
0
LINE
8
2
62
1
10
4.3939128
20
2.3392003
11
4.4129291
21
2.3392003
0
LINE
8
10
62
3
10
3.5511339
20
2.7600548
11
3.4288478
21
2.3360531
0
TEXT
8
8
62
5
40
0.0800000
50
6.0000002
1
B=13.00
7
STANDARD
72
0
10
3.8387051
20
2.8816540
0
POLYLINE
8
4
62
11
70
1
66
1
40
0.0000000
41
0.0000000
0
VERTEX
8
4
10
3.5404794
20
2.7436631
0
VERTEX
8
4
10
3.5549173
20
2.7940133
0
VERTEX
8
4
10
3.5661385
20
2.7907956
0
VERTEX
8
4
10
3.5517008
20
2.7404454
0
SEQEND
8
4
0
LINE
8
1
62
6
10
3.5483379
20
2.8211243
11
3.5521877
21
2.7845299
0
LINE
8
1
62
6
10
3.7174599
20
2.8388512
11
3.7222159
21
2.7936013
0
INSERT
8
5
2
ERICSON1-G3
10
0.0000000
20
0.0000000
0
INSERT
8
5
2
ERICSON1-G4
10
0.0000000
20
0.0000000
0
LINE
8
10
62
3
10
5.1048303
20
3.5615323
11
5.2745862
21
2.5331490
0
INSERT
8
2
2
ERICSON1-G5
10
0.0000000
20
0.0000000
0
LINE
8
2
62
1
10
4.5948997
20
2.4966424
11
4.8548999
21
2.4966424
0
LINE
8
2
62
1
10
4.5872536
20
2.4799054
11
4.5948997
21
2.4966424
0
ARC
8
2
62
1
10
4.6931925
20
2.3812420
40
0.0180180
50
0.0000000
51
90.0000025
0
ARC
8
2
62
1
10
4.6931925
20
2.3572190
40
0.0180180
50
270.0000007
51
0.0000000
0
LINE
8
2
62
1
10
4.7112103
20
2.3572190
11
4.7112103
21
2.3812420
0
LINE
8
2
62
1
10
4.8625460
20
2.4799054
11
4.8548999
21
2.4966424
0
LINE
8
2
62
1
10
5.0139041
20
2.4966424
11
5.1309042
21
2.4966424
0
LINE
8
2
62
1
10
5.0139041
20
2.4966424
11
4.9860454
21
2.4799054
0
LINE
8
1
62
6
10
5.0399041
20
2.4966424
11
5.0399041
21
2.5124123
0
LINE
8
4
62
11
10
5.0729980
20
2.5138962
11
5.0729980
21
2.3140671
0
LINE
8
2
62
1
10
5.1309042
20
2.4966424
11
5.1587620
21
2.4799054
0
INSERT
8
2
2
ERICSON1-G6
10
0.0000000
20
0.0000000
0
LINE
8
1
62
6
10
5.1049037
20
2.4966424
11
5.1049037
21
2.5153248
0
LINE
8
4
62
11
10
5.2762289
20
2.5234845
11
5.3087730
21
2.3262169
0
LINE
8
2
62
1
10
5.5730162
20
2.4734242
11
5.6951365
21
2.3513787
0
LINE
8
2
62
1
10
5.4187622
20
2.4799054
11
5.4264088
21
2.4966424
0
LINE
8
2
62
1
10
5.4264088
20
2.4966424
11
5.5564084
21
2.4966424
0
LINE
8
2
62
1
10
5.5564084
20
2.4966424
11
5.5564084
21
2.4799054
0
ARC
8
2
62
1
10
5.5564084
20
2.4553807
40
0.0245238
50
47.3734578
51
90.0000025
0
ARC
8
2
62
1
10
5.5939913
20
2.4535382
40
0.0245238
50
270.0000007
51
312.6265556
0
INSERT
8
2
2
ERICSON1-G7
10
0.0000000
20
0.0000000
0
LINE
8
3
62
7
10
5.7644253
20
2.3563855
11
5.7473674
21
2.5516617
0
LINE
8
3
62
7
10
5.7741361
20
2.3571675
11
5.7570639
21
2.5522416
0
LINE
8
4
62
3
6
DISCONTINUE
10
5.2906389
20
4.3834620
11
5.1047683
21
4.0379305
0
LINE
8
4
62
3
6
DISCONTINUE
10
5.2906389
20
4.3834620
11
5.9081388
21
4.3834620
0
TEXT
8
8
62
5
40
0.0800000
1
533 SQ. FT.
7
STANDARD
72
0
10
5.1766791
20
3.6331716
0
INSERT
8
8
2
ERICSON1-G8
10
0.0000000
20
0.0000000
0
POLYLINE
8
3
62
7
70
4
66
1
40
0.0000000
41
0.0000000
0
VERTEX
8
3
10
0.6961272
20
5.7827225
70
16
0
VERTEX
8
3
10
0.7032747
20
5.6342220
70
16
0
VERTEX
8
3
10
0.7149863
20
5.5241165
70
16
0
VERTEX
8
3
10
0.7345057
20
5.3939934
70
16
0
VERTEX
8
3
10
0.7696404
20
5.2688751
70
16
0
VERTEX
8
3
10
0.8399100
20
5.1287403
70
16
0
VERTEX
8
3
10
0.9218910
20
4.9886074
70
16
0
VERTEX
8
3
10
1.0233910
20
4.8734970
70
16
0
VERTEX
8
3
10
1.1405070
20
4.7834120
70
16
0
VERTEX
8
3
10
1.2927573
20
4.7133446
70
16
0
VERTEX
8
3
10
1.4606233
20
4.6582918
70
16
0
VERTEX
8
3
10
1.6323929
20
4.6282635
70
16
0
VERTEX
8
3
10
1.8471050
20
4.6182537
70
16
0
VERTEX
8
3
10
0.6961272
20
5.7827225
70
8
0
VERTEX
8
3
10
0.6987501
20
5.7312441
70
8
0
VERTEX
8
3
10
0.7012709
20
5.6874997
70
8
0
VERTEX
8
3
10
0.7037085
20
5.6504627
70
8
0
VERTEX
8
3
10
0.7060818
20
5.6191065
70
8
0
VERTEX
8
3
10
0.7084099
20
5.5924044
70
8
0
VERTEX
8
3
10
0.7107115
20
5.5693296
70
8
0
VERTEX
8
3
10
0.7130058
20
5.5488556
70
8
0
VERTEX
8
3
10
0.7153116
20
5.5299557
70
8
0
VERTEX
8
3
10
0.7176493
20
5.5117646
70
8
0
VERTEX
8
3
10
0.7200441
20
5.4940622
70
8
0
VERTEX
8
3
10
0.7225227
20
5.4767899
70
8
0
VERTEX
8
3
10
0.7251120
20
5.4598891
70
8
0
VERTEX
8
3
10
0.7278385
20
5.4433011
70
8
0
VERTEX
8
3
10
0.7307289
20
5.4269673
70
8
0
VERTEX
8
3
10
0.7338099
20
5.4108290
70
8
0
VERTEX
8
3
10
0.7371082
20
5.3948275
70
8
0
VERTEX
8
3
10
0.7406525
20
5.3789075
70
8
0
VERTEX
8
3
10
0.7444788
20
5.3630266
70
8
0
VERTEX
8
3
10
0.7486254
20
5.3471457
70
8
0
VERTEX
8
3
10
0.7531303
20
5.3312257
70
8
0
VERTEX
8
3
10
0.7580318
20
5.3152274
70
8
0
VERTEX
8
3
10
0.7633678
20
5.2991119
70
8
0
VERTEX
8
3
10
0.7691766
20
5.2828399
70
8
0
VERTEX
8
3
10
0.7754962
20
5.2663724
70
8
0
VERTEX
8
3
10
0.7823509
20
5.2496816
70
8
0
VERTEX
8
3
10
0.7897088
20
5.2327856
70
8
0
VERTEX
8
3
10
0.7975241
20
5.2157136
70
8
0
VERTEX
8
3
10
0.8057512
20
5.1984949
70
8
0
VERTEX
8
3
10
0.8143443
20
5.1811590
70
8
0
VERTEX
8
3
10
0.8232576
20
5.1637350
70
8
0
VERTEX
8
3
10
0.8324454
20
5.1462525
70
8
0
VERTEX
8
3
10
0.8418619
20
5.1287406
70
8
0
VERTEX
8
3
10
0.8514716
20
5.1112321
70
8
0
VERTEX
8
3
10
0.8612796
20
5.0937724
70
8
0
VERTEX
8
3
10
0.8713010
20
5.0764105
70
8
0
VERTEX
8
3
10
0.8815511
20
5.0591952
70
8
0
VERTEX
8
3
10
0.8920453
20
5.0421754
70
8
0
VERTEX
8
3
10
0.9027987
20
5.0254000
70
8
0
VERTEX
8
3
10
0.9138265
20
5.0089179
70
8
0
VERTEX
8
3
10
0.9251442
20
4.9927778
70
8
0
VERTEX
8
3
10
0.9367629
20
4.9770206
70
8
0
VERTEX
8
3
10
0.9486791
20
4.9616544
70
8
0
VERTEX
8
3
10
0.9608850
20
4.9466791
70
8
0
VERTEX
8
3
10
0.9733730
20
4.9320949
70
8
0
VERTEX
8
3
10
0.9861355
20
4.9179016
70
8
0
VERTEX
8
3
10
0.9991648
20
4.9040994
70
8
0
VERTEX
8
3
10
1.0124534
20
4.8906881
70
8
0
VERTEX
8
3
10
1.0259937
20
4.8776679
70
8
0
VERTEX
8
3
10
1.0397855
20
4.8650371
70
8
0
VERTEX
8
3
10
1.0538595
20
4.8527875
70
8
0
VERTEX
8
3
10
1.0682537
20
4.8409093
70
8
0
VERTEX
8
3
10
1.0830063
20
4.8293929
70
8
0
VERTEX
8
3
10
1.0981554
20
4.8182283
70
8
0
VERTEX
8
3
10
1.1137390
20
4.8074059
70
8
0
VERTEX
8
3
10
1.1297954
20
4.7969158
70
8
0
VERTEX
8
3
10
1.1463627
20
4.7867483
70
8
0
VERTEX
8
3
10
1.1634662
20
4.7768935
70
8
0
VERTEX
8
3
10
1.1810806
20
4.7673417
70
8
0
VERTEX
8
3
10
1.1991677
20
4.7580832
70
8
0
VERTEX
8
3
10
1.2176894
20
4.7491081
70
8
0
VERTEX
8
3
10
1.2366076
20
4.7404067
70
8
0
VERTEX
8
3
10
1.2558842
20
4.7319693
70
8
0
VERTEX
8
3
10
1.2754810
20
4.7237860
70
8
0
VERTEX
8
3
10
1.2953599
20
4.7158470
70
8
0
VERTEX
8
3
10
1.3155133
20
4.7081427
70
8
0
VERTEX
8
3
10
1.3360556
20
4.7006632
70
8
0
VERTEX
8
3
10
1.3571316
20
4.6933987
70
8
0
VERTEX
8
3
10
1.3788862
20
4.6863395
70
8
0
VERTEX
8
3
10
1.4014643
20
4.6794759
70
8
0
VERTEX
8
3
10
1.4250107
20
4.6727980
70
8
0
VERTEX
8
3
10
1.4496703
20
4.6662960
70
8
0
VERTEX
8
3
10
1.4755880
20
4.6599602
70
8
0
VERTEX
8
3
10
1.5031069
20
4.6537890
70
8
0
VERTEX
8
3
10
1.5333630
20
4.6478132
70
8
0
VERTEX
8
3
10
1.5676908
20
4.6420721
70
8
0
VERTEX
8
3
10
1.6074245
20
4.6366047
70
8
0
VERTEX
8
3
10
1.6538984
20
4.6314500
70
8
0
VERTEX
8
3
10
1.7084469
20
4.6266472
70
8
0
VERTEX
8
3
10
1.7724044
20
4.6222354
70
8
0
VERTEX
8
3
10
1.8471050
20
4.6182537
70
8
0
SEQEND
8
3
0
POLYLINE
8
3
62
7
70
4
66
1
40
0.0000000
41
0.0000000
0
VERTEX
8
3
10
0.7461026
20
5.7829666
70
16
0
VERTEX
8
3
10
0.7507453
20
5.7199135
70
16
0
VERTEX
8
3
10
0.7570109
20
5.6355705
70
16
0
VERTEX
8
3
10
0.7695425
20
5.5512276
70
16
0
VERTEX
8
3
10
0.7883396
20
5.4588509
70
16
0
VERTEX
8
3
10
0.8102698
20
5.3745079
70
16
0
VERTEX
8
3
10
0.8478646
20
5.2781162
70
16
0
VERTEX
8
3
10
0.8948579
20
5.1897545
70
16
0
VERTEX
8
3
10
0.9418504
20
5.1134443
70
16
0
VERTEX
8
3
10
1.0076411
20
5.0291004
70
16
0
VERTEX
8
3
10
1.0671656
20
4.9608221
70
16
0
VERTEX
8
3
10
1.1486204
20
4.8885269
70
16
0
VERTEX
8
3
10
1.2551382
20
4.8282814
70
16
0
VERTEX
8
3
10
1.3616561
20
4.7841015
70
16
0
VERTEX
8
3
10
1.4838386
20
4.7519712
70
16
0
VERTEX
8
3
10
1.6028876
20
4.7318888
70
16
0
VERTEX
8
3
10
1.7219372
20
4.7198400
70
16
0
VERTEX
8
3
10
1.8409863
20
4.7158232
70
16
0
VERTEX
8
3
10
0.7461026
20
5.7829666
70
8
0
VERTEX
8
3
10
0.7477768
20
5.7602735
70
8
0
VERTEX
8
3
10
0.7493333
20
5.7393756
70
8
0
VERTEX
8
3
10
0.7507958
20
5.7201108
70
8
0
VERTEX
8
3
10
0.7521882
20
5.7023165
70
8
0
VERTEX
8
3
10
0.7535344
20
5.6858306
70
8
0
VERTEX
8
3
10
0.7548580
20
5.6704906
70
8
0
VERTEX
8
3
10
0.7561830
20
5.6561342
70
8
0
VERTEX
8
3
10
0.7575331
20
5.6425991
70
8
0
VERTEX
8
3
10
0.7589292
20
5.6297336
70
8
0
VERTEX
8
3
10
0.7603804
20
5.6174290
70
8
0
VERTEX
8
3
10
0.7618928
20
5.6055873
70
8
0
VERTEX
8
3
10
0.7634725
20
5.5941103
70
8
0
VERTEX
8
3
10
0.7651256
20
5.5828999
70
8
0
VERTEX
8
3
10
0.7668583
20
5.5718583
70
8
0
VERTEX
8
3
10
0.7686766
20
5.5608872
70
8
0
VERTEX
8
3
10
0.7705867
20
5.5498886
70
8
0
VERTEX
8
3
10
0.7725927
20
5.5387861
70
8
0
VERTEX
8
3
10
0.7746905
20
5.5275894
70
8
0
VERTEX
8
3
10
0.7768739
20
5.5163300
70
8
0
VERTEX
8
3
10
0.7791368
20
5.5050392
70
8
0
VERTEX
8
3
10
0.7814732
20
5.4937484
70
8
0
VERTEX
8
3
10
0.7838769
20
5.4824890
70
8
0
VERTEX
8
3
10
0.7863418
20
5.4712923
70
8
0
VERTEX
8
3
10
0.7888618
20
5.4601898
70
8
0
VERTEX
8
3
10
0.7914358
20
5.4492011
70
8
0
VERTEX
8
3
10
0.7940833
20
5.4382986
70
8
0
VERTEX
8
3
10
0.7968286
20
5.4274432
70
8
0
VERTEX
8
3
10
0.7996963
20
5.4165957
70
8
0
VERTEX
8
3
10
0.8027109
20
5.4057169
70
8
0
VERTEX
8
3
10
0.8058969
20
5.3947674
70
8
0
VERTEX
8
3
10
0.8092786
20
5.3837081
70
8
0
VERTEX
8
3
10
0.8128806
20
5.3724998
70
8
0
VERTEX
8
3
10
0.8167212
20
5.3611163
70
8
0
VERTEX
8
3
10
0.8207944
20
5.3495837
70
8
0
VERTEX
8
3
10
0.8250879
20
5.3379413
70
8
0
VERTEX
8
3
10
0.8295894
20
5.3262283
70
8
0
VERTEX
8
3
10
0.8342867
20
5.3144839
70
8
0
VERTEX
8
3
10
0.8391676
20
5.3027474
70
8
0
VERTEX
8
3
10
0.8442197
20
5.2910578
70
8
0
VERTEX
8
3
10
0.8494310
20
5.2794545
70
8
0
VERTEX
8
3
10
0.8547882
20
5.2679715
70
8
0
VERTEX
8
3
10
0.8602738
20
5.2566218
70
8
0
VERTEX
8
3
10
0.8658695
20
5.2454132
70
8
0
VERTEX
8
3
10
0.8715570
20
5.2343537
70
8
0
VERTEX
8
3
10
0.8773180
20
5.2234511
70
8
0
VERTEX
8
3
10
0.8831340
20
5.2127132
70
8
0
VERTEX
8
3
10
0.8889867
20
5.2021479
70
8
0
VERTEX
8
3
10
0.8948578
20
5.1917631
70
8
0
VERTEX
8
3
10
0.9007380
20
5.1815587
70
8
0
VERTEX
8
3
10
0.9066549
20
5.1715034
70
8
0
VERTEX
8
3
10
0.9126453
20
5.1615579
70
8
0
VERTEX
8
3
10
0.9187458
20
5.1516831
70
8
0
VERTEX
8
3
10
0.9249931
20
5.1418397
70
8
0
VERTEX
8
3
10
0.9314240
20
5.1319884
70
8
0
VERTEX
8
3
10
0.9380752
20
5.1220900
70
8
0
VERTEX
8
3
10
0.9449834
20
5.1121054
70
8
0
VERTEX
8
3
10
0.9521711
20
5.1020096
70
8
0
VERTEX
8
3
10
0.9596035
20
5.0918353
70
8
0
VERTEX
8
3
10
0.9672317
20
5.0816297
70
8
0
VERTEX
8
3
10
0.9750068
20
5.0714397
70
8
0
VERTEX
8
3
10
0.9828798
20
5.0613125
70
8
0
VERTEX
8
3
10
0.9908018
20
5.0512951
70
8
0
VERTEX
8
3
10
0.9987237
20
5.0414346
70
8
0
VERTEX
8
3
10
1.0065967
20
5.0317780
70
8
0
VERTEX
8
3
10
1.0143891
20
5.0223581
70
8
0
VERTEX
8
3
10
1.0221387
20
5.0131500
70
8
0
VERTEX
8
3
10
1.0299006
20
5.0041145
70
8
0
VERTEX
8
3
10
1.0377297
20
4.9952123
70
8
0
VERTEX
8
3
10
1.0456812
20
4.9864042
70
8
0
VERTEX
8
3
10
1.0538101
20
4.9776511
70
8
0
VERTEX
8
3
10
1.0621716
20
4.9689136
70
8
0
VERTEX
8
3
10
1.0708206
20
4.9601526
70
8
0
VERTEX
8
3
10
1.0798042
20
4.9513406
70
8
0
VERTEX
8
3
10
1.0891365
20
4.9424973
70
8
0
VERTEX
8
3
10
1.0988238
20
4.9336539
70
8
0
VERTEX
8
3
10
1.1088720
20
4.9248419
70
8
0
VERTEX
8
3
10
1.1192874
20
4.9160926
70
8
0
VERTEX
8
3
10
1.1300760
20
4.9074375
70
8
0
VERTEX
8
3
10
1.1412440
20
4.8989079
70
8
0
VERTEX
8
3
10
1.1527975
20
4.8905352
70
8
0
VERTEX
8
3
10
1.1647335
20
4.8823468
70
8
0
VERTEX
8
3
10
1.1770121
20
4.8743546
70
8
0
VERTEX
8
3
10
1.1895844
20
4.8665664
70
8
0
VERTEX
8
3
10
1.2024014
20
4.8589899
70
8
0
VERTEX
8
3
10
1.2154143
20
4.8516331
70
8
0
VERTEX
8
3
10
1.2285740
20
4.8445038
70
8
0
VERTEX
8
3
10
1.2418316
20
4.8376098
70
8
0
VERTEX
8
3
10
1.2551382
20
4.8309590
70
8
0
VERTEX
8
3
10
1.2684580
20
4.8245566
70
8
0
VERTEX
8
3
10
1.2818084
20
4.8183974
70
8
0
VERTEX
8
3
10
1.2952201
20
4.8124736
70
8
0
VERTEX
8
3
10
1.3087235
20
4.8067772
70
8
0
VERTEX
8
3
10
1.3223492
20
4.8013005
70
8
0
VERTEX
8
3
10
1.3361280
20
4.7960355
70
8
0
VERTEX
8
3
10
1.3500903
20
4.7909746
70
8
0
VERTEX
8
3
10
1.3642668
20
4.7861098
70
8
0
VERTEX
8
3
10
1.3786769
20
4.7814345
70
8
0
VERTEX
8
3
10
1.3932949
20
4.7769475
70
8
0
VERTEX
8
3
10
1.4080844
20
4.7726488
70
8
0
VERTEX
8
3
10
1.4230084
20
4.7685384
70
8
0
VERTEX
8
3
10
1.4380303
20
4.7646162
70
8
0
VERTEX
8
3
10
1.4531134
20
4.7608823
70
8
0
VERTEX
8
3
10
1.4682210
20
4.7573366
70
8
0
VERTEX
8
3
10
1.4833163
20
4.7539792
70
8
0
VERTEX
8
3
10
1.4983892
20
4.7508068
70
8
0
VERTEX
8
3
10
1.5135355
20
4.7478030
70
8
0
VERTEX
8
3
10
1.5288776
20
4.7449482
70
8
0
VERTEX
8
3
10
1.5445379
20
4.7422229
70
8
0
VERTEX
8
3
10
1.5606388
20
4.7396073
70
8
0
VERTEX
8
3
10
1.5773026
20
4.7370820
70
8
0
VERTEX
8
3
10
1.5946517
20
4.7346274
70
8
0
VERTEX
8
3
10
1.6128085
20
4.7322237
70
8
0
VERTEX
8
3
10
1.6319719
20
4.7298579
70
8
0
VERTEX
8
3
10
1.6526466
20
4.7275432
70
8
0
VERTEX
8
3
10
1.6754141
20
4.7252990
70
8
0
VERTEX
8
3
10
1.7008554
20
4.7231450
70
8
0
VERTEX
8
3
10
1.7295521
20
4.7211009
70
8
0
VERTEX
8
3
10
1.7620852
20
4.7191861
70
8
0
VERTEX
8
3
10
1.7990362
20
4.7174203
70
8
0
VERTEX
8
3
10
1.8409863
20
4.7158232
70
8
0
SEQEND
8
3
0
ARC
8
3
62
6
10
1.8461275
20
6.9299879
40
2.1237061
50
248.9311620
51
291.0688393
0
ARC
8
3
62
6
10
1.8454542
20
6.7470293
40
1.9669138
50
248.1207464
51
291.9256729
0
ARC
8
3
62
6
10
1.8460064
20
6.5263395
40
1.7758719
50
246.8223001
51
292.9539442
0
ARC
8
3
62
6
10
1.8521914
20
6.3521109
40
1.6270754
50
246.1899612
51
291.5299591
0
INSERT
8
8
2
ERICSON1-G9
10
0.0000000
20
0.0000000
0
LINE
8
3
62
4
10
0.7130802
20
5.5522633
11
0.7581351
21
5.6359158
0
LINE
8
3
62
4
10
0.7691369
20
5.2833023
11
0.8141279
21
5.3677197
0
LINE
8
3
62
4
10
0.7349675
20
5.4058704
11
0.7814698
21
5.4936562
0
LINE
8
3
62
4
10
0.9140403
20
5.0086584
11
0.9583161
21
5.0918884
0
LINE
8
3
62
4
10
0.9745338
20
4.9309883
11
1.0205591
21
5.0143490
0
LINE
8
3
62
4
10
1.0395458
20
4.8655472
11
1.0826776
21
4.9482536
0
LINE
8
3
62
4
10
1.1075876
20
4.8120699
11
1.1506693
21
4.8919125
0
LINE
8
3
62
4
10
1.1838272
20
4.7664499
11
1.2270238
21
4.8448191
0
LINE
8
3
62
4
10
1.2596071
20
4.7308006
11
1.3019789
21
4.8091440
0
LINE
8
3
62
4
10
1.3430699
20
4.6985683
11
1.3846473
21
4.7795525
0
LINE
8
3
62
4
10
1.4290622
20
4.6723528
11
1.4739437
21
4.7555094
0
LINE
8
3
62
4
10
0.8120995
20
5.1856384
11
0.8552794
21
5.2656517
0
LINE
8
3
62
4
10
0.8616900
20
5.0931072
11
0.9037659
21
5.1753254
0
ARC
8
3
62
7
10
1.0820940
20
3.8371003
40
1.9747059
50
89.7766007
51
99.7948626
0
ARC
8
3
62
7
10
1.0913255
20
3.2563555
40
2.6012871
50
90.0330470
51
98.7610725
0
LINE
8
3
62
4
10
0.6997159
20
5.7176132
11
0.7660589
21
5.8366547
0
LINE
8
3
62
7
10
0.6961682
20
5.7828274
11
0.6951118
21
5.8272896
0
LINE
8
3
62
7
10
1.0898249
20
5.8338757
11
1.0898249
21
5.7993336
0
LINE
8
3
62
4
10
1.0510123
20
5.8119164
11
1.0754578
21
5.8570080
0
LINE
8
3
62
4
10
0.9463003
20
5.8068104
11
0.9711378
21
5.8542747
0
LINE
8
3
62
4
10
0.8444428
20
5.7977238
11
0.8719888
21
5.8483753
0
LINE
8
3
62
7
10
1.0898249
20
5.8759899
11
1.0898249
21
5.8446693
0
POLYLINE
8
3
62
7
70
0
66
1
40
0.0000000
41
0.0000000
0
VERTEX
8
3
10
1.0898249
20
5.8446693
0
VERTEX
8
3
10
1.1034653
20
5.8397827
0
VERTEX
8
3
10
1.0751808
20
5.8393841
0
VERTEX
8
3
10
1.0898249
20
5.8338757
0
SEQEND
8
3
0
POLYLINE
8
3
62
7
70
4
66
1
40
0.0000000
41
0.0000000
0
VERTEX
8
3
10
2.9961276
20
5.7827225
70
16
0
VERTEX
8
3
10
2.9889803
20
5.6342220
70
16
0
VERTEX
8
3
10
2.9772687
20
5.5241165
70
16
0
VERTEX
8
3
10
2.9577494
20
5.3939934
70
16
0
VERTEX
8
3
10
2.9226146
20
5.2688751
70
16
0
VERTEX
8
3
10
2.8523450
20
5.1287403
70
16
0
VERTEX
8
3
10
2.7703643
20
4.9886074
70
16
0
VERTEX
8
3
10
2.6688638
20
4.8734970
70
16
0
VERTEX
8
3
10
2.5517483
20
4.7834120
70
16
0
VERTEX
8
3
10
2.3994975
20
4.7133446
70
16
0
VERTEX
8
3
10
2.2316318
20
4.6582918
70
16
0
VERTEX
8
3
10
2.0598621
20
4.6282635
70
16
0
VERTEX
8
3
10
1.8451500
20
4.6182537
70
16
0
VERTEX
8
3
10
2.9961276
20
5.7827225
70
8
0
VERTEX
8
3
10
2.9935047
20
5.7312441
70
8
0
VERTEX
8
3
10
2.9909840
20
5.6874997
70
8
0
VERTEX
8
3
10
2.9885465
20
5.6504627
70
8
0
VERTEX
8
3
10
2.9861732
20
5.6191065
70
8
0
VERTEX
8
3
10
2.9838452
20
5.5924044
70
8
0
VERTEX
8
3
10
2.9815435
20
5.5693296
70
8
0
VERTEX
8
3
10
2.9792492
20
5.5488556
70
8
0
VERTEX
8
3
10
2.9769434
20
5.5299557
70
8
0
VERTEX
8
3
10
2.9746058
20
5.5117646
70
8
0
VERTEX
8
3
10
2.9722110
20
5.4940622
70
8
0
VERTEX
8
3
10
2.9697323
20
5.4767899
70
8
0
VERTEX
8
3
10
2.9671430
20
5.4598891
70
8
0
VERTEX
8
3
10
2.9644166
20
5.4433011
70
8
0
VERTEX
8
3
10
2.9615262
20
5.4269673
70
8
0
VERTEX
8
3
10
2.9584451
20
5.4108290
70
8
0
VERTEX
8
3
10
2.9551468
20
5.3948275
70
8
0
VERTEX
8
3
10
2.9516026
20
5.3789075
70
8
0
VERTEX
8
3
10
2.9477762
20
5.3630266
70
8
0
VERTEX
8
3
10
2.9436296
20
5.3471457
70
8
0
VERTEX
8
3
10
2.9391247
20
5.3312257
70
8
0
VERTEX
8
3
10
2.9342232
20
5.3152274
70
8
0
VERTEX
8
3
10
2.9288872
20
5.2991119
70
8
0
VERTEX
8
3
10
2.9230784
20
5.2828399
70
8
0
VERTEX
8
3
10
2.9167588
20
5.2663724
70
8
0
VERTEX
8
3
10
2.9099041
20
5.2496816
70
8
0
VERTEX
8
3
10
2.9025463
20
5.2327856
70
8
0
VERTEX
8
3
10
2.8947309
20
5.2157136
70
8
0
VERTEX
8
3
10
2.8865038
20
5.1984949
70
8
0
VERTEX
8
3
10
2.8779108
20
5.1811590
70
8
0
VERTEX
8
3
10
2.8689975
20
5.1637350
70
8
0
VERTEX
8
3
10
2.8598097
20
5.1462525
70
8
0
VERTEX
8
3
10
2.8503931
20
5.1287406
70
8
0
VERTEX
8
3
10
2.8407835
20
5.1112321
70
8
0
VERTEX
8
3
10
2.8309755
20
5.0937724
70
8
0
VERTEX
8
3
10
2.8209541
20
5.0764105
70
8
0
VERTEX
8
3
10
2.8107040
20
5.0591952
70
8
0
VERTEX
8
3
10
2.8002099
20
5.0421754
70
8
0
VERTEX
8
3
10
2.7894565
20
5.0254000
70
8
0
VERTEX
8
3
10
2.7784286
20
5.0089179
70
8
0
VERTEX
8
3
10
2.7671110
20
4.9927778
70
8
0
VERTEX
8
3
10
2.7554922
20
4.9770206
70
8
0
VERTEX
8
3
10
2.7435760
20
4.9616544
70
8
0
VERTEX
8
3
10
2.7313701
20
4.9466791
70
8
0
VERTEX
8
3
10
2.7188821
20
4.9320949
70
8
0
VERTEX
8
3
10
2.7061195
20
4.9179016
70
8
0
VERTEX
8
3
10
2.6930901
20
4.9040994
70
8
0
VERTEX
8
3
10
2.6798015
20
4.8906881
70
8
0
VERTEX
8
3
10
2.6662613
20
4.8776679
70
8
0
VERTEX
8
3
10
2.6524694
20
4.8650371
70
8
0
VERTEX
8
3
10
2.6383955
20
4.8527875
70
8
0
VERTEX
8
3
10
2.6240013
20
4.8409093
70
8
0
VERTEX
8
3
10
2.6092487
20
4.8293929
70
8
0
VERTEX
8
3
10
2.5940997
20
4.8182283
70
8
0
VERTEX
8
3
10
2.5785160
20
4.8074059
70
8
0
VERTEX
8
3
10
2.5624596
20
4.7969158
70
8
0
VERTEX
8
3
10
2.5458924
20
4.7867483
70
8
0
VERTEX
8
3
10
2.5287889
20
4.7768935
70
8
0
VERTEX
8
3
10
2.5111745
20
4.7673417
70
8
0
VERTEX
8
3
10
2.4930873
20
4.7580832
70
8
0
VERTEX
8
3
10
2.4745656
20
4.7491081
70
8
0
VERTEX
8
3
10
2.4556474
20
4.7404067
70
8
0
VERTEX
8
3
10
2.4363708
20
4.7319693
70
8
0
VERTEX
8
3
10
2.4167739
20
4.7237860
70
8
0
VERTEX
8
3
10
2.3968950
20
4.7158470
70
8
0
VERTEX
8
3
10
2.3767416
20
4.7081427
70
8
0
VERTEX
8
3
10
2.3561993
20
4.7006632
70
8
0
VERTEX
8
3
10
2.3351233
20
4.6933987
70
8
0
VERTEX
8
3
10
2.3133687
20
4.6863395
70
8
0
VERTEX
8
3
10
2.2907907
20
4.6794759
70
8
0
VERTEX
8
3
10
2.2672443
20
4.6727980
70
8
0
VERTEX
8
3
10
2.2425847
20
4.6662960
70
8
0
VERTEX
8
3
10
2.2166670
20
4.6599602
70
8
0
VERTEX
8
3
10
2.1891481
20
4.6537890
70
8
0
VERTEX
8
3
10
2.1588920
20
4.6478132
70
8
0
VERTEX
8
3
10
2.1245642
20
4.6420721
70
8
0
VERTEX
8
3
10
2.0848305
20
4.6366047
70
8
0
VERTEX
8
3
10
2.0383566
20
4.6314500
70
8
0
VERTEX
8
3
10
1.9838081
20
4.6266472
70
8
0
VERTEX
8
3
10
1.9198507
20
4.6222354
70
8
0
VERTEX
8
3
10
1.8451500
20
4.6182537
70
8
0
SEQEND
8
3
0
POLYLINE
8
3
62
7
70
4
66
1
40
0.0000000
41
0.0000000
0
VERTEX
8
3
10
2.9461527
20
5.7829666
70
16
0
VERTEX
8
3
10
2.9415097
20
5.7199135
70
16
0
VERTEX
8
3
10
2.9352441
20
5.6355705
70
16
0
VERTEX
8
3
10
2.9227123
20
5.5512276
70
16
0
VERTEX
8
3
10
2.9039154
20
5.4588509
70
16
0
VERTEX
8
3
10
2.8819852
20
5.3745079
70
16
0
VERTEX
8
3
10
2.8443909
20
5.2781162
70
16
0
VERTEX
8
3
10
2.7973976
20
5.1897545
70
16
0
VERTEX
8
3
10
2.7504044
20
5.1134443
70
16
0
VERTEX
8
3
10
2.6846142
20
5.0291004
70
16
0
VERTEX
8
3
10
2.6250892
20
4.9608221
70
16
0
VERTEX
8
3
10
2.5436344
20
4.8885269
70
16
0
VERTEX
8
3
10
2.4371166
20
4.8282814
70
16
0
VERTEX
8
3
10
2.3305988
20
4.7841015
70
16
0
VERTEX
8
3
10
2.2084169
20
4.7519712
70
16
0
VERTEX
8
3
10
2.0893674
20
4.7318888
70
16
0
VERTEX
8
3
10
1.9703183
20
4.7198400
70
16
0
VERTEX
8
3
10
1.8512688
20
4.7158232
70
16
0
VERTEX
8
3
10
2.9461527
20
5.7829666
70
8
0
VERTEX
8
3
10
2.9444784
20
5.7602735
70
8
0
VERTEX
8
3
10
2.9429219
20
5.7393756
70
8
0
VERTEX
8
3
10
2.9414593
20
5.7201108
70
8
0
VERTEX
8
3
10
2.9400668
20
5.7023165
70
8
0
VERTEX
8
3
10
2.9387206
20
5.6858306
70
8
0
VERTEX
8
3
10
2.9373970
20
5.6704906
70
8
0
VERTEX
8
3
10
2.9360720
20
5.6561342
70
8
0
VERTEX
8
3
10
2.9347219
20
5.6425991
70
8
0
VERTEX
8
3
10
2.9333257
20
5.6297336
70
8
0
VERTEX
8
3
10
2.9318745
20
5.6174290
70
8
0
VERTEX
8
3
10
2.9303621
20
5.6055873
70
8
0
VERTEX
8
3
10
2.9287824
20
5.5941103
70
8
0
VERTEX
8
3
10
2.9271293
20
5.5828999
70
8
0
VERTEX
8
3
10
2.9253966
20
5.5718583
70
8
0
VERTEX
8
3
10
2.9235782
20
5.5608872
70
8
0
VERTEX
8
3
10
2.9216681
20
5.5498886
70
8
0
VERTEX
8
3
10
2.9196622
20
5.5387861
70
8
0
VERTEX
8
3
10
2.9175644
20
5.5275894
70
8
0
VERTEX
8
3
10
2.9153810
20
5.5163300
70
8
0
VERTEX
8
3
10
2.9131181
20
5.5050392
70
8
0
VERTEX
8
3
10
2.9107817
20
5.4937484
70
8
0
VERTEX
8
3
10
2.9083780
20
5.4824890
70
8
0
VERTEX
8
3
10
2.9059131
20
5.4712923
70
8
0
VERTEX
8
3
10
2.9033932
20
5.4601898
70
8
0
VERTEX
8
3
10
2.9008192
20
5.4492011
70
8
0
VERTEX
8
3
10
2.8981717
20
5.4382986
70
8
0
VERTEX
8
3
10
2.8954264
20
5.4274432
70
8
0
VERTEX
8
3
10
2.8925587
20
5.4165957
70
8
0
VERTEX
8
3
10
2.8895441
20
5.4057169
70
8
0
VERTEX
8
3
10
2.8863582
20
5.3947674
70
8
0
VERTEX
8
3
10
2.8829765
20
5.3837081
70
8
0
VERTEX
8
3
10
2.8793745
20
5.3724998
70
8
0
VERTEX
8
3
10
2.8755339
20
5.3611163
70
8
0
VERTEX
8
3
10
2.8714607
20
5.3495837
70
8
0
VERTEX
8
3
10
2.8671673
20
5.3379413
70
8
0
VERTEX
8
3
10
2.8626659
20
5.3262283
70
8
0
VERTEX
8
3
10
2.8579686
20
5.3144839
70
8
0
VERTEX
8
3
10
2.8530878
20
5.3027474
70
8
0
VERTEX
8
3
10
2.8480356
20
5.2910578
70
8
0
VERTEX
8
3
10
2.8428244
20
5.2794545
70
8
0
VERTEX
8
3
10
2.8374673
20
5.2679715
70
8
0
VERTEX
8
3
10
2.8319817
20
5.2566218
70
8
0
VERTEX
8
3
10
2.8263860
20
5.2454132
70
8
0
VERTEX
8
3
10
2.8206984
20
5.2343537
70
8
0
VERTEX
8
3
10
2.8149375
20
5.2234511
70
8
0
VERTEX
8
3
10
2.8091215
20
5.2127132
70
8
0
VERTEX
8
3
10
2.8032687
20
5.2021479
70
8
0
VERTEX
8
3
10
2.7973976
20
5.1917631
70
8
0
VERTEX
8
3
10
2.7915173
20
5.1815587
70
8
0
VERTEX
8
3
10
2.7856003
20
5.1715034
70
8
0
VERTEX
8
3
10
2.7796099
20
5.1615579
70
8
0
VERTEX
8
3
10
2.7735094
20
5.1516831
70
8
0
VERTEX
8
3
10
2.7672620
20
5.1418397
70
8
0
VERTEX
8
3
10
2.7608310
20
5.1319884
70
8
0
VERTEX
8
3
10
2.7541798
20
5.1220900
70
8
0
VERTEX
8
3
10
2.7472715
20
5.1121054
70
8
0
VERTEX
8
3
10
2.7400839
20
5.1020096
70
8
0
VERTEX
8
3
10
2.7326515
20
5.0918353
70
8
0
VERTEX
8
3
10
2.7250233
20
5.0816297
70
8
0
VERTEX
8
3
10
2.7172482
20
5.0714397
70
8
0
VERTEX
8
3
10
2.7093752
20
5.0613125
70
8
0
VERTEX
8
3
10
2.7014533
20
5.0512951
70
8
0
VERTEX
8
3
10
2.6935314
20
5.0414346
70
8
0
VERTEX
8
3
10
2.6856584
20
5.0317780
70
8
0
VERTEX
8
3
10
2.6778659
20
5.0223581
70
8
0
VERTEX
8
3
10
2.6701163
20
5.0131500
70
8
0
VERTEX
8
3
10
2.6623545
20
5.0041145
70
8
0
VERTEX
8
3
10
2.6545253
20
4.9952123
70
8
0
VERTEX
8
3
10
2.6465738
20
4.9864042
70
8
0
VERTEX
8
3
10
2.6384448
20
4.9776511
70
8
0
VERTEX
8
3
10
2.6300833
20
4.9689136
70
8
0
VERTEX
8
3
10
2.6214342
20
4.9601526
70
8
0
VERTEX
8
3
10
2.6124506
20
4.9513406
70
8
0
VERTEX
8
3
10
2.6031183
20
4.9424973
70
8
0
VERTEX
8
3
10
2.5934310
20
4.9336539
70
8
0
VERTEX
8
3
10
2.5833828
20
4.9248419
70
8
0
VERTEX
8
3
10
2.5729674
20
4.9160926
70
8
0
VERTEX
8
3
10
2.5621787
20
4.9074375
70
8
0
VERTEX
8
3
10
2.5510107
20
4.8989079
70
8
0
VERTEX
8
3
10
2.5394572
20
4.8905352
70
8
0
VERTEX
8
3
10
2.5275213
20
4.8823468
70
8
0
VERTEX
8
3
10
2.5152427
20
4.8743546
70
8
0
VERTEX
8
3
10
2.5026704
20
4.8665664
70
8
0
VERTEX
8
3
10
2.4898534
20
4.8589899
70
8
0
VERTEX
8
3
10
2.4768405
20
4.8516331
70
8
0
VERTEX
8
3
10
2.4636808
20
4.8445038
70
8
0
VERTEX
8
3
10
2.4504232
20
4.8376098
70
8
0
VERTEX
8
3
10
2.4371166
20
4.8309590
70
8
0
VERTEX
8
3
10
2.4237968
20
4.8245566
70
8
0
VERTEX
8
3
10
2.4104464
20
4.8183974
70
8
0
VERTEX
8
3
10
2.3970348
20
4.8124736
70
8
0
VERTEX
8
3
10
2.3835314
20
4.8067772
70
8
0
VERTEX
8
3
10
2.3699056
20
4.8013005
70
8
0
VERTEX
8
3
10
2.3561269
20
4.7960355
70
8
0
VERTEX
8
3
10
2.3421646
20
4.7909746
70
8
0
VERTEX
8
3
10
2.3279881
20
4.7861098
70
8
0
VERTEX
8
3
10
2.3135782
20
4.7814345
70
8
0
VERTEX
8
3
10
2.2989601
20
4.7769475
70
8
0
VERTEX
8
3
10
2.2841708
20
4.7726488
70
8
0
VERTEX
8
3
10
2.2692468
20
4.7685384
70
8
0
VERTEX
8
3
10
2.2542249
20
4.7646162
70
8
0
VERTEX
8
3
10
2.2391419
20
4.7608823
70
8
0
VERTEX
8
3
10
2.2240343
20
4.7573366
70
8
0
VERTEX
8
3
10
2.2089390
20
4.7539792
70
8
0
VERTEX
8
3
10
2.1938661
20
4.7508068
70
8
0
VERTEX
8
3
10
2.1787198
20
4.7478030
70
8
0
VERTEX
8
3
10
2.1633777
20
4.7449482
70
8
0
VERTEX
8
3
10
2.1477173
20
4.7422229
70
8
0
VERTEX
8
3
10
2.1316165
20
4.7396073
70
8
0
VERTEX
8
3
10
2.1149526
20
4.7370820
70
8
0
VERTEX
8
3
10
2.0976035
20
4.7346274
70
8
0
VERTEX
8
3
10
2.0794467
20
4.7322237
70
8
0
VERTEX
8
3
10
2.0602834
20
4.7298579
70
8
0
VERTEX
8
3
10
2.0396086
20
4.7275432
70
8
0
VERTEX
8
3
10
2.0168412
20
4.7252990
70
8
0
VERTEX
8
3
10
1.9913999
20
4.7231450
70
8
0
VERTEX
8
3
10
1.9627032
20
4.7211009
70
8
0
VERTEX
8
3
10
1.9301701
20
4.7191861
70
8
0
VERTEX
8
3
10
1.8932190
20
4.7174203
70
8
0
VERTEX
8
3
10
1.8512688
20
4.7158232
70
8
0
SEQEND
8
3
0
LINE
8
3
62
4
10
2.9791746
20
5.5522633
11
2.9341202
21
5.6359158
0
LINE
8
3
62
4
10
1.5184240
20
4.6508741
11
1.5642853
21
4.7388363
0
LINE
8
3
62
4
10
1.7959619
20
4.6207867
11
1.8411422
21
4.7054090
0
LINE
8
3
62
4
10
1.6094751
20
4.6364508
11
1.6566958
21
4.7268801
0
LINE
8
3
62
4
10
1.6996217
20
4.6275454
11
1.7478318
21
4.7197485
0
LINE
8
3
62
4
10
1.9926333
20
4.6275454
11
1.9444232
21
4.7197485
0
LINE
8
3
62
4
10
1.8962936
20
4.6207867
11
1.8511128
21
4.7054090
0
LINE
8
3
62
11
10
1.8298087
20
4.7165279
11
1.8298087
21
4.6188946
0
LINE
8
3
62
11
10
1.8624468
20
4.7165279
11
1.8624468
21
4.6188946
0
LINE
8
3
62
11
10
1.8339515
20
4.7165279
11
1.8339515
21
4.6188946
0
LINE
8
3
62
11
10
1.8422375
20
4.7156429
11
1.8422375
21
4.6180096
0
LINE
8
3
62
11
10
1.8380947
20
4.7156429
11
1.8380947
21
4.6180096
0
LINE
8
3
62
11
10
1.8583035
20
4.7165279
11
1.8583035
21
4.6188946
0
LINE
8
3
62
11
10
1.8500175
20
4.7156429
11
1.8500175
21
4.6180096
0
LINE
8
3
62
11
10
1.8541608
20
4.7156429
11
1.8541608
21
4.6180096
0
LINE
8
3
62
4
10
2.1738310
20
4.6508741
11
2.1279702
21
4.7388363
0
LINE
8
3
62
4
10
2.0827799
20
4.6364508
11
2.0355592
21
4.7268801
0
LINE
8
3
62
4
10
2.3491850
20
4.6985683
11
2.3076077
21
4.7795525
0
LINE
8
3
62
4
10
2.2631927
20
4.6723528
11
2.2183113
21
4.7555094
0
LINE
8
3
62
4
10
2.5084281
20
4.7664499
11
2.4652309
21
4.8448191
0
LINE
8
3
62
4
10
2.4326482
20
4.7308006
11
2.3902760
21
4.8091440
0
LINE
8
3
62
4
10
2.9572878
20
5.4058704
11
2.9107852
21
5.4936562
0
LINE
8
3
62
4
10
2.8305650
20
5.0931072
11
2.7884893
21
5.1753254
0
LINE
8
3
62
4
10
2.8801556
20
5.1856384
11
2.8369761
21
5.2656517
0
LINE
8
3
62
4
10
2.7177215
20
4.9309883
11
2.6716957
21
5.0143490
0
LINE
8
3
62
4
10
2.7782149
20
5.0086584
11
2.7339392
21
5.0918884
0
LINE
8
3
62
4
10
2.9231181
20
5.2833023
11
2.8781271
21
5.3677197
0
LINE
8
3
62
4
10
2.5846677
20
4.8120699
11
2.5415859
21
4.8919125
0
LINE
8
3
62
4
10
2.6527090
20
4.8655472
11
2.6095777
21
4.9482536
0
LINE
8
3
62
4
10
2.9925389
20
5.7176132
11
2.9261961
21
5.8366547
0
ARC
8
3
62
7
10
2.6009297
20
3.2563555
40
2.6012871
50
81.2389257
51
89.9669512
0
LINE
8
3
62
4
10
2.8478122
20
5.7977238
11
2.8202662
21
5.8483753
0
LINE
8
3
62
4
10
2.7459550
20
5.8068104
11
2.7211175
21
5.8542747
0
POLYLINE
8
3
62
7
70
0
66
1
40
0.0000000
41
0.0000000
0
VERTEX
8
3
10
2.6024299
20
5.8446693
0
VERTEX
8
3
10
2.5887899
20
5.8397827
0
VERTEX
8
3
10
2.6170740
20
5.8393841
0
VERTEX
8
3
10
2.6024299
20
5.8338757
0
SEQEND
8
3
0
LINE
8
3
62
7
10
2.6024299
20
5.8759899
11
2.6024299
21
5.8446693
0
LINE
8
3
62
7
10
2.6024299
20
5.8338757
11
2.6024299
21
5.7993336
0
LINE
8
3
62
4
10
2.6412425
20
5.8119164
11
2.6167970
21
5.8570080
0
ARC
8
3
62
7
10
2.6101613
20
3.8371003
40
1.9747059
50
80.2051356
51
90.2233975
0
LINE
8
3
62
7
10
2.9960866
20
5.7828274
11
2.9971433
21
5.8272896
0
LINE
8
10
62
3
10
5.1467757
20
6.8206224
11
5.1049953
21
6.6669226
0
INSERT
8
5
2
ERICSON1-G10
10
0.0000000
20
0.0000000
0
POLYLINE
8
4
62
11
70
1
66
1
40
0.0000000
41
0.0000000
0
VERTEX
8
4
10
5.0788350
20
5.5041399
0
VERTEX
8
4
10
5.0788341
20
5.4517603
0
VERTEX
8
4
10
5.0671611
20
5.4517603
0
VERTEX
8
4
10
5.0671611
20
5.5041380
0
SEQEND
8
4
0
INSERT
8
5
2
ERICSON1-G11
10
0.0000000
20
0.0000000
0
LINE
8
1
62
6
10
5.0399041
20
6.9556437
11
5.1413040
21
6.9556437
0
LINE
8
1
62
6
10
5.0035033
20
6.7801428
11
5.1049037
21
6.7801428
0
POLYLINE
8
3
62
3
70
4
66
1
40
0.0000000
41
0.0000000
0
VERTEX
8
3
10
7.7974868
20
4.7873878
70
16
0
VERTEX
8
3
10
7.8168344
20
4.6746454
70
16
0
VERTEX
8
3
10
7.8396988
20
4.5190611
70
16
0
VERTEX
8
3
10
7.9012585
20
4.4356327
70
16
0
VERTEX
8
3
10
7.9469886
20
4.4243584
70
16
0
VERTEX
8
3
10
7.9821649
20
4.4288683
70
16
0
VERTEX
8
3
10
7.7974868
20
4.7873878
70
8
0
VERTEX
8
3
10
7.8043955
20
4.7467283
70
8
0
VERTEX
8
3
10
7.8107081
20
4.7092286
70
8
0
VERTEX
8
3
10
7.8165706
20
4.6747721
70
8
0
VERTEX
8
3
10
7.8221291
20
4.6432420
70
8
0
VERTEX
8
3
10
7.8275295
20
4.6145218
70
8
0
VERTEX
8
3
10
7.8329179
20
4.5884945
70
8
0
VERTEX
8
3
10
7.8384403
20
4.5650437
70
8
0
VERTEX
8
3
10
7.8442427
20
4.5440524
70
8
0
VERTEX
8
3
10
7.8504401
20
4.5253964
70
8
0
VERTEX
8
3
10
7.8570240
20
4.5089204
70
8
0
VERTEX
8
3
10
7.8639548
20
4.4944615
70
8
0
VERTEX
8
3
10
7.8711932
20
4.4818566
70
8
0
VERTEX
8
3
10
7.8786995
20
4.4709428
70
8
0
VERTEX
8
3
10
7.8864342
20
4.4615573
70
8
0
VERTEX
8
3
10
7.8943579
20
4.4535369
70
8
0
VERTEX
8
3
10
7.9024311
20
4.4467189
70
8
0
VERTEX
8
3
10
7.9106424
20
4.4409654
70
8
0
VERTEX
8
3
10
7.9190943
20
4.4362403
70
8
0
VERTEX
8
3
10
7.9279172
20
4.4325326
70
8
0
VERTEX
8
3
10
7.9372415
20
4.4298311
70
8
0
VERTEX
8
3
10
7.9471980
20
4.4281250
70
8
0
VERTEX
8
3
10
7.9579170
20
4.4274031
70
8
0
VERTEX
8
3
10
7.9695291
20
4.4276546
70
8
0
VERTEX
8
3
10
7.9821649
20
4.4288683
70
8
0
SEQEND
8
3
0
POLYLINE
8
3
62
3
70
4
66
1
40
0.0000000
41
0.0000000
0
VERTEX
8
3
10
7.7992458
20
4.5528841
70
16
0
VERTEX
8
3
10
7.8291459
20
4.4807291
70
16
0
VERTEX
8
3
10
7.8801522
20
4.4288683
70
16
0
VERTEX
8
3
10
7.9364352
20
4.3972998
70
16
0
VERTEX
8
3
10
7.9804063
20
4.3995543
70
16
0
VERTEX
8
3
10
7.7992458
20
4.5528841
70
8
0
VERTEX
8
3
10
7.8102634
20
4.5279124
70
8
0
VERTEX
8
3
10
7.8209358
20
4.5067920
70
8
0
VERTEX
8
3
10
7.8313299
20
4.4890406
70
8
0
VERTEX
8
3
10
7.8415128
20
4.4741761
70
8
0
VERTEX
8
3
10
7.8515514
20
4.4617162
70
8
0
VERTEX
8
3
10
7.8615127
20
4.4511786
70
8
0
VERTEX
8
3
10
7.8714637
20
4.4420810
70
8
0
VERTEX
8
3
10
7.8814714
20
4.4339414
70
8
0
VERTEX
8
3
10
7.8916199
20
4.4263830
70
8
0
VERTEX
8
3
10
7.9020622
20
4.4194522
70
8
0
VERTEX
8
3
10
7.9129682
20
4.4133008
70
8
0
VERTEX
8
3
10
7.9245081
20
4.4080809
70
8
0
VERTEX
8
3
10
7.9368517
20
4.4039443
70
8
0
VERTEX
8
3
10
7.9501693
20
4.4010431
70
8
0
VERTEX
8
3
10
7.9646308
20
4.3995291
70
8
0
VERTEX
8
3
10
7.9804063
20
4.3995543
70
8
0
SEQEND
8
3
0
LINE
8
10
62
3
10
7.7970829
20
4.2630424
11
7.7970829
21
5.3452244
0
LINE
8
10
62
3
10
7.7690830
20
4.5053453
11
7.7970829
21
4.4842367
0
LINE
8
10
62
3
10
7.7690830
20
4.8812256
11
7.7690830
21
4.2692785
0
LINE
8
10
62
3
10
8.0122833
20
4.8812256
11
8.0122833
21
4.2200918
0
LINE
8
10
62
3
10
7.9842830
20
4.5053453
11
8.0122833
21
4.4842367
0
LINE
8
10
62
3
10
7.9842830
20
4.2252264
11
7.9842830
21
5.3452244
0
INSERT
8
8
2
ERICSON1-G12
10
0.0000000
20
0.0000000
0
LINE
8
10
62
7
10
6.9902959
20
0.1749992
11
9.9652967
21
0.1749992
0
LINE
8
10
62
7
10
9.9652967
20
0.5249996
11
6.9902959
21
0.5249996
0
LINE
8
10
62
7
10
6.9902959
20
0.9496180
11
9.9652967
21
0.9496180
0
TEXT
8
10
62
7
40
0.1200000
1
DRAWN ON AUTOSKETCH
7
STANDARD
72
0
10
7.3075542
20
1.0976661
0
TEXT
8
10
62
7
40
0.1200000
1
0788A-001
7
STANDARD
72
0
10
8.5891581
20
0.2594414
0
TEXT
8
10
62
7
40
0.1200000
1
ERICSON 35
7
STANDARD
72
0
10
7.8921146
20
0.6995816
0
TEXT
8
10
62
7
40
0.0700000
1
3/16/89
7
STANDARD
72
0
10
8.5884047
20
0.0381290
0
POLYLINE
8
3
62
7
70
0
66
1
40
0.0000000
41
0.0000000
0
VERTEX
8
3
10
6.0073814
20
1.9460661
0
VERTEX
8
3
10
6.3389521
20
2.2107346
0
VERTEX
8
3
10
6.5272517
20
2.4009621
0
SEQEND
8
3
0
TEXT
8
10
62
7
40
0.0500000
1
FSCM NO.
7
STANDARD
72
0
10
7.3752961
20
0.4410000
0
TEXT
8
10
62
7
40
0.0700000
1
NONE
7
STANDARD
72
0
10
7.3784976
20
0.0344858
0
LINE
8
10
62
7
10
7.3402953
20
0.1749992
11
7.3402953
21
0.5249996
0
TEXT
8
10
62
7
40
0.0500000
1
SCALE
7
STANDARD
72
0
10
7.0252957
20
0.0909996
0
TEXT
8
10
62
7
40
0.0500000
1
SIZE
7
STANDARD
72
0
10
7.0252957
20
0.4410000
0
TEXT
8
10
62
7
40
0.0500000
1
TITLE
7
STANDARD
72
0
10
7.0252957
20
0.8455421
0
TEXT
8
10
62
7
40
0.1200000
1
A
7
STANDARD
72
0
10
7.1176667
20
0.2611195
0
TEXT
8
10
62
7
40
0.0500000
1
DATE
7
STANDARD
72
0
10
6.5842280
20
1.0674992
0
TEXT
8
10
62
7
40
0.0500000
1
3/8/89
7
STANDARD
72
0
10
6.5769396
20
0.9843301
0
TEXT
8
10
62
7
40
0.0500000
1
3/8/89
7
STANDARD
72
0
10
6.5841050
20
0.7730425
0
TEXT
8
10
62
7
40
0.0500000
1
3/1/89
7
STANDARD
72
0
10
6.5769391
20
0.5341956
0
TEXT
8
10
62
7
40
0.0500000
1
3/4/89
7
STANDARD
72
0
10
6.5841050
20
0.2953487
0
LINE
8
10
62
7
10
8.2152967
20
0.1749992
11
8.2152967
21
0.5249996
0
TEXT
8
10
62
7
40
0.0500000
1
RELEASE DATE
7
STANDARD
72
0
10
7.9002957
20
0.0909996
0
TEXT
8
10
62
7
40
0.0500000
1
DWG NO.
7
STANDARD
72
0
10
8.2502966
20
0.4410000
0
TEXT
8
10
62
7
40
0.1200000
1
NONE
7
STANDARD
72
0
10
7.5891929
20
0.2601891
0
INSERT
8
8
2
ERICSON1-G13
10
0.0000000
20
0.0000000
0
LINE
8
3
62
7
10
6.3820481
20
2.4103272
11
6.3955207
21
2.6032422
0
LINE
8
4
62
3
6
DISCONTINUE
10
6.0745311
20
2.5758297
11
6.1303382
21
2.3871033
0
LINE
8
3
62
7
10
6.3721800
20
2.4093564
11
6.3857183
21
2.6024163
0
LINE
8
3
62
7
10
6.3062520
20
2.3359616
11
6.3659272
21
2.3842709
0
LINE
8
3
62
7
10
6.5272517
20
2.4009621
11
6.6572499
21
2.6284630
0
LINE
8
3
62
7
10
6.5152297
20
2.3996480
11
6.6453624
21
2.6272824
0
LINE
8
3
62
7
10
7.7128429
20
4.2800598
11
7.8635182
21
4.2496214
0
POLYLINE
8
3
62
3
70
4
66
1
40
0.0000000
41
0.0000000
0
VERTEX
8
3
10
7.7974868
20
4.3815165
70
16
0
VERTEX
8
3
10
7.8484931
20
4.3409290
70
16
0
VERTEX
8
3
10
7.8994994
20
4.3251448
70
16
0
VERTEX
8
3
10
7.9593000
20
4.3409290
70
16
0
VERTEX
8
3
10
7.9804063
20
4.3702421
70
16
0
VERTEX
8
3
10
7.7974868
20
4.3815165
70
8
0
VERTEX
8
3
10
7.8154728
20
4.3677803
70
8
0
VERTEX
8
3
10
7.8313925
20
4.3568187
70
8
0
VERTEX
8
3
10
7.8455706
20
4.3483410
70
8
0
VERTEX
8
3
10
7.8583316
20
4.3420564
70
8
0
VERTEX
8
3
10
7.8700002
20
4.3376744
70
8
0
VERTEX
8
3
10
7.8809011
20
4.3349042
70
8
0
VERTEX
8
3
10
7.8913588
20
4.3334553
70
8
0
VERTEX
8
3
10
7.9016980
20
4.3330369
70
8
0
VERTEX
8
3
10
7.9121677
20
4.3334333
70
8
0
VERTEX
8
3
10
7.9227148
20
4.3347281
70
8
0
VERTEX
8
3
10
7.9332103
20
4.3370798
70
8
0
VERTEX
8
3
10
7.9435254
20
4.3406471
70
8
0
VERTEX
8
3
10
7.9535315
20
4.3455884
70
8
0
VERTEX
8
3
10
7.9630995
20
4.3520623
70
8
0
VERTEX
8
3
10
7.9721007
20
4.3602274
70
8
0
VERTEX
8
3
10
7.9804063
20
4.3702421
70
8
0
SEQEND
8
3
0
POLYLINE
8
3
62
3
70
4
66
1
40
0.0000000
41
0.0000000
0
VERTEX
8
3
10
7.8520107
20
4.2552452
70
16
0
VERTEX
8
3
10
7.8977408
20
4.2665195
70
16
0
VERTEX
8
3
10
7.9487472
20
4.3048515
70
16
0
VERTEX
8
3
10
7.9821649
20
4.3454390
70
16
0
VERTEX
8
3
10
7.8520107
20
4.2552452
70
8
0
VERTEX
8
3
10
7.8693622
20
4.2606930
70
8
0
VERTEX
8
3
10
7.8869403
20
4.2683867
70
8
0
VERTEX
8
3
10
7.9044772
20
4.2780359
70
8
0
VERTEX
8
3
10
7.9217049
20
4.2893497
70
8
0
VERTEX
8
3
10
7.9383555
20
4.3020375
70
8
0
VERTEX
8
3
10
7.9541610
20
4.3158088
70
8
0
VERTEX
8
3
10
7.9688534
20
4.3303728
70
8
0
VERTEX
8
3
10
7.9821649
20
4.3454390
70
8
0
SEQEND
8
3
0
LINE
8
10
62
3
10
7.7690830
20
4.4764318
11
7.7970829
21
4.4553223
0
LINE
8
10
62
3
10
7.7690830
20
4.4475174
11
7.7970829
21
4.4264088
0
LINE
8
10
62
3
10
7.7690830
20
4.4186039
11
7.7970829
21
4.3974943
0
LINE
8
10
62
3
10
7.7690830
20
4.3896894
11
7.7970829
21
4.3685808
0
LINE
8
10
62
3
10
7.7690830
20
4.3607759
11
7.7970829
21
4.3396673
0
LINE
8
10
62
3
10
7.7690830
20
4.3318624
11
7.7970829
21
4.3107529
0
LINE
8
10
62
3
10
7.7690830
20
4.3029480
11
7.7970829
21
4.2818394
0
LINE
8
10
62
3
10
7.9842830
20
4.2451200
11
8.0122833
21
4.2240114
0
LINE
8
10
62
3
10
7.9842830
20
4.2740345
11
8.0122833
21
4.2529249
0
LINE
8
10
62
3
10
7.9842830
20
4.3029480
11
8.0122833
21
4.2818394
0
LINE
8
10
62
3
10
7.9842830
20
4.3318624
11
8.0122833
21
4.3107529
0
LINE
8
10
62
3
10
7.9842830
20
4.3607759
11
8.0122833
21
4.3396673
0
LINE
8
10
62
3
10
7.9842830
20
4.3896894
11
8.0122833
21
4.3685808
0
LINE
8
10
62
3
10
7.9842830
20
4.4186039
11
8.0122833
21
4.3974943
0
LINE
8
10
62
3
10
7.9842830
20
4.4475174
11
8.0122833
21
4.4264088
0
LINE
8
10
62
3
10
7.9842830
20
4.4764318
11
8.0122833
21
4.4553223
0
POLYLINE
8
3
62
7
70
0
66
1
40
0.0000000
41
0.0000000
0
VERTEX
8
3
10
7.9205990
20
4.2380905
0
VERTEX
8
3
10
7.9142203
20
4.2827015
0
VERTEX
8
3
10
7.8847227
20
4.1548452
0
VERTEX
8
3
10
7.8635182
20
4.2496214
0
SEQEND
8
3
0
LINE
8
3
62
7
10
7.9205990
20
4.2380905
11
8.0685225
21
4.2082090
0
TEXT
8
10
62
7
40
0.0500000
1
SHEET
7
STANDARD
72
0
10
9.1252966
20
0.0909996
0
TEXT
8
10
62
7
40
0.0700000
1
1 OF 2
7
STANDARD
72
0
10
9.4486551
20
0.0467701
0
ARC
8
3
62
7
10
7.8872781
20
0.3897898
40
5.3505564
50
78.8269742
51
101.0720124
0
ARC
8
3
62
7
10
7.8893824
20
0.3075773
40
5.1314554
50
79.0128987
51
100.9575179
0
ARC
8
3
62
6
10
7.8893824
20
0.2652189
40
5.1314554
50
92.6526567
51
98.2919068
0
ARC
8
3
62
6
10
7.8893824
20
0.2792189
40
5.1314554
50
92.6526158
51
98.3153890
0
ARC
8
3
62
6
10
7.8893824
20
0.2932197
40
5.1314554
50
92.6526294
51
98.3388712
0
LINE
8
3
62
4
10
7.3025012
20
5.7072010
11
7.5161114
21
5.4263840
0
LINE
8
3
62
4
10
7.4622426
20
5.7221966
11
7.6801138
21
5.4353886
0
LINE
8
3
62
4
10
7.4077644
20
5.7170715
11
7.6232986
21
5.4325523
0
LINE
8
3
62
4
10
7.3556142
20
5.7121372
11
7.5692239
21
5.4300861
0
INSERT
8
8
2
ERICSON1-G14
10
0.0000000
20
0.0000000
0
LINE
8
3
62
4
10
7.1508632
20
5.6862259
11
7.3596606
21
5.4115772
0
LINE
8
3
62
4
10
7.2001262
20
5.6948624
11
7.4118109
21
5.4152794
0
LINE
8
3
62
4
10
6.9996519
20
5.6647015
11
7.2047396
21
5.3935776
0
LINE
8
3
62
4
10
7.0498767
20
5.6721058
11
7.2549648
21
5.4009800
0
LINE
8
3
62
4
10
7.0996752
20
5.6800575
11
7.3065481
21
5.4054089
0
LINE
8
3
62
7
10
6.8757334
20
5.5498428
11
6.8393178
21
5.7438259
0
LINE
8
3
62
4
10
6.9020886
20
5.6474285
11
7.1042891
21
5.3787708
0
LINE
8
3
62
4
10
6.9494267
20
5.6560650
11
7.1545143
21
5.3861732
0
LINE
8
3
62
4
10
7.2513137
20
5.7010326
11
7.4629984
21
5.4214478
0
POLYLINE
8
3
62
7
70
0
66
1
40
0.0000000
41
0.0000000
0
VERTEX
8
3
10
6.8757334
20
5.5498428
0
VERTEX
8
3
10
6.9522991
20
5.5497684
0
VERTEX
8
3
10
6.7733493
20
5.5053654
0
VERTEX
8
3
10
6.8939652
20
5.4527264
0
SEQEND
8
3
0
LINE
8
3
62
4
10
6.8316226
20
5.5179844
11
6.8730860
21
5.4627323
0
LINE
8
3
62
4
10
6.8996263
20
5.4273663
11
6.9555387
21
5.3528595
0
LINE
8
3
62
4
10
6.8779979
20
5.5303211
11
7.0048018
21
5.3627300
0
LINE
8
3
62
4
10
6.8645234
20
5.6193886
11
7.0550265
21
5.3713684
0
LINE
8
3
62
7
10
6.9424639
20
5.1943798
11
6.8939652
21
5.4527264
0
ARC
8
3
62
6
10
7.1430469
20
5.3844395
40
0.0141331
50
188.3098864
51
278.6560907
0
ARC
8
3
62
6
10
7.1430469
20
5.3844395
40
0.0280309
50
188.4817203
51
278.6472934
0
ARC
8
3
62
6
10
7.1430469
20
5.3844395
40
0.0418998
50
188.5681631
51
278.6445067
0
LINE
8
3
62
4
10
8.0676556
20
5.7345352
11
8.3058853
21
5.4228611
0
LINE
8
3
62
4
10
8.2423925
20
5.7283669
11
8.4883213
21
5.4031200
0
LINE
8
3
62
4
10
8.1835051
20
5.7308331
11
8.4275093
21
5.4117565
0
LINE
8
3
62
4
10
8.1265430
20
5.7333012
11
8.3657351
21
5.4179249
0
LINE
8
3
62
4
10
8.0106936
20
5.7370033
11
8.2469978
21
5.4277973
0
LINE
8
3
62
4
10
7.9527683
20
5.7394695
11
8.1890736
21
5.4314976
0
LINE
8
3
62
4
10
7.8958058
20
5.7407055
11
8.1292238
21
5.4339657
0
LINE
8
3
62
4
10
7.8407683
20
5.7382374
11
8.0712986
21
5.4376678
0
LINE
8
3
62
4
10
7.7838058
20
5.7382374
11
8.0143366
21
5.4389019
0
LINE
8
3
62
4
10
7.7326183
20
5.7345352
11
7.9572263
21
5.4378567
0
LINE
8
3
62
4
10
7.6756558
20
5.7345352
11
7.9002638
21
5.4415588
0
LINE
8
3
62
4
10
7.6225433
20
5.7308331
11
7.8452263
21
5.4390907
0
LINE
8
3
62
4
10
7.5694304
20
5.7295990
11
7.7882638
21
5.4403248
0
LINE
8
3
62
4
10
7.5143929
20
5.7271328
11
7.7351513
21
5.4378567
0
LINE
8
3
62
7
10
8.9023972
20
5.5355244
11
8.9487276
21
5.7823238
0
LINE
8
3
62
4
10
8.8576784
20
5.6506138
11
8.9107695
21
5.5794621
0
LINE
8
3
62
4
10
8.7930164
20
5.6629524
11
8.9121284
21
5.5039883
0
LINE
8
3
62
4
10
8.7312412
20
5.6728230
11
8.8674059
21
5.4946442
0
LINE
8
3
62
4
10
8.6665792
20
5.6814594
11
8.8179111
21
5.4852238
0
LINE
8
3
62
4
10
8.6038427
20
5.6913300
11
8.8675146
21
5.3489780
0
LINE
8
3
62
4
10
8.5420675
20
5.6987343
11
8.8010597
21
5.3579750
0
LINE
8
3
62
4
10
8.4806967
20
5.7056179
11
8.7370815
21
5.3694363
0
LINE
8
3
62
4
10
8.4189224
20
5.7117901
11
8.6733818
21
5.3793087
0
LINE
8
3
62
4
10
8.3590727
20
5.7179585
11
8.6096821
21
5.3891792
0
LINE
8
3
62
4
10
8.3001852
20
5.7216606
11
8.5469456
21
5.3978157
0
ARC
8
3
62
6
10
7.8919835
20
0.2652189
40
5.1314554
50
81.7080914
51
87.3473414
0
ARC
8
3
62
6
10
7.8919835
20
0.2792189
40
5.1314554
50
81.6846092
51
87.3473824
0
ARC
8
3
62
6
10
7.8919835
20
0.2932197
40
5.1314554
50
81.6611270
51
87.3473688
0
LINE
8
3
62
6
10
7.7830830
20
4.8812256
11
7.7830830
21
5.3014088
0
LINE
8
3
62
6
10
7.7690830
20
4.8812256
11
7.7690830
21
5.3014088
0
LINE
8
3
62
6
10
7.7550826
20
4.8812256
11
7.7550826
21
5.3014088
0
LINE
8
3
62
6
10
7.7410827
20
4.8812256
11
7.7410827
21
5.3014088
0
POLYLINE
8
3
62
3
70
4
66
1
40
0.0000000
41
0.0000000
0
VERTEX
8
3
10
7.7974868
20
5.3330593
70
16
0
VERTEX
8
3
10
7.8625641
20
5.2924709
70
16
0
VERTEX
8
3
10
7.8942232
20
5.2225723
70
16
0
VERTEX
8
3
10
7.9082937
20
5.1368885
70
16
0
VERTEX
8
3
10
7.9487472
20
5.0241451
70
16
0
VERTEX
8
3
10
7.9804063
20
4.9993420
70
16
0
VERTEX
8
3
10
7.7974868
20
5.3330593
70
8
0
VERTEX
8
3
10
7.8196676
20
5.3180982
70
8
0
VERTEX
8
3
10
7.8377433
20
5.3036371
70
8
0
VERTEX
8
3
10
7.8522257
20
5.2896474
70
8
0
VERTEX
8
3
10
7.8636267
20
5.2761004
70
8
0
VERTEX
8
3
10
7.8724581
20
5.2629675
70
8
0
VERTEX
8
3
10
7.8792318
20
5.2502199
70
8
0
VERTEX
8
3
10
7.8844597
20
5.2378291
70
8
0
VERTEX
8
3
10
7.8886535
20
5.2257663
70
8
0
VERTEX
8
3
10
7.8922659
20
5.2139744
70
8
0
VERTEX
8
3
10
7.8955125
20
5.2022816
70
8
0
VERTEX
8
3
10
7.8985495
20
5.1904874
70
8
0
VERTEX
8
3
10
7.9015333
20
5.1783915
70
8
0
VERTEX
8
3
10
7.9046201
20
5.1657935
70
8
0
VERTEX
8
3
10
7.9079663
20
5.1524931
70
8
0
VERTEX
8
3
10
7.9117282
20
5.1382898
70
8
0
VERTEX
8
3
10
7.9160620
20
5.1229833
70
8
0
VERTEX
8
3
10
7.9211052
20
5.1064954
70
8
0
VERTEX
8
3
10
7.9269196
20
5.0892367
70
8
0
VERTEX
8
3
10
7.9335482
20
5.0717403
70
8
0
VERTEX
8
3
10
7.9410339
20
5.0545389
70
8
0
VERTEX
8
3
10
7.9494196
20
5.0381655
70
8
0
VERTEX
8
3
10
7.9587483
20
5.0231529
70
8
0
VERTEX
8
3
10
7.9690628
20
5.0100341
70
8
0
VERTEX
8
3
10
7.9804063
20
4.9993420
70
8
0
SEQEND
8
3
0
POLYLINE
8
3
62
3
70
4
66
1
40
0.0000000
41
0.0000000
0
VERTEX
8
3
10
7.7974868
20
5.3060017
70
16
0
VERTEX
8
3
10
7.8396988
20
5.2789440
70
16
0
VERTEX
8
3
10
7.8695993
20
5.1549263
70
16
0
VERTEX
8
3
10
7.8766346
20
5.0421848
70
16
0
VERTEX
8
3
10
7.9030170
20
4.8753262
70
16
0
VERTEX
8
3
10
7.9522648
20
4.7783680
70
16
0
VERTEX
8
3
10
7.9821649
20
4.7580738
70
16
0
VERTEX
8
3
10
7.7974868
20
5.3060017
70
8
0
VERTEX
8
3
10
7.8120793
20
5.2943088
70
8
0
VERTEX
8
3
10
7.8243617
20
5.2798920
70
8
0
VERTEX
8
3
10
7.8345795
20
5.2633040
70
8
0
VERTEX
8
3
10
7.8429784
20
5.2450975
70
8
0
VERTEX
8
3
10
7.8498039
20
5.2258251
70
8
0
VERTEX
8
3
10
7.8553018
20
5.2060397
70
8
0
VERTEX
8
3
10
7.8597175
20
5.1862939
70
8
0
VERTEX
8
3
10
7.8632967
20
5.1671405
70
8
0
VERTEX
8
3
10
7.8662628
20
5.1489985
70
8
0
VERTEX
8
3
10
7.8687496
20
5.1317529
70
8
0
VERTEX
8
3
10
7.8708689
20
5.1151546
70
8
0
VERTEX
8
3
10
7.8727322
20
5.0989549
70
8
0
VERTEX
8
3
10
7.8744513
20
5.0829050
70
8
0
VERTEX
8
3
10
7.8761377
20
5.0667559
70
8
0
VERTEX
8
3
10
7.8779031
20
5.0502590
70
8
0
VERTEX
8
3
10
7.8798591
20
5.0331653
70
8
0
VERTEX
8
3
10
7.8821080
20
5.0152921
70
8
0
VERTEX
8
3
10
7.8847142
20
4.9967208
70
8
0
VERTEX
8
3
10
7.8877326
20
4.9775991
70
8
0
VERTEX
8
3
10
7.8912182
20
4.9580743
70
8
0
VERTEX
8
3
10
7.8952260
20
4.9382942
70
8
0
VERTEX
8
3
10
7.8998109
20
4.9184061
70
8
0
VERTEX
8
3
10
7.9050279
20
4.8985577
70
8
0
VERTEX
8
3
10
7.9109319
20
4.8788964
70
8
0
VERTEX
8
3
10
7.9175636
20
4.8595933
70
8
0
VERTEX
8
3
10
7.9249065
20
4.8409134
70
8
0
VERTEX
8
3
10
7.9329295
20
4.8231451
70
8
0
VERTEX
8
3
10
7.9416017
20
4.8065769
70
8
0
VERTEX
8
3
10
7.9508923
20
4.7914972
70
8
0
VERTEX
8
3
10
7.9607703
20
4.7781945
70
8
0
VERTEX
8
3
10
7.9712048
20
4.7669572
70
8
0
VERTEX
8
3
10
7.9821649
20
4.7580738
70
8
0
SEQEND
8
3
0
POLYLINE
8
3
62
3
70
4
66
1
40
0.0000000
41
0.0000000
0
VERTEX
8
3
10
7.7974868
20
5.1864948
70
16
0
VERTEX
8
3
10
7.8238697
20
5.1662006
70
16
0
VERTEX
8
3
10
7.8520107
20
5.1053200
70
16
0
VERTEX
8
3
10
7.8713579
20
4.9565010
70
16
0
VERTEX
8
3
10
7.8766346
20
4.7648392
70
16
0
VERTEX
8
3
10
7.9118114
20
4.7017040
70
16
0
VERTEX
8
3
10
7.9804063
20
4.6633711
70
16
0
VERTEX
8
3
10
7.7974868
20
5.1864948
70
8
0
VERTEX
8
3
10
7.8068198
20
5.1784100
70
8
0
VERTEX
8
3
10
7.8150982
20
5.1693806
70
8
0
VERTEX
8
3
10
7.8224216
20
5.1594132
70
8
0
VERTEX
8
3
10
7.8288896
20
5.1485143
70
8
0
VERTEX
8
3
10
7.8346018
20
5.1366907
70
8
0
VERTEX
8
3
10
7.8396578
20
5.1239489
70
8
0
VERTEX
8
3
10
7.8441574
20
5.1102954
70
8
0
VERTEX
8
3
10
7.8482000
20
5.0957370
70
8
0
VERTEX
8
3
10
7.8518717
20
5.0802838
70
8
0
VERTEX
8
3
10
7.8552032
20
5.0639608
70
8
0
VERTEX
8
3
10
7.8582119
20
5.0467967
70
8
0
VERTEX
8
3
10
7.8609148
20
5.0288201
70
8
0
VERTEX
8
3
10
7.8633292
20
5.0100595
70
8
0
VERTEX
8
3
10
7.8654722
20
4.9905436
70
8
0
VERTEX
8
3
10
7.8673611
20
4.9703011
70
8
0
VERTEX
8
3
10
7.8690128
20
4.9493605
70
8
0
VERTEX
8
3
10
7.8704619
20
4.9277913
70
8
0
VERTEX
8
3
10
7.8718114
20
4.9058257
70
8
0
VERTEX
8
3
10
7.8731815
20
4.8837367
70
8
0
VERTEX
8
3
10
7.8746925
20
4.8617975
70
8
0
VERTEX
8
3
10
7.8764645
20
4.8402811
70
8
0
VERTEX
8
3
10
7.8786178
20
4.8194605
70
8
0
VERTEX
8
3
10
7.8812727
20
4.7996088
70
8
0
VERTEX
8
3
10
7.8845493
20
4.7809990
70
8
0
VERTEX
8
3
10
7.8886321
20
4.7638140
70
8
0
VERTEX
8
3
10
7.8939619
20
4.7478752
70
8
0
VERTEX
8
3
10
7.9010436
20
4.7329142
70
8
0
VERTEX
8
3
10
7.9103823
20
4.7186621
70
8
0
VERTEX
8
3
10
7.9224830
20
4.7048505
70
8
0
VERTEX
8
3
10
7.9378505
20
4.6912105
70
8
0
VERTEX
8
3
10
7.9569900
20
4.6774736
70
8
0
VERTEX
8
3
10
7.9804063
20
4.6633711
70
8
0
SEQEND
8
3
0
POLYLINE
8
3
62
3
70
4
66
1
40
0.0000000
41
0.0000000
0
VERTEX
8
3
10
7.8010044
20
5.1143398
70
16
0
VERTEX
8
3
10
7.8361816
20
5.0399303
70
16
0
VERTEX
8
3
10
7.8467345
20
4.9790497
70
16
0
VERTEX
8
3
10
7.8484931
20
4.8617973
70
16
0
VERTEX
8
3
10
7.8414578
20
4.7219973
70
16
0
VERTEX
8
3
10
7.8695993
20
4.6475878
70
16
0
VERTEX
8
3
10
7.9311585
20
4.6024904
70
16
0
VERTEX
8
3
10
7.9821649
20
4.5821972
70
16
0
VERTEX
8
3
10
7.8010044
20
5.1143398
70
8
0
VERTEX
8
3
10
7.8128481
20
5.0884030
70
8
0
VERTEX
8
3
10
7.8222115
20
5.0660224
70
8
0
VERTEX
8
3
10
7.8294175
20
5.0466320
70
8
0
VERTEX
8
3
10
7.8347891
20
5.0296661
70
8
0
VERTEX
8
3
10
7.8386492
20
5.0145586
70
8
0
VERTEX
8
3
10
7.8413206
20
5.0007436
70
8
0
VERTEX
8
3
10
7.8431264
20
4.9876554
70
8
0
VERTEX
8
3
10
7.8443894
20
4.9747278
70
8
0
VERTEX
8
3
10
7.8453804
20
4.9614905
70
8
0
VERTEX
8
3
10
7.8461619
20
4.9478546
70
8
0
VERTEX
8
3
10
7.8467442
20
4.9338267
70
8
0
VERTEX
8
3
10
7.8471375
20
4.9194135
70
8
0
VERTEX
8
3
10
7.8473521
20
4.9046216
70
8
0
VERTEX
8
3
10
7.8473985
20
4.8894575
70
8
0
VERTEX
8
3
10
7.8472868
20
4.8739279
70
8
0
VERTEX
8
3
10
7.8470275
20
4.8580394
70
8
0
VERTEX
8
3
10
7.8466433
20
4.8418261
70
8
0
VERTEX
8
3
10
7.8462076
20
4.8254322
70
8
0
VERTEX
8
3
10
7.8458062
20
4.8090296
70
8
0
VERTEX
8
3
10
7.8455251
20
4.7927899
70
8
0
VERTEX
8
3
10
7.8454501
20
4.7768849
70
8
0
VERTEX
8
3
10
7.8456671
20
4.7614863
70
8
0
VERTEX
8
3
10
7.8462620
20
4.7467660
70
8
0
VERTEX
8
3
10
7.8473206
20
4.7328957
70
8
0
VERTEX
8
3
10
7.8489240
20
4.7199994
70
8
0
VERTEX
8
3
10
7.8511338
20
4.7080103
70
8
0
VERTEX
8
3
10
7.8540065
20
4.6968139
70
8
0
VERTEX
8
3
10
7.8575989
20
4.6862957
70
8
0
VERTEX
8
3
10
7.8619676
20
4.6763413
70
8
0
VERTEX
8
3
10
7.8671694
20
4.6668360
70
8
0
VERTEX
8
3
10
7.8732610
20
4.6576654
70
8
0
VERTEX
8
3
10
7.8802989
20
4.6487150
70
8
0
VERTEX
8
3
10
7.8883491
20
4.6398916
70
8
0
VERTEX
8
3
10
7.8975140
20
4.6311871
70
8
0
VERTEX
8
3
10
7.9079052
20
4.6226147
70
8
0
VERTEX
8
3
10
7.9196345
20
4.6141876
70
8
0
VERTEX
8
3
10
7.9328135
20
4.6059191
70
8
0
VERTEX
8
3
10
7.9475538
20
4.5978224
70
8
0
VERTEX
8
3
10
7.9639670
20
4.5899107
70
8
0
VERTEX
8
3
10
7.9821649
20
4.5821972
70
8
0
SEQEND
8
3
0
ARC
8
3
62
6
10
7.7690830
20
4.8812256
40
0.0280003
50
180.0000050
51
270.0000007
0
ARC
8
3
62
6
10
7.7690830
20
4.8812256
40
0.0140001
50
180.0000050
51
270.0000007
0
POLYLINE
8
3
62
3
70
4
66
1
40
0.0000000
41
0.0000000
0
VERTEX
8
3
10
7.7974868
20
4.9046383
70
16
0
VERTEX
8
3
10
7.8221107
20
4.8663063
70
16
0
VERTEX
8
3
10
7.8203516
20
4.7918968
70
16
0
VERTEX
8
3
10
7.8379402
20
4.6272945
70
16
0
VERTEX
8
3
10
7.9188471
20
4.5325909
70
16
0
VERTEX
8
3
10
7.9786477
20
4.5190611
70
16
0
VERTEX
8
3
10
7.7974868
20
4.9046383
70
8
0
VERTEX
8
3
10
7.8055817
20
4.8902972
70
8
0
VERTEX
8
3
10
7.8116240
20
4.8759451
70
8
0
VERTEX
8
3
10
7.8159521
20
4.8614652
70
8
0
VERTEX
8
3
10
7.8189044
20
4.8467409
70
8
0
VERTEX
8
3
10
7.8208192
20
4.8316555
70
8
0
VERTEX
8
3
10
7.8220350
20
4.8160923
70
8
0
VERTEX
8
3
10
7.8228901
20
4.7999345
70
8
0
VERTEX
8
3
10
7.8237228
20
4.7830655
70
8
0
VERTEX
8
3
10
7.8248424
20
4.7654126
70
8
0
VERTEX
8
3
10
7.8264412
20
4.7470792
70
8
0
VERTEX
8
3
10
7.8286824
20
4.7282130
70
8
0
VERTEX
8
3
10
7.8317292
20
4.7089615
70
8
0
VERTEX
8
3
10
7.8357447
20
4.6894721
70
8
0
VERTEX
8
3
10
7.8408922
20
4.6698924
70
8
0
VERTEX
8
3
10
7.8473347
20
4.6503700
70
8
0
VERTEX
8
3
10
7.8552355
20
4.6310523
70
8
0
VERTEX
8
3
10
7.8647345
20
4.6121211
70
8
0
VERTEX
8
3
10
7.8758790
20
4.5938945
70
8
0
VERTEX
8
3
10
7.8886931
20
4.5767247
70
8
0
VERTEX
8
3
10
7.9032007
20
4.5609643
70
8
0
VERTEX
8
3
10
7.9194259
20
4.5469653
70
8
0
VERTEX
8
3
10
7.9373928
20
4.5350803
70
8
0
VERTEX
8
3
10
7.9571254
20
4.5256614
70
8
0
VERTEX
8
3
10
7.9786477
20
4.5190611
70
8
0
SEQEND
8
3
0
ARC
8
3
62
6
10
7.6511025
20
5.3015423
40
0.1319806
50
359.9412157
51
89.6547979
0
ARC
8
3
62
6
10
7.6514297
20
5.3014889
40
0.1176533
50
359.9609960
51
89.7720586
0
ARC
8
3
62
6
10
7.6514111
20
5.3014908
40
0.1036717
50
359.9540292
51
89.7310911
0
ARC
8
3
62
6
10
7.6514721
20
5.3014812
40
0.0896107
50
359.9534008
51
89.7277990
0
ARC
8
3
62
6
10
8.1302633
20
5.3015423
40
0.1319806
50
90.3452003
51
180.0587856
0
ARC
8
3
62
6
10
8.1299362
20
5.3014889
40
0.1176533
50
90.2279396
51
180.0390054
0
ARC
8
3
62
6
10
8.1299553
20
5.3014908
40
0.1036717
50
90.2689071
51
180.0459722
0
ARC
8
3
62
6
10
8.1298943
20
5.3014812
40
0.0896107
50
90.2721992
51
180.0466006
0
POLYLINE
8
3
62
3
70
4
66
1
40
0.0000000
41
0.0000000
0
VERTEX
8
3
10
7.8660817
20
5.3443336
70
16
0
VERTEX
8
3
10
7.9241233
20
5.3353138
70
16
0
VERTEX
8
3
10
7.9557824
20
5.3127651
70
16
0
VERTEX
8
3
10
7.9804063
20
5.2541409
70
16
0
VERTEX
8
3
10
7.8660817
20
5.3443336
70
8
0
VERTEX
8
3
10
7.8866484
20
5.3402730
70
8
0
VERTEX
8
3
10
7.9049685
20
5.3346798
70
8
0
VERTEX
8
3
10
7.9212687
20
5.3272899
70
8
0
VERTEX
8
3
10
7.9357756
20
5.3178389
70
8
0
VERTEX
8
3
10
7.9487162
20
5.3060628
70
8
0
VERTEX
8
3
10
7.9603170
20
5.2916972
70
8
0
VERTEX
8
3
10
7.9708048
20
5.2744779
70
8
0
VERTEX
8
3
10
7.9804063
20
5.2541409
70
8
0
SEQEND
8
3
0
POLYLINE
8
3
62
3
70
4
66
1
40
0.0000000
41
0.0000000
0
VERTEX
8
3
10
7.8273873
20
5.3443336
70
16
0
VERTEX
8
3
10
7.8783937
20
5.3195305
70
16
0
VERTEX
8
3
10
7.9170880
20
5.2902164
70
16
0
VERTEX
8
3
10
7.9311585
20
5.2045326
70
16
0
VERTEX
8
3
10
7.9557824
20
5.1616917
70
16
0
VERTEX
8
3
10
7.9839239
20
5.1256142
70
16
0
VERTEX
8
3
10
7.8273873
20
5.3443336
70
8
0
VERTEX
8
3
10
7.8450782
20
5.3354747
70
8
0
VERTEX
8
3
10
7.8600862
20
5.3273665
70
8
0
VERTEX
8
3
10
7.8726963
20
5.3198088
70
8
0
VERTEX
8
3
10
7.8831938
20
5.3126012
70
8
0
VERTEX
8
3
10
7.8918637
20
5.3055433
70
8
0
VERTEX
8
3
10
7.8989912
20
5.2984348
70
8
0
VERTEX
8
3
10
7.9048615
20
5.2910753
70
8
0
VERTEX
8
3
10
7.9097595
20
5.2832643
70
8
0
VERTEX
8
3
10
7.9139448
20
5.2748556
70
8
0
VERTEX
8
3
10
7.9175735
20
5.2659183
70
8
0
VERTEX
8
3
10
7.9207763
20
5.2565760
70
8
0
VERTEX
8
3
10
7.9236836
20
5.2469518
70
8
0
VERTEX
8
3
10
7.9264260
20
5.2371691
70
8
0
VERTEX
8
3
10
7.9291341
20
5.2273512
70
8
0
VERTEX
8
3
10
7.9319384
20
5.2176214
70
8
0
VERTEX
8
3
10
7.9349694
20
5.2081030
70
8
0
VERTEX
8
3
10
7.9383594
20
5.1988632
70
8
0
VERTEX
8
3
10
7.9422475
20
5.1897445
70
8
0
VERTEX
8
3
10
7.9467746
20
5.1805333
70
8
0
VERTEX
8
3
10
7.9520815
20
5.1710161
70
8
0
VERTEX
8
3
10
7.9583090
20
5.1609791
70
8
0
VERTEX
8
3
10
7.9655980
20
5.1502089
70
8
0
VERTEX
8
3
10
7.9740894
20
5.1384918
70
8
0
VERTEX
8
3
10
7.9839239
20
5.1256142
70
8
0
SEQEND
8
3
0
LINE
8
3
62
7
10
8.8431377
20
5.2198620
11
8.8868370
21
5.4526386
0
POLYLINE
8
3
62
7
70
0
66
1
40
0.0000000
41
0.0000000
0
VERTEX
8
3
10
8.9023972
20
5.5355244
0
VERTEX
8
3
10
8.9828949
20
5.5181656
0
VERTEX
8
3
10
8.7733145
20
5.4750938
0
VERTEX
8
3
10
8.8868370
20
5.4526386
0
SEQEND
8
3
0
LINE
8
3
62
4
10
8.8359470
20
5.4618378
11
8.8764715
21
5.4092884
0
ARC
8
3
62
6
10
8.6383190
20
5.3844395
40
0.0141331
50
261.3439107
51
351.6901013
0
ARC
8
3
62
6
10
8.6383190
20
5.3844395
40
0.0280309
50
261.3527080
51
351.5182811
0
ARC
8
3
62
6
10
8.6383190
20
5.3844395
40
0.0418998
50
261.3554947
51
351.4318382
0
LINE
8
10
62
3
10
7.7970829
20
4.8812256
11
7.7690830
21
4.8812256
0
LINE
8
10
62
3
10
7.7690830
20
4.8812256
11
7.7970829
21
4.8812256
0
LINE
8
10
62
3
10
7.7690830
20
4.8812256
11
7.7970829
21
4.8601170
0
LINE
8
10
62
3
10
7.7690830
20
4.8523121
11
7.7970829
21
4.8312016
0
LINE
8
10
62
3
10
7.7690830
20
4.8233967
11
7.7970829
21
4.8022881
0
LINE
8
10
62
3
10
7.7690830
20
4.7944832
11
7.7970829
21
4.7733746
0
LINE
8
10
62
3
10
7.7690830
20
4.7655697
11
7.7970829
21
4.7444611
0
LINE
8
10
62
3
10
7.7690830
20
4.7366562
11
7.7970829
21
4.7155476
0
LINE
8
10
62
3
10
7.7690830
20
4.7077427
11
7.7970829
21
4.6866331
0
LINE
8
10
62
3
10
7.7690830
20
4.6788282
11
7.7970829
21
4.6577196
0
LINE
8
10
62
3
10
7.7690830
20
4.6499147
11
7.7970829
21
4.6288061
0
LINE
8
10
62
3
10
7.7690830
20
4.6210012
11
7.7970829
21
4.5998917
0
LINE
8
10
62
3
10
7.7690830
20
4.5920868
11
7.7970829
21
4.5709782
0
LINE
8
10
62
3
10
7.7690830
20
4.5631733
11
7.7970829
21
4.5420637
0
LINE
8
10
62
3
10
7.7690830
20
4.5342588
11
7.7970829
21
4.5131502
0
LINE
8
10
62
3
10
7.7690830
20
4.8812256
11
7.7690830
21
4.8812256
0
LINE
8
10
62
3
10
7.7970829
20
5.3452244
11
7.9842830
21
5.3452244
0
LINE
8
10
62
3
10
8.0122833
20
4.8812256
11
8.0122833
21
4.8812256
0
LINE
8
10
62
3
10
8.0122833
20
4.8812256
11
7.9842830
21
4.8812256
0
LINE
8
10
62
3
10
7.9842830
20
4.8812256
11
8.0122833
21
4.8812256
0
LINE
8
10
62
3
10
7.9842830
20
4.5342588
11
8.0122833
21
4.5131502
0
LINE
8
10
62
3
10
7.9842830
20
4.5631733
11
8.0122833
21
4.5420637
0
LINE
8
10
62
3
10
7.9842830
20
4.5920868
11
8.0122833
21
4.5709782
0
LINE
8
10
62
3
10
7.9842830
20
4.6210012
11
8.0122833
21
4.5998917
0
LINE
8
10
62
3
10
7.9842830
20
4.6499147
11
8.0122833
21
4.6288061
0
LINE
8
10
62
3
10
7.9842830
20
4.6788282
11
8.0122833
21
4.6577196
0
LINE
8
10
62
3
10
7.9842830
20
4.7077427
11
8.0122833
21
4.6866331
0
LINE
8
10
62
3
10
7.9842830
20
4.7366562
11
8.0122833
21
4.7155476
0
LINE
8
10
62
3
10
7.9842830
20
4.7655697
11
8.0122833
21
4.7444611
0
LINE
8
10
62
3
10
7.9842830
20
4.7944832
11
8.0122833
21
4.7733746
0
LINE
8
10
62
3
10
7.9842830
20
4.8233967
11
8.0122833
21
4.8022881
0
LINE
8
10
62
3
10
7.9842830
20
4.8523121
11
8.0122833
21
4.8312016
0
LINE
8
10
62
3
10
7.9842830
20
4.8812256
11
8.0122833
21
4.8601170
0
LINE
8
10
62
3
10
7.9842830
20
4.8812256
11
8.0122833
21
4.8812256
0
ARC
8
3
62
6
10
8.0122833
20
4.8812256
40
0.0140001
50
270.0000007
51
359.9999827
0
ARC
8
3
62
6
10
8.0122833
20
4.8812256
40
0.0280003
50
270.0000007
51
359.9999827
0
LINE
8
3
62
6
10
8.0402832
20
4.8812256
11
8.0402832
21
5.3014088
0
LINE
8
3
62
6
10
8.0262833
20
4.8812256
11
8.0262833
21
5.3014088
0
LINE
8
3
62
6
10
8.0122833
20
4.8812256
11
8.0122833
21
5.3014088
0
LINE
8
3
62
6
10
7.9982829
20
4.8812256
11
7.9982829
21
5.3014088
0
INSERT
8
8
2
ERICSON1-G15
10
0.0000000
20
0.0000000
0
ENDSEC
0
EOF
