0
SECTION
2
HEADER
9
$FILLMODE
70
1
9
$EXTMIN
10
0.0916667
20
0.1228869
30
0.0
9
$EXTMAX
10
6.834961
20
3.923690
30
0.0
9
$LIMMIN
10
0.0916667
20
0.1228869
9
$LIMMAX
10
6.834961
20
3.923690
0
ENDSEC
0
SECTION
2
TABLES
0
TABLE
2
LAYER
70
2
0
LAYER
2
1
70
0
62
7
6
CONTINUOUS
0
ENDTAB
0
TABLE
2
STYLE
70
1
0
STYLE
2
STANDARD
70
0
40
0
41
1
50
0
71
0
42
0.2
3
txt
4

0
ENDTAB
0
TABLE
2
LTYPE
70
2
0
LTYPE
2
CONTINUOUS
70
64
3
Solid Line
72
65
73
0
40
0.0
0
LTYPE
2
DASH
70
64
3
DASH
72
65
73
2
40
0.7500000
49
0.5000000
49
-0.2500000
0
LTYPE
2
DASH_DASH
70
64
3
DASH_DASH
72
65
73
4
40
1.250000
49
0.5000000
49
-0.2500000
49
0.2500000
49
-0.2500000
0
LTYPE
2
DASH_DASH_DASH_DASH
70
64
3
DASH_DASH_DASH_DASH
72
65
73
8
40
1.937500
49
0.5000000
49
-0.2500000
49
0.2500000
49
-0.2500000
49
0.1250000
49
-0.2500000
49
0.0625000
49
-0.2500000
0
ENDTAB
0
ENDSEC
0
SECTION
2
BLOCKS
0
ENDSEC
0
SECTION
2
ENTITIES
0
POLYLINE
8
1
62
7
70
1
40
0.0000000
41
0.0000000
66
1
0
VERTEX
8
1
10
5.125000
20
3.408333
42
0.0427104
0
VERTEX
8
1
10
4.808333
20
3.211667
42
0.1695488
0
VERTEX
8
1
10
4.505000
20
3.541667
42
0.2642683
0
VERTEX
8
1
10
3.548333
20
3.368333
0
VERTEX
8
1
10
3.508333
20
3.338333
42
0.7562596
0
VERTEX
8
1
10
3.531667
20
3.305000
42
-0.1306515
0
VERTEX
8
1
10
3.908334
20
3.525000
42
-0.1497785
0
VERTEX
8
1
10
4.508333
20
3.501667
42
-0.1513106
0
VERTEX
8
1
10
4.791667
20
3.188333
0
VERTEX
8
1
10
4.805000
20
3.175000
42
-0.0669521
0
VERTEX
8
1
10
5.171667
20
3.395000
42
-0.0572365
0
VERTEX
8
1
10
4.995000
20
3.685000
42
0.0855756
0
VERTEX
8
1
10
4.901667
20
3.795000
42
-0.3557924
0
VERTEX
8
1
10
5.225000
20
3.678333
42
-0.4181771
0
VERTEX
8
1
10
5.191667
20
3.281667
0
VERTEX
8
1
10
5.271667
20
3.118333
0
VERTEX
8
1
10
5.405000
20
3.035000
0
VERTEX
8
1
10
5.698333
20
2.605000
42
-0.0564236
0
VERTEX
8
1
10
5.978333
20
2.445000
0
VERTEX
8
1
10
5.985000
20
2.418333
42
-0.1948810
0
VERTEX
8
1
10
5.825000
20
2.211667
42
-0.0851066
0
VERTEX
8
1
10
5.468333
20
2.078333
0
VERTEX
8
1
10
5.458333
20
2.061666
42
0.1097722
0
VERTEX
8
1
10
5.478333
20
2.008333
0
VERTEX
8
1
10
5.695000
20
2.061666
42
-0.5812157
0
VERTEX
8
1
10
6.758333
20
0.6883333
42
-0.2737419
0
VERTEX
8
1
10
5.955000
20
0.1250000
42
-0.3424596
0
VERTEX
8
1
10
4.885000
20
0.8516667
42
-0.3082083
0
VERTEX
8
1
10
5.245000
20
1.868333
0
VERTEX
8
1
10
5.395000
20
1.975000
0
VERTEX
8
1
10
5.351666
20
2.128333
0
VERTEX
8
1
10
4.865000
20
1.668333
0
VERTEX
8
1
10
4.321667
20
1.131667
42
-0.5608346
0
VERTEX
8
1
10
4.185000
20
0.6583334
42
-0.0633807
0
VERTEX
8
1
10
4.028333
20
0.6616667
0
VERTEX
8
1
10
4.028333
20
0.6350000
42
-0.4275881
0
VERTEX
8
1
10
4.118333
20
0.5750000
0
VERTEX
8
1
10
4.058333
20
0.4816667
42
-0.2746276
0
VERTEX
8
1
10
3.818333
20
0.5083333
0
VERTEX
8
1
10
3.825000
20
0.5416667
0
VERTEX
8
1
10
3.878334
20
0.5416667
42
0.8198039
0
VERTEX
8
1
10
3.861667
20
0.5616667
0
VERTEX
8
1
10
3.808333
20
0.6583334
0
VERTEX
8
1
10
3.855000
20
0.7283334
0
VERTEX
8
1
10
3.961667
20
0.6616667
0
VERTEX
8
1
10
3.978333
20
0.6716667
0
VERTEX
8
1
10
3.885000
20
0.7683333
42
-0.6904009
0
VERTEX
8
1
10
4.168333
20
1.215000
0
VERTEX
8
1
10
4.241666
20
1.421667
0
VERTEX
8
1
10
4.151667
20
1.495000
0
VERTEX
8
1
10
4.161666
20
1.541667
0
VERTEX
8
1
10
4.225000
20
1.541667
0
VERTEX
8
1
10
4.178333
20
1.565000
42
-0.2061646
0
VERTEX
8
1
10
3.985000
20
1.631667
42
-0.2437098
0
VERTEX
8
1
10
4.048333
20
1.785000
42
0.0612055
0
VERTEX
8
1
10
4.161666
20
2.420000
0
VERTEX
8
1
10
3.711667
20
2.420000
0
VERTEX
8
1
10
3.458333
20
2.045000
0
VERTEX
8
1
10
3.458333
20
2.031667
42
-0.2594603
0
VERTEX
8
1
10
3.931667
20
1.185000
42
0.3705764
0
VERTEX
8
1
10
3.838333
20
0.7650000
42
-0.8978783
0
VERTEX
8
1
10
1.981667
20
1.508333
42
-0.4078240
0
VERTEX
8
1
10
3.228333
20
2.135000
42
-0.0632508
0
VERTEX
8
1
10
3.385000
20
2.078333
0
VERTEX
8
1
10
3.665000
20
2.491667
0
VERTEX
8
1
10
3.608333
20
2.718333
0
VERTEX
8
1
10
3.585000
20
2.728333
42
-0.1388520
0
VERTEX
8
1
10
3.295000
20
2.658333
0
VERTEX
8
1
10
3.245000
20
2.688333
42
-0.3611061
0
VERTEX
8
1
10
3.211667
20
2.798333
42
0.1457714
0
VERTEX
8
1
10
3.531667
20
2.765000
0
VERTEX
8
1
10
3.905000
20
2.765000
0
VERTEX
8
1
10
3.868333
20
2.745000
0
VERTEX
8
1
10
3.688334
20
2.745000
0
VERTEX
8
1
10
3.681667
20
2.721667
0
VERTEX
8
1
10
3.758333
20
2.491667
0
VERTEX
8
1
10
4.175000
20
2.491667
42
-0.0657826
0
VERTEX
8
1
10
4.335000
20
2.778333
42
0.6965391
0
VERTEX
8
1
10
4.258333
20
2.855000
0
VERTEX
8
1
10
3.831667
20
2.808333
0
VERTEX
8
1
10
3.815000
20
2.811666
42
-0.1546802
0
VERTEX
8
1
10
3.825000
20
3.265000
0
VERTEX
8
1
10
3.798333
20
3.265000
42
0.1247236
0
VERTEX
8
1
10
3.748333
20
2.975000
0
VERTEX
8
1
10
3.768333
20
2.811666
0
VERTEX
8
1
10
3.641667
20
2.798333
42
-0.1608678
0
VERTEX
8
1
10
3.178334
20
2.868333
42
-0.3684755
0
VERTEX
8
1
10
3.141667
20
3.381667
0
VERTEX
8
1
10
3.225000
20
3.498333
42
-0.1653643
0
VERTEX
8
1
10
4.071667
20
3.918333
42
-0.0823644
0
VERTEX
8
1
10
4.778333
20
3.851666
42
-0.1227034
0
VERTEX
8
1
10
4.991666
20
3.631667
0
VERTEX
8
1
10
5.125000
20
3.408333
0
SEQEND
0
POLYLINE
8
1
62
7
70
1
40
0.0000000
41
0.0000000
66
1
0
VERTEX
8
1
10
4.805000
20
3.135000
42
-0.1677787
0
VERTEX
8
1
10
4.898333
20
3.208333
0
VERTEX
8
1
10
5.121666
20
2.948333
42
0.0325741
0
VERTEX
8
1
10
5.401667
20
2.648333
42
-0.5341663
0
VERTEX
8
1
10
5.308333
20
2.685000
42
0.6180340
0
VERTEX
8
1
10
5.235000
20
2.638333
0
VERTEX
8
1
10
5.261667
20
2.485000
0
VERTEX
8
1
10
4.531667
20
2.485000
0
VERTEX
8
1
10
4.525000
20
2.505000
42
-0.0095109
0
VERTEX
8
1
10
4.658333
20
2.855000
42
0.3162183
0
VERTEX
8
1
10
4.571667
20
3.111666
42
0.0369741
0
VERTEX
8
1
10
4.325000
20
3.188333
0
VERTEX
8
1
10
4.011667
20
3.261667
0
VERTEX
8
1
10
4.085000
20
3.298333
0
VERTEX
8
1
10
4.355000
20
3.348333
0
VERTEX
8
1
10
4.648333
20
3.361666
0
VERTEX
8
1
10
4.805000
20
3.135000
0
SEQEND
0
POLYLINE
8
1
62
7
70
1
40
0.0000000
41
0.0000000
66
1
0
VERTEX
8
1
10
3.431667
20
2.628333
42
-0.1097722
0
VERTEX
8
1
10
3.585000
20
2.685000
0
VERTEX
8
1
10
3.641667
20
2.508333
0
VERTEX
8
1
10
3.585000
20
2.428333
42
-0.1002568
0
VERTEX
8
1
10
3.431667
20
2.628333
0
SEQEND
0
POLYLINE
8
1
62
7
70
1
40
0.0000000
41
0.0000000
66
1
0
VERTEX
8
1
10
3.721667
20
2.708333
42
0.0827625
0
VERTEX
8
1
10
3.925000
20
2.725000
0
VERTEX
8
1
10
4.045000
20
2.525000
0
VERTEX
8
1
10
3.775000
20
2.525000
0
VERTEX
8
1
10
3.721667
20
2.708333
0
SEQEND
0
POLYLINE
8
1
62
7
70
1
40
0.0000000
41
0.0000000
66
1
0
VERTEX
8
1
10
5.701666
20
2.338333
0
VERTEX
8
1
10
5.651667
20
2.308333
0
VERTEX
8
1
10
5.418333
20
2.258333
0
VERTEX
8
1
10
5.338333
20
2.555000
0
VERTEX
8
1
10
5.351666
20
2.568333
0
VERTEX
8
1
10
5.525000
20
2.555000
42
-0.2192303
0
VERTEX
8
1
10
5.675000
20
2.445000
0
VERTEX
8
1
10
5.701666
20
2.338333
0
SEQEND
0
POLYLINE
8
1
62
7
70
1
40
0.0000000
41
0.0000000
66
1
0
VERTEX
8
1
10
2.468333
20
1.888333
0
VERTEX
8
1
10
2.341667
20
1.788333
0
VERTEX
8
1
10
2.338333
20
1.775000
0
VERTEX
8
1
10
2.805000
20
1.335000
42
-1.126506
0
VERTEX
8
1
10
2.808333
20
1.291667
0
VERTEX
8
1
10
2.211667
20
1.618333
42
0.1009038
0
VERTEX
8
1
10
2.155000
20
1.461667
0
VERTEX
8
1
10
2.771667
20
1.268333
42
-1.183930
0
VERTEX
8
1
10
2.771667
20
1.221667
0
VERTEX
8
1
10
2.125000
20
1.265000
42
0.1349943
0
VERTEX
8
1
10
2.161667
20
0.9950000
42
0.0097929
0
VERTEX
8
1
10
2.795000
20
1.168333
42
-0.7142857
0
VERTEX
8
1
10
2.795000
20
1.121667
0
VERTEX
8
1
10
2.248333
20
0.8050000
0
VERTEX
8
1
10
2.275000
20
0.7550000
42
0.1346004
0
VERTEX
8
1
10
2.591667
20
0.4850000
0
VERTEX
8
1
10
2.875000
20
1.071667
0
VERTEX
8
1
10
2.961667
20
1.071667
42
0.7123824
0
VERTEX
8
1
10
2.998333
20
1.345000
0
VERTEX
8
1
10
3.385000
20
1.938333
0
VERTEX
8
1
10
3.515000
20
1.845000
42
-0.8301865
0
VERTEX
8
1
10
2.675000
20
0.3816667
42
-0.1940120
0
VERTEX
8
1
10
2.158334
20
0.8083333
42
-0.5789146
0
VERTEX
8
1
10
2.908334
20
2.065000
42
-0.1351320
0
VERTEX
8
1
10
3.318333
20
1.971667
0
VERTEX
8
1
10
2.928334
20
1.375000
42
-0.6059250
0
VERTEX
8
1
10
2.848333
20
1.358333
0
VERTEX
8
1
10
2.468333
20
1.888333
0
SEQEND
0
POLYLINE
8
1
62
7
70
1
40
0.0000000
41
0.0000000
66
1
0
VERTEX
8
1
10
3.678334
20
2.325000
0
VERTEX
8
1
10
3.728333
20
2.401667
42
-0.0499446
0
VERTEX
8
1
10
4.128333
20
2.388333
42
-0.0923101
0
VERTEX
8
1
10
4.118333
20
2.208333
42
-0.0492559
0
VERTEX
8
1
10
4.031667
20
1.821667
0
VERTEX
8
1
10
3.968333
20
1.718333
42
0.4828228
0
VERTEX
8
1
10
4.031667
20
1.561667
0
VERTEX
8
1
10
3.955000
20
1.348333
0
VERTEX
8
1
10
3.941667
20
1.395000
42
0.1196464
0
VERTEX
8
1
10
3.785000
20
1.761667
42
0.1164131
0
VERTEX
8
1
10
3.931667
20
2.045000
42
0.2595929
0
VERTEX
8
1
10
3.865000
20
2.165000
0
VERTEX
8
1
10
3.678334
20
2.325000
0
SEQEND
0
POLYLINE
8
1
62
7
70
1
40
0.0000000
41
0.0000000
66
1
0
VERTEX
8
1
10
4.501667
20
2.415000
0
VERTEX
8
1
10
5.275000
20
2.415000
0
VERTEX
8
1
10
5.335000
20
2.208333
0
VERTEX
8
1
10
4.268333
20
1.171667
0
VERTEX
8
1
10
4.221666
20
1.191667
0
VERTEX
8
1
10
4.285000
20
1.405000
0
VERTEX
8
1
10
4.305000
20
1.421667
0
VERTEX
8
1
10
4.481667
20
1.455000
42
0.7909201
0
VERTEX
8
1
10
4.481667
20
1.608333
0
VERTEX
8
1
10
4.378333
20
1.665000
0
VERTEX
8
1
10
4.358333
20
1.648333
42
-0.1308276
0
VERTEX
8
1
10
4.238333
20
1.758333
0
VERTEX
8
1
10
4.251667
20
1.848333
42
-0.0297943
0
VERTEX
8
1
10
4.501667
20
2.415000
0
SEQEND
0
POLYLINE
8
1
62
7
70
1
40
0.0000000
41
0.0000000
66
1
0
VERTEX
8
1
10
5.421667
20
1.851667
42
0.0466503
0
VERTEX
8
1
10
5.638333
20
1.155000
0
VERTEX
8
1
10
5.721666
20
1.098333
0
VERTEX
8
1
10
5.748333
20
1.018333
0
VERTEX
8
1
10
5.818333
20
0.9683334
0
VERTEX
8
1
10
5.871666
20
0.9650000
42
0.6000521
0
VERTEX
8
1
10
5.955000
20
1.175000
0
VERTEX
8
1
10
5.918333
20
1.208333
42
0.3802564
0
VERTEX
8
1
10
5.741666
20
1.171667
0
VERTEX
8
1
10
5.728333
20
1.181667
42
-0.0592722
0
VERTEX
8
1
10
5.505000
20
1.905000
42
-0.1727490
0
VERTEX
8
1
10
6.141666
20
1.908333
42
-0.2140023
0
VERTEX
8
1
10
6.651667
20
1.445000
42
-0.5374745
0
VERTEX
8
1
10
5.918333
20
0.2183333
42
-0.3829165
0
VERTEX
8
1
10
4.975000
20
0.9883333
0
VERTEX
8
1
10
4.975000
20
1.208333
42
-0.2345899
0
VERTEX
8
1
10
5.371666
20
1.841667
0
VERTEX
8
1
10
5.421667
20
1.851667
0
SEQEND
0
POLYLINE
8
1
62
7
70
1
40
0.0000000
41
0.0000000
66
1
0
VERTEX
8
1
10
5.775000
20
2.268333
42
-0.1316821
0
VERTEX
8
1
10
5.435000
20
2.168333
0
VERTEX
8
1
10
5.431666
20
2.191667
42
0.0736351
0
VERTEX
8
1
10
5.748333
20
2.291667
0
VERTEX
8
1
10
5.775000
20
2.268333
0
SEQEND
0
POLYLINE
8
1
62
7
70
1
40
0.0000000
41
0.0000000
66
1
0
VERTEX
8
1
10
2.228333
20
2.011667
0
VERTEX
8
1
10
2.118333
20
1.895000
0
VERTEX
8
1
10
0.1483333
20
1.895000
0
VERTEX
8
1
10
0.0916667
20
2.006667
0
VERTEX
8
1
10
2.228333
20
2.011667
0
SEQEND
0
POLYLINE
8
1
62
7
70
1
40
0.0000000
41
0.0000000
66
1
0
VERTEX
8
1
10
0.4516667
20
1.268333
0
VERTEX
8
1
10
1.871667
20
1.268333
0
VERTEX
8
1
10
1.881667
20
1.255000
42
0.1059404
0
VERTEX
8
1
10
1.911667
20
0.9583333
0
VERTEX
8
1
10
0.5950000
20
0.9583333
0
VERTEX
8
1
10
0.4516667
20
1.268333
0
SEQEND
0
POLYLINE
8
1
62
7
70
1
40
0.0000000
41
0.0000000
66
1
0
VERTEX
8
1
10
3.715000
20
1.498333
42
-0.2487152
0
VERTEX
8
1
10
3.661667
20
0.7783333
42
-0.7566355
0
VERTEX
8
1
10
3.651667
20
0.9516667
42
0.1364638
0
VERTEX
8
1
10
3.705000
20
1.141667
0
VERTEX
8
1
10
3.705000
20
1.495000
0
VERTEX
8
1
10
3.715000
20
1.498333
0
SEQEND
0
POLYLINE
8
1
62
7
70
1
40
0.0000000
41
0.0000000
66
1
0
VERTEX
8
1
10
4.141666
20
1.158333
0
VERTEX
8
1
10
4.101666
20
1.018333
42
0.5355382
0
VERTEX
8
1
10
4.055000
20
0.8950000
0
VERTEX
8
1
10
4.005000
20
0.7583333
0
VERTEX
8
1
10
3.995000
20
0.7583333
42
-0.8115581
0
VERTEX
8
1
10
4.141666
20
1.158333
0
SEQEND
0
POLYLINE
8
1
62
7
70
1
40
0.0000000
41
0.0000000
66
1
0
VERTEX
8
1
10
4.201666
20
1.138333
42
-0.9512492
0
VERTEX
8
1
10
4.055000
20
0.7316667
0
VERTEX
8
1
10
4.101666
20
0.8683333
42
0.7374561
0
VERTEX
8
1
10
4.155000
20
1.011667
0
VERTEX
8
1
10
4.191667
20
1.131667
0
VERTEX
8
1
10
4.201666
20
1.138333
0
SEQEND
0
POLYLINE
8
1
62
7
70
1
40
0.0000000
41
0.0000000
66
1
0
VERTEX
8
1
10
1.908333
20
1.515000
0
VERTEX
8
1
10
0.3350000
20
1.515000
0
VERTEX
8
1
10
0.2416667
20
1.708333
0
VERTEX
8
1
10
2.005000
20
1.708333
0
VERTEX
8
1
10
1.908333
20
1.515000
0
SEQEND
0
POLYLINE
8
1
62
7
70
1
40
0.0000000
41
0.0000000
66
1
0
VERTEX
8
1
10
0.7183333
20
0.6916667
0
VERTEX
8
1
10
2.015000
20
0.6916667
42
0.0867197
0
VERTEX
8
1
10
2.341667
20
0.3316667
0
VERTEX
8
1
10
0.8850000
20
0.3316667
0
VERTEX
8
1
10
0.7183333
20
0.6916667
0
SEQEND
0
ENDSEC
0
EOF
