  0
SECTION
  2
HEADER
  9
$ACADVER
  1
AC1006
  9
$EXTMIN
 10
-1.077500
 20
-3.621484
  9
$EXTMAX
 10
0.998476
 20
0.232476
  9
$LTSCALE
 40
0.000394
  9
$PDMODE
 70
    35
  9
$PDSIZE
 40
0.000315
  0
ENDSEC
  0
SECTION
  2
TABLES
  0
TABLE
  2
LTYPE
 70
     9
  0
LTYPE
  2
CONTINUOUS
 70
    64
  3
Solid line
 72
    65
 73
     0
 40
0.000000
  0
LTYPE
  2
DASHED
 70
    64
  3
__ __ __ __ __ __ __ __ __ __ __ __ __ __ __
 72
    65
 73
     2
 40
0.000003
 49
0.000002
 49
-0.000001
  0
LTYPE
  2
HIDDEN
 70
    64
  3
 _ _ _ _ _ _ _ _ _ _ _ _ _ _ _ _ _ _ _ _ _ _
 72
    65
 73
     2
 40
0.000001
 49
0.000001
 49
-0.000000
  0
LTYPE
  2
CENTER
 70
    64
  3
____ _ ____ _ ____ _ ____ _ ____ _ ____ _ ____
 72
    65
 73
     4
 40
0.000008
 49
0.000005
 49
-0.000001
 49
0.000001
 49
-0.000001
  0
LTYPE
  2
PHANTOM
 70
    64
  3
_____ _ _ _____ _ _ _____ _ _ _____ _ _ ____
 72
    65
 73
     6
 40
0.000010
 49
0.000005
 49
-0.000001
 49
0.000001
 49
-0.000001
 49
0.000001
 49
-0.000001
  0
LTYPE
  2
DOT
 70
    64
  3
...............................................
 72
    65
 73
     2
 40
0.000001
 49
0.000000
 49
-0.000001
  0
LTYPE
  2
DASHDOT
 70
    64
  3
__ . __ . __ . __ . __ . __ . __ . __ . __ . __
 72
    65
 73
     4
 40
0.000004
 49
0.000002
 49
-0.000001
 49
0.000000
 49
-0.000001
  0
LTYPE
  2
BORDER
 70
    64
  3
__ __ . __ __ . __ __ . __ __ . __ __ . __ __
 72
    65
 73
     6
 40
0.000007
 49
0.000002
 49
-0.000001
 49
0.000002
 49
-0.000001
 49
0.000000
 49
-0.000001
  0
LTYPE
  2
DIVIDE
 70
    64
  3
__ . . __ . . __ . . __ . . __ . . __ . . __
 72
    65
 73
     6
 40
0.000005
 49
0.000002
 49
-0.000001
 49
0.000000
 49
-0.000001
 49
0.000000
 49
-0.000001
  0
LTYPE
  2
DOTDOT
 70
    64
  3
 . .  . .  . .  . .  . .  . . 
 72
    65
 73
     5
 40
0.000002
 49
-0.000001
 49
0.000000
 49
-0.000001
 49
0.000000
 49
-0.000001
  0
ENDTAB
  0
TABLE
  2
STYLE
 70
     0
  0
ENDTAB
  0
TABLE
  2
LAYER
 70
     3
  0
LAYER
  2
FOREGROUND
 70
    64
 62
     7
  6
CONTINUOUS
  0
LAYER
  2
BACKGROUND
 70
    65
 62
    -7
  6
CONTINUOUS
  0
LAYER
  2
PLAN_1
 70
    64
 62
     7
  6
CONTINUOUS
  0
ENDTAB
  0
ENDSEC
  0
SECTION
  2
ENTITIES
  0
POLYLINE
  8
PLAN_1
 62
    42
  6
CONTINUOUS
 66
     1
 40
0.013000
 41
0.013000
 70
     1
  0
VERTEX
  8
PLAN_1
 62
    42
  6
CONTINUOUS
 10
-0.253969
 20
-0.887016
  0
VERTEX
  8
PLAN_1
 62
    42
  6
CONTINUOUS
 10
-0.295055
 20
-0.759031
  0
VERTEX
  8
PLAN_1
 62
    42
  6
CONTINUOUS
 10
-0.324909
 20
-0.615933
  0
VERTEX
  8
PLAN_1
 62
    42
  6
CONTINUOUS
 10
-0.343972
 20
-0.468957
  0
VERTEX
  8
PLAN_1
 62
    42
  6
CONTINUOUS
 10
-0.348961
 20
-0.323957
  0
VERTEX
  8
PLAN_1
 62
    42
  6
CONTINUOUS
 10
-0.346004
 20
-0.255035
  0
VERTEX
  8
PLAN_1
 62
    42
  6
CONTINUOUS
 10
-0.337949
 20
-0.187957
  0
VERTEX
  8
PLAN_1
 62
    42
  6
CONTINUOUS
 10
-0.325996
 20
-0.126957
  0
VERTEX
  8
PLAN_1
 62
    42
  6
CONTINUOUS
 10
-0.310075
 20
-0.069004
  0
VERTEX
  8
PLAN_1
 62
    42
  6
CONTINUOUS
 10
-0.288035
 20
-0.016965
  0
VERTEX
  8
PLAN_1
 62
    42
  6
CONTINUOUS
 10
-0.260953
 20
0.027980
  0
VERTEX
  8
PLAN_1
 62
    42
  6
CONTINUOUS
 10
-0.229972
 20
0.064965
  0
VERTEX
  8
PLAN_1
 62
    42
  6
CONTINUOUS
 10
-0.192047
 20
0.095984
  0
VERTEX
  8
PLAN_1
 62
    42
  6
CONTINUOUS
 10
-0.146933
 20
0.117043
  0
VERTEX
  8
PLAN_1
 62
    42
  6
CONTINUOUS
 10
-0.098035
 20
0.130047
  0
VERTEX
  8
PLAN_1
 62
    42
  6
CONTINUOUS
 10
-0.060992
 20
0.128996
  0
VERTEX
  8
PLAN_1
 62
    42
  6
CONTINUOUS
 10
-0.027039
 20
0.117949
  0
VERTEX
  8
PLAN_1
 62
    42
  6
CONTINUOUS
 10
0.000024
 20
0.095984
  0
VERTEX
  8
PLAN_1
 62
    42
  6
CONTINUOUS
 10
0.022043
 20
0.066996
  0
VERTEX
  8
PLAN_1
 62
    42
  6
CONTINUOUS
 10
0.040925
 20
0.029996
  0
VERTEX
  8
PLAN_1
 62
    42
  6
CONTINUOUS
 10
0.053008
 20
-0.012957
  0
VERTEX
  8
PLAN_1
 62
    42
  6
CONTINUOUS
 10
0.062004
 20
-0.062020
  0
VERTEX
  8
PLAN_1
 62
    42
  6
CONTINUOUS
 10
0.066972
 20
-0.115024
  0
VERTEX
  8
PLAN_1
 62
    42
  6
CONTINUOUS
 10
0.064035
 20
-0.231980
  0
VERTEX
  8
PLAN_1
 62
    42
  6
CONTINUOUS
 10
0.044953
 20
-0.354957
  0
VERTEX
  8
PLAN_1
 62
    42
  6
CONTINUOUS
 10
0.028012
 20
-0.415976
  0
VERTEX
  8
PLAN_1
 62
    42
  6
CONTINUOUS
 10
0.009020
 20
-0.474055
  0
VERTEX
  8
PLAN_1
 62
    42
  6
CONTINUOUS
 10
-0.012039
 20
-0.531988
  0
VERTEX
  8
PLAN_1
 62
    42
  6
CONTINUOUS
 10
-0.039988
 20
-0.584047
  0
VERTEX
  8
PLAN_1
 62
    42
  6
CONTINUOUS
 10
-0.108008
 20
-0.692008
  0
VERTEX
  8
PLAN_1
 62
    42
  6
CONTINUOUS
 10
-0.190012
 20
-0.808020
  0
VERTEX
  8
PLAN_1
 62
    42
  6
CONTINUOUS
 10
-0.378980
 20
-1.051059
  0
VERTEX
  8
PLAN_1
 62
    42
  6
CONTINUOUS
 10
-0.475965
 20
-1.178028
  0
VERTEX
  8
PLAN_1
 62
    42
  6
CONTINUOUS
 10
-0.569055
 20
-1.306016
  0
VERTEX
  8
PLAN_1
 62
    42
  6
CONTINUOUS
 10
-0.653016
 20
-1.433961
  0
VERTEX
  8
PLAN_1
 62
    42
  6
CONTINUOUS
 10
-0.725028
 20
-1.560043
  0
VERTEX
  8
PLAN_1
 62
    42
  6
CONTINUOUS
 10
-0.780965
 20
-1.683965
  0
VERTEX
  8
PLAN_1
 62
    42
  6
CONTINUOUS
 10
-0.822972
 20
-1.801992
  0
VERTEX
  8
PLAN_1
 62
    42
  6
CONTINUOUS
 10
-0.854988
 20
-1.916953
  0
VERTEX
  8
PLAN_1
 62
    42
  6
CONTINUOUS
 10
-0.874035
 20
-2.028976
  0
VERTEX
  8
PLAN_1
 62
    42
  6
CONTINUOUS
 10
-0.883012
 20
-2.135016
  0
VERTEX
  8
PLAN_1
 62
    42
  6
CONTINUOUS
 10
-0.879965
 20
-2.236953
  0
VERTEX
  8
PLAN_1
 62
    42
  6
CONTINUOUS
 10
-0.866996
 20
-2.334012
  0
VERTEX
  8
PLAN_1
 62
    42
  6
CONTINUOUS
 10
-0.844957
 20
-2.427028
  0
VERTEX
  8
PLAN_1
 62
    42
  6
CONTINUOUS
 10
-0.813941
 20
-2.514980
  0
VERTEX
  8
PLAN_1
 62
    42
  6
CONTINUOUS
 10
-0.773059
 20
-2.596929
  0
VERTEX
  8
PLAN_1
 62
    42
  6
CONTINUOUS
 10
-0.725949
 20
-2.674039
  0
VERTEX
  8
PLAN_1
 62
    42
  6
CONTINUOUS
 10
-0.670031
 20
-2.747028
  0
VERTEX
  8
PLAN_1
 62
    42
  6
CONTINUOUS
 10
-0.607016
 20
-2.813937
  0
VERTEX
  8
PLAN_1
 62
    42
  6
CONTINUOUS
 10
-0.538020
 20
-2.874976
  0
VERTEX
  8
PLAN_1
 62
    42
  6
CONTINUOUS
 10
-0.462961
 20
-2.931059
  0
VERTEX
  8
PLAN_1
 62
    42
  6
CONTINUOUS
 10
-0.383024
 20
-2.980976
  0
VERTEX
  8
PLAN_1
 62
    42
  6
CONTINUOUS
 10
-0.297051
 20
-3.021969
  0
VERTEX
  8
PLAN_1
 62
    42
  6
CONTINUOUS
 10
-0.205031
 20
-3.052028
  0
VERTEX
  8
PLAN_1
 62
    42
  6
CONTINUOUS
 10
-0.111020
 20
-3.072031
  0
VERTEX
  8
PLAN_1
 62
    42
  6
CONTINUOUS
 10
-0.010949
 20
-3.082028
  0
VERTEX
  8
PLAN_1
 62
    42
  6
CONTINUOUS
 10
0.086941
 20
-3.080051
  0
VERTEX
  8
PLAN_1
 62
    42
  6
CONTINUOUS
 10
0.187957
 20
-3.067988
  0
VERTEX
  8
PLAN_1
 62
    42
  6
CONTINUOUS
 10
0.288988
 20
-3.045984
  0
VERTEX
  8
PLAN_1
 62
    42
  6
CONTINUOUS
 10
0.388969
 20
-3.012972
  0
VERTEX
  8
PLAN_1
 62
    42
  6
CONTINUOUS
 10
0.485012
 20
-2.969965
  0
VERTEX
  8
PLAN_1
 62
    42
  6
CONTINUOUS
 10
0.575976
 20
-2.918020
  0
VERTEX
  8
PLAN_1
 62
    42
  6
CONTINUOUS
 10
0.662024
 20
-2.854988
  0
VERTEX
  8
PLAN_1
 62
    42
  6
CONTINUOUS
 10
0.741035
 20
-2.782957
  0
VERTEX
  8
PLAN_1
 62
    42
  6
CONTINUOUS
 10
0.812031
 20
-2.699031
  0
VERTEX
  8
PLAN_1
 62
    42
  6
CONTINUOUS
 10
0.875063
 20
-2.606020
  0
VERTEX
  8
PLAN_1
 62
    42
  6
CONTINUOUS
 10
0.900980
 20
-2.556047
  0
VERTEX
  8
PLAN_1
 62
    42
  6
CONTINUOUS
 10
0.926012
 20
-2.503063
  0
VERTEX
  8
PLAN_1
 62
    42
  6
CONTINUOUS
 10
0.946961
 20
-2.449012
  0
VERTEX
  8
PLAN_1
 62
    42
  6
CONTINUOUS
 10
0.965047
 20
-2.392020
  0
VERTEX
  8
PLAN_1
 62
    42
  6
CONTINUOUS
 10
0.981933
 20
-2.312012
  0
VERTEX
  8
PLAN_1
 62
    42
  6
CONTINUOUS
 10
0.991004
 20
-2.229083
  0
VERTEX
  8
PLAN_1
 62
    42
  6
CONTINUOUS
 10
0.992000
 20
-2.144051
  0
VERTEX
  8
PLAN_1
 62
    42
  6
CONTINUOUS
 10
0.985961
 20
-2.056004
  0
VERTEX
  8
PLAN_1
 62
    42
  6
CONTINUOUS
 10
0.968965
 20
-1.968992
  0
VERTEX
  8
PLAN_1
 62
    42
  6
CONTINUOUS
 10
0.945020
 20
-1.883035
  0
VERTEX
  8
PLAN_1
 62
    42
  6
CONTINUOUS
 10
0.911992
 20
-1.797965
  0
VERTEX
  8
PLAN_1
 62
    42
  6
CONTINUOUS
 10
0.869965
 20
-1.718067
  0
VERTEX
  8
PLAN_1
 62
    42
  6
CONTINUOUS
 10
0.818976
 20
-1.643028
  0
VERTEX
  8
PLAN_1
 62
    42
  6
CONTINUOUS
 10
0.759031
 20
-1.573067
  0
VERTEX
  8
PLAN_1
 62
    42
  6
CONTINUOUS
 10
0.689976
 20
-1.510961
  0
VERTEX
  8
PLAN_1
 62
    42
  6
CONTINUOUS
 10
0.612055
 20
-1.457996
  0
VERTEX
  8
PLAN_1
 62
    42
  6
CONTINUOUS
 10
0.522972
 20
-1.413992
  0
VERTEX
  8
PLAN_1
 62
    42
  6
CONTINUOUS
 10
0.476016
 20
-1.396941
  0
VERTEX
  8
PLAN_1
 62
    42
  6
CONTINUOUS
 10
0.424992
 20
-1.382051
  0
VERTEX
  8
PLAN_1
 62
    42
  6
CONTINUOUS
 10
0.316976
 20
-1.361953
  0
VERTEX
  8
PLAN_1
 62
    42
  6
CONTINUOUS
 10
0.200020
 20
-1.356024
  0
VERTEX
  8
PLAN_1
 62
    42
  6
CONTINUOUS
 10
0.101039
 20
-1.363949
  0
VERTEX
  8
PLAN_1
 62
    42
  6
CONTINUOUS
 10
0.009980
 20
-1.385949
  0
VERTEX
  8
PLAN_1
 62
    42
  6
CONTINUOUS
 10
-0.072004
 20
-1.418941
  0
VERTEX
  8
PLAN_1
 62
    42
  6
CONTINUOUS
 10
-0.148004
 20
-1.464020
  0
VERTEX
  8
PLAN_1
 62
    42
  6
CONTINUOUS
 10
-0.216063
 20
-1.516945
  0
VERTEX
  8
PLAN_1
 62
    42
  6
CONTINUOUS
 10
-0.275047
 20
-1.576965
  0
VERTEX
  8
PLAN_1
 62
    42
  6
CONTINUOUS
 10
-0.324020
 20
-1.644929
  0
VERTEX
  8
PLAN_1
 62
    42
  6
CONTINUOUS
 10
-0.363035
 20
-1.716957
  0
VERTEX
  8
PLAN_1
 62
    42
  6
CONTINUOUS
 10
-0.391008
 20
-1.793976
  0
VERTEX
  8
PLAN_1
 62
    42
  6
CONTINUOUS
 10
-0.409035
 20
-1.874020
  0
VERTEX
  8
PLAN_1
 62
    42
  6
CONTINUOUS
 10
-0.414004
 20
-1.955028
  0
VERTEX
  8
PLAN_1
 62
    42
  6
CONTINUOUS
 10
-0.407024
 20
-2.036071
  0
VERTEX
  8
PLAN_1
 62
    42
  6
CONTINUOUS
 10
-0.387071
 20
-2.117059
  0
VERTEX
  8
PLAN_1
 62
    42
  6
CONTINUOUS
 10
-0.371996
 20
-2.157035
  0
VERTEX
  8
PLAN_1
 62
    42
  6
CONTINUOUS
 10
-0.352969
 20
-2.196071
  0
VERTEX
  8
PLAN_1
 62
    42
  6
CONTINUOUS
 10
-0.306047
 20
-2.271035
  0
VERTEX
  8
PLAN_1
 62
    42
  6
CONTINUOUS
 10
-0.243992
 20
-2.341031
  0
VERTEX
  8
PLAN_1
 62
    42
  6
CONTINUOUS
 10
-0.210000
 20
-2.369004
  0
VERTEX
  8
PLAN_1
 62
    42
  6
CONTINUOUS
 10
-0.174071
 20
-2.394957
  0
VERTEX
  8
PLAN_1
 62
    42
  6
CONTINUOUS
 10
-0.133945
 20
-2.418012
  0
VERTEX
  8
PLAN_1
 62
    42
  6
CONTINUOUS
 10
-0.093047
 20
-2.438020
  0
VERTEX
  8
PLAN_1
 62
    42
  6
CONTINUOUS
 10
-0.006000
 20
-2.470035
  0
VERTEX
  8
PLAN_1
 62
    42
  6
CONTINUOUS
 10
0.083063
 20
-2.490984
  0
VERTEX
  8
PLAN_1
 62
    42
  6
CONTINUOUS
 10
0.173067
 20
-2.506020
  0
VERTEX
  8
PLAN_1
 62
    42
  6
CONTINUOUS
 10
0.257953
 20
-2.514039
  0
VERTEX
  8
PLAN_1
 62
    42
  6
CONTINUOUS
 10
0.402953
 20
-2.514980
  0
VERTEX
  8
PLAN_1
 62
    42
  6
CONTINUOUS
 10
0.454051
 20
-2.508957
  0
VERTEX
  8
PLAN_1
 62
    42
  6
CONTINUOUS
 10
0.492992
 20
-2.497949
  0
VERTEX
  8
PLAN_1
 62
    42
  6
CONTINUOUS
 10
0.518949
 20
-2.482965
  0
VERTEX
  8
PLAN_1
 62
    42
  6
CONTINUOUS
 10
0.531012
 20
-2.468961
  0
VERTEX
  8
PLAN_1
 62
    42
  6
CONTINUOUS
 10
0.528996
 20
-2.460945
  0
VERTEX
  8
PLAN_1
 62
    42
  6
CONTINUOUS
 10
0.524063
 20
-2.453980
  0
VERTEX
  8
PLAN_1
 62
    42
  6
CONTINUOUS
 10
0.498055
 20
-2.444059
  0
VERTEX
  8
PLAN_1
 62
    42
  6
CONTINUOUS
 10
0.452016
 20
-2.438945
  0
VERTEX
  8
PLAN_1
 62
    42
  6
CONTINUOUS
 10
0.380949
 20
-2.442008
  0
VERTEX
  8
PLAN_1
 62
    42
  6
CONTINUOUS
 10
0.301937
 20
-2.446055
  0
VERTEX
  8
PLAN_1
 62
    42
  6
CONTINUOUS
 10
0.226031
 20
-2.444984
  0
VERTEX
  8
PLAN_1
 62
    42
  6
CONTINUOUS
 10
0.156016
 20
-2.436984
  0
VERTEX
  8
PLAN_1
 62
    42
  6
CONTINUOUS
 10
0.090969
 20
-2.424996
  0
VERTEX
  8
PLAN_1
 62
    42
  6
CONTINUOUS
 10
0.031024
 20
-2.407980
  0
VERTEX
  8
PLAN_1
 62
    42
  6
CONTINUOUS
 10
-0.023051
 20
-2.385980
  0
VERTEX
  8
PLAN_1
 62
    42
  6
CONTINUOUS
 10
-0.073020
 20
-2.359949
  0
VERTEX
  8
PLAN_1
 62
    42
  6
CONTINUOUS
 10
-0.119000
 20
-2.330984
  0
VERTEX
  8
PLAN_1
 62
    42
  6
CONTINUOUS
 10
-0.159031
 20
-2.297047
  0
VERTEX
  8
PLAN_1
 62
    42
  6
CONTINUOUS
 10
-0.196055
 20
-2.262020
  0
VERTEX
  8
PLAN_1
 62
    42
  6
CONTINUOUS
 10
-0.227051
 20
-2.223024
  0
VERTEX
  8
PLAN_1
 62
    42
  6
CONTINUOUS
 10
-0.253063
 20
-2.183988
  0
VERTEX
  8
PLAN_1
 62
    42
  6
CONTINUOUS
 10
-0.273976
 20
-2.141039
  0
VERTEX
  8
PLAN_1
 62
    42
  6
CONTINUOUS
 10
-0.291047
 20
-2.096996
  0
VERTEX
  8
PLAN_1
 62
    42
  6
CONTINUOUS
 10
-0.303996
 20
-2.052031
  0
VERTEX
  8
PLAN_1
 62
    42
  6
CONTINUOUS
 10
-0.310996
 20
-2.006957
  0
VERTEX
  8
PLAN_1
 62
    42
  6
CONTINUOUS
 10
-0.313933
 20
-1.962012
  0
VERTEX
  8
PLAN_1
 62
    42
  6
CONTINUOUS
 10
-0.313012
 20
-1.916012
  0
VERTEX
  8
PLAN_1
 62
    42
  6
CONTINUOUS
 10
-0.304957
 20
-1.870972
  0
VERTEX
  8
PLAN_1
 62
    42
  6
CONTINUOUS
 10
-0.295055
 20
-1.826933
  0
VERTEX
  8
PLAN_1
 62
    42
  6
CONTINUOUS
 10
-0.277984
 20
-1.784016
  0
VERTEX
  8
PLAN_1
 62
    42
  6
CONTINUOUS
 10
-0.258957
 20
-1.742047
  0
VERTEX
  8
PLAN_1
 62
    42
  6
CONTINUOUS
 10
-0.234016
 20
-1.703972
  0
VERTEX
  8
PLAN_1
 62
    42
  6
CONTINUOUS
 10
-0.205031
 20
-1.665988
  0
VERTEX
  8
PLAN_1
 62
    42
  6
CONTINUOUS
 10
-0.170969
 20
-1.633016
  0
VERTEX
  8
PLAN_1
 62
    42
  6
CONTINUOUS
 10
-0.133039
 20
-1.600925
  0
VERTEX
  8
PLAN_1
 62
    42
  6
CONTINUOUS
 10
-0.091031
 20
-1.573953
  0
VERTEX
  8
PLAN_1
 62
    42
  6
CONTINUOUS
 10
-0.043961
 20
-1.549976
  0
VERTEX
  8
PLAN_1
 62
    42
  6
CONTINUOUS
 10
0.004992
 20
-1.530984
  0
VERTEX
  8
PLAN_1
 62
    42
  6
CONTINUOUS
 10
0.059972
 20
-1.516945
  0
VERTEX
  8
PLAN_1
 62
    42
  6
CONTINUOUS
 10
0.119937
 20
-1.507024
  0
VERTEX
  8
PLAN_1
 62
    42
  6
CONTINUOUS
 10
0.184965
 20
-1.501965
  0
VERTEX
  8
PLAN_1
 62
    42
  6
CONTINUOUS
 10
0.243008
 20
-1.503976
  0
VERTEX
  8
PLAN_1
 62
    42
  6
CONTINUOUS
 10
0.301016
 20
-1.510035
  0
VERTEX
  8
PLAN_1
 62
    42
  6
CONTINUOUS
 10
0.353996
 20
-1.521008
  0
VERTEX
  8
PLAN_1
 62
    42
  6
CONTINUOUS
 10
0.404024
 20
-1.534976
  0
VERTEX
  8
PLAN_1
 62
    42
  6
CONTINUOUS
 10
0.450945
 20
-1.554925
  0
VERTEX
  8
PLAN_1
 62
    42
  6
CONTINUOUS
 10
0.494949
 20
-1.578961
  0
VERTEX
  8
PLAN_1
 62
    42
  6
CONTINUOUS
 10
0.535961
 20
-1.604992
  0
VERTEX
  8
PLAN_1
 62
    42
  6
CONTINUOUS
 10
0.573941
 20
-1.635028
  0
VERTEX
  8
PLAN_1
 62
    42
  6
CONTINUOUS
 10
0.641020
 20
-1.705024
  0
VERTEX
  8
PLAN_1
 62
    42
  6
CONTINUOUS
 10
0.669988
 20
-1.742988
  0
VERTEX
  8
PLAN_1
 62
    42
  6
CONTINUOUS
 10
0.695980
 20
-1.784016
  0
VERTEX
  8
PLAN_1
 62
    42
  6
CONTINUOUS
 10
0.717980
 20
-1.828965
  0
VERTEX
  8
PLAN_1
 62
    42
  6
CONTINUOUS
 10
0.737969
 20
-1.874020
  0
VERTEX
  8
PLAN_1
 62
    42
  6
CONTINUOUS
 10
0.766957
 20
-1.970067
  0
VERTEX
  8
PLAN_1
 62
    42
  6
CONTINUOUS
 10
0.783063
 20
-2.071984
  0
VERTEX
  8
PLAN_1
 62
    42
  6
CONTINUOUS
 10
0.787016
 20
-2.176008
  0
VERTEX
  8
PLAN_1
 62
    42
  6
CONTINUOUS
 10
0.777929
 20
-2.280921
  0
VERTEX
  8
PLAN_1
 62
    42
  6
CONTINUOUS
 10
0.755039
 20
-2.385035
  0
VERTEX
  8
PLAN_1
 62
    42
  6
CONTINUOUS
 10
0.739984
 20
-2.435988
  0
VERTEX
  8
PLAN_1
 62
    42
  6
CONTINUOUS
 10
0.719996
 20
-2.486031
  0
VERTEX
  8
PLAN_1
 62
    42
  6
CONTINUOUS
 10
0.698012
 20
-2.534988
  0
VERTEX
  8
PLAN_1
 62
    42
  6
CONTINUOUS
 10
0.671945
 20
-2.582980
  0
VERTEX
  8
PLAN_1
 62
    42
  6
CONTINUOUS
 10
0.643016
 20
-2.628980
  0
VERTEX
  8
PLAN_1
 62
    42
  6
CONTINUOUS
 10
0.610004
 20
-2.672984
  0
VERTEX
  8
PLAN_1
 62
    42
  6
CONTINUOUS
 10
0.535039
 20
-2.754953
  0
VERTEX
  8
PLAN_1
 62
    42
  6
CONTINUOUS
 10
0.474020
 20
-2.804961
  0
VERTEX
  8
PLAN_1
 62
    42
  6
CONTINUOUS
 10
0.408031
 20
-2.846913
  0
VERTEX
  8
PLAN_1
 62
    42
  6
CONTINUOUS
 10
0.336039
 20
-2.883012
  0
VERTEX
  8
PLAN_1
 62
    42
  6
CONTINUOUS
 10
0.259949
 20
-2.909039
  0
VERTEX
  8
PLAN_1
 62
    42
  6
CONTINUOUS
 10
0.180953
 20
-2.927976
  0
VERTEX
  8
PLAN_1
 62
    42
  6
CONTINUOUS
 10
0.101039
 20
-2.938008
  0
VERTEX
  8
PLAN_1
 62
    42
  6
CONTINUOUS
 10
0.020031
 20
-2.938008
  0
VERTEX
  8
PLAN_1
 62
    42
  6
CONTINUOUS
 10
-0.060091
 20
-2.927976
  0
VERTEX
  8
PLAN_1
 62
    42
  6
CONTINUOUS
 10
-0.139043
 20
-2.907988
  0
VERTEX
  8
PLAN_1
 62
    42
  6
CONTINUOUS
 10
-0.217004
 20
-2.879020
  0
VERTEX
  8
PLAN_1
 62
    42
  6
CONTINUOUS
 10
-0.291047
 20
-2.837953
  0
VERTEX
  8
PLAN_1
 62
    42
  6
CONTINUOUS
 10
-0.361965
 20
-2.786063
  0
VERTEX
  8
PLAN_1
 62
    42
  6
CONTINUOUS
 10
-0.425957
 20
-2.721016
  0
VERTEX
  8
PLAN_1
 62
    42
  6
CONTINUOUS
 10
-0.484925
 20
-2.646012
  0
VERTEX
  8
PLAN_1
 62
    42
  6
CONTINUOUS
 10
-0.536043
 20
-2.556988
  0
VERTEX
  8
PLAN_1
 62
    42
  6
CONTINUOUS
 10
-0.578957
 20
-2.457047
  0
VERTEX
  8
PLAN_1
 62
    42
  6
CONTINUOUS
 10
-0.600976
 20
-2.378996
  0
VERTEX
  8
PLAN_1
 62
    42
  6
CONTINUOUS
 10
-0.613965
 20
-2.295976
  0
VERTEX
  8
PLAN_1
 62
    42
  6
CONTINUOUS
 10
-0.620024
 20
-2.207969
  0
VERTEX
  8
PLAN_1
 62
    42
  6
CONTINUOUS
 10
-0.618008
 20
-2.113957
  0
VERTEX
  8
PLAN_1
 62
    42
  6
CONTINUOUS
 10
-0.607961
 20
-2.016988
  0
VERTEX
  8
PLAN_1
 62
    42
  6
CONTINUOUS
 10
-0.591039
 20
-1.916012
  0
VERTEX
  8
PLAN_1
 62
    42
  6
CONTINUOUS
 10
-0.567984
 20
-1.813965
  0
VERTEX
  8
PLAN_1
 62
    42
  6
CONTINUOUS
 10
-0.536984
 20
-1.709976
  0
VERTEX
  8
PLAN_1
 62
    42
  6
CONTINUOUS
 10
-0.501055
 20
-1.602976
  0
VERTEX
  8
PLAN_1
 62
    42
  6
CONTINUOUS
 10
-0.457972
 20
-1.497012
  0
VERTEX
  8
PLAN_1
 62
    42
  6
CONTINUOUS
 10
-0.409035
 20
-1.391028
  0
VERTEX
  8
PLAN_1
 62
    42
  6
CONTINUOUS
 10
-0.356055
 20
-1.286024
  0
VERTEX
  8
PLAN_1
 62
    42
  6
CONTINUOUS
 10
-0.297051
 20
-1.181945
  0
VERTEX
  8
PLAN_1
 62
    42
  6
CONTINUOUS
 10
-0.231984
 20
-1.081984
  0
VERTEX
  8
PLAN_1
 62
    42
  6
CONTINUOUS
 10
-0.164004
 20
-0.983039
  0
VERTEX
  8
PLAN_1
 62
    42
  6
CONTINUOUS
 10
-0.091031
 20
-0.889953
  0
VERTEX
  8
PLAN_1
 62
    42
  6
CONTINUOUS
 10
-0.025969
 20
-0.805012
  0
VERTEX
  8
PLAN_1
 62
    42
  6
CONTINUOUS
 10
0.031024
 20
-0.716024
  0
VERTEX
  8
PLAN_1
 62
    42
  6
CONTINUOUS
 10
0.081031
 20
-0.623028
  0
VERTEX
  8
PLAN_1
 62
    42
  6
CONTINUOUS
 10
0.121969
 20
-0.529051
  0
VERTEX
  8
PLAN_1
 62
    42
  6
CONTINUOUS
 10
0.158028
 20
-0.435020
  0
VERTEX
  8
PLAN_1
 62
    42
  6
CONTINUOUS
 10
0.182988
 20
-0.343024
  0
VERTEX
  8
PLAN_1
 62
    42
  6
CONTINUOUS
 10
0.200020
 20
-0.251949
  0
VERTEX
  8
PLAN_1
 62
    42
  6
CONTINUOUS
 10
0.208035
 20
-0.165031
  0
VERTEX
  8
PLAN_1
 62
    42
  6
CONTINUOUS
 10
0.206059
 20
-0.084043
  0
VERTEX
  8
PLAN_1
 62
    42
  6
CONTINUOUS
 10
0.193961
 20
-0.009039
  0
VERTEX
  8
PLAN_1
 62
    42
  6
CONTINUOUS
 10
0.171957
 20
0.056008
  0
VERTEX
  8
PLAN_1
 62
    42
  6
CONTINUOUS
 10
0.156957
 20
0.086988
  0
VERTEX
  8
PLAN_1
 62
    42
  6
CONTINUOUS
 10
0.138984
 20
0.113957
  0
VERTEX
  8
PLAN_1
 62
    42
  6
CONTINUOUS
 10
0.094996
 20
0.161028
  0
VERTEX
  8
PLAN_1
 62
    42
  6
CONTINUOUS
 10
0.068969
 20
0.181000
  0
VERTEX
  8
PLAN_1
 62
    42
  6
CONTINUOUS
 10
0.040000
 20
0.196961
  0
VERTEX
  8
PLAN_1
 62
    42
  6
CONTINUOUS
 10
0.007043
 20
0.209965
  0
VERTEX
  8
PLAN_1
 62
    42
  6
CONTINUOUS
 10
-0.025969
 20
0.218961
  0
VERTEX
  8
PLAN_1
 62
    42
  6
CONTINUOUS
 10
-0.106071
 20
0.226000
  0
VERTEX
  8
PLAN_1
 62
    42
  6
CONTINUOUS
 10
-0.144937
 20
0.224079
  0
VERTEX
  8
PLAN_1
 62
    42
  6
CONTINUOUS
 10
-0.183031
 20
0.216004
  0
VERTEX
  8
PLAN_1
 62
    42
  6
CONTINUOUS
 10
-0.217004
 20
0.207008
  0
VERTEX
  8
PLAN_1
 62
    42
  6
CONTINUOUS
 10
-0.247945
 20
0.191047
  0
VERTEX
  8
PLAN_1
 62
    42
  6
CONTINUOUS
 10
-0.275988
 20
0.172020
  0
VERTEX
  8
PLAN_1
 62
    42
  6
CONTINUOUS
 10
-0.302020
 20
0.150020
  0
VERTEX
  8
PLAN_1
 62
    42
  6
CONTINUOUS
 10
-0.324020
 20
0.123988
  0
VERTEX
  8
PLAN_1
 62
    42
  6
CONTINUOUS
 10
-0.345043
 20
0.093969
  0
VERTEX
  8
PLAN_1
 62
    42
  6
CONTINUOUS
 10
-0.378980
 20
0.029035
  0
VERTEX
  8
PLAN_1
 62
    42
  6
CONTINUOUS
 10
-0.403016
 20
-0.047945
  0
VERTEX
  8
PLAN_1
 62
    42
  6
CONTINUOUS
 10
-0.418937
 20
-0.134051
  0
VERTEX
  8
PLAN_1
 62
    42
  6
CONTINUOUS
 10
-0.429024
 20
-0.224976
  0
VERTEX
  8
PLAN_1
 62
    42
  6
CONTINUOUS
 10
-0.431039
 20
-0.323035
  0
VERTEX
  8
PLAN_1
 62
    42
  6
CONTINUOUS
 10
-0.429024
 20
-0.421996
  0
VERTEX
  8
PLAN_1
 62
    42
  6
CONTINUOUS
 10
-0.409035
 20
-0.626000
  0
VERTEX
  8
PLAN_1
 62
    42
  6
CONTINUOUS
 10
-0.376965
 20
-0.821949
  0
VERTEX
  8
PLAN_1
 62
    42
  6
CONTINUOUS
 10
-0.337949
 20
-0.994051
  0
SEQEND
  8
0
  0
POLYLINE
  8
PLAN_1
 62
    42
  6
CONTINUOUS
 66
     1
 40
0.013000
 41
0.013000
 70
     1
  0
VERTEX
  8
PLAN_1
 62
    42
  6
CONTINUOUS
 10
-0.074000
 20
-1.415043
  0
VERTEX
  8
PLAN_1
 62
    42
  6
CONTINUOUS
 10
-0.201984
 20
-1.042063
  0
VERTEX
  8
PLAN_1
 62
    42
  6
CONTINUOUS
 10
-0.242055
 20
-1.100016
  0
VERTEX
  8
PLAN_1
 62
    42
  6
CONTINUOUS
 10
-0.288976
 20
-1.178028
  0
VERTEX
  8
PLAN_1
 62
    42
  6
CONTINUOUS
 10
-0.236992
 20
-1.341925
  0
VERTEX
  8
PLAN_1
 62
    42
  6
CONTINUOUS
 10
-0.192047
 20
-1.488941
  0
VERTEX
  8
PLAN_1
 62
    42
  6
CONTINUOUS
 10
-0.131008
 20
-1.446063
  0
SEQEND
  8
0
  0
POLYLINE
  8
PLAN_1
 62
    42
  6
CONTINUOUS
 66
     1
 40
0.013000
 41
0.013000
 70
     1
  0
VERTEX
  8
PLAN_1
 62
    42
  6
CONTINUOUS
 10
0.250988
 20
-2.440016
  0
VERTEX
  8
PLAN_1
 62
    42
  6
CONTINUOUS
 10
0.228043
 20
-2.328953
  0
VERTEX
  8
PLAN_1
 62
    42
  6
CONTINUOUS
 10
0.204028
 20
-2.245008
  0
VERTEX
  8
PLAN_1
 62
    42
  6
CONTINUOUS
 10
-0.030937
 20
-1.549051
  0
VERTEX
  8
PLAN_1
 62
    42
  6
CONTINUOUS
 10
-0.058980
 20
-1.561004
  0
VERTEX
  8
PLAN_1
 62
    42
  6
CONTINUOUS
 10
-0.093969
 20
-1.580957
  0
VERTEX
  8
PLAN_1
 62
    42
  6
CONTINUOUS
 10
-0.128035
 20
-1.602976
  0
VERTEX
  8
PLAN_1
 62
    42
  6
CONTINUOUS
 10
-0.153988
 20
-1.622929
  0
VERTEX
  8
PLAN_1
 62
    42
  6
CONTINUOUS
 10
-0.060992
 20
-2.001988
  0
VERTEX
  8
PLAN_1
 62
    42
  6
CONTINUOUS
 10
0.026055
 20
-2.402016
  0
VERTEX
  8
PLAN_1
 62
    42
  6
CONTINUOUS
 10
0.073972
 20
-2.416016
  0
VERTEX
  8
PLAN_1
 62
    42
  6
CONTINUOUS
 10
0.138984
 20
-2.429945
  0
VERTEX
  8
PLAN_1
 62
    42
  6
CONTINUOUS
 10
0.204028
 20
-2.438020
  0
SEQEND
  8
0
  0
POLYLINE
  8
PLAN_1
 62
    42
  6
CONTINUOUS
 66
     1
 40
0.013000
 41
0.013000
 70
     1
  0
VERTEX
  8
PLAN_1
 62
    42
  6
CONTINUOUS
 10
0.263957
 20
-2.515996
  0
VERTEX
  8
PLAN_1
 62
    42
  6
CONTINUOUS
 10
0.283020
 20
-2.696980
  0
VERTEX
  8
PLAN_1
 62
    42
  6
CONTINUOUS
 10
0.287992
 20
-2.796000
  0
VERTEX
  8
PLAN_1
 62
    42
  6
CONTINUOUS
 10
0.283020
 20
-2.892008
  0
VERTEX
  8
PLAN_1
 62
    42
  6
CONTINUOUS
 10
0.265028
 20
-2.982028
  0
VERTEX
  8
PLAN_1
 62
    42
  6
CONTINUOUS
 10
0.239055
 20
-3.069059
  0
VERTEX
  8
PLAN_1
 62
    42
  6
CONTINUOUS
 10
0.202976
 20
-3.150028
  0
VERTEX
  8
PLAN_1
 62
    42
  6
CONTINUOUS
 10
0.160965
 20
-3.225067
  0
VERTEX
  8
PLAN_1
 62
    42
  6
CONTINUOUS
 10
0.110957
 20
-3.295969
  0
VERTEX
  8
PLAN_1
 62
    42
  6
CONTINUOUS
 10
0.053949
 20
-3.359961
  0
VERTEX
  8
PLAN_1
 62
    42
  6
CONTINUOUS
 10
-0.003984
 20
-3.418043
  0
VERTEX
  8
PLAN_1
 62
    42
  6
CONTINUOUS
 10
-0.067035
 20
-3.469933
  0
VERTEX
  8
PLAN_1
 62
    42
  6
CONTINUOUS
 10
-0.133039
 20
-3.513976
  0
VERTEX
  8
PLAN_1
 62
    42
  6
CONTINUOUS
 10
-0.199012
 20
-3.550035
  0
VERTEX
  8
PLAN_1
 62
    42
  6
CONTINUOUS
 10
-0.267012
 20
-3.578949
  0
VERTEX
  8
PLAN_1
 62
    42
  6
CONTINUOUS
 10
-0.334016
 20
-3.598953
  0
VERTEX
  8
PLAN_1
 62
    42
  6
CONTINUOUS
 10
-0.398988
 20
-3.611996
  0
VERTEX
  8
PLAN_1
 62
    42
  6
CONTINUOUS
 10
-0.462020
 20
-3.615008
  0
VERTEX
  8
PLAN_1
 62
    42
  6
CONTINUOUS
 10
-0.536043
 20
-3.611035
  0
VERTEX
  8
PLAN_1
 62
    42
  6
CONTINUOUS
 10
-0.604043
 20
-3.602059
  0
VERTEX
  8
PLAN_1
 62
    42
  6
CONTINUOUS
 10
-0.666965
 20
-3.589051
  0
VERTEX
  8
PLAN_1
 62
    42
  6
CONTINUOUS
 10
-0.725949
 20
-3.569988
  0
VERTEX
  8
PLAN_1
 62
    42
  6
CONTINUOUS
 10
-0.778933
 20
-3.547008
  0
VERTEX
  8
PLAN_1
 62
    42
  6
CONTINUOUS
 10
-0.826024
 20
-3.521071
  0
VERTEX
  8
PLAN_1
 62
    42
  6
CONTINUOUS
 10
-0.870913
 20
-3.488980
  0
VERTEX
  8
PLAN_1
 62
    42
  6
CONTINUOUS
 10
-0.909059
 20
-3.456004
  0
VERTEX
  8
PLAN_1
 62
    42
  6
CONTINUOUS
 10
-0.944992
 20
-3.416028
  0
VERTEX
  8
PLAN_1
 62
    42
  6
CONTINUOUS
 10
-0.973996
 20
-3.376035
  0
VERTEX
  8
PLAN_1
 62
    42
  6
CONTINUOUS
 10
-1.001039
 20
-3.330976
  0
VERTEX
  8
PLAN_1
 62
    42
  6
CONTINUOUS
 10
-1.021972
 20
-3.282984
  0
VERTEX
  8
PLAN_1
 62
    42
  6
CONTINUOUS
 10
-1.039945
 20
-3.232937
  0
VERTEX
  8
PLAN_1
 62
    42
  6
CONTINUOUS
 10
-1.054039
 20
-3.179972
  0
VERTEX
  8
PLAN_1
 62
    42
  6
CONTINUOUS
 10
-1.071000
 20
-3.069059
  0
VERTEX
  8
PLAN_1
 62
    42
  6
CONTINUOUS
 10
-1.071000
 20
-3.008020
  0
VERTEX
  8
PLAN_1
 62
    42
  6
CONTINUOUS
 10
-1.063961
 20
-2.968043
  0
VERTEX
  8
PLAN_1
 62
    42
  6
CONTINUOUS
 10
-1.050016
 20
-2.946024
  0
VERTEX
  8
PLAN_1
 62
    42
  6
CONTINUOUS
 10
-1.041961
 20
-2.940980
  0
VERTEX
  8
PLAN_1
 62
    42
  6
CONTINUOUS
 10
-1.034035
 20
-2.940020
  0
VERTEX
  8
PLAN_1
 62
    42
  6
CONTINUOUS
 10
-1.017961
 20
-2.947004
  0
VERTEX
  8
PLAN_1
 62
    42
  6
CONTINUOUS
 10
-1.006028
 20
-2.966067
  0
VERTEX
  8
PLAN_1
 62
    42
  6
CONTINUOUS
 10
-0.999988
 20
-2.990988
  0
VERTEX
  8
PLAN_1
 62
    42
  6
CONTINUOUS
 10
-1.001965
 20
-3.025016
  0
VERTEX
  8
PLAN_1
 62
    42
  6
CONTINUOUS
 10
-0.997972
 20
-3.078020
  0
VERTEX
  8
PLAN_1
 62
    42
  6
CONTINUOUS
 10
-0.984008
 20
-3.151008
  0
VERTEX
  8
PLAN_1
 62
    42
  6
CONTINUOUS
 10
-0.971945
 20
-3.192055
  0
VERTEX
  8
PLAN_1
 62
    42
  6
CONTINUOUS
 10
-0.955965
 20
-3.234008
  0
VERTEX
  8
PLAN_1
 62
    42
  6
CONTINUOUS
 10
-0.936917
 20
-3.276921
  0
VERTEX
  8
PLAN_1
 62
    42
  6
CONTINUOUS
 10
-0.911020
 20
-3.319984
  0
VERTEX
  8
PLAN_1
 62
    42
  6
CONTINUOUS
 10
-0.881035
 20
-3.361051
  0
VERTEX
  8
PLAN_1
 62
    42
  6
CONTINUOUS
 10
-0.843996
 20
-3.401012
  0
VERTEX
  8
PLAN_1
 62
    42
  6
CONTINUOUS
 10
-0.802024
 20
-3.434945
  0
VERTEX
  8
PLAN_1
 62
    42
  6
CONTINUOUS
 10
-0.751961
 20
-3.466091
  0
VERTEX
  8
PLAN_1
 62
    42
  6
CONTINUOUS
 10
-0.696043
 20
-3.490016
  0
VERTEX
  8
PLAN_1
 62
    42
  6
CONTINUOUS
 10
-0.631957
 20
-3.508969
  0
VERTEX
  8
PLAN_1
 62
    42
  6
CONTINUOUS
 10
-0.558988
 20
-3.519055
  0
VERTEX
  8
PLAN_1
 62
    42
  6
CONTINUOUS
 10
-0.477039
 20
-3.521071
  0
VERTEX
  8
PLAN_1
 62
    42
  6
CONTINUOUS
 10
-0.407024
 20
-3.512996
  0
VERTEX
  8
PLAN_1
 62
    42
  6
CONTINUOUS
 10
-0.341976
 20
-3.497035
  0
VERTEX
  8
PLAN_1
 62
    42
  6
CONTINUOUS
 10
-0.282953
 20
-3.473020
  0
VERTEX
  8
PLAN_1
 62
    42
  6
CONTINUOUS
 10
-0.227996
 20
-3.444035
  0
VERTEX
  8
PLAN_1
 62
    42
  6
CONTINUOUS
 10
-0.179024
 20
-3.407976
  0
VERTEX
  8
PLAN_1
 62
    42
  6
CONTINUOUS
 10
-0.133039
 20
-3.365984
  0
VERTEX
  8
PLAN_1
 62
    42
  6
CONTINUOUS
 10
-0.091957
 20
-3.320984
  0
VERTEX
  8
PLAN_1
 62
    42
  6
CONTINUOUS
 10
-0.056024
 20
-3.273043
  0
VERTEX
  8
PLAN_1
 62
    42
  6
CONTINUOUS
 10
-0.023051
 20
-3.221004
  0
VERTEX
  8
PLAN_1
 62
    42
  6
CONTINUOUS
 10
0.002055
 20
-3.168965
  0
VERTEX
  8
PLAN_1
 62
    42
  6
CONTINUOUS
 10
0.026055
 20
-3.116000
  0
VERTEX
  8
PLAN_1
 62
    42
  6
CONTINUOUS
 10
0.046965
 20
-3.063035
  0
VERTEX
  8
PLAN_1
 62
    42
  6
CONTINUOUS
 10
0.075047
 20
-2.962024
  0
VERTEX
  8
PLAN_1
 62
    42
  6
CONTINUOUS
 10
0.090969
 20
-2.872020
  0
VERTEX
  8
PLAN_1
 62
    42
  6
CONTINUOUS
 10
0.088976
 20
-2.811925
  0
VERTEX
  8
PLAN_1
 62
    42
  6
CONTINUOUS
 10
0.079035
 20
-2.723953
  0
VERTEX
  8
PLAN_1
 62
    42
  6
CONTINUOUS
 10
0.040000
 20
-2.484941
  0
VERTEX
  8
PLAN_1
 62
    42
  6
CONTINUOUS
 10
0.092984
 20
-2.497043
  0
VERTEX
  8
PLAN_1
 62
    42
  6
CONTINUOUS
 10
0.160965
 20
-2.506020
  0
SEQEND
  8
0
  0
ENDSEC
  0
EOF
