  0
SECTION
  2
HEADER
  9
$EXTMIN
 10
0.000000
 20
0.000000
  9
$EXTMAX
 10
21.005291
 20
29.703704
  9
$LTSCALE
 40
0.529101
  9
$PDMODE
 70
    35
  9
$PDSIZE
 40
0.423280
  0
ENDSEC
  0
SECTION
  2
TABLES
  0
TABLE
  2
LTYPE
 70
     9
  0
LTYPE
  2
CONTINUOUS
 70
    64
  3
Solid line
 72
    65
 73
     0
 40
0.000000
  0
LTYPE
  2
DASHED
 70
    64
  3
__ __ __ __ __ __ __ __ __ __ __ __ __ __ __
 72
    65
 73
     2
 40
0.003968
 49
0.002646
 49
-0.001323
  0
LTYPE
  2
HIDDEN
 70
    64
  3
 _ _ _ _ _ _ _ _ _ _ _ _ _ _ _ _ _ _ _ _ _ _
 72
    65
 73
     2
 40
0.001984
 49
0.001323
 49
-0.000661
  0
LTYPE
  2
CENTER
 70
    64
  3
____ _ ____ _ ____ _ ____ _ ____ _ ____ _ ____
 72
    65
 73
     4
 40
0.010582
 49
0.006614
 49
-0.001323
 49
0.001323
 49
-0.001323
  0
LTYPE
  2
PHANTOM
 70
    64
  3
_____ _ _ _____ _ _ _____ _ _ _____ _ _ ____
 72
    65
 73
     6
 40
0.013228
 49
0.006614
 49
-0.001323
 49
0.001323
 49
-0.001323
 49
0.001323
 49
-0.001323
  0
LTYPE
  2
DOT
 70
    64
  3
...............................................
 72
    65
 73
     2
 40
0.001323
 49
0.000000
 49
-0.001323
  0
LTYPE
  2
DASHDOT
 70
    64
  3
__ . __ . __ . __ . __ . __ . __ . __ . __ . __
 72
    65
 73
     4
 40
0.005291
 49
0.002646
 49
-0.001323
 49
0.000000
 49
-0.001323
  0
LTYPE
  2
BORDER
 70
    64
  3
__ __ . __ __ . __ __ . __ __ . __ __ . __ __
 72
    65
 73
     6
 40
0.009259
 49
0.002646
 49
-0.001323
 49
0.002646
 49
-0.001323
 49
0.000000
 49
-0.001323
  0
LTYPE
  2
DIVIDE
 70
    64
  3
__ . . __ . . __ . . __ . . __ . . __ . . __
 72
    65
 73
     6
 40
0.006614
 49
0.002646
 49
-0.001323
 49
0.000000
 49
-0.001323
 49
0.000000
 49
-0.001323
  0
LTYPE
  2
DOTDOT
 70
    64
  3
 . .  . .  . .  . .  . .  . . 
 72
    65
 73
     5
 40
0.002910
 49
-0.001323
 49
0.000000
 49
-0.001323
 49
0.000000
 49
-0.001323
  0
ENDTAB
  0
TABLE
  2
STYLE
 70
     2
  0
STYLE
 70
     0
  2
SN0
 40
0.000000
 41
0.005291
 50
0.000000
 71
     0
 42
0.000000
  3
ROMANS
  0
STYLE
 70
    68
  2
SV0
 40
0.000000
 41
0.005291
 50
0.000000
 71
     0
 42
0.000000
  3
ROMANS
  0
ENDTAB
  0
TABLE
  2
LAYER
 70
     3
  0
LAYER
  2
FOREGROUND
 70
    64
 62
     7
  6
CONTINUOUS
  0
LAYER
  2
BACKGROUND
 70
    65
 62
    -7
  6
CONTINUOUS
  0
LAYER
  2
COUCHE1
 70
    64
 62
     7
  6
CONTINUOUS
  0
ENDTAB
  0
ENDSEC
  0
SECTION
  2
ENTITIES
  0
POLYLINE
  8
COUCHE1
  6
CONTINUOUS
 66
     1
 40
0.000000
 41
0.000000
  0
VERTEX
  8
COUCHE1
  6
CONTINUOUS
 10
9.735450
 20
13.682540
  0
VERTEX
  8
COUCHE1
  6
CONTINUOUS
 10
9.698413
 20
13.693122
  0
VERTEX
  8
COUCHE1
  6
CONTINUOUS
 10
9.656085
 20
13.714286
  0
VERTEX
  8
COUCHE1
  6
CONTINUOUS
 10
9.624339
 20
13.724868
  0
VERTEX
  8
COUCHE1
  6
CONTINUOUS
 10
9.592593
 20
13.746032
  0
VERTEX
  8
COUCHE1
  6
CONTINUOUS
 10
9.560847
 20
13.772487
  0
VERTEX
  8
COUCHE1
  6
CONTINUOUS
 10
9.544974
 20
13.793651
  0
VERTEX
  8
COUCHE1
  6
CONTINUOUS
 10
9.518519
 20
13.820106
  0
VERTEX
  8
COUCHE1
  6
CONTINUOUS
 10
9.502646
 20
13.846561
  0
VERTEX
  8
COUCHE1
  6
CONTINUOUS
 10
9.481481
 20
13.873016
  0
VERTEX
  8
COUCHE1
  6
CONTINUOUS
 10
9.470899
 20
13.899471
  0
VERTEX
  8
COUCHE1
  6
CONTINUOUS
 10
9.460317
 20
13.931217
  0
VERTEX
  8
COUCHE1
  6
CONTINUOUS
 10
9.455026
 20
13.968254
  0
VERTEX
  8
COUCHE1
  6
CONTINUOUS
 10
9.455026
 20
13.994709
  0
VERTEX
  8
COUCHE1
  6
CONTINUOUS
 10
9.449735
 20
14.031746
  0
VERTEX
  8
COUCHE1
  6
CONTINUOUS
 10
9.455026
 20
14.058201
  0
VERTEX
  8
COUCHE1
  6
CONTINUOUS
 10
9.460317
 20
14.095238
  0
VERTEX
  8
COUCHE1
  6
CONTINUOUS
 10
9.460317
 20
14.126984
  0
VERTEX
  8
COUCHE1
  6
CONTINUOUS
 10
9.470899
 20
14.153439
  0
VERTEX
  8
COUCHE1
  6
CONTINUOUS
 10
9.476190
 20
14.169312
  0
VERTEX
  8
COUCHE1
  6
CONTINUOUS
 10
9.481481
 20
14.195767
  0
VERTEX
  8
COUCHE1
  6
CONTINUOUS
 10
9.497354
 20
14.222222
  0
VERTEX
  8
COUCHE1
  6
CONTINUOUS
 10
9.507937
 20
14.243386
  0
VERTEX
  8
COUCHE1
  6
CONTINUOUS
 10
9.518519
 20
14.264550
  0
VERTEX
  8
COUCHE1
  6
CONTINUOUS
 10
9.544974
 20
14.291005
  0
SEQEND
  8
0
  0
POLYLINE
  8
COUCHE1
  6
CONTINUOUS
 66
     1
 40
0.000000
 41
0.000000
  0
VERTEX
  8
COUCHE1
  6
CONTINUOUS
 10
9.544974
 20
14.291005
  0
VERTEX
  8
COUCHE1
  6
CONTINUOUS
 10
9.507937
 20
14.301587
  0
VERTEX
  8
COUCHE1
  6
CONTINUOUS
 10
9.476190
 20
14.317460
  0
VERTEX
  8
COUCHE1
  6
CONTINUOUS
 10
9.449735
 20
14.338624
  0
VERTEX
  8
COUCHE1
  6
CONTINUOUS
 10
9.423280
 20
14.354497
  0
VERTEX
  8
COUCHE1
  6
CONTINUOUS
 10
9.402116
 20
14.375661
  0
VERTEX
  8
COUCHE1
  6
CONTINUOUS
 10
9.380952
 20
14.391534
  0
VERTEX
  8
COUCHE1
  6
CONTINUOUS
 10
9.370370
 20
14.412698
  0
VERTEX
  8
COUCHE1
  6
CONTINUOUS
 10
9.354497
 20
14.433862
  0
VERTEX
  8
COUCHE1
  6
CONTINUOUS
 10
9.343915
 20
14.455026
  0
VERTEX
  8
COUCHE1
  6
CONTINUOUS
 10
9.328042
 20
14.476190
  0
VERTEX
  8
COUCHE1
  6
CONTINUOUS
 10
9.322751
 20
14.497354
  0
VERTEX
  8
COUCHE1
  6
CONTINUOUS
 10
9.322751
 20
14.518519
  0
VERTEX
  8
COUCHE1
  6
CONTINUOUS
 10
9.322751
 20
14.539683
  0
VERTEX
  8
COUCHE1
  6
CONTINUOUS
 10
9.322751
 20
14.566138
  0
VERTEX
  8
COUCHE1
  6
CONTINUOUS
 10
9.328042
 20
14.597884
  0
VERTEX
  8
COUCHE1
  6
CONTINUOUS
 10
9.333333
 20
14.619048
  0
VERTEX
  8
COUCHE1
  6
CONTINUOUS
 10
9.343915
 20
14.640212
  0
VERTEX
  8
COUCHE1
  6
CONTINUOUS
 10
9.349206
 20
14.671958
  0
VERTEX
  8
COUCHE1
  6
CONTINUOUS
 10
9.359788
 20
14.698413
  0
VERTEX
  8
COUCHE1
  6
CONTINUOUS
 10
9.375661
 20
14.724868
  0
VERTEX
  8
COUCHE1
  6
CONTINUOUS
 10
9.396825
 20
14.761905
  0
VERTEX
  8
COUCHE1
  6
CONTINUOUS
 10
9.412698
 20
14.788360
  0
VERTEX
  8
COUCHE1
  6
CONTINUOUS
 10
9.433862
 20
14.820106
  0
VERTEX
  8
COUCHE1
  6
CONTINUOUS
 10
9.460317
 20
14.857143
  0
SEQEND
  8
0
  0
POLYLINE
  8
COUCHE1
  6
CONTINUOUS
 66
     1
 40
0.000000
 41
0.000000
  0
VERTEX
  8
COUCHE1
  6
CONTINUOUS
 10
9.460317
 20
14.857143
  0
VERTEX
  8
COUCHE1
  6
CONTINUOUS
 10
9.423280
 20
14.867725
  0
VERTEX
  8
COUCHE1
  6
CONTINUOUS
 10
9.386243
 20
14.883598
  0
VERTEX
  8
COUCHE1
  6
CONTINUOUS
 10
9.354497
 20
14.904762
  0
VERTEX
  8
COUCHE1
  6
CONTINUOUS
 10
9.328042
 20
14.931217
  0
VERTEX
  8
COUCHE1
  6
CONTINUOUS
 10
9.301587
 20
14.952381
  0
VERTEX
  8
COUCHE1
  6
CONTINUOUS
 10
9.280423
 20
14.978836
  0
VERTEX
  8
COUCHE1
  6
CONTINUOUS
 10
9.259259
 20
15.005291
  0
VERTEX
  8
COUCHE1
  6
CONTINUOUS
 10
9.248677
 20
15.042328
  0
VERTEX
  8
COUCHE1
  6
CONTINUOUS
 10
9.232804
 20
15.063492
  0
VERTEX
  8
COUCHE1
  6
CONTINUOUS
 10
9.216931
 20
15.100529
  0
VERTEX
  8
COUCHE1
  6
CONTINUOUS
 10
9.216931
 20
15.137566
  0
VERTEX
  8
COUCHE1
  6
CONTINUOUS
 10
9.206349
 20
15.185185
  0
VERTEX
  8
COUCHE1
  6
CONTINUOUS
 10
9.206349
 20
15.216931
  0
VERTEX
  8
COUCHE1
  6
CONTINUOUS
 10
9.216931
 20
15.253968
  0
VERTEX
  8
COUCHE1
  6
CONTINUOUS
 10
9.216931
 20
15.291005
  0
VERTEX
  8
COUCHE1
  6
CONTINUOUS
 10
9.227513
 20
15.328042
  0
VERTEX
  8
COUCHE1
  6
CONTINUOUS
 10
9.232804
 20
15.354497
  0
VERTEX
  8
COUCHE1
  6
CONTINUOUS
 10
9.248677
 20
15.386243
  0
VERTEX
  8
COUCHE1
  6
CONTINUOUS
 10
9.264550
 20
15.407407
  0
VERTEX
  8
COUCHE1
  6
CONTINUOUS
 10
9.285714
 20
15.439153
  0
VERTEX
  8
COUCHE1
  6
CONTINUOUS
 10
9.306878
 20
15.455026
  0
VERTEX
  8
COUCHE1
  6
CONTINUOUS
 10
9.333333
 20
15.476190
  0
VERTEX
  8
COUCHE1
  6
CONTINUOUS
 10
9.359788
 20
15.497354
  0
VERTEX
  8
COUCHE1
  6
CONTINUOUS
 10
9.396825
 20
15.513228
  0
SEQEND
  8
0
  0
POLYLINE
  8
COUCHE1
  6
CONTINUOUS
 66
     1
 40
0.000000
 41
0.000000
  0
VERTEX
  8
COUCHE1
  6
CONTINUOUS
 10
9.396825
 20
15.513228
  0
VERTEX
  8
COUCHE1
  6
CONTINUOUS
 10
9.359788
 20
15.544974
  0
VERTEX
  8
COUCHE1
  6
CONTINUOUS
 10
9.333333
 20
15.571429
  0
VERTEX
  8
COUCHE1
  6
CONTINUOUS
 10
9.306878
 20
15.603175
  0
VERTEX
  8
COUCHE1
  6
CONTINUOUS
 10
9.285714
 20
15.634921
  0
VERTEX
  8
COUCHE1
  6
CONTINUOUS
 10
9.264550
 20
15.671958
  0
VERTEX
  8
COUCHE1
  6
CONTINUOUS
 10
9.248677
 20
15.698413
  0
VERTEX
  8
COUCHE1
  6
CONTINUOUS
 10
9.232804
 20
15.730159
  0
VERTEX
  8
COUCHE1
  6
CONTINUOUS
 10
9.227513
 20
15.767196
  0
VERTEX
  8
COUCHE1
  6
CONTINUOUS
 10
9.216931
 20
15.798942
  0
VERTEX
  8
COUCHE1
  6
CONTINUOUS
 10
9.216931
 20
15.835979
  0
VERTEX
  8
COUCHE1
  6
CONTINUOUS
 10
9.206349
 20
15.873016
  0
VERTEX
  8
COUCHE1
  6
CONTINUOUS
 10
9.216931
 20
15.915344
  0
VERTEX
  8
COUCHE1
  6
CONTINUOUS
 10
9.216931
 20
15.947090
  0
VERTEX
  8
COUCHE1
  6
CONTINUOUS
 10
9.216931
 20
15.989418
  0
VERTEX
  8
COUCHE1
  6
CONTINUOUS
 10
9.232804
 20
16.021164
  0
VERTEX
  8
COUCHE1
  6
CONTINUOUS
 10
9.248677
 20
16.058201
  0
VERTEX
  8
COUCHE1
  6
CONTINUOUS
 10
9.259259
 20
16.089947
  0
VERTEX
  8
COUCHE1
  6
CONTINUOUS
 10
9.275132
 20
16.111111
  0
VERTEX
  8
COUCHE1
  6
CONTINUOUS
 10
9.296296
 20
16.142857
  0
VERTEX
  8
COUCHE1
  6
CONTINUOUS
 10
9.322751
 20
16.164021
  0
VERTEX
  8
COUCHE1
  6
CONTINUOUS
 10
9.349206
 20
16.190476
  0
VERTEX
  8
COUCHE1
  6
CONTINUOUS
 10
9.375661
 20
16.211640
  0
VERTEX
  8
COUCHE1
  6
CONTINUOUS
 10
9.402116
 20
16.232804
  0
VERTEX
  8
COUCHE1
  6
CONTINUOUS
 10
9.444444
 20
16.253968
  0
SEQEND
  8
0
  0
POLYLINE
  8
COUCHE1
  6
CONTINUOUS
 66
     1
 40
0.000000
 41
0.000000
  0
VERTEX
  8
COUCHE1
  6
CONTINUOUS
 10
9.444444
 20
16.253968
  0
VERTEX
  8
COUCHE1
  6
CONTINUOUS
 10
9.423280
 20
16.301587
  0
VERTEX
  8
COUCHE1
  6
CONTINUOUS
 10
9.402116
 20
16.349206
  0
VERTEX
  8
COUCHE1
  6
CONTINUOUS
 10
9.386243
 20
16.402116
  0
VERTEX
  8
COUCHE1
  6
CONTINUOUS
 10
9.380952
 20
16.449735
  0
VERTEX
  8
COUCHE1
  6
CONTINUOUS
 10
9.375661
 20
16.497354
  0
VERTEX
  8
COUCHE1
  6
CONTINUOUS
 10
9.370370
 20
16.534392
  0
VERTEX
  8
COUCHE1
  6
CONTINUOUS
 10
9.370370
 20
16.582011
  0
VERTEX
  8
COUCHE1
  6
CONTINUOUS
 10
9.375661
 20
16.624339
  0
VERTEX
  8
COUCHE1
  6
CONTINUOUS
 10
9.380952
 20
16.656085
  0
VERTEX
  8
COUCHE1
  6
CONTINUOUS
 10
9.386243
 20
16.687831
  0
VERTEX
  8
COUCHE1
  6
CONTINUOUS
 10
9.407407
 20
16.724868
  0
VERTEX
  8
COUCHE1
  6
CONTINUOUS
 10
9.428571
 20
16.746032
  0
VERTEX
  8
COUCHE1
  6
CONTINUOUS
 10
9.449735
 20
16.783069
  0
VERTEX
  8
COUCHE1
  6
CONTINUOUS
 10
9.470899
 20
16.809524
  0
VERTEX
  8
COUCHE1
  6
CONTINUOUS
 10
9.492063
 20
16.830688
  0
VERTEX
  8
COUCHE1
  6
CONTINUOUS
 10
9.518519
 20
16.857143
  0
VERTEX
  8
COUCHE1
  6
CONTINUOUS
 10
9.544974
 20
16.878307
  0
VERTEX
  8
COUCHE1
  6
CONTINUOUS
 10
9.566138
 20
16.888889
  0
VERTEX
  8
COUCHE1
  6
CONTINUOUS
 10
9.592593
 20
16.910053
  0
VERTEX
  8
COUCHE1
  6
CONTINUOUS
 10
9.613757
 20
16.920635
  0
VERTEX
  8
COUCHE1
  6
CONTINUOUS
 10
9.645503
 20
16.931217
  0
VERTEX
  8
COUCHE1
  6
CONTINUOUS
 10
9.677249
 20
16.941799
  0
VERTEX
  8
COUCHE1
  6
CONTINUOUS
 10
9.703704
 20
16.957672
  0
VERTEX
  8
COUCHE1
  6
CONTINUOUS
 10
9.735450
 20
16.962963
  0
SEQEND
  8
0
  0
POLYLINE
  8
COUCHE1
  6
CONTINUOUS
 66
     1
 40
0.000000
 41
0.000000
  0
VERTEX
  8
COUCHE1
  6
CONTINUOUS
 10
9.735450
 20
16.962963
  0
VERTEX
  8
COUCHE1
  6
CONTINUOUS
 10
9.735450
 20
17.052910
  0
VERTEX
  8
COUCHE1
  6
CONTINUOUS
 10
9.735450
 20
17.153439
  0
VERTEX
  8
COUCHE1
  6
CONTINUOUS
 10
9.746032
 20
17.248677
  0
VERTEX
  8
COUCHE1
  6
CONTINUOUS
 10
9.756614
 20
17.333333
  0
VERTEX
  8
COUCHE1
  6
CONTINUOUS
 10
9.761905
 20
17.417989
  0
VERTEX
  8
COUCHE1
  6
CONTINUOUS
 10
9.777778
 20
17.497354
  0
VERTEX
  8
COUCHE1
  6
CONTINUOUS
 10
9.798942
 20
17.571429
  0
VERTEX
  8
COUCHE1
  6
CONTINUOUS
 10
9.820106
 20
17.650794
  0
VERTEX
  8
COUCHE1
  6
CONTINUOUS
 10
9.835979
 20
17.714286
  0
VERTEX
  8
COUCHE1
  6
CONTINUOUS
 10
9.857143
 20
17.783069
  0
VERTEX
  8
COUCHE1
  6
CONTINUOUS
 10
9.883598
 20
17.846561
  0
VERTEX
  8
COUCHE1
  6
CONTINUOUS
 10
9.910053
 20
17.904762
  0
VERTEX
  8
COUCHE1
  6
CONTINUOUS
 10
9.941799
 20
17.962963
  0
VERTEX
  8
COUCHE1
  6
CONTINUOUS
 10
9.978836
 20
18.015873
  0
VERTEX
  8
COUCHE1
  6
CONTINUOUS
 10
10.010582
 20
18.058201
  0
VERTEX
  8
COUCHE1
  6
CONTINUOUS
 10
10.052910
 20
18.105820
  0
SEQEND
  8
0
  0
POLYLINE
  8
COUCHE1
  6
CONTINUOUS
 66
     1
 40
0.000000
 41
0.000000
  0
VERTEX
  8
COUCHE1
  6
CONTINUOUS
 10
10.052910
 20
18.105820
  0
VERTEX
  8
COUCHE1
  6
CONTINUOUS
 10
10.084656
 20
17.989418
  0
VERTEX
  8
COUCHE1
  6
CONTINUOUS
 10
10.126984
 20
17.883598
  0
VERTEX
  8
COUCHE1
  6
CONTINUOUS
 10
10.179894
 20
17.777778
  0
VERTEX
  8
COUCHE1
  6
CONTINUOUS
 10
10.238095
 20
17.677249
  0
VERTEX
  8
COUCHE1
  6
CONTINUOUS
 10
10.306878
 20
17.576720
  0
VERTEX
  8
COUCHE1
  6
CONTINUOUS
 10
10.380952
 20
17.486772
  0
VERTEX
  8
COUCHE1
  6
CONTINUOUS
 10
10.460317
 20
17.391534
  0
VERTEX
  8
COUCHE1
  6
CONTINUOUS
 10
10.555556
 20
17.312169
  0
VERTEX
  8
COUCHE1
  6
CONTINUOUS
 10
10.656085
 20
17.227513
  0
VERTEX
  8
COUCHE1
  6
CONTINUOUS
 10
10.777778
 20
17.164021
  0
VERTEX
  8
COUCHE1
  6
CONTINUOUS
 10
10.915344
 20
17.095238
  0
VERTEX
  8
COUCHE1
  6
CONTINUOUS
 10
11.058201
 20
17.042328
  0
VERTEX
  8
COUCHE1
  6
CONTINUOUS
 10
11.190476
 20
16.978836
  0
VERTEX
  8
COUCHE1
  6
CONTINUOUS
 10
11.333333
 20
16.915344
  0
VERTEX
  8
COUCHE1
  6
CONTINUOUS
 10
11.444444
 20
16.841270
  0
VERTEX
  8
COUCHE1
  6
CONTINUOUS
 10
11.550265
 20
16.772487
  0
SEQEND
  8
0
  0
POLYLINE
  8
COUCHE1
  6
CONTINUOUS
 66
     1
 40
0.000000
 41
0.000000
  0
VERTEX
  8
COUCHE1
  6
CONTINUOUS
 10
11.550265
 20
16.772487
  0
VERTEX
  8
COUCHE1
  6
CONTINUOUS
 10
11.634921
 20
16.677249
  0
VERTEX
  8
COUCHE1
  6
CONTINUOUS
 10
11.714286
 20
16.587302
  0
VERTEX
  8
COUCHE1
  6
CONTINUOUS
 10
11.783069
 20
16.497354
  0
VERTEX
  8
COUCHE1
  6
CONTINUOUS
 10
11.841270
 20
16.412698
  0
VERTEX
  8
COUCHE1
  6
CONTINUOUS
 10
11.888889
 20
16.301587
  0
VERTEX
  8
COUCHE1
  6
CONTINUOUS
 10
11.920635
 20
16.201058
  0
VERTEX
  8
COUCHE1
  6
CONTINUOUS
 10
11.941799
 20
16.079365
  0
VERTEX
  8
COUCHE1
  6
CONTINUOUS
 10
11.947090
 20
15.957672
  0
SEQEND
  8
0
  0
POLYLINE
  8
COUCHE1
  6
CONTINUOUS
 66
     1
 40
0.000000
 41
0.000000
  0
VERTEX
  8
COUCHE1
  6
CONTINUOUS
 10
11.947090
 20
15.957672
  0
VERTEX
  8
COUCHE1
  6
CONTINUOUS
 10
11.915344
 20
15.809524
  0
VERTEX
  8
COUCHE1
  6
CONTINUOUS
 10
11.851852
 20
15.650794
  0
VERTEX
  8
COUCHE1
  6
CONTINUOUS
 10
11.772487
 20
15.476190
  0
VERTEX
  8
COUCHE1
  6
CONTINUOUS
 10
11.677249
 20
15.301587
  0
VERTEX
  8
COUCHE1
  6
CONTINUOUS
 10
11.587302
 20
15.111111
  0
VERTEX
  8
COUCHE1
  6
CONTINUOUS
 10
11.497354
 20
14.947090
  0
VERTEX
  8
COUCHE1
  6
CONTINUOUS
 10
11.428571
 20
14.793651
  0
VERTEX
  8
COUCHE1
  6
CONTINUOUS
 10
11.396825
 20
14.661376
  0
VERTEX
  8
COUCHE1
  6
CONTINUOUS
 10
11.375661
 20
14.539683
  0
VERTEX
  8
COUCHE1
  6
CONTINUOUS
 10
11.370370
 20
14.433862
  0
VERTEX
  8
COUCHE1
  6
CONTINUOUS
 10
11.375661
 20
14.343915
  0
VERTEX
  8
COUCHE1
  6
CONTINUOUS
 10
11.391534
 20
14.253968
  0
VERTEX
  8
COUCHE1
  6
CONTINUOUS
 10
11.417989
 20
14.174603
  0
VERTEX
  8
COUCHE1
  6
CONTINUOUS
 10
11.460317
 20
14.111111
  0
VERTEX
  8
COUCHE1
  6
CONTINUOUS
 10
11.502646
 20
14.058201
  0
VERTEX
  8
COUCHE1
  6
CONTINUOUS
 10
11.571429
 20
14.021164
  0
SEQEND
  8
0
  0
POLYLINE
  8
COUCHE1
  6
CONTINUOUS
 66
     1
 40
0.000000
 41
0.000000
  0
VERTEX
  8
COUCHE1
  6
CONTINUOUS
 10
11.571429
 20
14.021164
  0
VERTEX
  8
COUCHE1
  6
CONTINUOUS
 10
11.634921
 20
14.026455
  0
VERTEX
  8
COUCHE1
  6
CONTINUOUS
 10
11.693122
 20
14.037037
  0
VERTEX
  8
COUCHE1
  6
CONTINUOUS
 10
11.756614
 20
14.063492
  0
VERTEX
  8
COUCHE1
  6
CONTINUOUS
 10
11.814815
 20
14.089947
  0
VERTEX
  8
COUCHE1
  6
CONTINUOUS
 10
11.873016
 20
14.132275
  0
VERTEX
  8
COUCHE1
  6
CONTINUOUS
 10
11.936508
 20
14.174603
  0
VERTEX
  8
COUCHE1
  6
CONTINUOUS
 10
11.994709
 20
14.227513
  0
VERTEX
  8
COUCHE1
  6
CONTINUOUS
 10
12.058201
 20
14.291005
  0
VERTEX
  8
COUCHE1
  6
CONTINUOUS
 10
12.111111
 20
14.354497
  0
VERTEX
  8
COUCHE1
  6
CONTINUOUS
 10
12.158730
 20
14.455026
  0
VERTEX
  8
COUCHE1
  6
CONTINUOUS
 10
12.222222
 20
14.555556
  0
VERTEX
  8
COUCHE1
  6
CONTINUOUS
 10
12.275132
 20
14.666667
  0
VERTEX
  8
COUCHE1
  6
CONTINUOUS
 10
12.328042
 20
14.772487
  0
VERTEX
  8
COUCHE1
  6
CONTINUOUS
 10
12.391534
 20
14.873016
  0
VERTEX
  8
COUCHE1
  6
CONTINUOUS
 10
12.449735
 20
14.952381
  0
VERTEX
  8
COUCHE1
  6
CONTINUOUS
 10
12.518519
 20
15.021164
  0
SEQEND
  8
0
  0
POLYLINE
  8
COUCHE1
  6
CONTINUOUS
 66
     1
 40
0.000000
 41
0.000000
  0
VERTEX
  8
COUCHE1
  6
CONTINUOUS
 10
12.518519
 20
15.021164
  0
VERTEX
  8
COUCHE1
  6
CONTINUOUS
 10
12.576720
 20
15.052910
  0
VERTEX
  8
COUCHE1
  6
CONTINUOUS
 10
12.645503
 20
15.068783
  0
VERTEX
  8
COUCHE1
  6
CONTINUOUS
 10
12.714286
 20
15.079365
  0
VERTEX
  8
COUCHE1
  6
CONTINUOUS
 10
12.793651
 20
15.079365
  0
VERTEX
  8
COUCHE1
  6
CONTINUOUS
 10
12.857143
 20
15.063492
  0
VERTEX
  8
COUCHE1
  6
CONTINUOUS
 10
12.925926
 20
15.047619
  0
VERTEX
  8
COUCHE1
  6
CONTINUOUS
 10
12.989418
 20
15.031746
  0
VERTEX
  8
COUCHE1
  6
CONTINUOUS
 10
13.047619
 20
15.021164
  0
SEQEND
  8
0
  0
POLYLINE
  8
COUCHE1
  6
CONTINUOUS
 66
     1
 40
0.000000
 41
0.000000
  0
VERTEX
  8
COUCHE1
  6
CONTINUOUS
 10
13.047619
 20
15.021164
  0
VERTEX
  8
COUCHE1
  6
CONTINUOUS
 10
13.079365
 20
14.994709
  0
VERTEX
  8
COUCHE1
  6
CONTINUOUS
 10
13.121693
 20
14.962963
  0
VERTEX
  8
COUCHE1
  6
CONTINUOUS
 10
13.153439
 20
14.925926
  0
VERTEX
  8
COUCHE1
  6
CONTINUOUS
 10
13.179894
 20
14.883598
  0
VERTEX
  8
COUCHE1
  6
CONTINUOUS
 10
13.201058
 20
14.846561
  0
VERTEX
  8
COUCHE1
  6
CONTINUOUS
 10
13.227513
 20
14.809524
  0
VERTEX
  8
COUCHE1
  6
CONTINUOUS
 10
13.259259
 20
14.772487
  0
VERTEX
  8
COUCHE1
  6
CONTINUOUS
 10
13.301587
 20
14.746032
  0
VERTEX
  8
COUCHE1
  6
CONTINUOUS
 10
13.338624
 20
14.719577
  0
VERTEX
  8
COUCHE1
  6
CONTINUOUS
 10
13.380952
 20
14.693122
  0
VERTEX
  8
COUCHE1
  6
CONTINUOUS
 10
13.428571
 20
14.666667
  0
VERTEX
  8
COUCHE1
  6
CONTINUOUS
 10
13.476190
 20
14.650794
  0
VERTEX
  8
COUCHE1
  6
CONTINUOUS
 10
13.523810
 20
14.624339
  0
VERTEX
  8
COUCHE1
  6
CONTINUOUS
 10
13.571429
 20
14.608466
  0
VERTEX
  8
COUCHE1
  6
CONTINUOUS
 10
13.624339
 20
14.597884
  0
VERTEX
  8
COUCHE1
  6
CONTINUOUS
 10
13.682540
 20
14.582011
  0
SEQEND
  8
0
  0
POLYLINE
  8
COUCHE1
  6
CONTINUOUS
 66
     1
 40
0.000000
 41
0.000000
  0
VERTEX
  8
COUCHE1
  6
CONTINUOUS
 10
13.682540
 20
14.582011
  0
VERTEX
  8
COUCHE1
  6
CONTINUOUS
 10
13.582011
 20
14.576720
  0
VERTEX
  8
COUCHE1
  6
CONTINUOUS
 10
13.486772
 20
14.560847
  0
VERTEX
  8
COUCHE1
  6
CONTINUOUS
 10
13.391534
 20
14.534392
  0
VERTEX
  8
COUCHE1
  6
CONTINUOUS
 10
13.312169
 20
14.497354
  0
VERTEX
  8
COUCHE1
  6
CONTINUOUS
 10
13.232804
 20
14.449735
  0
VERTEX
  8
COUCHE1
  6
CONTINUOUS
 10
13.158730
 20
14.380952
  0
VERTEX
  8
COUCHE1
  6
CONTINUOUS
 10
13.089947
 20
14.312169
  0
VERTEX
  8
COUCHE1
  6
CONTINUOUS
 10
13.026455
 20
14.222222
  0
VERTEX
  8
COUCHE1
  6
CONTINUOUS
 10
12.968254
 20
14.111111
  0
VERTEX
  8
COUCHE1
  6
CONTINUOUS
 10
12.931217
 20
13.984127
  0
VERTEX
  8
COUCHE1
  6
CONTINUOUS
 10
12.899471
 20
13.851852
  0
VERTEX
  8
COUCHE1
  6
CONTINUOUS
 10
12.873016
 20
13.698413
  0
VERTEX
  8
COUCHE1
  6
CONTINUOUS
 10
12.846561
 20
13.539683
  0
VERTEX
  8
COUCHE1
  6
CONTINUOUS
 10
12.804233
 20
13.380952
  0
VERTEX
  8
COUCHE1
  6
CONTINUOUS
 10
12.756614
 20
13.222222
  0
VERTEX
  8
COUCHE1
  6
CONTINUOUS
 10
12.693122
 20
13.079365
  0
SEQEND
  8
0
  0
POLYLINE
  8
COUCHE1
  6
CONTINUOUS
 66
     1
 40
0.000000
 41
0.000000
  0
VERTEX
  8
COUCHE1
  6
CONTINUOUS
 10
12.693122
 20
13.079365
  0
VERTEX
  8
COUCHE1
  6
CONTINUOUS
 10
12.603175
 20
12.920635
  0
VERTEX
  8
COUCHE1
  6
CONTINUOUS
 10
12.507937
 20
12.751323
  0
VERTEX
  8
COUCHE1
  6
CONTINUOUS
 10
12.402116
 20
12.576720
  0
VERTEX
  8
COUCHE1
  6
CONTINUOUS
 10
12.291005
 20
12.407407
  0
VERTEX
  8
COUCHE1
  6
CONTINUOUS
 10
12.169312
 20
12.243386
  0
VERTEX
  8
COUCHE1
  6
CONTINUOUS
 10
12.037037
 20
12.095238
  0
VERTEX
  8
COUCHE1
  6
CONTINUOUS
 10
11.888889
 20
11.968254
  0
VERTEX
  8
COUCHE1
  6
CONTINUOUS
 10
11.740741
 20
11.862434
  0
SEQEND
  8
0
  0
POLYLINE
  8
COUCHE1
  6
CONTINUOUS
 66
     1
 40
0.000000
 41
0.000000
  0
VERTEX
  8
COUCHE1
  6
CONTINUOUS
 10
11.740741
 20
11.862434
  0
VERTEX
  8
COUCHE1
  6
CONTINUOUS
 10
11.566138
 20
11.777778
  0
VERTEX
  8
COUCHE1
  6
CONTINUOUS
 10
11.375661
 20
11.703704
  0
VERTEX
  8
COUCHE1
  6
CONTINUOUS
 10
11.174603
 20
11.645503
  0
VERTEX
  8
COUCHE1
  6
CONTINUOUS
 10
10.962963
 20
11.613757
  0
VERTEX
  8
COUCHE1
  6
CONTINUOUS
 10
10.746032
 20
11.587302
  0
VERTEX
  8
COUCHE1
  6
CONTINUOUS
 10
10.534392
 20
11.571429
  0
VERTEX
  8
COUCHE1
  6
CONTINUOUS
 10
10.317460
 20
11.571429
  0
VERTEX
  8
COUCHE1
  6
CONTINUOUS
 10
10.132275
 20
11.592593
  0
SEQEND
  8
0
  0
POLYLINE
  8
COUCHE1
  6
CONTINUOUS
 66
     1
 40
0.000000
 41
0.000000
  0
VERTEX
  8
COUCHE1
  6
CONTINUOUS
 10
10.132275
 20
11.592593
  0
VERTEX
  8
COUCHE1
  6
CONTINUOUS
 10
9.931217
 20
11.619048
  0
VERTEX
  8
COUCHE1
  6
CONTINUOUS
 10
9.746032
 20
11.677249
  0
VERTEX
  8
COUCHE1
  6
CONTINUOUS
 10
9.550265
 20
11.767196
  0
VERTEX
  8
COUCHE1
  6
CONTINUOUS
 10
9.359788
 20
11.857143
  0
VERTEX
  8
COUCHE1
  6
CONTINUOUS
 10
9.174603
 20
11.952381
  0
VERTEX
  8
COUCHE1
  6
CONTINUOUS
 10
9.005291
 20
12.037037
  0
VERTEX
  8
COUCHE1
  6
CONTINUOUS
 10
8.830688
 20
12.111111
  0
VERTEX
  8
COUCHE1
  6
CONTINUOUS
 10
8.677249
 20
12.174603
  0
VERTEX
  8
COUCHE1
  6
CONTINUOUS
 10
8.523810
 20
12.206349
  0
VERTEX
  8
COUCHE1
  6
CONTINUOUS
 10
8.380952
 20
12.243386
  0
VERTEX
  8
COUCHE1
  6
CONTINUOUS
 10
8.243386
 20
12.269841
  0
VERTEX
  8
COUCHE1
  6
CONTINUOUS
 10
8.116402
 20
12.291005
  0
VERTEX
  8
COUCHE1
  6
CONTINUOUS
 10
7.989418
 20
12.296296
  0
VERTEX
  8
COUCHE1
  6
CONTINUOUS
 10
7.873016
 20
12.296296
  0
VERTEX
  8
COUCHE1
  6
CONTINUOUS
 10
7.767196
 20
12.291005
  0
VERTEX
  8
COUCHE1
  6
CONTINUOUS
 10
7.666667
 20
12.280423
  0
SEQEND
  8
0
  0
POLYLINE
  8
COUCHE1
  6
CONTINUOUS
 66
     1
 40
0.000000
 41
0.000000
  0
VERTEX
  8
COUCHE1
  6
CONTINUOUS
 10
7.666667
 20
12.280423
  0
VERTEX
  8
COUCHE1
  6
CONTINUOUS
 10
7.666667
 20
12.291005
  0
VERTEX
  8
COUCHE1
  6
CONTINUOUS
 10
7.666667
 20
12.296296
  0
VERTEX
  8
COUCHE1
  6
CONTINUOUS
 10
7.661376
 20
12.306878
  0
VERTEX
  8
COUCHE1
  6
CONTINUOUS
 10
7.661376
 20
12.312169
  0
VERTEX
  8
COUCHE1
  6
CONTINUOUS
 10
7.661376
 20
12.328042
  0
VERTEX
  8
COUCHE1
  6
CONTINUOUS
 10
7.661376
 20
12.338624
  0
VERTEX
  8
COUCHE1
  6
CONTINUOUS
 10
7.661376
 20
12.354497
  0
VERTEX
  8
COUCHE1
  6
CONTINUOUS
 10
7.661376
 20
12.365079
  0
VERTEX
  8
COUCHE1
  6
CONTINUOUS
 10
7.656085
 20
12.375661
  0
VERTEX
  8
COUCHE1
  6
CONTINUOUS
 10
7.656085
 20
12.396825
  0
VERTEX
  8
COUCHE1
  6
CONTINUOUS
 10
7.645503
 20
12.407407
  0
VERTEX
  8
COUCHE1
  6
CONTINUOUS
 10
7.645503
 20
12.417989
  0
VERTEX
  8
COUCHE1
  6
CONTINUOUS
 10
7.640212
 20
12.433862
  0
VERTEX
  8
COUCHE1
  6
CONTINUOUS
 10
7.640212
 20
12.455026
  0
VERTEX
  8
COUCHE1
  6
CONTINUOUS
 10
7.629630
 20
12.465608
  0
VERTEX
  8
COUCHE1
  6
CONTINUOUS
 10
7.629630
 20
12.486772
  0
SEQEND
  8
0
  0
POLYLINE
  8
COUCHE1
  6
CONTINUOUS
 66
     1
 40
0.000000
 41
0.000000
  0
VERTEX
  8
COUCHE1
  6
CONTINUOUS
 10
7.629630
 20
12.486772
  0
VERTEX
  8
COUCHE1
  6
CONTINUOUS
 10
7.761905
 20
12.523810
  0
VERTEX
  8
COUCHE1
  6
CONTINUOUS
 10
7.613757
 20
12.550265
  0
SEQEND
  8
0
  0
POLYLINE
  8
COUCHE1
  6
CONTINUOUS
 66
     1
 40
0.000000
 41
0.000000
  0
VERTEX
  8
COUCHE1
  6
CONTINUOUS
 10
7.613757
 20
12.550265
  0
VERTEX
  8
COUCHE1
  6
CONTINUOUS
 10
7.608466
 20
12.560847
  0
VERTEX
  8
COUCHE1
  6
CONTINUOUS
 10
7.597884
 20
12.571429
  0
VERTEX
  8
COUCHE1
  6
CONTINUOUS
 10
7.597884
 20
12.592593
  0
VERTEX
  8
COUCHE1
  6
CONTINUOUS
 10
7.592593
 20
12.603175
  0
VERTEX
  8
COUCHE1
  6
CONTINUOUS
 10
7.592593
 20
12.619048
  0
VERTEX
  8
COUCHE1
  6
CONTINUOUS
 10
7.582011
 20
12.640212
  0
VERTEX
  8
COUCHE1
  6
CONTINUOUS
 10
7.582011
 20
12.650794
  0
VERTEX
  8
COUCHE1
  6
CONTINUOUS
 10
7.582011
 20
12.671958
  0
VERTEX
  8
COUCHE1
  6
CONTINUOUS
 10
7.571429
 20
12.687831
  0
VERTEX
  8
COUCHE1
  6
CONTINUOUS
 10
7.566138
 20
12.698413
  0
VERTEX
  8
COUCHE1
  6
CONTINUOUS
 10
7.560847
 20
12.719577
  0
VERTEX
  8
COUCHE1
  6
CONTINUOUS
 10
7.555556
 20
12.735450
  0
VERTEX
  8
COUCHE1
  6
CONTINUOUS
 10
7.544974
 20
12.751323
  0
VERTEX
  8
COUCHE1
  6
CONTINUOUS
 10
7.539683
 20
12.761905
  0
VERTEX
  8
COUCHE1
  6
CONTINUOUS
 10
7.534392
 20
12.783069
  0
VERTEX
  8
COUCHE1
  6
CONTINUOUS
 10
7.534392
 20
12.804233
  0
SEQEND
  8
0
  0
POLYLINE
  8
COUCHE1
  6
CONTINUOUS
 66
     1
 40
0.000000
 41
0.000000
  0
VERTEX
  8
COUCHE1
  6
CONTINUOUS
 10
7.534392
 20
12.804233
  0
VERTEX
  8
COUCHE1
  6
CONTINUOUS
 10
7.719577
 20
12.841270
  0
VERTEX
  8
COUCHE1
  6
CONTINUOUS
 10
7.481481
 20
12.878307
  0
SEQEND
  8
0
  0
POLYLINE
  8
COUCHE1
  6
CONTINUOUS
 66
     1
 40
0.000000
 41
0.000000
  0
VERTEX
  8
COUCHE1
  6
CONTINUOUS
 10
7.481481
 20
12.878307
  0
VERTEX
  8
COUCHE1
  6
CONTINUOUS
 10
7.465608
 20
12.899471
  0
VERTEX
  8
COUCHE1
  6
CONTINUOUS
 10
7.449735
 20
12.920635
  0
VERTEX
  8
COUCHE1
  6
CONTINUOUS
 10
7.439153
 20
12.936508
  0
VERTEX
  8
COUCHE1
  6
CONTINUOUS
 10
7.433862
 20
12.962963
  0
VERTEX
  8
COUCHE1
  6
CONTINUOUS
 10
7.417989
 20
12.984127
  0
VERTEX
  8
COUCHE1
  6
CONTINUOUS
 10
7.402116
 20
13.005291
  0
VERTEX
  8
COUCHE1
  6
CONTINUOUS
 10
7.391534
 20
13.021164
  0
VERTEX
  8
COUCHE1
  6
CONTINUOUS
 10
7.386243
 20
13.042328
  0
VERTEX
  8
COUCHE1
  6
CONTINUOUS
 10
7.375661
 20
13.058201
  0
VERTEX
  8
COUCHE1
  6
CONTINUOUS
 10
7.359788
 20
13.079365
  0
VERTEX
  8
COUCHE1
  6
CONTINUOUS
 10
7.343915
 20
13.095238
  0
VERTEX
  8
COUCHE1
  6
CONTINUOUS
 10
7.333333
 20
13.116402
  0
VERTEX
  8
COUCHE1
  6
CONTINUOUS
 10
7.317460
 20
13.132275
  0
VERTEX
  8
COUCHE1
  6
CONTINUOUS
 10
7.301587
 20
13.148148
  0
VERTEX
  8
COUCHE1
  6
CONTINUOUS
 10
7.291005
 20
13.164021
  0
VERTEX
  8
COUCHE1
  6
CONTINUOUS
 10
7.280423
 20
13.185185
  0
SEQEND
  8
0
  0
POLYLINE
  8
COUCHE1
  6
CONTINUOUS
 66
     1
 40
0.000000
 41
0.000000
  0
VERTEX
  8
COUCHE1
  6
CONTINUOUS
 10
7.280423
 20
13.185185
  0
VERTEX
  8
COUCHE1
  6
CONTINUOUS
 10
7.544974
 20
13.238095
  0
VERTEX
  8
COUCHE1
  6
CONTINUOUS
 10
7.164021
 20
13.291005
  0
SEQEND
  8
0
  0
POLYLINE
  8
COUCHE1
  6
CONTINUOUS
 66
     1
 40
0.000000
 41
0.000000
  0
VERTEX
  8
COUCHE1
  6
CONTINUOUS
 10
7.164021
 20
13.291005
  0
VERTEX
  8
COUCHE1
  6
CONTINUOUS
 10
7.142857
 20
13.306878
  0
VERTEX
  8
COUCHE1
  6
CONTINUOUS
 10
7.116402
 20
13.328042
  0
VERTEX
  8
COUCHE1
  6
CONTINUOUS
 10
7.095238
 20
13.349206
  0
VERTEX
  8
COUCHE1
  6
CONTINUOUS
 10
7.079365
 20
13.375661
  0
VERTEX
  8
COUCHE1
  6
CONTINUOUS
 10
7.047619
 20
13.391534
  0
VERTEX
  8
COUCHE1
  6
CONTINUOUS
 10
7.026455
 20
13.423280
  0
VERTEX
  8
COUCHE1
  6
CONTINUOUS
 10
6.994709
 20
13.449735
  0
VERTEX
  8
COUCHE1
  6
CONTINUOUS
 10
6.968254
 20
13.476190
  0
VERTEX
  8
COUCHE1
  6
CONTINUOUS
 10
6.936508
 20
13.492063
  0
VERTEX
  8
COUCHE1
  6
CONTINUOUS
 10
6.904762
 20
13.523810
  0
VERTEX
  8
COUCHE1
  6
CONTINUOUS
 10
6.878307
 20
13.550265
  0
VERTEX
  8
COUCHE1
  6
CONTINUOUS
 10
6.841270
 20
13.582011
  0
VERTEX
  8
COUCHE1
  6
CONTINUOUS
 10
6.798942
 20
13.608466
  0
VERTEX
  8
COUCHE1
  6
CONTINUOUS
 10
6.767196
 20
13.634921
  0
VERTEX
  8
COUCHE1
  6
CONTINUOUS
 10
6.730159
 20
13.666667
  0
VERTEX
  8
COUCHE1
  6
CONTINUOUS
 10
6.698413
 20
13.698413
  0
SEQEND
  8
0
  0
POLYLINE
  8
COUCHE1
  6
CONTINUOUS
 66
     1
 40
0.000000
 41
0.000000
  0
VERTEX
  8
COUCHE1
  6
CONTINUOUS
 10
6.698413
 20
13.698413
  0
VERTEX
  8
COUCHE1
  6
CONTINUOUS
 10
6.857143
 20
13.693122
  0
VERTEX
  8
COUCHE1
  6
CONTINUOUS
 10
7.015873
 20
13.693122
  0
VERTEX
  8
COUCHE1
  6
CONTINUOUS
 10
7.179894
 20
13.682540
  0
VERTEX
  8
COUCHE1
  6
CONTINUOUS
 10
7.333333
 20
13.666667
  0
VERTEX
  8
COUCHE1
  6
CONTINUOUS
 10
7.486772
 20
13.645503
  0
VERTEX
  8
COUCHE1
  6
CONTINUOUS
 10
7.629630
 20
13.624339
  0
VERTEX
  8
COUCHE1
  6
CONTINUOUS
 10
7.772487
 20
13.587302
  0
VERTEX
  8
COUCHE1
  6
CONTINUOUS
 10
7.920635
 20
13.550265
  0
VERTEX
  8
COUCHE1
  6
CONTINUOUS
 10
8.052910
 20
13.502646
  0
VERTEX
  8
COUCHE1
  6
CONTINUOUS
 10
8.195767
 20
13.439153
  0
VERTEX
  8
COUCHE1
  6
CONTINUOUS
 10
8.333333
 20
13.375661
  0
VERTEX
  8
COUCHE1
  6
CONTINUOUS
 10
8.470899
 20
13.306878
  0
VERTEX
  8
COUCHE1
  6
CONTINUOUS
 10
8.608466
 20
13.238095
  0
VERTEX
  8
COUCHE1
  6
CONTINUOUS
 10
8.719577
 20
13.169312
  0
VERTEX
  8
COUCHE1
  6
CONTINUOUS
 10
8.830688
 20
13.105820
  0
VERTEX
  8
COUCHE1
  6
CONTINUOUS
 10
8.931217
 20
13.079365
  0
SEQEND
  8
0
  0
POLYLINE
  8
COUCHE1
  6
CONTINUOUS
 66
     1
 40
0.000000
 41
0.000000
  0
VERTEX
  8
COUCHE1
  6
CONTINUOUS
 10
8.931217
 20
13.079365
  0
VERTEX
  8
COUCHE1
  6
CONTINUOUS
 10
9.005291
 20
13.042328
  0
VERTEX
  8
COUCHE1
  6
CONTINUOUS
 10
9.068783
 20
13.015873
  0
VERTEX
  8
COUCHE1
  6
CONTINUOUS
 10
9.111111
 20
12.994709
  0
VERTEX
  8
COUCHE1
  6
CONTINUOUS
 10
9.158730
 20
12.994709
  0
VERTEX
  8
COUCHE1
  6
CONTINUOUS
 10
9.195767
 20
12.978836
  0
VERTEX
  8
COUCHE1
  6
CONTINUOUS
 10
9.227513
 20
12.978836
  0
VERTEX
  8
COUCHE1
  6
CONTINUOUS
 10
9.275132
 20
12.978836
  0
VERTEX
  8
COUCHE1
  6
CONTINUOUS
 10
9.333333
 20
12.994709
  0
VERTEX
  8
COUCHE1
  6
CONTINUOUS
 10
9.396825
 20
12.994709
  0
VERTEX
  8
COUCHE1
  6
CONTINUOUS
 10
9.455026
 20
13.010582
  0
VERTEX
  8
COUCHE1
  6
CONTINUOUS
 10
9.518519
 20
13.021164
  0
VERTEX
  8
COUCHE1
  6
CONTINUOUS
 10
9.592593
 20
13.047619
  0
VERTEX
  8
COUCHE1
  6
CONTINUOUS
 10
9.656085
 20
13.079365
  0
VERTEX
  8
COUCHE1
  6
CONTINUOUS
 10
9.730159
 20
13.105820
  0
VERTEX
  8
COUCHE1
  6
CONTINUOUS
 10
9.804233
 20
13.142857
  0
VERTEX
  8
COUCHE1
  6
CONTINUOUS
 10
9.883598
 20
13.185185
  0
SEQEND
  8
0
  0
POLYLINE
  8
COUCHE1
  6
CONTINUOUS
 66
     1
 40
0.000000
 41
0.000000
  0
VERTEX
  8
COUCHE1
  6
CONTINUOUS
 10
9.883598
 20
13.185185
  0
VERTEX
  8
COUCHE1
  6
CONTINUOUS
 10
9.846561
 20
13.195767
  0
VERTEX
  8
COUCHE1
  6
CONTINUOUS
 10
9.804233
 20
13.206349
  0
VERTEX
  8
COUCHE1
  6
CONTINUOUS
 10
9.772487
 20
13.227513
  0
VERTEX
  8
COUCHE1
  6
CONTINUOUS
 10
9.735450
 20
13.248677
  0
VERTEX
  8
COUCHE1
  6
CONTINUOUS
 10
9.708995
 20
13.269841
  0
VERTEX
  8
COUCHE1
  6
CONTINUOUS
 10
9.687831
 20
13.285714
  0
VERTEX
  8
COUCHE1
  6
CONTINUOUS
 10
9.661376
 20
13.301587
  0
VERTEX
  8
COUCHE1
  6
CONTINUOUS
 10
9.650794
 20
13.328042
  0
VERTEX
  8
COUCHE1
  6
CONTINUOUS
 10
9.629630
 20
13.349206
  0
VERTEX
  8
COUCHE1
  6
CONTINUOUS
 10
9.613757
 20
13.370370
  0
VERTEX
  8
COUCHE1
  6
CONTINUOUS
 10
9.608466
 20
13.386243
  0
VERTEX
  8
COUCHE1
  6
CONTINUOUS
 10
9.603175
 20
13.412698
  0
VERTEX
  8
COUCHE1
  6
CONTINUOUS
 10
9.597884
 20
13.433862
  0
VERTEX
  8
COUCHE1
  6
CONTINUOUS
 10
9.597884
 20
13.460317
  0
VERTEX
  8
COUCHE1
  6
CONTINUOUS
 10
9.603175
 20
13.486772
  0
VERTEX
  8
COUCHE1
  6
CONTINUOUS
 10
9.608466
 20
13.513228
  0
VERTEX
  8
COUCHE1
  6
CONTINUOUS
 10
9.613757
 20
13.534392
  0
VERTEX
  8
COUCHE1
  6
CONTINUOUS
 10
9.624339
 20
13.550265
  0
VERTEX
  8
COUCHE1
  6
CONTINUOUS
 10
9.634921
 20
13.576720
  0
VERTEX
  8
COUCHE1
  6
CONTINUOUS
 10
9.650794
 20
13.592593
  0
VERTEX
  8
COUCHE1
  6
CONTINUOUS
 10
9.661376
 20
13.613757
  0
VERTEX
  8
COUCHE1
  6
CONTINUOUS
 10
9.682540
 20
13.640212
  0
VERTEX
  8
COUCHE1
  6
CONTINUOUS
 10
9.708995
 20
13.661376
  0
VERTEX
  8
COUCHE1
  6
CONTINUOUS
 10
9.735450
 20
13.682540
  0
SEQEND
  8
0
  0
POLYLINE
  8
COUCHE1
  6
CONTINUOUS
 66
     1
 40
0.000000
 41
0.000000
  0
VERTEX
  8
COUCHE1
  6
CONTINUOUS
 10
13.751323
 20
14.137566
  0
VERTEX
  8
COUCHE1
  6
CONTINUOUS
 10
13.783069
 20
14.206349
  0
VERTEX
  8
COUCHE1
  6
CONTINUOUS
 10
13.481481
 20
14.587302
  0
VERTEX
  8
COUCHE1
  6
CONTINUOUS
 10
13.730159
 20
14.772487
  0
VERTEX
  8
COUCHE1
  6
CONTINUOUS
 10
13.783069
 20
14.767196
  0
VERTEX
  8
COUCHE1
  6
CONTINUOUS
 10
13.518519
 20
14.582011
  0
VERTEX
  8
COUCHE1
  6
CONTINUOUS
 10
13.809524
 20
14.195767
  0
VERTEX
  8
COUCHE1
  6
CONTINUOUS
 10
13.783069
 20
14.132275
  0
VERTEX
  8
COUCHE1
  6
CONTINUOUS
 10
13.862434
 20
14.116402
  0
VERTEX
  8
COUCHE1
  6
CONTINUOUS
 10
14.010582
 20
14.052910
  0
VERTEX
  8
COUCHE1
  6
CONTINUOUS
 10
14.126984
 20
13.894180
  0
VERTEX
  8
COUCHE1
  6
CONTINUOUS
 10
14.137566
 20
13.724868
  0
VERTEX
  8
COUCHE1
  6
CONTINUOUS
 10
14.037037
 20
13.846561
  0
VERTEX
  8
COUCHE1
  6
CONTINUOUS
 10
13.989418
 20
13.867725
  0
VERTEX
  8
COUCHE1
  6
CONTINUOUS
 10
13.989418
 20
13.841270
  0
VERTEX
  8
COUCHE1
  6
CONTINUOUS
 10
14.042328
 20
13.809524
  0
VERTEX
  8
COUCHE1
  6
CONTINUOUS
 10
14.132275
 20
13.645503
  0
VERTEX
  8
COUCHE1
  6
CONTINUOUS
 10
14.126984
 20
13.534392
  0
VERTEX
  8
COUCHE1
  6
CONTINUOUS
 10
14.068783
 20
13.587302
  0
VERTEX
  8
COUCHE1
  6
CONTINUOUS
 10
14.037037
 20
13.682540
  0
VERTEX
  8
COUCHE1
  6
CONTINUOUS
 10
13.941799
 20
13.708995
  0
VERTEX
  8
COUCHE1
  6
CONTINUOUS
 10
13.941799
 20
13.682540
  0
VERTEX
  8
COUCHE1
  6
CONTINUOUS
 10
14.026455
 20
13.645503
  0
VERTEX
  8
COUCHE1
  6
CONTINUOUS
 10
14.079365
 20
13.486772
  0
VERTEX
  8
COUCHE1
  6
CONTINUOUS
 10
14.037037
 20
13.433862
  0
VERTEX
  8
COUCHE1
  6
CONTINUOUS
 10
14.010582
 20
13.460317
  0
VERTEX
  8
COUCHE1
  6
CONTINUOUS
 10
13.984127
 20
13.582011
  0
VERTEX
  8
COUCHE1
  6
CONTINUOUS
 10
13.904762
 20
13.597884
  0
VERTEX
  8
COUCHE1
  6
CONTINUOUS
 10
13.962963
 20
13.555556
  0
VERTEX
  8
COUCHE1
  6
CONTINUOUS
 10
13.989418
 20
13.412698
  0
VERTEX
  8
COUCHE1
  6
CONTINUOUS
 10
13.957672
 20
13.343915
  0
VERTEX
  8
COUCHE1
  6
CONTINUOUS
 10
13.936508
 20
13.375661
  0
VERTEX
  8
COUCHE1
  6
CONTINUOUS
 10
13.910053
 20
13.460317
  0
VERTEX
  8
COUCHE1
  6
CONTINUOUS
 10
13.830688
 20
13.486772
  0
VERTEX
  8
COUCHE1
  6
CONTINUOUS
 10
13.899471
 20
13.428571
  0
VERTEX
  8
COUCHE1
  6
CONTINUOUS
 10
13.910053
 20
13.343915
  0
VERTEX
  8
COUCHE1
  6
CONTINUOUS
 10
13.883598
 20
13.285714
  0
VERTEX
  8
COUCHE1
  6
CONTINUOUS
 10
13.857143
 20
13.301587
  0
VERTEX
  8
COUCHE1
  6
CONTINUOUS
 10
13.851852
 20
13.380952
  0
VERTEX
  8
COUCHE1
  6
CONTINUOUS
 10
13.761905
 20
13.433862
  0
VERTEX
  8
COUCHE1
  6
CONTINUOUS
 10
13.809524
 20
13.380952
  0
VERTEX
  8
COUCHE1
  6
CONTINUOUS
 10
13.814815
 20
13.269841
  0
VERTEX
  8
COUCHE1
  6
CONTINUOUS
 10
13.751323
 20
13.216931
  0
SEQEND
  8
0
  0
POLYLINE
  8
COUCHE1
  6
CONTINUOUS
 66
     1
 40
0.000000
 41
0.000000
  0
VERTEX
  8
COUCHE1
  6
CONTINUOUS
 10
13.751323
 20
13.216931
  0
VERTEX
  8
COUCHE1
  6
CONTINUOUS
 10
13.682540
 20
13.269841
  0
VERTEX
  8
COUCHE1
  6
CONTINUOUS
 10
13.682540
 20
13.380952
  0
VERTEX
  8
COUCHE1
  6
CONTINUOUS
 10
13.730159
 20
13.433862
  0
VERTEX
  8
COUCHE1
  6
CONTINUOUS
 10
13.645503
 20
13.380952
  0
VERTEX
  8
COUCHE1
  6
CONTINUOUS
 10
13.640212
 20
13.301587
  0
VERTEX
  8
COUCHE1
  6
CONTINUOUS
 10
13.613757
 20
13.285714
  0
VERTEX
  8
COUCHE1
  6
CONTINUOUS
 10
13.582011
 20
13.338624
  0
VERTEX
  8
COUCHE1
  6
CONTINUOUS
 10
13.597884
 20
13.428571
  0
VERTEX
  8
COUCHE1
  6
CONTINUOUS
 10
13.666667
 20
13.486772
  0
VERTEX
  8
COUCHE1
  6
CONTINUOUS
 10
13.582011
 20
13.460317
  0
VERTEX
  8
COUCHE1
  6
CONTINUOUS
 10
13.560847
 20
13.375661
  0
VERTEX
  8
COUCHE1
  6
CONTINUOUS
 10
13.529101
 20
13.343915
  0
VERTEX
  8
COUCHE1
  6
CONTINUOUS
 10
13.497354
 20
13.412698
  0
VERTEX
  8
COUCHE1
  6
CONTINUOUS
 10
13.529101
 20
13.555556
  0
VERTEX
  8
COUCHE1
  6
CONTINUOUS
 10
13.587302
 20
13.597884
  0
VERTEX
  8
COUCHE1
  6
CONTINUOUS
 10
13.513228
 20
13.582011
  0
VERTEX
  8
COUCHE1
  6
CONTINUOUS
 10
13.476190
 20
13.460317
  0
VERTEX
  8
COUCHE1
  6
CONTINUOUS
 10
13.449735
 20
13.433862
  0
VERTEX
  8
COUCHE1
  6
CONTINUOUS
 10
13.417989
 20
13.486772
  0
VERTEX
  8
COUCHE1
  6
CONTINUOUS
 10
13.465608
 20
13.645503
  0
VERTEX
  8
COUCHE1
  6
CONTINUOUS
 10
13.544974
 20
13.682540
  0
VERTEX
  8
COUCHE1
  6
CONTINUOUS
 10
13.550265
 20
13.708995
  0
VERTEX
  8
COUCHE1
  6
CONTINUOUS
 10
13.449735
 20
13.682540
  0
VERTEX
  8
COUCHE1
  6
CONTINUOUS
 10
13.417989
 20
13.587302
  0
VERTEX
  8
COUCHE1
  6
CONTINUOUS
 10
13.370370
 20
13.534392
  0
VERTEX
  8
COUCHE1
  6
CONTINUOUS
 10
13.359788
 20
13.640212
  0
VERTEX
  8
COUCHE1
  6
CONTINUOUS
 10
13.449735
 20
13.809524
  0
VERTEX
  8
COUCHE1
  6
CONTINUOUS
 10
13.502646
 20
13.841270
  0
VERTEX
  8
COUCHE1
  6
CONTINUOUS
 10
13.502646
 20
13.867725
  0
VERTEX
  8
COUCHE1
  6
CONTINUOUS
 10
13.455026
 20
13.846561
  0
VERTEX
  8
COUCHE1
  6
CONTINUOUS
 10
13.359788
 20
13.724868
  0
VERTEX
  8
COUCHE1
  6
CONTINUOUS
 10
13.370370
 20
13.894180
  0
VERTEX
  8
COUCHE1
  6
CONTINUOUS
 10
13.481481
 20
14.052910
  0
VERTEX
  8
COUCHE1
  6
CONTINUOUS
 10
13.634921
 20
14.116402
  0
VERTEX
  8
COUCHE1
  6
CONTINUOUS
 10
13.751323
 20
14.132275
  0
SEQEND
  8
0
  0
POLYLINE
  8
COUCHE1
  6
CONTINUOUS
 66
     1
 40
0.000000
 41
0.000000
  0
VERTEX
  8
COUCHE1
  6
CONTINUOUS
 10
13.751323
 20
14.137566
  0
VERTEX
  8
COUCHE1
  6
CONTINUOUS
 10
13.783069
 20
14.206349
  0
VERTEX
  8
COUCHE1
  6
CONTINUOUS
 10
13.481481
 20
14.587302
  0
VERTEX
  8
COUCHE1
  6
CONTINUOUS
 10
13.730159
 20
14.772487
  0
VERTEX
  8
COUCHE1
  6
CONTINUOUS
 10
13.783069
 20
14.767196
  0
VERTEX
  8
COUCHE1
  6
CONTINUOUS
 10
13.518519
 20
14.582011
  0
VERTEX
  8
COUCHE1
  6
CONTINUOUS
 10
13.809524
 20
14.195767
  0
VERTEX
  8
COUCHE1
  6
CONTINUOUS
 10
13.783069
 20
14.132275
  0
VERTEX
  8
COUCHE1
  6
CONTINUOUS
 10
13.862434
 20
14.116402
  0
VERTEX
  8
COUCHE1
  6
CONTINUOUS
 10
14.010582
 20
14.052910
  0
VERTEX
  8
COUCHE1
  6
CONTINUOUS
 10
14.126984
 20
13.894180
  0
VERTEX
  8
COUCHE1
  6
CONTINUOUS
 10
14.137566
 20
13.724868
  0
VERTEX
  8
COUCHE1
  6
CONTINUOUS
 10
14.037037
 20
13.846561
  0
VERTEX
  8
COUCHE1
  6
CONTINUOUS
 10
13.989418
 20
13.867725
  0
VERTEX
  8
COUCHE1
  6
CONTINUOUS
 10
13.989418
 20
13.841270
  0
VERTEX
  8
COUCHE1
  6
CONTINUOUS
 10
14.042328
 20
13.809524
  0
VERTEX
  8
COUCHE1
  6
CONTINUOUS
 10
14.132275
 20
13.645503
  0
VERTEX
  8
COUCHE1
  6
CONTINUOUS
 10
14.126984
 20
13.534392
  0
VERTEX
  8
COUCHE1
  6
CONTINUOUS
 10
14.068783
 20
13.587302
  0
VERTEX
  8
COUCHE1
  6
CONTINUOUS
 10
14.037037
 20
13.682540
  0
VERTEX
  8
COUCHE1
  6
CONTINUOUS
 10
13.941799
 20
13.708995
  0
VERTEX
  8
COUCHE1
  6
CONTINUOUS
 10
13.941799
 20
13.682540
  0
VERTEX
  8
COUCHE1
  6
CONTINUOUS
 10
14.026455
 20
13.645503
  0
VERTEX
  8
COUCHE1
  6
CONTINUOUS
 10
14.079365
 20
13.486772
  0
VERTEX
  8
COUCHE1
  6
CONTINUOUS
 10
14.037037
 20
13.433862
  0
VERTEX
  8
COUCHE1
  6
CONTINUOUS
 10
14.010582
 20
13.460317
  0
VERTEX
  8
COUCHE1
  6
CONTINUOUS
 10
13.984127
 20
13.582011
  0
VERTEX
  8
COUCHE1
  6
CONTINUOUS
 10
13.904762
 20
13.597884
  0
VERTEX
  8
COUCHE1
  6
CONTINUOUS
 10
13.962963
 20
13.555556
  0
VERTEX
  8
COUCHE1
  6
CONTINUOUS
 10
13.989418
 20
13.412698
  0
VERTEX
  8
COUCHE1
  6
CONTINUOUS
 10
13.957672
 20
13.343915
  0
VERTEX
  8
COUCHE1
  6
CONTINUOUS
 10
13.936508
 20
13.375661
  0
VERTEX
  8
COUCHE1
  6
CONTINUOUS
 10
13.910053
 20
13.460317
  0
VERTEX
  8
COUCHE1
  6
CONTINUOUS
 10
13.830688
 20
13.486772
  0
VERTEX
  8
COUCHE1
  6
CONTINUOUS
 10
13.899471
 20
13.428571
  0
VERTEX
  8
COUCHE1
  6
CONTINUOUS
 10
13.910053
 20
13.343915
  0
VERTEX
  8
COUCHE1
  6
CONTINUOUS
 10
13.883598
 20
13.285714
  0
VERTEX
  8
COUCHE1
  6
CONTINUOUS
 10
13.857143
 20
13.301587
  0
VERTEX
  8
COUCHE1
  6
CONTINUOUS
 10
13.851852
 20
13.380952
  0
VERTEX
  8
COUCHE1
  6
CONTINUOUS
 10
13.761905
 20
13.433862
  0
VERTEX
  8
COUCHE1
  6
CONTINUOUS
 10
13.809524
 20
13.380952
  0
VERTEX
  8
COUCHE1
  6
CONTINUOUS
 10
13.814815
 20
13.269841
  0
VERTEX
  8
COUCHE1
  6
CONTINUOUS
 10
13.751323
 20
13.216931
  0
SEQEND
  8
0
  0
POLYLINE
  8
COUCHE1
  6
CONTINUOUS
 66
     1
 40
0.000000
 41
0.000000
  0
VERTEX
  8
COUCHE1
  6
CONTINUOUS
 10
13.751323
 20
13.216931
  0
VERTEX
  8
COUCHE1
  6
CONTINUOUS
 10
13.682540
 20
13.269841
  0
VERTEX
  8
COUCHE1
  6
CONTINUOUS
 10
13.682540
 20
13.380952
  0
VERTEX
  8
COUCHE1
  6
CONTINUOUS
 10
13.730159
 20
13.433862
  0
VERTEX
  8
COUCHE1
  6
CONTINUOUS
 10
13.645503
 20
13.380952
  0
VERTEX
  8
COUCHE1
  6
CONTINUOUS
 10
13.640212
 20
13.301587
  0
VERTEX
  8
COUCHE1
  6
CONTINUOUS
 10
13.613757
 20
13.285714
  0
VERTEX
  8
COUCHE1
  6
CONTINUOUS
 10
13.582011
 20
13.338624
  0
VERTEX
  8
COUCHE1
  6
CONTINUOUS
 10
13.597884
 20
13.428571
  0
VERTEX
  8
COUCHE1
  6
CONTINUOUS
 10
13.666667
 20
13.486772
  0
VERTEX
  8
COUCHE1
  6
CONTINUOUS
 10
13.582011
 20
13.460317
  0
VERTEX
  8
COUCHE1
  6
CONTINUOUS
 10
13.560847
 20
13.375661
  0
VERTEX
  8
COUCHE1
  6
CONTINUOUS
 10
13.529101
 20
13.343915
  0
VERTEX
  8
COUCHE1
  6
CONTINUOUS
 10
13.497354
 20
13.412698
  0
VERTEX
  8
COUCHE1
  6
CONTINUOUS
 10
13.529101
 20
13.555556
  0
VERTEX
  8
COUCHE1
  6
CONTINUOUS
 10
13.587302
 20
13.597884
  0
VERTEX
  8
COUCHE1
  6
CONTINUOUS
 10
13.513228
 20
13.582011
  0
VERTEX
  8
COUCHE1
  6
CONTINUOUS
 10
13.476190
 20
13.460317
  0
VERTEX
  8
COUCHE1
  6
CONTINUOUS
 10
13.449735
 20
13.433862
  0
VERTEX
  8
COUCHE1
  6
CONTINUOUS
 10
13.417989
 20
13.486772
  0
VERTEX
  8
COUCHE1
  6
CONTINUOUS
 10
13.465608
 20
13.645503
  0
VERTEX
  8
COUCHE1
  6
CONTINUOUS
 10
13.544974
 20
13.682540
  0
VERTEX
  8
COUCHE1
  6
CONTINUOUS
 10
13.550265
 20
13.708995
  0
VERTEX
  8
COUCHE1
  6
CONTINUOUS
 10
13.449735
 20
13.682540
  0
VERTEX
  8
COUCHE1
  6
CONTINUOUS
 10
13.417989
 20
13.587302
  0
VERTEX
  8
COUCHE1
  6
CONTINUOUS
 10
13.370370
 20
13.534392
  0
VERTEX
  8
COUCHE1
  6
CONTINUOUS
 10
13.359788
 20
13.640212
  0
VERTEX
  8
COUCHE1
  6
CONTINUOUS
 10
13.449735
 20
13.809524
  0
VERTEX
  8
COUCHE1
  6
CONTINUOUS
 10
13.502646
 20
13.841270
  0
VERTEX
  8
COUCHE1
  6
CONTINUOUS
 10
13.502646
 20
13.867725
  0
VERTEX
  8
COUCHE1
  6
CONTINUOUS
 10
13.455026
 20
13.846561
  0
VERTEX
  8
COUCHE1
  6
CONTINUOUS
 10
13.359788
 20
13.724868
  0
VERTEX
  8
COUCHE1
  6
CONTINUOUS
 10
13.370370
 20
13.894180
  0
VERTEX
  8
COUCHE1
  6
CONTINUOUS
 10
13.481481
 20
14.052910
  0
VERTEX
  8
COUCHE1
  6
CONTINUOUS
 10
13.634921
 20
14.116402
  0
VERTEX
  8
COUCHE1
  6
CONTINUOUS
 10
13.751323
 20
14.132275
  0
SEQEND
  8
0
  0
POLYLINE
  8
COUCHE1
  6
CONTINUOUS
 66
     1
 40
0.000000
 41
0.000000
  0
VERTEX
  8
COUCHE1
  6
CONTINUOUS
 10
13.714286
 20
14.291005
  0
VERTEX
  8
COUCHE1
  6
CONTINUOUS
 10
13.708995
 20
14.264550
  0
VERTEX
  8
COUCHE1
  6
CONTINUOUS
 10
13.687831
 20
14.238095
  0
VERTEX
  8
COUCHE1
  6
CONTINUOUS
 10
13.661376
 20
14.222222
  0
VERTEX
  8
COUCHE1
  6
CONTINUOUS
 10
13.624339
 20
14.216931
  0
VERTEX
  8
COUCHE1
  6
CONTINUOUS
 10
13.592593
 20
14.222222
  0
VERTEX
  8
COUCHE1
  6
CONTINUOUS
 10
13.566138
 20
14.253968
  0
VERTEX
  8
COUCHE1
  6
CONTINUOUS
 10
13.555556
 20
14.275132
  0
VERTEX
  8
COUCHE1
  6
CONTINUOUS
 10
13.555556
 20
14.301587
  0
VERTEX
  8
COUCHE1
  6
CONTINUOUS
 10
13.566138
 20
14.328042
  0
VERTEX
  8
COUCHE1
  6
CONTINUOUS
 10
13.592593
 20
14.354497
  0
VERTEX
  8
COUCHE1
  6
CONTINUOUS
 10
13.624339
 20
14.359788
  0
VERTEX
  8
COUCHE1
  6
CONTINUOUS
 10
13.661376
 20
14.354497
  0
VERTEX
  8
COUCHE1
  6
CONTINUOUS
 10
13.687831
 20
14.343915
  0
VERTEX
  8
COUCHE1
  6
CONTINUOUS
 10
13.708995
 20
14.317460
  0
VERTEX
  8
COUCHE1
  6
CONTINUOUS
 10
13.714286
 20
14.291005
  0
SEQEND
  8
0
  0
POLYLINE
  8
COUCHE1
  6
CONTINUOUS
 66
     1
 40
0.000000
 41
0.000000
  0
VERTEX
  8
COUCHE1
  6
CONTINUOUS
 10
13.714286
 20
14.291005
  0
VERTEX
  8
COUCHE1
  6
CONTINUOUS
 10
13.708995
 20
14.264550
  0
VERTEX
  8
COUCHE1
  6
CONTINUOUS
 10
13.687831
 20
14.238095
  0
VERTEX
  8
COUCHE1
  6
CONTINUOUS
 10
13.661376
 20
14.222222
  0
VERTEX
  8
COUCHE1
  6
CONTINUOUS
 10
13.624339
 20
14.216931
  0
VERTEX
  8
COUCHE1
  6
CONTINUOUS
 10
13.592593
 20
14.222222
  0
VERTEX
  8
COUCHE1
  6
CONTINUOUS
 10
13.566138
 20
14.253968
  0
VERTEX
  8
COUCHE1
  6
CONTINUOUS
 10
13.555556
 20
14.275132
  0
VERTEX
  8
COUCHE1
  6
CONTINUOUS
 10
13.555556
 20
14.301587
  0
VERTEX
  8
COUCHE1
  6
CONTINUOUS
 10
13.566138
 20
14.328042
  0
VERTEX
  8
COUCHE1
  6
CONTINUOUS
 10
13.592593
 20
14.354497
  0
VERTEX
  8
COUCHE1
  6
CONTINUOUS
 10
13.624339
 20
14.359788
  0
VERTEX
  8
COUCHE1
  6
CONTINUOUS
 10
13.661376
 20
14.354497
  0
VERTEX
  8
COUCHE1
  6
CONTINUOUS
 10
13.687831
 20
14.343915
  0
VERTEX
  8
COUCHE1
  6
CONTINUOUS
 10
13.708995
 20
14.317460
  0
VERTEX
  8
COUCHE1
  6
CONTINUOUS
 10
13.714286
 20
14.291005
  0
SEQEND
  8
0
  0
POLYLINE
  8
COUCHE1
  6
CONTINUOUS
 66
     1
 40
0.000000
 41
0.000000
  0
VERTEX
  8
COUCHE1
  6
CONTINUOUS
 10
13.841270
 20
14.402116
  0
VERTEX
  8
COUCHE1
  6
CONTINUOUS
 10
13.835979
 20
14.370370
  0
VERTEX
  8
COUCHE1
  6
CONTINUOUS
 10
13.814815
 20
14.343915
  0
VERTEX
  8
COUCHE1
  6
CONTINUOUS
 10
13.788360
 20
14.328042
  0
VERTEX
  8
COUCHE1
  6
CONTINUOUS
 10
13.756614
 20
14.322751
  0
VERTEX
  8
COUCHE1
  6
CONTINUOUS
 10
13.719577
 20
14.338624
  0
VERTEX
  8
COUCHE1
  6
CONTINUOUS
 10
13.693122
 20
14.354497
  0
VERTEX
  8
COUCHE1
  6
CONTINUOUS
 10
13.682540
 20
14.391534
  0
VERTEX
  8
COUCHE1
  6
CONTINUOUS
 10
13.682540
 20
14.423280
  0
VERTEX
  8
COUCHE1
  6
CONTINUOUS
 10
13.693122
 20
14.449735
  0
VERTEX
  8
COUCHE1
  6
CONTINUOUS
 10
13.719577
 20
14.470899
  0
VERTEX
  8
COUCHE1
  6
CONTINUOUS
 10
13.756614
 20
14.481481
  0
VERTEX
  8
COUCHE1
  6
CONTINUOUS
 10
13.788360
 20
14.476190
  0
VERTEX
  8
COUCHE1
  6
CONTINUOUS
 10
13.814815
 20
14.460317
  0
VERTEX
  8
COUCHE1
  6
CONTINUOUS
 10
13.835979
 20
14.433862
  0
VERTEX
  8
COUCHE1
  6
CONTINUOUS
 10
13.841270
 20
14.402116
  0
SEQEND
  8
0
  0
POLYLINE
  8
COUCHE1
  6
CONTINUOUS
 66
     1
 40
0.000000
 41
0.000000
  0
VERTEX
  8
COUCHE1
  6
CONTINUOUS
 10
13.841270
 20
14.402116
  0
VERTEX
  8
COUCHE1
  6
CONTINUOUS
 10
13.835979
 20
14.370370
  0
VERTEX
  8
COUCHE1
  6
CONTINUOUS
 10
13.814815
 20
14.343915
  0
VERTEX
  8
COUCHE1
  6
CONTINUOUS
 10
13.788360
 20
14.328042
  0
VERTEX
  8
COUCHE1
  6
CONTINUOUS
 10
13.756614
 20
14.322751
  0
VERTEX
  8
COUCHE1
  6
CONTINUOUS
 10
13.719577
 20
14.338624
  0
VERTEX
  8
COUCHE1
  6
CONTINUOUS
 10
13.693122
 20
14.354497
  0
VERTEX
  8
COUCHE1
  6
CONTINUOUS
 10
13.682540
 20
14.391534
  0
VERTEX
  8
COUCHE1
  6
CONTINUOUS
 10
13.682540
 20
14.423280
  0
VERTEX
  8
COUCHE1
  6
CONTINUOUS
 10
13.693122
 20
14.449735
  0
VERTEX
  8
COUCHE1
  6
CONTINUOUS
 10
13.719577
 20
14.470899
  0
VERTEX
  8
COUCHE1
  6
CONTINUOUS
 10
13.756614
 20
14.481481
  0
VERTEX
  8
COUCHE1
  6
CONTINUOUS
 10
13.788360
 20
14.476190
  0
VERTEX
  8
COUCHE1
  6
CONTINUOUS
 10
13.814815
 20
14.460317
  0
VERTEX
  8
COUCHE1
  6
CONTINUOUS
 10
13.835979
 20
14.433862
  0
VERTEX
  8
COUCHE1
  6
CONTINUOUS
 10
13.841270
 20
14.402116
  0
SEQEND
  8
0
  0
POLYLINE
  8
COUCHE1
  6
CONTINUOUS
 66
     1
 40
0.000000
 41
0.000000
  0
VERTEX
  8
COUCHE1
  6
CONTINUOUS
 10
13.682540
 20
14.455026
  0
VERTEX
  8
COUCHE1
  6
CONTINUOUS
 10
13.677249
 20
14.423280
  0
VERTEX
  8
COUCHE1
  6
CONTINUOUS
 10
13.656085
 20
14.396825
  0
VERTEX
  8
COUCHE1
  6
CONTINUOUS
 10
13.624339
 20
14.380952
  0
VERTEX
  8
COUCHE1
  6
CONTINUOUS
 10
13.592593
 20
14.375661
  0
VERTEX
  8
COUCHE1
  6
CONTINUOUS
 10
13.555556
 20
14.391534
  0
VERTEX
  8
COUCHE1
  6
CONTINUOUS
 10
13.529101
 20
14.412698
  0
VERTEX
  8
COUCHE1
  6
CONTINUOUS
 10
13.518519
 20
14.444444
  0
VERTEX
  8
COUCHE1
  6
CONTINUOUS
 10
13.518519
 20
14.476190
  0
VERTEX
  8
COUCHE1
  6
CONTINUOUS
 10
13.529101
 20
14.507937
  0
VERTEX
  8
COUCHE1
  6
CONTINUOUS
 10
13.555556
 20
14.523810
  0
VERTEX
  8
COUCHE1
  6
CONTINUOUS
 10
13.592593
 20
14.534392
  0
VERTEX
  8
COUCHE1
  6
CONTINUOUS
 10
13.624339
 20
14.534392
  0
VERTEX
  8
COUCHE1
  6
CONTINUOUS
 10
13.656085
 20
14.518519
  0
VERTEX
  8
COUCHE1
  6
CONTINUOUS
 10
13.677249
 20
14.492063
  0
VERTEX
  8
COUCHE1
  6
CONTINUOUS
 10
13.682540
 20
14.455026
  0
SEQEND
  8
0
  0
POLYLINE
  8
COUCHE1
  6
CONTINUOUS
 66
     1
 40
0.000000
 41
0.000000
  0
VERTEX
  8
COUCHE1
  6
CONTINUOUS
 10
13.682540
 20
14.455026
  0
VERTEX
  8
COUCHE1
  6
CONTINUOUS
 10
13.677249
 20
14.423280
  0
VERTEX
  8
COUCHE1
  6
CONTINUOUS
 10
13.656085
 20
14.396825
  0
VERTEX
  8
COUCHE1
  6
CONTINUOUS
 10
13.624339
 20
14.380952
  0
VERTEX
  8
COUCHE1
  6
CONTINUOUS
 10
13.592593
 20
14.375661
  0
VERTEX
  8
COUCHE1
  6
CONTINUOUS
 10
13.555556
 20
14.391534
  0
VERTEX
  8
COUCHE1
  6
CONTINUOUS
 10
13.529101
 20
14.412698
  0
VERTEX
  8
COUCHE1
  6
CONTINUOUS
 10
13.518519
 20
14.444444
  0
VERTEX
  8
COUCHE1
  6
CONTINUOUS
 10
13.518519
 20
14.476190
  0
VERTEX
  8
COUCHE1
  6
CONTINUOUS
 10
13.529101
 20
14.507937
  0
VERTEX
  8
COUCHE1
  6
CONTINUOUS
 10
13.555556
 20
14.523810
  0
VERTEX
  8
COUCHE1
  6
CONTINUOUS
 10
13.592593
 20
14.534392
  0
VERTEX
  8
COUCHE1
  6
CONTINUOUS
 10
13.624339
 20
14.534392
  0
VERTEX
  8
COUCHE1
  6
CONTINUOUS
 10
13.656085
 20
14.518519
  0
VERTEX
  8
COUCHE1
  6
CONTINUOUS
 10
13.677249
 20
14.492063
  0
VERTEX
  8
COUCHE1
  6
CONTINUOUS
 10
13.682540
 20
14.455026
  0
SEQEND
  8
0
  0
POLYLINE
  8
COUCHE1
  6
CONTINUOUS
 66
     1
 40
0.000000
 41
0.000000
  0
VERTEX
  8
COUCHE1
  6
CONTINUOUS
 10
13.968254
 20
14.190476
  0
VERTEX
  8
COUCHE1
  6
CONTINUOUS
 10
13.962963
 20
14.164021
  0
VERTEX
  8
COUCHE1
  6
CONTINUOUS
 10
13.941799
 20
14.137566
  0
VERTEX
  8
COUCHE1
  6
CONTINUOUS
 10
13.915344
 20
14.121693
  0
VERTEX
  8
COUCHE1
  6
CONTINUOUS
 10
13.878307
 20
14.116402
  0
VERTEX
  8
COUCHE1
  6
CONTINUOUS
 10
13.846561
 20
14.121693
  0
VERTEX
  8
COUCHE1
  6
CONTINUOUS
 10
13.820106
 20
14.153439
  0
VERTEX
  8
COUCHE1
  6
CONTINUOUS
 10
13.809524
 20
14.174603
  0
VERTEX
  8
COUCHE1
  6
CONTINUOUS
 10
13.809524
 20
14.206349
  0
VERTEX
  8
COUCHE1
  6
CONTINUOUS
 10
13.820106
 20
14.227513
  0
VERTEX
  8
COUCHE1
  6
CONTINUOUS
 10
13.846561
 20
14.253968
  0
VERTEX
  8
COUCHE1
  6
CONTINUOUS
 10
13.878307
 20
14.259259
  0
VERTEX
  8
COUCHE1
  6
CONTINUOUS
 10
13.915344
 20
14.253968
  0
VERTEX
  8
COUCHE1
  6
CONTINUOUS
 10
13.941799
 20
14.243386
  0
VERTEX
  8
COUCHE1
  6
CONTINUOUS
 10
13.962963
 20
14.216931
  0
VERTEX
  8
COUCHE1
  6
CONTINUOUS
 10
13.968254
 20
14.190476
  0
SEQEND
  8
0
  0
POLYLINE
  8
COUCHE1
  6
CONTINUOUS
 66
     1
 40
0.000000
 41
0.000000
  0
VERTEX
  8
COUCHE1
  6
CONTINUOUS
 10
13.968254
 20
14.190476
  0
VERTEX
  8
COUCHE1
  6
CONTINUOUS
 10
13.962963
 20
14.164021
  0
VERTEX
  8
COUCHE1
  6
CONTINUOUS
 10
13.941799
 20
14.137566
  0
VERTEX
  8
COUCHE1
  6
CONTINUOUS
 10
13.915344
 20
14.121693
  0
VERTEX
  8
COUCHE1
  6
CONTINUOUS
 10
13.878307
 20
14.116402
  0
VERTEX
  8
COUCHE1
  6
CONTINUOUS
 10
13.846561
 20
14.121693
  0
VERTEX
  8
COUCHE1
  6
CONTINUOUS
 10
13.820106
 20
14.153439
  0
VERTEX
  8
COUCHE1
  6
CONTINUOUS
 10
13.809524
 20
14.174603
  0
VERTEX
  8
COUCHE1
  6
CONTINUOUS
 10
13.809524
 20
14.206349
  0
VERTEX
  8
COUCHE1
  6
CONTINUOUS
 10
13.820106
 20
14.227513
  0
VERTEX
  8
COUCHE1
  6
CONTINUOUS
 10
13.846561
 20
14.253968
  0
VERTEX
  8
COUCHE1
  6
CONTINUOUS
 10
13.878307
 20
14.259259
  0
VERTEX
  8
COUCHE1
  6
CONTINUOUS
 10
13.915344
 20
14.253968
  0
VERTEX
  8
COUCHE1
  6
CONTINUOUS
 10
13.941799
 20
14.243386
  0
VERTEX
  8
COUCHE1
  6
CONTINUOUS
 10
13.962963
 20
14.216931
  0
VERTEX
  8
COUCHE1
  6
CONTINUOUS
 10
13.968254
 20
14.190476
  0
SEQEND
  8
0
  0
POLYLINE
  8
COUCHE1
  6
CONTINUOUS
 66
     1
 40
0.000000
 41
0.000000
  0
VERTEX
  8
COUCHE1
  6
CONTINUOUS
 10
13.952381
 20
14.253968
  0
VERTEX
  8
COUCHE1
  6
CONTINUOUS
 10
14.037037
 20
14.174603
  0
VERTEX
  8
COUCHE1
  6
CONTINUOUS
 10
14.063492
 20
14.047619
  0
VERTEX
  8
COUCHE1
  6
CONTINUOUS
 10
14.095238
 20
14.137566
  0
VERTEX
  8
COUCHE1
  6
CONTINUOUS
 10
14.100529
 20
14.216931
  0
VERTEX
  8
COUCHE1
  6
CONTINUOUS
 10
14.185185
 20
14.153439
  0
VERTEX
  8
COUCHE1
  6
CONTINUOUS
 10
14.206349
 20
14.037037
  0
VERTEX
  8
COUCHE1
  6
CONTINUOUS
 10
14.227513
 20
14.137566
  0
VERTEX
  8
COUCHE1
  6
CONTINUOUS
 10
14.312169
 20
14.037037
  0
VERTEX
  8
COUCHE1
  6
CONTINUOUS
 10
14.322751
 20
13.941799
  0
VERTEX
  8
COUCHE1
  6
CONTINUOUS
 10
14.338624
 20
14.089947
  0
VERTEX
  8
COUCHE1
  6
CONTINUOUS
 10
14.195767
 20
14.243386
  0
VERTEX
  8
COUCHE1
  6
CONTINUOUS
 10
13.931217
 20
14.317460
  0
VERTEX
  8
COUCHE1
  6
CONTINUOUS
 10
13.761905
 20
14.269841
  0
VERTEX
  8
COUCHE1
  6
CONTINUOUS
 10
13.761905
 20
14.232804
  0
VERTEX
  8
COUCHE1
  6
CONTINUOUS
 10
13.888889
 20
14.291005
  0
VERTEX
  8
COUCHE1
  6
CONTINUOUS
 10
13.952381
 20
14.243386
  0
SEQEND
  8
0
  0
POLYLINE
  8
COUCHE1
  6
CONTINUOUS
 66
     1
 40
0.000000
 41
0.000000
  0
VERTEX
  8
COUCHE1
  6
CONTINUOUS
 10
13.952381
 20
14.253968
  0
VERTEX
  8
COUCHE1
  6
CONTINUOUS
 10
14.037037
 20
14.174603
  0
VERTEX
  8
COUCHE1
  6
CONTINUOUS
 10
14.063492
 20
14.047619
  0
VERTEX
  8
COUCHE1
  6
CONTINUOUS
 10
14.095238
 20
14.137566
  0
VERTEX
  8
COUCHE1
  6
CONTINUOUS
 10
14.100529
 20
14.216931
  0
VERTEX
  8
COUCHE1
  6
CONTINUOUS
 10
14.185185
 20
14.153439
  0
VERTEX
  8
COUCHE1
  6
CONTINUOUS
 10
14.206349
 20
14.037037
  0
VERTEX
  8
COUCHE1
  6
CONTINUOUS
 10
14.227513
 20
14.137566
  0
VERTEX
  8
COUCHE1
  6
CONTINUOUS
 10
14.312169
 20
14.037037
  0
VERTEX
  8
COUCHE1
  6
CONTINUOUS
 10
14.322751
 20
13.941799
  0
VERTEX
  8
COUCHE1
  6
CONTINUOUS
 10
14.338624
 20
14.089947
  0
VERTEX
  8
COUCHE1
  6
CONTINUOUS
 10
14.195767
 20
14.243386
  0
VERTEX
  8
COUCHE1
  6
CONTINUOUS
 10
13.931217
 20
14.317460
  0
VERTEX
  8
COUCHE1
  6
CONTINUOUS
 10
13.761905
 20
14.269841
  0
VERTEX
  8
COUCHE1
  6
CONTINUOUS
 10
13.761905
 20
14.232804
  0
VERTEX
  8
COUCHE1
  6
CONTINUOUS
 10
13.888889
 20
14.291005
  0
VERTEX
  8
COUCHE1
  6
CONTINUOUS
 10
13.952381
 20
14.243386
  0
SEQEND
  8
0
  0
POLYLINE
  8
COUCHE1
  6
CONTINUOUS
 66
     1
 40
0.000000
 41
0.000000
  0
VERTEX
  8
COUCHE1
  6
CONTINUOUS
 10
13.481481
 20
14.322751
  0
VERTEX
  8
COUCHE1
  6
CONTINUOUS
 10
13.402116
 20
14.253968
  0
VERTEX
  8
COUCHE1
  6
CONTINUOUS
 10
13.375661
 20
14.116402
  0
VERTEX
  8
COUCHE1
  6
CONTINUOUS
 10
13.338624
 20
14.211640
  0
VERTEX
  8
COUCHE1
  6
CONTINUOUS
 10
13.328042
 20
14.291005
  0
VERTEX
  8
COUCHE1
  6
CONTINUOUS
 10
13.248677
 20
14.216931
  0
VERTEX
  8
COUCHE1
  6
CONTINUOUS
 10
13.232804
 20
14.111111
  0
VERTEX
  8
COUCHE1
  6
CONTINUOUS
 10
13.206349
 20
14.211640
  0
VERTEX
  8
COUCHE1
  6
CONTINUOUS
 10
13.126984
 20
14.100529
  0
VERTEX
  8
COUCHE1
  6
CONTINUOUS
 10
13.111111
 20
14.015873
  0
VERTEX
  8
COUCHE1
  6
CONTINUOUS
 10
13.100529
 20
14.164021
  0
VERTEX
  8
COUCHE1
  6
CONTINUOUS
 10
13.238095
 20
14.312169
  0
VERTEX
  8
COUCHE1
  6
CONTINUOUS
 10
13.502646
 20
14.391534
  0
VERTEX
  8
COUCHE1
  6
CONTINUOUS
 10
13.671958
 20
14.349206
  0
VERTEX
  8
COUCHE1
  6
CONTINUOUS
 10
13.677249
 20
14.306878
  0
VERTEX
  8
COUCHE1
  6
CONTINUOUS
 10
13.550265
 20
14.359788
  0
VERTEX
  8
COUCHE1
  6
CONTINUOUS
 10
13.476190
 20
14.312169
  0
SEQEND
  8
0
  0
POLYLINE
  8
COUCHE1
  6
CONTINUOUS
 66
     1
 40
0.000000
 41
0.000000
  0
VERTEX
  8
COUCHE1
  6
CONTINUOUS
 10
13.481481
 20
14.322751
  0
VERTEX
  8
COUCHE1
  6
CONTINUOUS
 10
13.402116
 20
14.253968
  0
VERTEX
  8
COUCHE1
  6
CONTINUOUS
 10
13.375661
 20
14.116402
  0
VERTEX
  8
COUCHE1
  6
CONTINUOUS
 10
13.338624
 20
14.211640
  0
VERTEX
  8
COUCHE1
  6
CONTINUOUS
 10
13.328042
 20
14.291005
  0
VERTEX
  8
COUCHE1
  6
CONTINUOUS
 10
13.248677
 20
14.216931
  0
VERTEX
  8
COUCHE1
  6
CONTINUOUS
 10
13.232804
 20
14.111111
  0
VERTEX
  8
COUCHE1
  6
CONTINUOUS
 10
13.206349
 20
14.211640
  0
VERTEX
  8
COUCHE1
  6
CONTINUOUS
 10
13.126984
 20
14.100529
  0
VERTEX
  8
COUCHE1
  6
CONTINUOUS
 10
13.111111
 20
14.015873
  0
VERTEX
  8
COUCHE1
  6
CONTINUOUS
 10
13.100529
 20
14.164021
  0
VERTEX
  8
COUCHE1
  6
CONTINUOUS
 10
13.238095
 20
14.312169
  0
VERTEX
  8
COUCHE1
  6
CONTINUOUS
 10
13.502646
 20
14.391534
  0
VERTEX
  8
COUCHE1
  6
CONTINUOUS
 10
13.671958
 20
14.349206
  0
VERTEX
  8
COUCHE1
  6
CONTINUOUS
 10
13.677249
 20
14.306878
  0
VERTEX
  8
COUCHE1
  6
CONTINUOUS
 10
13.550265
 20
14.359788
  0
VERTEX
  8
COUCHE1
  6
CONTINUOUS
 10
13.476190
 20
14.312169
  0
SEQEND
  8
0
  0
POLYLINE
  8
COUCHE1
  6
CONTINUOUS
 66
     1
 40
0.000000
 41
0.000000
  0
VERTEX
  8
COUCHE1
  6
CONTINUOUS
 10
13.841270
 20
14.497354
  0
VERTEX
  8
COUCHE1
  6
CONTINUOUS
 10
13.920635
 20
14.423280
  0
VERTEX
  8
COUCHE1
  6
CONTINUOUS
 10
13.947090
 20
14.296296
  0
VERTEX
  8
COUCHE1
  6
CONTINUOUS
 10
13.978836
 20
14.391534
  0
VERTEX
  8
COUCHE1
  6
CONTINUOUS
 10
13.989418
 20
14.470899
  0
VERTEX
  8
COUCHE1
  6
CONTINUOUS
 10
14.068783
 20
14.396825
  0
VERTEX
  8
COUCHE1
  6
CONTINUOUS
 10
14.084656
 20
14.291005
  0
VERTEX
  8
COUCHE1
  6
CONTINUOUS
 10
14.116402
 20
14.391534
  0
VERTEX
  8
COUCHE1
  6
CONTINUOUS
 10
14.195767
 20
14.280423
  0
VERTEX
  8
COUCHE1
  6
CONTINUOUS
 10
14.206349
 20
14.195767
  0
VERTEX
  8
COUCHE1
  6
CONTINUOUS
 10
14.222222
 20
14.338624
  0
VERTEX
  8
COUCHE1
  6
CONTINUOUS
 10
14.079365
 20
14.492063
  0
VERTEX
  8
COUCHE1
  6
CONTINUOUS
 10
13.820106
 20
14.560847
  0
VERTEX
  8
COUCHE1
  6
CONTINUOUS
 10
13.645503
 20
14.518519
  0
VERTEX
  8
COUCHE1
  6
CONTINUOUS
 10
13.645503
 20
14.486772
  0
VERTEX
  8
COUCHE1
  6
CONTINUOUS
 10
13.772487
 20
14.534392
  0
VERTEX
  8
COUCHE1
  6
CONTINUOUS
 10
13.841270
 20
14.492063
  0
SEQEND
  8
0
  0
POLYLINE
  8
COUCHE1
  6
CONTINUOUS
 66
     1
 40
0.000000
 41
0.000000
  0
VERTEX
  8
COUCHE1
  6
CONTINUOUS
 10
13.841270
 20
14.497354
  0
VERTEX
  8
COUCHE1
  6
CONTINUOUS
 10
13.920635
 20
14.423280
  0
VERTEX
  8
COUCHE1
  6
CONTINUOUS
 10
13.947090
 20
14.296296
  0
VERTEX
  8
COUCHE1
  6
CONTINUOUS
 10
13.978836
 20
14.391534
  0
VERTEX
  8
COUCHE1
  6
CONTINUOUS
 10
13.989418
 20
14.470899
  0
VERTEX
  8
COUCHE1
  6
CONTINUOUS
 10
14.068783
 20
14.396825
  0
VERTEX
  8
COUCHE1
  6
CONTINUOUS
 10
14.084656
 20
14.291005
  0
VERTEX
  8
COUCHE1
  6
CONTINUOUS
 10
14.116402
 20
14.391534
  0
VERTEX
  8
COUCHE1
  6
CONTINUOUS
 10
14.195767
 20
14.280423
  0
VERTEX
  8
COUCHE1
  6
CONTINUOUS
 10
14.206349
 20
14.195767
  0
VERTEX
  8
COUCHE1
  6
CONTINUOUS
 10
14.222222
 20
14.338624
  0
VERTEX
  8
COUCHE1
  6
CONTINUOUS
 10
14.079365
 20
14.492063
  0
VERTEX
  8
COUCHE1
  6
CONTINUOUS
 10
13.820106
 20
14.560847
  0
VERTEX
  8
COUCHE1
  6
CONTINUOUS
 10
13.645503
 20
14.518519
  0
VERTEX
  8
COUCHE1
  6
CONTINUOUS
 10
13.645503
 20
14.486772
  0
VERTEX
  8
COUCHE1
  6
CONTINUOUS
 10
13.772487
 20
14.534392
  0
VERTEX
  8
COUCHE1
  6
CONTINUOUS
 10
13.841270
 20
14.492063
  0
SEQEND
  8
0
  0
POLYLINE
  8
COUCHE1
  6
CONTINUOUS
 66
     1
 40
0.000000
 41
0.000000
  0
VERTEX
  8
COUCHE1
  6
CONTINUOUS
 10
13.470899
 20
13.899471
  0
VERTEX
  8
COUCHE1
  6
CONTINUOUS
 10
13.550265
 20
13.941799
  0
VERTEX
  8
COUCHE1
  6
CONTINUOUS
 10
13.566138
 20
13.978836
  0
VERTEX
  8
COUCHE1
  6
CONTINUOUS
 10
13.592593
 20
13.947090
  0
VERTEX
  8
COUCHE1
  6
CONTINUOUS
 10
13.703704
 20
13.962963
  0
VERTEX
  8
COUCHE1
  6
CONTINUOUS
 10
13.693122
 20
13.947090
  0
VERTEX
  8
COUCHE1
  6
CONTINUOUS
 10
13.592593
 20
13.947090
  0
VERTEX
  8
COUCHE1
  6
CONTINUOUS
 10
13.550265
 20
13.925926
  0
VERTEX
  8
COUCHE1
  6
CONTINUOUS
 10
13.486772
 20
13.894180
  0
VERTEX
  8
COUCHE1
  6
CONTINUOUS
 10
13.470899
 20
13.899471
  0
SEQEND
  8
0
  0
POLYLINE
  8
COUCHE1
 62
     7
  6
CONTINUOUS
 66
     1
 40
0.000000
 41
0.000000
  0
VERTEX
  8
COUCHE1
 62
     7
  6
CONTINUOUS
 10
13.470899
 20
13.899471
  0
VERTEX
  8
COUCHE1
 62
     7
  6
CONTINUOUS
 10
13.550265
 20
13.941799
  0
VERTEX
  8
COUCHE1
 62
     7
  6
CONTINUOUS
 10
13.566138
 20
13.978836
  0
VERTEX
  8
COUCHE1
 62
     7
  6
CONTINUOUS
 10
13.592593
 20
13.947090
  0
VERTEX
  8
COUCHE1
 62
     7
  6
CONTINUOUS
 10
13.703704
 20
13.962963
  0
VERTEX
  8
COUCHE1
 62
     7
  6
CONTINUOUS
 10
13.693122
 20
13.947090
  0
VERTEX
  8
COUCHE1
 62
     7
  6
CONTINUOUS
 10
13.592593
 20
13.947090
  0
VERTEX
  8
COUCHE1
 62
     7
  6
CONTINUOUS
 10
13.550265
 20
13.925926
  0
VERTEX
  8
COUCHE1
 62
     7
  6
CONTINUOUS
 10
13.486772
 20
13.894180
  0
VERTEX
  8
COUCHE1
 62
     7
  6
CONTINUOUS
 10
13.470899
 20
13.899471
  0
SEQEND
  8
0
  0
POLYLINE
  8
COUCHE1
  6
CONTINUOUS
 66
     1
 40
0.000000
 41
0.000000
  0
VERTEX
  8
COUCHE1
  6
CONTINUOUS
 10
13.798942
 20
13.957672
  0
VERTEX
  8
COUCHE1
  6
CONTINUOUS
 10
13.883598
 20
13.952381
  0
VERTEX
  8
COUCHE1
  6
CONTINUOUS
 10
13.915344
 20
13.978836
  0
VERTEX
  8
COUCHE1
  6
CONTINUOUS
 10
13.920635
 20
13.936508
  0
VERTEX
  8
COUCHE1
  6
CONTINUOUS
 10
14.026455
 20
13.899471
  0
VERTEX
  8
COUCHE1
  6
CONTINUOUS
 10
14.005291
 20
13.883598
  0
VERTEX
  8
COUCHE1
  6
CONTINUOUS
 10
13.920635
 20
13.931217
  0
VERTEX
  8
COUCHE1
  6
CONTINUOUS
 10
13.878307
 20
13.947090
  0
VERTEX
  8
COUCHE1
  6
CONTINUOUS
 10
13.814815
 20
13.947090
  0
VERTEX
  8
COUCHE1
  6
CONTINUOUS
 10
13.798942
 20
13.957672
  0
SEQEND
  8
0
  0
POLYLINE
  8
COUCHE1
 62
     7
  6
CONTINUOUS
 66
     1
 40
0.000000
 41
0.000000
  0
VERTEX
  8
COUCHE1
 62
     7
  6
CONTINUOUS
 10
13.798942
 20
13.957672
  0
VERTEX
  8
COUCHE1
 62
     7
  6
CONTINUOUS
 10
13.883598
 20
13.952381
  0
VERTEX
  8
COUCHE1
 62
     7
  6
CONTINUOUS
 10
13.915344
 20
13.978836
  0
VERTEX
  8
COUCHE1
 62
     7
  6
CONTINUOUS
 10
13.920635
 20
13.936508
  0
VERTEX
  8
COUCHE1
 62
     7
  6
CONTINUOUS
 10
14.026455
 20
13.899471
  0
VERTEX
  8
COUCHE1
 62
     7
  6
CONTINUOUS
 10
14.005291
 20
13.883598
  0
VERTEX
  8
COUCHE1
 62
     7
  6
CONTINUOUS
 10
13.920635
 20
13.931217
  0
VERTEX
  8
COUCHE1
 62
     7
  6
CONTINUOUS
 10
13.878307
 20
13.947090
  0
VERTEX
  8
COUCHE1
 62
     7
  6
CONTINUOUS
 10
13.814815
 20
13.947090
  0
VERTEX
  8
COUCHE1
 62
     7
  6
CONTINUOUS
 10
13.798942
 20
13.957672
  0
SEQEND
  8
0
  0
POLYLINE
  8
COUCHE1
  6
CONTINUOUS
 66
     1
 40
0.000000
 41
0.000000
  0
VERTEX
  8
COUCHE1
  6
CONTINUOUS
 10
13.666667
 20
13.873016
  0
VERTEX
  8
COUCHE1
  6
CONTINUOUS
 10
13.746032
 20
13.883598
  0
VERTEX
  8
COUCHE1
  6
CONTINUOUS
 10
13.767196
 20
13.915344
  0
VERTEX
  8
COUCHE1
  6
CONTINUOUS
 10
13.783069
 20
13.883598
  0
VERTEX
  8
COUCHE1
  6
CONTINUOUS
 10
13.883598
 20
13.873016
  0
VERTEX
  8
COUCHE1
  6
CONTINUOUS
 10
13.873016
 20
13.857143
  0
VERTEX
  8
COUCHE1
  6
CONTINUOUS
 10
13.783069
 20
13.883598
  0
VERTEX
  8
COUCHE1
  6
CONTINUOUS
 10
13.740741
 20
13.878307
  0
VERTEX
  8
COUCHE1
  6
CONTINUOUS
 10
13.682540
 20
13.862434
  0
VERTEX
  8
COUCHE1
  6
CONTINUOUS
 10
13.666667
 20
13.873016
  0
SEQEND
  8
0
  0
POLYLINE
  8
COUCHE1
 62
     7
  6
CONTINUOUS
 66
     1
 40
0.000000
 41
0.000000
  0
VERTEX
  8
COUCHE1
 62
     7
  6
CONTINUOUS
 10
13.666667
 20
13.873016
  0
VERTEX
  8
COUCHE1
 62
     7
  6
CONTINUOUS
 10
13.746032
 20
13.883598
  0
VERTEX
  8
COUCHE1
 62
     7
  6
CONTINUOUS
 10
13.767196
 20
13.915344
  0
VERTEX
  8
COUCHE1
 62
     7
  6
CONTINUOUS
 10
13.783069
 20
13.883598
  0
VERTEX
  8
COUCHE1
 62
     7
  6
CONTINUOUS
 10
13.883598
 20
13.873016
  0
VERTEX
  8
COUCHE1
 62
     7
  6
CONTINUOUS
 10
13.873016
 20
13.857143
  0
VERTEX
  8
COUCHE1
 62
     7
  6
CONTINUOUS
 10
13.783069
 20
13.883598
  0
VERTEX
  8
COUCHE1
 62
     7
  6
CONTINUOUS
 10
13.740741
 20
13.878307
  0
VERTEX
  8
COUCHE1
 62
     7
  6
CONTINUOUS
 10
13.682540
 20
13.862434
  0
VERTEX
  8
COUCHE1
 62
     7
  6
CONTINUOUS
 10
13.666667
 20
13.873016
  0
SEQEND
  8
0
  0
POLYLINE
  8
COUCHE1
  6
CONTINUOUS
 66
     1
 40
0.000000
 41
0.000000
  0
VERTEX
  8
COUCHE1
  6
CONTINUOUS
 10
13.502646
 20
13.777778
  0
VERTEX
  8
COUCHE1
  6
CONTINUOUS
 10
13.571429
 20
13.793651
  0
VERTEX
  8
COUCHE1
  6
CONTINUOUS
 10
13.592593
 20
13.820106
  0
VERTEX
  8
COUCHE1
  6
CONTINUOUS
 10
13.603175
 20
13.793651
  0
VERTEX
  8
COUCHE1
  6
CONTINUOUS
 10
13.682540
 20
13.777778
  0
VERTEX
  8
COUCHE1
  6
CONTINUOUS
 10
13.671958
 20
13.761905
  0
VERTEX
  8
COUCHE1
  6
CONTINUOUS
 10
13.603175
 20
13.783069
  0
VERTEX
  8
COUCHE1
  6
CONTINUOUS
 10
13.566138
 20
13.783069
  0
VERTEX
  8
COUCHE1
  6
CONTINUOUS
 10
13.513228
 20
13.772487
  0
VERTEX
  8
COUCHE1
  6
CONTINUOUS
 10
13.502646
 20
13.777778
  0
SEQEND
  8
0
  0
POLYLINE
  8
COUCHE1
 62
     7
  6
CONTINUOUS
 66
     1
 40
0.000000
 41
0.000000
  0
VERTEX
  8
COUCHE1
 62
     7
  6
CONTINUOUS
 10
13.502646
 20
13.777778
  0
VERTEX
  8
COUCHE1
 62
     7
  6
CONTINUOUS
 10
13.571429
 20
13.793651
  0
VERTEX
  8
COUCHE1
 62
     7
  6
CONTINUOUS
 10
13.592593
 20
13.820106
  0
VERTEX
  8
COUCHE1
 62
     7
  6
CONTINUOUS
 10
13.603175
 20
13.793651
  0
VERTEX
  8
COUCHE1
 62
     7
  6
CONTINUOUS
 10
13.682540
 20
13.777778
  0
VERTEX
  8
COUCHE1
 62
     7
  6
CONTINUOUS
 10
13.671958
 20
13.761905
  0
VERTEX
  8
COUCHE1
 62
     7
  6
CONTINUOUS
 10
13.603175
 20
13.783069
  0
VERTEX
  8
COUCHE1
 62
     7
  6
CONTINUOUS
 10
13.566138
 20
13.783069
  0
VERTEX
  8
COUCHE1
 62
     7
  6
CONTINUOUS
 10
13.513228
 20
13.772487
  0
VERTEX
  8
COUCHE1
 62
     7
  6
CONTINUOUS
 10
13.502646
 20
13.777778
  0
SEQEND
  8
0
  0
POLYLINE
  8
COUCHE1
  6
CONTINUOUS
 66
     1
 40
0.000000
 41
0.000000
  0
VERTEX
  8
COUCHE1
  6
CONTINUOUS
 10
13.809524
 20
13.761905
  0
VERTEX
  8
COUCHE1
  6
CONTINUOUS
 10
13.873016
 20
13.772487
  0
VERTEX
  8
COUCHE1
  6
CONTINUOUS
 10
13.894180
 20
13.798942
  0
VERTEX
  8
COUCHE1
  6
CONTINUOUS
 10
13.904762
 20
13.772487
  0
VERTEX
  8
COUCHE1
  6
CONTINUOUS
 10
13.989418
 20
13.756614
  0
VERTEX
  8
COUCHE1
  6
CONTINUOUS
 10
13.973545
 20
13.751323
  0
VERTEX
  8
COUCHE1
  6
CONTINUOUS
 10
13.904762
 20
13.772487
  0
VERTEX
  8
COUCHE1
  6
CONTINUOUS
 10
13.873016
 20
13.761905
  0
VERTEX
  8
COUCHE1
  6
CONTINUOUS
 10
13.825397
 20
13.751323
  0
VERTEX
  8
COUCHE1
  6
CONTINUOUS
 10
13.809524
 20
13.761905
  0
SEQEND
  8
0
  0
POLYLINE
  8
COUCHE1
 62
     7
  6
CONTINUOUS
 66
     1
 40
0.000000
 41
0.000000
  0
VERTEX
  8
COUCHE1
 62
     7
  6
CONTINUOUS
 10
13.809524
 20
13.761905
  0
VERTEX
  8
COUCHE1
 62
     7
  6
CONTINUOUS
 10
13.873016
 20
13.772487
  0
VERTEX
  8
COUCHE1
 62
     7
  6
CONTINUOUS
 10
13.894180
 20
13.798942
  0
VERTEX
  8
COUCHE1
 62
     7
  6
CONTINUOUS
 10
13.904762
 20
13.772487
  0
VERTEX
  8
COUCHE1
 62
     7
  6
CONTINUOUS
 10
13.989418
 20
13.756614
  0
VERTEX
  8
COUCHE1
 62
     7
  6
CONTINUOUS
 10
13.973545
 20
13.751323
  0
VERTEX
  8
COUCHE1
 62
     7
  6
CONTINUOUS
 10
13.904762
 20
13.772487
  0
VERTEX
  8
COUCHE1
 62
     7
  6
CONTINUOUS
 10
13.873016
 20
13.761905
  0
VERTEX
  8
COUCHE1
 62
     7
  6
CONTINUOUS
 10
13.825397
 20
13.751323
  0
VERTEX
  8
COUCHE1
 62
     7
  6
CONTINUOUS
 10
13.809524
 20
13.761905
  0
SEQEND
  8
0
  0
POLYLINE
  8
COUCHE1
  6
CONTINUOUS
 66
     1
 40
0.000000
 41
0.000000
  0
VERTEX
  8
COUCHE1
  6
CONTINUOUS
 10
13.661376
 20
13.714286
  0
VERTEX
  8
COUCHE1
  6
CONTINUOUS
 10
13.714286
 20
13.719577
  0
VERTEX
  8
COUCHE1
  6
CONTINUOUS
 10
13.735450
 20
13.746032
  0
VERTEX
  8
COUCHE1
  6
CONTINUOUS
 10
13.740741
 20
13.719577
  0
VERTEX
  8
COUCHE1
  6
CONTINUOUS
 10
13.809524
 20
13.708995
  0
VERTEX
  8
COUCHE1
  6
CONTINUOUS
 10
13.804233
 20
13.698413
  0
VERTEX
  8
COUCHE1
  6
CONTINUOUS
 10
13.740741
 20
13.719577
  0
VERTEX
  8
COUCHE1
  6
CONTINUOUS
 10
13.714286
 20
13.714286
  0
VERTEX
  8
COUCHE1
  6
CONTINUOUS
 10
13.671958
 20
13.708995
  0
VERTEX
  8
COUCHE1
  6
CONTINUOUS
 10
13.661376
 20
13.714286
  0
SEQEND
  8
0
  0
POLYLINE
  8
COUCHE1
 62
     7
  6
CONTINUOUS
 66
     1
 40
0.000000
 41
0.000000
  0
VERTEX
  8
COUCHE1
 62
     7
  6
CONTINUOUS
 10
13.661376
 20
13.714286
  0
VERTEX
  8
COUCHE1
 62
     7
  6
CONTINUOUS
 10
13.714286
 20
13.719577
  0
VERTEX
  8
COUCHE1
 62
     7
  6
CONTINUOUS
 10
13.735450
 20
13.746032
  0
VERTEX
  8
COUCHE1
 62
     7
  6
CONTINUOUS
 10
13.740741
 20
13.719577
  0
VERTEX
  8
COUCHE1
 62
     7
  6
CONTINUOUS
 10
13.809524
 20
13.708995
  0
VERTEX
  8
COUCHE1
 62
     7
  6
CONTINUOUS
 10
13.804233
 20
13.698413
  0
VERTEX
  8
COUCHE1
 62
     7
  6
CONTINUOUS
 10
13.740741
 20
13.719577
  0
VERTEX
  8
COUCHE1
 62
     7
  6
CONTINUOUS
 10
13.714286
 20
13.714286
  0
VERTEX
  8
COUCHE1
 62
     7
  6
CONTINUOUS
 10
13.671958
 20
13.708995
  0
VERTEX
  8
COUCHE1
 62
     7
  6
CONTINUOUS
 10
13.661376
 20
13.714286
  0
SEQEND
  8
0
  0
POLYLINE
  8
COUCHE1
  6
CONTINUOUS
 66
     1
 40
0.000000
 41
0.000000
  0
VERTEX
  8
COUCHE1
  6
CONTINUOUS
 10
13.592593
 20
13.656085
  0
VERTEX
  8
COUCHE1
  6
CONTINUOUS
 10
13.634921
 20
13.661376
  0
VERTEX
  8
COUCHE1
  6
CONTINUOUS
 10
13.650794
 20
13.682540
  0
VERTEX
  8
COUCHE1
  6
CONTINUOUS
 10
13.656085
 20
13.661376
  0
VERTEX
  8
COUCHE1
  6
CONTINUOUS
 10
13.714286
 20
13.656085
  0
VERTEX
  8
COUCHE1
  6
CONTINUOUS
 10
13.698413
 20
13.645503
  0
VERTEX
  8
COUCHE1
  6
CONTINUOUS
 10
13.656085
 20
13.661376
  0
VERTEX
  8
COUCHE1
  6
CONTINUOUS
 10
13.629630
 20
13.661376
  0
VERTEX
  8
COUCHE1
  6
CONTINUOUS
 10
13.597884
 20
13.645503
  0
VERTEX
  8
COUCHE1
  6
CONTINUOUS
 10
13.592593
 20
13.656085
  0
SEQEND
  8
0
  0
POLYLINE
  8
COUCHE1
 62
     7
  6
CONTINUOUS
 66
     1
 40
0.000000
 41
0.000000
  0
VERTEX
  8
COUCHE1
 62
     7
  6
CONTINUOUS
 10
13.592593
 20
13.656085
  0
VERTEX
  8
COUCHE1
 62
     7
  6
CONTINUOUS
 10
13.634921
 20
13.661376
  0
VERTEX
  8
COUCHE1
 62
     7
  6
CONTINUOUS
 10
13.650794
 20
13.682540
  0
VERTEX
  8
COUCHE1
 62
     7
  6
CONTINUOUS
 10
13.656085
 20
13.661376
  0
VERTEX
  8
COUCHE1
 62
     7
  6
CONTINUOUS
 10
13.714286
 20
13.656085
  0
VERTEX
  8
COUCHE1
 62
     7
  6
CONTINUOUS
 10
13.698413
 20
13.645503
  0
VERTEX
  8
COUCHE1
 62
     7
  6
CONTINUOUS
 10
13.656085
 20
13.661376
  0
VERTEX
  8
COUCHE1
 62
     7
  6
CONTINUOUS
 10
13.629630
 20
13.661376
  0
VERTEX
  8
COUCHE1
 62
     7
  6
CONTINUOUS
 10
13.597884
 20
13.645503
  0
VERTEX
  8
COUCHE1
 62
     7
  6
CONTINUOUS
 10
13.592593
 20
13.656085
  0
SEQEND
  8
0
  0
POLYLINE
  8
COUCHE1
  6
CONTINUOUS
 66
     1
 40
0.000000
 41
0.000000
  0
VERTEX
  8
COUCHE1
  6
CONTINUOUS
 10
13.809524
 20
13.656085
  0
VERTEX
  8
COUCHE1
  6
CONTINUOUS
 10
13.846561
 20
13.661376
  0
VERTEX
  8
COUCHE1
  6
CONTINUOUS
 10
13.862434
 20
13.682540
  0
VERTEX
  8
COUCHE1
  6
CONTINUOUS
 10
13.867725
 20
13.661376
  0
VERTEX
  8
COUCHE1
  6
CONTINUOUS
 10
13.920635
 20
13.645503
  0
VERTEX
  8
COUCHE1
  6
CONTINUOUS
 10
13.915344
 20
13.640212
  0
VERTEX
  8
COUCHE1
  6
CONTINUOUS
 10
13.867725
 20
13.656085
  0
VERTEX
  8
COUCHE1
  6
CONTINUOUS
 10
13.846561
 20
13.656085
  0
VERTEX
  8
COUCHE1
  6
CONTINUOUS
 10
13.809524
 20
13.645503
  0
VERTEX
  8
COUCHE1
  6
CONTINUOUS
 10
13.809524
 20
13.656085
  0
SEQEND
  8
0
  0
POLYLINE
  8
COUCHE1
 62
     7
  6
CONTINUOUS
 66
     1
 40
0.000000
 41
0.000000
  0
VERTEX
  8
COUCHE1
 62
     7
  6
CONTINUOUS
 10
13.809524
 20
13.656085
  0
VERTEX
  8
COUCHE1
 62
     7
  6
CONTINUOUS
 10
13.846561
 20
13.661376
  0
VERTEX
  8
COUCHE1
 62
     7
  6
CONTINUOUS
 10
13.862434
 20
13.682540
  0
VERTEX
  8
COUCHE1
 62
     7
  6
CONTINUOUS
 10
13.867725
 20
13.661376
  0
VERTEX
  8
COUCHE1
 62
     7
  6
CONTINUOUS
 10
13.920635
 20
13.645503
  0
VERTEX
  8
COUCHE1
 62
     7
  6
CONTINUOUS
 10
13.915344
 20
13.640212
  0
VERTEX
  8
COUCHE1
 62
     7
  6
CONTINUOUS
 10
13.867725
 20
13.656085
  0
VERTEX
  8
COUCHE1
 62
     7
  6
CONTINUOUS
 10
13.846561
 20
13.656085
  0
VERTEX
  8
COUCHE1
 62
     7
  6
CONTINUOUS
 10
13.809524
 20
13.645503
  0
VERTEX
  8
COUCHE1
 62
     7
  6
CONTINUOUS
 10
13.809524
 20
13.656085
  0
SEQEND
  8
0
  0
POLYLINE
  8
COUCHE1
  6
CONTINUOUS
 66
     1
 40
0.000000
 41
0.000000
  0
VERTEX
  8
COUCHE1
  6
CONTINUOUS
 10
13.682540
 20
13.576720
  0
VERTEX
  8
COUCHE1
  6
CONTINUOUS
 10
13.724868
 20
13.587302
  0
VERTEX
  8
COUCHE1
  6
CONTINUOUS
 10
13.740741
 20
13.608466
  0
VERTEX
  8
COUCHE1
  6
CONTINUOUS
 10
13.746032
 20
13.587302
  0
VERTEX
  8
COUCHE1
  6
CONTINUOUS
 10
13.798942
 20
13.576720
  0
VERTEX
  8
COUCHE1
  6
CONTINUOUS
 10
13.793651
 20
13.571429
  0
VERTEX
  8
COUCHE1
  6
CONTINUOUS
 10
13.746032
 20
13.587302
  0
VERTEX
  8
COUCHE1
  6
CONTINUOUS
 10
13.724868
 20
13.576720
  0
VERTEX
  8
COUCHE1
  6
CONTINUOUS
 10
13.693122
 20
13.571429
  0
VERTEX
  8
COUCHE1
  6
CONTINUOUS
 10
13.682540
 20
13.576720
  0
SEQEND
  8
0
  0
POLYLINE
  8
COUCHE1
 62
     7
  6
CONTINUOUS
 66
     1
 40
0.000000
 41
0.000000
  0
VERTEX
  8
COUCHE1
 62
     7
  6
CONTINUOUS
 10
13.682540
 20
13.576720
  0
VERTEX
  8
COUCHE1
 62
     7
  6
CONTINUOUS
 10
13.724868
 20
13.587302
  0
VERTEX
  8
COUCHE1
 62
     7
  6
CONTINUOUS
 10
13.740741
 20
13.608466
  0
VERTEX
  8
COUCHE1
 62
     7
  6
CONTINUOUS
 10
13.746032
 20
13.587302
  0
VERTEX
  8
COUCHE1
 62
     7
  6
CONTINUOUS
 10
13.798942
 20
13.576720
  0
VERTEX
  8
COUCHE1
 62
     7
  6
CONTINUOUS
 10
13.793651
 20
13.571429
  0
VERTEX
  8
COUCHE1
 62
     7
  6
CONTINUOUS
 10
13.746032
 20
13.587302
  0
VERTEX
  8
COUCHE1
 62
     7
  6
CONTINUOUS
 10
13.724868
 20
13.576720
  0
VERTEX
  8
COUCHE1
 62
     7
  6
CONTINUOUS
 10
13.693122
 20
13.571429
  0
VERTEX
  8
COUCHE1
 62
     7
  6
CONTINUOUS
 10
13.682540
 20
13.576720
  0
SEQEND
  8
0
  0
POLYLINE
  8
COUCHE1
  6
CONTINUOUS
 66
     1
 40
0.000000
 41
0.000000
  0
VERTEX
  8
COUCHE1
  6
CONTINUOUS
 10
13.603175
 20
13.518519
  0
VERTEX
  8
COUCHE1
  6
CONTINUOUS
 10
13.640212
 20
13.529101
  0
VERTEX
  8
COUCHE1
  6
CONTINUOUS
 10
13.650794
 20
13.544974
  0
VERTEX
  8
COUCHE1
  6
CONTINUOUS
 10
13.666667
 20
13.529101
  0
VERTEX
  8
COUCHE1
  6
CONTINUOUS
 10
13.714286
 20
13.518519
  0
VERTEX
  8
COUCHE1
  6
CONTINUOUS
 10
13.708995
 20
13.513228
  0
VERTEX
  8
COUCHE1
  6
CONTINUOUS
 10
13.666667
 20
13.529101
  0
VERTEX
  8
COUCHE1
  6
CONTINUOUS
 10
13.640212
 20
13.529101
  0
VERTEX
  8
COUCHE1
  6
CONTINUOUS
 10
13.603175
 20
13.513228
  0
VERTEX
  8
COUCHE1
  6
CONTINUOUS
 10
13.603175
 20
13.518519
  0
SEQEND
  8
0
  0
POLYLINE
  8
COUCHE1
 62
     7
  6
CONTINUOUS
 66
     1
 40
0.000000
 41
0.000000
  0
VERTEX
  8
COUCHE1
 62
     7
  6
CONTINUOUS
 10
13.603175
 20
13.518519
  0
VERTEX
  8
COUCHE1
 62
     7
  6
CONTINUOUS
 10
13.640212
 20
13.529101
  0
VERTEX
  8
COUCHE1
 62
     7
  6
CONTINUOUS
 10
13.650794
 20
13.544974
  0
VERTEX
  8
COUCHE1
 62
     7
  6
CONTINUOUS
 10
13.666667
 20
13.529101
  0
VERTEX
  8
COUCHE1
 62
     7
  6
CONTINUOUS
 10
13.714286
 20
13.518519
  0
VERTEX
  8
COUCHE1
 62
     7
  6
CONTINUOUS
 10
13.708995
 20
13.513228
  0
VERTEX
  8
COUCHE1
 62
     7
  6
CONTINUOUS
 10
13.666667
 20
13.529101
  0
VERTEX
  8
COUCHE1
 62
     7
  6
CONTINUOUS
 10
13.640212
 20
13.529101
  0
VERTEX
  8
COUCHE1
 62
     7
  6
CONTINUOUS
 10
13.603175
 20
13.513228
  0
VERTEX
  8
COUCHE1
 62
     7
  6
CONTINUOUS
 10
13.603175
 20
13.518519
  0
SEQEND
  8
0
  0
POLYLINE
  8
COUCHE1
  6
CONTINUOUS
 66
     1
 40
0.000000
 41
0.000000
  0
VERTEX
  8
COUCHE1
  6
CONTINUOUS
 10
13.793651
 20
13.502646
  0
VERTEX
  8
COUCHE1
  6
CONTINUOUS
 10
13.835979
 20
13.513228
  0
VERTEX
  8
COUCHE1
  6
CONTINUOUS
 10
13.851852
 20
13.534392
  0
VERTEX
  8
COUCHE1
  6
CONTINUOUS
 10
13.857143
 20
13.513228
  0
VERTEX
  8
COUCHE1
  6
CONTINUOUS
 10
13.910053
 20
13.502646
  0
VERTEX
  8
COUCHE1
  6
CONTINUOUS
 10
13.904762
 20
13.497354
  0
VERTEX
  8
COUCHE1
  6
CONTINUOUS
 10
13.857143
 20
13.513228
  0
VERTEX
  8
COUCHE1
  6
CONTINUOUS
 10
13.835979
 20
13.513228
  0
VERTEX
  8
COUCHE1
  6
CONTINUOUS
 10
13.798942
 20
13.497354
  0
VERTEX
  8
COUCHE1
  6
CONTINUOUS
 10
13.793651
 20
13.502646
  0
SEQEND
  8
0
  0
POLYLINE
  8
COUCHE1
 62
     7
  6
CONTINUOUS
 66
     1
 40
0.000000
 41
0.000000
  0
VERTEX
  8
COUCHE1
 62
     7
  6
CONTINUOUS
 10
13.793651
 20
13.502646
  0
VERTEX
  8
COUCHE1
 62
     7
  6
CONTINUOUS
 10
13.835979
 20
13.513228
  0
VERTEX
  8
COUCHE1
 62
     7
  6
CONTINUOUS
 10
13.851852
 20
13.534392
  0
VERTEX
  8
COUCHE1
 62
     7
  6
CONTINUOUS
 10
13.857143
 20
13.513228
  0
VERTEX
  8
COUCHE1
 62
     7
  6
CONTINUOUS
 10
13.910053
 20
13.502646
  0
VERTEX
  8
COUCHE1
 62
     7
  6
CONTINUOUS
 10
13.904762
 20
13.497354
  0
VERTEX
  8
COUCHE1
 62
     7
  6
CONTINUOUS
 10
13.857143
 20
13.513228
  0
VERTEX
  8
COUCHE1
 62
     7
  6
CONTINUOUS
 10
13.835979
 20
13.513228
  0
VERTEX
  8
COUCHE1
 62
     7
  6
CONTINUOUS
 10
13.798942
 20
13.497354
  0
VERTEX
  8
COUCHE1
 62
     7
  6
CONTINUOUS
 10
13.793651
 20
13.502646
  0
SEQEND
  8
0
  0
POLYLINE
  8
COUCHE1
  6
CONTINUOUS
 66
     1
 40
0.000000
 41
0.000000
  0
VERTEX
  8
COUCHE1
  6
CONTINUOUS
 10
13.682540
 20
13.455026
  0
VERTEX
  8
COUCHE1
  6
CONTINUOUS
 10
13.735450
 20
13.460317
  0
VERTEX
  8
COUCHE1
  6
CONTINUOUS
 10
13.751323
 20
13.481481
  0
VERTEX
  8
COUCHE1
  6
CONTINUOUS
 10
13.756614
 20
13.460317
  0
VERTEX
  8
COUCHE1
  6
CONTINUOUS
 10
13.814815
 20
13.449735
  0
VERTEX
  8
COUCHE1
  6
CONTINUOUS
 10
13.804233
 20
13.439153
  0
VERTEX
  8
COUCHE1
  6
CONTINUOUS
 10
13.756614
 20
13.455026
  0
VERTEX
  8
COUCHE1
  6
CONTINUOUS
 10
13.730159
 20
13.455026
  0
VERTEX
  8
COUCHE1
  6
CONTINUOUS
 10
13.693122
 20
13.449735
  0
VERTEX
  8
COUCHE1
  6
CONTINUOUS
 10
13.682540
 20
13.455026
  0
SEQEND
  8
0
  0
POLYLINE
  8
COUCHE1
 62
     7
  6
CONTINUOUS
 66
     1
 40
0.000000
 41
0.000000
  0
VERTEX
  8
COUCHE1
 62
     7
  6
CONTINUOUS
 10
13.682540
 20
13.455026
  0
VERTEX
  8
COUCHE1
 62
     7
  6
CONTINUOUS
 10
13.735450
 20
13.460317
  0
VERTEX
  8
COUCHE1
 62
     7
  6
CONTINUOUS
 10
13.751323
 20
13.481481
  0
VERTEX
  8
COUCHE1
 62
     7
  6
CONTINUOUS
 10
13.756614
 20
13.460317
  0
VERTEX
  8
COUCHE1
 62
     7
  6
CONTINUOUS
 10
13.814815
 20
13.449735
  0
VERTEX
  8
COUCHE1
 62
     7
  6
CONTINUOUS
 10
13.804233
 20
13.439153
  0
VERTEX
  8
COUCHE1
 62
     7
  6
CONTINUOUS
 10
13.756614
 20
13.455026
  0
VERTEX
  8
COUCHE1
 62
     7
  6
CONTINUOUS
 10
13.730159
 20
13.455026
  0
VERTEX
  8
COUCHE1
 62
     7
  6
CONTINUOUS
 10
13.693122
 20
13.449735
  0
VERTEX
  8
COUCHE1
 62
     7
  6
CONTINUOUS
 10
13.682540
 20
13.455026
  0
SEQEND
  8
0
  0
POLYLINE
  8
COUCHE1
  6
CONTINUOUS
 66
     1
 40
0.000000
 41
0.000000
  0
VERTEX
  8
COUCHE1
  6
CONTINUOUS
 10
13.751323
 20
14.137566
  0
VERTEX
  8
COUCHE1
  6
CONTINUOUS
 10
13.783069
 20
14.206349
  0
VERTEX
  8
COUCHE1
  6
CONTINUOUS
 10
13.481481
 20
14.587302
  0
VERTEX
  8
COUCHE1
  6
CONTINUOUS
 10
13.730159
 20
14.772487
  0
VERTEX
  8
COUCHE1
  6
CONTINUOUS
 10
13.783069
 20
14.767196
  0
VERTEX
  8
COUCHE1
  6
CONTINUOUS
 10
13.518519
 20
14.582011
  0
VERTEX
  8
COUCHE1
  6
CONTINUOUS
 10
13.809524
 20
14.195767
  0
VERTEX
  8
COUCHE1
  6
CONTINUOUS
 10
13.783069
 20
14.132275
  0
VERTEX
  8
COUCHE1
  6
CONTINUOUS
 10
13.862434
 20
14.116402
  0
VERTEX
  8
COUCHE1
  6
CONTINUOUS
 10
14.010582
 20
14.052910
  0
VERTEX
  8
COUCHE1
  6
CONTINUOUS
 10
14.126984
 20
13.894180
  0
VERTEX
  8
COUCHE1
  6
CONTINUOUS
 10
14.137566
 20
13.724868
  0
VERTEX
  8
COUCHE1
  6
CONTINUOUS
 10
14.037037
 20
13.846561
  0
VERTEX
  8
COUCHE1
  6
CONTINUOUS
 10
13.989418
 20
13.867725
  0
VERTEX
  8
COUCHE1
  6
CONTINUOUS
 10
13.989418
 20
13.841270
  0
VERTEX
  8
COUCHE1
  6
CONTINUOUS
 10
14.042328
 20
13.809524
  0
VERTEX
  8
COUCHE1
  6
CONTINUOUS
 10
14.132275
 20
13.645503
  0
VERTEX
  8
COUCHE1
  6
CONTINUOUS
 10
14.126984
 20
13.534392
  0
VERTEX
  8
COUCHE1
  6
CONTINUOUS
 10
14.068783
 20
13.587302
  0
VERTEX
  8
COUCHE1
  6
CONTINUOUS
 10
14.037037
 20
13.682540
  0
VERTEX
  8
COUCHE1
  6
CONTINUOUS
 10
13.941799
 20
13.708995
  0
VERTEX
  8
COUCHE1
  6
CONTINUOUS
 10
13.941799
 20
13.682540
  0
VERTEX
  8
COUCHE1
  6
CONTINUOUS
 10
14.026455
 20
13.645503
  0
VERTEX
  8
COUCHE1
  6
CONTINUOUS
 10
14.079365
 20
13.486772
  0
VERTEX
  8
COUCHE1
  6
CONTINUOUS
 10
14.037037
 20
13.433862
  0
VERTEX
  8
COUCHE1
  6
CONTINUOUS
 10
14.010582
 20
13.460317
  0
VERTEX
  8
COUCHE1
  6
CONTINUOUS
 10
13.984127
 20
13.582011
  0
VERTEX
  8
COUCHE1
  6
CONTINUOUS
 10
13.904762
 20
13.597884
  0
VERTEX
  8
COUCHE1
  6
CONTINUOUS
 10
13.962963
 20
13.555556
  0
VERTEX
  8
COUCHE1
  6
CONTINUOUS
 10
13.989418
 20
13.412698
  0
VERTEX
  8
COUCHE1
  6
CONTINUOUS
 10
13.957672
 20
13.343915
  0
VERTEX
  8
COUCHE1
  6
CONTINUOUS
 10
13.936508
 20
13.375661
  0
VERTEX
  8
COUCHE1
  6
CONTINUOUS
 10
13.910053
 20
13.460317
  0
VERTEX
  8
COUCHE1
  6
CONTINUOUS
 10
13.830688
 20
13.486772
  0
VERTEX
  8
COUCHE1
  6
CONTINUOUS
 10
13.899471
 20
13.428571
  0
VERTEX
  8
COUCHE1
  6
CONTINUOUS
 10
13.910053
 20
13.343915
  0
VERTEX
  8
COUCHE1
  6
CONTINUOUS
 10
13.883598
 20
13.285714
  0
VERTEX
  8
COUCHE1
  6
CONTINUOUS
 10
13.857143
 20
13.301587
  0
VERTEX
  8
COUCHE1
  6
CONTINUOUS
 10
13.851852
 20
13.380952
  0
VERTEX
  8
COUCHE1
  6
CONTINUOUS
 10
13.761905
 20
13.433862
  0
VERTEX
  8
COUCHE1
  6
CONTINUOUS
 10
13.809524
 20
13.380952
  0
VERTEX
  8
COUCHE1
  6
CONTINUOUS
 10
13.814815
 20
13.269841
  0
VERTEX
  8
COUCHE1
  6
CONTINUOUS
 10
13.751323
 20
13.216931
  0
SEQEND
  8
0
  0
POLYLINE
  8
COUCHE1
  6
CONTINUOUS
 66
     1
 40
0.000000
 41
0.000000
  0
VERTEX
  8
COUCHE1
  6
CONTINUOUS
 10
13.751323
 20
13.216931
  0
VERTEX
  8
COUCHE1
  6
CONTINUOUS
 10
13.682540
 20
13.269841
  0
VERTEX
  8
COUCHE1
  6
CONTINUOUS
 10
13.682540
 20
13.380952
  0
VERTEX
  8
COUCHE1
  6
CONTINUOUS
 10
13.730159
 20
13.433862
  0
VERTEX
  8
COUCHE1
  6
CONTINUOUS
 10
13.645503
 20
13.380952
  0
VERTEX
  8
COUCHE1
  6
CONTINUOUS
 10
13.640212
 20
13.301587
  0
VERTEX
  8
COUCHE1
  6
CONTINUOUS
 10
13.613757
 20
13.285714
  0
VERTEX
  8
COUCHE1
  6
CONTINUOUS
 10
13.582011
 20
13.338624
  0
VERTEX
  8
COUCHE1
  6
CONTINUOUS
 10
13.597884
 20
13.428571
  0
VERTEX
  8
COUCHE1
  6
CONTINUOUS
 10
13.666667
 20
13.486772
  0
VERTEX
  8
COUCHE1
  6
CONTINUOUS
 10
13.582011
 20
13.460317
  0
VERTEX
  8
COUCHE1
  6
CONTINUOUS
 10
13.560847
 20
13.375661
  0
VERTEX
  8
COUCHE1
  6
CONTINUOUS
 10
13.529101
 20
13.343915
  0
VERTEX
  8
COUCHE1
  6
CONTINUOUS
 10
13.497354
 20
13.412698
  0
VERTEX
  8
COUCHE1
  6
CONTINUOUS
 10
13.529101
 20
13.555556
  0
VERTEX
  8
COUCHE1
  6
CONTINUOUS
 10
13.587302
 20
13.597884
  0
VERTEX
  8
COUCHE1
  6
CONTINUOUS
 10
13.513228
 20
13.582011
  0
VERTEX
  8
COUCHE1
  6
CONTINUOUS
 10
13.476190
 20
13.460317
  0
VERTEX
  8
COUCHE1
  6
CONTINUOUS
 10
13.449735
 20
13.433862
  0
VERTEX
  8
COUCHE1
  6
CONTINUOUS
 10
13.417989
 20
13.486772
  0
VERTEX
  8
COUCHE1
  6
CONTINUOUS
 10
13.465608
 20
13.645503
  0
VERTEX
  8
COUCHE1
  6
CONTINUOUS
 10
13.544974
 20
13.682540
  0
VERTEX
  8
COUCHE1
  6
CONTINUOUS
 10
13.550265
 20
13.708995
  0
VERTEX
  8
COUCHE1
  6
CONTINUOUS
 10
13.449735
 20
13.682540
  0
VERTEX
  8
COUCHE1
  6
CONTINUOUS
 10
13.417989
 20
13.587302
  0
VERTEX
  8
COUCHE1
  6
CONTINUOUS
 10
13.370370
 20
13.534392
  0
VERTEX
  8
COUCHE1
  6
CONTINUOUS
 10
13.359788
 20
13.640212
  0
VERTEX
  8
COUCHE1
  6
CONTINUOUS
 10
13.449735
 20
13.809524
  0
VERTEX
  8
COUCHE1
  6
CONTINUOUS
 10
13.502646
 20
13.841270
  0
VERTEX
  8
COUCHE1
  6
CONTINUOUS
 10
13.502646
 20
13.867725
  0
VERTEX
  8
COUCHE1
  6
CONTINUOUS
 10
13.455026
 20
13.846561
  0
VERTEX
  8
COUCHE1
  6
CONTINUOUS
 10
13.359788
 20
13.724868
  0
VERTEX
  8
COUCHE1
  6
CONTINUOUS
 10
13.370370
 20
13.894180
  0
VERTEX
  8
COUCHE1
  6
CONTINUOUS
 10
13.481481
 20
14.052910
  0
VERTEX
  8
COUCHE1
  6
CONTINUOUS
 10
13.634921
 20
14.116402
  0
VERTEX
  8
COUCHE1
  6
CONTINUOUS
 10
13.751323
 20
14.132275
  0
SEQEND
  8
0
  0
POLYLINE
  8
COUCHE1
  6
CONTINUOUS
 66
     1
 40
0.000000
 41
0.000000
  0
VERTEX
  8
COUCHE1
  6
CONTINUOUS
 10
13.751323
 20
14.137566
  0
VERTEX
  8
COUCHE1
  6
CONTINUOUS
 10
13.783069
 20
14.206349
  0
VERTEX
  8
COUCHE1
  6
CONTINUOUS
 10
13.481481
 20
14.587302
  0
VERTEX
  8
COUCHE1
  6
CONTINUOUS
 10
13.730159
 20
14.772487
  0
VERTEX
  8
COUCHE1
  6
CONTINUOUS
 10
13.783069
 20
14.767196
  0
VERTEX
  8
COUCHE1
  6
CONTINUOUS
 10
13.518519
 20
14.582011
  0
VERTEX
  8
COUCHE1
  6
CONTINUOUS
 10
13.809524
 20
14.195767
  0
VERTEX
  8
COUCHE1
  6
CONTINUOUS
 10
13.783069
 20
14.132275
  0
VERTEX
  8
COUCHE1
  6
CONTINUOUS
 10
13.862434
 20
14.116402
  0
VERTEX
  8
COUCHE1
  6
CONTINUOUS
 10
14.010582
 20
14.052910
  0
VERTEX
  8
COUCHE1
  6
CONTINUOUS
 10
14.126984
 20
13.894180
  0
VERTEX
  8
COUCHE1
  6
CONTINUOUS
 10
14.137566
 20
13.724868
  0
VERTEX
  8
COUCHE1
  6
CONTINUOUS
 10
14.037037
 20
13.846561
  0
VERTEX
  8
COUCHE1
  6
CONTINUOUS
 10
13.989418
 20
13.867725
  0
VERTEX
  8
COUCHE1
  6
CONTINUOUS
 10
13.989418
 20
13.841270
  0
VERTEX
  8
COUCHE1
  6
CONTINUOUS
 10
14.042328
 20
13.809524
  0
VERTEX
  8
COUCHE1
  6
CONTINUOUS
 10
14.132275
 20
13.645503
  0
VERTEX
  8
COUCHE1
  6
CONTINUOUS
 10
14.126984
 20
13.534392
  0
VERTEX
  8
COUCHE1
  6
CONTINUOUS
 10
14.068783
 20
13.587302
  0
VERTEX
  8
COUCHE1
  6
CONTINUOUS
 10
14.037037
 20
13.682540
  0
VERTEX
  8
COUCHE1
  6
CONTINUOUS
 10
13.941799
 20
13.708995
  0
VERTEX
  8
COUCHE1
  6
CONTINUOUS
 10
13.941799
 20
13.682540
  0
VERTEX
  8
COUCHE1
  6
CONTINUOUS
 10
14.026455
 20
13.645503
  0
VERTEX
  8
COUCHE1
  6
CONTINUOUS
 10
14.079365
 20
13.486772
  0
VERTEX
  8
COUCHE1
  6
CONTINUOUS
 10
14.037037
 20
13.433862
  0
VERTEX
  8
COUCHE1
  6
CONTINUOUS
 10
14.010582
 20
13.460317
  0
VERTEX
  8
COUCHE1
  6
CONTINUOUS
 10
13.984127
 20
13.582011
  0
VERTEX
  8
COUCHE1
  6
CONTINUOUS
 10
13.904762
 20
13.597884
  0
VERTEX
  8
COUCHE1
  6
CONTINUOUS
 10
13.962963
 20
13.555556
  0
VERTEX
  8
COUCHE1
  6
CONTINUOUS
 10
13.989418
 20
13.412698
  0
VERTEX
  8
COUCHE1
  6
CONTINUOUS
 10
13.957672
 20
13.343915
  0
VERTEX
  8
COUCHE1
  6
CONTINUOUS
 10
13.936508
 20
13.375661
  0
VERTEX
  8
COUCHE1
  6
CONTINUOUS
 10
13.910053
 20
13.460317
  0
VERTEX
  8
COUCHE1
  6
CONTINUOUS
 10
13.830688
 20
13.486772
  0
VERTEX
  8
COUCHE1
  6
CONTINUOUS
 10
13.899471
 20
13.428571
  0
VERTEX
  8
COUCHE1
  6
CONTINUOUS
 10
13.910053
 20
13.343915
  0
VERTEX
  8
COUCHE1
  6
CONTINUOUS
 10
13.883598
 20
13.285714
  0
VERTEX
  8
COUCHE1
  6
CONTINUOUS
 10
13.857143
 20
13.301587
  0
VERTEX
  8
COUCHE1
  6
CONTINUOUS
 10
13.851852
 20
13.380952
  0
VERTEX
  8
COUCHE1
  6
CONTINUOUS
 10
13.761905
 20
13.433862
  0
VERTEX
  8
COUCHE1
  6
CONTINUOUS
 10
13.809524
 20
13.380952
  0
VERTEX
  8
COUCHE1
  6
CONTINUOUS
 10
13.814815
 20
13.269841
  0
VERTEX
  8
COUCHE1
  6
CONTINUOUS
 10
13.751323
 20
13.216931
  0
SEQEND
  8
0
  0
POLYLINE
  8
COUCHE1
  6
CONTINUOUS
 66
     1
 40
0.000000
 41
0.000000
  0
VERTEX
  8
COUCHE1
  6
CONTINUOUS
 10
13.751323
 20
13.216931
  0
VERTEX
  8
COUCHE1
  6
CONTINUOUS
 10
13.682540
 20
13.269841
  0
VERTEX
  8
COUCHE1
  6
CONTINUOUS
 10
13.682540
 20
13.380952
  0
VERTEX
  8
COUCHE1
  6
CONTINUOUS
 10
13.730159
 20
13.433862
  0
VERTEX
  8
COUCHE1
  6
CONTINUOUS
 10
13.645503
 20
13.380952
  0
VERTEX
  8
COUCHE1
  6
CONTINUOUS
 10
13.640212
 20
13.301587
  0
VERTEX
  8
COUCHE1
  6
CONTINUOUS
 10
13.613757
 20
13.285714
  0
VERTEX
  8
COUCHE1
  6
CONTINUOUS
 10
13.582011
 20
13.338624
  0
VERTEX
  8
COUCHE1
  6
CONTINUOUS
 10
13.597884
 20
13.428571
  0
VERTEX
  8
COUCHE1
  6
CONTINUOUS
 10
13.666667
 20
13.486772
  0
VERTEX
  8
COUCHE1
  6
CONTINUOUS
 10
13.582011
 20
13.460317
  0
VERTEX
  8
COUCHE1
  6
CONTINUOUS
 10
13.560847
 20
13.375661
  0
VERTEX
  8
COUCHE1
  6
CONTINUOUS
 10
13.529101
 20
13.343915
  0
VERTEX
  8
COUCHE1
  6
CONTINUOUS
 10
13.497354
 20
13.412698
  0
VERTEX
  8
COUCHE1
  6
CONTINUOUS
 10
13.529101
 20
13.555556
  0
VERTEX
  8
COUCHE1
  6
CONTINUOUS
 10
13.587302
 20
13.597884
  0
VERTEX
  8
COUCHE1
  6
CONTINUOUS
 10
13.513228
 20
13.582011
  0
VERTEX
  8
COUCHE1
  6
CONTINUOUS
 10
13.476190
 20
13.460317
  0
VERTEX
  8
COUCHE1
  6
CONTINUOUS
 10
13.449735
 20
13.433862
  0
VERTEX
  8
COUCHE1
  6
CONTINUOUS
 10
13.417989
 20
13.486772
  0
VERTEX
  8
COUCHE1
  6
CONTINUOUS
 10
13.465608
 20
13.645503
  0
VERTEX
  8
COUCHE1
  6
CONTINUOUS
 10
13.544974
 20
13.682540
  0
VERTEX
  8
COUCHE1
  6
CONTINUOUS
 10
13.550265
 20
13.708995
  0
VERTEX
  8
COUCHE1
  6
CONTINUOUS
 10
13.449735
 20
13.682540
  0
VERTEX
  8
COUCHE1
  6
CONTINUOUS
 10
13.417989
 20
13.587302
  0
VERTEX
  8
COUCHE1
  6
CONTINUOUS
 10
13.370370
 20
13.534392
  0
VERTEX
  8
COUCHE1
  6
CONTINUOUS
 10
13.359788
 20
13.640212
  0
VERTEX
  8
COUCHE1
  6
CONTINUOUS
 10
13.449735
 20
13.809524
  0
VERTEX
  8
COUCHE1
  6
CONTINUOUS
 10
13.502646
 20
13.841270
  0
VERTEX
  8
COUCHE1
  6
CONTINUOUS
 10
13.502646
 20
13.867725
  0
VERTEX
  8
COUCHE1
  6
CONTINUOUS
 10
13.455026
 20
13.846561
  0
VERTEX
  8
COUCHE1
  6
CONTINUOUS
 10
13.359788
 20
13.724868
  0
VERTEX
  8
COUCHE1
  6
CONTINUOUS
 10
13.370370
 20
13.894180
  0
VERTEX
  8
COUCHE1
  6
CONTINUOUS
 10
13.481481
 20
14.052910
  0
VERTEX
  8
COUCHE1
  6
CONTINUOUS
 10
13.634921
 20
14.116402
  0
VERTEX
  8
COUCHE1
  6
CONTINUOUS
 10
13.751323
 20
14.132275
  0
SEQEND
  8
0
  0
POLYLINE
  8
COUCHE1
  6
CONTINUOUS
 66
     1
 40
0.000000
 41
0.000000
  0
VERTEX
  8
COUCHE1
  6
CONTINUOUS
 10
13.714286
 20
14.291005
  0
VERTEX
  8
COUCHE1
  6
CONTINUOUS
 10
13.708995
 20
14.264550
  0
VERTEX
  8
COUCHE1
  6
CONTINUOUS
 10
13.687831
 20
14.238095
  0
VERTEX
  8
COUCHE1
  6
CONTINUOUS
 10
13.661376
 20
14.222222
  0
VERTEX
  8
COUCHE1
  6
CONTINUOUS
 10
13.624339
 20
14.216931
  0
VERTEX
  8
COUCHE1
  6
CONTINUOUS
 10
13.592593
 20
14.222222
  0
VERTEX
  8
COUCHE1
  6
CONTINUOUS
 10
13.566138
 20
14.253968
  0
VERTEX
  8
COUCHE1
  6
CONTINUOUS
 10
13.555556
 20
14.275132
  0
VERTEX
  8
COUCHE1
  6
CONTINUOUS
 10
13.555556
 20
14.301587
  0
VERTEX
  8
COUCHE1
  6
CONTINUOUS
 10
13.566138
 20
14.328042
  0
VERTEX
  8
COUCHE1
  6
CONTINUOUS
 10
13.592593
 20
14.354497
  0
VERTEX
  8
COUCHE1
  6
CONTINUOUS
 10
13.624339
 20
14.359788
  0
VERTEX
  8
COUCHE1
  6
CONTINUOUS
 10
13.661376
 20
14.354497
  0
VERTEX
  8
COUCHE1
  6
CONTINUOUS
 10
13.687831
 20
14.343915
  0
VERTEX
  8
COUCHE1
  6
CONTINUOUS
 10
13.708995
 20
14.317460
  0
VERTEX
  8
COUCHE1
  6
CONTINUOUS
 10
13.714286
 20
14.291005
  0
SEQEND
  8
0
  0
POLYLINE
  8
COUCHE1
  6
CONTINUOUS
 66
     1
 40
0.000000
 41
0.000000
  0
VERTEX
  8
COUCHE1
  6
CONTINUOUS
 10
13.714286
 20
14.291005
  0
VERTEX
  8
COUCHE1
  6
CONTINUOUS
 10
13.708995
 20
14.264550
  0
VERTEX
  8
COUCHE1
  6
CONTINUOUS
 10
13.687831
 20
14.238095
  0
VERTEX
  8
COUCHE1
  6
CONTINUOUS
 10
13.661376
 20
14.222222
  0
VERTEX
  8
COUCHE1
  6
CONTINUOUS
 10
13.624339
 20
14.216931
  0
VERTEX
  8
COUCHE1
  6
CONTINUOUS
 10
13.592593
 20
14.222222
  0
VERTEX
  8
COUCHE1
  6
CONTINUOUS
 10
13.566138
 20
14.253968
  0
VERTEX
  8
COUCHE1
  6
CONTINUOUS
 10
13.555556
 20
14.275132
  0
VERTEX
  8
COUCHE1
  6
CONTINUOUS
 10
13.555556
 20
14.301587
  0
VERTEX
  8
COUCHE1
  6
CONTINUOUS
 10
13.566138
 20
14.328042
  0
VERTEX
  8
COUCHE1
  6
CONTINUOUS
 10
13.592593
 20
14.354497
  0
VERTEX
  8
COUCHE1
  6
CONTINUOUS
 10
13.624339
 20
14.359788
  0
VERTEX
  8
COUCHE1
  6
CONTINUOUS
 10
13.661376
 20
14.354497
  0
VERTEX
  8
COUCHE1
  6
CONTINUOUS
 10
13.687831
 20
14.343915
  0
VERTEX
  8
COUCHE1
  6
CONTINUOUS
 10
13.708995
 20
14.317460
  0
VERTEX
  8
COUCHE1
  6
CONTINUOUS
 10
13.714286
 20
14.291005
  0
SEQEND
  8
0
  0
POLYLINE
  8
COUCHE1
  6
CONTINUOUS
 66
     1
 40
0.000000
 41
0.000000
  0
VERTEX
  8
COUCHE1
  6
CONTINUOUS
 10
13.841270
 20
14.402116
  0
VERTEX
  8
COUCHE1
  6
CONTINUOUS
 10
13.835979
 20
14.370370
  0
VERTEX
  8
COUCHE1
  6
CONTINUOUS
 10
13.814815
 20
14.343915
  0
VERTEX
  8
COUCHE1
  6
CONTINUOUS
 10
13.788360
 20
14.328042
  0
VERTEX
  8
COUCHE1
  6
CONTINUOUS
 10
13.756614
 20
14.322751
  0
VERTEX
  8
COUCHE1
  6
CONTINUOUS
 10
13.719577
 20
14.338624
  0
VERTEX
  8
COUCHE1
  6
CONTINUOUS
 10
13.693122
 20
14.354497
  0
VERTEX
  8
COUCHE1
  6
CONTINUOUS
 10
13.682540
 20
14.391534
  0
VERTEX
  8
COUCHE1
  6
CONTINUOUS
 10
13.682540
 20
14.423280
  0
VERTEX
  8
COUCHE1
  6
CONTINUOUS
 10
13.693122
 20
14.449735
  0
VERTEX
  8
COUCHE1
  6
CONTINUOUS
 10
13.719577
 20
14.470899
  0
VERTEX
  8
COUCHE1
  6
CONTINUOUS
 10
13.756614
 20
14.481481
  0
VERTEX
  8
COUCHE1
  6
CONTINUOUS
 10
13.788360
 20
14.476190
  0
VERTEX
  8
COUCHE1
  6
CONTINUOUS
 10
13.814815
 20
14.460317
  0
VERTEX
  8
COUCHE1
  6
CONTINUOUS
 10
13.835979
 20
14.433862
  0
VERTEX
  8
COUCHE1
  6
CONTINUOUS
 10
13.841270
 20
14.402116
  0
SEQEND
  8
0
  0
POLYLINE
  8
COUCHE1
  6
CONTINUOUS
 66
     1
 40
0.000000
 41
0.000000
  0
VERTEX
  8
COUCHE1
  6
CONTINUOUS
 10
13.841270
 20
14.402116
  0
VERTEX
  8
COUCHE1
  6
CONTINUOUS
 10
13.835979
 20
14.370370
  0
VERTEX
  8
COUCHE1
  6
CONTINUOUS
 10
13.814815
 20
14.343915
  0
VERTEX
  8
COUCHE1
  6
CONTINUOUS
 10
13.788360
 20
14.328042
  0
VERTEX
  8
COUCHE1
  6
CONTINUOUS
 10
13.756614
 20
14.322751
  0
VERTEX
  8
COUCHE1
  6
CONTINUOUS
 10
13.719577
 20
14.338624
  0
VERTEX
  8
COUCHE1
  6
CONTINUOUS
 10
13.693122
 20
14.354497
  0
VERTEX
  8
COUCHE1
  6
CONTINUOUS
 10
13.682540
 20
14.391534
  0
VERTEX
  8
COUCHE1
  6
CONTINUOUS
 10
13.682540
 20
14.423280
  0
VERTEX
  8
COUCHE1
  6
CONTINUOUS
 10
13.693122
 20
14.449735
  0
VERTEX
  8
COUCHE1
  6
CONTINUOUS
 10
13.719577
 20
14.470899
  0
VERTEX
  8
COUCHE1
  6
CONTINUOUS
 10
13.756614
 20
14.481481
  0
VERTEX
  8
COUCHE1
  6
CONTINUOUS
 10
13.788360
 20
14.476190
  0
VERTEX
  8
COUCHE1
  6
CONTINUOUS
 10
13.814815
 20
14.460317
  0
VERTEX
  8
COUCHE1
  6
CONTINUOUS
 10
13.835979
 20
14.433862
  0
VERTEX
  8
COUCHE1
  6
CONTINUOUS
 10
13.841270
 20
14.402116
  0
SEQEND
  8
0
  0
POLYLINE
  8
COUCHE1
  6
CONTINUOUS
 66
     1
 40
0.000000
 41
0.000000
  0
VERTEX
  8
COUCHE1
  6
CONTINUOUS
 10
13.682540
 20
14.455026
  0
VERTEX
  8
COUCHE1
  6
CONTINUOUS
 10
13.677249
 20
14.423280
  0
VERTEX
  8
COUCHE1
  6
CONTINUOUS
 10
13.656085
 20
14.396825
  0
VERTEX
  8
COUCHE1
  6
CONTINUOUS
 10
13.624339
 20
14.380952
  0
VERTEX
  8
COUCHE1
  6
CONTINUOUS
 10
13.592593
 20
14.375661
  0
VERTEX
  8
COUCHE1
  6
CONTINUOUS
 10
13.555556
 20
14.391534
  0
VERTEX
  8
COUCHE1
  6
CONTINUOUS
 10
13.529101
 20
14.412698
  0
VERTEX
  8
COUCHE1
  6
CONTINUOUS
 10
13.518519
 20
14.444444
  0
VERTEX
  8
COUCHE1
  6
CONTINUOUS
 10
13.518519
 20
14.476190
  0
VERTEX
  8
COUCHE1
  6
CONTINUOUS
 10
13.529101
 20
14.507937
  0
VERTEX
  8
COUCHE1
  6
CONTINUOUS
 10
13.555556
 20
14.523810
  0
VERTEX
  8
COUCHE1
  6
CONTINUOUS
 10
13.592593
 20
14.534392
  0
VERTEX
  8
COUCHE1
  6
CONTINUOUS
 10
13.624339
 20
14.534392
  0
VERTEX
  8
COUCHE1
  6
CONTINUOUS
 10
13.656085
 20
14.518519
  0
VERTEX
  8
COUCHE1
  6
CONTINUOUS
 10
13.677249
 20
14.492063
  0
VERTEX
  8
COUCHE1
  6
CONTINUOUS
 10
13.682540
 20
14.455026
  0
SEQEND
  8
0
  0
POLYLINE
  8
COUCHE1
  6
CONTINUOUS
 66
     1
 40
0.000000
 41
0.000000
  0
VERTEX
  8
COUCHE1
  6
CONTINUOUS
 10
13.682540
 20
14.455026
  0
VERTEX
  8
COUCHE1
  6
CONTINUOUS
 10
13.677249
 20
14.423280
  0
VERTEX
  8
COUCHE1
  6
CONTINUOUS
 10
13.656085
 20
14.396825
  0
VERTEX
  8
COUCHE1
  6
CONTINUOUS
 10
13.624339
 20
14.380952
  0
VERTEX
  8
COUCHE1
  6
CONTINUOUS
 10
13.592593
 20
14.375661
  0
VERTEX
  8
COUCHE1
  6
CONTINUOUS
 10
13.555556
 20
14.391534
  0
VERTEX
  8
COUCHE1
  6
CONTINUOUS
 10
13.529101
 20
14.412698
  0
VERTEX
  8
COUCHE1
  6
CONTINUOUS
 10
13.518519
 20
14.444444
  0
VERTEX
  8
COUCHE1
  6
CONTINUOUS
 10
13.518519
 20
14.476190
  0
VERTEX
  8
COUCHE1
  6
CONTINUOUS
 10
13.529101
 20
14.507937
  0
VERTEX
  8
COUCHE1
  6
CONTINUOUS
 10
13.555556
 20
14.523810
  0
VERTEX
  8
COUCHE1
  6
CONTINUOUS
 10
13.592593
 20
14.534392
  0
VERTEX
  8
COUCHE1
  6
CONTINUOUS
 10
13.624339
 20
14.534392
  0
VERTEX
  8
COUCHE1
  6
CONTINUOUS
 10
13.656085
 20
14.518519
  0
VERTEX
  8
COUCHE1
  6
CONTINUOUS
 10
13.677249
 20
14.492063
  0
VERTEX
  8
COUCHE1
  6
CONTINUOUS
 10
13.682540
 20
14.455026
  0
SEQEND
  8
0
  0
POLYLINE
  8
COUCHE1
  6
CONTINUOUS
 66
     1
 40
0.000000
 41
0.000000
  0
VERTEX
  8
COUCHE1
  6
CONTINUOUS
 10
13.968254
 20
14.190476
  0
VERTEX
  8
COUCHE1
  6
CONTINUOUS
 10
13.962963
 20
14.164021
  0
VERTEX
  8
COUCHE1
  6
CONTINUOUS
 10
13.941799
 20
14.137566
  0
VERTEX
  8
COUCHE1
  6
CONTINUOUS
 10
13.915344
 20
14.121693
  0
VERTEX
  8
COUCHE1
  6
CONTINUOUS
 10
13.878307
 20
14.116402
  0
VERTEX
  8
COUCHE1
  6
CONTINUOUS
 10
13.846561
 20
14.121693
  0
VERTEX
  8
COUCHE1
  6
CONTINUOUS
 10
13.820106
 20
14.153439
  0
VERTEX
  8
COUCHE1
  6
CONTINUOUS
 10
13.809524
 20
14.174603
  0
VERTEX
  8
COUCHE1
  6
CONTINUOUS
 10
13.809524
 20
14.206349
  0
VERTEX
  8
COUCHE1
  6
CONTINUOUS
 10
13.820106
 20
14.227513
  0
VERTEX
  8
COUCHE1
  6
CONTINUOUS
 10
13.846561
 20
14.253968
  0
VERTEX
  8
COUCHE1
  6
CONTINUOUS
 10
13.878307
 20
14.259259
  0
VERTEX
  8
COUCHE1
  6
CONTINUOUS
 10
13.915344
 20
14.253968
  0
VERTEX
  8
COUCHE1
  6
CONTINUOUS
 10
13.941799
 20
14.243386
  0
VERTEX
  8
COUCHE1
  6
CONTINUOUS
 10
13.962963
 20
14.216931
  0
VERTEX
  8
COUCHE1
  6
CONTINUOUS
 10
13.968254
 20
14.190476
  0
SEQEND
  8
0
  0
POLYLINE
  8
COUCHE1
  6
CONTINUOUS
 66
     1
 40
0.000000
 41
0.000000
  0
VERTEX
  8
COUCHE1
  6
CONTINUOUS
 10
13.968254
 20
14.190476
  0
VERTEX
  8
COUCHE1
  6
CONTINUOUS
 10
13.962963
 20
14.164021
  0
VERTEX
  8
COUCHE1
  6
CONTINUOUS
 10
13.941799
 20
14.137566
  0
VERTEX
  8
COUCHE1
  6
CONTINUOUS
 10
13.915344
 20
14.121693
  0
VERTEX
  8
COUCHE1
  6
CONTINUOUS
 10
13.878307
 20
14.116402
  0
VERTEX
  8
COUCHE1
  6
CONTINUOUS
 10
13.846561
 20
14.121693
  0
VERTEX
  8
COUCHE1
  6
CONTINUOUS
 10
13.820106
 20
14.153439
  0
VERTEX
  8
COUCHE1
  6
CONTINUOUS
 10
13.809524
 20
14.174603
  0
VERTEX
  8
COUCHE1
  6
CONTINUOUS
 10
13.809524
 20
14.206349
  0
VERTEX
  8
COUCHE1
  6
CONTINUOUS
 10
13.820106
 20
14.227513
  0
VERTEX
  8
COUCHE1
  6
CONTINUOUS
 10
13.846561
 20
14.253968
  0
VERTEX
  8
COUCHE1
  6
CONTINUOUS
 10
13.878307
 20
14.259259
  0
VERTEX
  8
COUCHE1
  6
CONTINUOUS
 10
13.915344
 20
14.253968
  0
VERTEX
  8
COUCHE1
  6
CONTINUOUS
 10
13.941799
 20
14.243386
  0
VERTEX
  8
COUCHE1
  6
CONTINUOUS
 10
13.962963
 20
14.216931
  0
VERTEX
  8
COUCHE1
  6
CONTINUOUS
 10
13.968254
 20
14.190476
  0
SEQEND
  8
0
  0
POLYLINE
  8
COUCHE1
  6
CONTINUOUS
 66
     1
 40
0.000000
 41
0.000000
  0
VERTEX
  8
COUCHE1
  6
CONTINUOUS
 10
13.952381
 20
14.253968
  0
VERTEX
  8
COUCHE1
  6
CONTINUOUS
 10
14.037037
 20
14.174603
  0
VERTEX
  8
COUCHE1
  6
CONTINUOUS
 10
14.063492
 20
14.047619
  0
VERTEX
  8
COUCHE1
  6
CONTINUOUS
 10
14.095238
 20
14.137566
  0
VERTEX
  8
COUCHE1
  6
CONTINUOUS
 10
14.100529
 20
14.216931
  0
VERTEX
  8
COUCHE1
  6
CONTINUOUS
 10
14.185185
 20
14.153439
  0
VERTEX
  8
COUCHE1
  6
CONTINUOUS
 10
14.206349
 20
14.037037
  0
VERTEX
  8
COUCHE1
  6
CONTINUOUS
 10
14.227513
 20
14.137566
  0
VERTEX
  8
COUCHE1
  6
CONTINUOUS
 10
14.312169
 20
14.037037
  0
VERTEX
  8
COUCHE1
  6
CONTINUOUS
 10
14.322751
 20
13.941799
  0
VERTEX
  8
COUCHE1
  6
CONTINUOUS
 10
14.338624
 20
14.089947
  0
VERTEX
  8
COUCHE1
  6
CONTINUOUS
 10
14.195767
 20
14.243386
  0
VERTEX
  8
COUCHE1
  6
CONTINUOUS
 10
13.931217
 20
14.317460
  0
VERTEX
  8
COUCHE1
  6
CONTINUOUS
 10
13.761905
 20
14.269841
  0
VERTEX
  8
COUCHE1
  6
CONTINUOUS
 10
13.761905
 20
14.232804
  0
VERTEX
  8
COUCHE1
  6
CONTINUOUS
 10
13.888889
 20
14.291005
  0
VERTEX
  8
COUCHE1
  6
CONTINUOUS
 10
13.952381
 20
14.243386
  0
SEQEND
  8
0
  0
POLYLINE
  8
COUCHE1
  6
CONTINUOUS
 66
     1
 40
0.000000
 41
0.000000
  0
VERTEX
  8
COUCHE1
  6
CONTINUOUS
 10
13.952381
 20
14.253968
  0
VERTEX
  8
COUCHE1
  6
CONTINUOUS
 10
14.037037
 20
14.174603
  0
VERTEX
  8
COUCHE1
  6
CONTINUOUS
 10
14.063492
 20
14.047619
  0
VERTEX
  8
COUCHE1
  6
CONTINUOUS
 10
14.095238
 20
14.137566
  0
VERTEX
  8
COUCHE1
  6
CONTINUOUS
 10
14.100529
 20
14.216931
  0
VERTEX
  8
COUCHE1
  6
CONTINUOUS
 10
14.185185
 20
14.153439
  0
VERTEX
  8
COUCHE1
  6
CONTINUOUS
 10
14.206349
 20
14.037037
  0
VERTEX
  8
COUCHE1
  6
CONTINUOUS
 10
14.227513
 20
14.137566
  0
VERTEX
  8
COUCHE1
  6
CONTINUOUS
 10
14.312169
 20
14.037037
  0
VERTEX
  8
COUCHE1
  6
CONTINUOUS
 10
14.322751
 20
13.941799
  0
VERTEX
  8
COUCHE1
  6
CONTINUOUS
 10
14.338624
 20
14.089947
  0
VERTEX
  8
COUCHE1
  6
CONTINUOUS
 10
14.195767
 20
14.243386
  0
VERTEX
  8
COUCHE1
  6
CONTINUOUS
 10
13.931217
 20
14.317460
  0
VERTEX
  8
COUCHE1
  6
CONTINUOUS
 10
13.761905
 20
14.269841
  0
VERTEX
  8
COUCHE1
  6
CONTINUOUS
 10
13.761905
 20
14.232804
  0
VERTEX
  8
COUCHE1
  6
CONTINUOUS
 10
13.888889
 20
14.291005
  0
VERTEX
  8
COUCHE1
  6
CONTINUOUS
 10
13.952381
 20
14.243386
  0
SEQEND
  8
0
  0
POLYLINE
  8
COUCHE1
  6
CONTINUOUS
 66
     1
 40
0.000000
 41
0.000000
  0
VERTEX
  8
COUCHE1
  6
CONTINUOUS
 10
13.481481
 20
14.322751
  0
VERTEX
  8
COUCHE1
  6
CONTINUOUS
 10
13.402116
 20
14.253968
  0
VERTEX
  8
COUCHE1
  6
CONTINUOUS
 10
13.375661
 20
14.116402
  0
VERTEX
  8
COUCHE1
  6
CONTINUOUS
 10
13.338624
 20
14.211640
  0
VERTEX
  8
COUCHE1
  6
CONTINUOUS
 10
13.328042
 20
14.291005
  0
VERTEX
  8
COUCHE1
  6
CONTINUOUS
 10
13.248677
 20
14.216931
  0
VERTEX
  8
COUCHE1
  6
CONTINUOUS
 10
13.232804
 20
14.111111
  0
VERTEX
  8
COUCHE1
  6
CONTINUOUS
 10
13.206349
 20
14.211640
  0
VERTEX
  8
COUCHE1
  6
CONTINUOUS
 10
13.126984
 20
14.100529
  0
VERTEX
  8
COUCHE1
  6
CONTINUOUS
 10
13.111111
 20
14.015873
  0
VERTEX
  8
COUCHE1
  6
CONTINUOUS
 10
13.100529
 20
14.164021
  0
VERTEX
  8
COUCHE1
  6
CONTINUOUS
 10
13.238095
 20
14.312169
  0
VERTEX
  8
COUCHE1
  6
CONTINUOUS
 10
13.502646
 20
14.391534
  0
VERTEX
  8
COUCHE1
  6
CONTINUOUS
 10
13.671958
 20
14.349206
  0
VERTEX
  8
COUCHE1
  6
CONTINUOUS
 10
13.677249
 20
14.306878
  0
VERTEX
  8
COUCHE1
  6
CONTINUOUS
 10
13.550265
 20
14.359788
  0
VERTEX
  8
COUCHE1
  6
CONTINUOUS
 10
13.476190
 20
14.312169
  0
SEQEND
  8
0
  0
POLYLINE
  8
COUCHE1
  6
CONTINUOUS
 66
     1
 40
0.000000
 41
0.000000
  0
VERTEX
  8
COUCHE1
  6
CONTINUOUS
 10
13.481481
 20
14.322751
  0
VERTEX
  8
COUCHE1
  6
CONTINUOUS
 10
13.402116
 20
14.253968
  0
VERTEX
  8
COUCHE1
  6
CONTINUOUS
 10
13.375661
 20
14.116402
  0
VERTEX
  8
COUCHE1
  6
CONTINUOUS
 10
13.338624
 20
14.211640
  0
VERTEX
  8
COUCHE1
  6
CONTINUOUS
 10
13.328042
 20
14.291005
  0
VERTEX
  8
COUCHE1
  6
CONTINUOUS
 10
13.248677
 20
14.216931
  0
VERTEX
  8
COUCHE1
  6
CONTINUOUS
 10
13.232804
 20
14.111111
  0
VERTEX
  8
COUCHE1
  6
CONTINUOUS
 10
13.206349
 20
14.211640
  0
VERTEX
  8
COUCHE1
  6
CONTINUOUS
 10
13.126984
 20
14.100529
  0
VERTEX
  8
COUCHE1
  6
CONTINUOUS
 10
13.111111
 20
14.015873
  0
VERTEX
  8
COUCHE1
  6
CONTINUOUS
 10
13.100529
 20
14.164021
  0
VERTEX
  8
COUCHE1
  6
CONTINUOUS
 10
13.238095
 20
14.312169
  0
VERTEX
  8
COUCHE1
  6
CONTINUOUS
 10
13.502646
 20
14.391534
  0
VERTEX
  8
COUCHE1
  6
CONTINUOUS
 10
13.671958
 20
14.349206
  0
VERTEX
  8
COUCHE1
  6
CONTINUOUS
 10
13.677249
 20
14.306878
  0
VERTEX
  8
COUCHE1
  6
CONTINUOUS
 10
13.550265
 20
14.359788
  0
VERTEX
  8
COUCHE1
  6
CONTINUOUS
 10
13.476190
 20
14.312169
  0
SEQEND
  8
0
  0
POLYLINE
  8
COUCHE1
  6
CONTINUOUS
 66
     1
 40
0.000000
 41
0.000000
  0
VERTEX
  8
COUCHE1
  6
CONTINUOUS
 10
13.841270
 20
14.497354
  0
VERTEX
  8
COUCHE1
  6
CONTINUOUS
 10
13.920635
 20
14.423280
  0
VERTEX
  8
COUCHE1
  6
CONTINUOUS
 10
13.947090
 20
14.296296
  0
VERTEX
  8
COUCHE1
  6
CONTINUOUS
 10
13.978836
 20
14.391534
  0
VERTEX
  8
COUCHE1
  6
CONTINUOUS
 10
13.989418
 20
14.470899
  0
VERTEX
  8
COUCHE1
  6
CONTINUOUS
 10
14.068783
 20
14.396825
  0
VERTEX
  8
COUCHE1
  6
CONTINUOUS
 10
14.084656
 20
14.291005
  0
VERTEX
  8
COUCHE1
  6
CONTINUOUS
 10
14.116402
 20
14.391534
  0
VERTEX
  8
COUCHE1
  6
CONTINUOUS
 10
14.195767
 20
14.280423
  0
VERTEX
  8
COUCHE1
  6
CONTINUOUS
 10
14.206349
 20
14.195767
  0
VERTEX
  8
COUCHE1
  6
CONTINUOUS
 10
14.222222
 20
14.338624
  0
VERTEX
  8
COUCHE1
  6
CONTINUOUS
 10
14.079365
 20
14.492063
  0
VERTEX
  8
COUCHE1
  6
CONTINUOUS
 10
13.820106
 20
14.560847
  0
VERTEX
  8
COUCHE1
  6
CONTINUOUS
 10
13.645503
 20
14.518519
  0
VERTEX
  8
COUCHE1
  6
CONTINUOUS
 10
13.645503
 20
14.486772
  0
VERTEX
  8
COUCHE1
  6
CONTINUOUS
 10
13.772487
 20
14.534392
  0
VERTEX
  8
COUCHE1
  6
CONTINUOUS
 10
13.841270
 20
14.492063
  0
SEQEND
  8
0
  0
POLYLINE
  8
COUCHE1
  6
CONTINUOUS
 66
     1
 40
0.000000
 41
0.000000
  0
VERTEX
  8
COUCHE1
  6
CONTINUOUS
 10
13.841270
 20
14.497354
  0
VERTEX
  8
COUCHE1
  6
CONTINUOUS
 10
13.920635
 20
14.423280
  0
VERTEX
  8
COUCHE1
  6
CONTINUOUS
 10
13.947090
 20
14.296296
  0
VERTEX
  8
COUCHE1
  6
CONTINUOUS
 10
13.978836
 20
14.391534
  0
VERTEX
  8
COUCHE1
  6
CONTINUOUS
 10
13.989418
 20
14.470899
  0
VERTEX
  8
COUCHE1
  6
CONTINUOUS
 10
14.068783
 20
14.396825
  0
VERTEX
  8
COUCHE1
  6
CONTINUOUS
 10
14.084656
 20
14.291005
  0
VERTEX
  8
COUCHE1
  6
CONTINUOUS
 10
14.116402
 20
14.391534
  0
VERTEX
  8
COUCHE1
  6
CONTINUOUS
 10
14.195767
 20
14.280423
  0
VERTEX
  8
COUCHE1
  6
CONTINUOUS
 10
14.206349
 20
14.195767
  0
VERTEX
  8
COUCHE1
  6
CONTINUOUS
 10
14.222222
 20
14.338624
  0
VERTEX
  8
COUCHE1
  6
CONTINUOUS
 10
14.079365
 20
14.492063
  0
VERTEX
  8
COUCHE1
  6
CONTINUOUS
 10
13.820106
 20
14.560847
  0
VERTEX
  8
COUCHE1
  6
CONTINUOUS
 10
13.645503
 20
14.518519
  0
VERTEX
  8
COUCHE1
  6
CONTINUOUS
 10
13.645503
 20
14.486772
  0
VERTEX
  8
COUCHE1
  6
CONTINUOUS
 10
13.772487
 20
14.534392
  0
VERTEX
  8
COUCHE1
  6
CONTINUOUS
 10
13.841270
 20
14.492063
  0
SEQEND
  8
0
  0
POLYLINE
  8
COUCHE1
  6
CONTINUOUS
 66
     1
 40
0.000000
 41
0.000000
  0
VERTEX
  8
COUCHE1
  6
CONTINUOUS
 10
13.470899
 20
13.899471
  0
VERTEX
  8
COUCHE1
  6
CONTINUOUS
 10
13.550265
 20
13.941799
  0
VERTEX
  8
COUCHE1
  6
CONTINUOUS
 10
13.566138
 20
13.978836
  0
VERTEX
  8
COUCHE1
  6
CONTINUOUS
 10
13.592593
 20
13.947090
  0
VERTEX
  8
COUCHE1
  6
CONTINUOUS
 10
13.703704
 20
13.962963
  0
VERTEX
  8
COUCHE1
  6
CONTINUOUS
 10
13.693122
 20
13.947090
  0
VERTEX
  8
COUCHE1
  6
CONTINUOUS
 10
13.592593
 20
13.947090
  0
VERTEX
  8
COUCHE1
  6
CONTINUOUS
 10
13.550265
 20
13.925926
  0
VERTEX
  8
COUCHE1
  6
CONTINUOUS
 10
13.486772
 20
13.894180
  0
VERTEX
  8
COUCHE1
  6
CONTINUOUS
 10
13.470899
 20
13.899471
  0
SEQEND
  8
0
  0
POLYLINE
  8
COUCHE1
 62
     7
  6
CONTINUOUS
 66
     1
 40
0.000000
 41
0.000000
  0
VERTEX
  8
COUCHE1
 62
     7
  6
CONTINUOUS
 10
13.470899
 20
13.899471
  0
VERTEX
  8
COUCHE1
 62
     7
  6
CONTINUOUS
 10
13.550265
 20
13.941799
  0
VERTEX
  8
COUCHE1
 62
     7
  6
CONTINUOUS
 10
13.566138
 20
13.978836
  0
VERTEX
  8
COUCHE1
 62
     7
  6
CONTINUOUS
 10
13.592593
 20
13.947090
  0
VERTEX
  8
COUCHE1
 62
     7
  6
CONTINUOUS
 10
13.703704
 20
13.962963
  0
VERTEX
  8
COUCHE1
 62
     7
  6
CONTINUOUS
 10
13.693122
 20
13.947090
  0
VERTEX
  8
COUCHE1
 62
     7
  6
CONTINUOUS
 10
13.592593
 20
13.947090
  0
VERTEX
  8
COUCHE1
 62
     7
  6
CONTINUOUS
 10
13.550265
 20
13.925926
  0
VERTEX
  8
COUCHE1
 62
     7
  6
CONTINUOUS
 10
13.486772
 20
13.894180
  0
VERTEX
  8
COUCHE1
 62
     7
  6
CONTINUOUS
 10
13.470899
 20
13.899471
  0
SEQEND
  8
0
  0
POLYLINE
  8
COUCHE1
  6
CONTINUOUS
 66
     1
 40
0.000000
 41
0.000000
  0
VERTEX
  8
COUCHE1
  6
CONTINUOUS
 10
13.798942
 20
13.957672
  0
VERTEX
  8
COUCHE1
  6
CONTINUOUS
 10
13.883598
 20
13.952381
  0
VERTEX
  8
COUCHE1
  6
CONTINUOUS
 10
13.915344
 20
13.978836
  0
VERTEX
  8
COUCHE1
  6
CONTINUOUS
 10
13.920635
 20
13.936508
  0
VERTEX
  8
COUCHE1
  6
CONTINUOUS
 10
14.026455
 20
13.899471
  0
VERTEX
  8
COUCHE1
  6
CONTINUOUS
 10
14.005291
 20
13.883598
  0
VERTEX
  8
COUCHE1
  6
CONTINUOUS
 10
13.920635
 20
13.931217
  0
VERTEX
  8
COUCHE1
  6
CONTINUOUS
 10
13.878307
 20
13.947090
  0
VERTEX
  8
COUCHE1
  6
CONTINUOUS
 10
13.814815
 20
13.947090
  0
VERTEX
  8
COUCHE1
  6
CONTINUOUS
 10
13.798942
 20
13.957672
  0
SEQEND
  8
0
  0
POLYLINE
  8
COUCHE1
 62
     7
  6
CONTINUOUS
 66
     1
 40
0.000000
 41
0.000000
  0
VERTEX
  8
COUCHE1
 62
     7
  6
CONTINUOUS
 10
13.798942
 20
13.957672
  0
VERTEX
  8
COUCHE1
 62
     7
  6
CONTINUOUS
 10
13.883598
 20
13.952381
  0
VERTEX
  8
COUCHE1
 62
     7
  6
CONTINUOUS
 10
13.915344
 20
13.978836
  0
VERTEX
  8
COUCHE1
 62
     7
  6
CONTINUOUS
 10
13.920635
 20
13.936508
  0
VERTEX
  8
COUCHE1
 62
     7
  6
CONTINUOUS
 10
14.026455
 20
13.899471
  0
VERTEX
  8
COUCHE1
 62
     7
  6
CONTINUOUS
 10
14.005291
 20
13.883598
  0
VERTEX
  8
COUCHE1
 62
     7
  6
CONTINUOUS
 10
13.920635
 20
13.931217
  0
VERTEX
  8
COUCHE1
 62
     7
  6
CONTINUOUS
 10
13.878307
 20
13.947090
  0
VERTEX
  8
COUCHE1
 62
     7
  6
CONTINUOUS
 10
13.814815
 20
13.947090
  0
VERTEX
  8
COUCHE1
 62
     7
  6
CONTINUOUS
 10
13.798942
 20
13.957672
  0
SEQEND
  8
0
  0
POLYLINE
  8
COUCHE1
  6
CONTINUOUS
 66
     1
 40
0.000000
 41
0.000000
  0
VERTEX
  8
COUCHE1
  6
CONTINUOUS
 10
13.666667
 20
13.873016
  0
VERTEX
  8
COUCHE1
  6
CONTINUOUS
 10
13.746032
 20
13.883598
  0
VERTEX
  8
COUCHE1
  6
CONTINUOUS
 10
13.767196
 20
13.915344
  0
VERTEX
  8
COUCHE1
  6
CONTINUOUS
 10
13.783069
 20
13.883598
  0
VERTEX
  8
COUCHE1
  6
CONTINUOUS
 10
13.883598
 20
13.873016
  0
VERTEX
  8
COUCHE1
  6
CONTINUOUS
 10
13.873016
 20
13.857143
  0
VERTEX
  8
COUCHE1
  6
CONTINUOUS
 10
13.783069
 20
13.883598
  0
VERTEX
  8
COUCHE1
  6
CONTINUOUS
 10
13.740741
 20
13.878307
  0
VERTEX
  8
COUCHE1
  6
CONTINUOUS
 10
13.682540
 20
13.862434
  0
VERTEX
  8
COUCHE1
  6
CONTINUOUS
 10
13.666667
 20
13.873016
  0
SEQEND
  8
0
  0
POLYLINE
  8
COUCHE1
 62
     7
  6
CONTINUOUS
 66
     1
 40
0.000000
 41
0.000000
  0
VERTEX
  8
COUCHE1
 62
     7
  6
CONTINUOUS
 10
13.666667
 20
13.873016
  0
VERTEX
  8
COUCHE1
 62
     7
  6
CONTINUOUS
 10
13.746032
 20
13.883598
  0
VERTEX
  8
COUCHE1
 62
     7
  6
CONTINUOUS
 10
13.767196
 20
13.915344
  0
VERTEX
  8
COUCHE1
 62
     7
  6
CONTINUOUS
 10
13.783069
 20
13.883598
  0
VERTEX
  8
COUCHE1
 62
     7
  6
CONTINUOUS
 10
13.883598
 20
13.873016
  0
VERTEX
  8
COUCHE1
 62
     7
  6
CONTINUOUS
 10
13.873016
 20
13.857143
  0
VERTEX
  8
COUCHE1
 62
     7
  6
CONTINUOUS
 10
13.783069
 20
13.883598
  0
VERTEX
  8
COUCHE1
 62
     7
  6
CONTINUOUS
 10
13.740741
 20
13.878307
  0
VERTEX
  8
COUCHE1
 62
     7
  6
CONTINUOUS
 10
13.682540
 20
13.862434
  0
VERTEX
  8
COUCHE1
 62
     7
  6
CONTINUOUS
 10
13.666667
 20
13.873016
  0
SEQEND
  8
0
  0
POLYLINE
  8
COUCHE1
  6
CONTINUOUS
 66
     1
 40
0.000000
 41
0.000000
  0
VERTEX
  8
COUCHE1
  6
CONTINUOUS
 10
13.502646
 20
13.777778
  0
VERTEX
  8
COUCHE1
  6
CONTINUOUS
 10
13.571429
 20
13.793651
  0
VERTEX
  8
COUCHE1
  6
CONTINUOUS
 10
13.592593
 20
13.820106
  0
VERTEX
  8
COUCHE1
  6
CONTINUOUS
 10
13.603175
 20
13.793651
  0
VERTEX
  8
COUCHE1
  6
CONTINUOUS
 10
13.682540
 20
13.777778
  0
VERTEX
  8
COUCHE1
  6
CONTINUOUS
 10
13.671958
 20
13.761905
  0
VERTEX
  8
COUCHE1
  6
CONTINUOUS
 10
13.603175
 20
13.783069
  0
VERTEX
  8
COUCHE1
  6
CONTINUOUS
 10
13.566138
 20
13.783069
  0
VERTEX
  8
COUCHE1
  6
CONTINUOUS
 10
13.513228
 20
13.772487
  0
VERTEX
  8
COUCHE1
  6
CONTINUOUS
 10
13.502646
 20
13.777778
  0
SEQEND
  8
0
  0
POLYLINE
  8
COUCHE1
 62
     7
  6
CONTINUOUS
 66
     1
 40
0.000000
 41
0.000000
  0
VERTEX
  8
COUCHE1
 62
     7
  6
CONTINUOUS
 10
13.502646
 20
13.777778
  0
VERTEX
  8
COUCHE1
 62
     7
  6
CONTINUOUS
 10
13.571429
 20
13.793651
  0
VERTEX
  8
COUCHE1
 62
     7
  6
CONTINUOUS
 10
13.592593
 20
13.820106
  0
VERTEX
  8
COUCHE1
 62
     7
  6
CONTINUOUS
 10
13.603175
 20
13.793651
  0
VERTEX
  8
COUCHE1
 62
     7
  6
CONTINUOUS
 10
13.682540
 20
13.777778
  0
VERTEX
  8
COUCHE1
 62
     7
  6
CONTINUOUS
 10
13.671958
 20
13.761905
  0
VERTEX
  8
COUCHE1
 62
     7
  6
CONTINUOUS
 10
13.603175
 20
13.783069
  0
VERTEX
  8
COUCHE1
 62
     7
  6
CONTINUOUS
 10
13.566138
 20
13.783069
  0
VERTEX
  8
COUCHE1
 62
     7
  6
CONTINUOUS
 10
13.513228
 20
13.772487
  0
VERTEX
  8
COUCHE1
 62
     7
  6
CONTINUOUS
 10
13.502646
 20
13.777778
  0
SEQEND
  8
0
  0
POLYLINE
  8
COUCHE1
  6
CONTINUOUS
 66
     1
 40
0.000000
 41
0.000000
  0
VERTEX
  8
COUCHE1
  6
CONTINUOUS
 10
13.809524
 20
13.761905
  0
VERTEX
  8
COUCHE1
  6
CONTINUOUS
 10
13.873016
 20
13.772487
  0
VERTEX
  8
COUCHE1
  6
CONTINUOUS
 10
13.894180
 20
13.798942
  0
VERTEX
  8
COUCHE1
  6
CONTINUOUS
 10
13.904762
 20
13.772487
  0
VERTEX
  8
COUCHE1
  6
CONTINUOUS
 10
13.989418
 20
13.756614
  0
VERTEX
  8
COUCHE1
  6
CONTINUOUS
 10
13.973545
 20
13.751323
  0
VERTEX
  8
COUCHE1
  6
CONTINUOUS
 10
13.904762
 20
13.772487
  0
VERTEX
  8
COUCHE1
  6
CONTINUOUS
 10
13.873016
 20
13.761905
  0
VERTEX
  8
COUCHE1
  6
CONTINUOUS
 10
13.825397
 20
13.751323
  0
VERTEX
  8
COUCHE1
  6
CONTINUOUS
 10
13.809524
 20
13.761905
  0
SEQEND
  8
0
  0
POLYLINE
  8
COUCHE1
 62
     7
  6
CONTINUOUS
 66
     1
 40
0.000000
 41
0.000000
  0
VERTEX
  8
COUCHE1
 62
     7
  6
CONTINUOUS
 10
13.809524
 20
13.761905
  0
VERTEX
  8
COUCHE1
 62
     7
  6
CONTINUOUS
 10
13.873016
 20
13.772487
  0
VERTEX
  8
COUCHE1
 62
     7
  6
CONTINUOUS
 10
13.894180
 20
13.798942
  0
VERTEX
  8
COUCHE1
 62
     7
  6
CONTINUOUS
 10
13.904762
 20
13.772487
  0
VERTEX
  8
COUCHE1
 62
     7
  6
CONTINUOUS
 10
13.989418
 20
13.756614
  0
VERTEX
  8
COUCHE1
 62
     7
  6
CONTINUOUS
 10
13.973545
 20
13.751323
  0
VERTEX
  8
COUCHE1
 62
     7
  6
CONTINUOUS
 10
13.904762
 20
13.772487
  0
VERTEX
  8
COUCHE1
 62
     7
  6
CONTINUOUS
 10
13.873016
 20
13.761905
  0
VERTEX
  8
COUCHE1
 62
     7
  6
CONTINUOUS
 10
13.825397
 20
13.751323
  0
VERTEX
  8
COUCHE1
 62
     7
  6
CONTINUOUS
 10
13.809524
 20
13.761905
  0
SEQEND
  8
0
  0
POLYLINE
  8
COUCHE1
  6
CONTINUOUS
 66
     1
 40
0.000000
 41
0.000000
  0
VERTEX
  8
COUCHE1
  6
CONTINUOUS
 10
13.661376
 20
13.714286
  0
VERTEX
  8
COUCHE1
  6
CONTINUOUS
 10
13.714286
 20
13.719577
  0
VERTEX
  8
COUCHE1
  6
CONTINUOUS
 10
13.735450
 20
13.746032
  0
VERTEX
  8
COUCHE1
  6
CONTINUOUS
 10
13.740741
 20
13.719577
  0
VERTEX
  8
COUCHE1
  6
CONTINUOUS
 10
13.809524
 20
13.708995
  0
VERTEX
  8
COUCHE1
  6
CONTINUOUS
 10
13.804233
 20
13.698413
  0
VERTEX
  8
COUCHE1
  6
CONTINUOUS
 10
13.740741
 20
13.719577
  0
VERTEX
  8
COUCHE1
  6
CONTINUOUS
 10
13.714286
 20
13.714286
  0
VERTEX
  8
COUCHE1
  6
CONTINUOUS
 10
13.671958
 20
13.708995
  0
VERTEX
  8
COUCHE1
  6
CONTINUOUS
 10
13.661376
 20
13.714286
  0
SEQEND
  8
0
  0
POLYLINE
  8
COUCHE1
 62
     7
  6
CONTINUOUS
 66
     1
 40
0.000000
 41
0.000000
  0
VERTEX
  8
COUCHE1
 62
     7
  6
CONTINUOUS
 10
13.661376
 20
13.714286
  0
VERTEX
  8
COUCHE1
 62
     7
  6
CONTINUOUS
 10
13.714286
 20
13.719577
  0
VERTEX
  8
COUCHE1
 62
     7
  6
CONTINUOUS
 10
13.735450
 20
13.746032
  0
VERTEX
  8
COUCHE1
 62
     7
  6
CONTINUOUS
 10
13.740741
 20
13.719577
  0
VERTEX
  8
COUCHE1
 62
     7
  6
CONTINUOUS
 10
13.809524
 20
13.708995
  0
VERTEX
  8
COUCHE1
 62
     7
  6
CONTINUOUS
 10
13.804233
 20
13.698413
  0
VERTEX
  8
COUCHE1
 62
     7
  6
CONTINUOUS
 10
13.740741
 20
13.719577
  0
VERTEX
  8
COUCHE1
 62
     7
  6
CONTINUOUS
 10
13.714286
 20
13.714286
  0
VERTEX
  8
COUCHE1
 62
     7
  6
CONTINUOUS
 10
13.671958
 20
13.708995
  0
VERTEX
  8
COUCHE1
 62
     7
  6
CONTINUOUS
 10
13.661376
 20
13.714286
  0
SEQEND
  8
0
  0
POLYLINE
  8
COUCHE1
  6
CONTINUOUS
 66
     1
 40
0.000000
 41
0.000000
  0
VERTEX
  8
COUCHE1
  6
CONTINUOUS
 10
13.592593
 20
13.656085
  0
VERTEX
  8
COUCHE1
  6
CONTINUOUS
 10
13.634921
 20
13.661376
  0
VERTEX
  8
COUCHE1
  6
CONTINUOUS
 10
13.650794
 20
13.682540
  0
VERTEX
  8
COUCHE1
  6
CONTINUOUS
 10
13.656085
 20
13.661376
  0
VERTEX
  8
COUCHE1
  6
CONTINUOUS
 10
13.714286
 20
13.656085
  0
VERTEX
  8
COUCHE1
  6
CONTINUOUS
 10
13.698413
 20
13.645503
  0
VERTEX
  8
COUCHE1
  6
CONTINUOUS
 10
13.656085
 20
13.661376
  0
VERTEX
  8
COUCHE1
  6
CONTINUOUS
 10
13.629630
 20
13.661376
  0
VERTEX
  8
COUCHE1
  6
CONTINUOUS
 10
13.597884
 20
13.645503
  0
VERTEX
  8
COUCHE1
  6
CONTINUOUS
 10
13.592593
 20
13.656085
  0
SEQEND
  8
0
  0
POLYLINE
  8
COUCHE1
 62
     7
  6
CONTINUOUS
 66
     1
 40
0.000000
 41
0.000000
  0
VERTEX
  8
COUCHE1
 62
     7
  6
CONTINUOUS
 10
13.592593
 20
13.656085
  0
VERTEX
  8
COUCHE1
 62
     7
  6
CONTINUOUS
 10
13.634921
 20
13.661376
  0
VERTEX
  8
COUCHE1
 62
     7
  6
CONTINUOUS
 10
13.650794
 20
13.682540
  0
VERTEX
  8
COUCHE1
 62
     7
  6
CONTINUOUS
 10
13.656085
 20
13.661376
  0
VERTEX
  8
COUCHE1
 62
     7
  6
CONTINUOUS
 10
13.714286
 20
13.656085
  0
VERTEX
  8
COUCHE1
 62
     7
  6
CONTINUOUS
 10
13.698413
 20
13.645503
  0
VERTEX
  8
COUCHE1
 62
     7
  6
CONTINUOUS
 10
13.656085
 20
13.661376
  0
VERTEX
  8
COUCHE1
 62
     7
  6
CONTINUOUS
 10
13.629630
 20
13.661376
  0
VERTEX
  8
COUCHE1
 62
     7
  6
CONTINUOUS
 10
13.597884
 20
13.645503
  0
VERTEX
  8
COUCHE1
 62
     7
  6
CONTINUOUS
 10
13.592593
 20
13.656085
  0
SEQEND
  8
0
  0
POLYLINE
  8
COUCHE1
  6
CONTINUOUS
 66
     1
 40
0.000000
 41
0.000000
  0
VERTEX
  8
COUCHE1
  6
CONTINUOUS
 10
13.809524
 20
13.656085
  0
VERTEX
  8
COUCHE1
  6
CONTINUOUS
 10
13.846561
 20
13.661376
  0
VERTEX
  8
COUCHE1
  6
CONTINUOUS
 10
13.862434
 20
13.682540
  0
VERTEX
  8
COUCHE1
  6
CONTINUOUS
 10
13.867725
 20
13.661376
  0
VERTEX
  8
COUCHE1
  6
CONTINUOUS
 10
13.920635
 20
13.645503
  0
VERTEX
  8
COUCHE1
  6
CONTINUOUS
 10
13.915344
 20
13.640212
  0
VERTEX
  8
COUCHE1
  6
CONTINUOUS
 10
13.867725
 20
13.656085
  0
VERTEX
  8
COUCHE1
  6
CONTINUOUS
 10
13.846561
 20
13.656085
  0
VERTEX
  8
COUCHE1
  6
CONTINUOUS
 10
13.809524
 20
13.645503
  0
VERTEX
  8
COUCHE1
  6
CONTINUOUS
 10
13.809524
 20
13.656085
  0
SEQEND
  8
0
  0
POLYLINE
  8
COUCHE1
 62
     7
  6
CONTINUOUS
 66
     1
 40
0.000000
 41
0.000000
  0
VERTEX
  8
COUCHE1
 62
     7
  6
CONTINUOUS
 10
13.809524
 20
13.656085
  0
VERTEX
  8
COUCHE1
 62
     7
  6
CONTINUOUS
 10
13.846561
 20
13.661376
  0
VERTEX
  8
COUCHE1
 62
     7
  6
CONTINUOUS
 10
13.862434
 20
13.682540
  0
VERTEX
  8
COUCHE1
 62
     7
  6
CONTINUOUS
 10
13.867725
 20
13.661376
  0
VERTEX
  8
COUCHE1
 62
     7
  6
CONTINUOUS
 10
13.920635
 20
13.645503
  0
VERTEX
  8
COUCHE1
 62
     7
  6
CONTINUOUS
 10
13.915344
 20
13.640212
  0
VERTEX
  8
COUCHE1
 62
     7
  6
CONTINUOUS
 10
13.867725
 20
13.656085
  0
VERTEX
  8
COUCHE1
 62
     7
  6
CONTINUOUS
 10
13.846561
 20
13.656085
  0
VERTEX
  8
COUCHE1
 62
     7
  6
CONTINUOUS
 10
13.809524
 20
13.645503
  0
VERTEX
  8
COUCHE1
 62
     7
  6
CONTINUOUS
 10
13.809524
 20
13.656085
  0
SEQEND
  8
0
  0
POLYLINE
  8
COUCHE1
  6
CONTINUOUS
 66
     1
 40
0.000000
 41
0.000000
  0
VERTEX
  8
COUCHE1
  6
CONTINUOUS
 10
13.682540
 20
13.576720
  0
VERTEX
  8
COUCHE1
  6
CONTINUOUS
 10
13.724868
 20
13.587302
  0
VERTEX
  8
COUCHE1
  6
CONTINUOUS
 10
13.740741
 20
13.608466
  0
VERTEX
  8
COUCHE1
  6
CONTINUOUS
 10
13.746032
 20
13.587302
  0
VERTEX
  8
COUCHE1
  6
CONTINUOUS
 10
13.798942
 20
13.576720
  0
VERTEX
  8
COUCHE1
  6
CONTINUOUS
 10
13.793651
 20
13.571429
  0
VERTEX
  8
COUCHE1
  6
CONTINUOUS
 10
13.746032
 20
13.587302
  0
VERTEX
  8
COUCHE1
  6
CONTINUOUS
 10
13.724868
 20
13.576720
  0
VERTEX
  8
COUCHE1
  6
CONTINUOUS
 10
13.693122
 20
13.571429
  0
VERTEX
  8
COUCHE1
  6
CONTINUOUS
 10
13.682540
 20
13.576720
  0
SEQEND
  8
0
  0
POLYLINE
  8
COUCHE1
 62
     7
  6
CONTINUOUS
 66
     1
 40
0.000000
 41
0.000000
  0
VERTEX
  8
COUCHE1
 62
     7
  6
CONTINUOUS
 10
13.682540
 20
13.576720
  0
VERTEX
  8
COUCHE1
 62
     7
  6
CONTINUOUS
 10
13.724868
 20
13.587302
  0
VERTEX
  8
COUCHE1
 62
     7
  6
CONTINUOUS
 10
13.740741
 20
13.608466
  0
VERTEX
  8
COUCHE1
 62
     7
  6
CONTINUOUS
 10
13.746032
 20
13.587302
  0
VERTEX
  8
COUCHE1
 62
     7
  6
CONTINUOUS
 10
13.798942
 20
13.576720
  0
VERTEX
  8
COUCHE1
 62
     7
  6
CONTINUOUS
 10
13.793651
 20
13.571429
  0
VERTEX
  8
COUCHE1
 62
     7
  6
CONTINUOUS
 10
13.746032
 20
13.587302
  0
VERTEX
  8
COUCHE1
 62
     7
  6
CONTINUOUS
 10
13.724868
 20
13.576720
  0
VERTEX
  8
COUCHE1
 62
     7
  6
CONTINUOUS
 10
13.693122
 20
13.571429
  0
VERTEX
  8
COUCHE1
 62
     7
  6
CONTINUOUS
 10
13.682540
 20
13.576720
  0
SEQEND
  8
0
  0
POLYLINE
  8
COUCHE1
  6
CONTINUOUS
 66
     1
 40
0.000000
 41
0.000000
  0
VERTEX
  8
COUCHE1
  6
CONTINUOUS
 10
13.603175
 20
13.518519
  0
VERTEX
  8
COUCHE1
  6
CONTINUOUS
 10
13.640212
 20
13.529101
  0
VERTEX
  8
COUCHE1
  6
CONTINUOUS
 10
13.650794
 20
13.544974
  0
VERTEX
  8
COUCHE1
  6
CONTINUOUS
 10
13.666667
 20
13.529101
  0
VERTEX
  8
COUCHE1
  6
CONTINUOUS
 10
13.714286
 20
13.518519
  0
VERTEX
  8
COUCHE1
  6
CONTINUOUS
 10
13.708995
 20
13.513228
  0
VERTEX
  8
COUCHE1
  6
CONTINUOUS
 10
13.666667
 20
13.529101
  0
VERTEX
  8
COUCHE1
  6
CONTINUOUS
 10
13.640212
 20
13.529101
  0
VERTEX
  8
COUCHE1
  6
CONTINUOUS
 10
13.603175
 20
13.513228
  0
VERTEX
  8
COUCHE1
  6
CONTINUOUS
 10
13.603175
 20
13.518519
  0
SEQEND
  8
0
  0
POLYLINE
  8
COUCHE1
 62
     7
  6
CONTINUOUS
 66
     1
 40
0.000000
 41
0.000000
  0
VERTEX
  8
COUCHE1
 62
     7
  6
CONTINUOUS
 10
13.603175
 20
13.518519
  0
VERTEX
  8
COUCHE1
 62
     7
  6
CONTINUOUS
 10
13.640212
 20
13.529101
  0
VERTEX
  8
COUCHE1
 62
     7
  6
CONTINUOUS
 10
13.650794
 20
13.544974
  0
VERTEX
  8
COUCHE1
 62
     7
  6
CONTINUOUS
 10
13.666667
 20
13.529101
  0
VERTEX
  8
COUCHE1
 62
     7
  6
CONTINUOUS
 10
13.714286
 20
13.518519
  0
VERTEX
  8
COUCHE1
 62
     7
  6
CONTINUOUS
 10
13.708995
 20
13.513228
  0
VERTEX
  8
COUCHE1
 62
     7
  6
CONTINUOUS
 10
13.666667
 20
13.529101
  0
VERTEX
  8
COUCHE1
 62
     7
  6
CONTINUOUS
 10
13.640212
 20
13.529101
  0
VERTEX
  8
COUCHE1
 62
     7
  6
CONTINUOUS
 10
13.603175
 20
13.513228
  0
VERTEX
  8
COUCHE1
 62
     7
  6
CONTINUOUS
 10
13.603175
 20
13.518519
  0
SEQEND
  8
0
  0
POLYLINE
  8
COUCHE1
  6
CONTINUOUS
 66
     1
 40
0.000000
 41
0.000000
  0
VERTEX
  8
COUCHE1
  6
CONTINUOUS
 10
13.793651
 20
13.502646
  0
VERTEX
  8
COUCHE1
  6
CONTINUOUS
 10
13.835979
 20
13.513228
  0
VERTEX
  8
COUCHE1
  6
CONTINUOUS
 10
13.851852
 20
13.534392
  0
VERTEX
  8
COUCHE1
  6
CONTINUOUS
 10
13.857143
 20
13.513228
  0
VERTEX
  8
COUCHE1
  6
CONTINUOUS
 10
13.910053
 20
13.502646
  0
VERTEX
  8
COUCHE1
  6
CONTINUOUS
 10
13.904762
 20
13.497354
  0
VERTEX
  8
COUCHE1
  6
CONTINUOUS
 10
13.857143
 20
13.513228
  0
VERTEX
  8
COUCHE1
  6
CONTINUOUS
 10
13.835979
 20
13.513228
  0
VERTEX
  8
COUCHE1
  6
CONTINUOUS
 10
13.798942
 20
13.497354
  0
VERTEX
  8
COUCHE1
  6
CONTINUOUS
 10
13.793651
 20
13.502646
  0
SEQEND
  8
0
  0
POLYLINE
  8
COUCHE1
 62
     7
  6
CONTINUOUS
 66
     1
 40
0.000000
 41
0.000000
  0
VERTEX
  8
COUCHE1
 62
     7
  6
CONTINUOUS
 10
13.793651
 20
13.502646
  0
VERTEX
  8
COUCHE1
 62
     7
  6
CONTINUOUS
 10
13.835979
 20
13.513228
  0
VERTEX
  8
COUCHE1
 62
     7
  6
CONTINUOUS
 10
13.851852
 20
13.534392
  0
VERTEX
  8
COUCHE1
 62
     7
  6
CONTINUOUS
 10
13.857143
 20
13.513228
  0
VERTEX
  8
COUCHE1
 62
     7
  6
CONTINUOUS
 10
13.910053
 20
13.502646
  0
VERTEX
  8
COUCHE1
 62
     7
  6
CONTINUOUS
 10
13.904762
 20
13.497354
  0
VERTEX
  8
COUCHE1
 62
     7
  6
CONTINUOUS
 10
13.857143
 20
13.513228
  0
VERTEX
  8
COUCHE1
 62
     7
  6
CONTINUOUS
 10
13.835979
 20
13.513228
  0
VERTEX
  8
COUCHE1
 62
     7
  6
CONTINUOUS
 10
13.798942
 20
13.497354
  0
VERTEX
  8
COUCHE1
 62
     7
  6
CONTINUOUS
 10
13.793651
 20
13.502646
  0
SEQEND
  8
0
  0
POLYLINE
  8
COUCHE1
  6
CONTINUOUS
 66
     1
 40
0.000000
 41
0.000000
  0
VERTEX
  8
COUCHE1
  6
CONTINUOUS
 10
13.682540
 20
13.455026
  0
VERTEX
  8
COUCHE1
  6
CONTINUOUS
 10
13.735450
 20
13.460317
  0
VERTEX
  8
COUCHE1
  6
CONTINUOUS
 10
13.751323
 20
13.481481
  0
VERTEX
  8
COUCHE1
  6
CONTINUOUS
 10
13.756614
 20
13.460317
  0
VERTEX
  8
COUCHE1
  6
CONTINUOUS
 10
13.814815
 20
13.449735
  0
VERTEX
  8
COUCHE1
  6
CONTINUOUS
 10
13.804233
 20
13.439153
  0
VERTEX
  8
COUCHE1
  6
CONTINUOUS
 10
13.756614
 20
13.455026
  0
VERTEX
  8
COUCHE1
  6
CONTINUOUS
 10
13.730159
 20
13.455026
  0
VERTEX
  8
COUCHE1
  6
CONTINUOUS
 10
13.693122
 20
13.449735
  0
VERTEX
  8
COUCHE1
  6
CONTINUOUS
 10
13.682540
 20
13.455026
  0
SEQEND
  8
0
  0
POLYLINE
  8
COUCHE1
 62
     7
  6
CONTINUOUS
 66
     1
 40
0.000000
 41
0.000000
  0
VERTEX
  8
COUCHE1
 62
     7
  6
CONTINUOUS
 10
13.682540
 20
13.455026
  0
VERTEX
  8
COUCHE1
 62
     7
  6
CONTINUOUS
 10
13.735450
 20
13.460317
  0
VERTEX
  8
COUCHE1
 62
     7
  6
CONTINUOUS
 10
13.751323
 20
13.481481
  0
VERTEX
  8
COUCHE1
 62
     7
  6
CONTINUOUS
 10
13.756614
 20
13.460317
  0
VERTEX
  8
COUCHE1
 62
     7
  6
CONTINUOUS
 10
13.814815
 20
13.449735
  0
VERTEX
  8
COUCHE1
 62
     7
  6
CONTINUOUS
 10
13.804233
 20
13.439153
  0
VERTEX
  8
COUCHE1
 62
     7
  6
CONTINUOUS
 10
13.756614
 20
13.455026
  0
VERTEX
  8
COUCHE1
 62
     7
  6
CONTINUOUS
 10
13.730159
 20
13.455026
  0
VERTEX
  8
COUCHE1
 62
     7
  6
CONTINUOUS
 10
13.693122
 20
13.449735
  0
VERTEX
  8
COUCHE1
 62
     7
  6
CONTINUOUS
 10
13.682540
 20
13.455026
  0
SEQEND
  8
0
  0
ENDSEC
  0
EOF
