  0
SECTION
  2
HEADER
  9
$ACADVER
  1
AC1006
  9
$EXTMIN
 10
-2.842764
 20
-3.437465
  9
$EXTMAX
 10
3.918472
 20
4.067256
  9
$LTSCALE
 40
0.000394
  9
$PDMODE
 70
    35
  9
$PDSIZE
 40
0.000315
  0
ENDSEC
  0
SECTION
  2
TABLES
  0
TABLE
  2
LTYPE
 70
     9
  0
LTYPE
  2
CONTINUOUS
 70
    64
  3
Solid line
 72
    65
 73
     0
 40
0.000000
  0
LTYPE
  2
DASHED
 70
    64
  3
__ __ __ __ __ __ __ __ __ __ __ __ __ __ __
 72
    65
 73
     2
 40
0.000003
 49
0.000002
 49
-0.000001
  0
LTYPE
  2
HIDDEN
 70
    64
  3
 _ _ _ _ _ _ _ _ _ _ _ _ _ _ _ _ _ _ _ _ _ _
 72
    65
 73
     2
 40
0.000001
 49
0.000001
 49
-0.000000
  0
LTYPE
  2
CENTER
 70
    64
  3
____ _ ____ _ ____ _ ____ _ ____ _ ____ _ ____
 72
    65
 73
     4
 40
0.000008
 49
0.000005
 49
-0.000001
 49
0.000001
 49
-0.000001
  0
LTYPE
  2
PHANTOM
 70
    64
  3
_____ _ _ _____ _ _ _____ _ _ _____ _ _ ____
 72
    65
 73
     6
 40
0.000010
 49
0.000005
 49
-0.000001
 49
0.000001
 49
-0.000001
 49
0.000001
 49
-0.000001
  0
LTYPE
  2
DOT
 70
    64
  3
...............................................
 72
    65
 73
     2
 40
0.000001
 49
0.000000
 49
-0.000001
  0
LTYPE
  2
DASHDOT
 70
    64
  3
__ . __ . __ . __ . __ . __ . __ . __ . __ . __
 72
    65
 73
     4
 40
0.000004
 49
0.000002
 49
-0.000001
 49
0.000000
 49
-0.000001
  0
LTYPE
  2
BORDER
 70
    64
  3
__ __ . __ __ . __ __ . __ __ . __ __ . __ __
 72
    65
 73
     6
 40
0.000007
 49
0.000002
 49
-0.000001
 49
0.000002
 49
-0.000001
 49
0.000000
 49
-0.000001
  0
LTYPE
  2
DIVIDE
 70
    64
  3
__ . . __ . . __ . . __ . . __ . . __ . . __
 72
    65
 73
     6
 40
0.000005
 49
0.000002
 49
-0.000001
 49
0.000000
 49
-0.000001
 49
0.000000
 49
-0.000001
  0
LTYPE
  2
DOTDOT
 70
    64
  3
 . .  . .  . .  . .  . .  . . 
 72
    65
 73
     5
 40
0.000002
 49
-0.000001
 49
0.000000
 49
-0.000001
 49
0.000000
 49
-0.000001
  0
ENDTAB
  0
TABLE
  2
STYLE
 70
     0
  0
ENDTAB
  0
TABLE
  2
LAYER
 70
     3
  0
LAYER
  2
FOREGROUND
 70
    64
 62
     7
  6
CONTINUOUS
  0
LAYER
  2
BACKGROUND
 70
    65
 62
    -7
  6
CONTINUOUS
  0
LAYER
  2
COUCHE1
 70
    64
 62
     7
  6
CONTINUOUS
  0
ENDTAB
  0
ENDSEC
  0
SECTION
  2
ENTITIES
  0
POLYLINE
  8
COUCHE1
 62
     7
  6
CONTINUOUS
 66
     1
 40
0.003000
 41
0.003000
 70
     1
  0
VERTEX
  8
COUCHE1
 62
     7
  6
CONTINUOUS
 10
-1.478185
 20
3.435469
  0
VERTEX
  8
COUCHE1
 62
     7
  6
CONTINUOUS
 10
-1.483476
 20
3.414303
  0
VERTEX
  8
COUCHE1
 62
     7
  6
CONTINUOUS
 10
-1.504638
 20
3.387850
  0
VERTEX
  8
COUCHE1
 62
     7
  6
CONTINUOUS
 10
-1.531094
 20
3.371976
  0
VERTEX
  8
COUCHE1
 62
     7
  6
CONTINUOUS
 10
-1.557547
 20
3.371976
  0
VERTEX
  8
COUCHE1
 62
     7
  6
CONTINUOUS
 10
-1.584004
 20
3.387850
  0
VERTEX
  8
COUCHE1
 62
     7
  6
CONTINUOUS
 10
-1.605169
 20
3.414303
  0
VERTEX
  8
COUCHE1
 62
     7
  6
CONTINUOUS
 10
-1.610461
 20
3.435469
  0
VERTEX
  8
COUCHE1
 62
     7
  6
CONTINUOUS
 10
-1.605169
 20
3.467217
  0
VERTEX
  8
COUCHE1
 62
     7
  6
CONTINUOUS
 10
-1.584004
 20
3.493669
  0
VERTEX
  8
COUCHE1
 62
     7
  6
CONTINUOUS
 10
-1.557547
 20
3.504252
  0
VERTEX
  8
COUCHE1
 62
     7
  6
CONTINUOUS
 10
-1.531094
 20
3.504252
  0
VERTEX
  8
COUCHE1
 62
     7
  6
CONTINUOUS
 10
-1.504638
 20
3.493669
  0
VERTEX
  8
COUCHE1
 62
     7
  6
CONTINUOUS
 10
-1.483476
 20
3.467217
  0
SEQEND
  8
0
  0
POLYLINE
  8
COUCHE1
 62
    39
  6
CONTINUOUS
 66
     1
 40
0.003000
 41
0.003000
 70
     1
  0
VERTEX
  8
COUCHE1
 62
    39
  6
CONTINUOUS
 10
-2.767024
 20
-3.435283
  0
VERTEX
  8
COUCHE1
 62
    39
  6
CONTINUOUS
 10
-2.005780
 20
-3.249614
  0
VERTEX
  8
COUCHE1
 62
    39
  6
CONTINUOUS
 10
-1.560173
 20
-3.305315
  0
VERTEX
  8
COUCHE1
 62
    39
  6
CONTINUOUS
 10
-1.430205
 20
-3.249614
  0
VERTEX
  8
COUCHE1
 62
    39
  6
CONTINUOUS
 10
-1.504472
 20
-3.045378
  0
VERTEX
  8
COUCHE1
 62
    39
  6
CONTINUOUS
 10
-1.615874
 20
-2.896843
  0
VERTEX
  8
COUCHE1
 62
    39
  6
CONTINUOUS
 10
-1.523039
 20
-2.841142
  0
VERTEX
  8
COUCHE1
 62
    39
  6
CONTINUOUS
 10
-1.541606
 20
-2.674039
  0
VERTEX
  8
COUCHE1
 62
    39
  6
CONTINUOUS
 10
-1.263102
 20
-2.432669
  0
VERTEX
  8
COUCHE1
 62
    39
  6
CONTINUOUS
 10
-1.003165
 20
-2.191299
  0
VERTEX
  8
COUCHE1
 62
    39
  6
CONTINUOUS
 10
-0.836063
 20
-1.764260
  0
VERTEX
  8
COUCHE1
 62
    39
  6
CONTINUOUS
 10
-0.631827
 20
-1.597157
  0
VERTEX
  8
COUCHE1
 62
    39
  6
CONTINUOUS
 10
-0.334756
 20
-1.708559
  0
VERTEX
  8
COUCHE1
 62
    39
  6
CONTINUOUS
 10
-0.093386
 20
-1.912795
  0
VERTEX
  8
COUCHE1
 62
    39
  6
CONTINUOUS
 10
0.110850
 20
-2.117031
  0
VERTEX
  8
COUCHE1
 62
    39
  6
CONTINUOUS
 10
0.296520
 20
-2.451236
  0
VERTEX
  8
COUCHE1
 62
    39
  6
CONTINUOUS
 10
0.296520
 20
-2.859709
  0
VERTEX
  8
COUCHE1
 62
    39
  6
CONTINUOUS
 10
0.147984
 20
-3.045378
  0
VERTEX
  8
COUCHE1
 62
    39
  6
CONTINUOUS
 10
-0.111953
 20
-3.045378
  0
VERTEX
  8
COUCHE1
 62
    39
  6
CONTINUOUS
 10
-0.279055
 20
-3.175346
  0
VERTEX
  8
COUCHE1
 62
    39
  6
CONTINUOUS
 10
-0.353323
 20
-3.323882
  0
VERTEX
  8
COUCHE1
 62
    39
  6
CONTINUOUS
 10
-0.074819
 20
-3.323882
  0
VERTEX
  8
COUCHE1
 62
    39
  6
CONTINUOUS
 10
0.240819
 20
-3.231047
  0
VERTEX
  8
COUCHE1
 62
    39
  6
CONTINUOUS
 10
0.426488
 20
-3.119646
  0
VERTEX
  8
COUCHE1
 62
    39
  6
CONTINUOUS
 10
0.537890
 20
-3.063945
  0
VERTEX
  8
COUCHE1
 62
    39
  6
CONTINUOUS
 10
0.797827
 20
-3.231047
  0
VERTEX
  8
COUCHE1
 62
    39
  6
CONTINUOUS
 10
0.890661
 20
-3.119646
  0
VERTEX
  8
COUCHE1
 62
    39
  6
CONTINUOUS
 10
0.816394
 20
-2.989677
  0
VERTEX
  8
COUCHE1
 62
    39
  6
CONTINUOUS
 10
0.686425
 20
-2.878276
  0
VERTEX
  8
COUCHE1
 62
    39
  6
CONTINUOUS
 10
0.723559
 20
-2.525504
  0
VERTEX
  8
COUCHE1
 62
    39
  6
CONTINUOUS
 10
0.593591
 20
-2.432669
  0
VERTEX
  8
COUCHE1
 62
    39
  6
CONTINUOUS
 10
0.482189
 20
-2.284134
  0
VERTEX
  8
COUCHE1
 62
    39
  6
CONTINUOUS
 10
0.556457
 20
-1.968496
  0
VERTEX
  8
COUCHE1
 62
    39
  6
CONTINUOUS
 10
0.333654
 20
-1.541457
  0
VERTEX
  8
COUCHE1
 62
    39
  6
CONTINUOUS
 10
0.630724
 20
-1.541457
  0
VERTEX
  8
COUCHE1
 62
    39
  6
CONTINUOUS
 10
0.760693
 20
-1.727126
  0
VERTEX
  8
COUCHE1
 62
    39
  6
CONTINUOUS
 10
0.779260
 20
-1.987063
  0
VERTEX
  8
COUCHE1
 62
    39
  6
CONTINUOUS
 10
0.909228
 20
-1.894228
  0
VERTEX
  8
COUCHE1
 62
    39
  6
CONTINUOUS
 10
0.946362
 20
-1.652858
  0
VERTEX
  8
COUCHE1
 62
    39
  6
CONTINUOUS
 10
1.187732
 20
-1.485756
  0
VERTEX
  8
COUCHE1
 62
    39
  6
CONTINUOUS
 10
1.020630
 20
-1.875661
  0
VERTEX
  8
COUCHE1
 62
    39
  6
CONTINUOUS
 10
1.206299
 20
-1.764260
  0
VERTEX
  8
COUCHE1
 62
    39
  6
CONTINUOUS
 10
1.317701
 20
-1.597157
  0
VERTEX
  8
COUCHE1
 62
    39
  6
CONTINUOUS
 10
1.317701
 20
-1.801394
  0
VERTEX
  8
COUCHE1
 62
    39
  6
CONTINUOUS
 10
1.559071
 20
-1.560024
  0
VERTEX
  8
COUCHE1
 62
    39
  6
CONTINUOUS
 10
1.577638
 20
-1.819961
  0
VERTEX
  8
COUCHE1
 62
    39
  6
CONTINUOUS
 10
1.948976
 20
-1.485756
  0
VERTEX
  8
COUCHE1
 62
    39
  6
CONTINUOUS
 10
2.227480
 20
-0.947315
  0
VERTEX
  8
COUCHE1
 62
    39
  6
CONTINUOUS
 10
2.227480
 20
-1.300087
  0
VERTEX
  8
COUCHE1
 62
    39
  6
CONTINUOUS
 10
2.023244
 20
-1.689992
  0
VERTEX
  8
COUCHE1
 62
    39
  6
CONTINUOUS
 10
2.171780
 20
-1.745693
  0
VERTEX
  8
COUCHE1
 62
    39
  6
CONTINUOUS
 10
2.505984
 20
-1.225819
  0
VERTEX
  8
COUCHE1
 62
    39
  6
CONTINUOUS
 10
2.598819
 20
-1.262953
  0
VERTEX
  8
COUCHE1
 62
    39
  6
CONTINUOUS
 10
2.505984
 20
-1.652858
  0
VERTEX
  8
COUCHE1
 62
    39
  6
CONTINUOUS
 10
2.933024
 20
-1.003016
  0
VERTEX
  8
COUCHE1
 62
    39
  6
CONTINUOUS
 10
3.025858
 20
-0.984449
  0
VERTEX
  8
COUCHE1
 62
    39
  6
CONTINUOUS
 10
3.100126
 20
-1.318654
  0
VERTEX
  8
COUCHE1
 62
    39
  6
CONTINUOUS
 10
3.211528
 20
-1.188685
  0
VERTEX
  8
COUCHE1
 62
    39
  6
CONTINUOUS
 10
3.360063
 20
-0.353173
  0
VERTEX
  8
COUCHE1
 62
    39
  6
CONTINUOUS
 10
3.248661
 20
0.203835
  0
VERTEX
  8
COUCHE1
 62
    39
  6
CONTINUOUS
 10
3.360063
 20
0.222402
  0
VERTEX
  8
COUCHE1
 62
    39
  6
CONTINUOUS
 10
3.527165
 20
0.055299
  0
VERTEX
  8
COUCHE1
 62
    39
  6
CONTINUOUS
 10
3.582866
 20
-0.353173
  0
VERTEX
  8
COUCHE1
 62
    39
  6
CONTINUOUS
 10
3.490031
 20
-0.835913
  0
VERTEX
  8
COUCHE1
 62
    39
  6
CONTINUOUS
 10
3.805669
 20
-0.278906
  0
VERTEX
  8
COUCHE1
 62
    39
  6
CONTINUOUS
 10
3.805669
 20
0.148134
  0
VERTEX
  8
COUCHE1
 62
    39
  6
CONTINUOUS
 10
3.657134
 20
0.333803
  0
VERTEX
  8
COUCHE1
 62
    39
  6
CONTINUOUS
 10
3.917071
 20
1.020780
  0
VERTEX
  8
COUCHE1
 62
    39
  6
CONTINUOUS
 10
3.694268
 20
1.540654
  0
VERTEX
  8
COUCHE1
 62
    39
  6
CONTINUOUS
 10
3.341496
 20
1.911992
  0
VERTEX
  8
COUCHE1
 62
    39
  6
CONTINUOUS
 10
2.970157
 20
2.041961
  0
VERTEX
  8
COUCHE1
 62
    39
  6
CONTINUOUS
 10
2.394583
 20
2.209063
  0
VERTEX
  8
COUCHE1
 62
    39
  6
CONTINUOUS
 10
1.874709
 20
2.153362
  0
VERTEX
  8
COUCHE1
 62
    39
  6
CONTINUOUS
 10
1.391969
 20
1.967693
  0
VERTEX
  8
COUCHE1
 62
    39
  6
CONTINUOUS
 10
1.057764
 20
1.596354
  0
VERTEX
  8
COUCHE1
 62
    39
  6
CONTINUOUS
 10
0.890661
 20
1.262150
  0
VERTEX
  8
COUCHE1
 62
    39
  6
CONTINUOUS
 10
0.723559
 20
1.076480
  0
VERTEX
  8
COUCHE1
 62
    39
  6
CONTINUOUS
 10
0.537890
 20
0.816543
  0
VERTEX
  8
COUCHE1
 62
    39
  6
CONTINUOUS
 10
0.370787
 20
0.500906
  0
VERTEX
  8
COUCHE1
 62
    39
  6
CONTINUOUS
 10
0.018016
 20
0.519472
  0
VERTEX
  8
COUCHE1
 62
    39
  6
CONTINUOUS
 10
-0.241921
 20
0.816543
  0
VERTEX
  8
COUCHE1
 62
    39
  6
CONTINUOUS
 10
-0.501858
 20
1.113614
  0
VERTEX
  8
COUCHE1
 62
    39
  6
CONTINUOUS
 10
-0.761795
 20
1.262150
  0
VERTEX
  8
COUCHE1
 62
    39
  6
CONTINUOUS
 10
-0.873197
 20
1.336417
  0
VERTEX
  8
COUCHE1
 62
    39
  6
CONTINUOUS
 10
-0.836063
 20
1.429252
  0
VERTEX
  8
COUCHE1
 62
    39
  6
CONTINUOUS
 10
-0.928898
 20
1.540654
  0
VERTEX
  8
COUCHE1
 62
    39
  6
CONTINUOUS
 10
-0.910331
 20
1.837724
  0
VERTEX
  8
COUCHE1
 62
    39
  6
CONTINUOUS
 10
-0.910331
 20
2.209063
  0
VERTEX
  8
COUCHE1
 62
    39
  6
CONTINUOUS
 10
-1.077433
 20
2.561835
  0
VERTEX
  8
COUCHE1
 62
    39
  6
CONTINUOUS
 10
-1.003165
 20
2.840339
  0
VERTEX
  8
COUCHE1
 62
    39
  6
CONTINUOUS
 10
-0.798929
 20
2.858906
  0
VERTEX
  8
COUCHE1
 62
    39
  6
CONTINUOUS
 10
-0.576126
 20
2.803205
  0
VERTEX
  8
COUCHE1
 62
    39
  6
CONTINUOUS
 10
-0.353323
 20
2.970307
  0
VERTEX
  8
COUCHE1
 62
    39
  6
CONTINUOUS
 10
-0.353323
 20
3.081709
  0
VERTEX
  8
COUCHE1
 62
    39
  6
CONTINUOUS
 10
-0.464724
 20
3.100276
  0
VERTEX
  8
COUCHE1
 62
    39
  6
CONTINUOUS
 10
-0.353323
 20
3.304512
  0
VERTEX
  8
COUCHE1
 62
    39
  6
CONTINUOUS
 10
-0.483291
 20
3.360213
  0
VERTEX
  8
COUCHE1
 62
    39
  6
CONTINUOUS
 10
-0.464724
 20
3.490181
  0
VERTEX
  8
COUCHE1
 62
    39
  6
CONTINUOUS
 10
-0.668961
 20
3.583016
  0
VERTEX
  8
COUCHE1
 62
    39
  6
CONTINUOUS
 10
-0.724661
 20
3.712984
  0
VERTEX
  8
COUCHE1
 62
    39
  6
CONTINUOUS
 10
-0.706094
 20
3.880087
  0
VERTEX
  8
COUCHE1
 62
    39
  6
CONTINUOUS
 10
-1.077433
 20
3.917220
  0
VERTEX
  8
COUCHE1
 62
    39
  6
CONTINUOUS
 10
-1.077433
 20
4.065756
  0
VERTEX
  8
COUCHE1
 62
    39
  6
CONTINUOUS
 10
-1.430205
 20
4.065756
  0
VERTEX
  8
COUCHE1
 62
    39
  6
CONTINUOUS
 10
-1.708709
 20
3.972921
  0
VERTEX
  8
COUCHE1
 62
    39
  6
CONTINUOUS
 10
-1.838677
 20
3.750118
  0
VERTEX
  8
COUCHE1
 62
    39
  6
CONTINUOUS
 10
-1.857244
 20
3.508748
  0
VERTEX
  8
COUCHE1
 62
    39
  6
CONTINUOUS
 10
-2.154315
 20
3.323079
  0
VERTEX
  8
COUCHE1
 62
    39
  6
CONTINUOUS
 10
-2.005780
 20
3.137409
  0
VERTEX
  8
COUCHE1
 62
    39
  6
CONTINUOUS
 10
-1.987213
 20
2.914606
  0
VERTEX
  8
COUCHE1
 62
    39
  6
CONTINUOUS
 10
-2.321417
 20
2.840339
  0
VERTEX
  8
COUCHE1
 62
    39
  6
CONTINUOUS
 10
-2.525654
 20
2.598969
  0
VERTEX
  8
COUCHE1
 62
    39
  6
CONTINUOUS
 10
-2.544220
 20
2.301898
  0
VERTEX
  8
COUCHE1
 62
    39
  6
CONTINUOUS
 10
-2.414252
 20
2.097661
  0
VERTEX
  8
COUCHE1
 62
    39
  6
CONTINUOUS
 10
-2.562787
 20
1.856291
  0
VERTEX
  8
COUCHE1
 62
    39
  6
CONTINUOUS
 10
-2.767024
 20
1.503520
  0
VERTEX
  8
COUCHE1
 62
    39
  6
CONTINUOUS
 10
-2.841291
 20
1.132181
  0
VERTEX
  8
COUCHE1
 62
    39
  6
CONTINUOUS
 10
-2.692756
 20
0.760843
  0
VERTEX
  8
COUCHE1
 62
    39
  6
CONTINUOUS
 10
-2.562787
 20
0.519472
  0
VERTEX
  8
COUCHE1
 62
    39
  6
CONTINUOUS
 10
-2.469953
 20
0.148134
  0
VERTEX
  8
COUCHE1
 62
    39
  6
CONTINUOUS
 10
-2.339984
 20
-0.056102
  0
VERTEX
  8
COUCHE1
 62
    39
  6
CONTINUOUS
 10
-2.135748
 20
-0.334606
  0
VERTEX
  8
COUCHE1
 62
    39
  6
CONTINUOUS
 10
-2.005780
 20
-0.594543
  0
VERTEX
  8
COUCHE1
 62
    39
  6
CONTINUOUS
 10
-1.838677
 20
-0.743079
  0
VERTEX
  8
COUCHE1
 62
    39
  6
CONTINUOUS
 10
-1.764409
 20
-1.095850
  0
VERTEX
  8
COUCHE1
 62
    39
  6
CONTINUOUS
 10
-1.671575
 20
-1.374354
  0
VERTEX
  8
COUCHE1
 62
    39
  6
CONTINUOUS
 10
-1.541606
 20
-1.671425
  0
VERTEX
  8
COUCHE1
 62
    39
  6
CONTINUOUS
 10
-1.467339
 20
-1.912795
  0
VERTEX
  8
COUCHE1
 62
    39
  6
CONTINUOUS
 10
-1.578740
 20
-2.376969
  0
VERTEX
  8
COUCHE1
 62
    39
  6
CONTINUOUS
 10
-1.745843
 20
-2.729740
  0
VERTEX
  8
COUCHE1
 62
    39
  6
CONTINUOUS
 10
-1.968646
 20
-3.008244
  0
VERTEX
  8
COUCHE1
 62
    39
  6
CONTINUOUS
 10
-2.210016
 20
-3.119646
  0
VERTEX
  8
COUCHE1
 62
    39
  6
CONTINUOUS
 10
-2.451386
 20
-3.063945
  0
VERTEX
  8
COUCHE1
 62
    39
  6
CONTINUOUS
 10
-2.637055
 20
-3.175346
  0
SEQEND
  8
0
  0
ENDSEC
  0
EOF
