  0
SECTION
  2
HEADER
  9
$ACADVER
  1
AC1003
  9
$INSBASE
 10
0.0
 20
0.0
  9
$EXTMIN
 10
-150
 20
-150
  9
$EXTMAX
 10
150
 20
150
  9
$LIMMIN
 10
0.0
 20
0.0
  9
$LIMMAX
 10
300.0
 20
225.0
  9
$VIEWCTR
 10
7.378144
 20
4.5
  9
$VIEWSIZE
 40
9.0
  9
$SNAPMODE
 70
     0
  9
$SNAPUNIT
 10
1.0
 20
1.0
  9
$SNAPBASE
 10
0.0
 20
0.0
  9
$SNAPANG
 50
0.0
  9
$SNAPSTYLE
 70
     0
  9
$SNAPISOPAIR
 70
     0
  9
$GRIDMODE
 70
     0
  9
$GRIDUNIT
 10
0.0
 20
0.0
  9
$ORTHOMODE
 70
     0
  9
$REGENMODE
 70
     1
  9
$FILLMODE
 70
     1
  9
$QTEXTMODE
 70
     0
  9
$DRAGMODE
 70
     2
  9
$LTSCALE
 40
1.0
  9
$OSMODE
 70
     0
  9
$ATTMODE
 70
     1
  9
$TEXTSIZE
 40
0.2
  9
$TRACEWID
 40
0.05
  9
$TEXTSTYLE
  7
STANDARD
  9
$CLAYER
  8
0
  9
$CELTYPE
  6
BYLAYER
  9
$CECOLOR
 62
   256
  9
$DIMSCALE
 40
1.0
  9
$DIMASZ
 40
0.18
  9
$DIMEXO
 40
0.0625
  9
$DIMDLI
 40
0.38
  9
$DIMRND
 40
0.0
  9
$DIMDLE
 40
0.0
  9
$DIMEXE
 40
0.18
  9
$DIMTP
 40
0.0
  9
$DIMTM
 40
0.0
  9
$DIMTXT
 40
0.18
  9
$DIMCEN
 40
0.09
  9
$DIMTSZ
 40
0.0
  9
$DIMTOL
 70
     0
  9
$DIMLIM
 70
     0
  9
$DIMTIH
 70
     1
  9
$DIMTOH
 70
     1
  9
$DIMSE1
 70
     0
  9
$DIMSE2
 70
     0
  9
$DIMTAD
 70
     0
  9
$DIMZIN
 70
     0
  9
$DIMBLK
  1

  9
$DIMASO
 70
     1
  9
$DIMSHO
 70
     0
  9
$DIMPOST
  1

  9
$DIMAPOST
  1

  9
$DIMALT
 70
     0
  9
$DIMALTD
 70
     2
  9
$DIMALTF
 40
25.4
  9
$DIMLFAC
 40
1.0
  9
$LUNITS
 70
     2
  9
$LUPREC
 70
     4
  9
$AXISMODE
 70
     0
  9
$AXISUNIT
 10
0.0
 20
0.0
  9
$SKETCHINC
 40
0.1
  9
$FILLETRAD
 40
0.0
  9
$AUNITS
 70
     0
  9
$AUPREC
 70
     0
  9
$MENU
  1
ACAD
  9
$ELEVATION
 40
0.0
  9
$THICKNESS
 40
0.0
  9
$VIEWDIR
 10
0.0
 20
0.0
 30
1.0
  9
$LIMCHECK
 70
     0
  9
$BLIPMODE
 70
     1
  9
$CHAMFERA
 40
0.0
  9
$CHAMFERB
 40
0.0
  9
$FASTZOOM
 70
     1
  9
$SKPOLY
 70
     0
  9
$TDCREATE
 40
2447732.6512363921
  9
$TDUPDATE
 40
2447732.6512363921
  9
$TDINDWG
 40
0.0000000000
  9
$TDUSRTIMER
 40
0.0000000000
  9
$USRTIMER
 70
     1
  9
$ANGBASE
 50
0.0
  9
$ANGDIR
 70
     0
  9
$PDMODE
 70
     0
  9
$PDSIZE
 40
0.0
  9
$PLINEWID
 40
0.0
  9
$COORDS
 70
     0
  9
$USERI1
 70
     0
  9
$USERI2
 70
     0
  9
$USERI3
 70
     0
  9
$USERI4
 70
     0
  9
$USERI5
 70
     0
  9
$USERR1
 40
0.0
  9
$USERR2
 40
0.0
  9
$USERR3
 40
0.0
  9
$USERR4
 40
0.0
  9
$USERR5
 40
0.0
  0
ENDSEC
  0
SECTION
  2
TABLES
  0
TABLE
  2
LTYPE
  70
     2
  0
LTYPE
  2
CONTINUOUS
 70
    64
  3
Solid line
 72
    65
 73
     0
 40
0.0
  0
ENDTAB
  0
TABLE
  2
LAYER
 70
     9
  0
LAYER
  2
0
 70
     0
 62
     7
  6
CONTINUOUS
  0
LAYER
  2
1
 70
     0
 62
     1
  6
CONTINUOUS
  0
LAYER
  2
2
 70
     0
 62
     2
  6
CONTINUOUS
  0
LAYER
  2
3
 70
     0
 62
     3
  6
CONTINUOUS
  0
LAYER
  2
4
 70
     0
 62
     4
  6
CONTINUOUS
  0
LAYER
  2
5
 70
     0
 62
     5
  6
CONTINUOUS
  0
LAYER
  2
6
 70
     0
 62
     6
  6
CONTINUOUS
  0
LAYER
  2
7
 70
     0
 62
     7
  6
CONTINUOUS
  0
LAYER
  2
8
 70
     0
 62
     7
  6
CONTINUOUS
  0
ENDTAB
  0
TABLE
  2
STYLE
 70
     5
  0
STYLE
  2
STANDARD
 70
     0
 40
0.0
 41
1.0
 50
0.0
 71
     0
 42
0.2
  3
TXT
  4

  0
STYLE
  2
GREEK
 70
     0
 40
0.0
 41
1.0
 50
0.0
 71
     0
 42
0.2
  3
GREEKC
  4

  0
STYLE
  2
ITALICC
 70
     0
 40
0.0
 41
1.0
 50
0.0
 71
     0
 42
0.2
  3
ITALICC
  4

  0
STYLE
  2
MONOTXT
 70
     0
 40
0.0
 41
1.0
 50
0.0
 71
     0
 42
0.2
  3
MONOTXT
  4

  0
STYLE
  2
GOTHICE
 70
     0
 40
0.0
 41
1.0
 50
0.0
 71
     0
 42
0.2
  3
GOTHICE
  4

  0
ENDTAB
  0
TABLE
  2
VIEW
 70
     0
  0
ENDTAB
  0
ENDSEC
  0
SECTION
  2
BLOCKS
  0
ENDSEC
  0
SECTION
  2
ENTITIES
  0
POLYLINE
  8
7
  6
CONTINUOUS
 66
  1
  0
VERTEX
  8
7
  10
-17.075
  20
49.600
  0
VERTEX
  8
7
  10
-13.619
  20
54.351
  0
VERTEX
  8
7
  10
-14.712
  20
55.292
  0
VERTEX
  8
7
  10
-10.138
  20
63.372
  0
VERTEX
  8
7
  10
-11.053
  20
66.294
  0
VERTEX
  8
7
  10
-11.231
  20
71.808
  0
VERTEX
  8
7
  10
-9.045
  20
76.763
  0
VERTEX
  8
7
  10
-5.564
  20
72.367
  0
VERTEX
  8
7
  10
-2.642
  20
67.031
  0
VERTEX
  8
7
  10
0.635
  20
67.209
  0
VERTEX
  8
7
  10
2.464
  20
66.853
  0
VERTEX
  8
7
  10
5.768
  20
68.683
  0
VERTEX
  8
7
  10
7.953
  20
71.808
  0
VERTEX
  8
7
  10
9.782
  20
69.242
  0
VERTEX
  8
7
  10
10.138
  20
64.287
  0
VERTEX
  8
7
  10
13.619
  20
63.372
  0
VERTEX
  8
7
  10
18.371
  20
60.984
  0
VERTEX
  8
7
  10
17.990
  20
57.121
  0
VERTEX
  8
7
  10
16.719
  20
54.555
  0
VERTEX
  8
7
  10
19.464
  20
53.259
  0
VERTEX
  8
7
  10
24.037
  20
51.429
  0
VERTEX
  8
7
  10
28.408
  20
49.600
  0
VERTEX
  8
7
  10
28.789
  20
47.262
  0
VERTEX
  8
7
  10
28.738
  20
47.135
  0
VERTEX
  8
7
  10
28.586
  20
46.856
  0
VERTEX
  8
7
  10
28.382
  20
46.424
  0
VERTEX
  8
7
  10
28.154
  20
45.941
  0
VERTEX
  8
7
  10
27.900
  20
45.483
  0
VERTEX
  8
7
  10
27.696
  20
45.051
  0
VERTEX
  8
7
  10
27.544
  20
44.772
  0
VERTEX
  8
7
  10
27.493
  20
44.670
  0
VERTEX
  8
7
  10
27.417
  20
44.238
  0
VERTEX
  8
7
  10
27.239
  20
43.273
  0
VERTEX
  8
7
  10
27.036
  20
42.333
  0
VERTEX
  8
7
  10
26.960
  20
41.926
  0
VERTEX
  8
7
  10
26.985
  20
41.189
  0
VERTEX
  8
7
  10
27.061
  20
39.614
  0
VERTEX
  8
7
  10
27.112
  20
38.038
  0
VERTEX
  8
7
  10
27.137
  20
37.327
  0
VERTEX
  8
7
  10
27.010
  20
37.301
  0
VERTEX
  8
7
  10
26.680
  20
37.251
  0
VERTEX
  8
7
  10
26.223
  20
37.200
  0
VERTEX
  8
7
  10
25.689
  20
37.124
  0
VERTEX
  8
7
  10
25.130
  20
37.073
  0
VERTEX
  8
7
  10
24.673
  20
37.022
  0
VERTEX
  8
7
  10
24.342
  20
36.971
  0
VERTEX
  8
7
  10
24.215
  20
36.971
  0
VERTEX
  8
7
  10
24.037
  20
36.920
  0
VERTEX
  8
7
  10
23.580
  20
36.844
  0
VERTEX
  8
7
  10
22.945
  20
36.717
  0
VERTEX
  8
7
  10
22.208
  20
36.590
  0
VERTEX
  8
7
  10
21.471
  20
36.437
  0
VERTEX
  8
7
  10
20.836
  20
36.336
  0
VERTEX
  8
7
  10
20.378
  20
36.260
  0
VERTEX
  8
7
  10
20.200
  20
36.234
  0
VERTEX
  8
7
  10
20.124
  20
36.158
  0
VERTEX
  8
7
  10
19.921
  20
35.955
  0
VERTEX
  8
7
  10
19.616
  20
35.701
  0
VERTEX
  8
7
  10
19.286
  20
35.396
  0
VERTEX
  8
7
  10
18.955
  20
35.091
  0
VERTEX
  8
7
  10
18.650
  20
34.837
  0
VERTEX
  8
7
  10
18.447
  20
34.633
  0
VERTEX
  8
7
  10
18.371
  20
34.583
  0
VERTEX
  8
7
  10
18.320
  20
34.583
  0
VERTEX
  8
7
  10
18.168
  20
34.583
  0
VERTEX
  8
7
  10
17.914
  20
34.583
  0
VERTEX
  8
7
  10
17.609
  20
34.608
  0
VERTEX
  8
7
  10
17.227
  20
34.608
  0
VERTEX
  8
7
  10
16.821
  20
34.633
  0
VERTEX
  8
7
  10
16.364
  20
34.633
  0
VERTEX
  8
7
  10
15.906
  20
34.659
  0
VERTEX
  8
7
  10
15.449
  20
34.659
  0
VERTEX
  8
7
  10
14.991
  20
34.684
  0
VERTEX
  8
7
  10
14.585
  20
34.710
  0
VERTEX
  8
7
  10
14.204
  20
34.710
  0
VERTEX
  8
7
  10
13.899
  20
34.735
  0
VERTEX
  8
7
  10
13.645
  20
34.735
  0
VERTEX
  8
7
  10
13.492
  20
34.760
  0
VERTEX
  8
7
  10
13.441
  20
34.760
  0
VERTEX
  8
7
  10
13.314
  20
34.735
  0
VERTEX
  8
7
  10
13.009
  20
34.710
  0
VERTEX
  8
7
  10
12.577
  20
34.684
  0
VERTEX
  8
7
  10
12.069
  20
34.659
  0
VERTEX
  8
7
  10
11.561
  20
34.633
  0
VERTEX
  8
7
  10
11.129
  20
34.608
  0
VERTEX
  8
7
  10
10.824
  20
34.583
  0
VERTEX
  8
7
  10
10.697
  20
34.583
  0
VERTEX
  8
7
  10
10.595
  20
34.659
  0
VERTEX
  8
7
  10
10.341
  20
34.862
  0
VERTEX
  8
7
  10
9.986
  20
35.142
  0
VERTEX
  8
7
  10
9.604
  20
35.472
  0
VERTEX
  8
7
  10
9.198
  20
35.828
  0
VERTEX
  8
7
  10
8.842
  20
36.107
  0
VERTEX
  8
7
  10
8.588
  20
36.336
  0
VERTEX
  8
7
  10
8.486
  20
36.412
  0
VERTEX
  8
7
  10
8.334
  20
36.514
  0
VERTEX
  8
7
  10
7.927
  20
36.768
  0
VERTEX
  8
7
  10
7.343
  20
37.149
  0
VERTEX
  8
7
  10
6.682
  20
37.581
  0
VERTEX
  8
7
  10
5.996
  20
38.038
  0
VERTEX
  8
7
  10
5.412
  20
38.419
  0
VERTEX
  8
7
  10
5.005
  20
38.699
  0
VERTEX
  8
7
  10
4.853
  20
38.801
  0
VERTEX
  8
7
  10
4.802
  20
38.674
  0
VERTEX
  8
7
  10
4.650
  20
38.318
  0
VERTEX
  8
7
  10
4.446
  20
37.860
  0
VERTEX
  8
7
  10
4.218
  20
37.301
  0
VERTEX
  8
7
  10
3.963
  20
36.768
  0
VERTEX
  8
7
  10
3.760
  20
36.310
  0
VERTEX
  8
7
  10
3.608
  20
35.980
  0
VERTEX
  8
7
  10
3.557
  20
35.853
  0
VERTEX
  8
7
  10
3.608
  20
35.726
  0
VERTEX
  8
7
  10
3.760
  20
35.446
  0
VERTEX
  8
7
  10
3.963
  20
35.014
  0
VERTEX
  8
7
  10
4.218
  20
34.557
  0
VERTEX
  8
7
  10
4.446
  20
34.074
  0
VERTEX
  8
7
  10
4.650
  20
33.668
  0
VERTEX
  8
7
  10
4.802
  20
33.388
  0
VERTEX
  8
7
  10
4.853
  20
33.287
  0
VERTEX
  8
7
  10
4.904
  20
33.261
  0
VERTEX
  8
7
  10
5.056
  20
33.236
  0
VERTEX
  8
7
  10
5.285
  20
33.210
  0
VERTEX
  8
7
  10
5.590
  20
33.160
  0
VERTEX
  8
7
  10
5.945
  20
33.109
  0
VERTEX
  8
7
  10
6.352
  20
33.033
  0
VERTEX
  8
7
  10
6.784
  20
32.956
  0
VERTEX
  8
7
  10
7.241
  20
32.905
  0
VERTEX
  8
7
  10
7.673
  20
32.829
  0
VERTEX
  8
7
  10
8.105
  20
32.753
  0
VERTEX
  8
7
  10
8.512
  20
32.702
  0
VERTEX
  8
7
  10
8.868
  20
32.651
  0
VERTEX
  8
7
  10
9.173
  20
32.601
  0
VERTEX
  8
7
  10
9.401
  20
32.575
  0
VERTEX
  8
7
  10
9.554
  20
32.550
  0
VERTEX
  8
7
  10
9.604
  20
32.550
  0
VERTEX
  8
7
  10
9.655
  20
32.524
  0
VERTEX
  8
7
  10
9.808
  20
32.473
  0
VERTEX
  8
7
  10
10.036
  20
32.397
  0
VERTEX
  8
7
  10
10.316
  20
32.270
  0
VERTEX
  8
7
  10
10.672
  20
32.143
  0
VERTEX
  8
7
  10
11.053
  20
32.016
  0
VERTEX
  8
7
  10
11.459
  20
31.864
  0
VERTEX
  8
7
  10
11.891
  20
31.711
  0
VERTEX
  8
7
  10
12.298
  20
31.559
  0
VERTEX
  8
7
  10
12.705
  20
31.406
  0
VERTEX
  8
7
  10
13.086
  20
31.254
  0
VERTEX
  8
7
  10
13.441
  20
31.152
  0
VERTEX
  8
7
  10
13.721
  20
31.051
  0
VERTEX
  8
7
  10
13.950
  20
30.949
  0
VERTEX
  8
7
  10
14.102
  20
30.923
  0
VERTEX
  8
7
  10
14.153
  20
30.898
  0
VERTEX
  8
7
  10
14.229
  20
30.873
  0
VERTEX
  8
7
  10
14.432
  20
30.796
  0
VERTEX
  8
7
  10
14.763
  20
30.695
  0
VERTEX
  8
7
  10
15.169
  20
30.568
  0
VERTEX
  8
7
  10
15.677
  20
30.415
  0
VERTEX
  8
7
  10
16.236
  20
30.237
  0
VERTEX
  8
7
  10
16.821
  20
30.060
  0
VERTEX
  8
7
  10
17.456
  20
29.882
  0
VERTEX
  8
7
  10
18.066
  20
29.678
  0
VERTEX
  8
7
  10
18.650
  20
29.501
  0
VERTEX
  8
7
  10
19.209
  20
29.348
  0
VERTEX
  8
7
  10
19.718
  20
29.196
  0
VERTEX
  8
7
  10
20.124
  20
29.069
  0
VERTEX
  8
7
  10
20.455
  20
28.967
  0
VERTEX
  8
7
  10
20.658
  20
28.916
  0
VERTEX
  8
7
  10
20.734
  20
28.891
  0
VERTEX
  8
7
  10
20.912
  20
28.713
  0
VERTEX
  8
7
  10
21.369
  20
28.306
  0
VERTEX
  8
7
  10
22.005
  20
27.696
  0
VERTEX
  8
7
  10
22.741
  20
27.036
  0
VERTEX
  8
7
  10
23.478
  20
26.350
  0
VERTEX
  8
7
  10
24.114
  20
25.765
  0
VERTEX
  8
7
  10
24.571
  20
25.359
  0
VERTEX
  8
7
  10
24.749
  20
25.206
  0
VERTEX
  8
7
  10
24.927
  20
24.952
  0
VERTEX
  8
7
  10
25.384
  20
24.266
  0
VERTEX
  8
7
  10
26.019
  20
23.326
  0
VERTEX
  8
7
  10
26.782
  20
22.259
  0
VERTEX
  8
7
  10
27.519
  20
21.166
  0
VERTEX
  8
7
  10
28.154
  20
20.251
  0
VERTEX
  8
7
  10
28.611
  20
19.591
  0
VERTEX
  8
7
  10
28.789
  20
19.337
  0
VERTEX
  8
7
  10
28.865
  20
19.057
  0
VERTEX
  8
7
  10
29.043
  20
18.320
  0
VERTEX
  8
7
  10
29.297
  20
17.278
  0
VERTEX
  8
7
  10
29.602
  20
16.109
  0
VERTEX
  8
7
  10
29.907
  20
14.915
  0
VERTEX
  8
7
  10
30.161
  20
13.899
  0
VERTEX
  8
7
  10
30.339
  20
13.187
  0
VERTEX
  8
7
  10
30.415
  20
12.908
  0
VERTEX
  8
7
  10
30.466
  20
12.552
  0
VERTEX
  8
7
  10
30.568
  20
11.637
  0
VERTEX
  8
7
  10
30.695
  20
10.341
  0
VERTEX
  8
7
  10
30.873
  20
8.842
  0
VERTEX
  8
7
  10
31.051
  20
7.368
  0
VERTEX
  8
7
  10
31.178
  20
6.072
  0
VERTEX
  8
7
  10
31.279
  20
5.158
  0
VERTEX
  8
7
  10
31.330
  20
4.827
  0
VERTEX
  8
7
  10
31.279
  20
4.599
  0
VERTEX
  8
7
  10
31.127
  20
3.989
  0
VERTEX
  8
7
  10
30.923
  20
3.125
  0
VERTEX
  8
7
  10
30.695
  20
2.134
  0
VERTEX
  8
7
  10
30.466
  20
1.168
  0
VERTEX
  8
7
  10
30.263
  20
0.304
  0
VERTEX
  8
7
  10
30.110
  20
-0.279
  0
VERTEX
  8
7
  10
30.060
  20
-0.508
  0
VERTEX
  8
7
  10
29.932
  20
-0.584
  0
VERTEX
  8
7
  10
29.628
  20
-0.813
  0
VERTEX
  8
7
  10
29.196
  20
-1.092
  0
VERTEX
  8
7
  10
28.687
  20
-1.448
  0
VERTEX
  8
7
  10
28.179
  20
-1.778
  0
VERTEX
  8
7
  10
27.747
  20
-2.058
  0
VERTEX
  8
7
  10
27.442
  20
-2.261
  0
VERTEX
  8
7
  10
27.315
  20
-2.337
  0
VERTEX
  8
7
  10
27.239
  20
-2.337
  0
VERTEX
  8
7
  10
27.061
  20
-2.312
  0
VERTEX
  8
7
  10
26.782
  20
-2.286
  0
VERTEX
  8
7
  10
26.400
  20
-2.261
  0
VERTEX
  8
7
  10
25.969
  20
-2.236
  0
VERTEX
  8
7
  10
25.460
  20
-2.185
  0
VERTEX
  8
7
  10
24.927
  20
-2.134
  0
VERTEX
  8
7
  10
24.393
  20
-2.083
  0
VERTEX
  8
7
  10
23.859
  20
-2.032
  0
VERTEX
  8
7
  10
23.326
  20
-1.981
  0
VERTEX
  8
7
  10
22.818
  20
-1.931
  0
VERTEX
  8
7
  10
22.386
  20
-1.880
  0
VERTEX
  8
7
  10
22.005
  20
-1.829
  0
VERTEX
  8
7
  10
21.725
  20
-1.804
  0
VERTEX
  8
7
  10
21.547
  20
-1.778
  0
VERTEX
  8
7
  10
21.471
  20
-1.778
  0
VERTEX
  8
7
  10
21.395
  20
-1.778
  0
VERTEX
  8
7
  10
21.166
  20
-1.753
  0
VERTEX
  8
7
  10
20.785
  20
-1.702
  0
VERTEX
  8
7
  10
20.328
  20
-1.651
  0
VERTEX
  8
7
  10
19.768
  20
-1.575
  0
VERTEX
  8
7
  10
19.159
  20
-1.499
  0
VERTEX
  8
7
  10
18.498
  20
-1.422
  0
VERTEX
  8
7
  10
17.812
  20
-1.346
  0
VERTEX
  8
7
  10
17.126
  20
-1.245
  0
VERTEX
  8
7
  10
16.465
  20
-1.168
  0
VERTEX
  8
7
  10
15.855
  20
-1.092
  0
VERTEX
  8
7
  10
15.296
  20
-1.016
  0
VERTEX
  8
7
  10
14.839
  20
-0.965
  0
VERTEX
  8
7
  10
14.458
  20
-0.914
  0
VERTEX
  8
7
  10
14.229
  20
-0.889
  0
VERTEX
  8
7
  10
14.153
  20
-0.863
  0
VERTEX
  8
7
  10
14.000
  20
-0.940
  0
VERTEX
  8
7
  10
13.594
  20
-1.168
  0
VERTEX
  8
7
  10
13.009
  20
-1.448
  0
VERTEX
  8
7
  10
12.349
  20
-1.804
  0
VERTEX
  8
7
  10
11.663
  20
-2.134
  0
VERTEX
  8
7
  10
11.078
  20
-2.413
  0
VERTEX
  8
7
  10
10.672
  20
-2.617
  0
VERTEX
  8
7
  10
10.519
  20
-2.693
  0
VERTEX
  8
7
  10
10.443
  20
-2.693
  0
VERTEX
  8
7
  10
10.265
  20
-2.718
  0
VERTEX
  8
7
  10
9.986
  20
-2.718
  0
VERTEX
  8
7
  10
9.706
  20
-2.718
  0
VERTEX
  8
7
  10
9.401
  20
-2.718
  0
VERTEX
  8
7
  10
9.122
  20
-2.718
  0
VERTEX
  8
7
  10
8.944
  20
-2.693
  0
VERTEX
  8
7
  10
8.868
  20
-2.693
  0
VERTEX
  8
7
  10
8.766
  20
-2.566
  0
VERTEX
  8
7
  10
8.486
  20
-2.210
  0
VERTEX
  8
7
  10
8.105
  20
-1.727
  0
VERTEX
  8
7
  10
7.673
  20
-1.168
  0
VERTEX
  8
7
  10
7.241
  20
-0.584
  0
VERTEX
  8
7
  10
6.860
  20
-0.101
  0
VERTEX
  8
7
  10
6.581
  20
0.254
  0
VERTEX
  8
7
  10
6.479
  20
0.406
  0
VERTEX
  8
7
  10
6.428
  20
0.406
  0
VERTEX
  8
7
  10
6.276
  20
0.381
  0
VERTEX
  8
7
  10
6.072
  20
0.381
  0
VERTEX
  8
7
  10
5.844
  20
0.381
  0
VERTEX
  8
7
  10
5.615
  20
0.381
  0
VERTEX
  8
7
  10
5.412
  20
0.381
  0
VERTEX
  8
7
  10
5.259
  20
0.406
  0
VERTEX
  8
7
  10
5.209
  20
0.406
  0
VERTEX
  8
7
  10
5.158
  20
0.304
  0
VERTEX
  8
7
  10
5.005
  20
0.050
  0
VERTEX
  8
7
  10
4.802
  20
-0.304
  0
VERTEX
  8
7
  10
4.573
  20
-0.711
  0
VERTEX
  8
7
  10
4.345
  20
-1.092
  0
VERTEX
  8
7
  10
4.141
  20
-1.448
  0
VERTEX
  8
7
  10
3.989
  20
-1.702
  0
VERTEX
  8
7
  10
3.938
  20
-1.778
  0
VERTEX
  8
7
  10
3.786
  20
-1.931
  0
VERTEX
  8
7
  10
3.328
  20
-2.337
  0
VERTEX
  8
7
  10
2.718
  20
-2.896
  0
VERTEX
  8
7
  10
2.032
  20
-3.557
  0
VERTEX
  8
7
  10
1.321
  20
-4.192
  0
VERTEX
  8
7
  10
0.711
  20
-4.751
  0
VERTEX
  8
7
  10
0.254
  20
-5.132
  0
VERTEX
  8
7
  10
0.101
  20
-5.285
  0
VERTEX
  8
7
  10
0.000
  20
-5.386
  0
VERTEX
  8
7
  10
-0.254
  20
-5.641
  0
VERTEX
  8
7
  10
-0.609
  20
-5.996
  0
VERTEX
  8
7
  10
-0.990
  20
-6.403
  0
VERTEX
  8
7
  10
-1.397
  20
-6.784
  0
VERTEX
  8
7
  10
-1.753
  20
-7.140
  0
VERTEX
  8
7
  10
-2.007
  20
-7.394
  0
VERTEX
  8
7
  10
-2.109
  20
-7.470
  0
VERTEX
  8
7
  10
-2.261
  20
-7.445
  0
VERTEX
  8
7
  10
-2.642
  20
-7.394
  0
VERTEX
  8
7
  10
-3.201
  20
-7.318
  0
VERTEX
  8
7
  10
-3.836
  20
-7.216
  0
VERTEX
  8
7
  10
-4.472
  20
-7.114
  0
VERTEX
  8
7
  10
-5.031
  20
-7.038
  0
VERTEX
  8
7
  10
-5.412
  20
-6.962
  0
VERTEX
  8
7
  10
-5.564
  20
-6.936
  0
VERTEX
  8
7
  10
-5.615
  20
-6.936
  0
VERTEX
  8
7
  10
-5.742
  20
-6.886
  0
VERTEX
  8
7
  10
-5.945
  20
-6.835
  0
VERTEX
  8
7
  10
-6.225
  20
-6.759
  0
VERTEX
  8
7
  10
-6.555
  20
-6.657
  0
VERTEX
  8
7
  10
-6.911
  20
-6.555
  0
VERTEX
  8
7
  10
-7.292
  20
-6.428
  0
VERTEX
  8
7
  10
-7.673
  20
-6.301
  0
VERTEX
  8
7
  10
-8.054
  20
-6.174
  0
VERTEX
  8
7
  10
-8.436
  20
-6.072
  0
VERTEX
  8
7
  10
-8.791
  20
-5.945
  0
VERTEX
  8
7
  10
-9.122
  20
-5.869
  0
VERTEX
  8
7
  10
-9.401
  20
-5.768
  0
VERTEX
  8
7
  10
-9.604
  20
-5.717
  0
VERTEX
  8
7
  10
-9.732
  20
-5.666
  0
VERTEX
  8
7
  10
-9.782
  20
-5.641
  0
VERTEX
  8
7
  10
-9.859
  20
-5.666
  0
VERTEX
  8
7
  10
-10.087
  20
-5.691
  0
VERTEX
  8
7
  10
-10.418
  20
-5.717
  0
VERTEX
  8
7
  10
-10.773
  20
-5.742
  0
VERTEX
  8
7
  10
-11.154
  20
-5.768
  0
VERTEX
  8
7
  10
-11.485
  20
-5.793
  0
VERTEX
  8
7
  10
-11.714
  20
-5.818
  0
VERTEX
  8
7
  10
-11.790
  20
-5.818
  0
VERTEX
  8
7
  10
-11.866
  20
-5.793
  0
VERTEX
  8
7
  10
-12.095
  20
-5.742
  0
VERTEX
  8
7
  10
-12.425
  20
-5.666
  0
VERTEX
  8
7
  10
-12.781
  20
-5.564
  0
VERTEX
  8
7
  10
-13.162
  20
-5.463
  0
VERTEX
  8
7
  10
-13.492
  20
-5.386
  0
VERTEX
  8
7
  10
-13.721
  20
-5.310
  0
VERTEX
  8
7
  10
-13.797
  20
-5.285
  0
VERTEX
  8
7
  10
-13.848
  20
-5.259
  0
VERTEX
  8
7
  10
-14.000
  20
-5.158
  0
VERTEX
  8
7
  10
-14.204
  20
-5.005
  0
VERTEX
  8
7
  10
-14.432
  20
-4.827
  0
VERTEX
  8
7
  10
-14.661
  20
-4.650
  0
VERTEX
  8
7
  10
-14.864
  20
-4.497
  0
VERTEX
  8
7
  10
-15.017
  20
-4.395
  0
VERTEX
  8
7
  10
-15.068
  20
-4.345
  0
VERTEX
  8
7
  10
-15.144
  20
-4.091
  0
VERTEX
  8
7
  10
-15.322
  20
-3.404
  0
VERTEX
  8
7
  10
-15.601
  20
-2.439
  0
VERTEX
  8
7
  10
-15.881
  20
-1.346
  0
VERTEX
  8
7
  10
-16.186
  20
-0.228
  0
VERTEX
  8
7
  10
-16.465
  20
0.736
  0
VERTEX
  8
7
  10
-16.643
  20
1.422
  0
VERTEX
  8
7
  10
-16.719
  20
1.702
  0
VERTEX
  8
7
  10
-16.770
  20
1.677
  0
VERTEX
  8
7
  10
-16.948
  20
1.626
  0
VERTEX
  8
7
  10
-17.177
  20
1.575
  0
VERTEX
  8
7
  10
-17.431
  20
1.499
  0
VERTEX
  8
7
  10
-17.685
  20
1.448
  0
VERTEX
  8
7
  10
-17.914
  20
1.397
  0
VERTEX
  8
7
  10
-18.066
  20
1.346
  0
VERTEX
  8
7
  10
-18.117
  20
1.346
  0
VERTEX
  8
7
  10
-18.193
  20
1.346
  0
VERTEX
  8
7
  10
-18.346
  20
1.372
  0
VERTEX
  8
7
  10
-18.549
  20
1.397
  0
VERTEX
  8
7
  10
-18.777
  20
1.422
  0
VERTEX
  8
7
  10
-19.032
  20
1.448
  0
VERTEX
  8
7
  10
-19.235
  20
1.473
  0
VERTEX
  8
7
  10
-19.362
  20
1.499
  0
VERTEX
  8
7
  10
-19.413
  20
1.524
  0
VERTEX
  8
7
  10
-19.514
  20
1.702
  0
VERTEX
  8
7
  10
-19.692
  20
2.134
  0
VERTEX
  8
7
  10
-19.870
  20
2.591
  0
VERTEX
  8
7
  10
-19.946
  20
2.795
  0
VERTEX
  8
7
  10
-20.023
  20
2.769
  0
VERTEX
  8
7
  10
-20.226
  20
2.693
  0
VERTEX
  8
7
  10
-20.480
  20
2.617
  0
VERTEX
  8
7
  10
-20.785
  20
2.515
  0
VERTEX
  8
7
  10
-21.090
  20
2.413
  0
VERTEX
  8
7
  10
-21.344
  20
2.337
  0
VERTEX
  8
7
  10
-21.547
  20
2.286
  0
VERTEX
  8
7
  10
-21.598
  20
2.261
  0
VERTEX
  8
7
  10
-21.649
  20
2.236
  0
VERTEX
  8
7
  10
-21.750
  20
2.159
  0
VERTEX
  8
7
  10
-21.903
  20
2.058
  0
VERTEX
  8
7
  10
-22.081
  20
1.956
  0
VERTEX
  8
7
  10
-22.233
  20
1.854
  0
VERTEX
  8
7
  10
-22.386
  20
1.778
  0
VERTEX
  8
7
  10
-22.487
  20
1.727
  0
VERTEX
  8
7
  10
-22.513
  20
1.702
  0
VERTEX
  8
7
  10
-22.589
  20
1.753
  0
VERTEX
  8
7
  10
-22.741
  20
1.956
  0
VERTEX
  8
7
  10
-22.996
  20
2.210
  0
VERTEX
  8
7
  10
-23.250
  20
2.515
  0
VERTEX
  8
7
  10
-23.529
  20
2.820
  0
VERTEX
  8
7
  10
-23.758
  20
3.074
  0
VERTEX
  8
7
  10
-23.910
  20
3.277
  0
VERTEX
  8
7
  10
-23.961
  20
3.354
  0
VERTEX
  8
7
  10
-24.012
  20
3.277
  0
VERTEX
  8
7
  10
-24.088
  20
3.074
  0
VERTEX
  8
7
  10
-24.215
  20
2.820
  0
VERTEX
  8
7
  10
-24.342
  20
2.515
  0
VERTEX
  8
7
  10
-24.495
  20
2.210
  0
VERTEX
  8
7
  10
-24.596
  20
1.956
  0
VERTEX
  8
7
  10
-24.673
  20
1.753
  0
VERTEX
  8
7
  10
-24.698
  20
1.702
  0
VERTEX
  8
7
  10
-24.749
  20
1.626
  0
VERTEX
  8
7
  10
-24.850
  20
1.473
  0
VERTEX
  8
7
  10
-25.003
  20
1.270
  0
VERTEX
  8
7
  10
-25.181
  20
1.041
  0
VERTEX
  8
7
  10
-25.333
  20
0.787
  0
VERTEX
  8
7
  10
-25.486
  20
0.584
  0
VERTEX
  8
7
  10
-25.587
  20
0.457
  0
VERTEX
  8
7
  10
-25.613
  20
0.406
  0
VERTEX
  8
7
  10
-25.664
  20
0.355
  0
VERTEX
  8
7
  10
-25.816
  20
0.254
  0
VERTEX
  8
7
  10
-26.045
  20
0.101
  0
VERTEX
  8
7
  10
-26.273
  20
-0.076
  0
VERTEX
  8
7
  10
-26.502
  20
-0.228
  0
VERTEX
  8
7
  10
-26.705
  20
-0.381
  0
VERTEX
  8
7
  10
-26.832
  20
-0.482
  0
VERTEX
  8
7
  10
-26.883
  20
-0.508
  0
VERTEX
  8
7
  10
-26.934
  20
-0.482
  0
VERTEX
  8
7
  10
-27.036
  20
-0.381
  0
VERTEX
  8
7
  10
-27.188
  20
-0.228
  0
VERTEX
  8
7
  10
-27.366
  20
-0.076
  0
VERTEX
  8
7
  10
-27.519
  20
0.101
  0
VERTEX
  8
7
  10
-27.671
  20
0.254
  0
VERTEX
  8
7
  10
-27.773
  20
0.355
  0
VERTEX
  8
7
  10
-27.798
  20
0.406
  0
VERTEX
  8
7
  10
-27.874
  20
0.381
  0
VERTEX
  8
7
  10
-28.078
  20
0.304
  0
VERTEX
  8
7
  10
-28.332
  20
0.228
  0
VERTEX
  8
7
  10
-28.637
  20
0.127
  0
VERTEX
  8
7
  10
-28.941
  20
0.025
  0
VERTEX
  8
7
  10
-29.196
  20
-0.050
  0
VERTEX
  8
7
  10
-29.399
  20
-0.101
  0
VERTEX
  8
7
  10
-29.450
  20
-0.127
  0
VERTEX
  8
7
  10
-29.501
  20
-0.101
  0
VERTEX
  8
7
  10
-29.653
  20
-0.050
  0
VERTEX
  8
7
  10
-29.882
  20
0.025
  0
VERTEX
  8
7
  10
-30.110
  20
0.127
  0
VERTEX
  8
7
  10
-30.339
  20
0.228
  0
VERTEX
  8
7
  10
-30.542
  20
0.304
  0
VERTEX
  8
7
  10
-30.669
  20
0.381
  0
VERTEX
  8
7
  10
-30.720
  20
0.406
  0
VERTEX
  8
7
  10
-30.796
  20
0.406
  0
VERTEX
  8
7
  10
-30.949
  20
0.381
  0
VERTEX
  8
7
  10
-31.152
  20
0.381
  0
VERTEX
  8
7
  10
-31.381
  20
0.381
  0
VERTEX
  8
7
  10
-31.635
  20
0.381
  0
VERTEX
  8
7
  10
-31.838
  20
0.381
  0
VERTEX
  8
7
  10
-31.965
  20
0.406
  0
VERTEX
  8
7
  10
-32.016
  20
0.406
  0
VERTEX
  8
7
  10
-32.118
  20
0.381
  0
VERTEX
  8
7
  10
-32.372
  20
0.330
  0
VERTEX
  8
7
  10
-32.728
  20
0.279
  0
VERTEX
  8
7
  10
-33.134
  20
0.203
  0
VERTEX
  8
7
  10
-33.515
  20
0.152
  0
VERTEX
  8
7
  10
-33.871
  20
0.101
  0
VERTEX
  8
7
  10
-34.125
  20
0.050
  0
VERTEX
  8
7
  10
-34.201
  20
0.050
  0
VERTEX
  8
7
  10
-34.252
  20
0.101
  0
VERTEX
  8
7
  10
-34.379
  20
0.228
  0
VERTEX
  8
7
  10
-34.557
  20
0.431
  0
VERTEX
  8
7
  10
-34.760
  20
0.686
  0
VERTEX
  8
7
  10
-34.964
  20
0.914
  0
VERTEX
  8
7
  10
-35.142
  20
1.118
  0
VERTEX
  8
7
  10
-35.243
  20
1.270
  0
VERTEX
  8
7
  10
-35.294
  20
1.346
  0
VERTEX
  8
7
  10
-35.370
  20
1.321
  0
VERTEX
  8
7
  10
-35.599
  20
1.270
  0
VERTEX
  8
7
  10
-35.878
  20
1.219
  0
VERTEX
  8
7
  10
-36.234
  20
1.143
  0
VERTEX
  8
7
  10
-36.564
  20
1.067
  0
VERTEX
  8
7
  10
-36.844
  20
1.016
  0
VERTEX
  8
7
  10
-37.047
  20
0.965
  0
VERTEX
  8
7
  10
-37.124
  20
0.965
  0
VERTEX
  8
7
  10
-37.174
  20
1.321
  0
VERTEX
  8
7
  10
-37.276
  20
2.312
  0
VERTEX
  8
7
  10
-37.428
  20
3.684
  0
VERTEX
  8
7
  10
-37.606
  20
5.259
  0
VERTEX
  8
7
  10
-37.759
  20
6.860
  0
VERTEX
  8
7
  10
-37.911
  20
8.232
  0
VERTEX
  8
7
  10
-38.013
  20
9.223
  0
VERTEX
  8
7
  10
-38.038
  20
9.604
  0
VERTEX
  8
7
  10
-37.911
  20
10.011
  0
VERTEX
  8
7
  10
-37.530
  20
11.104
  0
VERTEX
  8
7
  10
-37.022
  20
12.654
  0
VERTEX
  8
7
  10
-36.412
  20
14.458
  0
VERTEX
  8
7
  10
-35.828
  20
16.236
  0
VERTEX
  8
7
  10
-35.294
  20
17.812
  0
VERTEX
  8
7
  10
-34.913
  20
18.905
  0
VERTEX
  8
7
  10
-34.760
  20
19.337
  0
VERTEX
  8
7
  10
-34.837
  20
19.743
  0
VERTEX
  8
7
  10
-34.964
  20
20.683
  0
VERTEX
  8
7
  10
-35.065
  20
21.649
  0
VERTEX
  8
7
  10
-35.116
  20
22.081
  0
VERTEX
  8
7
  10
-35.014
  20
22.386
  0
VERTEX
  8
7
  10
-34.735
  20
23.199
  0
VERTEX
  8
7
  10
-34.328
  20
24.342
  0
VERTEX
  8
7
  10
-33.846
  20
25.638
  0
VERTEX
  8
7
  10
-33.388
  20
26.960
  0
VERTEX
  8
7
  10
-32.956
  20
28.103
  0
VERTEX
  8
7
  10
-32.677
  20
28.941
  0
VERTEX
  8
7
  10
-32.550
  20
29.246
  0
VERTEX
  8
7
  10
-32.423
  20
29.373
  0
VERTEX
  8
7
  10
-32.118
  20
29.704
  0
VERTEX
  8
7
  10
-31.635
  20
30.161
  0
VERTEX
  8
7
  10
-31.101
  20
30.695
  0
VERTEX
  8
7
  10
-30.568
  20
31.254
  0
VERTEX
  8
7
  10
-30.110
  20
31.711
  0
VERTEX
  8
7
  10
-29.755
  20
32.067
  0
VERTEX
  8
7
  10
-29.628
  20
32.194
  0
VERTEX
  8
7
  10
-29.501
  20
32.245
  0
VERTEX
  8
7
  10
-29.119
  20
32.448
  0
VERTEX
  8
7
  10
-28.611
  20
32.702
  0
VERTEX
  8
7
  10
-28.001
  20
33.007
  0
VERTEX
  8
7
  10
-27.417
  20
33.312
  0
VERTEX
  8
7
  10
-26.883
  20
33.566
  0
VERTEX
  8
7
  10
-26.502
  20
33.769
  0
VERTEX
  8
7
  10
-26.350
  20
33.846
  0
VERTEX
  8
7
  10
-26.324
  20
34.227
  0
VERTEX
  8
7
  10
-26.273
  20
35.116
  0
VERTEX
  8
7
  10
-26.223
  20
36.005
  0
VERTEX
  8
7
  10
-26.172
  20
36.412
  0
VERTEX
  8
7
  10
-26.096
  20
36.488
  0
VERTEX
  8
7
  10
-25.867
  20
36.666
  0
VERTEX
  8
7
  10
-25.511
  20
36.971
  0
VERTEX
  8
7
  10
-25.054
  20
37.378
  0
VERTEX
  8
7
  10
-24.495
  20
37.835
  0
VERTEX
  8
7
  10
-23.885
  20
38.369
  0
VERTEX
  8
7
  10
-23.224
  20
38.928
  0
VERTEX
  8
7
  10
-22.538
  20
39.512
  0
VERTEX
  8
7
  10
-21.852
  20
40.096
  0
VERTEX
  8
7
  10
-21.191
  20
40.656
  0
VERTEX
  8
7
  10
-20.556
  20
41.189
  0
VERTEX
  8
7
  10
-20.023
  20
41.672
  0
VERTEX
  8
7
  10
-19.540
  20
42.078
  0
VERTEX
  8
7
  10
-19.184
  20
42.383
  0
VERTEX
  8
7
  10
-18.930
  20
42.587
  0
VERTEX
  8
7
  10
-18.854
  20
42.663
  0
VERTEX
  8
7
  10
-19.032
  20
42.587
  0
VERTEX
  8
7
  10
-19.489
  20
42.434
  0
VERTEX
  8
7
  10
-20.150
  20
42.231
  0
VERTEX
  8
7
  10
-20.887
  20
42.002
  0
VERTEX
  8
7
  10
-21.623
  20
41.748
  0
VERTEX
  8
7
  10
-22.259
  20
41.545
  0
VERTEX
  8
7
  10
-22.716
  20
41.418
  0
VERTEX
  8
7
  10
-22.868
  20
41.367
  0
VERTEX
  8
7
  10
-23.021
  20
41.291
  0
VERTEX
  8
7
  10
-23.428
  20
41.062
  0
VERTEX
  8
7
  10
-23.987
  20
40.783
  0
VERTEX
  8
7
  10
-24.622
  20
40.427
  0
VERTEX
  8
7
  10
-25.257
  20
40.096
  0
VERTEX
  8
7
  10
-25.816
  20
39.817
  0
VERTEX
  8
7
  10
-26.197
  20
39.614
  0
VERTEX
  8
7
  10
-26.350
  20
39.537
  0
VERTEX
  8
7
  10
-26.477
  20
39.563
  0
VERTEX
  8
7
  10
-26.756
  20
39.665
  0
VERTEX
  8
7
  10
-27.188
  20
39.817
  0
VERTEX
  8
7
  10
-27.646
  20
39.969
  0
VERTEX
  8
7
  10
-28.128
  20
40.147
  0
VERTEX
  8
7
  10
-28.535
  20
40.300
  0
VERTEX
  8
7
  10
-28.814
  20
40.401
  0
VERTEX
  8
7
  10
-28.916
  20
40.452
  0
VERTEX
  8
7
  10
-29.094
  20
40.452
  0
VERTEX
  8
7
  10
-29.526
  20
40.503
  0
VERTEX
  8
7
  10
-30.136
  20
40.554
  0
VERTEX
  8
7
  10
-30.847
  20
40.630
  0
VERTEX
  8
7
  10
-31.559
  20
40.706
  0
VERTEX
  8
7
  10
-32.169
  20
40.757
  0
VERTEX
  8
7
  10
-32.601
  20
40.808
  0
VERTEX
  8
7
  10
-32.753
  20
40.833
  0
VERTEX
  8
7
  10
-32.829
  20
41.011
  0
VERTEX
  8
7
  10
-32.956
  20
41.443
  0
VERTEX
  8
7
  10
-33.058
  20
41.901
  0
VERTEX
  8
7
  10
-33.109
  20
42.104
  0
VERTEX
  8
7
  10
-33.007
  20
42.206
  0
VERTEX
  8
7
  10
-32.753
  20
42.510
  0
VERTEX
  8
7
  10
-32.372
  20
42.968
  0
VERTEX
  8
7
  10
-31.940
  20
43.476
  0
VERTEX
  8
7
  10
-31.482
  20
43.984
  0
VERTEX
  8
7
  10
-31.101
  20
44.416
  0
VERTEX
  8
7
  10
-30.822
  20
44.747
  0
VERTEX
  8
7
  10
-30.720
  20
44.874
  0
VERTEX
  8
7
  10
-30.669
  20
44.899
  0
VERTEX
  8
7
  10
-30.542
  20
45.001
  0
VERTEX
  8
7
  10
-30.314
  20
45.178
  0
VERTEX
  8
7
  10
-30.034
  20
45.382
  0
VERTEX
  8
7
  10
-29.678
  20
45.636
  0
VERTEX
  8
7
  10
-29.297
  20
45.890
  0
VERTEX
  8
7
  10
-28.891
  20
46.195
  0
VERTEX
  8
7
  10
-28.459
  20
46.500
  0
VERTEX
  8
7
  10
-28.052
  20
46.805
  0
VERTEX
  8
7
  10
-27.620
  20
47.110
  0
VERTEX
  8
7
  10
-27.239
  20
47.389
  0
VERTEX
  8
7
  10
-26.909
  20
47.643
  0
VERTEX
  8
7
  10
-26.604
  20
47.872
  0
VERTEX
  8
7
  10
-26.375
  20
48.024
  0
VERTEX
  8
7
  10
-26.223
  20
48.126
  0
VERTEX
  8
7
  10
-26.172
  20
48.177
  0
VERTEX
  8
7
  10
-26.121
  20
48.177
  0
VERTEX
  8
7
  10
-26.019
  20
48.151
  0
VERTEX
  8
7
  10
-25.841
  20
48.151
  0
VERTEX
  8
7
  10
-25.638
  20
48.151
  0
VERTEX
  8
7
  10
-25.435
  20
48.151
  0
VERTEX
  8
7
  10
-25.257
  20
48.151
  0
VERTEX
  8
7
  10
-25.130
  20
48.177
  0
VERTEX
  8
7
  10
-25.079
  20
48.177
  0
VERTEX
  8
7
  10
-25.155
  20
48.863
  0
VERTEX
  8
7
  10
-25.282
  20
50.438
  0
VERTEX
  8
7
  10
-25.384
  20
51.988
  0
VERTEX
  8
7
  10
-25.435
  20
52.700
  0
VERTEX
  8
7
  10
-25.486
  20
52.903
  0
VERTEX
  8
7
  10
-25.638
  20
53.411
  0
VERTEX
  8
7
  10
-25.867
  20
54.148
  0
VERTEX
  8
7
  10
-26.096
  20
55.012
  0
VERTEX
  8
7
  10
-26.324
  20
55.851
  0
VERTEX
  8
7
  10
-26.528
  20
56.588
  0
VERTEX
  8
7
  10
-26.655
  20
57.096
  0
VERTEX
  8
7
  10
-26.705
  20
57.299
  0
VERTEX
  8
7
  10
-26.680
  20
57.502
  0
VERTEX
  8
7
  10
-26.578
  20
58.061
  0
VERTEX
  8
7
  10
-26.426
  20
58.874
  0
VERTEX
  8
7
  10
-26.273
  20
59.789
  0
VERTEX
  8
7
  10
-26.096
  20
60.679
  0
VERTEX
  8
7
  10
-25.943
  20
61.492
  0
VERTEX
  8
7
  10
-25.841
  20
62.051
  0
VERTEX
  8
7
  10
-25.791
  20
62.254
  0
VERTEX
  8
7
  10
-25.664
  20
62.178
  0
VERTEX
  8
7
  10
-25.359
  20
62.000
  0
VERTEX
  8
7
  10
-24.876
  20
61.720
  0
VERTEX
  8
7
  10
-24.342
  20
61.441
  0
VERTEX
  8
7
  10
-23.809
  20
61.136
  0
VERTEX
  8
7
  10
-23.351
  20
60.856
  0
VERTEX
  8
7
  10
-22.996
  20
60.679
  0
VERTEX
  8
7
  10
-22.868
  20
60.602
  0
VERTEX
  8
7
  10
-22.741
  20
60.501
  0
VERTEX
  8
7
  10
-22.437
  20
60.196
  0
VERTEX
  8
7
  10
-21.954
  20
59.789
  0
VERTEX
  8
7
  10
-21.420
  20
59.332
  0
VERTEX
  8
7
  10
-20.887
  20
58.849
  0
VERTEX
  8
7
  10
-20.429
  20
58.443
  0
VERTEX
  8
7
  10
-20.073
  20
58.138
  0
VERTEX
  8
7
  10
-19.946
  20
58.036
  0
VERTEX
  8
7
  10
-19.819
  20
57.934
  0
VERTEX
  8
7
  10
-19.514
  20
57.629
  0
VERTEX
  8
7
  10
-19.057
  20
57.223
  0
VERTEX
  8
7
  10
-18.523
  20
56.765
  0
VERTEX
  8
7
  10
-17.990
  20
56.283
  0
VERTEX
  8
7
  10
-17.532
  20
55.876
  0
VERTEX
  8
7
  10
-17.202
  20
55.571
  0
VERTEX
  8
7
  10
-17.075
  20
55.470
  0
VERTEX
  8
7
  10
-17.126
  20
54.504
  0
VERTEX
  8
7
  10
-17.202
  20
52.420
  0
VERTEX
  8
7
  10
-17.202
  20
50.388
  0
VERTEX
  8
7
  10
-17.075
  20
49.600
  0
SEQEND
  0
POLYLINE
  8
7
  6
CONTINUOUS
 66
  1
  0
VERTEX
  8
7
  10
-27.493
  20
44.086
  0
VERTEX
  8
7
  10
-22.386
  20
44.442
  0
SEQEND
  0
POLYLINE
  8
7
  6
CONTINUOUS
 66
  1
  0
VERTEX
  8
7
  10
-23.097
  20
53.640
  0
VERTEX
  8
7
  10
-22.386
  20
50.311
  0
SEQEND
  0
POLYLINE
  8
7
  6
CONTINUOUS
 66
  1
  0
VERTEX
  8
7
  10
4.294
  20
55.088
  0
VERTEX
  8
7
  10
4.853
  20
57.680
  0
VERTEX
  8
7
  10
8.868
  20
57.680
  0
VERTEX
  8
7
  10
4.294
  20
55.088
  0
SEQEND
  0
POLYLINE
  8
7
  6
CONTINUOUS
 66
  1
  0
VERTEX
  8
7
  10
-17.456
  20
49.397
  0
VERTEX
  8
7
  10
-13.975
  20
44.467
  0
VERTEX
  8
7
  10
-10.316
  20
41.926
  0
VERTEX
  8
7
  10
-10.138
  20
41.824
  0
VERTEX
  8
7
  10
-9.681
  20
41.545
  0
VERTEX
  8
7
  10
-9.045
  20
41.164
  0
VERTEX
  8
7
  10
-8.309
  20
40.706
  0
VERTEX
  8
7
  10
-7.572
  20
40.274
  0
VERTEX
  8
7
  10
-6.936
  20
39.893
  0
VERTEX
  8
7
  10
-6.479
  20
39.639
  0
VERTEX
  8
7
  10
-6.301
  20
39.537
  0
VERTEX
  8
7
  10
-6.225
  20
39.512
  0
VERTEX
  8
7
  10
-6.022
  20
39.436
  0
VERTEX
  8
7
  10
-5.717
  20
39.334
  0
VERTEX
  8
7
  10
-5.336
  20
39.207
  0
VERTEX
  8
7
  10
-4.853
  20
39.055
  0
VERTEX
  8
7
  10
-4.319
  20
38.877
  0
VERTEX
  8
7
  10
-3.760
  20
38.699
  0
VERTEX
  8
7
  10
-3.176
  20
38.521
  0
VERTEX
  8
7
  10
-2.617
  20
38.318
  0
VERTEX
  8
7
  10
-2.058
  20
38.140
  0
VERTEX
  8
7
  10
-1.524
  20
37.987
  0
VERTEX
  8
7
  10
-1.041
  20
37.835
  0
VERTEX
  8
7
  10
-0.660
  20
37.708
  0
VERTEX
  8
7
  10
-0.355
  20
37.606
  0
VERTEX
  8
7
  10
-0.152
  20
37.555
  0
VERTEX
  8
7
  10
-0.076
  20
37.530
  0
VERTEX
  8
7
  10
-0.025
  20
37.530
  0
VERTEX
  8
7
  10
0.127
  20
37.505
  0
VERTEX
  8
7
  10
0.355
  20
37.505
  0
VERTEX
  8
7
  10
0.635
  20
37.479
  0
VERTEX
  8
7
  10
0.990
  20
37.479
  0
VERTEX
  8
7
  10
1.372
  20
37.454
  0
VERTEX
  8
7
  10
1.778
  20
37.428
  0
VERTEX
  8
7
  10
2.210
  20
37.403
  0
VERTEX
  8
7
  10
2.617
  20
37.403
  0
VERTEX
  8
7
  10
3.023
  20
37.378
  0
VERTEX
  8
7
  10
3.404
  20
37.352
  0
VERTEX
  8
7
  10
3.760
  20
37.352
  0
VERTEX
  8
7
  10
4.040
  20
37.327
  0
VERTEX
  8
7
  10
4.268
  20
37.327
  0
VERTEX
  8
7
  10
4.421
  20
37.327
  0
VERTEX
  8
7
  10
4.472
  20
37.327
  0
VERTEX
  8
7
  10
4.421
  20
37.251
  0
VERTEX
  8
7
  10
4.294
  20
37.098
  0
VERTEX
  8
7
  10
4.065
  20
36.819
  0
VERTEX
  8
7
  10
3.786
  20
36.488
  0
VERTEX
  8
7
  10
3.455
  20
36.082
  0
VERTEX
  8
7
  10
3.100
  20
35.624
  0
VERTEX
  8
7
  10
2.693
  20
35.142
  0
VERTEX
  8
7
  10
2.286
  20
34.659
  0
VERTEX
  8
7
  10
1.880
  20
34.151
  0
VERTEX
  8
7
  10
1.473
  20
33.668
  0
VERTEX
  8
7
  10
1.118
  20
33.236
  0
VERTEX
  8
7
  10
0.787
  20
32.829
  0
VERTEX
  8
7
  10
0.508
  20
32.499
  0
VERTEX
  8
7
  10
0.279
  20
32.245
  0
VERTEX
  8
7
  10
0.152
  20
32.067
  0
VERTEX
  8
7
  10
0.101
  20
32.016
  0
VERTEX
  8
7
  10
0.050
  20
31.965
  0
VERTEX
  8
7
  10
-0.101
  20
31.813
  0
VERTEX
  8
7
  10
-0.355
  20
31.610
  0
VERTEX
  8
7
  10
-0.660
  20
31.330
  0
VERTEX
  8
7
  10
-1.041
  20
31.025
  0
VERTEX
  8
7
  10
-1.448
  20
30.644
  0
VERTEX
  8
7
  10
-1.905
  20
30.263
  0
VERTEX
  8
7
  10
-2.363
  20
29.882
  0
VERTEX
  8
7
  10
-2.820
  20
29.475
  0
VERTEX
  8
7
  10
-3.277
  20
29.094
  0
VERTEX
  8
7
  10
-3.684
  20
28.738
  0
VERTEX
  8
7
  10
-4.065
  20
28.433
  0
VERTEX
  8
7
  10
-4.370
  20
28.154
  0
VERTEX
  8
7
  10
-4.624
  20
27.951
  0
VERTEX
  8
7
  10
-4.777
  20
27.823
  0
VERTEX
  8
7
  10
-4.827
  20
27.773
  0
VERTEX
  8
7
  10
-4.904
  20
27.849
  0
VERTEX
  8
7
  10
-5.107
  20
28.128
  0
VERTEX
  8
7
  10
-5.412
  20
28.535
  0
VERTEX
  8
7
  10
-5.818
  20
29.043
  0
VERTEX
  8
7
  10
-6.301
  20
29.678
  0
VERTEX
  8
7
  10
-6.860
  20
30.364
  0
VERTEX
  8
7
  10
-7.419
  20
31.127
  0
VERTEX
  8
7
  10
-8.029
  20
31.889
  0
VERTEX
  8
7
  10
-8.639
  20
32.677
  0
VERTEX
  8
7
  10
-9.198
  20
33.414
  0
VERTEX
  8
7
  10
-9.757
  20
34.125
  0
VERTEX
  8
7
  10
-10.240
  20
34.760
  0
VERTEX
  8
7
  10
-10.646
  20
35.269
  0
VERTEX
  8
7
  10
-10.951
  20
35.701
  0
VERTEX
  8
7
  10
-11.154
  20
35.955
  0
VERTEX
  8
7
  10
-11.231
  20
36.056
  0
VERTEX
  8
7
  10
-11.383
  20
36.209
  0
VERTEX
  8
7
  10
-11.739
  20
36.590
  0
VERTEX
  8
7
  10
-12.273
  20
37.149
  0
VERTEX
  8
7
  10
-12.882
  20
37.784
  0
VERTEX
  8
7
  10
-13.492
  20
38.419
  0
VERTEX
  8
7
  10
-14.026
  20
38.978
  0
VERTEX
  8
7
  10
-14.382
  20
39.385
  0
VERTEX
  8
7
  10
-14.534
  20
39.537
  0
VERTEX
  8
7
  10
-14.585
  20
39.563
  0
VERTEX
  8
7
  10
-14.712
  20
39.665
  0
VERTEX
  8
7
  10
-14.941
  20
39.817
  0
VERTEX
  8
7
  10
-15.220
  20
40.020
  0
VERTEX
  8
7
  10
-15.550
  20
40.249
  0
VERTEX
  8
7
  10
-15.906
  20
40.503
  0
VERTEX
  8
7
  10
-16.313
  20
40.783
  0
VERTEX
  8
7
  10
-16.694
  20
41.087
  0
VERTEX
  8
7
  10
-17.100
  20
41.367
  0
VERTEX
  8
7
  10
-17.507
  20
41.646
  0
VERTEX
  8
7
  10
-17.863
  20
41.926
  0
VERTEX
  8
7
  10
-18.193
  20
42.155
  0
VERTEX
  8
7
  10
-18.473
  20
42.358
  0
VERTEX
  8
7
  10
-18.701
  20
42.510
  0
VERTEX
  8
7
  10
-18.828
  20
42.612
  0
VERTEX
  8
7
  10
-18.879
  20
42.637
  0
SEQEND
  0
ENDSEC
  0
EOF
