  0
SECTION
  2
HEADER
  9
$EXTMIN
 10
0.000000
 20
0.000000
  9
$EXTMAX
 10
20.994709
 20
29.634921
  9
$LTSCALE
 40
0.529101
  9
$PDMODE
 70
    35
  9
$PDSIZE
 40
0.423280
  0
ENDSEC
  0
SECTION
  2
TABLES
  0
TABLE
  2
LTYPE
 70
     9
  0
LTYPE
  2
CONTINUOUS
 70
    64
  3
Solid line
 72
    65
 73
     0
 40
0.000000
  0
LTYPE
  2
DASHED
 70
    64
  3
__ __ __ __ __ __ __ __ __ __ __ __ __ __ __
 72
    65
 73
     2
 40
0.003968
 49
0.002646
 49
-0.001323
  0
LTYPE
  2
HIDDEN
 70
    64
  3
 _ _ _ _ _ _ _ _ _ _ _ _ _ _ _ _ _ _ _ _ _ _
 72
    65
 73
     2
 40
0.001984
 49
0.001323
 49
-0.000661
  0
LTYPE
  2
CENTER
 70
    64
  3
____ _ ____ _ ____ _ ____ _ ____ _ ____ _ ____
 72
    65
 73
     4
 40
0.010582
 49
0.006614
 49
-0.001323
 49
0.001323
 49
-0.001323
  0
LTYPE
  2
PHANTOM
 70
    64
  3
_____ _ _ _____ _ _ _____ _ _ _____ _ _ ____
 72
    65
 73
     6
 40
0.013228
 49
0.006614
 49
-0.001323
 49
0.001323
 49
-0.001323
 49
0.001323
 49
-0.001323
  0
LTYPE
  2
DOT
 70
    64
  3
...............................................
 72
    65
 73
     2
 40
0.001323
 49
0.000000
 49
-0.001323
  0
LTYPE
  2
DASHDOT
 70
    64
  3
__ . __ . __ . __ . __ . __ . __ . __ . __ . __
 72
    65
 73
     4
 40
0.005291
 49
0.002646
 49
-0.001323
 49
0.000000
 49
-0.001323
  0
LTYPE
  2
BORDER
 70
    64
  3
__ __ . __ __ . __ __ . __ __ . __ __ . __ __
 72
    65
 73
     6
 40
0.009259
 49
0.002646
 49
-0.001323
 49
0.002646
 49
-0.001323
 49
0.000000
 49
-0.001323
  0
LTYPE
  2
DIVIDE
 70
    64
  3
__ . . __ . . __ . . __ . . __ . . __ . . __
 72
    65
 73
     6
 40
0.006614
 49
0.002646
 49
-0.001323
 49
0.000000
 49
-0.001323
 49
0.000000
 49
-0.001323
  0
LTYPE
  2
DOTDOT
 70
    64
  3
 . .  . .  . .  . .  . .  . . 
 72
    65
 73
     5
 40
0.002910
 49
-0.001323
 49
0.000000
 49
-0.001323
 49
0.000000
 49
-0.001323
  0
ENDTAB
  0
TABLE
  2
STYLE
 70
     2
  0
STYLE
 70
     0
  2
SN0
 40
0.000000
 41
0.005291
 50
0.000000
 71
     0
 42
0.000000
  3
ROMANS
  0
STYLE
 70
    68
  2
SV0
 40
0.000000
 41
0.005291
 50
0.000000
 71
     0
 42
0.000000
  3
ROMANS
  0
ENDTAB
  0
TABLE
  2
LAYER
 70
     3
  0
LAYER
  2
FOREGROUND
 70
    64
 62
     7
  6
CONTINUOUS
  0
LAYER
  2
BACKGROUND
 70
    65
 62
    -7
  6
CONTINUOUS
  0
LAYER
  2
COUCHE1
 70
    64
 62
     7
  6
CONTINUOUS
  0
ENDTAB
  0
ENDSEC
  0
SECTION
  2
ENTITIES
  0
LINE
  8
COUCHE1
  6
CONTINUOUS
 10
10.682540
 20
13.994709
 11
12.629630
 21
13.994709
  0
POLYLINE
  8
COUCHE1
  6
CONTINUOUS
 66
     1
 40
0.000000
 41
0.000000
  0
VERTEX
  8
COUCHE1
  6
CONTINUOUS
 10
12.629630
 20
13.994709
  0
VERTEX
  8
COUCHE1
  6
CONTINUOUS
 10
12.682540
 20
14.005291
  0
VERTEX
  8
COUCHE1
  6
CONTINUOUS
 10
12.735450
 20
14.015873
  0
VERTEX
  8
COUCHE1
  6
CONTINUOUS
 10
12.783069
 20
14.031746
  0
VERTEX
  8
COUCHE1
  6
CONTINUOUS
 10
12.825397
 20
14.052910
  0
VERTEX
  8
COUCHE1
  6
CONTINUOUS
 10
12.862434
 20
14.074074
  0
VERTEX
  8
COUCHE1
  6
CONTINUOUS
 10
12.894180
 20
14.095238
  0
VERTEX
  8
COUCHE1
  6
CONTINUOUS
 10
12.920635
 20
14.121693
  0
VERTEX
  8
COUCHE1
  6
CONTINUOUS
 10
12.947090
 20
14.153439
  0
VERTEX
  8
COUCHE1
  6
CONTINUOUS
 10
12.962963
 20
14.179894
  0
VERTEX
  8
COUCHE1
  6
CONTINUOUS
 10
12.973545
 20
14.216931
  0
VERTEX
  8
COUCHE1
  6
CONTINUOUS
 10
12.984127
 20
14.248677
  0
VERTEX
  8
COUCHE1
  6
CONTINUOUS
 10
12.984127
 20
14.285714
  0
VERTEX
  8
COUCHE1
  6
CONTINUOUS
 10
12.984127
 20
14.328042
  0
VERTEX
  8
COUCHE1
  6
CONTINUOUS
 10
12.973545
 20
14.370370
  0
VERTEX
  8
COUCHE1
  6
CONTINUOUS
 10
12.962963
 20
14.417989
  0
VERTEX
  8
COUCHE1
  6
CONTINUOUS
 10
12.947090
 20
14.465608
  0
SEQEND
  8
0
  0
LINE
  8
COUCHE1
  6
CONTINUOUS
 10
12.968254
 20
14.465608
 11
12.650794
 21
15.179894
  0
POLYLINE
  8
COUCHE1
  6
CONTINUOUS
 66
     1
 40
0.000000
 41
0.000000
  0
VERTEX
  8
COUCHE1
  6
CONTINUOUS
 10
12.650794
 20
15.179894
  0
VERTEX
  8
COUCHE1
  6
CONTINUOUS
 10
12.629630
 20
15.227513
  0
VERTEX
  8
COUCHE1
  6
CONTINUOUS
 10
12.603175
 20
15.275132
  0
VERTEX
  8
COUCHE1
  6
CONTINUOUS
 10
12.582011
 20
15.322751
  0
VERTEX
  8
COUCHE1
  6
CONTINUOUS
 10
12.550265
 20
15.365079
  0
VERTEX
  8
COUCHE1
  6
CONTINUOUS
 10
12.523810
 20
15.402116
  0
VERTEX
  8
COUCHE1
  6
CONTINUOUS
 10
12.486772
 20
15.433862
  0
VERTEX
  8
COUCHE1
  6
CONTINUOUS
 10
12.455026
 20
15.465608
  0
VERTEX
  8
COUCHE1
  6
CONTINUOUS
 10
12.417989
 20
15.492063
  0
VERTEX
  8
COUCHE1
  6
CONTINUOUS
 10
12.375661
 20
15.513228
  0
VERTEX
  8
COUCHE1
  6
CONTINUOUS
 10
12.333333
 20
15.529101
  0
VERTEX
  8
COUCHE1
  6
CONTINUOUS
 10
12.285714
 20
15.544974
  0
VERTEX
  8
COUCHE1
  6
CONTINUOUS
 10
12.238095
 20
15.560847
  0
VERTEX
  8
COUCHE1
  6
CONTINUOUS
 10
12.185185
 20
15.566138
  0
VERTEX
  8
COUCHE1
  6
CONTINUOUS
 10
12.132275
 20
15.571429
  0
VERTEX
  8
COUCHE1
  6
CONTINUOUS
 10
12.079365
 20
15.571429
  0
VERTEX
  8
COUCHE1
  6
CONTINUOUS
 10
12.021164
 20
15.571429
  0
SEQEND
  8
0
  0
LINE
  8
COUCHE1
  6
CONTINUOUS
 10
12.021164
 20
15.571429
 11
8.708995
 21
15.571429
  0
POLYLINE
  8
COUCHE1
  6
CONTINUOUS
 66
     1
 40
0.000000
 41
0.000000
  0
VERTEX
  8
COUCHE1
  6
CONTINUOUS
 10
8.708995
 20
15.571429
  0
VERTEX
  8
COUCHE1
  6
CONTINUOUS
 10
8.666667
 20
15.560847
  0
VERTEX
  8
COUCHE1
  6
CONTINUOUS
 10
8.629630
 20
15.555556
  0
VERTEX
  8
COUCHE1
  6
CONTINUOUS
 10
8.597884
 20
15.550265
  0
VERTEX
  8
COUCHE1
  6
CONTINUOUS
 10
8.566138
 20
15.539683
  0
VERTEX
  8
COUCHE1
  6
CONTINUOUS
 10
8.539683
 20
15.529101
  0
VERTEX
  8
COUCHE1
  6
CONTINUOUS
 10
8.513228
 20
15.518519
  0
VERTEX
  8
COUCHE1
  6
CONTINUOUS
 10
8.486772
 20
15.502646
  0
VERTEX
  8
COUCHE1
  6
CONTINUOUS
 10
8.470899
 20
15.492063
  0
VERTEX
  8
COUCHE1
  6
CONTINUOUS
 10
8.449735
 20
15.476190
  0
VERTEX
  8
COUCHE1
  6
CONTINUOUS
 10
8.433862
 20
15.455026
  0
VERTEX
  8
COUCHE1
  6
CONTINUOUS
 10
8.423280
 20
15.439153
  0
VERTEX
  8
COUCHE1
  6
CONTINUOUS
 10
8.412698
 20
15.417989
  0
VERTEX
  8
COUCHE1
  6
CONTINUOUS
 10
8.402116
 20
15.402116
  0
VERTEX
  8
COUCHE1
  6
CONTINUOUS
 10
8.396825
 20
15.375661
  0
VERTEX
  8
COUCHE1
  6
CONTINUOUS
 10
8.396825
 20
15.354497
  0
VERTEX
  8
COUCHE1
  6
CONTINUOUS
 10
8.396825
 20
15.333333
  0
SEQEND
  8
0
  0
POLYLINE
  8
COUCHE1
  6
CONTINUOUS
 66
     1
 40
0.000000
 41
0.000000
  0
VERTEX
  8
COUCHE1
  6
CONTINUOUS
 10
8.396825
 20
15.333333
  0
VERTEX
  8
COUCHE1
  6
CONTINUOUS
 10
8.396825
 20
15.312169
  0
VERTEX
  8
COUCHE1
  6
CONTINUOUS
 10
8.396825
 20
15.291005
  0
VERTEX
  8
COUCHE1
  6
CONTINUOUS
 10
8.402116
 20
15.275132
  0
VERTEX
  8
COUCHE1
  6
CONTINUOUS
 10
8.412698
 20
15.253968
  0
VERTEX
  8
COUCHE1
  6
CONTINUOUS
 10
8.423280
 20
15.232804
  0
VERTEX
  8
COUCHE1
  6
CONTINUOUS
 10
8.433862
 20
15.216931
  0
VERTEX
  8
COUCHE1
  6
CONTINUOUS
 10
8.449735
 20
15.195767
  0
VERTEX
  8
COUCHE1
  6
CONTINUOUS
 10
8.470899
 20
15.179894
  0
VERTEX
  8
COUCHE1
  6
CONTINUOUS
 10
8.486772
 20
15.158730
  0
VERTEX
  8
COUCHE1
  6
CONTINUOUS
 10
8.513228
 20
15.137566
  0
VERTEX
  8
COUCHE1
  6
CONTINUOUS
 10
8.539683
 20
15.116402
  0
VERTEX
  8
COUCHE1
  6
CONTINUOUS
 10
8.566138
 20
15.100529
  0
VERTEX
  8
COUCHE1
  6
CONTINUOUS
 10
8.597884
 20
15.079365
  0
VERTEX
  8
COUCHE1
  6
CONTINUOUS
 10
8.629630
 20
15.058201
  0
VERTEX
  8
COUCHE1
  6
CONTINUOUS
 10
8.666667
 20
15.037037
  0
VERTEX
  8
COUCHE1
  6
CONTINUOUS
 10
8.708995
 20
15.021164
  0
SEQEND
  8
0
  0
LINE
  8
COUCHE1
  6
CONTINUOUS
 10
8.708995
 20
15.021164
 11
10.227513
 21
14.465608
  0
POLYLINE
  8
COUCHE1
  6
CONTINUOUS
 66
     1
 40
0.000000
 41
0.000000
  0
VERTEX
  8
COUCHE1
  6
CONTINUOUS
 10
10.227513
 20
14.465608
  0
VERTEX
  8
COUCHE1
  6
CONTINUOUS
 10
10.238095
 20
14.417989
  0
VERTEX
  8
COUCHE1
  6
CONTINUOUS
 10
10.248677
 20
14.370370
  0
VERTEX
  8
COUCHE1
  6
CONTINUOUS
 10
10.264550
 20
14.328042
  0
VERTEX
  8
COUCHE1
  6
CONTINUOUS
 10
10.285714
 20
14.285714
  0
VERTEX
  8
COUCHE1
  6
CONTINUOUS
 10
10.306878
 20
14.248677
  0
VERTEX
  8
COUCHE1
  6
CONTINUOUS
 10
10.328042
 20
14.216931
  0
VERTEX
  8
COUCHE1
  6
CONTINUOUS
 10
10.354497
 20
14.179894
  0
VERTEX
  8
COUCHE1
  6
CONTINUOUS
 10
10.386243
 20
14.153439
  0
VERTEX
  8
COUCHE1
  6
CONTINUOUS
 10
10.412698
 20
14.121693
  0
VERTEX
  8
COUCHE1
  6
CONTINUOUS
 10
10.449735
 20
14.095238
  0
VERTEX
  8
COUCHE1
  6
CONTINUOUS
 10
10.481481
 20
14.074074
  0
VERTEX
  8
COUCHE1
  6
CONTINUOUS
 10
10.523810
 20
14.052910
  0
VERTEX
  8
COUCHE1
  6
CONTINUOUS
 10
10.560847
 20
14.031746
  0
VERTEX
  8
COUCHE1
  6
CONTINUOUS
 10
10.608466
 20
14.015873
  0
VERTEX
  8
COUCHE1
  6
CONTINUOUS
 10
10.650794
 20
14.005291
  0
VERTEX
  8
COUCHE1
  6
CONTINUOUS
 10
10.703704
 20
13.994709
  0
SEQEND
  8
0
  0
POLYLINE
  8
COUCHE1
  6
CONTINUOUS
 66
     1
 40
0.000000
 41
0.000000
  0
VERTEX
  8
COUCHE1
  6
CONTINUOUS
 10
11.105820
 20
15.412698
  0
VERTEX
  8
COUCHE1
  6
CONTINUOUS
 10
11.476190
 20
15.412698
  0
VERTEX
  8
COUCHE1
  6
CONTINUOUS
 10
11.476190
 20
14.857143
  0
VERTEX
  8
COUCHE1
  6
CONTINUOUS
 10
11.105820
 20
14.857143
  0
VERTEX
  8
COUCHE1
  6
CONTINUOUS
 10
11.105820
 20
15.412698
  0
SEQEND
  8
0
  0
POLYLINE
  8
COUCHE1
  6
CONTINUOUS
 66
     1
 40
0.000000
 41
0.000000
  0
VERTEX
  8
COUCHE1
  6
CONTINUOUS
 10
11.650794
 20
15.412698
  0
VERTEX
  8
COUCHE1
  6
CONTINUOUS
 10
12.021164
 20
15.412698
  0
VERTEX
  8
COUCHE1
  6
CONTINUOUS
 10
12.021164
 20
14.857143
  0
VERTEX
  8
COUCHE1
  6
CONTINUOUS
 10
11.650794
 20
14.857143
  0
VERTEX
  8
COUCHE1
  6
CONTINUOUS
 10
11.650794
 20
15.412698
  0
SEQEND
  8
0
  0
POLYLINE
  8
COUCHE1
  6
CONTINUOUS
 66
     1
 40
0.000000
 41
0.000000
  0
VERTEX
  8
COUCHE1
  6
CONTINUOUS
 10
12.179894
 20
15.412698
  0
VERTEX
  8
COUCHE1
  6
CONTINUOUS
 10
12.211640
 20
15.402116
  0
VERTEX
  8
COUCHE1
  6
CONTINUOUS
 10
12.243386
 20
15.396825
  0
VERTEX
  8
COUCHE1
  6
CONTINUOUS
 10
12.275132
 20
15.380952
  0
VERTEX
  8
COUCHE1
  6
CONTINUOUS
 10
12.301587
 20
15.365079
  0
VERTEX
  8
COUCHE1
  6
CONTINUOUS
 10
12.333333
 20
15.343915
  0
VERTEX
  8
COUCHE1
  6
CONTINUOUS
 10
12.359788
 20
15.317460
  0
VERTEX
  8
COUCHE1
  6
CONTINUOUS
 10
12.386243
 20
15.291005
  0
VERTEX
  8
COUCHE1
  6
CONTINUOUS
 10
12.412698
 20
15.259259
  0
VERTEX
  8
COUCHE1
  6
CONTINUOUS
 10
12.433862
 20
15.222222
  0
VERTEX
  8
COUCHE1
  6
CONTINUOUS
 10
12.455026
 20
15.179894
  0
VERTEX
  8
COUCHE1
  6
CONTINUOUS
 10
12.476190
 20
15.137566
  0
VERTEX
  8
COUCHE1
  6
CONTINUOUS
 10
12.497354
 20
15.089947
  0
VERTEX
  8
COUCHE1
  6
CONTINUOUS
 10
12.518519
 20
15.037037
  0
VERTEX
  8
COUCHE1
  6
CONTINUOUS
 10
12.534392
 20
14.984127
  0
VERTEX
  8
COUCHE1
  6
CONTINUOUS
 10
12.555556
 20
14.920635
  0
VERTEX
  8
COUCHE1
  6
CONTINUOUS
 10
12.571429
 20
14.862434
  0
SEQEND
  8
0
  0
POLYLINE
  8
COUCHE1
  6
CONTINUOUS
 66
     1
 40
0.000000
 41
0.000000
  0
VERTEX
  8
COUCHE1
  6
CONTINUOUS
 10
12.571429
 20
14.862434
  0
VERTEX
  8
COUCHE1
  6
CONTINUOUS
 10
12.179894
 20
14.862434
  0
VERTEX
  8
COUCHE1
  6
CONTINUOUS
 10
12.179894
 20
15.412698
  0
SEQEND
  8
0
  0
POLYLINE
  8
COUCHE1
  6
CONTINUOUS
 66
     1
 40
0.000000
 41
0.000000
  0
VERTEX
  8
COUCHE1
  6
CONTINUOUS
 10
8.936508
 20
15.338080
  0
VERTEX
  8
COUCHE1
  6
CONTINUOUS
 10
8.874069
 20
15.123633
  0
VERTEX
  8
COUCHE1
  6
CONTINUOUS
 10
8.707151
 20
14.977439
  0
VERTEX
  8
COUCHE1
  6
CONTINUOUS
 10
8.488745
 20
14.945913
  0
VERTEX
  8
COUCHE1
  6
CONTINUOUS
 10
8.288191
 20
15.039063
  0
VERTEX
  8
COUCHE1
  6
CONTINUOUS
 10
8.169159
 20
15.227316
  0
VERTEX
  8
COUCHE1
  6
CONTINUOUS
 10
8.169438
 20
15.450906
  0
VERTEX
  8
COUCHE1
  6
CONTINUOUS
 10
8.288940
 20
15.638850
  0
VERTEX
  8
COUCHE1
  6
CONTINUOUS
 10
8.489727
 20
15.731480
  0
VERTEX
  8
COUCHE1
  6
CONTINUOUS
 10
8.708053
 20
15.699388
  0
VERTEX
  8
COUCHE1
  6
CONTINUOUS
 10
8.874605
 20
15.552763
  0
VERTEX
  8
COUCHE1
  6
CONTINUOUS
 10
8.936508
 20
15.338154
  0
VERTEX
  8
COUCHE1
  6
CONTINUOUS
 10
8.936508
 20
15.338080
  0
SEQEND
  0
POLYLINE
  8
COUCHE1
  6
CONTINUOUS
 66
     1
 40
0.000000
 41
0.000000
  0
VERTEX
  8
COUCHE1
  6
CONTINUOUS
 10
9.100529
 20
15.337870
  0
VERTEX
  8
COUCHE1
  6
CONTINUOUS
 10
9.012773
 20
15.040502
  0
VERTEX
  8
COUCHE1
  6
CONTINUOUS
 10
8.778183
 20
14.837781
  0
VERTEX
  8
COUCHE1
  6
CONTINUOUS
 10
8.471235
 20
14.794065
  0
VERTEX
  8
COUCHE1
  6
CONTINUOUS
 10
8.189376
 20
14.923232
  0
VERTEX
  8
COUCHE1
  6
CONTINUOUS
 10
8.022091
 20
15.184276
  0
VERTEX
  8
COUCHE1
  6
CONTINUOUS
 10
8.022487
 20
15.494322
  0
VERTEX
  8
COUCHE1
  6
CONTINUOUS
 10
8.190439
 20
15.754938
  0
VERTEX
  8
COUCHE1
  6
CONTINUOUS
 10
8.472627
 20
15.883384
  0
VERTEX
  8
COUCHE1
  6
CONTINUOUS
 10
8.779463
 20
15.838884
  0
VERTEX
  8
COUCHE1
  6
CONTINUOUS
 10
9.013534
 20
15.635563
  0
VERTEX
  8
COUCHE1
  6
CONTINUOUS
 10
9.100529
 20
15.337972
  0
VERTEX
  8
COUCHE1
  6
CONTINUOUS
 10
9.100529
 20
15.337870
  0
SEQEND
  0
POLYLINE
  8
COUCHE1
  6
CONTINUOUS
 66
     1
 40
0.000000
 41
0.000000
  0
VERTEX
  8
COUCHE1
  6
CONTINUOUS
 10
10.306878
 20
15.973545
  0
VERTEX
  8
COUCHE1
  6
CONTINUOUS
 10
10.322751
 20
15.973545
  0
VERTEX
  8
COUCHE1
  6
CONTINUOUS
 10
10.343915
 20
15.973545
  0
VERTEX
  8
COUCHE1
  6
CONTINUOUS
 10
10.370370
 20
15.978836
  0
VERTEX
  8
COUCHE1
  6
CONTINUOUS
 10
10.391534
 20
15.984127
  0
VERTEX
  8
COUCHE1
  6
CONTINUOUS
 10
10.412698
 20
15.994709
  0
VERTEX
  8
COUCHE1
  6
CONTINUOUS
 10
10.428571
 20
16.005291
  0
VERTEX
  8
COUCHE1
  6
CONTINUOUS
 10
10.444444
 20
16.026455
  0
VERTEX
  8
COUCHE1
  6
CONTINUOUS
 10
10.449735
 20
16.052910
  0
SEQEND
  8
0
  0
POLYLINE
  8
COUCHE1
  6
CONTINUOUS
 66
     1
 40
0.000000
 41
0.000000
  0
VERTEX
  8
COUCHE1
  6
CONTINUOUS
 10
10.449735
 20
16.052910
  0
VERTEX
  8
COUCHE1
  6
CONTINUOUS
 10
10.444444
 20
16.074074
  0
VERTEX
  8
COUCHE1
  6
CONTINUOUS
 10
10.428571
 20
16.095238
  0
VERTEX
  8
COUCHE1
  6
CONTINUOUS
 10
10.412698
 20
16.105820
  0
VERTEX
  8
COUCHE1
  6
CONTINUOUS
 10
10.391534
 20
16.116402
  0
VERTEX
  8
COUCHE1
  6
CONTINUOUS
 10
10.370370
 20
16.121693
  0
VERTEX
  8
COUCHE1
  6
CONTINUOUS
 10
10.343915
 20
16.126984
  0
VERTEX
  8
COUCHE1
  6
CONTINUOUS
 10
10.322751
 20
16.126984
  0
VERTEX
  8
COUCHE1
  6
CONTINUOUS
 10
10.306878
 20
16.132275
  0
SEQEND
  8
0
  0
POLYLINE
  8
COUCHE1
  6
CONTINUOUS
 66
     1
 40
0.000000
 41
0.000000
  0
VERTEX
  8
COUCHE1
  6
CONTINUOUS
 10
10.306878
 20
16.132275
  0
VERTEX
  8
COUCHE1
  6
CONTINUOUS
 10
10.243386
 20
16.132275
  0
VERTEX
  8
COUCHE1
  6
CONTINUOUS
 10
10.084656
 20
16.132275
  0
VERTEX
  8
COUCHE1
  6
CONTINUOUS
 10
9.862434
 20
16.132275
  0
VERTEX
  8
COUCHE1
  6
CONTINUOUS
 10
9.608466
 20
16.132275
  0
VERTEX
  8
COUCHE1
  6
CONTINUOUS
 10
9.354497
 20
16.132275
  0
VERTEX
  8
COUCHE1
  6
CONTINUOUS
 10
9.132275
 20
16.132275
  0
VERTEX
  8
COUCHE1
  6
CONTINUOUS
 10
8.973545
 20
16.132275
  0
VERTEX
  8
COUCHE1
  6
CONTINUOUS
 10
8.915344
 20
16.132275
  0
SEQEND
  8
0
  0
POLYLINE
  8
COUCHE1
  6
CONTINUOUS
 66
     1
 40
0.000000
 41
0.000000
  0
VERTEX
  8
COUCHE1
  6
CONTINUOUS
 10
8.915344
 20
16.132275
  0
VERTEX
  8
COUCHE1
  6
CONTINUOUS
 10
8.894180
 20
16.126984
  0
VERTEX
  8
COUCHE1
  6
CONTINUOUS
 10
8.867725
 20
16.126984
  0
VERTEX
  8
COUCHE1
  6
CONTINUOUS
 10
8.846561
 20
16.121693
  0
VERTEX
  8
COUCHE1
  6
CONTINUOUS
 10
8.825397
 20
16.116402
  0
VERTEX
  8
COUCHE1
  6
CONTINUOUS
 10
8.804233
 20
16.105820
  0
VERTEX
  8
COUCHE1
  6
CONTINUOUS
 10
8.783069
 20
16.095238
  0
VERTEX
  8
COUCHE1
  6
CONTINUOUS
 10
8.772487
 20
16.074074
  0
VERTEX
  8
COUCHE1
  6
CONTINUOUS
 10
8.772487
 20
16.052910
  0
SEQEND
  8
0
  0
POLYLINE
  8
COUCHE1
  6
CONTINUOUS
 66
     1
 40
0.000000
 41
0.000000
  0
VERTEX
  8
COUCHE1
  6
CONTINUOUS
 10
8.772487
 20
16.052910
  0
VERTEX
  8
COUCHE1
  6
CONTINUOUS
 10
8.772487
 20
16.026455
  0
VERTEX
  8
COUCHE1
  6
CONTINUOUS
 10
8.783069
 20
16.005291
  0
VERTEX
  8
COUCHE1
  6
CONTINUOUS
 10
8.798942
 20
15.994709
  0
VERTEX
  8
COUCHE1
  6
CONTINUOUS
 10
8.820106
 20
15.984127
  0
VERTEX
  8
COUCHE1
  6
CONTINUOUS
 10
8.846561
 20
15.978836
  0
VERTEX
  8
COUCHE1
  6
CONTINUOUS
 10
8.867725
 20
15.973545
  0
VERTEX
  8
COUCHE1
  6
CONTINUOUS
 10
8.894180
 20
15.973545
  0
VERTEX
  8
COUCHE1
  6
CONTINUOUS
 10
8.915344
 20
15.973545
  0
SEQEND
  8
0
  0
POLYLINE
  8
COUCHE1
  6
CONTINUOUS
 66
     1
 40
0.000000
 41
0.000000
  0
VERTEX
  8
COUCHE1
  6
CONTINUOUS
 10
8.915344
 20
15.973545
  0
VERTEX
  8
COUCHE1
  6
CONTINUOUS
 10
8.973545
 20
15.973545
  0
VERTEX
  8
COUCHE1
  6
CONTINUOUS
 10
9.132275
 20
15.973545
  0
VERTEX
  8
COUCHE1
  6
CONTINUOUS
 10
9.354497
 20
15.973545
  0
VERTEX
  8
COUCHE1
  6
CONTINUOUS
 10
9.608466
 20
15.973545
  0
VERTEX
  8
COUCHE1
  6
CONTINUOUS
 10
9.862434
 20
15.973545
  0
VERTEX
  8
COUCHE1
  6
CONTINUOUS
 10
10.084656
 20
15.973545
  0
VERTEX
  8
COUCHE1
  6
CONTINUOUS
 10
10.243386
 20
15.973545
  0
VERTEX
  8
COUCHE1
  6
CONTINUOUS
 10
10.306878
 20
15.973545
  0
SEQEND
  8
0
  0
POLYLINE
  8
COUCHE1
  6
CONTINUOUS
 66
     1
 40
0.000000
 41
0.000000
  0
VERTEX
  8
COUCHE1
  6
CONTINUOUS
 10
12.904762
 20
15.973545
  0
VERTEX
  8
COUCHE1
  6
CONTINUOUS
 10
12.920635
 20
15.973545
  0
VERTEX
  8
COUCHE1
  6
CONTINUOUS
 10
12.947090
 20
15.973545
  0
VERTEX
  8
COUCHE1
  6
CONTINUOUS
 10
12.968254
 20
15.978836
  0
VERTEX
  8
COUCHE1
  6
CONTINUOUS
 10
12.994709
 20
15.984127
  0
VERTEX
  8
COUCHE1
  6
CONTINUOUS
 10
13.015873
 20
15.994709
  0
VERTEX
  8
COUCHE1
  6
CONTINUOUS
 10
13.031746
 20
16.005291
  0
VERTEX
  8
COUCHE1
  6
CONTINUOUS
 10
13.047619
 20
16.026455
  0
VERTEX
  8
COUCHE1
  6
CONTINUOUS
 10
13.052910
 20
16.052910
  0
SEQEND
  8
0
  0
POLYLINE
  8
COUCHE1
  6
CONTINUOUS
 66
     1
 40
0.000000
 41
0.000000
  0
VERTEX
  8
COUCHE1
  6
CONTINUOUS
 10
13.052910
 20
16.052910
  0
VERTEX
  8
COUCHE1
  6
CONTINUOUS
 10
13.047619
 20
16.074074
  0
VERTEX
  8
COUCHE1
  6
CONTINUOUS
 10
13.031746
 20
16.095238
  0
VERTEX
  8
COUCHE1
  6
CONTINUOUS
 10
13.015873
 20
16.105820
  0
VERTEX
  8
COUCHE1
  6
CONTINUOUS
 10
12.994709
 20
16.116402
  0
VERTEX
  8
COUCHE1
  6
CONTINUOUS
 10
12.968254
 20
16.121693
  0
VERTEX
  8
COUCHE1
  6
CONTINUOUS
 10
12.947090
 20
16.126984
  0
VERTEX
  8
COUCHE1
  6
CONTINUOUS
 10
12.920635
 20
16.126984
  0
VERTEX
  8
COUCHE1
  6
CONTINUOUS
 10
12.904762
 20
16.132275
  0
SEQEND
  8
0
  0
POLYLINE
  8
COUCHE1
  6
CONTINUOUS
 66
     1
 40
0.000000
 41
0.000000
  0
VERTEX
  8
COUCHE1
  6
CONTINUOUS
 10
12.904762
 20
16.132275
  0
VERTEX
  8
COUCHE1
  6
CONTINUOUS
 10
12.841270
 20
16.132275
  0
VERTEX
  8
COUCHE1
  6
CONTINUOUS
 10
12.682540
 20
16.132275
  0
VERTEX
  8
COUCHE1
  6
CONTINUOUS
 10
12.460317
 20
16.132275
  0
VERTEX
  8
COUCHE1
  6
CONTINUOUS
 10
12.206349
 20
16.132275
  0
VERTEX
  8
COUCHE1
  6
CONTINUOUS
 10
11.952381
 20
16.132275
  0
VERTEX
  8
COUCHE1
  6
CONTINUOUS
 10
11.730159
 20
16.132275
  0
VERTEX
  8
COUCHE1
  6
CONTINUOUS
 10
11.571429
 20
16.132275
  0
VERTEX
  8
COUCHE1
  6
CONTINUOUS
 10
11.513228
 20
16.132275
  0
SEQEND
  8
0
  0
POLYLINE
  8
COUCHE1
  6
CONTINUOUS
 66
     1
 40
0.000000
 41
0.000000
  0
VERTEX
  8
COUCHE1
  6
CONTINUOUS
 10
11.513228
 20
16.132275
  0
VERTEX
  8
COUCHE1
  6
CONTINUOUS
 10
11.492063
 20
16.126984
  0
VERTEX
  8
COUCHE1
  6
CONTINUOUS
 10
11.465608
 20
16.126984
  0
VERTEX
  8
COUCHE1
  6
CONTINUOUS
 10
11.444444
 20
16.121693
  0
VERTEX
  8
COUCHE1
  6
CONTINUOUS
 10
11.423280
 20
16.116402
  0
VERTEX
  8
COUCHE1
  6
CONTINUOUS
 10
11.402116
 20
16.105820
  0
VERTEX
  8
COUCHE1
  6
CONTINUOUS
 10
11.380952
 20
16.095238
  0
VERTEX
  8
COUCHE1
  6
CONTINUOUS
 10
11.370370
 20
16.074074
  0
VERTEX
  8
COUCHE1
  6
CONTINUOUS
 10
11.370370
 20
16.052910
  0
SEQEND
  8
0
  0
POLYLINE
  8
COUCHE1
  6
CONTINUOUS
 66
     1
 40
0.000000
 41
0.000000
  0
VERTEX
  8
COUCHE1
  6
CONTINUOUS
 10
11.370370
 20
16.052910
  0
VERTEX
  8
COUCHE1
  6
CONTINUOUS
 10
11.370370
 20
16.026455
  0
VERTEX
  8
COUCHE1
  6
CONTINUOUS
 10
11.380952
 20
16.005291
  0
VERTEX
  8
COUCHE1
  6
CONTINUOUS
 10
11.396825
 20
15.994709
  0
VERTEX
  8
COUCHE1
  6
CONTINUOUS
 10
11.417989
 20
15.984127
  0
VERTEX
  8
COUCHE1
  6
CONTINUOUS
 10
11.444444
 20
15.978836
  0
VERTEX
  8
COUCHE1
  6
CONTINUOUS
 10
11.465608
 20
15.973545
  0
VERTEX
  8
COUCHE1
  6
CONTINUOUS
 10
11.492063
 20
15.973545
  0
VERTEX
  8
COUCHE1
  6
CONTINUOUS
 10
11.513228
 20
15.973545
  0
SEQEND
  8
0
  0
POLYLINE
  8
COUCHE1
  6
CONTINUOUS
 66
     1
 40
0.000000
 41
0.000000
  0
VERTEX
  8
COUCHE1
  6
CONTINUOUS
 10
11.513228
 20
15.973545
  0
VERTEX
  8
COUCHE1
  6
CONTINUOUS
 10
11.571429
 20
15.973545
  0
VERTEX
  8
COUCHE1
  6
CONTINUOUS
 10
11.730159
 20
15.973545
  0
VERTEX
  8
COUCHE1
  6
CONTINUOUS
 10
11.952381
 20
15.973545
  0
VERTEX
  8
COUCHE1
  6
CONTINUOUS
 10
12.206349
 20
15.973545
  0
VERTEX
  8
COUCHE1
  6
CONTINUOUS
 10
12.460317
 20
15.973545
  0
VERTEX
  8
COUCHE1
  6
CONTINUOUS
 10
12.682540
 20
15.973545
  0
VERTEX
  8
COUCHE1
  6
CONTINUOUS
 10
12.841270
 20
15.973545
  0
VERTEX
  8
COUCHE1
  6
CONTINUOUS
 10
12.904762
 20
15.973545
  0
SEQEND
  8
0
  0
POLYLINE
  8
COUCHE1
  6
CONTINUOUS
 66
     1
 40
0.000000
 41
0.000000
  0
VERTEX
  8
COUCHE1
  6
CONTINUOUS
 10
10.396825
 20
16.079365
  0
VERTEX
  8
COUCHE1
  6
CONTINUOUS
 10
11.455026
 20
16.079365
  0
VERTEX
  8
COUCHE1
  6
CONTINUOUS
 10
11.455026
 20
16.010582
  0
VERTEX
  8
COUCHE1
  6
CONTINUOUS
 10
11.063492
 20
16.010582
  0
VERTEX
  8
COUCHE1
  6
CONTINUOUS
 10
11.063492
 20
15.497354
  0
VERTEX
  8
COUCHE1
  6
CONTINUOUS
 10
10.857143
 20
15.497354
  0
VERTEX
  8
COUCHE1
  6
CONTINUOUS
 10
10.857143
 20
16.010582
  0
VERTEX
  8
COUCHE1
  6
CONTINUOUS
 10
10.396825
 20
16.010582
  0
VERTEX
  8
COUCHE1
  6
CONTINUOUS
 10
10.396825
 20
16.079365
  0
SEQEND
  8
0
  0
POLYLINE
  8
COUCHE1
  6
CONTINUOUS
 66
     1
 40
0.000000
 41
0.000000
  0
VERTEX
  8
COUCHE1
  6
CONTINUOUS
 10
12.730159
 20
13.417989
  0
VERTEX
  8
COUCHE1
  6
CONTINUOUS
 10
12.756614
 20
13.417989
  0
VERTEX
  8
COUCHE1
  6
CONTINUOUS
 10
12.788360
 20
13.423280
  0
VERTEX
  8
COUCHE1
  6
CONTINUOUS
 10
12.825397
 20
13.433862
  0
VERTEX
  8
COUCHE1
  6
CONTINUOUS
 10
12.862434
 20
13.449735
  0
VERTEX
  8
COUCHE1
  6
CONTINUOUS
 10
12.894180
 20
13.470899
  0
VERTEX
  8
COUCHE1
  6
CONTINUOUS
 10
12.920635
 20
13.502646
  0
VERTEX
  8
COUCHE1
  6
CONTINUOUS
 10
12.936508
 20
13.550265
  0
VERTEX
  8
COUCHE1
  6
CONTINUOUS
 10
12.947090
 20
13.608466
  0
SEQEND
  8
0
  0
POLYLINE
  8
COUCHE1
  6
CONTINUOUS
 66
     1
 40
0.000000
 41
0.000000
  0
VERTEX
  8
COUCHE1
  6
CONTINUOUS
 10
12.947090
 20
13.608466
  0
VERTEX
  8
COUCHE1
  6
CONTINUOUS
 10
12.936508
 20
13.661376
  0
VERTEX
  8
COUCHE1
  6
CONTINUOUS
 10
12.920635
 20
13.708995
  0
VERTEX
  8
COUCHE1
  6
CONTINUOUS
 10
12.894180
 20
13.740741
  0
VERTEX
  8
COUCHE1
  6
CONTINUOUS
 10
12.862434
 20
13.767196
  0
VERTEX
  8
COUCHE1
  6
CONTINUOUS
 10
12.825397
 20
13.777778
  0
VERTEX
  8
COUCHE1
  6
CONTINUOUS
 10
12.788360
 20
13.788360
  0
VERTEX
  8
COUCHE1
  6
CONTINUOUS
 10
12.756614
 20
13.793651
  0
VERTEX
  8
COUCHE1
  6
CONTINUOUS
 10
12.730159
 20
13.798942
  0
SEQEND
  8
0
  0
POLYLINE
  8
COUCHE1
  6
CONTINUOUS
 66
     1
 40
0.000000
 41
0.000000
  0
VERTEX
  8
COUCHE1
  6
CONTINUOUS
 10
12.730159
 20
13.798942
  0
VERTEX
  8
COUCHE1
  6
CONTINUOUS
 10
12.640212
 20
13.798942
  0
VERTEX
  8
COUCHE1
  6
CONTINUOUS
 10
12.402116
 20
13.798942
  0
VERTEX
  8
COUCHE1
  6
CONTINUOUS
 10
12.068783
 20
13.798942
  0
VERTEX
  8
COUCHE1
  6
CONTINUOUS
 10
11.682540
 20
13.798942
  0
VERTEX
  8
COUCHE1
  6
CONTINUOUS
 10
11.296296
 20
13.798942
  0
VERTEX
  8
COUCHE1
  6
CONTINUOUS
 10
10.962963
 20
13.798942
  0
VERTEX
  8
COUCHE1
  6
CONTINUOUS
 10
10.724868
 20
13.798942
  0
VERTEX
  8
COUCHE1
  6
CONTINUOUS
 10
10.640212
 20
13.798942
  0
SEQEND
  8
0
  0
POLYLINE
  8
COUCHE1
  6
CONTINUOUS
 66
     1
 40
0.000000
 41
0.000000
  0
VERTEX
  8
COUCHE1
  6
CONTINUOUS
 10
10.640212
 20
13.798942
  0
VERTEX
  8
COUCHE1
  6
CONTINUOUS
 10
10.608466
 20
13.793651
  0
VERTEX
  8
COUCHE1
  6
CONTINUOUS
 10
10.576720
 20
13.788360
  0
VERTEX
  8
COUCHE1
  6
CONTINUOUS
 10
10.539683
 20
13.777778
  0
VERTEX
  8
COUCHE1
  6
CONTINUOUS
 10
10.507937
 20
13.767196
  0
VERTEX
  8
COUCHE1
  6
CONTINUOUS
 10
10.470899
 20
13.740741
  0
VERTEX
  8
COUCHE1
  6
CONTINUOUS
 10
10.449735
 20
13.708995
  0
VERTEX
  8
COUCHE1
  6
CONTINUOUS
 10
10.428571
 20
13.661376
  0
VERTEX
  8
COUCHE1
  6
CONTINUOUS
 10
10.423280
 20
13.608466
  0
SEQEND
  8
0
  0
POLYLINE
  8
COUCHE1
  6
CONTINUOUS
 66
     1
 40
0.000000
 41
0.000000
  0
VERTEX
  8
COUCHE1
  6
CONTINUOUS
 10
10.423280
 20
13.608466
  0
VERTEX
  8
COUCHE1
  6
CONTINUOUS
 10
10.423280
 20
13.550265
  0
VERTEX
  8
COUCHE1
  6
CONTINUOUS
 10
10.444444
 20
13.502646
  0
VERTEX
  8
COUCHE1
  6
CONTINUOUS
 10
10.470899
 20
13.470899
  0
VERTEX
  8
COUCHE1
  6
CONTINUOUS
 10
10.502646
 20
13.449735
  0
VERTEX
  8
COUCHE1
  6
CONTINUOUS
 10
10.539683
 20
13.433862
  0
VERTEX
  8
COUCHE1
  6
CONTINUOUS
 10
10.571429
 20
13.423280
  0
VERTEX
  8
COUCHE1
  6
CONTINUOUS
 10
10.608466
 20
13.417989
  0
VERTEX
  8
COUCHE1
  6
CONTINUOUS
 10
10.640212
 20
13.417989
  0
SEQEND
  8
0
  0
POLYLINE
  8
COUCHE1
  6
CONTINUOUS
 66
     1
 40
0.000000
 41
0.000000
  0
VERTEX
  8
COUCHE1
  6
CONTINUOUS
 10
10.640212
 20
13.417989
  0
VERTEX
  8
COUCHE1
  6
CONTINUOUS
 10
10.724868
 20
13.417989
  0
VERTEX
  8
COUCHE1
  6
CONTINUOUS
 10
10.962963
 20
13.417989
  0
VERTEX
  8
COUCHE1
  6
CONTINUOUS
 10
11.296296
 20
13.417989
  0
VERTEX
  8
COUCHE1
  6
CONTINUOUS
 10
11.682540
 20
13.417989
  0
VERTEX
  8
COUCHE1
  6
CONTINUOUS
 10
12.068783
 20
13.417989
  0
VERTEX
  8
COUCHE1
  6
CONTINUOUS
 10
12.402116
 20
13.417989
  0
VERTEX
  8
COUCHE1
  6
CONTINUOUS
 10
12.640212
 20
13.417989
  0
VERTEX
  8
COUCHE1
  6
CONTINUOUS
 10
12.730159
 20
13.417989
  0
SEQEND
  8
0
  0
ENDSEC
  0
EOF
