0
SECTION
2
HEADER
9
$LTSCALE
40
8.0000000
9
$LIMMIN
10
0.0000000
20
120.0000000
9
$LIMMAX
10
624.0000000
20
408.0000000
9
$EXTMIN
10
0.0000000
20
0.0000000
9
$EXTMAX
10
619.7230835
20
489.2550049
9
$SNAPMODE
70
0
9
$SNAPUNIT
10
12.0000000
20
12.0000000
9
$GRIDMODE
70
0
9
$GRIDUNIT
10
12.0000000
20
12.0000000
9
$ORTHOMODE
70
0
9
$TEXTSTYLE
7
txt
9
$CLAYER
8
1
9
$CECOLOR
62
7
9
$CELTYPE
6
CONTINUOUS
9
$PLINEWID
40
0.0000000
9
$OSMODE
70
0
9
$FILLMODE
70
0
9
$CHAMFERA
40
0.5000000
9
$CHAMFERB
40
0.5000000
9
$COORDS
70
2
9
$FILLETRAD
40
0.5000000
9
$INSBASE
10
0.0000000
20
0.0000000
9
$SPLFRAME
70
0
9
$SPLINESEGS
70
8
0
ENDSEC
0
SECTION
2
TABLES
0
TABLE
2
LTYPE
70
9
0
LTYPE
2
DISCONTINUE
70
0
3
__ __ __ __ __ __ __ __ __ __ __ __ __ __ __
72
65
73
2
40
0.7500000
49
0.5000000
49
-0.2500000
0
LTYPE
2
CACHE
70
0
3
_ _ _ _ _ _ _ _ _ _ _ _ _ _ _ _ _ _ _ _ _ _ 
72
65
73
2
40
0.2500000
49
0.1250000
49
-0.1250000
0
LTYPE
2
AXES
70
0
3
____ _ ____ _ ____ _ ____ _ ____ _ ____ _ __
72
65
73
4
40
2.0000000
49
1.2500000
49
-0.2500000
49
0.2500000
49
-0.2500000
0
LTYPE
2
FANTOME
70
0
3
_____ _ _ _____ _ _ _____ _ _ _____ _ _ ____
72
65
73
6
40
2.5000000
49
1.2500000
49
-0.2500000
49
0.2500000
49
-0.2500000
49
0.2500000
49
-0.2500000
0
LTYPE
2
POINTILLE
70
0
3
............................................
72
65
73
2
40
0.2500000
49
0.0000000
49
-0.2500000
0
LTYPE
2
MIXTE
70
0
3
__ . __ . __ . __ . __ . __ . __ . __ . __ .
72
65
73
4
40
1.0000000
49
0.5000000
49
-0.2500000
49
0.0000000
49
-0.2500000
0
LTYPE
2
BORDURE
70
0
3
__ __ . __ __ . __ __ . __ __ . __ __ . __ _
72
65
73
6
40
1.7500000
49
0.5000000
49
-0.2500000
49
0.5000000
49
-0.2500000
49
0.0000000
49
-0.2500000
0
LTYPE
2
DIVISE
70
0
3
__ . . __ . . __ . . __ . . __ . . __ . . __
72
65
73
6
40
1.2500000
49
0.5000000
49
-0.2500000
49
0.0000000
49
-0.2500000
49
0.0000000
49
-0.2500000
0
LTYPE
2
POINTILLES
70
0
3
fermer
72
65
73
2
40
0.1000000
49
0.0500000
49
-0.0500000
0
ENDTAB
0
TABLE
2
STYLE
70
4
0
STYLE
2
ROMANS
70
0
40
0.0000000
41
1.0000000
50
0.0000000
71
0
42
0.0000000
3
ROMANS
4

0
STYLE
2
STANDARD
70
0
40
0.0000000
41
1.0000000
50
0.0000000
71
0
42
0.0000000
3
txt
4

0
STYLE
2
MONOTXT
70
0
40
0.0000000
41
1.0000000
50
0.0000000
71
0
42
0.0000000
3
MONOTXT
4

0
STYLE
2
ROMANC
70
0
40
0.0000000
41
1.0000000
50
0.0000000
71
0
42
0.0000000
3
ROMANC
4

0
ENDTAB
0
TABLE
2
LAYER
70
10
0
LAYER
2
1
70
0
62
7
6
CONTINUOUS
0
LAYER
2
2
70
0
62
7
6
CONTINUOUS
0
LAYER
2
3
70
0
62
7
6
CONTINUOUS
0
LAYER
2
4
70
0
62
7
6
CONTINUOUS
0
LAYER
2
5
70
0
62
7
6
CONTINUOUS
0
LAYER
2
6
70
0
62
7
6
CONTINUOUS
0
LAYER
2
7
70
0
62
7
6
CONTINUOUS
0
LAYER
2
8
70
0
62
7
6
CONTINUOUS
0
LAYER
2
9
70
0
62
7
6
CONTINUOUS
0
LAYER
2
10
70
0
62
7
6
CONTINUOUS
0
ENDTAB
0
ENDSEC
0
SECTION
2
BLOCKS
0
BLOCK
8
0
2
ENGINE-G1
70
0
10
0.0000000
20
0.0000000
0
LINE
8
3
62
5
10
292.7460327
20
145.2304382
11
585.7460327
21
145.2304382
0
LINE
8
3
62
5
10
292.7460327
20
226.8304443
11
292.7460327
21
142.2304382
0
LINE
8
3
62
5
10
585.7460327
20
222.8304443
11
585.7460327
21
142.2304382
0
SOLID
8
3
62
5
10
297.5460205
20
144.4304657
11
292.7460327
21
145.2304382
12
297.5460205
22
146.0304108
13
297.5460205
23
146.0304108
0
SOLID
8
3
62
5
10
580.9460449
20
144.4304657
11
585.7460327
21
145.2304382
12
580.9460449
22
146.0304108
13
580.9460449
23
146.0304108
0
TEXT
8
3
62
5
40
6.0000000
1
24'-5"
7
ROMANS
72
0
10
424.8174744
20
136.2304382
0
ENDBLK
8
0
0
BLOCK
8
0
2
ENGINE-G2
70
0
10
0.0000000
20
0.0000000
0
LINE
8
3
62
5
10
307.7460327
20
177.2304382
11
401.7460327
21
177.2304382
0
LINE
8
3
62
5
10
307.7460327
20
266.8304443
11
307.7460327
21
174.2304382
0
LINE
8
3
62
5
10
401.7460327
20
201.8304443
11
401.7460327
21
174.2304382
0
SOLID
8
3
62
5
10
312.5460205
20
176.4304657
11
307.7460327
21
177.2304382
12
312.5460205
22
178.0304108
13
312.5460205
23
178.0304108
0
SOLID
8
3
62
5
10
396.9460449
20
176.4304657
11
401.7460327
21
177.2304382
12
396.9460449
22
178.0304108
13
396.9460449
23
178.0304108
0
TEXT
8
3
62
5
40
6.0000000
1
7'-10"
7
ROMANS
72
0
10
340.3174744
20
168.2304382
0
ENDBLK
8
0
0
BLOCK
8
0
2
ENGINE-G3
70
0
10
0.0000000
20
0.0000000
0
TEXT
8
5
62
7
40
4.7764082
1
Sausalito, CA. 94965
7
ROMANS
72
0
10
535.2492065
20
39.0859184
0
TEXT
8
5
62
7
40
4.7764082
1
2320 Marinship Way
7
ROMANS
72
0
10
535.2492065
20
46.6152802
0
TEXT
8
5
62
7
40
4.7764082
1
AUTODESK, INC
7
ROMANS
72
0
10
535.2492065
20
53.6432457
0
SOLID
8
5
62
7
10
505.7273560
20
38.8584518
11
508.3467102
21
38.8584518
12
514.3916016
22
53.6527061
13
514.3916016
23
53.6527061
0
SOLID
8
5
62
7
10
515.7423706
20
56.4217644
11
505.7273560
21
38.8584518
12
514.3916016
22
53.6527061
13
514.3916016
23
53.6527061
0
SOLID
8
5
62
7
10
515.7423706
20
56.4217644
11
514.3916016
21
53.6527061
12
517.0932617
22
53.6527061
13
517.0932617
23
53.6527061
0
SOLID
8
5
62
7
10
517.0932617
20
53.6527061
11
523.1381226
21
38.8584518
12
525.7575073
22
38.8584518
13
525.7575073
23
38.8584518
0
SOLID
8
5
62
7
10
517.0932617
20
53.6527061
11
525.7575073
21
38.8584518
12
515.7423706
22
56.4217644
13
515.7423706
23
56.4217644
0
SOLID
8
5
62
7
10
505.7273560
20
38.8584518
11
505.7273560
21
58.8872566
12
514.2024536
22
58.8872566
13
514.2024536
23
58.8872566
0
SOLID
8
5
62
7
10
517.2824097
20
58.8872566
11
525.7575073
21
58.8872566
12
525.7575073
22
38.8584518
13
525.7575073
23
38.8584518
0
LINE
8
5
62
7
10
525.7575073
20
38.8584518
11
525.7575073
21
58.8872566
0
LINE
8
5
62
7
10
517.2824097
20
58.8872566
11
525.7575073
21
38.8584518
0
LINE
8
5
62
7
10
515.7423706
20
56.4217644
11
505.9708862
21
39.3240776
0
LINE
8
5
62
7
10
515.7423706
20
56.4217644
11
525.5139771
21
39.3240776
0
LINE
8
5
62
7
10
505.7273560
20
38.8584518
11
505.7273560
21
58.8872566
0
LINE
8
5
62
7
10
514.2024536
20
58.8872566
11
505.7273560
21
38.8584518
0
SOLID
8
5
62
7
10
517.0932617
20
49.1844368
11
520.5187988
21
38.8584518
12
523.1381226
22
38.8584518
13
523.1381226
23
38.8584518
0
SOLID
8
5
62
7
10
517.0932617
20
49.1844368
11
523.1381226
21
38.8584518
12
515.7423706
22
51.9539070
13
515.7423706
23
51.9539070
0
SOLID
8
5
62
7
10
514.3916016
20
49.1844368
11
517.0932617
21
49.1844368
12
515.7423706
22
51.9539070
13
515.7423706
23
51.9539070
0
SOLID
8
5
62
7
10
508.3467102
20
38.8584518
11
510.9660950
21
38.8584518
12
514.3916016
22
49.1844368
13
514.3916016
23
49.1844368
0
SOLID
8
5
62
7
10
514.3916016
20
49.1844368
11
515.7423706
21
51.9539070
12
508.3467102
22
38.8584518
13
508.3467102
23
38.8584518
0
SOLID
8
5
62
7
10
510.9660950
20
38.8584518
11
515.7423706
21
47.4860611
12
520.5187988
22
38.8584518
13
520.5187988
23
38.8584518
0
LINE
8
5
62
7
10
515.7423706
20
51.9539070
11
523.1381226
21
38.8584518
0
LINE
8
5
62
7
10
523.1381226
20
38.8584518
11
520.5187988
21
38.8584518
0
LINE
8
5
62
7
10
517.0932617
20
49.1844368
11
520.5187988
21
38.8584518
0
LINE
8
5
62
7
10
515.7423706
20
47.4860611
11
520.5187988
21
38.8584518
0
LINE
8
5
62
7
10
510.9660950
20
38.8584518
11
520.5187988
21
38.8584518
0
LINE
8
5
62
7
10
515.7423706
20
51.9539070
11
508.3467102
21
38.8584518
0
LINE
8
5
62
7
10
514.3916016
20
49.1844368
11
510.9660950
21
38.8584518
0
LINE
8
5
62
7
10
515.7423706
20
47.4860611
11
510.9660950
21
38.8584518
0
LINE
8
5
62
7
10
508.3467102
20
38.8584518
11
510.9660950
21
38.8584518
0
LINE
8
5
62
7
10
514.3916016
20
49.1844368
11
517.0932617
21
49.1844368
0
LINE
8
5
62
7
10
525.7575073
20
38.8584518
11
523.1381226
21
38.8584518
0
LINE
8
5
62
7
10
505.7273560
20
38.8584518
11
508.3467102
21
38.8584518
0
LINE
8
5
62
7
10
523.1381226
20
38.8584518
11
517.0932617
21
53.6527061
0
LINE
8
5
62
7
10
508.3467102
20
38.8584518
11
514.3916016
21
53.6527061
0
ENDBLK
8
0
0
BLOCK
8
0
2
ENGINE-G4
70
0
10
0.0000000
20
0.0000000
0
LINE
8
3
62
5
10
96.7460480
20
177.2304382
11
220.7460480
21
177.2304382
0
LINE
8
3
62
5
10
96.7460480
20
200.8304443
11
96.7460480
21
174.2304382
0
LINE
8
3
62
5
10
220.7460480
20
200.8304443
11
220.7460480
21
174.2304382
0
SOLID
8
3
62
5
10
101.5460510
20
176.4304657
11
96.7460480
21
177.2304382
12
101.5460510
22
178.0304108
13
101.5460510
23
178.0304108
0
SOLID
8
3
62
5
10
215.9460449
20
176.4304657
11
220.7460480
21
177.2304382
12
215.9460449
22
178.0304108
13
215.9460449
23
178.0304108
0
TEXT
8
3
62
5
40
6.0000000
1
10'-4"
7
ROMANS
72
0
10
144.7460480
20
168.2304382
0
ENDBLK
8
0
0
BLOCK
8
0
2
ENGINE-G5
70
0
10
0.0000000
20
0.0000000
0
LINE
8
3
62
5
10
63.7460480
20
194.2304382
11
129.7460480
21
194.2304382
0
LINE
8
3
62
5
10
63.7460480
20
226.8304443
11
63.7460480
21
191.2304382
0
LINE
8
3
62
5
10
129.7460480
20
226.8304443
11
129.7460480
21
191.2304382
0
SOLID
8
3
62
5
10
68.5460510
20
193.4304657
11
63.7460480
21
194.2304382
12
68.5460510
22
195.0304108
13
68.5460510
23
195.0304108
0
SOLID
8
3
62
5
10
124.9460449
20
193.4304657
11
129.7460480
21
194.2304382
12
124.9460449
22
195.0304108
13
124.9460449
23
195.0304108
0
TEXT
8
3
62
5
40
6.0000000
1
5'-6"
7
ROMANS
72
0
10
85.1746216
20
185.2304382
0
ENDBLK
8
0
0
BLOCK
8
0
2
ENGINE-G6
70
0
10
0.0000000
20
0.0000000
0
LINE
8
3
62
5
10
96.7460480
20
177.2304382
11
36.7460480
21
177.2304382
0
LINE
8
3
62
5
10
96.7460480
20
200.8304443
11
96.7460480
21
174.2304382
0
LINE
8
3
62
5
10
36.7460480
20
222.8304443
11
36.7460480
21
174.2304382
0
SOLID
8
3
62
5
10
91.9460449
20
178.0304108
11
96.7460480
21
177.2304382
12
91.9460449
22
176.4304657
13
91.9460449
23
176.4304657
0
SOLID
8
3
62
5
10
41.5460472
20
178.0304108
11
36.7460480
21
177.2304382
12
41.5460472
22
176.4304657
13
41.5460472
23
176.4304657
0
TEXT
8
3
62
5
40
6.0000000
1
5'-0"
7
ROMANS
72
0
10
55.1746178
20
168.2304382
0
ENDBLK
8
0
0
BLOCK
8
0
2
ENGINE-G7
70
0
10
0.0000000
20
0.0000000
0
LINE
8
1
62
7
10
38.2460480
20
302.7304382
11
38.1915436
21
299.7314148
0
POLYLINE
8
1
62
7
70
1
66
1
40
0.0000000
41
0.0000000
0
VERTEX
8
1
10
36.7460480
20
265.2304382
0
VERTEX
8
1
10
36.7460480
20
272.2304382
0
VERTEX
8
1
10
41.7460480
20
272.2304382
0
VERTEX
8
1
10
41.7460480
20
265.2304382
0
SEQEND
8
1
0
POLYLINE
8
1
62
7
70
1
66
1
40
0.0000000
41
0.0000000
0
VERTEX
8
1
10
36.7460480
20
274.2304382
0
VERTEX
8
1
10
36.7460480
20
275.2304382
0
VERTEX
8
1
10
41.7460480
20
275.2304382
0
VERTEX
8
1
10
41.7460480
20
274.2304382
0
SEQEND
8
1
0
POLYLINE
8
1
62
7
70
1
66
1
40
0.0000000
41
0.0000000
0
VERTEX
8
1
10
36.2460480
20
272.2304382
0
VERTEX
8
1
10
36.2460480
20
274.2304382
0
VERTEX
8
1
10
42.2460480
20
274.2304382
0
VERTEX
8
1
10
42.2460480
20
272.2304382
0
SEQEND
8
1
0
LINE
8
1
62
7
10
40.3278351
20
298.2319336
11
40.7460480
21
275.2304382
0
LINE
8
1
62
7
10
38.1642609
20
298.2319336
11
37.7460480
21
275.2304382
0
POLYLINE
8
1
62
7
70
1
66
1
40
0.0000000
41
0.0000000
0
VERTEX
8
1
10
37.7460480
20
298.2304382
0
VERTEX
8
1
10
37.7460480
20
299.7304382
0
VERTEX
8
1
10
40.7460480
20
299.7304382
0
VERTEX
8
1
10
40.7460480
20
298.2304382
0
SEQEND
8
1
0
ARC
8
1
62
7
10
39.2460480
20
302.7304382
40
1.0000000
50
0.0000000
51
180.0000050
0
LINE
8
1
62
7
10
40.2460480
20
302.7304382
11
40.3005524
21
299.7314148
0
ENDBLK
8
0
0
BLOCK
8
0
2
ENGINE-G8
70
0
10
0.0000000
20
0.0000000
0
LINE
8
3
62
5
10
401.7460327
20
177.2304382
11
487.7460327
21
177.2304382
0
LINE
8
3
62
5
10
401.7460327
20
201.8304443
11
401.7460327
21
174.2304382
0
LINE
8
3
62
5
10
487.7460327
20
201.8304443
11
487.7460327
21
174.2304382
0
SOLID
8
3
62
5
10
406.5460205
20
176.4304657
11
401.7460327
21
177.2304382
12
406.5460205
22
178.0304108
13
406.5460205
23
178.0304108
0
SOLID
8
3
62
5
10
482.9460449
20
176.4304657
11
487.7460327
21
177.2304382
12
482.9460449
22
178.0304108
13
482.9460449
23
178.0304108
0
TEXT
8
3
62
5
40
6.0000000
1
7'-2"
7
ROMANS
72
0
10
433.1745911
20
168.2304382
0
ENDBLK
8
0
0
BLOCK
8
0
2
ENGINE-G9
70
0
10
0.0000000
20
0.0000000
0
LINE
8
1
62
7
10
381.2708740
20
240.2311096
11
394.8178101
21
240.2304382
0
ARC
8
1
62
7
10
401.7527161
20
241.2490082
40
20.5071125
50
182.8451203
51
207.2405753
0
LINE
8
1
62
7
10
383.5199890
20
231.8623352
11
395.2460327
21
238.6323700
0
ENDBLK
8
0
0
BLOCK
8
0
2
ENGINE-G10
70
0
10
0.0000000
20
0.0000000
0
LINE
8
1
62
7
10
384.5137024
20
230.1274261
11
396.2460327
21
236.9003143
0
ARC
8
1
62
7
10
401.7425537
20
241.2498474
40
20.5070972
50
212.8450733
51
237.2405283
0
LINE
8
1
62
7
10
390.6458740
20
224.0044098
11
397.4164124
21
235.7313232
0
ENDBLK
8
0
0
BLOCK
8
0
2
ENGINE-G11
70
0
10
0.0000000
20
0.0000000
0
LINE
8
1
62
7
10
392.3739014
20
222.9987793
11
399.1479797
21
234.7304382
0
ARC
8
1
62
7
10
401.7333069
20
241.2455444
40
20.5071545
50
242.8451083
51
267.2405223
0
LINE
8
1
62
7
10
400.7460327
20
220.7621765
11
400.7460327
21
225.9418335
0
ENDBLK
8
0
0
BLOCK
8
0
2
ENGINE-G12
70
0
10
0.0000000
20
0.0000000
0
LINE
8
1
62
7
10
411.1141357
20
223.0044098
11
409.2422791
21
226.2465363
0
ARC
8
1
62
7
10
401.7491150
20
241.2233124
40
20.4922504
50
272.7865539
51
297.1908745
0
LINE
8
1
62
7
10
402.7453613
20
220.7552948
11
402.7456360
21
226.1874084
0
ENDBLK
8
0
0
BLOCK
8
0
2
ENGINE-G13
70
0
10
0.0000000
20
0.0000000
0
LINE
8
1
62
7
10
390.8569336
20
242.2304382
11
394.8188477
21
242.2304382
0
LINE
8
1
62
7
10
391.7847595
20
245.8270874
11
395.2460327
21
243.8285065
0
LINE
8
1
62
7
10
391.7847595
20
245.8270874
11
390.8569336
21
242.2304382
0
ENDBLK
8
0
0
BLOCK
8
0
2
ENGINE-G14
70
0
10
0.0000000
20
0.0000000
0
LINE
8
1
62
7
10
392.8157959
20
247.5410156
11
395.4176331
21
250.1918945
0
LINE
8
1
62
7
10
392.8157959
20
247.5410156
11
396.2460327
21
245.5605621
0
LINE
8
1
62
7
10
395.4176331
20
250.1918945
11
397.4158936
21
246.7304230
0
ENDBLK
8
0
0
BLOCK
8
0
2
ENGINE-G15
70
0
10
0.0000000
20
0.0000000
0
LINE
8
1
62
7
10
397.1675110
20
251.1606750
11
400.7462158
21
252.1554871
0
LINE
8
1
62
7
10
400.7462158
20
252.1554871
11
400.7460022
21
248.1586304
0
LINE
8
1
62
7
10
397.1675110
20
251.1606750
11
399.1479492
21
247.7304382
0
ENDBLK
8
0
0
BLOCK
8
0
2
ENGINE-G16
70
0
10
0.0000000
20
0.0000000
0
LINE
8
1
62
7
10
402.7460327
20
252.1195374
11
406.3426819
21
251.1917114
0
LINE
8
1
62
7
10
402.7460327
20
252.1195374
11
402.7460327
21
248.1586456
0
LINE
8
1
62
7
10
406.3426819
20
251.1917114
11
404.3440857
21
247.7304382
0
ENDBLK
8
0
0
BLOCK
8
0
2
ENGINE-G17
70
0
10
0.0000000
20
0.0000000
0
LINE
8
1
62
7
10
408.0566101
20
250.1606750
11
410.7074890
21
247.5588379
0
LINE
8
1
62
7
10
408.0566101
20
250.1606750
11
406.0761719
21
246.7304382
0
LINE
8
1
62
7
10
410.7074890
20
247.5588379
11
407.2460022
21
245.5605927
0
ENDBLK
8
0
0
BLOCK
8
0
2
ENGINE-G18
70
0
10
0.0000000
20
0.0000000
0
INSERT
8
1
2
ENGINE-G19
10
0.0000000
20
0.0000000
0
ARC
8
1
62
7
10
401.7393494
20
241.2118683
40
20.5071068
50
2.8451153
51
27.2405737
0
LINE
8
1
62
7
10
422.2211914
20
242.2297668
11
408.6742249
21
242.2304382
0
ENDBLK
8
0
0
BLOCK
8
0
2
ENGINE-G19
70
0
10
0.0000000
20
0.0000000
0
LINE
8
1
62
7
10
419.9720764
20
250.5985413
11
408.2460327
21
243.8285065
0
ENDBLK
8
0
0
BLOCK
8
0
2
ENGINE-G20
70
0
10
0.0000000
20
0.0000000
0
LINE
8
3
62
5
10
487.7460327
20
177.2304382
11
585.7460327
21
177.2304382
0
LINE
8
3
62
5
10
487.7460327
20
201.8304443
11
487.7460327
21
174.2304382
0
LINE
8
3
62
5
10
585.7460327
20
201.8304443
11
585.7460327
21
174.2304382
0
SOLID
8
3
62
5
10
492.5460205
20
176.4304657
11
487.7460327
21
177.2304382
12
492.5460205
22
178.0304108
13
492.5460205
23
178.0304108
0
SOLID
8
3
62
5
10
580.9460449
20
176.4304657
11
585.7460327
21
177.2304382
12
580.9460449
22
178.0304108
13
580.9460449
23
178.0304108
0
TEXT
8
3
62
5
40
6.0000000
1
8'-2"
7
ROMANS
72
0
10
525.1746216
20
168.2304382
0
ENDBLK
8
0
0
BLOCK
8
0
2
ENGINE-G21
70
0
10
0.0000000
20
0.0000000
0
LINE
8
1
62
7
10
487.7460327
20
232.7304382
11
477.2460327
21
232.7304382
0
LINE
8
1
62
7
10
477.2460327
20
233.6688843
11
477.2460327
21
232.7304382
0
ARC
8
1
62
7
10
479.2460327
20
233.6688843
40
2.0000000
50
104.0362598
51
179.9999913
0
LINE
8
1
62
7
10
478.7609558
20
235.6091766
11
482.4885559
21
236.5410767
0
ARC
8
1
62
7
10
482.2460327
20
237.5112152
40
1.0000000
50
284.0362307
51
0.0000000
0
LINE
8
1
62
7
10
483.2460327
20
237.5112152
11
483.2460327
21
241.2304382
0
ENDBLK
8
0
0
BLOCK
8
0
2
ENGINE-G22
70
0
10
0.0000000
20
0.0000000
0
LINE
8
1
62
7
10
487.7460327
20
249.7304382
11
477.2460327
21
249.7304382
0
LINE
8
1
62
7
10
477.2460327
20
248.7919922
11
477.2460327
21
249.7304382
0
ARC
8
1
62
7
10
479.2460327
20
248.7919922
40
2.0000000
50
180.0000050
51
255.9637434
0
LINE
8
1
62
7
10
478.7609558
20
246.8516998
11
482.4885559
21
245.9197998
0
ARC
8
1
62
7
10
482.2460327
20
244.9496613
40
1.0000000
50
0.0000000
51
75.9637793
0
LINE
8
1
62
7
10
483.2460327
20
244.9496613
11
483.2460327
21
241.2304382
0
ENDBLK
8
0
0
BLOCK
8
0
2
ENGINE-G23
70
0
10
0.0000000
20
0.0000000
0
POLYLINE
8
1
62
7
70
1
66
1
40
0.0000000
41
0.0000000
0
VERTEX
8
1
10
550.8467407
20
298.8905640
0
VERTEX
8
1
10
563.4267578
20
307.0601196
0
VERTEX
8
1
10
564.5160522
20
305.3827820
0
VERTEX
8
1
10
551.9359741
20
297.2131958
0
SEQEND
8
1
0
ARC
8
1
62
7
10
554.7460327
20
300.2304382
40
4.5000000
50
46.0636734
51
20.1377934
0
ARC
8
1
62
7
10
554.7460327
20
300.2304382
40
6.0000000
50
42.7499457
51
23.5078224
0
ENDBLK
8
0
0
ENDSEC
0
SECTION
2
ENTITIES
0
INSERT
8
3
2
ENGINE-G1
10
0.0000000
20
0.0000000
0
INSERT
8
3
2
ENGINE-G2
10
0.0000000
20
0.0000000
0
LINE
8
1
62
7
10
307.7460327
20
235.2304382
11
340.7460327
21
235.2304382
0
LINE
8
1
62
7
10
340.7460327
20
237.2304382
11
307.7460327
21
237.2304382
0
POLYLINE
8
1
62
7
70
1
66
1
40
0.0000000
41
0.0000000
0
VERTEX
8
1
10
307.7460327
20
370.2304382
0
VERTEX
8
1
10
307.7460327
20
372.2304382
0
VERTEX
8
1
10
321.7460327
20
372.2304382
0
VERTEX
8
1
10
321.7460327
20
370.2304382
0
SEQEND
8
1
0
LINE
8
1
62
7
10
308.7460327
20
368.2304382
11
320.7460327
21
368.2304382
0
POLYLINE
8
1
62
7
70
1
66
1
40
0.0000000
41
0.0000000
0
VERTEX
8
1
10
307.7460327
20
252.2304382
0
VERTEX
8
1
10
307.7460327
20
264.2304382
0
VERTEX
8
1
10
317.7460327
20
264.2304382
0
VERTEX
8
1
10
317.7460327
20
252.2304382
0
SEQEND
8
1
0
LINE
8
2
62
1
10
305.7460327
20
351.2304382
11
383.7460327
21
351.2304382
0
LINE
8
2
62
1
10
305.7460327
20
349.2304382
11
383.7460327
21
349.2304382
0
LINE
8
2
62
1
10
306.7460327
20
289.2304382
11
511.7460327
21
289.2304382
0
LINE
8
2
62
1
10
511.7460327
20
285.2304382
11
306.7460327
21
285.2304382
0
LINE
8
2
62
1
10
307.7460327
20
269.2304382
11
315.7460327
21
269.2304382
0
LINE
8
2
62
1
10
602.7460327
20
217.2304382
11
10.7460461
21
217.2304382
0
LINE
8
5
62
1
10
358.7870789
20
65.2340088
11
0.0000000
21
65.2340088
0
POLYLINE
8
5
62
1
70
1
66
1
40
0.0000000
41
0.0000000
0
VERTEX
8
5
10
0.0000000
20
0.0000000
0
VERTEX
8
5
10
0.0000000
20
489.2550049
0
VERTEX
8
5
10
619.7230835
20
489.2550049
0
VERTEX
8
5
10
619.7230835
20
0.0000000
0
SEQEND
8
5
0
POLYLINE
8
5
62
7
70
1
66
1
40
0.0000000
41
0.0000000
0
VERTEX
8
5
10
6.5234365
20
71.7574463
0
VERTEX
8
5
10
6.5234365
20
482.7316284
0
VERTEX
8
5
10
613.1995850
20
482.7316284
0
VERTEX
8
5
10
613.1995850
20
71.7574463
0
SEQEND
8
5
0
POLYLINE
8
1
62
7
70
0
66
1
40
0.0000000
41
0.0000000
0
VERTEX
8
1
10
315.7460327
20
269.2304382
0
VERTEX
8
1
10
315.7460327
20
248.2304382
0
VERTEX
8
1
10
306.7460327
20
248.2304382
0
VERTEX
8
1
10
306.7460327
20
251.2304382
0
SEQEND
8
1
0
POLYLINE
8
5
62
1
70
1
66
1
40
0.0000000
41
0.0000000
0
VERTEX
8
5
10
358.7870789
20
0.0000000
0
VERTEX
8
5
10
358.7870789
20
65.2340088
0
VERTEX
8
5
10
619.7230835
20
65.2340088
0
VERTEX
8
5
10
619.7230835
20
0.0000000
0
SEQEND
8
5
0
LINE
8
5
62
1
10
358.7870789
20
32.6170044
11
619.7230835
21
32.6170044
0
LINE
8
5
62
7
10
446.2346191
20
17.6918411
11
601.9272461
21
17.6918411
0
TEXT
8
5
62
7
40
3.0000000
1
Reprinted by permission from Model Railroader Cyclopedia Volume 1 - Steam Locomotives
7
STANDARD
72
0
10
366.1919250
20
20.1616898
0
TEXT
8
5
62
7
40
3.0000000
1
Copyright 1960, Kalmbach Publishing Co.
7
STANDARD
72
0
10
429.3770752
20
10.0264397
0
TEXT
8
5
62
7
40
11.7421207
1
AUTOSKETCH
7
MONOTXT
72
0
10
370.2292175
20
40.5596924
0
INSERT
8
3
2
ENGINE-G3
10
0.0000000
20
0.0000000
0
LINE
8
2
62
1
10
43.7460480
20
265.2304382
11
43.7460480
21
253.2304382
0
LINE
8
2
62
1
10
35.7460480
20
265.2304382
11
35.7460480
21
253.2304382
0
POLYLINE
8
1
62
7
70
1
66
1
40
0.0000000
41
0.0000000
0
VERTEX
8
1
10
286.7460327
20
250.2304382
0
VERTEX
8
1
10
286.7460327
20
266.2304382
0
VERTEX
8
1
10
296.7460327
20
266.2304382
0
VERTEX
8
1
10
296.7460327
20
250.2304382
0
SEQEND
8
1
0
LINE
8
1
62
7
10
288.7460327
20
266.2304382
11
288.7460327
21
250.2304382
0
LINE
8
1
62
7
10
294.7460327
20
266.2304382
11
294.7460327
21
250.2304382
0
POLYLINE
8
1
62
7
70
1
66
1
40
0.0000000
41
0.0000000
0
VERTEX
8
1
10
296.7460327
20
251.2304382
0
VERTEX
8
1
10
296.7460327
20
265.2304382
0
VERTEX
8
1
10
307.7460327
20
265.2304382
0
VERTEX
8
1
10
307.7460327
20
251.2304382
0
SEQEND
8
1
0
POLYLINE
8
1
62
7
70
1
66
1
40
0.0000000
41
0.0000000
0
VERTEX
8
1
10
297.7460327
20
252.2304382
0
VERTEX
8
1
10
297.7460327
20
264.2304382
0
VERTEX
8
1
10
305.7460327
20
264.2304382
0
VERTEX
8
1
10
305.7460327
20
252.2304382
0
SEQEND
8
1
0
LINE
8
1
62
7
10
304.7460327
20
264.2304382
11
304.7460327
21
252.2304382
0
LINE
8
2
62
1
10
282.7460327
20
265.2304382
11
282.7460327
21
253.2304382
0
INSERT
8
3
2
ENGINE-G4
10
0.0000000
20
0.0000000
0
LINE
8
2
62
1
10
43.7460480
20
262.2304382
11
282.7460327
21
262.2304382
0
LINE
8
2
62
1
10
35.7460480
20
253.2304382
11
286.7460327
21
253.2304382
0
INSERT
8
3
2
ENGINE-G5
10
0.0000000
20
0.0000000
0
INSERT
8
3
2
ENGINE-G6
10
0.0000000
20
0.0000000
0
ARC
8
1
62
7
10
63.7902107
20
233.1892242
40
17.9862785
50
33.9455313
51
242.5328594
0
ARC
8
1
62
7
10
63.5757523
20
233.4191132
40
18.2464790
50
297.4738082
51
326.0967541
0
LINE
8
1
62
7
10
68.7460480
20
240.2304382
11
87.7460480
21
222.2304382
0
LINE
8
1
62
7
10
87.7460480
20
221.2304382
11
69.7460480
21
225.2304382
0
LINE
8
1
62
7
10
69.7460480
20
226.2304382
11
87.7460480
21
222.2304382
0
ARC
8
1
62
7
10
63.7460480
20
233.2304382
40
16.0000000
50
355.4132101
51
32.7707115
0
ARC
8
1
62
7
10
63.7460480
20
233.2304382
40
16.0000000
50
327.2517118
51
348.7866152
0
LINE
8
1
62
7
10
69.7460480
20
241.2304382
11
87.7460480
21
245.2304382
0
LINE
8
1
62
7
10
69.7460480
20
240.2304382
11
87.7460480
21
244.2304382
0
LINE
8
1
62
7
10
70.6460571
20
240.4304352
11
87.7460480
21
224.2304382
0
ARC
8
1
62
7
10
63.7460480
20
233.2304382
40
16.0000000
50
36.5390259
51
323.4466681
0
POLYLINE
8
1
62
7
70
0
66
1
40
0.0000000
41
0.0000000
0
VERTEX
8
1
10
35.7460480
20
233.2304382
0
VERTEX
8
1
10
33.7460480
20
233.2304382
0
VERTEX
8
1
10
33.7460480
20
230.2304382
0
VERTEX
8
1
10
22.7460461
20
230.2304382
0
VERTEX
8
1
10
22.7460461
20
227.2304382
0
VERTEX
8
1
10
23.7460461
20
227.2304382
0
SEQEND
8
1
0
ARC
8
1
62
7
10
34.7460480
20
228.2304382
40
1.0000000
50
270.0000007
51
359.9999827
0
ARC
8
1
62
7
10
34.7460480
20
228.2304382
40
3.0000000
50
270.0000007
51
0.0000000
0
ARC
8
1
62
7
10
63.7460480
20
230.2304382
40
4.1231055
50
180.0000050
51
0.0000000
0
LINE
8
1
62
7
10
57.7460480
20
225.2304382
11
57.7460480
21
241.2304382
0
ARC
8
1
62
7
10
63.7460480
20
233.2304382
40
13.0000000
50
42.6478514
51
317.3721437
0
ARC
8
1
62
7
10
63.7460480
20
233.2304382
40
13.0000000
50
322.3632635
51
357.5665775
0
LINE
8
1
62
7
10
69.7460480
20
239.2830658
11
69.7460480
21
226.2304382
0
LINE
8
1
62
7
10
23.7460461
20
225.2304382
11
23.7460461
21
227.2304382
0
LINE
8
1
62
7
10
23.7460461
20
227.2304382
11
34.7460480
21
227.2304382
0
LINE
8
1
62
7
10
34.7460480
20
225.2304382
11
23.7460461
21
225.2304382
0
LINE
8
1
62
7
10
69.7460480
20
225.2304382
11
57.7460480
21
225.2304382
0
LINE
8
1
62
7
10
57.7460480
20
226.2304382
11
69.7460480
21
226.2304382
0
POLYLINE
8
1
62
7
70
1
66
1
40
0.0000000
41
0.0000000
0
VERTEX
8
1
10
58.7460480
20
224.2304382
0
VERTEX
8
1
10
58.7460480
20
225.2304382
0
VERTEX
8
1
10
59.7460480
20
225.2304382
0
VERTEX
8
1
10
59.7460480
20
224.2304382
0
SEQEND
8
1
0
POLYLINE
8
1
62
7
70
1
66
1
40
0.0000000
41
0.0000000
0
VERTEX
8
1
10
67.7460480
20
224.2304382
0
VERTEX
8
1
10
67.7460480
20
225.2304382
0
VERTEX
8
1
10
68.7460480
20
225.2304382
0
VERTEX
8
1
10
68.7460480
20
224.2304382
0
SEQEND
8
1
0
LINE
8
1
62
7
10
19.7460461
20
260.2304382
11
19.7460461
21
248.2304382
0
LINE
8
1
62
7
10
28.7460461
20
249.2304382
11
28.7460461
21
248.2304382
0
LINE
8
1
62
7
10
18.7460461
20
248.2304382
11
18.7460461
21
247.2304382
0
LINE
8
1
62
7
10
18.7460461
20
247.2304382
11
22.7460461
21
247.2304382
0
LINE
8
1
62
7
10
22.7460461
20
247.2304382
11
25.7460461
21
248.2304382
0
LINE
8
1
62
7
10
25.7460461
20
248.2304382
11
28.7460461
21
248.2304382
0
LINE
8
1
62
7
10
28.7460461
20
259.2304382
11
28.7460461
21
263.2304382
0
LINE
8
1
62
7
10
28.7460461
20
263.2304382
11
24.7460461
21
263.2304382
0
POLYLINE
8
1
62
7
70
0
66
1
40
0.0000000
41
0.0000000
0
VERTEX
8
1
10
29.7460461
20
259.2304382
0
VERTEX
8
1
10
26.7460461
20
259.2304382
0
VERTEX
8
1
10
19.7460461
20
260.2304382
0
VERTEX
8
1
10
16.7460461
20
260.2304382
0
VERTEX
8
1
10
16.7460461
20
248.2304382
0
VERTEX
8
1
10
19.7460461
20
248.2304382
0
VERTEX
8
1
10
26.7460461
20
249.2304382
0
VERTEX
8
1
10
29.7460461
20
249.2304382
0
SEQEND
8
1
0
ARC
8
1
62
7
10
38.7460480
20
250.2304382
40
1.0000000
50
89.9999957
51
180.0000050
0
ARC
8
1
62
7
10
37.7460480
20
251.2304382
40
2.0000000
50
89.9999957
51
180.0000050
0
LINE
8
1
62
7
10
38.7460480
20
251.2304382
11
44.7460480
21
251.2304382
0
POLYLINE
8
1
62
7
70
0
66
1
40
0.0000000
41
0.0000000
0
VERTEX
8
1
10
35.7460480
20
261.2304382
0
VERTEX
8
1
10
29.7460461
20
261.2304382
0
VERTEX
8
1
10
29.7460461
20
259.2304382
0
VERTEX
8
1
10
31.7460461
20
259.2304382
0
VERTEX
8
1
10
31.7460461
20
249.2304382
0
VERTEX
8
1
10
29.7460461
20
249.2304382
0
VERTEX
8
1
10
29.7460461
20
247.2304382
0
VERTEX
8
1
10
35.7460480
20
247.2304382
0
SEQEND
8
1
0
LINE
8
1
62
7
10
35.7460480
20
228.2304382
11
35.7460480
21
251.2304382
0
LINE
8
1
62
7
10
37.7460480
20
250.2304382
11
37.7460480
21
228.2304382
0
POLYLINE
8
1
62
7
70
0
66
1
40
0.0000000
41
0.0000000
0
VERTEX
8
1
10
58.7460480
20
240.2304382
0
VERTEX
8
1
10
58.7460480
20
230.2304382
0
VERTEX
8
1
10
61.7460480
20
230.2304382
0
VERTEX
8
1
10
63.7460480
20
229.2304382
0
VERTEX
8
1
10
65.7460480
20
230.2304382
0
VERTEX
8
1
10
68.7460480
20
230.2304382
0
VERTEX
8
1
10
68.7460480
20
240.2304382
0
SEQEND
8
1
0
POLYLINE
8
1
62
7
70
0
66
1
40
0.0000000
41
0.0000000
0
VERTEX
8
1
10
66.7460480
20
236.2304382
0
VERTEX
8
1
10
66.7460480
20
236.2304382
0
VERTEX
8
1
10
60.7460480
20
236.2304382
0
VERTEX
8
1
10
60.7460480
20
242.2304382
0
VERTEX
8
1
10
66.7460480
20
242.2304382
0
VERTEX
8
1
10
66.7460480
20
236.2304382
0
SEQEND
8
1
0
LINE
8
1
62
7
10
57.7460480
20
241.2304382
11
60.7460480
21
241.2304382
0
LINE
8
1
62
7
10
57.7460480
20
240.2304382
11
60.7460480
21
240.2304382
0
POLYLINE
8
1
62
7
70
1
66
1
40
0.0000000
41
0.0000000
0
VERTEX
8
1
10
58.7460480
20
241.2304382
0
VERTEX
8
1
10
58.7460480
20
242.2304382
0
VERTEX
8
1
10
59.7460480
20
242.2304382
0
VERTEX
8
1
10
59.7460480
20
241.2304382
0
SEQEND
8
1
0
LINE
8
1
62
7
10
66.7460480
20
241.2304382
11
69.7460480
21
241.2304382
0
LINE
8
1
62
7
10
66.7460480
20
240.2304382
11
69.7460480
21
240.2304382
0
POLYLINE
8
1
62
7
70
1
66
1
40
0.0000000
41
0.0000000
0
VERTEX
8
1
10
67.7460480
20
241.2304382
0
VERTEX
8
1
10
67.7460480
20
242.2304382
0
VERTEX
8
1
10
68.7460480
20
242.2304382
0
VERTEX
8
1
10
68.7460480
20
241.2304382
0
SEQEND
8
1
0
ARC
8
1
62
7
10
63.7460480
20
233.2304382
40
13.0000000
50
6.9180369
51
37.7181248
0
LINE
8
2
62
1
10
44.7460480
20
251.2304382
11
44.7460480
21
253.2304382
0
LINE
8
1
62
7
10
24.7460461
20
263.2304382
11
21.4960556
21
259.9804382
0
POLYLINE
8
1
62
7
70
0
66
1
40
0.0000000
41
0.0000000
0
VERTEX
8
1
10
37.7460480
20
247.9357147
0
VERTEX
8
1
10
52.7460480
20
253.2304382
0
SEQEND
8
1
0
LINE
8
4
62
1
6
AXES
10
96.7460480
20
257.2304382
11
96.7460480
21
203.2304382
0
ARC
8
1
62
7
10
129.7460480
20
233.2304382
40
16.0000000
50
216.5533333
51
143.4609791
0
ARC
8
1
62
7
10
129.7460480
20
233.2304382
40
18.0000000
50
297.2660339
51
146.2417814
0
ARC
8
1
62
7
10
129.7460480
20
230.2304382
40
4.1231055
50
180.0000050
51
359.9999827
0
LINE
8
1
62
7
10
124.7460480
20
240.2304382
11
105.7460480
21
222.2304382
0
POLYLINE
8
1
62
7
70
1
66
1
40
0.0000000
41
0.0000000
0
VERTEX
8
1
10
90.7460480
20
226.2304382
0
VERTEX
8
1
10
90.7460480
20
235.2304382
0
VERTEX
8
1
10
102.7460480
20
235.2304382
0
VERTEX
8
1
10
102.7460480
20
226.2304382
0
SEQEND
8
1
0
LINE
8
1
62
7
10
135.7460480
20
225.2304382
11
135.7460480
21
241.2304382
0
ARC
8
1
62
7
10
129.7460480
20
233.2304382
40
13.0000000
50
222.6278577
51
137.3521536
0
ARC
8
1
62
7
10
63.7460480
20
233.2304382
40
18.0000000
50
329.5860792
51
344.8779712
0
ARC
8
1
62
7
10
129.7460480
20
233.2304382
40
13.0000000
50
182.4334238
51
217.6367379
0
ARC
8
1
62
7
10
129.7460480
20
233.2304382
40
16.0000000
50
191.2133861
51
212.7482896
0
ARC
8
1
62
7
10
129.7460480
20
233.2304382
40
18.0000000
50
195.1220302
51
210.4139221
0
LINE
8
1
62
7
10
105.7460480
20
245.2304382
11
105.7460480
21
221.2304382
0
LINE
8
1
62
7
10
87.7460480
20
244.2304382
11
87.7460480
21
222.2304382
0
LINE
8
1
62
7
10
105.7460480
20
244.2304382
11
105.7460480
21
222.2304382
0
LINE
8
1
62
7
10
123.7460480
20
239.2830658
11
123.7460480
21
226.2304382
0
LINE
8
1
62
7
10
122.8460388
20
240.4304352
11
105.7460480
21
224.2304382
0
ARC
8
1
62
7
10
129.7460480
20
233.2304382
40
18.0000000
50
213.7071388
51
242.7398414
0
LINE
8
1
62
7
10
123.7460480
20
225.2304382
11
135.7460480
21
225.2304382
0
LINE
8
1
62
7
10
135.7460480
20
226.2304382
11
123.7460480
21
226.2304382
0
POLYLINE
8
1
62
7
70
1
66
1
40
0.0000000
41
0.0000000
0
VERTEX
8
1
10
88.7460480
20
222.2304382
0
VERTEX
8
1
10
88.7460480
20
226.2304382
0
VERTEX
8
1
10
104.7460480
20
226.2304382
0
VERTEX
8
1
10
104.7460480
20
222.2304382
0
SEQEND
8
1
0
LINE
8
1
62
7
10
89.7460480
20
226.2304382
11
89.7460480
21
223.2304382
0
LINE
8
1
62
7
10
103.7460480
20
223.2304382
11
103.7460480
21
226.2304382
0
LINE
8
1
62
7
10
123.7460480
20
226.2304382
11
105.7460480
21
222.2304382
0
LINE
8
1
62
7
10
87.7460480
20
221.2304382
11
105.7460480
21
221.2304382
0
LINE
8
1
62
7
10
87.7460480
20
222.2304382
11
105.7460480
21
222.2304382
0
LINE
8
1
62
7
10
89.7460480
20
223.2304382
11
103.7460480
21
223.2304382
0
POLYLINE
8
1
62
7
70
1
66
1
40
0.0000000
41
0.0000000
0
VERTEX
8
1
10
88.7460480
20
220.2304382
0
VERTEX
8
1
10
88.7460480
20
221.2304382
0
VERTEX
8
1
10
89.7460480
20
221.2304382
0
VERTEX
8
1
10
89.7460480
20
220.2304382
0
SEQEND
8
1
0
POLYLINE
8
1
62
7
70
1
66
1
40
0.0000000
41
0.0000000
0
VERTEX
8
1
10
103.7460480
20
220.2304382
0
VERTEX
8
1
10
103.7460480
20
221.2304382
0
VERTEX
8
1
10
104.7460480
20
221.2304382
0
VERTEX
8
1
10
104.7460480
20
220.2304382
0
SEQEND
8
1
0
LINE
8
1
62
7
10
105.7460480
20
221.2304382
11
123.7460480
21
225.2304382
0
POLYLINE
8
1
62
7
70
1
66
1
40
0.0000000
41
0.0000000
0
VERTEX
8
1
10
125.7460480
20
224.2304382
0
VERTEX
8
1
10
125.7460480
20
225.2304382
0
VERTEX
8
1
10
124.7460480
20
225.2304382
0
VERTEX
8
1
10
124.7460480
20
224.2304382
0
SEQEND
8
1
0
LINE
8
1
62
7
10
90.7460480
20
227.2304382
11
102.7460480
21
227.2304382
0
POLYLINE
8
1
62
7
70
1
66
1
40
0.0000000
41
0.0000000
0
VERTEX
8
1
10
134.7460480
20
224.2304382
0
VERTEX
8
1
10
134.7460480
20
225.2304382
0
VERTEX
8
1
10
133.7460480
20
225.2304382
0
VERTEX
8
1
10
133.7460480
20
224.2304382
0
SEQEND
8
1
0
POLYLINE
8
1
62
7
70
0
66
1
40
0.0000000
41
0.0000000
0
VERTEX
8
1
10
134.7460480
20
240.2304382
0
VERTEX
8
1
10
134.7460480
20
230.2304382
0
VERTEX
8
1
10
131.7460480
20
230.2304382
0
VERTEX
8
1
10
129.7460480
20
229.2304382
0
VERTEX
8
1
10
127.7460480
20
230.2304382
0
VERTEX
8
1
10
124.7460480
20
230.2304382
0
VERTEX
8
1
10
124.7460480
20
240.2304382
0
SEQEND
8
1
0
LINE
8
1
62
7
10
135.7460480
20
241.2304382
11
132.7460480
21
241.2304382
0
LINE
8
1
62
7
10
135.7460480
20
240.2304382
11
132.7460480
21
240.2304382
0
LINE
8
1
62
7
10
90.7460480
20
232.2304382
11
102.7460480
21
232.2304382
0
LINE
8
1
62
7
10
90.7460480
20
231.2304382
11
102.7460480
21
231.2304382
0
LINE
8
1
62
7
10
90.7460480
20
230.2304382
11
102.7460480
21
230.2304382
0
LINE
8
1
62
7
10
90.7460480
20
229.2304382
11
102.7460480
21
229.2304382
0
LINE
8
1
62
7
10
90.7460480
20
228.2304382
11
102.7460480
21
228.2304382
0
LINE
8
1
62
7
10
90.7460480
20
233.2304382
11
102.7460480
21
233.2304382
0
LINE
8
1
62
7
10
90.7460480
20
234.2304382
11
102.7460480
21
234.2304382
0
LINE
8
1
62
7
10
88.7460480
20
237.2304382
11
88.7460480
21
241.2304382
0
LINE
8
1
62
7
10
104.7460480
20
241.2304382
11
104.7460480
21
237.2304382
0
LINE
8
1
62
7
10
89.7460480
20
237.2304382
11
89.7460480
21
241.2304382
0
LINE
8
1
62
7
10
103.7460480
20
241.2304382
11
103.7460480
21
237.2304382
0
LINE
8
1
62
7
10
104.7460480
20
237.2304382
11
104.7460480
21
241.2304382
0
ARC
8
1
62
7
10
90.7460480
20
237.2304382
40
2.0000000
50
180.0000050
51
270.0000007
0
ARC
8
1
62
7
10
102.7460480
20
237.2304382
40
2.0000000
50
270.0000007
51
0.0000000
0
LINE
8
1
62
7
10
102.7460480
20
235.2304382
11
90.7460480
21
235.2304382
0
ARC
8
1
62
7
10
90.7460480
20
237.2304382
40
1.0000000
50
180.0000050
51
270.0000007
0
LINE
8
1
62
7
10
102.7460480
20
236.2304382
11
90.7460480
21
236.2304382
0
ARC
8
1
62
7
10
102.7460480
20
237.2304382
40
1.0000000
50
270.0000007
51
0.0000000
0
POLYLINE
8
1
62
7
70
0
66
1
40
0.0000000
41
0.0000000
0
VERTEX
8
1
10
126.7460480
20
236.2304382
0
VERTEX
8
1
10
126.7460480
20
236.2304382
0
VERTEX
8
1
10
132.7460480
20
236.2304382
0
VERTEX
8
1
10
132.7460480
20
242.2304382
0
VERTEX
8
1
10
126.7460480
20
242.2304382
0
VERTEX
8
1
10
126.7460480
20
236.2304382
0
SEQEND
8
1
0
LINE
8
1
62
7
10
126.7460480
20
241.2304382
11
123.7460480
21
241.2304382
0
LINE
8
1
62
7
10
126.7460480
20
240.2304382
11
123.7460480
21
240.2304382
0
POLYLINE
8
1
62
7
70
1
66
1
40
0.0000000
41
0.0000000
0
VERTEX
8
1
10
125.7460480
20
241.2304382
0
VERTEX
8
1
10
125.7460480
20
242.2304382
0
VERTEX
8
1
10
124.7460480
20
242.2304382
0
VERTEX
8
1
10
124.7460480
20
241.2304382
0
SEQEND
8
1
0
POLYLINE
8
1
62
7
70
1
66
1
40
0.0000000
41
0.0000000
0
VERTEX
8
1
10
134.7460480
20
241.2304382
0
VERTEX
8
1
10
134.7460480
20
242.2304382
0
VERTEX
8
1
10
133.7460480
20
242.2304382
0
VERTEX
8
1
10
133.7460480
20
241.2304382
0
SEQEND
8
1
0
ARC
8
1
62
7
10
63.7460480
20
233.2304382
40
18.0000000
50
350.3266590
51
30.4126160
0
ARC
8
1
62
7
10
129.7460480
20
233.2304382
40
13.0000000
50
142.2818699
51
173.0819659
0
ARC
8
1
62
7
10
129.7460480
20
233.2304382
40
16.0000000
50
147.2292901
51
184.5867912
0
ARC
8
1
62
7
10
129.7460480
20
233.2304382
40
18.0000000
50
149.5873856
51
189.6733424
0
LINE
8
1
62
7
10
87.7460480
20
245.2304382
11
105.7460480
21
245.2304382
0
POLYLINE
8
1
62
7
70
1
66
1
40
0.0000000
41
0.0000000
0
VERTEX
8
1
10
88.7460480
20
245.2304382
0
VERTEX
8
1
10
88.7460480
20
246.2304382
0
VERTEX
8
1
10
89.7460480
20
246.2304382
0
VERTEX
8
1
10
89.7460480
20
245.2304382
0
SEQEND
8
1
0
POLYLINE
8
1
62
7
70
1
66
1
40
0.0000000
41
0.0000000
0
VERTEX
8
1
10
103.7460480
20
245.2304382
0
VERTEX
8
1
10
103.7460480
20
246.2304382
0
VERTEX
8
1
10
104.7460480
20
246.2304382
0
VERTEX
8
1
10
104.7460480
20
245.2304382
0
SEQEND
8
1
0
POLYLINE
8
1
62
7
70
1
66
1
40
0.0000000
41
0.0000000
0
VERTEX
8
1
10
89.7460480
20
245.2304382
0
VERTEX
8
1
10
89.7460480
20
247.2304382
0
VERTEX
8
1
10
103.7460480
20
247.2304382
0
VERTEX
8
1
10
103.7460480
20
245.2304382
0
SEQEND
8
1
0
LINE
8
1
62
7
10
123.7460480
20
241.2304382
11
105.7460480
21
245.2304382
0
LINE
8
1
62
7
10
123.7460480
20
240.2304382
11
105.7460480
21
244.2304382
0
ARC
8
1
62
7
10
90.7460480
20
241.2304382
40
2.0000000
50
90.0000025
51
180.0000050
0
LINE
8
1
62
7
10
90.7460480
20
243.2304382
11
102.7460480
21
243.2304382
0
ARC
8
1
62
7
10
102.7460480
20
241.2304382
40
2.0000000
50
0.0000000
51
90.0000025
0
ARC
8
1
62
7
10
90.7460480
20
241.2304382
40
1.0000000
50
90.0000025
51
180.0000050
0
LINE
8
1
62
7
10
90.7460480
20
242.2304382
11
102.7460480
21
242.2304382
0
ARC
8
1
62
7
10
102.7460480
20
241.2304382
40
1.0000000
50
0.0000000
51
90.0000025
0
LINE
8
1
62
7
10
87.7460480
20
244.2304382
11
105.7460480
21
244.2304382
0
POLYLINE
8
1
62
7
70
1
66
1
40
0.0000000
41
0.0000000
0
VERTEX
8
1
10
90.7460480
20
247.2304382
0
VERTEX
8
1
10
90.7460480
20
249.2304382
0
VERTEX
8
1
10
102.7460480
20
249.2304382
0
VERTEX
8
1
10
102.7460480
20
247.2304382
0
SEQEND
8
1
0
POLYLINE
8
1
62
7
70
1
66
1
40
0.0000000
41
0.0000000
0
VERTEX
8
1
10
87.7460480
20
249.2304382
0
VERTEX
8
1
10
87.7460480
20
250.2304382
0
VERTEX
8
1
10
105.7460480
20
250.2304382
0
VERTEX
8
1
10
105.7460480
20
249.2304382
0
SEQEND
8
1
0
POLYLINE
8
2
62
1
70
1
66
1
40
0.0000000
41
0.0000000
0
VERTEX
8
2
10
86.7460480
20
250.2304382
0
VERTEX
8
2
10
86.7460480
20
253.2304382
0
VERTEX
8
2
10
106.7460480
20
253.2304382
0
VERTEX
8
2
10
106.7460480
20
250.2304382
0
SEQEND
8
2
0
LINE
8
1
62
7
10
248.7460480
20
240.2304382
11
229.7460480
21
222.2304382
0
LINE
8
1
62
7
10
247.7460480
20
226.2304382
11
229.7460480
21
222.2304382
0
LINE
8
1
62
7
10
229.7460480
20
221.2304382
11
247.7460480
21
225.2304382
0
LINE
8
1
62
7
10
247.7460480
20
241.2304382
11
229.7460480
21
245.2304382
0
LINE
8
1
62
7
10
247.7460480
20
240.2304382
11
229.7460480
21
244.2304382
0
LINE
8
1
62
7
10
246.8460388
20
240.4304352
11
229.7460480
21
224.2304382
0
LINE
8
4
62
1
6
AXES
10
220.7460480
20
257.2304382
11
220.7460480
21
203.2304382
0
ARC
8
1
62
7
10
187.7460480
20
233.2304382
40
18.0000000
50
33.7582202
51
242.7141053
0
ARC
8
1
62
7
10
187.7460480
20
233.2304382
40
16.0000000
50
36.5390259
51
323.4466681
0
LINE
8
1
62
7
10
192.7460480
20
240.2304382
11
211.7460480
21
222.2304382
0
LINE
8
1
62
7
10
181.7460480
20
225.2304382
11
181.7460480
21
241.2304382
0
ARC
8
1
62
7
10
187.7460480
20
230.2304382
40
4.1231055
50
180.0000050
51
0.0000000
0
LINE
8
1
62
7
10
211.7460480
20
244.2304382
11
211.7460480
21
222.2304382
0
LINE
8
1
62
7
10
229.7460480
20
245.2304382
11
229.7460480
21
221.2304382
0
LINE
8
1
62
7
10
229.7460480
20
244.2304382
11
229.7460480
21
222.2304382
0
POLYLINE
8
1
62
7
70
1
66
1
40
0.0000000
41
0.0000000
0
VERTEX
8
1
10
214.7460480
20
226.2304382
0
VERTEX
8
1
10
214.7460480
20
235.2304382
0
VERTEX
8
1
10
226.7460480
20
235.2304382
0
VERTEX
8
1
10
226.7460480
20
226.2304382
0
SEQEND
8
1
0
ARC
8
1
62
7
10
187.7460480
20
233.2304382
40
13.0000000
50
42.6478514
51
317.3721437
0
ARC
8
1
62
7
10
187.7460480
20
233.2304382
40
18.0000000
50
329.5860792
51
344.8779712
0
ARC
8
1
62
7
10
187.7460480
20
233.2304382
40
16.0000000
50
327.2517118
51
348.7866152
0
ARC
8
1
62
7
10
187.7460480
20
233.2304382
40
13.0000000
50
322.3632635
51
357.5665775
0
LINE
8
1
62
7
10
193.7460480
20
239.2830658
11
193.7460480
21
226.2304382
0
LINE
8
1
62
7
10
194.6460571
20
240.4304352
11
211.7460480
21
224.2304382
0
ARC
8
1
62
7
10
187.7460480
20
233.2304382
40
18.0000000
50
297.3408654
51
326.2928625
0
LINE
8
1
62
7
10
193.7460480
20
226.2304382
11
211.7460480
21
222.2304382
0
LINE
8
1
62
7
10
211.7460480
20
221.2304382
11
193.7460480
21
225.2304382
0
LINE
8
1
62
7
10
193.7460480
20
225.2304382
11
181.7460480
21
225.2304382
0
POLYLINE
8
1
62
7
70
1
66
1
40
0.0000000
41
0.0000000
0
VERTEX
8
1
10
182.7460480
20
224.2304382
0
VERTEX
8
1
10
182.7460480
20
225.2304382
0
VERTEX
8
1
10
183.7460480
20
225.2304382
0
VERTEX
8
1
10
183.7460480
20
224.2304382
0
SEQEND
8
1
0
POLYLINE
8
1
62
7
70
1
66
1
40
0.0000000
41
0.0000000
0
VERTEX
8
1
10
191.7460480
20
224.2304382
0
VERTEX
8
1
10
191.7460480
20
225.2304382
0
VERTEX
8
1
10
192.7460480
20
225.2304382
0
VERTEX
8
1
10
192.7460480
20
224.2304382
0
SEQEND
8
1
0
LINE
8
1
62
7
10
181.7460480
20
226.2304382
11
193.7460480
21
226.2304382
0
LINE
8
1
62
7
10
211.7460480
20
221.2304382
11
229.7460480
21
221.2304382
0
LINE
8
1
62
7
10
211.7460480
20
222.2304382
11
229.7460480
21
222.2304382
0
POLYLINE
8
1
62
7
70
1
66
1
40
0.0000000
41
0.0000000
0
VERTEX
8
1
10
212.7460480
20
222.2304382
0
VERTEX
8
1
10
212.7460480
20
226.2304382
0
VERTEX
8
1
10
228.7460480
20
226.2304382
0
VERTEX
8
1
10
228.7460480
20
222.2304382
0
SEQEND
8
1
0
LINE
8
1
62
7
10
213.7460480
20
223.2304382
11
227.7460480
21
223.2304382
0
LINE
8
1
62
7
10
214.7460480
20
227.2304382
11
226.7460480
21
227.2304382
0
LINE
8
1
62
7
10
213.7460480
20
226.2304382
11
213.7460480
21
223.2304382
0
POLYLINE
8
1
62
7
70
1
66
1
40
0.0000000
41
0.0000000
0
VERTEX
8
1
10
212.7460480
20
220.2304382
0
VERTEX
8
1
10
212.7460480
20
221.2304382
0
VERTEX
8
1
10
213.7460480
20
221.2304382
0
VERTEX
8
1
10
213.7460480
20
220.2304382
0
SEQEND
8
1
0
LINE
8
1
62
7
10
227.7460480
20
223.2304382
11
227.7460480
21
226.2304382
0
POLYLINE
8
1
62
7
70
1
66
1
40
0.0000000
41
0.0000000
0
VERTEX
8
1
10
227.7460480
20
220.2304382
0
VERTEX
8
1
10
227.7460480
20
221.2304382
0
VERTEX
8
1
10
228.7460480
20
221.2304382
0
VERTEX
8
1
10
228.7460480
20
220.2304382
0
SEQEND
8
1
0
LINE
8
1
62
7
10
193.7460480
20
241.2304382
11
211.7460480
21
245.2304382
0
POLYLINE
8
1
62
7
70
0
66
1
40
0.0000000
41
0.0000000
0
VERTEX
8
1
10
182.7460480
20
240.2304382
0
VERTEX
8
1
10
182.7460480
20
230.2304382
0
VERTEX
8
1
10
185.7460480
20
230.2304382
0
VERTEX
8
1
10
187.7460480
20
229.2304382
0
VERTEX
8
1
10
189.7460480
20
230.2304382
0
VERTEX
8
1
10
192.7460480
20
230.2304382
0
VERTEX
8
1
10
192.7460480
20
240.2304382
0
SEQEND
8
1
0
POLYLINE
8
1
62
7
70
0
66
1
40
0.0000000
41
0.0000000
0
VERTEX
8
1
10
190.7460480
20
236.2304382
0
VERTEX
8
1
10
190.7460480
20
236.2304382
0
VERTEX
8
1
10
184.7460480
20
236.2304382
0
VERTEX
8
1
10
184.7460480
20
242.2304382
0
VERTEX
8
1
10
190.7460480
20
242.2304382
0
VERTEX
8
1
10
190.7460480
20
236.2304382
0
SEQEND
8
1
0
LINE
8
1
62
7
10
181.7460480
20
241.2304382
11
184.7460480
21
241.2304382
0
LINE
8
1
62
7
10
190.7460480
20
241.2304382
11
193.7460480
21
241.2304382
0
LINE
8
1
62
7
10
181.7460480
20
240.2304382
11
184.7460480
21
240.2304382
0
LINE
8
1
62
7
10
190.7460480
20
240.2304382
11
193.7460480
21
240.2304382
0
POLYLINE
8
1
62
7
70
1
66
1
40
0.0000000
41
0.0000000
0
VERTEX
8
1
10
182.7460480
20
241.2304382
0
VERTEX
8
1
10
182.7460480
20
242.2304382
0
VERTEX
8
1
10
183.7460480
20
242.2304382
0
VERTEX
8
1
10
183.7460480
20
241.2304382
0
SEQEND
8
1
0
POLYLINE
8
1
62
7
70
1
66
1
40
0.0000000
41
0.0000000
0
VERTEX
8
1
10
191.7460480
20
241.2304382
0
VERTEX
8
1
10
191.7460480
20
242.2304382
0
VERTEX
8
1
10
192.7460480
20
242.2304382
0
VERTEX
8
1
10
192.7460480
20
241.2304382
0
SEQEND
8
1
0
LINE
8
1
62
7
10
214.7460480
20
232.2304382
11
226.7460480
21
232.2304382
0
LINE
8
1
62
7
10
214.7460480
20
231.2304382
11
226.7460480
21
231.2304382
0
LINE
8
1
62
7
10
214.7460480
20
230.2304382
11
226.7460480
21
230.2304382
0
LINE
8
1
62
7
10
214.7460480
20
229.2304382
11
226.7460480
21
229.2304382
0
LINE
8
1
62
7
10
214.7460480
20
228.2304382
11
226.7460480
21
228.2304382
0
LINE
8
1
62
7
10
214.7460480
20
233.2304382
11
226.7460480
21
233.2304382
0
LINE
8
1
62
7
10
214.7460480
20
234.2304382
11
226.7460480
21
234.2304382
0
LINE
8
1
62
7
10
211.7460480
20
245.2304382
11
229.7460480
21
245.2304382
0
LINE
8
1
62
7
10
211.7460480
20
244.2304382
11
229.7460480
21
244.2304382
0
LINE
8
1
62
7
10
212.7460480
20
237.2304382
11
212.7460480
21
241.2304382
0
LINE
8
1
62
7
10
226.7460480
20
235.2304382
11
214.7460480
21
235.2304382
0
LINE
8
1
62
7
10
226.7460480
20
236.2304382
11
214.7460480
21
236.2304382
0
LINE
8
1
62
7
10
214.7460480
20
243.2304382
11
226.7460480
21
243.2304382
0
LINE
8
1
62
7
10
214.7460480
20
242.2304382
11
226.7460480
21
242.2304382
0
LINE
8
1
62
7
10
213.7460480
20
237.2304382
11
213.7460480
21
241.2304382
0
ARC
8
1
62
7
10
214.7460480
20
237.2304382
40
2.0000000
50
180.0000050
51
270.0000007
0
ARC
8
1
62
7
10
214.7460480
20
237.2304382
40
1.0000000
50
180.0000050
51
270.0000007
0
ARC
8
1
62
7
10
214.7460480
20
241.2304382
40
2.0000000
50
90.0000025
51
180.0000050
0
ARC
8
1
62
7
10
214.7460480
20
241.2304382
40
1.0000000
50
90.0000025
51
180.0000050
0
LINE
8
1
62
7
10
228.7460480
20
241.2304382
11
228.7460480
21
237.2304382
0
LINE
8
1
62
7
10
227.7460480
20
241.2304382
11
227.7460480
21
237.2304382
0
LINE
8
1
62
7
10
228.7460480
20
237.2304382
11
228.7460480
21
241.2304382
0
ARC
8
1
62
7
10
226.7460480
20
237.2304382
40
2.0000000
50
270.0000007
51
0.0000000
0
ARC
8
1
62
7
10
226.7460480
20
237.2304382
40
1.0000000
50
270.0000007
51
0.0000000
0
ARC
8
1
62
7
10
226.7460480
20
241.2304382
40
2.0000000
50
0.0000000
51
90.0000025
0
ARC
8
1
62
7
10
226.7460480
20
241.2304382
40
1.0000000
50
0.0000000
51
90.0000025
0
POLYLINE
8
1
62
7
70
1
66
1
40
0.0000000
41
0.0000000
0
VERTEX
8
1
10
213.7460480
20
245.2304382
0
VERTEX
8
1
10
213.7460480
20
247.2304382
0
VERTEX
8
1
10
227.7460480
20
247.2304382
0
VERTEX
8
1
10
227.7460480
20
245.2304382
0
SEQEND
8
1
0
POLYLINE
8
1
62
7
70
1
66
1
40
0.0000000
41
0.0000000
0
VERTEX
8
1
10
212.7460480
20
245.2304382
0
VERTEX
8
1
10
212.7460480
20
246.2304382
0
VERTEX
8
1
10
213.7460480
20
246.2304382
0
VERTEX
8
1
10
213.7460480
20
245.2304382
0
SEQEND
8
1
0
POLYLINE
8
1
62
7
70
1
66
1
40
0.0000000
41
0.0000000
0
VERTEX
8
1
10
227.7460480
20
245.2304382
0
VERTEX
8
1
10
227.7460480
20
246.2304382
0
VERTEX
8
1
10
228.7460480
20
246.2304382
0
VERTEX
8
1
10
228.7460480
20
245.2304382
0
SEQEND
8
1
0
ARC
8
1
62
7
10
187.7460480
20
233.2304382
40
18.0000000
50
350.3266590
51
30.4126160
0
ARC
8
1
62
7
10
187.7460480
20
233.2304382
40
16.0000000
50
355.4132101
51
32.7707115
0
ARC
8
1
62
7
10
187.7460480
20
233.2304382
40
13.0000000
50
6.9180369
51
37.7181248
0
POLYLINE
8
1
62
7
70
1
66
1
40
0.0000000
41
0.0000000
0
VERTEX
8
1
10
214.7460480
20
247.2304382
0
VERTEX
8
1
10
214.7460480
20
249.2304382
0
VERTEX
8
1
10
226.7460480
20
249.2304382
0
VERTEX
8
1
10
226.7460480
20
247.2304382
0
SEQEND
8
1
0
POLYLINE
8
1
62
7
70
1
66
1
40
0.0000000
41
0.0000000
0
VERTEX
8
1
10
211.7460480
20
249.2304382
0
VERTEX
8
1
10
211.7460480
20
250.2304382
0
VERTEX
8
1
10
229.7460480
20
250.2304382
0
VERTEX
8
1
10
229.7460480
20
249.2304382
0
SEQEND
8
1
0
POLYLINE
8
2
62
1
70
1
66
1
40
0.0000000
41
0.0000000
0
VERTEX
8
2
10
210.7460480
20
250.2304382
0
VERTEX
8
2
10
210.7460480
20
253.2304382
0
VERTEX
8
2
10
230.7460480
20
253.2304382
0
VERTEX
8
2
10
230.7460480
20
250.2304382
0
SEQEND
8
2
0
LINE
8
1
62
7
10
193.7460480
20
240.2304382
11
211.7460480
21
244.2304382
0
ARC
8
1
62
7
10
253.7460480
20
233.2304382
40
16.0000000
50
216.5533333
51
143.4609791
0
ARC
8
1
62
7
10
253.7460480
20
233.2304382
40
18.0000000
50
297.2660339
51
146.2417814
0
LINE
8
1
62
7
10
259.7460327
20
225.2304382
11
259.7460327
21
241.2304382
0
ARC
8
1
62
7
10
253.7460480
20
230.2304382
40
4.1231055
50
180.0000050
51
359.9999827
0
ARC
8
1
62
7
10
253.7460480
20
233.2304382
40
13.0000000
50
222.6278577
51
137.3521536
0
ARC
8
1
62
7
10
253.7460480
20
233.2304382
40
13.0000000
50
182.4334238
51
217.6367379
0
ARC
8
1
62
7
10
253.7460480
20
233.2304382
40
16.0000000
50
191.2133861
51
212.7482896
0
ARC
8
1
62
7
10
253.7460480
20
233.2304382
40
18.0000000
50
195.1220302
51
210.4139221
0
LINE
8
1
62
7
10
247.7460480
20
239.2830658
11
247.7460480
21
226.2304382
0
ARC
8
1
62
7
10
253.7460480
20
233.2304382
40
18.0000000
50
213.7071388
51
242.7339675
0
LINE
8
1
62
7
10
247.7460480
20
225.2304382
11
259.7460327
21
225.2304382
0
POLYLINE
8
1
62
7
70
1
66
1
40
0.0000000
41
0.0000000
0
VERTEX
8
1
10
249.7460480
20
224.2304382
0
VERTEX
8
1
10
249.7460480
20
225.2304382
0
VERTEX
8
1
10
248.7460480
20
225.2304382
0
VERTEX
8
1
10
248.7460480
20
224.2304382
0
SEQEND
8
1
0
POLYLINE
8
1
62
7
70
1
66
1
40
0.0000000
41
0.0000000
0
VERTEX
8
1
10
258.7460327
20
224.2304382
0
VERTEX
8
1
10
258.7460327
20
225.2304382
0
VERTEX
8
1
10
257.7460327
20
225.2304382
0
VERTEX
8
1
10
257.7460327
20
224.2304382
0
SEQEND
8
1
0
LINE
8
1
62
7
10
259.7460327
20
226.2304382
11
247.7460480
21
226.2304382
0
ARC
8
1
62
7
10
253.7460480
20
233.2304382
40
18.0000000
50
149.5873856
51
189.6733424
0
POLYLINE
8
1
62
7
70
0
66
1
40
0.0000000
41
0.0000000
0
VERTEX
8
1
10
258.7460327
20
240.2304382
0
VERTEX
8
1
10
258.7460327
20
230.2304382
0
VERTEX
8
1
10
255.7460480
20
230.2304382
0
VERTEX
8
1
10
253.7460480
20
229.2304382
0
VERTEX
8
1
10
251.7460480
20
230.2304382
0
VERTEX
8
1
10
248.7460480
20
230.2304382
0
VERTEX
8
1
10
248.7460480
20
240.2304382
0
SEQEND
8
1
0
POLYLINE
8
1
62
7
70
0
66
1
40
0.0000000
41
0.0000000
0
VERTEX
8
1
10
250.7460480
20
236.2304382
0
VERTEX
8
1
10
250.7460480
20
236.2304382
0
VERTEX
8
1
10
256.7460327
20
236.2304382
0
VERTEX
8
1
10
256.7460327
20
242.2304382
0
VERTEX
8
1
10
250.7460480
20
242.2304382
0
VERTEX
8
1
10
250.7460480
20
236.2304382
0
SEQEND
8
1
0
LINE
8
1
62
7
10
250.7460480
20
241.2304382
11
247.7460480
21
241.2304382
0
LINE
8
1
62
7
10
250.7460480
20
240.2304382
11
247.7460480
21
240.2304382
0
POLYLINE
8
1
62
7
70
1
66
1
40
0.0000000
41
0.0000000
0
VERTEX
8
1
10
249.7460480
20
241.2304382
0
VERTEX
8
1
10
249.7460480
20
242.2304382
0
VERTEX
8
1
10
248.7460480
20
242.2304382
0
VERTEX
8
1
10
248.7460480
20
241.2304382
0
SEQEND
8
1
0
LINE
8
1
62
7
10
259.7460327
20
241.2304382
11
256.7460327
21
241.2304382
0
LINE
8
1
62
7
10
259.7460327
20
240.2304382
11
256.7460327
21
240.2304382
0
POLYLINE
8
1
62
7
70
1
66
1
40
0.0000000
41
0.0000000
0
VERTEX
8
1
10
258.7460327
20
241.2304382
0
VERTEX
8
1
10
258.7460327
20
242.2304382
0
VERTEX
8
1
10
257.7460327
20
242.2304382
0
VERTEX
8
1
10
257.7460327
20
241.2304382
0
SEQEND
8
1
0
ARC
8
1
62
7
10
253.7460480
20
233.2304382
40
16.0000000
50
147.2292901
51
184.5867912
0
ARC
8
1
62
7
10
253.7460480
20
233.2304382
40
13.0000000
50
142.2818699
51
173.0819659
0
LINE
8
1
62
7
10
277.4531250
20
246.5233307
11
284.6572266
21
239.3192139
0
POLYLINE
8
1
62
7
70
1
66
1
40
0.0000000
41
0.0000000
0
VERTEX
8
1
10
273.2105103
20
246.5233307
0
VERTEX
8
1
10
276.0389404
20
249.3517609
0
VERTEX
8
1
10
278.1602173
20
247.2304382
0
VERTEX
8
1
10
275.3318176
20
244.4020081
0
SEQEND
8
1
0
LINE
8
1
62
7
10
276.7460327
20
248.6446533
11
273.9176025
21
245.8162231
0
LINE
8
1
62
7
10
283.7460327
20
234.2304382
11
291.7460327
21
234.2304382
0
POLYLINE
8
1
62
7
70
1
66
1
40
0.0000000
41
0.0000000
0
VERTEX
8
1
10
304.7460327
20
234.2304382
0
VERTEX
8
1
10
304.7460327
20
238.2304382
0
VERTEX
8
1
10
307.7460327
20
238.2304382
0
VERTEX
8
1
10
307.7460327
20
234.2304382
0
SEQEND
8
1
0
LINE
8
1
62
7
10
307.7460327
20
237.2304382
11
307.7460327
21
235.2304382
0
LINE
8
1
62
7
10
304.7460327
20
235.2304382
11
299.7460327
21
235.2304382
0
LINE
8
1
62
7
10
304.7460327
20
237.2304382
11
299.7460327
21
237.2304382
0
LINE
8
1
62
7
10
299.7460327
20
234.2304382
11
291.7460327
21
234.2304382
0
LINE
8
1
62
7
10
283.7460327
20
236.2304382
11
299.7460327
21
236.2304382
0
POLYLINE
8
1
62
7
70
1
66
1
40
0.0000000
41
0.0000000
0
VERTEX
8
1
10
287.7460327
20
244.2304382
0
VERTEX
8
1
10
287.7460327
20
250.2304382
0
VERTEX
8
1
10
295.7460327
20
250.2304382
0
VERTEX
8
1
10
295.7460327
20
244.2304382
0
SEQEND
8
1
0
POLYLINE
8
1
62
7
70
0
66
1
40
0.0000000
41
0.0000000
0
VERTEX
8
1
10
283.7460327
20
234.2304382
0
VERTEX
8
1
10
283.7460327
20
238.2304382
0
VERTEX
8
1
10
288.7460327
20
244.2304382
0
SEQEND
8
1
0
LINE
8
1
62
7
10
287.7460327
20
245.2304382
11
295.7460327
21
245.2304382
0
POLYLINE
8
1
62
7
70
0
66
1
40
0.0000000
41
0.0000000
0
VERTEX
8
1
10
299.7460327
20
234.2304382
0
VERTEX
8
1
10
299.7460327
20
238.2304382
0
VERTEX
8
1
10
294.7460327
20
244.2304382
0
SEQEND
8
1
0
LINE
8
1
62
7
10
306.7460327
20
249.2304382
11
295.7460327
21
249.2304382
0
LINE
8
1
62
7
10
287.7460327
20
249.2304382
11
279.7460327
21
249.2304382
0
LINE
8
1
62
7
10
279.7460327
20
249.2304382
11
276.7460327
21
253.2304382
0
LINE
8
1
62
7
10
276.0389404
20
245.1091156
11
283.7460327
21
237.4021301
0
LINE
8
1
62
7
10
275.3318176
20
248.6446533
11
270.7460327
21
253.2304382
0
LINE
8
1
62
7
10
273.9176025
20
247.2304382
11
267.9176025
21
253.2304382
0
TEXT
8
1
62
7
40
10.8000002
41
1.5000000
1
P. R. R.
7
ROMANC
72
0
10
138.4860535
20
284.2304382
0
LINE
8
2
62
1
10
189.7460480
20
321.2304382
11
49.6321640
21
282.8430786
0
LINE
8
2
62
1
10
286.7460327
20
265.2304382
11
35.7460480
21
265.2304382
0
LINE
8
1
62
7
10
144.7460480
20
314.7304382
11
166.0210419
21
314.7304382
0
LINE
8
1
62
7
10
144.7460480
20
315.7304382
11
166.0210419
21
315.7304382
0
LINE
8
1
62
7
10
127.7460480
20
335.5121155
11
187.5769501
21
352.3659058
0
LINE
8
1
62
7
10
126.7460480
20
333.2304382
11
188.1192169
21
350.5186462
0
POLYLINE
8
1
62
7
70
1
66
1
40
0.0000000
41
0.0000000
0
VERTEX
8
1
10
119.7460480
20
334.2304382
0
VERTEX
8
1
10
119.7460480
20
341.2304382
0
VERTEX
8
1
10
127.7460480
20
341.2304382
0
VERTEX
8
1
10
127.7460480
20
334.2304382
0
SEQEND
8
1
0
LINE
8
1
62
7
10
61.5769424
20
316.8729553
11
120.7460480
21
333.5402832
0
LINE
8
1
62
7
10
62.1192169
20
315.0256958
11
113.7460480
21
329.5684814
0
LINE
8
1
62
7
10
70.7460480
20
294.2304382
11
91.1960297
21
294.2304382
0
LINE
8
1
62
7
10
70.7460480
20
295.2304382
11
91.1960297
21
295.2304382
0
INSERT
8
1
2
ENGINE-G7
10
0.0000000
20
0.0000000
0
LINE
8
1
62
7
10
55.7460480
20
284.5181274
11
55.7460480
21
309.1726379
0
LINE
8
1
62
7
10
57.7460480
20
309.2504578
11
57.7460480
21
285.0660706
0
LINE
8
2
62
1
10
43.7460480
20
275.1274109
11
43.7460480
21
265.2304382
0
LINE
8
1
62
7
10
52.2460480
20
289.7304382
11
52.2460480
21
288.7304382
0
LINE
8
1
62
7
10
70.7460480
20
295.2304382
11
70.7460480
21
294.2304382
0
POLYLINE
8
1
62
7
70
0
66
1
40
0.0000000
41
0.0000000
0
VERTEX
8
1
10
57.7460480
20
289.7304382
0
VERTEX
8
1
10
71.7460480
20
289.7304382
0
SEQEND
8
1
0
LINE
8
1
62
7
10
52.2460480
20
289.7304382
11
55.7460480
21
289.7304382
0
LINE
8
1
62
7
10
52.2460480
20
288.7304382
11
55.7460480
21
288.7304382
0
ARC
8
2
62
1
10
51.7460480
20
275.1274109
40
8.0000000
50
105.3215102
51
180.0000050
0
POLYLINE
8
1
62
7
70
0
66
1
40
0.0000000
41
0.0000000
0
VERTEX
8
1
10
53.2460480
20
283.8331909
0
VERTEX
8
1
10
53.2460480
20
288.7304382
0
SEQEND
8
1
0
LINE
8
1
62
7
10
71.7460480
20
288.9016724
11
71.7460480
21
294.2304382
0
LINE
8
1
62
7
10
57.7460480
20
288.7304382
11
71.1210327
21
288.7304382
0
ARC
8
1
62
7
10
63.7460480
20
309.1726379
40
8.0000000
50
105.7320045
51
180.0000050
0
ARC
8
1
62
7
10
63.7460480
20
309.2504578
40
6.0000000
50
105.7320045
51
180.0000050
0
LINE
8
1
62
7
10
89.2460480
20
300.7304382
11
89.2460480
21
299.7304382
0
LINE
8
1
62
7
10
111.2710342
20
299.7304382
11
111.2710342
21
305.2304382
0
LINE
8
1
62
7
10
91.1960297
20
294.2304382
11
91.1960297
21
299.7304382
0
LINE
8
1
62
7
10
89.2460480
20
299.7304382
11
111.2710342
21
299.7304382
0
POLYLINE
8
1
62
7
70
1
66
1
40
0.0000000
41
0.0000000
0
VERTEX
8
1
10
116.7460480
20
322.2304382
0
VERTEX
8
1
10
116.7460480
20
328.2304382
0
VERTEX
8
1
10
130.7460480
20
328.2304382
0
VERTEX
8
1
10
130.7460480
20
322.2304382
0
SEQEND
8
1
0
LINE
8
1
62
7
10
131.7460480
20
331.2304382
11
131.7460480
21
313.2304382
0
LINE
8
1
62
7
10
115.7460480
20
313.2304382
11
115.7460480
21
331.2304382
0
POLYLINE
8
1
62
7
70
0
66
1
40
0.0000000
41
0.0000000
0
VERTEX
8
1
10
115.7460480
20
330.2304382
0
VERTEX
8
1
10
113.7460480
20
330.2304382
0
VERTEX
8
1
10
113.7460480
20
315.2304382
0
VERTEX
8
1
10
115.7460480
20
315.2304382
0
SEQEND
8
1
0
LINE
8
1
62
7
10
144.7460480
20
315.7304382
11
144.7460480
21
314.7304382
0
LINE
8
1
62
7
10
112.7460480
20
300.2052612
11
112.7460480
21
312.2304382
0
LINE
8
1
62
7
10
112.7460480
20
312.2304382
11
134.7460480
21
312.2304382
0
POLYLINE
8
1
62
7
70
0
66
1
40
0.0000000
41
0.0000000
0
VERTEX
8
1
10
114.7460480
20
312.2304382
0
VERTEX
8
1
10
114.7460480
20
313.2304382
0
VERTEX
8
1
10
132.7460480
20
313.2304382
0
VERTEX
8
1
10
132.7460480
20
312.2304382
0
SEQEND
8
1
0
LINE
8
1
62
7
10
89.2460480
20
300.7304382
11
111.2710342
21
300.7304382
0
LINE
8
1
62
7
10
110.0934677
20
306.2304382
11
112.7460480
21
306.2304382
0
LINE
8
1
62
7
10
110.0934677
20
305.2304382
11
112.7460480
21
305.2304382
0
LINE
8
1
62
7
10
110.0934677
20
306.2304382
11
110.0934677
21
305.2304382
0
LINE
8
1
62
7
10
134.7460480
20
312.2304382
11
134.7460480
21
306.1619568
0
LINE
8
1
62
7
10
134.7460480
20
309.7304382
11
147.7710419
21
309.7304382
0
LINE
8
1
62
7
10
147.7710419
20
309.7304382
11
147.7710419
21
314.7304382
0
LINE
8
1
62
7
10
134.7460480
20
310.7304382
11
147.7710419
21
310.7304382
0
LINE
8
1
62
7
10
120.7460480
20
332.2304382
11
115.7460480
21
331.2304382
0
LINE
8
1
62
7
10
126.7460480
20
332.2304382
11
131.7460480
21
331.2304382
0
LINE
8
1
62
7
10
115.7460480
20
331.2304382
11
131.7460480
21
331.2304382
0
POLYLINE
8
1
62
7
70
1
66
1
40
0.0000000
41
0.0000000
0
VERTEX
8
1
10
120.7460480
20
332.2304382
0
VERTEX
8
1
10
120.7460480
20
334.2304382
0
VERTEX
8
1
10
126.7460480
20
334.2304382
0
VERTEX
8
1
10
126.7460480
20
332.2304382
0
SEQEND
8
1
0
POLYLINE
8
1
62
7
70
1
66
1
40
0.0000000
41
0.0000000
0
VERTEX
8
1
10
119.7460480
20
342.2304382
0
VERTEX
8
1
10
119.7460480
20
346.2304382
0
VERTEX
8
1
10
127.7460480
20
346.2304382
0
VERTEX
8
1
10
127.7460480
20
342.2304382
0
SEQEND
8
1
0
POLYLINE
8
1
62
7
70
1
66
1
40
0.0000000
41
0.0000000
0
VERTEX
8
1
10
120.7460480
20
342.2304382
0
VERTEX
8
1
10
120.7460480
20
345.2304382
0
VERTEX
8
1
10
126.7460480
20
345.2304382
0
VERTEX
8
1
10
126.7460480
20
342.2304382
0
SEQEND
8
1
0
POLYLINE
8
1
62
7
70
1
66
1
40
0.0000000
41
0.0000000
0
VERTEX
8
1
10
118.7460480
20
341.2304382
0
VERTEX
8
1
10
118.7460480
20
342.2304382
0
VERTEX
8
1
10
128.7460480
20
342.2304382
0
VERTEX
8
1
10
128.7460480
20
341.2304382
0
SEQEND
8
1
0
LINE
8
2
62
1
10
307.7460327
20
289.2304382
11
307.7460327
21
349.2304382
0
LINE
8
1
62
7
10
197.7460480
20
344.6655884
11
197.7460480
21
331.2304382
0
LINE
8
1
62
7
10
195.7460480
20
331.2304382
11
195.7460480
21
344.7434082
0
LINE
8
2
62
1
10
257.7460327
20
321.2304382
11
189.7460480
21
321.2304382
0
LINE
8
1
62
7
10
191.7460480
20
331.2304382
11
249.7460480
21
331.2304382
0
LINE
8
1
62
7
10
191.7460480
20
329.2304382
11
249.7460480
21
329.2304382
0
LINE
8
1
62
7
10
191.7460480
20
329.2304382
11
195.7460480
21
321.2304382
0
LINE
8
1
62
7
10
163.2460480
20
327.2304382
11
163.2460480
21
326.2304382
0
LINE
8
1
62
7
10
182.7460480
20
327.2304382
11
182.7460480
21
326.2304382
0
LINE
8
1
62
7
10
163.2460480
20
326.2304382
11
182.7460480
21
326.2304382
0
LINE
8
1
62
7
10
166.0210419
20
314.7304382
11
166.0210419
21
326.2304382
0
LINE
8
1
62
7
10
181.7460480
20
326.2304382
11
181.7460480
21
319.0386658
0
LINE
8
1
62
7
10
191.7460480
20
331.2304382
11
191.7460480
21
329.2304382
0
LINE
8
1
62
7
10
163.2460480
20
327.2304382
11
182.7460480
21
327.2304382
0
LINE
8
1
62
7
10
283.7460327
20
304.2304382
11
283.7460327
21
265.2304382
0
LINE
8
1
62
7
10
285.7460327
20
304.2304382
11
285.7460327
21
265.2304382
0
LINE
8
2
62
1
10
265.7460327
20
265.2304382
11
265.7460327
21
313.2304382
0
LINE
8
2
62
1
10
307.7460327
20
285.2304382
11
307.7460327
21
269.2304382
0
LINE
8
2
62
1
10
306.7460327
20
285.2304382
11
306.7460327
21
289.2304382
0
ARC
8
1
62
7
10
249.7460480
20
325.2304382
40
6.0000000
50
0.0000000
51
90.0000025
0
ARC
8
1
62
7
10
249.7460480
20
325.2304382
40
4.0000000
50
0.0000000
51
90.0000025
0
LINE
8
1
62
7
10
255.7460480
20
325.2304382
11
255.7460480
21
321.2304382
0
LINE
8
1
62
7
10
253.7460480
20
325.2304382
11
253.7460480
21
321.2304382
0
LINE
8
1
62
7
10
282.7460327
20
304.2304382
11
282.7460327
21
308.2304382
0
ARC
8
1
62
7
10
284.7460327
20
306.2304382
40
2.0000000
50
0.0000000
51
90.0000025
0
LINE
8
1
62
7
10
286.7460327
20
304.2304382
11
282.7460327
21
304.2304382
0
LINE
8
1
62
7
10
286.7460327
20
306.2304382
11
286.7460327
21
304.2304382
0
LINE
8
1
62
7
10
282.7460327
20
308.2304382
11
284.7460327
21
308.2304382
0
LINE
8
1
62
7
10
265.7460327
20
307.2304382
11
282.7460327
21
307.2304382
0
LINE
8
1
62
7
10
265.7460327
20
305.2304382
11
282.7460327
21
305.2304382
0
ARC
8
2
62
1
10
257.7460327
20
313.2304382
40
8.0000000
50
0.0000000
51
90.0000025
0
ARC
8
1
62
7
10
189.7460480
20
344.6655884
40
8.0000000
50
0.0000000
51
105.7320045
0
ARC
8
1
62
7
10
189.7460480
20
344.7434082
40
6.0000000
50
0.0000000
51
105.7320045
0
LINE
8
1
62
7
10
308.7460327
20
370.2304382
11
308.7460327
21
368.2304382
0
ARC
8
2
62
1
10
300.7460327
20
351.1314392
40
5.0000000
50
0.0000000
51
78.6900698
0
LINE
8
2
62
1
10
305.7460327
20
351.1314392
11
305.7460327
21
349.2304382
0
LINE
8
2
62
1
10
279.7654419
20
360.4265442
11
301.7266235
21
356.0343323
0
LINE
8
2
62
1
10
308.7460327
20
369.2304382
11
275.7460327
21
369.2304382
0
LINE
8
2
62
1
10
275.7460327
20
369.2304382
11
275.7460327
21
365.3294373
0
ARC
8
2
62
1
10
280.7460327
20
365.3294373
40
5.0000000
50
180.0000050
51
258.6900544
0
LINE
8
4
62
1
6
AXES
10
401.7460327
20
272.2304382
11
401.7460327
21
204.2304382
0
LINE
8
4
62
1
6
AXES
10
487.7460327
20
272.2304382
11
487.7460327
21
204.2304382
0
ARC
8
1
62
7
10
401.7460327
20
241.2304382
40
24.0000000
50
347.2712148
51
321.2760613
0
ARC
8
1
62
7
10
401.7460327
20
241.2304382
40
26.0000000
50
348.9302951
51
247.3801354
0
LINE
8
1
62
7
10
344.7460327
20
239.2304382
11
344.7460327
21
276.2304382
0
LINE
8
1
62
7
10
342.7460327
20
276.2304382
11
342.7460327
21
239.2304382
0
LINE
8
1
62
7
10
346.7460327
20
243.2304382
11
346.7460327
21
278.2304382
0
LINE
8
1
62
7
10
384.1208801
20
280.3934937
11
371.6214905
21
246.7412567
0
LINE
8
1
62
7
10
385.8606567
20
279.2077026
11
373.3744812
21
246.0713501
0
LINE
8
1
62
7
10
350.7460327
20
243.2304382
11
350.7460327
21
271.2304382
0
LINE
8
1
62
7
10
317.7460327
20
243.2304382
11
317.7460327
21
267.2304382
0
LINE
8
1
62
7
10
339.7460327
20
267.2304382
11
339.7460327
21
243.2304382
0
LINE
8
1
62
7
10
438.2460327
20
276.2304382
11
438.7116394
21
263.1933594
0
LINE
8
1
62
7
10
436.2460327
20
275.2304382
11
435.7460327
21
262.2304382
0
POLYLINE
8
1
62
7
70
1
66
1
40
0.0000000
41
0.0000000
0
VERTEX
8
1
10
465.7460327
20
228.7304382
0
VERTEX
8
1
10
465.7460327
20
266.7304382
0
VERTEX
8
1
10
466.7460327
20
266.7304382
0
VERTEX
8
1
10
466.7460327
20
228.7304382
0
SEQEND
8
1
0
CIRCLE
8
1
62
7
10
457.7460327
20
262.2304382
40
2.0000000
0
LINE
8
1
62
7
10
464.7460327
20
266.7304382
11
464.7460327
21
260.7304382
0
LINE
8
1
62
7
10
517.2460327
20
264.2304382
11
517.2460327
21
260.2304382
0
POLYLINE
8
1
62
7
70
1
66
1
40
0.0000000
41
0.0000000
0
VERTEX
8
1
10
515.7460327
20
260.2304382
0
VERTEX
8
1
10
515.7460327
20
264.2304382
0
VERTEX
8
1
10
520.7460327
20
264.2304382
0
VERTEX
8
1
10
520.7460327
20
260.2304382
0
SEQEND
8
1
0
LINE
8
1
62
7
10
520.7460327
20
264.7304382
11
520.7460327
21
258.7304382
0
LINE
8
1
62
7
10
544.7460327
20
264.7304382
11
544.7460327
21
258.7304382
0
ARC
8
1
62
7
10
487.7460327
20
241.2304382
40
26.0000000
50
55.8513140
51
124.1095096
0
ARC
8
1
62
7
10
487.7460327
20
241.2304382
40
24.0000000
50
63.7400835
51
116.2855962
0
POLYLINE
8
1
62
7
70
1
66
1
40
0.0000000
41
0.0000000
0
VERTEX
8
1
10
555.7460327
20
263.2304382
0
VERTEX
8
1
10
555.7460327
20
265.2304382
0
VERTEX
8
1
10
565.7460327
20
265.2304382
0
VERTEX
8
1
10
565.7460327
20
263.2304382
0
SEQEND
8
1
0
LINE
8
1
62
7
10
566.7460327
20
266.7041016
11
566.7460327
21
262.2304382
0
LINE
8
1
62
7
10
554.7460327
20
266.6859131
11
554.7460327
21
262.2304382
0
POLYLINE
8
1
62
7
70
1
66
1
40
0.0000000
41
0.0000000
0
VERTEX
8
1
10
578.7460327
20
261.2304382
0
VERTEX
8
1
10
578.7460327
20
268.2304382
0
VERTEX
8
1
10
583.7460327
20
268.2304382
0
VERTEX
8
1
10
583.7460327
20
261.2304382
0
SEQEND
8
1
0
ARC
8
1
62
7
10
487.7460327
20
241.2304382
40
26.0000000
50
215.3189405
51
247.3801354
0
INSERT
8
3
2
ENGINE-G8
10
0.0000000
20
0.0000000
0
LINE
8
1
62
7
10
487.7460327
20
251.7304382
11
466.7408447
21
250.8552246
0
LINE
8
1
62
7
10
477.2460327
20
233.7304382
11
466.7460327
21
233.7304382
0
LINE
8
1
62
7
10
476.4825439
20
231.2304382
11
466.7460327
21
231.2304382
0
LINE
8
1
62
7
10
466.7326050
20
236.7364197
11
478.6811523
21
238.4156799
0
LINE
8
1
62
7
10
477.2460327
20
248.7304382
11
466.7460327
21
248.7304382
0
ARC
8
1
62
7
10
487.7460327
20
241.2304382
40
22.0000000
50
111.1410294
51
153.9237088
0
ARC
8
1
62
7
10
487.7460327
20
241.2304382
40
24.0000000
50
121.2635337
51
150.8857090
0
POLYLINE
8
1
62
7
70
0
66
1
40
0.0000000
41
0.0000000
0
VERTEX
8
1
10
466.7460327
20
262.7304382
0
VERTEX
8
1
10
515.7460327
20
262.7304382
0
VERTEX
8
1
10
515.7460327
20
261.7304382
0
VERTEX
8
1
10
466.7460327
20
261.7304382
0
SEQEND
8
1
0
LINE
8
1
62
7
10
483.9619751
20
226.2304382
11
402.7489624
21
226.2304382
0
LINE
8
1
62
7
10
487.7460327
20
230.7304382
11
466.7460327
21
231.6054382
0
LINE
8
1
62
7
10
466.8210449
20
241.7979736
11
477.9724426
21
243.3652191
0
ARC
8
1
62
7
10
487.7460327
20
241.2304382
40
26.0000000
50
127.9324348
51
143.8676076
0
ARC
8
1
62
7
10
487.7460327
20
241.2304382
40
20.5000000
50
192.2309067
51
201.1643160
0
LINE
8
1
62
7
10
466.7460327
20
259.7304382
11
469.4780273
21
259.7304382
0
ARC
8
1
62
7
10
401.7460327
20
241.2304382
40
22.0000000
50
345.2866078
51
317.0996738
0
INSERT
8
1
2
ENGINE-G9
10
0.0000000
20
0.0000000
0
INSERT
8
1
2
ENGINE-G10
10
0.0000000
20
0.0000000
0
LINE
8
1
62
7
10
342.7298889
20
240.0810394
11
338.2652893
21
242.4308319
0
LINE
8
1
62
7
10
339.7460327
20
253.2304382
11
342.7460327
21
253.2304382
0
LINE
8
1
62
7
10
342.7460327
20
255.7304382
11
339.7460327
21
255.7304382
0
LINE
8
1
62
7
10
339.7460327
20
243.2304382
11
317.7460327
21
243.2304382
0
ARC
8
1
62
7
10
328.7460327
20
261.7304382
40
21.5232430
50
239.2645046
51
300.7354968
0
LINE
8
1
62
7
10
317.7460327
20
244.2304382
11
339.7460327
21
244.2304382
0
ARC
8
1
62
7
10
353.7460327
20
250.3008118
40
2.0000000
50
303.6900727
51
0.0000000
0
LINE
8
1
62
7
10
355.7460327
20
231.2304382
11
344.2093506
21
237.3023834
0
LINE
8
1
62
7
10
373.2460327
20
245.3661346
11
373.2460327
21
228.2304382
0
LINE
8
1
62
7
10
371.2460327
20
244.6521454
11
371.2460327
21
228.2304382
0
LINE
8
1
62
7
10
375.7460327
20
233.2304382
11
375.7460327
21
231.2304382
0
LINE
8
1
62
7
10
371.2460327
20
231.2304382
11
355.7460327
21
231.2304382
0
LINE
8
1
62
7
10
371.2460327
20
228.2304382
11
373.2460327
21
228.2304382
0
LINE
8
1
62
7
10
375.7460327
20
231.2304382
11
373.2460327
21
231.2304382
0
LINE
8
1
62
7
10
355.7460327
20
233.2304382
11
344.6837769
21
239.0526733
0
LINE
8
1
62
7
10
355.7460327
20
234.2304382
11
355.7460327
21
236.1600647
0
LINE
8
1
62
7
10
355.7460327
20
234.2304382
11
367.7460327
21
234.2304382
0
LINE
8
1
62
7
10
371.2460327
20
233.2304382
11
355.7460327
21
233.2304382
0
LINE
8
1
62
7
10
375.7460327
20
233.2304382
11
373.2460327
21
233.2304382
0
CIRCLE
8
1
62
7
10
348.7460327
20
243.2304382
40
2.0000000
0
ARC
8
1
62
7
10
340.7460327
20
239.2304382
40
4.0000000
50
270.0000007
51
0.0000000
0
ARC
8
1
62
7
10
340.7460327
20
239.2304382
40
2.0000000
50
270.0000007
51
0.0000000
0
ARC
8
1
62
7
10
353.7460327
20
236.1600647
40
2.0000000
50
0.0000000
51
56.3099339
0
ARC
8
1
62
7
10
377.2460327
20
244.6521454
40
6.0000000
50
159.6235700
51
180.0000050
0
ARC
8
1
62
7
10
375.2460327
20
245.3661346
40
2.0000000
50
159.3530125
51
180.0000050
0
LINE
8
1
62
7
10
344.7460327
20
253.2304382
11
346.7460327
21
253.2304382
0
LINE
8
1
62
7
10
346.7460327
20
255.7304382
11
344.7460327
21
255.7304382
0
LINE
8
1
62
7
10
350.7460327
20
253.2304382
11
355.7460327
21
253.2304382
0
LINE
8
1
62
7
10
367.7460327
20
253.2304382
11
374.0189209
21
253.2304382
0
LINE
8
1
62
7
10
376.0834351
20
253.2304382
11
378.6693115
21
253.2304382
0
LINE
8
1
62
7
10
355.7460327
20
255.7304382
11
350.7460327
21
255.7304382
0
LINE
8
1
62
7
10
367.7460327
20
255.7304382
11
374.9364929
21
255.7304382
0
LINE
8
1
62
7
10
377.0218506
20
255.7304382
11
380.1499023
21
255.7304382
0
LINE
8
1
62
7
10
367.7460327
20
234.2304382
11
367.7460327
21
257.2304382
0
LINE
8
1
62
7
10
355.7460327
20
257.2304382
11
355.7460327
21
250.3008118
0
LINE
8
1
62
7
10
367.7460327
20
257.2304382
11
355.7460327
21
257.2304382
0
LINE
8
1
62
7
10
342.4170837
20
238.2456665
11
336.1761780
21
241.5303650
0
LINE
8
1
62
7
10
354.8554382
20
237.8241730
11
349.4981384
21
241.3772430
0
LINE
8
1
62
7
10
354.8554382
20
248.6367035
11
350.7460327
21
245.8962708
0
INSERT
8
1
2
ENGINE-G11
10
0.0000000
20
0.0000000
0
POLYLINE
8
1
62
7
70
1
66
1
40
0.0000000
41
0.0000000
0
VERTEX
8
1
10
399.6056213
20
225.7875824
0
VERTEX
8
1
10
398.4922180
20
233.7097321
0
VERTEX
8
1
10
405.4241028
20
234.6839447
0
VERTEX
8
1
10
406.5374756
20
226.7617950
0
SEQEND
8
1
0
LINE
8
1
62
7
10
404.4338379
20
234.5447693
11
405.5472107
21
226.6226196
0
LINE
8
1
62
7
10
399.4824829
20
233.8489075
11
400.5958862
21
225.9267578
0
CIRCLE
8
1
62
7
10
402.5148621
20
230.2357635
40
2.5000000
0
LINE
8
1
62
7
10
406.5374756
20
226.7617950
11
408.3092651
21
228.5255432
0
ARC
8
1
62
7
10
401.7460327
20
241.2304382
40
26.0000000
50
292.6198660
51
324.7851666
0
LINE
8
1
62
7
10
412.8490601
20
223.9981079
11
411.5600586
21
226.2309875
0
ARC
8
1
62
7
10
401.7460327
20
241.2304382
40
20.5000000
50
302.7897991
51
312.9841843
0
INSERT
8
1
2
ENGINE-G12
10
0.0000000
20
0.0000000
0
INSERT
8
1
2
ENGINE-G13
10
0.0000000
20
0.0000000
0
INSERT
8
1
2
ENGINE-G14
10
0.0000000
20
0.0000000
0
ARC
8
1
62
7
10
457.7460327
20
252.7304382
40
4.5000000
50
180.0000050
51
0.0000000
0
ARC
8
1
62
7
10
457.7460327
20
252.7304382
40
3.0000000
50
180.0000050
51
0.0000000
0
POLYLINE
8
1
62
7
70
1
66
1
40
0.0000000
41
0.0000000
0
VERTEX
8
1
10
436.7460327
20
242.2304382
0
VERTEX
8
1
10
436.7460327
20
245.2304382
0
VERTEX
8
1
10
450.7460327
20
245.2304382
0
VERTEX
8
1
10
450.7460327
20
242.2304382
0
SEQEND
8
1
0
LINE
8
1
62
7
10
437.7460327
20
246.2304382
11
449.7460327
21
246.2304382
0
LINE
8
1
62
7
10
454.7460327
20
252.7304382
11
455.7460327
21
262.2304382
0
LINE
8
1
62
7
10
460.7460327
20
252.7304382
11
459.7460327
21
262.2304382
0
LINE
8
1
62
7
10
453.2460327
20
252.7304382
11
454.7460327
21
252.7304382
0
LINE
8
1
62
7
10
460.7460327
20
252.7304382
11
462.2460327
21
252.7304382
0
ARC
8
1
62
7
10
487.7460327
20
241.2304382
40
26.0000000
50
147.9624973
51
180.2478589
0
ARC
8
1
62
7
10
487.7460327
20
241.2304382
40
24.0000000
50
191.6278830
51
203.2516082
0
ARC
8
1
62
7
10
487.7460327
20
241.2304382
40
26.0000000
50
191.4050822
51
202.5632207
0
LINE
8
1
62
7
10
465.7460327
20
231.2304382
11
427.6130676
21
231.2304382
0
LINE
8
1
62
7
10
431.2460327
20
260.7304382
11
435.2460327
21
261.2304382
0
LINE
8
1
62
7
10
430.7460327
20
259.7304382
11
431.2460327
21
260.7304382
0
LINE
8
1
62
7
10
435.2460327
20
261.2304382
11
436.0387268
21
262.8158569
0
LINE
8
1
62
7
10
439.2460327
20
261.2304382
11
438.4533386
21
262.8158569
0
CIRCLE
8
1
62
7
10
437.2460327
20
261.7304382
40
1.0000000
0
LINE
8
1
62
7
10
443.2460327
20
260.7304382
11
439.2460327
21
261.2304382
0
LINE
8
1
62
7
10
443.4899597
20
260.2425842
11
443.2460327
21
260.7304382
0
ARC
8
1
62
7
10
436.7095642
20
262.4804382
40
0.7500000
50
90.0000025
51
153.4349541
0
LINE
8
1
62
7
10
436.7095642
20
263.2304382
11
437.7825012
21
263.2304382
0
ARC
8
1
62
7
10
437.7825012
20
262.4804382
40
0.7500000
50
26.5650509
51
90.0000025
0
LINE
8
1
62
7
10
437.7460327
20
245.2304382
11
437.7460327
21
255.2304382
0
LINE
8
1
62
7
10
449.7460327
20
255.2304382
11
449.7460327
21
245.2304382
0
LINE
8
1
62
7
10
437.7460327
20
254.2304382
11
449.7460327
21
254.2304382
0
POLYLINE
8
1
62
7
70
1
66
1
40
0.0000000
41
0.0000000
0
VERTEX
8
1
10
436.7460327
20
255.2304382
0
VERTEX
8
1
10
436.7460327
20
260.2304382
0
VERTEX
8
1
10
450.7460327
20
260.2304382
0
VERTEX
8
1
10
450.7460327
20
255.2304382
0
SEQEND
8
1
0
LINE
8
1
62
7
10
437.7825012
20
263.2304382
11
455.7460327
21
262.2304382
0
LINE
8
1
62
7
10
464.7460327
20
260.7304382
11
460.7460327
21
260.7304382
0
LINE
8
1
62
7
10
460.7460327
20
260.7304382
11
460.7460327
21
259.7304382
0
LINE
8
1
62
7
10
459.9910583
20
259.7304382
11
465.7460327
21
259.7304382
0
LINE
8
1
62
7
10
415.3032837
20
234.5574036
11
408.2437439
21
238.6336975
0
CIRCLE
8
1
62
7
10
402.5148621
20
230.2357635
40
1.5000000
0
LINE
8
1
62
7
10
405.4241028
20
234.6839447
11
407.6134033
21
233.4768829
0
LINE
8
1
62
7
10
400.7460327
20
234.0455627
11
400.7460327
21
234.3032532
0
CIRCLE
8
1
62
7
10
401.7460327
20
241.2304382
40
3.0000000
0
LINE
8
1
62
7
10
404.4477844
20
234.5508881
11
404.3435974
21
234.7313232
0
LINE
8
1
62
7
10
408.3092651
20
228.5255432
11
465.7730713
21
236.6015625
0
LINE
8
1
62
7
10
407.6134033
20
233.4768829
11
465.7715454
21
241.6504822
0
LINE
8
1
62
7
10
422.2142944
20
240.2304382
11
408.6732178
21
240.2304382
0
LINE
8
1
62
7
10
436.7460327
20
259.7304382
11
419.9974060
21
259.7304382
0
LINE
8
1
62
7
10
436.7460327
20
255.7304382
11
423.3125610
21
255.7304382
0
INSERT
8
1
2
ENGINE-G15
10
0.0000000
20
0.0000000
0
INSERT
8
1
2
ENGINE-G16
10
0.0000000
20
0.0000000
0
INSERT
8
1
2
ENGINE-G17
10
0.0000000
20
0.0000000
0
CIRCLE
8
1
62
7
10
401.7460327
20
241.2304382
40
7.0000000
0
LINE
8
1
62
7
10
394.8178406
20
240.2304382
11
394.8178406
21
240.2304382
0
LINE
8
1
62
7
10
394.8178406
20
240.2304382
11
394.8178406
21
240.2304382
0
LINE
8
1
62
7
10
394.8178406
20
240.2304382
11
394.8178406
21
240.2304382
0
LINE
8
1
62
7
10
394.8178406
20
240.2304382
11
394.8178406
21
240.2304382
0
LINE
8
1
62
7
10
394.8178406
20
240.2304382
11
394.8178406
21
240.2304382
0
LINE
8
1
62
7
10
394.8178406
20
240.2304382
11
394.8178406
21
240.2304382
0
LINE
8
1
62
7
10
394.8178406
20
240.2304382
11
394.8178406
21
240.2304382
0
LINE
8
1
62
7
10
394.8178406
20
240.2304382
11
394.8178406
21
240.2304382
0
LINE
8
1
62
7
10
394.8178406
20
240.2304382
11
394.8178406
21
240.2304382
0
LINE
8
1
62
7
10
407.2541504
20
233.6899109
11
406.0761719
21
235.7304535
0
LINE
8
1
62
7
10
412.0696716
20
234.1153870
11
407.2460327
21
236.9003143
0
ARC
8
1
62
7
10
401.5720520
20
241.2283783
40
20.6663494
50
343.6624161
51
357.2322261
0
INSERT
8
1
2
ENGINE-G18
10
0.0000000
20
0.0000000
0
ARC
8
1
62
7
10
487.7460327
20
241.2304382
40
24.0000000
50
156.4435295
51
179.6228283
0
POLYLINE
8
1
62
7
70
0
66
1
40
0.0000000
41
0.0000000
0
VERTEX
8
1
10
459.6825256
20
262.7304382
0
VERTEX
8
1
10
464.7460327
20
262.7304382
0
SEQEND
8
1
0
POLYLINE
8
1
62
7
70
0
66
1
40
0.0000000
41
0.0000000
0
VERTEX
8
1
10
464.7460327
20
261.7304382
0
VERTEX
8
1
10
459.7986450
20
261.7304993
0
SEQEND
8
1
0
LINE
8
1
62
7
10
450.7460327
20
259.7304382
11
455.4828796
21
259.7304382
0
LINE
8
1
62
7
10
460.4302368
20
255.7304382
11
465.7460327
21
255.7304382
0
LINE
8
1
62
7
10
450.7460327
20
255.7304382
11
455.0618286
21
255.7304382
0
INSERT
8
3
2
ENGINE-G20
10
0.0000000
20
0.0000000
0
LINE
8
1
62
7
10
572.7460327
20
261.2304382
11
544.7460327
21
261.2304382
0
LINE
8
1
62
7
10
518.7460327
20
227.2304382
11
548.7460327
21
227.2304382
0
LINE
8
1
62
7
10
548.7460327
20
256.2304382
11
545.7460327
21
256.2304382
0
ARC
8
1
62
7
10
487.7460327
20
241.2304382
40
24.0000000
50
218.6427018
51
336.3763528
0
ARC
8
1
62
7
10
487.7460327
20
241.2304382
40
26.0000000
50
292.6198660
51
337.3801447
0
ARC
8
1
62
7
10
487.7460327
20
241.2304382
40
22.0000000
50
222.9649275
51
333.7283977
0
ARC
8
1
62
7
10
515.7460327
20
228.2304382
40
2.0000000
50
180.0000050
51
270.0000007
0
ARC
8
1
62
7
10
487.7460327
20
241.2304382
40
20.5000000
50
302.7897991
51
327.1895025
0
LINE
8
1
62
7
10
518.7460327
20
257.2304382
11
518.7460327
21
226.2304382
0
ARC
8
1
62
7
10
487.7460327
20
228.7304382
40
4.5000000
50
213.9309505
51
28.7491029
0
LINE
8
1
62
7
10
497.1141357
20
223.0044098
11
492.5382385
21
230.9301147
0
ARC
8
1
62
7
10
487.7460327
20
228.7304382
40
3.0000000
50
135.8481596
51
44.1518454
0
LINE
8
1
62
7
10
498.8490601
20
223.9981079
11
494.7930908
21
231.0240631
0
LINE
8
1
62
7
10
478.3739014
20
222.9987793
11
480.2469177
21
226.2425537
0
LINE
8
1
62
7
10
476.6458740
20
224.0044098
11
477.9180298
21
226.2078247
0
ARC
8
1
62
7
10
487.7460327
20
241.2304382
40
20.5000000
50
272.7898051
51
297.1895084
0
LINE
8
1
62
7
10
486.7460327
20
220.7621765
11
486.7460327
21
224.3497009
0
LINE
8
1
62
7
10
488.7453613
20
220.7552948
11
488.7455444
21
224.3497009
0
LINE
8
1
62
7
10
515.7460327
20
226.2304382
11
518.7460327
21
226.2304382
0
ARC
8
1
62
7
10
487.7451782
20
241.2228546
40
20.4923801
50
242.7866419
51
267.1908805
0
ARC
8
1
62
7
10
487.9505615
20
241.4928436
40
20.8313923
50
227.1101693
51
237.1077767
0
INSERT
8
1
2
ENGINE-G21
10
0.0000000
20
0.0000000
0
INSERT
8
1
2
ENGINE-G22
10
0.0000000
20
0.0000000
0
ARC
8
1
62
7
10
480.7460327
20
241.2304382
40
3.5000000
50
90.0000025
51
270.0000007
0
LINE
8
1
62
7
10
477.7847595
20
245.8270874
11
479.8681335
21
244.6241302
0
LINE
8
1
62
7
10
476.7377014
20
233.7204285
11
477.2775879
21
234.0321045
0
ARC
8
1
62
7
10
487.7460327
20
241.2304382
40
10.9658566
50
155.1952441
51
169.2897083
0
LINE
8
1
62
7
10
498.2460327
20
233.6688843
11
498.2460327
21
232.7304382
0
LINE
8
1
62
7
10
487.7460327
20
232.7304382
11
498.2460327
21
232.7304382
0
ARC
8
1
62
7
10
496.2460327
20
233.6688843
40
2.0000000
50
360.0000100
51
75.9637452
0
LINE
8
1
62
7
10
498.7480469
20
233.7237244
11
498.2100220
21
234.0343628
0
CIRCLE
8
1
62
7
10
487.7460327
20
241.2304382
40
3.5000000
0
CIRCLE
8
1
62
7
10
487.7460327
20
241.2304382
40
2.5000000
0
LINE
8
1
62
7
10
487.7460327
20
249.7304382
11
498.2460327
21
249.7304382
0
CIRCLE
8
1
62
7
10
480.7460327
20
241.2304382
40
1.5811388
0
LINE
8
1
62
7
10
480.7460327
20
237.7304382
11
483.2460327
21
237.7304382
0
ARC
8
1
62
7
10
487.7460327
20
241.2304382
40
7.0000000
50
210.0583561
51
221.7007824
0
LINE
8
1
62
7
10
480.7460327
20
244.7304382
11
483.2460327
21
244.7304382
0
ARC
8
1
62
7
10
493.2460327
20
244.2304382
40
1.0000000
50
180.0000050
51
270.0000007
0
ARC
8
1
62
7
10
487.7460327
20
241.2304382
40
22.0000000
50
3.9334423
51
19.9877307
0
LINE
8
1
62
7
10
497.7460327
20
239.7304382
11
509.7460327
21
239.7304382
0
LINE
8
1
62
7
10
497.7460327
20
242.7304382
11
509.7460327
21
242.7304382
0
LINE
8
1
62
7
10
497.7460327
20
243.2304382
11
497.7460327
21
239.2304382
0
LINE
8
1
62
7
10
496.7311096
20
235.6091766
11
493.0035095
21
236.5410767
0
LINE
8
1
62
7
10
494.4942017
20
236.1796722
11
493.2451477
21
236.9008179
0
ARC
8
1
62
7
10
493.2460327
20
237.5112152
40
1.0000000
50
179.9999913
51
255.9637707
0
LINE
8
1
62
7
10
492.2460327
20
237.5112152
11
492.2460327
21
238.2304382
0
LINE
8
1
62
7
10
497.7460327
20
239.2304382
11
493.2460327
21
239.2304382
0
ARC
8
1
62
7
10
493.2460327
20
238.2304382
40
1.0000000
50
90.0000025
51
180.0000050
0
ARC
8
1
62
7
10
487.7460327
20
241.2304382
40
7.0000000
50
318.1365512
51
343.5788965
0
LINE
8
1
62
7
10
493.2460327
20
243.2304382
11
497.7460327
21
243.2304382
0
ARC
8
1
62
7
10
493.2460327
20
244.9496613
40
1.0000000
50
104.0362188
51
180.0000050
0
LINE
8
1
62
7
10
492.2460327
20
244.9496613
11
492.2460327
21
244.2304382
0
LINE
8
1
62
7
10
498.2460327
20
248.7919922
11
498.2460327
21
249.7304382
0
ARC
8
1
62
7
10
496.2460327
20
248.7919922
40
2.0000000
50
284.0362580
51
359.9999827
0
LINE
8
1
62
7
10
494.4860229
20
246.2764130
11
493.2437134
21
245.5592651
0
LINE
8
1
62
7
10
496.7311096
20
246.8516998
11
493.0035095
21
245.9197998
0
LINE
8
1
62
7
10
487.7460327
20
230.7304382
11
511.7460327
21
231.7304382
0
LINE
8
1
62
7
10
504.9720764
20
230.1302795
11
502.7585754
21
231.4082489
0
LINE
8
1
62
7
10
502.7068787
20
233.7469330
11
494.2437439
21
238.6336975
0
ARC
8
1
62
7
10
487.7460327
20
241.2304382
40
22.0000000
50
340.2638779
51
356.1181676
0
ARC
8
1
62
7
10
487.7460327
20
241.2304382
40
24.0000000
50
341.7851523
51
351.6228103
0
LINE
8
1
62
7
10
511.7460327
20
233.7304382
11
498.2460327
21
233.7304382
0
LINE
8
1
62
7
10
511.7460327
20
241.2304382
11
511.7460327
21
244.2304382
0
LINE
8
1
62
7
10
511.7460327
20
244.2304382
11
511.7460327
21
244.2304382
0
ARC
8
1
62
7
10
521.7460327
20
249.2304382
40
2.0000000
50
180.0000050
51
270.0000007
0
LINE
8
1
62
7
10
511.7460327
20
248.7304382
11
498.2460327
21
248.7304382
0
ARC
8
1
62
7
10
487.7460327
20
241.2304382
40
24.0000000
50
8.3837840
51
18.1738937
0
POLYLINE
8
1
62
7
70
0
66
1
40
0.0000000
41
0.0000000
0
VERTEX
8
1
10
511.7460327
20
244.7304382
0
VERTEX
8
1
10
509.7460327
20
244.7304382
0
VERTEX
8
1
10
509.7460327
20
237.7304382
0
VERTEX
8
1
10
511.7460327
20
237.7304382
0
SEQEND
8
1
0
ARC
8
1
62
7
10
543.7460327
20
249.2304382
40
2.0000000
50
270.0000007
51
0.0000000
0
LINE
8
1
62
7
10
543.7460327
20
247.2304382
11
521.7460327
21
247.2304382
0
LINE
8
1
62
7
10
519.7460327
20
249.2304382
11
519.7460327
21
258.7304382
0
ARC
8
1
62
7
10
515.7460327
20
255.2304382
40
2.0000000
50
90.0000025
51
180.0000050
0
LINE
8
1
62
7
10
518.7460327
20
256.2304382
11
519.7460327
21
256.2304382
0
LINE
8
1
62
7
10
518.7460327
20
257.2304382
11
515.7460327
21
257.2304382
0
POLYLINE
8
1
62
7
70
0
66
1
40
0.0000000
41
0.0000000
0
VERTEX
8
1
10
513.7460327
20
254.2304382
0
VERTEX
8
1
10
511.7460327
20
254.2304382
0
VERTEX
8
1
10
511.7460327
20
229.2304382
0
VERTEX
8
1
10
513.7460327
20
229.2304382
0
SEQEND
8
1
0
LINE
8
1
62
7
10
513.7460327
20
255.2304382
11
513.7460327
21
228.2304382
0
LINE
8
1
62
7
10
545.7460327
20
258.7304382
11
545.7460327
21
249.2304382
0
LINE
8
1
62
7
10
519.7460327
20
258.7304382
11
545.7460327
21
258.7304382
0
ARC
8
1
62
7
10
487.7460327
20
241.2304382
40
22.0000000
50
77.7590263
51
102.0991908
0
ARC
8
1
62
7
10
487.7460327
20
241.2304382
40
20.5000000
50
338.5847988
51
355.8038696
0
ARC
8
1
62
7
10
487.7460327
20
241.2304382
40
7.0000000
50
138.0872322
51
149.9356433
0
ARC
8
1
62
7
10
487.7460327
20
241.2304382
40
20.5000000
50
4.2208797
51
21.4601282
0
LINE
8
1
62
7
10
502.7364197
20
248.7304382
11
494.2451477
21
243.8280029
0
LINE
8
1
62
7
10
480.9630432
20
246.3011780
11
482.2460327
21
245.5605621
0
LINE
8
1
62
7
10
472.7870789
20
233.7485809
11
479.8747253
21
237.8406219
0
LINE
8
1
62
7
10
480.9665222
20
236.1616516
11
482.2460327
21
236.9003143
0
ARC
8
1
62
7
10
487.7460327
20
241.2304382
40
24.0000000
50
23.5343713
51
58.6728003
0
LINE
8
1
62
7
10
487.7460327
20
251.7304382
11
511.7460327
21
250.7304382
0
ARC
8
1
62
7
10
487.5581970
20
241.0213928
40
22.2632236
50
26.3617674
51
68.4340490
0
ARC
8
1
62
7
10
487.6488037
20
241.1553802
40
26.1189957
50
22.6916950
51
51.9889035
0
ARC
8
1
62
7
10
487.6658936
20
241.1861725
40
7.0894537
50
16.7593598
51
41.7455220
0
LINE
8
1
62
7
10
548.7460327
20
257.2304382
11
548.7460327
21
226.2304382
0
POLYLINE
8
1
62
7
70
0
66
1
40
0.0000000
41
0.0000000
0
VERTEX
8
1
10
572.7460327
20
233.2304382
0
VERTEX
8
1
10
570.7460327
20
233.2304382
0
VERTEX
8
1
10
570.7460327
20
230.2304382
0
VERTEX
8
1
10
561.7460327
20
230.2304382
0
VERTEX
8
1
10
561.7460327
20
227.2304382
0
VERTEX
8
1
10
562.7460327
20
227.2304382
0
SEQEND
8
1
0
ARC
8
1
62
7
10
571.7460327
20
228.2304382
40
1.0000000
50
270.0000007
51
359.9999827
0
ARC
8
1
62
7
10
551.7460327
20
228.2304382
40
2.0000000
50
270.0000007
51
0.0000000
0
POLYLINE
8
1
62
7
70
0
66
1
40
0.0000000
41
0.0000000
0
VERTEX
8
1
10
587.7460327
20
233.2304382
0
VERTEX
8
1
10
589.7460327
20
233.2304382
0
VERTEX
8
1
10
589.7460327
20
230.2304382
0
VERTEX
8
1
10
600.7460327
20
230.2304382
0
VERTEX
8
1
10
600.7460327
20
227.2304382
0
VERTEX
8
1
10
599.7460327
20
227.2304382
0
SEQEND
8
1
0
ARC
8
1
62
7
10
588.7460327
20
228.2304382
40
1.0000000
50
180.0000050
51
270.0000007
0
LINE
8
1
62
7
10
585.7460327
20
244.2304382
11
585.7460327
21
227.2304382
0
LINE
8
1
62
7
10
574.7460327
20
244.2304382
11
574.7460327
21
227.2304382
0
LINE
8
1
62
7
10
548.7460327
20
226.2304382
11
551.7460327
21
226.2304382
0
LINE
8
1
62
7
10
599.7460327
20
225.2304382
11
599.7460327
21
227.2304382
0
ARC
8
1
62
7
10
572.7460327
20
227.2304382
40
2.0000000
50
270.0000007
51
359.9999827
0
LINE
8
1
62
7
10
562.7460327
20
227.2304382
11
571.7460327
21
227.2304382
0
LINE
8
1
62
7
10
572.7460327
20
225.2304382
11
562.7460327
21
225.2304382
0
LINE
8
1
62
7
10
562.7460327
20
225.2304382
11
562.7460327
21
227.2304382
0
LINE
8
1
62
7
10
599.7460327
20
227.2304382
11
588.7460327
21
227.2304382
0
LINE
8
1
62
7
10
587.7460327
20
225.2304382
11
599.7460327
21
225.2304382
0
ARC
8
1
62
7
10
587.7460327
20
227.2304382
40
2.0000000
50
180.0000050
51
270.0000007
0
LINE
8
1
62
7
10
551.7460327
20
257.2304382
11
548.7460327
21
257.2304382
0
ARC
8
1
62
7
10
584.7460327
20
244.2304382
40
1.0000000
50
0.0000000
51
90.0000025
0
ARC
8
1
62
7
10
585.7460327
20
245.2304382
40
2.0000000
50
0.0000000
51
90.0000025
0
CIRCLE
8
1
62
7
10
580.7460327
20
259.2304382
40
1.0000000
0
CIRCLE
8
1
62
7
10
580.7460327
20
249.2304382
40
1.0000000
0
LINE
8
1
62
7
10
555.7460327
20
235.2304382
11
565.7460327
21
235.2304382
0
LINE
8
1
62
7
10
587.7460327
20
228.2304382
11
587.7460327
21
245.2304382
0
ARC
8
1
62
7
10
575.7460327
20
244.2304382
40
1.0000000
50
89.9999957
51
180.0000050
0
ARC
8
1
62
7
10
574.7460327
20
245.2304382
40
2.0000000
50
89.9999957
51
180.0000050
0
LINE
8
1
62
7
10
572.7460327
20
243.2304382
11
563.7460327
21
243.2304382
0
LINE
8
1
62
7
10
571.7460327
20
248.2304382
11
563.7460327
21
248.2304382
0
LINE
8
1
62
7
10
572.7460327
20
245.2304382
11
565.7460327
21
245.2304382
0
LINE
8
1
62
7
10
565.7460327
20
245.2304382
11
565.7460327
21
247.2304382
0
LINE
8
1
62
7
10
555.7460327
20
255.2304382
11
555.7460327
21
244.2304382
0
LINE
8
1
62
7
10
575.7460327
20
245.2304382
11
584.7460327
21
245.2304382
0
LINE
8
1
62
7
10
574.7460327
20
247.2304382
11
585.7460327
21
247.2304382
0
LINE
8
1
62
7
10
585.7460327
20
243.2304382
11
574.7460327
21
243.2304382
0
LINE
8
1
62
7
10
572.7460327
20
228.2304382
11
572.7460327
21
245.2304382
0
LINE
8
1
62
7
10
565.7460327
20
243.2304382
11
565.7460327
21
235.2304382
0
LINE
8
1
62
7
10
563.7460327
20
243.2304382
11
553.7460327
21
238.2304382
0
LINE
8
1
62
7
10
555.7460327
20
239.2304382
11
555.7460327
21
235.2304382
0
LINE
8
1
62
7
10
553.7460327
20
255.2304382
11
572.7460327
21
255.2304382
0
LINE
8
1
62
7
10
563.7460327
20
248.2304382
11
553.7460327
21
243.2304382
0
LINE
8
1
62
7
10
553.7460327
20
228.2304382
11
553.7460327
21
255.2304382
0
LINE
8
1
62
7
10
554.7460327
20
262.2304382
11
566.7460327
21
262.2304382
0
LINE
8
1
62
7
10
565.7460327
20
262.2304382
11
565.7460327
21
261.2304382
0
LINE
8
1
62
7
10
555.7460327
20
262.2304382
11
555.7460327
21
261.2304382
0
POLYLINE
8
1
62
7
70
1
66
1
40
0.0000000
41
0.0000000
0
VERTEX
8
1
10
563.7460327
20
247.2304382
0
VERTEX
8
1
10
563.7460327
20
256.2304382
0
VERTEX
8
1
10
571.7460327
20
256.2304382
0
VERTEX
8
1
10
571.7460327
20
247.2304382
0
SEQEND
8
1
0
ARC
8
1
62
7
10
551.7460327
20
255.2304382
40
2.0000000
50
0.0000000
51
90.0000025
0
POLYLINE
8
1
62
7
70
1
66
1
40
0.0000000
41
0.0000000
0
VERTEX
8
1
10
572.7460327
20
247.2304382
0
VERTEX
8
1
10
572.7460327
20
261.2304382
0
VERTEX
8
1
10
587.7460327
20
261.2304382
0
VERTEX
8
1
10
587.7460327
20
247.2304382
0
SEQEND
8
1
0
LINE
8
1
62
7
10
592.7460327
20
260.2304382
11
592.7460327
21
255.2304382
0
LINE
8
1
62
7
10
592.7460327
20
254.2304382
11
592.7460327
21
248.2304382
0
POLYLINE
8
1
62
7
70
0
66
1
40
0.0000000
41
0.0000000
0
VERTEX
8
1
10
587.7460327
20
260.2304382
0
VERTEX
8
1
10
594.7460327
20
260.2304382
0
VERTEX
8
1
10
594.7460327
20
259.2304382
0
VERTEX
8
1
10
593.7460327
20
259.2304382
0
VERTEX
8
1
10
593.7460327
20
249.2304382
0
VERTEX
8
1
10
594.7460327
20
249.2304382
0
VERTEX
8
1
10
594.7460327
20
248.2304382
0
VERTEX
8
1
10
587.7460327
20
248.2304382
0
SEQEND
8
1
0
LINE
8
1
62
7
10
592.7460327
20
255.2304382
11
587.7460327
21
255.2304382
0
LINE
8
1
62
7
10
587.7460327
20
254.2304382
11
592.7460327
21
254.2304382
0
LINE
8
1
62
7
10
606.7460327
20
261.2304382
11
606.7460327
21
259.2304382
0
LINE
8
1
62
7
10
606.7460327
20
259.2304382
11
604.7460327
21
259.2304382
0
LINE
8
1
62
7
10
606.7460327
20
260.2304382
11
609.7460327
21
260.2304382
0
LINE
8
1
62
7
10
601.7460327
20
261.2304382
11
606.7460327
21
261.2304382
0
LINE
8
1
62
7
10
606.7460327
20
247.2304382
11
606.7460327
21
249.2304382
0
LINE
8
1
62
7
10
606.7460327
20
249.2304382
11
604.7460327
21
249.2304382
0
LINE
8
1
62
7
10
601.7460327
20
247.2304382
11
606.7460327
21
247.2304382
0
LINE
8
1
62
7
10
601.7460327
20
247.2304382
11
606.7460327
21
247.2304382
0
LINE
8
1
62
7
10
606.7460327
20
248.2304382
11
609.7460327
21
248.2304382
0
LINE
8
1
62
7
10
609.7460327
20
248.2304382
11
609.7460327
21
260.2304382
0
LINE
8
1
62
7
10
603.7460327
20
254.2304382
11
604.7460327
21
259.2304382
0
LINE
8
1
62
7
10
603.7460327
20
254.2304382
11
604.7460327
21
249.2304382
0
LINE
8
1
62
7
10
594.7460327
20
259.2304382
11
601.7460327
21
261.2304382
0
LINE
8
1
62
7
10
594.7460327
20
249.2304382
11
601.7460327
21
247.2304382
0
LINE
8
1
62
7
10
464.7460327
20
319.2304382
11
560.7460327
21
319.2304382
0
LINE
8
1
62
7
10
560.7460327
20
321.2304382
11
464.7460327
21
321.2304382
0
LINE
8
1
62
7
10
501.7460327
20
293.2304382
11
467.2460327
21
293.2304382
0
LINE
8
1
62
7
10
467.2460327
20
296.2304382
11
501.7460327
21
296.2304382
0
ARC
8
2
62
1
10
463.7460327
20
347.2304382
40
12.0000000
50
0.0000000
51
90.0000025
0
LINE
8
2
62
1
10
475.0090332
20
267.2304382
11
445.2460327
21
267.2304382
0
ARC
8
2
62
1
10
462.7460938
20
342.3638916
40
24.2052135
50
253.1832280
51
287.1138593
0
LINE
8
2
62
1
10
317.7460327
20
347.2304382
11
317.7460327
21
320.2304382
0
LINE
8
2
62
1
10
347.7460327
20
320.2304382
11
347.7460327
21
347.2304382
0
LINE
8
2
62
1
10
348.7460327
20
346.2304382
11
348.7460327
21
322.2304382
0
LINE
8
2
62
1
10
342.7460327
20
347.2304382
11
342.7460327
21
320.2304382
0
POLYLINE
8
2
62
1
70
1
66
1
40
0.0000000
41
0.0000000
0
VERTEX
8
2
10
361.7460327
20
322.2304382
0
VERTEX
8
2
10
361.7460327
20
346.2304382
0
VERTEX
8
2
10
372.7460327
20
346.2304382
0
VERTEX
8
2
10
372.7460327
20
322.2304382
0
SEQEND
8
2
0
LINE
8
2
62
1
10
360.7460327
20
346.2304382
11
360.7460327
21
322.2304382
0
LINE
8
2
62
1
10
381.7460327
20
349.2304382
11
381.7460327
21
289.2304382
0
LINE
8
2
62
1
10
373.7460327
20
347.2304382
11
373.7460327
21
320.2304382
0
ARC
8
1
62
7
10
386.7460327
20
330.2304382
40
6.0000000
50
0.0000000
51
90.0000025
0
POLYLINE
8
1
62
7
70
0
66
1
40
0.0000000
41
0.0000000
0
VERTEX
8
1
10
387.7460327
20
336.2304382
0
VERTEX
8
1
10
387.7460327
20
340.2304382
0
VERTEX
8
1
10
392.7460327
20
340.2304382
0
VERTEX
8
1
10
392.7460327
20
335.2304382
0
VERTEX
8
1
10
390.0392761
20
335.2304382
0
SEQEND
8
1
0
POLYLINE
8
1
62
7
70
1
66
1
40
0.0000000
41
0.0000000
0
VERTEX
8
1
10
381.7460327
20
331.2304382
0
VERTEX
8
1
10
381.7460327
20
338.2304382
0
VERTEX
8
1
10
385.7460327
20
338.2304382
0
VERTEX
8
1
10
385.7460327
20
331.2304382
0
SEQEND
8
1
0
LINE
8
1
62
7
10
386.7460327
20
336.2304382
11
386.7460327
21
333.2304382
0
LINE
8
1
62
7
10
388.7460327
20
340.2304382
11
388.7460327
21
335.9055481
0
LINE
8
1
62
7
10
391.7460327
20
340.2304382
11
391.7460327
21
335.2304382
0
ARC
8
1
62
7
10
333.7460327
20
335.2304382
40
1.5000000
50
0.0000000
51
180.0000050
0
LINE
8
2
62
1
10
449.7460327
20
347.2304382
11
449.7460327
21
329.2304382
0
LINE
8
2
62
1
10
437.7460327
20
330.2304382
11
437.7460327
21
351.2304382
0
LINE
8
2
62
1
10
403.7460327
20
351.2304382
11
403.7460327
21
330.2304382
0
LINE
8
1
62
7
10
398.7460327
20
268.7304382
11
387.7460327
21
270.2304382
0
ARC
8
1
62
7
10
395.7460327
20
299.2304382
40
6.0000000
50
180.0000050
51
270.0000007
0
LINE
8
1
62
7
10
396.7460327
20
321.2304382
11
389.7460327
21
321.2304382
0
LINE
8
1
62
7
10
389.7460327
20
319.2304382
11
396.7460327
21
319.2304382
0
POLYLINE
8
1
62
7
70
0
66
1
40
0.0000000
41
0.0000000
0
VERTEX
8
1
10
384.3588867
20
275.2304382
0
VERTEX
8
1
10
437.2460327
20
275.2304382
0
SEQEND
8
1
0
POLYLINE
8
1
62
7
70
0
66
1
40
0.0000000
41
0.0000000
0
VERTEX
8
1
10
385.1361084
20
277.2304382
0
VERTEX
8
1
10
437.2460327
20
277.2304382
0
SEQEND
8
1
0
LINE
8
1
62
7
10
385.7460327
20
269.2304382
11
392.0607605
21
265.3444519
0
LINE
8
1
62
7
10
389.7460327
20
330.2304382
11
389.7460327
21
299.2304382
0
POLYLINE
8
1
62
7
70
0
66
1
40
0.0000000
41
0.0000000
0
VERTEX
8
1
10
386.2460327
20
307.2304382
0
VERTEX
8
1
10
386.2460327
20
289.2304382
0
SEQEND
8
1
0
POLYLINE
8
1
62
7
70
0
66
1
40
0.0000000
41
0.0000000
0
VERTEX
8
1
10
384.2460327
20
307.2304382
0
VERTEX
8
1
10
384.2460327
20
289.2304382
0
SEQEND
8
1
0
POLYLINE
8
1
62
7
70
0
66
1
40
0.0000000
41
0.0000000
0
VERTEX
8
1
10
348.7460327
20
271.2304382
0
VERTEX
8
1
10
374.7460327
20
271.2304382
0
VERTEX
8
1
10
381.2460327
20
275.2304382
0
VERTEX
8
1
10
382.1999207
20
275.2304382
0
SEQEND
8
1
0
ARC
8
1
62
7
10
348.7460327
20
272.2304382
40
1.0000000
50
90.0000025
51
270.0000007
0
LINE
8
1
62
7
10
317.7460327
20
269.2304382
11
317.7460327
21
279.2304382
0
LINE
8
1
62
7
10
339.7460327
20
279.2304382
11
339.7460327
21
269.2304382
0
LINE
8
1
62
7
10
389.2460327
20
285.2304382
11
389.2460327
21
269.9996643
0
LINE
8
1
62
7
10
387.7460327
20
270.7304382
11
387.7460327
21
270.2304382
0
LINE
8
1
62
7
10
385.7460327
20
270.7304382
11
385.7460327
21
269.2304382
0
ARC
8
1
62
7
10
386.7460327
20
270.7304382
40
1.0000000
50
0.0000000
51
180.0000050
0
POLYLINE
8
1
62
7
70
1
66
1
40
0.0000000
41
0.0000000
0
VERTEX
8
1
10
316.7460327
20
267.2304382
0
VERTEX
8
1
10
316.7460327
20
269.2304382
0
VERTEX
8
1
10
340.7460327
20
269.2304382
0
VERTEX
8
1
10
340.7460327
20
267.2304382
0
SEQEND
8
1
0
POLYLINE
8
1
62
7
70
0
66
1
40
0.0000000
41
0.0000000
0
VERTEX
8
1
10
348.7460327
20
273.2304382
0
VERTEX
8
1
10
374.7460327
20
273.2304382
0
VERTEX
8
1
10
381.2460327
20
277.2304382
0
VERTEX
8
1
10
382.9555664
20
277.2304382
0
SEQEND
8
1
0
ARC
8
1
62
7
10
367.7460327
20
282.2304382
40
2.0000000
50
270.0000007
51
0.0000000
0
LINE
8
1
62
7
10
371.7460327
20
282.2304382
11
371.7460327
21
285.2304382
0
LINE
8
1
62
7
10
369.7460327
20
285.2304382
11
369.7460327
21
282.2304382
0
ARC
8
1
62
7
10
367.7460327
20
282.2304382
40
4.0000000
50
270.0000007
51
0.0000000
0
LINE
8
1
62
7
10
346.7460327
20
280.2304382
11
346.7460327
21
285.2304382
0
LINE
8
1
62
7
10
350.7460327
20
280.2304382
11
350.7460327
21
285.2304382
0
ARC
8
1
62
7
10
346.7460327
20
276.2304382
40
4.0000000
50
90.0000025
51
180.0000050
0
ARC
8
1
62
7
10
346.7460327
20
276.2304382
40
2.0000000
50
90.0000025
51
180.0000050
0
LINE
8
1
62
7
10
350.7460327
20
273.2304382
11
350.7460327
21
278.2304382
0
LINE
8
1
62
7
10
367.7460327
20
280.2304382
11
346.7460327
21
280.2304382
0
LINE
8
1
62
7
10
346.7460327
20
278.2304382
11
367.7460327
21
278.2304382
0
LINE
8
1
62
7
10
317.7460327
20
279.2304382
11
339.7460327
21
279.2304382
0
LINE
8
1
62
7
10
317.7460327
20
279.2304382
11
339.7460327
21
279.2304382
0
LINE
8
1
62
7
10
317.7460327
20
278.2304382
11
339.7460327
21
278.2304382
0
ARC
8
1
62
7
10
328.7460327
20
260.7304382
40
21.5232430
50
59.2645132
51
120.7354918
0
ARC
8
1
62
7
10
380.2460327
20
281.3233643
40
6.0000000
50
339.3530039
51
0.0000000
0
ARC
8
1
62
7
10
382.2460327
20
281.0898743
40
2.0000000
50
339.6235613
51
0.0000000
0
LINE
8
1
62
7
10
384.2460327
20
285.2304382
11
384.2460327
21
281.0898743
0
LINE
8
1
62
7
10
386.2460327
20
285.2304382
11
386.2460327
21
281.3233643
0
POLYLINE
8
1
62
7
70
0
66
1
40
0.0000000
41
0.0000000
0
VERTEX
8
1
10
384.7460327
20
331.2304382
0
VERTEX
8
1
10
384.7460327
20
322.7304382
0
VERTEX
8
1
10
386.2460327
20
316.2304382
0
VERTEX
8
1
10
386.2460327
20
310.2304382
0
SEQEND
8
1
0
POLYLINE
8
1
62
7
70
1
66
1
40
0.0000000
41
0.0000000
0
VERTEX
8
1
10
333.2460327
20
322.2304382
0
VERTEX
8
1
10
333.2460327
20
328.2304382
0
VERTEX
8
1
10
334.2460327
20
328.2304382
0
VERTEX
8
1
10
334.2460327
20
322.2304382
0
SEQEND
8
1
0
POLYLINE
8
1
62
7
70
1
66
1
40
0.0000000
41
0.0000000
0
VERTEX
8
1
10
336.2460327
20
322.2304382
0
VERTEX
8
1
10
336.2460327
20
328.2304382
0
VERTEX
8
1
10
337.2460327
20
328.2304382
0
VERTEX
8
1
10
337.2460327
20
322.2304382
0
SEQEND
8
1
0
POLYLINE
8
1
62
7
70
1
66
1
40
0.0000000
41
0.0000000
0
VERTEX
8
1
10
330.2460327
20
322.2304382
0
VERTEX
8
1
10
330.2460327
20
328.2304382
0
VERTEX
8
1
10
331.2460327
20
328.2304382
0
VERTEX
8
1
10
331.2460327
20
322.2304382
0
SEQEND
8
1
0
POLYLINE
8
1
62
7
70
0
66
1
40
0.0000000
41
0.0000000
0
VERTEX
8
1
10
382.7460327
20
331.2304382
0
VERTEX
8
1
10
382.7460327
20
322.7304382
0
VERTEX
8
1
10
384.2460327
20
316.2304382
0
VERTEX
8
1
10
384.2460327
20
310.2304382
0
SEQEND
8
1
0
TEXT
8
1
62
7
40
8.0000000
41
1.5000000
1
1591
7
ROMANC
72
0
10
322.7460327
20
301.2304382
0
POLYLINE
8
1
62
7
70
1
66
1
40
0.0000000
41
0.0000000
0
VERTEX
8
1
10
383.7460327
20
307.2304382
0
VERTEX
8
1
10
383.7460327
20
310.2304382
0
VERTEX
8
1
10
386.7460327
20
310.2304382
0
VERTEX
8
1
10
386.7460327
20
307.2304382
0
SEQEND
8
1
0
POLYLINE
8
1
62
7
70
1
66
1
40
0.0000000
41
0.0000000
0
VERTEX
8
1
10
386.7460327
20
318.2304382
0
VERTEX
8
1
10
386.7460327
20
322.2304382
0
VERTEX
8
1
10
389.7460327
20
322.2304382
0
VERTEX
8
1
10
389.7460327
20
318.2304382
0
SEQEND
8
1
0
POLYLINE
8
2
62
1
70
1
66
1
40
0.0000000
41
0.0000000
0
VERTEX
8
2
10
316.7460327
20
318.2304382
0
VERTEX
8
2
10
316.7460327
20
320.2304382
0
VERTEX
8
2
10
374.7460327
20
320.2304382
0
VERTEX
8
2
10
374.7460327
20
318.2304382
0
SEQEND
8
2
0
LINE
8
2
62
1
10
342.7460327
20
322.2304382
11
317.7460327
21
322.2304382
0
LINE
8
2
62
1
10
348.7460327
20
322.2304382
11
360.7460327
21
322.2304382
0
LINE
8
2
62
1
10
384.7460327
20
325.2304382
11
389.7460327
21
325.2304382
0
LINE
8
2
62
1
10
381.7460327
20
325.2304382
11
382.7460327
21
325.2304382
0
ARC
8
1
62
7
10
386.7460327
20
330.2304382
40
3.0000000
50
0.0000000
51
90.0000025
0
LINE
8
1
62
7
10
385.7460327
20
333.2304382
11
386.7460327
21
333.2304382
0
POLYLINE
8
1
62
7
70
4
66
1
40
0.0000000
41
0.0000000
0
VERTEX
8
1
10
335.7460327
20
333.7304382
70
16
0
VERTEX
8
1
10
335.7460327
20
332.7304382
70
16
0
VERTEX
8
1
10
337.2460327
20
331.2304382
70
16
0
VERTEX
8
1
10
337.2460327
20
329.2304382
70
16
0
VERTEX
8
1
10
335.7460327
20
333.7304382
70
8
0
VERTEX
8
1
10
335.8104858
20
333.3320007
70
8
0
VERTEX
8
1
10
335.9804077
20
332.8866882
70
8
0
VERTEX
8
1
10
336.2206421
20
332.3945007
70
8
0
VERTEX
8
1
10
336.4960327
20
331.8554382
70
8
0
VERTEX
8
1
10
336.7714233
20
331.2695007
70
8
0
VERTEX
8
1
10
337.0116577
20
330.6366882
70
8
0
VERTEX
8
1
10
337.1815796
20
329.9570007
70
8
0
VERTEX
8
1
10
337.2460327
20
329.2304382
70
8
0
SEQEND
8
1
0
POLYLINE
8
1
62
7
70
4
66
1
40
0.0000000
41
0.0000000
0
VERTEX
8
1
10
331.7460327
20
333.7304382
70
16
0
VERTEX
8
1
10
331.7460327
20
332.7304382
70
16
0
VERTEX
8
1
10
330.2460327
20
331.2304382
70
16
0
VERTEX
8
1
10
330.2460327
20
329.2304382
70
16
0
VERTEX
8
1
10
331.7460327
20
333.7304382
70
8
0
VERTEX
8
1
10
331.6815796
20
333.3320007
70
8
0
VERTEX
8
1
10
331.5116577
20
332.8866882
70
8
0
VERTEX
8
1
10
331.2714233
20
332.3945007
70
8
0
VERTEX
8
1
10
330.9960327
20
331.8554382
70
8
0
VERTEX
8
1
10
330.7206421
20
331.2695007
70
8
0
VERTEX
8
1
10
330.4804077
20
330.6366882
70
8
0
VERTEX
8
1
10
330.3104858
20
329.9570007
70
8
0
VERTEX
8
1
10
330.2460327
20
329.2304382
70
8
0
SEQEND
8
1
0
POLYLINE
8
1
62
7
70
1
66
1
40
0.0000000
41
0.0000000
0
VERTEX
8
1
10
327.2460327
20
334.2304382
0
VERTEX
8
1
10
327.2460327
20
335.2304382
0
VERTEX
8
1
10
335.2460327
20
335.2304382
0
VERTEX
8
1
10
335.2460327
20
334.2304382
0
SEQEND
8
1
0
LINE
8
1
62
7
10
332.2460327
20
334.2304382
11
332.2460327
21
333.7304382
0
LINE
8
1
62
7
10
335.2460327
20
334.2304382
11
335.2460327
21
333.7304382
0
LINE
8
1
62
7
10
331.7460327
20
333.7304382
11
335.7460327
21
333.7304382
0
LINE
8
1
62
7
10
332.2460327
20
334.2304382
11
332.2460327
21
333.7304382
0
ARC
8
1
62
7
10
332.2460327
20
329.2304382
40
1.0000000
50
0.0000000
51
180.0000050
0
ARC
8
1
62
7
10
335.2460327
20
329.2304382
40
1.0000000
50
0.0000000
51
180.0000050
0
ARC
8
1
62
7
10
332.2460327
20
329.2304382
40
1.0000000
50
359.9999827
51
180.0000050
0
POLYLINE
8
1
62
7
70
1
66
1
40
0.0000000
41
0.0000000
0
VERTEX
8
1
10
335.7460327
20
328.2304382
0
VERTEX
8
1
10
335.7460327
20
329.2304382
0
VERTEX
8
1
10
337.7460327
20
329.2304382
0
VERTEX
8
1
10
337.7460327
20
328.2304382
0
SEQEND
8
1
0
POLYLINE
8
1
62
7
70
1
66
1
40
0.0000000
41
0.0000000
0
VERTEX
8
1
10
332.7460327
20
328.2304382
0
VERTEX
8
1
10
332.7460327
20
329.2304382
0
VERTEX
8
1
10
334.7460327
20
329.2304382
0
VERTEX
8
1
10
334.7460327
20
328.2304382
0
SEQEND
8
1
0
POLYLINE
8
1
62
7
70
1
66
1
40
0.0000000
41
0.0000000
0
VERTEX
8
1
10
331.7460327
20
328.2304382
0
VERTEX
8
1
10
331.7460327
20
329.2304382
0
VERTEX
8
1
10
329.7460327
20
329.2304382
0
VERTEX
8
1
10
329.7460327
20
328.2304382
0
SEQEND
8
1
0
LINE
8
1
62
7
10
392.7460327
20
319.2304382
11
392.7460327
21
299.2304382
0
POLYLINE
8
2
62
1
70
0
66
1
40
0.0000000
41
0.0000000
0
VERTEX
8
2
10
443.2460327
20
296.2304382
0
VERTEX
8
2
10
443.2460327
20
326.2304382
0
VERTEX
8
2
10
445.2460327
20
326.2304382
0
VERTEX
8
2
10
445.2460327
20
296.2304382
0
SEQEND
8
2
0
ARC
8
1
62
7
10
395.7460327
20
299.2304382
40
3.0000000
50
180.0000050
51
270.0000007
0
POLYLINE
8
2
62
1
70
0
66
1
40
0.0000000
41
0.0000000
0
VERTEX
8
2
10
445.2460327
20
285.2304382
0
VERTEX
8
2
10
445.2460327
20
266.2304382
0
VERTEX
8
2
10
443.2460327
20
266.2304382
0
VERTEX
8
2
10
443.2460327
20
285.2304382
0
SEQEND
8
2
0
LINE
8
1
62
7
10
465.7460327
20
266.7304382
11
464.7460327
21
266.7304382
0
LINE
8
1
62
7
10
404.7460327
20
268.7304382
11
415.7460327
21
270.2304382
0
LINE
8
1
62
7
10
398.7460327
20
269.2304382
11
401.7460327
21
269.2304382
0
LINE
8
1
62
7
10
404.7460327
20
269.2304382
11
401.7460327
21
269.2304382
0
LINE
8
1
62
7
10
404.7460327
20
269.2304382
11
404.7460327
21
267.1150513
0
LINE
8
1
62
7
10
398.7460327
20
269.2304382
11
398.7460327
21
267.0765991
0
LINE
8
1
62
7
10
417.7460327
20
269.2304382
11
411.4313049
21
265.3444519
0
LINE
8
1
62
7
10
415.7460327
20
270.7304382
11
415.7460327
21
270.2304382
0
LINE
8
1
62
7
10
417.7460327
20
270.7304382
11
417.7460327
21
269.2304382
0
ARC
8
1
62
7
10
416.7460327
20
270.7304382
40
1.0000000
50
359.9999827
51
180.0000050
0
LINE
8
2
62
1
10
443.2460327
20
267.2304382
11
438.5605469
21
267.2304382
0
LINE
8
2
62
1
10
435.9315186
20
267.2304382
11
414.4913940
21
267.2304382
0
ARC
8
1
62
7
10
437.2460327
20
276.2304382
40
1.0000000
50
270.0000007
51
90.0000025
0
POLYLINE
8
1
62
7
70
1
66
1
40
0.0000000
41
0.0000000
0
VERTEX
8
1
10
464.7460327
20
292.2304382
0
VERTEX
8
1
10
464.7460327
20
297.2304382
0
VERTEX
8
1
10
467.2460327
20
297.2304382
0
VERTEX
8
1
10
467.2460327
20
292.2304382
0
SEQEND
8
1
0
LINE
8
1
62
7
10
464.7460327
20
293.2304382
11
419.2460327
21
293.2304382
0
LINE
8
1
62
7
10
419.2460327
20
296.2304382
11
464.7460327
21
296.2304382
0
POLYLINE
8
1
62
7
70
1
66
1
40
0.0000000
41
0.0000000
0
VERTEX
8
1
10
416.7460327
20
292.2304382
0
VERTEX
8
1
10
416.7460327
20
297.2304382
0
VERTEX
8
1
10
419.2460327
20
297.2304382
0
VERTEX
8
1
10
419.2460327
20
292.2304382
0
SEQEND
8
1
0
LINE
8
1
62
7
10
416.7460327
20
293.2304382
11
395.7460327
21
293.2304382
0
LINE
8
1
62
7
10
395.7460327
20
296.2304382
11
416.7460327
21
296.2304382
0
POLYLINE
8
2
62
1
70
0
66
1
40
0.0000000
41
0.0000000
0
VERTEX
8
2
10
443.2460327
20
289.2304382
0
VERTEX
8
2
10
443.2460327
20
293.2304382
0
SEQEND
8
2
0
POLYLINE
8
2
62
1
70
0
66
1
40
0.0000000
41
0.0000000
0
VERTEX
8
2
10
445.2460327
20
293.2304382
0
VERTEX
8
2
10
445.2460327
20
289.2304382
0
SEQEND
8
2
0
LINE
8
1
62
7
10
392.7460327
20
330.2304382
11
392.7460327
21
321.2304382
0
ARC
8
2
62
1
10
445.7460327
20
329.2304382
40
4.0000000
50
270.0000007
51
0.0000000
0
ARC
8
2
62
1
10
442.7460327
20
330.2304382
40
5.0000000
50
180.0000050
51
270.0000007
0
ARC
8
2
62
1
10
398.7460327
20
330.2304382
40
5.0000000
50
270.0000007
51
0.0000000
0
LINE
8
2
62
1
10
392.7460327
20
325.2304382
11
398.7460327
21
325.2304382
0
POLYLINE
8
1
62
7
70
1
66
1
40
0.0000000
41
0.0000000
0
VERTEX
8
1
10
462.7460327
20
313.2304382
0
VERTEX
8
1
10
462.7460327
20
318.2304382
0
VERTEX
8
1
10
463.7460327
20
318.2304382
0
VERTEX
8
1
10
463.7460327
20
313.2304382
0
SEQEND
8
1
0
POLYLINE
8
1
62
7
70
1
66
1
40
0.0000000
41
0.0000000
0
VERTEX
8
1
10
461.7460327
20
318.2304382
0
VERTEX
8
1
10
461.7460327
20
322.2304382
0
VERTEX
8
1
10
464.7460327
20
322.2304382
0
VERTEX
8
1
10
464.7460327
20
318.2304382
0
SEQEND
8
1
0
LINE
8
1
62
7
10
461.7460327
20
321.2304382
11
399.7460327
21
321.2304382
0
LINE
8
1
62
7
10
399.7460327
20
319.2304382
11
461.7460327
21
319.2304382
0
POLYLINE
8
1
62
7
70
1
66
1
40
0.0000000
41
0.0000000
0
VERTEX
8
1
10
397.7460327
20
313.2304382
0
VERTEX
8
1
10
397.7460327
20
318.2304382
0
VERTEX
8
1
10
398.7460327
20
318.2304382
0
VERTEX
8
1
10
398.7460327
20
313.2304382
0
SEQEND
8
1
0
POLYLINE
8
1
62
7
70
1
66
1
40
0.0000000
41
0.0000000
0
VERTEX
8
1
10
396.7460327
20
318.2304382
0
VERTEX
8
1
10
396.7460327
20
322.2304382
0
VERTEX
8
1
10
399.7460327
20
322.2304382
0
VERTEX
8
1
10
399.7460327
20
318.2304382
0
SEQEND
8
1
0
LINE
8
2
62
1
10
442.7460327
20
325.2304382
11
443.2460327
21
325.2304382
0
LINE
8
2
62
1
10
445.2460327
20
325.2304382
11
445.7460327
21
325.2304382
0
ARC
8
2
62
1
10
420.8861389
20
347.7952881
40
31.6125889
50
225.5443484
51
237.1744667
0
ARC
8
2
62
1
10
420.7461853
20
347.6909790
40
31.4537640
50
244.8013565
51
295.1986176
0
ARC
8
2
62
1
10
420.2159119
20
348.2712402
40
32.2255440
50
302.9536417
51
314.3579812
0
ARC
8
2
62
1
10
463.2226563
20
342.7076111
40
24.7160854
50
225.0008976
51
240.3374727
0
LINE
8
1
62
7
10
385.7460327
20
336.2304382
11
386.7460327
21
336.2304382
0
LINE
8
1
62
7
10
381.7460327
20
339.2304382
11
387.7460327
21
339.2304382
0
LINE
8
1
62
7
10
385.7460327
20
336.2304382
11
387.7460327
21
336.2304382
0
LINE
8
1
62
7
10
320.7460327
20
370.2304382
11
320.7460327
21
368.2304382
0
LINE
8
2
62
1
10
317.7460327
20
349.2304382
11
373.7460327
21
349.2304382
0
LINE
8
2
62
1
10
342.7460327
20
347.2304382
11
317.7460327
21
347.2304382
0
LINE
8
2
62
1
10
383.7460327
20
349.2304382
11
383.7460327
21
369.2304382
0
LINE
8
2
62
1
10
347.7460327
20
347.2304382
11
373.7460327
21
347.2304382
0
LINE
8
2
62
1
10
348.7460327
20
346.2304382
11
360.7460327
21
346.2304382
0
LINE
8
2
62
1
10
383.7460327
20
369.2304382
11
320.7460327
21
369.2304382
0
LINE
8
1
62
7
10
413.7460327
20
371.2304382
11
413.7460327
21
373.2304382
0
LINE
8
1
62
7
10
419.7460327
20
373.2304382
11
419.7460327
21
371.2304382
0
LINE
8
1
62
7
10
421.7460327
20
371.2304382
11
421.7460327
21
373.2304382
0
LINE
8
1
62
7
10
427.7460327
20
373.2304382
11
427.7460327
21
371.2304382
0
ARC
8
1
62
7
10
402.7460327
20
372.7304382
40
2.0000000
50
270.0000007
51
0.0000000
0
ARC
8
1
62
7
10
400.2460327
20
372.7304382
40
2.0000000
50
180.0000050
51
270.0000007
0
LINE
8
1
62
7
10
392.7460327
20
339.2304382
11
403.7460327
21
339.2304382
0
LINE
8
1
62
7
10
392.7460327
20
336.2304382
11
403.7460327
21
336.2304382
0
POLYLINE
8
1
62
7
70
0
66
1
40
0.0000000
41
0.0000000
0
VERTEX
8
1
10
402.7460327
20
361.2304382
0
VERTEX
8
1
10
402.7460327
20
356.7304382
0
VERTEX
8
1
10
400.2460327
20
356.7304382
0
VERTEX
8
1
10
400.2460327
20
361.2304382
0
SEQEND
8
1
0
POLYLINE
8
1
62
7
70
1
66
1
40
0.0000000
41
0.0000000
0
VERTEX
8
1
10
399.7460327
20
350.2304382
0
VERTEX
8
1
10
399.7460327
20
356.7304382
0
VERTEX
8
1
10
403.2460327
20
356.7304382
0
VERTEX
8
1
10
403.2460327
20
350.2304382
0
SEQEND
8
1
0
LINE
8
1
62
7
10
399.7460327
20
355.7304382
11
403.2460327
21
355.7304382
0
POLYLINE
8
1
62
7
70
1
66
1
40
0.0000000
41
0.0000000
0
VERTEX
8
1
10
399.2460327
20
344.2304382
0
VERTEX
8
1
10
399.2460327
20
350.2304382
0
VERTEX
8
1
10
403.7460327
20
350.2304382
0
VERTEX
8
1
10
403.7460327
20
344.2304382
0
SEQEND
8
1
0
LINE
8
1
62
7
10
400.2460327
20
363.2304382
11
400.2460327
21
370.7304382
0
LINE
8
1
62
7
10
402.7460327
20
370.7304382
11
402.7460327
21
363.2304382
0
LINE
8
1
62
7
10
400.2460327
20
369.7304382
11
402.7460327
21
369.7304382
0
LINE
8
1
62
7
10
402.7460327
20
370.7304382
11
400.2460327
21
370.7304382
0
POLYLINE
8
1
62
7
70
1
66
1
40
0.0000000
41
0.0000000
0
VERTEX
8
1
10
399.7460327
20
361.2304382
0
VERTEX
8
1
10
399.7460327
20
363.2304382
0
VERTEX
8
1
10
403.2460327
20
363.2304382
0
VERTEX
8
1
10
403.2460327
20
361.2304382
0
SEQEND
8
1
0
POLYLINE
8
1
62
7
70
1
66
1
40
0.0000000
41
0.0000000
0
VERTEX
8
1
10
414.7460327
20
368.2304382
0
VERTEX
8
1
10
414.7460327
20
371.2304382
0
VERTEX
8
1
10
418.7460327
20
371.2304382
0
VERTEX
8
1
10
418.7460327
20
368.2304382
0
SEQEND
8
1
0
LINE
8
1
62
7
10
419.7460327
20
371.2304382
11
413.7460327
21
371.2304382
0
POLYLINE
8
1
62
7
70
1
66
1
40
0.0000000
41
0.0000000
0
VERTEX
8
1
10
422.7460327
20
368.2304382
0
VERTEX
8
1
10
422.7460327
20
371.2304382
0
VERTEX
8
1
10
426.7460327
20
371.2304382
0
VERTEX
8
1
10
426.7460327
20
368.2304382
0
SEQEND
8
1
0
LINE
8
1
62
7
10
427.7460327
20
371.2304382
11
421.7460327
21
371.2304382
0
LINE
8
1
62
7
10
425.7460327
20
363.2304382
11
415.7460327
21
363.2304382
0
POLYLINE
8
1
62
7
70
0
66
1
40
0.0000000
41
0.0000000
0
VERTEX
8
1
10
414.7460327
20
363.2304382
0
VERTEX
8
1
10
409.7460327
20
363.2304382
0
VERTEX
8
1
10
409.7460327
20
364.2304382
0
VERTEX
8
1
10
431.7460327
20
364.2304382
0
VERTEX
8
1
10
431.7460327
20
363.2304382
0
VERTEX
8
1
10
426.7460327
20
363.2304382
0
SEQEND
8
1
0
POLYLINE
8
1
62
7
70
0
66
1
40
0.0000000
41
0.0000000
0
VERTEX
8
1
10
410.7460327
20
364.2304382
0
VERTEX
8
1
10
412.7460327
20
365.2304382
0
VERTEX
8
1
10
428.7460327
20
365.2304382
0
VERTEX
8
1
10
430.7460327
20
364.2304382
0
SEQEND
8
1
0
POLYLINE
8
1
62
7
70
1
66
1
40
0.0000000
41
0.0000000
0
VERTEX
8
1
10
413.7460327
20
365.2304382
0
VERTEX
8
1
10
413.7460327
20
368.2304382
0
VERTEX
8
1
10
419.7460327
20
368.2304382
0
VERTEX
8
1
10
419.7460327
20
365.2304382
0
SEQEND
8
1
0
POLYLINE
8
1
62
7
70
1
66
1
40
0.0000000
41
0.0000000
0
VERTEX
8
1
10
421.7460327
20
365.2304382
0
VERTEX
8
1
10
421.7460327
20
368.2304382
0
VERTEX
8
1
10
427.7460327
20
368.2304382
0
VERTEX
8
1
10
427.7460327
20
365.2304382
0
SEQEND
8
1
0
ARC
8
2
62
1
10
461.7460327
20
347.2304382
40
12.0000000
50
90.0000025
51
180.0000050
0
LINE
8
2
62
1
10
463.7460327
20
359.2304382
11
461.7460327
21
359.2304382
0
ARC
8
2
62
1
10
425.7460327
20
351.2304382
40
12.0000000
50
0.0000000
51
90.0000025
0
ARC
8
2
62
1
10
415.7460327
20
351.2304382
40
12.0000000
50
90.0000025
51
180.0000050
0
POLYLINE
8
1
62
7
70
1
66
1
40
0.0000000
41
0.0000000
0
VERTEX
8
1
10
400.7460327
20
380.2304382
0
VERTEX
8
1
10
400.7460327
20
384.7304382
0
VERTEX
8
1
10
402.2460327
20
384.7304382
0
VERTEX
8
1
10
402.2460327
20
380.2304382
0
SEQEND
8
1
0
ARC
8
1
62
7
10
415.7460327
20
373.2304382
40
2.0000000
50
90.0000025
51
180.0000050
0
ARC
8
1
62
7
10
417.7460327
20
373.2304382
40
2.0000000
50
0.0000000
51
90.0000025
0
ARC
8
1
62
7
10
423.7460327
20
373.2304382
40
2.0000000
50
90.0000025
51
180.0000050
0
ARC
8
1
62
7
10
425.7460327
20
373.2304382
40
2.0000000
50
0.0000000
51
90.0000025
0
LINE
8
1
62
7
10
398.2460327
20
374.2304382
11
398.2460327
21
377.2304382
0
LINE
8
1
62
7
10
404.7460327
20
373.2304382
11
404.7460327
21
372.7304382
0
LINE
8
1
62
7
10
404.2460327
20
374.2304382
11
404.2460327
21
373.2304382
0
LINE
8
1
62
7
10
398.7460327
20
374.2304382
11
398.7460327
21
373.2304382
0
LINE
8
1
62
7
10
398.2460327
20
372.7304382
11
398.2460327
21
373.2304382
0
LINE
8
1
62
7
10
398.2460327
20
374.2304382
11
404.7460327
21
374.2304382
0
LINE
8
1
62
7
10
398.2460327
20
373.2304382
11
404.7460327
21
373.2304382
0
LINE
8
1
62
7
10
415.7460327
20
375.2304382
11
417.7460327
21
375.2304382
0
POLYLINE
8
1
62
7
70
1
66
1
40
0.0000000
41
0.0000000
0
VERTEX
8
1
10
415.7460327
20
375.2304382
0
VERTEX
8
1
10
415.7460327
20
376.2304382
0
VERTEX
8
1
10
417.7460327
20
376.2304382
0
VERTEX
8
1
10
417.7460327
20
375.2304382
0
SEQEND
8
1
0
LINE
8
1
62
7
10
423.7460327
20
375.2304382
11
425.7460327
21
375.2304382
0
POLYLINE
8
1
62
7
70
1
66
1
40
0.0000000
41
0.0000000
0
VERTEX
8
1
10
423.7460327
20
375.2304382
0
VERTEX
8
1
10
423.7460327
20
376.2304382
0
VERTEX
8
1
10
425.7460327
20
376.2304382
0
VERTEX
8
1
10
425.7460327
20
375.2304382
0
SEQEND
8
1
0
LINE
8
1
62
7
10
404.7460327
20
377.2304382
11
404.7460327
21
374.2304382
0
LINE
8
1
62
7
10
400.2460327
20
379.2304382
11
402.7460327
21
379.2304382
0
ARC
8
1
62
7
10
402.7460327
20
377.2304382
40
2.0000000
50
0.0000000
51
90.0000025
0
POLYLINE
8
1
62
7
70
0
66
1
40
0.0000000
41
0.0000000
0
VERTEX
8
1
10
400.2460327
20
379.2304382
0
VERTEX
8
1
10
400.2460327
20
380.2304382
0
VERTEX
8
1
10
402.7460327
20
380.2304382
0
VERTEX
8
1
10
402.7460327
20
379.2304382
0
SEQEND
8
1
0
ARC
8
1
62
7
10
400.2460327
20
377.2304382
40
2.0000000
50
90.0000025
51
180.0000050
0
LINE
8
1
62
7
10
497.7460327
20
325.2304382
11
497.7460327
21
341.5108032
0
LINE
8
1
62
7
10
499.7460327
20
341.5188904
11
499.7460327
21
325.2304382
0
LINE
8
1
62
7
10
490.7460327
20
334.7304382
11
493.2421875
21
338.4746704
0
LINE
8
1
62
7
10
506.7460327
20
334.7304382
11
504.2498779
21
338.4746704
0
LINE
8
2
62
1
10
540.8098755
20
377.2304382
11
539.7686768
21
328.2942505
0
LINE
8
2
62
1
10
522.6821899
20
377.2304382
11
523.7233887
21
328.2942505
0
LINE
8
2
62
1
10
475.7460327
20
329.2304382
11
475.7460327
21
347.2304382
0
LINE
8
1
62
7
10
571.7460327
20
349.2304382
11
571.7460327
21
333.2304382
0
LINE
8
1
62
7
10
569.7460327
20
353.2304382
11
569.7460327
21
328.2304382
0
LINE
8
1
62
7
10
553.7460327
20
328.2304382
11
553.7460327
21
353.2304382
0
LINE
8
2
62
1
10
542.7460327
20
325.2304382
11
553.7460327
21
325.2304382
0
LINE
8
2
62
1
10
552.7460327
20
267.2304382
11
545.7460327
21
267.2304382
0
POLYLINE
8
2
62
1
70
0
66
1
40
0.0000000
41
0.0000000
0
VERTEX
8
2
10
519.7460327
20
319.2304382
0
VERTEX
8
2
10
519.7460327
20
266.2304382
0
VERTEX
8
2
10
517.7460327
20
266.2304382
0
VERTEX
8
2
10
517.7460327
20
319.2304382
0
SEQEND
8
2
0
ARC
8
1
62
7
10
472.7460327
20
270.7304382
40
1.0000000
50
0.0000000
51
180.0000050
0
LINE
8
1
62
7
10
471.7460327
20
269.2304382
11
478.0607605
21
265.3444519
0
LINE
8
1
62
7
10
471.7460327
20
270.7304382
11
471.7460327
21
269.2304382
0
LINE
8
1
62
7
10
519.7460327
20
264.7304382
11
519.7460327
21
269.2304382
0
ARC
8
1
62
7
10
521.7460327
20
269.2304382
40
2.0000000
50
90.0000025
51
180.0000050
0
LINE
8
1
62
7
10
521.7460327
20
271.2304382
11
543.7460327
21
271.2304382
0
LINE
8
1
62
7
10
545.7460327
20
269.2304382
11
545.7460327
21
264.7304382
0
ARC
8
1
62
7
10
543.7460327
20
269.2304382
40
2.0000000
50
0.0000000
51
90.0000025
0
LINE
8
1
62
7
10
519.7460327
20
264.7304382
11
545.7460327
21
264.7304382
0
LINE
8
1
62
7
10
490.7460327
20
269.2304382
11
487.7460327
21
269.2304382
0
LINE
8
1
62
7
10
484.7460327
20
269.2304382
11
487.7460327
21
269.2304382
0
LINE
8
1
62
7
10
490.7460327
20
269.2304382
11
490.7460327
21
267.1150513
0
LINE
8
1
62
7
10
484.7460327
20
269.2304382
11
484.7460327
21
267.0765991
0
LINE
8
1
62
7
10
473.7460327
20
270.7304382
11
473.7460327
21
270.2304382
0
LINE
8
1
62
7
10
484.7460327
20
268.7304382
11
473.7460327
21
270.2304382
0
LINE
8
1
62
7
10
501.7460327
20
270.7304382
11
501.7460327
21
270.2304382
0
LINE
8
1
62
7
10
503.7460327
20
270.7304382
11
503.7460327
21
269.2304382
0
ARC
8
1
62
7
10
502.7460327
20
270.7304382
40
1.0000000
50
359.9999827
51
180.0000050
0
LINE
8
1
62
7
10
490.7460327
20
268.7304382
11
501.7460327
21
270.2304382
0
LINE
8
1
62
7
10
503.7460327
20
269.2304382
11
497.4313049
21
265.3444519
0
LINE
8
2
62
1
10
517.7460327
20
267.2304382
11
500.4364014
21
267.2304382
0
ARC
8
1
62
7
10
503.7460327
20
294.7304382
40
2.5000000
50
270.0000007
51
90.0000025
0
POLYLINE
8
1
62
7
70
0
66
1
40
0.0000000
41
0.0000000
0
VERTEX
8
1
10
503.7460327
20
292.2304382
0
VERTEX
8
1
10
501.7460327
20
292.2304382
0
VERTEX
8
1
10
501.7460327
20
297.2304382
0
VERTEX
8
1
10
503.7460327
20
297.2304382
0
SEQEND
8
1
0
TEXT
8
1
62
7
40
0.4800000
1
Drawn By:
7
ROMANC
72
0
10
529.6105347
20
294.2480164
0
LINE
8
2
62
1
10
511.7460327
20
289.2304382
11
511.7460327
21
285.2304382
0
TEXT
8
1
62
7
40
0.7200000
1
Rick Barrientos
7
ROMANC
72
0
10
526.9837646
20
292.2597351
0
POLYLINE
8
1
62
7
70
1
66
1
40
0.0000000
41
0.0000000
0
VERTEX
8
1
10
525.8812590
20
292.9460749
42
0.1461610
70
2
50
270.0000007
0
VERTEX
8
1
10
526.2637084
20
291.6657097
42
0.1071600
70
2
50
301.1194354
0
VERTEX
8
1
10
527.5509946
20
290.4004796
42
0.0770049
70
2
50
327.7280219
0
VERTEX
8
1
10
529.3054494
20
289.6388861
42
0.0640472
70
2
50
344.6495150
0
VERTEX
8
1
10
531.5820926
20
289.3460598
42
0.0640472
70
2
50
5.0089561E-006
0
VERTEX
8
1
10
533.8587357
20
289.6388865
42
0.0770049
70
2
50
15.3504830
0
VERTEX
8
1
10
535.6131904
20
290.4004803
42
0.1071600
70
2
50
32.2719813
0
VERTEX
8
1
10
536.9004764
20
291.6657107
42
0.1461610
70
2
50
58.8805678
0
VERTEX
8
1
10
537.2829256
20
292.9460759
42
0.1461610
70
2
50
90.0000025
0
VERTEX
8
1
10
536.9004762
20
294.2264412
42
0.1071600
70
2
50
121.1194440
0
VERTEX
8
1
10
535.6131900
20
295.4916713
42
0.0770049
70
2
50
147.7280305
0
VERTEX
8
1
10
533.8587352
20
296.2532647
42
0.0640472
70
2
50
164.6495237
0
VERTEX
8
1
10
531.5820920
20
296.5460911
42
0.0640472
70
2
50
180.0000050
0
VERTEX
8
1
10
529.3054488
20
296.2532643
42
0.0770049
70
2
50
195.3504863
0
VERTEX
8
1
10
527.5509942
20
295.4916706
42
0.1071600
70
2
50
212.2719795
0
VERTEX
8
1
10
526.2637082
20
294.2264402
42
0.1461610
70
2
50
238.8805660
0
SEQEND
8
1
0
POLYLINE
8
1
62
7
70
1
66
1
40
0.0000000
41
0.0000000
0
VERTEX
8
1
10
525.1471957
20
293.0028755
42
0.1483149
70
2
50
269.4942662
0
VERTEX
8
1
10
525.5635636
20
291.5851560
42
0.1071109
70
2
50
300.9767937
0
VERTEX
8
1
10
527.0070308
20
290.1650262
42
0.0760522
70
2
50
327.6943081
0
VERTEX
8
1
10
528.9769310
20
289.3040911
42
0.0629303
70
2
50
344.3904869
0
VERTEX
8
1
10
531.5468748
20
288.9562778
42
0.0629303
70
2
50
359.4942755
0
VERTEX
8
1
10
534.1225579
20
289.2586713
42
0.0760522
70
2
50
14.5980489
0
VERTEX
8
1
10
536.1073488
20
290.0846988
42
0.1071109
70
2
50
31.2942226
0
VERTEX
8
1
10
537.5756598
20
291.4791268
42
0.1483149
70
2
50
58.0117541
0
VERTEX
8
1
10
538.0169889
20
292.8892754
42
0.1483149
70
2
50
89.4942680
0
VERTEX
8
1
10
537.6006210
20
294.3069948
42
0.1071109
70
2
50
120.9767887
0
VERTEX
8
1
10
536.1571538
20
295.7271247
42
0.0760522
70
2
50
147.6943167
0
VERTEX
8
1
10
534.1872535
20
296.5880597
42
0.0629303
70
2
50
164.3904956
0
VERTEX
8
1
10
531.6173097
20
296.9358731
42
0.0629303
70
2
50
179.4942705
0
VERTEX
8
1
10
529.0416266
20
296.6334795
42
0.0760522
70
2
50
194.5980454
0
VERTEX
8
1
10
527.0568358
20
295.8074521
42
0.1071109
70
2
50
211.2942242
0
VERTEX
8
1
10
525.5885248
20
294.4130241
42
0.1483149
70
2
50
238.0117659
0
SEQEND
8
1
0
ARC
8
1
62
7
10
503.7013550
20
294.6815186
40
4.9777946
50
196.9484228
51
161.8704017
0
ARC
8
2
62
1
10
520.7240601
20
328.2304382
40
3.0000000
50
270.0000007
51
1.2188752
0
ARC
8
2
62
1
10
479.7460327
20
329.2304382
40
4.0000000
50
180.0000050
51
270.0000007
0
ARC
8
2
62
1
10
542.7680054
20
328.2304382
40
3.0000000
50
178.7811304
51
270.0000007
0
LINE
8
2
62
1
10
479.7460327
20
325.2304382
11
517.7460327
21
325.2304382
0
POLYLINE
8
2
62
1
70
0
66
1
40
0.0000000
41
0.0000000
0
VERTEX
8
2
10
517.7460327
20
321.2304382
0
VERTEX
8
2
10
517.7460327
20
326.2304382
0
VERTEX
8
2
10
519.7460327
20
326.2304382
0
VERTEX
8
2
10
519.7460327
20
321.2304382
0
SEQEND
8
2
0
ARC
8
2
62
1
10
531.7460327
20
338.2304382
40
17.0293865
50
229.7636295
51
310.2363719
0
LINE
8
2
62
1
10
519.7460327
20
325.2304382
11
520.7240601
21
325.2304382
0
ARC
8
2
62
1
10
462.7460327
20
342.0875854
40
23.9408283
50
299.3581755
51
315.2417531
0
LINE
8
1
62
7
10
499.7460327
20
333.2304382
11
506.7460327
21
333.2304382
0
LINE
8
1
62
7
10
497.7460327
20
333.2304382
11
490.7460327
21
333.2304382
0
LINE
8
1
62
7
10
490.7460327
20
333.2304382
11
490.7460327
21
334.7304382
0
LINE
8
1
62
7
10
506.7460327
20
333.2304382
11
506.7460327
21
334.7304382
0
INSERT
8
1
2
ENGINE-G23
10
0.0000000
20
0.0000000
0
LINE
8
2
62
1
10
573.7460327
20
325.2304382
11
573.7460327
21
267.2304382
0
LINE
8
1
62
7
10
566.7460327
20
300.2304382
11
566.7460327
21
299.2304382
0
LINE
8
1
62
7
10
570.7460327
20
300.2304382
11
570.7460327
21
299.2304382
0
LINE
8
2
62
1
10
574.7460327
20
319.2304382
11
574.7460327
21
273.2304382
0
ARC
8
2
62
1
10
488.7460327
20
296.2304382
40
89.0224686
50
345.0271152
51
14.9728760
0
LINE
8
1
62
7
10
580.1642456
20
294.2319336
11
579.7460327
21
271.2304382
0
LINE
8
1
62
7
10
582.3278198
20
294.2319336
11
582.7460327
21
271.2304382
0
LINE
8
2
62
1
10
573.7460327
20
273.2304382
11
573.7460327
21
267.2304382
0
LINE
8
1
62
7
10
568.7460327
20
267.2304382
11
568.7460327
21
266.2304382
0
ARC
8
1
62
7
10
560.7460327
20
237.7304382
40
30.5655041
50
74.8270856
51
105.1729126
0
ARC
8
1
62
7
10
560.7460327
20
236.7304382
40
30.5655041
50
74.8270856
51
105.1729126
0
LINE
8
1
62
7
10
552.7460327
20
267.2304382
11
552.7460327
21
266.2304382
0
POLYLINE
8
1
62
7
70
1
66
1
40
0.0000000
41
0.0000000
0
VERTEX
8
1
10
578.7460327
20
270.2304382
0
VERTEX
8
1
10
578.7460327
20
271.2304382
0
VERTEX
8
1
10
583.7460327
20
271.2304382
0
VERTEX
8
1
10
583.7460327
20
270.2304382
0
SEQEND
8
1
0
POLYLINE
8
1
62
7
70
1
66
1
40
0.0000000
41
0.0000000
0
VERTEX
8
1
10
578.2460327
20
268.2304382
0
VERTEX
8
1
10
578.2460327
20
270.2304382
0
VERTEX
8
1
10
584.2460327
20
270.2304382
0
VERTEX
8
1
10
584.2460327
20
268.2304382
0
SEQEND
8
1
0
LINE
8
2
62
1
10
573.7460327
20
267.2304382
11
568.7460327
21
267.2304382
0
POLYLINE
8
1
62
7
70
1
66
1
40
0.0000000
41
0.0000000
0
VERTEX
8
1
10
564.7460327
20
291.2304382
0
VERTEX
8
1
10
564.7460327
20
299.2304382
0
VERTEX
8
1
10
572.7460327
20
299.2304382
0
VERTEX
8
1
10
572.7460327
20
291.2304382
0
SEQEND
8
1
0
CIRCLE
8
1
62
7
10
568.7460327
20
295.2304382
40
3.0000000
0
POLYLINE
8
1
62
7
70
1
66
1
40
0.0000000
41
0.0000000
0
VERTEX
8
1
10
562.7460327
20
292.2304382
0
VERTEX
8
1
10
562.7460327
20
298.2304382
0
VERTEX
8
1
10
563.7460327
20
298.2304382
0
VERTEX
8
1
10
563.7460327
20
292.2304382
0
SEQEND
8
1
0
POLYLINE
8
1
62
7
70
1
66
1
40
0.0000000
41
0.0000000
0
VERTEX
8
1
10
565.7460327
20
290.2304382
0
VERTEX
8
1
10
565.7460327
20
287.2304382
0
VERTEX
8
1
10
571.7460327
20
287.2304382
0
VERTEX
8
1
10
571.7460327
20
290.2304382
0
SEQEND
8
1
0
LINE
8
1
62
7
10
566.7460327
20
290.2304382
11
566.7460327
21
291.2304382
0
LINE
8
1
62
7
10
563.7460327
20
293.2304382
11
564.7460327
21
293.2304382
0
LINE
8
1
62
7
10
563.7460327
20
297.2304382
11
564.7460327
21
297.2304382
0
LINE
8
1
62
7
10
570.7460327
20
290.2304382
11
570.7460327
21
291.2304382
0
POLYLINE
8
1
62
7
70
1
66
1
40
0.0000000
41
0.0000000
0
VERTEX
8
1
10
578.7460327
20
291.2304382
0
VERTEX
8
1
10
578.7460327
20
299.2304382
0
VERTEX
8
1
10
579.7460327
20
299.2304382
0
VERTEX
8
1
10
579.7460327
20
291.2304382
0
SEQEND
8
1
0
POLYLINE
8
1
62
7
70
1
66
1
40
0.0000000
41
0.0000000
0
VERTEX
8
1
10
579.7460327
20
294.2304382
0
VERTEX
8
1
10
579.7460327
20
295.7304382
0
VERTEX
8
1
10
582.7460327
20
295.7304382
0
VERTEX
8
1
10
582.7460327
20
294.2304382
0
SEQEND
8
1
0
LINE
8
1
62
7
10
582.2460327
20
298.7304382
11
582.3005371
21
295.7314148
0
ARC
8
1
62
7
10
581.2460327
20
298.7304382
40
1.0000000
50
0.0000000
51
180.0000050
0
LINE
8
1
62
7
10
580.2460327
20
298.7304382
11
580.1915283
21
295.7314148
0
LINE
8
1
62
7
10
572.7460327
20
297.2304382
11
573.7460327
21
297.2304382
0
LINE
8
1
62
7
10
572.7460327
20
293.2304382
11
573.7460327
21
293.2304382
0
LINE
8
1
62
7
10
578.7460327
20
298.2304382
11
577.7460327
21
298.2304382
0
LINE
8
1
62
7
10
578.7460327
20
292.2304382
11
577.7460327
21
292.2304382
0
LINE
8
2
62
1
10
573.7460327
20
273.2304382
11
574.7460327
21
273.2304382
0
POLYLINE
8
1
62
7
70
1
66
1
40
0.0000000
41
0.0000000
0
VERTEX
8
1
10
561.2460327
20
324.2304382
0
VERTEX
8
1
10
561.2460327
20
327.2304382
0
VERTEX
8
1
10
562.2460327
20
327.2304382
0
VERTEX
8
1
10
562.2460327
20
324.2304382
0
SEQEND
8
1
0
POLYLINE
8
1
62
7
70
1
66
1
40
0.0000000
41
0.0000000
0
VERTEX
8
1
10
553.7460327
20
324.2304382
0
VERTEX
8
1
10
553.7460327
20
327.2304382
0
VERTEX
8
1
10
554.7460327
20
327.2304382
0
VERTEX
8
1
10
554.7460327
20
324.2304382
0
SEQEND
8
1
0
POLYLINE
8
1
62
7
70
1
66
1
40
0.0000000
41
0.0000000
0
VERTEX
8
1
10
568.7460327
20
324.2304382
0
VERTEX
8
1
10
568.7460327
20
327.2304382
0
VERTEX
8
1
10
569.7460327
20
327.2304382
0
VERTEX
8
1
10
569.7460327
20
324.2304382
0
SEQEND
8
1
0
POLYLINE
8
1
62
7
70
1
66
1
40
0.0000000
41
0.0000000
0
VERTEX
8
1
10
565.7460327
20
300.2304382
0
VERTEX
8
1
10
565.7460327
20
303.2304382
0
VERTEX
8
1
10
571.7460327
20
303.2304382
0
VERTEX
8
1
10
571.7460327
20
300.2304382
0
SEQEND
8
1
0
LINE
8
1
62
7
10
569.7460327
20
321.2304382
11
563.7460327
21
321.2304382
0
LINE
8
1
62
7
10
563.7460327
20
319.2304382
11
569.7460327
21
319.2304382
0
LINE
8
1
62
7
10
569.7460327
20
319.2304382
11
569.7460327
21
321.2304382
0
POLYLINE
8
1
62
7
70
1
66
1
40
0.0000000
41
0.0000000
0
VERTEX
8
1
10
569.7460327
20
318.2304382
0
VERTEX
8
1
10
569.7460327
20
322.2304382
0
VERTEX
8
1
10
572.7460327
20
322.2304382
0
VERTEX
8
1
10
572.7460327
20
318.2304382
0
SEQEND
8
1
0
POLYLINE
8
1
62
7
70
1
66
1
40
0.0000000
41
0.0000000
0
VERTEX
8
1
10
561.7460327
20
313.2304382
0
VERTEX
8
1
10
561.7460327
20
318.2304382
0
VERTEX
8
1
10
562.7460327
20
318.2304382
0
VERTEX
8
1
10
562.7460327
20
313.2304382
0
SEQEND
8
1
0
POLYLINE
8
1
62
7
70
1
66
1
40
0.0000000
41
0.0000000
0
VERTEX
8
1
10
560.7460327
20
318.2304382
0
VERTEX
8
1
10
560.7460327
20
322.2304382
0
VERTEX
8
1
10
563.7460327
20
322.2304382
0
VERTEX
8
1
10
563.7460327
20
318.2304382
0
SEQEND
8
1
0
LINE
8
2
62
1
10
573.7460327
20
319.2304382
11
574.7460327
21
319.2304382
0
LINE
8
2
62
1
10
569.7460327
20
325.2304382
11
573.7460327
21
325.2304382
0
LINE
8
2
62
1
10
562.2460327
20
325.2304382
11
568.7460327
21
325.2304382
0
LINE
8
2
62
1
10
554.7460327
20
325.2304382
11
561.2460327
21
325.2304382
0
LINE
8
1
62
7
10
571.7460327
20
333.2304382
11
569.7460327
21
333.2304382
0
POLYLINE
8
1
62
7
70
1
66
1
40
0.0000000
41
0.0000000
0
VERTEX
8
1
10
552.7460327
20
327.2304382
0
VERTEX
8
1
10
552.7460327
20
328.2304382
0
VERTEX
8
1
10
570.7460327
20
328.2304382
0
VERTEX
8
1
10
570.7460327
20
327.2304382
0
SEQEND
8
1
0
LINE
8
1
62
7
10
569.7460327
20
328.2304382
11
553.7460327
21
328.2304382
0
LINE
8
1
62
7
10
553.7460327
20
329.2304382
11
569.7460327
21
329.2304382
0
LINE
8
1
62
7
10
498.2460327
20
345.2304382
11
498.2460327
21
352.2304382
0
LINE
8
1
62
7
10
499.2460327
20
352.2304382
11
499.2460327
21
345.2304382
0
LINE
8
1
62
7
10
498.2460327
20
352.2304382
11
499.2460327
21
352.2304382
0
LINE
8
1
62
7
10
497.7460327
20
344.9682922
11
497.7460327
21
351.2304382
0
LINE
8
1
62
7
10
499.7460327
20
351.2304382
11
499.7460327
21
344.9844971
0
LINE
8
1
62
7
10
497.7460327
20
351.2304382
11
498.2460327
21
351.2304382
0
LINE
8
1
62
7
10
499.2460327
20
351.2304382
11
499.7460327
21
351.2304382
0
LINE
8
1
62
7
10
501.6947327
20
345.9142151
11
499.7460327
21
346.5637512
0
ARC
8
1
62
7
10
490.7460327
20
340.1387634
40
3.0000000
50
326.3099380
51
359.9999827
0
LINE
8
1
62
7
10
493.7460327
20
340.1387634
11
493.7460327
21
343.0681458
0
ARC
8
1
62
7
10
496.7460327
20
343.0681458
40
3.0000000
50
108.4350587
51
180.0000050
0
LINE
8
1
62
7
10
495.7973328
20
345.9142151
11
497.7460327
21
346.5637512
0
CIRCLE
8
1
62
7
10
498.7460327
20
343.2304382
40
2.0000000
0
ARC
8
1
62
7
10
506.7460327
20
340.1387634
40
3.0000000
50
180.0000050
51
213.6900634
0
LINE
8
1
62
7
10
503.7460327
20
340.1387634
11
503.7460327
21
343.0681458
0
ARC
8
1
62
7
10
500.7460327
20
343.0681458
40
3.0000000
50
0.0000000
51
71.5649394
0
LINE
8
2
62
1
10
522.6821899
20
377.2304382
11
540.8098755
21
377.2304382
0
LINE
8
1
62
7
10
564.7460327
20
362.2304382
11
564.7460327
21
356.2304382
0
LINE
8
1
62
7
10
558.7460327
20
356.2304382
11
558.7460327
21
362.2304382
0
LINE
8
1
62
7
10
569.7460327
20
349.2304382
11
571.7460327
21
349.2304382
0
LINE
8
1
62
7
10
553.7460327
20
353.2304382
11
569.7460327
21
353.2304382
0
LINE
8
1
62
7
10
552.7460327
20
354.2304382
11
570.7460327
21
354.2304382
0
LINE
8
1
62
7
10
570.7460327
20
354.2304382
11
570.7460327
21
353.2304382
0
LINE
8
1
62
7
10
570.7460327
20
353.2304382
11
569.7460327
21
353.2304382
0
LINE
8
1
62
7
10
564.7460327
20
356.2304382
11
558.7460327
21
356.2304382
0
LINE
8
1
62
7
10
552.7460327
20
354.2304382
11
558.7460327
21
356.2304382
0
LINE
8
1
62
7
10
564.7460327
20
356.2304382
11
570.7460327
21
354.2304382
0
POLYLINE
8
1
62
7
70
1
66
1
40
0.0000000
41
0.0000000
0
VERTEX
8
1
10
559.7460327
20
356.2304382
0
VERTEX
8
1
10
559.7460327
20
357.2304382
0
VERTEX
8
1
10
563.7460327
20
357.2304382
0
VERTEX
8
1
10
563.7460327
20
356.2304382
0
SEQEND
8
1
0
LINE
8
1
62
7
10
567.7460327
20
350.2304382
11
567.7460327
21
348.2304382
0
LINE
8
1
62
7
10
566.7460327
20
347.2304382
11
556.7460327
21
347.2304382
0
ARC
8
1
62
7
10
566.7460327
20
348.2304382
40
1.0000000
50
270.0000007
51
0.0000000
0
ARC
8
1
62
7
10
566.7460327
20
350.2304382
40
1.0000000
50
0.0000000
51
90.0000025
0
LINE
8
1
62
7
10
556.7460327
20
351.2304382
11
566.7460327
21
351.2304382
0
LINE
8
1
62
7
10
553.7460327
20
353.2304382
11
552.7460327
21
353.2304382
0
LINE
8
1
62
7
10
552.7460327
20
353.2304382
11
552.7460327
21
354.2304382
0
ARC
8
1
62
7
10
556.7460327
20
350.2304382
40
1.0000000
50
90.0000025
51
180.0000050
0
LINE
8
1
62
7
10
555.7460327
20
348.2304382
11
555.7460327
21
350.2304382
0
ARC
8
1
62
7
10
556.7460327
20
348.2304382
40
1.0000000
50
180.0000050
51
270.0000007
0
LINE
8
1
62
7
10
558.7460327
20
362.2304382
11
564.7460327
21
362.2304382
0
POLYLINE
8
1
62
7
70
1
66
1
40
0.0000000
41
0.0000000
0
VERTEX
8
1
10
557.7460327
20
362.2304382
0
VERTEX
8
1
10
557.7460327
20
363.2304382
0
VERTEX
8
1
10
565.7460327
20
363.2304382
0
VERTEX
8
1
10
565.7460327
20
362.2304382
0
SEQEND
8
1
0
POLYLINE
8
1
62
7
70
1
66
1
40
0.0000000
41
0.0000000
0
VERTEX
8
1
10
558.7460327
20
363.2304382
0
VERTEX
8
1
10
558.7460327
20
365.2304382
0
VERTEX
8
1
10
564.7460327
20
365.2304382
0
VERTEX
8
1
10
564.7460327
20
363.2304382
0
SEQEND
8
1
0
POLYLINE
8
1
62
7
70
1
66
1
40
0.0000000
41
0.0000000
0
VERTEX
8
1
10
559.7460327
20
363.2304382
0
VERTEX
8
1
10
559.7460327
20
364.2304382
0
VERTEX
8
1
10
563.7460327
20
364.2304382
0
VERTEX
8
1
10
563.7460327
20
363.2304382
0
SEQEND
8
1
0
ENDSEC
0
EOF
