  0
SECTION
  2
HEADER
  9
$ACADVER
  1
AC1004
  9
$EXTMIN
 10
-12.5115
 20
0.7200
  9
$EXTMAX
 10
5.0784
 20
5.9510
  9
$LIMMIN
 10
-12.5115
 20
0.7200
  9
$LIMMAX
 10
5.0784
 20
5.9510
  9
$INSBASE
 10
0.0
 20
0.0
  9
$VIEWCTR
 10
7.21903
 20
4.5
  9
$VIEWSIZE
 40
9.0
  9
$SNAPMODE
 70
     0
  9
$SNAPUNIT
 10
1.0
 20
1.0
  9
$SNAPBASE
 10
0.0
 20
0.0
  9
$SNAPANG
 50
0.0
  9
$SNAPSTYLE
 70
     0
  9
$SNAPISOPAIR
 70
     0
  9
$GRIDMODE
 70
     0
  9
$GRIDUNIT
 10
0.0
 20
0.0
  9
$ORTHOMODE
 70
     0
  9
$REGENMODE
 70
     1
  9
$FILLMODE
 70
     1
  9
$QTEXTMODE
 70
     0
  9
$DRAGMODE
 70
     2
  9
$LTSCALE
 40
1.0
  9
$OSMODE
 70
     0
  9
$ATTMODE
 70
     1
  9
$TEXTSIZE
 40
0.2
  9
$TRACEWID
 40
0.05
  9
$TEXTSTYLE
  7
STANDARD
  9
$CLAYER
  8
0
  9
$CELTYPE
  6
BYLAYER
  9
$CECOLOR
 62
   256
  9
$DIMSCALE
 40
1.0
  9
$DIMASZ
 40
0.18
  9
$DIMEXO
 40
0.0625
  9
$DIMDLI
 40
0.38
  9
$DIMRND
 40
0.0
  9
$DIMDLE
 40
0.0
  9
$DIMEXE
 40
0.18
  9
$DIMTP
 40
0.0
  9
$DIMTM
 40
0.0
  9
$DIMTXT
 40
0.18
  9
$DIMCEN
 40
0.09
  9
$DIMTSZ
 40
0.0
  9
$DIMTOL
 70
     0
  9
$DIMLIM
 70
     0
  9
$DIMTIH
 70
     1
  9
$DIMTOH
 70
     1
  9
$DIMSE1
 70
     0
  9
$DIMSE2
 70
     0
  9
$DIMTAD
 70
     0
  9
$DIMZIN
 70
     0
  9
$DIMBLK
  1

  9
$DIMASO
 70
     1
  9
$DIMSHO
 70
     0
  9
$DIMPOST
  1

  9
$DIMAPOST
  1

  9
$DIMALT
 70
     0
  9
$DIMALTD
 70
     2
  9
$DIMALTF
 40
25.4
  9
$DIMLFAC
 40
1.0
  9
$LUNITS
 70
     2
  9
$LUPREC
 70
     4
  9
$AXISMODE
 70
     0
  9
$AXISUNIT
 10
0.0
 20
0.0
  9
$SKETCHINC
 40
0.1
  9
$FILLETRAD
 40
0.0
  9
$AUNITS
 70
     0
  9
$AUPREC
 70
     0
  9
$MENU
  1
acad
  9
$ELEVATION
 40
0.0
  9
$THICKNESS
 40
0.0
  9
$VIEWDIR
 10
0.0
 20
0.0
 30
1.0
  9
$LIMCHECK
 70
     0
  9
$BLIPMODE
 70
     1
  9
$CHAMFERA
 40
0.0
  9
$CHAMFERB
 40
0.0
  9
$FASTZOOM
 70
     1
  9
$SKPOLY
 70
     0
  9
$TDCREATE
 40
2447222.5666886573
  9
$TDUPDATE
 40
2447222.5666886573
  9
$TDINDWG
 40
0.0000000000
  9
$TDUSRTIMER
 40
0.0000000000
  9
$USRTIMER
 70
     1
  9
$ANGBASE
 50
0.0
  9
$ANGDIR
 70
     0
  9
$PDMODE
 70
     0
  9
$PDSIZE
 40
0.0
  9
$PLINEWID
 40
0.0
  9
$COORDS
 70
     0
  9
$SPLFRAME
 70
     0
  9
$SPLINESEGS
 70
     8
  9
$ATTDIA
 70
     0
  9
$ATTREQ
 70
     1
  9
$USERI1
 70
     0
  9
$USERI2
 70
     0
  9
$USERI3
 70
     0
  9
$USERI4
 70
     0
  9
$USERI5
 70
     0
  9
$USERR1
 40
0.0
  9
$USERR2
 40
0.0
  9
$USERR3
 40
0.0
  9
$USERR4
 40
0.0
  9
$USERR5
 40
0.0
  0
ENDSEC
  0
SECTION
  2
TABLES
  0
TABLE
  2
LTYPE
 70
     13
  0
LTYPE
  2
CONTINUOUS
 70
    64
  3
Solid line
 72
    65
 73
     0
 40
0.0
  0
LTYPE
  2
DASHED
 70
    64
  3
__ __ __ __ __ __ __ __ __ __ __ __ __ __ __
 72
    65
 73
     2
 40
0.75
 49
0.5
 49
-0.25
  0
LTYPE
  2
HIDDEN
 70
    64
  3
_ _ _ _ _ _ _ _ _ _ _ _ _ _ _ _ _ _ _ _ _ _ _
 72
    65
 73
     2
 40
0.375
 49
0.25
 49
-0.125
  0
LTYPE
  2
CENTER
 70
    64
  3
____ _ ____ _ ____ _ ____ _ ____ _ ____ _ ____
 72
    65
 73
     4
 40
2.0
 49
1.25
 49
-0.25
 49
0.25
 49
-0.25
  0
LTYPE
  2
PHANTOM
 70
    64
  3
_____ _ _ _____ _ _ _____ _ _ _____ _ _ ____
 72
    65
 73
     6
 40
2.5
 49
1.25
 49
-0.25
 49
0.25
 49
-0.25
 49
0.25
 49
-0.25
  0
LTYPE
  2
DOT
 70
    64
  3
...............................................
 72
    65
 73
     2
 40
0.25
 49
0.0
 49
-0.25
  0
LTYPE
  2
DASHDOT
 70
    64
  3
__ . __ . __ . __ . __ . __ . __ . __ . __ . __
 72
    65
 73
     4
 40
1.0
 49
0.5
 49
-0.25
 49
0.0
 49
-0.25
  0
LTYPE
  2
BORDER
 70
    64
  3
__ __ . __ __ . __ __ . __ __ . __ __ . __ __
 72
    65
 73
     6
 40
1.75
 49
0.5
 49
-0.25
 49
0.5
 49
-0.25
 49
0.0
 49
-0.25
  0
LTYPE
  2
DIVIDE
 70
    64
  3
__ . . __ . . __ . . __ . . __ . . __ . . __
 72
    65
 73
     6
 40
1.25
 49
0.5
 49
-0.25
 49
0.0
 49
-0.25
 49
0.0
 49
-0.25
  0
LTYPE
  2
DCTYPE1
 70
    64
  3
__ . . __ . . __ . . __ . . __ . . __ . . __
 72
    65
 73
     8
 40
2.5
 49
0.5
 49
-0.25
 49
0.125
 49
-0.25
 49
0.25
 49
-0.25
 49
0.125
 49
-0.25
  0
LTYPE
  2
DCTYPE2
 70
    64
  3
__ . . __ . . __ . . __ . . __ . . __ . . __
 72
    65
 73
     6
 40
2.05
 49
1.0
 49
-0.3
 49
0.15
 49
-0.15
 49
0.15
 49
-0.3
  0
LTYPE
  2
DCTYPE3
 70
    64
  3
__ . . __ . . __ . . __ . . __ . . __ . . __
 72
    65
 73
     6
 40
2.5
 49
0.8
 49
-0.2
 49
0.8
 49
-0.2
 49
0.3
 49
-0.2
  0
LTYPE
  2
DCTYPE4
 70
    64
  3
__ . . __ . . __ . . __ . . __ . . __ . . __
 72
    65
 73
     10
 40
3.97
 49
1.75
 49
-0.3
 49
0.3
 49
-0.3
 49
0.06
 49
-0.3
 49
0.06
 49
-0.3
 49
0.3
 49
-0.3
  0
ENDTAB
  0
TABLE
  2
LAYER
 70
    153
  0
LAYER
  2
0
 70
 64
 62
     1
  6
CONTINUOUS
  0
ENDTAB
  0
ENDSEC
  0
SECTION
  2
BLOCKS
  0
ENDSEC
  0
SECTION
  2
ENTITIES
  0
CIRCLE
  8
0
 62
     1
  6
CONTINUOUS
 10
1.1634
 20
4.9850
 40
0.4500
  0
CIRCLE
  8
0
 62
     1
  6
CONTINUOUS
 10
1.1634
 20
4.9850
 40
0.2000
  0
POLYLINE
  8
0
 62
     1
 66
     1
  6
CONTINUOUS
 40
0.0200
 41
0.0200
  0
VERTEX
  8
0
 62
     1
  6
CONTINUOUS
 10
1.9634
 20
5.3850
  0
VERTEX
  8
0
 62
     1
  6
CONTINUOUS
 10
1.9634
 20
4.0850
  0
VERTEX
  8
0
 62
     1
  6
CONTINUOUS
 10
2.8634
 20
4.0850
  0
VERTEX
  8
0
 62
     1
  6
CONTINUOUS
 10
2.8634
 20
5.3850
  0
VERTEX
  8
0
 62
     1
  6
CONTINUOUS
 10
1.9634
 20
5.3850
  0
SEQEND
  8
0
  0
TEXT
  8
0
 62
     1
 10
2.1134
 20
5.1350
 40
0.4000
  1
900mah 
 72
     5
 11
2.1134
 21
4.1350
  0
TEXT
  8
0
 62
     1
 10
0.8554
 20
4.8888
 40
0.1860
  1
9
 72
     5
 11
0.8474
 21
5.0187
  0
TEXT
  8
0
 62
     1
 10
0.8493
 20
5.0303
 40
0.1860
  1
0
 72
     5
 11
0.8977
 21
5.1512
  0
TEXT
  8
0
 62
     1
 10
0.9043
 20
5.1608
 40
0.1860
  1
0
 72
     5
 11
0.9997
 21
5.2494
  0
TEXT
  8
0
 62
     1
 10
1.0094
 20
5.2494
 40
0.1860
  1
 
 72
     5
 11
1.0690
 21
5.2757
  0
TEXT
  8
0
 62
     1
 10
1.0870
 20
5.2926
 40
0.1860
  1
m
 72
     5
 11
1.2692
 21
5.2864
  0
TEXT
  8
0
 62
     1
 10
1.2890
 20
5.2711
 40
0.1860
  1
a
 72
     5
 11
1.3876
 21
5.2078
  0
TEXT
  8
0
 62
     1
 10
1.3994
 20
5.1961
 40
0.1860
  1
h
 72
     5
 11
1.4639
 21
5.0982
  0
TEXT
  8
0
 62
     1
 10
3.6028
 20
4.8415
 40
0.1572
  1
8
 72
     5
 11
3.6413
 21
4.9445
  0
TEXT
  8
0
 62
     1
 10
3.6512
 20
4.9547
 40
0.1572
  1
0
 72
     5
 11
3.7534
 21
4.9955
  0
TEXT
  8
0
 62
     1
 10
3.7675
 20
4.9950
 40
0.1572
  1
0
 72
     5
 11
3.8665
 21
4.9469
  0
TEXT
  8
0
 62
     1
 10
3.6751
 20
4.5731
 40
0.1496
  1
m
 72
     5
 11
3.8216
 21
4.5664
  0
TEXT
  8
0
 62
     1
 10
3.8383
 20
4.5746
 40
0.1496
  1
a
 72
     5
 11
3.9262
 21
4.6088
  0
TEXT
  8
0
 62
     1
 10
3.9372
 20
4.6153
 40
0.1496
  1
h
 72
     5
 11
4.0096
 21
4.6756
  0
POLYLINE
  8
0
 62
     1
 66
     1
  6
CONTINUOUS
 40
0.0200
 41
0.0200
  0
VERTEX
  8
0
 62
     1
  6
CONTINUOUS
 10
4.4634
 20
5.3850
  0
VERTEX
  8
0
 62
     1
  6
CONTINUOUS
 10
4.4634
 20
3.4850
  0
VERTEX
  8
0
 62
     1
  6
CONTINUOUS
 10
5.0634
 20
3.4850
  0
VERTEX
  8
0
 62
     1
  6
CONTINUOUS
 10
5.0634
 20
5.3850
  0
VERTEX
  8
0
 62
     1
  6
CONTINUOUS
 10
4.4634
 20
5.3850
  0
SEQEND
  8
0
  0
TEXT
  8
0
 62
     1
 10
4.6134
 20
5.2850
 40
0.1678
  1
800 mah AR
 72
     5
 11
4.6134
 21
3.5350
  0
CIRCLE
  8
0
 62
     1
  6
CONTINUOUS
 10
1.4634
 20
1.4850
 40
0.4610
  0
CIRCLE
  8
0
 62
     1
  6
CONTINUOUS
 10
1.4634
 20
1.4850
 40
0.2062
  0
TEXT
  8
0
 62
     1
 10
1.2588
 20
1.5408
 40
0.1524
  1
1
 72
     5
 11
1.3022
 21
1.6383
  0
TEXT
  8
0
 62
     1
 10
1.3080
 20
1.6460
 40
0.1524
  1
4
 72
     5
 11
1.3896
 21
1.7146
  0
TEXT
  8
0
 62
     1
 10
1.3982
 20
1.7190
 40
0.1524
  1
0
 72
     5
 11
1.5016
 21
1.7450
  0
TEXT
  8
0
 62
     1
 10
1.5113
 20
1.7452
 40
0.1524
  1
0
 72
     5
 11
1.6157
 21
1.7232
  0
TEXT
  8
0
 62
     1
 10
1.6202
 20
1.7166
 40
0.1524
  1
 
 72
     5
 11
1.6657
 21
1.6888
  0
TEXT
  8
0
 62
     1
 10
1.6857
 20
1.6846
 40
0.1524
  1
m
 72
     5
 11
1.7651
 21
1.5581
  0
TEXT
  8
0
 62
     1
 10
1.7636
 20
1.5375
 40
0.1524
  1
a
 72
     5
 11
1.7646
 21
1.4415
  0
TEXT
  8
0
 62
     1
 10
1.7618
 20
1.4281
 40
0.1524
  1
h
 72
     5
 11
1.7228
 21
1.3404
  0
TEXT
  8
0
 62
     1
 10
1.1124
 20
1.2253
 40
0.1975
  1
S
 72
     5
 11
1.2241
 21
1.1221
  0
TEXT
  8
0
 62
     1
 10
1.2378
 20
1.1107
 40
0.1975
  1
C
 72
     5
 11
1.4078
 21
1.0526
  0
TEXT
  8
0
 62
     1
 10
1.4284
 20
1.0505
 40
0.1975
  1
R
 72
     5
 11
1.6068
 21
1.0729
  0
TEXT
  8
0
 62
     1
 10
0.9656
 20
4.6219
 40
0.2269
  1
S
 72
     5
 11
1.1311
 21
4.5659
  0
TEXT
  8
0
 62
     1
 10
1.1528
 20
4.5605
 40
0.2269
  1
C
 72
     5
 11
1.3544
 21
4.6050
  0
TEXT
  8
0
 62
     1
 10
1.3772
 20
4.6178
 40
0.2269
  1
R
 72
     5
 11
1.5195
 21
4.7673
  0
CIRCLE
  8
0
 62
     1
  6
CONTINUOUS
 10
3.7634
 20
4.8350
 40
0.3000
  0
CIRCLE
  8
0
 62
     1
  6
CONTINUOUS
 10
3.7634
 20
4.8350
 40
0.1500
  0
POLYLINE
  8
0
 62
     1
 66
     1
  6
CONTINUOUS
 40
0.0200
 41
0.0200
  0
VERTEX
  8
0
 62
     1
  6
CONTINUOUS
 10
2.2634
 20
0.7350
  0
VERTEX
  8
0
 62
     1
  6
CONTINUOUS
 10
2.2634
 20
2.3350
  0
VERTEX
  8
0
 62
     1
  6
CONTINUOUS
 10
3.1634
 20
2.3350
  0
VERTEX
  8
0
 62
     1
  6
CONTINUOUS
 10
3.1634
 20
0.7350
  0
VERTEX
  8
0
 62
     1
  6
CONTINUOUS
 10
2.2634
 20
0.7350
  0
SEQEND
  8
0
  0
TEXT
  8
0
 62
     1
 10
2.5134
 20
2.2350
 40
0.4000
  1
1400 mah SCR
 72
     5
 11
2.5134
 21
0.7850
  0
ARC
  8
0
 62
     7
  6
CONTINUOUS
 10
-0.0191
 20
3.2145
 40
0.0826
 50
2.9748
 51
-177.1373
  0
POLYLINE
  8
0
 62
     7
 66
     1
  6
CONTINUOUS
 40
0.0200
 41
0.0200
  0
VERTEX
  8
0
 62
     7
  6
CONTINUOUS
 10
-0.1016
 20
3.2104
  0
VERTEX
  8
0
 62
     7
  6
CONTINUOUS
 10
0.0634
 20
3.2106
  0
SEQEND
  8
0
  0
POLYLINE
  8
0
 62
     7
 66
     1
  6
CONTINUOUS
 40
0.0200
 41
0.0200
  0
VERTEX
  8
0
 62
     7
  6
CONTINUOUS
 10
0.0271
 20
3.1875
  0
VERTEX
  8
0
 62
     7
  6
CONTINUOUS
 10
-0.0491
 20
3.1553
  0
SEQEND
  8
0
  0
POLYLINE
  8
0
 62
     7
 66
     1
  6
CONTINUOUS
 40
0.0200
 41
0.0200
  0
VERTEX
  8
0
 62
     7
  6
CONTINUOUS
 10
0.0247
 20
3.1196
  0
VERTEX
  8
0
 62
     7
  6
CONTINUOUS
 10
-0.0516
 20
3.0874
  0
SEQEND
  8
0
  0
POLYLINE
  8
0
 62
     7
 66
     1
  6
CONTINUOUS
 40
0.0200
 41
0.0200
  0
VERTEX
  8
0
 62
     7
  6
CONTINUOUS
 10
0.0218
 20
3.1541
  0
VERTEX
  8
0
 62
     7
  6
CONTINUOUS
 10
-0.0545
 20
3.1217
  0
SEQEND
  8
0
  0
POLYLINE
  8
0
 62
     7
 66
     1
  6
CONTINUOUS
 40
0.0200
 41
0.0200
  0
VERTEX
  8
0
 62
     7
  6
CONTINUOUS
 10
0.0254
 20
3.0563
  0
VERTEX
  8
0
 62
     7
  6
CONTINUOUS
 10
-0.0508
 20
3.0242
  0
SEQEND
  8
0
  0
POLYLINE
  8
0
 62
     7
 66
     1
  6
CONTINUOUS
 40
0.0200
 41
0.0200
  0
VERTEX
  8
0
 62
     7
  6
CONTINUOUS
 10
0.0225
 20
3.0860
  0
VERTEX
  8
0
 62
     7
  6
CONTINUOUS
 10
-0.0538
 20
3.0538
  0
SEQEND
  8
0
  0
POLYLINE
  8
0
 62
     7
 66
     1
  6
CONTINUOUS
 40
0.0200
 41
0.0200
  0
VERTEX
  8
0
 62
     7
  6
CONTINUOUS
 10
0.0230
 20
2.9886
  0
VERTEX
  8
0
 62
     7
  6
CONTINUOUS
 10
-0.0533
 20
2.9563
  0
SEQEND
  8
0
  0
POLYLINE
  8
0
 62
     7
 66
     1
  6
CONTINUOUS
 40
0.0200
 41
0.0200
  0
VERTEX
  8
0
 62
     7
  6
CONTINUOUS
 10
0.0201
 20
3.0230
  0
VERTEX
  8
0
 62
     7
  6
CONTINUOUS
 10
-0.0562
 20
2.9906
  0
SEQEND
  8
0
  0
POLYLINE
  8
0
 62
     7
 66
     1
  6
CONTINUOUS
 40
0.0200
 41
0.0200
  0
VERTEX
  8
0
 62
     7
  6
CONTINUOUS
 10
0.0222
 20
2.9519
  0
VERTEX
  8
0
 62
     7
  6
CONTINUOUS
 10
-0.0540
 20
2.9196
  0
SEQEND
  8
0
  0
POLYLINE
  8
0
 62
     7
 66
     1
  6
CONTINUOUS
 40
0.0200
 41
0.0200
  0
VERTEX
  8
0
 62
     7
  6
CONTINUOUS
 10
0.0198
 20
2.8839
  0
VERTEX
  8
0
 62
     7
  6
CONTINUOUS
 10
-0.0565
 20
2.8517
  0
SEQEND
  8
0
  0
POLYLINE
  8
0
 62
     7
 66
     1
  6
CONTINUOUS
 40
0.0200
 41
0.0200
  0
VERTEX
  8
0
 62
     7
  6
CONTINUOUS
 10
0.0169
 20
2.9182
  0
VERTEX
  8
0
 62
     7
  6
CONTINUOUS
 10
-0.0594
 20
2.8860
  0
SEQEND
  8
0
  0
POLYLINE
  8
0
 62
     7
 66
     1
  6
CONTINUOUS
 40
0.0200
 41
0.0200
  0
VERTEX
  8
0
 62
     7
  6
CONTINUOUS
 10
0.0206
 20
2.8207
  0
VERTEX
  8
0
 62
     7
  6
CONTINUOUS
 10
-0.0557
 20
2.7886
  0
SEQEND
  8
0
  0
POLYLINE
  8
0
 62
     7
 66
     1
  6
CONTINUOUS
 40
0.0200
 41
0.0200
  0
VERTEX
  8
0
 62
     7
  6
CONTINUOUS
 10
0.0176
 20
2.8505
  0
VERTEX
  8
0
 62
     7
  6
CONTINUOUS
 10
-0.0586
 20
2.8181
  0
SEQEND
  8
0
  0
POLYLINE
  8
0
 62
     7
 66
     1
  6
CONTINUOUS
 40
0.0200
 41
0.0200
  0
VERTEX
  8
0
 62
     7
  6
CONTINUOUS
 10
0.0152
 20
2.7874
  0
VERTEX
  8
0
 62
     7
  6
CONTINUOUS
 10
-0.0611
 20
2.7551
  0
SEQEND
  8
0
  0
POLYLINE
  8
0
 62
     7
 66
     1
  6
CONTINUOUS
 40
0.0200
 41
0.0200
  0
VERTEX
  8
0
 62
     7
  6
CONTINUOUS
 10
-0.0932
 20
2.7816
  0
VERTEX
  8
0
 62
     7
  6
CONTINUOUS
 10
-0.0932
 20
2.7793
  0
VERTEX
  8
0
 62
     7
  6
CONTINUOUS
 10
-0.0886
 20
2.7791
  0
VERTEX
  8
0
 62
     7
  6
CONTINUOUS
 10
-0.0886
 20
2.7814
  0
VERTEX
  8
0
 62
     7
  6
CONTINUOUS
 10
-0.0932
 20
2.7816
  0
SEQEND
  8
0
  0
POLYLINE
  8
0
 62
     7
 66
     1
  6
CONTINUOUS
 40
0.0200
 41
0.0200
  0
VERTEX
  8
0
 62
     7
  6
CONTINUOUS
 10
-0.1805
 20
2.7837
  0
VERTEX
  8
0
 62
     7
  6
CONTINUOUS
 10
-0.1805
 20
2.7492
  0
VERTEX
  8
0
 62
     7
  6
CONTINUOUS
 10
0.1275
 20
2.7492
  0
VERTEX
  8
0
 62
     7
  6
CONTINUOUS
 10
0.1275
 20
2.7837
  0
VERTEX
  8
0
 62
     7
  6
CONTINUOUS
 10
-0.1805
 20
2.7837
  0
SEQEND
  8
0
  0
POLYLINE
  8
0
 62
     7
 66
     1
  6
CONTINUOUS
 40
0.0200
 41
0.0200
  0
VERTEX
  8
0
 62
     7
  6
CONTINUOUS
 10
-0.1690
 20
2.7908
  0
VERTEX
  8
0
 62
     7
  6
CONTINUOUS
 10
-0.1460
 20
2.8597
  0
VERTEX
  8
0
 62
     7
  6
CONTINUOUS
 10
-0.1162
 20
2.7862
  0
SEQEND
  8
0
  0
POLYLINE
  8
0
 62
     7
 66
     1
  6
CONTINUOUS
 40
0.0200
 41
0.0200
  0
VERTEX
  8
0
 62
     7
  6
CONTINUOUS
 10
0.0657
 20
2.7908
  0
VERTEX
  8
0
 62
     7
  6
CONTINUOUS
 10
0.0886
 20
2.8599
  0
VERTEX
  8
0
 62
     7
  6
CONTINUOUS
 10
0.1185
 20
2.7862
  0
SEQEND
  8
0
  0
POLYLINE
  8
0
 62
     7
 66
     1
  6
CONTINUOUS
 40
0.0200
 41
0.0200
  0
VERTEX
  8
0
 62
     7
  6
CONTINUOUS
 10
-0.0863
 20
2.8965
  0
VERTEX
  8
0
 62
     7
  6
CONTINUOUS
 10
-0.0863
 20
2.7742
  0
SEQEND
  8
0
  0
POLYLINE
  8
0
 62
     7
 66
     1
  6
CONTINUOUS
 40
0.0200
 41
0.0200
  0
VERTEX
  8
0
 62
     7
  6
CONTINUOUS
 10
0.0425
 20
2.7741
  0
VERTEX
  8
0
 62
     7
  6
CONTINUOUS
 10
0.0425
 20
2.8964
  0
VERTEX
  8
0
 62
     7
  6
CONTINUOUS
 10
-0.0863
 20
2.8965
  0
SEQEND
  8
0
  0
POLYLINE
  8
0
 62
     7
 66
     1
  6
CONTINUOUS
 40
0.0200
 41
0.0200
  0
VERTEX
  8
0
 62
     7
  6
CONTINUOUS
 10
-0.0544
 20
3.2078
  0
VERTEX
  8
0
 62
     7
  6
CONTINUOUS
 10
-0.0544
 20
2.7344
  0
VERTEX
  8
0
 62
     7
  6
CONTINUOUS
 10
0.0199
 20
2.7342
  0
VERTEX
  8
0
 62
     7
  6
CONTINUOUS
 10
0.0199
 20
3.2076
  0
SEQEND
  8
0
  0
POLYLINE
  8
0
 62
     7
 66
     1
  6
CONTINUOUS
 40
0.0200
 41
0.0200
  0
VERTEX
  8
0
 62
     7
  6
CONTINUOUS
 10
0.0018
 20
3.2078
  0
VERTEX
  8
0
 62
     7
  6
CONTINUOUS
 10
-0.0521
 20
3.1850
  0
SEQEND
  8
0
  0
POLYLINE
  8
0
 62
     5
 66
     1
  6
CONTINUOUS
 40
0.0200
 41
0.0200
  0
VERTEX
  8
0
 62
     5
  6
CONTINUOUS
 10
-4.4126
 20
2.3360
  0
VERTEX
  8
0
 62
     5
  6
CONTINUOUS
 10
-4.4126
 20
2.5360
  0
VERTEX
  8
0
 62
     5
  6
CONTINUOUS
 10
-4.1126
 20
2.5360
  0
VERTEX
  8
0
 62
     5
  6
CONTINUOUS
 10
-4.1126
 20
2.3360
  0
VERTEX
  8
0
 62
     5
  6
CONTINUOUS
 10
-4.4126
 20
2.3360
  0
SEQEND
  8
0
  0
POLYLINE
  8
0
 62
     5
 66
     1
  6
CONTINUOUS
 40
0.0200
 41
0.0200
  0
VERTEX
  8
0
 62
     5
  6
CONTINUOUS
 10
-6.0126
 20
1.3360
  0
VERTEX
  8
0
 62
     5
  6
CONTINUOUS
 10
-6.0126
 20
1.3860
  0
SEQEND
  8
0
  0
POLYLINE
  8
0
 62
     5
 66
     1
  6
CONTINUOUS
 40
0.0200
 41
0.0200
  0
VERTEX
  8
0
 62
     5
  6
CONTINUOUS
 10
-6.0126
 20
1.8860
  0
VERTEX
  8
0
 62
     5
  6
CONTINUOUS
 10
-6.0126
 20
2.7360
  0
VERTEX
  8
0
 62
     5
  6
CONTINUOUS
 10
-4.4126
 20
2.7360
  0
VERTEX
  8
0
 62
     5
  6
CONTINUOUS
 10
-4.4126
 20
1.3360
  0
VERTEX
  8
0
 62
     5
  6
CONTINUOUS
 10
-6.0126
 20
1.3360
  0
SEQEND
  8
0
  0
POLYLINE
  8
0
 62
     5
 66
     1
  6
CONTINUOUS
 40
0.0200
 41
0.0200
  0
VERTEX
  8
0
 62
     5
  6
CONTINUOUS
 10
-6.0126
 20
2.6360
  0
VERTEX
  8
0
 62
     5
  6
CONTINUOUS
 10
-6.0126
 20
1.3860
  0
SEQEND
  8
0
  0
POLYLINE
  8
0
 62
     5
 66
     1
  6
CONTINUOUS
 40
0.0200
 41
0.0200
  0
VERTEX
  8
0
 62
     5
  6
CONTINUOUS
 10
-6.0126
 20
2.3360
  0
VERTEX
  8
0
 62
     5
  6
CONTINUOUS
 10
-6.0126
 20
2.5360
  0
VERTEX
  8
0
 62
     5
  6
CONTINUOUS
 10
-6.3126
 20
2.5360
  0
VERTEX
  8
0
 62
     5
  6
CONTINUOUS
 10
-6.3126
 20
2.3360
  0
VERTEX
  8
0
 62
     5
  6
CONTINUOUS
 10
-6.0126
 20
2.3360
  0
SEQEND
  8
0
  0
POLYLINE
  8
0
 62
     5
 66
     1
  6
CONTINUOUS
 40
0.0200
 41
0.0200
  0
VERTEX
  8
0
 62
     5
  6
CONTINUOUS
 10
-4.7126
 20
2.7360
  0
VERTEX
  8
0
 62
     5
  6
CONTINUOUS
 10
-4.7126
 20
2.9360
  0
VERTEX
  8
0
 62
     5
  6
CONTINUOUS
 10
-4.9126
 20
2.9360
  0
VERTEX
  8
0
 62
     5
  6
CONTINUOUS
 10
-4.9126
 20
2.7360
  0
VERTEX
  8
0
 62
     5
  6
CONTINUOUS
 10
-4.7126
 20
2.7360
  0
SEQEND
  8
0
  0
TEXT
  8
0
 62
     5
 10
-5.8126
 20
1.6360
 40
0.1961
 50
0.0000
 51
0.0000
  1
S-148
 72
     5
 11
-4.7853
 21
1.6360
  0
POLYLINE
  8
0
 62
     5
 66
     1
  6
CONTINUOUS
 40
0.0200
 41
0.0200
  0
VERTEX
  8
0
 62
     5
  6
CONTINUOUS
 10
-6.0126
 20
4.0860
  0
VERTEX
  8
0
 62
     5
  6
CONTINUOUS
 10
-6.0126
 20
3.3360
  0
VERTEX
  8
0
 62
     5
  6
CONTINUOUS
 10
-6.3126
 20
3.3360
  0
VERTEX
  8
0
 62
     5
  6
CONTINUOUS
 10
-6.3126
 20
4.0860
  0
VERTEX
  8
0
 62
     5
  6
CONTINUOUS
 10
-6.0126
 20
4.0860
  0
SEQEND
  8
0
  0
CIRCLE
  8
0
 62
     5
  6
CONTINUOUS
 10
-4.7876
 20
3.7110
 40
0.1250
  0
CIRCLE
  8
0
 62
     5
  6
CONTINUOUS
 10
-4.2126
 20
3.9360
 40
0.0500
  0
CIRCLE
  8
0
 62
     5
  6
CONTINUOUS
 10
-4.2126
 20
3.4860
 40
0.0500
  0
POLYLINE
  8
0
 62
     5
 66
     1
  6
CONTINUOUS
 40
0.0200
 41
0.0200
  0
VERTEX
  8
0
 62
     5
  6
CONTINUOUS
 10
-6.0126
 20
3.3360
  0
VERTEX
  8
0
 62
     5
  6
CONTINUOUS
 10
-6.0126
 20
4.0860
  0
VERTEX
  8
0
 62
     5
  6
CONTINUOUS
 10
-4.4126
 20
4.0860
  0
SEQEND
  8
0
  0
POLYLINE
  8
0
 62
     5
 66
     1
  6
CONTINUOUS
 40
0.0200
 41
0.0200
  0
VERTEX
  8
0
 62
     5
  6
CONTINUOUS
 10
-4.4126
 20
4.0860
  0
VERTEX
  8
0
 62
     5
  6
CONTINUOUS
 10
-4.4126
 20
4.0860
  0
VERTEX
  8
0
 62
     5
  6
CONTINUOUS
 10
-4.4126
 20
4.0860
  0
SEQEND
  8
0
  0
POLYLINE
  8
0
 62
     5
 66
     1
  6
CONTINUOUS
 40
0.0200
 41
0.0200
  0
VERTEX
  8
0
 62
     5
  6
CONTINUOUS
 10
-4.4126
 20
4.0860
  0
VERTEX
  8
0
 62
     5
  6
CONTINUOUS
 10
-4.4126
 20
3.3360
  0
VERTEX
  8
0
 62
     5
  6
CONTINUOUS
 10
-4.4126
 20
3.3360
  0
SEQEND
  8
0
  0
POLYLINE
  8
0
 62
     5
 66
     1
  6
CONTINUOUS
 40
0.0200
 41
0.0200
  0
VERTEX
  8
0
 62
     5
  6
CONTINUOUS
 10
-4.4126
 20
3.3360
  0
VERTEX
  8
0
 62
     5
  6
CONTINUOUS
 10
-6.0126
 20
3.3360
  0
SEQEND
  8
0
  0
POLYLINE
  8
0
 62
     5
 66
     1
  6
CONTINUOUS
 40
0.0200
 41
0.0200
  0
VERTEX
  8
0
 62
     5
  6
CONTINUOUS
 10
-4.4126
 20
4.0860
  0
VERTEX
  8
0
 62
     5
  6
CONTINUOUS
 10
-4.4126
 20
4.0860
  0
SEQEND
  8
0
  0
POLYLINE
  8
0
 62
     5
 66
     1
  6
CONTINUOUS
 40
0.0200
 41
0.0200
  0
VERTEX
  8
0
 62
     5
  6
CONTINUOUS
 10
-4.4126
 20
4.0860
  0
VERTEX
  8
0
 62
     5
  6
CONTINUOUS
 10
-4.4126
 20
3.3360
  0
SEQEND
  8
0
  0
POLYLINE
  8
0
 62
     5
 66
     1
  6
CONTINUOUS
 40
0.0200
 41
0.0200
  0
VERTEX
  8
0
 62
     5
  6
CONTINUOUS
 10
-4.4126
 20
3.3360
  0
VERTEX
  8
0
 62
     5
  6
CONTINUOUS
 10
-4.4126
 20
3.3360
  0
VERTEX
  8
0
 62
     5
  6
CONTINUOUS
 10
-4.4126
 20
3.3360
  0
SEQEND
  8
0
  0
POLYLINE
  8
0
 62
     5
 66
     1
  6
CONTINUOUS
 40
0.0200
 41
0.0200
  0
VERTEX
  8
0
 62
     5
  6
CONTINUOUS
 10
-4.4126
 20
3.3360
  0
VERTEX
  8
0
 62
     5
  6
CONTINUOUS
 10
-4.1126
 20
3.3360
  0
SEQEND
  8
0
  0
POLYLINE
  8
0
 62
     5
 66
     1
  6
CONTINUOUS
 40
0.0200
 41
0.0200
  0
VERTEX
  8
0
 62
     5
  6
CONTINUOUS
 10
-4.1126
 20
3.3360
  0
VERTEX
  8
0
 62
     5
  6
CONTINUOUS
 10
-4.1126
 20
3.3360
  0
VERTEX
  8
0
 62
     5
  6
CONTINUOUS
 10
-4.1126
 20
3.3360
  0
SEQEND
  8
0
  0
POLYLINE
  8
0
 62
     5
 66
     1
  6
CONTINUOUS
 40
0.0200
 41
0.0200
  0
VERTEX
  8
0
 62
     5
  6
CONTINUOUS
 10
-4.1126
 20
3.3360
  0
VERTEX
  8
0
 62
     5
  6
CONTINUOUS
 10
-4.1126
 20
4.0860
  0
SEQEND
  8
0
  0
POLYLINE
  8
0
 62
     5
 66
     1
  6
CONTINUOUS
 40
0.0200
 41
0.0200
  0
VERTEX
  8
0
 62
     5
  6
CONTINUOUS
 10
-4.1126
 20
4.0860
  0
VERTEX
  8
0
 62
     5
  6
CONTINUOUS
 10
-4.1126
 20
4.0860
  0
VERTEX
  8
0
 62
     5
  6
CONTINUOUS
 10
-4.1126
 20
4.0860
  0
SEQEND
  8
0
  0
POLYLINE
  8
0
 62
     5
 66
     1
  6
CONTINUOUS
 40
0.0200
 41
0.0200
  0
VERTEX
  8
0
 62
     5
  6
CONTINUOUS
 10
-4.1126
 20
4.0860
  0
VERTEX
  8
0
 62
     5
  6
CONTINUOUS
 10
-4.4126
 20
4.0860
  0
SEQEND
  8
0
  0
POLYLINE
  8
0
 62
     5
 66
     1
  6
CONTINUOUS
 40
0.0200
 41
0.0200
  0
VERTEX
  8
0
 62
     5
  6
CONTINUOUS
 10
-4.4126
 20
4.0860
  0
VERTEX
  8
0
 62
     5
  6
CONTINUOUS
 10
-4.4126
 20
4.0860
  0
SEQEND
  8
0
  0
POLYLINE
  8
0
 62
     5
 66
     1
  6
CONTINUOUS
 40
0.0200
 41
0.0200
  0
VERTEX
  8
0
 62
     5
  6
CONTINUOUS
 10
-4.4126
 20
4.0860
  0
VERTEX
  8
0
 62
     5
  6
CONTINUOUS
 10
-4.4126
 20
4.0860
  0
SEQEND
  8
0
  0
POLYLINE
  8
0
 62
     5
 66
     1
  6
CONTINUOUS
 40
0.0200
 41
0.0200
  0
VERTEX
  8
0
 62
     5
  6
CONTINUOUS
 10
-4.4126
 20
4.0860
  0
VERTEX
  8
0
 62
     5
  6
CONTINUOUS
 10
-4.4126
 20
3.3360
  0
SEQEND
  8
0
  0
CIRCLE
  8
0
 62
     5
  6
CONTINUOUS
 10
-6.2126
 20
3.4860
 40
0.0500
  0
CIRCLE
  8
0
 62
     5
  6
CONTINUOUS
 10
-6.2126
 20
3.9360
 40
0.0500
  0
POLYLINE
  8
0
 62
     5
 66
     1
  6
CONTINUOUS
 40
0.0200
 41
0.0200
  0
VERTEX
  8
0
 62
     5
  6
CONTINUOUS
 10
-6.0126
 20
3.3360
  0
VERTEX
  8
0
 62
     5
  6
CONTINUOUS
 10
-6.0126
 20
3.3360
  0
VERTEX
  8
0
 62
     5
  6
CONTINUOUS
 10
-6.0126
 20
3.3360
  0
SEQEND
  8
0
  0
POLYLINE
  8
0
 62
     5
 66
     1
  6
CONTINUOUS
 40
0.0200
 41
0.0200
  0
VERTEX
  8
0
 62
     5
  6
CONTINUOUS
 10
-6.0126
 20
3.3360
  0
VERTEX
  8
0
 62
     5
  6
CONTINUOUS
 10
-6.0126
 20
4.0860
  0
VERTEX
  8
0
 62
     5
  6
CONTINUOUS
 10
-6.0126
 20
4.0860
  0
SEQEND
  8
0
  0
POLYLINE
  8
0
 62
     5
 66
     1
  6
CONTINUOUS
 40
0.0200
 41
0.0200
  0
VERTEX
  8
0
 62
     5
  6
CONTINUOUS
 10
-6.0126
 20
3.3360
  0
VERTEX
  8
0
 62
     5
  6
CONTINUOUS
 10
-6.0126
 20
3.3360
  0
SEQEND
  8
0
  0
POLYLINE
  8
0
 62
     5
 66
     1
  6
CONTINUOUS
 40
0.0200
 41
0.0200
  0
VERTEX
  8
0
 62
     5
  6
CONTINUOUS
 10
-6.0126
 20
3.3360
  0
VERTEX
  8
0
 62
     5
  6
CONTINUOUS
 10
-6.0126
 20
4.0860
  0
SEQEND
  8
0
  0
POLYLINE
  8
0
 62
     5
 66
     1
  6
CONTINUOUS
 40
0.0200
 41
0.0200
  0
VERTEX
  8
0
 62
     5
  6
CONTINUOUS
 10
-6.0126
 20
4.0860
  0
VERTEX
  8
0
 62
     5
  6
CONTINUOUS
 10
-6.0126
 20
4.0860
  0
VERTEX
  8
0
 62
     5
  6
CONTINUOUS
 10
-6.0126
 20
4.0860
  0
SEQEND
  8
0
  0
POLYLINE
  8
0
 62
     5
 66
     1
  6
CONTINUOUS
 40
0.0200
 41
0.0200
  0
VERTEX
  8
0
 62
     5
  6
CONTINUOUS
 10
-6.0126
 20
4.0860
  0
VERTEX
  8
0
 62
     5
  6
CONTINUOUS
 10
-6.3126
 20
4.0860
  0
SEQEND
  8
0
  0
POLYLINE
  8
0
 62
     5
 66
     1
  6
CONTINUOUS
 40
0.0200
 41
0.0200
  0
VERTEX
  8
0
 62
     5
  6
CONTINUOUS
 10
-6.3126
 20
4.0860
  0
VERTEX
  8
0
 62
     5
  6
CONTINUOUS
 10
-6.3126
 20
4.0860
  0
VERTEX
  8
0
 62
     5
  6
CONTINUOUS
 10
-6.3126
 20
4.0860
  0
SEQEND
  8
0
  0
POLYLINE
  8
0
 62
     5
 66
     1
  6
CONTINUOUS
 40
0.0200
 41
0.0200
  0
VERTEX
  8
0
 62
     5
  6
CONTINUOUS
 10
-6.3126
 20
4.0860
  0
VERTEX
  8
0
 62
     5
  6
CONTINUOUS
 10
-6.3126
 20
3.3360
  0
SEQEND
  8
0
  0
POLYLINE
  8
0
 62
     5
 66
     1
  6
CONTINUOUS
 40
0.0200
 41
0.0200
  0
VERTEX
  8
0
 62
     5
  6
CONTINUOUS
 10
-6.3126
 20
3.3360
  0
VERTEX
  8
0
 62
     5
  6
CONTINUOUS
 10
-6.3126
 20
3.3360
  0
VERTEX
  8
0
 62
     5
  6
CONTINUOUS
 10
-6.3126
 20
3.3360
  0
SEQEND
  8
0
  0
POLYLINE
  8
0
 62
     5
 66
     1
  6
CONTINUOUS
 40
0.0200
 41
0.0200
  0
VERTEX
  8
0
 62
     5
  6
CONTINUOUS
 10
-6.3126
 20
3.3360
  0
VERTEX
  8
0
 62
     5
  6
CONTINUOUS
 10
-6.0126
 20
3.3360
  0
SEQEND
  8
0
  0
POLYLINE
  8
0
 62
     5
 66
     1
  6
CONTINUOUS
 40
0.0200
 41
0.0200
  0
VERTEX
  8
0
 62
     5
  6
CONTINUOUS
 10
-6.0126
 20
3.3360
  0
VERTEX
  8
0
 62
     5
  6
CONTINUOUS
 10
-6.0126
 20
3.3360
  0
SEQEND
  8
0
  0
POLYLINE
  8
0
 62
     5
 66
     1
  6
CONTINUOUS
 40
0.0200
 41
0.0200
  0
VERTEX
  8
0
 62
     5
  6
CONTINUOUS
 10
-6.0126
 20
3.3360
  0
VERTEX
  8
0
 62
     5
  6
CONTINUOUS
 10
-6.0126
 20
3.3360
  0
SEQEND
  8
0
  0
POLYLINE
  8
0
 62
     5
 66
     1
  6
CONTINUOUS
 40
0.0200
 41
0.0200
  0
VERTEX
  8
0
 62
     5
  6
CONTINUOUS
 10
-6.0126
 20
3.3360
  0
VERTEX
  8
0
 62
     5
  6
CONTINUOUS
 10
-6.0126
 20
4.0860
  0
SEQEND
  8
0
  0
TEXT
  8
0
 62
     5
 10
-5.9626
 20
3.6360
 40
0.1961
  1
S-148
 72
     5
 11
-4.9353
 21
3.6360
  0
POLYLINE
  8
0
 62
     5
 66
     1
  6
CONTINUOUS
 40
0.0200
 41
0.0200
  0
VERTEX
  8
0
 62
     5
  6
CONTINUOUS
 10
-6.0126
 20
4.3360
  0
VERTEX
  8
0
 62
     5
  6
CONTINUOUS
 10
-6.0126
 20
5.7360
  0
VERTEX
  8
0
 62
     5
  6
CONTINUOUS
 10
-5.2626
 20
5.7360
  0
VERTEX
  8
0
 62
     5
  6
CONTINUOUS
 10
-5.2626
 20
4.3360
  0
VERTEX
  8
0
 62
     5
  6
CONTINUOUS
 10
-6.0126
 20
4.3360
  0
SEQEND
  8
0
  0
POLYLINE
  8
0
 62
     5
 66
     1
  6
CONTINUOUS
 40
0.0200
 41
0.0200
  0
VERTEX
  8
0
 62
     5
  6
CONTINUOUS
 10
-5.5126
 20
5.7360
  0
VERTEX
  8
0
 62
     5
  6
CONTINUOUS
 10
-5.5126
 20
5.9360
  0
VERTEX
  8
0
 62
     5
  6
CONTINUOUS
 10
-5.7126
 20
5.9360
  0
VERTEX
  8
0
 62
     5
  6
CONTINUOUS
 10
-5.7126
 20
5.7360
  0
VERTEX
  8
0
 62
     5
  6
CONTINUOUS
 10
-5.5126
 20
5.7360
  0
SEQEND
  8
0
  0
POLYLINE
  8
0
 62
     5
 66
     1
  6
CONTINUOUS
 40
0.0200
 41
0.0200
  0
VERTEX
  8
0
 62
     5
  6
CONTINUOUS
 10
-6.0126
 20
5.3360
  0
VERTEX
  8
0
 62
     5
  6
CONTINUOUS
 10
-6.0126
 20
5.5360
  0
VERTEX
  8
0
 62
     5
  6
CONTINUOUS
 10
-5.2626
 20
5.5360
  0
VERTEX
  8
0
 62
     5
  6
CONTINUOUS
 10
-5.2626
 20
5.3360
  0
VERTEX
  8
0
 62
     5
  6
CONTINUOUS
 10
-6.0126
 20
5.3360
  0
SEQEND
  8
0
  0
TEXT
  8
0
 62
     5
 10
-5.8126
 20
5.1860
 40
0.1875
  1
S148
 72
     5
 11
-5.8126
 21
4.4360
  0
POLYLINE
  8
0
 62
     5
 66
     1
  6
CONTINUOUS
 40
0.0200
 41
0.0200
  0
VERTEX
  8
0
 62
     5
  6
CONTINUOUS
 10
-3.0126
 20
1.3360
  0
VERTEX
  8
0
 62
     5
  6
CONTINUOUS
 10
-3.0126
 20
2.4860
  0
VERTEX
  8
0
 62
     5
  6
CONTINUOUS
 10
-1.9126
 20
2.4860
  0
VERTEX
  8
0
 62
     5
  6
CONTINUOUS
 10
-1.9126
 20
1.3360
  0
VERTEX
  8
0
 62
     5
  6
CONTINUOUS
 10
-3.0126
 20
1.3360
  0
SEQEND
  8
0
  0
POLYLINE
  8
0
 62
     5
 66
     1
  6
CONTINUOUS
 40
0.0200
 41
0.0200
  0
VERTEX
  8
0
 62
     5
  6
CONTINUOUS
 10
-1.9126
 20
2.0860
  0
VERTEX
  8
0
 62
     5
  6
CONTINUOUS
 10
-1.9126
 20
2.1860
  0
VERTEX
  8
0
 62
     5
  6
CONTINUOUS
 10
-1.6626
 20
2.1860
  0
VERTEX
  8
0
 62
     5
  6
CONTINUOUS
 10
-1.6626
 20
2.0860
  0
VERTEX
  8
0
 62
     5
  6
CONTINUOUS
 10
-1.9126
 20
2.0860
  0
SEQEND
  8
0
  0
POLYLINE
  8
0
 62
     5
 66
     1
  6
CONTINUOUS
 40
0.0200
 41
0.0200
  0
VERTEX
  8
0
 62
     5
  6
CONTINUOUS
 10
-3.0126
 20
2.1860
  0
VERTEX
  8
0
 62
     5
  6
CONTINUOUS
 10
-3.0126
 20
2.0860
  0
VERTEX
  8
0
 62
     5
  6
CONTINUOUS
 10
-3.2626
 20
2.0860
  0
VERTEX
  8
0
 62
     5
  6
CONTINUOUS
 10
-3.2626
 20
2.1860
  0
VERTEX
  8
0
 62
     5
  6
CONTINUOUS
 10
-3.0126
 20
2.1860
  0
SEQEND
  8
0
  0
POLYLINE
  8
0
 62
     5
 66
     1
  6
CONTINUOUS
 40
0.0200
 41
0.0200
  0
VERTEX
  8
0
 62
     5
  6
CONTINUOUS
 10
-3.0126
 20
2.4860
  0
VERTEX
  8
0
 62
     5
  6
CONTINUOUS
 10
-3.0126
 20
1.3360
  0
SEQEND
  8
0
  0
TEXT
  8
0
 62
     5
 10
-2.9626
 20
2.2360
 40
0.1477
  1
S-33/133
 72
     5
 11
-2.0626
 21
1.3860
  0
POLYLINE
  8
0
 62
     5
 66
     1
  6
CONTINUOUS
 40
0.0200
 41
0.0200
  0
VERTEX
  8
0
 62
     5
  6
CONTINUOUS
 10
-2.0126
 20
2.5360
  0
VERTEX
  8
0
 62
     5
  6
CONTINUOUS
 10
-2.0126
 20
2.7360
  0
VERTEX
  8
0
 62
     5
  6
CONTINUOUS
 10
-2.2126
 20
2.7360
  0
VERTEX
  8
0
 62
     5
  6
CONTINUOUS
 10
-2.2126
 20
2.5360
  0
VERTEX
  8
0
 62
     5
  6
CONTINUOUS
 10
-2.0126
 20
2.5360
  0
SEQEND
  8
0
  0
CIRCLE
  8
0
 62
     5
  6
CONTINUOUS
 10
-2.1126
 20
3.5860
 40
0.1000
  0
POLYLINE
  8
0
 62
     5
 66
     1
  6
CONTINUOUS
 40
0.0200
 41
0.0200
  0
VERTEX
  8
0
 62
     5
  6
CONTINUOUS
 10
-1.9126
 20
3.8360
  0
VERTEX
  8
0
 62
     5
  6
CONTINUOUS
 10
-1.9126
 20
3.3360
  0
VERTEX
  8
0
 62
     5
  6
CONTINUOUS
 10
-1.7126
 20
3.3360
  0
VERTEX
  8
0
 62
     5
  6
CONTINUOUS
 10
-1.7126
 20
3.8360
  0
VERTEX
  8
0
 62
     5
  6
CONTINUOUS
 10
-1.9126
 20
3.8360
  0
SEQEND
  8
0
  0
CIRCLE
  8
0
 62
     5
  6
CONTINUOUS
 10
-1.8126
 20
3.5860
 40
0.0500
  0
POLYLINE
  8
0
 62
     5
 66
     1
  6
CONTINUOUS
 40
0.0200
 41
0.0200
  0
VERTEX
  8
0
 62
     5
  6
CONTINUOUS
 10
-3.2126
 20
3.8360
  0
VERTEX
  8
0
 62
     5
  6
CONTINUOUS
 10
-3.2126
 20
3.3360
  0
VERTEX
  8
0
 62
     5
  6
CONTINUOUS
 10
-3.0126
 20
3.3360
  0
VERTEX
  8
0
 62
     5
  6
CONTINUOUS
 10
-3.0126
 20
3.8360
  0
VERTEX
  8
0
 62
     5
  6
CONTINUOUS
 10
-3.2126
 20
3.8360
  0
SEQEND
  8
0
  0
CIRCLE
  8
0
 62
     5
  6
CONTINUOUS
 10
-3.1126
 20
3.5860
 40
0.0500
  0
POLYLINE
  8
0
 62
     5
 66
     1
  6
CONTINUOUS
 40
0.0200
 41
0.0200
  0
VERTEX
  8
0
 62
     5
  6
CONTINUOUS
 10
-3.0126
 20
3.3360
  0
VERTEX
  8
0
 62
     5
  6
CONTINUOUS
 10
-3.0126
 20
3.8360
  0
VERTEX
  8
0
 62
     5
  6
CONTINUOUS
 10
-2.8126
 20
3.8360
  0
SEQEND
  8
0
  0
POLYLINE
  8
0
 62
     5
 66
     1
  6
CONTINUOUS
 40
0.0200
 41
0.0200
  0
VERTEX
  8
0
 62
     5
  6
CONTINUOUS
 10
-2.8126
 20
3.8360
  0
VERTEX
  8
0
 62
     5
  6
CONTINUOUS
 10
-1.9126
 20
3.8360
  0
VERTEX
  8
0
 62
     5
  6
CONTINUOUS
 10
-1.9126
 20
3.3360
  0
VERTEX
  8
0
 62
     5
  6
CONTINUOUS
 10
-3.0126
 20
3.3360
  0
SEQEND
  8
0
  0
POLYLINE
  8
0
 62
     5
 66
     1
  6
CONTINUOUS
 40
0.0200
 41
0.0200
  0
VERTEX
  8
0
 62
     5
  6
CONTINUOUS
 10
-2.8126
 20
3.8360
  0
VERTEX
  8
0
 62
     5
  6
CONTINUOUS
 10
-3.0126
 20
3.8360
  0
VERTEX
  8
0
 62
     5
  6
CONTINUOUS
 10
-3.0126
 20
3.3360
  0
VERTEX
  8
0
 62
     5
  6
CONTINUOUS
 10
-2.8126
 20
3.3360
  0
SEQEND
  8
0
  0
POLYLINE
  8
0
 62
     5
 66
     1
  6
CONTINUOUS
 40
0.0200
 41
0.0200
  0
VERTEX
  8
0
 62
     5
  6
CONTINUOUS
 10
-2.8126
 20
3.3360
  0
VERTEX
  8
0
 62
     5
  6
CONTINUOUS
 10
-2.8126
 20
3.3610
  0
SEQEND
  8
0
  0
POLYLINE
  8
0
 62
     5
 66
     1
  6
CONTINUOUS
 40
0.0200
 41
0.0200
  0
VERTEX
  8
0
 62
     5
  6
CONTINUOUS
 10
-2.8126
 20
4.0360
  0
VERTEX
  8
0
 62
     5
  6
CONTINUOUS
 10
-2.8126
 20
5.1360
  0
VERTEX
  8
0
 62
     5
  6
CONTINUOUS
 10
-2.3126
 20
5.1360
  0
VERTEX
  8
0
 62
     5
  6
CONTINUOUS
 10
-2.3126
 20
4.0360
  0
VERTEX
  8
0
 62
     5
  6
CONTINUOUS
 10
-2.8126
 20
4.0360
  0
SEQEND
  8
0
  0
POLYLINE
  8
0
 62
     5
 66
     1
  6
CONTINUOUS
 40
0.0200
 41
0.0200
  0
VERTEX
  8
0
 62
     5
  6
CONTINUOUS
 10
-2.8126
 20
4.7860
  0
VERTEX
  8
0
 62
     5
  6
CONTINUOUS
 10
-2.8126
 20
4.8860
  0
VERTEX
  8
0
 62
     5
  6
CONTINUOUS
 10
-2.3126
 20
4.8860
  0
VERTEX
  8
0
 62
     5
  6
CONTINUOUS
 10
-2.3126
 20
4.7860
  0
VERTEX
  8
0
 62
     5
  6
CONTINUOUS
 10
-2.8126
 20
4.7860
  0
SEQEND
  8
0
  0
POLYLINE
  8
0
 62
     5
 66
     1
  6
CONTINUOUS
 40
0.0200
 41
0.0200
  0
VERTEX
  8
0
 62
     5
  6
CONTINUOUS
 10
-2.6626
 20
5.1360
  0
VERTEX
  8
0
 62
     5
  6
CONTINUOUS
 10
-2.6626
 20
5.1360
  0
VERTEX
  8
0
 62
     5
  6
CONTINUOUS
 10
-2.4626
 20
5.1360
  0
VERTEX
  8
0
 62
     5
  6
CONTINUOUS
 10
-2.4626
 20
5.1360
  0
VERTEX
  8
0
 62
     5
  6
CONTINUOUS
 10
-2.6626
 20
5.1360
  0
SEQEND
  8
0
  0
POLYLINE
  8
0
 62
     5
 66
     1
  6
CONTINUOUS
 40
0.0200
 41
0.0200
  0
VERTEX
  8
0
 62
     5
  6
CONTINUOUS
 10
-2.6626
 20
5.1360
  0
VERTEX
  8
0
 62
     5
  6
CONTINUOUS
 10
-2.6626
 20
5.3360
  0
VERTEX
  8
0
 62
     5
  6
CONTINUOUS
 10
-2.4626
 20
5.3360
  0
VERTEX
  8
0
 62
     5
  6
CONTINUOUS
 10
-2.4626
 20
5.1360
  0
VERTEX
  8
0
 62
     5
  6
CONTINUOUS
 10
-2.6626
 20
5.1360
  0
SEQEND
  8
0
  0
TEXT
  8
0
 62
     5
 10
-3.0126
 20
3.6360
 40
0.1288
  1
S-33/133
 72
     5
 11
-1.9626
 21
3.3860
  0
TEXT
  8
0
 62
     5
 10
-2.8126
 20
4.6860
 40
0.0943
  1
S-33/133
 72
     5
 11
-2.3626
 21
4.0360
  0
CIRCLE
  8
0
 62
     3
  6
CONTINUOUS
 10
-11.2615
 20
3.2904
 40
1.2500
  0
CIRCLE
  8
0
 62
     3
  6
CONTINUOUS
 10
-11.2615
 20
3.2904
 40
0.1000
  0
CIRCLE
  8
0
 62
     3
  6
CONTINUOUS
 10
-11.2615
 20
3.2904
 40
0.3000
  0
CIRCLE
  8
0
 62
     3
  6
CONTINUOUS
 10
-11.2615
 20
3.2904
 40
0.3500
  0
CIRCLE
  8
0
 62
     3
  6
CONTINUOUS
 10
-11.2615
 20
3.2904
 40
0.5000
  0
POLYLINE
  8
0
 62
     3
 66
     1
  6
CONTINUOUS
  0
VERTEX
  8
0
 62
     3
  6
CONTINUOUS
 10
-11.5615
 20
3.2904
  0
VERTEX
  8
0
 62
     3
  6
CONTINUOUS
 10
-11.4115
 20
3.2904
  0
SEQEND
  8
0
  0
POLYLINE
  8
0
 62
     3
 66
     1
  6
CONTINUOUS
  0
VERTEX
  8
0
 62
     3
  6
CONTINUOUS
 10
-11.1115
 20
3.2904
  0
VERTEX
  8
0
 62
     3
  6
CONTINUOUS
 10
-10.9615
 20
3.2904
  0
SEQEND
  8
0
  0
POLYLINE
  8
0
 62
     3
 66
     1
  6
CONTINUOUS
  0
VERTEX
  8
0
 62
     3
  6
CONTINUOUS
 10
-11.2615
 20
3.5904
  0
VERTEX
  8
0
 62
     3
  6
CONTINUOUS
 10
-11.2615
 20
3.3904
  0
SEQEND
  8
0
  0
CIRCLE
  8
0
 62
     3
  6
CONTINUOUS
 10
-11.2615
 20
3.2904
 40
0.1500
  0
POLYLINE
  8
0
 62
     3
 66
     1
  6
CONTINUOUS
  0
VERTEX
  8
0
 62
     3
  6
CONTINUOUS
 10
-11.2615
 20
3.1404
  0
VERTEX
  8
0
 62
     3
  6
CONTINUOUS
 10
-11.2615
 20
2.9904
  0
SEQEND
  8
0
  0
POLYLINE
  8
0
 62
     3
 66
     1
  6
CONTINUOUS
  0
VERTEX
  8
0
 62
     3
  6
CONTINUOUS
 10
-11.4615
 20
3.4904
  0
VERTEX
  8
0
 62
     3
  6
CONTINUOUS
 10
-11.3615
 20
3.3904
  0
SEQEND
  8
0
  0
POLYLINE
  8
0
 62
     3
 66
     1
  6
CONTINUOUS
  0
VERTEX
  8
0
 62
     3
  6
CONTINUOUS
 10
-11.0615
 20
3.0904
  0
VERTEX
  8
0
 62
     3
  6
CONTINUOUS
 10
-11.1115
 20
3.1404
  0
SEQEND
  8
0
  0
POLYLINE
  8
0
 62
     3
 66
     1
  6
CONTINUOUS
  0
VERTEX
  8
0
 62
     3
  6
CONTINUOUS
 10
-11.4615
 20
3.0904
  0
VERTEX
  8
0
 62
     3
  6
CONTINUOUS
 10
-11.3615
 20
3.1904
  0
SEQEND
  8
0
  0
POLYLINE
  8
0
 62
     3
 66
     1
  6
CONTINUOUS
  0
VERTEX
  8
0
 62
     3
  6
CONTINUOUS
 10
-11.1615
 20
3.3904
  0
VERTEX
  8
0
 62
     3
  6
CONTINUOUS
 10
-11.0615
 20
3.4904
  0
SEQEND
  8
0
  0
TEXT
  8
0
 62
     3
 10
-11.9679
 20
3.1492
 40
0.1762
  1
D
 72
     5
 11
-11.9681
 21
3.3219
  0
TEXT
  8
0
 62
     3
 10
-11.9637
 20
3.3357
 40
0.1762
  1
o
 72
     5
 11
-11.9358
 21
3.4558
  0
TEXT
  8
0
 62
     3
 10
-11.9326
 20
3.4611
 40
0.1762
  1
-
 72
     5
 11
-11.9002
 21
3.5411
  0
TEXT
  8
0
 62
     3
 10
-11.8956
 20
3.5524
 40
0.1762
  1
n
 72
     5
 11
-11.8383
 21
3.6474
  0
TEXT
  8
0
 62
     3
 10
-11.8253
 20
3.6649
 40
0.1762
  1
u
 72
     5
 11
-11.7513
 21
3.7476
  0
TEXT
  8
0
 62
     3
 10
-11.7377
 20
3.7582
 40
0.1762
  1
t
 72
     5
 11
-11.6902
 21
3.7976
  0
TEXT
  8
0
 62
     3
 10
-11.6834
 20
3.8028
 40
0.1762
  1
 
 72
     5
 11
-11.6322
 21
3.8372
  0
TEXT
  8
0
 62
     3
 10
-11.6258
 20
3.8449
 40
0.1762
  1
T
 72
     5
 11
-11.4914
 21
3.9068
  0
TEXT
  8
0
 62
     3
 10
-11.4836
 20
3.9063
 40
0.1762
  1
i
 72
     5
 11
-11.4122
 21
3.9257
  0
TEXT
  8
0
 62
     3
 10
-11.4109
 20
3.9263
 40
0.1762
  1
r
 72
     5
 11
-11.3255
 21
3.9391
  0
TEXT
  8
0
 62
     3
 10
-11.3208
 20
3.9403
 40
0.1762
  1
e
 72
     5
 11
-11.2098
 21
3.9405
  0
TEXT
  8
0
 62
     3
 10
-11.2040
 20
3.9386
 40
0.1762
  1
 
 72
     5
 11
-11.1429
 21
3.9306
  0
TEXT
  8
0
 62
     3
 10
-11.1317
 20
3.9325
 40
0.1762
  1
C
 72
     5
 11
-10.9786
 21
3.8850
  0
TEXT
  8
0
 62
     3
 10
-10.9675
 20
3.8779
 40
0.1762
  1
o
 72
     5
 11
-10.8605
 21
3.8166
  0
TEXT
  8
0
 62
     3
 10
-10.8419
 20
3.8065
 40
0.1762
  1
m
 72
     5
 11
-10.7167
 21
3.6876
  0
TEXT
  8
0
 62
     3
 10
-10.7056
 20
3.6697
 40
0.1762
  1
p
 72
     5
 11
-10.6388
 21
3.5660
  0
TEXT
  8
0
 62
     3
 10
-10.6354
 20
3.5584
 40
0.1762
  1
a
 72
     5
 11
-10.5928
 21
3.4559
  0
TEXT
  8
0
 62
     3
 10
-10.5884
 20
3.4421
 40
0.1762
  1
n
 72
     5
 11
-10.5645
 21
3.3337
  0
TEXT
  8
0
 62
     3
 10
-10.5618
 20
3.3121
 40
0.1762
  1
y
 72
     5
 11
-10.5587
 21
3.2012
  0
POLYLINE
  8
0
 62
     3
 66
     1
  6
CONTINUOUS
  0
VERTEX
  8
0
 62
     3
  6
CONTINUOUS
 10
-7.9115
 20
4.2904
  0
VERTEX
  8
0
 62
     3
  6
CONTINUOUS
 10
-7.9115
 20
4.2904
  0
VERTEX
  8
0
 62
     3
  6
CONTINUOUS
 10
-7.9115
 20
4.2904
  0
VERTEX
  8
0
 62
     3
  6
CONTINUOUS
 10
-7.9115
 20
4.2904
  0
VERTEX
  8
0
 62
     3
  6
CONTINUOUS
 10
-7.9115
 20
4.2904
  0
VERTEX
  8
0
 62
     3
  6
CONTINUOUS
 10
-7.9115
 20
4.2904
  0
VERTEX
  8
0
 62
     3
  6
CONTINUOUS
 10
-7.9115
 20
4.2904
  0
VERTEX
  8
0
 62
     3
  6
CONTINUOUS
 10
-7.9115
 20
4.2904
  0
VERTEX
  8
0
 62
     3
  6
CONTINUOUS
 10
-7.9115
 20
4.2904
  0
VERTEX
  8
0
 62
     3
  6
CONTINUOUS
 10
-7.9115
 20
4.2904
  0
VERTEX
  8
0
 62
     3
  6
CONTINUOUS
 10
-7.9115
 20
4.2904
  0
VERTEX
  8
0
 62
     3
  6
CONTINUOUS
 10
-7.9115
 20
4.2904
  0
VERTEX
  8
0
 62
     3
  6
CONTINUOUS
 10
-7.9115
 20
4.2904
  0
VERTEX
  8
0
 62
     3
  6
CONTINUOUS
 10
-7.9115
 20
4.2904
  0
VERTEX
  8
0
 62
     3
  6
CONTINUOUS
 10
-7.9115
 20
4.2904
  0
VERTEX
  8
0
 62
     3
  6
CONTINUOUS
 10
-7.9115
 20
4.2904
  0
VERTEX
  8
0
 62
     3
  6
CONTINUOUS
 10
-7.9115
 20
4.2904
  0
VERTEX
  8
0
 62
     3
  6
CONTINUOUS
 10
-7.9115
 20
4.2904
  0
VERTEX
  8
0
 62
     3
  6
CONTINUOUS
 10
-7.9115
 20
4.2904
  0
VERTEX
  8
0
 62
     3
  6
CONTINUOUS
 10
-7.9115
 20
4.2904
  0
VERTEX
  8
0
 62
     3
  6
CONTINUOUS
 10
-7.9115
 20
4.2904
  0
VERTEX
  8
0
 62
     3
  6
CONTINUOUS
 10
-7.9115
 20
4.2904
  0
VERTEX
  8
0
 62
     3
  6
CONTINUOUS
 10
-7.9115
 20
4.2904
  0
VERTEX
  8
0
 62
     3
  6
CONTINUOUS
 10
-7.9115
 20
4.2904
  0
VERTEX
  8
0
 62
     3
  6
CONTINUOUS
 10
-7.9115
 20
4.2904
  0
SEQEND
  8
0
  0
POLYLINE
  8
0
 62
     3
 66
     1
  6
CONTINUOUS
  0
VERTEX
  8
0
 62
     3
  6
CONTINUOUS
 10
-7.5115
 20
4.2904
  0
VERTEX
  8
0
 62
     3
  6
CONTINUOUS
 10
-7.5115
 20
4.1904
  0
SEQEND
  8
0
  0
ARC
  8
0
 62
     3
  6
CONTINUOUS
 10
-7.8865
 20
4.2404
 40
0.3783
 50
-7.5946
 51
7.5945
  0
ARC
  8
0
 62
     3
  6
CONTINUOUS
 10
-7.8865
 20
4.2404
 40
0.3783
 50
7.5945
 51
-172.4052
  0
POLYLINE
  8
0
 62
     3
 66
     1
  6
CONTINUOUS
  0
VERTEX
  8
0
 62
     3
  6
CONTINUOUS
 10
-7.5115
 20
3.8404
  0
VERTEX
  8
0
 62
     3
  6
CONTINUOUS
 10
-7.5115
 20
3.0904
  0
SEQEND
  8
0
  0
POLYLINE
  8
0
 62
     3
 66
     1
  6
CONTINUOUS
  0
VERTEX
  8
0
 62
     3
  6
CONTINUOUS
 10
-7.5115
 20
2.6404
  0
VERTEX
  8
0
 62
     3
  6
CONTINUOUS
 10
-7.5115
 20
2.5404
  0
SEQEND
  8
0
  0
POLYLINE
  8
0
 62
     3
 66
     1
  6
CONTINUOUS
  0
VERTEX
  8
0
 62
     3
  6
CONTINUOUS
 10
-8.2615
 20
2.4904
  0
VERTEX
  8
0
 62
     3
  6
CONTINUOUS
 10
-8.2615
 20
2.6404
  0
SEQEND
  8
0
  0
POLYLINE
  8
0
 62
     3
 66
     1
  6
CONTINUOUS
  0
VERTEX
  8
0
 62
     3
  6
CONTINUOUS
 10
-8.2615
 20
3.0904
  0
VERTEX
  8
0
 62
     3
  6
CONTINUOUS
 10
-8.2615
 20
4.0468
  0
SEQEND
  8
0
  0
ARC
  8
0
 62
     3
  6
CONTINUOUS
 10
-7.8865
 20
2.5404
 40
0.3750
 50
0.0000
 51
15.4661
  0
ARC
  8
0
 62
     3
  6
CONTINUOUS
 10
-7.8865
 20
2.5404
 40
0.3750
 50
164.5340
 51
0.0000
  0
POLYLINE
  8
0
 62
     3
 66
     1
  6
CONTINUOUS
  0
VERTEX
  8
0
 62
     3
  6
CONTINUOUS
 10
-8.2615
 20
4.2404
  0
VERTEX
  8
0
 62
     3
  6
CONTINUOUS
 10
-8.2615
 20
2.6404
  0
SEQEND
  8
0
  0
POLYLINE
  8
0
 62
     3
 66
     1
  6
CONTINUOUS
  0
VERTEX
  8
0
 62
     3
  6
CONTINUOUS
 10
-7.5115
 20
4.2404
  0
VERTEX
  8
0
 62
     3
  6
CONTINUOUS
 10
-7.5115
 20
2.6404
  0
SEQEND
  8
0
  0
ENDSEC
  0
EOF
