  0
SECTION
  2
HEADER
  9
$ACADVER
  1
AC1006
  9
$EXTMIN
 10
-1.443783
 20
-2.424654
  9
$EXTMAX
 10
2.841535
 20
1.771106
  9
$LTSCALE
 40
0.000394
  9
$PDMODE
 70
    35
  9
$PDSIZE
 40
0.000315
  0
ENDSEC
  0
SECTION
  2
TABLES
  0
TABLE
  2
LTYPE
 70
     9
  0
LTYPE
  2
CONTINUOUS
 70
    64
  3
Solid line
 72
    65
 73
     0
 40
0.000000
  0
LTYPE
  2
DASHED
 70
    64
  3
__ __ __ __ __ __ __ __ __ __ __ __ __ __ __
 72
    65
 73
     2
 40
0.000003
 49
0.000002
 49
-0.000001
  0
LTYPE
  2
HIDDEN
 70
    64
  3
 _ _ _ _ _ _ _ _ _ _ _ _ _ _ _ _ _ _ _ _ _ _
 72
    65
 73
     2
 40
0.000001
 49
0.000001
 49
-0.000000
  0
LTYPE
  2
CENTER
 70
    64
  3
____ _ ____ _ ____ _ ____ _ ____ _ ____ _ ____
 72
    65
 73
     4
 40
0.000008
 49
0.000005
 49
-0.000001
 49
0.000001
 49
-0.000001
  0
LTYPE
  2
PHANTOM
 70
    64
  3
_____ _ _ _____ _ _ _____ _ _ _____ _ _ ____
 72
    65
 73
     6
 40
0.000010
 49
0.000005
 49
-0.000001
 49
0.000001
 49
-0.000001
 49
0.000001
 49
-0.000001
  0
LTYPE
  2
DOT
 70
    64
  3
...............................................
 72
    65
 73
     2
 40
0.000001
 49
0.000000
 49
-0.000001
  0
LTYPE
  2
DASHDOT
 70
    64
  3
__ . __ . __ . __ . __ . __ . __ . __ . __ . __
 72
    65
 73
     4
 40
0.000004
 49
0.000002
 49
-0.000001
 49
0.000000
 49
-0.000001
  0
LTYPE
  2
BORDER
 70
    64
  3
__ __ . __ __ . __ __ . __ __ . __ __ . __ __
 72
    65
 73
     6
 40
0.000007
 49
0.000002
 49
-0.000001
 49
0.000002
 49
-0.000001
 49
0.000000
 49
-0.000001
  0
LTYPE
  2
DIVIDE
 70
    64
  3
__ . . __ . . __ . . __ . . __ . . __ . . __
 72
    65
 73
     6
 40
0.000005
 49
0.000002
 49
-0.000001
 49
0.000000
 49
-0.000001
 49
0.000000
 49
-0.000001
  0
LTYPE
  2
DOTDOT
 70
    64
  3
 . .  . .  . .  . .  . .  . . 
 72
    65
 73
     5
 40
0.000002
 49
-0.000001
 49
0.000000
 49
-0.000001
 49
0.000000
 49
-0.000001
  0
ENDTAB
  0
TABLE
  2
STYLE
 70
     0
  0
ENDTAB
  0
TABLE
  2
LAYER
 70
     3
  0
LAYER
  2
FOREGROUND
 70
    64
 62
     7
  6
CONTINUOUS
  0
LAYER
  2
BACKGROUND
 70
    65
 62
    -7
  6
CONTINUOUS
  0
LAYER
  2
1
 70
    64
 62
     7
  6
CONTINUOUS
  0
ENDTAB
  0
ENDSEC
  0
SECTION
  2
ENTITIES
  0
POLYLINE
  8
1
 62
     7
  6
CONTINUOUS
 66
     1
 40
0.003000
 41
0.003000
  0
VERTEX
  8
1
 62
     7
  6
CONTINUOUS
 10
1.466280
 20
-2.293650
  0
VERTEX
  8
1
 62
     7
  6
CONTINUOUS
 10
1.454161
 20
-1.943858
  0
VERTEX
  8
1
 62
     7
  6
CONTINUOUS
 10
1.454161
 20
-1.671937
  0
VERTEX
  8
1
 62
     7
  6
CONTINUOUS
 10
1.472374
 20
-1.410882
  0
VERTEX
  8
1
 62
     7
  6
CONTINUOUS
 10
1.528354
 20
-1.298098
  0
VERTEX
  8
1
 62
     7
  6
CONTINUOUS
 10
1.641587
 20
-1.168193
  0
VERTEX
  8
1
 62
     7
  6
CONTINUOUS
 10
1.685437
 20
-1.067465
  0
VERTEX
  8
1
 62
     7
  6
CONTINUOUS
 10
1.823685
 20
-1.019906
  0
VERTEX
  8
1
 62
     7
  6
CONTINUOUS
 10
1.918055
 20
-0.895744
  0
VERTEX
  8
1
 62
     7
  6
CONTINUOUS
 10
1.949087
 20
-0.825327
  0
VERTEX
  8
1
 62
     7
  6
CONTINUOUS
 10
2.005799
 20
-0.800650
  0
VERTEX
  8
1
 62
     7
  6
CONTINUOUS
 10
2.099567
 20
-0.730319
  0
VERTEX
  8
1
 62
     7
  6
CONTINUOUS
 10
2.181094
 20
-0.765142
  0
VERTEX
  8
1
 62
     7
  6
CONTINUOUS
 10
2.225614
 20
-0.960969
  0
VERTEX
  8
1
 62
     7
  6
CONTINUOUS
 10
2.262724
 20
-1.304378
  0
VERTEX
  8
1
 62
     7
  6
CONTINUOUS
 10
2.287665
 20
-1.399476
  0
VERTEX
  8
1
 62
     7
  6
CONTINUOUS
 10
2.419209
 20
-1.410882
  0
VERTEX
  8
1
 62
     7
  6
CONTINUOUS
 10
2.532508
 20
-1.447047
  0
VERTEX
  8
1
 62
     7
  6
CONTINUOUS
 10
2.626252
 20
-1.357677
  0
VERTEX
  8
1
 62
     7
  6
CONTINUOUS
 10
2.614043
 20
-1.090862
  0
VERTEX
  8
1
 62
     7
  6
CONTINUOUS
 10
2.601319
 20
-0.842453
  0
VERTEX
  8
1
 62
     7
  6
CONTINUOUS
 10
2.601319
 20
-0.646713
  0
VERTEX
  8
1
 62
     7
  6
CONTINUOUS
 10
2.626252
 20
-0.481264
  0
VERTEX
  8
1
 62
     7
  6
CONTINUOUS
 10
2.720626
 20
-0.398295
  0
VERTEX
  8
1
 62
     7
  6
CONTINUOUS
 10
2.789425
 20
-0.309563
  0
VERTEX
  8
1
 62
     7
  6
CONTINUOUS
 10
2.840035
 20
-0.186016
  0
VERTEX
  8
1
 62
     7
  6
CONTINUOUS
 10
2.840035
 20
-0.007303
  0
VERTEX
  8
1
 62
     7
  6
CONTINUOUS
 10
2.802244
 20
0.128941
  0
VERTEX
  8
1
 62
     7
  6
CONTINUOUS
 10
2.689579
 20
0.306394
  0
VERTEX
  8
1
 62
     7
  6
CONTINUOUS
 10
2.463059
 20
0.347579
  0
VERTEX
  8
1
 62
     7
  6
CONTINUOUS
 10
2.218870
 20
0.312673
  0
VERTEX
  8
1
 62
     7
  6
CONTINUOUS
 10
2.212146
 20
0.383098
  0
VERTEX
  8
1
 62
     7
  6
CONTINUOUS
 10
2.456965
 20
0.597248
  0
VERTEX
  8
1
 62
     7
  6
CONTINUOUS
 10
2.469803
 20
0.715780
  0
VERTEX
  8
1
 62
     7
  6
CONTINUOUS
 10
2.456965
 20
0.881189
  0
VERTEX
  8
1
 62
     7
  6
CONTINUOUS
 10
2.375319
 20
1.035768
  0
VERTEX
  8
1
 62
     7
  6
CONTINUOUS
 10
2.175087
 20
1.141528
  0
VERTEX
  8
1
 62
     7
  6
CONTINUOUS
 10
2.005799
 20
1.212587
  0
VERTEX
  8
1
 62
     7
  6
CONTINUOUS
 10
1.742142
 20
1.248720
  0
VERTEX
  8
1
 62
     7
  6
CONTINUOUS
 10
1.641587
 20
1.307681
  0
VERTEX
  8
1
 62
     7
  6
CONTINUOUS
 10
1.528354
 20
1.491390
  0
VERTEX
  8
1
 62
     7
  6
CONTINUOUS
 10
1.372516
 20
1.663126
  0
VERTEX
  8
1
 62
     7
  6
CONTINUOUS
 10
1.370551
 20
1.663760
  0
VERTEX
  8
1
 62
     7
  6
CONTINUOUS
 10
1.365783
 20
1.666358
  0
VERTEX
  8
1
 62
     7
  6
CONTINUOUS
 10
1.357724
 20
1.669480
  0
VERTEX
  8
1
 62
     7
  6
CONTINUOUS
 10
1.346957
 20
1.673898
  0
VERTEX
  8
1
 62
     7
  6
CONTINUOUS
 10
1.334748
 20
1.679626
  0
VERTEX
  8
1
 62
     7
  6
CONTINUOUS
 10
1.321307
 20
1.685295
  0
VERTEX
  8
1
 62
     7
  6
CONTINUOUS
 10
1.306488
 20
1.691657
  0
VERTEX
  8
1
 62
     7
  6
CONTINUOUS
 10
1.291583
 20
1.698646
  0
VERTEX
  8
1
 62
     7
  6
CONTINUOUS
 10
1.276083
 20
1.704925
  0
VERTEX
  8
1
 62
     7
  6
CONTINUOUS
 10
1.261287
 20
1.711303
  0
VERTEX
  8
1
 62
     7
  6
CONTINUOUS
 10
1.247795
 20
1.717039
  0
VERTEX
  8
1
 62
     7
  6
CONTINUOUS
 10
1.235622
 20
1.722772
  0
VERTEX
  8
1
 62
     7
  6
CONTINUOUS
 10
1.225484
 20
1.727075
  0
VERTEX
  8
1
 62
     7
  6
CONTINUOUS
 10
1.217406
 20
1.730311
  0
VERTEX
  8
1
 62
     7
  6
CONTINUOUS
 10
1.212748
 20
1.732827
  0
VERTEX
  8
1
 62
     7
  6
CONTINUOUS
 10
1.210693
 20
1.733449
  0
VERTEX
  8
1
 62
     7
  6
CONTINUOUS
 10
1.207272
 20
1.734705
  0
VERTEX
  8
1
 62
     7
  6
CONTINUOUS
 10
1.199197
 20
1.738575
  0
VERTEX
  8
1
 62
     7
  6
CONTINUOUS
 10
1.188429
 20
1.742957
  0
VERTEX
  8
1
 62
     7
  6
CONTINUOUS
 10
1.175594
 20
1.748705
  0
VERTEX
  8
1
 62
     7
  6
CONTINUOUS
 10
1.162776
 20
1.754449
  0
VERTEX
  8
1
 62
     7
  6
CONTINUOUS
 10
1.152000
 20
1.759465
  0
VERTEX
  8
1
 62
     7
  6
CONTINUOUS
 10
1.143933
 20
1.762610
  0
VERTEX
  8
1
 62
     7
  6
CONTINUOUS
 10
1.141224
 20
1.763862
  0
VERTEX
  8
1
 62
     7
  6
CONTINUOUS
 10
1.139902
 20
1.763862
  0
VERTEX
  8
1
 62
     7
  6
CONTINUOUS
 10
1.135866
 20
1.763862
  0
VERTEX
  8
1
 62
     7
  6
CONTINUOUS
 10
1.129134
 20
1.764606
  0
VERTEX
  8
1
 62
     7
  6
CONTINUOUS
 10
1.120961
 20
1.764606
  0
VERTEX
  8
1
 62
     7
  6
CONTINUOUS
 10
1.111547
 20
1.765130
  0
VERTEX
  8
1
 62
     7
  6
CONTINUOUS
 10
1.100776
 20
1.765831
  0
VERTEX
  8
1
 62
     7
  6
CONTINUOUS
 10
1.090012
 20
1.766346
  0
VERTEX
  8
1
 62
     7
  6
CONTINUOUS
 10
1.077795
 20
1.767098
  0
VERTEX
  8
1
 62
     7
  6
CONTINUOUS
 10
1.066425
 20
1.767098
  0
VERTEX
  8
1
 62
     7
  6
CONTINUOUS
 10
1.054929
 20
1.767622
  0
VERTEX
  8
1
 62
     7
  6
CONTINUOUS
 10
1.044094
 20
1.768354
  0
VERTEX
  8
1
 62
     7
  6
CONTINUOUS
 10
1.035386
 20
1.768882
  0
VERTEX
  8
1
 62
     7
  6
CONTINUOUS
 10
1.027323
 20
1.768882
  0
VERTEX
  8
1
 62
     7
  6
CONTINUOUS
 10
1.021209
 20
1.769606
  0
VERTEX
  8
1
 62
     7
  6
CONTINUOUS
 10
1.017169
 20
1.769606
  0
VERTEX
  8
1
 62
     7
  6
CONTINUOUS
 10
1.015827
 20
1.769606
  0
VERTEX
  8
1
 62
     7
  6
CONTINUOUS
 10
1.011677
 20
1.764606
  0
VERTEX
  8
1
 62
     7
  6
CONTINUOUS
 10
1.000937
 20
1.749969
  0
VERTEX
  8
1
 62
     7
  6
CONTINUOUS
 10
0.985409
 20
1.730311
  0
VERTEX
  8
1
 62
     7
  6
CONTINUOUS
 10
0.968539
 20
1.707429
  0
VERTEX
  8
1
 62
     7
  6
CONTINUOUS
 10
0.951051
 20
1.684031
  0
VERTEX
  8
1
 62
     7
  6
CONTINUOUS
 10
0.936256
 20
1.664378
  0
VERTEX
  8
1
 62
     7
  6
CONTINUOUS
 10
0.926114
 20
1.649846
  0
VERTEX
  8
1
 62
     7
  6
CONTINUOUS
 10
0.922094
 20
1.644720
  0
VERTEX
  8
1
 62
     7
  6
CONTINUOUS
 10
0.918661
 20
1.640331
  0
VERTEX
  8
1
 62
     7
  6
CONTINUOUS
 10
0.910598
 20
1.626961
  0
VERTEX
  8
1
 62
     7
  6
CONTINUOUS
 10
0.897134
 20
1.607429
  0
VERTEX
  8
1
 62
     7
  6
CONTINUOUS
 10
0.880299
 20
1.580768
  0
VERTEX
  8
1
 62
     7
  6
CONTINUOUS
 10
0.860720
 20
1.550346
  0
VERTEX
  8
1
 62
     7
  6
CONTINUOUS
 10
0.838457
 20
1.515461
  0
VERTEX
  8
1
 62
     7
  6
CONTINUOUS
 10
0.814150
 20
1.478736
  0
VERTEX
  8
1
 62
     7
  6
CONTINUOUS
 10
0.789929
 20
1.440713
  0
VERTEX
  8
1
 62
     7
  6
CONTINUOUS
 10
0.765012
 20
1.402689
  0
VERTEX
  8
1
 62
     7
  6
CONTINUOUS
 10
0.741406
 20
1.365988
  0
VERTEX
  8
1
 62
     7
  6
CONTINUOUS
 10
0.719071
 20
1.331091
  0
VERTEX
  8
1
 62
     7
  6
CONTINUOUS
 10
0.699575
 20
1.300669
  0
VERTEX
  8
1
 62
     7
  6
CONTINUOUS
 10
0.682630
 20
1.274118
  0
VERTEX
  8
1
 62
     7
  6
CONTINUOUS
 10
0.669181
 20
1.254378
  0
VERTEX
  8
1
 62
     7
  6
CONTINUOUS
 10
0.661094
 20
1.241122
  0
VERTEX
  8
1
 62
     7
  6
CONTINUOUS
 10
0.658398
 20
1.236630
  0
VERTEX
  8
1
 62
     7
  6
CONTINUOUS
 10
0.655740
 20
1.233472
  0
VERTEX
  8
1
 62
     7
  6
CONTINUOUS
 10
0.649000
 20
1.224606
  0
VERTEX
  8
1
 62
     7
  6
CONTINUOUS
 10
0.638138
 20
1.210689
  0
VERTEX
  8
1
 62
     7
  6
CONTINUOUS
 10
0.624063
 20
1.192295
  0
VERTEX
  8
1
 62
     7
  6
CONTINUOUS
 10
0.607157
 20
1.170776
  0
VERTEX
  8
1
 62
     7
  6
CONTINUOUS
 10
0.588248
 20
1.146728
  0
VERTEX
  8
1
 62
     7
  6
CONTINUOUS
 10
0.568717
 20
1.120614
  0
VERTEX
  8
1
 62
     7
  6
CONTINUOUS
 10
0.548520
 20
1.094693
  0
VERTEX
  8
1
 62
     7
  6
CONTINUOUS
 10
0.527638
 20
1.068177
  0
VERTEX
  8
1
 62
     7
  6
CONTINUOUS
 10
0.508059
 20
1.042138
  0
VERTEX
  8
1
 62
     7
  6
CONTINUOUS
 10
0.489850
 20
1.017996
  0
VERTEX
  8
1
 62
     7
  6
CONTINUOUS
 10
0.472980
 20
0.996480
  0
VERTEX
  8
1
 62
     7
  6
CONTINUOUS
 10
0.459516
 20
0.978094
  0
VERTEX
  8
1
 62
     7
  6
CONTINUOUS
 10
0.448654
 20
0.964173
  0
VERTEX
  8
1
 62
     7
  6
CONTINUOUS
 10
0.441315
 20
0.955299
  0
VERTEX
  8
1
 62
     7
  6
CONTINUOUS
 10
0.439236
 20
0.952134
  0
VERTEX
  8
1
 62
     7
  6
CONTINUOUS
 10
0.437913
 20
0.950177
  0
VERTEX
  8
1
 62
     7
  6
CONTINUOUS
 10
0.433858
 20
0.944535
  0
VERTEX
  8
1
 62
     7
  6
CONTINUOUS
 10
0.427748
 20
0.935642
  0
VERTEX
  8
1
 62
     7
  6
CONTINUOUS
 10
0.419689
 20
0.923539
  0
VERTEX
  8
1
 62
     7
  6
CONTINUOUS
 10
0.409551
 20
0.908382
  0
VERTEX
  8
1
 62
     7
  6
CONTINUOUS
 10
0.397445
 20
0.889984
  0
VERTEX
  8
1
 62
     7
  6
CONTINUOUS
 10
0.383248
 20
0.869783
  0
VERTEX
  8
1
 62
     7
  6
CONTINUOUS
 10
0.368378
 20
0.847535
  0
VERTEX
  8
1
 62
     7
  6
CONTINUOUS
 10
0.351591
 20
0.822799
  0
VERTEX
  8
1
 62
     7
  6
CONTINUOUS
 10
0.334031
 20
0.796862
  0
VERTEX
  8
1
 62
     7
  6
CONTINUOUS
 10
0.315173
 20
0.768941
  0
VERTEX
  8
1
 62
     7
  6
CONTINUOUS
 10
0.295626
 20
0.740398
  0
VERTEX
  8
1
 62
     7
  6
CONTINUOUS
 10
0.275343
 20
0.709984
  0
VERTEX
  8
1
 62
     7
  6
CONTINUOUS
 10
0.255130
 20
0.679693
  0
VERTEX
  8
1
 62
     7
  6
CONTINUOUS
 10
0.234248
 20
0.648567
  0
VERTEX
  8
1
 62
     7
  6
CONTINUOUS
 10
0.212626
 20
0.617528
  0
VERTEX
  8
1
 62
     7
  6
CONTINUOUS
 10
0.191724
 20
0.585831
  0
VERTEX
  8
1
 62
     7
  6
CONTINUOUS
 10
0.170831
 20
0.554803
  0
VERTEX
  8
1
 62
     7
  6
CONTINUOUS
 10
0.149925
 20
0.524390
  0
VERTEX
  8
1
 62
     7
  6
CONTINUOUS
 10
0.129638
 20
0.493984
  0
VERTEX
  8
1
 62
     7
  6
CONTINUOUS
 10
0.110098
 20
0.465457
  0
VERTEX
  8
1
 62
     7
  6
CONTINUOUS
 10
0.091972
 20
0.437555
  0
VERTEX
  8
1
 62
     7
  6
CONTINUOUS
 10
0.074382
 20
0.411630
  0
VERTEX
  8
1
 62
     7
  6
CONTINUOUS
 10
0.057524
 20
0.386870
  0
VERTEX
  8
1
 62
     7
  6
CONTINUOUS
 10
0.042713
 20
0.364717
  0
VERTEX
  8
1
 62
     7
  6
CONTINUOUS
 10
0.028535
 20
0.344441
  0
VERTEX
  8
1
 62
     7
  6
CONTINUOUS
 10
0.017059
 20
0.326055
  0
VERTEX
  8
1
 62
     7
  6
CONTINUOUS
 10
0.006303
 20
0.310894
  0
VERTEX
  8
1
 62
     7
  6
CONTINUOUS
 10
-0.001787
 20
0.298783
  0
VERTEX
  8
1
 62
     7
  6
CONTINUOUS
 10
-0.007882
 20
0.289902
  0
VERTEX
  8
1
 62
     7
  6
CONTINUOUS
 10
-0.011283
 20
0.284240
  0
VERTEX
  8
1
 62
     7
  6
CONTINUOUS
 10
-0.012551
 20
0.282280
  0
VERTEX
  8
1
 62
     7
  6
CONTINUOUS
 10
-0.015319
 20
0.281024
  0
VERTEX
  8
1
 62
     7
  6
CONTINUOUS
 10
-0.022059
 20
0.277866
  0
VERTEX
  8
1
 62
     7
  6
CONTINUOUS
 10
-0.030748
 20
0.272760
  0
VERTEX
  8
1
 62
     7
  6
CONTINUOUS
 10
-0.041614
 20
0.267736
  0
VERTEX
  8
1
 62
     7
  6
CONTINUOUS
 10
-0.051744
 20
0.262114
  0
VERTEX
  8
1
 62
     7
  6
CONTINUOUS
 10
-0.060441
 20
0.256980
  0
VERTEX
  8
1
 62
     7
  6
CONTINUOUS
 10
-0.067299
 20
0.253819
  0
VERTEX
  8
1
 62
     7
  6
CONTINUOUS
 10
-0.069220
 20
0.252567
  0
VERTEX
  8
1
 62
     7
  6
CONTINUOUS
 10
-0.074004
 20
0.245563
  0
VERTEX
  8
1
 62
     7
  6
CONTINUOUS
 10
-0.086122
 20
0.227803
  0
VERTEX
  8
1
 62
     7
  6
CONTINUOUS
 10
-0.102972
 20
0.202417
  0
VERTEX
  8
1
 62
     7
  6
CONTINUOUS
 10
-0.122516
 20
0.173244
  0
VERTEX
  8
1
 62
     7
  6
CONTINUOUS
 10
-0.142087
 20
0.143583
  0
VERTEX
  8
1
 62
     7
  6
CONTINUOUS
 10
-0.158957
 20
0.118165
  0
VERTEX
  8
1
 62
     7
  6
CONTINUOUS
 10
-0.171059
 20
0.100406
  0
VERTEX
  8
1
 62
     7
  6
CONTINUOUS
 10
-0.175122
 20
0.093409
  0
VERTEX
  8
1
 62
     7
  6
CONTINUOUS
 10
-0.179138
 20
0.086516
  0
VERTEX
  8
1
 62
     7
  6
CONTINUOUS
 10
-0.187921
 20
0.068118
  0
VERTEX
  8
1
 62
     7
  6
CONTINUOUS
 10
-0.201390
 20
0.042831
  0
VERTEX
  8
1
 62
     7
  6
CONTINUOUS
 10
-0.216295
 20
0.012937
  0
VERTEX
  8
1
 62
     7
  6
CONTINUOUS
 10
-0.231071
 20
-0.016831
  0
VERTEX
  8
1
 62
     7
  6
CONTINUOUS
 10
-0.244551
 20
-0.042122
  0
VERTEX
  8
1
 62
     7
  6
CONTINUOUS
 10
-0.253315
 20
-0.060453
  0
VERTEX
  8
1
 62
     7
  6
CONTINUOUS
 10
-0.256744
 20
-0.067429
  0
VERTEX
  8
1
 62
     7
  6
CONTINUOUS
 10
-0.258071
 20
-0.067429
  0
SEQEND
  8
0
  0
POLYLINE
  8
1
 62
     7
  6
CONTINUOUS
 66
     1
 40
0.003000
 41
0.003000
  0
VERTEX
  8
1
 62
     7
  6
CONTINUOUS
 10
-0.902752
 20
-1.256835
  0
VERTEX
  8
1
 62
     7
  6
CONTINUOUS
 10
-0.899453
 20
-1.256835
  0
VERTEX
  8
1
 62
     7
  6
CONTINUOUS
 10
-0.889331
 20
-1.258189
  0
VERTEX
  8
1
 62
     7
  6
CONTINUOUS
 10
-0.875776
 20
-1.258831
  0
VERTEX
  8
1
 62
     7
  6
CONTINUOUS
 10
-0.859614
 20
-1.260079
  0
VERTEX
  8
1
 62
     7
  6
CONTINUOUS
 10
-0.843457
 20
-1.261327
  0
VERTEX
  8
1
 62
     7
  6
CONTINUOUS
 10
-0.829283
 20
-1.262043
  0
VERTEX
  8
1
 62
     7
  6
CONTINUOUS
 10
-0.819150
 20
-1.263291
  0
VERTEX
  8
1
 62
     7
  6
CONTINUOUS
 10
-0.815126
 20
-1.263291
  0
VERTEX
  8
1
 62
     7
  6
CONTINUOUS
 10
-0.812402
 20
-1.265815
  0
VERTEX
  8
1
 62
     7
  6
CONTINUOUS
 10
-0.805697
 20
-1.273453
  0
VERTEX
  8
1
 62
     7
  6
CONTINUOUS
 10
-0.795559
 20
-1.284209
  0
VERTEX
  8
1
 62
     7
  6
CONTINUOUS
 10
-0.784059
 20
-1.295598
  0
VERTEX
  8
1
 62
     7
  6
CONTINUOUS
 10
-0.772610
 20
-1.307610
  0
VERTEX
  8
1
 62
     7
  6
CONTINUOUS
 10
-0.762555
 20
-1.318374
  0
VERTEX
  8
1
 62
     7
  6
CONTINUOUS
 10
-0.755094
 20
-1.325996
  0
VERTEX
  8
1
 62
     7
  6
CONTINUOUS
 10
-0.752417
 20
-1.328500
  0
VERTEX
  8
1
 62
     7
  6
CONTINUOUS
 10
-0.750362
 20
-1.335496
  0
VERTEX
  8
1
 62
     7
  6
CONTINUOUS
 10
-0.743598
 20
-1.355776
  0
VERTEX
  8
1
 62
     7
  6
CONTINUOUS
 10
-0.733465
 20
-1.387449
  0
VERTEX
  8
1
 62
     7
  6
CONTINUOUS
 10
-0.720732
 20
-1.428642
  0
VERTEX
  8
1
 62
     7
  6
CONTINUOUS
 10
-0.704492
 20
-1.476807
  0
VERTEX
  8
1
 62
     7
  6
CONTINUOUS
 10
-0.687630
 20
-1.530650
  0
VERTEX
  8
1
 62
     7
  6
CONTINUOUS
 10
-0.668791
 20
-1.588327
  0
VERTEX
  8
1
 62
     7
  6
CONTINUOUS
 10
-0.649236
 20
-1.647886
  0
VERTEX
  8
1
 62
     7
  6
CONTINUOUS
 10
-0.630307
 20
-1.708181
  0
VERTEX
  8
1
 62
     7
  6
CONTINUOUS
 10
-0.611457
 20
-1.765764
  0
VERTEX
  8
1
 62
     7
  6
CONTINUOUS
 10
-0.593886
 20
-1.819685
  0
VERTEX
  8
1
 62
     7
  6
CONTINUOUS
 10
-0.578366
 20
-1.867783
  0
VERTEX
  8
1
 62
     7
  6
CONTINUOUS
 10
-0.564906
 20
-1.909035
  0
VERTEX
  8
1
 62
     7
  6
CONTINUOUS
 10
-0.554764
 20
-1.940732
  0
VERTEX
  8
1
 62
     7
  6
CONTINUOUS
 10
-0.548028
 20
-1.961016
  0
VERTEX
  8
1
 62
     7
  6
CONTINUOUS
 10
-0.545350
 20
-1.967980
  0
VERTEX
  8
1
 62
     7
  6
CONTINUOUS
 10
-0.544000
 20
-1.968508
  0
VERTEX
  8
1
 62
     7
  6
CONTINUOUS
 10
-0.540583
 20
-1.969780
  0
VERTEX
  8
1
 62
     7
  6
CONTINUOUS
 10
-0.535213
 20
-1.971748
  0
VERTEX
  8
1
 62
     7
  6
CONTINUOUS
 10
-0.527835
 20
-1.974287
  0
VERTEX
  8
1
 62
     7
  6
CONTINUOUS
 10
-0.519783
 20
-1.977496
  0
VERTEX
  8
1
 62
     7
  6
CONTINUOUS
 10
-0.510272
 20
-1.981272
  0
VERTEX
  8
1
 62
     7
  6
CONTINUOUS
 10
-0.500220
 20
-1.984409
  0
VERTEX
  8
1
 62
     7
  6
CONTINUOUS
 10
-0.489386
 20
-1.988157
  0
VERTEX
  8
1
 62
     7
  6
CONTINUOUS
 10
-0.479240
 20
-1.992665
  0
VERTEX
  8
1
 62
     7
  6
CONTINUOUS
 10
-0.469193
 20
-1.995795
  0
VERTEX
  8
1
 62
     7
  6
CONTINUOUS
 10
-0.459051
 20
-1.999661
  0
VERTEX
  8
1
 62
     7
  6
CONTINUOUS
 10
-0.450996
 20
-2.002803
  0
VERTEX
  8
1
 62
     7
  6
CONTINUOUS
 10
-0.443531
 20
-2.005303
  0
VERTEX
  8
1
 62
     7
  6
CONTINUOUS
 10
-0.438150
 20
-2.007268
  0
VERTEX
  8
1
 62
     7
  6
CONTINUOUS
 10
-0.434106
 20
-2.008555
  0
VERTEX
  8
1
 62
     7
  6
CONTINUOUS
 10
-0.432748
 20
-2.009067
  0
VERTEX
  8
1
 62
     7
  6
CONTINUOUS
 10
-0.430075
 20
-2.008555
  0
VERTEX
  8
1
 62
     7
  6
CONTINUOUS
 10
-0.422606
 20
-2.007268
  0
VERTEX
  8
1
 62
     7
  6
CONTINUOUS
 10
-0.411102
 20
-2.005303
  0
VERTEX
  8
1
 62
     7
  6
CONTINUOUS
 10
-0.399031
 20
-2.003413
  0
VERTEX
  8
1
 62
     7
  6
CONTINUOUS
 10
-0.386197
 20
-2.001547
  0
VERTEX
  8
1
 62
     7
  6
CONTINUOUS
 10
-0.374720
 20
-1.999661
  0
VERTEX
  8
1
 62
     7
  6
CONTINUOUS
 10
-0.367358
 20
-1.998398
  0
VERTEX
  8
1
 62
     7
  6
CONTINUOUS
 10
-0.363945
 20
-1.997669
  0
VERTEX
  8
1
 62
     7
  6
CONTINUOUS
 10
-0.361268
 20
-1.995795
  0
VERTEX
  8
1
 62
     7
  6
CONTINUOUS
 10
-0.353173
 20
-1.990157
  0
VERTEX
  8
1
 62
     7
  6
CONTINUOUS
 10
-0.342343
 20
-1.982528
  0
VERTEX
  8
1
 62
     7
  6
CONTINUOUS
 10
-0.329598
 20
-1.973669
  0
VERTEX
  8
1
 62
     7
  6
CONTINUOUS
 10
-0.316764
 20
-1.964768
  0
VERTEX
  8
1
 62
     7
  6
CONTINUOUS
 10
-0.305992
 20
-1.957134
  0
VERTEX
  8
1
 62
     7
  6
CONTINUOUS
 10
-0.297846
 20
-1.951382
  0
VERTEX
  8
1
 62
     7
  6
CONTINUOUS
 10
-0.294504
 20
-1.949598
  0
VERTEX
  8
1
 62
     7
  6
CONTINUOUS
 10
-0.291831
 20
-1.925461
  0
VERTEX
  8
1
 62
     7
  6
CONTINUOUS
 10
-0.285720
 20
-1.872882
  0
VERTEX
  8
1
 62
     7
  6
CONTINUOUS
 10
-0.279638
 20
-1.820933
  0
VERTEX
  8
1
 62
     7
  6
CONTINUOUS
 10
-0.276299
 20
-1.796819
  0
VERTEX
  8
1
 62
     7
  6
CONTINUOUS
 10
-0.277669
 20
-1.756980
  0
VERTEX
  8
1
 62
     7
  6
CONTINUOUS
 10
-0.279638
 20
-1.668894
  0
VERTEX
  8
1
 62
     7
  6
CONTINUOUS
 10
-0.281689
 20
-1.580799
  0
VERTEX
  8
1
 62
     7
  6
CONTINUOUS
 10
-0.282323
 20
-1.540787
  0
VERTEX
  8
1
 62
     7
  6
CONTINUOUS
 10
-0.281689
 20
-1.535772
  0
VERTEX
  8
1
 62
     7
  6
CONTINUOUS
 10
-0.279638
 20
-1.521138
  0
VERTEX
  8
1
 62
     7
  6
CONTINUOUS
 10
-0.276941
 20
-1.501496
  0
VERTEX
  8
1
 62
     7
  6
CONTINUOUS
 10
-0.272902
 20
-1.478780
  0
VERTEX
  8
1
 62
     7
  6
CONTINUOUS
 10
-0.269583
 20
-1.455925
  0
VERTEX
  8
1
 62
     7
  6
CONTINUOUS
 10
-0.266169
 20
-1.436276
  0
VERTEX
  8
1
 62
     7
  6
CONTINUOUS
 10
-0.264094
 20
-1.421650
  0
VERTEX
  8
1
 62
     7
  6
CONTINUOUS
 10
-0.262831
 20
-1.416614
  0
VERTEX
  8
1
 62
     7
  6
CONTINUOUS
 10
-0.260055
 20
-1.416614
  0
VERTEX
  8
1
 62
     7
  6
CONTINUOUS
 10
-0.253315
 20
-1.415980
  0
VERTEX
  8
1
 62
     7
  6
CONTINUOUS
 10
-0.243925
 20
-1.414638
  0
VERTEX
  8
1
 62
     7
  6
CONTINUOUS
 10
-0.232425
 20
-1.413382
  0
VERTEX
  8
1
 62
     7
  6
CONTINUOUS
 10
-0.220949
 20
-1.412827
  0
VERTEX
  8
1
 62
     7
  6
CONTINUOUS
 10
-0.210898
 20
-1.411594
  0
VERTEX
  8
1
 62
     7
  6
CONTINUOUS
 10
-0.203457
 20
-1.410882
  0
VERTEX
  8
1
 62
     7
  6
CONTINUOUS
 10
-0.200756
 20
-1.410882
  0
VERTEX
  8
1
 62
     7
  6
CONTINUOUS
 10
-0.198063
 20
-1.412138
  0
VERTEX
  8
1
 62
     7
  6
CONTINUOUS
 10
-0.191350
 20
-1.414638
  0
VERTEX
  8
1
 62
     7
  6
CONTINUOUS
 10
-0.181197
 20
-1.418504
  0
VERTEX
  8
1
 62
     7
  6
CONTINUOUS
 10
-0.169728
 20
-1.422969
  0
VERTEX
  8
1
 62
     7
  6
CONTINUOUS
 10
-0.157618
 20
-1.427390
  0
VERTEX
  8
1
 62
     7
  6
CONTINUOUS
 10
-0.147476
 20
-1.431217
  0
VERTEX
  8
1
 62
     7
  6
CONTINUOUS
 10
-0.140035
 20
-1.433740
  0
VERTEX
  8
1
 62
     7
  6
CONTINUOUS
 10
-0.137327
 20
-1.435008
  0
VERTEX
  8
1
 62
     7
  6
CONTINUOUS
 10
-0.135972
 20
-1.435008
  0
VERTEX
  8
1
 62
     7
  6
CONTINUOUS
 10
-0.131350
 20
-1.434311
  0
VERTEX
  8
1
 62
     7
  6
CONTINUOUS
 10
-0.124504
 20
-1.433740
  0
VERTEX
  8
1
 62
     7
  6
CONTINUOUS
 10
-0.115083
 20
-1.433031
  0
VERTEX
  8
1
 62
     7
  6
CONTINUOUS
 10
-0.104327
 20
-1.432476
  0
VERTEX
  8
1
 62
     7
  6
CONTINUOUS
 10
-0.092209
 20
-1.431217
  0
VERTEX
  8
1
 62
     7
  6
CONTINUOUS
 10
-0.079370
 20
-1.429941
  0
VERTEX
  8
1
 62
     7
  6
CONTINUOUS
 10
-0.065913
 20
-1.428642
  0
VERTEX
  8
1
 62
     7
  6
CONTINUOUS
 10
-0.052386
 20
-1.428020
  0
VERTEX
  8
1
 62
     7
  6
CONTINUOUS
 10
-0.039531
 20
-1.426756
  0
VERTEX
  8
1
 62
     7
  6
CONTINUOUS
 10
-0.027421
 20
-1.425492
  0
VERTEX
  8
1
 62
     7
  6
CONTINUOUS
 10
-0.016657
 20
-1.424866
  0
VERTEX
  8
1
 62
     7
  6
CONTINUOUS
 10
-0.007161
 20
-1.424224
  0
VERTEX
  8
1
 62
     7
  6
CONTINUOUS
 10
0.000197
 20
-1.423528
  0
VERTEX
  8
1
 62
     7
  6
CONTINUOUS
 10
0.004256
 20
-1.422969
  0
VERTEX
  8
1
 62
     7
  6
CONTINUOUS
 10
0.006303
 20
-1.422969
  0
VERTEX
  8
1
 62
     7
  6
CONTINUOUS
 10
0.009008
 20
-1.424224
  0
VERTEX
  8
1
 62
     7
  6
CONTINUOUS
 10
0.017772
 20
-1.427390
  0
VERTEX
  8
1
 62
     7
  6
CONTINUOUS
 10
0.029894
 20
-1.432476
  0
VERTEX
  8
1
 62
     7
  6
CONTINUOUS
 10
0.043339
 20
-1.437531
  0
VERTEX
  8
1
 62
     7
  6
CONTINUOUS
 10
0.057524
 20
-1.442626
  0
VERTEX
  8
1
 62
     7
  6
CONTINUOUS
 10
0.069705
 20
-1.447681
  0
VERTEX
  8
1
 62
     7
  6
CONTINUOUS
 10
0.078433
 20
-1.450870
  0
VERTEX
  8
1
 62
     7
  6
CONTINUOUS
 10
0.081835
 20
-1.452146
  0
VERTEX
  8
1
 62
     7
  6
CONTINUOUS
 10
0.084508
 20
-1.457819
  0
VERTEX
  8
1
 62
     7
  6
CONTINUOUS
 10
0.090535
 20
-1.469831
  0
VERTEX
  8
1
 62
     7
  6
CONTINUOUS
 10
0.097343
 20
-1.482567
  0
VERTEX
  8
1
 62
     7
  6
CONTINUOUS
 10
0.100685
 20
-1.488193
  0
VERTEX
  8
1
 62
     7
  6
CONTINUOUS
 10
0.102024
 20
-1.498437
  0
VERTEX
  8
1
 62
     7
  6
CONTINUOUS
 10
0.106059
 20
-1.524366
  0
VERTEX
  8
1
 62
     7
  6
CONTINUOUS
 10
0.112169
 20
-1.561146
  0
VERTEX
  8
1
 62
     7
  6
CONTINUOUS
 10
0.118878
 20
-1.603484
  0
VERTEX
  8
1
 62
     7
  6
CONTINUOUS
 10
0.125717
 20
-1.646634
  0
VERTEX
  8
1
 62
     7
  6
CONTINUOUS
 10
0.131724
 20
-1.683339
  0
VERTEX
  8
1
 62
     7
  6
CONTINUOUS
 10
0.135732
 20
-1.709433
  0
VERTEX
  8
1
 62
     7
  6
CONTINUOUS
 10
0.137811
 20
-1.719469
  0
VERTEX
  8
1
 62
     7
  6
CONTINUOUS
 10
0.139161
 20
-1.737228
  0
VERTEX
  8
1
 62
     7
  6
CONTINUOUS
 10
0.143815
 20
-1.775272
  0
VERTEX
  8
1
 62
     7
  6
CONTINUOUS
 10
0.147870
 20
-1.813929
  0
VERTEX
  8
1
 62
     7
  6
CONTINUOUS
 10
0.150638
 20
-1.831630
  0
VERTEX
  8
1
 62
     7
  6
CONTINUOUS
 10
0.147870
 20
-1.833594
  0
VERTEX
  8
1
 62
     7
  6
CONTINUOUS
 10
0.141130
 20
-1.838079
  0
VERTEX
  8
1
 62
     7
  6
CONTINUOUS
 10
0.132425
 20
-1.844988
  0
VERTEX
  8
1
 62
     7
  6
CONTINUOUS
 10
0.121598
 20
-1.852587
  0
VERTEX
  8
1
 62
     7
  6
CONTINUOUS
 10
0.111547
 20
-1.860799
  0
VERTEX
  8
1
 62
     7
  6
CONTINUOUS
 10
0.102752
 20
-1.867783
  0
VERTEX
  8
1
 62
     7
  6
CONTINUOUS
 10
0.095992
 20
-1.872248
  0
VERTEX
  8
1
 62
     7
  6
CONTINUOUS
 10
0.093969
 20
-1.874146
  0
VERTEX
  8
1
 62
     7
  6
CONTINUOUS
 10
0.092598
 20
-1.877925
  0
VERTEX
  8
1
 62
     7
  6
CONTINUOUS
 10
0.088567
 20
-1.888130
  0
VERTEX
  8
1
 62
     7
  6
CONTINUOUS
 10
0.083807
 20
-1.902047
  0
VERTEX
  8
1
 62
     7
  6
CONTINUOUS
 10
0.077811
 20
-1.918465
  0
VERTEX
  8
1
 62
     7
  6
CONTINUOUS
 10
0.072303
 20
-1.934984
  0
VERTEX
  8
1
 62
     7
  6
CONTINUOUS
 10
0.067661
 20
-1.948874
  0
VERTEX
  8
1
 62
     7
  6
CONTINUOUS
 10
0.064232
 20
-1.959114
  0
VERTEX
  8
1
 62
     7
  6
CONTINUOUS
 10
0.062909
 20
-1.962878
  0
VERTEX
  8
1
 62
     7
  6
CONTINUOUS
 10
0.063626
 20
-1.979909
  0
VERTEX
  8
1
 62
     7
  6
CONTINUOUS
 10
0.065598
 20
-2.018555
  0
VERTEX
  8
1
 62
     7
  6
CONTINUOUS
 10
0.067661
 20
-2.056618
  0
VERTEX
  8
1
 62
     7
  6
CONTINUOUS
 10
0.069004
 20
-2.074378
  0
VERTEX
  8
1
 62
     7
  6
CONTINUOUS
 10
0.071669
 20
-2.075000
  0
VERTEX
  8
1
 62
     7
  6
CONTINUOUS
 10
0.080480
 20
-2.076268
  0
VERTEX
  8
1
 62
     7
  6
CONTINUOUS
 10
0.092598
 20
-2.078232
  0
VERTEX
  8
1
 62
     7
  6
CONTINUOUS
 10
0.106059
 20
-2.080051
  0
VERTEX
  8
1
 62
     7
  6
CONTINUOUS
 10
0.120232
 20
-2.082630
  0
VERTEX
  8
1
 62
     7
  6
CONTINUOUS
 10
0.132425
 20
-2.084520
  0
VERTEX
  8
1
 62
     7
  6
CONTINUOUS
 10
0.141130
 20
-2.085783
  0
VERTEX
  8
1
 62
     7
  6
CONTINUOUS
 10
0.144543
 20
-2.086406
  0
VERTEX
  8
1
 62
     7
  6
CONTINUOUS
 10
0.147236
 20
-2.089008
  0
VERTEX
  8
1
 62
     7
  6
CONTINUOUS
 10
0.153976
 20
-2.094661
  0
VERTEX
  8
1
 62
     7
  6
CONTINUOUS
 10
0.164106
 20
-2.103543
  0
VERTEX
  8
1
 62
     7
  6
CONTINUOUS
 10
0.175575
 20
-2.113055
  0
VERTEX
  8
1
 62
     7
  6
CONTINUOUS
 10
0.186957
 20
-2.122559
  0
VERTEX
  8
1
 62
     7
  6
CONTINUOUS
 10
0.197102
 20
-2.131445
  0
VERTEX
  8
1
 62
     7
  6
CONTINUOUS
 10
0.204559
 20
-2.137189
  0
VERTEX
  8
1
 62
     7
  6
CONTINUOUS
 10
0.207276
 20
-2.139697
  0
VERTEX
  8
1
 62
     7
  6
CONTINUOUS
 10
0.211295
 20
-2.140236
  0
VERTEX
  8
1
 62
     7
  6
CONTINUOUS
 10
0.221425
 20
-2.141504
  0
VERTEX
  8
1
 62
     7
  6
CONTINUOUS
 10
0.236220
 20
-2.143488
  0
VERTEX
  8
1
 62
     7
  6
CONTINUOUS
 10
0.253815
 20
-2.145358
  0
VERTEX
  8
1
 62
     7
  6
CONTINUOUS
 10
0.270685
 20
-2.147220
  0
VERTEX
  8
1
 62
     7
  6
CONTINUOUS
 10
0.286110
 20
-2.149205
  0
VERTEX
  8
1
 62
     7
  6
CONTINUOUS
 10
0.296965
 20
-2.150469
  0
SEQEND
  8
0
  0
POLYLINE
  8
1
 62
     7
  6
CONTINUOUS
 66
     1
 40
0.003000
 41
0.003000
  0
VERTEX
  8
1
 62
     7
  6
CONTINUOUS
 10
1.908386
 20
-0.872886
  0
VERTEX
  8
1
 62
     7
  6
CONTINUOUS
 10
1.798039
 20
-0.872886
  0
VERTEX
  8
1
 62
     7
  6
CONTINUOUS
 10
0.549154
 20
-1.322244
  0
VERTEX
  8
1
 62
     7
  6
CONTINUOUS
 10
0.543752
 20
-1.321524
  0
VERTEX
  8
1
 62
     7
  6
CONTINUOUS
 10
0.526906
 20
-1.318374
  0
VERTEX
  8
1
 62
     7
  6
CONTINUOUS
 10
0.501232
 20
-1.313992
  0
VERTEX
  8
1
 62
     7
  6
CONTINUOUS
 10
0.465512
 20
-1.308339
  0
VERTEX
  8
1
 62
     7
  6
CONTINUOUS
 10
0.421760
 20
-1.301339
  0
VERTEX
  8
1
 62
     7
  6
CONTINUOUS
 10
0.369799
 20
-1.292354
  0
VERTEX
  8
1
 62
     7
  6
CONTINUOUS
 10
0.310413
 20
-1.282213
  0
VERTEX
  8
1
 62
     7
  6
CONTINUOUS
 10
0.245004
 20
-1.271445
  0
VERTEX
  8
1
 62
     7
  6
CONTINUOUS
 10
0.174244
 20
-1.260079
  0
VERTEX
  8
1
 62
     7
  6
CONTINUOUS
 10
0.097984
 20
-1.247437
  0
VERTEX
  8
1
 62
     7
  6
CONTINUOUS
 10
0.017772
 20
-1.234142
  0
VERTEX
  8
1
 62
     7
  6
CONTINUOUS
 10
-0.065913
 20
-1.220205
  0
VERTEX
  8
1
 62
     7
  6
CONTINUOUS
 10
-0.152240
 20
-1.205610
  0
VERTEX
  8
1
 62
     7
  6
CONTINUOUS
 10
-0.241224
 20
-1.191079
  0
VERTEX
  8
1
 62
     7
  6
CONTINUOUS
 10
-0.331583
 20
-1.175740
  0
VERTEX
  8
1
 62
     7
  6
CONTINUOUS
 10
-0.422606
 20
-1.160571
  0
VERTEX
  8
1
 62
     7
  6
CONTINUOUS
 10
-0.513689
 20
-1.145327
  0
VERTEX
  8
1
 62
     7
  6
CONTINUOUS
 10
-0.603386
 20
-1.130161
  0
VERTEX
  8
1
 62
     7
  6
CONTINUOUS
 10
-0.692394
 20
-1.115610
  0
VERTEX
  8
1
 62
     7
  6
CONTINUOUS
 10
-0.778693
 20
-1.101008
  0
VERTEX
  8
1
 62
     7
  6
CONTINUOUS
 10
-0.863031
 20
-1.087087
  0
VERTEX
  8
1
 62
     7
  6
CONTINUOUS
 10
-0.943240
 20
-1.073736
  0
VERTEX
  8
1
 62
     7
  6
CONTINUOUS
 10
-1.018744
 20
-1.061075
  0
VERTEX
  8
1
 62
     7
  6
CONTINUOUS
 10
-1.090260
 20
-1.049677
  0
VERTEX
  8
1
 62
     7
  6
CONTINUOUS
 10
-1.155063
 20
-1.038909
  0
VERTEX
  8
1
 62
     7
  6
CONTINUOUS
 10
-1.214335
 20
-1.028772
  0
VERTEX
  8
1
 62
     7
  6
CONTINUOUS
 10
-1.265563
 20
-1.019906
  0
VERTEX
  8
1
 62
     7
  6
CONTINUOUS
 10
-1.310047
 20
-1.013004
  0
VERTEX
  8
1
 62
     7
  6
CONTINUOUS
 10
-1.345201
 20
-1.007236
  0
VERTEX
  8
1
 62
     7
  6
CONTINUOUS
 10
-1.371488
 20
-1.002768
  0
VERTEX
  8
1
 62
     7
  6
CONTINUOUS
 10
-1.387642
 20
-0.999626
  0
VERTEX
  8
1
 62
     7
  6
CONTINUOUS
 10
-1.393043
 20
-0.998988
  0
VERTEX
  8
1
 62
     7
  6
CONTINUOUS
 10
-1.391772
 20
-1.014697
  0
SEQEND
  8
0
  0
POLYLINE
  8
1
 62
     7
  6
CONTINUOUS
 66
     1
 40
0.003000
 41
0.003000
  0
VERTEX
  8
1
 62
     7
  6
CONTINUOUS
 10
-1.341374
 20
-1.114559
  0
VERTEX
  8
1
 62
     7
  6
CONTINUOUS
 10
-1.336520
 20
-1.115610
  0
VERTEX
  8
1
 62
     7
  6
CONTINUOUS
 10
-1.302173
 20
-1.121890
  0
VERTEX
  8
1
 62
     7
  6
CONTINUOUS
 10
-1.259638
 20
-1.130161
  0
VERTEX
  8
1
 62
     7
  6
CONTINUOUS
 10
-1.209752
 20
-1.139051
  0
VERTEX
  8
1
 62
     7
  6
CONTINUOUS
 10
-1.153154
 20
-1.149799
  0
VERTEX
  8
1
 62
     7
  6
CONTINUOUS
 10
-1.090366
 20
-1.161839
  0
VERTEX
  8
1
 62
     7
  6
CONTINUOUS
 10
-1.021634
 20
-1.175185
  0
VERTEX
  8
1
 62
     7
  6
CONTINUOUS
 10
-0.948783
 20
-1.188472
  0
VERTEX
  8
1
 62
     7
  6
CONTINUOUS
 10
-0.871185
 20
-1.203102
  0
VERTEX
  8
1
 62
     7
  6
CONTINUOUS
 10
-0.790244
 20
-1.218984
  0
VERTEX
  8
1
 62
     7
  6
CONTINUOUS
 10
-0.707362
 20
-1.234142
  0
VERTEX
  8
1
 62
     7
  6
CONTINUOUS
 10
-0.621677
 20
-1.250571
  0
VERTEX
  8
1
 62
     7
  6
CONTINUOUS
 10
-0.534661
 20
-1.267059
  0
VERTEX
  8
1
 62
     7
  6
CONTINUOUS
 10
-0.447024
 20
-1.283469
  0
VERTEX
  8
1
 62
     7
  6
CONTINUOUS
 10
-0.359370
 20
-1.300083
  0
VERTEX
  8
1
 62
     7
  6
CONTINUOUS
 10
-0.272350
 20
-1.316480
  0
VERTEX
  8
1
 62
     7
  6
CONTINUOUS
 10
-0.186661
 20
-1.333012
  0
VERTEX
  8
1
 62
     7
  6
CONTINUOUS
 10
-0.103059
 20
-1.348157
  0
VERTEX
  8
1
 62
     7
  6
CONTINUOUS
 10
-0.022874
 20
-1.364008
  0
VERTEX
  8
1
 62
     7
  6
CONTINUOUS
 10
0.054732
 20
-1.378563
  0
VERTEX
  8
1
 62
     7
  6
CONTINUOUS
 10
0.128240
 20
-1.391937
  0
VERTEX
  8
1
 62
     7
  6
CONTINUOUS
 10
0.196291
 20
-1.405134
  0
VERTEX
  8
1
 62
     7
  6
CONTINUOUS
 10
0.259740
 20
-1.417248
  0
VERTEX
  8
1
 62
     7
  6
CONTINUOUS
 10
0.316350
 20
-1.428020
  0
VERTEX
  8
1
 62
     7
  6
CONTINUOUS
 10
0.366217
 20
-1.436886
  0
VERTEX
  8
1
 62
     7
  6
CONTINUOUS
 10
0.408724
 20
-1.445150
  0
VERTEX
  8
1
 62
     7
  6
CONTINUOUS
 10
0.442492
 20
-1.451425
  0
VERTEX
  8
1
 62
     7
  6
CONTINUOUS
 10
0.468142
 20
-1.456626
  0
VERTEX
  8
1
 62
     7
  6
CONTINUOUS
 10
0.483646
 20
-1.459047
  0
VERTEX
  8
1
 62
     7
  6
CONTINUOUS
 10
0.489008
 20
-1.460386
  0
SEQEND
  8
0
  0
POLYLINE
  8
1
 62
     7
  6
CONTINUOUS
 66
     1
 40
0.003000
 41
0.003000
  0
VERTEX
  8
1
 62
     7
  6
CONTINUOUS
 10
0.837669
 20
-0.327323
  0
VERTEX
  8
1
 62
     7
  6
CONTINUOUS
 10
0.731079
 20
-0.392547
  0
VERTEX
  8
1
 62
     7
  6
CONTINUOUS
 10
0.731795
 20
-0.487638
  0
VERTEX
  8
1
 62
     7
  6
CONTINUOUS
 10
0.734488
 20
-0.491402
  0
VERTEX
  8
1
 62
     7
  6
CONTINUOUS
 10
0.741220
 20
-0.500921
  0
VERTEX
  8
1
 62
     7
  6
CONTINUOUS
 10
0.751358
 20
-0.514228
  0
VERTEX
  8
1
 62
     7
  6
CONTINUOUS
 10
0.762843
 20
-0.530087
  0
VERTEX
  8
1
 62
     7
  6
CONTINUOUS
 10
0.774248
 20
-0.545327
  0
VERTEX
  8
1
 62
     7
  6
CONTINUOUS
 10
0.784378
 20
-0.558602
  0
VERTEX
  8
1
 62
     7
  6
CONTINUOUS
 10
0.791815
 20
-0.568016
  0
VERTEX
  8
1
 62
     7
  6
CONTINUOUS
 10
0.794520
 20
-0.571260
  0
VERTEX
  8
1
 62
     7
  6
CONTINUOUS
 10
0.795866
 20
-0.577004
  0
VERTEX
  8
1
 62
     7
  6
CONTINUOUS
 10
0.799157
 20
-0.592169
  0
VERTEX
  8
1
 62
     7
  6
CONTINUOUS
 10
0.803917
 20
-0.613803
  0
VERTEX
  8
1
 62
     7
  6
CONTINUOUS
 10
0.810047
 20
-0.637732
  0
VERTEX
  8
1
 62
     7
  6
CONTINUOUS
 10
0.816126
 20
-0.661858
  0
VERTEX
  8
1
 62
     7
  6
CONTINUOUS
 10
0.821520
 20
-0.682760
  0
VERTEX
  8
1
 62
     7
  6
CONTINUOUS
 10
0.825543
 20
-0.697390
  0
VERTEX
  8
1
 62
     7
  6
CONTINUOUS
 10
0.826898
 20
-0.703118
  0
VERTEX
  8
1
 62
     7
  6
CONTINUOUS
 10
0.823484
 20
-0.706906
  0
VERTEX
  8
1
 62
     7
  6
CONTINUOUS
 10
0.815413
 20
-0.717673
  0
VERTEX
  8
1
 62
     7
  6
CONTINUOUS
 10
0.803917
 20
-0.732197
  0
VERTEX
  8
1
 62
     7
  6
CONTINUOUS
 10
0.791087
 20
-0.748713
  0
VERTEX
  8
1
 62
     7
  6
CONTINUOUS
 10
0.778358
 20
-0.765142
  0
VERTEX
  8
1
 62
     7
  6
CONTINUOUS
 10
0.767496
 20
-0.779768
  0
VERTEX
  8
1
 62
     7
  6
CONTINUOUS
 10
0.759421
 20
-0.789878
  0
VERTEX
  8
1
 62
     7
  6
CONTINUOUS
 10
0.756752
 20
-0.793748
  0
VERTEX
  8
1
 62
     7
  6
CONTINUOUS
 10
0.755378
 20
-0.794287
  0
VERTEX
  8
1
 62
     7
  6
CONTINUOUS
 10
0.751358
 20
-0.795555
  0
VERTEX
  8
1
 62
     7
  6
CONTINUOUS
 10
0.745984
 20
-0.797516
  0
VERTEX
  8
1
 62
     7
  6
CONTINUOUS
 10
0.738528
 20
-0.799394
  0
VERTEX
  8
1
 62
     7
  6
CONTINUOUS
 10
0.729724
 20
-0.802539
  0
VERTEX
  8
1
 62
     7
  6
CONTINUOUS
 10
0.720327
 20
-0.805138
  0
VERTEX
  8
1
 62
     7
  6
CONTINUOUS
 10
0.709555
 20
-0.808886
  0
VERTEX
  8
1
 62
     7
  6
CONTINUOUS
 10
0.698697
 20
-0.812130
  0
VERTEX
  8
1
 62
     7
  6
CONTINUOUS
 10
0.687933
 20
-0.815189
  0
VERTEX
  8
1
 62
     7
  6
CONTINUOUS
 10
0.677882
 20
-0.818409
  0
VERTEX
  8
1
 62
     7
  6
CONTINUOUS
 10
0.668378
 20
-0.821555
  0
VERTEX
  8
1
 62
     7
  6
CONTINUOUS
 10
0.659650
 20
-0.824067
  0
VERTEX
  8
1
 62
     7
  6
CONTINUOUS
 10
0.652193
 20
-0.826035
  0
VERTEX
  8
1
 62
     7
  6
CONTINUOUS
 10
0.646854
 20
-0.827831
  0
VERTEX
  8
1
 62
     7
  6
CONTINUOUS
 10
0.643421
 20
-0.829193
  0
VERTEX
  8
1
 62
     7
  6
CONTINUOUS
 10
0.642079
 20
-0.829193
  0
VERTEX
  8
1
 62
     7
  6
CONTINUOUS
 10
0.640748
 20
-0.829827
  0
VERTEX
  8
1
 62
     7
  6
CONTINUOUS
 10
0.635988
 20
-0.831685
  0
VERTEX
  8
1
 62
     7
  6
CONTINUOUS
 10
0.629276
 20
-0.834843
  0
VERTEX
  8
1
 62
     7
  6
CONTINUOUS
 10
0.621185
 20
-0.838697
  0
VERTEX
  8
1
 62
     7
  6
CONTINUOUS
 10
0.610409
 20
-0.843720
  0
VERTEX
  8
1
 62
     7
  6
CONTINUOUS
 10
0.599543
 20
-0.848732
  0
VERTEX
  8
1
 62
     7
  6
CONTINUOUS
 10
0.587461
 20
-0.853941
  0
VERTEX
  8
1
 62
     7
  6
CONTINUOUS
 10
0.574618
 20
-0.859598
  0
VERTEX
  8
1
 62
     7
  6
CONTINUOUS
 10
0.562524
 20
-0.865346
  0
VERTEX
  8
1
 62
     7
  6
CONTINUOUS
 10
0.550398
 20
-0.871083
  0
VERTEX
  8
1
 62
     7
  6
CONTINUOUS
 10
0.538929
 20
-0.876110
  0
VERTEX
  8
1
 62
     7
  6
CONTINUOUS
 10
0.528787
 20
-0.880496
  0
VERTEX
  8
1
 62
     7
  6
CONTINUOUS
 10
0.520693
 20
-0.884272
  0
VERTEX
  8
1
 62
     7
  6
CONTINUOUS
 10
0.513988
 20
-0.886862
  0
VERTEX
  8
1
 62
     7
  6
CONTINUOUS
 10
0.509925
 20
-0.888744
  0
VERTEX
  8
1
 62
     7
  6
CONTINUOUS
 10
0.508598
 20
-0.889378
  0
VERTEX
  8
1
 62
     7
  6
CONTINUOUS
 10
0.507260
 20
-0.890012
  0
VERTEX
  8
1
 62
     7
  6
CONTINUOUS
 10
0.503850
 20
-0.892512
  0
VERTEX
  8
1
 62
     7
  6
CONTINUOUS
 10
0.498472
 20
-0.895744
  0
VERTEX
  8
1
 62
     7
  6
CONTINUOUS
 10
0.491717
 20
-0.900244
  0
VERTEX
  8
1
 62
     7
  6
CONTINUOUS
 10
0.482925
 20
-0.905256
  0
VERTEX
  8
1
 62
     7
  6
CONTINUOUS
 10
0.474142
 20
-0.910906
  0
VERTEX
  8
1
 62
     7
  6
CONTINUOUS
 10
0.464724
 20
-0.916665
  0
VERTEX
  8
1
 62
     7
  6
CONTINUOUS
 10
0.454594
 20
-0.922925
  0
VERTEX
  8
1
 62
     7
  6
CONTINUOUS
 10
0.444559
 20
-0.928689
  0
VERTEX
  8
1
 62
     7
  6
CONTINUOUS
 10
0.435039
 20
-0.935059
  0
VERTEX
  8
1
 62
     7
  6
CONTINUOUS
 10
0.425602
 20
-0.940791
  0
VERTEX
  8
1
 62
     7
  6
CONTINUOUS
 10
0.417508
 20
-0.945079
  0
VERTEX
  8
1
 62
     7
  6
CONTINUOUS
 10
0.410811
 20
-0.949575
  0
VERTEX
  8
1
 62
     7
  6
CONTINUOUS
 10
0.406043
 20
-0.952709
  0
VERTEX
  8
1
 62
     7
  6
CONTINUOUS
 10
0.402661
 20
-0.954685
  0
VERTEX
  8
1
 62
     7
  6
CONTINUOUS
 10
0.401386
 20
-0.955220
  0
VERTEX
  8
1
 62
     7
  6
CONTINUOUS
 10
0.402028
 20
-0.988236
  0
VERTEX
  8
1
 62
     7
  6
CONTINUOUS
 10
0.403972
 20
-1.060449
  0
VERTEX
  8
1
 62
     7
  6
CONTINUOUS
 10
0.406043
 20
-1.132673
  0
VERTEX
  8
1
 62
     7
  6
CONTINUOUS
 10
0.407394
 20
-1.165059
  0
VERTEX
  8
1
 62
     7
  6
CONTINUOUS
 10
0.402661
 20
-1.164425
  0
VERTEX
  8
1
 62
     7
  6
CONTINUOUS
 10
0.387815
 20
-1.162461
  0
VERTEX
  8
1
 62
     7
  6
CONTINUOUS
 10
0.364236
 20
-1.159303
  0
VERTEX
  8
1
 62
     7
  6
CONTINUOUS
 10
0.332587
 20
-1.154843
  0
VERTEX
  8
1
 62
     7
  6
CONTINUOUS
 10
0.293469
 20
-1.149165
  0
VERTEX
  8
1
 62
     7
  6
CONTINUOUS
 10
0.247618
 20
-1.142898
  0
VERTEX
  8
1
 62
     7
  6
CONTINUOUS
 10
0.194957
 20
-1.135193
  0
VERTEX
  8
1
 62
     7
  6
CONTINUOUS
 10
0.136287
 20
-1.126941
  0
VERTEX
  8
1
 62
     7
  6
CONTINUOUS
 10
0.072941
 20
-1.118157
  0
VERTEX
  8
1
 62
     7
  6
CONTINUOUS
 10
0.005492
 20
-1.108622
  0
VERTEX
  8
1
 62
     7
  6
CONTINUOUS
 10
-0.066024
 20
-1.098484
  0
VERTEX
  8
1
 62
     7
  6
CONTINUOUS
 10
-0.140831
 20
-1.087634
  0
VERTEX
  8
1
 62
     7
  6
CONTINUOUS
 10
-0.218425
 20
-1.076957
  0
VERTEX
  8
1
 62
     7
  6
CONTINUOUS
 10
-0.297295
 20
-1.065488
  0
VERTEX
  8
1
 62
     7
  6
CONTINUOUS
 10
-0.378193
 20
-1.054094
  0
VERTEX
  8
1
 62
     7
  6
CONTINUOUS
 10
-0.459106
 20
-1.042780
  0
VERTEX
  8
1
 62
     7
  6
CONTINUOUS
 10
-0.540043
 20
-1.031295
  0
VERTEX
  8
1
 62
     7
  6
CONTINUOUS
 10
-0.620346
 20
-1.019906
  0
VERTEX
  8
1
 62
     7
  6
CONTINUOUS
 10
-0.699917
 20
-1.008512
  0
VERTEX
  8
1
 62
     7
  6
CONTINUOUS
 10
-0.776803
 20
-0.997744
  0
VERTEX
  8
1
 62
     7
  6
CONTINUOUS
 10
-0.851646
 20
-0.986972
  0
VERTEX
  8
1
 62
     7
  6
CONTINUOUS
 10
-0.923114
 20
-0.976850
  0
VERTEX
  8
1
 62
     7
  6
CONTINUOUS
 10
-0.990602
 20
-0.967339
  0
VERTEX
  8
1
 62
     7
  6
CONTINUOUS
 10
-1.053921
 20
-0.958457
  0
VERTEX
  8
1
 62
     7
  6
CONTINUOUS
 10
-1.112606
 20
-0.950201
  0
VERTEX
  8
1
 62
     7
  6
CONTINUOUS
 10
-1.164543
 20
-0.942571
  0
VERTEX
  8
1
 62
     7
  6
CONTINUOUS
 10
-1.211083
 20
-0.936303
  0
VERTEX
  8
1
 62
     7
  6
CONTINUOUS
 10
-1.250213
 20
-0.930555
  0
VERTEX
  8
1
 62
     7
  6
CONTINUOUS
 10
-1.281886
 20
-0.926063
  0
VERTEX
  8
1
 62
     7
  6
CONTINUOUS
 10
-1.304854
 20
-0.922925
  0
VERTEX
  8
1
 62
     7
  6
CONTINUOUS
 10
-1.319661
 20
-0.920417
  0
VERTEX
  8
1
 62
     7
  6
CONTINUOUS
 10
-1.324437
 20
-0.919791
  0
VERTEX
  8
1
 62
     7
  6
CONTINUOUS
 10
-1.323681
 20
-0.903917
  0
VERTEX
  8
1
 62
     7
  6
CONTINUOUS
 10
-1.321713
 20
-0.869102
  0
VERTEX
  8
1
 62
     7
  6
CONTINUOUS
 10
-1.319661
 20
-0.833579
  0
VERTEX
  8
1
 62
     7
  6
CONTINUOUS
 10
-1.318311
 20
-0.817154
  0
VERTEX
  8
1
 62
     7
  6
CONTINUOUS
 10
-1.316957
 20
-0.814665
  0
VERTEX
  8
1
 62
     7
  6
CONTINUOUS
 10
-1.312913
 20
-0.808201
  0
VERTEX
  8
1
 62
     7
  6
CONTINUOUS
 10
-1.306831
 20
-0.798772
  0
VERTEX
  8
1
 62
     7
  6
CONTINUOUS
 10
-1.299488
 20
-0.788024
  0
VERTEX
  8
1
 62
     7
  6
CONTINUOUS
 10
-1.292657
 20
-0.776610
  0
VERTEX
  8
1
 62
     7
  6
CONTINUOUS
 10
-1.285913
 20
-0.767106
  0
VERTEX
  8
1
 62
     7
  6
CONTINUOUS
 10
-1.281886
 20
-0.760118
  0
VERTEX
  8
1
 62
     7
  6
CONTINUOUS
 10
-1.279898
 20
-0.757598
  0
VERTEX
  8
1
 62
     7
  6
CONTINUOUS
 10
-1.278575
 20
-0.757598
  0
VERTEX
  8
1
 62
     7
  6
CONTINUOUS
 10
-1.275146
 20
-0.756965
  0
VERTEX
  8
1
 62
     7
  6
CONTINUOUS
 10
-1.269055
 20
-0.756331
  0
VERTEX
  8
1
 62
     7
  6
CONTINUOUS
 10
-1.261689
 20
-0.755075
  0
VERTEX
  8
1
 62
     7
  6
CONTINUOUS
 10
-1.252272
 20
-0.753740
  0
VERTEX
  8
1
 62
     7
  6
CONTINUOUS
 10
-1.242134
 20
-0.752492
  0
VERTEX
  8
1
 62
     7
  6
CONTINUOUS
 10
-1.231280
 20
-0.750602
  0
VERTEX
  8
1
 62
     7
  6
CONTINUOUS
 10
-1.220516
 20
-0.748713
  0
VERTEX
  8
1
 62
     7
  6
CONTINUOUS
 10
-1.209118
 20
-0.747457
  0
VERTEX
  8
1
 62
     7
  6
CONTINUOUS
 10
-1.198248
 20
-0.745492
  0
VERTEX
  8
1
 62
     7
  6
CONTINUOUS
 10
-1.188122
 20
-0.743681
  0
VERTEX
  8
1
 62
     7
  6
CONTINUOUS
 10
-1.178705
 20
-0.742441
  0
VERTEX
  8
1
 62
     7
  6
CONTINUOUS
 10
-1.171374
 20
-0.741091
  0
VERTEX
  8
1
 62
     7
  6
CONTINUOUS
 10
-1.165252
 20
-0.740461
  0
VERTEX
  8
1
 62
     7
  6
CONTINUOUS
 10
-1.161232
 20
-0.739827
  0
VERTEX
  8
1
 62
     7
  6
CONTINUOUS
 10
-1.159886
 20
-0.739193
  0
VERTEX
  8
1
 62
     7
  6
CONTINUOUS
 10
-1.158531
 20
-0.738571
  0
VERTEX
  8
1
 62
     7
  6
CONTINUOUS
 10
-1.155114
 20
-0.735980
  0
VERTEX
  8
1
 62
     7
  6
CONTINUOUS
 10
-1.149740
 20
-0.732197
  0
VERTEX
  8
1
 62
     7
  6
CONTINUOUS
 10
-1.142295
 20
-0.727063
  0
VERTEX
  8
1
 62
     7
  6
CONTINUOUS
 10
-1.133587
 20
-0.721520
  0
VERTEX
  8
1
 62
     7
  6
CONTINUOUS
 10
-1.124083
 20
-0.715083
  0
VERTEX
  8
1
 62
     7
  6
CONTINUOUS
 10
-1.114020
 20
-0.708138
  0
VERTEX
  8
1
 62
     7
  6
CONTINUOUS
 10
-1.103173
 20
-0.700520
  0
VERTEX
  8
1
 62
     7
  6
CONTINUOUS
 10
-1.092409
 20
-0.693531
  0
VERTEX
  8
1
 62
     7
  6
CONTINUOUS
 10
-1.082272
 20
-0.686547
  0
VERTEX
  8
1
 62
     7
  6
CONTINUOUS
 10
-1.072850
 20
-0.679563
  0
VERTEX
  8
1
 62
     7
  6
CONTINUOUS
 10
-1.064059
 20
-0.673980
  0
VERTEX
  8
1
 62
     7
  6
CONTINUOUS
 10
-1.056720
 20
-0.668846
  0
VERTEX
  8
1
 62
     7
  6
CONTINUOUS
 10
-1.051323
 20
-0.665000
  0
VERTEX
  8
1
 62
     7
  6
CONTINUOUS
 10
-1.047201
 20
-0.662587
  0
VERTEX
  8
1
 62
     7
  6
CONTINUOUS
 10
-1.045854
 20
-0.661236
  0
VERTEX
  8
1
 62
     7
  6
CONTINUOUS
 10
-1.043161
 20
-0.651094
  0
VERTEX
  8
1
 62
     7
  6
CONTINUOUS
 10
-1.037138
 20
-0.628953
  0
VERTEX
  8
1
 62
     7
  6
CONTINUOUS
 10
-1.030327
 20
-0.606780
  0
VERTEX
  8
1
 62
     7
  6
CONTINUOUS
 10
-1.027004
 20
-0.595921
  0
VERTEX
  8
1
 62
     7
  6
CONTINUOUS
 10
-1.028346
 20
-0.578264
  0
VERTEX
  8
1
 62
     7
  6
CONTINUOUS
 10
-1.030327
 20
-0.539594
  0
VERTEX
  8
1
 62
     7
  6
CONTINUOUS
 10
-1.032398
 20
-0.500287
  0
VERTEX
  8
1
 62
     7
  6
CONTINUOUS
 10
-1.033114
 20
-0.481898
  0
VERTEX
  8
1
 62
     7
  6
CONTINUOUS
 10
-1.034370
 20
-0.478752
  0
VERTEX
  8
1
 62
     7
  6
CONTINUOUS
 10
-1.038476
 20
-0.471130
  0
VERTEX
  8
1
 62
     7
  6
CONTINUOUS
 10
-1.043890
 20
-0.459736
  0
VERTEX
  8
1
 62
     7
  6
CONTINUOUS
 10
-1.049240
 20
-0.446366
  0
VERTEX
  8
1
 62
     7
  6
CONTINUOUS
 10
-1.055299
 20
-0.433083
  0
VERTEX
  8
1
 62
     7
  6
CONTINUOUS
 10
-1.060024
 20
-0.421083
  0
VERTEX
  8
1
 62
     7
  6
CONTINUOUS
 10
-1.063445
 20
-0.412831
  0
VERTEX
  8
1
 62
     7
  6
CONTINUOUS
 10
-1.064791
 20
-0.409665
  0
VERTEX
  8
1
 62
     7
  6
CONTINUOUS
 10
-1.068083
 20
-0.409063
  0
VERTEX
  8
1
 62
     7
  6
CONTINUOUS
 10
-1.076886
 20
-0.407055
  0
VERTEX
  8
1
 62
     7
  6
CONTINUOUS
 10
-1.089106
 20
-0.404567
  0
VERTEX
  8
1
 62
     7
  6
CONTINUOUS
 10
-1.103173
 20
-0.401433
  0
VERTEX
  8
1
 62
     7
  6
CONTINUOUS
 10
-1.117350
 20
-0.398295
  0
VERTEX
  8
1
 62
     7
  6
CONTINUOUS
 10
-1.129465
 20
-0.395071
  0
VERTEX
  8
1
 62
     7
  6
CONTINUOUS
 10
-1.137638
 20
-0.393161
  0
VERTEX
  8
1
 62
     7
  6
CONTINUOUS
 10
-1.140941
 20
-0.391906
  0
SEQEND
  8
0
  0
POLYLINE
  8
1
 62
     7
  6
CONTINUOUS
 66
     1
 40
0.003000
 41
0.003000
  0
VERTEX
  8
1
 62
     7
  6
CONTINUOUS
 10
-1.140941
 20
-0.391906
  0
VERTEX
  8
1
 62
     7
  6
CONTINUOUS
 10
-1.135559
 20
-0.391906
  0
VERTEX
  8
1
 62
     7
  6
CONTINUOUS
 10
-1.120043
 20
-0.392547
  0
VERTEX
  8
1
 62
     7
  6
CONTINUOUS
 10
-1.095110
 20
-0.393795
  0
VERTEX
  8
1
 62
     7
  6
CONTINUOUS
 10
-1.061362
 20
-0.394516
  0
VERTEX
  8
1
 62
     7
  6
CONTINUOUS
 10
-1.019555
 20
-0.396319
  0
VERTEX
  8
1
 62
     7
  6
CONTINUOUS
 10
-0.970319
 20
-0.397563
  0
VERTEX
  8
1
 62
     7
  6
CONTINUOUS
 10
-0.914339
 20
-0.399543
  0
VERTEX
  8
1
 62
     7
  6
CONTINUOUS
 10
-0.851646
 20
-0.401433
  0
VERTEX
  8
1
 62
     7
  6
CONTINUOUS
 10
-0.784244
 20
-0.404028
  0
VERTEX
  8
1
 62
     7
  6
CONTINUOUS
 10
-0.711398
 20
-0.405815
  0
VERTEX
  8
1
 62
     7
  6
CONTINUOUS
 10
-0.635130
 20
-0.408433
  0
VERTEX
  8
1
 62
     7
  6
CONTINUOUS
 10
-0.554949
 20
-0.410921
  0
VERTEX
  8
1
 62
     7
  6
CONTINUOUS
 10
-0.472677
 20
-0.414102
  0
VERTEX
  8
1
 62
     7
  6
CONTINUOUS
 10
-0.387720
 20
-0.416681
  0
VERTEX
  8
1
 62
     7
  6
CONTINUOUS
 10
-0.301339
 20
-0.419193
  0
VERTEX
  8
1
 62
     7
  6
CONTINUOUS
 10
-0.215039
 20
-0.422311
  0
VERTEX
  8
1
 62
     7
  6
CONTINUOUS
 10
-0.127996
 20
-0.424929
  0
VERTEX
  8
1
 62
     7
  6
CONTINUOUS
 10
-0.041693
 20
-0.427984
  0
VERTEX
  8
1
 62
     7
  6
CONTINUOUS
 10
0.042547
 20
-0.430591
  0
VERTEX
  8
1
 62
     7
  6
CONTINUOUS
 10
0.125516
 20
-0.433083
  0
VERTEX
  8
1
 62
     7
  6
CONTINUOUS
 10
0.205083
 20
-0.435591
  0
VERTEX
  8
1
 62
     7
  6
CONTINUOUS
 10
0.281988
 20
-0.438122
  0
VERTEX
  8
1
 62
     7
  6
CONTINUOUS
 10
0.354823
 20
-0.440087
  0
VERTEX
  8
1
 62
     7
  6
CONTINUOUS
 10
0.422220
 20
-0.442575
  0
VERTEX
  8
1
 62
     7
  6
CONTINUOUS
 10
0.484890
 20
-0.444587
  0
VERTEX
  8
1
 62
     7
  6
CONTINUOUS
 10
0.540890
 20
-0.446366
  0
VERTEX
  8
1
 62
     7
  6
CONTINUOUS
 10
0.590142
 20
-0.447630
  0
VERTEX
  8
1
 62
     7
  6
CONTINUOUS
 10
0.632661
 20
-0.448988
  0
VERTEX
  8
1
 62
     7
  6
CONTINUOUS
 10
0.666402
 20
-0.450232
  0
VERTEX
  8
1
 62
     7
  6
CONTINUOUS
 10
0.691339
 20
-0.450843
  0
VERTEX
  8
1
 62
     7
  6
CONTINUOUS
 10
0.706854
 20
-0.451476
  0
VERTEX
  8
1
 62
     7
  6
CONTINUOUS
 10
0.712240
 20
-0.451476
  0
VERTEX
  8
1
 62
     7
  6
CONTINUOUS
 10
0.711520
 20
-0.442575
  0
VERTEX
  8
1
 62
     7
  6
CONTINUOUS
 10
0.711520
 20
-0.422311
  0
VERTEX
  8
1
 62
     7
  6
CONTINUOUS
 10
0.711520
 20
-0.401433
  0
VERTEX
  8
1
 62
     7
  6
CONTINUOUS
 10
0.712240
 20
-0.391906
  0
VERTEX
  8
1
 62
     7
  6
CONTINUOUS
 10
0.708197
 20
-0.391906
  0
VERTEX
  8
1
 62
     7
  6
CONTINUOUS
 10
0.696083
 20
-0.391303
  0
VERTEX
  8
1
 62
     7
  6
CONTINUOUS
 10
0.676429
 20
-0.390673
  0
VERTEX
  8
1
 62
     7
  6
CONTINUOUS
 10
0.650154
 20
-0.389409
  0
VERTEX
  8
1
 62
     7
  6
CONTINUOUS
 10
0.617772
 20
-0.388028
  0
VERTEX
  8
1
 62
     7
  6
CONTINUOUS
 10
0.579370
 20
-0.386890
  0
VERTEX
  8
1
 62
     7
  6
CONTINUOUS
 10
0.536228
 20
-0.384909
  0
VERTEX
  8
1
 62
     7
  6
CONTINUOUS
 10
0.487697
 20
-0.383039
  0
VERTEX
  8
1
 62
     7
  6
CONTINUOUS
 10
0.435039
 20
-0.380535
  0
VERTEX
  8
1
 62
     7
  6
CONTINUOUS
 10
0.379051
 20
-0.378634
  0
VERTEX
  8
1
 62
     7
  6
CONTINUOUS
 10
0.319748
 20
-0.376126
  0
VERTEX
  8
1
 62
     7
  6
CONTINUOUS
 10
0.258362
 20
-0.373520
  0
VERTEX
  8
1
 62
     7
  6
CONTINUOUS
 10
0.194319
 20
-0.370378
  0
VERTEX
  8
1
 62
     7
  6
CONTINUOUS
 10
0.128937
 20
-0.367862
  0
VERTEX
  8
1
 62
     7
  6
CONTINUOUS
 10
0.062087
 20
-0.365260
  0
VERTEX
  8
1
 62
     7
  6
CONTINUOUS
 10
-0.005280
 20
-0.362232
  0
VERTEX
  8
1
 62
     7
  6
CONTINUOUS
 10
-0.072028
 20
-0.359520
  0
VERTEX
  8
1
 62
     7
  6
CONTINUOUS
 10
-0.138858
 20
-0.356476
  0
VERTEX
  8
1
 62
     7
  6
CONTINUOUS
 10
-0.204260
 20
-0.353969
  0
VERTEX
  8
1
 62
     7
  6
CONTINUOUS
 10
-0.268335
 20
-0.351358
  0
VERTEX
  8
1
 62
     7
  6
CONTINUOUS
 10
-0.330398
 20
-0.348850
  0
VERTEX
  8
1
 62
     7
  6
CONTINUOUS
 10
-0.389693
 20
-0.346339
  0
VERTEX
  8
1
 62
     7
  6
CONTINUOUS
 10
-0.445685
 20
-0.343839
  0
VERTEX
  8
1
 62
     7
  6
CONTINUOUS
 10
-0.497630
 20
-0.341319
  0
VERTEX
  8
1
 62
     7
  6
CONTINUOUS
 10
-0.546157
 20
-0.339350
  0
VERTEX
  8
1
 62
     7
  6
CONTINUOUS
 10
-0.589303
 20
-0.337465
  0
VERTEX
  8
1
 62
     7
  6
CONTINUOUS
 10
-0.627795
 20
-0.336213
  0
VERTEX
  8
1
 62
     7
  6
CONTINUOUS
 10
-0.660169
 20
-0.334331
  0
VERTEX
  8
1
 62
     7
  6
CONTINUOUS
 10
-0.686449
 20
-0.333598
  0
VERTEX
  8
1
 62
     7
  6
CONTINUOUS
 10
-0.705315
 20
-0.332346
  0
VERTEX
  8
1
 62
     7
  6
CONTINUOUS
 10
-0.717508
 20
-0.331701
  0
VERTEX
  8
1
 62
     7
  6
CONTINUOUS
 10
-0.721547
 20
-0.331701
  0
VERTEX
  8
1
 62
     7
  6
CONTINUOUS
 10
-0.724866
 20
-0.332346
  0
VERTEX
  8
1
 62
     7
  6
CONTINUOUS
 10
-0.734291
 20
-0.334331
  0
VERTEX
  8
1
 62
     7
  6
CONTINUOUS
 10
-0.748453
 20
-0.337465
  0
VERTEX
  8
1
 62
     7
  6
CONTINUOUS
 10
-0.766665
 20
-0.341319
  0
VERTEX
  8
1
 62
     7
  6
CONTINUOUS
 10
-0.788280
 20
-0.345610
  0
VERTEX
  8
1
 62
     7
  6
CONTINUOUS
 10
-0.812516
 20
-0.350736
  0
VERTEX
  8
1
 62
     7
  6
CONTINUOUS
 10
-0.838165
 20
-0.356476
  0
VERTEX
  8
1
 62
     7
  6
CONTINUOUS
 10
-0.864465
 20
-0.362232
  0
VERTEX
  8
1
 62
     7
  6
CONTINUOUS
 10
-0.891461
 20
-0.367862
  0
VERTEX
  8
1
 62
     7
  6
CONTINUOUS
 10
-0.917110
 20
-0.372902
  0
VERTEX
  8
1
 62
     7
  6
CONTINUOUS
 10
-0.941343
 20
-0.377913
  0
VERTEX
  8
1
 62
     7
  6
CONTINUOUS
 10
-0.962929
 20
-0.382398
  0
VERTEX
  8
1
 62
     7
  6
CONTINUOUS
 10
-0.981169
 20
-0.386173
  0
VERTEX
  8
1
 62
     7
  6
CONTINUOUS
 10
-0.995358
 20
-0.389409
  0
VERTEX
  8
1
 62
     7
  6
CONTINUOUS
 10
-1.004059
 20
-0.391303
  0
VERTEX
  8
1
 62
     7
  6
CONTINUOUS
 10
-1.007437
 20
-0.391906
  0
VERTEX
  8
1
 62
     7
  6
CONTINUOUS
 10
-0.944752
 20
-0.744937
  0
VERTEX
  8
1
 62
     7
  6
CONTINUOUS
 10
-0.947449
 20
-0.746181
  0
VERTEX
  8
1
 62
     7
  6
CONTINUOUS
 10
-0.955508
 20
-0.748713
  0
VERTEX
  8
1
 62
     7
  6
CONTINUOUS
 10
-0.968343
 20
-0.753106
  0
VERTEX
  8
1
 62
     7
  6
CONTINUOUS
 10
-0.984480
 20
-0.758220
  0
VERTEX
  8
1
 62
     7
  6
CONTINUOUS
 10
-1.004059
 20
-0.764571
  0
VERTEX
  8
1
 62
     7
  6
CONTINUOUS
 10
-1.025689
 20
-0.772118
  0
VERTEX
  8
1
 62
     7
  6
CONTINUOUS
 10
-1.048543
 20
-0.779768
  0
VERTEX
  8
1
 62
     7
  6
CONTINUOUS
 10
-1.072126
 20
-0.787280
  0
VERTEX
  8
1
 62
     7
  6
CONTINUOUS
 10
-1.095827
 20
-0.795555
  0
VERTEX
  8
1
 62
     7
  6
CONTINUOUS
 10
-1.118705
 20
-0.803161
  0
VERTEX
  8
1
 62
     7
  6
CONTINUOUS
 10
-1.139598
 20
-0.810157
  0
VERTEX
  8
1
 62
     7
  6
CONTINUOUS
 10
-1.159157
 20
-0.816531
  0
VERTEX
  8
1
 62
     7
  6
CONTINUOUS
 10
-1.175394
 20
-0.821555
  0
VERTEX
  8
1
 62
     7
  6
CONTINUOUS
 10
-1.187512
 20
-0.826035
  0
VERTEX
  8
1
 62
     7
  6
CONTINUOUS
 10
-1.195575
 20
-0.828551
  0
VERTEX
  8
1
 62
     7
  6
CONTINUOUS
 10
-1.198248
 20
-0.829193
  0
VERTEX
  8
1
 62
     7
  6
CONTINUOUS
 10
-1.200335
 20
-0.834303
  0
VERTEX
  8
1
 62
     7
  6
CONTINUOUS
 10
-1.204370
 20
-0.847587
  0
VERTEX
  8
1
 62
     7
  6
CONTINUOUS
 10
-1.210370
 20
-0.865870
  0
VERTEX
  8
1
 62
     7
  6
CONTINUOUS
 10
-1.217843
 20
-0.886862
  0
VERTEX
  8
1
 62
     7
  6
CONTINUOUS
 10
-1.224567
 20
-0.907772
  0
VERTEX
  8
1
 62
     7
  6
CONTINUOUS
 10
-1.230677
 20
-0.926063
  0
VERTEX
  8
1
 62
     7
  6
CONTINUOUS
 10
-1.235425
 20
-0.938819
  0
VERTEX
  8
1
 62
     7
  6
CONTINUOUS
 10
-1.236772
 20
-0.943823
  0
SEQEND
  8
0
  0
POLYLINE
  8
1
 62
     7
  6
CONTINUOUS
 66
     1
 40
0.003000
 41
0.003000
  0
VERTEX
  8
1
 62
     7
  6
CONTINUOUS
 10
-0.964307
 20
-0.741091
  0
VERTEX
  8
1
 62
     7
  6
CONTINUOUS
 10
0.463382
 20
-0.885524
  0
SEQEND
  8
0
  0
POLYLINE
  8
1
 62
     7
  6
CONTINUOUS
 66
     1
 40
0.003000
 41
0.003000
  0
VERTEX
  8
1
 62
     7
  6
CONTINUOUS
 10
1.142413
 20
-0.261386
  0
VERTEX
  8
1
 62
     7
  6
CONTINUOUS
 10
0.717606
 20
-0.225335
  0
VERTEX
  8
1
 62
     7
  6
CONTINUOUS
 10
0.788394
 20
0.206276
  0
VERTEX
  8
1
 62
     7
  6
CONTINUOUS
 10
0.785083
 20
0.207543
  0
VERTEX
  8
1
 62
     7
  6
CONTINUOUS
 10
0.776291
 20
0.210043
  0
VERTEX
  8
1
 62
     7
  6
CONTINUOUS
 10
0.764165
 20
0.213827
  0
VERTEX
  8
1
 62
     7
  6
CONTINUOUS
 10
0.750004
 20
0.218299
  0
VERTEX
  8
1
 62
     7
  6
CONTINUOUS
 10
0.735843
 20
0.222071
  0
VERTEX
  8
1
 62
     7
  6
CONTINUOUS
 10
0.723713
 20
0.225937
  0
VERTEX
  8
1
 62
     7
  6
CONTINUOUS
 10
0.715642
 20
0.228437
  0
VERTEX
  8
1
 62
     7
  6
CONTINUOUS
 10
0.712240
 20
0.229685
  0
VERTEX
  8
1
 62
     7
  6
CONTINUOUS
 10
0.708827
 20
0.208177
  0
VERTEX
  8
1
 62
     7
  6
CONTINUOUS
 10
0.700768
 20
0.152382
  0
VERTEX
  8
1
 62
     7
  6
CONTINUOUS
 10
0.689280
 20
0.072496
  0
VERTEX
  8
1
 62
     7
  6
CONTINUOUS
 10
0.676429
 20
-0.018642
  0
VERTEX
  8
1
 62
     7
  6
CONTINUOUS
 10
0.663709
 20
-0.109976
  0
VERTEX
  8
1
 62
     7
  6
CONTINUOUS
 10
0.652839
 20
-0.189181
  0
VERTEX
  8
1
 62
     7
  6
CONTINUOUS
 10
0.644776
 20
-0.245512
  0
VERTEX
  8
1
 62
     7
  6
CONTINUOUS
 10
0.642079
 20
-0.266512
  0
VERTEX
  8
1
 62
     7
  6
CONTINUOUS
 10
0.645500
 20
-0.264524
  0
VERTEX
  8
1
 62
     7
  6
CONTINUOUS
 10
0.653571
 20
-0.258264
  0
VERTEX
  8
1
 62
     7
  6
CONTINUOUS
 10
0.665681
 20
-0.250008
  0
VERTEX
  8
1
 62
     7
  6
CONTINUOUS
 10
0.679878
 20
-0.240504
  0
VERTEX
  8
1
 62
     7
  6
CONTINUOUS
 10
0.694035
 20
-0.230992
  0
VERTEX
  8
1
 62
     7
  6
CONTINUOUS
 10
0.706142
 20
-0.222118
  0
VERTEX
  8
1
 62
     7
  6
CONTINUOUS
 10
0.714965
 20
-0.216449
  0
VERTEX
  8
1
 62
     7
  6
CONTINUOUS
 10
0.718244
 20
-0.213917
  0
VERTEX
  8
1
 62
     7
  6
CONTINUOUS
 10
0.714965
 20
-0.215728
  0
VERTEX
  8
1
 62
     7
  6
CONTINUOUS
 10
0.706854
 20
-0.221472
  0
VERTEX
  8
1
 62
     7
  6
CONTINUOUS
 10
0.695378
 20
-0.229102
  0
VERTEX
  8
1
 62
     7
  6
CONTINUOUS
 10
0.682555
 20
-0.237346
  0
VERTEX
  8
1
 62
     7
  6
CONTINUOUS
 10
0.669724
 20
-0.246232
  0
VERTEX
  8
1
 62
     7
  6
CONTINUOUS
 10
0.658949
 20
-0.253776
  0
VERTEX
  8
1
 62
     7
  6
CONTINUOUS
 10
0.650890
 20
-0.259520
  0
VERTEX
  8
1
 62
     7
  6
CONTINUOUS
 10
0.648177
 20
-0.261386
  0
VERTEX
  8
1
 62
     7
  6
CONTINUOUS
 10
0.645500
 20
-0.261386
  0
VERTEX
  8
1
 62
     7
  6
CONTINUOUS
 10
0.638035
 20
-0.261386
  0
VERTEX
  8
1
 62
     7
  6
CONTINUOUS
 10
0.625953
 20
-0.262020
  0
VERTEX
  8
1
 62
     7
  6
CONTINUOUS
 10
0.610409
 20
-0.262650
  0
VERTEX
  8
1
 62
     7
  6
CONTINUOUS
 10
0.590142
 20
-0.262650
  0
VERTEX
  8
1
 62
     7
  6
CONTINUOUS
 10
0.566543
 20
-0.263280
  0
VERTEX
  8
1
 62
     7
  6
CONTINUOUS
 10
0.539634
 20
-0.264524
  0
VERTEX
  8
1
 62
     7
  6
CONTINUOUS
 10
0.509925
 20
-0.265256
  0
VERTEX
  8
1
 62
     7
  6
CONTINUOUS
 10
0.477555
 20
-0.265878
  0
VERTEX
  8
1
 62
     7
  6
CONTINUOUS
 10
0.443197
 20
-0.267146
  0
VERTEX
  8
1
 62
     7
  6
CONTINUOUS
 10
0.406760
 20
-0.267677
  0
VERTEX
  8
1
 62
     7
  6
CONTINUOUS
 10
0.368996
 20
-0.269031
  0
VERTEX
  8
1
 62
     7
  6
CONTINUOUS
 10
0.329173
 20
-0.269646
  0
VERTEX
  8
1
 62
     7
  6
CONTINUOUS
 10
0.289343
 20
-0.270906
  0
VERTEX
  8
1
 62
     7
  6
CONTINUOUS
 10
0.248240
 20
-0.272161
  0
VERTEX
  8
1
 62
     7
  6
CONTINUOUS
 10
0.207059
 20
-0.272866
  0
VERTEX
  8
1
 62
     7
  6
CONTINUOUS
 10
0.165996
 20
-0.274134
  0
VERTEX
  8
1
 62
     7
  6
CONTINUOUS
 10
0.124799
 20
-0.275402
  0
VERTEX
  8
1
 62
     7
  6
CONTINUOUS
 10
0.084343
 20
-0.275909
  0
VERTEX
  8
1
 62
     7
  6
CONTINUOUS
 10
0.045228
 20
-0.277173
  0
VERTEX
  8
1
 62
     7
  6
CONTINUOUS
 10
0.006831
 20
-0.278531
  0
VERTEX
  8
1
 62
     7
  6
CONTINUOUS
 10
-0.029602
 20
-0.279146
  0
VERTEX
  8
1
 62
     7
  6
CONTINUOUS
 10
-0.063941
 20
-0.279780
  0
VERTEX
  8
1
 62
     7
  6
CONTINUOUS
 10
-0.095697
 20
-0.281043
  0
VERTEX
  8
1
 62
     7
  6
CONTINUOUS
 10
-0.125417
 20
-0.281665
  0
VERTEX
  8
1
 62
     7
  6
CONTINUOUS
 10
-0.152307
 20
-0.282382
  0
VERTEX
  8
1
 62
     7
  6
CONTINUOUS
 10
-0.175902
 20
-0.282913
  0
VERTEX
  8
1
 62
     7
  6
CONTINUOUS
 10
-0.195457
 20
-0.283638
  0
VERTEX
  8
1
 62
     7
  6
CONTINUOUS
 10
-0.211705
 20
-0.283638
  0
VERTEX
  8
1
 62
     7
  6
CONTINUOUS
 10
-0.223110
 20
-0.284169
  0
VERTEX
  8
1
 62
     7
  6
CONTINUOUS
 10
-0.230547
 20
-0.284169
  0
VERTEX
  8
1
 62
     7
  6
CONTINUOUS
 10
-0.233268
 20
-0.284169
  0
VERTEX
  8
1
 62
     7
  6
CONTINUOUS
 10
-0.235307
 20
-0.282913
  0
VERTEX
  8
1
 62
     7
  6
CONTINUOUS
 10
-0.239323
 20
-0.279780
  0
VERTEX
  8
1
 62
     7
  6
CONTINUOUS
 10
-0.246051
 20
-0.275402
  0
VERTEX
  8
1
 62
     7
  6
CONTINUOUS
 10
-0.252799
 20
-0.270280
  0
VERTEX
  8
1
 62
     7
  6
CONTINUOUS
 10
-0.260240
 20
-0.265256
  0
VERTEX
  8
1
 62
     7
  6
CONTINUOUS
 10
-0.266264
 20
-0.260240
  0
VERTEX
  8
1
 62
     7
  6
CONTINUOUS
 10
-0.270378
 20
-0.257004
  0
VERTEX
  8
1
 62
     7
  6
CONTINUOUS
 10
-0.271709
 20
-0.255740
  0
VERTEX
  8
1
 62
     7
  6
CONTINUOUS
 10
-0.276390
 20
-0.256280
  0
VERTEX
  8
1
 62
     7
  6
CONTINUOUS
 10
-0.289232
 20
-0.258886
  0
VERTEX
  8
1
 62
     7
  6
CONTINUOUS
 10
-0.309480
 20
-0.262650
  0
VERTEX
  8
1
 62
     7
  6
CONTINUOUS
 10
-0.335768
 20
-0.267677
  0
VERTEX
  8
1
 62
     7
  6
CONTINUOUS
 10
-0.366701
 20
-0.273409
  0
VERTEX
  8
1
 62
     7
  6
CONTINUOUS
 10
-0.401189
 20
-0.280409
  0
VERTEX
  8
1
 62
     7
  6
CONTINUOUS
 10
-0.437594
 20
-0.287406
  0
VERTEX
  8
1
 62
     7
  6
CONTINUOUS
 10
-0.475374
 20
-0.294299
  0
VERTEX
  8
1
 62
     7
  6
CONTINUOUS
 10
-0.513772
 20
-0.301303
  0
VERTEX
  8
1
 62
     7
  6
CONTINUOUS
 10
-0.550189
 20
-0.308315
  0
VERTEX
  8
1
 62
     7
  6
CONTINUOUS
 10
-0.584661
 20
-0.315217
  0
VERTEX
  8
1
 62
     7
  6
CONTINUOUS
 10
-0.615594
 20
-0.320957
  0
VERTEX
  8
1
 62
     7
  6
CONTINUOUS
 10
-0.641248
 20
-0.325976
  0
VERTEX
  8
1
 62
     7
  6
CONTINUOUS
 10
-0.661520
 20
-0.329843
  0
VERTEX
  8
1
 62
     7
  6
CONTINUOUS
 10
-0.674283
 20
-0.332346
  0
VERTEX
  8
1
 62
     7
  6
CONTINUOUS
 10
-0.679016
 20
-0.332976
  0
SEQEND
  8
0
  0
POLYLINE
  8
1
 62
     7
  6
CONTINUOUS
 66
     1
 40
0.003000
 41
0.003000
  0
VERTEX
  8
1
 62
     7
  6
CONTINUOUS
 10
-0.266965
 20
-0.249374
  0
VERTEX
  8
1
 62
     7
  6
CONTINUOUS
 10
-0.088972
 20
0.194894
  0
VERTEX
  8
1
 62
     7
  6
CONTINUOUS
 10
0.716886
 20
0.230319
  0
SEQEND
  8
0
  0
POLYLINE
  8
1
 62
     7
  6
CONTINUOUS
 66
     1
 40
0.003000
 41
0.003000
  0
VERTEX
  8
1
 62
     7
  6
CONTINUOUS
 10
-0.074429
 20
-0.852134
  0
VERTEX
  8
1
 62
     7
  6
CONTINUOUS
 10
-0.287181
 20
-0.921232
  0
VERTEX
  8
1
 62
     7
  6
CONTINUOUS
 10
-0.331181
 20
-0.938449
  0
VERTEX
  8
1
 62
     7
  6
CONTINUOUS
 10
-0.367902
 20
-1.031650
  0
SEQEND
  8
0
  0
POLYLINE
  8
1
 62
     7
  6
CONTINUOUS
 66
     1
 40
0.003000
 41
0.003000
  0
VERTEX
  8
1
 62
     7
  6
CONTINUOUS
 10
0.025587
 20
-0.863642
  0
VERTEX
  8
1
 62
     7
  6
CONTINUOUS
 10
-0.187134
 20
-0.932618
  0
VERTEX
  8
1
 62
     7
  6
CONTINUOUS
 10
-0.231177
 20
-0.949917
  0
VERTEX
  8
1
 62
     7
  6
CONTINUOUS
 10
-0.267854
 20
-1.043039
  0
SEQEND
  8
0
  0
POLYLINE
  8
1
 62
     7
  6
CONTINUOUS
 66
     1
 40
0.003000
 41
0.003000
  0
VERTEX
  8
1
 62
     7
  6
CONTINUOUS
 10
-0.258071
 20
-0.067429
  0
VERTEX
  8
1
 62
     7
  6
CONTINUOUS
 10
-0.262126
 20
-0.068776
  0
VERTEX
  8
1
 62
     7
  6
CONTINUOUS
 10
-0.268220
 20
-0.069402
  0
VERTEX
  8
1
 62
     7
  6
CONTINUOUS
 10
-0.276299
 20
-0.071291
  0
VERTEX
  8
1
 62
     7
  6
CONTINUOUS
 10
-0.286429
 20
-0.073189
  0
VERTEX
  8
1
 62
     7
  6
CONTINUOUS
 10
-0.298551
 20
-0.075791
  0
VERTEX
  8
1
 62
     7
  6
CONTINUOUS
 10
-0.312709
 20
-0.078287
  0
VERTEX
  8
1
 62
     7
  6
CONTINUOUS
 10
-0.327524
 20
-0.081445
  0
VERTEX
  8
1
 62
     7
  6
CONTINUOUS
 10
-0.344406
 20
-0.084583
  0
VERTEX
  8
1
 62
     7
  6
CONTINUOUS
 10
-0.361992
 20
-0.087795
  0
VERTEX
  8
1
 62
     7
  6
CONTINUOUS
 10
-0.380803
 20
-0.091571
  0
VERTEX
  8
1
 62
     7
  6
CONTINUOUS
 10
-0.400390
 20
-0.095421
  0
VERTEX
  8
1
 62
     7
  6
CONTINUOUS
 10
-0.420583
 20
-0.099201
  0
VERTEX
  8
1
 62
     7
  6
CONTINUOUS
 10
-0.440846
 20
-0.103665
  0
VERTEX
  8
1
 62
     7
  6
CONTINUOUS
 10
-0.461748
 20
-0.107453
  0
VERTEX
  8
1
 62
     7
  6
CONTINUOUS
 10
-0.483354
 20
-0.111244
  0
VERTEX
  8
1
 62
     7
  6
CONTINUOUS
 10
-0.504154
 20
-0.115610
  0
VERTEX
  8
1
 62
     7
  6
CONTINUOUS
 10
-0.525165
 20
-0.119378
  0
VERTEX
  8
1
 62
     7
  6
CONTINUOUS
 10
-0.546051
 20
-0.123862
  0
VERTEX
  8
1
 62
     7
  6
CONTINUOUS
 10
-0.566268
 20
-0.127626
  0
VERTEX
  8
1
 62
     7
  6
CONTINUOUS
 10
-0.585811
 20
-0.131492
  0
VERTEX
  8
1
 62
     7
  6
CONTINUOUS
 10
-0.603992
 20
-0.135354
  0
VERTEX
  8
1
 62
     7
  6
CONTINUOUS
 10
-0.621618
 20
-0.138496
  0
VERTEX
  8
1
 62
     7
  6
CONTINUOUS
 10
-0.638480
 20
-0.141622
  0
VERTEX
  8
1
 62
     7
  6
CONTINUOUS
 10
-0.653264
 20
-0.144764
  0
VERTEX
  8
1
 62
     7
  6
CONTINUOUS
 10
-0.667433
 20
-0.147280
  0
VERTEX
  8
1
 62
     7
  6
CONTINUOUS
 10
-0.678921
 20
-0.149886
  0
VERTEX
  8
1
 62
     7
  6
CONTINUOUS
 10
-0.689685
 20
-0.151768
  0
VERTEX
  8
1
 62
     7
  6
CONTINUOUS
 10
-0.697783
 20
-0.153744
  0
VERTEX
  8
1
 62
     7
  6
CONTINUOUS
 10
-0.703878
 20
-0.154276
  0
VERTEX
  8
1
 62
     7
  6
CONTINUOUS
 10
-0.707177
 20
-0.155524
  0
VERTEX
  8
1
 62
     7
  6
CONTINUOUS
 10
-0.708555
 20
-0.155524
  0
VERTEX
  8
1
 62
     7
  6
CONTINUOUS
 10
-0.710594
 20
-0.155524
  0
VERTEX
  8
1
 62
     7
  6
CONTINUOUS
 10
-0.715972
 20
-0.156256
  0
VERTEX
  8
1
 62
     7
  6
CONTINUOUS
 10
-0.724059
 20
-0.157500
  0
VERTEX
  8
1
 62
     7
  6
CONTINUOUS
 10
-0.734201
 20
-0.158146
  0
VERTEX
  8
1
 62
     7
  6
CONTINUOUS
 10
-0.747039
 20
-0.159390
  0
VERTEX
  8
1
 62
     7
  6
CONTINUOUS
 10
-0.760484
 20
-0.161272
  0
VERTEX
  8
1
 62
     7
  6
CONTINUOUS
 10
-0.775268
 20
-0.162524
  0
VERTEX
  8
1
 62
     7
  6
CONTINUOUS
 10
-0.790811
 20
-0.164413
  0
VERTEX
  8
1
 62
     7
  6
CONTINUOUS
 10
-0.805697
 20
-0.166394
  0
VERTEX
  8
1
 62
     7
  6
CONTINUOUS
 10
-0.820496
 20
-0.167642
  0
VERTEX
  8
1
 62
     7
  6
CONTINUOUS
 10
-0.834654
 20
-0.169449
  0
VERTEX
  8
1
 62
     7
  6
CONTINUOUS
 10
-0.846776
 20
-0.170874
  0
VERTEX
  8
1
 62
     7
  6
CONTINUOUS
 10
-0.856929
 20
-0.171421
  0
VERTEX
  8
1
 62
     7
  6
CONTINUOUS
 10
-0.864992
 20
-0.172669
  0
VERTEX
  8
1
 62
     7
  6
CONTINUOUS
 10
-0.869744
 20
-0.173295
  0
VERTEX
  8
1
 62
     7
  6
CONTINUOUS
 10
-0.871713
 20
-0.173295
  0
VERTEX
  8
1
 62
     7
  6
CONTINUOUS
 10
-0.873783
 20
-0.173295
  0
VERTEX
  8
1
 62
     7
  6
CONTINUOUS
 10
-0.879886
 20
-0.174650
  0
VERTEX
  8
1
 62
     7
  6
CONTINUOUS
 10
-0.888583
 20
-0.175181
  0
VERTEX
  8
1
 62
     7
  6
CONTINUOUS
 10
-0.900768
 20
-0.177150
  0
VERTEX
  8
1
 62
     7
  6
CONTINUOUS
 10
-0.914240
 20
-0.179031
  0
VERTEX
  8
1
 62
     7
  6
CONTINUOUS
 10
-0.929744
 20
-0.180929
  0
VERTEX
  8
1
 62
     7
  6
CONTINUOUS
 10
-0.946626
 20
-0.182799
  0
VERTEX
  8
1
 62
     7
  6
CONTINUOUS
 10
-0.963496
 20
-0.184768
  0
VERTEX
  8
1
 62
     7
  6
CONTINUOUS
 10
-0.980374
 20
-0.187299
  0
VERTEX
  8
1
 62
     7
  6
CONTINUOUS
 10
-0.996520
 20
-0.189181
  0
VERTEX
  8
1
 62
     7
  6
CONTINUOUS
 10
-1.012035
 20
-0.191071
  0
VERTEX
  8
1
 62
     7
  6
CONTINUOUS
 10
-1.025488
 20
-0.193031
  0
VERTEX
  8
1
 62
     7
  6
CONTINUOUS
 10
-1.037713
 20
-0.194823
  0
VERTEX
  8
1
 62
     7
  6
CONTINUOUS
 10
-1.046398
 20
-0.195555
  0
VERTEX
  8
1
 62
     7
  6
CONTINUOUS
 10
-1.051776
 20
-0.196799
  0
VERTEX
  8
1
 62
     7
  6
CONTINUOUS
 10
-1.053843
 20
-0.196799
  0
VERTEX
  8
1
 62
     7
  6
CONTINUOUS
 10
-1.055189
 20
-0.197425
  0
VERTEX
  8
1
 62
     7
  6
CONTINUOUS
 10
-1.059213
 20
-0.198689
  0
VERTEX
  8
1
 62
     7
  6
CONTINUOUS
 10
-1.065957
 20
-0.201201
  0
VERTEX
  8
1
 62
     7
  6
CONTINUOUS
 10
-1.074106
 20
-0.204413
  0
VERTEX
  8
1
 62
     7
  6
CONTINUOUS
 10
-1.083524
 20
-0.207480
  0
VERTEX
  8
1
 62
     7
  6
CONTINUOUS
 10
-1.094287
 20
-0.211976
  0
VERTEX
  8
1
 62
     7
  6
CONTINUOUS
 10
-1.105079
 20
-0.216449
  0
VERTEX
  8
1
 62
     7
  6
CONTINUOUS
 10
-1.117264
 20
-0.220220
  0
VERTEX
  8
1
 62
     7
  6
CONTINUOUS
 10
-1.128657
 20
-0.224713
  0
VERTEX
  8
1
 62
     7
  6
CONTINUOUS
 10
-1.140130
 20
-0.229102
  0
VERTEX
  8
1
 62
     7
  6
CONTINUOUS
 10
-1.151016
 20
-0.233587
  0
VERTEX
  8
1
 62
     7
  6
CONTINUOUS
 10
-1.159689
 20
-0.236626
  0
VERTEX
  8
1
 62
     7
  6
CONTINUOUS
 10
-1.167783
 20
-0.239878
  0
VERTEX
  8
1
 62
     7
  6
CONTINUOUS
 10
-1.173909
 20
-0.242390
  0
VERTEX
  8
1
 62
     7
  6
CONTINUOUS
 10
-1.177925
 20
-0.243626
  0
VERTEX
  8
1
 62
     7
  6
CONTINUOUS
 10
-1.179248
 20
-0.244260
  0
VERTEX
  8
1
 62
     7
  6
CONTINUOUS
 10
-1.180598
 20
-0.248130
  0
VERTEX
  8
1
 62
     7
  6
CONTINUOUS
 10
-1.183299
 20
-0.258264
  0
VERTEX
  8
1
 62
     7
  6
CONTINUOUS
 10
-1.187445
 20
-0.272161
  0
VERTEX
  8
1
 62
     7
  6
CONTINUOUS
 10
-1.192079
 20
-0.288673
  0
VERTEX
  8
1
 62
     7
  6
CONTINUOUS
 10
-1.196118
 20
-0.305067
  0
VERTEX
  8
1
 62
     7
  6
CONTINUOUS
 10
-1.200138
 20
-0.319071
  0
VERTEX
  8
1
 62
     7
  6
CONTINUOUS
 10
-1.202835
 20
-0.329209
  0
VERTEX
  8
1
 62
     7
  6
CONTINUOUS
 10
-1.203571
 20
-0.332976
  0
VERTEX
  8
1
 62
     7
  6
CONTINUOUS
 10
-1.202835
 20
-0.337465
  0
VERTEX
  8
1
 62
     7
  6
CONTINUOUS
 10
-1.200138
 20
-0.349461
  0
VERTEX
  8
1
 62
     7
  6
CONTINUOUS
 10
-1.196118
 20
-0.366531
  0
VERTEX
  8
1
 62
     7
  6
CONTINUOUS
 10
-1.192079
 20
-0.386173
  0
VERTEX
  8
1
 62
     7
  6
CONTINUOUS
 10
-1.187445
 20
-0.405815
  0
VERTEX
  8
1
 62
     7
  6
CONTINUOUS
 10
-1.183299
 20
-0.422961
  0
VERTEX
  8
1
 62
     7
  6
CONTINUOUS
 10
-1.180598
 20
-0.434961
  0
VERTEX
  8
1
 62
     7
  6
CONTINUOUS
 10
-1.179248
 20
-0.439484
  0
VERTEX
  8
1
 62
     7
  6
CONTINUOUS
 10
-1.182669
 20
-0.455248
  0
VERTEX
  8
1
 62
     7
  6
CONTINUOUS
 10
-1.188713
 20
-0.489512
  0
VERTEX
  8
1
 62
     7
  6
CONTINUOUS
 10
-1.194772
 20
-0.524398
  0
VERTEX
  8
1
 62
     7
  6
CONTINUOUS
 10
-1.197445
 20
-0.540228
  0
VERTEX
  8
1
 62
     7
  6
CONTINUOUS
 10
-1.200866
 20
-0.542717
  0
VERTEX
  8
1
 62
     7
  6
CONTINUOUS
 10
-1.208957
 20
-0.550382
  0
VERTEX
  8
1
 62
     7
  6
CONTINUOUS
 10
-1.219732
 20
-0.561106
  0
VERTEX
  8
1
 62
     7
  6
CONTINUOUS
 10
-1.232559
 20
-0.572524
  0
VERTEX
  8
1
 62
     7
  6
CONTINUOUS
 10
-1.245374
 20
-0.584528
  0
VERTEX
  8
1
 62
     7
  6
CONTINUOUS
 10
-1.256138
 20
-0.595370
  0
VERTEX
  8
1
 62
     7
  6
CONTINUOUS
 10
-1.264201
 20
-0.602913
  0
VERTEX
  8
1
 62
     7
  6
CONTINUOUS
 10
-1.266902
 20
-0.605539
  0
VERTEX
  8
1
 62
     7
  6
CONTINUOUS
 10
-1.268358
 20
-0.606051
  0
VERTEX
  8
1
 62
     7
  6
CONTINUOUS
 10
-1.273028
 20
-0.608043
  0
VERTEX
  8
1
 62
     7
  6
CONTINUOUS
 10
-1.279102
 20
-0.610563
  0
VERTEX
  8
1
 62
     7
  6
CONTINUOUS
 10
-1.287898
 20
-0.613803
  0
VERTEX
  8
1
 62
     7
  6
CONTINUOUS
 10
-1.297945
 20
-0.617571
  0
VERTEX
  8
1
 62
     7
  6
CONTINUOUS
 10
-1.308697
 20
-0.622559
  0
VERTEX
  8
1
 62
     7
  6
CONTINUOUS
 10
-1.320913
 20
-0.627067
  0
VERTEX
  8
1
 62
     7
  6
CONTINUOUS
 10
-1.333035
 20
-0.632079
  0
VERTEX
  8
1
 62
     7
  6
CONTINUOUS
 10
-1.345201
 20
-0.637213
  0
VERTEX
  8
1
 62
     7
  6
CONTINUOUS
 10
-1.357327
 20
-0.641567
  0
VERTEX
  8
1
 62
     7
  6
CONTINUOUS
 10
-1.368083
 20
-0.646713
  0
VERTEX
  8
1
 62
     7
  6
CONTINUOUS
 10
-1.378224
 20
-0.650465
  0
VERTEX
  8
1
 62
     7
  6
CONTINUOUS
 10
-1.386315
 20
-0.653591
  0
VERTEX
  8
1
 62
     7
  6
CONTINUOUS
 10
-1.393043
 20
-0.656122
  0
VERTEX
  8
1
 62
     7
  6
CONTINUOUS
 10
-1.397083
 20
-0.658079
  0
VERTEX
  8
1
 62
     7
  6
CONTINUOUS
 10
-1.398449
 20
-0.658638
  0
VERTEX
  8
1
 62
     7
  6
CONTINUOUS
 10
-1.400500
 20
-0.661236
  0
VERTEX
  8
1
 62
     7
  6
CONTINUOUS
 10
-1.405870
 20
-0.668224
  0
VERTEX
  8
1
 62
     7
  6
CONTINUOUS
 10
-1.412602
 20
-0.677744
  0
VERTEX
  8
1
 62
     7
  6
CONTINUOUS
 10
-1.420673
 20
-0.688508
  0
VERTEX
  8
1
 62
     7
  6
CONTINUOUS
 10
-1.428748
 20
-0.699913
  0
VERTEX
  8
1
 62
     7
  6
CONTINUOUS
 10
-1.435543
 20
-0.709421
  0
VERTEX
  8
1
 62
     7
  6
CONTINUOUS
 10
-1.440957
 20
-0.716417
  0
VERTEX
  8
1
 62
     7
  6
CONTINUOUS
 10
-1.442287
 20
-0.718839
  0
VERTEX
  8
1
 62
     7
  6
CONTINUOUS
 10
-1.441591
 20
-0.758220
  0
VERTEX
  8
1
 62
     7
  6
CONTINUOUS
 10
-1.439594
 20
-0.845677
  0
VERTEX
  8
1
 62
     7
  6
CONTINUOUS
 10
-1.437520
 20
-0.932531
  0
VERTEX
  8
1
 62
     7
  6
CONTINUOUS
 10
-1.436185
 20
-0.972366
  0
VERTEX
  8
1
 62
     7
  6
CONTINUOUS
 10
-1.434858
 20
-0.974335
  0
VERTEX
  8
1
 62
     7
  6
CONTINUOUS
 10
-1.431512
 20
-0.979984
  0
VERTEX
  8
1
 62
     7
  6
CONTINUOUS
 10
-1.426760
 20
-0.987602
  0
VERTEX
  8
1
 62
     7
  6
CONTINUOUS
 10
-1.420673
 20
-0.995858
  0
VERTEX
  8
1
 62
     7
  6
CONTINUOUS
 10
-1.415287
 20
-1.004740
  0
VERTEX
  8
1
 62
     7
  6
CONTINUOUS
 10
-1.409898
 20
-1.012272
  0
VERTEX
  8
1
 62
     7
  6
CONTINUOUS
 10
-1.405870
 20
-1.018024
  0
VERTEX
  8
1
 62
     7
  6
CONTINUOUS
 10
-1.404512
 20
-1.019906
  0
VERTEX
  8
1
 62
     7
  6
CONTINUOUS
 10
-1.403189
 20
-1.032539
  0
VERTEX
  8
1
 62
     7
  6
CONTINUOUS
 10
-1.399114
 20
-1.061075
  0
VERTEX
  8
1
 62
     7
  6
CONTINUOUS
 10
-1.394374
 20
-1.090323
  0
VERTEX
  8
1
 62
     7
  6
CONTINUOUS
 10
-1.392409
 20
-1.102984
  0
VERTEX
  8
1
 62
     7
  6
CONTINUOUS
 10
-1.390988
 20
-1.103508
  0
VERTEX
  8
1
 62
     7
  6
CONTINUOUS
 10
-1.387642
 20
-1.106028
  0
VERTEX
  8
1
 62
     7
  6
CONTINUOUS
 10
-1.382988
 20
-1.109240
  0
VERTEX
  8
1
 62
     7
  6
CONTINUOUS
 10
-1.376173
 20
-1.114280
  0
VERTEX
  8
1
 62
     7
  6
CONTINUOUS
 10
-1.368083
 20
-1.119402
  0
VERTEX
  8
1
 62
     7
  6
CONTINUOUS
 10
-1.358689
 20
-1.125772
  0
VERTEX
  8
1
 62
     7
  6
CONTINUOUS
 10
-1.349256
 20
-1.132122
  0
VERTEX
  8
1
 62
     7
  6
CONTINUOUS
 10
-1.339118
 20
-1.138406
  0
VERTEX
  8
1
 62
     7
  6
CONTINUOUS
 10
-1.328984
 20
-1.145327
  0
VERTEX
  8
1
 62
     7
  6
CONTINUOUS
 10
-1.319567
 20
-1.151772
  0
VERTEX
  8
1
 62
     7
  6
CONTINUOUS
 10
-1.310783
 20
-1.158059
  0
VERTEX
  8
1
 62
     7
  6
CONTINUOUS
 10
-1.301969
 20
-1.163094
  0
VERTEX
  8
1
 62
     7
  6
CONTINUOUS
 10
-1.295260
 20
-1.168193
  0
VERTEX
  8
1
 62
     7
  6
CONTINUOUS
 10
-1.289870
 20
-1.171437
  0
VERTEX
  8
1
 62
     7
  6
CONTINUOUS
 10
-1.286449
 20
-1.173925
  0
VERTEX
  8
1
 62
     7
  6
CONTINUOUS
 10
-1.285130
 20
-1.174504
  0
VERTEX
  8
1
 62
     7
  6
CONTINUOUS
 10
-1.281106
 20
-1.175185
  0
VERTEX
  8
1
 62
     7
  6
CONTINUOUS
 10
-1.268972
 20
-1.178425
  0
VERTEX
  8
1
 62
     7
  6
CONTINUOUS
 10
-1.250106
 20
-1.182083
  0
VERTEX
  8
1
 62
     7
  6
CONTINUOUS
 10
-1.225811
 20
-1.187217
  0
VERTEX
  8
1
 62
     7
  6
CONTINUOUS
 10
-1.196827
 20
-1.193567
  0
VERTEX
  8
1
 62
     7
  6
CONTINUOUS
 10
-1.164429
 20
-1.200591
  0
VERTEX
  8
1
 62
     7
  6
CONTINUOUS
 10
-1.130075
 20
-1.208134
  0
VERTEX
  8
1
 62
     7
  6
CONTINUOUS
 10
-1.094287
 20
-1.215752
  0
VERTEX
  8
1
 62
     7
  6
CONTINUOUS
 10
-1.058598
 20
-1.223280
  0
VERTEX
  8
1
 62
     7
  6
CONTINUOUS
 10
-1.024146
 20
-1.230902
  0
VERTEX
  8
1
 62
     7
  6
CONTINUOUS
 10
-0.991870
 20
-1.237933
  0
VERTEX
  8
1
 62
     7
  6
CONTINUOUS
 10
-0.962760
 20
-1.244185
  0
VERTEX
  8
1
 62
     7
  6
CONTINUOUS
 10
-0.938472
 20
-1.249295
  0
VERTEX
  8
1
 62
     7
  6
CONTINUOUS
 10
-0.919630
 20
-1.253063
  0
VERTEX
  8
1
 62
     7
  6
CONTINUOUS
 10
-0.907524
 20
-1.256327
  0
VERTEX
  8
1
 62
     7
  6
CONTINUOUS
 10
-0.902752
 20
-1.256835
  0
SEQEND
  8
0
  0
POLYLINE
  8
1
 62
     7
  6
CONTINUOUS
 66
     1
 40
0.003000
 41
0.003000
  0
VERTEX
  8
1
 62
     7
  6
CONTINUOUS
 10
-1.391772
 20
-1.014697
  0
VERTEX
  8
1
 62
     7
  6
CONTINUOUS
 10
-1.391685
 20
-1.016138
  0
VERTEX
  8
1
 62
     7
  6
CONTINUOUS
 10
-1.386949
 20
-1.052823
  0
VERTEX
  8
1
 62
     7
  6
CONTINUOUS
 10
-1.384701
 20
-1.073465
  0
SEQEND
  8
0
  0
POLYLINE
  8
1
 62
     7
  6
CONTINUOUS
 66
     1
 40
0.003000
 41
0.003000
  0
VERTEX
  8
1
 62
     7
  6
CONTINUOUS
 10
-1.386846
 20
-1.073465
  0
VERTEX
  8
1
 62
     7
  6
CONTINUOUS
 10
-1.385142
 20
-1.089598
  0
VERTEX
  8
1
 62
     7
  6
CONTINUOUS
 10
-1.382354
 20
-1.106744
  0
VERTEX
  8
1
 62
     7
  6
CONTINUOUS
 10
-1.376980
 20
-1.108012
  0
VERTEX
  8
1
 62
     7
  6
CONTINUOUS
 10
-1.361457
 20
-1.110504
  0
VERTEX
  8
1
 62
     7
  6
CONTINUOUS
 10
-1.341374
 20
-1.114559
  0
SEQEND
  8
0
  0
POLYLINE
  8
1
 62
     7
  6
CONTINUOUS
 66
     1
 40
0.003000
 41
0.003000
  0
VERTEX
  8
1
 62
     7
  6
CONTINUOUS
 10
-0.526591
 20
-1.250571
  0
VERTEX
  8
1
 62
     7
  6
CONTINUOUS
 10
-0.444331
 20
-1.975528
  0
SEQEND
  8
0
  0
POLYLINE
  8
1
 62
     7
  6
CONTINUOUS
 66
     1
 40
0.003000
 41
0.003000
  0
VERTEX
  8
1
 62
     7
  6
CONTINUOUS
 10
-0.865272
 20
-0.756421
  0
VERTEX
  8
1
 62
     7
  6
CONTINUOUS
 10
-1.077984
 20
-0.825425
  0
VERTEX
  8
1
 62
     7
  6
CONTINUOUS
 10
-1.122008
 20
-0.842728
  0
VERTEX
  8
1
 62
     7
  6
CONTINUOUS
 10
-1.158720
 20
-0.935839
  0
SEQEND
  8
0
  0
POLYLINE
  8
1
 62
     7
  6
CONTINUOUS
 66
     1
 40
0.003000
 41
0.003000
  0
VERTEX
  8
1
 62
     7
  6
CONTINUOUS
 10
-0.562110
 20
-0.790075
  0
VERTEX
  8
1
 62
     7
  6
CONTINUOUS
 10
-0.774835
 20
-0.859134
  0
VERTEX
  8
1
 62
     7
  6
CONTINUOUS
 10
-0.818878
 20
-0.876425
  0
VERTEX
  8
1
 62
     7
  6
CONTINUOUS
 10
-0.855567
 20
-0.969598
  0
SEQEND
  8
0
  0
POLYLINE
  8
1
 62
     7
  6
CONTINUOUS
 66
     1
 40
0.003000
 41
0.003000
  0
VERTEX
  8
1
 62
     7
  6
CONTINUOUS
 10
-0.657571
 20
-0.776232
  0
VERTEX
  8
1
 62
     7
  6
CONTINUOUS
 10
-0.870303
 20
-0.845331
  0
VERTEX
  8
1
 62
     7
  6
CONTINUOUS
 10
-0.914339
 20
-0.862642
  0
VERTEX
  8
1
 62
     7
  6
CONTINUOUS
 10
-0.951012
 20
-0.955760
  0
SEQEND
  8
0
  0
POLYLINE
  8
1
 62
     7
  6
CONTINUOUS
 66
     1
 40
0.003000
 41
0.003000
  0
VERTEX
  8
1
 62
     7
  6
CONTINUOUS
 10
-0.774201
 20
-0.759382
  0
VERTEX
  8
1
 62
     7
  6
CONTINUOUS
 10
-0.986898
 20
-0.828472
  0
VERTEX
  8
1
 62
     7
  6
CONTINUOUS
 10
-1.030961
 20
-0.845764
  0
VERTEX
  8
1
 62
     7
  6
CONTINUOUS
 10
-1.067646
 20
-0.938898
  0
SEQEND
  8
0
  0
POLYLINE
  8
1
 62
     7
  6
CONTINUOUS
 66
     1
 40
0.003000
 41
0.003000
  0
VERTEX
  8
1
 62
     7
  6
CONTINUOUS
 10
-0.487134
 20
-0.801559
  0
VERTEX
  8
1
 62
     7
  6
CONTINUOUS
 10
-0.699823
 20
-0.870618
  0
VERTEX
  8
1
 62
     7
  6
CONTINUOUS
 10
-0.743886
 20
-0.887835
  0
VERTEX
  8
1
 62
     7
  6
CONTINUOUS
 10
-0.780575
 20
-0.981067
  0
SEQEND
  8
0
  0
POLYLINE
  8
1
 62
     7
  6
CONTINUOUS
 66
     1
 40
0.003000
 41
0.003000
  0
VERTEX
  8
1
 62
     7
  6
CONTINUOUS
 10
-0.183996
 20
-0.835256
  0
VERTEX
  8
1
 62
     7
  6
CONTINUOUS
 10
-0.396697
 20
-0.904343
  0
VERTEX
  8
1
 62
     7
  6
CONTINUOUS
 10
-0.440713
 20
-0.921571
  0
VERTEX
  8
1
 62
     7
  6
CONTINUOUS
 10
-0.477445
 20
-1.014780
  0
SEQEND
  8
0
  0
POLYLINE
  8
1
 62
     7
  6
CONTINUOUS
 66
     1
 40
0.003000
 41
0.003000
  0
VERTEX
  8
1
 62
     7
  6
CONTINUOUS
 10
-0.279445
 20
-0.821469
  0
VERTEX
  8
1
 62
     7
  6
CONTINUOUS
 10
-0.492122
 20
-0.890535
  0
VERTEX
  8
1
 62
     7
  6
CONTINUOUS
 10
-0.536193
 20
-0.907772
  0
VERTEX
  8
1
 62
     7
  6
CONTINUOUS
 10
-0.572894
 20
-1.000980
  0
SEQEND
  8
0
  0
POLYLINE
  8
1
 62
     7
  6
CONTINUOUS
 66
     1
 40
0.003000
 41
0.003000
  0
VERTEX
  8
1
 62
     7
  6
CONTINUOUS
 10
-0.396063
 20
-0.804591
  0
VERTEX
  8
1
 62
     7
  6
CONTINUOUS
 10
-0.608772
 20
-0.873673
  0
VERTEX
  8
1
 62
     7
  6
CONTINUOUS
 10
-0.652835
 20
-0.890906
  0
VERTEX
  8
1
 62
     7
  6
CONTINUOUS
 10
-0.689520
 20
-0.984106
  0
SEQEND
  8
0
  0
POLYLINE
  8
1
 62
     7
  6
CONTINUOUS
 66
     1
 40
0.003000
 41
0.003000
  0
VERTEX
  8
1
 62
     7
  6
CONTINUOUS
 10
0.558465
 20
-1.310740
  0
VERTEX
  8
1
 62
     7
  6
CONTINUOUS
 10
0.514626
 20
-1.076957
  0
VERTEX
  8
1
 62
     7
  6
CONTINUOUS
 10
0.564594
 20
-0.986972
  0
VERTEX
  8
1
 62
     7
  6
CONTINUOUS
 10
0.659650
 20
-0.914669
  0
VERTEX
  8
1
 62
     7
  6
CONTINUOUS
 10
0.786433
 20
-0.884984
  0
VERTEX
  8
1
 62
     7
  6
CONTINUOUS
 10
0.894268
 20
-0.771500
  0
VERTEX
  8
1
 62
     7
  6
CONTINUOUS
 10
0.938748
 20
-0.668846
  0
VERTEX
  8
1
 62
     7
  6
CONTINUOUS
 10
0.888256
 20
-0.554831
  0
VERTEX
  8
1
 62
     7
  6
CONTINUOUS
 10
0.818106
 20
-0.465476
  0
VERTEX
  8
1
 62
     7
  6
CONTINUOUS
 10
0.818106
 20
-0.339350
  0
VERTEX
  8
1
 62
     7
  6
CONTINUOUS
 10
2.011728
 20
-0.039547
  0
VERTEX
  8
1
 62
     7
  6
CONTINUOUS
 10
2.081157
 20
-0.729685
  0
VERTEX
  8
1
 62
     7
  6
CONTINUOUS
 10
2.081157
 20
-0.567496
  0
VERTEX
  8
1
 62
     7
  6
CONTINUOUS
 10
2.163433
 20
-0.483161
  0
VERTEX
  8
1
 62
     7
  6
CONTINUOUS
 10
2.372539
 20
-0.381150
  0
VERTEX
  8
1
 62
     7
  6
CONTINUOUS
 10
2.798047
 20
-0.273409
  0
VERTEX
  8
1
 62
     7
  6
CONTINUOUS
 10
2.531693
 20
-0.357028
  0
VERTEX
  8
1
 62
     7
  6
CONTINUOUS
 10
2.442705
 20
-0.476886
  0
VERTEX
  8
1
 62
     7
  6
CONTINUOUS
 10
2.386028
 20
-0.644724
  0
VERTEX
  8
1
 62
     7
  6
CONTINUOUS
 10
2.410933
 20
-0.903283
  0
VERTEX
  8
1
 62
     7
  6
CONTINUOUS
 10
2.436602
 20
-1.382433
  0
SEQEND
  8
0
  0
POLYLINE
  8
1
 62
     7
  6
CONTINUOUS
 66
     1
 40
0.003000
 41
0.003000
  0
VERTEX
  8
1
 62
     7
  6
CONTINUOUS
 10
0.296965
 20
-2.150469
  0
VERTEX
  8
1
 62
     7
  6
CONTINUOUS
 10
0.301000
 20
-2.151091
  0
VERTEX
  8
1
 62
     7
  6
CONTINUOUS
 10
0.302346
 20
-2.151091
  0
VERTEX
  8
1
 62
     7
  6
CONTINUOUS
 10
0.305657
 20
-2.151736
  0
VERTEX
  8
1
 62
     7
  6
CONTINUOUS
 10
0.311138
 20
-2.152992
  0
VERTEX
  8
1
 62
     7
  6
CONTINUOUS
 10
0.318492
 20
-2.154224
  0
VERTEX
  8
1
 62
     7
  6
CONTINUOUS
 10
0.326657
 20
-2.155472
  0
VERTEX
  8
1
 62
     7
  6
CONTINUOUS
 10
0.336087
 20
-2.156760
  0
VERTEX
  8
1
 62
     7
  6
CONTINUOUS
 10
0.346232
 20
-2.158630
  0
VERTEX
  8
1
 62
     7
  6
CONTINUOUS
 10
0.356992
 20
-2.160614
  0
VERTEX
  8
1
 62
     7
  6
CONTINUOUS
 10
0.367031
 20
-2.162406
  0
VERTEX
  8
1
 62
     7
  6
CONTINUOUS
 10
0.377165
 20
-2.164366
  0
VERTEX
  8
1
 62
     7
  6
CONTINUOUS
 10
0.387307
 20
-2.165618
  0
VERTEX
  8
1
 62
     7
  6
CONTINUOUS
 10
0.395374
 20
-2.166890
  0
VERTEX
  8
1
 62
     7
  6
CONTINUOUS
 10
0.402831
 20
-2.168146
  0
VERTEX
  8
1
 62
     7
  6
CONTINUOUS
 10
0.408209
 20
-2.169402
  0
VERTEX
  8
1
 62
     7
  6
CONTINUOUS
 10
0.412252
 20
-2.170130
  0
VERTEX
  8
1
 62
     7
  6
CONTINUOUS
 10
0.413606
 20
-2.170130
  0
VERTEX
  8
1
 62
     7
  6
CONTINUOUS
 10
0.417626
 20
-2.171386
  0
VERTEX
  8
1
 62
     7
  6
CONTINUOUS
 10
0.427748
 20
-2.173240
  0
VERTEX
  8
1
 62
     7
  6
CONTINUOUS
 10
0.443291
 20
-2.177020
  0
VERTEX
  8
1
 62
     7
  6
CONTINUOUS
 10
0.460134
 20
-2.180780
  0
VERTEX
  8
1
 62
     7
  6
CONTINUOUS
 10
0.477638
 20
-2.185283
  0
VERTEX
  8
1
 62
     7
  6
CONTINUOUS
 10
0.493157
 20
-2.189047
  0
VERTEX
  8
1
 62
     7
  6
CONTINUOUS
 10
0.504024
 20
-2.191012
  0
VERTEX
  8
1
 62
     7
  6
CONTINUOUS
 10
0.508059
 20
-2.192268
  0
VERTEX
  8
1
 62
     7
  6
CONTINUOUS
 10
0.509394
 20
-2.191646
  0
VERTEX
  8
1
 62
     7
  6
CONTINUOUS
 10
0.512717
 20
-2.190307
  0
VERTEX
  8
1
 62
     7
  6
CONTINUOUS
 10
0.518126
 20
-2.187780
  0
VERTEX
  8
1
 62
     7
  6
CONTINUOUS
 10
0.525551
 20
-2.185283
  0
VERTEX
  8
1
 62
     7
  6
CONTINUOUS
 10
0.533630
 20
-2.181496
  0
VERTEX
  8
1
 62
     7
  6
CONTINUOUS
 10
0.543047
 20
-2.177752
  0
VERTEX
  8
1
 62
     7
  6
CONTINUOUS
 10
0.553197
 20
-2.173240
  0
VERTEX
  8
1
 62
     7
  6
CONTINUOUS
 10
0.563961
 20
-2.168862
  0
VERTEX
  8
1
 62
     7
  6
CONTINUOUS
 10
0.574087
 20
-2.165083
  0
VERTEX
  8
1
 62
     7
  6
CONTINUOUS
 10
0.584224
 20
-2.160614
  0
VERTEX
  8
1
 62
     7
  6
CONTINUOUS
 10
0.594374
 20
-2.156760
  0
VERTEX
  8
1
 62
     7
  6
CONTINUOUS
 10
0.602437
 20
-2.152992
  0
VERTEX
  8
1
 62
     7
  6
CONTINUOUS
 10
0.609878
 20
-2.150469
  0
VERTEX
  8
1
 62
     7
  6
CONTINUOUS
 10
0.615248
 20
-2.147949
  0
VERTEX
  8
1
 62
     7
  6
CONTINUOUS
 10
0.619295
 20
-2.146693
  0
VERTEX
  8
1
 62
     7
  6
CONTINUOUS
 10
0.620642
 20
-2.145976
  0
VERTEX
  8
1
 62
     7
  6
CONTINUOUS
 10
0.624063
 20
-2.143488
  0
VERTEX
  8
1
 62
     7
  6
CONTINUOUS
 10
0.634110
 20
-2.136465
  0
VERTEX
  8
1
 62
     7
  6
CONTINUOUS
 10
0.647654
 20
-2.126969
  0
VERTEX
  8
1
 62
     7
  6
CONTINUOUS
 10
0.663791
 20
-2.116283
  0
VERTEX
  8
1
 62
     7
  6
CONTINUOUS
 10
0.680031
 20
-2.105433
  0
VERTEX
  8
1
 62
     7
  6
CONTINUOUS
 10
0.694122
 20
-2.095917
  0
VERTEX
  8
1
 62
     7
  6
CONTINUOUS
 10
0.704236
 20
-2.089008
  0
VERTEX
  8
1
 62
     7
  6
CONTINUOUS
 10
0.708303
 20
-2.086406
  0
VERTEX
  8
1
 62
     7
  6
CONTINUOUS
 10
0.706949
 20
-2.069996
  0
VERTEX
  8
1
 62
     7
  6
CONTINUOUS
 10
0.704957
 20
-2.033189
  0
VERTEX
  8
1
 62
     7
  6
CONTINUOUS
 10
0.702913
 20
-1.996433
  0
VERTEX
  8
1
 62
     7
  6
CONTINUOUS
 10
0.702201
 20
-1.979909
  0
VERTEX
  8
1
 62
     7
  6
CONTINUOUS
 10
0.699575
 20
-1.976772
  0
VERTEX
  8
1
 62
     7
  6
CONTINUOUS
 10
0.694122
 20
-1.968508
  0
VERTEX
  8
1
 62
     7
  6
CONTINUOUS
 10
0.686059
 20
-1.957134
  0
VERTEX
  8
1
 62
     7
  6
CONTINUOUS
 10
0.676634
 20
-1.943858
  0
VERTEX
  8
1
 62
     7
  6
CONTINUOUS
 10
0.667843
 20
-1.931213
  0
VERTEX
  8
1
 62
     7
  6
CONTINUOUS
 10
0.659736
 20
-1.919740
  0
VERTEX
  8
1
 62
     7
  6
CONTINUOUS
 10
0.654374
 20
-1.911563
  0
VERTEX
  8
1
 62
     7
  6
CONTINUOUS
 10
0.652303
 20
-1.908350
  0
VERTEX
  8
1
 62
     7
  6
CONTINUOUS
 10
0.649000
 20
-1.905185
  0
VERTEX
  8
1
 62
     7
  6
CONTINUOUS
 10
0.640921
 20
-1.897575
  0
VERTEX
  8
1
 62
     7
  6
CONTINUOUS
 10
0.630059
 20
-1.886185
  0
VERTEX
  8
1
 62
     7
  6
CONTINUOUS
 10
0.617303
 20
-1.872882
  0
VERTEX
  8
1
 62
     7
  6
CONTINUOUS
 10
0.604496
 20
-1.860248
  0
VERTEX
  8
1
 62
     7
  6
CONTINUOUS
 10
0.593650
 20
-1.848756
  0
VERTEX
  8
1
 62
     7
  6
CONTINUOUS
 10
0.585571
 20
-1.841142
  0
VERTEX
  8
1
 62
     7
  6
CONTINUOUS
 10
0.582854
 20
-1.838079
  0
VERTEX
  8
1
 62
     7
  6
CONTINUOUS
 10
0.582173
 20
-1.807551
  0
VERTEX
  8
1
 62
     7
  6
CONTINUOUS
 10
0.582173
 20
-1.739854
  0
VERTEX
  8
1
 62
     7
  6
CONTINUOUS
 10
0.582173
 20
-1.672657
  0
VERTEX
  8
1
 62
     7
  6
CONTINUOUS
 10
0.582854
 20
-1.642240
  0
VERTEX
  8
1
 62
     7
  6
CONTINUOUS
 10
0.582173
 20
-1.632102
  0
VERTEX
  8
1
 62
     7
  6
CONTINUOUS
 10
0.582173
 20
-1.609232
  0
VERTEX
  8
1
 62
     7
  6
CONTINUOUS
 10
0.582173
 20
-1.587071
  0
VERTEX
  8
1
 62
     7
  6
CONTINUOUS
 10
0.582854
 20
-1.576941
  0
VERTEX
  8
1
 62
     7
  6
CONTINUOUS
 10
0.584945
 20
-1.575673
  0
VERTEX
  8
1
 62
     7
  6
CONTINUOUS
 10
0.590323
 20
-1.571201
  0
VERTEX
  8
1
 62
     7
  6
CONTINUOUS
 10
0.598398
 20
-1.565535
  0
VERTEX
  8
1
 62
     7
  6
CONTINUOUS
 10
0.607791
 20
-1.558630
  0
VERTEX
  8
1
 62
     7
  6
CONTINUOUS
 10
0.617303
 20
-1.552185
  0
VERTEX
  8
1
 62
     7
  6
CONTINUOUS
 10
0.626020
 20
-1.546528
  0
VERTEX
  8
1
 62
     7
  6
CONTINUOUS
 10
0.631386
 20
-1.542031
  0
VERTEX
  8
1
 62
     7
  6
CONTINUOUS
 10
0.634110
 20
-1.540787
  0
VERTEX
  8
1
 62
     7
  6
CONTINUOUS
 10
0.635469
 20
-1.540787
  0
VERTEX
  8
1
 62
     7
  6
CONTINUOUS
 10
0.639492
 20
-1.540236
  0
VERTEX
  8
1
 62
     7
  6
CONTINUOUS
 10
0.645614
 20
-1.539539
  0
VERTEX
  8
1
 62
     7
  6
CONTINUOUS
 10
0.653035
 20
-1.538272
  0
VERTEX
  8
1
 62
     7
  6
CONTINUOUS
 10
0.662461
 20
-1.537004
  0
VERTEX
  8
1
 62
     7
  6
CONTINUOUS
 10
0.673228
 20
-1.535772
  0
VERTEX
  8
1
 62
     7
  6
CONTINUOUS
 10
0.684705
 20
-1.533882
  0
VERTEX
  8
1
 62
     7
  6
CONTINUOUS
 10
0.696173
 20
-1.532606
  0
VERTEX
  8
1
 62
     7
  6
CONTINUOUS
 10
0.707654
 20
-1.531280
  0
VERTEX
  8
1
 62
     7
  6
CONTINUOUS
 10
0.719071
 20
-1.529382
  0
VERTEX
  8
1
 62
     7
  6
CONTINUOUS
 10
0.729193
 20
-1.528134
  0
VERTEX
  8
1
 62
     7
  6
CONTINUOUS
 10
0.739335
 20
-1.526878
  0
VERTEX
  8
1
 62
     7
  6
CONTINUOUS
 10
0.746768
 20
-1.525626
  0
VERTEX
  8
1
 62
     7
  6
CONTINUOUS
 10
0.753512
 20
-1.524988
  0
VERTEX
  8
1
 62
     7
  6
CONTINUOUS
 10
0.757531
 20
-1.524366
  0
VERTEX
  8
1
 62
     7
  6
CONTINUOUS
 10
0.758886
 20
-1.524366
  0
VERTEX
  8
1
 62
     7
  6
CONTINUOUS
 10
0.760232
 20
-1.524366
  0
VERTEX
  8
1
 62
     7
  6
CONTINUOUS
 10
0.765012
 20
-1.524366
  0
VERTEX
  8
1
 62
     7
  6
CONTINUOUS
 10
0.771717
 20
-1.523713
  0
VERTEX
  8
1
 62
     7
  6
CONTINUOUS
 10
0.781134
 20
-1.523110
  0
VERTEX
  8
1
 62
     7
  6
CONTINUOUS
 10
0.791898
 20
-1.523110
  0
VERTEX
  8
1
 62
     7
  6
CONTINUOUS
 10
0.804118
 20
-1.522394
  0
VERTEX
  8
1
 62
     7
  6
CONTINUOUS
 10
0.816858
 20
-1.521843
  0
VERTEX
  8
1
 62
     7
  6
CONTINUOUS
 10
0.830406
 20
-1.521138
  0
VERTEX
  8
1
 62
     7
  6
CONTINUOUS
 10
0.843854
 20
-1.520622
  0
VERTEX
  8
1
 62
     7
  6
CONTINUOUS
 10
0.857311
 20
-1.519878
  0
VERTEX
  8
1
 62
     7
  6
CONTINUOUS
 10
0.869524
 20
-1.519354
  0
VERTEX
  8
1
 62
     7
  6
CONTINUOUS
 10
0.880299
 20
-1.519354
  0
VERTEX
  8
1
 62
     7
  6
CONTINUOUS
 10
0.889693
 20
-1.518614
  0
VERTEX
  8
1
 62
     7
  6
CONTINUOUS
 10
0.896413
 20
-1.517992
  0
VERTEX
  8
1
 62
     7
  6
CONTINUOUS
 10
0.901181
 20
-1.517992
  0
VERTEX
  8
1
 62
     7
  6
CONTINUOUS
 10
0.903146
 20
-1.517992
  0
VERTEX
  8
1
 62
     7
  6
CONTINUOUS
 10
0.905839
 20
-1.520622
  0
VERTEX
  8
1
 62
     7
  6
CONTINUOUS
 10
0.912661
 20
-1.526244
  0
VERTEX
  8
1
 62
     7
  6
CONTINUOUS
 10
0.922713
 20
-1.534496
  0
VERTEX
  8
1
 62
     7
  6
CONTINUOUS
 10
0.934201
 20
-1.544024
  0
VERTEX
  8
1
 62
     7
  6
CONTINUOUS
 10
0.945669
 20
-1.554142
  0
VERTEX
  8
1
 62
     7
  6
CONTINUOUS
 10
0.955799
 20
-1.562398
  0
VERTEX
  8
1
 62
     7
  6
CONTINUOUS
 10
0.963161
 20
-1.568134
  0
VERTEX
  8
1
 62
     7
  6
CONTINUOUS
 10
0.965846
 20
-1.570567
  0
VERTEX
  8
1
 62
     7
  6
CONTINUOUS
 10
0.967209
 20
-1.582047
  0
VERTEX
  8
1
 62
     7
  6
CONTINUOUS
 10
0.971957
 20
-1.606087
  0
VERTEX
  8
1
 62
     7
  6
CONTINUOUS
 10
0.976008
 20
-1.630850
  0
VERTEX
  8
1
 62
     7
  6
CONTINUOUS
 10
0.978693
 20
-1.642240
  0
VERTEX
  8
1
 62
     7
  6
CONTINUOUS
 10
0.981370
 20
-1.666906
  0
VERTEX
  8
1
 62
     7
  6
CONTINUOUS
 10
0.987480
 20
-1.722094
  0
VERTEX
  8
1
 62
     7
  6
CONTINUOUS
 10
0.993571
 20
-1.777169
  0
VERTEX
  8
1
 62
     7
  6
CONTINUOUS
 10
0.996898
 20
-1.801843
  0
VERTEX
  8
1
 62
     7
  6
CONTINUOUS
 10
0.998957
 20
-1.813248
  0
VERTEX
  8
1
 62
     7
  6
CONTINUOUS
 10
1.004331
 20
-1.843740
  0
VERTEX
  8
1
 62
     7
  6
CONTINUOUS
 10
1.012398
 20
-1.886185
  0
VERTEX
  8
1
 62
     7
  6
CONTINUOUS
 10
1.021843
 20
-1.934984
  0
VERTEX
  8
1
 62
     7
  6
CONTINUOUS
 10
1.031346
 20
-1.984409
  0
VERTEX
  8
1
 62
     7
  6
CONTINUOUS
 10
1.039437
 20
-2.026835
  0
VERTEX
  8
1
 62
     7
  6
CONTINUOUS
 10
1.044799
 20
-2.057327
  0
VERTEX
  8
1
 62
     7
  6
CONTINUOUS
 10
1.047480
 20
-2.068713
  0
VERTEX
  8
1
 62
     7
  6
CONTINUOUS
 10
1.048854
 20
-2.078232
  0
VERTEX
  8
1
 62
     7
  6
CONTINUOUS
 10
1.054240
 20
-2.103543
  0
VERTEX
  8
1
 62
     7
  6
CONTINUOUS
 10
1.060949
 20
-2.139697
  0
VERTEX
  8
1
 62
     7
  6
CONTINUOUS
 10
1.069016
 20
-2.180780
  0
VERTEX
  8
1
 62
     7
  6
CONTINUOUS
 10
1.077197
 20
-2.222681
  0
VERTEX
  8
1
 62
     7
  6
CONTINUOUS
 10
1.083917
 20
-2.258831
  0
VERTEX
  8
1
 62
     7
  6
CONTINUOUS
 10
1.089299
 20
-2.284130
  0
VERTEX
  8
1
 62
     7
  6
CONTINUOUS
 10
1.091370
 20
-2.293650
  0
VERTEX
  8
1
 62
     7
  6
CONTINUOUS
 10
1.122413
 20
-2.370346
  0
VERTEX
  8
1
 62
     7
  6
CONTINUOUS
 10
1.320051
 20
-2.423008
  0
VERTEX
  8
1
 62
     7
  6
CONTINUOUS
 10
1.468161
 20
-2.295094
  0
SEQEND
  8
0
  0
POLYLINE
  8
1
 62
     7
  6
CONTINUOUS
 66
     1
 40
0.003000
 41
0.003000
  0
VERTEX
  8
1
 62
     7
  6
CONTINUOUS
 10
1.321748
 20
-2.422748
  0
VERTEX
  8
1
 62
     7
  6
CONTINUOUS
 10
1.227535
 20
-1.969780
  0
VERTEX
  8
1
 62
     7
  6
CONTINUOUS
 10
1.225484
 20
-1.957134
  0
VERTEX
  8
1
 62
     7
  6
CONTINUOUS
 10
1.221457
 20
-1.924862
  0
VERTEX
  8
1
 62
     7
  6
CONTINUOUS
 10
1.215433
 20
-1.878622
  0
VERTEX
  8
1
 62
     7
  6
CONTINUOUS
 10
1.207988
 20
-1.825980
  0
VERTEX
  8
1
 62
     7
  6
CONTINUOUS
 10
1.201260
 20
-1.773402
  0
VERTEX
  8
1
 62
     7
  6
CONTINUOUS
 10
1.195138
 20
-1.727110
  0
VERTEX
  8
1
 62
     7
  6
CONTINUOUS
 10
1.191118
 20
-1.694815
  0
VERTEX
  8
1
 62
     7
  6
CONTINUOUS
 10
1.189776
 20
-1.682161
  0
VERTEX
  8
1
 62
     7
  6
CONTINUOUS
 10
1.188429
 20
-1.675157
  0
VERTEX
  8
1
 62
     7
  6
CONTINUOUS
 10
1.184378
 20
-1.658016
  0
VERTEX
  8
1
 62
     7
  6
CONTINUOUS
 10
1.179024
 20
-1.632740
  0
VERTEX
  8
1
 62
     7
  6
CONTINUOUS
 10
1.173622
 20
-1.604201
  0
VERTEX
  8
1
 62
     7
  6
CONTINUOUS
 10
1.167543
 20
-1.575673
  0
VERTEX
  8
1
 62
     7
  6
CONTINUOUS
 10
1.162776
 20
-1.550299
  0
VERTEX
  8
1
 62
     7
  6
CONTINUOUS
 10
1.159469
 20
-1.533240
  0
VERTEX
  8
1
 62
     7
  6
CONTINUOUS
 10
1.158118
 20
-1.526244
  0
VERTEX
  8
1
 62
     7
  6
CONTINUOUS
 10
1.156063
 20
-1.523713
  0
VERTEX
  8
1
 62
     7
  6
CONTINUOUS
 10
1.150669
 20
-1.517992
  0
VERTEX
  8
1
 62
     7
  6
CONTINUOUS
 10
1.143209
 20
-1.509118
  0
VERTEX
  8
1
 62
     7
  6
CONTINUOUS
 10
1.135150
 20
-1.498988
  0
VERTEX
  8
1
 62
     7
  6
CONTINUOUS
 10
1.127055
 20
-1.489461
  0
VERTEX
  8
1
 62
     7
  6
CONTINUOUS
 10
1.120343
 20
-1.480594
  0
VERTEX
  8
1
 62
     7
  6
CONTINUOUS
 10
1.115618
 20
-1.474835
  0
VERTEX
  8
1
 62
     7
  6
CONTINUOUS
 10
1.113610
 20
-1.472331
  0
VERTEX
  8
1
 62
     7
  6
CONTINUOUS
 10
1.112264
 20
-1.472331
  0
VERTEX
  8
1
 62
     7
  6
CONTINUOUS
 10
1.107520
 20
-1.471795
  0
VERTEX
  8
1
 62
     7
  6
CONTINUOUS
 10
1.100776
 20
-1.471075
  0
VERTEX
  8
1
 62
     7
  6
CONTINUOUS
 10
1.092717
 20
-1.470528
  0
VERTEX
  8
1
 62
     7
  6
CONTINUOUS
 10
1.082575
 20
-1.469831
  0
VERTEX
  8
1
 62
     7
  6
CONTINUOUS
 10
1.071087
 20
-1.468551
  0
VERTEX
  8
1
 62
     7
  6
CONTINUOUS
 10
1.058976
 20
-1.467295
  0
VERTEX
  8
1
 62
     7
  6
CONTINUOUS
 10
1.046862
 20
-1.466063
  0
VERTEX
  8
1
 62
     7
  6
CONTINUOUS
 10
1.034028
 20
-1.465441
  0
VERTEX
  8
1
 62
     7
  6
CONTINUOUS
 10
1.022567
 20
-1.464173
  0
VERTEX
  8
1
 62
     7
  6
CONTINUOUS
 10
1.011043
 20
-1.462909
  0
VERTEX
  8
1
 62
     7
  6
CONTINUOUS
 10
1.000937
 20
-1.462201
  0
VERTEX
  8
1
 62
     7
  6
CONTINUOUS
 10
0.992862
 20
-1.461654
  0
VERTEX
  8
1
 62
     7
  6
CONTINUOUS
 10
0.986138
 20
-1.460929
  0
VERTEX
  8
1
 62
     7
  6
CONTINUOUS
 10
0.982079
 20
-1.460386
  0
VERTEX
  8
1
 62
     7
  6
CONTINUOUS
 10
0.980748
 20
-1.460386
  0
VERTEX
  8
1
 62
     7
  6
CONTINUOUS
 10
0.979398
 20
-1.460929
  0
VERTEX
  8
1
 62
     7
  6
CONTINUOUS
 10
0.976008
 20
-1.462201
  0
VERTEX
  8
1
 62
     7
  6
CONTINUOUS
 10
0.970602
 20
-1.464807
  0
VERTEX
  8
1
 62
     7
  6
CONTINUOUS
 10
0.963161
 20
-1.467941
  0
VERTEX
  8
1
 62
     7
  6
CONTINUOUS
 10
0.955071
 20
-1.471075
  0
VERTEX
  8
1
 62
     7
  6
CONTINUOUS
 10
0.945669
 20
-1.475555
  0
VERTEX
  8
1
 62
     7
  6
CONTINUOUS
 10
0.936256
 20
-1.480047
  0
VERTEX
  8
1
 62
     7
  6
CONTINUOUS
 10
0.926114
 20
-1.483823
  0
VERTEX
  8
1
 62
     7
  6
CONTINUOUS
 10
0.915984
 20
-1.488193
  0
VERTEX
  8
1
 62
     7
  6
CONTINUOUS
 10
0.905839
 20
-1.492713
  0
VERTEX
  8
1
 62
     7
  6
CONTINUOUS
 10
0.897134
 20
-1.497173
  0
VERTEX
  8
1
 62
     7
  6
CONTINUOUS
 10
0.889059
 20
-1.500232
  0
VERTEX
  8
1
 62
     7
  6
CONTINUOUS
 10
0.881614
 20
-1.503461
  0
VERTEX
  8
1
 62
     7
  6
CONTINUOUS
 10
0.876846
 20
-1.505953
  0
VERTEX
  8
1
 62
     7
  6
CONTINUOUS
 10
0.873457
 20
-1.507228
  0
VERTEX
  8
1
 62
     7
  6
CONTINUOUS
 10
0.872098
 20
-1.507850
  0
VERTEX
  8
1
 62
     7
  6
CONTINUOUS
 10
0.870839
 20
-1.500937
  0
VERTEX
  8
1
 62
     7
  6
CONTINUOUS
 10
0.866717
 20
-1.481850
  0
VERTEX
  8
1
 62
     7
  6
CONTINUOUS
 10
0.861350
 20
-1.454669
  0
VERTEX
  8
1
 62
     7
  6
CONTINUOUS
 10
0.855953
 20
-1.423528
  0
VERTEX
  8
1
 62
     7
  6
CONTINUOUS
 10
0.849933
 20
-1.393193
  0
VERTEX
  8
1
 62
     7
  6
CONTINUOUS
 10
0.845185
 20
-1.365835
  0
VERTEX
  8
1
 62
     7
  6
CONTINUOUS
 10
0.841843
 20
-1.346909
  0
VERTEX
  8
1
 62
     7
  6
CONTINUOUS
 10
0.840421
 20
-1.339906
  0
VERTEX
  8
1
 62
     7
  6
CONTINUOUS
 10
0.843209
 20
-1.338650
  0
VERTEX
  8
1
 62
     7
  6
CONTINUOUS
 10
0.851323
 20
-1.336146
  0
VERTEX
  8
1
 62
     7
  6
CONTINUOUS
 10
0.864028
 20
-1.331028
  0
VERTEX
  8
1
 62
     7
  6
CONTINUOUS
 10
0.882236
 20
-1.324756
  0
VERTEX
  8
1
 62
     7
  6
CONTINUOUS
 10
0.903866
 20
-1.316480
  0
VERTEX
  8
1
 62
     7
  6
CONTINUOUS
 10
0.929441
 20
-1.306996
  0
VERTEX
  8
1
 62
     7
  6
CONTINUOUS
 10
0.959118
 20
-1.295598
  0
VERTEX
  8
1
 62
     7
  6
CONTINUOUS
 10
0.991520
 20
-1.283469
  0
VERTEX
  8
1
 62
     7
  6
CONTINUOUS
 10
1.027323
 20
-1.270839
  0
VERTEX
  8
1
 62
     7
  6
CONTINUOUS
 10
1.065091
 20
-1.256327
  0
VERTEX
  8
1
 62
     7
  6
CONTINUOUS
 10
1.104823
 20
-1.241673
  0
VERTEX
  8
1
 62
     7
  6
CONTINUOUS
 10
1.147346
 20
-1.226524
  0
VERTEX
  8
1
 62
     7
  6
CONTINUOUS
 10
1.190492
 20
-1.210004
  0
VERTEX
  8
1
 62
     7
  6
CONTINUOUS
 10
1.234283
 20
-1.193567
  0
VERTEX
  8
1
 62
     7
  6
CONTINUOUS
 10
1.279484
 20
-1.177063
  0
VERTEX
  8
1
 62
     7
  6
CONTINUOUS
 10
1.325331
 20
-1.159937
  0
VERTEX
  8
1
 62
     7
  6
CONTINUOUS
 10
1.370551
 20
-1.143531
  0
VERTEX
  8
1
 62
     7
  6
CONTINUOUS
 10
1.415681
 20
-1.126941
  0
VERTEX
  8
1
 62
     7
  6
CONTINUOUS
 10
1.460181
 20
-1.110504
  0
VERTEX
  8
1
 62
     7
  6
CONTINUOUS
 10
1.503346
 20
-1.094098
  0
VERTEX
  8
1
 62
     7
  6
CONTINUOUS
 10
1.545217
 20
-1.078835
  0
VERTEX
  8
1
 62
     7
  6
CONTINUOUS
 10
1.584988
 20
-1.064232
  0
VERTEX
  8
1
 62
     7
  6
CONTINUOUS
 10
1.623461
 20
-1.049677
  0
VERTEX
  8
1
 62
     7
  6
CONTINUOUS
 10
1.658543
 20
-1.037035
  0
VERTEX
  8
1
 62
     7
  6
CONTINUOUS
 10
1.691555
 20
-1.024933
  0
VERTEX
  8
1
 62
     7
  6
CONTINUOUS
 10
1.720516
 20
-1.013622
  0
VERTEX
  8
1
 62
     7
  6
CONTINUOUS
 10
1.746815
 20
-1.004016
  0
VERTEX
  8
1
 62
     7
  6
CONTINUOUS
 10
1.768429
 20
-0.995858
  0
VERTEX
  8
1
 62
     7
  6
CONTINUOUS
 10
1.785921
 20
-0.989476
  0
VERTEX
  8
1
 62
     7
  6
CONTINUOUS
 10
1.799461
 20
-0.984374
  0
VERTEX
  8
1
 62
     7
  6
CONTINUOUS
 10
1.807535
 20
-0.981862
  0
VERTEX
  8
1
 62
     7
  6
CONTINUOUS
 10
1.810220
 20
-0.980598
  0
VERTEX
  8
1
 62
     7
  6
CONTINUOUS
 10
1.908717
 20
-0.882827
  0
SEQEND
  8
0
  0
POLYLINE
  8
1
 62
     7
  6
CONTINUOUS
 66
     1
 40
0.003000
 41
0.003000
  0
VERTEX
  8
1
 62
     7
  6
CONTINUOUS
 10
1.908717
 20
-0.882827
  0
VERTEX
  8
1
 62
     7
  6
CONTINUOUS
 10
1.918772
 20
-0.872886
  0
VERTEX
  8
1
 62
     7
  6
CONTINUOUS
 10
1.908386
 20
-0.872886
  0
SEQEND
  8
0
  0
POLYLINE
  8
1
 62
     7
  6
CONTINUOUS
 66
     1
 40
0.003000
 41
0.003000
  0
VERTEX
  8
1
 62
     7
  6
CONTINUOUS
 10
0.132980
 20
-2.089642
  0
VERTEX
  8
1
 62
     7
  6
CONTINUOUS
 10
0.228067
 20
-1.981902
  0
SEQEND
  8
0
  0
POLYLINE
  8
1
 62
     7
  6
CONTINUOUS
 66
     1
 40
0.003000
 41
0.003000
  0
VERTEX
  8
1
 62
     7
  6
CONTINUOUS
 10
0.209122
 20
-2.149839
  0
VERTEX
  8
1
 62
     7
  6
CONTINUOUS
 10
0.342720
 20
-2.024323
  0
SEQEND
  8
0
  0
POLYLINE
  8
1
 62
     7
  6
CONTINUOUS
 66
     1
 40
0.003000
 41
0.003000
  0
VERTEX
  8
1
 62
     7
  6
CONTINUOUS
 10
0.354823
 20
-2.167598
  0
VERTEX
  8
1
 62
     7
  6
CONTINUOUS
 10
0.430980
 20
-2.053476
  0
SEQEND
  8
0
  0
POLYLINE
  8
1
 62
     7
  6
CONTINUOUS
 66
     1
 40
0.003000
 41
0.003000
  0
VERTEX
  8
1
 62
     7
  6
CONTINUOUS
 10
0.158531
 20
-1.874146
  0
VERTEX
  8
1
 62
     7
  6
CONTINUOUS
 10
0.279287
 20
-1.868504
  0
VERTEX
  8
1
 62
     7
  6
CONTINUOUS
 10
0.279287
 20
-1.682161
  0
VERTEX
  8
1
 62
     7
  6
CONTINUOUS
 10
0.234807
 20
-1.406465
  0
SEQEND
  8
0
  0
POLYLINE
  8
1
 62
     7
  6
CONTINUOUS
 66
     1
 40
0.003000
 41
0.003000
  0
VERTEX
  8
1
 62
     7
  6
CONTINUOUS
 10
0.380398
 20
-1.442626
  0
VERTEX
  8
1
 62
     7
  6
CONTINUOUS
 10
0.437724
 20
-1.927425
  0
VERTEX
  8
1
 62
     7
  6
CONTINUOUS
 10
0.475492
 20
-1.914693
  0
VERTEX
  8
1
 62
     7
  6
CONTINUOUS
 10
0.478177
 20
-1.912831
  0
VERTEX
  8
1
 62
     7
  6
CONTINUOUS
 10
0.485638
 20
-1.907780
  0
VERTEX
  8
1
 62
     7
  6
CONTINUOUS
 10
0.495760
 20
-1.900146
  0
VERTEX
  8
1
 62
     7
  6
CONTINUOUS
 10
0.507882
 20
-1.891276
  0
VERTEX
  8
1
 62
     7
  6
CONTINUOUS
 10
0.519370
 20
-1.883020
  0
VERTEX
  8
1
 62
     7
  6
CONTINUOUS
 10
0.529492
 20
-1.875402
  0
VERTEX
  8
1
 62
     7
  6
CONTINUOUS
 10
0.536850
 20
-1.869748
  0
VERTEX
  8
1
 62
     7
  6
CONTINUOUS
 10
0.539634
 20
-1.867783
  0
SEQEND
  8
0
  0
POLYLINE
  8
1
 62
     7
  6
CONTINUOUS
 66
     1
 40
0.003000
 41
0.003000
  0
VERTEX
  8
1
 62
     7
  6
CONTINUOUS
 10
0.799157
 20
-0.621307
  0
VERTEX
  8
1
 62
     7
  6
CONTINUOUS
 10
0.673110
 20
-0.561752
  0
VERTEX
  8
1
 62
     7
  6
CONTINUOUS
 10
0.553075
 20
-0.590909
  0
VERTEX
  8
1
 62
     7
  6
CONTINUOUS
 10
0.551748
 20
-0.594650
  0
VERTEX
  8
1
 62
     7
  6
CONTINUOUS
 10
0.547705
 20
-0.604917
  0
VERTEX
  8
1
 62
     7
  6
CONTINUOUS
 10
0.542945
 20
-0.619441
  0
VERTEX
  8
1
 62
     7
  6
CONTINUOUS
 10
0.536850
 20
-0.635217
  0
VERTEX
  8
1
 62
     7
  6
CONTINUOUS
 10
0.531457
 20
-0.651728
  0
VERTEX
  8
1
 62
     7
  6
CONTINUOUS
 10
0.526811
 20
-0.666256
  0
VERTEX
  8
1
 62
     7
  6
CONTINUOUS
 10
0.523406
 20
-0.675776
  0
VERTEX
  8
1
 62
     7
  6
CONTINUOUS
 10
0.522063
 20
-0.679563
  0
VERTEX
  8
1
 62
     7
  6
CONTINUOUS
 10
0.523406
 20
-0.694165
  0
VERTEX
  8
1
 62
     7
  6
CONTINUOUS
 10
0.527429
 20
-0.725252
  0
VERTEX
  8
1
 62
     7
  6
CONTINUOUS
 10
0.532177
 20
-0.756331
  0
VERTEX
  8
1
 62
     7
  6
CONTINUOUS
 10
0.534181
 20
-0.770331
  0
VERTEX
  8
1
 62
     7
  6
CONTINUOUS
 10
0.537567
 20
-0.774000
  0
VERTEX
  8
1
 62
     7
  6
CONTINUOUS
 10
0.547705
 20
-0.782965
  0
VERTEX
  8
1
 62
     7
  6
CONTINUOUS
 10
0.561791
 20
-0.795555
  0
VERTEX
  8
1
 62
     7
  6
CONTINUOUS
 10
0.578051
 20
-0.809535
  0
VERTEX
  8
1
 62
     7
  6
CONTINUOUS
 10
0.594177
 20
-0.824067
  0
VERTEX
  8
1
 62
     7
  6
CONTINUOUS
 10
0.608339
 20
-0.836791
  0
VERTEX
  8
1
 62
     7
  6
CONTINUOUS
 10
0.618500
 20
-0.845677
  0
VERTEX
  8
1
 62
     7
  6
CONTINUOUS
 10
0.622531
 20
-0.848732
  0
SEQEND
  8
0
  0
POLYLINE
  8
1
 62
     7
  6
CONTINUOUS
 66
     1
 40
0.003000
 41
0.003000
  0
VERTEX
  8
1
 62
     7
  6
CONTINUOUS
 10
0.228697
 20
-0.885906
  0
VERTEX
  8
1
 62
     7
  6
CONTINUOUS
 10
0.015992
 20
-0.954874
  0
VERTEX
  8
1
 62
     7
  6
CONTINUOUS
 10
-0.028055
 20
-0.972173
  0
VERTEX
  8
1
 62
     7
  6
CONTINUOUS
 10
-0.064764
 20
-1.065291
  0
SEQEND
  8
0
  0
POLYLINE
  8
1
 62
     7
  6
CONTINUOUS
 66
     1
 40
0.003000
 41
0.003000
  0
VERTEX
  8
1
 62
     7
  6
CONTINUOUS
 10
0.133248
 20
-0.872055
  0
VERTEX
  8
1
 62
     7
  6
CONTINUOUS
 10
-0.079453
 20
-0.941055
  0
VERTEX
  8
1
 62
     7
  6
CONTINUOUS
 10
-0.123528
 20
-0.958366
  0
VERTEX
  8
1
 62
     7
  6
CONTINUOUS
 10
-0.160217
 20
-1.051484
  0
SEQEND
  8
0
  0
POLYLINE
  8
1
 62
     7
  6
CONTINUOUS
 66
     1
 40
0.003000
 41
0.003000
  0
VERTEX
  8
1
 62
     7
  6
CONTINUOUS
 10
0.302346
 20
-0.902744
  0
VERTEX
  8
1
 62
     7
  6
CONTINUOUS
 10
0.089642
 20
-0.971717
  0
VERTEX
  8
1
 62
     7
  6
CONTINUOUS
 10
0.045594
 20
-0.989043
  0
VERTEX
  8
1
 62
     7
  6
CONTINUOUS
 10
0.008890
 20
-1.082181
  0
SEQEND
  8
0
  0
POLYLINE
  8
1
 62
     7
  6
CONTINUOUS
 66
     1
 40
0.003000
 41
0.003000
  0
VERTEX
  8
1
 62
     7
  6
CONTINUOUS
 10
0.393402
 20
-0.905783
  0
VERTEX
  8
1
 62
     7
  6
CONTINUOUS
 10
0.180697
 20
-0.974787
  0
VERTEX
  8
1
 62
     7
  6
CONTINUOUS
 10
0.136638
 20
-0.992094
  0
VERTEX
  8
1
 62
     7
  6
CONTINUOUS
 10
0.099961
 20
-1.085224
  0
SEQEND
  8
0
  0
POLYLINE
  8
1
 62
     7
  6
CONTINUOUS
 66
     1
 40
0.003000
 41
0.003000
  0
VERTEX
  8
1
 62
     7
  6
CONTINUOUS
 10
0.358783
 20
-0.970217
  0
VERTEX
  8
1
 62
     7
  6
CONTINUOUS
 10
0.251118
 20
-1.003846
  0
VERTEX
  8
1
 62
     7
  6
CONTINUOUS
 10
0.224197
 20
-1.096594
  0
SEQEND
  8
0
  0
POLYLINE
  8
1
 62
     7
  6
CONTINUOUS
 66
     1
 40
0.003000
 41
0.003000
  0
VERTEX
  8
1
 62
     7
  6
CONTINUOUS
 10
0.358783
 20
-1.037579
  0
VERTEX
  8
1
 62
     7
  6
CONTINUOUS
 10
0.340807
 20
-1.105055
  0
SEQEND
  8
0
  0
POLYLINE
  8
1
 62
     7
  6
CONTINUOUS
 66
     1
 40
0.003000
 41
0.003000
  0
VERTEX
  8
1
 62
     7
  6
CONTINUOUS
 10
0.767496
 20
-0.075791
  0
VERTEX
  8
1
 62
     7
  6
CONTINUOUS
 10
1.402126
 20
0.019953
  0
VERTEX
  8
1
 62
     7
  6
CONTINUOUS
 10
1.485028
 20
-0.182189
  0
VERTEX
  8
1
 62
     7
  6
CONTINUOUS
 10
1.489067
 20
-0.181539
  0
VERTEX
  8
1
 62
     7
  6
CONTINUOUS
 10
1.499831
 20
-0.179665
  0
VERTEX
  8
1
 62
     7
  6
CONTINUOUS
 10
1.515354
 20
-0.177150
  0
VERTEX
  8
1
 62
     7
  6
CONTINUOUS
 10
1.532941
 20
-0.173295
  0
VERTEX
  8
1
 62
     7
  6
CONTINUOUS
 10
1.549783
 20
-0.170165
  0
VERTEX
  8
1
 62
     7
  6
CONTINUOUS
 10
1.565327
 20
-0.166929
  0
VERTEX
  8
1
 62
     7
  6
CONTINUOUS
 10
1.576087
 20
-0.165146
  0
VERTEX
  8
1
 62
     7
  6
CONTINUOUS
 10
1.580122
 20
-0.163890
  0
VERTEX
  8
1
 62
     7
  6
CONTINUOUS
 10
1.578783
 20
-0.161272
  0
VERTEX
  8
1
 62
     7
  6
CONTINUOUS
 10
1.574118
 20
-0.153020
  0
VERTEX
  8
1
 62
     7
  6
CONTINUOUS
 10
1.568035
 20
-0.140386
  0
VERTEX
  8
1
 62
     7
  6
CONTINUOUS
 10
1.559205
 20
-0.123862
  0
VERTEX
  8
1
 62
     7
  6
CONTINUOUS
 10
1.549067
 20
-0.104921
  0
VERTEX
  8
1
 62
     7
  6
CONTINUOUS
 10
1.537618
 20
-0.083335
  0
VERTEX
  8
1
 62
     7
  6
CONTINUOUS
 10
1.525476
 20
-0.059882
  0
VERTEX
  8
1
 62
     7
  6
CONTINUOUS
 10
1.513370
 20
-0.035772
  0
VERTEX
  8
1
 62
     7
  6
CONTINUOUS
 10
1.501157
 20
-0.012343
  0
VERTEX
  8
1
 62
     7
  6
CONTINUOUS
 10
1.489067
 20
0.011091
  0
VERTEX
  8
1
 62
     7
  6
CONTINUOUS
 10
1.477673
 20
0.032705
  0
VERTEX
  8
1
 62
     7
  6
CONTINUOUS
 10
1.467531
 20
0.052354
  0
VERTEX
  8
1
 62
     7
  6
CONTINUOUS
 10
1.458744
 20
0.068756
  0
VERTEX
  8
1
 62
     7
  6
CONTINUOUS
 10
1.452638
 20
0.081390
  0
VERTEX
  8
1
 62
     7
  6
CONTINUOUS
 10
1.447984
 20
0.089039
  0
VERTEX
  8
1
 62
     7
  6
CONTINUOUS
 10
1.446634
 20
0.092169
  0
VERTEX
  8
1
 62
     7
  6
CONTINUOUS
 10
1.598323
 20
-0.146020
  0
VERTEX
  8
1
 62
     7
  6
CONTINUOUS
 10
1.601024
 20
-0.146020
  0
VERTEX
  8
1
 62
     7
  6
CONTINUOUS
 10
1.609098
 20
-0.144764
  0
VERTEX
  8
1
 62
     7
  6
CONTINUOUS
 10
1.620575
 20
-0.142898
  0
VERTEX
  8
1
 62
     7
  6
CONTINUOUS
 10
1.633413
 20
-0.140386
  0
VERTEX
  8
1
 62
     7
  6
CONTINUOUS
 10
1.646228
 20
-0.138496
  0
VERTEX
  8
1
 62
     7
  6
CONTINUOUS
 10
1.657618
 20
-0.136606
  0
VERTEX
  8
1
 62
     7
  6
CONTINUOUS
 10
1.665799
 20
-0.134646
  0
VERTEX
  8
1
 62
     7
  6
CONTINUOUS
 10
1.668484
 20
-0.134091
  0
VERTEX
  8
1
 62
     7
  6
CONTINUOUS
 10
1.666409
 20
-0.130244
  0
VERTEX
  8
1
 62
     7
  6
CONTINUOUS
 10
1.660398
 20
-0.119378
  0
VERTEX
  8
1
 62
     7
  6
CONTINUOUS
 10
1.650886
 20
-0.102976
  0
VERTEX
  8
1
 62
     7
  6
CONTINUOUS
 10
1.638783
 20
-0.081445
  0
VERTEX
  8
1
 62
     7
  6
CONTINUOUS
 10
1.624610
 20
-0.055429
  0
VERTEX
  8
1
 62
     7
  6
CONTINUOUS
 10
1.608465
 20
-0.026972
  0
VERTEX
  8
1
 62
     7
  6
CONTINUOUS
 10
1.591575
 20
0.004059
  0
VERTEX
  8
1
 62
     7
  6
CONTINUOUS
 10
1.574118
 20
0.035843
  0
VERTEX
  8
1
 62
     7
  6
CONTINUOUS
 10
1.555811
 20
0.067488
  0
VERTEX
  8
1
 62
     7
  6
CONTINUOUS
 10
1.538917
 20
0.098535
  0
VERTEX
  8
1
 62
     7
  6
CONTINUOUS
 10
1.522795
 20
0.127079
  0
VERTEX
  8
1
 62
     7
  6
CONTINUOUS
 10
1.508606
 20
0.153051
  0
VERTEX
  8
1
 62
     7
  6
CONTINUOUS
 10
1.496504
 20
0.174516
  0
VERTEX
  8
1
 62
     7
  6
CONTINUOUS
 10
1.487079
 20
0.191673
  0
VERTEX
  8
1
 62
     7
  6
CONTINUOUS
 10
1.480980
 20
0.202417
  0
VERTEX
  8
1
 62
     7
  6
CONTINUOUS
 10
1.478992
 20
0.206276
  0
VERTEX
  8
1
 62
     7
  6
CONTINUOUS
 10
1.180181
 20
0.752539
  0
VERTEX
  8
1
 62
     7
  6
CONTINUOUS
 10
1.047331
 20
0.997736
  0
VERTEX
  8
1
 62
     7
  6
CONTINUOUS
 10
0.971169
 20
1.118102
  0
VERTEX
  8
1
 62
     7
  6
CONTINUOUS
 10
0.913201
 20
1.093441
  0
VERTEX
  8
1
 62
     7
  6
CONTINUOUS
 10
0.977264
 20
0.943902
  0
VERTEX
  8
1
 62
     7
  6
CONTINUOUS
 10
1.053409
 20
0.745520
  0
VERTEX
  8
1
 62
     7
  6
CONTINUOUS
 10
1.167441
 20
0.530138
  0
VERTEX
  8
1
 62
     7
  6
CONTINUOUS
 10
1.275280
 20
0.343720
  0
VERTEX
  8
1
 62
     7
  6
CONTINUOUS
 10
1.331957
 20
0.104260
  0
SEQEND
  8
0
  0
POLYLINE
  8
1
 62
     7
  6
CONTINUOUS
 66
     1
 40
0.003000
 41
0.003000
  0
VERTEX
  8
1
 62
     7
  6
CONTINUOUS
 10
0.138988
 20
0.206276
  0
VERTEX
  8
1
 62
     7
  6
CONTINUOUS
 10
1.091197
 20
1.603563
  0
VERTEX
  8
1
 62
     7
  6
CONTINUOUS
 10
1.141780
 20
1.603563
  0
VERTEX
  8
1
 62
     7
  6
CONTINUOUS
 10
1.217953
 20
1.567484
  0
VERTEX
  8
1
 62
     7
  6
CONTINUOUS
 10
1.325882
 20
1.543354
  0
VERTEX
  8
1
 62
     7
  6
CONTINUOUS
 10
1.420976
 20
1.483787
  0
VERTEX
  8
1
 62
     7
  6
CONTINUOUS
 10
1.509965
 20
1.369780
  0
VERTEX
  8
1
 62
     7
  6
CONTINUOUS
 10
1.592319
 20
1.201720
  0
VERTEX
  8
1
 62
     7
  6
CONTINUOUS
 10
1.636819
 20
1.135878
  0
VERTEX
  8
1
 62
     7
  6
CONTINUOUS
 10
1.808083
 20
1.087795
  0
VERTEX
  8
1
 62
     7
  6
CONTINUOUS
 10
1.985441
 20
1.063665
  0
VERTEX
  8
1
 62
     7
  6
CONTINUOUS
 10
2.157402
 20
1.021854
  0
VERTEX
  8
1
 62
     7
  6
CONTINUOUS
 10
2.303713
 20
0.961669
  0
VERTEX
  8
1
 62
     7
  6
CONTINUOUS
 10
2.366445
 20
0.872307
  0
VERTEX
  8
1
 62
     7
  6
CONTINUOUS
 10
2.398118
 20
0.734157
  0
VERTEX
  8
1
 62
     7
  6
CONTINUOUS
 10
2.340776
 20
0.632134
  0
VERTEX
  8
1
 62
     7
  6
CONTINUOUS
 10
2.226882
 20
0.506000
  0
VERTEX
  8
1
 62
     7
  6
CONTINUOUS
 10
2.080551
 20
0.421665
  0
VERTEX
  8
1
 62
     7
  6
CONTINUOUS
 10
1.973236
 20
0.362102
  0
VERTEX
  8
1
 62
     7
  6
CONTINUOUS
 10
1.820917
 20
0.290531
  0
VERTEX
  8
1
 62
     7
  6
CONTINUOUS
 10
1.522193
 20
0.147957
  0
VERTEX
  8
1
 62
     7
  6
CONTINUOUS
 10
1.523496
 20
0.147957
  0
VERTEX
  8
1
 62
     7
  6
CONTINUOUS
 10
1.528173
 20
0.148591
  0
VERTEX
  8
1
 62
     7
  6
CONTINUOUS
 10
1.534980
 20
0.149224
  0
VERTEX
  8
1
 62
     7
  6
CONTINUOUS
 10
1.544413
 20
0.149858
  0
VERTEX
  8
1
 62
     7
  6
CONTINUOUS
 10
1.556520
 20
0.151114
  0
VERTEX
  8
1
 62
     7
  6
CONTINUOUS
 10
1.569980
 20
0.152382
  0
VERTEX
  8
1
 62
     7
  6
CONTINUOUS
 10
1.586228
 20
0.153630
  0
VERTEX
  8
1
 62
     7
  6
CONTINUOUS
 10
1.603713
 20
0.154874
  0
VERTEX
  8
1
 62
     7
  6
CONTINUOUS
 10
1.622638
 20
0.156843
  0
VERTEX
  8
1
 62
     7
  6
CONTINUOUS
 10
1.642819
 20
0.158807
  0
VERTEX
  8
1
 62
     7
  6
CONTINUOUS
 10
1.664465
 20
0.160606
  0
VERTEX
  8
1
 62
     7
  6
CONTINUOUS
 10
1.686689
 20
0.162598
  0
VERTEX
  8
1
 62
     7
  6
CONTINUOUS
 10
1.710287
 20
0.165094
  0
VERTEX
  8
1
 62
     7
  6
CONTINUOUS
 10
1.733894
 20
0.166984
  0
VERTEX
  8
1
 62
     7
  6
CONTINUOUS
 10
1.758114
 20
0.169516
  0
VERTEX
  8
1
 62
     7
  6
CONTINUOUS
 10
1.782425
 20
0.171445
  0
VERTEX
  8
1
 62
     7
  6
CONTINUOUS
 10
1.806709
 20
0.173969
  0
VERTEX
  8
1
 62
     7
  6
CONTINUOUS
 10
1.831020
 20
0.175791
  0
VERTEX
  8
1
 62
     7
  6
CONTINUOUS
 10
1.854638
 20
0.178378
  0
VERTEX
  8
1
 62
     7
  6
CONTINUOUS
 10
1.878236
 20
0.180291
  0
VERTEX
  8
1
 62
     7
  6
CONTINUOUS
 10
1.900484
 20
0.182780
  0
VERTEX
  8
1
 62
     7
  6
CONTINUOUS
 10
1.922008
 20
0.184744
  0
VERTEX
  8
1
 62
     7
  6
CONTINUOUS
 10
1.942303
 20
0.186642
  0
VERTEX
  8
1
 62
     7
  6
CONTINUOUS
 10
1.961126
 20
0.188528
  0
VERTEX
  8
1
 62
     7
  6
CONTINUOUS
 10
1.978709
 20
0.189783
  0
VERTEX
  8
1
 62
     7
  6
CONTINUOUS
 10
1.994862
 20
0.191673
  0
VERTEX
  8
1
 62
     7
  6
CONTINUOUS
 10
2.008390
 20
0.192909
  0
VERTEX
  8
1
 62
     7
  6
CONTINUOUS
 10
2.020512
 20
0.193626
  0
VERTEX
  8
1
 62
     7
  6
CONTINUOUS
 10
2.029937
 20
0.194894
  0
VERTEX
  8
1
 62
     7
  6
CONTINUOUS
 10
2.036646
 20
0.195441
  0
VERTEX
  8
1
 62
     7
  6
CONTINUOUS
 10
2.041406
 20
0.196138
  0
VERTEX
  8
1
 62
     7
  6
CONTINUOUS
 10
2.042768
 20
0.196138
  0
VERTEX
  8
1
 62
     7
  6
CONTINUOUS
 10
2.044114
 20
0.196138
  0
VERTEX
  8
1
 62
     7
  6
CONTINUOUS
 10
2.049492
 20
0.196685
  0
VERTEX
  8
1
 62
     7
  6
CONTINUOUS
 10
2.056921
 20
0.197417
  0
VERTEX
  8
1
 62
     7
  6
CONTINUOUS
 10
2.066976
 20
0.198661
  0
VERTEX
  8
1
 62
     7
  6
CONTINUOUS
 10
2.080551
 20
0.200622
  0
VERTEX
  8
1
 62
     7
  6
CONTINUOUS
 10
2.095331
 20
0.202417
  0
VERTEX
  8
1
 62
     7
  6
CONTINUOUS
 10
2.112933
 20
0.204402
  0
VERTEX
  8
1
 62
     7
  6
CONTINUOUS
 10
2.131760
 20
0.206933
  0
VERTEX
  8
1
 62
     7
  6
CONTINUOUS
 10
2.152673
 20
0.209433
  0
VERTEX
  8
1
 62
     7
  6
CONTINUOUS
 10
2.174898
 20
0.212020
  0
VERTEX
  8
1
 62
     7
  6
CONTINUOUS
 10
2.198508
 20
0.215067
  0
VERTEX
  8
1
 62
     7
  6
CONTINUOUS
 10
2.223433
 20
0.217681
  0
VERTEX
  8
1
 62
     7
  6
CONTINUOUS
 10
2.249102
 20
0.220815
  0
VERTEX
  8
1
 62
     7
  6
CONTINUOUS
 10
2.275394
 20
0.224059
  0
VERTEX
  8
1
 62
     7
  6
CONTINUOUS
 10
2.301693
 20
0.227193
  0
VERTEX
  8
1
 62
     7
  6
CONTINUOUS
 10
2.328677
 20
0.230953
  0
VERTEX
  8
1
 62
     7
  6
CONTINUOUS
 10
2.354972
 20
0.234193
  0
VERTEX
  8
1
 62
     7
  6
CONTINUOUS
 10
2.381236
 20
0.237240
  0
VERTEX
  8
1
 62
     7
  6
CONTINUOUS
 10
2.407535
 20
0.240469
  0
VERTEX
  8
1
 62
     7
  6
CONTINUOUS
 10
2.433185
 20
0.243720
  0
VERTEX
  8
1
 62
     7
  6
CONTINUOUS
 10
2.458122
 20
0.246843
  0
VERTEX
  8
1
 62
     7
  6
CONTINUOUS
 10
2.481732
 20
0.249343
  0
VERTEX
  8
1
 62
     7
  6
CONTINUOUS
 10
2.504067
 20
0.252567
  0
VERTEX
  8
1
 62
     7
  6
CONTINUOUS
 10
2.524996
 20
0.255083
  0
VERTEX
  8
1
 62
     7
  6
CONTINUOUS
 10
2.543803
 20
0.256980
  0
VERTEX
  8
1
 62
     7
  6
CONTINUOUS
 10
2.561378
 20
0.259579
  0
VERTEX
  8
1
 62
     7
  6
CONTINUOUS
 10
2.576193
 20
0.261370
  0
VERTEX
  8
1
 62
     7
  6
CONTINUOUS
 10
2.589657
 20
0.262630
  0
VERTEX
  8
1
 62
     7
  6
CONTINUOUS
 10
2.599787
 20
0.263906
  0
VERTEX
  8
1
 62
     7
  6
CONTINUOUS
 10
2.607232
 20
0.265122
  0
VERTEX
  8
1
 62
     7
  6
CONTINUOUS
 10
2.612594
 20
0.265846
  0
VERTEX
  8
1
 62
     7
  6
CONTINUOUS
 10
2.613984
 20
0.265846
  0
VERTEX
  8
1
 62
     7
  6
CONTINUOUS
 10
2.709047
 20
0.248087
  0
VERTEX
  8
1
 62
     7
  6
CONTINUOUS
 10
2.563362
 20
0.165717
  0
VERTEX
  8
1
 62
     7
  6
CONTINUOUS
 10
2.560685
 20
0.165094
  0
VERTEX
  8
1
 62
     7
  6
CONTINUOUS
 10
2.551882
 20
0.162598
  0
VERTEX
  8
1
 62
     7
  6
CONTINUOUS
 10
2.538413
 20
0.158807
  0
VERTEX
  8
1
 62
     7
  6
CONTINUOUS
 10
2.521551
 20
0.154319
  0
VERTEX
  8
1
 62
     7
  6
CONTINUOUS
 10
2.501280
 20
0.148591
  0
VERTEX
  8
1
 62
     7
  6
CONTINUOUS
 10
2.479028
 20
0.142236
  0
VERTEX
  8
1
 62
     7
  6
CONTINUOUS
 10
2.454811
 20
0.135925
  0
VERTEX
  8
1
 62
     7
  6
CONTINUOUS
 10
2.429874
 20
0.128941
  0
VERTEX
  8
1
 62
     7
  6
CONTINUOUS
 10
2.404933
 20
0.122579
  0
VERTEX
  8
1
 62
     7
  6
CONTINUOUS
 10
2.380606
 20
0.115594
  0
VERTEX
  8
1
 62
     7
  6
CONTINUOUS
 10
2.358382
 20
0.110039
  0
VERTEX
  8
1
 62
     7
  6
CONTINUOUS
 10
2.338102
 20
0.104260
  0
VERTEX
  8
1
 62
     7
  6
CONTINUOUS
 10
2.321240
 20
0.099772
  0
VERTEX
  8
1
 62
     7
  6
CONTINUOUS
 10
2.307772
 20
0.096646
  0
VERTEX
  8
1
 62
     7
  6
CONTINUOUS
 10
2.298972
 20
0.094126
  0
VERTEX
  8
1
 62
     7
  6
CONTINUOUS
 10
2.296283
 20
0.093409
  0
VERTEX
  8
1
 62
     7
  6
CONTINUOUS
 10
2.292972
 20
0.092894
  0
VERTEX
  8
1
 62
     7
  6
CONTINUOUS
 10
2.284177
 20
0.090280
  0
VERTEX
  8
1
 62
     7
  6
CONTINUOUS
 10
2.270016
 20
0.086516
  0
VERTEX
  8
1
 62
     7
  6
CONTINUOUS
 10
2.251807
 20
0.082130
  0
VERTEX
  8
1
 62
     7
  6
CONTINUOUS
 10
2.230165
 20
0.076366
  0
VERTEX
  8
1
 62
     7
  6
CONTINUOUS
 10
2.205965
 20
0.069992
  0
VERTEX
  8
1
 62
     7
  6
CONTINUOUS
 10
2.180291
 20
0.063736
  0
VERTEX
  8
1
 62
     7
  6
CONTINUOUS
 10
2.153988
 20
0.056744
  0
VERTEX
  8
1
 62
     7
  6
CONTINUOUS
 10
2.127713
 20
0.050358
  0
VERTEX
  8
1
 62
     7
  6
CONTINUOUS
 10
2.102083
 20
0.043366
  0
VERTEX
  8
1
 62
     7
  6
CONTINUOUS
 10
2.077839
 20
0.037713
  0
VERTEX
  8
1
 62
     7
  6
CONTINUOUS
 10
2.056232
 20
0.031957
  0
VERTEX
  8
1
 62
     7
  6
CONTINUOUS
 10
2.038035
 20
0.027583
  0
VERTEX
  8
1
 62
     7
  6
CONTINUOUS
 10
2.023839
 20
0.024449
  0
VERTEX
  8
1
 62
     7
  6
CONTINUOUS
 10
2.015114
 20
0.021929
  0
VERTEX
  8
1
 62
     7
  6
CONTINUOUS
 10
2.011728
 20
0.021197
  0
VERTEX
  8
1
 62
     7
  6
CONTINUOUS
 10
2.013783
 20
0.007921
  0
VERTEX
  8
1
 62
     7
  6
CONTINUOUS
 10
2.017815
 20
-0.021209
  0
VERTEX
  8
1
 62
     7
  6
CONTINUOUS
 10
2.021878
 20
-0.049752
  0
VERTEX
  8
1
 62
     7
  6
CONTINUOUS
 10
2.023839
 20
-0.062417
  0
VERTEX
  8
1
 62
     7
  6
CONTINUOUS
 10
2.019787
 20
-0.063673
  0
VERTEX
  8
1
 62
     7
  6
CONTINUOUS
 10
2.009646
 20
-0.066201
  0
VERTEX
  8
1
 62
     7
  6
CONTINUOUS
 10
1.992866
 20
-0.070669
  0
VERTEX
  8
1
 62
     7
  6
CONTINUOUS
 10
1.971280
 20
-0.075791
  0
VERTEX
  8
1
 62
     7
  6
CONTINUOUS
 10
1.945606
 20
-0.082067
  0
VERTEX
  8
1
 62
     7
  6
CONTINUOUS
 10
1.917354
 20
-0.089059
  0
VERTEX
  8
1
 62
     7
  6
CONTINUOUS
 10
1.886933
 20
-0.096669
  0
VERTEX
  8
1
 62
     7
  6
CONTINUOUS
 10
1.855996
 20
-0.104921
  0
VERTEX
  8
1
 62
     7
  6
CONTINUOUS
 10
1.824213
 20
-0.112465
  0
VERTEX
  8
1
 62
     7
  6
CONTINUOUS
 10
1.793890
 20
-0.120102
  0
VERTEX
  8
1
 62
     7
  6
CONTINUOUS
 10
1.765547
 20
-0.127079
  0
VERTEX
  8
1
 62
     7
  6
CONTINUOUS
 10
1.739980
 20
-0.133370
  0
VERTEX
  8
1
 62
     7
  6
CONTINUOUS
 10
1.718366
 20
-0.138496
  0
VERTEX
  8
1
 62
     7
  6
CONTINUOUS
 10
1.701500
 20
-0.142898
  0
VERTEX
  8
1
 62
     7
  6
CONTINUOUS
 10
1.691370
 20
-0.145496
  0
VERTEX
  8
1
 62
     7
  6
CONTINUOUS
 10
1.687323
 20
-0.146020
  0
VERTEX
  8
1
 62
     7
  6
CONTINUOUS
 10
1.683280
 20
-0.137240
  0
VERTEX
  8
1
 62
     7
  6
CONTINUOUS
 10
1.673161
 20
-0.112465
  0
VERTEX
  8
1
 62
     7
  6
CONTINUOUS
 10
1.659067
 20
-0.078287
  0
VERTEX
  8
1
 62
     7
  6
CONTINUOUS
 10
1.642819
 20
-0.038303
  0
VERTEX
  8
1
 62
     7
  6
CONTINUOUS
 10
1.626681
 20
0.001012
  0
VERTEX
  8
1
 62
     7
  6
CONTINUOUS
 10
1.612484
 20
0.035843
  0
VERTEX
  8
1
 62
     7
  6
CONTINUOUS
 10
1.602370
 20
0.060480
  0
VERTEX
  8
1
 62
     7
  6
CONTINUOUS
 10
1.598323
 20
0.069992
  0
VERTEX
  8
1
 62
     7
  6
CONTINUOUS
 10
1.599661
 20
0.069992
  0
VERTEX
  8
1
 62
     7
  6
CONTINUOUS
 10
1.604421
 20
0.070728
  0
VERTEX
  8
1
 62
     7
  6
CONTINUOUS
 10
1.611154
 20
0.071850
  0
VERTEX
  8
1
 62
     7
  6
CONTINUOUS
 10
1.620575
 20
0.073236
  0
VERTEX
  8
1
 62
     7
  6
CONTINUOUS
 10
1.632697
 20
0.074504
  0
VERTEX
  8
1
 62
     7
  6
CONTINUOUS
 10
1.646228
 20
0.076366
  0
VERTEX
  8
1
 62
     7
  6
CONTINUOUS
 10
1.662390
 20
0.078260
  0
VERTEX
  8
1
 62
     7
  6
CONTINUOUS
 10
1.679961
 20
0.080776
  0
VERTEX
  8
1
 62
     7
  6
CONTINUOUS
 10
1.698795
 20
0.083382
  0
VERTEX
  8
1
 62
     7
  6
CONTINUOUS
 10
1.719055
 20
0.086516
  0
VERTEX
  8
1
 62
     7
  6
CONTINUOUS
 10
1.740610
 20
0.089039
  0
VERTEX
  8
1
 62
     7
  6
CONTINUOUS
 10
1.762846
 20
0.092169
  0
VERTEX
  8
1
 62
     7
  6
CONTINUOUS
 10
1.786461
 20
0.095394
  0
VERTEX
  8
1
 62
     7
  6
CONTINUOUS
 10
1.810059
 20
0.098535
  0
VERTEX
  8
1
 62
     7
  6
CONTINUOUS
 10
1.834343
 20
0.101673
  0
VERTEX
  8
1
 62
     7
  6
CONTINUOUS
 10
1.858669
 20
0.105512
  0
VERTEX
  8
1
 62
     7
  6
CONTINUOUS
 10
1.882890
 20
0.108685
  0
VERTEX
  8
1
 62
     7
  6
CONTINUOUS
 10
1.907217
 20
0.111815
  0
VERTEX
  8
1
 62
     7
  6
CONTINUOUS
 10
1.930811
 20
0.115035
  0
VERTEX
  8
1
 62
     7
  6
CONTINUOUS
 10
1.954374
 20
0.118811
  0
VERTEX
  8
1
 62
     7
  6
CONTINUOUS
 10
1.976650
 20
0.121323
  0
VERTEX
  8
1
 62
     7
  6
CONTINUOUS
 10
1.998260
 20
0.124476
  0
VERTEX
  8
1
 62
     7
  6
CONTINUOUS
 10
2.018437
 20
0.127685
  0
VERTEX
  8
1
 62
     7
  6
CONTINUOUS
 10
2.037398
 20
0.130197
  0
VERTEX
  8
1
 62
     7
  6
CONTINUOUS
 10
2.054878
 20
0.132728
  0
VERTEX
  8
1
 62
     7
  6
CONTINUOUS
 10
2.071094
 20
0.134689
  0
VERTEX
  8
1
 62
     7
  6
CONTINUOUS
 10
2.084555
 20
0.136547
  0
VERTEX
  8
1
 62
     7
  6
CONTINUOUS
 10
2.096685
 20
0.138449
  0
VERTEX
  8
1
 62
     7
  6
CONTINUOUS
 10
2.106091
 20
0.139717
  0
VERTEX
  8
1
 62
     7
  6
CONTINUOUS
 10
2.112933
 20
0.140969
  0
VERTEX
  8
1
 62
     7
  6
CONTINUOUS
 10
2.117579
 20
0.141602
  0
VERTEX
  8
1
 62
     7
  6
CONTINUOUS
 10
2.118933
 20
0.141602
  0
SEQEND
  8
0
  0
POLYLINE
  8
1
 62
     7
  6
CONTINUOUS
 66
     1
 40
0.003000
 41
0.003000
  0
VERTEX
  8
1
 62
     7
  6
CONTINUOUS
 10
2.118933
 20
0.141602
  0
VERTEX
  8
1
 62
     7
  6
CONTINUOUS
 10
2.120264
 20
0.141602
  0
VERTEX
  8
1
 62
     7
  6
CONTINUOUS
 10
2.124343
 20
0.141602
  0
VERTEX
  8
1
 62
     7
  6
CONTINUOUS
 10
2.130402
 20
0.141602
  0
VERTEX
  8
1
 62
     7
  6
CONTINUOUS
 10
2.137854
 20
0.142236
  0
VERTEX
  8
1
 62
     7
  6
CONTINUOUS
 10
2.147280
 20
0.142846
  0
VERTEX
  8
1
 62
     7
  6
CONTINUOUS
 10
2.157402
 20
0.142846
  0
VERTEX
  8
1
 62
     7
  6
CONTINUOUS
 10
2.168165
 20
0.143583
  0
VERTEX
  8
1
 62
     7
  6
CONTINUOUS
 10
2.179665
 20
0.144114
  0
VERTEX
  8
1
 62
     7
  6
CONTINUOUS
 10
2.190429
 20
0.144839
  0
VERTEX
  8
1
 62
     7
  6
CONTINUOUS
 10
2.201193
 20
0.145453
  0
VERTEX
  8
1
 62
     7
  6
CONTINUOUS
 10
2.211335
 20
0.146087
  0
VERTEX
  8
1
 62
     7
  6
CONTINUOUS
 10
2.220756
 20
0.146709
  0
VERTEX
  8
1
 62
     7
  6
CONTINUOUS
 10
2.228185
 20
0.147323
  0
VERTEX
  8
1
 62
     7
  6
CONTINUOUS
 10
2.234303
 20
0.147323
  0
VERTEX
  8
1
 62
     7
  6
CONTINUOUS
 10
2.238354
 20
0.147957
  0
VERTEX
  8
1
 62
     7
  6
CONTINUOUS
 10
2.239665
 20
0.147957
  0
VERTEX
  8
1
 62
     7
  6
CONTINUOUS
 10
2.242362
 20
0.146087
  0
VERTEX
  8
1
 62
     7
  6
CONTINUOUS
 10
2.249732
 20
0.140969
  0
VERTEX
  8
1
 62
     7
  6
CONTINUOUS
 10
2.259878
 20
0.133976
  0
VERTEX
  8
1
 62
     7
  6
CONTINUOUS
 10
2.272083
 20
0.126425
  0
VERTEX
  8
1
 62
     7
  6
CONTINUOUS
 10
2.283472
 20
0.118165
  0
VERTEX
  8
1
 62
     7
  6
CONTINUOUS
 10
2.293591
 20
0.111280
  0
VERTEX
  8
1
 62
     7
  6
CONTINUOUS
 10
2.301024
 20
0.106799
  0
VERTEX
  8
1
 62
     7
  6
CONTINUOUS
 10
2.303713
 20
0.104894
  0
SEQEND
  8
0
  0
POLYLINE
  8
1
 62
     7
  6
CONTINUOUS
 66
     1
 40
0.003000
 41
0.003000
  0
VERTEX
  8
1
 62
     7
  6
CONTINUOUS
 10
0.764165
 20
0.025693
  0
VERTEX
  8
1
 62
     7
  6
CONTINUOUS
 10
1.339437
 20
0.137823
  0
SEQEND
  8
0
  0
POLYLINE
  8
1
 62
     7
  6
CONTINUOUS
 66
     1
 40
0.003000
 41
0.003000
  0
VERTEX
  8
1
 62
     7
  6
CONTINUOUS
 10
0.749102
 20
-0.138228
  0
VERTEX
  8
1
 62
     7
  6
CONTINUOUS
 10
1.404634
 20
-0.036843
  0
SEQEND
  8
0
  0
POLYLINE
  8
1
 62
     7
  6
CONTINUOUS
 66
     1
 40
0.003000
 41
0.003000
  0
VERTEX
  8
1
 62
     7
  6
CONTINUOUS
 10
0.764528
 20
-0.187102
  0
VERTEX
  8
1
 62
     7
  6
CONTINUOUS
 10
1.414244
 20
-0.080252
  0
SEQEND
  8
0
  0
POLYLINE
  8
1
 62
     7
  6
CONTINUOUS
 66
     1
 40
0.003000
 41
0.003000
  0
VERTEX
  8
1
 62
     7
  6
CONTINUOUS
 10
0.878287
 20
-0.217870
  0
VERTEX
  8
1
 62
     7
  6
CONTINUOUS
 10
1.427768
 20
-0.121957
  0
SEQEND
  8
0
  0
POLYLINE
  8
1
 62
     7
  6
CONTINUOUS
 66
     1
 40
0.003000
 41
0.003000
  0
VERTEX
  8
1
 62
     7
  6
CONTINUOUS
 10
1.049909
 20
-0.234122
  0
VERTEX
  8
1
 62
     7
  6
CONTINUOUS
 10
1.350618
 20
-0.178059
  0
SEQEND
  8
0
  0
ENDSEC
  0
EOF
