  0
SECTION
  2
HEADER
  9
$ACADVER
  1
AC1002
  9
$INSBASE
 10
12.576999
 20
-4.013403
  9
$EXTMIN
 10
-8.026035
 20
-4.013403
  9
$EXTMAX
 10
35.726475
 20
22.2281
  9
$LIMMIN
 10
0.0
 20
0.0
  9
$LIMMAX
 10
12.0
 20
9.0
  9
$VIEWCTR
 10
13.85022
 20
12.988896
  9
$VIEWSIZE
 40
34.004597
  9
$SNAPMODE
 70
     0
  9
$SNAPUNIT
 10
1.0
 20
1.0
  9
$SNAPBASE
 10
0.0
 20
0.0
  9
$SNAPANG
 50
0.0
  9
$SNAPSTYLE
 70
     0
  9
$SNAPISOPAIR
 70
     0
  9
$GRIDMODE
 70
     0
  9
$GRIDUNIT
 10
0.0
 20
0.0
  9
$ORTHOMODE
 70
     1
  9
$REGENMODE
 70
     1
  9
$FILLMODE
 70
     1
  9
$QTEXTMODE
 70
     0
  9
$DRAGMODE
 70
     1
  9
$LTSCALE
 40
1.0
  9
$OSMODE
 70
     0
  9
$ATTMODE
 70
     1
  9
$TEXTSIZE
 40
0.5
  9
$TRACEWID
 40
0.05
  9
$TEXTSTYLE
  7
SIMPLEX
  9
$CLAYER
  8
0
  9
$CELTYPE
  6
BYLAYER
  9
$CECOLOR
 62
   256
  9
$DIMSCALE
 40
0.25
  9
$DIMASZ
 40
2.5
  9
$DIMEXO
 40
1.5
  9
$DIMDLI
 40
0.38
  9
$DIMRND
 40
0.0
  9
$DIMDLE
 40
0.0
  9
$DIMEXE
 40
3.0
  9
$DIMTP
 40
0.0
  9
$DIMTM
 40
0.0
  9
$DIMTXT
 40
3.0
  9
$DIMCEN
 40
1.0
  9
$DIMTSZ
 40
0.0
  9
$DIMTOL
 70
     0
  9
$DIMLIM
 70
     0
  9
$DIMTIH
 70
     0
  9
$DIMTOH
 70
     1
  9
$DIMSE1
 70
     0
  9
$DIMSE2
 70
     0
  9
$DIMTAD
 70
     1
  9
$DIMZIN
 70
     0
  9
$DIMBLK
  1

  9
$LUNITS
 70
     2
  9
$LUPREC
 70
     4
  9
$AXISMODE
 70
     0
  9
$AXISUNIT
 10
0.0
 20
0.0
  9
$SKETCHINC
 40
0.1
  9
$FILLETRAD
 40
0.0
  9
$AUNITS
 70
     0
  9
$AUPREC
 70
     0
  9
$MENU
  1
ACAD
  9
$ELEVATION
 40
0.0
  9
$THICKNESS
 40
0.0
  9
$VIEWDIR
 10
0.0
 20
0.0
 30
1.0
  9
$LIMCHECK
 70
     0
  9
$BLIPMODE
 70
     1
  9
$CHAMFERA
 40
0.0
  9
$CHAMFERB
 40
0.0
  9
$FASTZOOM
 70
     1
  9
$SKPOLY
 70
     0
  9
$TDCREATE
 40
2446893.6023645171
  9
$TDUPDATE
 40
2446893.6023645171
  9
$TDINDWG
 40
0.0000000000
  9
$TDUSRTIMER
 40
0.0000000000
  9
$USRTIMER
 70
     1
  9
$ANGBASE
 50
0.0
  9
$ANGDIR
 70
     0
  9
$PDMODE
 70
     0
  9
$PDSIZE
 40
0.0
  9
$PLINEWID
 40
0.0
  9
$COORDS
 70
     0
  9
$USERI1
 70
     0
  9
$USERI2
 70
     0
  9
$USERI3
 70
     0
  9
$USERI4
 70
     0
  9
$USERI5
 70
     0
  9
$USERR1
 40
0.0
  9
$USERR2
 40
0.0
  9
$USERR3
 40
0.0
  9
$USERR4
 40
0.0
  9
$USERR5
 40
0.0
  0
ENDSEC
  0
SECTION
  2
TABLES
  0
TABLE
  2
LTYPE
 70
     1
  0
LTYPE
  2
CONTINUOUS
 70
    64
  3
Solid line
 72
    65
 73
     0
 40
0.0
  0
ENDTAB
  0
TABLE
  2
LAYER
 70
     4
  0
LAYER
  2
0
 70
    64
 62
     7
  6
CONTINUOUS
  0
LAYER
  2
FAT
 70
    64
 62
     5
  6
CONTINUOUS
  0
LAYER
  2
THIN
 70
    64
 62
     1
  6
CONTINUOUS
  0
LAYER
  2
XTHIN
 70
    64
 62
     2
  6
CONTINUOUS
  0
ENDTAB
  0
TABLE
  2
STYLE
 70
     2
  0
STYLE
  2
STANDARD
 70
     0
 40
0.0
 41
1.0
 50
0.0
 71
     0
 42
0.2
  3
SIMPLEX
  4

  0
STYLE
  2
SIMPLEX
 70
    64
 40
0.0
 41
1.0
 50
0.0
 71
     0
 42
0.5
  3
SIMPLEX
  4

  0
ENDTAB
  0
TABLE
  2
VIEW
 70
     0
  0
ENDTAB
  0
ENDSEC
  0
SECTION
  2
BLOCKS
  0
BLOCK
  8
0
  2
*X0
 70
    65
 10
0.0
 20
0.0
  0
LINE
  8
0
 10
12.016861
 20
13.431074
 11
12.987861
 21
14.402075
  0
LINE
  8
0
 10
10.711433
 20
13.53986
 11
11.63451
 21
14.462937
  0
LINE
  8
0
 10
9.406005
 20
13.648645
 11
10.329082
 21
14.571722
  0
LINE
  8
0
 10
8.100577
 20
13.757431
 11
9.023654
 21
14.680508
  0
LINE
  8
0
 10
6.795149
 20
13.866217
 11
7.718226
 21
14.789294
  0
LINE
  8
0
 10
5.489721
 20
13.975002
 11
6.412798
 21
14.898079
  0
LINE
  8
0
 10
4.184293
 20
14.083788
 11
5.10737
 21
15.006865
  0
LINE
  8
0
 10
2.878865
 20
14.192574
 11
3.801942
 21
15.115651
  0
LINE
  8
0
 10
0.676358
 20
13.404281
 11
2.496514
 21
15.224436
  0
LINE
  8
0
 10
0.676358
 20
14.818494
 11
1.191086
 21
15.333222
  0
LINE
  8
0
 10
13.43973
 20
13.43973
 11
14.530639
 21
14.530639
  0
LINE
  8
0
 10
14.982509
 20
13.568295
 11
16.073418
 21
14.659204
  0
LINE
  8
0
 10
16.525287
 20
13.69686
 11
17.616196
 21
14.787769
  0
LINE
  8
0
 10
18.068066
 20
13.825425
 11
19.158975
 21
14.916334
  0
LINE
  8
0
 10
19.610844
 20
13.95399
 11
20.701753
 21
15.044899
  0
LINE
  8
0
 10
21.153622
 20
14.082555
 11
22.244532
 21
15.173464
  0
LINE
  8
0
 10
22.696401
 20
14.21112
 11
23.78731
 21
15.302029
  0
LINE
  8
0
 10
24.239179
 20
14.339684
 11
24.676358
 21
14.776864
  0
LINE
  8
0
 10
12.727922
 20
13.435029
 11
13.081475
 21
13.788582
  0
LINE
  8
0
 10
13.258252
 20
13.965359
 11
13.611806
 21
14.318912
  0
LINE
  8
0
 10
11.490485
 20
13.611806
 11
11.844039
 21
13.965359
  0
LINE
  8
0
 10
12.020815
 20
14.142136
 11
12.374369
 21
14.495689
  0
LINE
  8
0
 10
12.551145
 20
14.672466
 11
12.676358
 21
14.797679
  0
LINE
  8
0
 10
10.058719
 20
13.594253
 11
10.076272
 21
13.611806
  0
LINE
  8
0
 10
10.253048
 20
13.788582
 11
10.606602
 21
14.142136
  0
LINE
  8
0
 10
10.783378
 20
14.318912
 11
10.981796
 21
14.51733
  0
LINE
  8
0
 10
8.753291
 20
13.703038
 11
8.838835
 21
13.788582
  0
LINE
  8
0
 10
9.015611
 20
13.965359
 11
9.369165
 21
14.318912
  0
LINE
  8
0
 10
9.545942
 20
14.495689
 11
9.676368
 21
14.626115
  0
LINE
  8
0
 10
7.447863
 20
13.811824
 11
7.601398
 21
13.965359
  0
LINE
  8
0
 10
7.778175
 20
14.142136
 11
8.131728
 21
14.495689
  0
LINE
  8
0
 10
8.308505
 20
14.672466
 11
8.37094
 21
14.734901
  0
LINE
  8
0
 10
6.142435
 20
13.92061
 11
6.363961
 21
14.142136
  0
LINE
  8
0
 10
6.540738
 20
14.318912
 11
6.894291
 21
14.672466
  0
LINE
  8
0
 10
4.837007
 20
14.029395
 11
5.126524
 21
14.318912
  0
LINE
  8
0
 10
5.303301
 20
14.495689
 11
5.656854
 21
14.849242
  0
LINE
  8
0
 10
3.535534
 20
14.142136
 11
3.889087
 21
14.495689
  0
LINE
  8
0
 10
4.065864
 20
14.672466
 11
4.419417
 21
15.026019
  0
LINE
  8
0
 10
2.298097
 20
14.318912
 11
2.65165
 21
14.672466
  0
LINE
  8
0
 10
2.828427
 20
14.849242
 11
3.149228
 21
15.170044
  0
LINE
  8
0
 10
0.676358
 20
14.111387
 11
0.883883
 21
14.318912
  0
LINE
  8
0
 10
1.06066
 20
14.495689
 11
1.414214
 21
14.849242
  0
LINE
  8
0
 10
1.59099
 20
15.026019
 11
1.8438
 21
15.278829
  0
LINE
  8
0
 10
14.21112
 20
13.504013
 11
14.318912
 21
13.611806
  0
LINE
  8
0
 10
14.495689
 20
13.788582
 11
14.849242
 21
14.142136
  0
LINE
  8
0
 10
15.026019
 20
14.318912
 11
15.302029
 21
14.594922
  0
LINE
  8
0
 10
15.753898
 20
13.632578
 11
16.086679
 21
13.965359
  0
LINE
  8
0
 10
16.263456
 20
14.142136
 11
16.617009
 21
14.495689
  0
LINE
  8
0
 10
16.793786
 20
14.672466
 11
16.844807
 21
14.723487
  0
LINE
  8
0
 10
17.296676
 20
13.761142
 11
17.324116
 21
13.788582
  0
LINE
  8
0
 10
17.500893
 20
13.965359
 11
17.854446
 21
14.318912
  0
LINE
  8
0
 10
18.031223
 20
14.495689
 11
18.384776
 21
14.849242
  0
LINE
  8
0
 10
18.839455
 20
13.889707
 11
19.091883
 21
14.142136
  0
LINE
  8
0
 10
19.26866
 20
14.318912
 11
19.622213
 21
14.672466
  0
LINE
  8
0
 10
19.79899
 20
14.849242
 11
19.930364
 21
14.980616
  0
LINE
  8
0
 10
20.506097
 20
14.142136
 11
20.85965
 21
14.495689
  0
LINE
  8
0
 10
21.036427
 20
14.672466
 11
21.38998
 21
15.026019
  0
LINE
  8
0
 10
21.925012
 20
14.146837
 11
22.097087
 21
14.318912
  0
LINE
  8
0
 10
22.273864
 20
14.495689
 11
22.627417
 21
14.849242
  0
LINE
  8
0
 10
22.804194
 20
15.026019
 11
23.015921
 21
15.237746
  0
LINE
  8
0
 10
23.5113
 20
14.318912
 11
23.864854
 21
14.672466
  0
LINE
  8
0
 10
24.041631
 20
14.849242
 11
24.395184
 21
15.202796
  0
ENDBLK
  8
0
  0
BLOCK
  8
0
  2
*X1
 70
    65
 10
0.0
 20
0.0
  0
LINE
  8
0
 10
12.399212
 20
12.399212
 11
13.43973
 21
13.43973
  0
LINE
  8
0
 10
11.093784
 20
12.507997
 11
12.016861
 21
13.431074
  0
LINE
  8
0
 10
9.788356
 20
12.616783
 11
10.711433
 21
13.53986
  0
LINE
  8
0
 10
8.482928
 20
12.725569
 11
9.406005
 21
13.648645
  0
LINE
  8
0
 10
7.1775
 20
12.834354
 11
8.100577
 21
13.757431
  0
LINE
  8
0
 10
5.872072
 20
12.94314
 11
6.795149
 21
13.866217
  0
LINE
  8
0
 10
4.566644
 20
13.051926
 11
5.489721
 21
13.975002
  0
LINE
  8
0
 10
3.261216
 20
13.160711
 11
4.184293
 21
14.083788
  0
LINE
  8
0
 10
1.955788
 20
13.269497
 11
2.878865
 21
14.192574
  0
LINE
  8
0
 10
0.676358
 20
13.404281
 11
1.573437
 21
14.301359
  0
LINE
  8
0
 10
13.8916
 20
12.477386
 11
14.982509
 21
13.568295
  0
LINE
  8
0
 10
15.434378
 20
12.605951
 11
16.525287
 21
13.69686
  0
LINE
  8
0
 10
16.977157
 20
12.734516
 11
18.068066
 21
13.825425
  0
LINE
  8
0
 10
18.519935
 20
12.863081
 11
19.610844
 21
13.95399
  0
LINE
  8
0
 10
20.062713
 20
12.991646
 11
21.153622
 21
14.082555
  0
LINE
  8
0
 10
21.605492
 20
13.12021
 11
22.696401
 21
14.21112
  0
LINE
  8
0
 10
23.14827
 20
13.248775
 11
24.239179
 21
14.339684
  0
LINE
  8
0
 10
13.12021
 20
12.413104
 11
13.965359
 21
13.258252
  0
LINE
  8
0
 10
14.142136
 20
13.435029
 11
14.142136
 21
13.435029
  0
LINE
  8
0
 10
11.746498
 20
12.453604
 11
12.020815
 21
12.727922
  0
LINE
  8
0
 10
12.197592
 20
12.904699
 11
12.197592
 21
12.904699
  0
LINE
  8
0
 10
12.374369
 20
13.081475
 11
12.669575
 21
13.376681
  0
LINE
  8
0
 10
10.44107
 20
12.56239
 11
11.313708
 21
13.435029
  0
LINE
  8
0
 10
9.135642
 20
12.671176
 11
9.369165
 21
12.904699
  0
LINE
  8
0
 10
9.545942
 20
13.081475
 11
9.545942
 21
13.081475
  0
LINE
  8
0
 10
9.722718
 20
13.258252
 11
10.058719
 21
13.594253
  0
LINE
  8
0
 10
7.830214
 20
12.779961
 11
8.662058
 21
13.611806
  0
LINE
  8
0
 10
6.524786
 20
12.888747
 11
6.717514
 21
13.081475
  0
LINE
  8
0
 10
6.894291
 20
13.258252
 11
6.894291
 21
13.258252
  0
LINE
  8
0
 10
7.071068
 20
13.435029
 11
7.447863
 21
13.811824
  0
LINE
  8
0
 10
5.219358
 20
12.997533
 11
6.010408
 21
13.788582
  0
LINE
  8
0
 10
3.91393
 20
13.106318
 11
4.065864
 21
13.258252
  0
LINE
  8
0
 10
4.242641
 20
13.435029
 11
4.242641
 21
13.435029
  0
LINE
  8
0
 10
4.419417
 20
13.611806
 11
4.837007
 21
14.029395
  0
LINE
  8
0
 10
2.608502
 20
13.215104
 11
3.358757
 21
13.965359
  0
LINE
  8
0
 10
1.303074
 20
13.32389
 11
1.414214
 21
13.435029
  0
LINE
  8
0
 10
1.59099
 20
13.611806
 11
1.59099
 21
13.611806
  0
LINE
  8
0
 10
1.767767
 20
13.788582
 11
2.226151
 21
14.246967
  0
LINE
  8
0
 10
0.676358
 20
14.111387
 11
0.707107
 21
14.142136
  0
LINE
  8
0
 10
0.883883
 20
14.318912
 11
0.883883
 21
14.318912
  0
LINE
  8
0
 10
14.662989
 20
12.541669
 11
14.672466
 21
12.551145
  0
LINE
  8
0
 10
14.849242
 20
12.727922
 11
14.849242
 21
12.727922
  0
LINE
  8
0
 10
15.026019
 20
12.904699
 11
15.753898
 21
13.632578
  0
LINE
  8
0
 10
16.205767
 20
12.670233
 11
16.617009
 21
13.081475
  0
LINE
  8
0
 10
16.793786
 20
13.258252
 11
16.793786
 21
13.258252
  0
LINE
  8
0
 10
16.970563
 20
13.435029
 11
17.296676
 21
13.761142
  0
LINE
  8
0
 10
17.748546
 20
12.798798
 11
18.561553
 21
13.611806
  0
LINE
  8
0
 10
18.73833
 20
13.788582
 11
18.73833
 21
13.788582
  0
LINE
  8
0
 10
19.445436
 20
13.081475
 11
19.445436
 21
13.081475
  0
LINE
  8
0
 10
19.622213
 20
13.258252
 11
20.382233
 21
14.018272
  0
LINE
  8
0
 10
20.834103
 20
13.055928
 11
21.213203
 21
13.435029
  0
LINE
  8
0
 10
21.38998
 20
13.611806
 11
21.38998
 21
13.611806
  0
LINE
  8
0
 10
21.566757
 20
13.788582
 11
21.925012
 21
14.146837
  0
LINE
  8
0
 10
22.376881
 20
13.184493
 11
23.157747
 21
13.965359
  0
LINE
  8
0
 10
23.334524
 20
14.142136
 11
23.334524
 21
14.142136
  0
LINE
  8
0
 10
24.041631
 20
13.435029
 11
24.041631
 21
13.435029
  0
LINE
  8
0
 10
24.218407
 20
13.611806
 11
24.676358
 21
14.069757
  0
ENDBLK
  8
0
  0
ENDSEC
  0
SECTION
  2
ENTITIES
  0
TEXT
  8
0
 10
8.276504
 20
-4.013403
 40
0.8
  1
NOT TO SCALE
  7
SIMPLEX
 72
     1
 11
12.714599
 21
-4.013403
  0
LINE
  8
XTHIN
 10
-7.416017
 20
-2.340209
 11
33.978106
 21
-2.340209
  0
LINE
  8
XTHIN
 10
-8.026035
 20
-2.131059
 11
34.500979
 21
-2.131059
  0
TEXT
  8
FAT
 10
-7.856157
 20
-1.731043
 40
1.75
  1
TYPICAL PARKING LOT SECTION
  7
SIMPLEX
 72
     1
 11
12.93551
 21
-1.731043
  0
TEXT
  8
0
 10
0.214219
 20
4.424569
 40
0.75
  1
10" STABILIZED SUB-GRADE TO 95% AASHTO T-180
  7
SIMPLEX
  0
LINE
  8
THIN
 10
-3.434213
 20
4.799569
 11
-0.410781
 21
4.799569
  0
LINE
  8
THIN
 10
1.517171
 20
13.176336
 11
-3.434213
 21
4.799569
  0
SOLID
  8
THIN
 10
1.606843
 20
13.123331
 11
1.427498
 21
13.22934
 12
1.835197
 22
13.714373
 13
1.835197
 23
13.714373
  0
TEXT
  8
0
 10
5.656396
 20
6.912421
 40
0.75
  1
6" SOILS CEMENT
  7
SIMPLEX
  0
LINE
  8
THIN
 10
1.576045
 20
7.287421
 11
5.031396
 21
7.287421
  0
LINE
  8
THIN
 10
4.918136
 20
13.780626
 11
1.576045
 21
7.287421
  0
SOLID
  8
THIN
 10
5.010754
 20
13.732955
 11
4.825518
 21
13.828298
 12
5.204163
 22
14.336336
 13
5.204163
 23
14.336336
  0
TEXT
  8
0
 10
11.012189
 20
9.400274
 40
0.75
  1
1" TYPE 1 ASPH. CONC. SURFACE COURSE
  7
SIMPLEX
  0
LINE
  8
THIN
 10
6.413536
 20
9.775274
 11
10.387189
 21
9.775274
  0
LINE
  8
THIN
 10
8.32429
 20
14.177651
 11
6.413536
 21
9.775274
  0
SOLID
  8
THIN
 10
8.419845
 20
14.136178
 11
8.228736
 21
14.219125
 12
8.57313
 22
14.750978
 13
8.57313
 23
14.750978
  0
TEXT
  8
0
 10
11.390644
 20
21.335243
 40
0.75
  1
60.0'
  7
SIMPLEX
  0
SOLID
  8
THIN
 10
1.301358
 20
20.856076
 11
1.301358
 21
21.06441
 12
0.676358
 22
20.960243
 13
0.676358
 23
20.960243
  0
SOLID
  8
THIN
 10
24.051358
 20
20.856076
 11
24.051358
 21
21.06441
 12
24.676358
 22
20.960243
 13
24.676358
 23
20.960243
  0
LINE
  8
THIN
 10
24.051358
 20
20.960243
 11
1.301358
 21
20.960243
  0
LINE
  8
THIN
 10
0.676358
 20
16.251116
 11
0.676358
 21
21.710243
  0
LINE
  8
THIN
 10
24.676358
 20
16.251116
 11
24.676358
 21
21.710243
  0
TEXT
  8
0
 10
17.390644
 20
18.432749
 40
0.75
  1
30.0'
  7
SIMPLEX
  0
SOLID
  8
THIN
 10
24.051358
 20
17.953582
 11
24.051358
 21
18.161915
 12
24.676358
 22
18.057749
 13
24.676358
 23
18.057749
  0
SOLID
  8
THIN
 10
13.301358
 20
17.953582
 11
13.301358
 21
18.161915
 12
12.676358
 22
18.057749
 13
12.676358
 23
18.057749
  0
LINE
  8
THIN
 10
13.301358
 20
18.057749
 11
24.051358
 21
18.057749
  0
TEXT
  8
0
 10
5.390644
 20
18.432749
 40
0.75
  1
30.0'
  7
SIMPLEX
  0
SOLID
  8
THIN
 10
12.051358
 20
17.953582
 11
12.051358
 21
18.161915
 12
12.676358
 22
18.057749
 13
12.676358
 23
18.057749
  0
SOLID
  8
THIN
 10
1.301358
 20
17.953582
 11
1.301358
 21
18.161915
 12
0.676358
 22
18.057749
 13
0.676358
 23
18.057749
  0
LINE
  8
THIN
 10
1.301358
 20
18.057749
 11
12.051358
 21
18.057749
  0
LINE
  8
THIN
 10
12.676358
 20
15.251116
 11
12.676358
 21
18.807749
  0
INSERT
  8
XTHIN
  2
*X1
 10
0.0
 20
0.0
  0
INSERT
  8
XTHIN
  2
*X0
 10
0.0
 20
0.0
  0
SOLID
  8
0
 10
12.676358
 20
14.876116
 11
12.676358
 21
14.376116
 12
24.676358
 22
15.876116
 13
24.676358
 23
15.376116
  0
SOLID
  8
0
 10
0.676358
 20
15.876116
 11
0.676358
 21
15.376116
 12
12.676358
 22
14.876116
 13
12.676358
 23
14.376116
  0
LINE
  8
0
 10
12.676358
 20
12.376116
 11
0.676358
 21
13.376116
  0
LINE
  8
0
 10
24.676358
 20
13.376116
 11
12.676358
 21
12.376116
  0
LINE
  8
0
 10
12.676358
 20
13.376116
 11
24.676358
 21
14.376116
  0
LINE
  8
0
 10
0.676358
 20
14.376116
 11
12.676358
 21
13.376116
  0
LINE
  8
0
 10
12.676358
 20
14.376116
 11
24.676358
 21
15.376116
  0
LINE
  8
0
 10
0.676358
 20
15.376116
 11
12.676358
 21
14.376116
  0
LINE
  8
0
 10
12.676358
 20
14.876116
 11
12.676358
 21
14.376116
  0
LINE
  8
0
 10
0.676358
 20
14.376116
 11
0.676358
 21
13.376116
  0
LINE
  8
0
 10
0.676358
 20
15.376116
 11
0.676358
 21
14.376116
  0
LINE
  8
0
 10
0.676358
 20
15.876116
 11
0.676358
 21
15.376116
  0
LINE
  8
0
 10
24.676358
 20
14.376116
 11
24.676358
 21
13.376116
  0
LINE
  8
0
 10
24.676358
 20
15.376116
 11
24.676358
 21
14.376116
  0
LINE
  8
0
 10
24.676358
 20
15.876116
 11
24.676358
 21
15.376116
  0
LINE
  8
0
 10
12.676358
 20
14.876116
 11
24.676358
 21
15.876116
  0
LINE
  8
0
 10
0.676358
 20
15.876116
 11
12.676358
 21
14.876116
  0
ENDSEC
  0
EOF
