  0
SECTION
  2
HEADER
  9
$ACADVER
  1
AC1006
  9
$EXTMIN
 10
-1.282378
 20
-3.686756
  9
$EXTMAX
 10
1.190240
 20
3.605130
  9
$LTSCALE
 40
0.000394
  9
$PDMODE
 70
    35
  9
$PDSIZE
 40
0.000315
  0
ENDSEC
  0
SECTION
  2
TABLES
  0
TABLE
  2
LTYPE
 70
     9
  0
LTYPE
  2
CONTINUOUS
 70
    64
  3
Solid line
 72
    65
 73
     0
 40
0.000000
  0
LTYPE
  2
DASHED
 70
    64
  3
__ __ __ __ __ __ __ __ __ __ __ __ __ __ __
 72
    65
 73
     2
 40
0.000003
 49
0.000002
 49
-0.000001
  0
LTYPE
  2
HIDDEN
 70
    64
  3
 _ _ _ _ _ _ _ _ _ _ _ _ _ _ _ _ _ _ _ _ _ _
 72
    65
 73
     2
 40
0.000001
 49
0.000001
 49
-0.000000
  0
LTYPE
  2
CENTER
 70
    64
  3
____ _ ____ _ ____ _ ____ _ ____ _ ____ _ ____
 72
    65
 73
     4
 40
0.000008
 49
0.000005
 49
-0.000001
 49
0.000001
 49
-0.000001
  0
LTYPE
  2
PHANTOM
 70
    64
  3
_____ _ _ _____ _ _ _____ _ _ _____ _ _ ____
 72
    65
 73
     6
 40
0.000010
 49
0.000005
 49
-0.000001
 49
0.000001
 49
-0.000001
 49
0.000001
 49
-0.000001
  0
LTYPE
  2
DOT
 70
    64
  3
...............................................
 72
    65
 73
     2
 40
0.000001
 49
0.000000
 49
-0.000001
  0
LTYPE
  2
DASHDOT
 70
    64
  3
__ . __ . __ . __ . __ . __ . __ . __ . __ . __
 72
    65
 73
     4
 40
0.000004
 49
0.000002
 49
-0.000001
 49
0.000000
 49
-0.000001
  0
LTYPE
  2
BORDER
 70
    64
  3
__ __ . __ __ . __ __ . __ __ . __ __ . __ __
 72
    65
 73
     6
 40
0.000007
 49
0.000002
 49
-0.000001
 49
0.000002
 49
-0.000001
 49
0.000000
 49
-0.000001
  0
LTYPE
  2
DIVIDE
 70
    64
  3
__ . . __ . . __ . . __ . . __ . . __ . . __
 72
    65
 73
     6
 40
0.000005
 49
0.000002
 49
-0.000001
 49
0.000000
 49
-0.000001
 49
0.000000
 49
-0.000001
  0
LTYPE
  2
DOTDOT
 70
    64
  3
 . .  . .  . .  . .  . .  . . 
 72
    65
 73
     5
 40
0.000002
 49
-0.000001
 49
0.000000
 49
-0.000001
 49
0.000000
 49
-0.000001
  0
ENDTAB
  0
TABLE
  2
STYLE
 70
     0
  0
ENDTAB
  0
TABLE
  2
LAYER
 70
     3
  0
LAYER
  2
FOREGROUND
 70
    64
 62
     7
  6
CONTINUOUS
  0
LAYER
  2
BACKGROUND
 70
    65
 62
    -7
  6
CONTINUOUS
  0
LAYER
  2
COUCHE1
 70
    64
 62
     7
  6
CONTINUOUS
  0
ENDTAB
  0
ENDSEC
  0
SECTION
  2
ENTITIES
  0
POLYLINE
  8
COUCHE1
 62
    20
  6
CONTINUOUS
 66
     1
 40
0.003000
 41
0.003000
 70
     1
  0
VERTEX
  8
COUCHE1
 62
    20
  6
CONTINUOUS
 10
-0.176386
 20
3.082110
  0
VERTEX
  8
COUCHE1
 62
    20
  6
CONTINUOUS
 10
-0.241370
 20
3.249213
  0
VERTEX
  8
COUCHE1
 62
    20
  6
CONTINUOUS
 10
-0.194953
 20
3.416315
  0
VERTEX
  8
COUCHE1
 62
    20
  6
CONTINUOUS
 10
-0.074268
 20
3.239929
  0
VERTEX
  8
COUCHE1
 62
    20
  6
CONTINUOUS
 10
0.009283
 20
3.472016
  0
VERTEX
  8
COUCHE1
 62
    20
  6
CONTINUOUS
 10
0.129969
 20
3.601984
  0
VERTEX
  8
COUCHE1
 62
    20
  6
CONTINUOUS
 10
0.157819
 20
3.462732
  0
VERTEX
  8
COUCHE1
 62
    20
  6
CONTINUOUS
 10
0.324921
 20
3.601984
  0
VERTEX
  8
COUCHE1
 62
    20
  6
CONTINUOUS
 10
0.259937
 20
3.407031
  0
VERTEX
  8
COUCHE1
 62
    20
  6
CONTINUOUS
 10
0.399189
 20
3.472016
  0
VERTEX
  8
COUCHE1
 62
    20
  6
CONTINUOUS
 10
0.584858
 20
3.416315
  0
VERTEX
  8
COUCHE1
 62
    20
  6
CONTINUOUS
 10
0.510591
 20
3.360614
  0
VERTEX
  8
COUCHE1
 62
    20
  6
CONTINUOUS
 10
0.696260
 20
3.351331
  0
VERTEX
  8
COUCHE1
 62
    20
  6
CONTINUOUS
 10
0.835512
 20
3.277063
  0
VERTEX
  8
COUCHE1
 62
    20
  6
CONTINUOUS
 10
0.742677
 20
3.239929
  0
VERTEX
  8
COUCHE1
 62
    20
  6
CONTINUOUS
 10
0.751961
 20
3.156378
  0
VERTEX
  8
COUCHE1
 62
    20
  6
CONTINUOUS
 10
0.872646
 20
3.137811
  0
VERTEX
  8
COUCHE1
 62
    20
  6
CONTINUOUS
 10
0.956197
 20
3.174945
  0
VERTEX
  8
COUCHE1
 62
    20
  6
CONTINUOUS
 10
0.946913
 20
3.063543
  0
VERTEX
  8
COUCHE1
 62
    20
  6
CONTINUOUS
 10
1.049031
 20
2.970709
  0
VERTEX
  8
COUCHE1
 62
    20
  6
CONTINUOUS
 10
1.114016
 20
2.896441
  0
VERTEX
  8
COUCHE1
 62
    20
  6
CONTINUOUS
 10
1.188283
 20
2.840740
  0
VERTEX
  8
COUCHE1
 62
    20
  6
CONTINUOUS
 10
1.123299
 20
2.729339
  0
VERTEX
  8
COUCHE1
 62
    20
  6
CONTINUOUS
 10
1.058315
 20
2.803606
  0
VERTEX
  8
COUCHE1
 62
    20
  6
CONTINUOUS
 10
1.095449
 20
2.590087
  0
VERTEX
  8
COUCHE1
 62
    20
  6
CONTINUOUS
 10
1.104732
 20
2.395134
  0
VERTEX
  8
COUCHE1
 62
    20
  6
CONTINUOUS
 10
1.076882
 20
2.311583
  0
VERTEX
  8
COUCHE1
 62
    20
  6
CONTINUOUS
 10
0.946913
 20
2.441551
  0
VERTEX
  8
COUCHE1
 62
    20
  6
CONTINUOUS
 10
0.844795
 20
2.441551
  0
VERTEX
  8
COUCHE1
 62
    20
  6
CONTINUOUS
 10
0.844795
 20
2.255882
  0
VERTEX
  8
COUCHE1
 62
    20
  6
CONTINUOUS
 10
0.761244
 20
2.432268
  0
VERTEX
  8
COUCHE1
 62
    20
  6
CONTINUOUS
 10
0.612709
 20
2.441551
  0
VERTEX
  8
COUCHE1
 62
    20
  6
CONTINUOUS
 10
0.649843
 20
2.552953
  0
VERTEX
  8
COUCHE1
 62
    20
  6
CONTINUOUS
 10
0.399189
 20
2.534386
  0
VERTEX
  8
COUCHE1
 62
    20
  6
CONTINUOUS
 10
0.362055
 20
2.775756
  0
VERTEX
  8
COUCHE1
 62
    20
  6
CONTINUOUS
 10
0.213520
 20
2.803606
  0
VERTEX
  8
COUCHE1
 62
    20
  6
CONTINUOUS
 10
0.083551
 20
2.757189
  0
VERTEX
  8
COUCHE1
 62
    20
  6
CONTINUOUS
 10
0.102118
 20
2.905724
  0
VERTEX
  8
COUCHE1
 62
    20
  6
CONTINUOUS
 10
0.037134
 20
2.970709
  0
VERTEX
  8
COUCHE1
 62
    20
  6
CONTINUOUS
 10
-0.055701
 20
2.896441
  0
SEQEND
  8
0
  0
POLYLINE
  8
COUCHE1
 62
    20
  6
CONTINUOUS
 66
     1
 40
0.003000
 41
0.003000
  0
VERTEX
  8
COUCHE1
 62
    20
  6
CONTINUOUS
 10
-0.204236
 20
3.063543
  0
VERTEX
  8
COUCHE1
 62
    20
  6
CONTINUOUS
 10
-0.334205
 20
2.692205
  0
VERTEX
  8
COUCHE1
 62
    20
  6
CONTINUOUS
 10
-0.371339
 20
2.525102
  0
VERTEX
  8
COUCHE1
 62
    20
  6
CONTINUOUS
 10
-0.436323
 20
2.293016
  0
VERTEX
  8
COUCHE1
 62
    20
  6
CONTINUOUS
 10
-0.436323
 20
2.060929
  0
VERTEX
  8
COUCHE1
 62
    20
  6
CONTINUOUS
 10
-0.399189
 20
1.856693
  0
VERTEX
  8
COUCHE1
 62
    20
  6
CONTINUOUS
 10
-0.241370
 20
1.689591
  0
VERTEX
  8
COUCHE1
 62
    20
  6
CONTINUOUS
 10
-0.046417
 20
1.689591
  0
VERTEX
  8
COUCHE1
 62
    20
  6
CONTINUOUS
 10
0.148535
 20
1.726724
  0
VERTEX
  8
COUCHE1
 62
    20
  6
CONTINUOUS
 10
0.287787
 20
1.856693
  0
VERTEX
  8
COUCHE1
 62
    20
  6
CONTINUOUS
 10
0.445606
 20
2.005228
  0
VERTEX
  8
COUCHE1
 62
    20
  6
CONTINUOUS
 10
0.492024
 20
2.079496
  0
VERTEX
  8
COUCHE1
 62
    20
  6
CONTINUOUS
 10
0.677693
 20
2.098063
  0
VERTEX
  8
COUCHE1
 62
    20
  6
CONTINUOUS
 10
0.751961
 20
2.190898
  0
VERTEX
  8
COUCHE1
 62
    20
  6
CONTINUOUS
 10
0.789094
 20
2.376567
  0
SEQEND
  8
0
  0
POLYLINE
  8
COUCHE1
 62
    20
  6
CONTINUOUS
 66
     1
 40
0.003000
 41
0.003000
  0
VERTEX
  8
COUCHE1
 62
    20
  6
CONTINUOUS
 10
-0.157819
 20
1.698874
  0
VERTEX
  8
COUCHE1
 62
    20
  6
CONTINUOUS
 10
-0.259937
 20
1.578189
  0
VERTEX
  8
COUCHE1
 62
    20
  6
CONTINUOUS
 10
-0.306354
 20
1.466787
  0
VERTEX
  8
COUCHE1
 62
    20
  6
CONTINUOUS
 10
-0.297071
 20
1.336819
  0
VERTEX
  8
COUCHE1
 62
    20
  6
CONTINUOUS
 10
-0.250654
 20
1.299685
  0
VERTEX
  8
COUCHE1
 62
    20
  6
CONTINUOUS
 10
0.092835
 20
1.336819
  0
VERTEX
  8
COUCHE1
 62
    20
  6
CONTINUOUS
 10
0.102118
 20
1.411087
  0
VERTEX
  8
COUCHE1
 62
    20
  6
CONTINUOUS
 10
0.148535
 20
1.457504
  0
VERTEX
  8
COUCHE1
 62
    20
  6
CONTINUOUS
 10
0.111402
 20
1.513205
  0
SEQEND
  8
0
  0
POLYLINE
  8
COUCHE1
 62
    20
  6
CONTINUOUS
 66
     1
 40
0.003000
 41
0.003000
  0
VERTEX
  8
COUCHE1
 62
    20
  6
CONTINUOUS
 10
0.092835
 20
1.559622
  0
VERTEX
  8
COUCHE1
 62
    20
  6
CONTINUOUS
 10
0.259937
 20
1.633890
  0
VERTEX
  8
COUCHE1
 62
    20
  6
CONTINUOUS
 10
0.519874
 20
1.671024
  0
VERTEX
  8
COUCHE1
 62
    20
  6
CONTINUOUS
 10
0.575575
 20
1.420370
  0
VERTEX
  8
COUCHE1
 62
    20
  6
CONTINUOUS
 10
0.510591
 20
1.308969
  0
VERTEX
  8
COUCHE1
 62
    20
  6
CONTINUOUS
 10
0.399189
 20
1.346102
  0
VERTEX
  8
COUCHE1
 62
    20
  6
CONTINUOUS
 10
0.315638
 20
1.383236
  0
VERTEX
  8
COUCHE1
 62
    20
  6
CONTINUOUS
 10
0.083551
 20
1.373953
  0
SEQEND
  8
0
  0
POLYLINE
  8
COUCHE1
 62
    20
  6
CONTINUOUS
 66
     1
 40
0.003000
 41
0.003000
  0
VERTEX
  8
COUCHE1
 62
    20
  6
CONTINUOUS
 10
0.185669
 20
1.587472
  0
VERTEX
  8
COUCHE1
 62
    20
  6
CONTINUOUS
 10
0.250654
 20
1.541055
  0
VERTEX
  8
COUCHE1
 62
    20
  6
CONTINUOUS
 10
0.269220
 20
1.401803
  0
SEQEND
  8
0
  0
POLYLINE
  8
COUCHE1
 62
    20
  6
CONTINUOUS
 66
     1
 40
0.003000
 41
0.003000
  0
VERTEX
  8
COUCHE1
 62
    20
  6
CONTINUOUS
 10
0.473457
 20
1.680307
  0
VERTEX
  8
COUCHE1
 62
    20
  6
CONTINUOUS
 10
0.436323
 20
1.847409
  0
VERTEX
  8
COUCHE1
 62
    20
  6
CONTINUOUS
 10
0.492024
 20
2.033079
  0
SEQEND
  8
0
  0
POLYLINE
  8
COUCHE1
 62
    20
  6
CONTINUOUS
 66
     1
 40
0.003000
 41
0.003000
  0
VERTEX
  8
COUCHE1
 62
    20
  6
CONTINUOUS
 10
0.584858
 20
1.411087
  0
VERTEX
  8
COUCHE1
 62
    20
  6
CONTINUOUS
 10
0.900496
 20
1.169717
  0
VERTEX
  8
COUCHE1
 62
    20
  6
CONTINUOUS
 10
1.058315
 20
0.724110
  0
VERTEX
  8
COUCHE1
 62
    20
  6
CONTINUOUS
 10
1.114016
 20
0.315638
  0
VERTEX
  8
COUCHE1
 62
    20
  6
CONTINUOUS
 10
0.928346
 20
0.417756
  0
VERTEX
  8
COUCHE1
 62
    20
  6
CONTINUOUS
 10
0.742677
 20
0.408472
  0
VERTEX
  8
COUCHE1
 62
    20
  6
CONTINUOUS
 10
0.538441
 20
0.343488
  0
VERTEX
  8
COUCHE1
 62
    20
  6
CONTINUOUS
 10
0.492024
 20
0.501307
  0
VERTEX
  8
COUCHE1
 62
    20
  6
CONTINUOUS
 10
0.510591
 20
0.686976
  0
SEQEND
  8
0
  0
POLYLINE
  8
COUCHE1
 62
    20
  6
CONTINUOUS
 66
     1
 40
0.003000
 41
0.003000
  0
VERTEX
  8
COUCHE1
 62
    20
  6
CONTINUOUS
 10
0.241370
 20
0.974764
  0
VERTEX
  8
COUCHE1
 62
    20
  6
CONTINUOUS
 10
0.129969
 20
0.807661
  0
SEQEND
  8
0
  0
POLYLINE
  8
COUCHE1
 62
    20
  6
CONTINUOUS
 66
     1
 40
0.003000
 41
0.003000
  0
VERTEX
  8
COUCHE1
 62
    20
  6
CONTINUOUS
 10
0.557008
 20
0.343488
  0
VERTEX
  8
COUCHE1
 62
    20
  6
CONTINUOUS
 10
0.575575
 20
-0.102118
  0
VERTEX
  8
COUCHE1
 62
    20
  6
CONTINUOUS
 10
0.594142
 20
-0.362055
  0
VERTEX
  8
COUCHE1
 62
    20
  6
CONTINUOUS
 10
0.482740
 20
-0.612709
  0
VERTEX
  8
COUCHE1
 62
    20
  6
CONTINUOUS
 10
0.324921
 20
-0.816945
  0
VERTEX
  8
COUCHE1
 62
    20
  6
CONTINUOUS
 10
0.129969
 20
-0.937630
  0
VERTEX
  8
COUCHE1
 62
    20
  6
CONTINUOUS
 10
0.129969
 20
-1.086165
  0
VERTEX
  8
COUCHE1
 62
    20
  6
CONTINUOUS
 10
0.213520
 20
-1.160433
  0
VERTEX
  8
COUCHE1
 62
    20
  6
CONTINUOUS
 10
0.306354
 20
-1.169717
  0
VERTEX
  8
COUCHE1
 62
    20
  6
CONTINUOUS
 10
0.417756
 20
-0.965480
  0
VERTEX
  8
COUCHE1
 62
    20
  6
CONTINUOUS
 10
0.473457
 20
-0.956197
  0
VERTEX
  8
COUCHE1
 62
    20
  6
CONTINUOUS
 10
0.761244
 20
-0.816945
  0
VERTEX
  8
COUCHE1
 62
    20
  6
CONTINUOUS
 10
0.974764
 20
-0.501307
  0
VERTEX
  8
COUCHE1
 62
    20
  6
CONTINUOUS
 10
1.002614
 20
-0.185669
  0
VERTEX
  8
COUCHE1
 62
    20
  6
CONTINUOUS
 10
1.049031
 20
-0.018567
  0
VERTEX
  8
COUCHE1
 62
    20
  6
CONTINUOUS
 10
1.141866
 20
0.324921
  0
SEQEND
  8
0
  0
POLYLINE
  8
COUCHE1
 62
    20
  6
CONTINUOUS
 66
     1
 40
0.003000
 41
0.003000
  0
VERTEX
  8
COUCHE1
 62
    20
  6
CONTINUOUS
 10
0.547724
 20
-0.092835
  0
VERTEX
  8
COUCHE1
 62
    20
  6
CONTINUOUS
 10
0.436323
 20
0.000000
  0
VERTEX
  8
COUCHE1
 62
    20
  6
CONTINUOUS
 10
-0.176386
 20
0.000000
  0
VERTEX
  8
COUCHE1
 62
    20
  6
CONTINUOUS
 10
-0.408472
 20
0.000000
  0
VERTEX
  8
COUCHE1
 62
    20
  6
CONTINUOUS
 10
-0.464173
 20
-0.064984
  0
VERTEX
  8
COUCHE1
 62
    20
  6
CONTINUOUS
 10
-0.408472
 20
-0.157819
  0
VERTEX
  8
COUCHE1
 62
    20
  6
CONTINUOUS
 10
-0.259937
 20
-0.157819
  0
VERTEX
  8
COUCHE1
 62
    20
  6
CONTINUOUS
 10
-0.157819
 20
-0.148535
  0
VERTEX
  8
COUCHE1
 62
    20
  6
CONTINUOUS
 10
-0.092835
 20
-0.102118
  0
VERTEX
  8
COUCHE1
 62
    20
  6
CONTINUOUS
 10
0.157819
 20
-0.111402
  0
VERTEX
  8
COUCHE1
 62
    20
  6
CONTINUOUS
 10
0.269220
 20
-0.139252
  0
VERTEX
  8
COUCHE1
 62
    20
  6
CONTINUOUS
 10
0.594142
 20
-0.213520
  0
SEQEND
  8
0
  0
POLYLINE
  8
COUCHE1
 62
    20
  6
CONTINUOUS
 66
     1
 40
0.003000
 41
0.003000
  0
VERTEX
  8
COUCHE1
 62
    20
  6
CONTINUOUS
 10
0.037134
 20
0.102118
  0
VERTEX
  8
COUCHE1
 62
    20
  6
CONTINUOUS
 10
0.009283
 20
0.519874
  0
VERTEX
  8
COUCHE1
 62
    20
  6
CONTINUOUS
 10
0.064984
 20
0.854079
  0
VERTEX
  8
COUCHE1
 62
    20
  6
CONTINUOUS
 10
0.148535
 20
1.114016
  0
SEQEND
  8
0
  0
POLYLINE
  8
COUCHE1
 62
    20
  6
CONTINUOUS
 66
     1
 40
0.003000
 41
0.003000
  0
VERTEX
  8
COUCHE1
 62
    20
  6
CONTINUOUS
 10
0.148535
 20
0.324921
  0
VERTEX
  8
COUCHE1
 62
    20
  6
CONTINUOUS
 10
0.157819
 20
0.454890
  0
VERTEX
  8
COUCHE1
 62
    20
  6
CONTINUOUS
 10
0.213520
 20
0.501307
  0
SEQEND
  8
0
  0
POLYLINE
  8
COUCHE1
 62
    20
  6
CONTINUOUS
 66
     1
 40
0.003000
 41
0.003000
  0
VERTEX
  8
COUCHE1
 62
    20
  6
CONTINUOUS
 10
-0.362055
 20
0.018567
  0
VERTEX
  8
COUCHE1
 62
    20
  6
CONTINUOUS
 10
-0.362055
 20
0.232087
  0
VERTEX
  8
COUCHE1
 62
    20
  6
CONTINUOUS
 10
-0.315638
 20
0.352772
  0
VERTEX
  8
COUCHE1
 62
    20
  6
CONTINUOUS
 10
-0.315638
 20
0.529157
  0
VERTEX
  8
COUCHE1
 62
    20
  6
CONTINUOUS
 10
-0.464173
 20
0.640559
  0
VERTEX
  8
COUCHE1
 62
    20
  6
CONTINUOUS
 10
-0.631276
 20
0.659126
  0
VERTEX
  8
COUCHE1
 62
    20
  6
CONTINUOUS
 10
-0.724110
 20
0.612709
  0
SEQEND
  8
0
  0
POLYLINE
  8
COUCHE1
 62
    20
  6
CONTINUOUS
 66
     1
 40
0.003000
 41
0.003000
  0
VERTEX
  8
COUCHE1
 62
    20
  6
CONTINUOUS
 10
-0.612709
 20
0.464173
  0
VERTEX
  8
COUCHE1
 62
    20
  6
CONTINUOUS
 10
-0.724110
 20
0.631276
  0
VERTEX
  8
COUCHE1
 62
    20
  6
CONTINUOUS
 10
-0.631276
 20
0.863362
  0
VERTEX
  8
COUCHE1
 62
    20
  6
CONTINUOUS
 10
-0.724110
 20
1.021181
  0
VERTEX
  8
COUCHE1
 62
    20
  6
CONTINUOUS
 10
-0.724110
 20
1.225417
  0
VERTEX
  8
COUCHE1
 62
    20
  6
CONTINUOUS
 10
-0.649843
 20
1.355386
  0
VERTEX
  8
COUCHE1
 62
    20
  6
CONTINUOUS
 10
-0.454890
 20
1.401803
  0
VERTEX
  8
COUCHE1
 62
    20
  6
CONTINUOUS
 10
-0.324921
 20
1.457504
  0
SEQEND
  8
0
  0
POLYLINE
  8
COUCHE1
 62
    20
  6
CONTINUOUS
 66
     1
 40
0.003000
 41
0.003000
  0
VERTEX
  8
COUCHE1
 62
    20
  6
CONTINUOUS
 10
-0.547724
 20
0.640559
  0
VERTEX
  8
COUCHE1
 62
    20
  6
CONTINUOUS
 10
-0.566291
 20
0.315638
  0
VERTEX
  8
COUCHE1
 62
    20
  6
CONTINUOUS
 10
-0.603425
 20
0.055701
  0
VERTEX
  8
COUCHE1
 62
    20
  6
CONTINUOUS
 10
-0.603425
 20
-0.362055
  0
VERTEX
  8
COUCHE1
 62
    20
  6
CONTINUOUS
 10
-0.547724
 20
-0.733394
  0
SEQEND
  8
0
  0
POLYLINE
  8
COUCHE1
 62
    20
  6
CONTINUOUS
 66
     1
 40
0.003000
 41
0.003000
  0
VERTEX
  8
COUCHE1
 62
    20
  6
CONTINUOUS
 10
-0.352772
 20
-0.176386
  0
VERTEX
  8
COUCHE1
 62
    20
  6
CONTINUOUS
 10
-0.547724
 20
-0.761244
  0
VERTEX
  8
COUCHE1
 62
    20
  6
CONTINUOUS
 10
-0.538441
 20
-0.946913
  0
VERTEX
  8
COUCHE1
 62
    20
  6
CONTINUOUS
 10
-0.621992
 20
-1.151150
  0
VERTEX
  8
COUCHE1
 62
    20
  6
CONTINUOUS
 10
-0.668409
 20
-1.383236
  0
VERTEX
  8
COUCHE1
 62
    20
  6
CONTINUOUS
 10
-0.668409
 20
-1.773142
  0
VERTEX
  8
COUCHE1
 62
    20
  6
CONTINUOUS
 10
-0.733394
 20
-2.144480
  0
VERTEX
  8
COUCHE1
 62
    20
  6
CONTINUOUS
 10
-0.872646
 20
-2.432268
  0
VERTEX
  8
COUCHE1
 62
    20
  6
CONTINUOUS
 10
-1.104732
 20
-2.924291
  0
VERTEX
  8
COUCHE1
 62
    20
  6
CONTINUOUS
 10
-0.909780
 20
-2.905724
  0
VERTEX
  8
COUCHE1
 62
    20
  6
CONTINUOUS
 10
-0.742677
 20
-2.952142
  0
VERTEX
  8
COUCHE1
 62
    20
  6
CONTINUOUS
 10
-0.492024
 20
-3.109961
  0
VERTEX
  8
COUCHE1
 62
    20
  6
CONTINUOUS
 10
-0.334205
 20
-3.119244
  0
VERTEX
  8
COUCHE1
 62
    20
  6
CONTINUOUS
 10
-0.055701
 20
-3.109961
  0
SEQEND
  8
0
  0
POLYLINE
  8
COUCHE1
 62
    20
  6
CONTINUOUS
 66
     1
 40
0.003000
 41
0.003000
  0
VERTEX
  8
COUCHE1
 62
    20
  6
CONTINUOUS
 10
0.102118
 20
-1.407291
  0
VERTEX
  8
COUCHE1
 62
    20
  6
CONTINUOUS
 10
0.157819
 20
-1.713646
  0
VERTEX
  8
COUCHE1
 62
    20
  6
CONTINUOUS
 10
0.129969
 20
-1.945732
  0
VERTEX
  8
COUCHE1
 62
    20
  6
CONTINUOUS
 10
0.129969
 20
-2.187102
  0
VERTEX
  8
COUCHE1
 62
    20
  6
CONTINUOUS
 10
0.148535
 20
-2.493457
  0
VERTEX
  8
COUCHE1
 62
    20
  6
CONTINUOUS
 10
0.064984
 20
-2.799811
  0
VERTEX
  8
COUCHE1
 62
    20
  6
CONTINUOUS
 10
-0.046417
 20
-3.050465
  0
VERTEX
  8
COUCHE1
 62
    20
  6
CONTINUOUS
 10
-0.074268
 20
-3.152583
  0
VERTEX
  8
COUCHE1
 62
    20
  6
CONTINUOUS
 10
-0.037134
 20
-3.217567
  0
VERTEX
  8
COUCHE1
 62
    20
  6
CONTINUOUS
 10
0.157819
 20
-3.217567
  0
VERTEX
  8
COUCHE1
 62
    20
  6
CONTINUOUS
 10
0.436323
 20
-3.199000
  0
VERTEX
  8
COUCHE1
 62
    20
  6
CONTINUOUS
 10
0.798378
 20
-3.217567
  0
VERTEX
  8
COUCHE1
 62
    20
  6
CONTINUOUS
 10
0.984047
 20
-3.226850
  0
VERTEX
  8
COUCHE1
 62
    20
  6
CONTINUOUS
 10
1.076882
 20
-3.147941
  0
VERTEX
  8
COUCHE1
 62
    20
  6
CONTINUOUS
 10
1.067598
 20
-2.948346
  0
VERTEX
  8
COUCHE1
 62
    20
  6
CONTINUOUS
 10
1.021181
 20
-2.669843
  0
VERTEX
  8
COUCHE1
 62
    20
  6
CONTINUOUS
 10
0.965480
 20
-2.372772
  0
VERTEX
  8
COUCHE1
 62
    20
  6
CONTINUOUS
 10
0.909780
 20
-1.908598
  0
VERTEX
  8
COUCHE1
 62
    20
  6
CONTINUOUS
 10
0.909780
 20
-1.360874
  0
VERTEX
  8
COUCHE1
 62
    20
  6
CONTINUOUS
 10
0.937630
 20
-0.859567
  0
VERTEX
  8
COUCHE1
 62
    20
  6
CONTINUOUS
 10
0.937630
 20
-0.562496
  0
SEQEND
  8
0
  0
POLYLINE
  8
COUCHE1
 62
    20
  6
CONTINUOUS
 66
     1
 40
0.003000
 41
0.003000
  0
VERTEX
  8
COUCHE1
 62
    20
  6
CONTINUOUS
 10
0.259937
 20
-3.202795
  0
VERTEX
  8
COUCHE1
 62
    20
  6
CONTINUOUS
 10
0.018567
 20
-3.685535
  0
VERTEX
  8
COUCHE1
 62
    20
  6
CONTINUOUS
 10
0.241370
 20
-3.527717
  0
VERTEX
  8
COUCHE1
 62
    20
  6
CONTINUOUS
 10
0.501307
 20
-3.453449
  0
VERTEX
  8
COUCHE1
 62
    20
  6
CONTINUOUS
 10
0.603425
 20
-3.342047
  0
VERTEX
  8
COUCHE1
 62
    20
  6
CONTINUOUS
 10
0.668409
 20
-3.193512
  0
SEQEND
  8
0
  0
POLYLINE
  8
COUCHE1
 62
    20
  6
CONTINUOUS
 66
     1
 40
0.003000
 41
0.003000
  0
VERTEX
  8
COUCHE1
 62
    20
  6
CONTINUOUS
 10
-0.464173
 20
-3.109961
  0
VERTEX
  8
COUCHE1
 62
    20
  6
CONTINUOUS
 10
-0.668409
 20
-3.258496
  0
VERTEX
  8
COUCHE1
 62
    20
  6
CONTINUOUS
 10
-0.863362
 20
-3.304913
  0
VERTEX
  8
COUCHE1
 62
    20
  6
CONTINUOUS
 10
-1.021181
 20
-3.249213
  0
VERTEX
  8
COUCHE1
 62
    20
  6
CONTINUOUS
 10
-1.160433
 20
-3.249213
  0
VERTEX
  8
COUCHE1
 62
    20
  6
CONTINUOUS
 10
-1.281118
 20
-3.295630
  0
VERTEX
  8
COUCHE1
 62
    20
  6
CONTINUOUS
 10
-1.197567
 20
-3.165661
  0
VERTEX
  8
COUCHE1
 62
    20
  6
CONTINUOUS
 10
-1.058315
 20
-3.054260
  0
VERTEX
  8
COUCHE1
 62
    20
  6
CONTINUOUS
 10
-0.891213
 20
-2.915008
  0
SEQEND
  8
0
  0
POLYLINE
  8
COUCHE1
 62
    20
  6
CONTINUOUS
 66
     1
 40
0.003000
 41
0.003000
 70
     1
  0
VERTEX
  8
COUCHE1
 62
    20
  6
CONTINUOUS
 10
-0.176386
 20
2.529742
  0
VERTEX
  8
COUCHE1
 62
    20
  6
CONTINUOUS
 10
-0.181205
 20
2.517365
  0
VERTEX
  8
COUCHE1
 62
    20
  6
CONTINUOUS
 10
-0.190140
 20
2.517367
  0
VERTEX
  8
COUCHE1
 62
    20
  6
CONTINUOUS
 10
-0.194953
 20
2.529745
  0
VERTEX
  8
COUCHE1
 62
    20
  6
CONTINUOUS
 10
-0.190134
 20
2.542122
  0
VERTEX
  8
COUCHE1
 62
    20
  6
CONTINUOUS
 10
-0.181199
 20
2.542122
  0
VERTEX
  8
COUCHE1
 62
    20
  6
CONTINUOUS
 10
-0.176386
 20
2.529744
  0
SEQEND
  8
0
  0
POLYLINE
  8
COUCHE1
 62
    20
  6
CONTINUOUS
 66
     1
 40
0.003000
 41
0.003000
 70
     1
  0
VERTEX
  8
COUCHE1
 62
    20
  6
CONTINUOUS
 10
0.269220
 20
2.344072
  0
VERTEX
  8
COUCHE1
 62
    20
  6
CONTINUOUS
 10
0.264401
 20
2.331696
  0
VERTEX
  8
COUCHE1
 62
    20
  6
CONTINUOUS
 10
0.255466
 20
2.331698
  0
VERTEX
  8
COUCHE1
 62
    20
  6
CONTINUOUS
 10
0.250654
 20
2.344076
  0
VERTEX
  8
COUCHE1
 62
    20
  6
CONTINUOUS
 10
0.255472
 20
2.356453
  0
VERTEX
  8
COUCHE1
 62
    20
  6
CONTINUOUS
 10
0.264407
 20
2.356453
  0
VERTEX
  8
COUCHE1
 62
    20
  6
CONTINUOUS
 10
0.269220
 20
2.344075
  0
SEQEND
  8
0
  0
POLYLINE
  8
COUCHE1
 62
    20
  6
CONTINUOUS
 66
     1
 40
0.003000
 41
0.003000
  0
VERTEX
  8
COUCHE1
 62
    20
  6
CONTINUOUS
 10
-0.009283
 20
2.450835
  0
VERTEX
  8
COUCHE1
 62
    20
  6
CONTINUOUS
 10
-0.055701
 20
2.302299
  0
VERTEX
  8
COUCHE1
 62
    20
  6
CONTINUOUS
 10
-0.139252
 20
2.200181
  0
SEQEND
  8
0
  0
POLYLINE
  8
COUCHE1
 62
    20
  6
CONTINUOUS
 66
     1
 40
0.003000
 41
0.003000
  0
VERTEX
  8
COUCHE1
 62
    20
  6
CONTINUOUS
 10
-0.194953
 20
1.977378
  0
VERTEX
  8
COUCHE1
 62
    20
  6
CONTINUOUS
 10
-0.064984
 20
1.940244
  0
SEQEND
  8
0
  0
ENDSEC
  0
EOF
