  0
SECTION
  2
HEADER
  9
$ACADVER
  1
AC1004
  9
$EXTMIN
 10
-250.0912
 20
-860.7368
  9
$EXTMAX
 10
-247.6854
 20
-858.2216
  9
$LIMMIN
 10
-250.0912
 20
-860.7368
  9
$LIMMAX
 10
-247.6854
 20
-858.2216
  9
$INSBASE
 10
0.0
 20
0.0
  9
$VIEWCTR
 10
7.21903
 20
4.5
  9
$VIEWSIZE
 40
9.0
  9
$SNAPMODE
 70
     0
  9
$SNAPUNIT
 10
1.0
 20
1.0
  9
$SNAPBASE
 10
0.0
 20
0.0
  9
$SNAPANG
 50
0.0
  9
$SNAPSTYLE
 70
     0
  9
$SNAPISOPAIR
 70
     0
  9
$GRIDMODE
 70
     0
  9
$GRIDUNIT
 10
0.0
 20
0.0
  9
$ORTHOMODE
 70
     0
  9
$REGENMODE
 70
     1
  9
$FILLMODE
 70
     1
  9
$QTEXTMODE
 70
     0
  9
$DRAGMODE
 70
     2
  9
$LTSCALE
 40
1.0
  9
$OSMODE
 70
     0
  9
$ATTMODE
 70
     1
  9
$TEXTSIZE
 40
0.2
  9
$TRACEWID
 40
0.05
  9
$TEXTSTYLE
  7
STANDARD
  9
$CLAYER
  8
0
  9
$CELTYPE
  6
BYLAYER
  9
$CECOLOR
 62
   256
  9
$DIMSCALE
 40
1.0
  9
$DIMASZ
 40
0.18
  9
$DIMEXO
 40
0.0625
  9
$DIMDLI
 40
0.38
  9
$DIMRND
 40
0.0
  9
$DIMDLE
 40
0.0
  9
$DIMEXE
 40
0.18
  9
$DIMTP
 40
0.0
  9
$DIMTM
 40
0.0
  9
$DIMTXT
 40
0.18
  9
$DIMCEN
 40
0.09
  9
$DIMTSZ
 40
0.0
  9
$DIMTOL
 70
     0
  9
$DIMLIM
 70
     0
  9
$DIMTIH
 70
     1
  9
$DIMTOH
 70
     1
  9
$DIMSE1
 70
     0
  9
$DIMSE2
 70
     0
  9
$DIMTAD
 70
     0
  9
$DIMZIN
 70
     0
  9
$DIMBLK
  1

  9
$DIMASO
 70
     1
  9
$DIMSHO
 70
     0
  9
$DIMPOST
  1

  9
$DIMAPOST
  1

  9
$DIMALT
 70
     0
  9
$DIMALTD
 70
     2
  9
$DIMALTF
 40
25.4
  9
$DIMLFAC
 40
1.0
  9
$LUNITS
 70
     2
  9
$LUPREC
 70
     4
  9
$AXISMODE
 70
     0
  9
$AXISUNIT
 10
0.0
 20
0.0
  9
$SKETCHINC
 40
0.1
  9
$FILLETRAD
 40
0.0
  9
$AUNITS
 70
     0
  9
$AUPREC
 70
     0
  9
$MENU
  1
acad
  9
$ELEVATION
 40
0.0
  9
$THICKNESS
 40
0.0
  9
$VIEWDIR
 10
0.0
 20
0.0
 30
1.0
  9
$LIMCHECK
 70
     0
  9
$BLIPMODE
 70
     1
  9
$CHAMFERA
 40
0.0
  9
$CHAMFERB
 40
0.0
  9
$FASTZOOM
 70
     1
  9
$SKPOLY
 70
     0
  9
$TDCREATE
 40
2447222.5666886573
  9
$TDUPDATE
 40
2447222.5666886573
  9
$TDINDWG
 40
0.0000000000
  9
$TDUSRTIMER
 40
0.0000000000
  9
$USRTIMER
 70
     1
  9
$ANGBASE
 50
0.0
  9
$ANGDIR
 70
     0
  9
$PDMODE
 70
     0
  9
$PDSIZE
 40
0.0
  9
$PLINEWID
 40
0.0
  9
$COORDS
 70
     0
  9
$SPLFRAME
 70
     0
  9
$SPLINESEGS
 70
     8
  9
$ATTDIA
 70
     0
  9
$ATTREQ
 70
     1
  9
$USERI1
 70
     0
  9
$USERI2
 70
     0
  9
$USERI3
 70
     0
  9
$USERI4
 70
     0
  9
$USERI5
 70
     0
  9
$USERR1
 40
0.0
  9
$USERR2
 40
0.0
  9
$USERR3
 40
0.0
  9
$USERR4
 40
0.0
  9
$USERR5
 40
0.0
  0
ENDSEC
  0
SECTION
  2
TABLES
  0
TABLE
  2
LTYPE
 70
     13
  0
LTYPE
  2
CONTINUOUS
 70
    64
  3
Solid line
 72
    65
 73
     0
 40
0.0
  0
LTYPE
  2
DASHED
 70
    64
  3
__ __ __ __ __ __ __ __ __ __ __ __ __ __ __
 72
    65
 73
     2
 40
0.75
 49
0.5
 49
-0.25
  0
LTYPE
  2
HIDDEN
 70
    64
  3
_ _ _ _ _ _ _ _ _ _ _ _ _ _ _ _ _ _ _ _ _ _ _
 72
    65
 73
     2
 40
0.375
 49
0.25
 49
-0.125
  0
LTYPE
  2
CENTER
 70
    64
  3
____ _ ____ _ ____ _ ____ _ ____ _ ____ _ ____
 72
    65
 73
     4
 40
2.0
 49
1.25
 49
-0.25
 49
0.25
 49
-0.25
  0
LTYPE
  2
PHANTOM
 70
    64
  3
_____ _ _ _____ _ _ _____ _ _ _____ _ _ ____
 72
    65
 73
     6
 40
2.5
 49
1.25
 49
-0.25
 49
0.25
 49
-0.25
 49
0.25
 49
-0.25
  0
LTYPE
  2
DOT
 70
    64
  3
...............................................
 72
    65
 73
     2
 40
0.25
 49
0.0
 49
-0.25
  0
LTYPE
  2
DASHDOT
 70
    64
  3
__ . __ . __ . __ . __ . __ . __ . __ . __ . __
 72
    65
 73
     4
 40
1.0
 49
0.5
 49
-0.25
 49
0.0
 49
-0.25
  0
LTYPE
  2
BORDER
 70
    64
  3
__ __ . __ __ . __ __ . __ __ . __ __ . __ __
 72
    65
 73
     6
 40
1.75
 49
0.5
 49
-0.25
 49
0.5
 49
-0.25
 49
0.0
 49
-0.25
  0
LTYPE
  2
DIVIDE
 70
    64
  3
__ . . __ . . __ . . __ . . __ . . __ . . __
 72
    65
 73
     6
 40
1.25
 49
0.5
 49
-0.25
 49
0.0
 49
-0.25
 49
0.0
 49
-0.25
  0
LTYPE
  2
DCTYPE1
 70
    64
  3
__ . . __ . . __ . . __ . . __ . . __ . . __
 72
    65
 73
     8
 40
2.5
 49
0.5
 49
-0.25
 49
0.125
 49
-0.25
 49
0.25
 49
-0.25
 49
0.125
 49
-0.25
  0
LTYPE
  2
DCTYPE2
 70
    64
  3
__ . . __ . . __ . . __ . . __ . . __ . . __
 72
    65
 73
     6
 40
2.05
 49
1.0
 49
-0.3
 49
0.15
 49
-0.15
 49
0.15
 49
-0.3
  0
LTYPE
  2
DCTYPE3
 70
    64
  3
__ . . __ . . __ . . __ . . __ . . __ . . __
 72
    65
 73
     6
 40
2.5
 49
0.8
 49
-0.2
 49
0.8
 49
-0.2
 49
0.3
 49
-0.2
  0
LTYPE
  2
DCTYPE4
 70
    64
  3
__ . . __ . . __ . . __ . . __ . . __ . . __
 72
    65
 73
     10
 40
3.97
 49
1.75
 49
-0.3
 49
0.3
 49
-0.3
 49
0.06
 49
-0.3
 49
0.06
 49
-0.3
 49
0.3
 49
-0.3
  0
ENDTAB
  0
TABLE
  2
LAYER
 70
    153
  0
LAYER
  2
0
 70
 64
 62
     7
  6
CONTINUOUS
  0
ENDTAB
  0
ENDSEC
  0
SECTION
  2
BLOCKS
  0
ENDSEC
  0
SECTION
  2
ENTITIES
  0
CIRCLE
  8
0
 62
     7
  6
CONTINUOUS
 10
-248.6831
 20
-860.1772
 40
0.1999
  0
CIRCLE
  8
0
 62
     7
  6
CONTINUOUS
 10
-248.6831
 20
-860.1772
 40
0.0400
  0
ARC
  8
0
 62
     7
  6
CONTINUOUS
 10
-248.9877
 20
-860.3688
 40
0.0500
 50
46.1873
 51
136.1005
  0
ARC
  8
0
 62
     7
  6
CONTINUOUS
 10
-248.9877
 20
-860.3688
 40
0.0500
 50
46.1873
 51
-133.8738
  0
POLYLINE
  8
0
 62
     7
 66
     1
  6
CONTINUOUS
 40
0.0200
 41
0.0200
  0
VERTEX
  8
0
 62
     7
  6
CONTINUOUS
 10
-248.8915
 20
-860.5314
  0
VERTEX
  8
0
 62
     7
  6
CONTINUOUS
 10
-248.8850
 20
-860.5366
  0
VERTEX
  8
0
 62
     7
  6
CONTINUOUS
 10
-248.8776
 20
-860.5405
  0
VERTEX
  8
0
 62
     7
  6
CONTINUOUS
 10
-248.8696
 20
-860.5432
  0
VERTEX
  8
0
 62
     7
  6
CONTINUOUS
 10
-248.8612
 20
-860.5444
  0
VERTEX
  8
0
 62
     7
  6
CONTINUOUS
 10
-248.8527
 20
-860.5440
  0
VERTEX
  8
0
 62
     7
  6
CONTINUOUS
 10
-248.8444
 20
-860.5422
  0
VERTEX
  8
0
 62
     7
  6
CONTINUOUS
 10
-248.8363
 20
-860.5389
  0
VERTEX
  8
0
 62
     7
  6
CONTINUOUS
 10
-248.8289
 20
-860.5344
  0
VERTEX
  8
0
 62
     7
  6
CONTINUOUS
 10
-248.8224
 20
-860.5286
  0
SEQEND
  8
0
  0
POLYLINE
  8
0
 62
     7
 66
     1
  6
CONTINUOUS
 40
0.0200
 41
0.0200
  0
VERTEX
  8
0
 62
     7
  6
CONTINUOUS
 10
-248.8915
 20
-860.5314
  0
VERTEX
  8
0
 62
     7
  6
CONTINUOUS
 10
-248.8850
 20
-860.5366
  0
VERTEX
  8
0
 62
     7
  6
CONTINUOUS
 10
-248.8776
 20
-860.5405
  0
VERTEX
  8
0
 62
     7
  6
CONTINUOUS
 10
-248.8696
 20
-860.5432
  0
VERTEX
  8
0
 62
     7
  6
CONTINUOUS
 10
-248.8612
 20
-860.5444
  0
VERTEX
  8
0
 62
     7
  6
CONTINUOUS
 10
-248.8527
 20
-860.5440
  0
VERTEX
  8
0
 62
     7
  6
CONTINUOUS
 10
-248.8444
 20
-860.5422
  0
VERTEX
  8
0
 62
     7
  6
CONTINUOUS
 10
-248.8363
 20
-860.5389
  0
VERTEX
  8
0
 62
     7
  6
CONTINUOUS
 10
-248.8289
 20
-860.5344
  0
VERTEX
  8
0
 62
     7
  6
CONTINUOUS
 10
-248.8224
 20
-860.5286
  0
VERTEX
  8
0
 62
     7
  6
CONTINUOUS
 10
-248.8169
 20
-860.5218
  0
VERTEX
  8
0
 62
     7
  6
CONTINUOUS
 10
-248.8126
 20
-860.5143
  0
VERTEX
  8
0
 62
     7
  6
CONTINUOUS
 10
-248.8097
 20
-860.5061
  0
VERTEX
  8
0
 62
     7
  6
CONTINUOUS
 10
-248.8082
 20
-860.4976
  0
VERTEX
  8
0
 62
     7
  6
CONTINUOUS
 10
-248.8082
 20
-860.4891
  0
VERTEX
  8
0
 62
     7
  6
CONTINUOUS
 10
-248.8096
 20
-860.4808
  0
VERTEX
  8
0
 62
     7
  6
CONTINUOUS
 10
-248.8125
 20
-860.4729
  0
VERTEX
  8
0
 62
     7
  6
CONTINUOUS
 10
-248.8168
 20
-860.4657
  0
VERTEX
  8
0
 62
     7
  6
CONTINUOUS
 10
-248.8223
 20
-860.4593
  0
VERTEX
  8
0
 62
     7
  6
CONTINUOUS
 10
-248.8223
 20
-860.4593
  0
SEQEND
  8
0
  0
POLYLINE
  8
0
 62
     7
 66
     1
  6
CONTINUOUS
 40
0.0200
 41
0.0200
  0
VERTEX
  8
0
 62
     7
  6
CONTINUOUS
 10
-249.0224
 20
-860.4049
  0
VERTEX
  8
0
 62
     7
  6
CONTINUOUS
 10
-248.8915
 20
-860.5314
  0
SEQEND
  8
0
  0
POLYLINE
  8
0
 62
     7
 66
     1
  6
CONTINUOUS
 40
0.0200
 41
0.0200
  0
VERTEX
  8
0
 62
     7
  6
CONTINUOUS
 10
-248.9531
 20
-860.3328
  0
VERTEX
  8
0
 62
     7
  6
CONTINUOUS
 10
-248.8223
 20
-860.4593
  0
SEQEND
  8
0
  0
ARC
  8
0
 62
     7
  6
CONTINUOUS
 10
-248.4915
 20
-860.4819
 40
0.0500
 50
136.1752
 51
-133.9242
  0
ARC
  8
0
 62
     7
  6
CONTINUOUS
 10
-248.4915
 20
-860.4819
 40
0.0500
 50
136.1752
 51
-43.8369
  0
POLYLINE
  8
0
 62
     7
 66
     1
  6
CONTINUOUS
 40
0.0200
 41
0.0200
  0
VERTEX
  8
0
 62
     7
  6
CONTINUOUS
 10
-248.3289
 20
-860.3857
  0
VERTEX
  8
0
 62
     7
  6
CONTINUOUS
 10
-248.3236
 20
-860.3792
  0
VERTEX
  8
0
 62
     7
  6
CONTINUOUS
 10
-248.3197
 20
-860.3718
  0
VERTEX
  8
0
 62
     7
  6
CONTINUOUS
 10
-248.3171
 20
-860.3638
  0
VERTEX
  8
0
 62
     7
  6
CONTINUOUS
 10
-248.3160
 20
-860.3554
  0
VERTEX
  8
0
 62
     7
  6
CONTINUOUS
 10
-248.3163
 20
-860.3469
  0
VERTEX
  8
0
 62
     7
  6
CONTINUOUS
 10
-248.3182
 20
-860.3385
  0
VERTEX
  8
0
 62
     7
  6
CONTINUOUS
 10
-248.3214
 20
-860.3305
  0
VERTEX
  8
0
 62
     7
  6
CONTINUOUS
 10
-248.3260
 20
-860.3231
  0
VERTEX
  8
0
 62
     7
  6
CONTINUOUS
 10
-248.3317
 20
-860.3165
  0
SEQEND
  8
0
  0
POLYLINE
  8
0
 62
     7
 66
     1
  6
CONTINUOUS
 40
0.0200
 41
0.0200
  0
VERTEX
  8
0
 62
     7
  6
CONTINUOUS
 10
-248.3289
 20
-860.3857
  0
VERTEX
  8
0
 62
     7
  6
CONTINUOUS
 10
-248.3236
 20
-860.3792
  0
VERTEX
  8
0
 62
     7
  6
CONTINUOUS
 10
-248.3197
 20
-860.3718
  0
VERTEX
  8
0
 62
     7
  6
CONTINUOUS
 10
-248.3171
 20
-860.3638
  0
VERTEX
  8
0
 62
     7
  6
CONTINUOUS
 10
-248.3160
 20
-860.3554
  0
VERTEX
  8
0
 62
     7
  6
CONTINUOUS
 10
-248.3163
 20
-860.3469
  0
VERTEX
  8
0
 62
     7
  6
CONTINUOUS
 10
-248.3182
 20
-860.3385
  0
VERTEX
  8
0
 62
     7
  6
CONTINUOUS
 10
-248.3214
 20
-860.3305
  0
VERTEX
  8
0
 62
     7
  6
CONTINUOUS
 10
-248.3260
 20
-860.3231
  0
VERTEX
  8
0
 62
     7
  6
CONTINUOUS
 10
-248.3317
 20
-860.3165
  0
VERTEX
  8
0
 62
     7
  6
CONTINUOUS
 10
-248.3385
 20
-860.3111
  0
VERTEX
  8
0
 62
     7
  6
CONTINUOUS
 10
-248.3460
 20
-860.3068
  0
VERTEX
  8
0
 62
     7
  6
CONTINUOUS
 10
-248.3542
 20
-860.3039
  0
VERTEX
  8
0
 62
     7
  6
CONTINUOUS
 10
-248.3626
 20
-860.3023
  0
VERTEX
  8
0
 62
     7
  6
CONTINUOUS
 10
-248.3712
 20
-860.3023
  0
VERTEX
  8
0
 62
     7
  6
CONTINUOUS
 10
-248.3795
 20
-860.3038
  0
VERTEX
  8
0
 62
     7
  6
CONTINUOUS
 10
-248.3874
 20
-860.3067
  0
VERTEX
  8
0
 62
     7
  6
CONTINUOUS
 10
-248.3946
 20
-860.3110
  0
VERTEX
  8
0
 62
     7
  6
CONTINUOUS
 10
-248.4010
 20
-860.3164
  0
VERTEX
  8
0
 62
     7
  6
CONTINUOUS
 10
-248.4010
 20
-860.3164
  0
SEQEND
  8
0
  0
POLYLINE
  8
0
 62
     7
 66
     1
  6
CONTINUOUS
 40
0.0200
 41
0.0200
  0
VERTEX
  8
0
 62
     7
  6
CONTINUOUS
 10
-248.4555
 20
-860.5166
  0
VERTEX
  8
0
 62
     7
  6
CONTINUOUS
 10
-248.3289
 20
-860.3857
  0
SEQEND
  8
0
  0
POLYLINE
  8
0
 62
     7
 66
     1
  6
CONTINUOUS
 40
0.0200
 41
0.0200
  0
VERTEX
  8
0
 62
     7
  6
CONTINUOUS
 10
-248.5275
 20
-860.4473
  0
VERTEX
  8
0
 62
     7
  6
CONTINUOUS
 10
-248.4010
 20
-860.3164
  0
SEQEND
  8
0
  0
ARC
  8
0
 62
     7
  6
CONTINUOUS
 10
-248.3784
 20
-859.9857
 40
0.0500
 50
-133.8379
 51
-43.9498
  0
ARC
  8
0
 62
     7
  6
CONTINUOUS
 10
-248.3784
 20
-859.9857
 40
0.0500
 50
-133.8379
 51
46.1117
  0
POLYLINE
  8
0
 62
     7
 66
     1
  6
CONTINUOUS
 40
0.0200
 41
0.0200
  0
VERTEX
  8
0
 62
     7
  6
CONTINUOUS
 10
-248.4697
 20
-859.8256
  0
VERTEX
  8
0
 62
     7
  6
CONTINUOUS
 10
-248.4762
 20
-859.8203
  0
VERTEX
  8
0
 62
     7
  6
CONTINUOUS
 10
-248.4836
 20
-859.8163
  0
VERTEX
  8
0
 62
     7
  6
CONTINUOUS
 10
-248.4916
 20
-859.8138
  0
VERTEX
  8
0
 62
     7
  6
CONTINUOUS
 10
-248.5000
 20
-859.8126
  0
VERTEX
  8
0
 62
     7
  6
CONTINUOUS
 10
-248.5085
 20
-859.8130
  0
VERTEX
  8
0
 62
     7
  6
CONTINUOUS
 10
-248.5169
 20
-859.8148
  0
VERTEX
  8
0
 62
     7
  6
CONTINUOUS
 10
-248.5249
 20
-859.8181
  0
VERTEX
  8
0
 62
     7
  6
CONTINUOUS
 10
-248.5323
 20
-859.8226
  0
VERTEX
  8
0
 62
     7
  6
CONTINUOUS
 10
-248.5388
 20
-859.8284
  0
SEQEND
  8
0
  0
POLYLINE
  8
0
 62
     7
 66
     1
  6
CONTINUOUS
 40
0.0200
 41
0.0200
  0
VERTEX
  8
0
 62
     7
  6
CONTINUOUS
 10
-248.4746
 20
-859.8230
  0
VERTEX
  8
0
 62
     7
  6
CONTINUOUS
 10
-248.4811
 20
-859.8178
  0
VERTEX
  8
0
 62
     7
  6
CONTINUOUS
 10
-248.4885
 20
-859.8139
  0
VERTEX
  8
0
 62
     7
  6
CONTINUOUS
 10
-248.4965
 20
-859.8113
  0
VERTEX
  8
0
 62
     7
  6
CONTINUOUS
 10
-248.5049
 20
-859.8102
  0
VERTEX
  8
0
 62
     7
  6
CONTINUOUS
 10
-248.5135
 20
-859.8105
  0
VERTEX
  8
0
 62
     7
  6
CONTINUOUS
 10
-248.5218
 20
-859.8123
  0
VERTEX
  8
0
 62
     7
  6
CONTINUOUS
 10
-248.5299
 20
-859.8155
  0
VERTEX
  8
0
 62
     7
  6
CONTINUOUS
 10
-248.5372
 20
-859.8201
  0
VERTEX
  8
0
 62
     7
  6
CONTINUOUS
 10
-248.5438
 20
-859.8259
  0
VERTEX
  8
0
 62
     7
  6
CONTINUOUS
 10
-248.5493
 20
-859.8327
  0
VERTEX
  8
0
 62
     7
  6
CONTINUOUS
 10
-248.5536
 20
-859.8402
  0
VERTEX
  8
0
 62
     7
  6
CONTINUOUS
 10
-248.5565
 20
-859.8484
  0
VERTEX
  8
0
 62
     7
  6
CONTINUOUS
 10
-248.5580
 20
-859.8568
  0
VERTEX
  8
0
 62
     7
  6
CONTINUOUS
 10
-248.5580
 20
-859.8653
  0
VERTEX
  8
0
 62
     7
  6
CONTINUOUS
 10
-248.5565
 20
-859.8737
  0
VERTEX
  8
0
 62
     7
  6
CONTINUOUS
 10
-248.5536
 20
-859.8816
  0
VERTEX
  8
0
 62
     7
  6
CONTINUOUS
 10
-248.5493
 20
-859.8887
  0
VERTEX
  8
0
 62
     7
  6
CONTINUOUS
 10
-248.5439
 20
-859.8951
  0
VERTEX
  8
0
 62
     7
  6
CONTINUOUS
 10
-248.5439
 20
-859.8951
  0
SEQEND
  8
0
  0
POLYLINE
  8
0
 62
     7
 66
     1
  6
CONTINUOUS
 40
0.0200
 41
0.0200
  0
VERTEX
  8
0
 62
     7
  6
CONTINUOUS
 10
-248.3388
 20
-859.9521
  0
VERTEX
  8
0
 62
     7
  6
CONTINUOUS
 10
-248.4697
 20
-859.8256
  0
SEQEND
  8
0
  0
POLYLINE
  8
0
 62
     7
 66
     1
  6
CONTINUOUS
 40
0.0200
 41
0.0200
  0
VERTEX
  8
0
 62
     7
  6
CONTINUOUS
 10
-248.4130
 20
-860.0217
  0
VERTEX
  8
0
 62
     7
  6
CONTINUOUS
 10
-248.5439
 20
-859.8951
  0
SEQEND
  8
0
  0
ARC
  8
0
 62
     7
  6
CONTINUOUS
 10
-248.8746
 20
-859.8726
 40
0.0500
 50
-43.8490
 51
46.1747
  0
ARC
  8
0
 62
     7
  6
CONTINUOUS
 10
-248.8746
 20
-859.8726
 40
0.0500
 50
-43.8490
 51
136.1631
  0
POLYLINE
  8
0
 62
     7
 66
     1
  6
CONTINUOUS
 40
0.0200
 41
0.0200
  0
VERTEX
  8
0
 62
     7
  6
CONTINUOUS
 10
-249.0373
 20
-859.9688
  0
VERTEX
  8
0
 62
     7
  6
CONTINUOUS
 10
-249.0425
 20
-859.9753
  0
VERTEX
  8
0
 62
     7
  6
CONTINUOUS
 10
-249.0465
 20
-859.9827
  0
VERTEX
  8
0
 62
     7
  6
CONTINUOUS
 10
-249.0491
 20
-859.9907
  0
VERTEX
  8
0
 62
     7
  6
CONTINUOUS
 10
-249.0502
 20
-859.9991
  0
VERTEX
  8
0
 62
     7
  6
CONTINUOUS
 10
-249.0498
 20
-860.0075
  0
VERTEX
  8
0
 62
     7
  6
CONTINUOUS
 10
-249.0480
 20
-860.0160
  0
VERTEX
  8
0
 62
     7
  6
CONTINUOUS
 10
-249.0448
 20
-860.0240
  0
VERTEX
  8
0
 62
     7
  6
CONTINUOUS
 10
-249.0402
 20
-860.0314
  0
VERTEX
  8
0
 62
     7
  6
CONTINUOUS
 10
-249.0344
 20
-860.0379
  0
SEQEND
  8
0
  0
POLYLINE
  8
0
 62
     7
 66
     1
  6
CONTINUOUS
 40
0.0200
 41
0.0200
  0
VERTEX
  8
0
 62
     7
  6
CONTINUOUS
 10
-249.0373
 20
-859.9688
  0
VERTEX
  8
0
 62
     7
  6
CONTINUOUS
 10
-249.0425
 20
-859.9753
  0
VERTEX
  8
0
 62
     7
  6
CONTINUOUS
 10
-249.0465
 20
-859.9827
  0
VERTEX
  8
0
 62
     7
  6
CONTINUOUS
 10
-249.0491
 20
-859.9907
  0
VERTEX
  8
0
 62
     7
  6
CONTINUOUS
 10
-249.0502
 20
-859.9991
  0
VERTEX
  8
0
 62
     7
  6
CONTINUOUS
 10
-249.0498
 20
-860.0075
  0
VERTEX
  8
0
 62
     7
  6
CONTINUOUS
 10
-249.0480
 20
-860.0160
  0
VERTEX
  8
0
 62
     7
  6
CONTINUOUS
 10
-249.0448
 20
-860.0240
  0
VERTEX
  8
0
 62
     7
  6
CONTINUOUS
 10
-249.0402
 20
-860.0314
  0
VERTEX
  8
0
 62
     7
  6
CONTINUOUS
 10
-249.0344
 20
-860.0379
  0
VERTEX
  8
0
 62
     7
  6
CONTINUOUS
 10
-249.0277
 20
-860.0434
  0
VERTEX
  8
0
 62
     7
  6
CONTINUOUS
 10
-249.0201
 20
-860.0477
  0
VERTEX
  8
0
 62
     7
  6
CONTINUOUS
 10
-249.0120
 20
-860.0506
  0
VERTEX
  8
0
 62
     7
  6
CONTINUOUS
 10
-249.0035
 20
-860.0521
  0
VERTEX
  8
0
 62
     7
  6
CONTINUOUS
 10
-248.9950
 20
-860.0521
  0
VERTEX
  8
0
 62
     7
  6
CONTINUOUS
 10
-248.9866
 20
-860.0506
  0
VERTEX
  8
0
 62
     7
  6
CONTINUOUS
 10
-248.9788
 20
-860.0478
  0
VERTEX
  8
0
 62
     7
  6
CONTINUOUS
 10
-248.9715
 20
-860.0435
  0
VERTEX
  8
0
 62
     7
  6
CONTINUOUS
 10
-248.9652
 20
-860.0381
  0
VERTEX
  8
0
 62
     7
  6
CONTINUOUS
 10
-248.9652
 20
-860.0381
  0
SEQEND
  8
0
  0
POLYLINE
  8
0
 62
     7
 66
     1
  6
CONTINUOUS
 40
0.0200
 41
0.0200
  0
VERTEX
  8
0
 62
     7
  6
CONTINUOUS
 10
-248.9107
 20
-859.8379
  0
VERTEX
  8
0
 62
     7
  6
CONTINUOUS
 10
-249.0373
 20
-859.9688
  0
SEQEND
  8
0
  0
POLYLINE
  8
0
 62
     7
 66
     1
  6
CONTINUOUS
 40
0.0200
 41
0.0200
  0
VERTEX
  8
0
 62
     7
  6
CONTINUOUS
 10
-248.8386
 20
-859.9072
  0
VERTEX
  8
0
 62
     7
  6
CONTINUOUS
 10
-248.9652
 20
-860.0381
  0
SEQEND
  8
0
  0
CIRCLE
  8
0
 62
     7
  6
CONTINUOUS
 10
-249.0586
 20
-860.1882
 40
0.0446
  0
CIRCLE
  8
0
 62
     7
  6
CONTINUOUS
 10
-248.3052
 20
-860.1655
 40
0.0446
  0
POLYLINE
  8
0
 62
     7
 66
     1
  6
CONTINUOUS
 40
0.0200
 41
0.0200
  0
VERTEX
  8
0
 62
     7
  6
CONTINUOUS
 10
-249.4764
 20
-859.3362
  0
VERTEX
  8
0
 62
     7
  6
CONTINUOUS
 10
-249.4764
 20
-858.2366
  0
VERTEX
  8
0
 62
     7
  6
CONTINUOUS
 10
-247.9771
 20
-858.2366
  0
VERTEX
  8
0
 62
     7
  6
CONTINUOUS
 10
-247.9771
 20
-859.3361
  0
VERTEX
  8
0
 62
     7
  6
CONTINUOUS
 10
-249.4764
 20
-859.3362
  0
SEQEND
  8
0
  0
POLYLINE
  8
0
 62
     7
 66
     1
  6
CONTINUOUS
 40
0.0200
 41
0.0200
  0
VERTEX
  8
0
 62
     7
  6
CONTINUOUS
 10
-249.4764
 20
-858.2366
  0
VERTEX
  8
0
 62
     7
  6
CONTINUOUS
 10
-249.4764
 20
-858.5865
  0
SEQEND
  8
0
  0
POLYLINE
  8
0
 62
     7
 66
     1
  6
CONTINUOUS
 40
0.0200
 41
0.0200
  0
VERTEX
  8
0
 62
     7
  6
CONTINUOUS
 10
-249.4764
 20
-858.5865
  0
VERTEX
  8
0
 62
     7
  6
CONTINUOUS
 10
-249.4764
 20
-858.9863
  0
VERTEX
  8
0
 62
     7
  6
CONTINUOUS
 10
-249.5764
 20
-858.9863
  0
VERTEX
  8
0
 62
     7
  6
CONTINUOUS
 10
-249.5764
 20
-858.5865
  0
VERTEX
  8
0
 62
     7
  6
CONTINUOUS
 10
-249.4764
 20
-858.5865
  0
SEQEND
  8
0
  0
POLYLINE
  8
0
 62
     7
 66
     1
  6
CONTINUOUS
 40
0.0200
 41
0.0200
  0
VERTEX
  8
0
 62
     7
  6
CONTINUOUS
 10
-249.5764
 20
-858.5865
  0
VERTEX
  8
0
 62
     7
  6
CONTINUOUS
 10
-249.5764
 20
-858.7464
  0
SEQEND
  8
0
  0
POLYLINE
  8
0
 62
     7
 66
     1
  6
CONTINUOUS
 40
0.0200
 41
0.0200
  0
VERTEX
  8
0
 62
     7
  6
CONTINUOUS
 10
-249.5764
 20
-858.7464
  0
VERTEX
  8
0
 62
     7
  6
CONTINUOUS
 10
-249.5764
 20
-858.8264
  0
VERTEX
  8
0
 62
     7
  6
CONTINUOUS
 10
-250.0762
 20
-858.8264
  0
VERTEX
  8
0
 62
     7
  6
CONTINUOUS
 10
-250.0762
 20
-858.7464
  0
VERTEX
  8
0
 62
     7
  6
CONTINUOUS
 10
-249.5764
 20
-858.7464
  0
SEQEND
  8
0
  0
POLYLINE
  8
0
 62
     7
 66
     1
  6
CONTINUOUS
 40
0.0200
 41
0.0200
  0
VERTEX
  8
0
 62
     7
  6
CONTINUOUS
 10
-248.4211
 20
-858.9643
  0
VERTEX
  8
0
 62
     7
  6
CONTINUOUS
 10
-248.4200
 20
-858.9782
  0
VERTEX
  8
0
 62
     7
  6
CONTINUOUS
 10
-248.4166
 20
-858.9916
  0
VERTEX
  8
0
 62
     7
  6
CONTINUOUS
 10
-248.4111
 20
-859.0042
  0
VERTEX
  8
0
 62
     7
  6
CONTINUOUS
 10
-248.4036
 20
-859.0157
  0
VERTEX
  8
0
 62
     7
  6
CONTINUOUS
 10
-248.3944
 20
-859.0254
  0
VERTEX
  8
0
 62
     7
  6
CONTINUOUS
 10
-248.3837
 20
-859.0335
  0
VERTEX
  8
0
 62
     7
  6
CONTINUOUS
 10
-248.3718
 20
-859.0393
  0
VERTEX
  8
0
 62
     7
  6
CONTINUOUS
 10
-248.3592
 20
-859.0429
  0
VERTEX
  8
0
 62
     7
  6
CONTINUOUS
 10
-248.3462
 20
-859.0441
  0
SEQEND
  8
0
  0
POLYLINE
  8
0
 62
     7
 66
     1
  6
CONTINUOUS
 40
0.0200
 41
0.0200
  0
VERTEX
  8
0
 62
     7
  6
CONTINUOUS
 10
-248.4211
 20
-858.9643
  0
VERTEX
  8
0
 62
     7
  6
CONTINUOUS
 10
-248.4200
 20
-858.9782
  0
VERTEX
  8
0
 62
     7
  6
CONTINUOUS
 10
-248.4166
 20
-858.9916
  0
VERTEX
  8
0
 62
     7
  6
CONTINUOUS
 10
-248.4111
 20
-859.0042
  0
VERTEX
  8
0
 62
     7
  6
CONTINUOUS
 10
-248.4036
 20
-859.0157
  0
VERTEX
  8
0
 62
     7
  6
CONTINUOUS
 10
-248.3944
 20
-859.0254
  0
VERTEX
  8
0
 62
     7
  6
CONTINUOUS
 10
-248.3837
 20
-859.0335
  0
VERTEX
  8
0
 62
     7
  6
CONTINUOUS
 10
-248.3718
 20
-859.0393
  0
VERTEX
  8
0
 62
     7
  6
CONTINUOUS
 10
-248.3592
 20
-859.0429
  0
VERTEX
  8
0
 62
     7
  6
CONTINUOUS
 10
-248.3462
 20
-859.0441
  0
VERTEX
  8
0
 62
     7
  6
CONTINUOUS
 10
-248.3332
 20
-859.0429
  0
VERTEX
  8
0
 62
     7
  6
CONTINUOUS
 10
-248.3205
 20
-859.0394
  0
VERTEX
  8
0
 62
     7
  6
CONTINUOUS
 10
-248.3087
 20
-859.0334
  0
VERTEX
  8
0
 62
     7
  6
CONTINUOUS
 10
-248.2980
 20
-859.0254
  0
VERTEX
  8
0
 62
     7
  6
CONTINUOUS
 10
-248.2887
 20
-859.0156
  0
VERTEX
  8
0
 62
     7
  6
CONTINUOUS
 10
-248.2812
 20
-859.0042
  0
VERTEX
  8
0
 62
     7
  6
CONTINUOUS
 10
-248.2757
 20
-858.9917
  0
VERTEX
  8
0
 62
     7
  6
CONTINUOUS
 10
-248.2723
 20
-858.9782
  0
VERTEX
  8
0
 62
     7
  6
CONTINUOUS
 10
-248.2712
 20
-858.9644
  0
VERTEX
  8
0
 62
     7
  6
CONTINUOUS
 10
-248.2712
 20
-858.9644
  0
SEQEND
  8
0
  0
POLYLINE
  8
0
 62
     7
 66
     1
  6
CONTINUOUS
 40
0.0200
 41
0.0200
  0
VERTEX
  8
0
 62
     7
  6
CONTINUOUS
 10
-248.2703
 20
-858.6609
  0
VERTEX
  8
0
 62
     7
  6
CONTINUOUS
 10
-248.2714
 20
-858.6464
  0
VERTEX
  8
0
 62
     7
  6
CONTINUOUS
 10
-248.2748
 20
-858.6324
  0
VERTEX
  8
0
 62
     7
  6
CONTINUOUS
 10
-248.2803
 20
-858.6193
  0
VERTEX
  8
0
 62
     7
  6
CONTINUOUS
 10
-248.2878
 20
-858.6073
  0
VERTEX
  8
0
 62
     7
  6
CONTINUOUS
 10
-248.2971
 20
-858.5970
  0
VERTEX
  8
0
 62
     7
  6
CONTINUOUS
 10
-248.3078
 20
-858.5887
  0
VERTEX
  8
0
 62
     7
  6
CONTINUOUS
 10
-248.3196
 20
-858.5826
  0
VERTEX
  8
0
 62
     7
  6
CONTINUOUS
 10
-248.3323
 20
-858.5789
  0
VERTEX
  8
0
 62
     7
  6
CONTINUOUS
 10
-248.3453
 20
-858.5776
  0
VERTEX
  8
0
 62
     7
  6
CONTINUOUS
 10
-248.3453
 20
-858.5776
  0
SEQEND
  8
0
  0
POLYLINE
  8
0
 62
     7
 66
     1
  6
CONTINUOUS
 40
0.0200
 41
0.0200
  0
VERTEX
  8
0
 62
     7
  6
CONTINUOUS
 10
-248.2703
 20
-858.6609
  0
VERTEX
  8
0
 62
     7
  6
CONTINUOUS
 10
-248.2714
 20
-858.6464
  0
VERTEX
  8
0
 62
     7
  6
CONTINUOUS
 10
-248.2748
 20
-858.6324
  0
VERTEX
  8
0
 62
     7
  6
CONTINUOUS
 10
-248.2803
 20
-858.6193
  0
VERTEX
  8
0
 62
     7
  6
CONTINUOUS
 10
-248.2878
 20
-858.6073
  0
VERTEX
  8
0
 62
     7
  6
CONTINUOUS
 10
-248.2971
 20
-858.5970
  0
VERTEX
  8
0
 62
     7
  6
CONTINUOUS
 10
-248.3078
 20
-858.5887
  0
VERTEX
  8
0
 62
     7
  6
CONTINUOUS
 10
-248.3196
 20
-858.5826
  0
VERTEX
  8
0
 62
     7
  6
CONTINUOUS
 10
-248.3323
 20
-858.5789
  0
VERTEX
  8
0
 62
     7
  6
CONTINUOUS
 10
-248.3453
 20
-858.5776
  0
VERTEX
  8
0
 62
     7
  6
CONTINUOUS
 10
-248.3583
 20
-858.5789
  0
VERTEX
  8
0
 62
     7
  6
CONTINUOUS
 10
-248.3709
 20
-858.5826
  0
VERTEX
  8
0
 62
     7
  6
CONTINUOUS
 10
-248.3828
 20
-858.5887
  0
VERTEX
  8
0
 62
     7
  6
CONTINUOUS
 10
-248.3934
 20
-858.5970
  0
VERTEX
  8
0
 62
     7
  6
CONTINUOUS
 10
-248.4027
 20
-858.6074
  0
VERTEX
  8
0
 62
     7
  6
CONTINUOUS
 10
-248.4102
 20
-858.6192
  0
VERTEX
  8
0
 62
     7
  6
CONTINUOUS
 10
-248.4157
 20
-858.6325
  0
VERTEX
  8
0
 62
     7
  6
CONTINUOUS
 10
-248.4191
 20
-858.6464
  0
VERTEX
  8
0
 62
     7
  6
CONTINUOUS
 10
-248.4202
 20
-858.6609
  0
VERTEX
  8
0
 62
     7
  6
CONTINUOUS
 10
-248.4202
 20
-858.6609
  0
SEQEND
  8
0
  0
POLYLINE
  8
0
 62
     7
 66
     1
  6
CONTINUOUS
 40
0.0200
 41
0.0200
  0
VERTEX
  8
0
 62
     7
  6
CONTINUOUS
 10
-248.4191
 20
-858.6464
  0
VERTEX
  8
0
 62
     7
  6
CONTINUOUS
 10
-248.4191
 20
-858.9643
  0
SEQEND
  8
0
  0
POLYLINE
  8
0
 62
     7
 66
     1
  6
CONTINUOUS
 40
0.0200
 41
0.0200
  0
VERTEX
  8
0
 62
     7
  6
CONTINUOUS
 10
-248.2714
 20
-858.6464
  0
VERTEX
  8
0
 62
     7
  6
CONTINUOUS
 10
-248.2714
 20
-858.9643
  0
SEQEND
  8
0
  0
POLYLINE
  8
0
 62
     7
 66
     1
  6
CONTINUOUS
 40
0.0200
 41
0.0200
  0
VERTEX
  8
0
 62
     7
  6
CONTINUOUS
 10
-247.9503
 20
-858.7253
  0
VERTEX
  8
0
 62
     7
  6
CONTINUOUS
 10
-247.9503
 20
-858.8252
  0
VERTEX
  8
0
 62
     7
  6
CONTINUOUS
 10
-247.7004
 20
-858.8251
  0
VERTEX
  8
0
 62
     7
  6
CONTINUOUS
 10
-247.7004
 20
-858.7251
  0
VERTEX
  8
0
 62
     7
  6
CONTINUOUS
 10
-247.9503
 20
-858.7253
  0
SEQEND
  8
0
  0
TEXT
  8
0
 62
     7
 10
-249.3504
 20
-858.5077
 40
0.2000
  1
Speed 400
 72
     5
 11
-248.1743
 21
-858.5076
  0
CIRCLE
  8
0
 62
     7
  6
CONTINUOUS
 10
-248.6831
 20
-860.1772
 40
0.5500
  0
ENDSEC
  0
EOF
