  0
SECTION
  2
HEADER
  9
$ACADVER
  1
AC1003
  9
$INSBASE
 10
0.0
 20
0.0
  9
$EXTMIN
 10
-150
 20
-150
  9
$EXTMAX
 10
150
 20
150
  9
$LIMMIN
 10
0.0
 20
0.0
  9
$LIMMAX
 10
300.0
 20
225.0
  9
$VIEWCTR
 10
7.378144
 20
4.5
  9
$VIEWSIZE
 40
9.0
  9
$SNAPMODE
 70
     0
  9
$SNAPUNIT
 10
1.0
 20
1.0
  9
$SNAPBASE
 10
0.0
 20
0.0
  9
$SNAPANG
 50
0.0
  9
$SNAPSTYLE
 70
     0
  9
$SNAPISOPAIR
 70
     0
  9
$GRIDMODE
 70
     0
  9
$GRIDUNIT
 10
0.0
 20
0.0
  9
$ORTHOMODE
 70
     0
  9
$REGENMODE
 70
     1
  9
$FILLMODE
 70
     1
  9
$QTEXTMODE
 70
     0
  9
$DRAGMODE
 70
     2
  9
$LTSCALE
 40
1.0
  9
$OSMODE
 70
     0
  9
$ATTMODE
 70
     1
  9
$TEXTSIZE
 40
0.2
  9
$TRACEWID
 40
0.05
  9
$TEXTSTYLE
  7
STANDARD
  9
$CLAYER
  8
0
  9
$CELTYPE
  6
BYLAYER
  9
$CECOLOR
 62
   256
  9
$DIMSCALE
 40
1.0
  9
$DIMASZ
 40
0.18
  9
$DIMEXO
 40
0.0625
  9
$DIMDLI
 40
0.38
  9
$DIMRND
 40
0.0
  9
$DIMDLE
 40
0.0
  9
$DIMEXE
 40
0.18
  9
$DIMTP
 40
0.0
  9
$DIMTM
 40
0.0
  9
$DIMTXT
 40
0.18
  9
$DIMCEN
 40
0.09
  9
$DIMTSZ
 40
0.0
  9
$DIMTOL
 70
     0
  9
$DIMLIM
 70
     0
  9
$DIMTIH
 70
     1
  9
$DIMTOH
 70
     1
  9
$DIMSE1
 70
     0
  9
$DIMSE2
 70
     0
  9
$DIMTAD
 70
     0
  9
$DIMZIN
 70
     0
  9
$DIMBLK
  1

  9
$DIMASO
 70
     1
  9
$DIMSHO
 70
     0
  9
$DIMPOST
  1

  9
$DIMAPOST
  1

  9
$DIMALT
 70
     0
  9
$DIMALTD
 70
     2
  9
$DIMALTF
 40
25.4
  9
$DIMLFAC
 40
1.0
  9
$LUNITS
 70
     2
  9
$LUPREC
 70
     4
  9
$AXISMODE
 70
     0
  9
$AXISUNIT
 10
0.0
 20
0.0
  9
$SKETCHINC
 40
0.1
  9
$FILLETRAD
 40
0.0
  9
$AUNITS
 70
     0
  9
$AUPREC
 70
     0
  9
$MENU
  1
ACAD
  9
$ELEVATION
 40
0.0
  9
$THICKNESS
 40
0.0
  9
$VIEWDIR
 10
0.0
 20
0.0
 30
1.0
  9
$LIMCHECK
 70
     0
  9
$BLIPMODE
 70
     1
  9
$CHAMFERA
 40
0.0
  9
$CHAMFERB
 40
0.0
  9
$FASTZOOM
 70
     1
  9
$SKPOLY
 70
     0
  9
$TDCREATE
 40
2447732.6512363921
  9
$TDUPDATE
 40
2447732.6512363921
  9
$TDINDWG
 40
0.0000000000
  9
$TDUSRTIMER
 40
0.0000000000
  9
$USRTIMER
 70
     1
  9
$ANGBASE
 50
0.0
  9
$ANGDIR
 70
     0
  9
$PDMODE
 70
     0
  9
$PDSIZE
 40
0.0
  9
$PLINEWID
 40
0.0
  9
$COORDS
 70
     0
  9
$USERI1
 70
     0
  9
$USERI2
 70
     0
  9
$USERI3
 70
     0
  9
$USERI4
 70
     0
  9
$USERI5
 70
     0
  9
$USERR1
 40
0.0
  9
$USERR2
 40
0.0
  9
$USERR3
 40
0.0
  9
$USERR4
 40
0.0
  9
$USERR5
 40
0.0
  0
ENDSEC
  0
SECTION
  2
TABLES
  0
TABLE
  2
LTYPE
  70
     2
  0
LTYPE
  2
CONTINUOUS
 70
    64
  3
Solid line
 72
    65
 73
     0
 40
0.0
  0
ENDTAB
  0
TABLE
  2
LAYER
 70
     9
  0
LAYER
  2
0
 70
     0
 62
     7
  6
CONTINUOUS
  0
LAYER
  2
1
 70
     0
 62
     1
  6
CONTINUOUS
  0
LAYER
  2
2
 70
     0
 62
     2
  6
CONTINUOUS
  0
LAYER
  2
3
 70
     0
 62
     3
  6
CONTINUOUS
  0
LAYER
  2
4
 70
     0
 62
     4
  6
CONTINUOUS
  0
LAYER
  2
5
 70
     0
 62
     5
  6
CONTINUOUS
  0
LAYER
  2
6
 70
     0
 62
     6
  6
CONTINUOUS
  0
LAYER
  2
7
 70
     0
 62
     7
  6
CONTINUOUS
  0
LAYER
  2
8
 70
     0
 62
     7
  6
CONTINUOUS
  0
ENDTAB
  0
TABLE
  2
STYLE
 70
     5
  0
STYLE
  2
STANDARD
 70
     0
 40
0.0
 41
1.0
 50
0.0
 71
     0
 42
0.2
  3
TXT
  4

  0
STYLE
  2
GREEK
 70
     0
 40
0.0
 41
1.0
 50
0.0
 71
     0
 42
0.2
  3
GREEKC
  4

  0
STYLE
  2
ITALICC
 70
     0
 40
0.0
 41
1.0
 50
0.0
 71
     0
 42
0.2
  3
ITALICC
  4

  0
STYLE
  2
MONOTXT
 70
     0
 40
0.0
 41
1.0
 50
0.0
 71
     0
 42
0.2
  3
MONOTXT
  4

  0
STYLE
  2
GOTHICE
 70
     0
 40
0.0
 41
1.0
 50
0.0
 71
     0
 42
0.2
  3
GOTHICE
  4

  0
ENDTAB
  0
TABLE
  2
VIEW
 70
     0
  0
ENDTAB
  0
ENDSEC
  0
SECTION
  2
BLOCKS
  0
ENDSEC
  0
SECTION
  2
ENTITIES
  0
POLYLINE
  8
7
  6
CONTINUOUS
 66
  1
  0
VERTEX
  8
7
  10
-45.763
  20
95.007
  0
VERTEX
  8
7
  10
-41.240
  20
102.275
  0
VERTEX
  8
7
  10
-32.219
  20
102.580
  0
VERTEX
  8
7
  10
-28.001
  20
98.031
  0
VERTEX
  8
7
  10
-25.587
  20
88.401
  0
VERTEX
  8
7
  10
-25.511
  20
87.918
  0
VERTEX
  8
7
  10
-25.359
  20
86.648
  0
VERTEX
  8
7
  10
-25.105
  20
84.843
  0
VERTEX
  8
7
  10
-24.825
  20
82.785
  0
VERTEX
  8
7
  10
-24.571
  20
80.752
  0
VERTEX
  8
7
  10
-24.317
  20
78.948
  0
VERTEX
  8
7
  10
-24.164
  20
77.703
  0
VERTEX
  8
7
  10
-24.088
  20
77.220
  0
VERTEX
  8
7
  10
-24.088
  20
75.594
  0
VERTEX
  8
7
  10
-24.088
  20
72.062
  0
VERTEX
  8
7
  10
-24.088
  20
68.530
  0
VERTEX
  8
7
  10
-24.088
  20
66.929
  0
VERTEX
  8
7
  10
-24.037
  20
66.447
  0
VERTEX
  8
7
  10
-23.910
  20
65.176
  0
VERTEX
  8
7
  10
-23.707
  20
63.372
  0
VERTEX
  8
7
  10
-23.478
  20
61.314
  0
VERTEX
  8
7
  10
-23.275
  20
59.256
  0
VERTEX
  8
7
  10
-23.072
  20
57.452
  0
VERTEX
  8
7
  10
-22.945
  20
56.206
  0
VERTEX
  8
7
  10
-22.894
  20
55.724
  0
VERTEX
  8
7
  10
-22.843
  20
55.749
  0
VERTEX
  8
7
  10
-22.691
  20
55.851
  0
VERTEX
  8
7
  10
-22.437
  20
56.003
  0
VERTEX
  8
7
  10
-22.132
  20
56.181
  0
VERTEX
  8
7
  10
-21.776
  20
56.410
  0
VERTEX
  8
7
  10
-21.369
  20
56.664
  0
VERTEX
  8
7
  10
-20.937
  20
56.943
  0
VERTEX
  8
7
  10
-20.480
  20
57.223
  0
VERTEX
  8
7
  10
-20.023
  20
57.502
  0
VERTEX
  8
7
  10
-19.591
  20
57.782
  0
VERTEX
  8
7
  10
-19.184
  20
58.036
  0
VERTEX
  8
7
  10
-18.828
  20
58.265
  0
VERTEX
  8
7
  10
-18.523
  20
58.468
  0
VERTEX
  8
7
  10
-18.269
  20
58.620
  0
VERTEX
  8
7
  10
-18.117
  20
58.697
  0
VERTEX
  8
7
  10
-18.066
  20
58.747
  0
VERTEX
  8
7
  10
-17.990
  20
58.849
  0
VERTEX
  8
7
  10
-17.736
  20
59.103
  0
VERTEX
  8
7
  10
-17.380
  20
59.535
  0
VERTEX
  8
7
  10
-16.897
  20
60.094
  0
VERTEX
  8
7
  10
-16.313
  20
60.755
  0
VERTEX
  8
7
  10
-15.677
  20
61.492
  0
VERTEX
  8
7
  10
-15.017
  20
62.305
  0
VERTEX
  8
7
  10
-14.305
  20
63.118
  0
VERTEX
  8
7
  10
-13.594
  20
63.931
  0
VERTEX
  8
7
  10
-12.933
  20
64.719
  0
VERTEX
  8
7
  10
-12.298
  20
65.456
  0
VERTEX
  8
7
  10
-11.714
  20
66.142
  0
VERTEX
  8
7
  10
-11.231
  20
66.701
  0
VERTEX
  8
7
  10
-10.875
  20
67.133
  0
VERTEX
  8
7
  10
-10.621
  20
67.412
  0
VERTEX
  8
7
  10
-10.545
  20
67.514
  0
VERTEX
  8
7
  10
-10.468
  20
67.412
  0
VERTEX
  8
7
  10
-10.240
  20
67.107
  0
VERTEX
  8
7
  10
-9.884
  20
66.625
  0
VERTEX
  8
7
  10
-9.401
  20
66.040
  0
VERTEX
  8
7
  10
-8.868
  20
65.329
  0
VERTEX
  8
7
  10
-8.258
  20
64.541
  0
VERTEX
  8
7
  10
-7.597
  20
63.677
  0
VERTEX
  8
7
  10
-6.911
  20
62.813
  0
VERTEX
  8
7
  10
-6.250
  20
61.924
  0
VERTEX
  8
7
  10
-5.590
  20
61.085
  0
VERTEX
  8
7
  10
-4.980
  20
60.297
  0
VERTEX
  8
7
  10
-4.446
  20
59.586
  0
VERTEX
  8
7
  10
-3.963
  20
59.002
  0
VERTEX
  8
7
  10
-3.608
  20
58.544
  0
VERTEX
  8
7
  10
-3.379
  20
58.239
  0
VERTEX
  8
7
  10
-3.303
  20
58.138
  0
VERTEX
  8
7
  10
-3.125
  20
57.553
  0
VERTEX
  8
7
  10
-2.693
  20
56.054
  0
VERTEX
  8
7
  10
-2.058
  20
53.920
  0
VERTEX
  8
7
  10
-1.346
  20
51.455
  0
VERTEX
  8
7
  10
-0.635
  20
49.015
  0
VERTEX
  8
7
  10
0.000
  20
46.881
  0
VERTEX
  8
7
  10
0.431
  20
45.382
  0
VERTEX
  8
7
  10
0.609
  20
44.823
  0
VERTEX
  8
7
  10
0.457
  20
44.365
  0
VERTEX
  8
7
  10
0.101
  20
43.197
  0
VERTEX
  8
7
  10
-0.431
  20
41.545
  0
VERTEX
  8
7
  10
-1.041
  20
39.665
  0
VERTEX
  8
7
  10
-1.677
  20
37.784
  0
VERTEX
  8
7
  10
-2.210
  20
36.158
  0
VERTEX
  8
7
  10
-2.566
  20
34.989
  0
VERTEX
  8
7
  10
-2.718
  20
34.557
  0
VERTEX
  8
7
  10
-2.795
  20
34.506
  0
VERTEX
  8
7
  10
-3.023
  20
34.405
  0
VERTEX
  8
7
  10
-3.379
  20
34.201
  0
VERTEX
  8
7
  10
-3.836
  20
33.973
  0
VERTEX
  8
7
  10
-4.395
  20
33.693
  0
VERTEX
  8
7
  10
-5.005
  20
33.388
  0
VERTEX
  8
7
  10
-5.666
  20
33.058
  0
VERTEX
  8
7
  10
-6.327
  20
32.728
  0
VERTEX
  8
7
  10
-6.987
  20
32.372
  0
VERTEX
  8
7
  10
-7.648
  20
32.067
  0
VERTEX
  8
7
  10
-8.258
  20
31.762
  0
VERTEX
  8
7
  10
-8.817
  20
31.482
  0
VERTEX
  8
7
  10
-9.274
  20
31.254
  0
VERTEX
  8
7
  10
-9.630
  20
31.076
  0
VERTEX
  8
7
  10
-9.859
  20
30.949
  0
VERTEX
  8
7
  10
-9.935
  20
30.923
  0
VERTEX
  8
7
  10
-10.113
  20
30.873
  0
VERTEX
  8
7
  10
-10.621
  20
30.771
  0
VERTEX
  8
7
  10
-11.409
  20
30.593
  0
VERTEX
  8
7
  10
-12.425
  20
30.390
  0
VERTEX
  8
7
  10
-13.645
  20
30.136
  0
VERTEX
  8
7
  10
-14.991
  20
29.856
  0
VERTEX
  8
7
  10
-16.414
  20
29.551
  0
VERTEX
  8
7
  10
-17.914
  20
29.246
  0
VERTEX
  8
7
  10
-19.413
  20
28.941
  0
VERTEX
  8
7
  10
-20.836
  20
28.637
  0
VERTEX
  8
7
  10
-22.182
  20
28.357
  0
VERTEX
  8
7
  10
-23.402
  20
28.103
  0
VERTEX
  8
7
  10
-24.419
  20
27.900
  0
VERTEX
  8
7
  10
-25.206
  20
27.722
  0
VERTEX
  8
7
  10
-25.714
  20
27.620
  0
VERTEX
  8
7
  10
-25.892
  20
27.595
  0
VERTEX
  8
7
  10
-25.943
  20
27.595
  0
VERTEX
  8
7
  10
-26.121
  20
27.569
  0
VERTEX
  8
7
  10
-26.426
  20
27.569
  0
VERTEX
  8
7
  10
-26.807
  20
27.544
  0
VERTEX
  8
7
  10
-27.290
  20
27.493
  0
VERTEX
  8
7
  10
-27.874
  20
27.468
  0
VERTEX
  8
7
  10
-28.510
  20
27.442
  0
VERTEX
  8
7
  10
-29.221
  20
27.391
  0
VERTEX
  8
7
  10
-30.009
  20
27.341
  0
VERTEX
  8
7
  10
-30.847
  20
27.290
  0
VERTEX
  8
7
  10
-31.711
  20
27.239
  0
VERTEX
  8
7
  10
-32.651
  20
27.188
  0
VERTEX
  8
7
  10
-33.592
  20
27.137
  0
VERTEX
  8
7
  10
-34.583
  20
27.087
  0
VERTEX
  8
7
  10
-35.573
  20
27.036
  0
VERTEX
  8
7
  10
-36.564
  20
26.960
  0
VERTEX
  8
7
  10
-37.555
  20
26.909
  0
VERTEX
  8
7
  10
-38.546
  20
26.858
  0
VERTEX
  8
7
  10
-39.537
  20
26.807
  0
VERTEX
  8
7
  10
-40.478
  20
26.731
  0
VERTEX
  8
7
  10
-41.392
  20
26.680
  0
VERTEX
  8
7
  10
-42.282
  20
26.629
  0
VERTEX
  8
7
  10
-43.120
  20
26.604
  0
VERTEX
  8
7
  10
-43.883
  20
26.553
  0
VERTEX
  8
7
  10
-44.619
  20
26.502
  0
VERTEX
  8
7
  10
-45.255
  20
26.477
  0
VERTEX
  8
7
  10
-45.814
  20
26.451
  0
VERTEX
  8
7
  10
-46.297
  20
26.426
  0
VERTEX
  8
7
  10
-46.678
  20
26.400
  0
VERTEX
  8
7
  10
-46.983
  20
26.375
  0
VERTEX
  8
7
  10
-47.160
  20
26.375
  0
VERTEX
  8
7
  10
-47.211
  20
26.375
  0
VERTEX
  8
7
  10
-47.262
  20
26.375
  0
VERTEX
  8
7
  10
-47.440
  20
26.375
  0
VERTEX
  8
7
  10
-47.719
  20
26.400
  0
VERTEX
  8
7
  10
-48.075
  20
26.400
  0
VERTEX
  8
7
  10
-48.533
  20
26.426
  0
VERTEX
  8
7
  10
-49.092
  20
26.451
  0
VERTEX
  8
7
  10
-49.701
  20
26.477
  0
VERTEX
  8
7
  10
-50.388
  20
26.502
  0
VERTEX
  8
7
  10
-51.124
  20
26.528
  0
VERTEX
  8
7
  10
-51.912
  20
26.578
  0
VERTEX
  8
7
  10
-52.751
  20
26.604
  0
VERTEX
  8
7
  10
-53.615
  20
26.655
  0
VERTEX
  8
7
  10
-54.504
  20
26.680
  0
VERTEX
  8
7
  10
-55.444
  20
26.731
  0
VERTEX
  8
7
  10
-56.384
  20
26.782
  0
VERTEX
  8
7
  10
-57.324
  20
26.807
  0
VERTEX
  8
7
  10
-58.265
  20
26.858
  0
VERTEX
  8
7
  10
-59.205
  20
26.909
  0
VERTEX
  8
7
  10
-60.120
  20
26.934
  0
VERTEX
  8
7
  10
-61.009
  20
26.985
  0
VERTEX
  8
7
  10
-61.898
  20
27.010
  0
VERTEX
  8
7
  10
-62.711
  20
27.061
  0
VERTEX
  8
7
  10
-63.524
  20
27.087
  0
VERTEX
  8
7
  10
-64.236
  20
27.137
  0
VERTEX
  8
7
  10
-64.922
  20
27.163
  0
VERTEX
  8
7
  10
-65.532
  20
27.188
  0
VERTEX
  8
7
  10
-66.065
  20
27.214
  0
VERTEX
  8
7
  10
-66.523
  20
27.239
  0
VERTEX
  8
7
  10
-66.904
  20
27.264
  0
VERTEX
  8
7
  10
-67.158
  20
27.264
  0
VERTEX
  8
7
  10
-67.336
  20
27.290
  0
VERTEX
  8
7
  10
-67.387
  20
27.290
  0
VERTEX
  8
7
  10
-67.539
  20
27.341
  0
VERTEX
  8
7
  10
-67.946
  20
27.493
  0
VERTEX
  8
7
  10
-68.556
  20
27.722
  0
VERTEX
  8
7
  10
-69.369
  20
28.027
  0
VERTEX
  8
7
  10
-70.334
  20
28.382
  0
VERTEX
  8
7
  10
-71.402
  20
28.789
  0
VERTEX
  8
7
  10
-72.545
  20
29.246
  0
VERTEX
  8
7
  10
-73.739
  20
29.678
  0
VERTEX
  8
7
  10
-74.908
  20
30.136
  0
VERTEX
  8
7
  10
-76.052
  20
30.568
  0
VERTEX
  8
7
  10
-77.119
  20
30.974
  0
VERTEX
  8
7
  10
-78.084
  20
31.355
  0
VERTEX
  8
7
  10
-78.872
  20
31.660
  0
VERTEX
  8
7
  10
-79.507
  20
31.914
  0
VERTEX
  8
7
  10
-79.914
  20
32.067
  0
VERTEX
  8
7
  10
-80.041
  20
32.118
  0
VERTEX
  8
7
  10
-80.117
  20
32.194
  0
VERTEX
  8
7
  10
-80.321
  20
32.397
  0
VERTEX
  8
7
  10
-80.600
  20
32.753
  0
VERTEX
  8
7
  10
-81.007
  20
33.185
  0
VERTEX
  8
7
  10
-81.464
  20
33.719
  0
VERTEX
  8
7
  10
-81.972
  20
34.303
  0
VERTEX
  8
7
  10
-82.506
  20
34.938
  0
VERTEX
  8
7
  10
-83.065
  20
35.574
  0
VERTEX
  8
7
  10
-83.624
  20
36.234
  0
VERTEX
  8
7
  10
-84.183
  20
36.869
  0
VERTEX
  8
7
  10
-84.691
  20
37.454
  0
VERTEX
  8
7
  10
-85.148
  20
37.987
  0
VERTEX
  8
7
  10
-85.530
  20
38.419
  0
VERTEX
  8
7
  10
-85.809
  20
38.775
  0
VERTEX
  8
7
  10
-86.012
  20
39.004
  0
VERTEX
  8
7
  10
-86.063
  20
39.080
  0
VERTEX
  8
7
  10
-86.114
  20
39.309
  0
VERTEX
  8
7
  10
-86.292
  20
39.944
  0
VERTEX
  8
7
  10
-86.546
  20
40.960
  0
VERTEX
  8
7
  10
-86.876
  20
42.282
  0
VERTEX
  8
7
  10
-87.257
  20
43.832
  0
VERTEX
  8
7
  10
-87.689
  20
45.585
  0
VERTEX
  8
7
  10
-88.147
  20
47.440
  0
VERTEX
  8
7
  10
-88.630
  20
49.346
  0
VERTEX
  8
7
  10
-89.112
  20
51.277
  0
VERTEX
  8
7
  10
-89.570
  20
53.132
  0
VERTEX
  8
7
  10
-90.002
  20
54.860
  0
VERTEX
  8
7
  10
-90.383
  20
56.435
  0
VERTEX
  8
7
  10
-90.713
  20
57.756
  0
VERTEX
  8
7
  10
-90.967
  20
58.773
  0
VERTEX
  8
7
  10
-91.120
  20
59.433
  0
VERTEX
  8
7
  10
-91.171
  20
59.662
  0
VERTEX
  8
7
  10
-91.044
  20
59.586
  0
VERTEX
  8
7
  10
-90.713
  20
59.383
  0
VERTEX
  8
7
  10
-90.180
  20
59.052
  0
VERTEX
  8
7
  10
-89.494
  20
58.646
  0
VERTEX
  8
7
  10
-88.680
  20
58.163
  0
VERTEX
  8
7
  10
-87.766
  20
57.629
  0
VERTEX
  8
7
  10
-86.775
  20
57.070
  0
VERTEX
  8
7
  10
-85.784
  20
56.461
  0
VERTEX
  8
7
  10
-84.767
  20
55.876
  0
VERTEX
  8
7
  10
-83.776
  20
55.292
  0
VERTEX
  8
7
  10
-82.862
  20
54.758
  0
VERTEX
  8
7
  10
-82.048
  20
54.301
  0
VERTEX
  8
7
  10
-81.362
  20
53.894
  0
VERTEX
  8
7
  10
-80.829
  20
53.564
  0
VERTEX
  8
7
  10
-80.473
  20
53.386
  0
VERTEX
  8
7
  10
-80.346
  20
53.310
  0
VERTEX
  8
7
  10
-80.270
  20
53.284
  0
VERTEX
  8
7
  10
-80.016
  20
53.259
  0
VERTEX
  8
7
  10
-79.634
  20
53.183
  0
VERTEX
  8
7
  10
-79.126
  20
53.106
  0
VERTEX
  8
7
  10
-78.542
  20
53.005
  0
VERTEX
  8
7
  10
-77.881
  20
52.903
  0
VERTEX
  8
7
  10
-77.170
  20
52.801
  0
VERTEX
  8
7
  10
-76.458
  20
52.674
  0
VERTEX
  8
7
  10
-75.721
  20
52.573
  0
VERTEX
  8
7
  10
-75.010
  20
52.446
  0
VERTEX
  8
7
  10
-74.349
  20
52.344
  0
VERTEX
  8
7
  10
-73.765
  20
52.268
  0
VERTEX
  8
7
  10
-73.257
  20
52.192
  0
VERTEX
  8
7
  10
-72.875
  20
52.141
  0
VERTEX
  8
7
  10
-72.621
  20
52.090
  0
VERTEX
  8
7
  10
-72.520
  20
52.090
  0
VERTEX
  8
7
  10
-72.596
  20
52.624
  0
VERTEX
  8
7
  10
-72.825
  20
54.021
  0
VERTEX
  8
7
  10
-73.104
  20
56.003
  0
VERTEX
  8
7
  10
-73.434
  20
58.265
  0
VERTEX
  8
7
  10
-73.765
  20
60.552
  0
VERTEX
  8
7
  10
-74.044
  20
62.534
  0
VERTEX
  8
7
  10
-74.248
  20
63.956
  0
VERTEX
  8
7
  10
-74.324
  20
64.490
  0
VERTEX
  8
7
  10
-74.400
  20
65.075
  0
VERTEX
  8
7
  10
-74.578
  20
66.650
  0
VERTEX
  8
7
  10
-74.807
  20
68.886
  0
VERTEX
  8
7
  10
-75.086
  20
71.427
  0
VERTEX
  8
7
  10
-75.366
  20
73.993
  0
VERTEX
  8
7
  10
-75.594
  20
76.230
  0
VERTEX
  8
7
  10
-75.772
  20
77.805
  0
VERTEX
  8
7
  10
-75.823
  20
78.415
  0
VERTEX
  8
7
  10
-75.747
  20
79.025
  0
VERTEX
  8
7
  10
-75.518
  20
80.625
  0
VERTEX
  8
7
  10
-75.162
  20
82.887
  0
VERTEX
  8
7
  10
-74.781
  20
85.504
  0
VERTEX
  8
7
  10
-74.400
  20
88.121
  0
VERTEX
  8
7
  10
-74.070
  20
90.408
  0
VERTEX
  8
7
  10
-73.816
  20
92.035
  0
VERTEX
  8
7
  10
-73.714
  20
92.644
  0
VERTEX
  8
7
  10
-73.561
  20
93.026
  0
VERTEX
  8
7
  10
-73.104
  20
94.042
  0
VERTEX
  8
7
  10
-72.494
  20
95.490
  0
VERTEX
  8
7
  10
-71.783
  20
97.142
  0
VERTEX
  8
7
  10
-71.046
  20
98.794
  0
VERTEX
  8
7
  10
-70.436
  20
100.242
  0
VERTEX
  8
7
  10
-69.979
  20
101.284
  0
VERTEX
  8
7
  10
-69.801
  20
101.665
  0
VERTEX
  8
7
  10
-69.725
  20
101.690
  0
VERTEX
  8
7
  10
-69.547
  20
101.817
  0
VERTEX
  8
7
  10
-69.216
  20
101.970
  0
VERTEX
  8
7
  10
-68.835
  20
102.173
  0
VERTEX
  8
7
  10
-68.352
  20
102.427
  0
VERTEX
  8
7
  10
-67.819
  20
102.707
  0
VERTEX
  8
7
  10
-67.234
  20
103.012
  0
VERTEX
  8
7
  10
-66.650
  20
103.342
  0
VERTEX
  8
7
  10
-66.065
  20
103.647
  0
VERTEX
  8
7
  10
-65.481
  20
103.952
  0
VERTEX
  8
7
  10
-64.947
  20
104.231
  0
VERTEX
  8
7
  10
-64.465
  20
104.485
  0
VERTEX
  8
7
  10
-64.058
  20
104.689
  0
VERTEX
  8
7
  10
-63.753
  20
104.841
  0
VERTEX
  8
7
  10
-63.550
  20
104.968
  0
VERTEX
  8
7
  10
-63.474
  20
104.994
  0
VERTEX
  8
7
  10
-63.423
  20
104.994
  0
VERTEX
  8
7
  10
-63.296
  20
104.943
  0
VERTEX
  8
7
  10
-63.067
  20
104.917
  0
VERTEX
  8
7
  10
-62.788
  20
104.841
  0
VERTEX
  8
7
  10
-62.432
  20
104.790
  0
VERTEX
  8
7
  10
-62.051
  20
104.714
  0
VERTEX
  8
7
  10
-61.644
  20
104.612
  0
VERTEX
  8
7
  10
-61.238
  20
104.536
  0
VERTEX
  8
7
  10
-60.806
  20
104.460
  0
VERTEX
  8
7
  10
-60.399
  20
104.358
  0
VERTEX
  8
7
  10
-60.018
  20
104.282
  0
VERTEX
  8
7
  10
-59.662
  20
104.231
  0
VERTEX
  8
7
  10
-59.383
  20
104.155
  0
VERTEX
  8
7
  10
-59.154
  20
104.130
  0
VERTEX
  8
7
  10
-59.002
  20
104.079
  0
VERTEX
  8
7
  10
-58.951
  20
104.079
  0
VERTEX
  8
7
  10
-58.900
  20
104.028
  0
VERTEX
  8
7
  10
-58.747
  20
103.850
  0
VERTEX
  8
7
  10
-58.493
  20
103.571
  0
VERTEX
  8
7
  10
-58.163
  20
103.240
  0
VERTEX
  8
7
  10
-57.782
  20
102.808
  0
VERTEX
  8
7
  10
-57.350
  20
102.351
  0
VERTEX
  8
7
  10
-56.892
  20
101.868
  0
VERTEX
  8
7
  10
-56.410
  20
101.360
  0
VERTEX
  8
7
  10
-55.927
  20
100.852
  0
VERTEX
  8
7
  10
-55.470
  20
100.369
  0
VERTEX
  8
7
  10
-55.038
  20
99.912
  0
VERTEX
  8
7
  10
-54.656
  20
99.480
  0
VERTEX
  8
7
  10
-54.326
  20
99.149
  0
VERTEX
  8
7
  10
-54.072
  20
98.870
  0
VERTEX
  8
7
  10
-53.894
  20
98.692
  0
VERTEX
  8
7
  10
-53.843
  20
98.641
  0
VERTEX
  8
7
  10
-53.742
  20
98.285
  0
VERTEX
  8
7
  10
-53.437
  20
97.371
  0
VERTEX
  8
7
  10
-53.005
  20
96.049
  0
VERTEX
  8
7
  10
-52.497
  20
94.576
  0
VERTEX
  8
7
  10
-52.014
  20
93.076
  0
VERTEX
  8
7
  10
-51.556
  20
91.780
  0
VERTEX
  8
7
  10
-51.251
  20
90.840
  0
VERTEX
  8
7
  10
-51.124
  20
90.510
  0
VERTEX
  8
7
  10
-51.023
  20
90.230
  0
VERTEX
  8
7
  10
-50.769
  20
89.494
  0
VERTEX
  8
7
  10
-50.388
  20
88.477
  0
VERTEX
  8
7
  10
-49.956
  20
87.308
  0
VERTEX
  8
7
  10
-49.498
  20
86.139
  0
VERTEX
  8
7
  10
-49.117
  20
85.148
  0
VERTEX
  8
7
  10
-48.838
  20
84.412
  0
VERTEX
  8
7
  10
-48.736
  20
84.157
  0
VERTEX
  8
7
  10
-48.583
  20
84.107
  0
VERTEX
  8
7
  10
-48.177
  20
84.005
  0
VERTEX
  8
7
  10
-47.618
  20
83.853
  0
VERTEX
  8
7
  10
-46.957
  20
83.700
  0
VERTEX
  8
7
  10
-46.297
  20
83.522
  0
VERTEX
  8
7
  10
-45.712
  20
83.395
  0
VERTEX
  8
7
  10
-45.306
  20
83.293
  0
VERTEX
  8
7
  10
-45.153
  20
83.268
  0
VERTEX
  8
7
  10
-45.102
  20
83.293
  0
VERTEX
  8
7
  10
-44.950
  20
83.344
  0
VERTEX
  8
7
  10
-44.721
  20
83.421
  0
VERTEX
  8
7
  10
-44.391
  20
83.548
  0
VERTEX
  8
7
  10
-44.035
  20
83.675
  0
VERTEX
  8
7
  10
-43.628
  20
83.827
  0
VERTEX
  8
7
  10
-43.196
  20
83.980
  0
VERTEX
  8
7
  10
-42.739
  20
84.157
  0
VERTEX
  8
7
  10
-42.307
  20
84.310
  0
VERTEX
  8
7
  10
-41.875
  20
84.488
  0
VERTEX
  8
7
  10
-41.469
  20
84.640
  0
VERTEX
  8
7
  10
-41.113
  20
84.767
  0
VERTEX
  8
7
  10
-40.783
  20
84.894
  0
VERTEX
  8
7
  10
-40.554
  20
84.996
  0
VERTEX
  8
7
  10
-40.401
  20
85.047
  0
VERTEX
  8
7
  10
-40.351
  20
85.072
  0
VERTEX
  8
7
  10
-40.224
  20
85.225
  0
VERTEX
  8
7
  10
-39.919
  20
85.631
  0
VERTEX
  8
7
  10
-39.487
  20
86.190
  0
VERTEX
  8
7
  10
-38.978
  20
86.876
  0
VERTEX
  8
7
  10
-38.496
  20
87.537
  0
VERTEX
  8
7
  10
-38.064
  20
88.121
  0
VERTEX
  8
7
  10
-37.759
  20
88.528
  0
VERTEX
  8
7
  10
-37.632
  20
88.680
  0
SEQEND
  0
POLYLINE
  8
7
  6
CONTINUOUS
 66
  1
  0
VERTEX
  8
7
  10
-66.548
  20
90.764
  0
VERTEX
  8
7
  10
-66.548
  20
81.718
  0
VERTEX
  8
7
  10
-68.327
  20
74.756
  0
SEQEND
  0
POLYLINE
  8
7
  6
CONTINUOUS
 66
  1
  0
VERTEX
  8
7
  10
-71.046
  20
61.720
  0
VERTEX
  8
7
  10
-24.698
  20
59.027
  0
VERTEX
  8
7
  10
-22.589
  20
55.114
  0
VERTEX
  8
7
  10
-22.741
  20
55.114
  0
VERTEX
  8
7
  10
-23.148
  20
55.139
  0
VERTEX
  8
7
  10
-23.809
  20
55.165
  0
VERTEX
  8
7
  10
-24.723
  20
55.215
  0
VERTEX
  8
7
  10
-25.841
  20
55.292
  0
VERTEX
  8
7
  10
-27.163
  20
55.342
  0
VERTEX
  8
7
  10
-28.687
  20
55.444
  0
VERTEX
  8
7
  10
-30.339
  20
55.520
  0
VERTEX
  8
7
  10
-32.169
  20
55.622
  0
VERTEX
  8
7
  10
-34.100
  20
55.724
  0
VERTEX
  8
7
  10
-36.158
  20
55.851
  0
VERTEX
  8
7
  10
-38.292
  20
55.952
  0
VERTEX
  8
7
  10
-40.503
  20
56.079
  0
VERTEX
  8
7
  10
-42.790
  20
56.206
  0
VERTEX
  8
7
  10
-45.077
  20
56.333
  0
VERTEX
  8
7
  10
-47.415
  20
56.461
  0
VERTEX
  8
7
  10
-49.727
  20
56.588
  0
VERTEX
  8
7
  10
-52.039
  20
56.715
  0
VERTEX
  8
7
  10
-54.301
  20
56.842
  0
VERTEX
  8
7
  10
-56.511
  20
56.943
  0
VERTEX
  8
7
  10
-58.671
  20
57.070
  0
VERTEX
  8
7
  10
-60.704
  20
57.197
  0
VERTEX
  8
7
  10
-62.661
  20
57.299
  0
VERTEX
  8
7
  10
-64.465
  20
57.401
  0
VERTEX
  8
7
  10
-66.142
  20
57.477
  0
VERTEX
  8
7
  10
-67.641
  20
57.579
  0
VERTEX
  8
7
  10
-68.962
  20
57.655
  0
VERTEX
  8
7
  10
-70.080
  20
57.706
  0
VERTEX
  8
7
  10
-70.995
  20
57.756
  0
VERTEX
  8
7
  10
-71.656
  20
57.807
  0
VERTEX
  8
7
  10
-72.062
  20
57.833
  0
VERTEX
  8
7
  10
-72.215
  20
57.833
  0
VERTEX
  8
7
  10
-72.240
  20
57.248
  0
VERTEX
  8
7
  10
-72.240
  20
56.003
  0
VERTEX
  8
7
  10
-72.240
  20
54.783
  0
VERTEX
  8
7
  10
-72.215
  20
54.224
  0
VERTEX
  8
7
  10
-72.062
  20
54.224
  0
VERTEX
  8
7
  10
-71.656
  20
54.174
  0
VERTEX
  8
7
  10
-70.995
  20
54.148
  0
VERTEX
  8
7
  10
-70.080
  20
54.097
  0
VERTEX
  8
7
  10
-68.937
  20
54.021
  0
VERTEX
  8
7
  10
-67.616
  20
53.920
  0
VERTEX
  8
7
  10
-66.091
  20
53.843
  0
VERTEX
  8
7
  10
-64.414
  20
53.742
  0
VERTEX
  8
7
  10
-62.610
  20
53.615
  0
VERTEX
  8
7
  10
-60.653
  20
53.513
  0
VERTEX
  8
7
  10
-58.570
  20
53.386
  0
VERTEX
  8
7
  10
-56.435
  20
53.233
  0
VERTEX
  8
7
  10
-54.199
  20
53.106
  0
VERTEX
  8
7
  10
-51.912
  20
52.954
  0
VERTEX
  8
7
  10
-49.600
  20
52.827
  0
VERTEX
  8
7
  10
-47.262
  20
52.674
  0
VERTEX
  8
7
  10
-44.924
  20
52.547
  0
VERTEX
  8
7
  10
-42.612
  20
52.395
  0
VERTEX
  8
7
  10
-40.325
  20
52.268
  0
VERTEX
  8
7
  10
-38.089
  20
52.115
  0
VERTEX
  8
7
  10
-35.929
  20
51.988
  0
VERTEX
  8
7
  10
-33.871
  20
51.861
  0
VERTEX
  8
7
  10
-31.914
  20
51.760
  0
VERTEX
  8
7
  10
-30.085
  20
51.633
  0
VERTEX
  8
7
  10
-28.408
  20
51.531
  0
VERTEX
  8
7
  10
-26.883
  20
51.455
  0
VERTEX
  8
7
  10
-25.562
  20
51.353
  0
VERTEX
  8
7
  10
-24.419
  20
51.302
  0
VERTEX
  8
7
  10
-23.529
  20
51.251
  0
VERTEX
  8
7
  10
-22.843
  20
51.201
  0
VERTEX
  8
7
  10
-22.437
  20
51.175
  0
VERTEX
  8
7
  10
-22.284
  20
51.175
  0
VERTEX
  8
7
  10
-22.386
  20
50.515
  0
VERTEX
  8
7
  10
-22.589
  20
49.041
  0
VERTEX
  8
7
  10
-22.792
  20
47.592
  0
VERTEX
  8
7
  10
-22.894
  20
46.957
  0
VERTEX
  8
7
  10
-23.046
  20
46.957
  0
VERTEX
  8
7
  10
-23.453
  20
47.008
  0
VERTEX
  8
7
  10
-24.139
  20
47.059
  0
VERTEX
  8
7
  10
-25.054
  20
47.135
  0
VERTEX
  8
7
  10
-26.223
  20
47.211
  0
VERTEX
  8
7
  10
-27.569
  20
47.338
  0
VERTEX
  8
7
  10
-29.094
  20
47.465
  0
VERTEX
  8
7
  10
-30.796
  20
47.592
  0
VERTEX
  8
7
  10
-32.626
  20
47.745
  0
VERTEX
  8
7
  10
-34.608
  20
47.923
  0
VERTEX
  8
7
  10
-36.692
  20
48.101
  0
VERTEX
  8
7
  10
-38.877
  20
48.279
  0
VERTEX
  8
7
  10
-41.138
  20
48.456
  0
VERTEX
  8
7
  10
-43.451
  20
48.660
  0
VERTEX
  8
7
  10
-45.788
  20
48.838
  0
VERTEX
  8
7
  10
-48.151
  20
49.041
  0
VERTEX
  8
7
  10
-50.515
  20
49.244
  0
VERTEX
  8
7
  10
-52.878
  20
49.447
  0
VERTEX
  8
7
  10
-55.190
  20
49.625
  0
VERTEX
  8
7
  10
-57.426
  20
49.829
  0
VERTEX
  8
7
  10
-59.611
  20
50.006
  0
VERTEX
  8
7
  10
-61.695
  20
50.184
  0
VERTEX
  8
7
  10
-63.677
  20
50.337
  0
VERTEX
  8
7
  10
-65.532
  20
50.515
  0
VERTEX
  8
7
  10
-67.234
  20
50.642
  0
VERTEX
  8
7
  10
-68.759
  20
50.769
  0
VERTEX
  8
7
  10
-70.106
  20
50.896
  0
VERTEX
  8
7
  10
-71.249
  20
50.997
  0
VERTEX
  8
7
  10
-72.164
  20
51.074
  0
VERTEX
  8
7
  10
-72.850
  20
51.124
  0
VERTEX
  8
7
  10
-73.257
  20
51.150
  0
VERTEX
  8
7
  10
-73.409
  20
51.175
  0
VERTEX
  8
7
  10
-73.333
  20
51.124
  0
VERTEX
  8
7
  10
-73.079
  20
51.023
  0
VERTEX
  8
7
  10
-72.698
  20
50.845
  0
VERTEX
  8
7
  10
-72.215
  20
50.642
  0
VERTEX
  8
7
  10
-71.605
  20
50.388
  0
VERTEX
  8
7
  10
-70.970
  20
50.108
  0
VERTEX
  8
7
  10
-70.258
  20
49.803
  0
VERTEX
  8
7
  10
-69.521
  20
49.498
  0
VERTEX
  8
7
  10
-68.810
  20
49.193
  0
VERTEX
  8
7
  10
-68.098
  20
48.888
  0
VERTEX
  8
7
  10
-67.438
  20
48.609
  0
VERTEX
  8
7
  10
-66.853
  20
48.355
  0
VERTEX
  8
7
  10
-66.345
  20
48.151
  0
VERTEX
  8
7
  10
-65.964
  20
47.974
  0
VERTEX
  8
7
  10
-65.710
  20
47.872
  0
VERTEX
  8
7
  10
-65.634
  20
47.847
  0
VERTEX
  8
7
  10
-65.583
  20
47.847
  0
VERTEX
  8
7
  10
-65.430
  20
47.821
  0
VERTEX
  8
7
  10
-65.202
  20
47.770
  0
VERTEX
  8
7
  10
-64.871
  20
47.745
  0
VERTEX
  8
7
  10
-64.465
  20
47.669
  0
VERTEX
  8
7
  10
-63.982
  20
47.618
  0
VERTEX
  8
7
  10
-63.448
  20
47.542
  0
VERTEX
  8
7
  10
-62.864
  20
47.465
  0
VERTEX
  8
7
  10
-62.203
  20
47.364
  0
VERTEX
  8
7
  10
-61.517
  20
47.262
  0
VERTEX
  8
7
  10
-60.780
  20
47.160
  0
VERTEX
  8
7
  10
-60.018
  20
47.059
  0
VERTEX
  8
7
  10
-59.230
  20
46.957
  0
VERTEX
  8
7
  10
-58.417
  20
46.856
  0
VERTEX
  8
7
  10
-57.579
  20
46.728
  0
VERTEX
  8
7
  10
-56.740
  20
46.627
  0
VERTEX
  8
7
  10
-55.927
  20
46.500
  0
VERTEX
  8
7
  10
-55.088
  20
46.398
  0
VERTEX
  8
7
  10
-54.275
  20
46.297
  0
VERTEX
  8
7
  10
-53.488
  20
46.169
  0
VERTEX
  8
7
  10
-52.725
  20
46.068
  0
VERTEX
  8
7
  10
-51.988
  20
45.966
  0
VERTEX
  8
7
  10
-51.302
  20
45.890
  0
VERTEX
  8
7
  10
-50.642
  20
45.788
  0
VERTEX
  8
7
  10
-50.057
  20
45.712
  0
VERTEX
  8
7
  10
-49.524
  20
45.636
  0
VERTEX
  8
7
  10
-49.041
  20
45.585
  0
VERTEX
  8
7
  10
-48.634
  20
45.534
  0
VERTEX
  8
7
  10
-48.304
  20
45.483
  0
VERTEX
  8
7
  10
-48.075
  20
45.458
  0
VERTEX
  8
7
  10
-47.923
  20
45.433
  0
VERTEX
  8
7
  10
-47.872
  20
45.433
  0
VERTEX
  8
7
  10
-47.821
  20
45.433
  0
VERTEX
  8
7
  10
-47.643
  20
45.433
  0
VERTEX
  8
7
  10
-47.364
  20
45.433
  0
VERTEX
  8
7
  10
-46.983
  20
45.458
  0
VERTEX
  8
7
  10
-46.525
  20
45.458
  0
VERTEX
  8
7
  10
-45.992
  20
45.483
  0
VERTEX
  8
7
  10
-45.356
  20
45.483
  0
VERTEX
  8
7
  10
-44.670
  20
45.509
  0
VERTEX
  8
7
  10
-43.933
  20
45.534
  0
VERTEX
  8
7
  10
-43.120
  20
45.560
  0
VERTEX
  8
7
  10
-42.282
  20
45.585
  0
VERTEX
  8
7
  10
-41.392
  20
45.610
  0
VERTEX
  8
7
  10
-40.478
  20
45.636
  0
VERTEX
  8
7
  10
-39.537
  20
45.661
  0
VERTEX
  8
7
  10
-38.597
  20
45.687
  0
VERTEX
  8
7
  10
-37.632
  20
45.712
  0
VERTEX
  8
7
  10
-36.666
  20
45.738
  0
VERTEX
  8
7
  10
-35.726
  20
45.763
  0
VERTEX
  8
7
  10
-34.786
  20
45.788
  0
VERTEX
  8
7
  10
-33.871
  20
45.814
  0
VERTEX
  8
7
  10
-32.982
  20
45.839
  0
VERTEX
  8
7
  10
-32.143
  20
45.865
  0
VERTEX
  8
7
  10
-31.330
  20
45.890
  0
VERTEX
  8
7
  10
-30.593
  20
45.915
  0
VERTEX
  8
7
  10
-29.907
  20
45.941
  0
VERTEX
  8
7
  10
-29.272
  20
45.966
  0
VERTEX
  8
7
  10
-28.738
  20
45.966
  0
VERTEX
  8
7
  10
-28.281
  20
45.992
  0
VERTEX
  8
7
  10
-27.900
  20
45.992
  0
VERTEX
  8
7
  10
-27.620
  20
46.017
  0
VERTEX
  8
7
  10
-27.442
  20
46.017
  0
VERTEX
  8
7
  10
-27.391
  20
46.017
  0
SEQEND
  0
POLYLINE
  8
7
  6
CONTINUOUS
 66
  1
  0
VERTEX
  8
7
  10
-68.657
  20
17.558
  0
VERTEX
  8
7
  10
-66.243
  20
22.996
  0
VERTEX
  8
7
  10
-62.025
  20
26.934
  0
VERTEX
  8
7
  10
-70.995
  20
22.691
  0
VERTEX
  8
7
  10
-71.122
  20
22.564
  0
VERTEX
  8
7
  10
-71.427
  20
22.157
  0
VERTEX
  8
7
  10
-71.935
  20
21.547
  0
VERTEX
  8
7
  10
-72.570
  20
20.759
  0
VERTEX
  8
7
  10
-73.307
  20
19.819
  0
VERTEX
  8
7
  10
-74.146
  20
18.777
  0
VERTEX
  8
7
  10
-75.061
  20
17.659
  0
VERTEX
  8
7
  10
-75.975
  20
16.516
  0
VERTEX
  8
7
  10
-76.916
  20
15.347
  0
VERTEX
  8
7
  10
-77.805
  20
14.229
  0
VERTEX
  8
7
  10
-78.643
  20
13.187
  0
VERTEX
  8
7
  10
-79.380
  20
12.273
  0
VERTEX
  8
7
  10
-80.016
  20
11.459
  0
VERTEX
  8
7
  10
-80.524
  20
10.875
  0
VERTEX
  8
7
  10
-80.829
  20
10.468
  0
VERTEX
  8
7
  10
-80.930
  20
10.341
  0
VERTEX
  8
7
  10
-80.956
  20
8.766
  0
VERTEX
  8
7
  10
-80.956
  20
5.336
  0
VERTEX
  8
7
  10
-80.956
  20
1.905
  0
VERTEX
  8
7
  10
-80.930
  20
0.355
  0
VERTEX
  8
7
  10
-81.007
  20
0.304
  0
VERTEX
  8
7
  10
-81.210
  20
0.228
  0
VERTEX
  8
7
  10
-81.515
  20
0.076
  0
VERTEX
  8
7
  10
-81.921
  20
-0.127
  0
VERTEX
  8
7
  10
-82.404
  20
-0.355
  0
VERTEX
  8
7
  10
-82.938
  20
-0.609
  0
VERTEX
  8
7
  10
-83.522
  20
-0.889
  0
VERTEX
  8
7
  10
-84.107
  20
-1.168
  0
VERTEX
  8
7
  10
-84.691
  20
-1.448
  0
VERTEX
  8
7
  10
-85.275
  20
-1.727
  0
VERTEX
  8
7
  10
-85.809
  20
-1.981
  0
VERTEX
  8
7
  10
-86.292
  20
-2.210
  0
VERTEX
  8
7
  10
-86.673
  20
-2.388
  0
VERTEX
  8
7
  10
-87.003
  20
-2.540
  0
VERTEX
  8
7
  10
-87.181
  20
-2.642
  0
VERTEX
  8
7
  10
-87.257
  20
-2.668
  0
VERTEX
  8
7
  10
-87.410
  20
-2.998
  0
VERTEX
  8
7
  10
-87.791
  20
-3.811
  0
VERTEX
  8
7
  10
-88.325
  20
-4.980
  0
VERTEX
  8
7
  10
-88.934
  20
-6.327
  0
VERTEX
  8
7
  10
-89.544
  20
-7.648
  0
VERTEX
  8
7
  10
-90.078
  20
-8.817
  0
VERTEX
  8
7
  10
-90.459
  20
-9.630
  0
VERTEX
  8
7
  10
-90.586
  20
-9.935
  0
VERTEX
  8
7
  10
-90.561
  20
-10.316
  0
VERTEX
  8
7
  10
-90.459
  20
-11.282
  0
VERTEX
  8
7
  10
-90.307
  20
-12.628
  0
VERTEX
  8
7
  10
-90.154
  20
-14.178
  0
VERTEX
  8
7
  10
-89.976
  20
-15.728
  0
VERTEX
  8
7
  10
-89.824
  20
-17.100
  0
VERTEX
  8
7
  10
-89.722
  20
-18.041
  0
VERTEX
  8
7
  10
-89.671
  20
-18.396
  0
VERTEX
  8
7
  10
-89.621
  20
-18.422
  0
VERTEX
  8
7
  10
-89.468
  20
-18.523
  0
VERTEX
  8
7
  10
-89.239
  20
-18.650
  0
VERTEX
  8
7
  10
-88.934
  20
-18.828
  0
VERTEX
  8
7
  10
-88.579
  20
-19.057
  0
VERTEX
  8
7
  10
-88.172
  20
-19.286
  0
VERTEX
  8
7
  10
-87.715
  20
-19.540
  0
VERTEX
  8
7
  10
-87.283
  20
-19.794
  0
VERTEX
  8
7
  10
-86.825
  20
-20.048
  0
VERTEX
  8
7
  10
-86.393
  20
-20.302
  0
VERTEX
  8
7
  10
-85.987
  20
-20.531
  0
VERTEX
  8
7
  10
-85.606
  20
-20.734
  0
VERTEX
  8
7
  10
-85.301
  20
-20.887
  0
VERTEX
  8
7
  10
-85.047
  20
-21.039
  0
VERTEX
  8
7
  10
-84.894
  20
-21.115
  0
VERTEX
  8
7
  10
-84.843
  20
-21.141
  0
VERTEX
  8
7
  10
-84.716
  20
-21.115
  0
VERTEX
  8
7
  10
-84.335
  20
-21.064
  0
VERTEX
  8
7
  10
-83.827
  20
-20.963
  0
VERTEX
  8
7
  10
-83.217
  20
-20.861
  0
VERTEX
  8
7
  10
-82.607
  20
-20.734
  0
VERTEX
  8
7
  10
-82.074
  20
-20.632
  0
VERTEX
  8
7
  10
-81.693
  20
-20.556
  0
VERTEX
  8
7
  10
-81.540
  20
-20.531
  0
VERTEX
  8
7
  10
-81.667
  20
-20.632
  0
VERTEX
  8
7
  10
-81.972
  20
-20.912
  0
VERTEX
  8
7
  10
-82.430
  20
-21.318
  0
VERTEX
  8
7
  10
-82.912
  20
-21.750
  0
VERTEX
  8
7
  10
-83.421
  20
-22.208
  0
VERTEX
  8
7
  10
-83.852
  20
-22.589
  0
VERTEX
  8
7
  10
-84.157
  20
-22.843
  0
VERTEX
  8
7
  10
-84.259
  20
-22.945
  0
VERTEX
  8
7
  10
-84.107
  20
-23.428
  0
VERTEX
  8
7
  10
-83.700
  20
-24.673
  0
VERTEX
  8
7
  10
-83.141
  20
-26.400
  0
VERTEX
  8
7
  10
-82.480
  20
-28.408
  0
VERTEX
  8
7
  10
-81.820
  20
-30.415
  0
VERTEX
  8
7
  10
-81.235
  20
-32.169
  0
VERTEX
  8
7
  10
-80.803
  20
-33.388
  0
VERTEX
  8
7
  10
-80.651
  20
-33.846
  0
VERTEX
  8
7
  10
-80.575
  20
-33.973
  0
VERTEX
  8
7
  10
-80.321
  20
-34.354
  0
VERTEX
  8
7
  10
-79.939
  20
-34.913
  0
VERTEX
  8
7
  10
-79.431
  20
-35.650
  0
VERTEX
  8
7
  10
-78.847
  20
-36.514
  0
VERTEX
  8
7
  10
-78.186
  20
-37.505
  0
VERTEX
  8
7
  10
-77.475
  20
-38.546
  0
VERTEX
  8
7
  10
-76.763
  20
-39.614
  0
VERTEX
  8
7
  10
-76.026
  20
-40.681
  0
VERTEX
  8
7
  10
-75.315
  20
-41.723
  0
VERTEX
  8
7
  10
-74.654
  20
-42.688
  0
VERTEX
  8
7
  10
-74.070
  20
-43.552
  0
VERTEX
  8
7
  10
-73.561
  20
-44.289
  0
VERTEX
  8
7
  10
-73.180
  20
-44.848
  0
VERTEX
  8
7
  10
-72.926
  20
-45.204
  0
VERTEX
  8
7
  10
-72.825
  20
-45.331
  0
VERTEX
  8
7
  10
-72.748
  20
-45.407
  0
VERTEX
  8
7
  10
-72.545
  20
-45.585
  0
VERTEX
  8
7
  10
-72.189
  20
-45.839
  0
VERTEX
  8
7
  10
-71.757
  20
-46.195
  0
VERTEX
  8
7
  10
-71.249
  20
-46.627
  0
VERTEX
  8
7
  10
-70.665
  20
-47.084
  0
VERTEX
  8
7
  10
-70.029
  20
-47.567
  0
VERTEX
  8
7
  10
-69.394
  20
-48.075
  0
VERTEX
  8
7
  10
-68.759
  20
-48.583
  0
VERTEX
  8
7
  10
-68.124
  20
-49.092
  0
VERTEX
  8
7
  10
-67.539
  20
-49.549
  0
VERTEX
  8
7
  10
-67.006
  20
-49.956
  0
VERTEX
  8
7
  10
-66.574
  20
-50.311
  0
VERTEX
  8
7
  10
-66.243
  20
-50.565
  0
VERTEX
  8
7
  10
-66.015
  20
-50.743
  0
VERTEX
  8
7
  10
-65.938
  20
-50.794
  0
VERTEX
  8
7
  10
-65.862
  20
-50.819
  0
VERTEX
  8
7
  10
-65.608
  20
-50.870
  0
VERTEX
  8
7
  10
-65.252
  20
-50.972
  0
VERTEX
  8
7
  10
-64.770
  20
-51.099
  0
VERTEX
  8
7
  10
-64.185
  20
-51.226
  0
VERTEX
  8
7
  10
-63.550
  20
-51.379
  0
VERTEX
  8
7
  10
-62.889
  20
-51.556
  0
VERTEX
  8
7
  10
-62.178
  20
-51.709
  0
VERTEX
  8
7
  10
-61.466
  20
-51.887
  0
VERTEX
  8
7
  10
-60.806
  20
-52.039
  0
VERTEX
  8
7
  10
-60.170
  20
-52.192
  0
VERTEX
  8
7
  10
-59.586
  20
-52.319
  0
VERTEX
  8
7
  10
-59.103
  20
-52.446
  0
VERTEX
  8
7
  10
-58.747
  20
-52.522
  0
VERTEX
  8
7
  10
-58.493
  20
-52.573
  0
VERTEX
  8
7
  10
-58.417
  20
-52.598
  0
VERTEX
  8
7
  10
-58.366
  20
-52.674
  0
VERTEX
  8
7
  10
-58.188
  20
-52.903
  0
VERTEX
  8
7
  10
-57.909
  20
-53.233
  0
VERTEX
  8
7
  10
-57.579
  20
-53.640
  0
VERTEX
  8
7
  10
-57.147
  20
-54.148
  0
VERTEX
  8
7
  10
-56.689
  20
-54.733
  0
VERTEX
  8
7
  10
-56.206
  20
-55.317
  0
VERTEX
  8
7
  10
-55.698
  20
-55.952
  0
VERTEX
  8
7
  10
-55.190
  20
-56.562
  0
VERTEX
  8
7
  10
-54.707
  20
-57.172
  0
VERTEX
  8
7
  10
-54.250
  20
-57.731
  0
VERTEX
  8
7
  10
-53.818
  20
-58.239
  0
VERTEX
  8
7
  10
-53.488
  20
-58.646
  0
VERTEX
  8
7
  10
-53.208
  20
-58.976
  0
VERTEX
  8
7
  10
-53.030
  20
-59.179
  0
VERTEX
  8
7
  10
-52.979
  20
-59.256
  0
VERTEX
  8
7
  10
-52.929
  20
-59.306
  0
VERTEX
  8
7
  10
-52.751
  20
-59.433
  0
VERTEX
  8
7
  10
-52.471
  20
-59.637
  0
VERTEX
  8
7
  10
-52.141
  20
-59.891
  0
VERTEX
  8
7
  10
-51.734
  20
-60.196
  0
VERTEX
  8
7
  10
-51.277
  20
-60.526
  0
VERTEX
  8
7
  10
-50.769
  20
-60.882
  0
VERTEX
  8
7
  10
-50.260
  20
-61.238
  0
VERTEX
  8
7
  10
-49.778
  20
-61.619
  0
VERTEX
  8
7
  10
-49.269
  20
-61.974
  0
VERTEX
  8
7
  10
-48.812
  20
-62.305
  0
VERTEX
  8
7
  10
-48.406
  20
-62.584
  0
VERTEX
  8
7
  10
-48.075
  20
-62.838
  0
VERTEX
  8
7
  10
-47.796
  20
-63.042
  0
VERTEX
  8
7
  10
-47.618
  20
-63.143
  0
VERTEX
  8
7
  10
-47.567
  20
-63.194
  0
VERTEX
  8
7
  10
-47.465
  20
-63.220
  0
VERTEX
  8
7
  10
-47.160
  20
-63.270
  0
VERTEX
  8
7
  10
-46.703
  20
-63.372
  0
VERTEX
  8
7
  10
-46.119
  20
-63.499
  0
VERTEX
  8
7
  10
-45.407
  20
-63.626
  0
VERTEX
  8
7
  10
-44.619
  20
-63.779
  0
VERTEX
  8
7
  10
-43.781
  20
-63.956
  0
VERTEX
  8
7
  10
-42.892
  20
-64.109
  0
VERTEX
  8
7
  10
-42.028
  20
-64.287
  0
VERTEX
  8
7
  10
-41.189
  20
-64.439
  0
VERTEX
  8
7
  10
-40.401
  20
-64.592
  0
VERTEX
  8
7
  10
-39.690
  20
-64.719
  0
VERTEX
  8
7
  10
-39.105
  20
-64.846
  0
VERTEX
  8
7
  10
-38.648
  20
-64.922
  0
VERTEX
  8
7
  10
-38.343
  20
-64.973
  0
VERTEX
  8
7
  10
-38.242
  20
-64.998
  0
VERTEX
  8
7
  10
-38.165
  20
-64.947
  0
VERTEX
  8
7
  10
-37.962
  20
-64.846
  0
VERTEX
  8
7
  10
-37.657
  20
-64.643
  0
VERTEX
  8
7
  10
-37.251
  20
-64.388
  0
VERTEX
  8
7
  10
-36.768
  20
-64.109
  0
VERTEX
  8
7
  10
-36.234
  20
-63.779
  0
VERTEX
  8
7
  10
-35.675
  20
-63.423
  0
VERTEX
  8
7
  10
-35.065
  20
-63.042
  0
VERTEX
  8
7
  10
-34.481
  20
-62.686
  0
VERTEX
  8
7
  10
-33.922
  20
-62.330
  0
VERTEX
  8
7
  10
-33.388
  20
-62.000
  0
VERTEX
  8
7
  10
-32.905
  20
-61.695
  0
VERTEX
  8
7
  10
-32.499
  20
-61.441
  0
VERTEX
  8
7
  10
-32.194
  20
-61.238
  0
VERTEX
  8
7
  10
-31.991
  20
-61.111
  0
VERTEX
  8
7
  10
-31.914
  20
-61.060
  0
VERTEX
  8
7
  10
-31.737
  20
-60.780
  0
VERTEX
  8
7
  10
-31.305
  20
-59.993
  0
VERTEX
  8
7
  10
-30.669
  20
-58.874
  0
VERTEX
  8
7
  10
-29.958
  20
-57.604
  0
VERTEX
  8
7
  10
-29.246
  20
-56.333
  0
VERTEX
  8
7
  10
-28.611
  20
-55.215
  0
VERTEX
  8
7
  10
-28.179
  20
-54.428
  0
VERTEX
  8
7
  10
-28.001
  20
-54.123
  0
VERTEX
  8
7
  10
-27.950
  20
-53.665
  0
VERTEX
  8
7
  10
-27.823
  20
-52.446
  0
VERTEX
  8
7
  10
-27.620
  20
-50.692
  0
VERTEX
  8
7
  10
-27.391
  20
-48.685
  0
VERTEX
  8
7
  10
-27.188
  20
-46.678
  0
VERTEX
  8
7
  10
-26.985
  20
-44.950
  0
VERTEX
  8
7
  10
-26.858
  20
-43.705
  0
VERTEX
  8
7
  10
-26.807
  20
-43.222
  0
VERTEX
  8
7
  10
-26.756
  20
-43.425
  0
VERTEX
  8
7
  10
-26.655
  20
-43.933
  0
VERTEX
  8
7
  10
-26.528
  20
-44.670
  0
VERTEX
  8
7
  10
-26.350
  20
-45.509
  0
VERTEX
  8
7
  10
-26.172
  20
-46.322
  0
VERTEX
  8
7
  10
-26.045
  20
-47.059
  0
VERTEX
  8
7
  10
-25.943
  20
-47.567
  0
VERTEX
  8
7
  10
-25.892
  20
-47.745
  0
VERTEX
  8
7
  10
-25.816
  20
-47.719
  0
VERTEX
  8
7
  10
-25.613
  20
-47.592
  0
VERTEX
  8
7
  10
-25.282
  20
-47.415
  0
VERTEX
  8
7
  10
-24.850
  20
-47.186
  0
VERTEX
  8
7
  10
-24.342
  20
-46.932
  0
VERTEX
  8
7
  10
-23.783
  20
-46.627
  0
VERTEX
  8
7
  10
-23.199
  20
-46.297
  0
VERTEX
  8
7
  10
-22.564
  20
-45.966
  0
VERTEX
  8
7
  10
-21.954
  20
-45.610
  0
VERTEX
  8
7
  10
-21.369
  20
-45.306
  0
VERTEX
  8
7
  10
-20.810
  20
-45.001
  0
VERTEX
  8
7
  10
-20.302
  20
-44.721
  0
VERTEX
  8
7
  10
-19.870
  20
-44.492
  0
VERTEX
  8
7
  10
-19.540
  20
-44.289
  0
VERTEX
  8
7
  10
-19.337
  20
-44.187
  0
VERTEX
  8
7
  10
-19.260
  20
-44.137
  0
VERTEX
  8
7
  10
-19.209
  20
-43.959
  0
VERTEX
  8
7
  10
-19.082
  20
-43.476
  0
VERTEX
  8
7
  10
-18.879
  20
-42.815
  0
VERTEX
  8
7
  10
-18.650
  20
-42.028
  0
VERTEX
  8
7
  10
-18.447
  20
-41.265
  0
VERTEX
  8
7
  10
-18.244
  20
-40.579
  0
VERTEX
  8
7
  10
-18.117
  20
-40.096
  0
VERTEX
  8
7
  10
-18.066
  20
-39.893
  0
VERTEX
  8
7
  10
-18.193
  20
-39.741
  0
VERTEX
  8
7
  10
-18.498
  20
-39.283
  0
VERTEX
  8
7
  10
-18.930
  20
-38.674
  0
VERTEX
  8
7
  10
-19.413
  20
-37.937
  0
VERTEX
  8
7
  10
-19.921
  20
-37.225
  0
VERTEX
  8
7
  10
-20.353
  20
-36.590
  0
VERTEX
  8
7
  10
-20.658
  20
-36.133
  0
VERTEX
  8
7
  10
-20.785
  20
-35.955
  0
VERTEX
  8
7
  10
-20.861
  20
-35.929
  0
VERTEX
  8
7
  10
-21.039
  20
-35.853
  0
VERTEX
  8
7
  10
-21.344
  20
-35.726
  0
VERTEX
  8
7
  10
-21.725
  20
-35.548
  0
VERTEX
  8
7
  10
-22.182
  20
-35.345
  0
VERTEX
  8
7
  10
-22.691
  20
-35.116
  0
VERTEX
  8
7
  10
-23.224
  20
-34.862
  0
VERTEX
  8
7
  10
-23.783
  20
-34.608
  0
VERTEX
  8
7
  10
-24.368
  20
-34.354
  0
VERTEX
  8
7
  10
-24.901
  20
-34.125
  0
VERTEX
  8
7
  10
-25.409
  20
-33.871
  0
VERTEX
  8
7
  10
-25.867
  20
-33.668
  0
VERTEX
  8
7
  10
-26.248
  20
-33.490
  0
VERTEX
  8
7
  10
-26.553
  20
-33.363
  0
VERTEX
  8
7
  10
-26.731
  20
-33.261
  0
VERTEX
  8
7
  10
-26.807
  20
-33.236
  0
VERTEX
  8
7
  10
-26.883
  20
-33.236
  0
VERTEX
  8
7
  10
-27.087
  20
-33.236
  0
VERTEX
  8
7
  10
-27.391
  20
-33.236
  0
VERTEX
  8
7
  10
-27.849
  20
-33.236
  0
VERTEX
  8
7
  10
-28.382
  20
-33.236
  0
VERTEX
  8
7
  10
-29.018
  20
-33.210
  0
VERTEX
  8
7
  10
-29.755
  20
-33.210
  0
VERTEX
  8
7
  10
-30.568
  20
-33.210
  0
VERTEX
  8
7
  10
-31.457
  20
-33.185
  0
VERTEX
  8
7
  10
-32.397
  20
-33.185
  0
VERTEX
  8
7
  10
-33.388
  20
-33.160
  0
VERTEX
  8
7
  10
-34.430
  20
-33.160
  0
VERTEX
  8
7
  10
-35.497
  20
-33.134
  0
VERTEX
  8
7
  10
-36.615
  20
-33.134
  0
VERTEX
  8
7
  10
-37.733
  20
-33.109
  0
VERTEX
  8
7
  10
-38.851
  20
-33.109
  0
VERTEX
  8
7
  10
-39.969
  20
-33.083
  0
VERTEX
  8
7
  10
-41.087
  20
-33.083
  0
VERTEX
  8
7
  10
-42.206
  20
-33.058
  0
VERTEX
  8
7
  10
-43.273
  20
-33.032
  0
VERTEX
  8
7
  10
-44.315
  20
-33.032
  0
VERTEX
  8
7
  10
-45.306
  20
-33.007
  0
VERTEX
  8
7
  10
-46.246
  20
-33.007
  0
VERTEX
  8
7
  10
-47.135
  20
-32.982
  0
VERTEX
  8
7
  10
-47.948
  20
-32.982
  0
VERTEX
  8
7
  10
-48.685
  20
-32.982
  0
VERTEX
  8
7
  10
-49.320
  20
-32.956
  0
VERTEX
  8
7
  10
-49.854
  20
-32.956
  0
VERTEX
  8
7
  10
-50.311
  20
-32.956
  0
VERTEX
  8
7
  10
-50.616
  20
-32.931
  0
VERTEX
  8
7
  10
-50.819
  20
-32.931
  0
VERTEX
  8
7
  10
-50.896
  20
-32.931
  0
VERTEX
  8
7
  10
-51.023
  20
-32.956
  0
VERTEX
  8
7
  10
-51.429
  20
-32.982
  0
VERTEX
  8
7
  10
-52.039
  20
-33.058
  0
VERTEX
  8
7
  10
-52.827
  20
-33.134
  0
VERTEX
  8
7
  10
-53.742
  20
-33.236
  0
VERTEX
  8
7
  10
-54.783
  20
-33.337
  0
VERTEX
  8
7
  10
-55.901
  20
-33.439
  0
VERTEX
  8
7
  10
-57.045
  20
-33.566
  0
VERTEX
  8
7
  10
-58.214
  20
-33.668
  0
VERTEX
  8
7
  10
-59.332
  20
-33.795
  0
VERTEX
  8
7
  10
-60.374
  20
-33.896
  0
VERTEX
  8
7
  10
-61.288
  20
-33.973
  0
VERTEX
  8
7
  10
-62.076
  20
-34.049
  0
VERTEX
  8
7
  10
-62.686
  20
-34.100
  0
VERTEX
  8
7
  10
-63.093
  20
-34.151
  0
VERTEX
  8
7
  10
-63.220
  20
-34.151
  0
VERTEX
  8
7
  10
-63.270
  20
-34.201
  0
VERTEX
  8
7
  10
-63.397
  20
-34.303
  0
VERTEX
  8
7
  10
-63.601
  20
-34.481
  0
VERTEX
  8
7
  10
-63.880
  20
-34.684
  0
VERTEX
  8
7
  10
-64.211
  20
-34.938
  0
VERTEX
  8
7
  10
-64.566
  20
-35.218
  0
VERTEX
  8
7
  10
-64.947
  20
-35.523
  0
VERTEX
  8
7
  10
-65.329
  20
-35.828
  0
VERTEX
  8
7
  10
-65.710
  20
-36.133
  0
VERTEX
  8
7
  10
-66.091
  20
-36.437
  0
VERTEX
  8
7
  10
-66.447
  20
-36.717
  0
VERTEX
  8
7
  10
-66.777
  20
-36.971
  0
VERTEX
  8
7
  10
-67.056
  20
-37.174
  0
VERTEX
  8
7
  10
-67.260
  20
-37.352
  0
VERTEX
  8
7
  10
-67.387
  20
-37.454
  0
VERTEX
  8
7
  10
-67.438
  20
-37.479
  0
VERTEX
  8
7
  10
-67.336
  20
-38.445
  0
VERTEX
  8
7
  10
-67.133
  20
-40.528
  0
VERTEX
  8
7
  10
-66.955
  20
-42.587
  0
VERTEX
  8
7
  10
-66.853
  20
-43.527
  0
VERTEX
  8
7
  10
-66.802
  20
-43.578
  0
VERTEX
  8
7
  10
-66.675
  20
-43.705
  0
VERTEX
  8
7
  10
-66.472
  20
-43.908
  0
VERTEX
  8
7
  10
-66.193
  20
-44.162
  0
VERTEX
  8
7
  10
-65.862
  20
-44.467
  0
VERTEX
  8
7
  10
-65.506
  20
-44.797
  0
VERTEX
  8
7
  10
-65.125
  20
-45.153
  0
VERTEX
  8
7
  10
-64.744
  20
-45.509
  0
VERTEX
  8
7
  10
-64.363
  20
-45.890
  0
VERTEX
  8
7
  10
-63.982
  20
-46.246
  0
VERTEX
  8
7
  10
-63.626
  20
-46.576
  0
VERTEX
  8
7
  10
-63.296
  20
-46.856
  0
VERTEX
  8
7
  10
-63.016
  20
-47.110
  0
VERTEX
  8
7
  10
-62.813
  20
-47.313
  0
VERTEX
  8
7
  10
-62.686
  20
-47.415
  0
VERTEX
  8
7
  10
-62.635
  20
-47.465
  0
VERTEX
  8
7
  10
-62.584
  20
-47.516
  0
VERTEX
  8
7
  10
-62.432
  20
-47.618
  0
VERTEX
  8
7
  10
-62.229
  20
-47.796
  0
VERTEX
  8
7
  10
-61.924
  20
-47.999
  0
VERTEX
  8
7
  10
-61.593
  20
-48.253
  0
VERTEX
  8
7
  10
-61.212
  20
-48.533
  0
VERTEX
  8
7
  10
-60.806
  20
-48.838
  0
VERTEX
  8
7
  10
-60.374
  20
-49.142
  0
VERTEX
  8
7
  10
-59.942
  20
-49.447
  0
VERTEX
  8
7
  10
-59.535
  20
-49.752
  0
VERTEX
  8
7
  10
-59.154
  20
-50.032
  0
VERTEX
  8
7
  10
-58.824
  20
-50.286
  0
VERTEX
  8
7
  10
-58.519
  20
-50.489
  0
VERTEX
  8
7
  10
-58.315
  20
-50.667
  0
VERTEX
  8
7
  10
-58.163
  20
-50.769
  0
VERTEX
  8
7
  10
-58.112
  20
-50.794
  0
VERTEX
  8
7
  10
-58.061
  20
-50.921
  0
VERTEX
  8
7
  10
-57.934
  20
-51.277
  0
VERTEX
  8
7
  10
-57.731
  20
-51.760
  0
VERTEX
  8
7
  10
-57.502
  20
-52.319
  0
VERTEX
  8
7
  10
-57.299
  20
-52.878
  0
VERTEX
  8
7
  10
-57.096
  20
-53.360
  0
VERTEX
  8
7
  10
-56.969
  20
-53.691
  0
VERTEX
  8
7
  10
-56.918
  20
-53.818
  0
VERTEX
  8
7
  10
-56.969
  20
-51.709
  0
VERTEX
  8
7
  10
-57.045
  20
-47.033
  0
VERTEX
  8
7
  10
-57.147
  20
-42.333
  0
VERTEX
  8
7
  10
-57.197
  20
-40.198
  0
VERTEX
  8
7
  10
-57.274
  20
-40.198
  0
VERTEX
  8
7
  10
-57.477
  20
-40.147
  0
VERTEX
  8
7
  10
-57.782
  20
-40.071
  0
VERTEX
  8
7
  10
-58.188
  20
-39.969
  0
VERTEX
  8
7
  10
-58.671
  20
-39.868
  0
VERTEX
  8
7
  10
-59.205
  20
-39.741
  0
VERTEX
  8
7
  10
-59.764
  20
-39.588
  0
VERTEX
  8
7
  10
-60.348
  20
-39.461
  0
VERTEX
  8
7
  10
-60.958
  20
-39.309
  0
VERTEX
  8
7
  10
-61.517
  20
-39.182
  0
VERTEX
  8
7
  10
-62.051
  20
-39.055
  0
VERTEX
  8
7
  10
-62.534
  20
-38.928
  0
VERTEX
  8
7
  10
-62.940
  20
-38.826
  0
VERTEX
  8
7
  10
-63.245
  20
-38.750
  0
VERTEX
  8
7
  10
-63.448
  20
-38.699
  0
VERTEX
  8
7
  10
-63.524
  20
-38.674
  0
VERTEX
  8
7
  10
-63.474
  20
-38.674
  0
VERTEX
  8
7
  10
-63.321
  20
-38.699
  0
VERTEX
  8
7
  10
-63.067
  20
-38.699
  0
VERTEX
  8
7
  10
-62.711
  20
-38.724
  0
VERTEX
  8
7
  10
-62.305
  20
-38.775
  0
VERTEX
  8
7
  10
-61.797
  20
-38.801
  0
VERTEX
  8
7
  10
-61.238
  20
-38.826
  0
VERTEX
  8
7
  10
-60.602
  20
-38.877
  0
VERTEX
  8
7
  10
-59.916
  20
-38.928
  0
VERTEX
  8
7
  10
-59.205
  20
-38.978
  0
VERTEX
  8
7
  10
-58.417
  20
-39.029
  0
VERTEX
  8
7
  10
-57.629
  20
-39.080
  0
VERTEX
  8
7
  10
-56.791
  20
-39.131
  0
VERTEX
  8
7
  10
-55.927
  20
-39.182
  0
VERTEX
  8
7
  10
-55.063
  20
-39.233
  0
VERTEX
  8
7
  10
-54.199
  20
-39.309
  0
VERTEX
  8
7
  10
-53.335
  20
-39.360
  0
VERTEX
  8
7
  10
-52.471
  20
-39.410
  0
VERTEX
  8
7
  10
-51.607
  20
-39.461
  0
VERTEX
  8
7
  10
-50.769
  20
-39.537
  0
VERTEX
  8
7
  10
-49.981
  20
-39.588
  0
VERTEX
  8
7
  10
-49.193
  20
-39.639
  0
VERTEX
  8
7
  10
-48.482
  20
-39.665
  0
VERTEX
  8
7
  10
-47.796
  20
-39.715
  0
VERTEX
  8
7
  10
-47.160
  20
-39.766
  0
VERTEX
  8
7
  10
-46.601
  20
-39.792
  0
VERTEX
  8
7
  10
-46.093
  20
-39.817
  0
VERTEX
  8
7
  10
-45.687
  20
-39.842
  0
VERTEX
  8
7
  10
-45.331
  20
-39.868
  0
VERTEX
  8
7
  10
-45.077
  20
-39.893
  0
VERTEX
  8
7
  10
-44.924
  20
-39.893
  0
VERTEX
  8
7
  10
-44.874
  20
-39.893
  0
VERTEX
  8
7
  10
-44.696
  20
-39.893
  0
VERTEX
  8
7
  10
-44.187
  20
-39.893
  0
VERTEX
  8
7
  10
-43.400
  20
-39.893
  0
VERTEX
  8
7
  10
-42.383
  20
-39.919
  0
VERTEX
  8
7
  10
-41.164
  20
-39.919
  0
VERTEX
  8
7
  10
-39.817
  20
-39.919
  0
VERTEX
  8
7
  10
-38.394
  20
-39.919
  0
VERTEX
  8
7
  10
-36.895
  20
-39.919
  0
VERTEX
  8
7
  10
-35.396
  20
-39.919
  0
VERTEX
  8
7
  10
-33.973
  20
-39.919
  0
VERTEX
  8
7
  10
-32.626
  20
-39.919
  0
VERTEX
  8
7
  10
-31.406
  20
-39.919
  0
VERTEX
  8
7
  10
-30.390
  20
-39.893
  0
VERTEX
  8
7
  10
-29.602
  20
-39.893
  0
VERTEX
  8
7
  10
-29.094
  20
-39.893
  0
VERTEX
  8
7
  10
-28.916
  20
-39.893
  0
VERTEX
  8
7
  10
-28.814
  20
-39.893
  0
VERTEX
  8
7
  10
-28.484
  20
-39.868
  0
VERTEX
  8
7
  10
-28.001
  20
-39.817
  0
VERTEX
  8
7
  10
-27.366
  20
-39.766
  0
VERTEX
  8
7
  10
-26.604
  20
-39.690
  0
VERTEX
  8
7
  10
-25.765
  20
-39.614
  0
VERTEX
  8
7
  10
-24.876
  20
-39.537
  0
VERTEX
  8
7
  10
-23.936
  20
-39.461
  0
VERTEX
  8
7
  10
-23.021
  20
-39.385
  0
VERTEX
  8
7
  10
-22.132
  20
-39.283
  0
VERTEX
  8
7
  10
-21.293
  20
-39.207
  0
VERTEX
  8
7
  10
-20.531
  20
-39.156
  0
VERTEX
  8
7
  10
-19.896
  20
-39.080
  0
VERTEX
  8
7
  10
-19.413
  20
-39.055
  0
VERTEX
  8
7
  10
-19.082
  20
-39.004
  0
VERTEX
  8
7
  10
-18.981
  20
-39.004
  0
SEQEND
  0
POLYLINE
  8
7
  6
CONTINUOUS
 66
  1
  0
VERTEX
  8
7
  10
-43.959
  20
-45.382
  0
VERTEX
  8
7
  10
-43.959
  20
-51.099
  0
VERTEX
  8
7
  10
-40.935
  20
-56.562
  0
SEQEND
  0
POLYLINE
  8
7
  6
CONTINUOUS
 66
  1
  0
VERTEX
  8
7
  10
-24.698
  20
-53.869
  0
VERTEX
  8
7
  10
-12.044
  20
-48.710
  0
VERTEX
  8
7
  10
-5.717
  20
-41.138
  0
VERTEX
  8
7
  10
-3.303
  20
-30.263
  0
VERTEX
  8
7
  10
-2.109
  20
-20.277
  0
VERTEX
  8
7
  10
3.303
  20
-16.643
  0
VERTEX
  8
7
  10
7.216
  20
-11.790
  0
VERTEX
  8
7
  10
6.327
  20
-5.132
  0
VERTEX
  8
7
  10
2.998
  20
-1.219
  0
VERTEX
  8
7
  10
-1.194
  20
0.609
  0
VERTEX
  8
7
  10
-8.131
  20
2.718
  0
VERTEX
  8
7
  10
-8.131
  20
9.681
  0
VERTEX
  8
7
  10
-11.129
  20
18.142
  0
VERTEX
  8
7
  10
-18.066
  20
26.629
  0
SEQEND
  0
POLYLINE
  8
7
  6
CONTINUOUS
 66
  1
  0
VERTEX
  8
7
  10
-28.306
  20
26.324
  0
VERTEX
  8
7
  10
-19.260
  20
19.057
  0
SEQEND
  0
POLYLINE
  8
7
  6
CONTINUOUS
 66
  1
  0
VERTEX
  8
7
  10
-11.129
  20
25.714
  0
VERTEX
  8
7
  10
-5.717
  20
16.973
  0
VERTEX
  8
7
  10
-4.218
  20
8.791
  0
SEQEND
  0
POLYLINE
  8
7
  6
CONTINUOUS
 66
  1
  0
VERTEX
  8
7
  10
-8.741
  20
28.433
  0
VERTEX
  8
7
  10
-2.718
  20
19.997
  0
VERTEX
  8
7
  10
-0.304
  20
12.450
  0
VERTEX
  8
7
  10
-0.203
  20
11.256
  0
VERTEX
  8
7
  10
0.000
  20
8.664
  0
VERTEX
  8
7
  10
0.203
  20
6.047
  0
VERTEX
  8
7
  10
0.304
  20
4.878
  0
SEQEND
  0
POLYLINE
  8
7
  6
CONTINUOUS
 66
  1
  0
VERTEX
  8
7
  10
-8.131
  20
-5.132
  0
VERTEX
  8
7
  10
-3.303
  20
-5.132
  0
VERTEX
  8
7
  10
0.000
  20
-7.826
  0
VERTEX
  8
7
  10
-0.101
  20
-8.004
  0
VERTEX
  8
7
  10
-0.330
  20
-8.512
  0
VERTEX
  8
7
  10
-0.660
  20
-9.173
  0
VERTEX
  8
7
  10
-1.041
  20
-9.960
  0
VERTEX
  8
7
  10
-1.448
  20
-10.723
  0
VERTEX
  8
7
  10
-1.778
  20
-11.409
  0
VERTEX
  8
7
  10
-2.007
  20
-11.891
  0
VERTEX
  8
7
  10
-2.109
  20
-12.069
  0
SEQEND
  0
POLYLINE
  8
7
  6
CONTINUOUS
 66
  1
  0
VERTEX
  8
7
  10
-8.131
  20
-13.314
  0
VERTEX
  8
7
  10
-6.936
  20
-19.337
  0
VERTEX
  8
7
  10
-8.131
  20
-24.774
  0
SEQEND
  0
POLYLINE
  8
7
  6
CONTINUOUS
 66
  1
  0
VERTEX
  8
7
  10
-79.787
  20
-4.548
  0
VERTEX
  8
7
  10
-83.675
  20
-6.936
  0
VERTEX
  8
7
  10
-84.564
  20
-11.154
  0
VERTEX
  8
7
  10
-84.513
  20
-11.180
  0
VERTEX
  8
7
  10
-84.386
  20
-11.282
  0
VERTEX
  8
7
  10
-84.157
  20
-11.409
  0
VERTEX
  8
7
  10
-83.878
  20
-11.586
  0
VERTEX
  8
7
  10
-83.522
  20
-11.790
  0
VERTEX
  8
7
  10
-83.141
  20
-12.044
  0
VERTEX
  8
7
  10
-82.734
  20
-12.273
  0
VERTEX
  8
7
  10
-82.328
  20
-12.527
  0
VERTEX
  8
7
  10
-81.896
  20
-12.781
  0
VERTEX
  8
7
  10
-81.489
  20
-13.035
  0
VERTEX
  8
7
  10
-81.108
  20
-13.264
  0
VERTEX
  8
7
  10
-80.752
  20
-13.467
  0
VERTEX
  8
7
  10
-80.473
  20
-13.645
  0
VERTEX
  8
7
  10
-80.244
  20
-13.772
  0
VERTEX
  8
7
  10
-80.092
  20
-13.848
  0
VERTEX
  8
7
  10
-80.041
  20
-13.873
  0
VERTEX
  8
7
  10
-79.965
  20
-13.797
  0
VERTEX
  8
7
  10
-79.787
  20
-13.543
  0
VERTEX
  8
7
  10
-79.507
  20
-13.213
  0
VERTEX
  8
7
  10
-79.177
  20
-12.832
  0
VERTEX
  8
7
  10
-78.847
  20
-12.450
  0
VERTEX
  8
7
  10
-78.567
  20
-12.095
  0
VERTEX
  8
7
  10
-78.364
  20
-11.866
  0
VERTEX
  8
7
  10
-78.288
  20
-11.764
  0
SEQEND
  0
POLYLINE
  8
7
  6
CONTINUOUS
 66
  1
  0
VERTEX
  8
7
  10
-72.570
  20
26.324
  0
VERTEX
  8
7
  10
-78.847
  20
20.302
  0
VERTEX
  8
7
  10
-82.175
  20
10.621
  0
SEQEND
  0
POLYLINE
  8
7
  6
CONTINUOUS
 66
  1
  0
VERTEX
  8
7
  10
-87.308
  20
8.461
  0
VERTEX
  8
7
  10
-84.005
  20
19.362
  0
VERTEX
  8
7
  10
-79.177
  20
25.410
  0
VERTEX
  8
7
  10
-77.068
  20
29.958
  0
SEQEND
  0
POLYLINE
  8
7
  6
CONTINUOUS
 66
  1
  0
VERTEX
  8
7
  10
-87.308
  20
-2.109
  0
VERTEX
  8
7
  10
-84.894
  20
4.548
  0
SEQEND
  0
POLYLINE
  8
7
  6
CONTINUOUS
 66
  1
  0
VERTEX
  8
7
  10
-62.635
  20
-11.790
  0
VERTEX
  8
7
  10
-56.918
  20
-7.267
  0
VERTEX
  8
7
  10
-49.371
  20
-4.853
  0
VERTEX
  8
7
  10
-44.264
  20
-4.548
  0
VERTEX
  8
7
  10
-34.938
  20
-4.243
  0
VERTEX
  8
7
  10
-31.000
  20
-6.657
  0
VERTEX
  8
7
  10
-29.196
  20
-11.510
  0
VERTEX
  8
7
  10
-32.829
  20
-14.483
  0
VERTEX
  8
7
  10
-32.905
  20
-14.509
  0
VERTEX
  8
7
  10
-33.134
  20
-14.534
  0
VERTEX
  8
7
  10
-33.464
  20
-14.610
  0
VERTEX
  8
7
  10
-33.896
  20
-14.686
  0
VERTEX
  8
7
  10
-34.430
  20
-14.788
  0
VERTEX
  8
7
  10
-35.014
  20
-14.890
  0
VERTEX
  8
7
  10
-35.650
  20
-14.991
  0
VERTEX
  8
7
  10
-36.285
  20
-15.093
  0
VERTEX
  8
7
  10
-36.920
  20
-15.220
  0
VERTEX
  8
7
  10
-37.555
  20
-15.322
  0
VERTEX
  8
7
  10
-38.140
  20
-15.423
  0
VERTEX
  8
7
  10
-38.648
  20
-15.500
  0
VERTEX
  8
7
  10
-39.105
  20
-15.576
  0
VERTEX
  8
7
  10
-39.436
  20
-15.627
  0
VERTEX
  8
7
  10
-39.665
  20
-15.677
  0
VERTEX
  8
7
  10
-39.741
  20
-15.677
  0
VERTEX
  8
7
  10
-39.868
  20
-15.677
  0
VERTEX
  8
7
  10
-40.198
  20
-15.703
  0
VERTEX
  8
7
  10
-40.732
  20
-15.754
  0
VERTEX
  8
7
  10
-41.443
  20
-15.779
  0
VERTEX
  8
7
  10
-42.256
  20
-15.830
  0
VERTEX
  8
7
  10
-43.171
  20
-15.881
  0
VERTEX
  8
7
  10
-44.162
  20
-15.932
  0
VERTEX
  8
7
  10
-45.153
  20
-16.008
  0
VERTEX
  8
7
  10
-46.169
  20
-16.059
  0
VERTEX
  8
7
  10
-47.160
  20
-16.109
  0
VERTEX
  8
7
  10
-48.075
  20
-16.160
  0
VERTEX
  8
7
  10
-48.888
  20
-16.211
  0
VERTEX
  8
7
  10
-49.600
  20
-16.236
  0
VERTEX
  8
7
  10
-50.133
  20
-16.262
  0
VERTEX
  8
7
  10
-50.464
  20
-16.287
  0
VERTEX
  8
7
  10
-50.591
  20
-16.287
  0
VERTEX
  8
7
  10
-50.692
  20
-16.313
  0
VERTEX
  8
7
  10
-50.972
  20
-16.338
  0
VERTEX
  8
7
  10
-51.404
  20
-16.389
  0
VERTEX
  8
7
  10
-51.963
  20
-16.440
  0
VERTEX
  8
7
  10
-52.624
  20
-16.516
  0
VERTEX
  8
7
  10
-53.360
  20
-16.592
  0
VERTEX
  8
7
  10
-54.148
  20
-16.668
  0
VERTEX
  8
7
  10
-54.936
  20
-16.770
  0
VERTEX
  8
7
  10
-55.749
  20
-16.846
  0
VERTEX
  8
7
  10
-56.537
  20
-16.923
  0
VERTEX
  8
7
  10
-57.274
  20
-16.999
  0
VERTEX
  8
7
  10
-57.934
  20
-17.075
  0
VERTEX
  8
7
  10
-58.493
  20
-17.126
  0
VERTEX
  8
7
  10
-58.925
  20
-17.177
  0
VERTEX
  8
7
  10
-59.205
  20
-17.202
  0
VERTEX
  8
7
  10
-59.306
  20
-17.202
  0
VERTEX
  8
7
  10
-59.357
  20
-17.202
  0
VERTEX
  8
7
  10
-59.535
  20
-17.151
  0
VERTEX
  8
7
  10
-59.815
  20
-17.075
  0
VERTEX
  8
7
  10
-60.145
  20
-16.973
  0
VERTEX
  8
7
  10
-60.552
  20
-16.872
  0
VERTEX
  8
7
  10
-61.009
  20
-16.745
  0
VERTEX
  8
7
  10
-61.517
  20
-16.592
  0
VERTEX
  8
7
  10
-62.000
  20
-16.465
  0
VERTEX
  8
7
  10
-62.508
  20
-16.313
  0
VERTEX
  8
7
  10
-62.991
  20
-16.186
  0
VERTEX
  8
7
  10
-63.448
  20
-16.059
  0
VERTEX
  8
7
  10
-63.855
  20
-15.932
  0
VERTEX
  8
7
  10
-64.211
  20
-15.830
  0
VERTEX
  8
7
  10
-64.465
  20
-15.754
  0
VERTEX
  8
7
  10
-64.643
  20
-15.703
  0
VERTEX
  8
7
  10
-64.693
  20
-15.677
  0
VERTEX
  8
7
  10
-64.820
  20
-15.500
  0
VERTEX
  8
7
  10
-65.176
  20
-15.042
  0
VERTEX
  8
7
  10
-65.659
  20
-14.382
  0
VERTEX
  8
7
  10
-66.218
  20
-13.594
  0
VERTEX
  8
7
  10
-66.752
  20
-12.832
  0
VERTEX
  8
7
  10
-67.234
  20
-12.171
  0
VERTEX
  8
7
  10
-67.565
  20
-11.688
  0
VERTEX
  8
7
  10
-67.692
  20
-11.510
  0
VERTEX
  8
7
  10
-67.641
  20
-11.434
  0
VERTEX
  8
7
  10
-67.488
  20
-11.256
  0
VERTEX
  8
7
  10
-67.260
  20
-10.977
  0
VERTEX
  8
7
  10
-66.955
  20
-10.621
  0
VERTEX
  8
7
  10
-66.599
  20
-10.163
  0
VERTEX
  8
7
  10
-66.193
  20
-9.681
  0
VERTEX
  8
7
  10
-65.735
  20
-9.173
  0
VERTEX
  8
7
  10
-65.303
  20
-8.613
  0
VERTEX
  8
7
  10
-64.846
  20
-8.080
  0
VERTEX
  8
7
  10
-64.414
  20
-7.572
  0
VERTEX
  8
7
  10
-64.007
  20
-7.089
  0
VERTEX
  8
7
  10
-63.626
  20
-6.632
  0
VERTEX
  8
7
  10
-63.321
  20
-6.276
  0
VERTEX
  8
7
  10
-63.067
  20
-5.996
  0
VERTEX
  8
7
  10
-62.915
  20
-5.818
  0
VERTEX
  8
7
  10
-62.864
  20
-5.742
  0
VERTEX
  8
7
  10
-62.762
  20
-5.717
  0
VERTEX
  8
7
  10
-62.508
  20
-5.615
  0
VERTEX
  8
7
  10
-62.076
  20
-5.463
  0
VERTEX
  8
7
  10
-61.517
  20
-5.259
  0
VERTEX
  8
7
  10
-60.856
  20
-5.031
  0
VERTEX
  8
7
  10
-60.145
  20
-4.777
  0
VERTEX
  8
7
  10
-59.357
  20
-4.522
  0
VERTEX
  8
7
  10
-58.544
  20
-4.218
  0
VERTEX
  8
7
  10
-57.731
  20
-3.938
  0
VERTEX
  8
7
  10
-56.943
  20
-3.684
  0
VERTEX
  8
7
  10
-56.206
  20
-3.430
  0
VERTEX
  8
7
  10
-55.546
  20
-3.201
  0
VERTEX
  8
7
  10
-55.012
  20
-2.998
  0
VERTEX
  8
7
  10
-54.580
  20
-2.845
  0
VERTEX
  8
7
  10
-54.301
  20
-2.744
  0
VERTEX
  8
7
  10
-54.199
  20
-2.718
  0
VERTEX
  8
7
  10
-48.787
  20
-1.524
  0
VERTEX
  8
7
  10
-39.131
  20
-1.219
  0
VERTEX
  8
7
  10
-29.805
  20
-2.718
  0
VERTEX
  8
7
  10
-24.393
  20
-6.962
  0
VERTEX
  8
7
  10
-22.589
  20
-12.654
  0
VERTEX
  8
7
  10
-22.767
  20
-13.009
  0
VERTEX
  8
7
  10
-23.199
  20
-13.899
  0
VERTEX
  8
7
  10
-23.834
  20
-15.169
  0
VERTEX
  8
7
  10
-24.546
  20
-16.618
  0
VERTEX
  8
7
  10
-25.257
  20
-18.066
  0
VERTEX
  8
7
  10
-25.892
  20
-19.311
  0
VERTEX
  8
7
  10
-26.324
  20
-20.200
  0
VERTEX
  8
7
  10
-26.502
  20
-20.531
  0
VERTEX
  8
7
  10
-26.604
  20
-20.582
  0
VERTEX
  8
7
  10
-26.883
  20
-20.683
  0
VERTEX
  8
7
  10
-27.315
  20
-20.887
  0
VERTEX
  8
7
  10
-27.874
  20
-21.115
  0
VERTEX
  8
7
  10
-28.535
  20
-21.395
  0
VERTEX
  8
7
  10
-29.272
  20
-21.700
  0
VERTEX
  8
7
  10
-30.060
  20
-22.030
  0
VERTEX
  8
7
  10
-30.847
  20
-22.360
  0
VERTEX
  8
7
  10
-31.660
  20
-22.716
  0
VERTEX
  8
7
  10
-32.448
  20
-23.021
  0
VERTEX
  8
7
  10
-33.185
  20
-23.326
  0
VERTEX
  8
7
  10
-33.846
  20
-23.605
  0
VERTEX
  8
7
  10
-34.405
  20
-23.834
  0
VERTEX
  8
7
  10
-34.837
  20
-24.012
  0
VERTEX
  8
7
  10
-35.116
  20
-24.139
  0
VERTEX
  8
7
  10
-35.218
  20
-24.164
  0
VERTEX
  8
7
  10
-35.319
  20
-24.190
  0
VERTEX
  8
7
  10
-35.650
  20
-24.241
  0
VERTEX
  8
7
  10
-36.133
  20
-24.342
  0
VERTEX
  8
7
  10
-36.768
  20
-24.469
  0
VERTEX
  8
7
  10
-37.530
  20
-24.596
  0
VERTEX
  8
7
  10
-38.369
  20
-24.749
  0
VERTEX
  8
7
  10
-39.258
  20
-24.927
  0
VERTEX
  8
7
  10
-40.173
  20
-25.079
  0
VERTEX
  8
7
  10
-41.113
  20
-25.257
  0
VERTEX
  8
7
  10
-42.002
  20
-25.409
  0
VERTEX
  8
7
  10
-42.841
  20
-25.562
  0
VERTEX
  8
7
  10
-43.603
  20
-25.689
  0
VERTEX
  8
7
  10
-44.238
  20
-25.816
  0
VERTEX
  8
7
  10
-44.721
  20
-25.892
  0
VERTEX
  8
7
  10
-45.051
  20
-25.943
  0
VERTEX
  8
7
  10
-45.153
  20
-25.969
  0
VERTEX
  8
7
  10
-45.280
  20
-25.969
  0
VERTEX
  8
7
  10
-45.636
  20
-25.994
  0
VERTEX
  8
7
  10
-46.195
  20
-26.045
  0
VERTEX
  8
7
  10
-46.906
  20
-26.070
  0
VERTEX
  8
7
  10
-47.745
  20
-26.121
  0
VERTEX
  8
7
  10
-48.685
  20
-26.172
  0
VERTEX
  8
7
  10
-49.701
  20
-26.223
  0
VERTEX
  8
7
  10
-50.718
  20
-26.299
  0
VERTEX
  8
7
  10
-51.760
  20
-26.350
  0
VERTEX
  8
7
  10
-52.776
  20
-26.400
  0
VERTEX
  8
7
  10
-53.716
  20
-26.451
  0
VERTEX
  8
7
  10
-54.555
  20
-26.502
  0
VERTEX
  8
7
  10
-55.266
  20
-26.528
  0
VERTEX
  8
7
  10
-55.825
  20
-26.553
  0
VERTEX
  8
7
  10
-56.181
  20
-26.578
  0
VERTEX
  8
7
  10
-56.308
  20
-26.578
  0
VERTEX
  8
7
  10
-56.410
  20
-26.553
  0
VERTEX
  8
7
  10
-56.715
  20
-26.477
  0
VERTEX
  8
7
  10
-57.172
  20
-26.375
  0
VERTEX
  8
7
  10
-57.756
  20
-26.223
  0
VERTEX
  8
7
  10
-58.468
  20
-26.045
  0
VERTEX
  8
7
  10
-59.256
  20
-25.841
  0
VERTEX
  8
7
  10
-60.094
  20
-25.613
  0
VERTEX
  8
7
  10
-60.958
  20
-25.384
  0
VERTEX
  8
7
  10
-61.822
  20
-25.155
  0
VERTEX
  8
7
  10
-62.661
  20
-24.952
  0
VERTEX
  8
7
  10
-63.448
  20
-24.749
  0
VERTEX
  8
7
  10
-64.134
  20
-24.546
  0
VERTEX
  8
7
  10
-64.744
  20
-24.393
  0
VERTEX
  8
7
  10
-65.202
  20
-24.266
  0
VERTEX
  8
7
  10
-65.481
  20
-24.190
  0
VERTEX
  8
7
  10
-65.583
  20
-24.164
  0
VERTEX
  8
7
  10
-65.659
  20
-24.114
  0
VERTEX
  8
7
  10
-65.862
  20
-23.987
  0
VERTEX
  8
7
  10
-66.142
  20
-23.758
  0
VERTEX
  8
7
  10
-66.548
  20
-23.478
  0
VERTEX
  8
7
  10
-67.006
  20
-23.123
  0
VERTEX
  8
7
  10
-67.514
  20
-22.741
  0
VERTEX
  8
7
  10
-68.047
  20
-22.335
  0
VERTEX
  8
7
  10
-68.606
  20
-21.903
  0
VERTEX
  8
7
  10
-69.166
  20
-21.496
  0
VERTEX
  8
7
  10
-69.725
  20
-21.064
  0
VERTEX
  8
7
  10
-70.233
  20
-20.683
  0
VERTEX
  8
7
  10
-70.690
  20
-20.353
  0
VERTEX
  8
7
  10
-71.071
  20
-20.048
  0
VERTEX
  8
7
  10
-71.351
  20
-19.819
  0
VERTEX
  8
7
  10
-71.554
  20
-19.667
  0
VERTEX
  8
7
  10
-71.605
  20
-19.616
  0
VERTEX
  8
7
  10
-71.579
  20
-18.549
  0
VERTEX
  8
7
  10
-71.478
  20
-16.160
  0
VERTEX
  8
7
  10
-71.351
  20
-13.746
  0
VERTEX
  8
7
  10
-71.300
  20
-12.654
  0
VERTEX
  8
7
  10
-71.224
  20
-12.577
  0
VERTEX
  8
7
  10
-70.970
  20
-12.349
  0
VERTEX
  8
7
  10
-70.563
  20
-11.993
  0
VERTEX
  8
7
  10
-70.055
  20
-11.536
  0
VERTEX
  8
7
  10
-69.420
  20
-11.002
  0
VERTEX
  8
7
  10
-68.734
  20
-10.392
  0
VERTEX
  8
7
  10
-68.022
  20
-9.732
  0
VERTEX
  8
7
  10
-67.260
  20
-9.045
  0
VERTEX
  8
7
  10
-66.497
  20
-8.385
  0
VERTEX
  8
7
  10
-65.761
  20
-7.724
  0
VERTEX
  8
7
  10
-65.075
  20
-7.114
  0
VERTEX
  8
7
  10
-64.465
  20
-6.581
  0
VERTEX
  8
7
  10
-63.931
  20
-6.098
  0
VERTEX
  8
7
  10
-63.524
  20
-5.742
  0
VERTEX
  8
7
  10
-63.270
  20
-5.513
  0
VERTEX
  8
7
  10
-63.169
  20
-5.437
  0
VERTEX
  8
7
  10
-63.245
  20
-5.463
  0
VERTEX
  8
7
  10
-63.448
  20
-5.539
  0
VERTEX
  8
7
  10
-63.728
  20
-5.641
  0
VERTEX
  8
7
  10
-64.134
  20
-5.768
  0
VERTEX
  8
7
  10
-64.592
  20
-5.920
  0
VERTEX
  8
7
  10
-65.100
  20
-6.123
  0
VERTEX
  8
7
  10
-65.634
  20
-6.301
  0
VERTEX
  8
7
  10
-66.193
  20
-6.504
  0
VERTEX
  8
7
  10
-66.752
  20
-6.708
  0
VERTEX
  8
7
  10
-67.311
  20
-6.886
  0
VERTEX
  8
7
  10
-67.819
  20
-7.089
  0
VERTEX
  8
7
  10
-68.276
  20
-7.241
  0
VERTEX
  8
7
  10
-68.657
  20
-7.368
  0
VERTEX
  8
7
  10
-68.937
  20
-7.470
  0
VERTEX
  8
7
  10
-69.140
  20
-7.546
  0
VERTEX
  8
7
  10
-69.191
  20
-7.572
  0
VERTEX
  8
7
  10
-69.242
  20
-7.648
  0
VERTEX
  8
7
  10
-69.394
  20
-7.902
  0
VERTEX
  8
7
  10
-69.623
  20
-8.283
  0
VERTEX
  8
7
  10
-69.902
  20
-8.791
  0
VERTEX
  8
7
  10
-70.258
  20
-9.376
  0
VERTEX
  8
7
  10
-70.639
  20
-10.036
  0
VERTEX
  8
7
  10
-71.046
  20
-10.748
  0
VERTEX
  8
7
  10
-71.478
  20
-11.485
  0
VERTEX
  8
7
  10
-71.884
  20
-12.222
  0
VERTEX
  8
7
  10
-72.291
  20
-12.908
  0
VERTEX
  8
7
  10
-72.672
  20
-13.568
  0
VERTEX
  8
7
  10
-73.028
  20
-14.153
  0
VERTEX
  8
7
  10
-73.307
  20
-14.661
  0
VERTEX
  8
7
  10
-73.536
  20
-15.042
  0
VERTEX
  8
7
  10
-73.663
  20
-15.296
  0
VERTEX
  8
7
  10
-73.714
  20
-15.373
  0
VERTEX
  8
7
  10
-73.816
  20
-16.618
  0
VERTEX
  8
7
  10
-74.044
  20
-19.337
  0
VERTEX
  8
7
  10
-74.248
  20
-22.030
  0
VERTEX
  8
7
  10
-74.324
  20
-23.250
  0
VERTEX
  8
7
  10
-74.273
  20
-23.300
  0
VERTEX
  8
7
  10
-74.120
  20
-23.453
  0
VERTEX
  8
7
  10
-73.892
  20
-23.682
  0
VERTEX
  8
7
  10
-73.587
  20
-23.987
  0
VERTEX
  8
7
  10
-73.231
  20
-24.317
  0
VERTEX
  8
7
  10
-72.825
  20
-24.698
  0
VERTEX
  8
7
  10
-72.367
  20
-25.130
  0
VERTEX
  8
7
  10
-71.935
  20
-25.537
  0
VERTEX
  8
7
  10
-71.478
  20
-25.969
  0
VERTEX
  8
7
  10
-71.046
  20
-26.375
  0
VERTEX
  8
7
  10
-70.639
  20
-26.756
  0
VERTEX
  8
7
  10
-70.258
  20
-27.112
  0
VERTEX
  8
7
  10
-69.953
  20
-27.391
  0
VERTEX
  8
7
  10
-69.699
  20
-27.620
  0
VERTEX
  8
7
  10
-69.547
  20
-27.747
  0
VERTEX
  8
7
  10
-69.496
  20
-27.798
  0
VERTEX
  8
7
  10
-69.394
  20
-27.823
  0
VERTEX
  8
7
  10
-69.089
  20
-27.849
  0
VERTEX
  8
7
  10
-68.632
  20
-27.925
  0
VERTEX
  8
7
  10
-68.022
  20
-28.001
  0
VERTEX
  8
7
  10
-67.285
  20
-28.103
  0
VERTEX
  8
7
  10
-66.472
  20
-28.205
  0
VERTEX
  8
7
  10
-65.608
  20
-28.306
  0
VERTEX
  8
7
  10
-64.719
  20
-28.408
  0
VERTEX
  8
7
  10
-63.829
  20
-28.535
  0
VERTEX
  8
7
  10
-62.965
  20
-28.637
  0
VERTEX
  8
7
  10
-62.152
  20
-28.738
  0
VERTEX
  8
7
  10
-61.415
  20
-28.814
  0
VERTEX
  8
7
  10
-60.806
  20
-28.891
  0
VERTEX
  8
7
  10
-60.323
  20
-28.941
  0
VERTEX
  8
7
  10
-60.018
  20
-28.992
  0
VERTEX
  8
7
  10
-59.916
  20
-28.992
  0
VERTEX
  8
7
  10
-59.840
  20
-28.992
  0
VERTEX
  8
7
  10
-59.586
  20
-28.967
  0
VERTEX
  8
7
  10
-59.230
  20
-28.916
  0
VERTEX
  8
7
  10
-58.747
  20
-28.865
  0
VERTEX
  8
7
  10
-58.163
  20
-28.789
  0
VERTEX
  8
7
  10
-57.528
  20
-28.713
  0
VERTEX
  8
7
  10
-56.867
  20
-28.637
  0
VERTEX
  8
7
  10
-56.156
  20
-28.560
  0
VERTEX
  8
7
  10
-55.444
  20
-28.459
  0
VERTEX
  8
7
  10
-54.783
  20
-28.382
  0
VERTEX
  8
7
  10
-54.148
  20
-28.306
  0
VERTEX
  8
7
  10
-53.564
  20
-28.230
  0
VERTEX
  8
7
  10
-53.081
  20
-28.179
  0
VERTEX
  8
7
  10
-52.725
  20
-28.128
  0
VERTEX
  8
7
  10
-52.471
  20
-28.103
  0
VERTEX
  8
7
  10
-52.395
  20
-28.078
  0
VERTEX
  8
7
  10
-52.344
  20
-28.078
  0
VERTEX
  8
7
  10
-52.192
  20
-28.078
  0
VERTEX
  8
7
  10
-51.938
  20
-28.078
  0
VERTEX
  8
7
  10
-51.633
  20
-28.103
  0
VERTEX
  8
7
  10
-51.277
  20
-28.103
  0
VERTEX
  8
7
  10
-50.870
  20
-28.103
  0
VERTEX
  8
7
  10
-50.438
  20
-28.103
  0
VERTEX
  8
7
  10
-49.981
  20
-28.103
  0
VERTEX
  8
7
  10
-49.524
  20
-28.103
  0
VERTEX
  8
7
  10
-49.092
  20
-28.103
  0
VERTEX
  8
7
  10
-48.685
  20
-28.103
  0
VERTEX
  8
7
  10
-48.329
  20
-28.103
  0
VERTEX
  8
7
  10
-48.024
  20
-28.078
  0
VERTEX
  8
7
  10
-47.770
  20
-28.078
  0
VERTEX
  8
7
  10
-47.618
  20
-28.078
  0
VERTEX
  8
7
  10
-47.567
  20
-28.078
  0
VERTEX
  8
7
  10
-47.516
  20
-28.078
  0
VERTEX
  8
7
  10
-47.338
  20
-28.078
  0
VERTEX
  8
7
  10
-47.059
  20
-28.052
  0
VERTEX
  8
7
  10
-46.728
  20
-28.052
  0
VERTEX
  8
7
  10
-46.322
  20
-28.027
  0
VERTEX
  8
7
  10
-45.865
  20
-28.001
  0
VERTEX
  8
7
  10
-45.356
  20
-27.976
  0
VERTEX
  8
7
  10
-44.848
  20
-27.950
  0
VERTEX
  8
7
  10
-44.365
  20
-27.925
  0
VERTEX
  8
7
  10
-43.857
  20
-27.900
  0
VERTEX
  8
7
  10
-43.400
  20
-27.874
  0
VERTEX
  8
7
  10
-42.993
  20
-27.849
  0
VERTEX
  8
7
  10
-42.663
  20
-27.823
  0
VERTEX
  8
7
  10
-42.383
  20
-27.823
  0
VERTEX
  8
7
  10
-42.206
  20
-27.798
  0
VERTEX
  8
7
  10
-42.155
  20
-27.798
  0
VERTEX
  8
7
  10
-42.078
  20
-27.798
  0
VERTEX
  8
7
  10
-41.824
  20
-27.798
  0
VERTEX
  8
7
  10
-41.443
  20
-27.798
  0
VERTEX
  8
7
  10
-40.935
  20
-27.823
  0
VERTEX
  8
7
  10
-40.351
  20
-27.823
  0
VERTEX
  8
7
  10
-39.690
  20
-27.823
  0
VERTEX
  8
7
  10
-38.978
  20
-27.823
  0
VERTEX
  8
7
  10
-38.242
  20
-27.823
  0
VERTEX
  8
7
  10
-37.505
  20
-27.823
  0
VERTEX
  8
7
  10
-36.793
  20
-27.823
  0
VERTEX
  8
7
  10
-36.133
  20
-27.823
  0
VERTEX
  8
7
  10
-35.548
  20
-27.823
  0
VERTEX
  8
7
  10
-35.040
  20
-27.798
  0
VERTEX
  8
7
  10
-34.659
  20
-27.798
  0
VERTEX
  8
7
  10
-34.405
  20
-27.798
  0
VERTEX
  8
7
  10
-34.328
  20
-27.798
  0
VERTEX
  8
7
  10
-34.252
  20
-27.798
  0
VERTEX
  8
7
  10
-34.074
  20
-27.773
  0
VERTEX
  8
7
  10
-33.769
  20
-27.722
  0
VERTEX
  8
7
  10
-33.388
  20
-27.671
  0
VERTEX
  8
7
  10
-32.931
  20
-27.595
  0
VERTEX
  8
7
  10
-32.423
  20
-27.519
  0
VERTEX
  8
7
  10
-31.889
  20
-27.442
  0
VERTEX
  8
7
  10
-31.305
  20
-27.366
  0
VERTEX
  8
7
  10
-30.746
  20
-27.264
  0
VERTEX
  8
7
  10
-30.212
  20
-27.188
  0
VERTEX
  8
7
  10
-29.704
  20
-27.112
  0
VERTEX
  8
7
  10
-29.246
  20
-27.036
  0
VERTEX
  8
7
  10
-28.865
  20
-26.985
  0
VERTEX
  8
7
  10
-28.560
  20
-26.934
  0
VERTEX
  8
7
  10
-28.382
  20
-26.909
  0
VERTEX
  8
7
  10
-28.306
  20
-26.883
  0
VERTEX
  8
7
  10
-28.230
  20
-26.858
  0
VERTEX
  8
7
  10
-28.027
  20
-26.756
  0
VERTEX
  8
7
  10
-27.722
  20
-26.578
  0
VERTEX
  8
7
  10
-27.315
  20
-26.375
  0
VERTEX
  8
7
  10
-26.832
  20
-26.121
  0
VERTEX
  8
7
  10
-26.299
  20
-25.841
  0
VERTEX
  8
7
  10
-25.740
  20
-25.537
  0
VERTEX
  8
7
  10
-25.130
  20
-25.232
  0
VERTEX
  8
7
  10
-24.546
  20
-24.927
  0
VERTEX
  8
7
  10
-23.987
  20
-24.622
  0
VERTEX
  8
7
  10
-23.453
  20
-24.342
  0
VERTEX
  8
7
  10
-22.970
  20
-24.088
  0
VERTEX
  8
7
  10
-22.564
  20
-23.885
  0
VERTEX
  8
7
  10
-22.259
  20
-23.707
  0
VERTEX
  8
7
  10
-22.055
  20
-23.605
  0
VERTEX
  8
7
  10
-21.979
  20
-23.555
  0
VERTEX
  8
7
  10
-21.852
  20
-23.300
  0
VERTEX
  8
7
  10
-21.547
  20
-22.614
  0
VERTEX
  8
7
  10
-21.115
  20
-21.649
  0
VERTEX
  8
7
  10
-20.607
  20
-20.556
  0
VERTEX
  8
7
  10
-20.124
  20
-19.438
  0
VERTEX
  8
7
  10
-19.692
  20
-18.473
  0
VERTEX
  8
7
  10
-19.387
  20
-17.786
  0
VERTEX
  8
7
  10
-19.260
  20
-17.507
  0
VERTEX
  8
7
  10
-19.362
  20
-17.202
  0
VERTEX
  8
7
  10
-19.641
  20
-16.338
  0
VERTEX
  8
7
  10
-20.023
  20
-15.144
  0
VERTEX
  8
7
  10
-20.455
  20
-13.746
  0
VERTEX
  8
7
  10
-20.912
  20
-12.374
  0
VERTEX
  8
7
  10
-21.293
  20
-11.154
  0
VERTEX
  8
7
  10
-21.573
  20
-10.316
  0
VERTEX
  8
7
  10
-21.674
  20
-9.986
  0
VERTEX
  8
7
  10
-27.391
  20
-2.718
  0
VERTEX
  8
7
  10
-27.391
  20
7.572
  0
VERTEX
  8
7
  10
-30.720
  20
12.705
  0
VERTEX
  8
7
  10
-36.133
  20
16.338
  0
VERTEX
  8
7
  10
-42.155
  20
16.033
  0
VERTEX
  8
7
  10
-43.349
  20
-0.609
  0
VERTEX
  8
7
  10
-46.068
  20
13.924
  0
VERTEX
  8
7
  10
-50.591
  20
17.253
  0
VERTEX
  8
7
  10
-58.722
  20
15.118
  0
VERTEX
  8
7
  10
-62.635
  20
11.205
  0
VERTEX
  8
7
  10
-64.388
  20
-3.633
  0
VERTEX
  8
7
  10
-64.490
  20
-2.413
  0
VERTEX
  8
7
  10
-64.693
  20
0.304
  0
VERTEX
  8
7
  10
-64.897
  20
3.023
  0
VERTEX
  8
7
  10
-64.973
  20
4.243
  0
VERTEX
  8
7
  10
-64.922
  20
4.268
  0
VERTEX
  8
7
  10
-64.719
  20
4.345
  0
VERTEX
  8
7
  10
-64.439
  20
4.472
  0
VERTEX
  8
7
  10
-64.058
  20
4.624
  0
VERTEX
  8
7
  10
-63.601
  20
4.802
  0
VERTEX
  8
7
  10
-63.093
  20
5.005
  0
VERTEX
  8
7
  10
-62.559
  20
5.234
  0
VERTEX
  8
7
  10
-62.000
  20
5.463
  0
VERTEX
  8
7
  10
-61.441
  20
5.666
  0
VERTEX
  8
7
  10
-60.907
  20
5.895
  0
VERTEX
  8
7
  10
-60.399
  20
6.098
  0
VERTEX
  8
7
  10
-59.942
  20
6.276
  0
VERTEX
  8
7
  10
-59.561
  20
6.428
  0
VERTEX
  8
7
  10
-59.256
  20
6.555
  0
VERTEX
  8
7
  10
-59.078
  20
6.632
  0
VERTEX
  8
7
  10
-59.002
  20
6.657
  0
VERTEX
  8
7
  10
-52.395
  20
8.182
  0
VERTEX
  8
7
  10
-47.567
  20
7.267
  0
VERTEX
  8
7
  10
-43.654
  20
4.548
  0
VERTEX
  8
7
  10
-38.242
  20
7.572
  0
VERTEX
  8
7
  10
-34.023
  20
8.766
  0
VERTEX
  8
7
  10
-27.696
  20
4.548
  0
SEQEND
  0
POLYLINE
  8
7
  6
CONTINUOUS
 66
  1
  0
VERTEX
  8
7
  10
-57.502
  20
-1.219
  0
VERTEX
  8
7
  10
-58.976
  20
3.328
  0
VERTEX
  8
7
  10
-57.197
  20
6.657
  0
VERTEX
  8
7
  10
-53.589
  20
5.742
  0
VERTEX
  8
7
  10
-51.480
  20
3.023
  0
VERTEX
  8
7
  10
-52.979
  20
-1.473
  0
VERTEX
  8
7
  10
-53.081
  20
-1.295
  0
VERTEX
  8
7
  10
-53.310
  20
-0.838
  0
VERTEX
  8
7
  10
-53.640
  20
-0.152
  0
VERTEX
  8
7
  10
-54.021
  20
0.609
  0
VERTEX
  8
7
  10
-54.428
  20
1.397
  0
VERTEX
  8
7
  10
-54.758
  20
2.058
  0
VERTEX
  8
7
  10
-54.987
  20
2.541
  0
VERTEX
  8
7
  10
-55.088
  20
2.718
  0
SEQEND
  0
POLYLINE
  8
7
  6
CONTINUOUS
 66
  1
  0
VERTEX
  8
7
  10
-37.022
  20
0.304
  0
VERTEX
  8
7
  10
-37.606
  20
5.132
  0
VERTEX
  8
7
  10
-34.633
  20
6.352
  0
VERTEX
  8
7
  10
-32.524
  20
4.243
  0
VERTEX
  8
7
  10
-31.914
  20
0.914
  0
VERTEX
  8
7
  10
-33.414
  20
-0.254
  0
VERTEX
  8
7
  10
-33.490
  20
-0.152
  0
VERTEX
  8
7
  10
-33.642
  20
0.101
  0
VERTEX
  8
7
  10
-33.896
  20
0.482
  0
VERTEX
  8
7
  10
-34.176
  20
0.914
  0
VERTEX
  8
7
  10
-34.455
  20
1.346
  0
VERTEX
  8
7
  10
-34.710
  20
1.727
  0
VERTEX
  8
7
  10
-34.862
  20
2.007
  0
VERTEX
  8
7
  10
-34.938
  20
2.109
  0
SEQEND
  0
ENDSEC
  0
EOF
