  0
SECTION
  2
HEADER
  9
$ACADVER
  1
AC1006
  9
$EXTMIN
 10
-1.895327
 20
-3.158732
  9
$EXTMAX
 10
1.858154
 20
3.159614
  9
$LTSCALE
 40
0.000394
  9
$PDMODE
 70
    35
  9
$PDSIZE
 40
0.000315
  0
ENDSEC
  0
SECTION
  2
TABLES
  0
TABLE
  2
LTYPE
 70
     9
  0
LTYPE
  2
CONTINUOUS
 70
    64
  3
Solid line
 72
    65
 73
     0
 40
0.000000
  0
LTYPE
  2
DASHED
 70
    64
  3
__ __ __ __ __ __ __ __ __ __ __ __ __ __ __
 72
    65
 73
     2
 40
0.000003
 49
0.000002
 49
-0.000001
  0
LTYPE
  2
HIDDEN
 70
    64
  3
 _ _ _ _ _ _ _ _ _ _ _ _ _ _ _ _ _ _ _ _ _ _
 72
    65
 73
     2
 40
0.000001
 49
0.000001
 49
-0.000000
  0
LTYPE
  2
CENTER
 70
    64
  3
____ _ ____ _ ____ _ ____ _ ____ _ ____ _ ____
 72
    65
 73
     4
 40
0.000008
 49
0.000005
 49
-0.000001
 49
0.000001
 49
-0.000001
  0
LTYPE
  2
PHANTOM
 70
    64
  3
_____ _ _ _____ _ _ _____ _ _ _____ _ _ ____
 72
    65
 73
     6
 40
0.000010
 49
0.000005
 49
-0.000001
 49
0.000001
 49
-0.000001
 49
0.000001
 49
-0.000001
  0
LTYPE
  2
DOT
 70
    64
  3
...............................................
 72
    65
 73
     2
 40
0.000001
 49
0.000000
 49
-0.000001
  0
LTYPE
  2
DASHDOT
 70
    64
  3
__ . __ . __ . __ . __ . __ . __ . __ . __ . __
 72
    65
 73
     4
 40
0.000004
 49
0.000002
 49
-0.000001
 49
0.000000
 49
-0.000001
  0
LTYPE
  2
BORDER
 70
    64
  3
__ __ . __ __ . __ __ . __ __ . __ __ . __ __
 72
    65
 73
     6
 40
0.000007
 49
0.000002
 49
-0.000001
 49
0.000002
 49
-0.000001
 49
0.000000
 49
-0.000001
  0
LTYPE
  2
DIVIDE
 70
    64
  3
__ . . __ . . __ . . __ . . __ . . __ . . __
 72
    65
 73
     6
 40
0.000005
 49
0.000002
 49
-0.000001
 49
0.000000
 49
-0.000001
 49
0.000000
 49
-0.000001
  0
LTYPE
  2
DOTDOT
 70
    64
  3
 . .  . .  . .  . .  . .  . . 
 72
    65
 73
     5
 40
0.000002
 49
-0.000001
 49
0.000000
 49
-0.000001
 49
0.000000
 49
-0.000001
  0
ENDTAB
  0
TABLE
  2
STYLE
 70
     0
  0
ENDTAB
  0
TABLE
  2
LAYER
 70
     3
  0
LAYER
  2
FOREGROUND
 70
    64
 62
     7
  6
CONTINUOUS
  0
LAYER
  2
BACKGROUND
 70
    65
 62
    -7
  6
CONTINUOUS
  0
LAYER
  2
PLAN_1
 70
    64
 62
     7
  6
CONTINUOUS
  0
ENDTAB
  0
ENDSEC
  0
SECTION
  2
ENTITIES
  0
POLYLINE
  8
PLAN_1
 62
    39
  6
CONTINUOUS
 66
     1
 40
0.003000
 41
0.003000
 70
     1
  0
VERTEX
  8
PLAN_1
 62
    39
  6
CONTINUOUS
 10
1.578189
 20
-3.156378
  0
VERTEX
  8
PLAN_1
 62
    39
  6
CONTINUOUS
 10
1.095449
 20
-3.007843
  0
VERTEX
  8
PLAN_1
 62
    39
  6
CONTINUOUS
 10
0.259937
 20
-2.989276
  0
VERTEX
  8
PLAN_1
 62
    39
  6
CONTINUOUS
 10
-0.445606
 20
-3.026409
  0
VERTEX
  8
PLAN_1
 62
    39
  6
CONTINUOUS
 10
-1.058315
 20
-3.063543
  0
VERTEX
  8
PLAN_1
 62
    39
  6
CONTINUOUS
 10
-1.392520
 20
-3.119244
  0
VERTEX
  8
PLAN_1
 62
    39
  6
CONTINUOUS
 10
-1.578189
 20
-3.044976
  0
VERTEX
  8
PLAN_1
 62
    39
  6
CONTINUOUS
 10
-1.800992
 20
-2.896441
  0
VERTEX
  8
PLAN_1
 62
    39
  6
CONTINUOUS
 10
-1.893827
 20
-2.729339
  0
VERTEX
  8
PLAN_1
 62
    39
  6
CONTINUOUS
 10
-1.893827
 20
-2.506535
  0
VERTEX
  8
PLAN_1
 62
    39
  6
CONTINUOUS
 10
-1.745291
 20
-2.246598
  0
VERTEX
  8
PLAN_1
 62
    39
  6
CONTINUOUS
 10
-1.466787
 20
-2.135197
  0
VERTEX
  8
PLAN_1
 62
    39
  6
CONTINUOUS
 10
-1.114016
 20
-2.116630
  0
VERTEX
  8
PLAN_1
 62
    39
  6
CONTINUOUS
 10
-1.336819
 20
-2.079496
  0
VERTEX
  8
PLAN_1
 62
    39
  6
CONTINUOUS
 10
-1.503921
 20
-1.930961
  0
VERTEX
  8
PLAN_1
 62
    39
  6
CONTINUOUS
 10
-1.541055
 20
-1.708157
  0
VERTEX
  8
PLAN_1
 62
    39
  6
CONTINUOUS
 10
-1.373953
 20
-1.503921
  0
VERTEX
  8
PLAN_1
 62
    39
  6
CONTINUOUS
 10
-1.151150
 20
-1.485354
  0
VERTEX
  8
PLAN_1
 62
    39
  6
CONTINUOUS
 10
-0.965480
 20
-1.541055
  0
VERTEX
  8
PLAN_1
 62
    39
  6
CONTINUOUS
 10
-0.724110
 20
-1.838126
  0
VERTEX
  8
PLAN_1
 62
    39
  6
CONTINUOUS
 10
-0.854079
 20
-1.578189
  0
VERTEX
  8
PLAN_1
 62
    39
  6
CONTINUOUS
 10
-0.891213
 20
-1.262551
  0
VERTEX
  8
PLAN_1
 62
    39
  6
CONTINUOUS
 10
-0.742677
 20
-0.909780
  0
VERTEX
  8
PLAN_1
 62
    39
  6
CONTINUOUS
 10
-0.557008
 20
-0.668409
  0
VERTEX
  8
PLAN_1
 62
    39
  6
CONTINUOUS
 10
-0.334205
 20
-0.501307
  0
VERTEX
  8
PLAN_1
 62
    39
  6
CONTINUOUS
 10
-0.129969
 20
-0.427039
  0
VERTEX
  8
PLAN_1
 62
    39
  6
CONTINUOUS
 10
-0.241370
 20
-0.055701
  0
VERTEX
  8
PLAN_1
 62
    39
  6
CONTINUOUS
 10
-0.278504
 20
0.259937
  0
VERTEX
  8
PLAN_1
 62
    39
  6
CONTINUOUS
 10
-0.297071
 20
0.594142
  0
VERTEX
  8
PLAN_1
 62
    39
  6
CONTINUOUS
 10
-0.129969
 20
0.408472
  0
VERTEX
  8
PLAN_1
 62
    39
  6
CONTINUOUS
 10
-0.037134
 20
0.241370
  0
VERTEX
  8
PLAN_1
 62
    39
  6
CONTINUOUS
 10
-0.129969
 20
0.557008
  0
VERTEX
  8
PLAN_1
 62
    39
  6
CONTINUOUS
 10
-0.167102
 20
0.798378
  0
VERTEX
  8
PLAN_1
 62
    39
  6
CONTINUOUS
 10
-0.148535
 20
1.188283
  0
VERTEX
  8
PLAN_1
 62
    39
  6
CONTINUOUS
 10
-0.074268
 20
1.058315
  0
VERTEX
  8
PLAN_1
 62
    39
  6
CONTINUOUS
 10
0.074268
 20
0.761244
  0
VERTEX
  8
PLAN_1
 62
    39
  6
CONTINUOUS
 10
0.000000
 20
1.188283
  0
VERTEX
  8
PLAN_1
 62
    39
  6
CONTINUOUS
 10
0.000000
 20
1.559622
  0
VERTEX
  8
PLAN_1
 62
    39
  6
CONTINUOUS
 10
0.148535
 20
1.318252
  0
VERTEX
  8
PLAN_1
 62
    39
  6
CONTINUOUS
 10
0.148535
 20
1.633890
  0
VERTEX
  8
PLAN_1
 62
    39
  6
CONTINUOUS
 10
0.222803
 20
2.005228
  0
VERTEX
  8
PLAN_1
 62
    39
  6
CONTINUOUS
 10
0.352772
 20
2.450835
  0
VERTEX
  8
PLAN_1
 62
    39
  6
CONTINUOUS
 10
0.557008
 20
2.785039
  0
VERTEX
  8
PLAN_1
 62
    39
  6
CONTINUOUS
 10
0.742677
 20
3.026409
  0
VERTEX
  8
PLAN_1
 62
    39
  6
CONTINUOUS
 10
0.835512
 20
3.156378
  0
VERTEX
  8
PLAN_1
 62
    39
  6
CONTINUOUS
 10
0.946913
 20
2.822173
  0
VERTEX
  8
PLAN_1
 62
    39
  6
CONTINUOUS
 10
1.002614
 20
2.525102
  0
VERTEX
  8
PLAN_1
 62
    39
  6
CONTINUOUS
 10
0.946913
 20
2.246598
  0
VERTEX
  8
PLAN_1
 62
    39
  6
CONTINUOUS
 10
0.854079
 20
1.838126
  0
VERTEX
  8
PLAN_1
 62
    39
  6
CONTINUOUS
 10
0.612709
 20
1.169717
  0
VERTEX
  8
PLAN_1
 62
    39
  6
CONTINUOUS
 10
0.854079
 20
1.466787
  0
VERTEX
  8
PLAN_1
 62
    39
  6
CONTINUOUS
 10
0.984047
 20
1.596756
  0
VERTEX
  8
PLAN_1
 62
    39
  6
CONTINUOUS
 10
0.872646
 20
1.318252
  0
VERTEX
  8
PLAN_1
 62
    39
  6
CONTINUOUS
 10
0.668409
 20
0.891213
  0
VERTEX
  8
PLAN_1
 62
    39
  6
CONTINUOUS
 10
0.519874
 20
0.538441
  0
VERTEX
  8
PLAN_1
 62
    39
  6
CONTINUOUS
 10
0.408472
 20
0.018567
  0
VERTEX
  8
PLAN_1
 62
    39
  6
CONTINUOUS
 10
0.352772
 20
-0.408472
  0
VERTEX
  8
PLAN_1
 62
    39
  6
CONTINUOUS
 10
0.686976
 20
-0.538441
  0
VERTEX
  8
PLAN_1
 62
    39
  6
CONTINUOUS
 10
0.872646
 20
-0.631276
  0
VERTEX
  8
PLAN_1
 62
    39
  6
CONTINUOUS
 10
1.114016
 20
-0.872646
  0
VERTEX
  8
PLAN_1
 62
    39
  6
CONTINUOUS
 10
1.281118
 20
-1.188283
  0
VERTEX
  8
PLAN_1
 62
    39
  6
CONTINUOUS
 10
1.355386
 20
-1.485354
  0
VERTEX
  8
PLAN_1
 62
    39
  6
CONTINUOUS
 10
1.336819
 20
-1.782425
  0
VERTEX
  8
PLAN_1
 62
    39
  6
CONTINUOUS
 10
1.076882
 20
-2.209465
  0
VERTEX
  8
PLAN_1
 62
    39
  6
CONTINUOUS
 10
1.299685
 20
-2.079496
  0
VERTEX
  8
PLAN_1
 62
    39
  6
CONTINUOUS
 10
1.485354
 20
-2.060929
  0
VERTEX
  8
PLAN_1
 62
    39
  6
CONTINUOUS
 10
1.671024
 20
-2.116630
  0
VERTEX
  8
PLAN_1
 62
    39
  6
CONTINUOUS
 10
1.819559
 20
-2.246598
  0
VERTEX
  8
PLAN_1
 62
    39
  6
CONTINUOUS
 10
1.856693
 20
-2.413701
  0
VERTEX
  8
PLAN_1
 62
    39
  6
CONTINUOUS
 10
1.800992
 20
-2.617937
  0
VERTEX
  8
PLAN_1
 62
    39
  6
CONTINUOUS
 10
1.671024
 20
-2.710772
  0
VERTEX
  8
PLAN_1
 62
    39
  6
CONTINUOUS
 10
1.503921
 20
-2.766472
  0
VERTEX
  8
PLAN_1
 62
    39
  6
CONTINUOUS
 10
1.392520
 20
-2.729339
  0
SEQEND
  8
0
  0
POLYLINE
  8
PLAN_1
 62
    39
  6
CONTINUOUS
 66
     1
 40
0.003000
 41
0.003000
  0
VERTEX
  8
PLAN_1
 62
    39
  6
CONTINUOUS
 10
1.151150
 20
-2.376567
  0
VERTEX
  8
PLAN_1
 62
    39
  6
CONTINUOUS
 10
1.336819
 20
-2.209465
  0
VERTEX
  8
PLAN_1
 62
    39
  6
CONTINUOUS
 10
1.503921
 20
-2.172331
  0
VERTEX
  8
PLAN_1
 62
    39
  6
CONTINUOUS
 10
1.522488
 20
-2.283732
  0
VERTEX
  8
PLAN_1
 62
    39
  6
CONTINUOUS
 10
1.355386
 20
-2.450835
  0
VERTEX
  8
PLAN_1
 62
    39
  6
CONTINUOUS
 10
1.262551
 20
-2.543669
  0
SEQEND
  8
0
  0
POLYLINE
  8
PLAN_1
 62
    39
  6
CONTINUOUS
 66
     1
 40
0.003000
 41
0.003000
 70
     1
  0
VERTEX
  8
PLAN_1
 62
    39
  6
CONTINUOUS
 10
0.908571
 20
0.156933
  0
VERTEX
  8
PLAN_1
 62
    39
  6
CONTINUOUS
 10
0.937075
 20
0.166841
  0
VERTEX
  8
PLAN_1
 62
    39
  6
CONTINUOUS
 10
0.969839
 20
0.208129
  0
VERTEX
  8
PLAN_1
 62
    39
  6
CONTINUOUS
 10
0.999815
 20
0.271913
  0
VERTEX
  8
PLAN_1
 62
    39
  6
CONTINUOUS
 10
1.017851
 20
0.340042
  0
VERTEX
  8
PLAN_1
 62
    39
  6
CONTINUOUS
 10
1.019290
 20
0.392731
  0
VERTEX
  8
PLAN_1
 62
    39
  6
CONTINUOUS
 10
1.003823
 20
0.418642
  0
VERTEX
  8
PLAN_1
 62
    39
  6
CONTINUOUS
 10
0.975319
 20
0.408734
  0
VERTEX
  8
PLAN_1
 62
    39
  6
CONTINUOUS
 10
0.942555
 20
0.367446
  0
VERTEX
  8
PLAN_1
 62
    39
  6
CONTINUOUS
 10
0.912579
 20
0.303661
  0
VERTEX
  8
PLAN_1
 62
    39
  6
CONTINUOUS
 10
0.894542
 20
0.235532
  0
VERTEX
  8
PLAN_1
 62
    39
  6
CONTINUOUS
 10
0.893103
 20
0.182844
  0
SEQEND
  8
0
  0
POLYLINE
  8
PLAN_1
 62
    39
  6
CONTINUOUS
 66
     1
 40
0.003000
 41
0.003000
 70
     1
  0
VERTEX
  8
PLAN_1
 62
    39
  6
CONTINUOUS
 10
1.149941
 20
-0.195839
  0
VERTEX
  8
PLAN_1
 62
    39
  6
CONTINUOUS
 10
1.178445
 20
-0.185932
  0
VERTEX
  8
PLAN_1
 62
    39
  6
CONTINUOUS
 10
1.211209
 20
-0.144644
  0
VERTEX
  8
PLAN_1
 62
    39
  6
CONTINUOUS
 10
1.241185
 20
-0.080858
  0
VERTEX
  8
PLAN_1
 62
    39
  6
CONTINUOUS
 10
1.259222
 20
-0.012729
  0
VERTEX
  8
PLAN_1
 62
    39
  6
CONTINUOUS
 10
1.260662
 20
0.039959
  0
VERTEX
  8
PLAN_1
 62
    39
  6
CONTINUOUS
 10
1.245193
 20
0.065870
  0
VERTEX
  8
PLAN_1
 62
    39
  6
CONTINUOUS
 10
1.216689
 20
0.055963
  0
VERTEX
  8
PLAN_1
 62
    39
  6
CONTINUOUS
 10
1.183925
 20
0.014676
  0
VERTEX
  8
PLAN_1
 62
    39
  6
CONTINUOUS
 10
1.153949
 20
-0.049110
  0
VERTEX
  8
PLAN_1
 62
    39
  6
CONTINUOUS
 10
1.135911
 20
-0.117239
  0
VERTEX
  8
PLAN_1
 62
    39
  6
CONTINUOUS
 10
1.134472
 20
-0.169927
  0
SEQEND
  8
0
  0
POLYLINE
  8
PLAN_1
 62
    39
  6
CONTINUOUS
 66
     1
 40
0.003000
 41
0.003000
 70
     1
  0
VERTEX
  8
PLAN_1
 62
    39
  6
CONTINUOUS
 10
1.372744
 20
-0.511476
  0
VERTEX
  8
PLAN_1
 62
    39
  6
CONTINUOUS
 10
1.401248
 20
-0.501570
  0
VERTEX
  8
PLAN_1
 62
    39
  6
CONTINUOUS
 10
1.434012
 20
-0.460282
  0
VERTEX
  8
PLAN_1
 62
    39
  6
CONTINUOUS
 10
1.463988
 20
-0.396496
  0
VERTEX
  8
PLAN_1
 62
    39
  6
CONTINUOUS
 10
1.482026
 20
-0.328367
  0
VERTEX
  8
PLAN_1
 62
    39
  6
CONTINUOUS
 10
1.483465
 20
-0.275679
  0
VERTEX
  8
PLAN_1
 62
    39
  6
CONTINUOUS
 10
1.467996
 20
-0.249768
  0
VERTEX
  8
PLAN_1
 62
    39
  6
CONTINUOUS
 10
1.439492
 20
-0.259675
  0
VERTEX
  8
PLAN_1
 62
    39
  6
CONTINUOUS
 10
1.406728
 20
-0.300962
  0
VERTEX
  8
PLAN_1
 62
    39
  6
CONTINUOUS
 10
1.376752
 20
-0.364748
  0
VERTEX
  8
PLAN_1
 62
    39
  6
CONTINUOUS
 10
1.358715
 20
-0.432877
  0
VERTEX
  8
PLAN_1
 62
    39
  6
CONTINUOUS
 10
1.357275
 20
-0.485565
  0
SEQEND
  8
0
  0
POLYLINE
  8
PLAN_1
 62
    39
  6
CONTINUOUS
 66
     1
 40
0.003000
 41
0.003000
 70
     1
  0
VERTEX
  8
PLAN_1
 62
    39
  6
CONTINUOUS
 10
-1.257909
 20
-0.872555
  0
VERTEX
  8
PLAN_1
 62
    39
  6
CONTINUOUS
 10
-1.247176
 20
-0.844352
  0
VERTEX
  8
PLAN_1
 62
    39
  6
CONTINUOUS
 10
-1.257744
 20
-0.792714
  0
VERTEX
  8
PLAN_1
 62
    39
  6
CONTINUOUS
 10
-1.287339
 20
-0.728752
  0
VERTEX
  8
PLAN_1
 62
    39
  6
CONTINUOUS
 10
-1.327934
 20
-0.671142
  0
VERTEX
  8
PLAN_1
 62
    39
  6
CONTINUOUS
 10
-1.367369
 20
-0.636171
  0
VERTEX
  8
PLAN_1
 62
    39
  6
CONTINUOUS
 10
-1.397161
 20
-0.631366
  0
VERTEX
  8
PLAN_1
 62
    39
  6
CONTINUOUS
 10
-1.407895
 20
-0.659570
  0
VERTEX
  8
PLAN_1
 62
    39
  6
CONTINUOUS
 10
-1.397327
 20
-0.711207
  0
VERTEX
  8
PLAN_1
 62
    39
  6
CONTINUOUS
 10
-1.367732
 20
-0.775169
  0
VERTEX
  8
PLAN_1
 62
    39
  6
CONTINUOUS
 10
-1.327137
 20
-0.832780
  0
VERTEX
  8
PLAN_1
 62
    39
  6
CONTINUOUS
 10
-1.287701
 20
-0.867751
  0
SEQEND
  8
0
  0
POLYLINE
  8
PLAN_1
 62
    39
  6
CONTINUOUS
 66
     1
 40
0.003000
 41
0.003000
 70
     1
  0
VERTEX
  8
PLAN_1
 62
    39
  6
CONTINUOUS
 10
-0.380236
 20
-1.717303
  0
VERTEX
  8
PLAN_1
 62
    39
  6
CONTINUOUS
 10
-0.363938
 20
-1.711635
  0
VERTEX
  8
PLAN_1
 62
    39
  6
CONTINUOUS
 10
-0.345197
 20
-1.688020
  0
VERTEX
  8
PLAN_1
 62
    39
  6
CONTINUOUS
 10
-0.328051
 20
-1.651535
  0
VERTEX
  8
PLAN_1
 62
    39
  6
CONTINUOUS
 10
-0.317737
 20
-1.612568
  0
VERTEX
  8
PLAN_1
 62
    39
  6
CONTINUOUS
 10
-0.316914
 20
-1.582435
  0
VERTEX
  8
PLAN_1
 62
    39
  6
CONTINUOUS
 10
-0.325760
 20
-1.567614
  0
VERTEX
  8
PLAN_1
 62
    39
  6
CONTINUOUS
 10
-0.342058
 20
-1.573283
  0
VERTEX
  8
PLAN_1
 62
    39
  6
CONTINUOUS
 10
-0.360795
 20
-1.596900
  0
VERTEX
  8
PLAN_1
 62
    39
  6
CONTINUOUS
 10
-0.377933
 20
-1.633378
  0
VERTEX
  8
PLAN_1
 62
    39
  6
CONTINUOUS
 10
-0.388261
 20
-1.672342
  0
VERTEX
  8
PLAN_1
 62
    39
  6
CONTINUOUS
 10
-0.389084
 20
-1.702478
  0
SEQEND
  8
0
  0
POLYLINE
  8
PLAN_1
 62
    39
  6
CONTINUOUS
 66
     1
 40
0.003000
 41
0.003000
 70
     1
  0
VERTEX
  8
PLAN_1
 62
    39
  6
CONTINUOUS
 10
-0.194567
 20
-1.717295
  0
VERTEX
  8
PLAN_1
 62
    39
  6
CONTINUOUS
 10
-0.178265
 20
-1.711629
  0
VERTEX
  8
PLAN_1
 62
    39
  6
CONTINUOUS
 10
-0.159526
 20
-1.688016
  0
VERTEX
  8
PLAN_1
 62
    39
  6
CONTINUOUS
 10
-0.142382
 20
-1.651535
  0
VERTEX
  8
PLAN_1
 62
    39
  6
CONTINUOUS
 10
-0.132066
 20
-1.612570
  0
VERTEX
  8
PLAN_1
 62
    39
  6
CONTINUOUS
 10
-0.131244
 20
-1.582437
  0
VERTEX
  8
PLAN_1
 62
    39
  6
CONTINUOUS
 10
-0.140091
 20
-1.567618
  0
VERTEX
  8
PLAN_1
 62
    39
  6
CONTINUOUS
 10
-0.156393
 20
-1.573283
  0
VERTEX
  8
PLAN_1
 62
    39
  6
CONTINUOUS
 10
-0.175131
 20
-1.596897
  0
VERTEX
  8
PLAN_1
 62
    39
  6
CONTINUOUS
 10
-0.192276
 20
-1.633378
  0
VERTEX
  8
PLAN_1
 62
    39
  6
CONTINUOUS
 10
-0.202591
 20
-1.672342
  0
VERTEX
  8
PLAN_1
 62
    39
  6
CONTINUOUS
 10
-0.203414
 20
-1.702476
  0
SEQEND
  8
0
  0
ENDSEC
  0
EOF
