  0
SECTION
  2
HEADER
  9
$ACADVER
  1
AC1009
  9
$ANGBASE
  50
0.0
  9
$ANGDIR
  70
0
  9
$ATTDIA
  70
0
  9
$ATTMODE
  70
1
  9
$ATTREQ
  70
1
  9
$AUNITS
  70
0
  9
$AUPREC
  70
2
  9
$AXISMODE
  70
0
  9
$CECOLOR
  62
256
  9
$CELTYPE
  6
BYLAYER
  9
$CLAYER
  8
0
  9
$DIMALT
  70
0
  9
$DIMALTD
  70
2
  9
$DIMALTF
  40
0.394
  9
$DIMAPOST
  1

  9
$DIMASO
  70
1
  9
$DIMASZ
  40
0.25
  9
$DIMBLK
  1

  9
$DIMBLK1
  1

  9
$DIMBLK2
  1

  9
$DIMCEN
  40
0.09
  9
$DIMCLRD
  70
256
  9
$DIMCLRE
  70
256
  9
$DIMCLRT
  70
256
  9
$DIMDLE
  40
0.0
  9
$DIMDLI
  40
0.375
  9
$DIMEXE
  40
0.125
  9
$DIMEXO
  40
0.0625
  9
$DIMGAP
  40
0.0625
  9
$DIMLFAC
  40
1.0
  9
$DIMLIM
  70
0
  9
$DIMPOST
  1

  9
$DIMRND
  40
0.01
  9
$DIMSAH
  70
0
  9
$DIMSCALE
  40
1.0
  9
$DIMSE1
  70
0
  9
$DIMSE2
  70
0
  9
$DIMSHO
  70
1
  9
$DIMSOXD
  70
0
  9
$DIMSTYLE
  2
STANDARD
  9
$DIMTAD
  70
1
  9
$DIMTFAC
  40
1.0
  9
$DIMTIH
  70
1
  9
$DIMTIX
  70
0
  9
$DIMTM
  40
0.0
  9
$DIMTOFL
  70
1
  9
$DIMTOH
  70
0
  9
$DIMTOL
  70
0
  9
$DIMTP
  40
0.0
  9
$DIMTSZ
  40
0.0
  9
$DIMTVP
  40
0.0
  9
$DIMTXT
  40
0.25
  9
$DIMZIN
  70
1
  9
$DRAGMODE
  70
0
  9
$ELEVATION
  40
0.0
  9
$EXTMAX
  10
0.0
  20
0.0
  30
0.0
  9
$EXTMIN
  10
0.0
  20
0.0
  30
0.0
  9
$FILLETRAD
  40
1.0
  9
$FILLMODE
  70
1
  9
$INSBASE
  10
0.0
  20
0.0
  30
0.0
  9
$LIMMAX
  10
141.398479
  20
44.854015
  9
$LIMMIN
  10
2.385227
  20
-10.71334
  9
$LTSCALE
  40
1.0
  9
$LUNITS
  70
2
  9
$LUPREC
  70
2
  9
$MENU
  1
acad
  9
$MIRRTEXT
  70
0
  9
$ORTHOMODE
  70
0
  9
$OSMODE
  70
0
  9
$PDMODE
  70
0
  9
$PDSIZE
  40
0.0
  9
$PEXTMAX
  10
0.0
  20
0.0
  30
0.0
  9
$PEXTMIN
  10
0.0
  20
0.0
  30
0.0
  9
$PLIMCHECK
  70
0
  9
$PLIMMAX
  10
0.0
  20
0.0
  9
$PLIMMIN
  10
0.0
  20
0.0
  9
$PLINEWID
  40
0.0
  9
$PUCSORG
  10
0.0
  20
0.0
  30
0.0
  9
$PUCSXDIR
  10
1.0
  20
0.0
  30
0.0
  9
$PUCSYDIR
  10
0.0
  20
1.0
  30
0.0
  9
$QTEXTMODE
  70
0
  9
$SHADEDGE
  70
3
  9
$SHADEDIF
  70
70
  9
$SKETCHINC
  40
1.0
  9
$SPLFRAME
  70
0
  9
$SPLINESEGS
  70
20
  9
$SPLINETYPE
  70
1
  9
$SURFTAB1
  70
6
  9
$SURFTAB2
  70
6
  9
$TDINDWG
  40
0.0
  9
$TDUPDATE
  40
2449702.667959
  9
$TDUSRTIMER
  40
0.0
  9
$TEXTSIZE
  40
0.5
  9
$TEXTSTYLE
  7
STANDARD
  9
$TILEMODE
  70
1
  9
$TRACEWID
  40
1.0
  9
$UCSORG
  10
0.0
  20
0.0
  30
0.0
  9
$UCSXDIR
  10
1.0
  20
0.0
  30
0.0
  9
$UCSYDIR
  10
0.0
  20
1.0
  30
0.0
  9
$UNITMODE
  70
0
  9
$WORLDVIEW
  70
1
  9
$GRIDMODE
  70
0
  9
$PINSBASE
  10
0.0
  20
0.0
  30
0.0
  9
$PSLTSCALE
  70
1
  9
$TREEDEPTH
  70
3020
  9
$DWGCODEPAGE
  3
ansi_1252
  0
ENDSEC
  0
SECTION
  2
TABLES
  0
TABLE
  2
VPORT
  70
1
  0
VPORT
  2
*ACTIVE
  70
0
  10
0.0
  20
0.0
  11
1.0
  21
1.0
  12
0.0
  22
0.0
  13
0.0
  23
0.0
  14
0.5
  24
0.5
  15
0.5
  25
0.5
  16
0.0
  26
0.0
  36
1.0
  17
-0.496703
  27
9.584456
  37
3.0
  40
13.984468
  41
1.695238
  42
50.0
  43
0.0
  44
0.0
  50
0.0
  51
0.0
  71
0
  72
100
  73
1
  74
1
  75
0
  76
0
  77
0
  78
0
  0
ENDTAB
  0
TABLE
  2
LTYPE
  70
11
  0
LTYPE
  2
CONTINUOUS
  70
0
  3
CONTINUOUS
  72
65
  73
0
  40
0.0
  0
LTYPE
  2
BORDER
  70
0
  3
BORDER
  72
65
  73
6
  40
1.75
  49
0.5
  49
-0.25
  49
0.5
  49
-0.25
  49
0.0
  49
-0.25
  0
LTYPE
  2
CENTER
  70
0
  3
CENTER
  72
65
  73
4
  40
2.0
  49
1.25
  49
-0.25
  49
0.25
  49
-0.25
  0
LTYPE
  2
DASHDOT
  70
0
  3
DASHDOT
  72
65
  73
4
  40
1.0
  49
0.5
  49
-0.25
  49
0.0
  49
-0.25
  0
LTYPE
  2
DASHED
  70
0
  3
DASHED
  72
65
  73
2
  40
0.75
  49
0.5
  49
-0.25
  0
LTYPE
  2
DIVIDE
  70
0
  3
DIVIDE
  72
65
  73
6
  40
1.25
  49
0.5
  49
-0.25
  49
0.0
  49
-0.25
  49
0.0
  49
-0.25
  0
LTYPE
  2
DOT
  70
0
  3
DOT
  72
65
  73
2
  40
0.25
  49
0.0
  49
-0.25
  0
LTYPE
  2
HIDDEN
  70
0
  3
HIDDEN
  72
65
  73
2
  40
0.375
  49
0.25
  49
-0.125
  0
LTYPE
  2
PHANTOM
  70
0
  3
PHANTOM
  72
65
  73
6
  40
2.5
  49
1.25
  49
-0.25
  49
0.25
  49
-0.25
  49
0.25
  49
-0.25
  0
LTYPE
  2
$INVISIBLE
  70
0
  3
$INVISIBLE
  72
65
  73
2
  40
200.0
  49
-100.0
  49
-100.0
  0
LTYPE
  2
$AUXILIARY
  70
0
  3
$AUXILIARY
  72
65
  73
2
  40
0.1
  49
0.05
  49
-0.05
  0
ENDTAB
  0
TABLE
  2
LAYER
  70
1
  0
LAYER
  2
0
  70
64
  6
CONTINUOUS
  62
7
  0
ENDTAB
  0
TABLE
  2
STYLE
  70
9
  0
STYLE
  2
_TCW_TXTSTY_1
  70
0
  40
1.0
  41
1.0
  42
1.0
  50
0.0
  71
0
  3
TIMES.TTF
  4

  0
STYLE
  2
_TCW_TXTSTY_2
  70
0
  40
1.0
  41
1.0
  42
1.0
  50
0.0
  71
0
  3
TIMES.TTF
  4

  0
STYLE
  2
_TCW_TXTSTY_3
  70
0
  40
0.25
  41
1.0
  42
0.25
  50
0.0
  71
0
  3
TIMES.TTF
  4

  0
STYLE
  2
_TCW_TXTSTY_4
  70
0
  40
0.25
  41
1.0
  42
0.25
  50
0.0
  71
0
  3
TIMES.TTF
  4

  0
STYLE
  2
_TCW_TXTSTY_5
  70
0
  40
1.0
  41
1.0
  42
1.0
  50
0.0
  71
0
  3
TIMES.TTF
  4

  0
STYLE
  2
_TCW_TXTSTY_6
  70
0
  40
2.0
  41
1.0
  42
2.0
  50
0.0
  71
0
  3
TIMES.TTF
  4

  0
STYLE
  2
_TCW_TXTSTY_7
  70
0
  40
0.75
  41
1.0
  42
0.75
  50
0.0
  71
0
  3
TIMES.TTF
  4

  0
STYLE
  2
_TCW_TXTSTY_8
  70
0
  40
0.5
  41
1.0
  42
0.5
  50
0.0
  71
0
  3
TIMES.TTF
  4

  0
STYLE
  2
STANDARD
  70
0
  40
0.25
  41
1.0
  42
0.25
  50
0.0
  71
0
  3
TXT
  4

  0
ENDTAB
  0
TABLE
  2
VIEW
  70
1
  0
VIEW
  2
VIEW_0
  70
2
  40
8.267716
  41
11.692913
  10
5.846457
  20
4.133858
  11
0.0
  21
0.0
  31
1.0
  12
0.0
  22
0.0
  32
0.0
  42
50.0
  43
0.0
  44
0.0
  50
0.0
  71
0
  0
ENDTAB
  0
TABLE
  2
DIMSTYLE
  70
1
  0
DIMSTYLE
  2
STANDARD
  70
0
  3

  4

  5

  6

  7

  40
1.0
  41
0.25
  42
0.0625
  43
0.375
  44
0.125
  45
0.01
  46
0.0
  47
0.0
  48
0.0
  140
1.157408
  141
0.0
  142
0.0
  143
0.0
  144
1.0
  145
0.0
  146
1.0
  147
0.0625
  71
0
  72
0
  73
1
  74
1
  75
0
  76
0
  77
1
  78
1
  170
0
  171
0
  172
1
  173
0
  174
0
  175
0
  176
7
  177
7
  178
7
  0
ENDTAB
  0
ENDSEC
  0
SECTION
  2
BLOCKS
  0
BLOCK
  8
0
  70
65
  2
*C0
  10
0.0
  20
0.0
  30
0.0
  3
*C
  0
POLYLINE
  8
0
  6
CONTINUOUS
  62
7
  66
1
  70
128
  0
VERTEX
  8
0
  10
-11.699702
  20
6.816544
  30
0.0
  0
VERTEX
  8
0
  10
-11.722538
  20
6.818459
  30
0.0
  0
VERTEX
  8
0
  10
-11.745714
  20
6.818835
  30
0.0
  0
VERTEX
  8
0
  10
-11.769133
  20
6.81772
  30
0.0
  0
VERTEX
  8
0
  10
-11.792696
  20
6.815162
  30
0.0
  0
VERTEX
  8
0
  10
-11.816306
  20
6.811208
  30
0.0
  0
VERTEX
  8
0
  10
-11.839865
  20
6.805907
  30
0.0
  0
VERTEX
  8
0
  10
-11.863276
  20
6.799305
  30
0.0
  0
VERTEX
  8
0
  10
-11.886439
  20
6.791451
  30
0.0
  0
VERTEX
  8
0
  10
-11.909257
  20
6.782393
  30
0.0
  0
VERTEX
  8
0
  10
-11.931633
  20
6.772177
  30
0.0
  0
VERTEX
  8
0
  10
-11.953469
  20
6.760852
  30
0.0
  0
VERTEX
  8
0
  10
-11.974666
  20
6.748465
  30
0.0
  0
VERTEX
  8
0
  10
-11.995126
  20
6.735064
  30
0.0
  0
VERTEX
  8
0
  10
-12.014753
  20
6.720697
  30
0.0
  0
VERTEX
  8
0
  10
-12.033447
  20
6.705411
  30
0.0
  0
VERTEX
  8
0
  10
-12.051112
  20
6.689255
  30
0.0
  0
VERTEX
  8
0
  10
-12.067649
  20
6.672275
  30
0.0
  0
VERTEX
  8
0
  10
-12.08296
  20
6.65452
  30
0.0
  0
VERTEX
  8
0
  10
-12.096947
  20
6.636036
  30
0.0
  0
VERTEX
  8
0
  10
-12.109513
  20
6.616873
  30
0.0
  0
VERTEX
  8
0
  10
-12.115676
  20
6.604557
  30
0.0
  0
VERTEX
  8
0
  10
-12.11959
  20
6.591839
  30
0.0
  0
VERTEX
  8
0
  10
-12.121399
  20
6.578785
  30
0.0
  0
VERTEX
  8
0
  10
-12.121249
  20
6.565463
  30
0.0
  0
VERTEX
  8
0
  10
-12.119282
  20
6.551939
  30
0.0
  0
VERTEX
  8
0
  10
-12.115645
  20
6.538282
  30
0.0
  0
VERTEX
  8
0
  10
-12.110481
  20
6.524559
  30
0.0
  0
VERTEX
  8
0
  10
-12.103935
  20
6.510836
  30
0.0
  0
VERTEX
  8
0
  10
-12.096151
  20
6.497181
  30
0.0
  0
VERTEX
  8
0
  10
-12.087274
  20
6.483662
  30
0.0
  0
VERTEX
  8
0
  10
-12.077449
  20
6.470345
  30
0.0
  0
VERTEX
  8
0
  10
-12.06682
  20
6.457298
  30
0.0
  0
VERTEX
  8
0
  10
-12.055531
  20
6.444588
  30
0.0
  0
VERTEX
  8
0
  10
-12.043727
  20
6.432283
  30
0.0
  0
VERTEX
  8
0
  10
-12.031552
  20
6.42045
  30
0.0
  0
VERTEX
  8
0
  10
-12.019151
  20
6.409155
  30
0.0
  0
VERTEX
  8
0
  10
-12.006669
  20
6.398467
  30
0.0
  0
VERTEX
  8
0
  10
-11.994249
  20
6.388452
  30
0.0
  0
VERTEX
  8
0
  10
-11.982037
  20
6.379179
  30
0.0
  0
VERTEX
  8
0
  10
-11.970177
  20
6.370713
  30
0.0
  0
VERTEX
  8
0
  10
-11.946243
  20
6.354572
  30
0.0
  0
VERTEX
  8
0
  10
-11.921907
  20
6.338939
  30
0.0
  0
VERTEX
  8
0
  10
-11.897189
  20
6.323821
  30
0.0
  0
VERTEX
  8
0
  10
-11.872106
  20
6.309223
  30
0.0
  0
VERTEX
  8
0
  10
-11.846678
  20
6.295153
  30
0.0
  0
VERTEX
  8
0
  10
-11.820923
  20
6.281617
  30
0.0
  0
VERTEX
  8
0
  10
-11.79486
  20
6.268622
  30
0.0
  0
VERTEX
  8
0
  10
-11.768508
  20
6.256175
  30
0.0
  0
VERTEX
  8
0
  10
-11.741885
  20
6.244281
  30
0.0
  0
VERTEX
  8
0
  10
-11.71501
  20
6.232949
  30
0.0
  0
VERTEX
  8
0
  10
-11.687901
  20
6.222183
  30
0.0
  0
VERTEX
  8
0
  10
-11.660578
  20
6.211991
  30
0.0
  0
VERTEX
  8
0
  10
-11.633059
  20
6.20238
  30
0.0
  0
VERTEX
  8
0
  10
-11.605363
  20
6.193356
  30
0.0
  0
VERTEX
  8
0
  10
-11.577508
  20
6.184926
  30
0.0
  0
VERTEX
  8
0
  10
-11.549513
  20
6.177096
  30
0.0
  0
VERTEX
  8
0
  10
-11.521397
  20
6.169872
  30
0.0
  0
VERTEX
  8
0
  10
-11.493178
  20
6.163263
  30
0.0
  0
VERTEX
  8
0
  10
-11.464876
  20
6.157273
  30
0.0
  0
VERTEX
  8
0
  10
-11.436508
  20
6.15191
  30
0.0
  0
VERTEX
  8
0
  10
-11.371525
  20
6.140671
  30
0.0
  0
VERTEX
  8
0
  10
-11.306416
  20
6.130034
  30
0.0
  0
VERTEX
  8
0
  10
-11.241188
  20
6.119999
  30
0.0
  0
VERTEX
  8
0
  10
-11.175851
  20
6.110566
  30
0.0
  0
VERTEX
  8
0
  10
-11.110411
  20
6.101738
  30
0.0
  0
VERTEX
  8
0
  10
-11.044879
  20
6.093514
  30
0.0
  0
VERTEX
  8
0
  10
-10.979263
  20
6.085896
  30
0.0
  0
VERTEX
  8
0
  10
-10.91357
  20
6.078883
  30
0.0
  0
VERTEX
  8
0
  10
-10.847809
  20
6.072477
  30
0.0
  0
VERTEX
  8
0
  10
-10.781989
  20
6.066678
  30
0.0
  0
VERTEX
  8
0
  10
-10.716119
  20
6.061487
  30
0.0
  0
VERTEX
  8
0
  10
-10.650206
  20
6.056905
  30
0.0
  0
VERTEX
  8
0
  10
-10.58426
  20
6.052932
  30
0.0
  0
VERTEX
  8
0
  10
-10.518288
  20
6.049569
  30
0.0
  0
VERTEX
  8
0
  10
-10.452299
  20
6.046817
  30
0.0
  0
VERTEX
  8
0
  10
-10.386301
  20
6.044677
  30
0.0
  0
VERTEX
  8
0
  10
-10.320304
  20
6.043149
  30
0.0
  0
VERTEX
  8
0
  10
-10.254315
  20
6.042234
  30
0.0
  0
VERTEX
  8
0
  10
-10.188344
  20
6.041932
  30
0.0
  0
VERTEX
  8
0
  10
-10.122397
  20
6.042245
  30
0.0
  0
SEQEND
  0
ENDBLK
  0
BLOCK
  8
0
  70
65
  2
*C1
  10
0.0
  20
0.0
  30
0.0
  3
*C
  0
POLYLINE
  8
0
  6
CONTINUOUS
  62
7
  66
1
  70
128
  0
VERTEX
  8
0
  10
2.935875
  20
0.58304
  30
0.0
  0
VERTEX
  8
0
  10
2.949418
  20
0.662083
  30
0.0
  0
VERTEX
  8
0
  10
2.962704
  20
0.741174
  30
0.0
  0
VERTEX
  8
0
  10
2.975731
  20
0.820311
  30
0.0
  0
VERTEX
  8
0
  10
2.9885
  20
0.899493
  30
0.0
  0
VERTEX
  8
0
  10
3.001011
  20
0.978719
  30
0.0
  0
VERTEX
  8
0
  10
3.013263
  20
1.057988
  30
0.0
  0
VERTEX
  8
0
  10
3.025257
  20
1.137298
  30
0.0
  0
VERTEX
  8
0
  10
3.036991
  20
1.216648
  30
0.0
  0
VERTEX
  8
0
  10
3.048467
  20
1.296036
  30
0.0
  0
VERTEX
  8
0
  10
3.059683
  20
1.375462
  30
0.0
  0
VERTEX
  8
0
  10
3.07064
  20
1.454925
  30
0.0
  0
VERTEX
  8
0
  10
3.081337
  20
1.534422
  30
0.0
  0
VERTEX
  8
0
  10
3.091774
  20
1.613953
  30
0.0
  0
VERTEX
  8
0
  10
3.101951
  20
1.693517
  30
0.0
  0
VERTEX
  8
0
  10
3.111868
  20
1.773111
  30
0.0
  0
VERTEX
  8
0
  10
3.121525
  20
1.852735
  30
0.0
  0
VERTEX
  8
0
  10
3.130921
  20
1.932388
  30
0.0
  0
VERTEX
  8
0
  10
3.140056
  20
2.012069
  30
0.0
  0
VERTEX
  8
0
  10
3.148931
  20
2.091775
  30
0.0
  0
VERTEX
  8
0
  10
3.157544
  20
2.171506
  30
0.0
  0
VERTEX
  8
0
  10
3.170362
  20
2.293064
  30
0.0
  0
VERTEX
  8
0
  10
3.182952
  20
2.414649
  30
0.0
  0
VERTEX
  8
0
  10
3.195309
  20
2.536261
  30
0.0
  0
VERTEX
  8
0
  10
3.207427
  20
2.6579
  30
0.0
  0
VERTEX
  8
0
  10
3.219299
  20
2.779566
  30
0.0
  0
VERTEX
  8
0
  10
3.230921
  20
2.901257
  30
0.0
  0
VERTEX
  8
0
  10
3.242286
  20
3.022973
  30
0.0
  0
VERTEX
  8
0
  10
3.253388
  20
3.144714
  30
0.0
  0
VERTEX
  8
0
  10
3.264222
  20
3.266479
  30
0.0
  0
VERTEX
  8
0
  10
3.274781
  20
3.388269
  30
0.0
  0
VERTEX
  8
0
  10
3.285059
  20
3.510081
  30
0.0
  0
VERTEX
  8
0
  10
3.295051
  20
3.631916
  30
0.0
  0
VERTEX
  8
0
  10
3.304751
  20
3.753774
  30
0.0
  0
VERTEX
  8
0
  10
3.314153
  20
3.875653
  30
0.0
  0
VERTEX
  8
0
  10
3.323251
  20
3.997554
  30
0.0
  0
VERTEX
  8
0
  10
3.332038
  20
4.119476
  30
0.0
  0
VERTEX
  8
0
  10
3.340511
  20
4.241418
  30
0.0
  0
VERTEX
  8
0
  10
3.348661
  20
4.363381
  30
0.0
  0
VERTEX
  8
0
  10
3.356484
  20
4.485362
  30
0.0
  0
VERTEX
  8
0
  10
3.363973
  20
4.607363
  30
0.0
  0
VERTEX
  8
0
  10
3.368767
  20
4.691884
  30
0.0
  0
VERTEX
  8
0
  10
3.373034
  20
4.776428
  30
0.0
  0
VERTEX
  8
0
  10
3.376813
  20
4.860992
  30
0.0
  0
VERTEX
  8
0
  10
3.380146
  20
4.945576
  30
0.0
  0
VERTEX
  8
0
  10
3.383071
  20
5.030178
  30
0.0
  0
VERTEX
  8
0
  10
3.38563
  20
5.114795
  30
0.0
  0
VERTEX
  8
0
  10
3.387861
  20
5.199426
  30
0.0
  0
VERTEX
  8
0
  10
3.389805
  20
5.284069
  30
0.0
  0
VERTEX
  8
0
  10
3.391501
  20
5.368722
  30
0.0
  0
VERTEX
  8
0
  10
3.39299
  20
5.453384
  30
0.0
  0
VERTEX
  8
0
  10
3.394311
  20
5.538053
  30
0.0
  0
VERTEX
  8
0
  10
3.395505
  20
5.622726
  30
0.0
  0
VERTEX
  8
0
  10
3.396612
  20
5.707403
  30
0.0
  0
VERTEX
  8
0
  10
3.397671
  20
5.792081
  30
0.0
  0
VERTEX
  8
0
  10
3.398722
  20
5.876758
  30
0.0
  0
VERTEX
  8
0
  10
3.399805
  20
5.961433
  30
0.0
  0
VERTEX
  8
0
  10
3.40096
  20
6.046105
  30
0.0
  0
VERTEX
  8
0
  10
3.402228
  20
6.13077
  30
0.0
  0
VERTEX
  8
0
  10
3.403647
  20
6.215428
  30
0.0
  0
VERTEX
  8
0
  10
3.405259
  20
6.300077
  30
0.0
  0
VERTEX
  8
0
  10
3.406655
  20
6.36958
  30
0.0
  0
VERTEX
  8
0
  10
3.408017
  20
6.439083
  30
0.0
  0
VERTEX
  8
0
  10
3.409344
  20
6.508587
  30
0.0
  0
VERTEX
  8
0
  10
3.410637
  20
6.578092
  30
0.0
  0
VERTEX
  8
0
  10
3.411895
  20
6.647598
  30
0.0
  0
VERTEX
  8
0
  10
3.413119
  20
6.717104
  30
0.0
  0
VERTEX
  8
0
  10
3.414309
  20
6.786611
  30
0.0
  0
VERTEX
  8
0
  10
3.415465
  20
6.856119
  30
0.0
  0
VERTEX
  8
0
  10
3.416586
  20
6.925627
  30
0.0
  0
VERTEX
  8
0
  10
3.417673
  20
6.995135
  30
0.0
  0
VERTEX
  8
0
  10
3.418726
  20
7.064644
  30
0.0
  0
VERTEX
  8
0
  10
3.419744
  20
7.134154
  30
0.0
  0
VERTEX
  8
0
  10
3.420728
  20
7.203664
  30
0.0
  0
VERTEX
  8
0
  10
3.421677
  20
7.273175
  30
0.0
  0
VERTEX
  8
0
  10
3.422592
  20
7.342686
  30
0.0
  0
VERTEX
  8
0
  10
3.423473
  20
7.412197
  30
0.0
  0
VERTEX
  8
0
  10
3.42432
  20
7.481709
  30
0.0
  0
VERTEX
  8
0
  10
3.425132
  20
7.551221
  30
0.0
  0
VERTEX
  8
0
  10
3.42591
  20
7.620733
  30
0.0
  0
VERTEX
  8
0
  10
3.426653
  20
7.690246
  30
0.0
  0
SEQEND
  0
ENDBLK
  0
BLOCK
  8
0
  70
65
  2
*C2
  10
0.0
  20
0.0
  30
0.0
  3
*C
  0
POLYLINE
  8
0
  6
CONTINUOUS
  62
7
  66
1
  70
128
  0
VERTEX
  8
0
  10
7.743851
  20
2.565777
  30
0.0
  0
VERTEX
  8
0
  10
7.752734
  20
2.650138
  30
0.0
  0
VERTEX
  8
0
  10
7.761424
  20
2.73452
  30
0.0
  0
VERTEX
  8
0
  10
7.769921
  20
2.818925
  30
0.0
  0
VERTEX
  8
0
  10
7.778225
  20
2.90335
  30
0.0
  0
VERTEX
  8
0
  10
7.786335
  20
2.987795
  30
0.0
  0
VERTEX
  8
0
  10
7.794252
  20
3.072259
  30
0.0
  0
VERTEX
  8
0
  10
7.801976
  20
3.156743
  30
0.0
  0
VERTEX
  8
0
  10
7.809506
  20
3.241244
  30
0.0
  0
VERTEX
  8
0
  10
7.816843
  20
3.325763
  30
0.0
  0
VERTEX
  8
0
  10
7.823986
  20
3.410299
  30
0.0
  0
VERTEX
  8
0
  10
7.830936
  20
3.494851
  30
0.0
  0
VERTEX
  8
0
  10
7.837691
  20
3.579418
  30
0.0
  0
VERTEX
  8
0
  10
7.844253
  20
3.664
  30
0.0
  0
VERTEX
  8
0
  10
7.850622
  20
3.748597
  30
0.0
  0
VERTEX
  8
0
  10
7.856796
  20
3.833206
  30
0.0
  0
VERTEX
  8
0
  10
7.862777
  20
3.917829
  30
0.0
  0
VERTEX
  8
0
  10
7.868563
  20
4.002464
  30
0.0
  0
VERTEX
  8
0
  10
7.874156
  20
4.08711
  30
0.0
  0
VERTEX
  8
0
  10
7.879555
  20
4.171767
  30
0.0
  0
VERTEX
  8
0
  10
7.884759
  20
4.256434
  30
0.0
  0
VERTEX
  8
0
  10
7.88967
  20
4.339951
  30
0.0
  0
VERTEX
  8
0
  10
7.894336
  20
4.423481
  30
0.0
  0
VERTEX
  8
0
  10
7.898765
  20
4.507025
  30
0.0
  0
VERTEX
  8
0
  10
7.902966
  20
4.590582
  30
0.0
  0
VERTEX
  8
0
  10
7.90695
  20
4.67415
  30
0.0
  0
VERTEX
  8
0
  10
7.910724
  20
4.757729
  30
0.0
  0
VERTEX
  8
0
  10
7.914297
  20
4.841318
  30
0.0
  0
VERTEX
  8
0
  10
7.91768
  20
4.924916
  30
0.0
  0
VERTEX
  8
0
  10
7.920881
  20
5.008523
  30
0.0
  0
VERTEX
  8
0
  10
7.923909
  20
5.092137
  30
0.0
  0
VERTEX
  8
0
  10
7.926773
  20
5.175758
  30
0.0
  0
VERTEX
  8
0
  10
7.929482
  20
5.259384
  30
0.0
  0
VERTEX
  8
0
  10
7.932047
  20
5.343016
  30
0.0
  0
VERTEX
  8
0
  10
7.934474
  20
5.426651
  30
0.0
  0
VERTEX
  8
0
  10
7.936775
  20
5.51029
  30
0.0
  0
VERTEX
  8
0
  10
7.938957
  20
5.593932
  30
0.0
  0
VERTEX
  8
0
  10
7.94103
  20
5.677575
  30
0.0
  0
VERTEX
  8
0
  10
7.943004
  20
5.761219
  30
0.0
  0
VERTEX
  8
0
  10
7.944886
  20
5.844863
  30
0.0
  0
VERTEX
  8
0
  10
7.946687
  20
5.928506
  30
0.0
  0
VERTEX
  8
0
  10
7.947972
  20
5.992659
  30
0.0
  0
VERTEX
  8
0
  10
7.949125
  20
6.056816
  30
0.0
  0
VERTEX
  8
0
  10
7.950143
  20
6.120976
  30
0.0
  0
VERTEX
  8
0
  10
7.951029
  20
6.185139
  30
0.0
  0
VERTEX
  8
0
  10
7.95178
  20
6.249305
  30
0.0
  0
VERTEX
  8
0
  10
7.952399
  20
6.313473
  30
0.0
  0
VERTEX
  8
0
  10
7.952884
  20
6.377642
  30
0.0
  0
VERTEX
  8
0
  10
7.953236
  20
6.441813
  30
0.0
  0
VERTEX
  8
0
  10
7.953454
  20
6.505985
  30
0.0
  0
VERTEX
  8
0
  10
7.953539
  20
6.570157
  30
0.0
  0
VERTEX
  8
0
  10
7.953491
  20
6.634329
  30
0.0
  0
VERTEX
  8
0
  10
7.953309
  20
6.698501
  30
0.0
  0
VERTEX
  8
0
  10
7.952994
  20
6.762672
  30
0.0
  0
VERTEX
  8
0
  10
7.952545
  20
6.826842
  30
0.0
  0
VERTEX
  8
0
  10
7.951963
  20
6.89101
  30
0.0
  0
VERTEX
  8
0
  10
7.951248
  20
6.955176
  30
0.0
  0
VERTEX
  8
0
  10
7.950399
  20
7.01934
  30
0.0
  0
VERTEX
  8
0
  10
7.949417
  20
7.083501
  30
0.0
  0
VERTEX
  8
0
  10
7.948301
  20
7.147658
  30
0.0
  0
VERTEX
  8
0
  10
7.947052
  20
7.211812
  30
0.0
  0
SEQEND
  0
ENDBLK
  0
BLOCK
  8
0
  70
65
  2
*C3
  10
0.0
  20
0.0
  30
0.0
  3
*C
  0
POLYLINE
  8
0
  6
CONTINUOUS
  62
7
  66
1
  70
128
  0
VERTEX
  8
0
  10
9.585496
  20
4.072479
  30
0.0
  0
VERTEX
  8
0
  10
9.590726
  20
4.15901
  30
0.0
  0
VERTEX
  8
0
  10
9.595797
  20
4.245553
  30
0.0
  0
VERTEX
  8
0
  10
9.600711
  20
4.332105
  30
0.0
  0
VERTEX
  8
0
  10
9.605466
  20
4.418667
  30
0.0
  0
VERTEX
  8
0
  10
9.610064
  20
4.505239
  30
0.0
  0
VERTEX
  8
0
  10
9.614503
  20
4.59182
  30
0.0
  0
VERTEX
  8
0
  10
9.618785
  20
4.678409
  30
0.0
  0
VERTEX
  8
0
  10
9.622908
  20
4.765006
  30
0.0
  0
VERTEX
  8
0
  10
9.626873
  20
4.851611
  30
0.0
  0
VERTEX
  8
0
  10
9.63068
  20
4.938223
  30
0.0
  0
VERTEX
  8
0
  10
9.634328
  20
5.024843
  30
0.0
  0
VERTEX
  8
0
  10
9.637819
  20
5.111468
  30
0.0
  0
VERTEX
  8
0
  10
9.641151
  20
5.198099
  30
0.0
  0
VERTEX
  8
0
  10
9.644325
  20
5.284736
  30
0.0
  0
VERTEX
  8
0
  10
9.647341
  20
5.371378
  30
0.0
  0
VERTEX
  8
0
  10
9.650198
  20
5.458025
  30
0.0
  0
VERTEX
  8
0
  10
9.652897
  20
5.544676
  30
0.0
  0
VERTEX
  8
0
  10
9.655438
  20
5.63133
  30
0.0
  0
VERTEX
  8
0
  10
9.657821
  20
5.717988
  30
0.0
  0
VERTEX
  8
0
  10
9.660045
  20
5.804649
  30
0.0
  0
VERTEX
  8
0
  10
9.661483
  20
5.865933
  30
0.0
  0
VERTEX
  8
0
  10
9.662762
  20
5.927223
  30
0.0
  0
VERTEX
  8
0
  10
9.663883
  20
5.988517
  30
0.0
  0
VERTEX
  8
0
  10
9.664845
  20
6.049815
  30
0.0
  0
VERTEX
  8
0
  10
9.66565
  20
6.111117
  30
0.0
  0
VERTEX
  8
0
  10
9.666296
  20
6.172422
  30
0.0
  0
VERTEX
  8
0
  10
9.666783
  20
6.233729
  30
0.0
  0
VERTEX
  8
0
  10
9.667113
  20
6.295038
  30
0.0
  0
VERTEX
  8
0
  10
9.667283
  20
6.356348
  30
0.0
  0
VERTEX
  8
0
  10
9.667296
  20
6.417658
  30
0.0
  0
VERTEX
  8
0
  10
9.66715
  20
6.478968
  30
0.0
  0
VERTEX
  8
0
  10
9.666846
  20
6.540278
  30
0.0
  0
VERTEX
  8
0
  10
9.666384
  20
6.601586
  30
0.0
  0
VERTEX
  8
0
  10
9.665763
  20
6.662892
  30
0.0
  0
VERTEX
  8
0
  10
9.664984
  20
6.724195
  30
0.0
  0
VERTEX
  8
0
  10
9.664047
  20
6.785495
  30
0.0
  0
VERTEX
  8
0
  10
9.662951
  20
6.846791
  30
0.0
  0
VERTEX
  8
0
  10
9.661697
  20
6.908083
  30
0.0
  0
VERTEX
  8
0
  10
9.660285
  20
6.96937
  30
0.0
  0
VERTEX
  8
0
  10
9.658714
  20
7.030651
  30
0.0
  0
SEQEND
  0
ENDBLK
  0
BLOCK
  8
0
  70
65
  2
*C4
  10
0.0
  20
0.0
  30
0.0
  3
*C
  0
POLYLINE
  8
0
  6
CONTINUOUS
  62
7
  66
1
  70
128
  0
VERTEX
  8
0
  10
5.562913
  20
1.656573
  30
0.0
  0
VERTEX
  8
0
  10
5.574202
  20
1.755346
  30
0.0
  0
VERTEX
  8
0
  10
5.585223
  20
1.854153
  30
0.0
  0
VERTEX
  8
0
  10
5.595979
  20
1.952992
  30
0.0
  0
VERTEX
  8
0
  10
5.606467
  20
2.051862
  30
0.0
  0
VERTEX
  8
0
  10
5.616688
  20
2.150763
  30
0.0
  0
VERTEX
  8
0
  10
5.626642
  20
2.249692
  30
0.0
  0
VERTEX
  8
0
  10
5.636329
  20
2.34865
  30
0.0
  0
VERTEX
  8
0
  10
5.645749
  20
2.447634
  30
0.0
  0
VERTEX
  8
0
  10
5.654901
  20
2.546644
  30
0.0
  0
VERTEX
  8
0
  10
5.663786
  20
2.645679
  30
0.0
  0
VERTEX
  8
0
  10
5.672403
  20
2.744738
  30
0.0
  0
VERTEX
  8
0
  10
5.680752
  20
2.843819
  30
0.0
  0
VERTEX
  8
0
  10
5.688834
  20
2.942921
  30
0.0
  0
VERTEX
  8
0
  10
5.696648
  20
3.042044
  30
0.0
  0
VERTEX
  8
0
  10
5.704194
  20
3.141186
  30
0.0
  0
VERTEX
  8
0
  10
5.711472
  20
3.240347
  30
0.0
  0
VERTEX
  8
0
  10
5.718482
  20
3.339524
  30
0.0
  0
VERTEX
  8
0
  10
5.725224
  20
3.438718
  30
0.0
  0
VERTEX
  8
0
  10
5.731697
  20
3.537927
  30
0.0
  0
VERTEX
  8
0
  10
5.737902
  20
3.637149
  30
0.0
  0
VERTEX
  8
0
  10
5.744533
  20
3.748499
  30
0.0
  0
VERTEX
  8
0
  10
5.750812
  20
3.859869
  30
0.0
  0
VERTEX
  8
0
  10
5.756754
  20
3.971258
  30
0.0
  0
VERTEX
  8
0
  10
5.762373
  20
4.082665
  30
0.0
  0
VERTEX
  8
0
  10
5.767685
  20
4.194088
  30
0.0
  0
VERTEX
  8
0
  10
5.772704
  20
4.305527
  30
0.0
  0
VERTEX
  8
0
  10
5.777445
  20
4.416979
  30
0.0
  0
VERTEX
  8
0
  10
5.781923
  20
4.528445
  30
0.0
  0
VERTEX
  8
0
  10
5.786152
  20
4.639921
  30
0.0
  0
VERTEX
  8
0
  10
5.790147
  20
4.751408
  30
0.0
  0
VERTEX
  8
0
  10
5.793922
  20
4.862905
  30
0.0
  0
VERTEX
  8
0
  10
5.797494
  20
4.974409
  30
0.0
  0
VERTEX
  8
0
  10
5.800876
  20
5.085919
  30
0.0
  0
VERTEX
  8
0
  10
5.804082
  20
5.197436
  30
0.0
  0
VERTEX
  8
0
  10
5.807129
  20
5.308956
  30
0.0
  0
VERTEX
  8
0
  10
5.81003
  20
5.420479
  30
0.0
  0
VERTEX
  8
0
  10
5.8128
  20
5.532004
  30
0.0
  0
VERTEX
  8
0
  10
5.815454
  20
5.643529
  30
0.0
  0
VERTEX
  8
0
  10
5.818007
  20
5.755054
  30
0.0
  0
VERTEX
  8
0
  10
5.820473
  20
5.866577
  30
0.0
  0
VERTEX
  8
0
  10
5.822097
  20
5.945076
  30
0.0
  0
VERTEX
  8
0
  10
5.823551
  20
6.023579
  30
0.0
  0
VERTEX
  8
0
  10
5.824834
  20
6.102088
  30
0.0
  0
VERTEX
  8
0
  10
5.825948
  20
6.1806
  30
0.0
  0
VERTEX
  8
0
  10
5.826891
  20
6.259115
  30
0.0
  0
VERTEX
  8
0
  10
5.827664
  20
6.337633
  30
0.0
  0
VERTEX
  8
0
  10
5.828267
  20
6.416154
  30
0.0
  0
VERTEX
  8
0
  10
5.8287
  20
6.494676
  30
0.0
  0
VERTEX
  8
0
  10
5.828963
  20
6.573199
  30
0.0
  0
VERTEX
  8
0
  10
5.829056
  20
6.651723
  30
0.0
  0
VERTEX
  8
0
  10
5.828978
  20
6.730247
  30
0.0
  0
VERTEX
  8
0
  10
5.828731
  20
6.80877
  30
0.0
  0
VERTEX
  8
0
  10
5.828313
  20
6.887292
  30
0.0
  0
VERTEX
  8
0
  10
5.827725
  20
6.965813
  30
0.0
  0
VERTEX
  8
0
  10
5.826967
  20
7.044331
  30
0.0
  0
VERTEX
  8
0
  10
5.826039
  20
7.122847
  30
0.0
  0
VERTEX
  8
0
  10
5.824941
  20
7.201359
  30
0.0
  0
VERTEX
  8
0
  10
5.823672
  20
7.279868
  30
0.0
  0
VERTEX
  8
0
  10
5.822234
  20
7.358372
  30
0.0
  0
VERTEX
  8
0
  10
5.820625
  20
7.436871
  30
0.0
  0
SEQEND
  0
ENDBLK
  0
BLOCK
  8
0
  70
65
  2
*C5
  10
0.0
  20
0.0
  30
0.0
  3
*C
  0
POLYLINE
  8
0
  6
CONTINUOUS
  62
7
  66
1
  70
128
  0
VERTEX
  8
0
  10
-0.002073
  20
10.907321
  30
0.0
  0
VERTEX
  8
0
  10
0.145935
  20
10.88389
  30
0.0
  0
VERTEX
  8
0
  10
0.293863
  20
10.861457
  30
0.0
  0
VERTEX
  8
0
  10
0.441708
  20
10.83984
  30
0.0
  0
VERTEX
  8
0
  10
0.589462
  20
10.818859
  30
0.0
  0
VERTEX
  8
0
  10
0.73712
  20
10.798332
  30
0.0
  0
VERTEX
  8
0
  10
0.884676
  20
10.778078
  30
0.0
  0
VERTEX
  8
0
  10
1.032125
  20
10.757915
  30
0.0
  0
VERTEX
  8
0
  10
1.179459
  20
10.737662
  30
0.0
  0
VERTEX
  8
0
  10
1.326675
  20
10.717138
  30
0.0
  0
VERTEX
  8
0
  10
1.473765
  20
10.696161
  30
0.0
  0
VERTEX
  8
0
  10
1.620724
  20
10.674551
  30
0.0
  0
VERTEX
  8
0
  10
1.767546
  20
10.652124
  30
0.0
  0
VERTEX
  8
0
  10
1.914226
  20
10.628702
  30
0.0
  0
VERTEX
  8
0
  10
2.060757
  20
10.604101
  30
0.0
  0
VERTEX
  8
0
  10
2.207134
  20
10.578142
  30
0.0
  0
VERTEX
  8
0
  10
2.353351
  20
10.550641
  30
0.0
  0
VERTEX
  8
0
  10
2.499401
  20
10.521419
  30
0.0
  0
VERTEX
  8
0
  10
2.64528
  20
10.490293
  30
0.0
  0
VERTEX
  8
0
  10
2.790981
  20
10.457083
  30
0.0
  0
VERTEX
  8
0
  10
2.936499
  20
10.421607
  30
0.0
  0
VERTEX
  8
0
  10
3.080252
  20
10.385131
  30
0.0
  0
VERTEX
  8
0
  10
3.223918
  20
10.3482
  30
0.0
  0
VERTEX
  8
0
  10
3.367483
  20
10.310784
  30
0.0
  0
VERTEX
  8
0
  10
3.510932
  20
10.272852
  30
0.0
  0
VERTEX
  8
0
  10
3.654248
  20
10.234376
  30
0.0
  0
VERTEX
  8
0
  10
3.797418
  20
10.195325
  30
0.0
  0
VERTEX
  8
0
  10
3.940425
  20
10.15567
  30
0.0
  0
VERTEX
  8
0
  10
4.083256
  20
10.11538
  30
0.0
  0
VERTEX
  8
0
  10
4.225895
  20
10.074427
  30
0.0
  0
VERTEX
  8
0
  10
4.368326
  20
10.03278
  30
0.0
  0
VERTEX
  8
0
  10
4.510535
  20
9.990409
  30
0.0
  0
VERTEX
  8
0
  10
4.652507
  20
9.947286
  30
0.0
  0
VERTEX
  8
0
  10
4.794227
  20
9.903379
  30
0.0
  0
VERTEX
  8
0
  10
4.935679
  20
9.858659
  30
0.0
  0
VERTEX
  8
0
  10
5.076848
  20
9.813097
  30
0.0
  0
VERTEX
  8
0
  10
5.21772
  20
9.766663
  30
0.0
  0
VERTEX
  8
0
  10
5.358279
  20
9.719326
  30
0.0
  0
VERTEX
  8
0
  10
5.49851
  20
9.671058
  30
0.0
  0
VERTEX
  8
0
  10
5.638398
  20
9.621828
  30
0.0
  0
VERTEX
  8
0
  10
5.777928
  20
9.571607
  30
0.0
  0
VERTEX
  8
0
  10
5.915828
  20
9.521056
  30
0.0
  0
VERTEX
  8
0
  10
6.053533
  20
9.469849
  30
0.0
  0
VERTEX
  8
0
  10
6.191022
  20
9.417962
  30
0.0
  0
VERTEX
  8
0
  10
6.328272
  20
9.365366
  30
0.0
  0
VERTEX
  8
0
  10
6.465261
  20
9.312036
  30
0.0
  0
VERTEX
  8
0
  10
6.601967
  20
9.257945
  30
0.0
  0
VERTEX
  8
0
  10
6.738367
  20
9.203066
  30
0.0
  0
VERTEX
  8
0
  10
6.87444
  20
9.147374
  30
0.0
  0
VERTEX
  8
0
  10
7.010162
  20
9.09084
  30
0.0
  0
VERTEX
  8
0
  10
7.145512
  20
9.033439
  30
0.0
  0
VERTEX
  8
0
  10
7.280468
  20
8.975145
  30
0.0
  0
VERTEX
  8
0
  10
7.415007
  20
8.91593
  30
0.0
  0
VERTEX
  8
0
  10
7.549106
  20
8.855768
  30
0.0
  0
VERTEX
  8
0
  10
7.682745
  20
8.794633
  30
0.0
  0
VERTEX
  8
0
  10
7.8159
  20
8.732498
  30
0.0
  0
VERTEX
  8
0
  10
7.948549
  20
8.669336
  30
0.0
  0
VERTEX
  8
0
  10
8.08067
  20
8.605122
  30
0.0
  0
VERTEX
  8
0
  10
8.212241
  20
8.539827
  30
0.0
  0
VERTEX
  8
0
  10
8.343239
  20
8.473426
  30
0.0
  0
VERTEX
  8
0
  10
8.473642
  20
8.405893
  30
0.0
  0
VERTEX
  8
0
  10
8.599041
  20
8.339627
  30
0.0
  0
VERTEX
  8
0
  10
8.723959
  20
8.272379
  30
0.0
  0
VERTEX
  8
0
  10
8.848386
  20
8.204156
  30
0.0
  0
VERTEX
  8
0
  10
8.972309
  20
8.134965
  30
0.0
  0
VERTEX
  8
0
  10
9.09572
  20
8.064811
  30
0.0
  0
VERTEX
  8
0
  10
9.218606
  20
7.993702
  30
0.0
  0
VERTEX
  8
0
  10
9.340959
  20
7.921645
  30
0.0
  0
VERTEX
  8
0
  10
9.462766
  20
7.848645
  30
0.0
  0
VERTEX
  8
0
  10
9.584018
  20
7.77471
  30
0.0
  0
VERTEX
  8
0
  10
9.704704
  20
7.699847
  30
0.0
  0
VERTEX
  8
0
  10
9.824812
  20
7.624061
  30
0.0
  0
VERTEX
  8
0
  10
9.944333
  20
7.54736
  30
0.0
  0
VERTEX
  8
0
  10
10.063256
  20
7.46975
  30
0.0
  0
VERTEX
  8
0
  10
10.181571
  20
7.391239
  30
0.0
  0
VERTEX
  8
0
  10
10.299266
  20
7.311831
  30
0.0
  0
VERTEX
  8
0
  10
10.416331
  20
7.231535
  30
0.0
  0
VERTEX
  8
0
  10
10.532755
  20
7.150357
  30
0.0
  0
VERTEX
  8
0
  10
10.648528
  20
7.068303
  30
0.0
  0
VERTEX
  8
0
  10
10.763639
  20
6.98538
  30
0.0
  0
VERTEX
  8
0
  10
10.878078
  20
6.901595
  30
0.0
  0
SEQEND
  0
ENDBLK
  0
BLOCK
  8
0
  70
65
  2
*C6
  10
0.0
  20
0.0
  30
0.0
  3
*C
  0
POLYLINE
  8
0
  6
CONTINUOUS
  62
7
  66
1
  70
128
  0
VERTEX
  8
0
  10
9.661992
  20
7.030304
  30
0.0
  0
VERTEX
  8
0
  10
9.586052
  20
7.074226
  30
0.0
  0
VERTEX
  8
0
  10
9.509921
  20
7.117832
  30
0.0
  0
VERTEX
  8
0
  10
9.433602
  20
7.16112
  30
0.0
  0
VERTEX
  8
0
  10
9.357096
  20
7.204089
  30
0.0
  0
VERTEX
  8
0
  10
9.280406
  20
7.246737
  30
0.0
  0
VERTEX
  8
0
  10
9.203535
  20
7.289065
  30
0.0
  0
VERTEX
  8
0
  10
9.126483
  20
7.33107
  30
0.0
  0
VERTEX
  8
0
  10
9.049253
  20
7.372752
  30
0.0
  0
VERTEX
  8
0
  10
8.971847
  20
7.414109
  30
0.0
  0
VERTEX
  8
0
  10
8.894267
  20
7.455141
  30
0.0
  0
VERTEX
  8
0
  10
8.816515
  20
7.495847
  30
0.0
  0
VERTEX
  8
0
  10
8.738593
  20
7.536225
  30
0.0
  0
VERTEX
  8
0
  10
8.660504
  20
7.576274
  30
0.0
  0
VERTEX
  8
0
  10
8.582249
  20
7.615993
  30
0.0
  0
VERTEX
  8
0
  10
8.503831
  20
7.655381
  30
0.0
  0
VERTEX
  8
0
  10
8.425251
  20
7.694438
  30
0.0
  0
VERTEX
  8
0
  10
8.346511
  20
7.733161
  30
0.0
  0
VERTEX
  8
0
  10
8.267614
  20
7.77155
  30
0.0
  0
VERTEX
  8
0
  10
8.188562
  20
7.809604
  30
0.0
  0
VERTEX
  8
0
  10
8.109356
  20
7.847321
  30
0.0
  0
VERTEX
  8
0
  10
8.012465
  20
7.893084
  30
0.0
  0
VERTEX
  8
0
  10
7.915458
  20
7.938635
  30
0.0
  0
VERTEX
  8
0
  10
7.818327
  20
7.983951
  30
0.0
  0
VERTEX
  8
0
  10
7.721068
  20
8.02901
  30
0.0
  0
VERTEX
  8
0
  10
7.623674
  20
8.073792
  30
0.0
  0
VERTEX
  8
0
  10
7.526137
  20
8.118273
  30
0.0
  0
VERTEX
  8
0
  10
7.428453
  20
8.162433
  30
0.0
  0
VERTEX
  8
0
  10
7.330614
  20
8.206249
  30
0.0
  0
VERTEX
  8
0
  10
7.232615
  20
8.2497
  30
0.0
  0
VERTEX
  8
0
  10
7.134449
  20
8.292764
  30
0.0
  0
VERTEX
  8
0
  10
7.036109
  20
8.335419
  30
0.0
  0
VERTEX
  8
0
  10
6.93759
  20
8.377644
  30
0.0
  0
VERTEX
  8
0
  10
6.838885
  20
8.419416
  30
0.0
  0
VERTEX
  8
0
  10
6.739988
  20
8.460713
  30
0.0
  0
VERTEX
  8
0
  10
6.640892
  20
8.501515
  30
0.0
  0
VERTEX
  8
0
  10
6.541591
  20
8.541799
  30
0.0
  0
VERTEX
  8
0
  10
6.442079
  20
8.581543
  30
0.0
  0
VERTEX
  8
0
  10
6.34235
  20
8.620726
  30
0.0
  0
VERTEX
  8
0
  10
6.242396
  20
8.659326
  30
0.0
  0
VERTEX
  8
0
  10
6.142213
  20
8.697321
  30
0.0
  0
VERTEX
  8
0
  10
6.032095
  20
8.738317
  30
0.0
  0
VERTEX
  8
0
  10
5.92174
  20
8.778667
  30
0.0
  0
VERTEX
  8
0
  10
5.81116
  20
8.8184
  30
0.0
  0
VERTEX
  8
0
  10
5.700366
  20
8.857541
  30
0.0
  0
VERTEX
  8
0
  10
5.589369
  20
8.89612
  30
0.0
  0
VERTEX
  8
0
  10
5.478182
  20
8.934163
  30
0.0
  0
VERTEX
  8
0
  10
5.366815
  20
8.971697
  30
0.0
  0
VERTEX
  8
0
  10
5.25528
  20
9.008751
  30
0.0
  0
VERTEX
  8
0
  10
5.143589
  20
9.045352
  30
0.0
  0
VERTEX
  8
0
  10
5.031752
  20
9.081527
  30
0.0
  0
VERTEX
  8
0
  10
4.919782
  20
9.117303
  30
0.0
  0
VERTEX
  8
0
  10
4.80769
  20
9.152708
  30
0.0
  0
VERTEX
  8
0
  10
4.695486
  20
9.18777
  30
0.0
  0
VERTEX
  8
0
  10
4.583184
  20
9.222516
  30
0.0
  0
VERTEX
  8
0
  10
4.470794
  20
9.256973
  30
0.0
  0
VERTEX
  8
0
  10
4.358327
  20
9.29117
  30
0.0
  0
VERTEX
  8
0
  10
4.245796
  20
9.325132
  30
0.0
  0
VERTEX
  8
0
  10
4.133211
  20
9.358889
  30
0.0
  0
VERTEX
  8
0
  10
4.020584
  20
9.392467
  30
0.0
  0
VERTEX
  8
0
  10
3.907927
  20
9.425893
  30
0.0
  0
VERTEX
  8
0
  10
3.803468
  20
9.456463
  30
0.0
  0
VERTEX
  8
0
  10
3.699591
  20
9.486163
  30
0.0
  0
VERTEX
  8
0
  10
3.596221
  20
9.515051
  30
0.0
  0
VERTEX
  8
0
  10
3.493284
  20
9.543181
  30
0.0
  0
VERTEX
  8
0
  10
3.390703
  20
9.57061
  30
0.0
  0
VERTEX
  8
0
  10
3.288405
  20
9.597393
  30
0.0
  0
VERTEX
  8
0
  10
3.186312
  20
9.623587
  30
0.0
  0
VERTEX
  8
0
  10
3.084351
  20
9.649247
  30
0.0
  0
VERTEX
  8
0
  10
2.982445
  20
9.674429
  30
0.0
  0
VERTEX
  8
0
  10
2.88052
  20
9.699189
  30
0.0
  0
VERTEX
  8
0
  10
2.7785
  20
9.723584
  30
0.0
  0
VERTEX
  8
0
  10
2.67631
  20
9.747668
  30
0.0
  0
VERTEX
  8
0
  10
2.573876
  20
9.771499
  30
0.0
  0
VERTEX
  8
0
  10
2.47112
  20
9.795131
  30
0.0
  0
VERTEX
  8
0
  10
2.367969
  20
9.818621
  30
0.0
  0
VERTEX
  8
0
  10
2.264347
  20
9.842024
  30
0.0
  0
VERTEX
  8
0
  10
2.160178
  20
9.865397
  30
0.0
  0
VERTEX
  8
0
  10
2.055388
  20
9.888796
  30
0.0
  0
VERTEX
  8
0
  10
1.949901
  20
9.912276
  30
0.0
  0
VERTEX
  8
0
  10
1.843642
  20
9.935893
  30
0.0
  0
VERTEX
  8
0
  10
1.753186
  20
9.95538
  30
0.0
  0
VERTEX
  8
0
  10
1.6623
  20
9.973788
  30
0.0
  0
VERTEX
  8
0
  10
1.571025
  20
9.991189
  30
0.0
  0
VERTEX
  8
0
  10
1.479399
  20
10.007655
  30
0.0
  0
VERTEX
  8
0
  10
1.387462
  20
10.023259
  30
0.0
  0
VERTEX
  8
0
  10
1.295254
  20
10.038073
  30
0.0
  0
VERTEX
  8
0
  10
1.202814
  20
10.05217
  30
0.0
  0
VERTEX
  8
0
  10
1.110181
  20
10.065621
  30
0.0
  0
VERTEX
  8
0
  10
1.017395
  20
10.078499
  30
0.0
  0
VERTEX
  8
0
  10
0.924496
  20
10.090877
  30
0.0
  0
VERTEX
  8
0
  10
0.831522
  20
10.102826
  30
0.0
  0
VERTEX
  8
0
  10
0.738513
  20
10.11442
  30
0.0
  0
VERTEX
  8
0
  10
0.64551
  20
10.12573
  30
0.0
  0
VERTEX
  8
0
  10
0.55255
  20
10.136829
  30
0.0
  0
VERTEX
  8
0
  10
0.459674
  20
10.147789
  30
0.0
  0
VERTEX
  8
0
  10
0.36692
  20
10.158682
  30
0.0
  0
VERTEX
  8
0
  10
0.27433
  20
10.169581
  30
0.0
  0
VERTEX
  8
0
  10
0.181941
  20
10.180558
  30
0.0
  0
VERTEX
  8
0
  10
0.089794
  20
10.191686
  30
0.0
  0
VERTEX
  8
0
  10
-0.002073
  20
10.203036
  30
0.0
  0
SEQEND
  0
ENDBLK
  0
BLOCK
  8
0
  70
65
  2
*C7
  10
0.0
  20
0.0
  30
0.0
  3
*C
  0
POLYLINE
  8
0
  6
CONTINUOUS
  62
7
  66
1
  70
128
  0
VERTEX
  8
0
  10
7.947443
  20
7.191764
  30
0.0
  0
VERTEX
  8
0
  10
7.852928
  20
7.228562
  30
0.0
  0
VERTEX
  8
0
  10
7.758346
  20
7.265193
  30
0.0
  0
VERTEX
  8
0
  10
7.663699
  20
7.301657
  30
0.0
  0
VERTEX
  8
0
  10
7.568987
  20
7.337955
  30
0.0
  0
VERTEX
  8
0
  10
7.474209
  20
7.374085
  30
0.0
  0
VERTEX
  8
0
  10
7.379368
  20
7.410049
  30
0.0
  0
VERTEX
  8
0
  10
7.284462
  20
7.445845
  30
0.0
  0
VERTEX
  8
0
  10
7.189493
  20
7.481474
  30
0.0
  0
VERTEX
  8
0
  10
7.094461
  20
7.516935
  30
0.0
  0
VERTEX
  8
0
  10
6.999366
  20
7.552228
  30
0.0
  0
VERTEX
  8
0
  10
6.904209
  20
7.587353
  30
0.0
  0
VERTEX
  8
0
  10
6.80899
  20
7.62231
  30
0.0
  0
VERTEX
  8
0
  10
6.71371
  20
7.657099
  30
0.0
  0
VERTEX
  8
0
  10
6.618369
  20
7.691719
  30
0.0
  0
VERTEX
  8
0
  10
6.522967
  20
7.726171
  30
0.0
  0
VERTEX
  8
0
  10
6.427506
  20
7.760453
  30
0.0
  0
VERTEX
  8
0
  10
6.331985
  20
7.794567
  30
0.0
  0
VERTEX
  8
0
  10
6.236405
  20
7.828512
  30
0.0
  0
VERTEX
  8
0
  10
6.140767
  20
7.862287
  30
0.0
  0
VERTEX
  8
0
  10
6.04507
  20
7.895893
  30
0.0
  0
VERTEX
  8
0
  10
5.956981
  20
7.926675
  30
0.0
  0
VERTEX
  8
0
  10
5.868846
  20
7.957337
  30
0.0
  0
VERTEX
  8
0
  10
5.780664
  20
7.987869
  30
0.0
  0
VERTEX
  8
0
  10
5.692431
  20
8.018264
  30
0.0
  0
VERTEX
  8
0
  10
5.604147
  20
8.048513
  30
0.0
  0
VERTEX
  8
0
  10
5.515809
  20
8.078606
  30
0.0
  0
VERTEX
  8
0
  10
5.427414
  20
8.108535
  30
0.0
  0
VERTEX
  8
0
  10
5.338961
  20
8.138292
  30
0.0
  0
VERTEX
  8
0
  10
5.250448
  20
8.167868
  30
0.0
  0
VERTEX
  8
0
  10
5.161872
  20
8.197254
  30
0.0
  0
VERTEX
  8
0
  10
5.073232
  20
8.226441
  30
0.0
  0
VERTEX
  8
0
  10
4.984525
  20
8.255421
  30
0.0
  0
VERTEX
  8
0
  10
4.895749
  20
8.284185
  30
0.0
  0
VERTEX
  8
0
  10
4.806902
  20
8.312724
  30
0.0
  0
VERTEX
  8
0
  10
4.717982
  20
8.341029
  30
0.0
  0
VERTEX
  8
0
  10
4.628987
  20
8.369092
  30
0.0
  0
VERTEX
  8
0
  10
4.539915
  20
8.396905
  30
0.0
  0
VERTEX
  8
0
  10
4.450763
  20
8.424458
  30
0.0
  0
VERTEX
  8
0
  10
4.36153
  20
8.451742
  30
0.0
  0
VERTEX
  8
0
  10
4.272213
  20
8.47875
  30
0.0
  0
VERTEX
  8
0
  10
4.176233
  20
8.50751
  30
0.0
  0
VERTEX
  8
0
  10
4.081185
  20
8.535791
  30
0.0
  0
VERTEX
  8
0
  10
3.986957
  20
8.563614
  30
0.0
  0
VERTEX
  8
0
  10
3.893436
  20
8.591002
  30
0.0
  0
VERTEX
  8
0
  10
3.800512
  20
8.61798
  30
0.0
  0
VERTEX
  8
0
  10
3.708073
  20
8.644568
  30
0.0
  0
VERTEX
  8
0
  10
3.616006
  20
8.67079
  30
0.0
  0
VERTEX
  8
0
  10
3.5242
  20
8.696669
  30
0.0
  0
VERTEX
  8
0
  10
3.432543
  20
8.722228
  30
0.0
  0
VERTEX
  8
0
  10
3.340924
  20
8.747489
  30
0.0
  0
VERTEX
  8
0
  10
3.249231
  20
8.772476
  30
0.0
  0
VERTEX
  8
0
  10
3.157352
  20
8.79721
  30
0.0
  0
VERTEX
  8
0
  10
3.065175
  20
8.821715
  30
0.0
  0
VERTEX
  8
0
  10
2.972589
  20
8.846014
  30
0.0
  0
VERTEX
  8
0
  10
2.879481
  20
8.870129
  30
0.0
  0
VERTEX
  8
0
  10
2.78574
  20
8.894084
  30
0.0
  0
VERTEX
  8
0
  10
2.691255
  20
8.9179
  30
0.0
  0
VERTEX
  8
0
  10
2.595913
  20
8.941602
  30
0.0
  0
VERTEX
  8
0
  10
2.499603
  20
8.965211
  30
0.0
  0
VERTEX
  8
0
  10
2.402213
  20
8.98875
  30
0.0
  0
VERTEX
  8
0
  10
2.317327
  20
9.008497
  30
0.0
  0
VERTEX
  8
0
  10
2.23133
  20
9.027333
  30
0.0
  0
VERTEX
  8
0
  10
2.144339
  20
9.04534
  30
0.0
  0
VERTEX
  8
0
  10
2.056476
  20
9.062601
  30
0.0
  0
VERTEX
  8
0
  10
1.967858
  20
9.079198
  30
0.0
  0
VERTEX
  8
0
  10
1.878606
  20
9.095214
  30
0.0
  0
VERTEX
  8
0
  10
1.78884
  20
9.11073
  30
0.0
  0
VERTEX
  8
0
  10
1.698678
  20
9.12583
  30
0.0
  0
VERTEX
  8
0
  10
1.608239
  20
9.140595
  30
0.0
  0
VERTEX
  8
0
  10
1.517645
  20
9.155107
  30
0.0
  0
VERTEX
  8
0
  10
1.427012
  20
9.16945
  30
0.0
  0
VERTEX
  8
0
  10
1.336463
  20
9.183704
  30
0.0
  0
VERTEX
  8
0
  10
1.246114
  20
9.197954
  30
0.0
  0
VERTEX
  8
0
  10
1.156087
  20
9.21228
  30
0.0
  0
VERTEX
  8
0
  10
1.066501
  20
9.226766
  30
0.0
  0
VERTEX
  8
0
  10
0.977474
  20
9.241493
  30
0.0
  0
VERTEX
  8
0
  10
0.889127
  20
9.256544
  30
0.0
  0
VERTEX
  8
0
  10
0.801579
  20
9.272001
  30
0.0
  0
VERTEX
  8
0
  10
0.714948
  20
9.287947
  30
0.0
  0
VERTEX
  8
0
  10
0.629356
  20
9.304464
  30
0.0
  0
VERTEX
  8
0
  10
0.597816
  20
9.310345
  30
0.0
  0
VERTEX
  8
0
  10
0.566273
  20
9.315554
  30
0.0
  0
VERTEX
  8
0
  10
0.534726
  20
9.320162
  30
0.0
  0
VERTEX
  8
0
  10
0.503176
  20
9.324244
  30
0.0
  0
VERTEX
  8
0
  10
0.471622
  20
9.327871
  30
0.0
  0
VERTEX
  8
0
  10
0.440066
  20
9.331117
  30
0.0
  0
VERTEX
  8
0
  10
0.408506
  20
9.334055
  30
0.0
  0
VERTEX
  8
0
  10
0.376942
  20
9.336757
  30
0.0
  0
VERTEX
  8
0
  10
0.345375
  20
9.339296
  30
0.0
  0
VERTEX
  8
0
  10
0.313805
  20
9.341746
  30
0.0
  0
VERTEX
  8
0
  10
0.282232
  20
9.344178
  30
0.0
  0
VERTEX
  8
0
  10
0.250656
  20
9.346666
  30
0.0
  0
VERTEX
  8
0
  10
0.219076
  20
9.349282
  30
0.0
  0
VERTEX
  8
0
  10
0.187493
  20
9.352101
  30
0.0
  0
VERTEX
  8
0
  10
0.155906
  20
9.355193
  30
0.0
  0
VERTEX
  8
0
  10
0.124317
  20
9.358633
  30
0.0
  0
VERTEX
  8
0
  10
0.092724
  20
9.362493
  30
0.0
  0
VERTEX
  8
0
  10
0.061128
  20
9.366845
  30
0.0
  0
VERTEX
  8
0
  10
0.029529
  20
9.371764
  30
0.0
  0
VERTEX
  8
0
  10
-0.002073
  20
9.377321
  30
0.0
  0
SEQEND
  0
ENDBLK
  0
BLOCK
  8
0
  70
65
  2
*C8
  10
0.0
  20
0.0
  30
0.0
  3
*C
  0
POLYLINE
  8
0
  6
CONTINUOUS
  62
7
  66
1
  70
128
  0
VERTEX
  8
0
  10
5.826686
  20
7.436229
  30
0.0
  0
VERTEX
  8
0
  10
5.755716
  20
7.459036
  30
0.0
  0
VERTEX
  8
0
  10
5.684668
  20
7.481607
  30
0.0
  0
VERTEX
  8
0
  10
5.613541
  20
7.503943
  30
0.0
  0
VERTEX
  8
0
  10
5.542338
  20
7.526044
  30
0.0
  0
VERTEX
  8
0
  10
5.47106
  20
7.547908
  30
0.0
  0
VERTEX
  8
0
  10
5.399707
  20
7.569536
  30
0.0
  0
VERTEX
  8
0
  10
5.328282
  20
7.590928
  30
0.0
  0
VERTEX
  8
0
  10
5.256784
  20
7.612082
  30
0.0
  0
VERTEX
  8
0
  10
5.185216
  20
7.632999
  30
0.0
  0
VERTEX
  8
0
  10
5.113578
  20
7.653678
  30
0.0
  0
VERTEX
  8
0
  10
5.041872
  20
7.674119
  30
0.0
  0
VERTEX
  8
0
  10
4.970099
  20
7.694322
  30
0.0
  0
VERTEX
  8
0
  10
4.89826
  20
7.714286
  30
0.0
  0
VERTEX
  8
0
  10
4.826357
  20
7.734011
  30
0.0
  0
VERTEX
  8
0
  10
4.75439
  20
7.753497
  30
0.0
  0
VERTEX
  8
0
  10
4.68236
  20
7.772742
  30
0.0
  0
VERTEX
  8
0
  10
4.610269
  20
7.791748
  30
0.0
  0
VERTEX
  8
0
  10
4.538119
  20
7.810513
  30
0.0
  0
VERTEX
  8
0
  10
4.465909
  20
7.829038
  30
0.0
  0
VERTEX
  8
0
  10
4.393642
  20
7.847321
  30
0.0
  0
VERTEX
  8
0
  10
4.292184
  20
7.872676
  30
0.0
  0
VERTEX
  8
0
  10
4.190662
  20
7.897782
  30
0.0
  0
VERTEX
  8
0
  10
4.089077
  20
7.922639
  30
0.0
  0
VERTEX
  8
0
  10
3.98743
  20
7.94725
  30
0.0
  0
VERTEX
  8
0
  10
3.885722
  20
7.971615
  30
0.0
  0
VERTEX
  8
0
  10
3.783955
  20
7.995737
  30
0.0
  0
VERTEX
  8
0
  10
3.682129
  20
8.019617
  30
0.0
  0
VERTEX
  8
0
  10
3.580246
  20
8.043256
  30
0.0
  0
VERTEX
  8
0
  10
3.478308
  20
8.066657
  30
0.0
  0
VERTEX
  8
0
  10
3.376314
  20
8.08982
  30
0.0
  0
VERTEX
  8
0
  10
3.274267
  20
8.112748
  30
0.0
  0
VERTEX
  8
0
  10
3.172168
  20
8.135442
  30
0.0
  0
VERTEX
  8
0
  10
3.070018
  20
8.157903
  30
0.0
  0
VERTEX
  8
0
  10
2.967819
  20
8.180133
  30
0.0
  0
VERTEX
  8
0
  10
2.86557
  20
8.202133
  30
0.0
  0
VERTEX
  8
0
  10
2.763274
  20
8.223906
  30
0.0
  0
VERTEX
  8
0
  10
2.660933
  20
8.245453
  30
0.0
  0
VERTEX
  8
0
  10
2.558546
  20
8.266774
  30
0.0
  0
VERTEX
  8
0
  10
2.456115
  20
8.287873
  30
0.0
  0
VERTEX
  8
0
  10
2.353642
  20
8.30875
  30
0.0
  0
VERTEX
  8
0
  10
2.270262
  20
8.325486
  30
0.0
  0
VERTEX
  8
0
  10
2.186823
  20
8.341927
  30
0.0
  0
VERTEX
  8
0
  10
2.103328
  20
8.358083
  30
0.0
  0
VERTEX
  8
0
  10
2.01978
  20
8.373967
  30
0.0
  0
VERTEX
  8
0
  10
1.93618
  20
8.389588
  30
0.0
  0
VERTEX
  8
0
  10
1.852533
  20
8.404959
  30
0.0
  0
VERTEX
  8
0
  10
1.76884
  20
8.420091
  30
0.0
  0
VERTEX
  8
0
  10
1.685105
  20
8.434995
  30
0.0
  0
VERTEX
  8
0
  10
1.60133
  20
8.449682
  30
0.0
  0
VERTEX
  8
0
  10
1.517517
  20
8.464164
  30
0.0
  0
VERTEX
  8
0
  10
1.43367
  20
8.478452
  30
0.0
  0
VERTEX
  8
0
  10
1.34979
  20
8.492558
  30
0.0
  0
VERTEX
  8
0
  10
1.265882
  20
8.506492
  30
0.0
  0
VERTEX
  8
0
  10
1.181946
  20
8.520266
  30
0.0
  0
VERTEX
  8
0
  10
1.097987
  20
8.533891
  30
0.0
  0
VERTEX
  8
0
  10
1.014007
  20
8.547378
  30
0.0
  0
VERTEX
  8
0
  10
0.930008
  20
8.560739
  30
0.0
  0
VERTEX
  8
0
  10
0.845993
  20
8.573985
  30
0.0
  0
VERTEX
  8
0
  10
0.761965
  20
8.587128
  30
0.0
  0
VERTEX
  8
0
  10
0.677927
  20
8.600178
  30
0.0
  0
VERTEX
  8
0
  10
0.644223
  20
8.605314
  30
0.0
  0
VERTEX
  8
0
  10
0.610492
  20
8.610294
  30
0.0
  0
VERTEX
  8
0
  10
0.576735
  20
8.615117
  30
0.0
  0
VERTEX
  8
0
  10
0.542954
  20
8.619783
  30
0.0
  0
VERTEX
  8
0
  10
0.509149
  20
8.624293
  30
0.0
  0
VERTEX
  8
0
  10
0.475322
  20
8.628646
  30
0.0
  0
VERTEX
  8
0
  10
0.441473
  20
8.632841
  30
0.0
  0
VERTEX
  8
0
  10
0.407604
  20
8.636879
  30
0.0
  0
VERTEX
  8
0
  10
0.373716
  20
8.64076
  30
0.0
  0
VERTEX
  8
0
  10
0.33981
  20
8.644484
  30
0.0
  0
VERTEX
  8
0
  10
0.305887
  20
8.64805
  30
0.0
  0
VERTEX
  8
0
  10
0.271948
  20
8.651458
  30
0.0
  0
VERTEX
  8
0
  10
0.237995
  20
8.654709
  30
0.0
  0
VERTEX
  8
0
  10
0.204028
  20
8.657802
  30
0.0
  0
VERTEX
  8
0
  10
0.170048
  20
8.660736
  30
0.0
  0
VERTEX
  8
0
  10
0.136057
  20
8.663513
  30
0.0
  0
VERTEX
  8
0
  10
0.102055
  20
8.666131
  30
0.0
  0
VERTEX
  8
0
  10
0.068045
  20
8.668591
  30
0.0
  0
VERTEX
  8
0
  10
0.034026
  20
8.670892
  30
0.0
  0
VERTEX
  8
0
  10
0.0
  20
8.673035
  30
0.0
  0
SEQEND
  0
ENDBLK
  0
BLOCK
  8
0
  70
65
  2
*C9
  10
0.0
  20
0.0
  30
0.0
  3
*C
  0
POLYLINE
  8
0
  6
CONTINUOUS
  62
7
  66
1
  70
128
  0
VERTEX
  8
0
  10
3.37304
  20
7.69592
  30
0.0
  0
VERTEX
  8
0
  10
3.284862
  20
7.714233
  30
0.0
  0
VERTEX
  8
0
  10
3.196632
  20
7.73231
  30
0.0
  0
VERTEX
  8
0
  10
3.108352
  20
7.750153
  30
0.0
  0
VERTEX
  8
0
  10
3.020022
  20
7.76776
  30
0.0
  0
VERTEX
  8
0
  10
2.931644
  20
7.785132
  30
0.0
  0
VERTEX
  8
0
  10
2.843218
  20
7.802267
  30
0.0
  0
VERTEX
  8
0
  10
2.754746
  20
7.819167
  30
0.0
  0
VERTEX
  8
0
  10
2.666227
  20
7.835831
  30
0.0
  0
VERTEX
  8
0
  10
2.577664
  20
7.852259
  30
0.0
  0
VERTEX
  8
0
  10
2.489057
  20
7.86845
  30
0.0
  0
VERTEX
  8
0
  10
2.400407
  20
7.884404
  30
0.0
  0
VERTEX
  8
0
  10
2.311716
  20
7.900122
  30
0.0
  0
VERTEX
  8
0
  10
2.222983
  20
7.915603
  30
0.0
  0
VERTEX
  8
0
  10
2.13421
  20
7.930847
  30
0.0
  0
VERTEX
  8
0
  10
2.045398
  20
7.945854
  30
0.0
  0
VERTEX
  8
0
  10
1.956548
  20
7.960623
  30
0.0
  0
VERTEX
  8
0
  10
1.86766
  20
7.975154
  30
0.0
  0
VERTEX
  8
0
  10
1.778736
  20
7.989448
  30
0.0
  0
VERTEX
  8
0
  10
1.689777
  20
8.003503
  30
0.0
  0
VERTEX
  8
0
  10
1.600784
  20
8.017321
  30
0.0
  0
VERTEX
  8
0
  10
1.522165
  20
8.029298
  30
0.0
  0
VERTEX
  8
0
  10
1.443508
  20
8.041039
  30
0.0
  0
VERTEX
  8
0
  10
1.364812
  20
8.052541
  30
0.0
  0
VERTEX
  8
0
  10
1.286079
  20
8.063806
  30
0.0
  0
VERTEX
  8
0
  10
1.207311
  20
8.074833
  30
0.0
  0
VERTEX
  8
0
  10
1.128507
  20
8.085622
  30
0.0
  0
VERTEX
  8
0
  10
1.04967
  20
8.096173
  30
0.0
  0
VERTEX
  8
0
  10
0.9708
  20
8.106485
  30
0.0
  0
VERTEX
  8
0
  10
0.891899
  20
8.11656
  30
0.0
  0
VERTEX
  8
0
  10
0.812967
  20
8.126396
  30
0.0
  0
VERTEX
  8
0
  10
0.734006
  20
8.135993
  30
0.0
  0
VERTEX
  8
0
  10
0.655017
  20
8.145351
  30
0.0
  0
VERTEX
  8
0
  10
0.576
  20
8.154471
  30
0.0
  0
VERTEX
  8
0
  10
0.496957
  20
8.163351
  30
0.0
  0
VERTEX
  8
0
  10
0.41789
  20
8.171993
  30
0.0
  0
VERTEX
  8
0
  10
0.338798
  20
8.180395
  30
0.0
  0
VERTEX
  8
0
  10
0.259683
  20
8.188557
  30
0.0
  0
VERTEX
  8
0
  10
0.180547
  20
8.19648
  30
0.0
  0
VERTEX
  8
0
  10
0.10139
  20
8.204164
  30
0.0
  0
VERTEX
  8
0
  10
0.022213
  20
8.211607
  30
0.0
  0
SEQEND
  0
ENDBLK
  0
BLOCK
  8
0
  70
65
  2
*C10
  10
0.0
  20
0.0
  30
0.0
  3
*C
  0
POLYLINE
  8
0
  6
CONTINUOUS
  62
7
  66
1
  70
128
  0
VERTEX
  8
0
  10
21.0286
  20
0.829109
  30
0.0
  0
VERTEX
  8
0
  10
21.517433
  20
0.986285
  30
0.0
  0
VERTEX
  8
0
  10
21.9928
  20
1.137757
  30
0.0
  0
VERTEX
  8
0
  10
22.456239
  20
1.284018
  30
0.0
  0
VERTEX
  8
0
  10
22.909287
  20
1.425558
  30
0.0
  0
VERTEX
  8
0
  10
23.353483
  20
1.562872
  30
0.0
  0
VERTEX
  8
0
  10
23.790364
  20
1.69645
  30
0.0
  0
VERTEX
  8
0
  10
24.22147
  20
1.826785
  30
0.0
  0
VERTEX
  8
0
  10
24.648337
  20
1.95437
  30
0.0
  0
VERTEX
  8
0
  10
25.072503
  20
2.079696
  30
0.0
  0
VERTEX
  8
0
  10
25.495508
  20
2.203255
  30
0.0
  0
VERTEX
  8
0
  10
25.918888
  20
2.325541
  30
0.0
  0
VERTEX
  8
0
  10
26.344183
  20
2.447045
  30
0.0
  0
VERTEX
  8
0
  10
26.772929
  20
2.56826
  30
0.0
  0
VERTEX
  8
0
  10
27.206665
  20
2.689677
  30
0.0
  0
VERTEX
  8
0
  10
27.646929
  20
2.811789
  30
0.0
  0
VERTEX
  8
0
  10
28.095259
  20
2.935088
  30
0.0
  0
VERTEX
  8
0
  10
28.553193
  20
3.060066
  30
0.0
  0
VERTEX
  8
0
  10
29.022269
  20
3.187216
  30
0.0
  0
VERTEX
  8
0
  10
29.504026
  20
3.31703
  30
0.0
  0
VERTEX
  8
0
  10
30.0
  20
3.45
  30
0.0
  0
VERTEX
  8
0
  10
30.496973
  20
3.581959
  30
0.0
  0
VERTEX
  8
0
  10
30.99441
  20
3.712142
  30
0.0
  0
VERTEX
  8
0
  10
31.492285
  20
3.840635
  30
0.0
  0
VERTEX
  8
0
  10
31.990577
  20
3.967525
  30
0.0
  0
VERTEX
  8
0
  10
32.489259
  20
4.092896
  30
0.0
  0
VERTEX
  8
0
  10
32.988308
  20
4.216836
  30
0.0
  0
VERTEX
  8
0
  10
33.4877
  20
4.339431
  30
0.0
  0
VERTEX
  8
0
  10
33.98741
  20
4.460768
  30
0.0
  0
VERTEX
  8
0
  10
34.487415
  20
4.580931
  30
0.0
  0
VERTEX
  8
0
  10
34.987691
  20
4.700009
  30
0.0
  0
VERTEX
  8
0
  10
35.488212
  20
4.818086
  30
0.0
  0
VERTEX
  8
0
  10
35.988956
  20
4.935249
  30
0.0
  0
VERTEX
  8
0
  10
36.489897
  20
5.051584
  30
0.0
  0
VERTEX
  8
0
  10
36.991012
  20
5.167178
  30
0.0
  0
VERTEX
  8
0
  10
37.492277
  20
5.282117
  30
0.0
  0
VERTEX
  8
0
  10
37.993667
  20
5.396487
  30
0.0
  0
VERTEX
  8
0
  10
38.495159
  20
5.510373
  30
0.0
  0
VERTEX
  8
0
  10
38.996728
  20
5.623864
  30
0.0
  0
VERTEX
  8
0
  10
39.498349
  20
5.737044
  30
0.0
  0
VERTEX
  8
0
  10
40.0
  20
5.85
  30
0.0
  0
VERTEX
  8
0
  10
40.498516
  20
5.961853
  30
0.0
  0
VERTEX
  8
0
  10
40.997176
  20
6.073099
  30
0.0
  0
VERTEX
  8
0
  10
41.495981
  20
6.18372
  30
0.0
  0
VERTEX
  8
0
  10
41.994934
  20
6.293695
  30
0.0
  0
VERTEX
  8
0
  10
42.494037
  20
6.403007
  30
0.0
  0
VERTEX
  8
0
  10
42.993292
  20
6.511635
  30
0.0
  0
VERTEX
  8
0
  10
43.492701
  20
6.619561
  30
0.0
  0
VERTEX
  8
0
  10
43.992267
  20
6.726766
  30
0.0
  0
VERTEX
  8
0
  10
44.49199
  20
6.83323
  30
0.0
  0
VERTEX
  8
0
  10
44.991875
  20
6.938934
  30
0.0
  0
VERTEX
  8
0
  10
45.491921
  20
7.04386
  30
0.0
  0
VERTEX
  8
0
  10
45.992132
  20
7.147988
  30
0.0
  0
VERTEX
  8
0
  10
46.49251
  20
7.2513
  30
0.0
  0
VERTEX
  8
0
  10
46.993057
  20
7.353775
  30
0.0
  0
VERTEX
  8
0
  10
47.493775
  20
7.455395
  30
0.0
  0
VERTEX
  8
0
  10
47.994665
  20
7.556141
  30
0.0
  0
VERTEX
  8
0
  10
48.495731
  20
7.655993
  30
0.0
  0
VERTEX
  8
0
  10
48.996974
  20
7.754933
  30
0.0
  0
VERTEX
  8
0
  10
49.498396
  20
7.852942
  30
0.0
  0
VERTEX
  8
0
  10
50.0
  20
7.95
  30
0.0
  0
VERTEX
  8
0
  10
50.498496
  20
8.045765
  30
0.0
  0
VERTEX
  8
0
  10
50.997095
  20
8.141108
  30
0.0
  0
VERTEX
  8
0
  10
51.495806
  20
8.235955
  30
0.0
  0
VERTEX
  8
0
  10
51.994639
  20
8.33023
  30
0.0
  0
VERTEX
  8
0
  10
52.493603
  20
8.42386
  30
0.0
  0
VERTEX
  8
0
  10
52.992707
  20
8.516769
  30
0.0
  0
VERTEX
  8
0
  10
53.49196
  20
8.608882
  30
0.0
  0
VERTEX
  8
0
  10
53.991371
  20
8.700126
  30
0.0
  0
VERTEX
  8
0
  10
54.490949
  20
8.790425
  30
0.0
  0
VERTEX
  8
0
  10
54.990705
  20
8.879704
  30
0.0
  0
VERTEX
  8
0
  10
55.490646
  20
8.96789
  30
0.0
  0
VERTEX
  8
0
  10
55.990783
  20
9.054906
  30
0.0
  0
VERTEX
  8
0
  10
56.491123
  20
9.140679
  30
0.0
  0
VERTEX
  8
0
  10
56.991677
  20
9.225134
  30
0.0
  0
VERTEX
  8
0
  10
57.492454
  20
9.308196
  30
0.0
  0
VERTEX
  8
0
  10
57.993463
  20
9.389791
  30
0.0
  0
VERTEX
  8
0
  10
58.494713
  20
9.469843
  30
0.0
  0
VERTEX
  8
0
  10
58.996213
  20
9.548279
  30
0.0
  0
VERTEX
  8
0
  10
59.497972
  20
9.625023
  30
0.0
  0
VERTEX
  8
0
  10
60.0
  20
9.7
  30
0.0
  0
VERTEX
  8
0
  10
60.498321
  20
9.772639
  30
0.0
  0
VERTEX
  8
0
  10
60.996883
  20
9.843625
  30
0.0
  0
VERTEX
  8
0
  10
61.495675
  20
9.91301
  30
0.0
  0
VERTEX
  8
0
  10
61.994688
  20
9.980849
  30
0.0
  0
VERTEX
  8
0
  10
62.493909
  20
10.047197
  30
0.0
  0
VERTEX
  8
0
  10
62.993328
  20
10.112106
  30
0.0
  0
VERTEX
  8
0
  10
63.492935
  20
10.175631
  30
0.0
  0
VERTEX
  8
0
  10
63.992718
  20
10.237825
  30
0.0
  0
VERTEX
  8
0
  10
64.492668
  20
10.298743
  30
0.0
  0
VERTEX
  8
0
  10
64.992772
  20
10.358438
  30
0.0
  0
VERTEX
  8
0
  10
65.493022
  20
10.416964
  30
0.0
  0
VERTEX
  8
0
  10
65.993405
  20
10.474376
  30
0.0
  0
VERTEX
  8
0
  10
66.493911
  20
10.530726
  30
0.0
  0
VERTEX
  8
0
  10
66.99453
  20
10.58607
  30
0.0
  0
VERTEX
  8
0
  10
67.49525
  20
10.64046
  30
0.0
  0
VERTEX
  8
0
  10
67.996061
  20
10.693951
  30
0.0
  0
VERTEX
  8
0
  10
68.496952
  20
10.746597
  30
0.0
  0
VERTEX
  8
0
  10
68.997913
  20
10.798451
  30
0.0
  0
VERTEX
  8
0
  10
69.498933
  20
10.849567
  30
0.0
  0
VERTEX
  8
0
  10
70.0
  20
10.9
  30
0.0
  0
VERTEX
  8
0
  10
70.499162
  20
10.949418
  30
0.0
  0
VERTEX
  8
0
  10
70.99843
  20
10.997848
  30
0.0
  0
VERTEX
  8
0
  10
71.4978
  20
11.045291
  30
0.0
  0
VERTEX
  8
0
  10
71.997271
  20
11.091745
  30
0.0
  0
VERTEX
  8
0
  10
72.496838
  20
11.13721
  30
0.0
  0
VERTEX
  8
0
  10
72.996499
  20
11.181685
  30
0.0
  0
VERTEX
  8
0
  10
73.496252
  20
11.22517
  30
0.0
  0
VERTEX
  8
0
  10
73.996093
  20
11.267663
  30
0.0
  0
VERTEX
  8
0
  10
74.496019
  20
11.309164
  30
0.0
  0
VERTEX
  8
0
  10
74.996028
  20
11.349673
  30
0.0
  0
VERTEX
  8
0
  10
75.496116
  20
11.389188
  30
0.0
  0
VERTEX
  8
0
  10
75.99628
  20
11.427708
  30
0.0
  0
VERTEX
  8
0
  10
76.496518
  20
11.465234
  30
0.0
  0
VERTEX
  8
0
  10
76.996827
  20
11.501765
  30
0.0
  0
VERTEX
  8
0
  10
77.497203
  20
11.537299
  30
0.0
  0
VERTEX
  8
0
  10
77.997645
  20
11.571836
  30
0.0
  0
VERTEX
  8
0
  10
78.498148
  20
11.605375
  30
0.0
  0
VERTEX
  8
0
  10
78.99871
  20
11.637916
  30
0.0
  0
VERTEX
  8
0
  10
79.499329
  20
11.669458
  30
0.0
  0
VERTEX
  8
0
  10
80.0
  20
11.7
  30
0.0
  0
VERTEX
  8
0
  10
80.499532
  20
11.72971
  30
0.0
  0
VERTEX
  8
0
  10
80.999125
  20
11.758851
  30
0.0
  0
VERTEX
  8
0
  10
81.498776
  20
11.787346
  30
0.0
  0
VERTEX
  8
0
  10
81.998484
  20
11.815121
  30
0.0
  0
VERTEX
  8
0
  10
82.498247
  20
11.8421
  30
0.0
  0
VERTEX
  8
0
  10
82.998062
  20
11.868207
  30
0.0
  0
VERTEX
  8
0
  10
83.497929
  20
11.893368
  30
0.0
  0
VERTEX
  8
0
  10
83.997845
  20
11.917507
  30
0.0
  0
VERTEX
  8
0
  10
84.497808
  20
11.940548
  30
0.0
  0
VERTEX
  8
0
  10
84.997817
  20
11.962416
  30
0.0
  0
VERTEX
  8
0
  10
85.497869
  20
11.983036
  30
0.0
  0
VERTEX
  8
0
  10
85.997963
  20
12.002332
  30
0.0
  0
VERTEX
  8
0
  10
86.498098
  20
12.020229
  30
0.0
  0
VERTEX
  8
0
  10
86.99827
  20
12.036651
  30
0.0
  0
VERTEX
  8
0
  10
87.498479
  20
12.051524
  30
0.0
  0
VERTEX
  8
0
  10
87.998721
  20
12.064771
  30
0.0
  0
VERTEX
  8
0
  10
88.498997
  20
12.076318
  30
0.0
  0
VERTEX
  8
0
  10
88.999303
  20
12.086089
  30
0.0
  0
VERTEX
  8
0
  10
89.499638
  20
12.094008
  30
0.0
  0
VERTEX
  8
0
  10
90.0
  20
12.1
  30
0.0
  0
VERTEX
  8
0
  10
90.500099
  20
12.104368
  30
0.0
  0
VERTEX
  8
0
  10
91.000239
  20
12.107445
  30
0.0
  0
VERTEX
  8
0
  10
91.500413
  20
12.109194
  30
0.0
  0
VERTEX
  8
0
  10
92.000611
  20
12.109579
  30
0.0
  0
VERTEX
  8
0
  10
92.500825
  20
12.108562
  30
0.0
  0
VERTEX
  8
0
  10
93.001045
  20
12.106107
  30
0.0
  0
VERTEX
  8
0
  10
93.501264
  20
12.102176
  30
0.0
  0
VERTEX
  8
0
  10
94.001473
  20
12.096733
  30
0.0
  0
VERTEX
  8
0
  10
94.501662
  20
12.08974
  30
0.0
  0
VERTEX
  8
0
  10
95.001824
  20
12.081162
  30
0.0
  0
VERTEX
  8
0
  10
95.501949
  20
12.07096
  30
0.0
  0
VERTEX
  8
0
  10
96.002029
  20
12.059098
  30
0.0
  0
VERTEX
  8
0
  10
96.502055
  20
12.045538
  30
0.0
  0
VERTEX
  8
0
  10
97.002019
  20
12.030245
  30
0.0
  0
VERTEX
  8
0
  10
97.501911
  20
12.013181
  30
0.0
  0
VERTEX
  8
0
  10
98.001724
  20
11.994308
  30
0.0
  0
VERTEX
  8
0
  10
98.501448
  20
11.973591
  30
0.0
  0
VERTEX
  8
0
  10
99.001074
  20
11.950992
  30
0.0
  0
VERTEX
  8
0
  10
99.500594
  20
11.926474
  30
0.0
  0
VERTEX
  8
0
  10
100.0
  20
11.9
  30
0.0
  0
VERTEX
  8
0
  10
100.501171
  20
11.871049
  30
0.0
  0
VERTEX
  8
0
  10
101.002163
  20
11.839444
  30
0.0
  0
VERTEX
  8
0
  10
101.502986
  20
11.805344
  30
0.0
  0
VERTEX
  8
0
  10
102.003649
  20
11.768911
  30
0.0
  0
VERTEX
  8
0
  10
102.504161
  20
11.730306
  30
0.0
  0
VERTEX
  8
0
  10
103.004531
  20
11.689689
  30
0.0
  0
VERTEX
  8
0
  10
103.504769
  20
11.647223
  30
0.0
  0
VERTEX
  8
0
  10
104.004884
  20
11.603066
  30
0.0
  0
VERTEX
  8
0
  10
104.504884
  20
11.557382
  30
0.0
  0
VERTEX
  8
0
  10
105.00478
  20
11.51033
  30
0.0
  0
VERTEX
  8
0
  10
105.50458
  20
11.462071
  30
0.0
  0
VERTEX
  8
0
  10
106.004293
  20
11.412766
  30
0.0
  0
VERTEX
  8
0
  10
106.50393
  20
11.362577
  30
0.0
  0
VERTEX
  8
0
  10
107.003498
  20
11.311664
  30
0.0
  0
VERTEX
  8
0
  10
107.503008
  20
11.260188
  30
0.0
  0
VERTEX
  8
0
  10
108.002469
  20
11.208311
  30
0.0
  0
VERTEX
  8
0
  10
108.501889
  20
11.156192
  30
0.0
  0
VERTEX
  8
0
  10
109.001278
  20
11.103994
  30
0.0
  0
VERTEX
  8
0
  10
109.500645
  20
11.051876
  30
0.0
  0
VERTEX
  8
0
  10
110.0
  20
11.0
  30
0.0
  0
VERTEX
  8
0
  10
110.500705
  20
10.949396
  30
0.0
  0
VERTEX
  8
0
  10
111.001345
  20
10.901054
  30
0.0
  0
VERTEX
  8
0
  10
111.501916
  20
10.854651
  30
0.0
  0
VERTEX
  8
0
  10
112.002419
  20
10.80986
  30
0.0
  0
VERTEX
  8
0
  10
112.502852
  20
10.766354
  30
0.0
  0
VERTEX
  8
0
  10
113.003213
  20
10.723809
  30
0.0
  0
VERTEX
  8
0
  10
113.503501
  20
10.681898
  30
0.0
  0
VERTEX
  8
0
  10
114.003715
  20
10.640296
  30
0.0
  0
VERTEX
  8
0
  10
114.503853
  20
10.598677
  30
0.0
  0
VERTEX
  8
0
  10
115.003914
  20
10.556715
  30
0.0
  0
VERTEX
  8
0
  10
115.503897
  20
10.514085
  30
0.0
  0
VERTEX
  8
0
  10
116.003801
  20
10.47046
  30
0.0
  0
VERTEX
  8
0
  10
116.503623
  20
10.425515
  30
0.0
  0
VERTEX
  8
0
  10
117.003363
  20
10.378923
  30
0.0
  0
VERTEX
  8
0
  10
117.50302
  20
10.33036
  30
0.0
  0
VERTEX
  8
0
  10
118.002591
  20
10.279499
  30
0.0
  0
VERTEX
  8
0
  10
118.502076
  20
10.226015
  30
0.0
  0
VERTEX
  8
0
  10
119.001474
  20
10.169582
  30
0.0
  0
VERTEX
  8
0
  10
119.500782
  20
10.109873
  30
0.0
  0
VERTEX
  8
0
  10
120.0
  20
10.046564
  30
0.0
  0
SEQEND
  0
ENDBLK
  0
BLOCK
  8
0
  70
65
  2
*C11
  10
0.0
  20
0.0
  30
0.0
  3
*C
  0
POLYLINE
  8
0
  6
CONTINUOUS
  62
7
  66
1
  70
128
  0
VERTEX
  8
0
  10
20.0
  20
0.0
  30
0.0
  0
VERTEX
  8
0
  10
20.497447
  20
0.148833
  30
0.0
  0
VERTEX
  8
0
  10
20.995178
  20
0.296741
  30
0.0
  0
VERTEX
  8
0
  10
21.493191
  20
0.443722
  30
0.0
  0
VERTEX
  8
0
  10
21.991483
  20
0.589777
  30
0.0
  0
VERTEX
  8
0
  10
22.490051
  20
0.734904
  30
0.0
  0
VERTEX
  8
0
  10
22.988894
  20
0.879102
  30
0.0
  0
VERTEX
  8
0
  10
23.488008
  20
1.022372
  30
0.0
  0
VERTEX
  8
0
  10
23.987391
  20
1.164712
  30
0.0
  0
VERTEX
  8
0
  10
24.48704
  20
1.306121
  30
0.0
  0
VERTEX
  8
0
  10
24.986952
  20
1.446599
  30
0.0
  0
VERTEX
  8
0
  10
25.487126
  20
1.586145
  30
0.0
  0
VERTEX
  8
0
  10
25.987558
  20
1.724758
  30
0.0
  0
VERTEX
  8
0
  10
26.488245
  20
1.862438
  30
0.0
  0
VERTEX
  8
0
  10
26.989186
  20
1.999184
  30
0.0
  0
VERTEX
  8
0
  10
27.490377
  20
2.134995
  30
0.0
  0
VERTEX
  8
0
  10
27.991816
  20
2.26987
  30
0.0
  0
VERTEX
  8
0
  10
28.493501
  20
2.403809
  30
0.0
  0
VERTEX
  8
0
  10
28.995428
  20
2.536811
  30
0.0
  0
VERTEX
  8
0
  10
29.497595
  20
2.668875
  30
0.0
  0
VERTEX
  8
0
  10
30.0
  20
2.8
  30
0.0
  0
VERTEX
  8
0
  10
30.497729
  20
2.929155
  30
0.0
  0
VERTEX
  8
0
  10
30.995617
  20
3.057789
  30
0.0
  0
VERTEX
  8
0
  10
31.49368
  20
3.185831
  30
0.0
  0
VERTEX
  8
0
  10
31.991929
  20
3.313205
  30
0.0
  0
VERTEX
  8
0
  10
32.490378
  20
3.439837
  30
0.0
  0
VERTEX
  8
0
  10
32.989039
  20
3.565653
  30
0.0
  0
VERTEX
  8
0
  10
33.487927
  20
3.69058
  30
0.0
  0
VERTEX
  8
0
  10
33.987054
  20
3.814543
  30
0.0
  0
VERTEX
  8
0
  10
34.486432
  20
3.937469
  30
0.0
  0
VERTEX
  8
0
  10
34.986077
  20
4.059283
  30
0.0
  0
VERTEX
  8
0
  10
35.485999
  20
4.179911
  30
0.0
  0
VERTEX
  8
0
  10
35.986214
  20
4.299279
  30
0.0
  0
VERTEX
  8
0
  10
36.486733
  20
4.417314
  30
0.0
  0
VERTEX
  8
0
  10
36.987569
  20
4.533942
  30
0.0
  0
VERTEX
  8
0
  10
37.488737
  20
4.649087
  30
0.0
  0
VERTEX
  8
0
  10
37.990249
  20
4.762677
  30
0.0
  0
VERTEX
  8
0
  10
38.492118
  20
4.874637
  30
0.0
  0
VERTEX
  8
0
  10
38.994358
  20
4.984894
  30
0.0
  0
VERTEX
  8
0
  10
39.496981
  20
5.093373
  30
0.0
  0
VERTEX
  8
0
  10
40.0
  20
5.2
  30
0.0
  0
VERTEX
  8
0
  10
40.497386
  20
5.303467
  30
0.0
  0
VERTEX
  8
0
  10
40.995151
  20
5.405097
  30
0.0
  0
VERTEX
  8
0
  10
41.493278
  20
5.504958
  30
0.0
  0
VERTEX
  8
0
  10
41.991749
  20
5.60312
  30
0.0
  0
VERTEX
  8
0
  10
42.490547
  20
5.699655
  30
0.0
  0
VERTEX
  8
0
  10
42.989655
  20
5.794632
  30
0.0
  0
VERTEX
  8
0
  10
43.489056
  20
5.888121
  30
0.0
  0
VERTEX
  8
0
  10
43.988732
  20
5.980193
  30
0.0
  0
VERTEX
  8
0
  10
44.488665
  20
6.070917
  30
0.0
  0
VERTEX
  8
0
  10
44.988839
  20
6.160363
  30
0.0
  0
VERTEX
  8
0
  10
45.489237
  20
6.248603
  30
0.0
  0
VERTEX
  8
0
  10
45.98984
  20
6.335705
  30
0.0
  0
VERTEX
  8
0
  10
46.490632
  20
6.42174
  30
0.0
  0
VERTEX
  8
0
  10
46.991595
  20
6.506778
  30
0.0
  0
VERTEX
  8
0
  10
47.492712
  20
6.59089
  30
0.0
  0
VERTEX
  8
0
  10
47.993965
  20
6.674145
  30
0.0
  0
VERTEX
  8
0
  10
48.495338
  20
6.756613
  30
0.0
  0
VERTEX
  8
0
  10
48.996813
  20
6.838365
  30
0.0
  0
VERTEX
  8
0
  10
49.498373
  20
6.919471
  30
0.0
  0
VERTEX
  8
0
  10
50.0
  20
7.0
  30
0.0
  0
VERTEX
  8
0
  10
50.49859
  20
7.079516
  30
0.0
  0
VERTEX
  8
0
  10
50.997294
  20
7.158484
  30
0.0
  0
VERTEX
  8
0
  10
51.496118
  20
7.236827
  30
0.0
  0
VERTEX
  8
0
  10
51.995067
  20
7.31447
  30
0.0
  0
VERTEX
  8
0
  10
52.494147
  20
7.391337
  30
0.0
  0
VERTEX
  8
0
  10
52.993364
  20
7.467354
  30
0.0
  0
VERTEX
  8
0
  10
53.492723
  20
7.542445
  30
0.0
  0
VERTEX
  8
0
  10
53.992231
  20
7.616534
  30
0.0
  0
VERTEX
  8
0
  10
54.491893
  20
7.689546
  30
0.0
  0
VERTEX
  8
0
  10
54.991715
  20
7.761405
  30
0.0
  0
VERTEX
  8
0
  10
55.491703
  20
7.832036
  30
0.0
  0
VERTEX
  8
0
  10
55.991862
  20
7.901364
  30
0.0
  0
VERTEX
  8
0
  10
56.492199
  20
7.969312
  30
0.0
  0
VERTEX
  8
0
  10
56.992718
  20
8.035806
  30
0.0
  0
VERTEX
  8
0
  10
57.493426
  20
8.100771
  30
0.0
  0
VERTEX
  8
0
  10
57.994329
  20
8.164129
  30
0.0
  0
VERTEX
  8
0
  10
58.495432
  20
8.225807
  30
0.0
  0
VERTEX
  8
0
  10
58.996741
  20
8.285728
  30
0.0
  0
VERTEX
  8
0
  10
59.498262
  20
8.343818
  30
0.0
  0
VERTEX
  8
0
  10
60.0
  20
8.4
  30
0.0
  0
VERTEX
  8
0
  10
60.498681
  20
8.454108
  30
0.0
  0
VERTEX
  8
0
  10
60.997541
  20
8.50674
  30
0.0
  0
VERTEX
  8
0
  10
61.496572
  20
8.557895
  30
0.0
  0
VERTEX
  8
0
  10
61.995769
  20
8.607572
  30
0.0
  0
VERTEX
  8
0
  10
62.495124
  20
8.655768
  30
0.0
  0
VERTEX
  8
0
  10
62.994631
  20
8.702483
  30
0.0
  0
VERTEX
  8
0
  10
63.494283
  20
8.747714
  30
0.0
  0
VERTEX
  8
0
  10
63.994074
  20
8.79146
  30
0.0
  0
VERTEX
  8
0
  10
64.493997
  20
8.83372
  30
0.0
  0
VERTEX
  8
0
  10
64.994046
  20
8.874491
  30
0.0
  0
VERTEX
  8
0
  10
65.494214
  20
8.913772
  30
0.0
  0
VERTEX
  8
0
  10
65.994495
  20
8.951562
  30
0.0
  0
VERTEX
  8
0
  10
66.494881
  20
8.987859
  30
0.0
  0
VERTEX
  8
0
  10
66.995367
  20
9.022662
  30
0.0
  0
VERTEX
  8
0
  10
67.495945
  20
9.055968
  30
0.0
  0
VERTEX
  8
0
  10
67.99661
  20
9.087776
  30
0.0
  0
VERTEX
  8
0
  10
68.497355
  20
9.118085
  30
0.0
  0
VERTEX
  8
0
  10
68.998172
  20
9.146893
  30
0.0
  0
VERTEX
  8
0
  10
69.499056
  20
9.174199
  30
0.0
  0
VERTEX
  8
0
  10
70.0
  20
9.2
  30
0.0
  0
VERTEX
  8
0
  10
70.499523
  20
9.224108
  30
0.0
  0
VERTEX
  8
0
  10
70.999134
  20
9.246508
  30
0.0
  0
VERTEX
  8
0
  10
71.498828
  20
9.267237
  30
0.0
  0
VERTEX
  8
0
  10
71.998599
  20
9.286333
  30
0.0
  0
VERTEX
  8
0
  10
72.498438
  20
9.303833
  30
0.0
  0
VERTEX
  8
0
  10
72.998341
  20
9.319774
  30
0.0
  0
VERTEX
  8
0
  10
73.498301
  20
9.334192
  30
0.0
  0
VERTEX
  8
0
  10
73.998311
  20
9.347126
  30
0.0
  0
VERTEX
  8
0
  10
74.498365
  20
9.358611
  30
0.0
  0
VERTEX
  8
0
  10
74.998456
  20
9.368686
  30
0.0
  0
VERTEX
  8
0
  10
75.498578
  20
9.377387
  30
0.0
  0
VERTEX
  8
0
  10
75.998724
  20
9.384751
  30
0.0
  0
VERTEX
  8
0
  10
76.498888
  20
9.390816
  30
0.0
  0
VERTEX
  8
0
  10
76.999064
  20
9.395619
  30
0.0
  0
VERTEX
  8
0
  10
77.499245
  20
9.399196
  30
0.0
  0
VERTEX
  8
0
  10
77.999425
  20
9.401585
  30
0.0
  0
VERTEX
  8
0
  10
78.499596
  20
9.402822
  30
0.0
  0
VERTEX
  8
0
  10
78.999754
  20
9.402946
  30
0.0
  0
VERTEX
  8
0
  10
79.499891
  20
9.401993
  30
0.0
  0
VERTEX
  8
0
  10
80.0
  20
9.4
  30
0.0
  0
VERTEX
  8
0
  10
80.500229
  20
9.396991
  30
0.0
  0
VERTEX
  8
0
  10
81.000475
  20
9.392941
  30
0.0
  0
VERTEX
  8
0
  10
81.500731
  20
9.387813
  30
0.0
  0
VERTEX
  8
0
  10
82.000991
  20
9.381571
  30
0.0
  0
VERTEX
  8
0
  10
82.501246
  20
9.374178
  30
0.0
  0
VERTEX
  8
0
  10
83.001491
  20
9.365596
  30
0.0
  0
VERTEX
  8
0
  10
83.501719
  20
9.355789
  30
0.0
  0
VERTEX
  8
0
  10
84.001922
  20
9.344719
  30
0.0
  0
VERTEX
  8
0
  10
84.502095
  20
9.332351
  30
0.0
  0
VERTEX
  8
0
  10
85.002229
  20
9.318646
  30
0.0
  0
VERTEX
  8
0
  10
85.50232
  20
9.303569
  30
0.0
  0
VERTEX
  8
0
  10
86.002358
  20
9.287082
  30
0.0
  0
VERTEX
  8
0
  10
86.502339
  20
9.269148
  30
0.0
  0
VERTEX
  8
0
  10
87.002254
  20
9.24973
  30
0.0
  0
VERTEX
  8
0
  10
87.502098
  20
9.228792
  30
0.0
  0
VERTEX
  8
0
  10
88.001863
  20
9.206296
  30
0.0
  0
VERTEX
  8
0
  10
88.501543
  20
9.182206
  30
0.0
  0
VERTEX
  8
0
  10
89.00113
  20
9.156484
  30
0.0
  0
VERTEX
  8
0
  10
89.500618
  20
9.129095
  30
0.0
  0
VERTEX
  8
0
  10
90.0
  20
9.1
  30
0.0
  0
VERTEX
  8
0
  10
90.501129
  20
9.06953
  30
0.0
  0
VERTEX
  8
0
  10
91.002262
  20
9.038181
  30
0.0
  0
VERTEX
  8
0
  10
91.50338
  20
9.005844
  30
0.0
  0
VERTEX
  8
0
  10
92.004461
  20
8.972413
  30
0.0
  0
VERTEX
  8
0
  10
92.505486
  20
8.937777
  30
0.0
  0
VERTEX
  8
0
  10
93.006432
  20
8.901828
  30
0.0
  0
VERTEX
  8
0
  10
93.50728
  20
8.864459
  30
0.0
  0
VERTEX
  8
0
  10
94.00801
  20
8.82556
  30
0.0
  0
VERTEX
  8
0
  10
94.5086
  20
8.785024
  30
0.0
  0
VERTEX
  8
0
  10
95.00903
  20
8.742741
  30
0.0
  0
VERTEX
  8
0
  10
95.509279
  20
8.698603
  30
0.0
  0
VERTEX
  8
0
  10
96.009327
  20
8.652502
  30
0.0
  0
VERTEX
  8
0
  10
96.509154
  20
8.604329
  30
0.0
  0
VERTEX
  8
0
  10
97.008738
  20
8.553976
  30
0.0
  0
VERTEX
  8
0
  10
97.508059
  20
8.501334
  30
0.0
  0
VERTEX
  8
0
  10
98.007097
  20
8.446296
  30
0.0
  0
VERTEX
  8
0
  10
98.50583
  20
8.388751
  30
0.0
  0
VERTEX
  8
0
  10
99.004239
  20
8.328593
  30
0.0
  0
VERTEX
  8
0
  10
99.502302
  20
8.265712
  30
0.0
  0
VERTEX
  8
0
  10
100.0
  20
8.2
  30
0.0
  0
VERTEX
  8
0
  10
100.504552
  20
8.134763
  30
0.0
  0
VERTEX
  8
0
  10
101.011008
  20
8.074182
  30
0.0
  0
VERTEX
  8
0
  10
101.518969
  20
8.017046
  30
0.0
  0
VERTEX
  8
0
  10
102.02804
  20
7.962145
  30
0.0
  0
VERTEX
  8
0
  10
102.537823
  20
7.908269
  30
0.0
  0
VERTEX
  8
0
  10
103.04792
  20
7.854207
  30
0.0
  0
VERTEX
  8
0
  10
103.557936
  20
7.798749
  30
0.0
  0
VERTEX
  8
0
  10
104.067472
  20
7.740683
  30
0.0
  0
VERTEX
  8
0
  10
104.576132
  20
7.678801
  30
0.0
  0
VERTEX
  8
0
  10
105.083519
  20
7.611892
  30
0.0
  0
VERTEX
  8
0
  10
105.589235
  20
7.538745
  30
0.0
  0
VERTEX
  8
0
  10
106.092884
  20
7.458149
  30
0.0
  0
VERTEX
  8
0
  10
106.594069
  20
7.368895
  30
0.0
  0
VERTEX
  8
0
  10
107.092392
  20
7.269771
  30
0.0
  0
VERTEX
  8
0
  10
107.587456
  20
7.159569
  30
0.0
  0
VERTEX
  8
0
  10
108.078864
  20
7.037076
  30
0.0
  0
VERTEX
  8
0
  10
108.56622
  20
6.901083
  30
0.0
  0
VERTEX
  8
0
  10
109.049126
  20
6.75038
  30
0.0
  0
VERTEX
  8
0
  10
109.527185
  20
6.583756
  30
0.0
  0
VERTEX
  8
0
  10
110.0
  20
6.4
  30
0.0
  0
VERTEX
  8
0
  10
110.547566
  20
6.169571
  30
0.0
  0
VERTEX
  8
0
  10
111.091583
  20
5.92878
  30
0.0
  0
VERTEX
  8
0
  10
111.631807
  20
5.677784
  30
0.0
  0
VERTEX
  8
0
  10
112.167997
  20
5.416737
  30
0.0
  0
VERTEX
  8
0
  10
112.699908
  20
5.145796
  30
0.0
  0
VERTEX
  8
0
  10
113.227297
  20
4.865114
  30
0.0
  0
VERTEX
  8
0
  10
113.749923
  20
4.574849
  30
0.0
  0
VERTEX
  8
0
  10
114.267542
  20
4.275156
  30
0.0
  0
VERTEX
  8
0
  10
114.779911
  20
3.966189
  30
0.0
  0
VERTEX
  8
0
  10
115.286787
  20
3.648105
  30
0.0
  0
VERTEX
  8
0
  10
115.787928
  20
3.321058
  30
0.0
  0
VERTEX
  8
0
  10
116.283089
  20
2.985205
  30
0.0
  0
VERTEX
  8
0
  10
116.772029
  20
2.640701
  30
0.0
  0
VERTEX
  8
0
  10
117.254505
  20
2.287702
  30
0.0
  0
VERTEX
  8
0
  10
117.730273
  20
1.926362
  30
0.0
  0
VERTEX
  8
0
  10
118.199091
  20
1.556837
  30
0.0
  0
VERTEX
  8
0
  10
118.660716
  20
1.179283
  30
0.0
  0
VERTEX
  8
0
  10
119.114904
  20
0.793855
  30
0.0
  0
VERTEX
  8
0
  10
119.561413
  20
0.400709
  30
0.0
  0
VERTEX
  8
0
  10
120.0
  20
0.0
  30
0.0
  0
SEQEND
  0
ENDBLK
  0
BLOCK
  8
0
  70
65
  2
*C12
  10
0.0
  20
0.0
  30
0.0
  3
*C
  0
POLYLINE
  8
0
  6
CONTINUOUS
  62
7
  66
1
  70
128
  0
VERTEX
  8
0
  10
20.0
  20
30.0
  30
0.0
  0
VERTEX
  8
0
  10
20.497063
  20
29.890615
  30
0.0
  0
VERTEX
  8
0
  10
20.994476
  20
29.782736
  30
0.0
  0
VERTEX
  8
0
  10
21.492233
  20
29.676365
  30
0.0
  0
VERTEX
  8
0
  10
21.990327
  20
29.571503
  30
0.0
  0
VERTEX
  8
0
  10
22.488751
  20
29.468151
  30
0.0
  0
VERTEX
  8
0
  10
22.987498
  20
29.366311
  30
0.0
  0
VERTEX
  8
0
  10
23.486561
  20
29.265983
  30
0.0
  0
VERTEX
  8
0
  10
23.985933
  20
29.16717
  30
0.0
  0
VERTEX
  8
0
  10
24.485607
  20
29.069873
  30
0.0
  0
VERTEX
  8
0
  10
24.985577
  20
28.974092
  30
0.0
  0
VERTEX
  8
0
  10
25.485835
  20
28.879829
  30
0.0
  0
VERTEX
  8
0
  10
25.986375
  20
28.787086
  30
0.0
  0
VERTEX
  8
0
  10
26.48719
  20
28.695864
  30
0.0
  0
VERTEX
  8
0
  10
26.988272
  20
28.606163
  30
0.0
  0
VERTEX
  8
0
  10
27.489615
  20
28.517987
  30
0.0
  0
VERTEX
  8
0
  10
27.991212
  20
28.431335
  30
0.0
  0
VERTEX
  8
0
  10
28.493056
  20
28.346209
  30
0.0
  0
VERTEX
  8
0
  10
28.99514
  20
28.26261
  30
0.0
  0
VERTEX
  8
0
  10
29.497457
  20
28.18054
  30
0.0
  0
VERTEX
  8
0
  10
30.0
  20
28.1
  30
0.0
  0
VERTEX
  8
0
  10
30.49792
  20
28.021808
  30
0.0
  0
VERTEX
  8
0
  10
30.996038
  20
27.945193
  30
0.0
  0
VERTEX
  8
0
  10
31.494327
  20
27.870078
  30
0.0
  0
VERTEX
  8
0
  10
31.99276
  20
27.796387
  30
0.0
  0
VERTEX
  8
0
  10
32.49131
  20
27.724041
  30
0.0
  0
VERTEX
  8
0
  10
32.989951
  20
27.652964
  30
0.0
  0
VERTEX
  8
0
  10
33.488656
  20
27.583079
  30
0.0
  0
VERTEX
  8
0
  10
33.987397
  20
27.51431
  30
0.0
  0
VERTEX
  8
0
  10
34.486147
  20
27.446578
  30
0.0
  0
VERTEX
  8
0
  10
34.984881
  20
27.379808
  30
0.0
  0
VERTEX
  8
0
  10
35.48357
  20
27.313922
  30
0.0
  0
VERTEX
  8
0
  10
35.982188
  20
27.248843
  30
0.0
  0
VERTEX
  8
0
  10
36.480708
  20
27.184494
  30
0.0
  0
VERTEX
  8
0
  10
36.979103
  20
27.120799
  30
0.0
  0
VERTEX
  8
0
  10
37.477346
  20
27.057679
  30
0.0
  0
VERTEX
  8
0
  10
37.97541
  20
26.995059
  30
0.0
  0
VERTEX
  8
0
  10
38.473269
  20
26.932861
  30
0.0
  0
VERTEX
  8
0
  10
38.970895
  20
26.871009
  30
0.0
  0
VERTEX
  8
0
  10
39.468262
  20
26.809424
  30
0.0
  0
VERTEX
  8
0
  10
39.965342
  20
26.748031
  30
0.0
  0
VERTEX
  8
0
  10
40.470734
  20
26.685553
  30
0.0
  0
VERTEX
  8
0
  10
40.975383
  20
26.623016
  30
0.0
  0
VERTEX
  8
0
  10
41.479348
  20
26.56052
  30
0.0
  0
VERTEX
  8
0
  10
41.982691
  20
26.498162
  30
0.0
  0
VERTEX
  8
0
  10
42.485469
  20
26.436042
  30
0.0
  0
VERTEX
  8
0
  10
42.987743
  20
26.374259
  30
0.0
  0
VERTEX
  8
0
  10
43.489572
  20
26.312912
  30
0.0
  0
VERTEX
  8
0
  10
43.991016
  20
26.252099
  30
0.0
  0
VERTEX
  8
0
  10
44.492134
  20
26.191919
  30
0.0
  0
VERTEX
  8
0
  10
44.992987
  20
26.132471
  30
0.0
  0
VERTEX
  8
0
  10
45.493633
  20
26.073854
  30
0.0
  0
VERTEX
  8
0
  10
45.994133
  20
26.016166
  30
0.0
  0
VERTEX
  8
0
  10
46.494545
  20
25.959508
  30
0.0
  0
VERTEX
  8
0
  10
46.99493
  20
25.903977
  30
0.0
  0
VERTEX
  8
0
  10
47.495347
  20
25.849672
  30
0.0
  0
VERTEX
  8
0
  10
47.995856
  20
25.796692
  30
0.0
  0
VERTEX
  8
0
  10
48.496516
  20
25.745136
  30
0.0
  0
VERTEX
  8
0
  10
48.997387
  20
25.695103
  30
0.0
  0
VERTEX
  8
0
  10
49.498528
  20
25.646691
  30
0.0
  0
VERTEX
  8
0
  10
50.0
  20
25.6
  30
0.0
  0
VERTEX
  8
0
  10
50.49891
  20
25.555351
  30
0.0
  0
VERTEX
  8
0
  10
50.997985
  20
25.512459
  30
0.0
  0
VERTEX
  8
0
  10
51.497217
  20
25.471289
  30
0.0
  0
VERTEX
  8
0
  10
51.996598
  20
25.431804
  30
0.0
  0
VERTEX
  8
0
  10
52.496118
  20
25.393968
  30
0.0
  0
VERTEX
  8
0
  10
52.995769
  20
25.357747
  30
0.0
  0
VERTEX
  8
0
  10
53.495544
  20
25.323103
  30
0.0
  0
VERTEX
  8
0
  10
53.995433
  20
25.290001
  30
0.0
  0
VERTEX
  8
0
  10
54.495429
  20
25.258405
  30
0.0
  0
VERTEX
  8
0
  10
54.995523
  20
25.228279
  30
0.0
  0
VERTEX
  8
0
  10
55.495706
  20
25.199588
  30
0.0
  0
VERTEX
  8
0
  10
55.99597
  20
25.172295
  30
0.0
  0
VERTEX
  8
0
  10
56.496308
  20
25.146365
  30
0.0
  0
VERTEX
  8
0
  10
56.996709
  20
25.121762
  30
0.0
  0
VERTEX
  8
0
  10
57.497167
  20
25.09845
  30
0.0
  0
VERTEX
  8
0
  10
57.997672
  20
25.076393
  30
0.0
  0
VERTEX
  8
0
  10
58.498216
  20
25.055556
  30
0.0
  0
VERTEX
  8
0
  10
58.998791
  20
25.035902
  30
0.0
  0
VERTEX
  8
0
  10
59.499389
  20
25.017395
  30
0.0
  0
VERTEX
  8
0
  10
60.0
  20
25.0
  30
0.0
  0
VERTEX
  8
0
  10
60.499757
  20
24.984051
  30
0.0
  0
VERTEX
  8
0
  10
60.999565
  20
24.9698
  30
0.0
  0
VERTEX
  8
0
  10
61.49942
  20
24.95718
  30
0.0
  0
VERTEX
  8
0
  10
61.999317
  20
24.946124
  30
0.0
  0
VERTEX
  8
0
  10
62.499253
  20
24.936564
  30
0.0
  0
VERTEX
  8
0
  10
62.999222
  20
24.928433
  30
0.0
  0
VERTEX
  8
0
  10
63.499221
  20
24.921662
  30
0.0
  0
VERTEX
  8
0
  10
63.999246
  20
24.916186
  30
0.0
  0
VERTEX
  8
0
  10
64.499292
  20
24.911935
  30
0.0
  0
VERTEX
  8
0
  10
64.999355
  20
24.908843
  30
0.0
  0
VERTEX
  8
0
  10
65.499431
  20
24.906842
  30
0.0
  0
VERTEX
  8
0
  10
65.999516
  20
24.905864
  30
0.0
  0
VERTEX
  8
0
  10
66.499605
  20
24.905843
  30
0.0
  0
VERTEX
  8
0
  10
66.999694
  20
24.90671
  30
0.0
  0
VERTEX
  8
0
  10
67.49978
  20
24.908398
  30
0.0
  0
VERTEX
  8
0
  10
67.999857
  20
24.91084
  30
0.0
  0
VERTEX
  8
0
  10
68.499922
  20
24.913967
  30
0.0
  0
VERTEX
  8
0
  10
68.99997
  20
24.917713
  30
0.0
  0
VERTEX
  8
0
  10
69.499998
  20
24.92201
  30
0.0
  0
VERTEX
  8
0
  10
70.0
  20
24.926791
  30
0.0
  0
VERTEX
  8
0
  10
70.500167
  20
24.932084
  30
0.0
  0
VERTEX
  8
0
  10
71.000343
  20
24.93799
  30
0.0
  0
VERTEX
  8
0
  10
71.500524
  20
24.944553
  30
0.0
  0
VERTEX
  8
0
  10
72.000704
  20
24.951818
  30
0.0
  0
VERTEX
  8
0
  10
72.50088
  20
24.95983
  30
0.0
  0
VERTEX
  8
0
  10
73.001046
  20
24.968633
  30
0.0
  0
VERTEX
  8
0
  10
73.5012
  20
24.978272
  30
0.0
  0
VERTEX
  8
0
  10
74.001336
  20
24.988793
  30
0.0
  0
VERTEX
  8
0
  10
74.50145
  20
25.000238
  30
0.0
  0
VERTEX
  8
0
  10
75.001538
  20
25.012654
  30
0.0
  0
VERTEX
  8
0
  10
75.501595
  20
25.026085
  30
0.0
  0
VERTEX
  8
0
  10
76.001617
  20
25.040575
  30
0.0
  0
VERTEX
  8
0
  10
76.501599
  20
25.056169
  30
0.0
  0
VERTEX
  8
0
  10
77.001537
  20
25.072912
  30
0.0
  0
VERTEX
  8
0
  10
77.501427
  20
25.090849
  30
0.0
  0
VERTEX
  8
0
  10
78.001265
  20
25.110024
  30
0.0
  0
VERTEX
  8
0
  10
78.501045
  20
25.130482
  30
0.0
  0
VERTEX
  8
0
  10
79.000764
  20
25.152268
  30
0.0
  0
VERTEX
  8
0
  10
79.500417
  20
25.175425
  30
0.0
  0
VERTEX
  8
0
  10
80.0
  20
25.2
  30
0.0
  0
VERTEX
  8
0
  10
80.50068
  20
25.226169
  30
0.0
  0
VERTEX
  8
0
  10
81.001272
  20
25.253912
  30
0.0
  0
VERTEX
  8
0
  10
81.501779
  20
25.283156
  30
0.0
  0
VERTEX
  8
0
  10
82.002205
  20
25.313829
  30
0.0
  0
VERTEX
  8
0
  10
82.50255
  20
25.345858
  30
0.0
  0
VERTEX
  8
0
  10
83.002819
  20
25.37917
  30
0.0
  0
VERTEX
  8
0
  10
83.503014
  20
25.413693
  30
0.0
  0
VERTEX
  8
0
  10
84.003138
  20
25.449354
  30
0.0
  0
VERTEX
  8
0
  10
84.503192
  20
25.486081
  30
0.0
  0
VERTEX
  8
0
  10
85.00318
  20
25.523801
  30
0.0
  0
VERTEX
  8
0
  10
85.503105
  20
25.562441
  30
0.0
  0
VERTEX
  8
0
  10
86.002969
  20
25.601929
  30
0.0
  0
VERTEX
  8
0
  10
86.502774
  20
25.642191
  30
0.0
  0
VERTEX
  8
0
  10
87.002524
  20
25.683157
  30
0.0
  0
VERTEX
  8
0
  10
87.50222
  20
25.724752
  30
0.0
  0
VERTEX
  8
0
  10
88.001866
  20
25.766904
  30
0.0
  0
VERTEX
  8
0
  10
88.501465
  20
25.809541
  30
0.0
  0
VERTEX
  8
0
  10
89.001018
  20
25.852589
  30
0.0
  0
VERTEX
  8
0
  10
89.500529
  20
25.895977
  30
0.0
  0
VERTEX
  8
0
  10
90.0
  20
25.939632
  30
0.0
  0
VERTEX
  8
0
  10
90.500607
  20
25.983885
  30
0.0
  0
VERTEX
  8
0
  10
91.001148
  20
26.028899
  30
0.0
  0
VERTEX
  8
0
  10
91.501624
  20
26.074658
  30
0.0
  0
VERTEX
  8
0
  10
92.002036
  20
26.121148
  30
0.0
  0
VERTEX
  8
0
  10
92.502382
  20
26.168355
  30
0.0
  0
VERTEX
  8
0
  10
93.002664
  20
26.216264
  30
0.0
  0
VERTEX
  8
0
  10
93.502882
  20
26.26486
  30
0.0
  0
VERTEX
  8
0
  10
94.003035
  20
26.314128
  30
0.0
  0
VERTEX
  8
0
  10
94.503126
  20
26.364055
  30
0.0
  0
VERTEX
  8
0
  10
95.003153
  20
26.414624
  30
0.0
  0
VERTEX
  8
0
  10
95.503116
  20
26.465822
  30
0.0
  0
VERTEX
  8
0
  10
96.003018
  20
26.517634
  30
0.0
  0
VERTEX
  8
0
  10
96.502856
  20
26.570046
  30
0.0
  0
VERTEX
  8
0
  10
97.002633
  20
26.623041
  30
0.0
  0
VERTEX
  8
0
  10
97.502347
  20
26.676607
  30
0.0
  0
VERTEX
  8
0
  10
98.002
  20
26.730728
  30
0.0
  0
VERTEX
  8
0
  10
98.501591
  20
26.78539
  30
0.0
  0
VERTEX
  8
0
  10
99.001122
  20
26.840578
  30
0.0
  0
VERTEX
  8
0
  10
99.500591
  20
26.896276
  30
0.0
  0
VERTEX
  8
0
  10
100.0
  20
26.952472
  30
0.0
  0
VERTEX
  8
0
  10
100.50071
  20
27.008981
  30
0.0
  0
VERTEX
  8
0
  10
101.001452
  20
27.065411
  30
0.0
  0
VERTEX
  8
0
  10
101.502209
  20
27.121879
  30
0.0
  0
VERTEX
  8
0
  10
102.002961
  20
27.1785
  30
0.0
  0
VERTEX
  8
0
  10
102.503693
  20
27.23539
  30
0.0
  0
VERTEX
  8
0
  10
103.004385
  20
27.292666
  30
0.0
  0
VERTEX
  8
0
  10
103.50502
  20
27.350444
  30
0.0
  0
VERTEX
  8
0
  10
104.00558
  20
27.408839
  30
0.0
  0
VERTEX
  8
0
  10
104.506048
  20
27.467968
  30
0.0
  0
VERTEX
  8
0
  10
105.006405
  20
27.527947
  30
0.0
  0
VERTEX
  8
0
  10
105.506635
  20
27.588891
  30
0.0
  0
VERTEX
  8
0
  10
106.006718
  20
27.650917
  30
0.0
  0
VERTEX
  8
0
  10
106.506638
  20
27.714142
  30
0.0
  0
VERTEX
  8
0
  10
107.006376
  20
27.77868
  30
0.0
  0
VERTEX
  8
0
  10
107.505915
  20
27.844648
  30
0.0
  0
VERTEX
  8
0
  10
108.005238
  20
27.912162
  30
0.0
  0
VERTEX
  8
0
  10
108.504325
  20
27.981338
  30
0.0
  0
VERTEX
  8
0
  10
109.00316
  20
28.052293
  30
0.0
  0
VERTEX
  8
0
  10
109.501724
  20
28.125141
  30
0.0
  0
VERTEX
  8
0
  10
110.0
  20
28.2
  30
0.0
  0
VERTEX
  8
0
  10
110.502143
  20
28.277206
  30
0.0
  0
VERTEX
  8
0
  10
111.004094
  20
28.355764
  30
0.0
  0
VERTEX
  8
0
  10
111.505846
  20
28.435675
  30
0.0
  0
VERTEX
  8
0
  10
112.007394
  20
28.516935
  30
0.0
  0
VERTEX
  8
0
  10
112.508732
  20
28.599546
  30
0.0
  0
VERTEX
  8
0
  10
113.009856
  20
28.683505
  30
0.0
  0
VERTEX
  8
0
  10
113.510759
  20
28.768812
  30
0.0
  0
VERTEX
  8
0
  10
114.011437
  20
28.855465
  30
0.0
  0
VERTEX
  8
0
  10
114.511884
  20
28.943465
  30
0.0
  0
VERTEX
  8
0
  10
115.012094
  20
29.032809
  30
0.0
  0
VERTEX
  8
0
  10
115.512063
  20
29.123497
  30
0.0
  0
VERTEX
  8
0
  10
116.011784
  20
29.215528
  30
0.0
  0
VERTEX
  8
0
  10
116.511253
  20
29.308901
  30
0.0
  0
VERTEX
  8
0
  10
117.010463
  20
29.403614
  30
0.0
  0
VERTEX
  8
0
  10
117.50941
  20
29.499668
  30
0.0
  0
VERTEX
  8
0
  10
118.008087
  20
29.59706
  30
0.0
  0
VERTEX
  8
0
  10
118.506491
  20
29.695791
  30
0.0
  0
VERTEX
  8
0
  10
119.004614
  20
29.795858
  30
0.0
  0
VERTEX
  8
0
  10
119.502452
  20
29.897262
  30
0.0
  0
VERTEX
  8
0
  10
120.0
  20
30.0
  30
0.0
  0
SEQEND
  0
ENDBLK
  0
BLOCK
  8
0
  70
65
  2
*C13
  10
0.0
  20
0.0
  30
0.0
  3
*C
  0
POLYLINE
  8
0
  6
CONTINUOUS
  62
7
  66
1
  70
128
  0
VERTEX
  8
0
  10
111.244176
  20
28.394
  30
0.0
  0
VERTEX
  8
0
  10
111.260859
  20
28.031586
  30
0.0
  0
VERTEX
  8
0
  10
111.279423
  20
27.669219
  30
0.0
  0
VERTEX
  8
0
  10
111.299865
  20
27.306915
  30
0.0
  0
VERTEX
  8
0
  10
111.322186
  20
26.944688
  30
0.0
  0
VERTEX
  8
0
  10
111.346383
  20
26.582551
  30
0.0
  0
VERTEX
  8
0
  10
111.372455
  20
26.220521
  30
0.0
  0
VERTEX
  8
0
  10
111.400401
  20
25.858611
  30
0.0
  0
VERTEX
  8
0
  10
111.430219
  20
25.496836
  30
0.0
  0
VERTEX
  8
0
  10
111.461908
  20
25.13521
  30
0.0
  0
VERTEX
  8
0
  10
111.495466
  20
24.773747
  30
0.0
  0
VERTEX
  8
0
  10
111.530893
  20
24.412463
  30
0.0
  0
VERTEX
  8
0
  10
111.568187
  20
24.051372
  30
0.0
  0
VERTEX
  8
0
  10
111.607345
  20
23.690489
  30
0.0
  0
VERTEX
  8
0
  10
111.648368
  20
23.329827
  30
0.0
  0
VERTEX
  8
0
  10
111.691253
  20
22.969401
  30
0.0
  0
VERTEX
  8
0
  10
111.736
  20
22.609226
  30
0.0
  0
VERTEX
  8
0
  10
111.782606
  20
22.249317
  30
0.0
  0
VERTEX
  8
0
  10
111.831071
  20
21.889687
  30
0.0
  0
VERTEX
  8
0
  10
111.881393
  20
21.530352
  30
0.0
  0
VERTEX
  8
0
  10
111.93357
  20
21.171326
  30
0.0
  0
VERTEX
  8
0
  10
111.980957
  20
20.856137
  30
0.0
  0
VERTEX
  8
0
  10
112.029859
  20
20.541086
  30
0.0
  0
VERTEX
  8
0
  10
112.080334
  20
20.226208
  30
0.0
  0
VERTEX
  8
0
  10
112.13244
  20
19.911536
  30
0.0
  0
VERTEX
  8
0
  10
112.186238
  20
19.597105
  30
0.0
  0
VERTEX
  8
0
  10
112.241786
  20
19.282946
  30
0.0
  0
VERTEX
  8
0
  10
112.299142
  20
18.969095
  30
0.0
  0
VERTEX
  8
0
  10
112.358367
  20
18.655584
  30
0.0
  0
VERTEX
  8
0
  10
112.419519
  20
18.342447
  30
0.0
  0
VERTEX
  8
0
  10
112.482656
  20
18.029718
  30
0.0
  0
VERTEX
  8
0
  10
112.547838
  20
17.717431
  30
0.0
  0
VERTEX
  8
0
  10
112.615125
  20
17.405619
  30
0.0
  0
VERTEX
  8
0
  10
112.684574
  20
17.094315
  30
0.0
  0
VERTEX
  8
0
  10
112.756245
  20
16.783554
  30
0.0
  0
VERTEX
  8
0
  10
112.830197
  20
16.473368
  30
0.0
  0
VERTEX
  8
0
  10
112.906489
  20
16.163792
  30
0.0
  0
VERTEX
  8
0
  10
112.985179
  20
15.854859
  30
0.0
  0
VERTEX
  8
0
  10
113.066327
  20
15.546603
  30
0.0
  0
VERTEX
  8
0
  10
113.149992
  20
15.239057
  30
0.0
  0
VERTEX
  8
0
  10
113.236233
  20
14.932255
  30
0.0
  0
VERTEX
  8
0
  10
113.329031
  20
14.613691
  30
0.0
  0
VERTEX
  8
0
  10
113.424988
  20
14.296097
  30
0.0
  0
VERTEX
  8
0
  10
113.523935
  20
13.979427
  30
0.0
  0
VERTEX
  8
0
  10
113.625702
  20
13.663636
  30
0.0
  0
VERTEX
  8
0
  10
113.730118
  20
13.348678
  30
0.0
  0
VERTEX
  8
0
  10
113.837015
  20
13.034507
  30
0.0
  0
VERTEX
  8
0
  10
113.946221
  20
12.721078
  30
0.0
  0
VERTEX
  8
0
  10
114.057566
  20
12.408344
  30
0.0
  0
VERTEX
  8
0
  10
114.170882
  20
12.096261
  30
0.0
  0
VERTEX
  8
0
  10
114.285998
  20
11.784782
  30
0.0
  0
VERTEX
  8
0
  10
114.402743
  20
11.473862
  30
0.0
  0
VERTEX
  8
0
  10
114.520948
  20
11.163455
  30
0.0
  0
VERTEX
  8
0
  10
114.640444
  20
10.853516
  30
0.0
  0
VERTEX
  8
0
  10
114.761059
  20
10.543998
  30
0.0
  0
VERTEX
  8
0
  10
114.882624
  20
10.234856
  30
0.0
  0
VERTEX
  8
0
  10
115.00497
  20
9.926044
  30
0.0
  0
VERTEX
  8
0
  10
115.127925
  20
9.617516
  30
0.0
  0
VERTEX
  8
0
  10
115.251321
  20
9.309228
  30
0.0
  0
VERTEX
  8
0
  10
115.374987
  20
9.001132
  30
0.0
  0
VERTEX
  8
0
  10
115.498753
  20
8.693184
  30
0.0
  0
VERTEX
  8
0
  10
115.517195
  20
8.64762
  30
0.0
  0
VERTEX
  8
0
  10
115.537681
  20
8.597851
  30
0.0
  0
VERTEX
  8
0
  10
115.560125
  20
8.544479
  30
0.0
  0
VERTEX
  8
0
  10
115.584437
  20
8.488102
  30
0.0
  0
VERTEX
  8
0
  10
115.610529
  20
8.429322
  30
0.0
  0
VERTEX
  8
0
  10
115.638314
  20
8.368737
  30
0.0
  0
VERTEX
  8
0
  10
115.667703
  20
8.306947
  30
0.0
  0
VERTEX
  8
0
  10
115.698608
  20
8.244554
  30
0.0
  0
VERTEX
  8
0
  10
115.73094
  20
8.182155
  30
0.0
  0
VERTEX
  8
0
  10
115.764613
  20
8.120352
  30
0.0
  0
VERTEX
  8
0
  10
115.799536
  20
8.059745
  30
0.0
  0
VERTEX
  8
0
  10
115.835623
  20
8.000932
  30
0.0
  0
VERTEX
  8
0
  10
115.872785
  20
7.944515
  30
0.0
  0
VERTEX
  8
0
  10
115.910934
  20
7.891092
  30
0.0
  0
VERTEX
  8
0
  10
115.949982
  20
7.841265
  30
0.0
  0
VERTEX
  8
0
  10
115.989841
  20
7.795632
  30
0.0
  0
VERTEX
  8
0
  10
116.030421
  20
7.754794
  30
0.0
  0
VERTEX
  8
0
  10
116.071637
  20
7.719351
  30
0.0
  0
VERTEX
  8
0
  10
116.113398
  20
7.689902
  30
0.0
  0
VERTEX
  8
0
  10
116.155617
  20
7.667048
  30
0.0
  0
VERTEX
  8
0
  10
116.292701
  20
7.606393
  30
0.0
  0
VERTEX
  8
0
  10
116.425402
  20
7.551479
  30
0.0
  0
VERTEX
  8
0
  10
116.554272
  20
7.501968
  30
0.0
  0
VERTEX
  8
0
  10
116.679862
  20
7.457517
  30
0.0
  0
VERTEX
  8
0
  10
116.802724
  20
7.417787
  30
0.0
  0
VERTEX
  8
0
  10
116.923408
  20
7.382437
  30
0.0
  0
VERTEX
  8
0
  10
117.042466
  20
7.351127
  30
0.0
  0
VERTEX
  8
0
  10
117.160449
  20
7.323517
  30
0.0
  0
VERTEX
  8
0
  10
117.277909
  20
7.299266
  30
0.0
  0
VERTEX
  8
0
  10
117.395396
  20
7.278034
  30
0.0
  0
VERTEX
  8
0
  10
117.513463
  20
7.25948
  30
0.0
  0
VERTEX
  8
0
  10
117.632659
  20
7.243265
  30
0.0
  0
VERTEX
  8
0
  10
117.753538
  20
7.229047
  30
0.0
  0
VERTEX
  8
0
  10
117.876649
  20
7.216487
  30
0.0
  0
VERTEX
  8
0
  10
118.002544
  20
7.205244
  30
0.0
  0
VERTEX
  8
0
  10
118.131775
  20
7.194977
  30
0.0
  0
VERTEX
  8
0
  10
118.264892
  20
7.185347
  30
0.0
  0
VERTEX
  8
0
  10
118.402448
  20
7.176013
  30
0.0
  0
VERTEX
  8
0
  10
118.544993
  20
7.166634
  30
0.0
  0
VERTEX
  8
0
  10
118.693078
  20
7.156871
  30
0.0
  0
SEQEND
  0
ENDBLK
  0
BLOCK
  8
0
  70
65
  2
*C14
  10
0.0
  20
0.0
  30
0.0
  3
*C
  0
POLYLINE
  8
0
  6
CONTINUOUS
  62
7
  66
1
  70
128
  0
VERTEX
  8
0
  10
115.273561
  20
29.080236
  30
0.0
  0
VERTEX
  8
0
  10
115.432713
  20
28.686985
  30
0.0
  0
VERTEX
  8
0
  10
115.588222
  20
28.292102
  30
0.0
  0
VERTEX
  8
0
  10
115.740074
  20
27.895639
  30
0.0
  0
VERTEX
  8
0
  10
115.888252
  20
27.497651
  30
0.0
  0
VERTEX
  8
0
  10
116.032739
  20
27.098189
  30
0.0
  0
VERTEX
  8
0
  10
116.173519
  20
26.697307
  30
0.0
  0
VERTEX
  8
0
  10
116.310577
  20
26.295059
  30
0.0
  0
VERTEX
  8
0
  10
116.443896
  20
25.891497
  30
0.0
  0
VERTEX
  8
0
  10
116.57346
  20
25.486674
  30
0.0
  0
VERTEX
  8
0
  10
116.699252
  20
25.080645
  30
0.0
  0
VERTEX
  8
0
  10
116.821257
  20
24.673461
  30
0.0
  0
VERTEX
  8
0
  10
116.939457
  20
24.265176
  30
0.0
  0
VERTEX
  8
0
  10
117.053838
  20
23.855844
  30
0.0
  0
VERTEX
  8
0
  10
117.164383
  20
23.445516
  30
0.0
  0
VERTEX
  8
0
  10
117.271076
  20
23.034248
  30
0.0
  0
VERTEX
  8
0
  10
117.3739
  20
22.622091
  30
0.0
  0
VERTEX
  8
0
  10
117.472839
  20
22.209098
  30
0.0
  0
VERTEX
  8
0
  10
117.567877
  20
21.795324
  30
0.0
  0
VERTEX
  8
0
  10
117.658998
  20
21.380821
  30
0.0
  0
VERTEX
  8
0
  10
117.746186
  20
20.965642
  30
0.0
  0
VERTEX
  8
0
  10
117.823349
  20
20.573486
  30
0.0
  0
VERTEX
  8
0
  10
117.894452
  20
20.180315
  30
0.0
  0
VERTEX
  8
0
  10
117.959872
  20
19.786204
  30
0.0
  0
VERTEX
  8
0
  10
118.019988
  20
19.391224
  30
0.0
  0
VERTEX
  8
0
  10
118.075177
  20
18.995448
  30
0.0
  0
VERTEX
  8
0
  10
118.125818
  20
18.598949
  30
0.0
  0
VERTEX
  8
0
  10
118.172289
  20
18.201798
  30
0.0
  0
VERTEX
  8
0
  10
118.214967
  20
17.804068
  30
0.0
  0
VERTEX
  8
0
  10
118.254231
  20
17.405832
  30
0.0
  0
VERTEX
  8
0
  10
118.290459
  20
17.007162
  30
0.0
  0
VERTEX
  8
0
  10
118.324029
  20
16.60813
  30
0.0
  0
VERTEX
  8
0
  10
118.355319
  20
16.20881
  30
0.0
  0
VERTEX
  8
0
  10
118.384706
  20
15.809273
  30
0.0
  0
VERTEX
  8
0
  10
118.41257
  20
15.409592
  30
0.0
  0
VERTEX
  8
0
  10
118.439288
  20
15.00984
  30
0.0
  0
VERTEX
  8
0
  10
118.465238
  20
14.610088
  30
0.0
  0
VERTEX
  8
0
  10
118.490798
  20
14.21041
  30
0.0
  0
VERTEX
  8
0
  10
118.516347
  20
13.810878
  30
0.0
  0
VERTEX
  8
0
  10
118.542261
  20
13.411564
  30
0.0
  0
VERTEX
  8
0
  10
118.56892
  20
13.012541
  30
0.0
  0
VERTEX
  8
0
  10
118.588163
  20
12.719573
  30
0.0
  0
VERTEX
  8
0
  10
118.606005
  20
12.426487
  30
0.0
  0
VERTEX
  8
0
  10
118.622446
  20
12.133291
  30
0.0
  0
VERTEX
  8
0
  10
118.637486
  20
11.839997
  30
0.0
  0
VERTEX
  8
0
  10
118.651125
  20
11.546614
  30
0.0
  0
VERTEX
  8
0
  10
118.663362
  20
11.253153
  30
0.0
  0
VERTEX
  8
0
  10
118.674197
  20
10.959623
  30
0.0
  0
VERTEX
  8
0
  10
118.683631
  20
10.666035
  30
0.0
  0
VERTEX
  8
0
  10
118.691662
  20
10.372398
  30
0.0
  0
VERTEX
  8
0
  10
118.69829
  20
10.078723
  30
0.0
  0
VERTEX
  8
0
  10
118.703516
  20
9.785019
  30
0.0
  0
VERTEX
  8
0
  10
118.70734
  20
9.491298
  30
0.0
  0
VERTEX
  8
0
  10
118.70976
  20
9.197568
  30
0.0
  0
VERTEX
  8
0
  10
118.710777
  20
8.90384
  30
0.0
  0
VERTEX
  8
0
  10
118.710391
  20
8.610123
  30
0.0
  0
VERTEX
  8
0
  10
118.708601
  20
8.316429
  30
0.0
  0
VERTEX
  8
0
  10
118.705407
  20
8.022767
  30
0.0
  0
VERTEX
  8
0
  10
118.700809
  20
7.729147
  30
0.0
  0
VERTEX
  8
0
  10
118.694807
  20
7.43558
  30
0.0
  0
VERTEX
  8
0
  10
118.687401
  20
7.142074
  30
0.0
  0
SEQEND
  0
ENDBLK
  0
BLOCK
  8
0
  70
65
  2
*C15
  10
0.0
  20
0.0
  30
0.0
  3
*C
  0
POLYLINE
  8
0
  6
CONTINUOUS
  62
7
  66
1
  70
128
  0
VERTEX
  8
0
  10
21.010964
  20
0.823538
  30
0.0
  0
VERTEX
  8
0
  10
20.994516
  20
0.816957
  30
0.0
  0
VERTEX
  8
0
  10
20.97809
  20
0.810316
  30
0.0
  0
VERTEX
  8
0
  10
20.961688
  20
0.803616
  30
0.0
  0
VERTEX
  8
0
  10
20.945309
  20
0.796856
  30
0.0
  0
VERTEX
  8
0
  10
20.928954
  20
0.790038
  30
0.0
  0
VERTEX
  8
0
  10
20.912623
  20
0.783161
  30
0.0
  0
VERTEX
  8
0
  10
20.896316
  20
0.776225
  30
0.0
  0
VERTEX
  8
0
  10
20.880034
  20
0.769231
  30
0.0
  0
VERTEX
  8
0
  10
20.863777
  20
0.762178
  30
0.0
  0
VERTEX
  8
0
  10
20.847545
  20
0.755066
  30
0.0
  0
VERTEX
  8
0
  10
20.831339
  20
0.747897
  30
0.0
  0
VERTEX
  8
0
  10
20.815159
  20
0.74067
  30
0.0
  0
VERTEX
  8
0
  10
20.799005
  20
0.733384
  30
0.0
  0
VERTEX
  8
0
  10
20.782878
  20
0.726041
  30
0.0
  0
VERTEX
  8
0
  10
20.766777
  20
0.71864
  30
0.0
  0
VERTEX
  8
0
  10
20.750704
  20
0.711182
  30
0.0
  0
VERTEX
  8
0
  10
20.734658
  20
0.703667
  30
0.0
  0
VERTEX
  8
0
  10
20.71864
  20
0.696094
  30
0.0
  0
VERTEX
  8
0
  10
20.70265
  20
0.688464
  30
0.0
  0
VERTEX
  8
0
  10
20.686688
  20
0.680777
  30
0.0
  0
VERTEX
  8
0
  10
20.669259
  20
0.67235
  30
0.0
  0
VERTEX
  8
0
  10
20.651825
  20
0.66392
  30
0.0
  0
VERTEX
  8
0
  10
20.63439
  20
0.655479
  30
0.0
  0
VERTEX
  8
0
  10
20.616962
  20
0.647016
  30
0.0
  0
VERTEX
  8
0
  10
20.599546
  20
0.638522
  30
0.0
  0
VERTEX
  8
0
  10
20.582149
  20
0.629987
  30
0.0
  0
VERTEX
  8
0
  10
20.564776
  20
0.621403
  30
0.0
  0
VERTEX
  8
0
  10
20.547434
  20
0.612758
  30
0.0
  0
VERTEX
  8
0
  10
20.530128
  20
0.604043
  30
0.0
  0
VERTEX
  8
0
  10
20.512866
  20
0.59525
  30
0.0
  0
VERTEX
  8
0
  10
20.495652
  20
0.586367
  30
0.0
  0
VERTEX
  8
0
  10
20.478494
  20
0.577386
  30
0.0
  0
VERTEX
  8
0
  10
20.461396
  20
0.568296
  30
0.0
  0
VERTEX
  8
0
  10
20.444366
  20
0.559089
  30
0.0
  0
VERTEX
  8
0
  10
20.427408
  20
0.549755
  30
0.0
  0
VERTEX
  8
0
  10
20.410531
  20
0.540283
  30
0.0
  0
VERTEX
  8
0
  10
20.393738
  20
0.530664
  30
0.0
  0
VERTEX
  8
0
  10
20.377038
  20
0.52089
  30
0.0
  0
VERTEX
  8
0
  10
20.360434
  20
0.510949
  30
0.0
  0
VERTEX
  8
0
  10
20.343935
  20
0.500832
  30
0.0
  0
VERTEX
  8
0
  10
20.335456
  20
0.495459
  30
0.0
  0
VERTEX
  8
0
  10
20.327077
  20
0.489934
  30
0.0
  0
VERTEX
  8
0
  10
20.318793
  20
0.484264
  30
0.0
  0
VERTEX
  8
0
  10
20.310602
  20
0.478455
  30
0.0
  0
VERTEX
  8
0
  10
20.302501
  20
0.472514
  30
0.0
  0
VERTEX
  8
0
  10
20.294487
  20
0.466449
  30
0.0
  0
VERTEX
  8
0
  10
20.286557
  20
0.460265
  30
0.0
  0
VERTEX
  8
0
  10
20.278707
  20
0.453971
  30
0.0
  0
VERTEX
  8
0
  10
20.270936
  20
0.447572
  30
0.0
  0
VERTEX
  8
0
  10
20.263238
  20
0.441077
  30
0.0
  0
VERTEX
  8
0
  10
20.255613
  20
0.434491
  30
0.0
  0
VERTEX
  8
0
  10
20.248055
  20
0.427822
  30
0.0
  0
VERTEX
  8
0
  10
20.240564
  20
0.421077
  30
0.0
  0
VERTEX
  8
0
  10
20.233134
  20
0.414262
  30
0.0
  0
VERTEX
  8
0
  10
20.225764
  20
0.407384
  30
0.0
  0
VERTEX
  8
0
  10
20.21845
  20
0.400451
  30
0.0
  0
VERTEX
  8
0
  10
20.211189
  20
0.393469
  30
0.0
  0
VERTEX
  8
0
  10
20.203979
  20
0.386445
  30
0.0
  0
VERTEX
  8
0
  10
20.196815
  20
0.379387
  30
0.0
  0
VERTEX
  8
0
  10
20.189696
  20
0.3723
  30
0.0
  0
VERTEX
  8
0
  10
20.183488
  20
0.366016
  30
0.0
  0
VERTEX
  8
0
  10
20.177353
  20
0.359658
  30
0.0
  0
VERTEX
  8
0
  10
20.171291
  20
0.353228
  30
0.0
  0
VERTEX
  8
0
  10
20.165301
  20
0.346727
  30
0.0
  0
VERTEX
  8
0
  10
20.159381
  20
0.34016
  30
0.0
  0
VERTEX
  8
0
  10
20.153531
  20
0.333527
  30
0.0
  0
VERTEX
  8
0
  10
20.147749
  20
0.326832
  30
0.0
  0
VERTEX
  8
0
  10
20.142034
  20
0.320077
  30
0.0
  0
VERTEX
  8
0
  10
20.136385
  20
0.313264
  30
0.0
  0
VERTEX
  8
0
  10
20.130802
  20
0.306395
  30
0.0
  0
VERTEX
  8
0
  10
20.125282
  20
0.299474
  30
0.0
  0
VERTEX
  8
0
  10
20.119825
  20
0.292502
  30
0.0
  0
VERTEX
  8
0
  10
20.11443
  20
0.285482
  30
0.0
  0
VERTEX
  8
0
  10
20.109096
  20
0.278417
  30
0.0
  0
VERTEX
  8
0
  10
20.103821
  20
0.271308
  30
0.0
  0
VERTEX
  8
0
  10
20.098604
  20
0.264158
  30
0.0
  0
VERTEX
  8
0
  10
20.093445
  20
0.25697
  30
0.0
  0
VERTEX
  8
0
  10
20.088343
  20
0.249746
  30
0.0
  0
VERTEX
  8
0
  10
20.083295
  20
0.242488
  30
0.0
  0
VERTEX
  8
0
  10
20.078302
  20
0.235199
  30
0.0
  0
VERTEX
  8
0
  10
20.075975
  20
0.231681
  30
0.0
  0
VERTEX
  8
0
  10
20.073738
  20
0.228108
  30
0.0
  0
VERTEX
  8
0
  10
20.071587
  20
0.224482
  30
0.0
  0
VERTEX
  8
0
  10
20.069516
  20
0.220808
  30
0.0
  0
VERTEX
  8
0
  10
20.067523
  20
0.217089
  30
0.0
  0
VERTEX
  8
0
  10
20.065602
  20
0.213327
  30
0.0
  0
VERTEX
  8
0
  10
20.06375
  20
0.209527
  30
0.0
  0
VERTEX
  8
0
  10
20.061962
  20
0.20569
  30
0.0
  0
VERTEX
  8
0
  10
20.060235
  20
0.201822
  30
0.0
  0
VERTEX
  8
0
  10
20.058564
  20
0.197925
  30
0.0
  0
VERTEX
  8
0
  10
20.056945
  20
0.194002
  30
0.0
  0
VERTEX
  8
0
  10
20.055374
  20
0.190056
  30
0.0
  0
VERTEX
  8
0
  10
20.053847
  20
0.186092
  30
0.0
  0
VERTEX
  8
0
  10
20.052359
  20
0.182111
  30
0.0
  0
VERTEX
  8
0
  10
20.050906
  20
0.178118
  30
0.0
  0
VERTEX
  8
0
  10
20.049485
  20
0.174116
  30
0.0
  0
VERTEX
  8
0
  10
20.04809
  20
0.170107
  30
0.0
  0
VERTEX
  8
0
  10
20.046719
  20
0.166096
  30
0.0
  0
VERTEX
  8
0
  10
20.045366
  20
0.162086
  30
0.0
  0
VERTEX
  8
0
  10
20.044027
  20
0.158079
  30
0.0
  0
VERTEX
  8
0
  10
20.041455
  20
0.150287
  30
0.0
  0
VERTEX
  8
0
  10
20.038921
  20
0.142482
  30
0.0
  0
VERTEX
  8
0
  10
20.036426
  20
0.134663
  30
0.0
  0
VERTEX
  8
0
  10
20.03397
  20
0.126832
  30
0.0
  0
VERTEX
  8
0
  10
20.031552
  20
0.118988
  30
0.0
  0
VERTEX
  8
0
  10
20.029173
  20
0.111131
  30
0.0
  0
VERTEX
  8
0
  10
20.026834
  20
0.103262
  30
0.0
  0
VERTEX
  8
0
  10
20.024533
  20
0.095382
  30
0.0
  0
VERTEX
  8
0
  10
20.022271
  20
0.08749
  30
0.0
  0
VERTEX
  8
0
  10
20.020049
  20
0.079587
  30
0.0
  0
VERTEX
  8
0
  10
20.017866
  20
0.071672
  30
0.0
  0
VERTEX
  8
0
  10
20.015722
  20
0.063748
  30
0.0
  0
VERTEX
  8
0
  10
20.013618
  20
0.055812
  30
0.0
  0
VERTEX
  8
0
  10
20.011553
  20
0.047867
  30
0.0
  0
VERTEX
  8
0
  10
20.009528
  20
0.039912
  30
0.0
  0
VERTEX
  8
0
  10
20.007542
  20
0.031947
  30
0.0
  0
VERTEX
  8
0
  10
20.005597
  20
0.023974
  30
0.0
  0
VERTEX
  8
0
  10
20.003691
  20
0.015991
  30
0.0
  0
VERTEX
  8
0
  10
20.001826
  20
0.008
  30
0.0
  0
VERTEX
  8
0
  10
20.0
  20
0.0
  30
0.0
  0
SEQEND
  0
ENDBLK
  0
BLOCK
  8
0
  70
65
  2
*C16
  10
0.0
  20
0.0
  30
0.0
  3
*C
  0
POLYLINE
  8
0
  6
CONTINUOUS
  62
7
  66
1
  70
128
  0
VERTEX
  8
0
  10
0.571591
  20
7.992423
  30
0.0
  0
VERTEX
  8
0
  10
0.571163
  20
7.844872
  30
0.0
  0
VERTEX
  8
0
  10
0.570619
  20
7.697321
  30
0.0
  0
VERTEX
  8
0
  10
0.569958
  20
7.54977
  30
0.0
  0
VERTEX
  8
0
  10
0.569181
  20
7.402219
  30
0.0
  0
VERTEX
  8
0
  10
0.568287
  20
7.254669
  30
0.0
  0
VERTEX
  8
0
  10
0.567277
  20
7.10712
  30
0.0
  0
VERTEX
  8
0
  10
0.56615
  20
6.95957
  30
0.0
  0
VERTEX
  8
0
  10
0.564907
  20
6.812022
  30
0.0
  0
VERTEX
  8
0
  10
0.563547
  20
6.664475
  30
0.0
  0
VERTEX
  8
0
  10
0.562071
  20
6.516929
  30
0.0
  0
VERTEX
  8
0
  10
0.560478
  20
6.369384
  30
0.0
  0
VERTEX
  8
0
  10
0.558769
  20
6.22184
  30
0.0
  0
VERTEX
  8
0
  10
0.556943
  20
6.074298
  30
0.0
  0
VERTEX
  8
0
  10
0.555
  20
5.926757
  30
0.0
  0
VERTEX
  8
0
  10
0.552942
  20
5.779219
  30
0.0
  0
VERTEX
  8
0
  10
0.550766
  20
5.631682
  30
0.0
  0
VERTEX
  8
0
  10
0.548474
  20
5.484147
  30
0.0
  0
VERTEX
  8
0
  10
0.546066
  20
5.336614
  30
0.0
  0
VERTEX
  8
0
  10
0.543541
  20
5.189084
  30
0.0
  0
VERTEX
  8
0
  10
0.5409
  20
5.041556
  30
0.0
  0
VERTEX
  8
0
  10
0.537518
  20
4.850243
  30
0.0
  0
VERTEX
  8
0
  10
0.534336
  20
4.65892
  30
0.0
  0
VERTEX
  8
0
  10
0.531299
  20
4.467588
  30
0.0
  0
VERTEX
  8
0
  10
0.528349
  20
4.27625
  30
0.0
  0
VERTEX
  8
0
  10
0.525433
  20
4.084908
  30
0.0
  0
VERTEX
  8
0
  10
0.522493
  20
3.893565
  30
0.0
  0
VERTEX
  8
0
  10
0.519474
  20
3.702222
  30
0.0
  0
VERTEX
  8
0
  10
0.516319
  20
3.510883
  30
0.0
  0
VERTEX
  8
0
  10
0.512974
  20
3.31955
  30
0.0
  0
VERTEX
  8
0
  10
0.509382
  20
3.128224
  30
0.0
  0
VERTEX
  8
0
  10
0.505487
  20
2.936909
  30
0.0
  0
VERTEX
  8
0
  10
0.501234
  20
2.745607
  30
0.0
  0
VERTEX
  8
0
  10
0.496566
  20
2.554319
  30
0.0
  0
VERTEX
  8
0
  10
0.491427
  20
2.363049
  30
0.0
  0
VERTEX
  8
0
  10
0.485763
  20
2.171799
  30
0.0
  0
VERTEX
  8
0
  10
0.479516
  20
1.980571
  30
0.0
  0
VERTEX
  8
0
  10
0.472632
  20
1.789368
  30
0.0
  0
VERTEX
  8
0
  10
0.465054
  20
1.598191
  30
0.0
  0
VERTEX
  8
0
  10
0.456726
  20
1.407043
  30
0.0
  0
VERTEX
  8
0
  10
0.447592
  20
1.215927
  30
0.0
  0
VERTEX
  8
0
  10
0.444351
  20
1.157959
  30
0.0
  0
VERTEX
  8
0
  10
0.440447
  20
1.100036
  30
0.0
  0
VERTEX
  8
0
  10
0.435911
  20
1.042158
  30
0.0
  0
VERTEX
  8
0
  10
0.430774
  20
0.984325
  30
0.0
  0
VERTEX
  8
0
  10
0.425067
  20
0.926537
  30
0.0
  0
VERTEX
  8
0
  10
0.41882
  20
0.868794
  30
0.0
  0
VERTEX
  8
0
  10
0.412066
  20
0.811096
  30
0.0
  0
VERTEX
  8
0
  10
0.404834
  20
0.753444
  30
0.0
  0
VERTEX
  8
0
  10
0.397156
  20
0.695836
  30
0.0
  0
VERTEX
  8
0
  10
0.389062
  20
0.638273
  30
0.0
  0
VERTEX
  8
0
  10
0.380584
  20
0.580756
  30
0.0
  0
VERTEX
  8
0
  10
0.371752
  20
0.523283
  30
0.0
  0
VERTEX
  8
0
  10
0.362598
  20
0.465856
  30
0.0
  0
VERTEX
  8
0
  10
0.353152
  20
0.408474
  30
0.0
  0
VERTEX
  8
0
  10
0.343444
  20
0.351137
  30
0.0
  0
VERTEX
  8
0
  10
0.333507
  20
0.293845
  30
0.0
  0
VERTEX
  8
0
  10
0.323371
  20
0.236598
  30
0.0
  0
VERTEX
  8
0
  10
0.313067
  20
0.179396
  30
0.0
  0
VERTEX
  8
0
  10
0.302626
  20
0.12224
  30
0.0
  0
VERTEX
  8
0
  10
0.292078
  20
0.065128
  30
0.0
  0
VERTEX
  8
0
  10
0.289975
  20
0.054725
  30
0.0
  0
VERTEX
  8
0
  10
0.287542
  20
0.044376
  30
0.0
  0
VERTEX
  8
0
  10
0.284788
  20
0.034089
  30
0.0
  0
VERTEX
  8
0
  10
0.281725
  20
0.023869
  30
0.0
  0
VERTEX
  8
0
  10
0.278361
  20
0.013722
  30
0.0
  0
VERTEX
  8
0
  10
0.274708
  20
0.003655
  30
0.0
  0
VERTEX
  8
0
  10
0.270775
  20
-0.006326
  30
0.0
  0
VERTEX
  8
0
  10
0.266572
  20
-0.016214
  30
0.0
  0
VERTEX
  8
0
  10
0.26211
  20
-0.026003
  30
0.0
  0
VERTEX
  8
0
  10
0.257398
  20
-0.035688
  30
0.0
  0
VERTEX
  8
0
  10
0.252446
  20
-0.045261
  30
0.0
  0
VERTEX
  8
0
  10
0.247265
  20
-0.054717
  30
0.0
  0
VERTEX
  8
0
  10
0.241865
  20
-0.064049
  30
0.0
  0
VERTEX
  8
0
  10
0.236256
  20
-0.07325
  30
0.0
  0
VERTEX
  8
0
  10
0.230448
  20
-0.082316
  30
0.0
  0
VERTEX
  8
0
  10
0.22445
  20
-0.091238
  30
0.0
  0
VERTEX
  8
0
  10
0.218274
  20
-0.100012
  30
0.0
  0
VERTEX
  8
0
  10
0.211929
  20
-0.10863
  30
0.0
  0
VERTEX
  8
0
  10
0.205425
  20
-0.117087
  30
0.0
  0
VERTEX
  8
0
  10
0.198772
  20
-0.125376
  30
0.0
  0
VERTEX
  8
0
  10
0.195107
  20
-0.129522
  30
0.0
  0
VERTEX
  8
0
  10
0.191183
  20
-0.133362
  30
0.0
  0
VERTEX
  8
0
  10
0.187018
  20
-0.136915
  30
0.0
  0
VERTEX
  8
0
  10
0.182631
  20
-0.140201
  30
0.0
  0
VERTEX
  8
0
  10
0.178041
  20
-0.143239
  30
0.0
  0
VERTEX
  8
0
  10
0.173267
  20
-0.146048
  30
0.0
  0
VERTEX
  8
0
  10
0.168328
  20
-0.148646
  30
0.0
  0
VERTEX
  8
0
  10
0.163243
  20
-0.151054
  30
0.0
  0
VERTEX
  8
0
  10
0.15803
  20
-0.15329
  30
0.0
  0
VERTEX
  8
0
  10
0.152709
  20
-0.155373
  30
0.0
  0
VERTEX
  8
0
  10
0.147299
  20
-0.157323
  30
0.0
  0
VERTEX
  8
0
  10
0.141817
  20
-0.159159
  30
0.0
  0
VERTEX
  8
0
  10
0.136284
  20
-0.160899
  30
0.0
  0
VERTEX
  8
0
  10
0.130718
  20
-0.162564
  30
0.0
  0
VERTEX
  8
0
  10
0.125138
  20
-0.164172
  30
0.0
  0
VERTEX
  8
0
  10
0.119563
  20
-0.165742
  30
0.0
  0
VERTEX
  8
0
  10
0.114011
  20
-0.167294
  30
0.0
  0
VERTEX
  8
0
  10
0.108502
  20
-0.168847
  30
0.0
  0
VERTEX
  8
0
  10
0.103055
  20
-0.170419
  30
0.0
  0
VERTEX
  8
0
  10
0.097688
  20
-0.17203
  30
0.0
  0
VERTEX
  8
0
  10
0.092787
  20
-0.173498
  30
0.0
  0
VERTEX
  8
0
  10
0.08786
  20
-0.174895
  30
0.0
  0
VERTEX
  8
0
  10
0.08291
  20
-0.176221
  30
0.0
  0
VERTEX
  8
0
  10
0.077936
  20
-0.177475
  30
0.0
  0
VERTEX
  8
0
  10
0.072942
  20
-0.178657
  30
0.0
  0
VERTEX
  8
0
  10
0.067928
  20
-0.179767
  30
0.0
  0
VERTEX
  8
0
  10
0.062896
  20
-0.180804
  30
0.0
  0
VERTEX
  8
0
  10
0.057849
  20
-0.181768
  30
0.0
  0
VERTEX
  8
0
  10
0.052787
  20
-0.18266
  30
0.0
  0
VERTEX
  8
0
  10
0.047712
  20
-0.183478
  30
0.0
  0
VERTEX
  8
0
  10
0.042625
  20
-0.184223
  30
0.0
  0
VERTEX
  8
0
  10
0.037529
  20
-0.184894
  30
0.0
  0
VERTEX
  8
0
  10
0.032425
  20
-0.185491
  30
0.0
  0
VERTEX
  8
0
  10
0.027314
  20
-0.186015
  30
0.0
  0
VERTEX
  8
0
  10
0.022199
  20
-0.186463
  30
0.0
  0
VERTEX
  8
0
  10
0.01708
  20
-0.186837
  30
0.0
  0
VERTEX
  8
0
  10
0.01196
  20
-0.187136
  30
0.0
  0
VERTEX
  8
0
  10
0.006839
  20
-0.18736
  30
0.0
  0
VERTEX
  8
0
  10
0.001721
  20
-0.187508
  30
0.0
  0
VERTEX
  8
0
  10
-0.003395
  20
-0.187581
  30
0.0
  0
SEQEND
  0
ENDBLK
  0
BLOCK
  8
0
  70
65
  2
*C17
  10
0.0
  20
0.0
  30
0.0
  3
*C
  0
POLYLINE
  8
0
  6
CONTINUOUS
  62
7
  66
1
  70
128
  0
VERTEX
  8
0
  10
111.579578
  20
30.303127
  30
0.0
  0
VERTEX
  8
0
  10
111.582463
  20
30.274057
  30
0.0
  0
VERTEX
  8
0
  10
111.585196
  20
30.244969
  30
0.0
  0
VERTEX
  8
0
  10
111.587779
  20
30.215864
  30
0.0
  0
VERTEX
  8
0
  10
111.590212
  20
30.186743
  30
0.0
  0
VERTEX
  8
0
  10
111.592493
  20
30.157608
  30
0.0
  0
VERTEX
  8
0
  10
111.594623
  20
30.128459
  30
0.0
  0
VERTEX
  8
0
  10
111.596602
  20
30.099298
  30
0.0
  0
VERTEX
  8
0
  10
111.59843
  20
30.070125
  30
0.0
  0
VERTEX
  8
0
  10
111.600107
  20
30.040943
  30
0.0
  0
VERTEX
  8
0
  10
111.601632
  20
30.011753
  30
0.0
  0
VERTEX
  8
0
  10
111.603007
  20
29.982555
  30
0.0
  0
VERTEX
  8
0
  10
111.60423
  20
29.95335
  30
0.0
  0
VERTEX
  8
0
  10
111.605301
  20
29.92414
  30
0.0
  0
VERTEX
  8
0
  10
111.606221
  20
29.894927
  30
0.0
  0
VERTEX
  8
0
  10
111.60699
  20
29.86571
  30
0.0
  0
VERTEX
  8
0
  10
111.607607
  20
29.836492
  30
0.0
  0
VERTEX
  8
0
  10
111.608072
  20
29.807273
  30
0.0
  0
VERTEX
  8
0
  10
111.608386
  20
29.778056
  30
0.0
  0
VERTEX
  8
0
  10
111.608548
  20
29.74884
  30
0.0
  0
VERTEX
  8
0
  10
111.608558
  20
29.719627
  30
0.0
  0
VERTEX
  8
0
  10
111.608422
  20
29.701676
  30
0.0
  0
VERTEX
  8
0
  10
111.608098
  20
29.683727
  30
0.0
  0
VERTEX
  8
0
  10
111.607594
  20
29.66578
  30
0.0
  0
VERTEX
  8
0
  10
111.606914
  20
29.647836
  30
0.0
  0
VERTEX
  8
0
  10
111.606067
  20
29.629897
  30
0.0
  0
VERTEX
  8
0
  10
111.605057
  20
29.611962
  30
0.0
  0
VERTEX
  8
0
  10
111.603891
  20
29.594034
  30
0.0
  0
VERTEX
  8
0
  10
111.602577
  20
29.576113
  30
0.0
  0
VERTEX
  8
0
  10
111.601119
  20
29.5582
  30
0.0
  0
VERTEX
  8
0
  10
111.599524
  20
29.540296
  30
0.0
  0
VERTEX
  8
0
  10
111.5978
  20
29.522402
  30
0.0
  0
VERTEX
  8
0
  10
111.595951
  20
29.504518
  30
0.0
  0
VERTEX
  8
0
  10
111.593984
  20
29.486646
  30
0.0
  0
VERTEX
  8
0
  10
111.591906
  20
29.468787
  30
0.0
  0
VERTEX
  8
0
  10
111.589723
  20
29.450941
  30
0.0
  0
VERTEX
  8
0
  10
111.587442
  20
29.433109
  30
0.0
  0
VERTEX
  8
0
  10
111.585068
  20
29.415293
  30
0.0
  0
VERTEX
  8
0
  10
111.582608
  20
29.397493
  30
0.0
  0
VERTEX
  8
0
  10
111.580068
  20
29.379711
  30
0.0
  0
VERTEX
  8
0
  10
111.577455
  20
29.361946
  30
0.0
  0
VERTEX
  8
0
  10
111.573516
  20
29.335308
  30
0.0
  0
VERTEX
  8
0
  10
111.569622
  20
29.308644
  30
0.0
  0
VERTEX
  8
0
  10
111.565745
  20
29.28196
  30
0.0
  0
VERTEX
  8
0
  10
111.561858
  20
29.255266
  30
0.0
  0
VERTEX
  8
0
  10
111.557934
  20
29.228568
  30
0.0
  0
VERTEX
  8
0
  10
111.553948
  20
29.201876
  30
0.0
  0
VERTEX
  8
0
  10
111.54987
  20
29.175197
  30
0.0
  0
VERTEX
  8
0
  10
111.545675
  20
29.14854
  30
0.0
  0
VERTEX
  8
0
  10
111.541336
  20
29.121911
  30
0.0
  0
VERTEX
  8
0
  10
111.536826
  20
29.095319
  30
0.0
  0
VERTEX
  8
0
  10
111.532117
  20
29.068772
  30
0.0
  0
VERTEX
  8
0
  10
111.527183
  20
29.042279
  30
0.0
  0
VERTEX
  8
0
  10
111.521997
  20
29.015846
  30
0.0
  0
VERTEX
  8
0
  10
111.516532
  20
28.989483
  30
0.0
  0
VERTEX
  8
0
  10
111.51076
  20
28.963197
  30
0.0
  0
VERTEX
  8
0
  10
111.504656
  20
28.936996
  30
0.0
  0
VERTEX
  8
0
  10
111.498192
  20
28.910887
  30
0.0
  0
VERTEX
  8
0
  10
111.491341
  20
28.88488
  30
0.0
  0
VERTEX
  8
0
  10
111.484076
  20
28.858982
  30
0.0
  0
VERTEX
  8
0
  10
111.476371
  20
28.833201
  30
0.0
  0
VERTEX
  8
0
  10
111.472705
  20
28.821903
  30
0.0
  0
VERTEX
  8
0
  10
111.468712
  20
28.810695
  30
0.0
  0
VERTEX
  8
0
  10
111.464402
  20
28.799583
  30
0.0
  0
VERTEX
  8
0
  10
111.459784
  20
28.788574
  30
0.0
  0
VERTEX
  8
0
  10
111.454868
  20
28.777672
  30
0.0
  0
VERTEX
  8
0
  10
111.449664
  20
28.766884
  30
0.0
  0
VERTEX
  8
0
  10
111.444181
  20
28.756215
  30
0.0
  0
VERTEX
  8
0
  10
111.438429
  20
28.745672
  30
0.0
  0
VERTEX
  8
0
  10
111.432418
  20
28.73526
  30
0.0
  0
VERTEX
  8
0
  10
111.426157
  20
28.724985
  30
0.0
  0
VERTEX
  8
0
  10
111.419657
  20
28.714852
  30
0.0
  0
VERTEX
  8
0
  10
111.412927
  20
28.704868
  30
0.0
  0
VERTEX
  8
0
  10
111.405976
  20
28.695038
  30
0.0
  0
VERTEX
  8
0
  10
111.398814
  20
28.685368
  30
0.0
  0
VERTEX
  8
0
  10
111.391451
  20
28.675864
  30
0.0
  0
VERTEX
  8
0
  10
111.383897
  20
28.666531
  30
0.0
  0
VERTEX
  8
0
  10
111.376161
  20
28.657376
  30
0.0
  0
VERTEX
  8
0
  10
111.368254
  20
28.648405
  30
0.0
  0
VERTEX
  8
0
  10
111.360184
  20
28.639622
  30
0.0
  0
VERTEX
  8
0
  10
111.351961
  20
28.631034
  30
0.0
  0
VERTEX
  8
0
  10
111.34301
  20
28.622158
  30
0.0
  0
VERTEX
  8
0
  10
111.333801
  20
28.613567
  30
0.0
  0
VERTEX
  8
0
  10
111.324352
  20
28.605245
  30
0.0
  0
VERTEX
  8
0
  10
111.314678
  20
28.597179
  30
0.0
  0
VERTEX
  8
0
  10
111.304793
  20
28.589354
  30
0.0
  0
VERTEX
  8
0
  10
111.294715
  20
28.581755
  30
0.0
  0
VERTEX
  8
0
  10
111.284458
  20
28.574369
  30
0.0
  0
VERTEX
  8
0
  10
111.274038
  20
28.56718
  30
0.0
  0
VERTEX
  8
0
  10
111.263472
  20
28.560175
  30
0.0
  0
VERTEX
  8
0
  10
111.252774
  20
28.553338
  30
0.0
  0
VERTEX
  8
0
  10
111.24196
  20
28.546655
  30
0.0
  0
VERTEX
  8
0
  10
111.231047
  20
28.540113
  30
0.0
  0
VERTEX
  8
0
  10
111.220049
  20
28.533695
  30
0.0
  0
VERTEX
  8
0
  10
111.208982
  20
28.527389
  30
0.0
  0
VERTEX
  8
0
  10
111.197863
  20
28.521179
  30
0.0
  0
VERTEX
  8
0
  10
111.186706
  20
28.515051
  30
0.0
  0
VERTEX
  8
0
  10
111.175527
  20
28.508991
  30
0.0
  0
VERTEX
  8
0
  10
111.164342
  20
28.502984
  30
0.0
  0
VERTEX
  8
0
  10
111.153168
  20
28.497015
  30
0.0
  0
VERTEX
  8
0
  10
111.142018
  20
28.491071
  30
0.0
  0
VERTEX
  8
0
  10
111.123874
  20
28.481464
  30
0.0
  0
VERTEX
  8
0
  10
111.10567
  20
28.471966
  30
0.0
  0
VERTEX
  8
0
  10
111.087406
  20
28.462576
  30
0.0
  0
VERTEX
  8
0
  10
111.069083
  20
28.453295
  30
0.0
  0
VERTEX
  8
0
  10
111.050703
  20
28.444124
  30
0.0
  0
VERTEX
  8
0
  10
111.032267
  20
28.435062
  30
0.0
  0
VERTEX
  8
0
  10
111.013774
  20
28.426111
  30
0.0
  0
VERTEX
  8
0
  10
110.995228
  20
28.417271
  30
0.0
  0
VERTEX
  8
0
  10
110.976627
  20
28.408542
  30
0.0
  0
VERTEX
  8
0
  10
110.957975
  20
28.399925
  30
0.0
  0
VERTEX
  8
0
  10
110.939271
  20
28.391421
  30
0.0
  0
VERTEX
  8
0
  10
110.920516
  20
28.383029
  30
0.0
  0
VERTEX
  8
0
  10
110.901712
  20
28.37475
  30
0.0
  0
VERTEX
  8
0
  10
110.88286
  20
28.366585
  30
0.0
  0
VERTEX
  8
0
  10
110.86396
  20
28.358534
  30
0.0
  0
VERTEX
  8
0
  10
110.845014
  20
28.350598
  30
0.0
  0
VERTEX
  8
0
  10
110.826022
  20
28.342776
  30
0.0
  0
VERTEX
  8
0
  10
110.806987
  20
28.33507
  30
0.0
  0
VERTEX
  8
0
  10
110.787907
  20
28.32748
  30
0.0
  0
VERTEX
  8
0
  10
110.768786
  20
28.320007
  30
0.0
  0
SEQEND
  0
ENDBLK
  0
BLOCK
  8
0
  70
65
  2
*C18
  10
0.0
  20
0.0
  30
0.0
  3
*C
  0
POLYLINE
  8
0
  6
CONTINUOUS
  62
7
  66
1
  70
128
  0
VERTEX
  8
0
  10
112.285041
  20
30.302802
  30
0.0
  0
VERTEX
  8
0
  10
112.292565
  20
30.271092
  30
0.0
  0
VERTEX
  8
0
  10
112.300325
  20
30.239431
  30
0.0
  0
VERTEX
  8
0
  10
112.30832
  20
30.207822
  30
0.0
  0
VERTEX
  8
0
  10
112.316549
  20
30.176266
  30
0.0
  0
VERTEX
  8
0
  10
112.325012
  20
30.144766
  30
0.0
  0
VERTEX
  8
0
  10
112.333708
  20
30.113325
  30
0.0
  0
VERTEX
  8
0
  10
112.342635
  20
30.081946
  30
0.0
  0
VERTEX
  8
0
  10
112.351794
  20
30.05063
  30
0.0
  0
VERTEX
  8
0
  10
112.361182
  20
30.019381
  30
0.0
  0
VERTEX
  8
0
  10
112.370801
  20
29.988201
  30
0.0
  0
VERTEX
  8
0
  10
112.380648
  20
29.957093
  30
0.0
  0
VERTEX
  8
0
  10
112.390723
  20
29.926058
  30
0.0
  0
VERTEX
  8
0
  10
112.401025
  20
29.8951
  30
0.0
  0
VERTEX
  8
0
  10
112.411553
  20
29.864221
  30
0.0
  0
VERTEX
  8
0
  10
112.422307
  20
29.833424
  30
0.0
  0
VERTEX
  8
0
  10
112.433286
  20
29.80271
  30
0.0
  0
VERTEX
  8
0
  10
112.444489
  20
29.772084
  30
0.0
  0
VERTEX
  8
0
  10
112.455915
  20
29.741546
  30
0.0
  0
VERTEX
  8
0
  10
112.467563
  20
29.711101
  30
0.0
  0
VERTEX
  8
0
  10
112.479433
  20
29.680749
  30
0.0
  0
VERTEX
  8
0
  10
112.487456
  20
29.660718
  30
0.0
  0
VERTEX
  8
0
  10
112.495671
  20
29.640742
  30
0.0
  0
VERTEX
  8
0
  10
112.504083
  20
29.620828
  30
0.0
  0
VERTEX
  8
0
  10
112.512695
  20
29.600985
  30
0.0
  0
VERTEX
  8
0
  10
112.521514
  20
29.581222
  30
0.0
  0
VERTEX
  8
0
  10
112.530542
  20
29.561545
  30
0.0
  0
VERTEX
  8
0
  10
112.539785
  20
29.541963
  30
0.0
  0
VERTEX
  8
0
  10
112.549248
  20
29.522485
  30
0.0
  0
VERTEX
  8
0
  10
112.558935
  20
29.503118
  30
0.0
  0
VERTEX
  8
0
  10
112.56885
  20
29.48387
  30
0.0
  0
VERTEX
  8
0
  10
112.578999
  20
29.46475
  30
0.0
  0
VERTEX
  8
0
  10
112.589386
  20
29.445766
  30
0.0
  0
VERTEX
  8
0
  10
112.600015
  20
29.426925
  30
0.0
  0
VERTEX
  8
0
  10
112.610892
  20
29.408236
  30
0.0
  0
VERTEX
  8
0
  10
112.62202
  20
29.389706
  30
0.0
  0
VERTEX
  8
0
  10
112.633405
  20
29.371345
  30
0.0
  0
VERTEX
  8
0
  10
112.64505
  20
29.35316
  30
0.0
  0
VERTEX
  8
0
  10
112.656962
  20
29.335159
  30
0.0
  0
VERTEX
  8
0
  10
112.669143
  20
29.31735
  30
0.0
  0
VERTEX
  8
0
  10
112.6816
  20
29.299741
  30
0.0
  0
VERTEX
  8
0
  10
112.69231
  20
29.285071
  30
0.0
  0
VERTEX
  8
0
  10
112.703244
  20
29.270524
  30
0.0
  0
VERTEX
  8
0
  10
112.714404
  20
29.256111
  30
0.0
  0
VERTEX
  8
0
  10
112.725788
  20
29.241846
  30
0.0
  0
VERTEX
  8
0
  10
112.737396
  20
29.227739
  30
0.0
  0
VERTEX
  8
0
  10
112.749228
  20
29.213802
  30
0.0
  0
VERTEX
  8
0
  10
112.761284
  20
29.200047
  30
0.0
  0
VERTEX
  8
0
  10
112.773563
  20
29.186486
  30
0.0
  0
VERTEX
  8
0
  10
112.786065
  20
29.173131
  30
0.0
  0
VERTEX
  8
0
  10
112.798789
  20
29.159993
  30
0.0
  0
VERTEX
  8
0
  10
112.811735
  20
29.147083
  30
0.0
  0
VERTEX
  8
0
  10
112.824903
  20
29.134415
  30
0.0
  0
VERTEX
  8
0
  10
112.838293
  20
29.121999
  30
0.0
  0
VERTEX
  8
0
  10
112.851904
  20
29.109847
  30
0.0
  0
VERTEX
  8
0
  10
112.865736
  20
29.097971
  30
0.0
  0
VERTEX
  8
0
  10
112.879788
  20
29.086383
  30
0.0
  0
VERTEX
  8
0
  10
112.894061
  20
29.075095
  30
0.0
  0
VERTEX
  8
0
  10
112.908554
  20
29.064118
  30
0.0
  0
VERTEX
  8
0
  10
112.923266
  20
29.053463
  30
0.0
  0
VERTEX
  8
0
  10
112.938197
  20
29.043144
  30
0.0
  0
VERTEX
  8
0
  10
112.956037
  20
29.031291
  30
0.0
  0
VERTEX
  8
0
  10
112.974079
  20
29.019675
  30
0.0
  0
VERTEX
  8
0
  10
112.992317
  20
29.008308
  30
0.0
  0
VERTEX
  8
0
  10
113.010746
  20
28.997201
  30
0.0
  0
VERTEX
  8
0
  10
113.02936
  20
28.986366
  30
0.0
  0
VERTEX
  8
0
  10
113.048153
  20
28.975814
  30
0.0
  0
VERTEX
  8
0
  10
113.067121
  20
28.965557
  30
0.0
  0
VERTEX
  8
0
  10
113.086256
  20
28.955606
  30
0.0
  0
VERTEX
  8
0
  10
113.105554
  20
28.945974
  30
0.0
  0
VERTEX
  8
0
  10
113.12501
  20
28.936671
  30
0.0
  0
VERTEX
  8
0
  10
113.144617
  20
28.927708
  30
0.0
  0
VERTEX
  8
0
  10
113.16437
  20
28.919099
  30
0.0
  0
VERTEX
  8
0
  10
113.184263
  20
28.910854
  30
0.0
  0
VERTEX
  8
0
  10
113.204292
  20
28.902984
  30
0.0
  0
VERTEX
  8
0
  10
113.224449
  20
28.895502
  30
0.0
  0
VERTEX
  8
0
  10
113.24473
  20
28.888418
  30
0.0
  0
VERTEX
  8
0
  10
113.26513
  20
28.881745
  30
0.0
  0
VERTEX
  8
0
  10
113.285642
  20
28.875494
  30
0.0
  0
VERTEX
  8
0
  10
113.306261
  20
28.869677
  30
0.0
  0
VERTEX
  8
0
  10
113.326981
  20
28.864304
  30
0.0
  0
VERTEX
  8
0
  10
113.350893
  20
28.85859
  30
0.0
  0
VERTEX
  8
0
  10
113.374926
  20
28.853269
  30
0.0
  0
VERTEX
  8
0
  10
113.399069
  20
28.84834
  30
0.0
  0
VERTEX
  8
0
  10
113.423312
  20
28.843806
  30
0.0
  0
VERTEX
  8
0
  10
113.447646
  20
28.839665
  30
0.0
  0
VERTEX
  8
0
  10
113.47206
  20
28.83592
  30
0.0
  0
VERTEX
  8
0
  10
113.496546
  20
28.832571
  30
0.0
  0
VERTEX
  8
0
  10
113.521093
  20
28.829618
  30
0.0
  0
VERTEX
  8
0
  10
113.545691
  20
28.827064
  30
0.0
  0
VERTEX
  8
0
  10
113.570331
  20
28.824907
  30
0.0
  0
VERTEX
  8
0
  10
113.595002
  20
28.82315
  30
0.0
  0
VERTEX
  8
0
  10
113.619695
  20
28.821792
  30
0.0
  0
VERTEX
  8
0
  10
113.6444
  20
28.820836
  30
0.0
  0
VERTEX
  8
0
  10
113.669107
  20
28.820281
  30
0.0
  0
VERTEX
  8
0
  10
113.693807
  20
28.820128
  30
0.0
  0
VERTEX
  8
0
  10
113.71849
  20
28.820378
  30
0.0
  0
VERTEX
  8
0
  10
113.743145
  20
28.821032
  30
0.0
  0
VERTEX
  8
0
  10
113.767763
  20
28.822091
  30
0.0
  0
VERTEX
  8
0
  10
113.792334
  20
28.823555
  30
0.0
  0
VERTEX
  8
0
  10
113.816848
  20
28.825425
  30
0.0
  0
SEQEND
  0
ENDBLK
  0
BLOCK
  8
0
  70
65
  2
*C19
  10
0.0
  20
0.0
  30
0.0
  3
*C
  0
POLYLINE
  8
0
  6
CONTINUOUS
  62
7
  66
1
  70
128
  0
VERTEX
  8
0
  10
92.686901
  20
27.521878
  30
0.0
  0
VERTEX
  8
0
  10
92.690374
  20
27.494614
  30
0.0
  0
VERTEX
  8
0
  10
92.694014
  20
27.467368
  30
0.0
  0
VERTEX
  8
0
  10
92.697819
  20
27.44014
  30
0.0
  0
VERTEX
  8
0
  10
92.70179
  20
27.412932
  30
0.0
  0
VERTEX
  8
0
  10
92.705927
  20
27.385745
  30
0.0
  0
VERTEX
  8
0
  10
92.710229
  20
27.358582
  30
0.0
  0
VERTEX
  8
0
  10
92.714695
  20
27.331444
  30
0.0
  0
VERTEX
  8
0
  10
92.719327
  20
27.304331
  30
0.0
  0
VERTEX
  8
0
  10
92.724122
  20
27.277246
  30
0.0
  0
VERTEX
  8
0
  10
92.729082
  20
27.25019
  30
0.0
  0
VERTEX
  8
0
  10
92.734205
  20
27.223164
  30
0.0
  0
VERTEX
  8
0
  10
92.739492
  20
27.196171
  30
0.0
  0
VERTEX
  8
0
  10
92.744942
  20
27.169211
  30
0.0
  0
VERTEX
  8
0
  10
92.750555
  20
27.142286
  30
0.0
  0
VERTEX
  8
0
  10
92.756331
  20
27.115398
  30
0.0
  0
VERTEX
  8
0
  10
92.762269
  20
27.088547
  30
0.0
  0
VERTEX
  8
0
  10
92.768369
  20
27.061736
  30
0.0
  0
VERTEX
  8
0
  10
92.774631
  20
27.034966
  30
0.0
  0
VERTEX
  8
0
  10
92.781054
  20
27.008239
  30
0.0
  0
VERTEX
  8
0
  10
92.787639
  20
26.981555
  30
0.0
  0
VERTEX
  8
0
  10
92.791604
  20
26.965964
  30
0.0
  0
VERTEX
  8
0
  10
92.795701
  20
26.950392
  30
0.0
  0
VERTEX
  8
0
  10
92.799937
  20
26.934845
  30
0.0
  0
VERTEX
  8
0
  10
92.804314
  20
26.919328
  30
0.0
  0
VERTEX
  8
0
  10
92.808839
  20
26.903845
  30
0.0
  0
VERTEX
  8
0
  10
92.813516
  20
26.888402
  30
0.0
  0
VERTEX
  8
0
  10
92.818349
  20
26.873005
  30
0.0
  0
VERTEX
  8
0
  10
92.823343
  20
26.857658
  30
0.0
  0
VERTEX
  8
0
  10
92.828503
  20
26.842366
  30
0.0
  0
VERTEX
  8
0
  10
92.833833
  20
26.827136
  30
0.0
  0
VERTEX
  8
0
  10
92.839338
  20
26.811972
  30
0.0
  0
VERTEX
  8
0
  10
92.845023
  20
26.79688
  30
0.0
  0
VERTEX
  8
0
  10
92.850893
  20
26.781864
  30
0.0
  0
VERTEX
  8
0
  10
92.856951
  20
26.76693
  30
0.0
  0
VERTEX
  8
0
  10
92.863204
  20
26.752084
  30
0.0
  0
VERTEX
  8
0
  10
92.869654
  20
26.73733
  30
0.0
  0
VERTEX
  8
0
  10
92.876308
  20
26.722673
  30
0.0
  0
VERTEX
  8
0
  10
92.88317
  20
26.708119
  30
0.0
  0
VERTEX
  8
0
  10
92.890244
  20
26.693673
  30
0.0
  0
VERTEX
  8
0
  10
92.897535
  20
26.679341
  30
0.0
  0
VERTEX
  8
0
  10
92.903207
  20
26.668661
  30
0.0
  0
VERTEX
  8
0
  10
92.909091
  20
26.658086
  30
0.0
  0
VERTEX
  8
0
  10
92.91518
  20
26.647617
  30
0.0
  0
VERTEX
  8
0
  10
92.921468
  20
26.637254
  30
0.0
  0
VERTEX
  8
0
  10
92.927948
  20
26.627001
  30
0.0
  0
VERTEX
  8
0
  10
92.934615
  20
26.616857
  30
0.0
  0
VERTEX
  8
0
  10
92.941462
  20
26.606824
  30
0.0
  0
VERTEX
  8
0
  10
92.948484
  20
26.596903
  30
0.0
  0
VERTEX
  8
0
  10
92.955673
  20
26.587095
  30
0.0
  0
VERTEX
  8
0
  10
92.963024
  20
26.577401
  30
0.0
  0
VERTEX
  8
0
  10
92.97053
  20
26.567823
  30
0.0
  0
VERTEX
  8
0
  10
92.978186
  20
26.558362
  30
0.0
  0
VERTEX
  8
0
  10
92.985985
  20
26.549019
  30
0.0
  0
VERTEX
  8
0
  10
92.993921
  20
26.539795
  30
0.0
  0
VERTEX
  8
0
  10
93.001987
  20
26.530692
  30
0.0
  0
VERTEX
  8
0
  10
93.010178
  20
26.52171
  30
0.0
  0
VERTEX
  8
0
  10
93.018487
  20
26.512851
  30
0.0
  0
VERTEX
  8
0
  10
93.026909
  20
26.504116
  30
0.0
  0
VERTEX
  8
0
  10
93.035436
  20
26.495506
  30
0.0
  0
VERTEX
  8
0
  10
93.044063
  20
26.487023
  30
0.0
  0
VERTEX
  8
0
  10
93.051237
  20
26.480176
  30
0.0
  0
VERTEX
  8
0
  10
93.058541
  20
26.473437
  30
0.0
  0
VERTEX
  8
0
  10
93.065971
  20
26.466811
  30
0.0
  0
VERTEX
  8
0
  10
93.073526
  20
26.460306
  30
0.0
  0
VERTEX
  8
0
  10
93.081201
  20
26.453925
  30
0.0
  0
VERTEX
  8
0
  10
93.088995
  20
26.447675
  30
0.0
  0
VERTEX
  8
0
  10
93.096903
  20
26.441562
  30
0.0
  0
VERTEX
  8
0
  10
93.104925
  20
26.435592
  30
0.0
  0
VERTEX
  8
0
  10
93.113056
  20
26.429769
  30
0.0
  0
VERTEX
  8
0
  10
93.121293
  20
26.4241
  30
0.0
  0
VERTEX
  8
0
  10
93.129634
  20
26.418591
  30
0.0
  0
VERTEX
  8
0
  10
93.138077
  20
26.413247
  30
0.0
  0
VERTEX
  8
0
  10
93.146617
  20
26.408073
  30
0.0
  0
VERTEX
  8
0
  10
93.155253
  20
26.403077
  30
0.0
  0
VERTEX
  8
0
  10
93.163981
  20
26.398262
  30
0.0
  0
VERTEX
  8
0
  10
93.172799
  20
26.393636
  30
0.0
  0
VERTEX
  8
0
  10
93.181703
  20
26.389204
  30
0.0
  0
VERTEX
  8
0
  10
93.190691
  20
26.384971
  30
0.0
  0
VERTEX
  8
0
  10
93.19976
  20
26.380943
  30
0.0
  0
VERTEX
  8
0
  10
93.208907
  20
26.377126
  30
0.0
  0
VERTEX
  8
0
  10
93.223884
  20
26.371196
  30
0.0
  0
VERTEX
  8
0
  10
93.238948
  20
26.365465
  30
0.0
  0
VERTEX
  8
0
  10
93.254094
  20
26.359932
  30
0.0
  0
VERTEX
  8
0
  10
93.269318
  20
26.354596
  30
0.0
  0
VERTEX
  8
0
  10
93.284616
  20
26.349455
  30
0.0
  0
VERTEX
  8
0
  10
93.299985
  20
26.344507
  30
0.0
  0
VERTEX
  8
0
  10
93.31542
  20
26.339752
  30
0.0
  0
VERTEX
  8
0
  10
93.330917
  20
26.335187
  30
0.0
  0
VERTEX
  8
0
  10
93.346472
  20
26.330811
  30
0.0
  0
VERTEX
  8
0
  10
93.362081
  20
26.326622
  30
0.0
  0
VERTEX
  8
0
  10
93.377741
  20
26.322619
  30
0.0
  0
VERTEX
  8
0
  10
93.393447
  20
26.3188
  30
0.0
  0
VERTEX
  8
0
  10
93.409195
  20
26.315165
  30
0.0
  0
VERTEX
  8
0
  10
93.424982
  20
26.31171
  30
0.0
  0
VERTEX
  8
0
  10
93.440803
  20
26.308436
  30
0.0
  0
VERTEX
  8
0
  10
93.456654
  20
26.305339
  30
0.0
  0
VERTEX
  8
0
  10
93.472531
  20
26.302419
  30
0.0
  0
VERTEX
  8
0
  10
93.48843
  20
26.299674
  30
0.0
  0
VERTEX
  8
0
  10
93.504348
  20
26.297103
  30
0.0
  0
VERTEX
  8
0
  10
93.52028
  20
26.294704
  30
0.0
  0
VERTEX
  8
0
  10
93.532987
  20
26.292954
  30
0.0
  0
VERTEX
  8
0
  10
93.545731
  20
26.291389
  30
0.0
  0
VERTEX
  8
0
  10
93.558506
  20
26.290007
  30
0.0
  0
VERTEX
  8
0
  10
93.571309
  20
26.28881
  30
0.0
  0
VERTEX
  8
0
  10
93.584137
  20
26.287797
  30
0.0
  0
VERTEX
  8
0
  10
93.596984
  20
26.286968
  30
0.0
  0
VERTEX
  8
0
  10
93.609847
  20
26.286324
  30
0.0
  0
VERTEX
  8
0
  10
93.622722
  20
26.285863
  30
0.0
  0
VERTEX
  8
0
  10
93.635605
  20
26.285587
  30
0.0
  0
VERTEX
  8
0
  10
93.648492
  20
26.285495
  30
0.0
  0
VERTEX
  8
0
  10
93.661379
  20
26.285587
  30
0.0
  0
VERTEX
  8
0
  10
93.674262
  20
26.285863
  30
0.0
  0
VERTEX
  8
0
  10
93.687137
  20
26.286324
  30
0.0
  0
VERTEX
  8
0
  10
93.7
  20
26.286968
  30
0.0
  0
VERTEX
  8
0
  10
93.712847
  20
26.287797
  30
0.0
  0
VERTEX
  8
0
  10
93.725675
  20
26.28881
  30
0.0
  0
VERTEX
  8
0
  10
93.738478
  20
26.290007
  30
0.0
  0
VERTEX
  8
0
  10
93.751253
  20
26.291389
  30
0.0
  0
VERTEX
  8
0
  10
93.763997
  20
26.292954
  30
0.0
  0
VERTEX
  8
0
  10
93.776704
  20
26.294704
  30
0.0
  0
SEQEND
  0
ENDBLK
  0
BLOCK
  8
0
  70
65
  2
*C20
  10
0.0
  20
0.0
  30
0.0
  3
*C
  0
POLYLINE
  8
0
  6
CONTINUOUS
  62
7
  66
1
  70
128
  0
VERTEX
  8
0
  10
91.890154
  20
27.393666
  30
0.0
  0
VERTEX
  8
0
  10
91.889256
  20
27.369255
  30
0.0
  0
VERTEX
  8
0
  10
91.888162
  20
27.344845
  30
0.0
  0
VERTEX
  8
0
  10
91.886871
  20
27.320438
  30
0.0
  0
VERTEX
  8
0
  10
91.885385
  20
27.296037
  30
0.0
  0
VERTEX
  8
0
  10
91.883704
  20
27.271644
  30
0.0
  0
VERTEX
  8
0
  10
91.881827
  20
27.247262
  30
0.0
  0
VERTEX
  8
0
  10
91.879756
  20
27.222892
  30
0.0
  0
VERTEX
  8
0
  10
91.87749
  20
27.198537
  30
0.0
  0
VERTEX
  8
0
  10
91.875029
  20
27.174199
  30
0.0
  0
VERTEX
  8
0
  10
91.872374
  20
27.149881
  30
0.0
  0
VERTEX
  8
0
  10
91.869525
  20
27.125585
  30
0.0
  0
VERTEX
  8
0
  10
91.866483
  20
27.101313
  30
0.0
  0
VERTEX
  8
0
  10
91.863247
  20
27.077068
  30
0.0
  0
VERTEX
  8
0
  10
91.859819
  20
27.052851
  30
0.0
  0
VERTEX
  8
0
  10
91.856197
  20
27.028666
  30
0.0
  0
VERTEX
  8
0
  10
91.852383
  20
27.004515
  30
0.0
  0
VERTEX
  8
0
  10
91.848377
  20
26.980399
  30
0.0
  0
VERTEX
  8
0
  10
91.844178
  20
26.956322
  30
0.0
  0
VERTEX
  8
0
  10
91.839788
  20
26.932285
  30
0.0
  0
VERTEX
  8
0
  10
91.835206
  20
26.908291
  30
0.0
  0
VERTEX
  8
0
  10
91.832404
  20
26.894524
  30
0.0
  0
VERTEX
  8
0
  10
91.829381
  20
26.880799
  30
0.0
  0
VERTEX
  8
0
  10
91.826143
  20
26.867115
  30
0.0
  0
VERTEX
  8
0
  10
91.822695
  20
26.853477
  30
0.0
  0
VERTEX
  8
0
  10
91.819043
  20
26.839884
  30
0.0
  0
VERTEX
  8
0
  10
91.815194
  20
26.826339
  30
0.0
  0
VERTEX
  8
0
  10
91.811151
  20
26.812844
  30
0.0
  0
VERTEX
  8
0
  10
91.806922
  20
26.7994
  30
0.0
  0
VERTEX
  8
0
  10
91.802511
  20
26.786009
  30
0.0
  0
VERTEX
  8
0
  10
91.797924
  20
26.772673
  30
0.0
  0
VERTEX
  8
0
  10
91.793168
  20
26.759394
  30
0.0
  0
VERTEX
  8
0
  10
91.788246
  20
26.746172
  30
0.0
  0
VERTEX
  8
0
  10
91.783166
  20
26.733011
  30
0.0
  0
VERTEX
  8
0
  10
91.777933
  20
26.719912
  30
0.0
  0
VERTEX
  8
0
  10
91.772551
  20
26.706876
  30
0.0
  0
VERTEX
  8
0
  10
91.767028
  20
26.693905
  30
0.0
  0
VERTEX
  8
0
  10
91.761368
  20
26.681001
  30
0.0
  0
VERTEX
  8
0
  10
91.755577
  20
26.668166
  30
0.0
  0
VERTEX
  8
0
  10
91.749662
  20
26.655401
  30
0.0
  0
VERTEX
  8
0
  10
91.743626
  20
26.642709
  30
0.0
  0
VERTEX
  8
0
  10
91.737657
  20
26.630492
  30
0.0
  0
VERTEX
  8
0
  10
91.731542
  20
26.618336
  30
0.0
  0
VERTEX
  8
0
  10
91.725282
  20
26.606243
  30
0.0
  0
VERTEX
  8
0
  10
91.718877
  20
26.594218
  30
0.0
  0
VERTEX
  8
0
  10
91.712328
  20
26.582264
  30
0.0
  0
VERTEX
  8
0
  10
91.705635
  20
26.570384
  30
0.0
  0
VERTEX
  8
0
  10
91.698798
  20
26.558581
  30
0.0
  0
VERTEX
  8
0
  10
91.691819
  20
26.546859
  30
0.0
  0
VERTEX
  8
0
  10
91.684697
  20
26.535222
  30
0.0
  0
VERTEX
  8
0
  10
91.677433
  20
26.523672
  30
0.0
  0
VERTEX
  8
0
  10
91.670028
  20
26.512214
  30
0.0
  0
VERTEX
  8
0
  10
91.662482
  20
26.50085
  30
0.0
  0
VERTEX
  8
0
  10
91.654796
  20
26.489585
  30
0.0
  0
VERTEX
  8
0
  10
91.646969
  20
26.47842
  30
0.0
  0
VERTEX
  8
0
  10
91.639003
  20
26.467361
  30
0.0
  0
VERTEX
  8
0
  10
91.630898
  20
26.45641
  30
0.0
  0
VERTEX
  8
0
  10
91.622655
  20
26.445571
  30
0.0
  0
VERTEX
  8
0
  10
91.614273
  20
26.434848
  30
0.0
  0
VERTEX
  8
0
  10
91.605754
  20
26.424242
  30
0.0
  0
VERTEX
  8
0
  10
91.597098
  20
26.413759
  30
0.0
  0
VERTEX
  8
0
  10
91.58913
  20
26.404345
  30
0.0
  0
VERTEX
  8
0
  10
91.581045
  20
26.395001
  30
0.0
  0
VERTEX
  8
0
  10
91.572841
  20
26.385738
  30
0.0
  0
VERTEX
  8
0
  10
91.564517
  20
26.376563
  30
0.0
  0
VERTEX
  8
0
  10
91.556072
  20
26.367486
  30
0.0
  0
VERTEX
  8
0
  10
91.547504
  20
26.358514
  30
0.0
  0
VERTEX
  8
0
  10
91.538811
  20
26.349657
  30
0.0
  0
VERTEX
  8
0
  10
91.529994
  20
26.340924
  30
0.0
  0
VERTEX
  8
0
  10
91.52105
  20
26.332323
  30
0.0
  0
VERTEX
  8
0
  10
91.511978
  20
26.323862
  30
0.0
  0
VERTEX
  8
0
  10
91.502776
  20
26.315551
  30
0.0
  0
VERTEX
  8
0
  10
91.493445
  20
26.307398
  30
0.0
  0
VERTEX
  8
0
  10
91.483981
  20
26.299412
  30
0.0
  0
VERTEX
  8
0
  10
91.474384
  20
26.291602
  30
0.0
  0
VERTEX
  8
0
  10
91.464653
  20
26.283976
  30
0.0
  0
VERTEX
  8
0
  10
91.454787
  20
26.276543
  30
0.0
  0
VERTEX
  8
0
  10
91.444783
  20
26.269311
  30
0.0
  0
VERTEX
  8
0
  10
91.434641
  20
26.26229
  30
0.0
  0
VERTEX
  8
0
  10
91.424359
  20
26.255488
  30
0.0
  0
VERTEX
  8
0
  10
91.413937
  20
26.248914
  30
0.0
  0
VERTEX
  8
0
  10
91.400235
  20
26.240674
  30
0.0
  0
VERTEX
  8
0
  10
91.386378
  20
26.232709
  30
0.0
  0
VERTEX
  8
0
  10
91.372374
  20
26.225005
  30
0.0
  0
VERTEX
  8
0
  10
91.358234
  20
26.217548
  30
0.0
  0
VERTEX
  8
0
  10
91.343966
  20
26.210325
  30
0.0
  0
VERTEX
  8
0
  10
91.32958
  20
26.203323
  30
0.0
  0
VERTEX
  8
0
  10
91.315084
  20
26.196526
  30
0.0
  0
VERTEX
  8
0
  10
91.300488
  20
26.189923
  30
0.0
  0
VERTEX
  8
0
  10
91.285802
  20
26.183498
  30
0.0
  0
VERTEX
  8
0
  10
91.271033
  20
26.177238
  30
0.0
  0
VERTEX
  8
0
  10
91.256192
  20
26.17113
  30
0.0
  0
VERTEX
  8
0
  10
91.241288
  20
26.165159
  30
0.0
  0
VERTEX
  8
0
  10
91.22633
  20
26.159312
  30
0.0
  0
VERTEX
  8
0
  10
91.211327
  20
26.153576
  30
0.0
  0
VERTEX
  8
0
  10
91.196288
  20
26.147936
  30
0.0
  0
VERTEX
  8
0
  10
91.181223
  20
26.142378
  30
0.0
  0
VERTEX
  8
0
  10
91.16614
  20
26.13689
  30
0.0
  0
VERTEX
  8
0
  10
91.15105
  20
26.131457
  30
0.0
  0
VERTEX
  8
0
  10
91.13596
  20
26.126066
  30
0.0
  0
VERTEX
  8
0
  10
91.120881
  20
26.120702
  30
0.0
  0
VERTEX
  8
0
  10
91.101064
  20
26.113722
  30
0.0
  0
VERTEX
  8
0
  10
91.081207
  20
26.106849
  30
0.0
  0
VERTEX
  8
0
  10
91.061311
  20
26.100082
  30
0.0
  0
VERTEX
  8
0
  10
91.041377
  20
26.093423
  30
0.0
  0
VERTEX
  8
0
  10
91.021405
  20
26.086871
  30
0.0
  0
VERTEX
  8
0
  10
91.001396
  20
26.080427
  30
0.0
  0
VERTEX
  8
0
  10
90.981352
  20
26.07409
  30
0.0
  0
VERTEX
  8
0
  10
90.961273
  20
26.067861
  30
0.0
  0
VERTEX
  8
0
  10
90.94116
  20
26.061741
  30
0.0
  0
VERTEX
  8
0
  10
90.921014
  20
26.05573
  30
0.0
  0
VERTEX
  8
0
  10
90.900835
  20
26.049827
  30
0.0
  0
VERTEX
  8
0
  10
90.880626
  20
26.044034
  30
0.0
  0
VERTEX
  8
0
  10
90.860386
  20
26.03835
  30
0.0
  0
VERTEX
  8
0
  10
90.840116
  20
26.032776
  30
0.0
  0
VERTEX
  8
0
  10
90.819818
  20
26.027312
  30
0.0
  0
VERTEX
  8
0
  10
90.799492
  20
26.021957
  30
0.0
  0
VERTEX
  8
0
  10
90.77914
  20
26.016714
  30
0.0
  0
VERTEX
  8
0
  10
90.758761
  20
26.011581
  30
0.0
  0
VERTEX
  8
0
  10
90.738357
  20
26.006559
  30
0.0
  0
VERTEX
  8
0
  10
90.717929
  20
26.001648
  30
0.0
  0
SEQEND
  0
ENDBLK
  0
BLOCK
  8
0
  70
65
  2
*C21
  10
0.0
  20
0.0
  30
0.0
  3
*C
  0
POLYLINE
  8
0
  6
CONTINUOUS
  62
7
  66
1
  70
128
  0
VERTEX
  8
0
  10
71.349127
  20
22.288287
  30
0.0
  0
VERTEX
  8
0
  10
71.356585
  20
22.299273
  30
0.0
  0
VERTEX
  8
0
  10
71.36458
  20
22.309985
  30
0.0
  0
VERTEX
  8
0
  10
71.373084
  20
22.320405
  30
0.0
  0
VERTEX
  8
0
  10
71.382071
  20
22.330515
  30
0.0
  0
VERTEX
  8
0
  10
71.391513
  20
22.340296
  30
0.0
  0
VERTEX
  8
0
  10
71.401383
  20
22.34973
  30
0.0
  0
VERTEX
  8
0
  10
71.411654
  20
22.358799
  30
0.0
  0
VERTEX
  8
0
  10
71.422298
  20
22.367486
  30
0.0
  0
VERTEX
  8
0
  10
71.433289
  20
22.375771
  30
0.0
  0
VERTEX
  8
0
  10
71.444599
  20
22.383637
  30
0.0
  0
VERTEX
  8
0
  10
71.456201
  20
22.391066
  30
0.0
  0
VERTEX
  8
0
  10
71.468068
  20
22.398038
  30
0.0
  0
VERTEX
  8
0
  10
71.480172
  20
22.404538
  30
0.0
  0
VERTEX
  8
0
  10
71.492487
  20
22.410545
  30
0.0
  0
VERTEX
  8
0
  10
71.504986
  20
22.416042
  30
0.0
  0
VERTEX
  8
0
  10
71.51764
  20
22.421011
  30
0.0
  0
VERTEX
  8
0
  10
71.530423
  20
22.425433
  30
0.0
  0
VERTEX
  8
0
  10
71.543308
  20
22.429291
  30
0.0
  0
VERTEX
  8
0
  10
71.556267
  20
22.432567
  30
0.0
  0
VERTEX
  8
0
  10
71.569273
  20
22.435241
  30
0.0
  0
VERTEX
  8
0
  10
71.632632
  20
22.44643
  30
0.0
  0
VERTEX
  8
0
  10
71.696104
  20
22.456988
  30
0.0
  0
VERTEX
  8
0
  10
71.759681
  20
22.466933
  30
0.0
  0
VERTEX
  8
0
  10
71.823356
  20
22.476286
  30
0.0
  0
VERTEX
  8
0
  10
71.887123
  20
22.485066
  30
0.0
  0
VERTEX
  8
0
  10
71.950975
  20
22.493292
  30
0.0
  0
VERTEX
  8
0
  10
72.014904
  20
22.500983
  30
0.0
  0
VERTEX
  8
0
  10
72.078904
  20
22.50816
  30
0.0
  0
VERTEX
  8
0
  10
72.142967
  20
22.514841
  30
0.0
  0
VERTEX
  8
0
  10
72.207087
  20
22.521047
  30
0.0
  0
VERTEX
  8
0
  10
72.271257
  20
22.526796
  30
0.0
  0
VERTEX
  8
0
  10
72.335469
  20
22.532107
  30
0.0
  0
VERTEX
  8
0
  10
72.399717
  20
22.537002
  30
0.0
  0
VERTEX
  8
0
  10
72.463994
  20
22.541498
  30
0.0
  0
VERTEX
  8
0
  10
72.528293
  20
22.545615
  30
0.0
  0
VERTEX
  8
0
  10
72.592607
  20
22.549373
  30
0.0
  0
VERTEX
  8
0
  10
72.656928
  20
22.552791
  30
0.0
  0
VERTEX
  8
0
  10
72.721251
  20
22.555889
  30
0.0
  0
VERTEX
  8
0
  10
72.785567
  20
22.558686
  30
0.0
  0
VERTEX
  8
0
  10
72.849871
  20
22.561202
  30
0.0
  0
VERTEX
  8
0
  10
72.955823
  20
22.564819
  30
0.0
  0
VERTEX
  8
0
  10
73.061789
  20
22.567844
  30
0.0
  0
VERTEX
  8
0
  10
73.167768
  20
22.570312
  30
0.0
  0
VERTEX
  8
0
  10
73.273759
  20
22.57226
  30
0.0
  0
VERTEX
  8
0
  10
73.379761
  20
22.573722
  30
0.0
  0
VERTEX
  8
0
  10
73.485772
  20
22.574732
  30
0.0
  0
VERTEX
  8
0
  10
73.591791
  20
22.575327
  30
0.0
  0
VERTEX
  8
0
  10
73.697818
  20
22.575541
  30
0.0
  0
VERTEX
  8
0
  10
73.803849
  20
22.575409
  30
0.0
  0
VERTEX
  8
0
  10
73.909885
  20
22.574967
  30
0.0
  0
VERTEX
  8
0
  10
74.015924
  20
22.57425
  30
0.0
  0
VERTEX
  8
0
  10
74.121965
  20
22.573292
  30
0.0
  0
VERTEX
  8
0
  10
74.228007
  20
22.57213
  30
0.0
  0
VERTEX
  8
0
  10
74.334048
  20
22.570798
  30
0.0
  0
VERTEX
  8
0
  10
74.440086
  20
22.56933
  30
0.0
  0
VERTEX
  8
0
  10
74.546122
  20
22.567763
  30
0.0
  0
VERTEX
  8
0
  10
74.652152
  20
22.566132
  30
0.0
  0
VERTEX
  8
0
  10
74.758177
  20
22.564471
  30
0.0
  0
VERTEX
  8
0
  10
74.864195
  20
22.562816
  30
0.0
  0
VERTEX
  8
0
  10
74.970205
  20
22.561202
  30
0.0
  0
VERTEX
  8
0
  10
75.075206
  20
22.559526
  30
0.0
  0
VERTEX
  8
0
  10
75.180202
  20
22.557637
  30
0.0
  0
VERTEX
  8
0
  10
75.285196
  20
22.555546
  30
0.0
  0
VERTEX
  8
0
  10
75.390185
  20
22.553261
  30
0.0
  0
VERTEX
  8
0
  10
75.49517
  20
22.550793
  30
0.0
  0
VERTEX
  8
0
  10
75.600153
  20
22.548151
  30
0.0
  0
VERTEX
  8
0
  10
75.705131
  20
22.545344
  30
0.0
  0
VERTEX
  8
0
  10
75.810106
  20
22.542382
  30
0.0
  0
VERTEX
  8
0
  10
75.915077
  20
22.539275
  30
0.0
  0
VERTEX
  8
0
  10
76.020045
  20
22.536031
  30
0.0
  0
VERTEX
  8
0
  10
76.12501
  20
22.532662
  30
0.0
  0
VERTEX
  8
0
  10
76.229971
  20
22.529175
  30
0.0
  0
VERTEX
  8
0
  10
76.334929
  20
22.525581
  30
0.0
  0
VERTEX
  8
0
  10
76.439883
  20
22.52189
  30
0.0
  0
VERTEX
  8
0
  10
76.544835
  20
22.51811
  30
0.0
  0
VERTEX
  8
0
  10
76.649783
  20
22.514251
  30
0.0
  0
VERTEX
  8
0
  10
76.754728
  20
22.510324
  30
0.0
  0
VERTEX
  8
0
  10
76.85967
  20
22.506336
  30
0.0
  0
VERTEX
  8
0
  10
76.964609
  20
22.502299
  30
0.0
  0
VERTEX
  8
0
  10
77.069545
  20
22.498221
  30
0.0
  0
VERTEX
  8
0
  10
77.1798
  20
22.493878
  30
0.0
  0
VERTEX
  8
0
  10
77.290052
  20
22.489454
  30
0.0
  0
VERTEX
  8
0
  10
77.400302
  20
22.484947
  30
0.0
  0
VERTEX
  8
0
  10
77.510548
  20
22.480353
  30
0.0
  0
VERTEX
  8
0
  10
77.620791
  20
22.475671
  30
0.0
  0
VERTEX
  8
0
  10
77.73103
  20
22.470898
  30
0.0
  0
VERTEX
  8
0
  10
77.841266
  20
22.466032
  30
0.0
  0
VERTEX
  8
0
  10
77.951497
  20
22.461071
  30
0.0
  0
VERTEX
  8
0
  10
78.061724
  20
22.456012
  30
0.0
  0
VERTEX
  8
0
  10
78.171946
  20
22.450853
  30
0.0
  0
VERTEX
  8
0
  10
78.282163
  20
22.445592
  30
0.0
  0
VERTEX
  8
0
  10
78.392375
  20
22.440226
  30
0.0
  0
VERTEX
  8
0
  10
78.502581
  20
22.434754
  30
0.0
  0
VERTEX
  8
0
  10
78.612782
  20
22.429172
  30
0.0
  0
VERTEX
  8
0
  10
78.722976
  20
22.423478
  30
0.0
  0
VERTEX
  8
0
  10
78.833165
  20
22.41767
  30
0.0
  0
VERTEX
  8
0
  10
78.943347
  20
22.411747
  30
0.0
  0
VERTEX
  8
0
  10
79.053522
  20
22.405704
  30
0.0
  0
VERTEX
  8
0
  10
79.163691
  20
22.399541
  30
0.0
  0
VERTEX
  8
0
  10
79.273852
  20
22.393254
  30
0.0
  0
VERTEX
  8
0
  10
79.344905
  20
22.389104
  30
0.0
  0
VERTEX
  8
0
  10
79.415952
  20
22.384843
  30
0.0
  0
VERTEX
  8
0
  10
79.486993
  20
22.380473
  30
0.0
  0
VERTEX
  8
0
  10
79.558028
  20
22.375992
  30
0.0
  0
VERTEX
  8
0
  10
79.629056
  20
22.371401
  30
0.0
  0
VERTEX
  8
0
  10
79.700078
  20
22.366701
  30
0.0
  0
VERTEX
  8
0
  10
79.771092
  20
22.36189
  30
0.0
  0
VERTEX
  8
0
  10
79.842099
  20
22.356969
  30
0.0
  0
VERTEX
  8
0
  10
79.913099
  20
22.351939
  30
0.0
  0
VERTEX
  8
0
  10
79.984091
  20
22.346798
  30
0.0
  0
VERTEX
  8
0
  10
80.055075
  20
22.341548
  30
0.0
  0
VERTEX
  8
0
  10
80.12605
  20
22.336187
  30
0.0
  0
VERTEX
  8
0
  10
80.197017
  20
22.330717
  30
0.0
  0
VERTEX
  8
0
  10
80.267975
  20
22.325137
  30
0.0
  0
VERTEX
  8
0
  10
80.338925
  20
22.319447
  30
0.0
  0
VERTEX
  8
0
  10
80.409864
  20
22.313647
  30
0.0
  0
VERTEX
  8
0
  10
80.480794
  20
22.307738
  30
0.0
  0
VERTEX
  8
0
  10
80.551715
  20
22.301718
  30
0.0
  0
VERTEX
  8
0
  10
80.622625
  20
22.295589
  30
0.0
  0
VERTEX
  8
0
  10
80.693525
  20
22.28935
  30
0.0
  0
SEQEND
  0
ENDBLK
  0
BLOCK
  8
0
  70
65
  2
*C22
  10
0.0
  20
0.0
  30
0.0
  3
*C
  0
POLYLINE
  8
0
  6
CONTINUOUS
  62
7
  66
1
  70
128
  0
VERTEX
  8
0
  10
70.567818
  20
44.609276
  30
0.0
  0
VERTEX
  8
0
  10
70.567726
  20
44.614948
  30
0.0
  0
VERTEX
  8
0
  10
70.567763
  20
44.620632
  30
0.0
  0
VERTEX
  8
0
  10
70.567928
  20
44.626324
  30
0.0
  0
VERTEX
  8
0
  10
70.56822
  20
44.632022
  30
0.0
  0
VERTEX
  8
0
  10
70.568639
  20
44.63772
  30
0.0
  0
VERTEX
  8
0
  10
70.569183
  20
44.643414
  30
0.0
  0
VERTEX
  8
0
  10
70.569853
  20
44.6491
  30
0.0
  0
VERTEX
  8
0
  10
70.570647
  20
44.654775
  30
0.0
  0
VERTEX
  8
0
  10
70.571564
  20
44.660435
  30
0.0
  0
VERTEX
  8
0
  10
70.572603
  20
44.666074
  30
0.0
  0
VERTEX
  8
0
  10
70.573765
  20
44.67169
  30
0.0
  0
VERTEX
  8
0
  10
70.575048
  20
44.677277
  30
0.0
  0
VERTEX
  8
0
  10
70.57645
  20
44.682833
  30
0.0
  0
VERTEX
  8
0
  10
70.577973
  20
44.688353
  30
0.0
  0
VERTEX
  8
0
  10
70.579613
  20
44.693833
  30
0.0
  0
VERTEX
  8
0
  10
70.581372
  20
44.699269
  30
0.0
  0
VERTEX
  8
0
  10
70.583248
  20
44.704656
  30
0.0
  0
VERTEX
  8
0
  10
70.58524
  20
44.709992
  30
0.0
  0
VERTEX
  8
0
  10
70.587347
  20
44.715271
  30
0.0
  0
VERTEX
  8
0
  10
70.589569
  20
44.72049
  30
0.0
  0
VERTEX
  8
0
  10
70.592012
  20
44.725967
  30
0.0
  0
VERTEX
  8
0
  10
70.594539
  20
44.731447
  30
0.0
  0
VERTEX
  8
0
  10
70.597152
  20
44.736921
  30
0.0
  0
VERTEX
  8
0
  10
70.599858
  20
44.742375
  30
0.0
  0
VERTEX
  8
0
  10
70.602659
  20
44.747798
  30
0.0
  0
VERTEX
  8
0
  10
70.605562
  20
44.753179
  30
0.0
  0
VERTEX
  8
0
  10
70.60857
  20
44.758505
  30
0.0
  0
VERTEX
  8
0
  10
70.611688
  20
44.763766
  30
0.0
  0
VERTEX
  8
0
  10
70.61492
  20
44.768949
  30
0.0
  0
VERTEX
  8
0
  10
70.618271
  20
44.774044
  30
0.0
  0
VERTEX
  8
0
  10
70.621746
  20
44.779038
  30
0.0
  0
VERTEX
  8
0
  10
70.625348
  20
44.78392
  30
0.0
  0
VERTEX
  8
0
  10
70.629084
  20
44.788677
  30
0.0
  0
VERTEX
  8
0
  10
70.632956
  20
44.7933
  30
0.0
  0
VERTEX
  8
0
  10
70.63697
  20
44.797775
  30
0.0
  0
VERTEX
  8
0
  10
70.64113
  20
44.802091
  30
0.0
  0
VERTEX
  8
0
  10
70.64544
  20
44.806237
  30
0.0
  0
VERTEX
  8
0
  10
70.649906
  20
44.810201
  30
0.0
  0
VERTEX
  8
0
  10
70.654531
  20
44.813971
  30
0.0
  0
VERTEX
  8
0
  10
70.659321
  20
44.817536
  30
0.0
  0
VERTEX
  8
0
  10
70.664438
  20
44.821024
  30
0.0
  0
VERTEX
  8
0
  10
70.669693
  20
44.824328
  30
0.0
  0
VERTEX
  8
0
  10
70.675077
  20
44.82745
  30
0.0
  0
VERTEX
  8
0
  10
70.68058
  20
44.83039
  30
0.0
  0
VERTEX
  8
0
  10
70.686193
  20
44.83315
  30
0.0
  0
VERTEX
  8
0
  10
70.691909
  20
44.835732
  30
0.0
  0
VERTEX
  8
0
  10
70.697717
  20
44.838136
  30
0.0
  0
VERTEX
  8
0
  10
70.703609
  20
44.840365
  30
0.0
  0
VERTEX
  8
0
  10
70.709576
  20
44.84242
  30
0.0
  0
VERTEX
  8
0
  10
70.715608
  20
44.844302
  30
0.0
  0
VERTEX
  8
0
  10
70.721698
  20
44.846012
  30
0.0
  0
VERTEX
  8
0
  10
70.727836
  20
44.847553
  30
0.0
  0
VERTEX
  8
0
  10
70.734013
  20
44.848925
  30
0.0
  0
VERTEX
  8
0
  10
70.74022
  20
44.850129
  30
0.0
  0
VERTEX
  8
0
  10
70.746448
  20
44.851168
  30
0.0
  0
VERTEX
  8
0
  10
70.752688
  20
44.852043
  30
0.0
  0
VERTEX
  8
0
  10
70.758932
  20
44.852755
  30
0.0
  0
VERTEX
  8
0
  10
70.76517
  20
44.853305
  30
0.0
  0
VERTEX
  8
0
  10
70.771394
  20
44.853695
  30
0.0
  0
VERTEX
  8
0
  10
70.777594
  20
44.853927
  30
0.0
  0
VERTEX
  8
0
  10
70.78416
  20
44.854017
  30
0.0
  0
VERTEX
  8
0
  10
70.790762
  20
44.853962
  30
0.0
  0
VERTEX
  8
0
  10
70.797391
  20
44.853757
  30
0.0
  0
VERTEX
  8
0
  10
70.804037
  20
44.853399
  30
0.0
  0
VERTEX
  8
0
  10
70.81069
  20
44.852883
  30
0.0
  0
VERTEX
  8
0
  10
70.817342
  20
44.852206
  30
0.0
  0
VERTEX
  8
0
  10
70.823983
  20
44.851364
  30
0.0
  0
VERTEX
  8
0
  10
70.830603
  20
44.850353
  30
0.0
  0
VERTEX
  8
0
  10
70.837192
  20
44.849169
  30
0.0
  0
VERTEX
  8
0
  10
70.843742
  20
44.847808
  30
0.0
  0
VERTEX
  8
0
  10
70.850242
  20
44.846266
  30
0.0
  0
VERTEX
  8
0
  10
70.856684
  20
44.84454
  30
0.0
  0
VERTEX
  8
0
  10
70.863058
  20
44.842624
  30
0.0
  0
VERTEX
  8
0
  10
70.869354
  20
44.840516
  30
0.0
  0
VERTEX
  8
0
  10
70.875563
  20
44.838211
  30
0.0
  0
VERTEX
  8
0
  10
70.881675
  20
44.835706
  30
0.0
  0
VERTEX
  8
0
  10
70.88768
  20
44.832996
  30
0.0
  0
VERTEX
  8
0
  10
70.893571
  20
44.830078
  30
0.0
  0
VERTEX
  8
0
  10
70.899336
  20
44.826948
  30
0.0
  0
VERTEX
  8
0
  10
70.904966
  20
44.823601
  30
0.0
  0
VERTEX
  8
0
  10
70.911071
  20
44.819615
  30
0.0
  0
VERTEX
  8
0
  10
70.916985
  20
44.81538
  30
0.0
  0
VERTEX
  8
0
  10
70.92272
  20
44.810911
  30
0.0
  0
VERTEX
  8
0
  10
70.928284
  20
44.806224
  30
0.0
  0
VERTEX
  8
0
  10
70.933687
  20
44.801335
  30
0.0
  0
VERTEX
  8
0
  10
70.938939
  20
44.796259
  30
0.0
  0
VERTEX
  8
0
  10
70.94405
  20
44.791012
  30
0.0
  0
VERTEX
  8
0
  10
70.949029
  20
44.78561
  30
0.0
  0
VERTEX
  8
0
  10
70.953885
  20
44.780069
  30
0.0
  0
VERTEX
  8
0
  10
70.958629
  20
44.774405
  30
0.0
  0
VERTEX
  8
0
  10
70.963271
  20
44.768632
  30
0.0
  0
VERTEX
  8
0
  10
70.967819
  20
44.762768
  30
0.0
  0
VERTEX
  8
0
  10
70.972283
  20
44.756827
  30
0.0
  0
VERTEX
  8
0
  10
70.976674
  20
44.750825
  30
0.0
  0
VERTEX
  8
0
  10
70.981001
  20
44.744779
  30
0.0
  0
VERTEX
  8
0
  10
70.985273
  20
44.738703
  30
0.0
  0
VERTEX
  8
0
  10
70.989501
  20
44.732615
  30
0.0
  0
VERTEX
  8
0
  10
70.993693
  20
44.726528
  30
0.0
  0
VERTEX
  8
0
  10
70.99786
  20
44.72046
  30
0.0
  0
VERTEX
  8
0
  10
71.002011
  20
44.714425
  30
0.0
  0
VERTEX
  8
0
  10
71.006871
  20
44.707065
  30
0.0
  0
VERTEX
  8
0
  10
71.011458
  20
44.699525
  30
0.0
  0
VERTEX
  8
0
  10
71.015806
  20
44.691829
  30
0.0
  0
VERTEX
  8
0
  10
71.01995
  20
44.684001
  30
0.0
  0
VERTEX
  8
0
  10
71.023925
  20
44.676062
  30
0.0
  0
VERTEX
  8
0
  10
71.027766
  20
44.668038
  30
0.0
  0
VERTEX
  8
0
  10
71.031507
  20
44.659951
  30
0.0
  0
VERTEX
  8
0
  10
71.035184
  20
44.651825
  30
0.0
  0
VERTEX
  8
0
  10
71.038831
  20
44.643683
  30
0.0
  0
VERTEX
  8
0
  10
71.042483
  20
44.635549
  30
0.0
  0
VERTEX
  8
0
  10
71.046174
  20
44.627445
  30
0.0
  0
VERTEX
  8
0
  10
71.04994
  20
44.619395
  30
0.0
  0
VERTEX
  8
0
  10
71.053815
  20
44.611424
  30
0.0
  0
VERTEX
  8
0
  10
71.057835
  20
44.603553
  30
0.0
  0
VERTEX
  8
0
  10
71.062033
  20
44.595806
  30
0.0
  0
VERTEX
  8
0
  10
71.066445
  20
44.588208
  30
0.0
  0
VERTEX
  8
0
  10
71.071105
  20
44.58078
  30
0.0
  0
VERTEX
  8
0
  10
71.076049
  20
44.573548
  30
0.0
  0
VERTEX
  8
0
  10
71.081311
  20
44.566533
  30
0.0
  0
VERTEX
  8
0
  10
71.086926
  20
44.559759
  30
0.0
  0
VERTEX
  8
0
  10
71.090952
  20
44.555335
  30
0.0
  0
VERTEX
  8
0
  10
71.095155
  20
44.551072
  30
0.0
  0
VERTEX
  8
0
  10
71.099526
  20
44.546967
  30
0.0
  0
VERTEX
  8
0
  10
71.104054
  20
44.543018
  30
0.0
  0
VERTEX
  8
0
  10
71.108731
  20
44.539222
  30
0.0
  0
VERTEX
  8
0
  10
71.113546
  20
44.535578
  30
0.0
  0
VERTEX
  8
0
  10
71.118489
  20
44.532083
  30
0.0
  0
VERTEX
  8
0
  10
71.123551
  20
44.528734
  30
0.0
  0
VERTEX
  8
0
  10
71.128723
  20
44.525529
  30
0.0
  0
VERTEX
  8
0
  10
71.133994
  20
44.522466
  30
0.0
  0
VERTEX
  8
0
  10
71.139354
  20
44.519542
  30
0.0
  0
VERTEX
  8
0
  10
71.144795
  20
44.516756
  30
0.0
  0
VERTEX
  8
0
  10
71.150306
  20
44.514103
  30
0.0
  0
VERTEX
  8
0
  10
71.155878
  20
44.511583
  30
0.0
  0
VERTEX
  8
0
  10
71.1615
  20
44.509193
  30
0.0
  0
VERTEX
  8
0
  10
71.167164
  20
44.50693
  30
0.0
  0
VERTEX
  8
0
  10
71.172859
  20
44.504793
  30
0.0
  0
VERTEX
  8
0
  10
71.178576
  20
44.502778
  30
0.0
  0
VERTEX
  8
0
  10
71.184305
  20
44.500883
  30
0.0
  0
VERTEX
  8
0
  10
71.190036
  20
44.499106
  30
0.0
  0
VERTEX
  8
0
  10
71.196769
  20
44.497163
  30
0.0
  0
VERTEX
  8
0
  10
71.203555
  20
44.495359
  30
0.0
  0
VERTEX
  8
0
  10
71.210387
  20
44.493693
  30
0.0
  0
VERTEX
  8
0
  10
71.217262
  20
44.492167
  30
0.0
  0
VERTEX
  8
0
  10
71.224176
  20
44.49078
  30
0.0
  0
VERTEX
  8
0
  10
71.231124
  20
44.489533
  30
0.0
  0
VERTEX
  8
0
  10
71.238102
  20
44.488426
  30
0.0
  0
VERTEX
  8
0
  10
71.245105
  20
44.48746
  30
0.0
  0
VERTEX
  8
0
  10
71.25213
  20
44.486635
  30
0.0
  0
VERTEX
  8
0
  10
71.259171
  20
44.485951
  30
0.0
  0
VERTEX
  8
0
  10
71.266224
  20
44.485409
  30
0.0
  0
VERTEX
  8
0
  10
71.273286
  20
44.485009
  30
0.0
  0
VERTEX
  8
0
  10
71.28035
  20
44.484752
  30
0.0
  0
VERTEX
  8
0
  10
71.287415
  20
44.484638
  30
0.0
  0
VERTEX
  8
0
  10
71.294474
  20
44.484667
  30
0.0
  0
VERTEX
  8
0
  10
71.301523
  20
44.48484
  30
0.0
  0
VERTEX
  8
0
  10
71.308559
  20
44.485157
  30
0.0
  0
VERTEX
  8
0
  10
71.315576
  20
44.485618
  30
0.0
  0
VERTEX
  8
0
  10
71.32257
  20
44.486224
  30
0.0
  0
VERTEX
  8
0
  10
71.329538
  20
44.486976
  30
0.0
  0
SEQEND
  0
ENDBLK
  0
BLOCK
  8
0
  70
65
  2
*C23
  10
0.0
  20
0.0
  30
0.0
  3
*C
  0
POLYLINE
  8
0
  6
CONTINUOUS
  62
7
  66
1
  70
128
  0
VERTEX
  8
0
  10
71.32912
  20
44.492152
  30
0.0
  0
VERTEX
  8
0
  10
71.329102
  20
44.50057
  30
0.0
  0
VERTEX
  8
0
  10
71.329007
  20
44.508991
  30
0.0
  0
VERTEX
  8
0
  10
71.328836
  20
44.517413
  30
0.0
  0
VERTEX
  8
0
  10
71.32859
  20
44.525836
  30
0.0
  0
VERTEX
  8
0
  10
71.328267
  20
44.534258
  30
0.0
  0
VERTEX
  8
0
  10
71.327869
  20
44.542679
  30
0.0
  0
VERTEX
  8
0
  10
71.327394
  20
44.551097
  30
0.0
  0
VERTEX
  8
0
  10
71.326844
  20
44.559512
  30
0.0
  0
VERTEX
  8
0
  10
71.326219
  20
44.567922
  30
0.0
  0
VERTEX
  8
0
  10
71.325518
  20
44.576326
  30
0.0
  0
VERTEX
  8
0
  10
71.324741
  20
44.584724
  30
0.0
  0
VERTEX
  8
0
  10
71.32389
  20
44.593114
  30
0.0
  0
VERTEX
  8
0
  10
71.322963
  20
44.601496
  30
0.0
  0
VERTEX
  8
0
  10
71.32196
  20
44.609867
  30
0.0
  0
VERTEX
  8
0
  10
71.320883
  20
44.618228
  30
0.0
  0
VERTEX
  8
0
  10
71.319731
  20
44.626578
  30
0.0
  0
VERTEX
  8
0
  10
71.318504
  20
44.634914
  30
0.0
  0
VERTEX
  8
0
  10
71.317202
  20
44.643237
  30
0.0
  0
VERTEX
  8
0
  10
71.315826
  20
44.651545
  30
0.0
  0
VERTEX
  8
0
  10
71.314375
  20
44.659837
  30
0.0
  0
VERTEX
  8
0
  10
71.313441
  20
44.665047
  30
0.0
  0
VERTEX
  8
0
  10
71.312497
  20
44.670288
  30
0.0
  0
VERTEX
  8
0
  10
71.311532
  20
44.675552
  30
0.0
  0
VERTEX
  8
0
  10
71.310535
  20
44.680828
  30
0.0
  0
VERTEX
  8
0
  10
71.309494
  20
44.68611
  30
0.0
  0
VERTEX
  8
0
  10
71.308398
  20
44.691388
  30
0.0
  0
VERTEX
  8
0
  10
71.307236
  20
44.696652
  30
0.0
  0
VERTEX
  8
0
  10
71.305997
  20
44.701895
  30
0.0
  0
VERTEX
  8
0
  10
71.30467
  20
44.707108
  30
0.0
  0
VERTEX
  8
0
  10
71.303242
  20
44.712281
  30
0.0
  0
VERTEX
  8
0
  10
71.301704
  20
44.717406
  30
0.0
  0
VERTEX
  8
0
  10
71.300044
  20
44.722474
  30
0.0
  0
VERTEX
  8
0
  10
71.29825
  20
44.727477
  30
0.0
  0
VERTEX
  8
0
  10
71.296312
  20
44.732405
  30
0.0
  0
VERTEX
  8
0
  10
71.294218
  20
44.737249
  30
0.0
  0
VERTEX
  8
0
  10
71.291956
  20
44.742002
  30
0.0
  0
VERTEX
  8
0
  10
71.289517
  20
44.746653
  30
0.0
  0
VERTEX
  8
0
  10
71.286888
  20
44.751195
  30
0.0
  0
VERTEX
  8
0
  10
71.284058
  20
44.755619
  30
0.0
  0
VERTEX
  8
0
  10
71.281016
  20
44.759915
  30
0.0
  0
VERTEX
  8
0
  10
71.277999
  20
44.763831
  30
0.0
  0
VERTEX
  8
0
  10
71.274833
  20
44.76768
  30
0.0
  0
VERTEX
  8
0
  10
71.271522
  20
44.771453
  30
0.0
  0
VERTEX
  8
0
  10
71.268074
  20
44.775141
  30
0.0
  0
VERTEX
  8
0
  10
71.264495
  20
44.778733
  30
0.0
  0
VERTEX
  8
0
  10
71.26079
  20
44.782219
  30
0.0
  0
VERTEX
  8
0
  10
71.256965
  20
44.78559
  30
0.0
  0
VERTEX
  8
0
  10
71.253028
  20
44.788837
  30
0.0
  0
VERTEX
  8
0
  10
71.248982
  20
44.791949
  30
0.0
  0
VERTEX
  8
0
  10
71.244836
  20
44.794916
  30
0.0
  0
VERTEX
  8
0
  10
71.240594
  20
44.79773
  30
0.0
  0
VERTEX
  8
0
  10
71.236263
  20
44.800379
  30
0.0
  0
VERTEX
  8
0
  10
71.231849
  20
44.802855
  30
0.0
  0
VERTEX
  8
0
  10
71.227358
  20
44.805147
  30
0.0
  0
VERTEX
  8
0
  10
71.222796
  20
44.807246
  30
0.0
  0
VERTEX
  8
0
  10
71.218169
  20
44.809143
  30
0.0
  0
VERTEX
  8
0
  10
71.213484
  20
44.810826
  30
0.0
  0
VERTEX
  8
0
  10
71.208745
  20
44.812287
  30
0.0
  0
VERTEX
  8
0
  10
71.20396
  20
44.813516
  30
0.0
  0
VERTEX
  8
0
  10
71.199134
  20
44.814503
  30
0.0
  0
VERTEX
  8
0
  10
71.192213
  20
44.815578
  30
0.0
  0
VERTEX
  8
0
  10
71.185269
  20
44.816354
  30
0.0
  0
VERTEX
  8
0
  10
71.178303
  20
44.816849
  30
0.0
  0
VERTEX
  8
0
  10
71.171319
  20
44.81708
  30
0.0
  0
VERTEX
  8
0
  10
71.16432
  20
44.817066
  30
0.0
  0
VERTEX
  8
0
  10
71.157309
  20
44.816823
  30
0.0
  0
VERTEX
  8
0
  10
71.15029
  20
44.81637
  30
0.0
  0
VERTEX
  8
0
  10
71.143265
  20
44.815724
  30
0.0
  0
VERTEX
  8
0
  10
71.136237
  20
44.814903
  30
0.0
  0
VERTEX
  8
0
  10
71.129209
  20
44.813924
  30
0.0
  0
VERTEX
  8
0
  10
71.122185
  20
44.812805
  30
0.0
  0
VERTEX
  8
0
  10
71.115168
  20
44.811563
  30
0.0
  0
VERTEX
  8
0
  10
71.10816
  20
44.810217
  30
0.0
  0
VERTEX
  8
0
  10
71.101165
  20
44.808783
  30
0.0
  0
VERTEX
  8
0
  10
71.094185
  20
44.80728
  30
0.0
  0
VERTEX
  8
0
  10
71.087225
  20
44.805725
  30
0.0
  0
VERTEX
  8
0
  10
71.080286
  20
44.804136
  30
0.0
  0
VERTEX
  8
0
  10
71.073372
  20
44.802531
  30
0.0
  0
VERTEX
  8
0
  10
71.066487
  20
44.800926
  30
0.0
  0
VERTEX
  8
0
  10
71.059632
  20
44.79934
  30
0.0
  0
VERTEX
  8
0
  10
71.055136
  20
44.798264
  30
0.0
  0
VERTEX
  8
0
  10
71.050655
  20
44.797104
  30
0.0
  0
VERTEX
  8
0
  10
71.04619
  20
44.795862
  30
0.0
  0
VERTEX
  8
0
  10
71.041742
  20
44.794538
  30
0.0
  0
VERTEX
  8
0
  10
71.037315
  20
44.793133
  30
0.0
  0
VERTEX
  8
0
  10
71.03291
  20
44.791648
  30
0.0
  0
VERTEX
  8
0
  10
71.02853
  20
44.790084
  30
0.0
  0
VERTEX
  8
0
  10
71.024176
  20
44.788441
  30
0.0
  0
VERTEX
  8
0
  10
71.01985
  20
44.786722
  30
0.0
  0
VERTEX
  8
0
  10
71.015554
  20
44.784925
  30
0.0
  0
VERTEX
  8
0
  10
71.011291
  20
44.783053
  30
0.0
  0
VERTEX
  8
0
  10
71.007062
  20
44.781107
  30
0.0
  0
VERTEX
  8
0
  10
71.00287
  20
44.779086
  30
0.0
  0
VERTEX
  8
0
  10
70.998716
  20
44.776993
  30
0.0
  0
VERTEX
  8
0
  10
70.994603
  20
44.774827
  30
0.0
  0
VERTEX
  8
0
  10
70.990533
  20
44.77259
  30
0.0
  0
VERTEX
  8
0
  10
70.986507
  20
44.770283
  30
0.0
  0
VERTEX
  8
0
  10
70.982527
  20
44.767906
  30
0.0
  0
VERTEX
  8
0
  10
70.978597
  20
44.765461
  30
0.0
  0
VERTEX
  8
0
  10
70.974717
  20
44.762948
  30
0.0
  0
SEQEND
  0
ENDBLK
  0
BLOCK
  8
0
  70
65
  2
*C24
  10
0.0
  20
0.0
  30
0.0
  3
*C
  0
POLYLINE
  8
0
  6
CONTINUOUS
  62
7
  66
1
  70
128
  0
VERTEX
  8
0
  10
71.356363
  20
22.889626
  30
0.0
  0
VERTEX
  8
0
  10
71.355488
  20
22.911145
  30
0.0
  0
VERTEX
  8
0
  10
71.35388
  20
22.941471
  30
0.0
  0
VERTEX
  8
0
  10
71.351522
  20
22.979772
  30
0.0
  0
VERTEX
  8
0
  10
71.348398
  20
23.025211
  30
0.0
  0
VERTEX
  8
0
  10
71.344491
  20
23.076954
  30
0.0
  0
VERTEX
  8
0
  10
71.339784
  20
23.134167
  30
0.0
  0
VERTEX
  8
0
  10
71.33426
  20
23.196015
  30
0.0
  0
VERTEX
  8
0
  10
71.327903
  20
23.261663
  30
0.0
  0
VERTEX
  8
0
  10
71.320695
  20
23.330276
  30
0.0
  0
VERTEX
  8
0
  10
71.31262
  20
23.401021
  30
0.0
  0
VERTEX
  8
0
  10
71.303661
  20
23.473061
  30
0.0
  0
VERTEX
  8
0
  10
71.2938
  20
23.545563
  30
0.0
  0
VERTEX
  8
0
  10
71.283023
  20
23.617692
  30
0.0
  0
VERTEX
  8
0
  10
71.27131
  20
23.688614
  30
0.0
  0
VERTEX
  8
0
  10
71.258646
  20
23.757492
  30
0.0
  0
VERTEX
  8
0
  10
71.245015
  20
23.823494
  30
0.0
  0
VERTEX
  8
0
  10
71.230398
  20
23.885784
  30
0.0
  0
VERTEX
  8
0
  10
71.214779
  20
23.943528
  30
0.0
  0
VERTEX
  8
0
  10
71.198142
  20
23.99589
  30
0.0
  0
VERTEX
  8
0
  10
71.180469
  20
24.042037
  30
0.0
  0
VERTEX
  8
0
  10
71.174271
  20
24.056583
  30
0.0
  0
VERTEX
  8
0
  10
71.167528
  20
24.072313
  30
0.0
  0
VERTEX
  8
0
  10
71.160269
  20
24.089074
  30
0.0
  0
VERTEX
  8
0
  10
71.152524
  20
24.106709
  30
0.0
  0
VERTEX
  8
0
  10
71.144322
  20
24.125065
  30
0.0
  0
VERTEX
  8
0
  10
71.135692
  20
24.143986
  30
0.0
  0
VERTEX
  8
0
  10
71.126664
  20
24.163319
  30
0.0
  0
VERTEX
  8
0
  10
71.117266
  20
24.182909
  30
0.0
  0
VERTEX
  8
0
  10
71.107529
  20
24.2026
  30
0.0
  0
VERTEX
  8
0
  10
71.097482
  20
24.222238
  30
0.0
  0
VERTEX
  8
0
  10
71.087153
  20
24.241669
  30
0.0
  0
VERTEX
  8
0
  10
71.076572
  20
24.260738
  30
0.0
  0
VERTEX
  8
0
  10
71.065769
  20
24.27929
  30
0.0
  0
VERTEX
  8
0
  10
71.054773
  20
24.297171
  30
0.0
  0
VERTEX
  8
0
  10
71.043613
  20
24.314226
  30
0.0
  0
VERTEX
  8
0
  10
71.032318
  20
24.330299
  30
0.0
  0
VERTEX
  8
0
  10
71.020918
  20
24.345238
  30
0.0
  0
VERTEX
  8
0
  10
71.009442
  20
24.358886
  30
0.0
  0
VERTEX
  8
0
  10
70.997919
  20
24.37109
  30
0.0
  0
VERTEX
  8
0
  10
70.986379
  20
24.381694
  30
0.0
  0
VERTEX
  8
0
  10
70.972401
  20
24.393668
  30
0.0
  0
VERTEX
  8
0
  10
70.959089
  20
24.405356
  30
0.0
  0
VERTEX
  8
0
  10
70.946352
  20
24.416765
  30
0.0
  0
VERTEX
  8
0
  10
70.934101
  20
24.427903
  30
0.0
  0
VERTEX
  8
0
  10
70.922249
  20
24.438779
  30
0.0
  0
VERTEX
  8
0
  10
70.910704
  20
24.4494
  30
0.0
  0
VERTEX
  8
0
  10
70.89938
  20
24.459774
  30
0.0
  0
VERTEX
  8
0
  10
70.888186
  20
24.469909
  30
0.0
  0
VERTEX
  8
0
  10
70.877034
  20
24.479813
  30
0.0
  0
VERTEX
  8
0
  10
70.865834
  20
24.489494
  30
0.0
  0
VERTEX
  8
0
  10
70.854497
  20
24.49896
  30
0.0
  0
VERTEX
  8
0
  10
70.842935
  20
24.508219
  30
0.0
  0
VERTEX
  8
0
  10
70.831059
  20
24.517278
  30
0.0
  0
VERTEX
  8
0
  10
70.818778
  20
24.526147
  30
0.0
  0
VERTEX
  8
0
  10
70.806006
  20
24.534832
  30
0.0
  0
VERTEX
  8
0
  10
70.792651
  20
24.543341
  30
0.0
  0
VERTEX
  8
0
  10
70.778626
  20
24.551683
  30
0.0
  0
VERTEX
  8
0
  10
70.763841
  20
24.559866
  30
0.0
  0
VERTEX
  8
0
  10
70.748207
  20
24.567897
  30
0.0
  0
VERTEX
  8
0
  10
70.731635
  20
24.575785
  30
0.0
  0
VERTEX
  8
0
  10
70.708984
  20
24.58632
  30
0.0
  0
VERTEX
  8
0
  10
70.6867
  20
24.596976
  30
0.0
  0
VERTEX
  8
0
  10
70.664737
  20
24.607723
  30
0.0
  0
VERTEX
  8
0
  10
70.643046
  20
24.618532
  30
0.0
  0
VERTEX
  8
0
  10
70.621582
  20
24.629373
  30
0.0
  0
VERTEX
  8
0
  10
70.600298
  20
24.640219
  30
0.0
  0
VERTEX
  8
0
  10
70.579146
  20
24.65104
  30
0.0
  0
VERTEX
  8
0
  10
70.55808
  20
24.661806
  30
0.0
  0
VERTEX
  8
0
  10
70.537053
  20
24.67249
  30
0.0
  0
VERTEX
  8
0
  10
70.516018
  20
24.683061
  30
0.0
  0
VERTEX
  8
0
  10
70.494929
  20
24.69349
  30
0.0
  0
VERTEX
  8
0
  10
70.473738
  20
24.703749
  30
0.0
  0
VERTEX
  8
0
  10
70.452399
  20
24.713809
  30
0.0
  0
VERTEX
  8
0
  10
70.430864
  20
24.72364
  30
0.0
  0
VERTEX
  8
0
  10
70.409087
  20
24.733214
  30
0.0
  0
VERTEX
  8
0
  10
70.387022
  20
24.742501
  30
0.0
  0
VERTEX
  8
0
  10
70.36462
  20
24.751472
  30
0.0
  0
VERTEX
  8
0
  10
70.341836
  20
24.760099
  30
0.0
  0
VERTEX
  8
0
  10
70.318622
  20
24.768351
  30
0.0
  0
VERTEX
  8
0
  10
70.294932
  20
24.776201
  30
0.0
  0
VERTEX
  8
0
  10
70.269399
  20
24.784299
  30
0.0
  0
VERTEX
  8
0
  10
70.243838
  20
24.792312
  30
0.0
  0
VERTEX
  8
0
  10
70.218249
  20
24.800239
  30
0.0
  0
VERTEX
  8
0
  10
70.192633
  20
24.80808
  30
0.0
  0
VERTEX
  8
0
  10
70.166989
  20
24.815835
  30
0.0
  0
VERTEX
  8
0
  10
70.141319
  20
24.823504
  30
0.0
  0
VERTEX
  8
0
  10
70.115622
  20
24.831087
  30
0.0
  0
VERTEX
  8
0
  10
70.0899
  20
24.838583
  30
0.0
  0
VERTEX
  8
0
  10
70.064152
  20
24.845994
  30
0.0
  0
VERTEX
  8
0
  10
70.03838
  20
24.853317
  30
0.0
  0
VERTEX
  8
0
  10
70.012583
  20
24.860554
  30
0.0
  0
VERTEX
  8
0
  10
69.986762
  20
24.867705
  30
0.0
  0
VERTEX
  8
0
  10
69.960917
  20
24.874768
  30
0.0
  0
VERTEX
  8
0
  10
69.935049
  20
24.881744
  30
0.0
  0
VERTEX
  8
0
  10
69.909158
  20
24.888634
  30
0.0
  0
VERTEX
  8
0
  10
69.883246
  20
24.895435
  30
0.0
  0
VERTEX
  8
0
  10
69.857311
  20
24.90215
  30
0.0
  0
VERTEX
  8
0
  10
69.831355
  20
24.908777
  30
0.0
  0
VERTEX
  8
0
  10
69.805378
  20
24.915316
  30
0.0
  0
VERTEX
  8
0
  10
69.77938
  20
24.921768
  30
0.0
  0
SEQEND
  0
ENDBLK
  0
ENDSEC
  0
SECTION
  2
ENTITIES
  0
LINE
  8
0
  6
CONTINUOUS
  62
7
  10
-10.0
  20
0.0
  11
10.0
  21
0.0
  0
LINE
  8
0
  6
CONTINUOUS
  62
7
  10
0.0
  20
10.0
  11
0.0
  21
10.0
  0
LINE
  8
0
  6
CONTINUOUS
  62
7
  10
0.0
  20
10.0
  11
0.0
  21
10.0
  0
LINE
  8
0
  6
CONTINUOUS
  62
7
  10
0.0
  20
10.0
  11
0.0
  21
-8.156347
  0
ARC
  8
0
  6
CONTINUOUS
  62
7
  10
0.0
  20
1.2
  40
3.0
  50
-89.683252
  51
0.0
  0
ARC
  8
0
  6
CONTINUOUS
  62
7
  10
0.0
  20
2.3
  40
5.6
  50
-89.780077
  51
0.0
  0
ARC
  8
0
  6
CONTINUOUS
  62
7
  10
0.0
  20
3.5
  40
7.8
  50
-89.877988
  51
0.0
  0
ARC
  8
0
  6
CONTINUOUS
  62
7
  10
0.0
  20
4.6
  40
9.6
  50
-89.863044
  51
0.0
  0
ARC
  8
0
  6
CONTINUOUS
  62
7
  10
0.0
  20
5.8
  40
10.9
  50
-89.886901
  51
0.0
  0
ARC
  8
0
  6
CONTINUOUS
  62
7
  10
0.0
  20
6.9
  40
11.7
  50
-179.5913
  51
-89.932233
  0
ARC
  8
0
  6
CONTINUOUS
  62
7
  10
0.000001
  20
8.099999
  40
12.2
  50
-173.017407
  51
-89.777441
  0
ARC
  8
0
  6
CONTINUOUS
  62
7
  10
0.0
  20
9.2
  40
12.3
  50
-166.796129
  51
-90.170689
  0
ARC
  8
0
  6
CONTINUOUS
  62
7
  10
0.0
  20
10.400001
  40
12.2
  50
-159.758289
  51
-90.158285
  0
ARC
  8
0
  6
CONTINUOUS
  62
7
  10
0.0
  20
11.5
  40
11.5
  50
-151.66752
  51
-90.114709
  0
INSERT
  8
0
  6
CONTINUOUS
  62
7
  2
*C0
  10
0.0
  20
0.0
  1001
ACAD
  1000
TCW30CURVE
  1002
{
  1070
20
  1070
0
  1070
1
  1000

  1070
0
  1071
0
  1040
1.0
  1040
0.0
  1000
CONTINUOUS
  1000
0
  1070
15
  1071
13
  1071
162
  1010
-11.699702
  1020
6.816544
  1030
0.0
  1071
6274
  1010
-11.850588
  1020
6.834543
  1030
0.0
  1071
6274
  1010
-12.030696
  1020
6.74679
  1030
0.0
  1071
130
  1010
-12.109513
  1020
6.616873
  1030
0.0
  1071
6274
  1010
-12.158418
  1020
6.536262
  1030
0.0
  1071
6274
  1010
-12.047751
  1020
6.424307
  1030
0.0
  1071
130
  1010
-11.970177
  1020
6.370713
  1030
0.0
  1071
6274
  1010
-11.811996
  1020
6.26143
  1030
0.0
  1071
6274
  1010
-11.625801
  1020
6.185559
  1030
0.0
  1071
130
  1010
-11.436508
  1020
6.15191
  1030
0.0
  1071
6274
  1010
-11.003733
  1020
6.074979
  1030
0.0
  1071
6274
  1010
-10.561937
  1020
6.03811
  1030
0.0
  1071
162
  1010
-10.122397
  1020
6.042245
  1030
0.0
  1002
}
  0
LINE
  8
0
  6
CONTINUOUS
  62
7
  10
0.0
  20
8.0
  11
0.5
  21
8.0
  0
LINE
  8
0
  6
CONTINUOUS
  62
7
  10
10.9
  20
5.8
  11
10.908938
  21
7.022577
  0
LINE
  8
0
  6
CONTINUOUS
  62
7
  10
0.5
  20
8.0
  11
10.90803
  21
6.898425
  0
INSERT
  8
0
  6
CONTINUOUS
  62
7
  2
*C1
  10
0.0
  20
0.0
  1001
ACAD
  1000
TCW30CURVE
  1002
{
  1070
20
  1070
0
  1070
1
  1000

  1070
0
  1071
0
  1040
1.0
  1040
0.0
  1000
CONTINUOUS
  1000
0
  1070
15
  1071
13
  1071
162
  1010
2.935875
  1020
0.58304
  1030
0.0
  1071
6274
  1010
3.027023
  1020
1.109832
  1030
0.0
  1071
6274
  1010
3.100992
  1020
1.639886
  1030
0.0
  1071
130
  1010
3.157544
  1020
2.171506
  1030
0.0
  1071
6274
  1010
3.24374
  1020
2.981797
  1030
0.0
  1071
6274
  1010
3.315169
  1020
3.793963
  1030
0.0
  1071
130
  1010
3.363973
  1020
4.607363
  1030
0.0
  1071
6274
  1010
3.397777
  1020
5.170756
  1030
0.0
  1071
6274
  1010
3.393786
  1020
5.735788
  1030
0.0
  1071
130
  1010
3.405259
  1020
6.300077
  1030
0.0
  1071
6274
  1010
3.41468
  1020
6.763426
  1030
0.0
  1071
6274
  1010
3.421811
  1020
7.226827
  1030
0.0
  1071
162
  1010
3.426653
  1020
7.690246
  1030
0.0
  1002
}
  0
INSERT
  8
0
  6
CONTINUOUS
  62
7
  2
*C2
  10
0.0
  20
0.0
  1001
ACAD
  1000
TCW30CURVE
  1002
{
  1070
20
  1070
0
  1070
1
  1000

  1070
0
  1071
0
  1040
1.0
  1040
0.0
  1000
CONTINUOUS
  1000
0
  1070
15
  1071
10
  1071
162
  1010
7.743851
  1020
2.565777
  1030
0.0
  1071
6274
  1010
7.803716
  1020
3.128106
  1030
0.0
  1071
6274
  1010
7.85071
  1020
3.691954
  1030
0.0
  1071
130
  1010
7.884759
  1020
4.256434
  1030
0.0
  1071
6274
  1010
7.91834
  1020
4.813162
  1030
0.0
  1071
6274
  1010
7.934934
  1020
5.37089
  1030
0.0
  1071
130
  1010
7.946687
  1020
5.928506
  1030
0.0
  1071
6274
  1010
7.955701
  1020
6.356179
  1030
0.0
  1071
6274
  1010
7.955824
  1020
6.784133
  1030
0.0
  1071
162
  1010
7.947052
  1020
7.211812
  1030
0.0
  1002
}
  0
INSERT
  8
0
  6
CONTINUOUS
  62
7
  2
*C3
  10
0.0
  20
0.0
  1001
ACAD
  1000
TCW30CURVE
  1002
{
  1070
20
  1070
0
  1070
1
  1000

  1070
0
  1071
0
  1040
1.0
  1040
0.0
  1000
CONTINUOUS
  1000
0
  1070
15
  1071
7
  1071
162
  1010
9.585496
  1020
4.072479
  1030
0.0
  1071
6274
  1010
9.620887
  1020
4.649319
  1030
0.0
  1071
6274
  1010
9.645745
  1020
5.226901
  1030
0.0
  1071
130
  1010
9.660045
  1020
5.804649
  1030
0.0
  1071
6274
  1010
9.670157
  1020
6.213191
  1030
0.0
  1071
6274
  1010
9.669713
  1020
6.622131
  1030
0.0
  1071
162
  1010
9.658714
  1020
7.030651
  1030
0.0
  1002
}
  0
INSERT
  8
0
  6
CONTINUOUS
  62
7
  2
*C4
  10
0.0
  20
0.0
  1001
ACAD
  1000
TCW30CURVE
  1002
{
  1070
20
  1070
0
  1070
1
  1000

  1070
0
  1071
0
  1040
1.0
  1040
0.0
  1000
CONTINUOUS
  1000
0
  1070
15
  1071
10
  1071
162
  1010
5.562913
  1020
1.656573
  1030
0.0
  1071
6274
  1010
5.639059
  1020
2.314948
  1030
0.0
  1071
6274
  1010
5.697431
  1020
2.975622
  1030
0.0
  1071
130
  1010
5.737902
  1020
3.637149
  1030
0.0
  1071
6274
  1010
5.783312
  1020
4.379413
  1030
0.0
  1071
6274
  1010
5.804287
  1020
5.123101
  1030
0.0
  1071
130
  1010
5.820473
  1020
5.866577
  1030
0.0
  1071
6274
  1010
5.831866
  1020
6.389884
  1030
0.0
  1071
6274
  1010
5.831917
  1020
6.913561
  1030
0.0
  1071
162
  1010
5.820625
  1020
7.436871
  1030
0.0
  1002
}
  0
LINE
  8
0
  6
CONTINUOUS
  62
7
  10
0.0
  20
9.984464
  11
-0.002073
  21
12.315893
  0
INSERT
  8
0
  6
CONTINUOUS
  62
7
  2
*C5
  10
0.0
  20
0.0
  1001
ACAD
  1000
TCW30CURVE
  1002
{
  1070
20
  1070
0
  1070
1
  1000

  1070
0
  1071
0
  1040
1.0
  1040
0.0
  1000
CONTINUOUS
  1000
0
  1070
15
  1071
13
  1071
162
  1010
-0.002073
  1020
10.907321
  1030
0.0
  1071
6274
  1010
0.984893
  1020
10.747384
  1030
0.0
  1071
6274
  1010
1.967005
  1020
10.66607
  1030
0.0
  1071
130
  1010
2.936499
  1020
10.421607
  1030
0.0
  1071
6274
  1010
3.895107
  1020
10.179889
  1030
0.0
  1071
6274
  1010
4.848954
  1020
9.909786
  1030
0.0
  1071
130
  1010
5.777928
  1020
9.571607
  1030
0.0
  1071
6274
  1010
6.697857
  1020
9.236721
  1030
0.0
  1071
6274
  1010
7.606319
  1020
8.859951
  1030
0.0
  1071
130
  1010
8.473642
  1020
8.405893
  1030
0.0
  1071
6274
  1010
9.311218
  1020
7.967408
  1030
0.0
  1071
6274
  1010
10.117418
  1020
7.463021
  1030
0.0
  1071
162
  1010
10.878078
  1020
6.901595
  1030
0.0
  1002
}
  0
INSERT
  8
0
  6
CONTINUOUS
  62
7
  2
*C6
  10
0.0
  20
0.0
  1001
ACAD
  1000
TCW30CURVE
  1002
{
  1070
20
  1070
0
  1070
1
  1000

  1070
0
  1071
0
  1040
1.0
  1040
0.0
  1000
CONTINUOUS
  1000
0
  1070
15
  1071
16
  1071
162
  1010
9.661992
  1020
7.030304
  1030
0.0
  1071
6274
  1010
9.156362
  1020
7.324174
  1030
0.0
  1071
6274
  1010
8.6379
  1020
7.596995
  1030
0.0
  1071
130
  1010
8.109356
  1020
7.847321
  1030
0.0
  1071
6274
  1010
7.46379
  1020
8.15307
  1030
0.0
  1071
6274
  1010
6.810884
  1020
8.446087
  1030
0.0
  1071
130
  1010
6.142213
  1020
8.697321
  1030
0.0
  1071
6274
  1010
5.408907
  1020
8.97284
  1030
0.0
  1071
6274
  1010
4.659052
  1020
9.203493
  1030
0.0
  1071
130
  1010
3.907927
  1020
9.425893
  1030
0.0
  1071
6274
  1010
3.209421
  1020
9.632713
  1030
0.0
  1071
6274
  1010
2.554776
  1020
9.777863
  1030
0.0
  1071
130
  1010
1.843642
  1020
9.935893
  1030
0.0
  1071
6274
  1010
1.242119
  1020
10.069565
  1030
0.0
  1071
6274
  1010
0.609347
  1020
10.126464
  1030
0.0
  1071
162
  1010
-0.002073
  1020
10.203036
  1030
0.0
  1002
}
  0
INSERT
  8
0
  6
CONTINUOUS
  62
7
  2
*C7
  10
0.0
  20
0.0
  1001
ACAD
  1000
TCW30CURVE
  1002
{
  1070
20
  1070
0
  1070
1
  1000

  1070
0
  1071
0
  1040
1.0
  1040
0.0
  1000
CONTINUOUS
  1000
0
  1070
15
  1071
16
  1071
162
  1010
7.947443
  1020
7.191764
  1030
0.0
  1071
6274
  1010
7.317563
  1020
7.437636
  1030
0.0
  1071
6274
  1010
6.683241
  1020
7.672419
  1030
0.0
  1071
130
  1010
6.04507
  1020
7.895893
  1030
0.0
  1071
6274
  1010
5.457957
  1020
8.101488
  1030
0.0
  1071
6274
  1010
4.867941
  1020
8.299642
  1030
0.0
  1071
130
  1010
4.272213
  1020
8.47875
  1030
0.0
  1071
6274
  1010
3.628995
  1020
8.672136
  1030
0.0
  1071
6274
  1010
3.055328
  1020
8.832002
  1030
0.0
  1071
130
  1010
2.402213
  1020
8.98875
  1030
0.0
  1071
6274
  1010
1.840281
  1020
9.123614
  1030
0.0
  1071
6274
  1010
1.196248
  1020
9.192267
  1030
0.0
  1071
130
  1010
0.629356
  1020
9.304464
  1030
0.0
  1071
6274
  1010
0.419101
  1020
9.346077
  1030
0.0
  1071
6274
  1010
0.208619
  1020
9.337983
  1030
0.0
  1071
162
  1010
-0.002073
  1020
9.377321
  1030
0.0
  1002
}
  0
INSERT
  8
0
  6
CONTINUOUS
  62
7
  2
*C8
  10
0.0
  20
0.0
  1001
ACAD
  1000
TCW30CURVE
  1002
{
  1070
20
  1070
0
  1070
1
  1000

  1070
0
  1071
0
  1040
1.0
  1040
0.0
  1000
CONTINUOUS
  1000
0
  1070
15
  1071
13
  1071
162
  1010
5.826686
  1020
7.436229
  1030
0.0
  1071
6274
  1010
5.353821
  1020
7.589055
  1030
0.0
  1071
6274
  1010
4.875612
  1020
7.726237
  1030
0.0
  1071
130
  1010
4.393642
  1020
7.847321
  1030
0.0
  1071
6274
  1010
3.717475
  1020
8.017193
  1030
0.0
  1071
6274
  1010
3.036935
  1020
8.170305
  1030
0.0
  1071
130
  1010
2.353642
  1020
8.30875
  1030
0.0
  1071
6274
  1010
1.797977
  1020
8.421336
  1030
0.0
  1071
6274
  1010
1.238212
  1020
8.51346
  1030
0.0
  1071
130
  1010
0.677927
  1020
8.600178
  1030
0.0
  1071
6274
  1010
0.453325
  1020
8.634941
  1030
0.0
  1071
6274
  1010
0.22686
  1020
8.659279
  1030
0.0
  1071
162
  1010
0.0
  1020
8.673035
  1030
0.0
  1002
}
  0
INSERT
  8
0
  6
CONTINUOUS
  62
7
  2
*C9
  10
0.0
  20
0.0
  1001
ACAD
  1000
TCW30CURVE
  1002
{
  1070
20
  1070
0
  1070
1
  1000

  1070
0
  1071
0
  1040
1.0
  1040
0.0
  1000
CONTINUOUS
  1000
0
  1070
15
  1071
7
  1071
162
  1010
3.37304
  1020
7.69592
  1030
0.0
  1071
6274
  1010
2.785359
  1020
7.818788
  1030
0.0
  1071
6274
  1010
2.194186
  1020
7.925998
  1030
0.0
  1071
130
  1010
1.600784
  1020
8.017321
  1030
0.0
  1071
6274
  1010
1.076793
  1020
8.097962
  1030
0.0
  1071
6274
  1010
0.550121
  1020
8.162784
  1030
0.0
  1071
162
  1010
0.022213
  1020
8.211607
  1030
0.0
  1002
}
  0
LINE
  8
0
  6
CONTINUOUS
  62
7
  10
10.0
  20
0.0
  11
125.733857
  21
0.0
  0
LINE
  8
0
  6
CONTINUOUS
  62
7
  10
30.0
  20
0.0
  11
30.0
  21
3.45
  0
LINE
  8
0
  6
CONTINUOUS
  62
7
  10
40.0
  20
0.0
  11
40.0
  21
5.85
  0
LINE
  8
0
  6
CONTINUOUS
  62
7
  10
50.0
  20
0.0
  11
57.95
  21
0.0
  0
LINE
  8
0
  6
CONTINUOUS
  62
7
  10
50.0
  20
0.0
  11
50.0
  21
7.95
  0
LINE
  8
0
  6
CONTINUOUS
  62
7
  10
60.0
  20
0.0
  11
69.7
  21
0.0
  0
LINE
  8
0
  6
CONTINUOUS
  62
7
  10
60.0
  20
0.0
  11
60.0
  21
9.7
  0
LINE
  8
0
  6
CONTINUOUS
  62
7
  10
70.0
  20
0.0
  11
70.0
  21
10.9
  0
LINE
  8
0
  6
CONTINUOUS
  62
7
  10
80.0
  20
0.0
  11
80.0
  21
11.7
  0
LINE
  8
0
  6
CONTINUOUS
  62
7
  10
90.0
  20
0.0
  11
90.0
  21
12.1
  0
LINE
  8
0
  6
CONTINUOUS
  62
7
  10
100.0
  20
0.0
  11
100.0
  21
11.9
  0
LINE
  8
0
  6
CONTINUOUS
  62
7
  10
110.0
  20
0.0
  11
110.0
  21
11.0
  0
LINE
  8
0
  6
CONTINUOUS
  62
7
  10
120.0
  20
0.0
  11
120.0
  21
10.1
  0
INSERT
  8
0
  6
CONTINUOUS
  62
7
  2
*C10
  10
0.0
  20
0.0
  1001
ACAD
  1000
TCW30CURVE
  1002
{
  1070
20
  1070
0
  1070
1
  1000

  1070
0
  1071
0
  1040
1.0
  1040
0.0
  1000
CONTINUOUS
  1000
0
  1070
15
  1071
31
  1071
162
  1010
21.0286
  1020
0.829109
  1030
0.0
  1071
6274
  1010
24.335795
  1020
1.897058
  1030
0.0
  1071
6274
  1010
26.642693
  1020
2.55192
  1030
0.0
  1071
130
  1010
30.0
  1020
3.45
  1030
0.0
  1071
6274
  1010
33.311555
  1020
4.335841
  1030
0.0
  1071
6274
  1010
36.65562
  1020
5.097515
  1030
0.0
  1071
130
  1010
40.0
  1020
5.85
  1030
0.0
  1071
6274
  1010
43.322966
  1020
6.597667
  1030
0.0
  1071
6274
  1010
46.655366
  1020
7.306158
  1030
0.0
  1071
130
  1010
50.0
  1020
7.95
  1030
0.0
  1071
6274
  1010
53.322982
  1020
8.589674
  1030
0.0
  1071
6274
  1010
56.652231
  1020
9.206204
  1030
0.0
  1071
130
  1010
60.0
  1020
9.7
  1030
0.0
  1071
6274
  1010
63.321312
  1020
10.189894
  1030
0.0
  1071
6274
  1010
66.659414
  1020
10.565941
  1030
0.0
  1071
130
  1010
70.0
  1020
10.9
  1030
0.0
  1071
6274
  1010
73.327387
  1020
11.232739
  1030
0.0
  1071
6274
  1010
76.66202
  1020
11.499721
  1030
0.0
  1071
130
  1010
80.0
  1020
11.7
  1030
0.0
  1071
6274
  1010
83.33001
  1020
11.899801
  1030
0.0
  1071
6274
  1010
86.664168
  1020
12.066642
  1030
0.0
  1071
130
  1010
90.0
  1020
12.1
  1030
0.0
  1071
6274
  1010
93.333833
  1020
12.133338
  1030
0.0
  1071
6274
  1010
96.671031
  1020
12.083093
  1030
0.0
  1071
130
  1010
100.0
  1020
11.9
  1030
0.0
  1071
6274
  1010
103.341756
  1020
11.716204
  1030
0.0
  1071
6274
  1010
106.67099
  1020
11.344675
  1030
0.0
  1071
130
  1010
110.0
  1020
11.0
  1030
0.0
  1071
6274
  1010
113.338254
  1020
10.654368
  1030
0.0
  1071
6274
  1010
116.672184
  1020
10.481352
  1030
0.0
  1071
162
  1010
120.0
  1020
10.046564
  1030
0.0
  1002
}
  0
POINT
  8
0
  62
7
  10
30.0
  20
2.8
  1001
ACAD
  1000
TCW30POINT
  1002
{
  1070
3
  1040
0.25
  1000

  1070
0
  1071
0
  1040
1.0
  1040
0.0
  1000
CONTINUOUS
  1000
0
  1071
4
  1071
242
  1010
30.0
  1020
2.8
  1030
0.0
  1071
242
  1010
30.0
  1020
2.8
  1030
0.0
  1071
242
  1010
30.0
  1020
2.8
  1030
0.0
  1071
242
  1010
30.0
  1020
2.8
  1030
0.0
  1002
}
  0
POINT
  8
0
  62
7
  10
30.0
  20
2.8
  1001
ACAD
  1000
TCW30POINT
  1002
{
  1070
3
  1040
0.25
  1000

  1070
0
  1071
0
  1040
1.0
  1040
0.0
  1000
CONTINUOUS
  1000
0
  1071
4
  1071
242
  1010
30.0
  1020
2.8
  1030
0.0
  1071
242
  1010
30.0
  1020
2.8
  1030
0.0
  1071
242
  1010
30.0
  1020
2.8
  1030
0.0
  1071
242
  1010
30.0
  1020
2.8
  1030
0.0
  1002
}
  0
POINT
  8
0
  62
7
  10
40.0
  20
5.2
  1001
ACAD
  1000
TCW30POINT
  1002
{
  1070
3
  1040
0.25
  1000

  1070
0
  1071
0
  1040
1.0
  1040
0.0
  1000
CONTINUOUS
  1000
0
  1071
4
  1071
242
  1010
40.0
  1020
5.2
  1030
0.0
  1071
242
  1010
40.0
  1020
5.2
  1030
0.0
  1071
242
  1010
40.0
  1020
5.2
  1030
0.0
  1071
242
  1010
40.0
  1020
5.2
  1030
0.0
  1002
}
  0
POINT
  8
0
  62
7
  10
50.0
  20
7.0
  1001
ACAD
  1000
TCW30POINT
  1002
{
  1070
3
  1040
0.25
  1000

  1070
0
  1071
0
  1040
1.0
  1040
0.0
  1000
CONTINUOUS
  1000
0
  1071
4
  1071
242
  1010
50.0
  1020
7.0
  1030
0.0
  1071
242
  1010
50.0
  1020
7.0
  1030
0.0
  1071
242
  1010
50.0
  1020
7.0
  1030
0.0
  1071
242
  1010
50.0
  1020
7.0
  1030
0.0
  1002
}
  0
POINT
  8
0
  62
7
  10
60.0
  20
8.4
  1001
ACAD
  1000
TCW30POINT
  1002
{
  1070
3
  1040
0.25
  1000

  1070
0
  1071
0
  1040
1.0
  1040
0.0
  1000
CONTINUOUS
  1000
0
  1071
4
  1071
242
  1010
60.0
  1020
8.4
  1030
0.0
  1071
242
  1010
60.0
  1020
8.4
  1030
0.0
  1071
242
  1010
60.0
  1020
8.4
  1030
0.0
  1071
242
  1010
60.0
  1020
8.4
  1030
0.0
  1002
}
  0
POINT
  8
0
  62
7
  10
70.0
  20
9.2
  1001
ACAD
  1000
TCW30POINT
  1002
{
  1070
3
  1040
0.25
  1000

  1070
0
  1071
0
  1040
1.0
  1040
0.0
  1000
CONTINUOUS
  1000
0
  1071
4
  1071
242
  1010
70.0
  1020
9.2
  1030
0.0
  1071
242
  1010
70.0
  1020
9.2
  1030
0.0
  1071
242
  1010
70.0
  1020
9.2
  1030
0.0
  1071
242
  1010
70.0
  1020
9.2
  1030
0.0
  1002
}
  0
POINT
  8
0
  62
7
  10
80.0
  20
9.4
  1001
ACAD
  1000
TCW30POINT
  1002
{
  1070
3
  1040
0.25
  1000

  1070
0
  1071
0
  1040
1.0
  1040
0.0
  1000
CONTINUOUS
  1000
0
  1071
4
  1071
242
  1010
80.0
  1020
9.4
  1030
0.0
  1071
242
  1010
80.0
  1020
9.4
  1030
0.0
  1071
242
  1010
80.0
  1020
9.4
  1030
0.0
  1071
242
  1010
80.0
  1020
9.4
  1030
0.0
  1002
}
  0
POINT
  8
0
  62
7
  10
90.0
  20
9.1
  1001
ACAD
  1000
TCW30POINT
  1002
{
  1070
3
  1040
0.25
  1000

  1070
0
  1071
0
  1040
1.0
  1040
0.0
  1000
CONTINUOUS
  1000
0
  1071
4
  1071
242
  1010
90.0
  1020
9.1
  1030
0.0
  1071
242
  1010
90.0
  1020
9.1
  1030
0.0
  1071
242
  1010
90.0
  1020
9.1
  1030
0.0
  1071
242
  1010
90.0
  1020
9.1
  1030
0.0
  1002
}
  0
POINT
  8
0
  62
7
  10
100.0
  20
8.2
  1001
ACAD
  1000
TCW30POINT
  1002
{
  1070
3
  1040
0.25
  1000

  1070
0
  1071
0
  1040
1.0
  1040
0.0
  1000
CONTINUOUS
  1000
0
  1071
4
  1071
242
  1010
100.0
  1020
8.2
  1030
0.0
  1071
242
  1010
100.0
  1020
8.2
  1030
0.0
  1071
242
  1010
100.0
  1020
8.2
  1030
0.0
  1071
242
  1010
100.0
  1020
8.2
  1030
0.0
  1002
}
  0
POINT
  8
0
  62
7
  10
110.0
  20
6.4
  1001
ACAD
  1000
TCW30POINT
  1002
{
  1070
3
  1040
0.25
  1000

  1070
0
  1071
0
  1040
1.0
  1040
0.0
  1000
CONTINUOUS
  1000
0
  1071
4
  1071
242
  1010
110.0
  1020
6.4
  1030
0.0
  1071
242
  1010
110.0
  1020
6.4
  1030
0.0
  1071
242
  1010
110.0
  1020
6.4
  1030
0.0
  1071
242
  1010
110.0
  1020
6.4
  1030
0.0
  1002
}
  0
POINT
  8
0
  62
7
  10
120.0
  20
0.0
  1001
ACAD
  1000
TCW30POINT
  1002
{
  1070
3
  1040
0.25
  1000

  1070
0
  1071
0
  1040
1.0
  1040
0.0
  1000
CONTINUOUS
  1000
0
  1071
4
  1071
242
  1010
120.0
  1020
0.0
  1030
0.0
  1071
242
  1010
120.0
  1020
0.0
  1030
0.0
  1071
242
  1010
120.0
  1020
0.0
  1030
0.0
  1071
242
  1010
120.0
  1020
0.0
  1030
0.0
  1002
}
  0
INSERT
  8
0
  6
CONTINUOUS
  62
7
  2
*C11
  10
0.0
  20
0.0
  1001
ACAD
  1000
TCW30CURVE
  1002
{
  1070
20
  1070
0
  1070
1
  1000

  1070
0
  1071
0
  1040
1.0
  1040
0.0
  1000
CONTINUOUS
  1000
0
  1070
15
  1071
31
  1071
162
  1010
20.0
  1020
0.0
  1030
0.0
  1071
6274
  1010
23.315357
  1020
0.995303
  1030
0.0
  1071
6274
  1010
26.649849
  1020
1.928961
  1030
0.0
  1071
130
  1010
30.0
  1020
2.8
  1030
0.0
  1071
6274
  1010
33.317685
  1020
3.662598
  1030
0.0
  1071
6274
  1010
36.645186
  1020
4.495489
  1030
0.0
  1071
130
  1010
40.0
  1020
5.2
  1030
0.0
  1071
6274
  1010
43.314604
  1020
5.896067
  1030
0.0
  1071
6274
  1010
46.655634
  1020
6.464902
  1030
0.0
  1071
130
  1010
50.0
  1020
7.0
  1030
0.0
  1071
6274
  1010
53.323569
  1020
7.53177
  1030
0.0
  1071
6274
  1010
56.654339
  1020
8.031977
  1030
0.0
  1071
130
  1010
60.0
  1020
8.4
  1030
0.0
  1071
6274
  1010
63.323934
  1020
8.765633
  1030
0.0
  1071
6274
  1010
66.660189
  1020
9.033009
  1030
0.0
  1071
130
  1010
70.0
  1020
9.2
  1030
0.0
  1071
6274
  1010
73.32984
  1020
9.366492
  1030
0.0
  1071
6274
  1010
76.666042
  1020
9.41667
  1030
0.0
  1071
130
  1010
80.0
  1020
9.4
  1030
0.0
  1071
6274
  1010
83.334791
  1020
9.383326
  1030
0.0
  1071
6274
  1010
86.671154
  1020
9.299731
  1030
0.0
  1071
130
  1010
90.0
  1020
9.1
  1030
0.0
  1071
6274
  1010
93.340798
  1020
8.899552
  1030
0.0
  1071
6274
  1010
96.683281
  1020
8.647757
  1030
0.0
  1071
130
  1010
100.0
  1020
8.2
  1030
0.0
  1071
6274
  1010
103.356455
  1020
7.746879
  1030
0.0
  1071
6274
  1010
106.866262
  1020
7.684833
  1030
0.0
  1071
130
  1010
110.0
  1020
6.4
  1030
0.0
  1071
6274
  1010
113.661733
  1020
4.898689
  1030
0.0
  1071
6274
  1010
117.103033
  1020
2.696257
  1030
0.0
  1071
162
  1010
120.0
  1020
0.0
  1030
0.0
  1002
}
  0
LINE
  8
0
  6
CONTINUOUS
  62
7
  10
20.0
  20
30.0
  11
126.891856
  21
30.0
  0
LINE
  8
0
  6
CONTINUOUS
  62
7
  10
20.0
  20
30.0
  11
20.0
  21
38.0
  0
LINE
  8
0
  6
CONTINUOUS
  62
7
  10
120.0
  20
30.0
  11
120.0
  21
36.0
  0
LINE
  8
0
  6
CONTINUOUS
  62
7
  10
20.0
  20
38.0
  11
120.0
  21
36.0
  0
LINE
  8
0
  6
CONTINUOUS
  62
7
  10
30.0
  20
30.0
  11
30.0
  21
28.1
  0
LINE
  8
0
  6
CONTINUOUS
  62
7
  10
40.0
  20
30.0
  11
40.0
  21
26.7
  0
LINE
  8
0
  6
CONTINUOUS
  62
7
  10
50.0
  20
30.0
  11
50.0
  21
25.6
  0
LINE
  8
0
  6
CONTINUOUS
  62
7
  10
60.0
  20
30.0
  11
65.0
  21
30.0
  0
LINE
  8
0
  6
CONTINUOUS
  62
7
  10
60.0
  20
30.0
  11
60.0
  21
25.0
  0
LINE
  8
0
  6
CONTINUOUS
  62
7
  10
70.0
  20
30.0
  11
75.2
  21
30.0
  0
LINE
  8
0
  6
CONTINUOUS
  62
7
  10
70.0
  20
30.0
  11
70.0
  21
24.939965
  0
LINE
  8
0
  6
CONTINUOUS
  62
7
  10
80.0
  20
30.0
  11
80.0
  21
25.2
  0
LINE
  8
0
  6
CONTINUOUS
  62
7
  10
90.0
  20
30.0
  11
90.0
  21
25.9
  0
LINE
  8
0
  6
CONTINUOUS
  62
7
  10
100.0
  20
30.0
  11
100.0
  21
26.9
  0
LINE
  8
0
  6
CONTINUOUS
  62
7
  10
110.0
  20
30.0
  11
110.0
  21
28.2
  0
INSERT
  8
0
  6
CONTINUOUS
  62
7
  2
*C12
  10
0.0
  20
0.0
  1001
ACAD
  1000
TCW30CURVE
  1002
{
  1070
20
  1070
0
  1070
1
  1000

  1070
0
  1071
0
  1040
1.0
  1040
0.0
  1000
CONTINUOUS
  1000
0
  1070
15
  1071
31
  1071
162
  1010
20.0
  1020
30.0
  1030
0.0
  1071
6274
  1010
23.312566
  1020
29.265748
  1030
0.0
  1071
6274
  1010
26.648973
  1020
28.63183
  1030
0.0
  1071
130
  1010
30.0
  1020
28.1
  1030
0.0
  1071
6274
  1010
33.318745
  1020
27.573293
  1030
0.0
  1071
6274
  1010
36.652489
  1020
27.156851
  1030
0.0
  1071
130
  1010
39.965342
  1020
26.748031
  1030
0.0
  1071
6274
  1010
43.337229
  1020
26.331926
  1030
0.0
  1071
6274
  1010
46.655622
  1020
25.905319
  1030
0.0
  1071
130
  1010
50.0
  1020
25.6
  1030
0.0
  1071
6274
  1010
53.325499
  1020
25.296405
  1030
0.0
  1071
6274
  1010
56.662562
  1020
25.11234
  1030
0.0
  1071
130
  1010
60.0
  1020
25.0
  1030
0.0
  1071
6274
  1010
63.331536
  1020
24.887859
  1030
0.0
  1071
6274
  1010
66.666744
  1020
24.893459
  1030
0.0
  1071
130
  1010
70.0
  1020
24.926791
  1030
0.0
  1071
6274
  1010
73.33441
  1020
24.960135
  1030
0.0
  1071
6274
  1010
76.669691
  1020
25.031346
  1030
0.0
  1071
130
  1010
80.0
  1020
25.2
  1030
0.0
  1071
6274
  1010
83.338161
  1020
25.369052
  1030
0.0
  1071
6274
  1010
86.67032
  1020
25.647873
  1030
0.0
  1071
130
  1010
90.0
  1020
25.939632
  1030
0.0
  1071
6274
  1010
93.337599
  1020
26.232085
  1030
0.0
  1071
6274
  1010
96.670808
  1020
26.576212
  1030
0.0
  1071
130
  1010
100.0
  1020
26.952472
  1030
0.0
  1071
6274
  1010
103.337922
  1020
27.329719
  1030
0.0
  1071
6274
  1010
106.679159
  1020
27.693982
  1030
0.0
  1071
130
  1010
110.0
  1020
28.2
  1030
0.0
  1071
6274
  1010
113.348255
  1020
28.710195
  1030
0.0
  1071
6274
  1010
116.683997
  1020
29.310629
  1030
0.0
  1071
162
  1010
120.0
  1020
30.0
  1030
0.0
  1002
}
  0
LINE
  8
0
  6
CONTINUOUS
  62
7
  10
70.0
  20
37.0
  11
70.0
  21
41.0
  0
LINE
  8
0
  6
CONTINUOUS
  62
7
  10
70.0
  20
41.0
  11
20.0
  21
38.0
  0
LINE
  8
0
  6
CONTINUOUS
  62
7
  10
71.344232
  20
23.150435
  11
71.350043
  21
-8.493838
  0
LINE
  8
0
  6
CONTINUOUS
  62
7
  10
81.094179
  20
25.25934
  11
76.540852
  21
-8.493838
  0
INSERT
  8
0
  6
CONTINUOUS
  62
7
  2
*C13
  10
0.0
  20
0.0
  1001
ACAD
  1000
TCW30CURVE
  1002
{
  1070
20
  1070
0
  1070
1
  1000

  1070
0
  1071
0
  1040
1.0
  1040
0.0
  1000
CONTINUOUS
  1000
0
  1070
15
  1071
16
  1071
162
  1010
111.244176
  1020
28.394
  1030
0.0
  1071
6274
  1010
111.349124
  1020
25.977778
  1030
0.0
  1071
6274
  1010
111.579538
  1020
23.563773
  1030
0.0
  1071
130
  1010
111.93357
  1020
21.171326
  1030
0.0
  1071
6274
  1010
112.24457
  1020
19.069674
  1030
0.0
  1071
6274
  1010
112.652578
  1020
16.975048
  1030
0.0
  1071
130
  1010
113.236233
  1020
14.932255
  1030
0.0
  1071
6274
  1010
113.843975
  1020
12.805158
  1030
0.0
  1071
6274
  1010
114.67369
  1020
10.745782
  1030
0.0
  1071
130
  1010
115.498753
  1020
8.693184
  1030
0.0
  1071
6274
  1010
115.614685
  1020
8.404767
  1030
0.0
  1071
6274
  1010
115.872825
  1020
7.796095
  1030
0.0
  1071
130
  1010
116.155617
  1020
7.667048
  1030
0.0
  1071
6274
  1010
117.085343
  1020
7.242785
  1030
0.0
  1071
6274
  1010
117.686149
  1020
7.223999
  1030
0.0
  1071
162
  1010
118.693078
  1020
7.156871
  1030
0.0
  1002
}
  0
INSERT
  8
0
  6
CONTINUOUS
  62
7
  2
*C14
  10
0.0
  20
0.0
  1001
ACAD
  1000
TCW30CURVE
  1002
{
  1070
20
  1070
0
  1070
1
  1000

  1070
0
  1071
0
  1040
1.0
  1040
0.0
  1000
CONTINUOUS
  1000
0
  1070
15
  1071
10
  1071
162
  1010
115.273561
  1020
29.080236
  1030
0.0
  1071
6274
  1010
116.346675
  1020
26.464124
  1030
0.0
  1071
6274
  1010
117.178081
  1020
23.735636
  1030
0.0
  1071
130
  1010
117.746186
  1020
20.965642
  1030
0.0
  1071
6274
  1010
118.281649
  1020
18.354805
  1030
0.0
  1071
6274
  1010
118.387873
  1020
15.671565
  1030
0.0
  1071
130
  1010
118.56892
  1020
13.012541
  1030
0.0
  1071
6274
  1010
118.701875
  1020
11.059841
  1030
0.0
  1071
6274
  1010
118.741459
  1020
9.098548
  1030
0.0
  1071
162
  1010
118.687401
  1020
7.142074
  1030
0.0
  1002
}
  0
LINE
  8
0
  6
CONTINUOUS
  62
7
  10
71.349048
  20
24.942566
  11
71.350046
  21
36.972999
  0
LINE
  8
0
  6
CONTINUOUS
  62
7
  10
81.094179
  20
25.25934
  11
76.796035
  21
36.864079
  0
LINE
  8
0
  6
CONTINUOUS
  62
7
  10
113.188833
  20
22.364692
  11
111.44542
  21
33.478955
  0
LINE
  8
0
  6
CONTINUOUS
  62
7
  10
77.645497
  20
36.84709
  11
82.036449
  21
25.316021
  0
LINE
  8
0
  6
CONTINUOUS
  62
7
  10
70.554258
  20
36.988915
  11
70.55308
  21
24.932709
  0
LINE
  8
0
  6
CONTINUOUS
  62
7
  10
111.196447
  20
32.806568
  11
111.856676
  21
28.492516
  0
LINE
  8
0
  6
CONTINUOUS
  62
7
  10
111.864904
  20
32.940365
  11
112.564965
  21
28.607706
  0
LINE
  8
0
  6
CONTINUOUS
  62
7
  10
91.894485
  20
42.043476
  11
91.894485
  21
26.113033
  0
LINE
  8
0
  6
CONTINUOUS
  62
7
  10
91.894485
  20
42.043476
  11
92.688361
  21
42.043476
  0
LINE
  8
0
  6
CONTINUOUS
  62
7
  10
92.688361
  20
42.043476
  11
92.686901
  21
26.193966
  0
LINE
  8
0
  6
CONTINUOUS
  62
7
  10
91.894485
  20
41.77885
  11
92.688361
  21
41.725925
  0
INSERT
  8
0
  6
CONTINUOUS
  62
7
  2
*C15
  10
0.0
  20
0.0
  1001
ACAD
  1000
TCW30CURVE
  1002
{
  1070
20
  1070
0
  1070
1
  1000

  1070
0
  1071
0
  1040
1.0
  1040
0.0
  1000
CONTINUOUS
  1000
0
  1070
15
  1071
19
  1071
162
  1010
21.010964
  1020
0.823538
  1030
0.0
  1071
6274
  1010
20.901234
  1020
0.77986
  1030
0.0
  1071
6274
  1010
20.793003
  1020
0.732212
  1030
0.0
  1071
130
  1010
20.686688
  1020
0.680777
  1030
0.0
  1071
6274
  1010
20.570529
  1020
0.62458
  1030
0.0
  1071
6274
  1010
20.453572
  1020
0.568883
  1030
0.0
  1071
130
  1010
20.343935
  1020
0.500832
  1030
0.0
  1071
6274
  1010
20.287073
  1020
0.465538
  1030
0.0
  1071
6274
  1010
20.237019
  1020
0.419623
  1030
0.0
  1071
130
  1010
20.189696
  1020
0.3723
  1030
0.0
  1071
6274
  1010
20.148059
  1020
0.330663
  1030
0.0
  1071
6274
  1010
20.111413
  1020
0.283891
  1030
0.0
  1071
130
  1010
20.078302
  1020
0.235199
  1030
0.0
  1071
6274
  1010
20.062483
  1020
0.211937
  1030
0.0
  1071
6274
  1010
20.052912
  1020
0.18477
  1030
0.0
  1071
130
  1010
20.044027
  1020
0.158079
  1030
0.0
  1071
6274
  1010
20.026751
  1020
0.10618
  1030
0.0
  1071
6274
  1010
20.012037
  1020
0.053358
  1030
0.0
  1071
162
  1010
20.0
  1020
0.0
  1030
0.0
  1002
}
  0
LINE
  8
0
  6
CONTINUOUS
  62
7
  10
21.010964
  20
0.823538
  11
21.012303
  21
0.0
  0
LINE
  8
0
  6
CONTINUOUS
  62
7
  10
-10.122397
  20
6.042247
  11
0.0
  21
6.012724
  0
INSERT
  8
0
  6
CONTINUOUS
  62
7
  2
*C16
  10
0.0
  20
0.0
  1001
ACAD
  1000
TCW30CURVE
  1002
{
  1070
20
  1070
0
  1070
1
  1000

  1070
0
  1071
0
  1040
1.0
  1040
0.0
  1000
CONTINUOUS
  1000
0
  1070
15
  1071
19
  1071
162
  1010
0.571591
  1020
7.992423
  1030
0.0
  1071
6274
  1010
0.569128
  1020
7.00875
  1030
0.0
  1071
6274
  1010
0.558897
  1020
6.025067
  1030
0.0
  1071
130
  1010
0.5409
  1020
5.041556
  1030
0.0
  1071
6274
  1010
0.517562
  1020
3.76618
  1030
0.0
  1071
6274
  1010
0.511292
  1020
2.489924
  1030
0.0
  1071
130
  1010
0.447592
  1020
1.215927
  1030
0.0
  1071
6274
  1010
0.428262
  1020
0.829323
  1030
0.0
  1071
6274
  1010
0.362681
  1020
0.445721
  1030
0.0
  1071
130
  1010
0.292078
  1020
0.065128
  1030
0.0
  1071
6274
  1010
0.279181
  1020
-0.004395
  1030
0.0
  1071
6274
  1010
0.243596
  1020
-0.07069
  1030
0.0
  1071
130
  1010
0.198772
  1020
-0.125376
  1030
0.0
  1071
6274
  1010
0.175247
  1020
-0.154077
  1030
0.0
  1071
6274
  1010
0.133158
  1020
-0.161116
  1030
0.0
  1071
130
  1010
0.097688
  1020
-0.17203
  1030
0.0
  1071
6274
  1010
0.065105
  1020
-0.182056
  1030
0.0
  1071
6274
  1010
0.030695
  1020
-0.187349
  1030
0.0
  1071
162
  1010
-0.003395
  1020
-0.187581
  1030
0.0
  1002
}
  0
LINE
  8
0
  6
CONTINUOUS
  62
7
  10
111.196981
  20
32.803079
  11
111.871441
  21
32.899637
  0
INSERT
  8
0
  6
CONTINUOUS
  62
7
  2
*C17
  10
0.0
  20
0.0
  1001
ACAD
  1000
TCW30CURVE
  1002
{
  1070
20
  1070
0
  1070
1
  1000

  1070
0
  1071
0
  1040
1.0
  1040
0.0
  1000
CONTINUOUS
  1000
0
  1070
15
  1071
19
  1071
162
  1010
111.579578
  1020
30.303127
  1030
0.0
  1071
6274
  1010
111.599311
  1020
30.10939
  1030
0.0
  1071
6274
  1010
111.608997
  1020
29.914366
  1030
0.0
  1071
130
  1010
111.608558
  1020
29.719627
  1030
0.0
  1071
6274
  1010
111.608288
  1020
29.599951
  1030
0.0
  1071
6274
  1010
111.595106
  1020
29.480314
  1030
0.0
  1071
130
  1010
111.577455
  1020
29.361946
  1030
0.0
  1071
6274
  1010
111.55099
  1020
29.184468
  1030
0.0
  1071
6274
  1010
111.52927
  1020
29.004667
  1030
0.0
  1071
130
  1010
111.476371
  1020
28.833201
  1030
0.0
  1071
6274
  1010
111.453044
  1020
28.75759
  1030
0.0
  1071
6274
  1010
111.407265
  1020
28.687624
  1030
0.0
  1071
130
  1010
111.351961
  1020
28.631034
  1030
0.0
  1071
6274
  1010
111.293175
  1020
28.570882
  1030
0.0
  1071
6274
  1010
111.216229
  1020
28.530651
  1030
0.0
  1071
130
  1010
111.142018
  1020
28.491071
  1030
0.0
  1071
6274
  1010
111.021264
  1020
28.426667
  1030
0.0
  1071
6274
  1010
110.896401
  1020
28.369441
  1030
0.0
  1071
162
  1010
110.768786
  1020
28.320007
  1030
0.0
  1002
}
  0
INSERT
  8
0
  6
CONTINUOUS
  62
7
  2
*C18
  10
0.0
  20
0.0
  1001
ACAD
  1000
TCW30CURVE
  1002
{
  1070
20
  1070
0
  1070
1
  1000

  1070
0
  1071
0
  1040
1.0
  1040
0.0
  1000
CONTINUOUS
  1000
0
  1070
15
  1071
16
  1071
162
  1010
112.285041
  1020
30.302802
  1030
0.0
  1071
6274
  1010
112.334414
  1020
30.091247
  1030
0.0
  1071
6274
  1010
112.399563
  1020
29.882773
  1030
0.0
  1071
130
  1010
112.479433
  1020
29.680749
  1030
0.0
  1071
6274
  1010
112.532293
  1020
29.547045
  1030
0.0
  1071
6274
  1010
112.59763
  1020
29.416446
  1030
0.0
  1071
130
  1010
112.6816
  1020
29.299741
  1030
0.0
  1071
6274
  1010
112.752246
  1020
29.201554
  1030
0.0
  1071
6274
  1010
112.837925
  1020
29.110798
  1030
0.0
  1071
130
  1010
112.938197
  1020
29.043144
  1030
0.0
  1071
6274
  1010
113.056447
  1020
28.96336
  1030
0.0
  1071
6274
  1010
113.18852
  1020
28.898612
  1030
0.0
  1071
130
  1010
113.326981
  1020
28.864304
  1030
0.0
  1071
6274
  1010
113.485975
  1020
28.824908
  1030
0.0
  1071
6274
  1010
113.65363
  1020
28.811601
  1030
0.0
  1071
162
  1010
113.816848
  1020
28.825425
  1030
0.0
  1002
}
  0
INSERT
  8
0
  6
CONTINUOUS
  62
7
  2
*C19
  10
0.0
  20
0.0
  1001
ACAD
  1000
TCW30CURVE
  1002
{
  1070
20
  1070
0
  1070
1
  1000

  1070
0
  1071
0
  1040
1.0
  1040
0.0
  1000
CONTINUOUS
  1000
0
  1070
15
  1071
19
  1071
162
  1010
92.686901
  1020
27.521878
  1030
0.0
  1071
6274
  1010
92.709501
  1020
27.340066
  1030
0.0
  1071
6274
  1010
92.743204
  1020
27.159296
  1030
0.0
  1071
130
  1010
92.787639
  1020
26.981555
  1030
0.0
  1071
6274
  1010
92.813637
  1020
26.877564
  1030
0.0
  1071
6274
  1010
92.848193
  1020
26.774501
  1030
0.0
  1071
130
  1010
92.897535
  1020
26.679341
  1030
0.0
  1071
6274
  1010
92.934633
  1020
26.607794
  1030
0.0
  1071
6274
  1010
92.986231
  1020
26.543154
  1030
0.0
  1071
130
  1010
93.044063
  1020
26.487023
  1030
0.0
  1071
6274
  1010
93.091452
  1020
26.441028
  1030
0.0
  1071
6274
  1010
93.147673
  1020
26.401856
  1030
0.0
  1071
130
  1010
93.208907
  1020
26.377126
  1030
0.0
  1071
6274
  1010
93.30846
  1020
26.33692
  1030
0.0
  1071
6274
  1010
93.414028
  1020
26.310128
  1030
0.0
  1071
130
  1010
93.52028
  1020
26.294704
  1030
0.0
  1071
6274
  1010
93.604868
  1020
26.282425
  1030
0.0
  1071
6274
  1010
93.692116
  1020
26.282425
  1030
0.0
  1071
162
  1010
93.776704
  1020
26.294704
  1030
0.0
  1002
}
  0
INSERT
  8
0
  6
CONTINUOUS
  62
7
  2
*C20
  10
0.0
  20
0.0
  1001
ACAD
  1000
TCW30CURVE
  1002
{
  1070
20
  1070
0
  1070
1
  1000

  1070
0
  1071
0
  1040
1.0
  1040
0.0
  1000
CONTINUOUS
  1000
0
  1070
15
  1071
19
  1071
162
  1010
91.890154
  1020
27.393666
  1030
0.0
  1071
6274
  1010
91.884822
  1020
27.230928
  1030
0.0
  1071
6274
  1010
91.866389
  1020
27.068102
  1030
0.0
  1071
130
  1010
91.835206
  1020
26.908291
  1030
0.0
  1071
6274
  1010
91.817272
  1020
26.816381
  1030
0.0
  1071
6274
  1010
91.784249
  1020
26.727081
  1030
0.0
  1071
130
  1010
91.743626
  1020
26.642709
  1030
0.0
  1071
6274
  1010
91.704319
  1020
26.56107
  1030
0.0
  1071
6274
  1010
91.655262
  1020
26.483233
  1030
0.0
  1071
130
  1010
91.597098
  1020
26.413759
  1030
0.0
  1071
6274
  1010
91.54437
  1020
26.350778
  1030
0.0
  1071
6274
  1010
91.483892
  1020
26.291963
  1030
0.0
  1071
130
  1010
91.413937
  1020
26.248914
  1030
0.0
  1071
6274
  1010
91.323129
  1020
26.193032
  1030
0.0
  1071
6274
  1010
91.221354
  1020
26.156397
  1030
0.0
  1071
130
  1010
91.120881
  1020
26.120702
  1030
0.0
  1071
6274
  1010
90.988905
  1020
26.073815
  1030
0.0
  1071
6274
  1010
90.854195
  1020
26.034015
  1030
0.0
  1071
162
  1010
90.717929
  1020
26.001648
  1030
0.0
  1002
}
  0
LINE
  8
0
  6
CONTINUOUS
  62
7
  10
71.349128
  20
22.268173
  11
80.690377
  21
22.266016
  0
INSERT
  8
0
  6
CONTINUOUS
  62
7
  2
*C21
  10
0.0
  20
0.0
  1001
ACAD
  1000
TCW30CURVE
  1002
{
  1070
20
  1070
0
  1070
1
  1000

  1070
0
  1071
0
  1040
1.0
  1040
0.0
  1000
CONTINUOUS
  1000
0
  1070
15
  1071
19
  1071
162
  1010
71.349127
  1020
22.288287
  1030
0.0
  1071
6274
  1010
71.396997
  1020
22.362401
  1030
0.0
  1071
6274
  1010
71.482467
  1020
22.419455
  1030
0.0
  1071
130
  1010
71.569273
  1020
22.435241
  1030
0.0
  1071
6274
  1010
71.991278
  1020
22.511984
  1030
0.0
  1071
6274
  1010
72.421239
  1020
22.545326
  1030
0.0
  1071
130
  1010
72.849871
  1020
22.561202
  1030
0.0
  1071
6274
  1010
73.556164
  1020
22.587362
  1030
0.0
  1071
6274
  1010
74.263505
  1020
22.571749
  1030
0.0
  1071
130
  1010
74.970205
  1020
22.561202
  1030
0.0
  1071
6274
  1010
75.670222
  1020
22.550755
  1030
0.0
  1071
6274
  1010
76.369982
  1020
22.525521
  1030
0.0
  1071
130
  1010
77.069545
  1020
22.498221
  1030
0.0
  1071
6274
  1010
77.804587
  1020
22.469536
  1030
0.0
  1071
6274
  1010
78.539469
  1020
22.435581
  1030
0.0
  1071
130
  1010
79.273852
  1020
22.393254
  1030
0.0
  1071
6274
  1010
79.747556
  1020
22.365952
  1030
0.0
  1071
6274
  1010
80.220894
  1020
22.331309
  1030
0.0
  1071
162
  1010
80.693525
  1020
22.28935
  1030
0.0
  1002
}
  0
LINE
  8
0
  6
CONTINUOUS
  62
7
  10
20.978572
  20
37.980429
  11
20.98852
  21
29.784028
  0
TEXT
  8
0
  62
7
  10
12.854321
  20
-6.803082
  1
Tom Thumb    ISAF 
  40
1.2
  7
_TCW_TXTSTY_6
  72
5
  11
28.105643
  21
-6.803082
  31
0.0
  1001
ACAD
  1000
TCW40_TEXT
  1002
{
  1000
Times New Roman
  1070
0
  1070
0
  1002
}
  0
TEXT
  8
0
  62
7
  10
28.177973
  20
-6.741571
  1
one metre
  40
0.6
  7
_TCW_TXTSTY_5
  72
5
  11
31.76307
  21
-6.741571
  31
0.0
  1001
ACAD
  1000
TCW40_TEXT
  1002
{
  1000
Times New Roman
  1070
0
  1070
0
  1002
}
  0
TEXT
  8
0
  62
7
  10
13.315876
  20
-9.568719
  1
Brett McCormack   26/7/99
  40
0.6
  7
_TCW_TXTSTY_5
  72
5
  11
23.297358
  21
-9.568719
  31
0.0
  1001
ACAD
  1000
TCW40_TEXT
  1002
{
  1000
Times New Roman
  1070
0
  1070
0
  1002
}
  0
TEXT
  8
0
  62
7
  10
90.132797
  20
-2.600502
  1
Displacment  4kg
  40
0.6
  7
_TCW_TXTSTY_5
  72
5
  11
96.502727
  21
-2.600502
  31
0.0
  1001
ACAD
  1000
TCW40_TEXT
  1002
{
  1000
Times New Roman
  1070
0
  1070
0
  1002
}
  0
TEXT
  8
0
  62
7
  10
90.1865
  20
-4.4264
  1
LCB 522mm aft of stem
  40
0.6
  7
_TCW_TXTSTY_5
  72
5
  11
99.014983
  21
-4.4264
  31
0.0
  1001
ACAD
  1000
TCW40_TEXT
  1002
{
  1000
Times New Roman
  1070
0
  1070
0
  1002
}
  0
TEXT
  8
0
  62
7
  10
90.1865
  20
-6.681921
  1
PC  0.54
  40
0.6
  7
_TCW_TXTSTY_5
  72
5
  11
93.322743
  21
-6.681921
  31
0.0
  1001
ACAD
  1000
TCW40_TEXT
  1002
{
  1000
Times New Roman
  1070
0
  1070
0
  1002
}
  0
TEXT
  8
0
  62
7
  10
90.132797
  20
-8.72263
  1
Wetted area 1567 sq cm
  40
0.6
  7
_TCW_TXTSTY_5
  72
5
  11
98.858106
  21
-8.72263
  31
0.0
  1001
ACAD
  1000
TCW40_TEXT
  1002
{
  1000
Times New Roman
  1070
0
  1070
0
  1002
}
  0
TEXT
  8
0
  62
7
  10
90.347609
  20
-10.56334
  1
Fin and bulb 2.5kg max as per ISAF rulesFin 6mm thick NACA0006 or similar
  40
0.45
  7
_TCW_TXTSTY_7
  72
5
  11
111.909778
  21
-10.56334
  31
0.0
  1001
ACAD
  1000
TCW40_TEXT
  1002
{
  1000
Times New Roman
  1070
0
  1070
0
  1002
}
  0
TEXT
  8
0
  62
7
  10
72.275799
  20
20.600602
  1
Fin NACA0006 or similar
  40
0.45
  7
_TCW_TXTSTY_7
  72
5
  11
79.410059
  21
20.600602
  31
0.0
  1001
ACAD
  1000
TCW40_TEXT
  1002
{
  1000
Times New Roman
  1070
0
  1070
0
  1002
}
  0
LINE
  8
0
  6
CONTINUOUS
  62
7
  10
72.119385
  20
36.957612
  11
72.118999
  21
24.953713
  0
LINE
  8
0
  6
CONTINUOUS
  62
7
  10
71.475069
  20
36.970499
  11
71.475524
  21
24.944225
  0
LINE
  8
0
  6
CONTINUOUS
  62
7
  10
70.421087
  20
36.991578
  11
70.42155
  21
24.931252
  0
LINE
  8
0
  6
CONTINUOUS
  62
7
  10
70.567666
  20
36.988647
  11
70.567818
  21
44.609276
  0
LINE
  8
0
  6
CONTINUOUS
  62
7
  10
71.329249
  20
36.973415
  11
71.32912
  21
44.492152
  0
INSERT
  8
0
  6
CONTINUOUS
  62
7
  2
*C22
  10
0.0
  20
0.0
  1001
ACAD
  1000
TCW30CURVE
  1002
{
  1070
20
  1070
0
  1070
1
  1000

  1070
0
  1071
0
  1040
1.0
  1040
0.0
  1000
CONTINUOUS
  1000
0
  1070
15
  1071
25
  1071
162
  1010
70.567818
  1020
44.609276
  1030
0.0
  1071
6274
  1010
70.566772
  1020
44.647035
  1030
0.0
  1071
6274
  1010
70.574375
  1020
44.685907
  1030
0.0
  1071
130
  1010
70.589569
  1020
44.72049
  1030
0.0
  1071
6274
  1010
70.605593
  1020
44.756962
  1030
0.0
  1071
6274
  1010
70.626833
  1020
44.79448
  1030
0.0
  1071
130
  1010
70.659321
  1020
44.817536
  1030
0.0
  1071
6274
  1010
70.692959
  1020
44.841408
  1030
0.0
  1071
6274
  1010
70.736358
  1020
44.852909
  1030
0.0
  1071
130
  1010
70.777594
  1020
44.853927
  1030
0.0
  1071
6274
  1010
70.821225
  1020
44.855004
  1030
0.0
  1071
6274
  1010
70.8679
  1020
44.846642
  1030
0.0
  1071
130
  1010
70.904966
  1020
44.823601
  1030
0.0
  1071
6274
  1010
70.946318
  1020
44.797896
  1030
0.0
  1071
6274
  1010
70.974368
  1020
44.754508
  1030
0.0
  1071
130
  1010
71.002011
  1020
44.714425
  1030
0.0
  1071
6274
  1010
71.035401
  1020
44.666008
  1030
0.0
  1071
6274
  1010
71.04824
  1020
44.60406
  1030
0.0
  1071
130
  1010
71.086926
  1020
44.559759
  1030
0.0
  1071
6274
  1010
71.113154
  1020
44.529724
  1030
0.0
  1071
6274
  1010
71.151842
  1020
44.510564
  1030
0.0
  1071
130
  1010
71.190036
  1020
44.499106
  1030
0.0
  1071
6274
  1010
71.234744
  1020
44.485694
  1030
0.0
  1071
6274
  1010
71.283187
  1020
44.481481
  1030
0.0
  1071
162
  1010
71.329538
  1020
44.486976
  1030
0.0
  1002
}
  0
INSERT
  8
0
  6
CONTINUOUS
  62
7
  2
*C23
  10
0.0
  20
0.0
  1001
ACAD
  1000
TCW30CURVE
  1002
{
  1070
20
  1070
0
  1070
1
  1000

  1070
0
  1071
0
  1040
1.0
  1040
0.0
  1000
CONTINUOUS
  1000
0
  1070
15
  1071
16
  1071
162
  1010
71.32912
  1020
44.492152
  1030
0.0
  1071
6274
  1010
71.329252
  1020
44.548263
  1030
0.0
  1071
6274
  1010
71.324297
  1020
44.604611
  1030
0.0
  1071
130
  1010
71.314375
  1020
44.659837
  1030
0.0
  1071
6274
  1010
71.308157
  1020
44.694447
  1030
0.0
  1071
6274
  1010
71.302026
  1020
44.731718
  1030
0.0
  1071
130
  1010
71.281016
  1020
44.759915
  1030
0.0
  1071
6274
  1010
71.261417
  1020
44.786219
  1030
0.0
  1071
6274
  1010
71.231429
  1020
44.808752
  1030
0.0
  1071
130
  1010
71.199134
  1020
44.814503
  1030
0.0
  1071
6274
  1010
71.153084
  1020
44.822703
  1030
0.0
  1071
6274
  1010
71.105219
  1020
44.809812
  1030
0.0
  1071
130
  1010
71.059632
  1020
44.79934
  1030
0.0
  1071
6274
  1010
71.029619
  1020
44.792446
  1030
0.0
  1071
6274
  1010
71.000409
  1020
44.779926
  1030
0.0
  1071
162
  1010
70.974717
  1020
44.762948
  1030
0.0
  1002
}
  0
INSERT
  8
0
  6
CONTINUOUS
  62
7
  2
*C24
  10
0.0
  20
0.0
  1001
ACAD
  1000
TCW30CURVE
  1002
{
  1070
20
  1070
0
  1070
1
  1000

  1070
0
  1071
0
  1040
1.0
  1040
0.0
  1000
CONTINUOUS
  1000
0
  1070
15
  1071
16
  1071
162
  1010
71.356363
  1020
22.889626
  1030
0.0
  1071
6274
  1010
71.352933
  1020
23.001868
  1030
0.0
  1071
6274
  1010
71.301776
  1020
23.756966
  1030
0.0
  1071
130
  1010
71.180469
  1020
24.042037
  1030
0.0
  1071
6274
  1010
71.14103
  1020
24.134718
  1030
0.0
  1071
6274
  1010
71.063305
  1020
24.316674
  1030
0.0
  1071
130
  1010
70.986379
  1020
24.381694
  1030
0.0
  1071
6274
  1010
70.890782
  1020
24.462496
  1030
0.0
  1071
6274
  1010
70.845437
  1020
24.523662
  1030
0.0
  1071
130
  1010
70.731635
  1020
24.575785
  1030
0.0
  1071
6274
  1010
70.579302
  1020
24.645556
  1030
0.0
  1071
6274
  1010
70.454558
  1020
24.725277
  1030
0.0
  1071
130
  1010
70.294932
  1020
24.776201
  1030
0.0
  1071
6274
  1010
70.12481
  1020
24.830473
  1030
0.0
  1071
6274
  1010
69.952765
  1020
24.87905
  1030
0.0
  1071
162
  1010
69.77938
  1020
24.921768
  1030
0.0
  1002
}
  0
POINT
  8
0
  62
7
  10
72.26711
  20
31.329755
  1001
ACAD
  1000
TCW30POINT
  1002
{
  1070
3
  1040
0.25
  1000

  1070
0
  1071
0
  1040
1.0
  1040
0.0
  1000
CONTINUOUS
  1000
0
  1071
2
  1071
242
  1010
72.26711
  1020
31.329755
  1030
0.0
  1071
242
  1010
72.26711
  1020
31.329755
  1030
0.0
  1002
}
  0
TEXT
  8
0
  62
7
  10
72.957875
  20
30.979096
  1
LCB 522 aft of stem
  40
0.3
  7
_TCW_TXTSTY_8
  72
5
  11
76.669736
  21
30.979096
  31
0.0
  1001
ACAD
  1000
TCW40_TEXT
  1002
{
  1000
Times New Roman
  1070
0
  1070
0
  1002
}
  0
ENDSEC
  0
EOF
