  0
SECTION
  2
HEADER
  9
$ACADVER
  1
AC1006
  9
$EXTMIN
 10
-3.398189
 20
-1.301323
  9
$EXTMAX
 10
3.004713
 20
1.948091
  9
$LTSCALE
 40
0.000394
  9
$PDMODE
 70
    35
  9
$PDSIZE
 40
0.000315
  0
ENDSEC
  0
SECTION
  2
TABLES
  0
TABLE
  2
LTYPE
 70
     9
  0
LTYPE
  2
CONTINUOUS
 70
    64
  3
Solid line
 72
    65
 73
     0
 40
0.000000
  0
LTYPE
  2
DASHED
 70
    64
  3
__ __ __ __ __ __ __ __ __ __ __ __ __ __ __
 72
    65
 73
     2
 40
0.000003
 49
0.000002
 49
-0.000001
  0
LTYPE
  2
HIDDEN
 70
    64
  3
 _ _ _ _ _ _ _ _ _ _ _ _ _ _ _ _ _ _ _ _ _ _
 72
    65
 73
     2
 40
0.000001
 49
0.000001
 49
-0.000000
  0
LTYPE
  2
CENTER
 70
    64
  3
____ _ ____ _ ____ _ ____ _ ____ _ ____ _ ____
 72
    65
 73
     4
 40
0.000008
 49
0.000005
 49
-0.000001
 49
0.000001
 49
-0.000001
  0
LTYPE
  2
PHANTOM
 70
    64
  3
_____ _ _ _____ _ _ _____ _ _ _____ _ _ ____
 72
    65
 73
     6
 40
0.000010
 49
0.000005
 49
-0.000001
 49
0.000001
 49
-0.000001
 49
0.000001
 49
-0.000001
  0
LTYPE
  2
DOT
 70
    64
  3
...............................................
 72
    65
 73
     2
 40
0.000001
 49
0.000000
 49
-0.000001
  0
LTYPE
  2
DASHDOT
 70
    64
  3
__ . __ . __ . __ . __ . __ . __ . __ . __ . __
 72
    65
 73
     4
 40
0.000004
 49
0.000002
 49
-0.000001
 49
0.000000
 49
-0.000001
  0
LTYPE
  2
BORDER
 70
    64
  3
__ __ . __ __ . __ __ . __ __ . __ __ . __ __
 72
    65
 73
     6
 40
0.000007
 49
0.000002
 49
-0.000001
 49
0.000002
 49
-0.000001
 49
0.000000
 49
-0.000001
  0
LTYPE
  2
DIVIDE
 70
    64
  3
__ . . __ . . __ . . __ . . __ . . __ . . __
 72
    65
 73
     6
 40
0.000005
 49
0.000002
 49
-0.000001
 49
0.000000
 49
-0.000001
 49
0.000000
 49
-0.000001
  0
LTYPE
  2
DOTDOT
 70
    64
  3
 . .  . .  . .  . .  . .  . . 
 72
    65
 73
     5
 40
0.000002
 49
-0.000001
 49
0.000000
 49
-0.000001
 49
0.000000
 49
-0.000001
  0
ENDTAB
  0
TABLE
  2
STYLE
 70
     0
  0
ENDTAB
  0
TABLE
  2
LAYER
 70
     3
  0
LAYER
  2
FOREGROUND
 70
    64
 62
     7
  6
CONTINUOUS
  0
LAYER
  2
BACKGROUND
 70
    65
 62
    -7
  6
CONTINUOUS
  0
LAYER
  2
PLAN_1
 70
    64
 62
     7
  6
CONTINUOUS
  0
ENDTAB
  0
ENDSEC
  0
SECTION
  2
ENTITIES
  0
POLYLINE
  8
PLAN_1
 62
    39
  6
CONTINUOUS
 66
     1
 40
0.003000
 41
0.003000
 70
     1
  0
VERTEX
  8
PLAN_1
 62
    39
  6
CONTINUOUS
 10
0.471744
 20
-0.745154
  0
VERTEX
  8
PLAN_1
 62
    39
  6
CONTINUOUS
 10
-1.177965
 20
-0.560283
  0
VERTEX
  8
PLAN_1
 62
    39
  6
CONTINUOUS
 10
-2.433787
 20
-0.394480
  0
VERTEX
  8
PLAN_1
 62
    39
  6
CONTINUOUS
 10
-2.626854
 20
-0.579350
  0
VERTEX
  8
PLAN_1
 62
    39
  6
CONTINUOUS
 10
-2.923189
 20
-0.582402
  0
VERTEX
  8
PLAN_1
 62
    39
  6
CONTINUOUS
 10
-3.145681
 20
-0.495272
  0
VERTEX
  8
PLAN_1
 62
    39
  6
CONTINUOUS
 10
-3.240878
 20
-0.297185
  0
VERTEX
  8
PLAN_1
 62
    39
  6
CONTINUOUS
 10
-3.282571
 20
-0.153433
  0
VERTEX
  8
PLAN_1
 62
    39
  6
CONTINUOUS
 10
-3.302079
 20
0.069311
  0
VERTEX
  8
PLAN_1
 62
    39
  6
CONTINUOUS
 10
-3.396579
 20
0.108142
  0
VERTEX
  8
PLAN_1
 62
    39
  6
CONTINUOUS
 10
-3.368106
 20
0.364122
  0
VERTEX
  8
PLAN_1
 62
    39
  6
CONTINUOUS
 10
-3.311232
 20
0.676980
  0
VERTEX
  8
PLAN_1
 62
    39
  6
CONTINUOUS
 10
-3.254354
 20
0.989906
  0
VERTEX
  8
PLAN_1
 62
    39
  6
CONTINUOUS
 10
-3.121280
 20
1.241055
  0
VERTEX
  8
PLAN_1
 62
    39
  6
CONTINUOUS
 10
-2.927256
 20
1.530339
  0
VERTEX
  8
PLAN_1
 62
    39
  6
CONTINUOUS
 10
-2.718496
 20
1.729189
  0
VERTEX
  8
PLAN_1
 62
    39
  6
CONTINUOUS
 10
-2.571693
 20
1.814728
  0
VERTEX
  8
PLAN_1
 62
    39
  6
CONTINUOUS
 10
-2.282728
 20
1.828709
  0
VERTEX
  8
PLAN_1
 62
    39
  6
CONTINUOUS
 10
-2.007937
 20
1.828709
  0
VERTEX
  8
PLAN_1
 62
    39
  6
CONTINUOUS
 10
-1.633051
 20
1.814728
  0
VERTEX
  8
PLAN_1
 62
    39
  6
CONTINUOUS
 10
-1.088102
 20
1.804878
  0
VERTEX
  8
PLAN_1
 62
    39
  6
CONTINUOUS
 10
-0.765520
 20
1.767508
  0
VERTEX
  8
PLAN_1
 62
    39
  6
CONTINUOUS
 10
-0.485709
 20
1.724866
  0
VERTEX
  8
PLAN_1
 62
    39
  6
CONTINUOUS
 10
-0.286602
 20
1.668244
  0
VERTEX
  8
PLAN_1
 62
    39
  6
CONTINUOUS
 10
0.528622
 20
1.686736
  0
VERTEX
  8
PLAN_1
 62
    39
  6
CONTINUOUS
 10
2.875228
 20
0.364122
  0
VERTEX
  8
PLAN_1
 62
    39
  6
CONTINUOUS
 10
2.988984
 20
0.079669
  0
VERTEX
  8
PLAN_1
 62
    39
  6
CONTINUOUS
 10
3.003217
 20
-0.190547
  0
VERTEX
  8
PLAN_1
 62
    39
  6
CONTINUOUS
 10
2.960575
 20
-0.503406
  0
VERTEX
  8
PLAN_1
 62
    39
  6
CONTINUOUS
 10
2.903697
 20
-0.688276
  0
VERTEX
  8
PLAN_1
 62
    39
  6
CONTINUOUS
 10
2.519661
 20
-0.759390
  0
VERTEX
  8
PLAN_1
 62
    39
  6
CONTINUOUS
 10
2.448614
 20
-0.958492
  0
VERTEX
  8
PLAN_1
 62
    39
  6
CONTINUOUS
 10
2.349028
 20
-1.058075
  0
VERTEX
  8
PLAN_1
 62
    39
  6
CONTINUOUS
 10
2.093047
 20
-1.029606
  0
VERTEX
  8
PLAN_1
 62
    39
  6
CONTINUOUS
 10
1.950819
 20
-0.958492
  0
VERTEX
  8
PLAN_1
 62
    39
  6
CONTINUOUS
 10
1.822831
 20
-0.844736
  0
VERTEX
  8
PLAN_1
 62
    39
  6
CONTINUOUS
 10
1.709075
 20
-0.915850
  0
VERTEX
  8
PLAN_1
 62
    39
  6
CONTINUOUS
 10
1.666370
 20
-1.086484
  0
VERTEX
  8
PLAN_1
 62
    39
  6
CONTINUOUS
 10
1.509969
 20
-1.214476
  0
VERTEX
  8
PLAN_1
 62
    39
  6
CONTINUOUS
 10
1.367744
 20
-1.299823
  0
VERTEX
  8
PLAN_1
 62
    39
  6
CONTINUOUS
 10
1.111764
 20
-1.299823
  0
VERTEX
  8
PLAN_1
 62
    39
  6
CONTINUOUS
 10
0.912594
 20
-1.271350
  0
VERTEX
  8
PLAN_1
 62
    39
  6
CONTINUOUS
 10
0.813075
 20
-1.214476
  0
VERTEX
  8
PLAN_1
 62
    39
  6
CONTINUOUS
 10
0.727728
 20
-1.129189
  0
VERTEX
  8
PLAN_1
 62
    39
  6
CONTINUOUS
 10
0.656614
 20
-1.058075
  0
VERTEX
  8
PLAN_1
 62
    39
  6
CONTINUOUS
 10
0.557094
 20
-0.944256
  0
VERTEX
  8
PLAN_1
 62
    39
  6
CONTINUOUS
 10
0.528622
 20
-0.844736
  0
VERTEX
  8
PLAN_1
 62
    39
  6
CONTINUOUS
 10
0.510701
 20
-0.818937
  0
VERTEX
  8
PLAN_1
 62
    39
  6
CONTINUOUS
 10
0.480197
 20
-0.770957
  0
SEQEND
  8
0
  0
POLYLINE
  8
PLAN_1
 62
    39
  6
CONTINUOUS
 66
     1
 40
0.003000
 41
0.003000
 70
     1
  0
VERTEX
  8
PLAN_1
 62
    39
  6
CONTINUOUS
 10
-2.604484
 20
1.677331
  0
VERTEX
  8
PLAN_1
 62
    39
  6
CONTINUOUS
 10
-2.742390
 20
1.487634
  0
VERTEX
  8
PLAN_1
 62
    39
  6
CONTINUOUS
 10
-2.884614
 20
1.245886
  0
VERTEX
  8
PLAN_1
 62
    39
  6
CONTINUOUS
 10
-2.913024
 20
1.089425
  0
VERTEX
  8
PLAN_1
 62
    39
  6
CONTINUOUS
 10
-2.728154
 20
1.004075
  0
VERTEX
  8
PLAN_1
 62
    39
  6
CONTINUOUS
 10
-2.301476
 20
0.947197
  0
VERTEX
  8
PLAN_1
 62
    39
  6
CONTINUOUS
 10
-1.974382
 20
0.904555
  0
VERTEX
  8
PLAN_1
 62
    39
  6
CONTINUOUS
 10
-1.789512
 20
0.861913
  0
VERTEX
  8
PLAN_1
 62
    39
  6
CONTINUOUS
 10
-1.661776
 20
1.293614
  0
VERTEX
  8
PLAN_1
 62
    39
  6
CONTINUOUS
 10
-1.533531
 20
1.629858
  0
VERTEX
  8
PLAN_1
 62
    39
  6
CONTINUOUS
 10
-1.519295
 20
1.700972
  0
VERTEX
  8
PLAN_1
 62
    39
  6
CONTINUOUS
 10
-1.789512
 20
1.715209
  0
VERTEX
  8
PLAN_1
 62
    39
  6
CONTINUOUS
 10
-2.116606
 20
1.729441
  0
VERTEX
  8
PLAN_1
 62
    39
  6
CONTINUOUS
 10
-2.417646
 20
1.720736
  0
SEQEND
  8
0
  0
POLYLINE
  8
PLAN_1
 62
    39
  6
CONTINUOUS
 66
     1
 40
0.003000
 41
0.003000
  0
VERTEX
  8
PLAN_1
 62
    39
  6
CONTINUOUS
 10
-3.276787
 20
0.076618
  0
VERTEX
  8
PLAN_1
 62
    39
  6
CONTINUOUS
 10
-3.211012
 20
0.255197
  0
VERTEX
  8
PLAN_1
 62
    39
  6
CONTINUOUS
 10
-3.051244
 20
0.367933
  0
VERTEX
  8
PLAN_1
 62
    39
  6
CONTINUOUS
 10
-2.882138
 20
0.414898
  0
VERTEX
  8
PLAN_1
 62
    39
  6
CONTINUOUS
 10
-2.666000
 20
0.377339
  0
VERTEX
  8
PLAN_1
 62
    39
  6
CONTINUOUS
 10
-2.515642
 20
0.236386
  0
VERTEX
  8
PLAN_1
 62
    39
  6
CONTINUOUS
 10
-2.478020
 20
0.010843
  0
VERTEX
  8
PLAN_1
 62
    39
  6
CONTINUOUS
 10
-2.440461
 20
-0.177075
  0
VERTEX
  8
PLAN_1
 62
    39
  6
CONTINUOUS
 10
-2.431055
 20
-0.402614
  0
SEQEND
  8
0
  0
POLYLINE
  8
PLAN_1
 62
    39
  6
CONTINUOUS
 66
     1
 40
0.003000
 41
0.003000
  0
VERTEX
  8
PLAN_1
 62
    39
  6
CONTINUOUS
 10
-3.314343
 20
0.621630
  0
VERTEX
  8
PLAN_1
 62
    39
  6
CONTINUOUS
 10
-3.117020
 20
0.574665
  0
VERTEX
  8
PLAN_1
 62
    39
  6
CONTINUOUS
 10
-2.947913
 20
0.414898
  0
SEQEND
  8
0
  0
POLYLINE
  8
PLAN_1
 62
    39
  6
CONTINUOUS
 66
     1
 40
0.003000
 41
0.003000
  0
VERTEX
  8
PLAN_1
 62
    39
  6
CONTINUOUS
 10
-3.361370
 20
0.396150
  0
VERTEX
  8
PLAN_1
 62
    39
  6
CONTINUOUS
 10
-3.126425
 20
0.330378
  0
SEQEND
  8
0
  0
POLYLINE
  8
PLAN_1
 62
    39
  6
CONTINUOUS
 66
     1
 40
0.003000
 41
0.003000
 70
     1
  0
VERTEX
  8
PLAN_1
 62
    39
  6
CONTINUOUS
 10
-1.359846
 20
1.692902
  0
VERTEX
  8
PLAN_1
 62
    39
  6
CONTINUOUS
 10
-1.500803
 20
1.317000
  0
VERTEX
  8
PLAN_1
 62
    39
  6
CONTINUOUS
 10
-1.632350
 20
0.828358
  0
VERTEX
  8
PLAN_1
 62
    39
  6
CONTINUOUS
 10
-0.767811
 20
0.725024
  0
VERTEX
  8
PLAN_1
 62
    39
  6
CONTINUOUS
 10
0.171850
 20
0.659252
  0
VERTEX
  8
PLAN_1
 62
    39
  6
CONTINUOUS
 10
0.096669
 20
0.884728
  0
VERTEX
  8
PLAN_1
 62
    39
  6
CONTINUOUS
 10
0.247031
 20
1.035091
  0
VERTEX
  8
PLAN_1
 62
    39
  6
CONTINUOUS
 10
0.340957
 20
1.063303
  0
VERTEX
  8
PLAN_1
 62
    39
  6
CONTINUOUS
 10
-0.373161
 20
1.533134
  0
VERTEX
  8
PLAN_1
 62
    39
  6
CONTINUOUS
 10
-0.664476
 20
1.627126
  0
VERTEX
  8
PLAN_1
 62
    39
  6
CONTINUOUS
 10
-0.993350
 20
1.674091
  0
SEQEND
  8
0
  0
POLYLINE
  8
PLAN_1
 62
    39
  6
CONTINUOUS
 66
     1
 40
0.003000
 41
0.003000
  0
VERTEX
  8
PLAN_1
 62
    39
  6
CONTINUOUS
 10
-1.782713
 20
0.818953
  0
VERTEX
  8
PLAN_1
 62
    39
  6
CONTINUOUS
 10
-1.810866
 20
0.471331
  0
VERTEX
  8
PLAN_1
 62
    39
  6
CONTINUOUS
 10
-1.801461
 20
0.133051
  0
VERTEX
  8
PLAN_1
 62
    39
  6
CONTINUOUS
 10
-1.754496
 20
-0.092488
  0
VERTEX
  8
PLAN_1
 62
    39
  6
CONTINUOUS
 10
-1.622945
 20
-0.261661
  0
VERTEX
  8
PLAN_1
 62
    39
  6
CONTINUOUS
 10
-1.331630
 20
-0.355591
  0
VERTEX
  8
PLAN_1
 62
    39
  6
CONTINUOUS
 10
-0.814839
 20
-0.440173
  0
VERTEX
  8
PLAN_1
 62
    39
  6
CONTINUOUS
 10
-0.335602
 20
-0.496543
  0
VERTEX
  8
PLAN_1
 62
    39
  6
CONTINUOUS
 10
0.077858
 20
-0.534165
  0
VERTEX
  8
PLAN_1
 62
    39
  6
CONTINUOUS
 10
0.284587
 20
-0.468390
  0
VERTEX
  8
PLAN_1
 62
    39
  6
CONTINUOUS
 10
0.406732
 20
-0.130110
  0
VERTEX
  8
PLAN_1
 62
    39
  6
CONTINUOUS
 10
0.425543
 20
0.217575
  0
VERTEX
  8
PLAN_1
 62
    39
  6
CONTINUOUS
 10
0.434949
 20
0.631035
  0
VERTEX
  8
PLAN_1
 62
    39
  6
CONTINUOUS
 10
0.181256
 20
0.631035
  0
SEQEND
  8
0
  0
POLYLINE
  8
PLAN_1
 62
    39
  6
CONTINUOUS
 66
     1
 40
0.003000
 41
0.003000
  0
VERTEX
  8
PLAN_1
 62
    39
  6
CONTINUOUS
 10
-1.820272
 20
0.527701
  0
VERTEX
  8
PLAN_1
 62
    39
  6
CONTINUOUS
 10
-1.942413
 20
0.565260
  0
VERTEX
  8
PLAN_1
 62
    39
  6
CONTINUOUS
 10
-1.933008
 20
0.696807
  0
VERTEX
  8
PLAN_1
 62
    39
  6
CONTINUOUS
 10
-1.820272
 20
0.753177
  0
SEQEND
  8
0
  0
POLYLINE
  8
PLAN_1
 62
    39
  6
CONTINUOUS
 66
     1
 40
0.003000
 41
0.003000
  0
VERTEX
  8
PLAN_1
 62
    39
  6
CONTINUOUS
 10
0.378579
 20
1.053898
  0
VERTEX
  8
PLAN_1
 62
    39
  6
CONTINUOUS
 10
0.688642
 20
0.856575
  0
VERTEX
  8
PLAN_1
 62
    39
  6
CONTINUOUS
 10
0.707453
 20
0.649846
  0
VERTEX
  8
PLAN_1
 62
    39
  6
CONTINUOUS
 10
0.444354
 20
0.621630
  0
SEQEND
  8
0
  0
POLYLINE
  8
PLAN_1
 62
    39
  6
CONTINUOUS
 66
     1
 40
0.003000
 41
0.003000
 70
     1
  0
VERTEX
  8
PLAN_1
 62
    39
  6
CONTINUOUS
 10
-0.034882
 20
1.523728
  0
VERTEX
  8
PLAN_1
 62
    39
  6
CONTINUOUS
 10
0.519535
 20
1.561350
  0
VERTEX
  8
PLAN_1
 62
    39
  6
CONTINUOUS
 10
1.928323
 20
0.781142
  0
VERTEX
  8
PLAN_1
 62
    39
  6
CONTINUOUS
 10
1.119071
 20
0.679398
  0
SEQEND
  8
0
  0
POLYLINE
  8
PLAN_1
 62
    39
  6
CONTINUOUS
 66
     1
 40
0.003000
 41
0.003000
  0
VERTEX
  8
PLAN_1
 62
    39
  6
CONTINUOUS
 10
-2.572012
 20
1.824449
  0
VERTEX
  8
PLAN_1
 62
    39
  6
CONTINUOUS
 10
-1.745091
 20
1.946594
  0
VERTEX
  8
PLAN_1
 62
    39
  6
CONTINUOUS
 10
-0.824244
 20
1.899630
  0
VERTEX
  8
PLAN_1
 62
    39
  6
CONTINUOUS
 10
0.557094
 20
1.702307
  0
SEQEND
  8
0
  0
POLYLINE
  8
PLAN_1
 62
    39
  6
CONTINUOUS
 66
     1
 40
0.003000
 41
0.003000
  0
VERTEX
  8
PLAN_1
 62
    39
  6
CONTINUOUS
 10
0.951744
 20
0.790799
  0
VERTEX
  8
PLAN_1
 62
    39
  6
CONTINUOUS
 10
1.327646
 20
0.593476
  0
VERTEX
  8
PLAN_1
 62
    39
  6
CONTINUOUS
 10
1.684736
 20
0.424303
  0
VERTEX
  8
PLAN_1
 62
    39
  6
CONTINUOUS
 10
1.957240
 20
0.311567
  0
VERTEX
  8
PLAN_1
 62
    39
  6
CONTINUOUS
 10
2.126346
 20
0.029654
  0
VERTEX
  8
PLAN_1
 62
    39
  6
CONTINUOUS
 10
2.201528
 20
0.029654
  0
VERTEX
  8
PLAN_1
 62
    39
  6
CONTINUOUS
 10
1.430976
 20
0.010843
  0
VERTEX
  8
PLAN_1
 62
    39
  6
CONTINUOUS
 10
1.139724
 20
0.057870
  0
VERTEX
  8
PLAN_1
 62
    39
  6
CONTINUOUS
 10
0.829598
 20
0.010843
  0
VERTEX
  8
PLAN_1
 62
    39
  6
CONTINUOUS
 10
0.651083
 20
-0.130110
  0
VERTEX
  8
PLAN_1
 62
    39
  6
CONTINUOUS
 10
0.491319
 20
-0.383803
  0
VERTEX
  8
PLAN_1
 62
    39
  6
CONTINUOUS
 10
0.481913
 20
-0.609346
  0
VERTEX
  8
PLAN_1
 62
    39
  6
CONTINUOUS
 10
0.481913
 20
-0.787858
  0
SEQEND
  8
0
  0
POLYLINE
  8
PLAN_1
 62
    39
  6
CONTINUOUS
 66
     1
 40
0.003000
 41
0.003000
  0
VERTEX
  8
PLAN_1
 62
    39
  6
CONTINUOUS
 10
1.449787
 20
0.001437
  0
VERTEX
  8
PLAN_1
 62
    39
  6
CONTINUOUS
 10
1.741102
 20
-0.261661
  0
VERTEX
  8
PLAN_1
 62
    39
  6
CONTINUOUS
 10
1.788067
 20
-0.515354
  0
VERTEX
  8
PLAN_1
 62
    39
  6
CONTINUOUS
 10
1.816283
 20
-0.844228
  0
SEQEND
  8
0
  0
POLYLINE
  8
PLAN_1
 62
    39
  6
CONTINUOUS
 66
     1
 40
0.003000
 41
0.003000
 70
     1
  0
VERTEX
  8
PLAN_1
 62
    39
  6
CONTINUOUS
 10
1.124661
 20
-0.270366
  0
VERTEX
  8
PLAN_1
 62
    39
  6
CONTINUOUS
 10
1.049929
 20
-0.402807
  0
VERTEX
  8
PLAN_1
 62
    39
  6
CONTINUOUS
 10
0.880693
 20
-0.449264
  0
VERTEX
  8
PLAN_1
 62
    39
  6
CONTINUOUS
 10
0.829154
 20
-0.618051
  0
VERTEX
  8
PLAN_1
 62
    39
  6
CONTINUOUS
 10
0.972906
 20
-0.708740
  0
VERTEX
  8
PLAN_1
 62
    39
  6
CONTINUOUS
 10
0.889717
 20
-0.852937
  0
VERTEX
  8
PLAN_1
 62
    39
  6
CONTINUOUS
 10
1.040079
 20
-0.975142
  0
VERTEX
  8
PLAN_1
 62
    39
  6
CONTINUOUS
 10
1.172772
 20
-0.873398
  0
VERTEX
  8
PLAN_1
 62
    39
  6
CONTINUOUS
 10
1.312583
 20
-0.965736
  0
VERTEX
  8
PLAN_1
 62
    39
  6
CONTINUOUS
 10
1.444134
 20
-0.852937
  0
VERTEX
  8
PLAN_1
 62
    39
  6
CONTINUOUS
 10
1.404921
 20
-0.745661
  0
VERTEX
  8
PLAN_1
 62
    39
  6
CONTINUOUS
 10
1.518551
 20
-0.683701
  0
VERTEX
  8
PLAN_1
 62
    39
  6
CONTINUOUS
 10
1.560748
 20
-0.472776
  0
VERTEX
  8
PLAN_1
 62
    39
  6
CONTINUOUS
 10
1.358657
 20
-0.426256
  0
VERTEX
  8
PLAN_1
 62
    39
  6
CONTINUOUS
 10
1.275024
 20
-0.279772
  0
SEQEND
  8
0
  0
POLYLINE
  8
PLAN_1
 62
    39
  6
CONTINUOUS
 66
     1
 40
0.003000
 41
0.003000
  0
VERTEX
  8
PLAN_1
 62
    39
  6
CONTINUOUS
 10
1.769319
 20
-0.289815
  0
VERTEX
  8
PLAN_1
 62
    39
  6
CONTINUOUS
 10
2.577429
 20
-0.280409
  0
VERTEX
  8
PLAN_1
 62
    39
  6
CONTINUOUS
 10
2.849933
 20
-0.242850
  0
VERTEX
  8
PLAN_1
 62
    39
  6
CONTINUOUS
 10
2.981484
 20
-0.167669
  0
SEQEND
  8
0
  0
POLYLINE
  8
PLAN_1
 62
    39
  6
CONTINUOUS
 66
     1
 40
0.003000
 41
0.003000
  0
VERTEX
  8
PLAN_1
 62
    39
  6
CONTINUOUS
 10
1.806878
 20
-0.750303
  0
VERTEX
  8
PLAN_1
 62
    39
  6
CONTINUOUS
 10
2.530402
 20
-0.778453
  0
SEQEND
  8
0
  0
POLYLINE
  8
PLAN_1
 62
    39
  6
CONTINUOUS
 66
     1
 40
0.003000
 41
0.003000
  0
VERTEX
  8
PLAN_1
 62
    39
  6
CONTINUOUS
 10
2.549213
 20
-0.449579
  0
VERTEX
  8
PLAN_1
 62
    39
  6
CONTINUOUS
 10
2.896898
 20
-0.383803
  0
SEQEND
  8
0
  0
POLYLINE
  8
PLAN_1
 62
    39
  6
CONTINUOUS
 66
     1
 40
0.003000
 41
0.003000
  0
VERTEX
  8
PLAN_1
 62
    39
  6
CONTINUOUS
 10
2.521059
 20
-0.599941
  0
VERTEX
  8
PLAN_1
 62
    39
  6
CONTINUOUS
 10
2.934457
 20
-0.562319
  0
SEQEND
  8
0
  0
POLYLINE
  8
PLAN_1
 62
    39
  6
CONTINUOUS
 66
     1
 40
0.003000
 41
0.003000
  0
VERTEX
  8
PLAN_1
 62
    39
  6
CONTINUOUS
 10
2.182717
 20
0.029654
  0
VERTEX
  8
PLAN_1
 62
    39
  6
CONTINUOUS
 10
2.182717
 20
0.283350
  0
VERTEX
  8
PLAN_1
 62
    39
  6
CONTINUOUS
 10
2.267303
 20
0.349122
  0
VERTEX
  8
PLAN_1
 62
    39
  6
CONTINUOUS
 10
2.370701
 20
0.311567
  0
VERTEX
  8
PLAN_1
 62
    39
  6
CONTINUOUS
 10
2.427067
 20
0.180016
  0
SEQEND
  8
0
  0
POLYLINE
  8
PLAN_1
 62
    39
  6
CONTINUOUS
 66
     1
 40
0.003000
 41
0.003000
  0
VERTEX
  8
PLAN_1
 62
    39
  6
CONTINUOUS
 10
2.436472
 20
0.161205
  0
VERTEX
  8
PLAN_1
 62
    39
  6
CONTINUOUS
 10
2.436472
 20
-0.130110
  0
VERTEX
  8
PLAN_1
 62
    39
  6
CONTINUOUS
 10
2.276709
 20
-0.148858
  0
VERTEX
  8
PLAN_1
 62
    39
  6
CONTINUOUS
 10
2.192122
 20
0.001437
  0
SEQEND
  8
0
  0
POLYLINE
  8
PLAN_1
 62
    39
  6
CONTINUOUS
 66
     1
 40
0.003000
 41
0.003000
  0
VERTEX
  8
PLAN_1
 62
    39
  6
CONTINUOUS
 10
2.990890
 20
-0.017307
  0
VERTEX
  8
PLAN_1
 62
    39
  6
CONTINUOUS
 10
2.859339
 20
0.086024
  0
VERTEX
  8
PLAN_1
 62
    39
  6
CONTINUOUS
 10
2.849933
 20
0.367933
  0
SEQEND
  8
0
  0
POLYLINE
  8
PLAN_1
 62
    39
  6
CONTINUOUS
 66
     1
 40
0.003000
 41
0.003000
  0
VERTEX
  8
PLAN_1
 62
    39
  6
CONTINUOUS
 10
2.557728
 20
-0.052705
  0
VERTEX
  8
PLAN_1
 62
    39
  6
CONTINUOUS
 10
2.859339
 20
-0.007902
  0
SEQEND
  8
0
  0
POLYLINE
  8
PLAN_1
 62
    39
  6
CONTINUOUS
 66
     1
 40
0.003000
 41
0.003000
 70
     1
  0
VERTEX
  8
PLAN_1
 62
    39
  6
CONTINUOUS
 10
-3.107740
 20
0.123138
  0
VERTEX
  8
PLAN_1
 62
    39
  6
CONTINUOUS
 10
-2.962146
 20
0.127776
  0
VERTEX
  8
PLAN_1
 62
    39
  6
CONTINUOUS
 10
-2.934311
 20
0.250622
  0
VERTEX
  8
PLAN_1
 62
    39
  6
CONTINUOUS
 10
-2.774547
 20
0.241280
  0
VERTEX
  8
PLAN_1
 62
    39
  6
CONTINUOUS
 10
-2.728154
 20
0.109031
  0
VERTEX
  8
PLAN_1
 62
    39
  6
CONTINUOUS
 10
-2.615480
 20
0.104264
  0
VERTEX
  8
PLAN_1
 62
    39
  6
CONTINUOUS
 10
-2.592157
 20
-0.036374
  0
VERTEX
  8
PLAN_1
 62
    39
  6
CONTINUOUS
 10
-2.676996
 20
-0.097256
  0
VERTEX
  8
PLAN_1
 62
    39
  6
CONTINUOUS
 10
-2.605882
 20
-0.229059
  0
VERTEX
  8
PLAN_1
 62
    39
  6
CONTINUOUS
 10
-2.709787
 20
-0.346437
  0
VERTEX
  8
PLAN_1
 62
    39
  6
CONTINUOUS
 10
-2.849854
 20
-0.265283
  0
VERTEX
  8
PLAN_1
 62
    39
  6
CONTINUOUS
 10
-3.009492
 20
-0.341354
  0
VERTEX
  8
PLAN_1
 62
    39
  6
CONTINUOUS
 10
-3.103421
 20
-0.247362
  0
VERTEX
  8
PLAN_1
 62
    39
  6
CONTINUOUS
 10
-3.046035
 20
-0.115811
  0
VERTEX
  8
PLAN_1
 62
    39
  6
CONTINUOUS
 10
-3.140598
 20
0.001374
  0
SEQEND
  8
0
  0
ENDSEC
  0
EOF
