  0
SECTION
  2
HEADER
  9
$ACADVER
  1
AC1006
  9
$INSBASE
 10
0.0
 20
0.0
 30
0.0
  9
$EXTMIN
 10
-56.662489
 20
-27.040835
  9
$EXTMAX
 10
344.037511
 20
250.659165
  9
$LIMMIN
 10
0.0
 20
0.0
  9
$LIMMAX
 10
410.0
 20
287.0
  9
$ORTHOMODE
 70
     1
  9
$REGENMODE
 70
     1
  9
$FILLMODE
 70
     1
  9
$QTEXTMODE
 70
     0
  9
$MIRRTEXT
 70
     1
  9
$DRAGMODE
 70
     2
  9
$LTSCALE
 40
8.0
  9
$OSMODE
 70
     0
  9
$ATTMODE
 70
     1
  9
$TEXTSIZE
 40
5.0
  9
$TRACEWID
 40
1.0
  9
$TEXTSTYLE
  7
S35
  9
$CLAYER
  8
0
  9
$CELTYPE
  6
BYLAYER
  9
$CECOLOR
 62
   256
  9
$DIMSCALE
 40
1.0
  9
$DIMASZ
 40
3.5
  9
$DIMEXO
 40
0.1
  9
$DIMDLI
 40
10.0
  9
$DIMRND
 40
0.0
  9
$DIMDLE
 40
0.0
  9
$DIMEXE
 40
1.8
  9
$DIMTP
 40
0.0
  9
$DIMTM
 40
0.0
  9
$DIMTXT
 40
3.5
  9
$DIMCEN
 40
1.5
  9
$DIMTSZ
 40
0.0
  9
$DIMTOL
 70
     0
  9
$DIMLIM
 70
     0
  9
$DIMTIH
 70
     0
  9
$DIMTOH
 70
     0
  9
$DIMSE1
 70
     0
  9
$DIMSE2
 70
     0
  9
$DIMTAD
 70
     0
  9
$DIMZIN
 70
     0
  9
$DIMBLK
  1

  9
$DIMASO
 70
     1
  9
$DIMSHO
 70
     0
  9
$DIMPOST
  1

  9
$DIMAPOST
  1

  9
$DIMALT
 70
     0
  9
$DIMALTD
 70
     2
  9
$DIMALTF
 40
25.4
  9
$DIMLFAC
 40
1.0
  9
$DIMTOFL
 70
     0
  9
$DIMTVP
 40
0.0
  9
$DIMTIX
 70
     0
  9
$DIMSOXD
 70
     0
  9
$DIMSAH
 70
     0
  9
$DIMBLK1
  1

  9
$DIMBLK2
  1

  9
$LUNITS
 70
     2
  9
$LUPREC
 70
     2
  9
$AXISMODE
 70
     0
  9
$AXISUNIT
 10
0.0
 20
0.0
  9
$SKETCHINC
 40
1.0
  9
$FILLETRAD
 40
0.0
  9
$AUNITS
 70
     0
  9
$AUPREC
 70
     0
  9
$MENU
  1
ACAD
  9
$ELEVATION
 40
0.0
  9
$THICKNESS
 40
0.0
  9
$LIMCHECK
 70
     0
  9
$BLIPMODE
 70
     1
  9
$CHAMFERA
 40
0.8
  9
$CHAMFERB
 40
0.8
  9
$SKPOLY
 70
     0
  9
$TDCREATE
 40
2449251.6804886572
  9
$TDUPDATE
 40
2449697.6925195600
  9
$TDINDWG
 40
0.0017806713
  9
$TDUSRTIMER
 40
0.0017806713
  9
$USRTIMER
 70
     1
  9
$ANGBASE
 50
0.0
  9
$ANGDIR
 70
     0
  9
$PDMODE
 70
     0
  9
$PDSIZE
 40
0.0
  9
$PLINEWID
 40
0.7
  9
$COORDS
 70
     2
  9
$SPLFRAME
 70
     0
  9
$SPLINETYPE
 70
     6
  9
$SPLINESEGS
 70
     8
  9
$ATTDIA
 70
     0
  9
$ATTREQ
 70
     1
  9
$HANDLING
 70
     0
  9
$HANDSEED
  5
0
  9
$SURFTAB1
 70
     6
  9
$SURFTAB2
 70
     6
  9
$SURFTYPE
 70
     6
  9
$SURFU
 70
     6
  9
$SURFV
 70
     6
  9
$FLATLAND
 70
     0
  9
$UCSNAME
  2

  9
$UCSORG
 10
0.0
 20
0.0
 30
0.0
  9
$UCSXDIR
 10
1.0
 20
0.0
 30
0.0
  9
$UCSYDIR
 10
0.0
 20
1.0
 30
0.0
  9
$USERI1
 70
     0
  9
$USERI2
 70
     0
  9
$USERI3
 70
     0
  9
$USERI4
 70
     0
  9
$USERI5
 70
     0
  9
$USERR1
 40
0.0
  9
$USERR2
 40
0.0
  9
$USERR3
 40
0.0
  9
$USERR4
 40
0.0
  9
$USERR5
 40
0.0
  9
$WORLDVIEW
 70
     1
  0
ENDSEC
  0
SECTION
  2
TABLES
  0
TABLE
  2
VPORT
 70
     2
  0
VPORT
  2
*ACTIVE
 70
     0
 10
0.0
 20
0.0
 11
1.0
 21
1.0
 12
143.687511
 22
118.064313
 13
0.0
 23
0.0
 14
1.0
 24
1.0
 15
10.0
 25
10.0
 16
0.0
 26
0.0
 36
1.0
 17
0.0
 27
0.0
 37
0.0
 40
290.210297
 41
1.380723
 42
50.0
 43
0.0
 44
0.0
 50
0.0
 51
0.0
 71
     0
 72
   100
 73
     1
 74
     1
 75
     0
 76
     0
 77
     0
 78
     0
  0
ENDTAB
  0
TABLE
  2
LTYPE
 70
     3
  0
LTYPE
  2
CONTINUOUS
 70
    64
  3
Solid line
 72
    65
 73
     0
 40
0.0
  0
LTYPE
  2
AXES
 70
    64
  3
____ _ ____ _ ____ _ ____ _ ____ _ ____ _ ___
 72
    65
 73
     4
 40
2.0
 49
1.25
 49
-0.25
 49
0.25
 49
-0.25
  0
LTYPE
  2
CACHE
 70
    64
  3
_ _ _ _ _ _ _ _ _ _ _ _ _ _ _ _ _ _ _ _ _ _ _
 72
    65
 73
     2
 40
0.375
 49
0.25
 49
-0.125
  0
ENDTAB
  0
TABLE
  2
LAYER
 70
     2
  0
LAYER
  2
0
 70
    64
 62
     7
  6
CONTINUOUS
  0
LAYER
  2
HACH
 70
    64
 62
     5
  6
CONTINUOUS
  0
ENDTAB
  0
TABLE
  2
STYLE
 70
     2
  0
STYLE
  2
STANDARD
 70
     0
 40
0.0
 41
1.0
 50
0.0
 71
     0
 42
3.5
  3
txt
  4

  0
STYLE
  2
S35
 70
    64
 40
0.0
 41
0.6
 50
0.0
 71
     0
 42
5.0
  3
simplex
  4

  0
ENDTAB
  0
TABLE
  2
VIEW
 70
     0
  0
ENDTAB
  0
TABLE
  2
UCS
 70
     0
  0
ENDTAB
  0
TABLE
  2
DWGMGR
 70
     0
  0
ENDTAB
  0
ENDSEC
  0
SECTION
  2
BLOCKS
  0
BLOCK
  8
0
  2
*X0
 70
    65
 10
0.0
 20
0.0
 30
0.0
  0
LINE
  8
0
 62
     0
 10
266.015228
 20
191.769016
 30
0.0
 11
268.434375
 21
194.188163
 31
0.0
  0
LINE
  8
0
 62
     0
 10
266.170767
 20
192.914504
 30
0.0
 11
267.457525
 21
194.201263
 31
0.0
  0
LINE
  8
0
 62
     0
 10
265.976661
 20
193.710348
 30
0.0
 11
266.68941
 21
194.423097
 31
0.0
  0
LINE
  8
0
 62
     0
 10
266.508376
 20
191.272214
 30
0.0
 11
269.562169
 21
194.326008
 31
0.0
  0
LINE
  8
0
 62
     0
 10
267.737673
 20
191.511562
 30
0.0
 11
269.964601
 21
193.73849
 31
0.0
  0
LINE
  8
0
 62
     0
 10
268.622647
 20
191.406586
 30
0.0
 11
269.803263
 21
192.587202
 31
0.0
  0
LINE
  8
0
 62
     0
 10
269.506584
 20
191.300574
 30
0.0
 11
269.899184
 21
191.693174
 31
0.0
  0
ENDBLK
  8
0
  0
BLOCK
  8
0
  2
*X1
 70
    65
 10
0.0
 20
0.0
 30
0.0
  0
LINE
  8
0
 62
     0
 10
266.111741
 20
192.5
 30
0.0
 11
269.832959
 21
192.5
 31
0.0
  0
LINE
  8
0
 62
     0
 10
266.093173
 20
193.2
 30
0.0
 11
269.851528
 21
193.2
 31
0.0
  0
LINE
  8
0
 62
     0
 10
266.020224
 20
193.9
 30
0.0
 11
269.924476
 21
193.9
 31
0.0
  0
LINE
  8
0
 62
     0
 10
266.005352
 20
191.8
 30
0.0
 11
269.939348
 21
191.8
 31
0.0
  0
ENDBLK
  8
0
  0
BLOCK
  8
HACH
  2
*X2
 70
    65
 10
0.0
 20
0.0
 30
0.0
  0
LINE
  8
0
 62
     0
 10
270.97235
 20
158.662122
 30
0.0
 11
264.97235
 21
169.054427
 31
0.0
  0
LINE
  8
0
 62
     0
 10
270.97235
 20
162.662122
 30
0.0
 11
267.874701
 21
168.027408
 31
0.0
  0
LINE
  8
0
 62
     0
 10
248.129322
 20
202.227408
 30
0.0
 11
247.47235
 21
203.365316
 31
0.0
  0
LINE
  8
0
 62
     0
 10
270.97235
 20
166.662122
 30
0.0
 11
269.967641
 21
168.40233
 31
0.0
  0
LINE
  8
0
 62
     0
 10
250.438723
 20
202.227408
 30
0.0
 11
247.522828
 21
207.277886
 31
0.0
  0
LINE
  8
0
 62
     0
 10
270.97235
 20
170.662122
 30
0.0
 11
270.936127
 21
170.724863
 31
0.0
  0
LINE
  8
0
 62
     0
 10
252.748124
 20
202.227408
 30
0.0
 11
249.284022
 21
208.227408
 31
0.0
  0
LINE
  8
0
 62
     0
 10
255.057525
 20
202.227408
 30
0.0
 11
251.593423
 21
208.227408
 31
0.0
  0
LINE
  8
0
 62
     0
 10
257.366926
 20
202.227408
 30
0.0
 11
253.902824
 21
208.227408
 31
0.0
  0
LINE
  8
0
 62
     0
 10
265.738505
 20
191.727408
 30
0.0
 11
264.97235
 21
193.054427
 31
0.0
  0
LINE
  8
0
 62
     0
 10
260.831027
 20
200.227408
 30
0.0
 11
256.212225
 21
208.227408
 31
0.0
  0
LINE
  8
0
 62
     0
 10
266.48906
 20
194.427408
 30
0.0
 11
264.97235
 21
197.054427
 31
0.0
  0
LINE
  8
0
 62
     0
 10
263.140429
 20
200.227408
 30
0.0
 11
258.521626
 21
208.227408
 31
0.0
  0
LINE
  8
0
 62
     0
 10
270.331298
 20
191.772457
 30
0.0
 11
269.947355
 21
192.437466
 31
0.0
  0
LINE
  8
0
 62
     0
 10
268.798461
 20
194.427408
 30
0.0
 11
260.47235
 21
208.848656
 31
0.0
  0
LINE
  8
0
 62
     0
 10
270.97235
 20
194.662122
 30
0.0
 11
261.697053
 21
210.727408
 31
0.0
  0
LINE
  8
0
 62
     0
 10
270.97235
 20
198.662122
 30
0.0
 11
265.161155
 21
208.727408
 31
0.0
  0
LINE
  8
0
 62
     0
 10
270.97235
 20
202.662122
 30
0.0
 11
268.151117
 21
207.548641
 31
0.0
  0
LINE
  8
0
 62
     0
 10
262.274403
 20
217.727408
 30
0.0
 11
260.831027
 21
220.227408
 31
0.0
  0
LINE
  8
0
 62
     0
 10
267.47235
 20
208.7243
 30
0.0
 11
267.470556
 21
208.727408
 31
0.0
  0
LINE
  8
0
 62
     0
 10
263.47235
 20
219.652503
 30
0.0
 11
263.140429
 21
220.227408
 31
0.0
  0
LINE
  8
0
 62
     0
 10
265.738505
 20
219.727408
 30
0.0
 11
265.44983
 21
220.227408
 31
0.0
  0
LINE
  8
0
 62
     0
 10
269.850378
 20
156.605436
 30
0.0
 11
264.97235
 21
165.054427
 31
0.0
  0
LINE
  8
0
 62
     0
 10
268.386276
 20
155.141334
 30
0.0
 11
264.295129
 21
162.227408
 31
0.0
  0
LINE
  8
0
 62
     0
 10
266.893205
 20
153.727408
 30
0.0
 11
261.985728
 21
162.227408
 31
0.0
  0
LINE
  8
0
 62
     0
 10
264.583804
 20
153.727408
 30
0.0
 11
259.676327
 21
162.227408
 31
0.0
  0
LINE
  8
0
 62
     0
 10
263.429104
 20
151.727408
 30
0.0
 11
258.521626
 21
160.227408
 31
0.0
  0
LINE
  8
0
 62
     0
 10
266.556149
 20
142.311207
 30
0.0
 11
266.315855
 21
142.727408
 31
0.0
  0
LINE
  8
0
 62
     0
 10
259.676327
 20
154.227408
 30
0.0
 11
256.212225
 21
160.227408
 31
0.0
  0
LINE
  8
0
 62
     0
 10
261.119703
 20
151.727408
 30
0.0
 11
260.47235
 21
152.848656
 31
0.0
  0
LINE
  8
0
 62
     0
 10
264.295129
 20
142.227408
 30
0.0
 11
264.006454
 21
142.727408
 31
0.0
  0
LINE
  8
0
 62
     0
 10
257.366926
 20
154.227408
 30
0.0
 11
253.902824
 21
160.227408
 31
0.0
  0
LINE
  8
0
 62
     0
 10
263.47235
 20
143.652503
 30
0.0
 11
262.851753
 21
144.727408
 31
0.0
  0
LINE
  8
0
 62
     0
 10
261.985728
 20
142.227408
 30
0.0
 11
260.542352
 21
144.727408
 31
0.0
  0
LINE
  8
0
 62
     0
 10
255.057525
 20
154.227408
 30
0.0
 11
251.593423
 21
160.227408
 31
0.0
  0
LINE
  8
0
 62
     0
 10
252.748124
 20
154.227408
 30
0.0
 11
249.284022
 21
160.227408
 31
0.0
  0
LINE
  8
0
 62
     0
 10
250.438723
 20
154.227408
 30
0.0
 11
247.47235
 21
159.365316
 31
0.0
  0
LINE
  8
0
 62
     0
 10
247.660736
 20
155.039022
 30
0.0
 11
247.47235
 21
155.365316
 31
0.0
  0
ENDBLK
  8
HACH
  0
BLOCK
  8
HACH
  2
*X3
 70
    65
 10
0.0
 20
0.0
 30
0.0
  0
LINE
  8
0
 62
     0
 10
212.938086
 20
142.227408
 30
0.0
 11
224.938086
 21
154.227408
 31
0.0
  0
LINE
  8
0
 62
     0
 10
209.402552
 20
142.227408
 30
0.0
 11
221.402552
 21
154.227408
 31
0.0
  0
LINE
  8
0
 62
     0
 10
205.867019
 20
142.227408
 30
0.0
 11
217.867019
 21
154.227408
 31
0.0
  0
LINE
  8
0
 62
     0
 10
202.331485
 20
142.227408
 30
0.0
 11
214.331485
 21
154.227408
 31
0.0
  0
LINE
  8
0
 62
     0
 10
198.795951
 20
142.227408
 30
0.0
 11
210.795951
 21
154.227408
 31
0.0
  0
LINE
  8
0
 62
     0
 10
195.260417
 20
142.227408
 30
0.0
 11
207.260417
 21
154.227408
 31
0.0
  0
LINE
  8
0
 62
     0
 10
191.724883
 20
142.227408
 30
0.0
 11
203.724883
 21
154.227408
 31
0.0
  0
LINE
  8
0
 62
     0
 10
188.189349
 20
142.227408
 30
0.0
 11
191.989349
 21
146.027408
 31
0.0
  0
LINE
  8
0
 62
     0
 10
195.602337
 20
149.640397
 30
0.0
 11
200.189349
 21
154.227408
 31
0.0
  0
LINE
  8
0
 62
     0
 10
184.653815
 20
142.227408
 30
0.0
 11
188.453815
 21
146.027408
 31
0.0
  0
LINE
  8
0
 62
     0
 10
192.853815
 20
150.427408
 30
0.0
 11
196.653815
 21
154.227408
 31
0.0
  0
LINE
  8
0
 62
     0
 10
181.118281
 20
142.227408
 30
0.0
 11
184.918281
 21
146.027408
 31
0.0
  0
LINE
  8
0
 62
     0
 10
189.318281
 20
150.427408
 30
0.0
 11
193.118281
 21
154.227408
 31
0.0
  0
LINE
  8
0
 62
     0
 10
178.47235
 20
143.117011
 30
0.0
 11
181.382747
 21
146.027408
 31
0.0
  0
LINE
  8
0
 62
     0
 10
185.782747
 20
150.427408
 30
0.0
 11
189.582747
 21
154.227408
 31
0.0
  0
LINE
  8
0
 62
     0
 10
182.247213
 20
150.427408
 30
0.0
 11
186.047213
 21
154.227408
 31
0.0
  0
LINE
  8
0
 62
     0
 10
178.711679
 20
150.427408
 30
0.0
 11
182.511679
 21
154.227408
 31
0.0
  0
LINE
  8
0
 62
     0
 10
216.47362
 20
142.227408
 30
0.0
 11
228.47362
 21
154.227408
 31
0.0
  0
LINE
  8
0
 62
     0
 10
220.009154
 20
142.227408
 30
0.0
 11
232.009154
 21
154.227408
 31
0.0
  0
LINE
  8
0
 62
     0
 10
223.544688
 20
142.227408
 30
0.0
 11
235.544688
 21
154.227408
 31
0.0
  0
LINE
  8
0
 62
     0
 10
227.080222
 20
142.227408
 30
0.0
 11
239.080222
 21
154.227408
 31
0.0
  0
LINE
  8
0
 62
     0
 10
230.615756
 20
142.227408
 30
0.0
 11
242.615756
 21
154.227408
 31
0.0
  0
LINE
  8
0
 62
     0
 10
234.15129
 20
142.227408
 30
0.0
 11
246.15129
 21
154.227408
 31
0.0
  0
LINE
  8
0
 62
     0
 10
237.686824
 20
142.227408
 30
0.0
 11
242.83354
 21
147.374125
 31
0.0
  0
LINE
  8
0
 62
     0
 10
245.886824
 20
150.427408
 30
0.0
 11
249.686824
 21
154.227408
 31
0.0
  0
LINE
  8
0
 62
     0
 10
241.222358
 20
142.227408
 30
0.0
 11
245.022358
 21
146.027408
 31
0.0
  0
LINE
  8
0
 62
     0
 10
249.422358
 20
150.427408
 30
0.0
 11
253.222358
 21
154.227408
 31
0.0
  0
LINE
  8
0
 62
     0
 10
244.757891
 20
142.227408
 30
0.0
 11
248.557891
 21
146.027408
 31
0.0
  0
LINE
  8
0
 62
     0
 10
252.957891
 20
150.427408
 30
0.0
 11
256.757891
 21
154.227408
 31
0.0
  0
LINE
  8
0
 62
     0
 10
248.293425
 20
142.227408
 30
0.0
 11
252.093425
 21
146.027408
 31
0.0
  0
LINE
  8
0
 62
     0
 10
256.493425
 20
150.427408
 30
0.0
 11
259.882888
 21
153.816871
 31
0.0
  0
LINE
  8
0
 62
     0
 10
251.828959
 20
142.227408
 30
0.0
 11
255.628959
 21
146.027408
 31
0.0
  0
LINE
  8
0
 62
     0
 10
260.028959
 20
150.427408
 30
0.0
 11
260.47235
 21
150.870799
 31
0.0
  0
LINE
  8
0
 62
     0
 10
255.364493
 20
142.227408
 30
0.0
 11
259.164493
 21
146.027408
 31
0.0
  0
LINE
  8
0
 62
     0
 10
258.900027
 20
142.227408
 30
0.0
 11
260.47235
 21
143.799731
 31
0.0
  0
ENDBLK
  8
HACH
  0
BLOCK
  8
HACH
  2
*X4
 70
    65
 10
0.0
 20
0.0
 30
0.0
  0
LINE
  8
0
 62
     0
 10
173.97235
 20
185.237895
 30
0.0
 11
167.97235
 21
191.237895
 31
0.0
  0
LINE
  8
0
 62
     0
 10
173.97235
 20
188.066322
 30
0.0
 11
167.97235
 21
194.066322
 31
0.0
  0
LINE
  8
0
 62
     0
 10
173.97235
 20
190.894749
 30
0.0
 11
167.97235
 21
196.894749
 31
0.0
  0
LINE
  8
0
 62
     0
 10
173.97235
 20
193.723176
 30
0.0
 11
167.97235
 21
199.723176
 31
0.0
  0
LINE
  8
0
 62
     0
 10
173.97235
 20
196.551603
 30
0.0
 11
167.97235
 21
202.551603
 31
0.0
  0
LINE
  8
0
 62
     0
 10
173.97235
 20
199.38003
 30
0.0
 11
168.298661
 21
205.053719
 31
0.0
  0
LINE
  8
0
 62
     0
 10
175.953399
 20
200.227408
 30
0.0
 11
169.712875
 21
206.467933
 31
0.0
  0
LINE
  8
0
 62
     0
 10
178.781827
 20
200.227408
 30
0.0
 11
171.127088
 21
207.882146
 31
0.0
  0
LINE
  8
0
 62
     0
 10
179.610254
 20
202.227408
 30
0.0
 11
173.110254
 21
208.727408
 31
0.0
  0
LINE
  8
0
 62
     0
 10
182.438681
 20
202.227408
 30
0.0
 11
175.47235
 21
209.193739
 31
0.0
  0
LINE
  8
0
 62
     0
 10
185.267108
 20
202.227408
 30
0.0
 11
179.267108
 21
208.227408
 31
0.0
  0
LINE
  8
0
 62
     0
 10
178.47235
 20
209.022166
 30
0.0
 11
176.767108
 21
210.727408
 31
0.0
  0
LINE
  8
0
 62
     0
 10
188.095535
 20
202.227408
 30
0.0
 11
182.095535
 21
208.227408
 31
0.0
  0
LINE
  8
0
 62
     0
 10
190.923962
 20
202.227408
 30
0.0
 11
184.923962
 21
208.227408
 31
0.0
  0
LINE
  8
0
 62
     0
 10
173.423962
 20
219.727408
 30
0.0
 11
172.923962
 21
220.227408
 31
0.0
  0
LINE
  8
0
 62
     0
 10
191.47235
 20
204.507447
 30
0.0
 11
187.752389
 21
208.227408
 31
0.0
  0
LINE
  8
0
 62
     0
 10
178.252389
 20
217.727408
 30
0.0
 11
175.752389
 21
220.227408
 31
0.0
  0
LINE
  8
0
 62
     0
 10
173.97235
 20
182.409468
 30
0.0
 11
167.97235
 21
188.409468
 31
0.0
  0
LINE
  8
0
 62
     0
 10
173.97235
 20
179.581041
 30
0.0
 11
167.97235
 21
185.581041
 31
0.0
  0
LINE
  8
0
 62
     0
 10
191.47235
 20
159.252613
 30
0.0
 11
190.497555
 21
160.227408
 31
0.0
  0
LINE
  8
0
 62
     0
 10
173.97235
 20
176.752613
 30
0.0
 11
167.97235
 21
182.752613
 31
0.0
  0
LINE
  8
0
 62
     0
 10
191.47235
 20
156.424186
 30
0.0
 11
187.669128
 21
160.227408
 31
0.0
  0
LINE
  8
0
 62
     0
 10
173.97235
 20
173.924186
 30
0.0
 11
167.97235
 21
179.924186
 31
0.0
  0
LINE
  8
0
 62
     0
 10
190.656526
 20
154.411584
 30
0.0
 11
184.840701
 21
160.227408
 31
0.0
  0
LINE
  8
0
 62
     0
 10
173.97235
 20
171.095759
 30
0.0
 11
167.97235
 21
177.095759
 31
0.0
  0
LINE
  8
0
 62
     0
 10
188.012274
 20
154.227408
 30
0.0
 11
182.012274
 21
160.227408
 31
0.0
  0
LINE
  8
0
 62
     0
 10
173.97235
 20
168.267332
 30
0.0
 11
167.97235
 21
174.267332
 31
0.0
  0
LINE
  8
0
 62
     0
 10
185.183847
 20
154.227408
 30
0.0
 11
177.183847
 21
162.227408
 31
0.0
  0
LINE
  8
0
 62
     0
 10
173.97235
 20
165.438905
 30
0.0
 11
167.97235
 21
171.438905
 31
0.0
  0
LINE
  8
0
 62
     0
 10
182.35542
 20
154.227408
 30
0.0
 11
174.35542
 21
162.227408
 31
0.0
  0
LINE
  8
0
 62
     0
 10
173.97235
 20
162.610478
 30
0.0
 11
167.97235
 21
168.610478
 31
0.0
  0
LINE
  8
0
 62
     0
 10
179.526993
 20
154.227408
 30
0.0
 11
167.97235
 21
165.782051
 31
0.0
  0
LINE
  8
0
 62
     0
 10
178.47235
 20
152.453624
 30
0.0
 11
167.97235
 21
162.953624
 31
0.0
  0
LINE
  8
0
 62
     0
 10
176.370138
 20
151.727408
 30
0.0
 11
175.47235
 21
152.625196
 31
0.0
  0
LINE
  8
0
 62
     0
 10
174.370138
 20
153.727408
 30
0.0
 11
167.97235
 21
160.125196
 31
0.0
  0
LINE
  8
0
 62
     0
 10
171.541711
 20
153.727408
 30
0.0
 11
171.47235
 21
153.796769
 31
0.0
  0
LINE
  8
0
 62
     0
 10
178.47235
 20
143.968342
 30
0.0
 11
177.713284
 21
144.727408
 31
0.0
  0
LINE
  8
0
 62
     0
 10
177.384857
 20
142.227408
 30
0.0
 11
175.47235
 21
144.139915
 31
0.0
  0
LINE
  8
0
 62
     0
 10
174.55643
 20
142.227408
 30
0.0
 11
174.05643
 21
142.727408
 31
0.0
  0
ENDBLK
  8
HACH
  0
BLOCK
  8
HACH
  2
*X5
 70
    65
 10
0.0
 20
0.0
 30
0.0
  0
LINE
  8
0
 62
     0
 10
228.19273
 20
224.657196
 30
0.0
 11
237.22558
 21
233.690046
 31
0.0
  0
LINE
  8
0
 62
     0
 10
225.491891
 20
225.491891
 30
0.0
 11
234.870901
 21
234.870901
 31
0.0
  0
LINE
  8
0
 62
     0
 10
222.507008
 20
226.042542
 30
0.0
 11
232.370822
 21
235.906356
 31
0.0
  0
LINE
  8
0
 62
     0
 10
219.154317
 20
226.225385
 30
0.0
 11
229.711396
 21
236.782463
 31
0.0
  0
LINE
  8
0
 62
     0
 10
215.264069
 20
225.87067
 30
0.0
 11
226.873101
 21
237.479703
 31
0.0
  0
LINE
  8
0
 62
     0
 10
194.085273
 20
208.227408
 30
0.0
 11
196.188727
 21
210.330862
 31
0.0
  0
LINE
  8
0
 62
     0
 10
210.368896
 20
224.511032
 30
0.0
 11
223.828004
 21
237.970139
 31
0.0
  0
LINE
  8
0
 62
     0
 10
190.549739
 20
208.227408
 30
0.0
 11
194.349739
 21
212.027408
 31
0.0
  0
LINE
  8
0
 62
     0
 10
196.726333
 20
214.404002
 30
0.0
 11
220.53449
 21
238.21216
 31
0.0
  0
LINE
  8
0
 62
     0
 10
187.014205
 20
208.227408
 30
0.0
 11
190.814205
 21
212.027408
 31
0.0
  0
LINE
  8
0
 62
     0
 10
195.042745
 20
216.255948
 30
0.0
 11
216.926516
 21
238.13972
 31
0.0
  0
LINE
  8
0
 62
     0
 10
183.478671
 20
208.227408
 30
0.0
 11
187.278671
 21
212.027408
 31
0.0
  0
LINE
  8
0
 62
     0
 10
191.678671
 20
216.427408
 30
0.0
 11
212.888119
 21
237.636856
 31
0.0
  0
LINE
  8
0
 62
     0
 10
179.943137
 20
208.227408
 30
0.0
 11
183.743137
 21
212.027408
 31
0.0
  0
LINE
  8
0
 62
     0
 10
188.143137
 20
216.427408
 30
0.0
 11
208.17679
 21
236.461062
 31
0.0
  0
LINE
  8
0
 62
     0
 10
178.47235
 20
210.292155
 30
0.0
 11
180.207603
 21
212.027408
 31
0.0
  0
LINE
  8
0
 62
     0
 10
184.607603
 20
216.427408
 30
0.0
 11
202.047885
 21
233.867691
 31
0.0
  0
LINE
  8
0
 62
     0
 10
181.072069
 20
216.427408
 30
0.0
 11
184.872069
 21
220.227408
 31
0.0
  0
LINE
  8
0
 62
     0
 10
178.47235
 20
217.363223
 30
0.0
 11
181.336535
 21
220.227408
 31
0.0
  0
LINE
  8
0
 62
     0
 10
230.657
 20
223.585932
 30
0.0
 11
239.444876
 21
232.373808
 31
0.0
  0
LINE
  8
0
 62
     0
 10
232.913364
 20
222.306762
 30
0.0
 11
241.535876
 21
230.929274
 31
0.0
  0
LINE
  8
0
 62
     0
 10
234.979186
 20
220.83705
 30
0.0
 11
243.50335
 21
229.361214
 31
0.0
  0
LINE
  8
0
 62
     0
 10
236.864108
 20
219.186438
 30
0.0
 11
245.350127
 21
227.672458
 31
0.0
  0
LINE
  8
0
 62
     0
 10
238.57174
 20
217.358537
 30
0.0
 11
247.077303
 21
225.8641
 31
0.0
  0
LINE
  8
0
 62
     0
 10
240.100242
 20
215.351504
 30
0.0
 11
248.684316
 21
223.935579
 31
0.0
  0
LINE
  8
0
 62
     0
 10
241.442029
 20
213.157757
 30
0.0
 11
242.273948
 21
213.989676
 31
0.0
  0
LINE
  8
0
 62
     0
 10
244.711679
 20
216.427408
 30
0.0
 11
250.170322
 21
221.886051
 31
0.0
  0
LINE
  8
0
 62
     0
 10
242.582489
 20
210.762684
 30
0.0
 11
243.957535
 21
212.13773
 31
0.0
  0
LINE
  8
0
 62
     0
 10
248.247213
 20
216.427408
 30
0.0
 11
252.227175
 21
220.40737
 31
0.0
  0
LINE
  8
0
 62
     0
 10
243.582747
 20
208.227408
 30
0.0
 11
247.382747
 21
212.027408
 31
0.0
  0
LINE
  8
0
 62
     0
 10
251.782747
 20
216.427408
 30
0.0
 11
255.582747
 21
220.227408
 31
0.0
  0
LINE
  8
0
 62
     0
 10
247.118281
 20
208.227408
 30
0.0
 11
250.918281
 21
212.027408
 31
0.0
  0
LINE
  8
0
 62
     0
 10
255.318281
 20
216.427408
 30
0.0
 11
259.118281
 21
220.227408
 31
0.0
  0
LINE
  8
0
 62
     0
 10
250.653815
 20
208.227408
 30
0.0
 11
254.453815
 21
212.027408
 31
0.0
  0
LINE
  8
0
 62
     0
 10
258.853815
 20
216.427408
 30
0.0
 11
260.47235
 21
218.045943
 31
0.0
  0
LINE
  8
0
 62
     0
 10
254.189349
 20
208.227408
 30
0.0
 11
257.989349
 21
212.027408
 31
0.0
  0
LINE
  8
0
 62
     0
 10
257.724883
 20
208.227408
 30
0.0
 11
260.47235
 21
210.974875
 31
0.0
  0
ENDBLK
  8
HACH
  0
BLOCK
  8
HACH
  2
*X6
 70
    65
 10
0.0
 20
0.0
 30
0.0
  0
LINE
  8
0
 62
     0
 10
214.928007
 20
199.227408
 30
0.0
 11
222.661011
 21
194.762756
 31
0.0
  0
LINE
  8
0
 62
     0
 10
218.928007
 20
199.227408
 30
0.0
 11
227.000398
 21
194.566811
 31
0.0
  0
LINE
  8
0
 62
     0
 10
222.928007
 20
199.227408
 30
0.0
 11
230.634102
 21
194.778292
 31
0.0
  0
LINE
  8
0
 62
     0
 10
226.928007
 20
199.227408
 30
0.0
 11
233.949305
 21
195.17366
 31
0.0
  0
LINE
  8
0
 62
     0
 10
230.928007
 20
199.227408
 30
0.0
 11
237.112798
 21
195.656617
 31
0.0
  0
LINE
  8
0
 62
     0
 10
234.928007
 20
199.227408
 30
0.0
 11
239.47235
 21
196.60373
 31
0.0
  0
LINE
  8
0
 62
     0
 10
238.928007
 20
199.227408
 30
0.0
 11
239.47235
 21
198.913131
 31
0.0
  0
LINE
  8
0
 62
     0
 10
210.928007
 20
199.227408
 30
0.0
 11
217.753595
 21
195.286653
 31
0.0
  0
LINE
  8
0
 62
     0
 10
206.928007
 20
199.227408
 30
0.0
 11
212.406257
 21
196.064539
 31
0.0
  0
LINE
  8
0
 62
     0
 10
202.928007
 20
199.227408
 30
0.0
 11
207.805612
 21
196.411322
 31
0.0
  0
LINE
  8
0
 62
     0
 10
199.47235
 20
198.913131
 30
0.0
 11
204.254121
 21
196.152375
 31
0.0
  0
LINE
  8
0
 62
     0
 10
199.47235
 20
196.60373
 30
0.0
 11
201.23635
 21
195.585284
 31
0.0
  0
ENDBLK
  8
HACH
  0
BLOCK
  8
HACH
  2
*X7
 70
    65
 10
0.0
 20
0.0
 30
0.0
  0
LINE
  8
0
 62
     0
 10
219.492237
 20
208.307365
 30
0.0
 11
205.704707
 21
222.094895
 31
0.0
  0
LINE
  8
0
 62
     0
 10
223.027771
 20
208.307365
 30
0.0
 11
207.931149
 21
223.403988
 31
0.0
  0
LINE
  8
0
 62
     0
 10
226.563305
 20
208.307365
 30
0.0
 11
210.362242
 21
224.508429
 31
0.0
  0
LINE
  8
0
 62
     0
 10
230.098839
 20
208.307365
 30
0.0
 11
213.024578
 21
225.381626
 31
0.0
  0
LINE
  8
0
 62
     0
 10
233.634373
 20
208.307365
 30
0.0
 11
215.962007
 21
225.979731
 31
0.0
  0
LINE
  8
0
 62
     0
 10
237.169907
 20
208.307365
 30
0.0
 11
219.250845
 21
226.226427
 31
0.0
  0
LINE
  8
0
 62
     0
 10
240.705441
 20
208.307365
 30
0.0
 11
223.041484
 21
225.971322
 31
0.0
  0
LINE
  8
0
 62
     0
 10
242.383167
 20
210.165173
 30
0.0
 11
227.720902
 21
224.827438
 31
0.0
  0
LINE
  8
0
 62
     0
 10
215.956704
 20
208.307365
 30
0.0
 11
203.666898
 21
220.59717
 31
0.0
  0
LINE
  8
0
 62
     0
 10
212.42117
 20
208.307365
 30
0.0
 11
201.809075
 21
218.91946
 31
0.0
  0
LINE
  8
0
 62
     0
 10
208.885636
 20
208.307365
 30
0.0
 11
200.128472
 21
217.064529
 31
0.0
  0
LINE
  8
0
 62
     0
 10
205.350102
 20
208.307365
 30
0.0
 11
198.627766
 21
215.029701
 31
0.0
  0
LINE
  8
0
 62
     0
 10
201.814568
 20
208.307365
 30
0.0
 11
197.315497
 21
212.806436
 31
0.0
  0
LINE
  8
0
 62
     0
 10
198.279034
 20
208.307365
 30
0.0
 11
196.584984
 21
210.001415
 31
0.0
  0
ENDBLK
  8
HACH
  0
BLOCK
  8
HACH
  2
JOINT_4L
 70
    64
 10
0.0
 20
0.0
 30
0.0
  0
INSERT
  8
0
 62
     5
  2
*X0
 10
-265.97235
 20
-204.427408
 30
0.0
  0
INSERT
  8
0
 62
     5
  2
*X1
 10
-265.97235
 20
-204.427408
 30
0.0
  0
ARC
  8
0
 10
0.8
 20
-12.4
 30
0.0
 40
0.8
 50
149.604708
 51
304.841777
  0
ARC
  8
0
 10
3.2
 20
-12.4
 30
0.0
 40
0.8
 50
235.991295
 51
30.395292
  0
ARC
  8
0
 10
3.2
 20
-10.8
 30
0.0
 40
0.8
 50
331.518721
 51
124.008705
  0
ARC
  8
0
 10
0.8
 20
-10.8
 30
0.0
 40
0.8
 50
55.158223
 51
208.481279
  0
ARC
  8
0
 10
4.682213
 20
-11.601044
 30
0.0
 40
0.884824
 50
151.695475
 51
210.19684
  0
ARC
  8
0
 10
-0.682213
 20
-11.601044
 30
0.0
 40
0.884824
 50
329.80316
 51
28.304525
  0
ARC
  8
0
 10
1.9974
 20
-8.45785
 30
0.0
 40
1.84099
 50
239.556684
 51
300.140949
  0
POLYLINE
  8
0
 66
     1
 10
0.0
 20
0.0
 30
0.0
  0
VERTEX
  8
0
 10
1.064597
 20
-13.154976
 30
0.0
 42
-0.270683
  0
VERTEX
  8
0
 10
2.921815
 20
-13.150075
 30
0.0
 42
-0.270683
  0
SEQEND
  8
0
  0
INSERT
  8
0
 62
     5
  2
*X1
 10
-265.97235
 20
-181.227408
 30
0.0
  0
INSERT
  8
0
 62
     5
  2
*X0
 10
-265.97235
 20
-181.227408
 30
0.0
  0
POLYLINE
  8
0
 66
     1
 10
0.0
 20
0.0
 30
0.0
  0
VERTEX
  8
0
 10
1.064597
 20
13.154976
 30
0.0
 42
0.270683
  0
VERTEX
  8
0
 10
2.921815
 20
13.150075
 30
0.0
 42
0.270683
  0
SEQEND
  8
0
  0
ARC
  8
0
 10
1.9974
 20
8.45785
 30
0.0
 40
1.84099
 50
59.859051
 51
120.443316
  0
ARC
  8
0
 10
-0.682213
 20
11.601044
 30
0.0
 40
0.884824
 50
331.695475
 51
30.19684
  0
ARC
  8
0
 10
4.682213
 20
11.601044
 30
0.0
 40
0.884824
 50
149.80316
 51
208.304525
  0
ARC
  8
0
 10
0.8
 20
10.8
 30
0.0
 40
0.8
 50
151.518721
 51
304.841777
  0
ARC
  8
0
 10
3.2
 20
10.8
 30
0.0
 40
0.8
 50
235.991295
 51
28.481279
  0
ARC
  8
0
 10
3.2
 20
12.4
 30
0.0
 40
0.8
 50
329.604708
 51
124.008705
  0
ARC
  8
0
 10
0.8
 20
12.4
 30
0.0
 40
0.8
 50
55.158223
 51
210.395292
  0
ENDBLK
  8
HACH
  0
BLOCK
  8
HACH
  2
*X9
 70
    65
 10
0.0
 20
0.0
 30
0.0
  0
LINE
  8
0
 62
     0
 10
132.682655
 20
185.8131
 30
0.0
 11
137.251983
 21
193.727408
 31
0.0
  0
LINE
  8
0
 62
     0
 10
145.912237
 20
208.727408
 30
0.0
 11
150.682655
 21
216.990015
 31
0.0
  0
LINE
  8
0
 62
     0
 10
132.682655
 20
189.8131
 30
0.0
 11
134.942582
 21
193.727408
 31
0.0
  0
LINE
  8
0
 62
     0
 10
143.602836
 20
208.727408
 30
0.0
 11
150.682655
 21
220.990015
 31
0.0
  0
LINE
  8
0
 62
     0
 10
141.293435
 20
208.727408
 30
0.0
 11
150.682655
 21
224.990015
 31
0.0
  0
LINE
  8
0
 62
     0
 10
138.984034
 20
208.727408
 30
0.0
 11
149.953689
 21
227.727408
 31
0.0
  0
LINE
  8
0
 62
     0
 10
136.674633
 20
208.727408
 30
0.0
 11
147.644288
 21
227.727408
 31
0.0
  0
LINE
  8
0
 62
     0
 10
134.365232
 20
208.727408
 30
0.0
 11
145.334887
 21
227.727408
 31
0.0
  0
LINE
  8
0
 62
     0
 10
132.682655
 20
209.8131
 30
0.0
 11
143.682655
 21
228.865659
 31
0.0
  0
LINE
  8
0
 62
     0
 10
149.376339
 20
238.727408
 30
0.0
 11
150.037496
 21
239.872567
 31
0.0
  0
LINE
  8
0
 62
     0
 10
132.682655
 20
213.8131
 30
0.0
 11
141.870785
 21
229.727408
 31
0.0
  0
LINE
  8
0
 62
     0
 10
147.066938
 20
238.727408
 30
0.0
 11
147.932963
 21
240.227408
 31
0.0
  0
LINE
  8
0
 62
     0
 10
132.682655
 20
217.8131
 30
0.0
 11
136.530295
 21
224.477408
 31
0.0
  0
LINE
  8
0
 62
     0
 10
144.757537
 20
238.727408
 30
0.0
 11
145.623562
 21
240.227408
 31
0.0
  0
LINE
  8
0
 62
     0
 10
136.682655
 20
224.741303
 30
0.0
 11
137.540658
 21
226.227408
 31
0.0
  0
LINE
  8
0
 62
     0
 10
143.602836
 20
236.727408
 30
0.0
 11
143.682655
 21
236.865659
 31
0.0
  0
LINE
  8
0
 62
     0
 10
132.682655
 20
221.8131
 30
0.0
 11
134.220894
 21
224.477408
 31
0.0
  0
LINE
  8
0
 62
     0
 10
141.293435
 20
236.727408
 30
0.0
 11
143.314161
 21
240.227408
 31
0.0
  0
LINE
  8
0
 62
     0
 10
132.682655
 20
225.8131
 30
0.0
 11
132.921856
 21
226.227408
 31
0.0
  0
LINE
  8
0
 62
     0
 10
139.682655
 20
237.937456
 30
0.0
 11
141.00476
 21
240.227408
 31
0.0
  0
LINE
  8
0
 62
     0
 10
132.682655
 20
181.8131
 30
0.0
 11
139.561384
 21
193.727408
 31
0.0
  0
LINE
  8
0
 62
     0
 10
150.531039
 20
212.727408
 30
0.0
 11
150.682655
 21
212.990015
 31
0.0
  0
LINE
  8
0
 62
     0
 10
148.221638
 20
208.727408
 30
0.0
 11
148.682655
 21
209.525913
 31
0.0
  0
LINE
  8
0
 62
     0
 10
132.682655
 20
177.8131
 30
0.0
 11
141.870785
 21
193.727408
 31
0.0
  0
LINE
  8
0
 62
     0
 10
134.076557
 20
176.227408
 30
0.0
 11
134.182655
 21
176.411176
 31
0.0
  0
LINE
  8
0
 62
     0
 10
135.08692
 20
177.977408
 30
0.0
 11
144.180186
 21
193.727408
 31
0.0
  0
LINE
  8
0
 62
     0
 10
136.682655
 20
176.741303
 30
0.0
 11
146.489587
 21
193.727408
 31
0.0
  0
LINE
  8
0
 62
     0
 10
138.695359
 20
176.227408
 30
0.0
 11
148.682655
 21
193.525913
 31
0.0
  0
LINE
  8
0
 62
     0
 10
139.682655
 20
173.937456
 30
0.0
 11
148.798989
 21
189.727408
 31
0.0
  0
LINE
  8
0
 62
     0
 10
141.293435
 20
172.727408
 30
0.0
 11
150.682655
 21
188.990015
 31
0.0
  0
LINE
  8
0
 62
     0
 10
143.602836
 20
172.727408
 30
0.0
 11
143.682655
 21
172.865659
 31
0.0
  0
LINE
  8
0
 62
     0
 10
144.757537
 20
174.727408
 30
0.0
 11
150.682655
 21
184.990015
 31
0.0
  0
LINE
  8
0
 62
     0
 10
140.154811
 20
162.755253
 30
0.0
 11
141.870785
 21
165.727408
 31
0.0
  0
LINE
  8
0
 62
     0
 10
147.066938
 20
174.727408
 30
0.0
 11
150.682655
 21
180.990015
 31
0.0
  0
LINE
  8
0
 62
     0
 10
142.15946
 20
162.227408
 30
0.0
 11
143.682655
 21
164.865659
 31
0.0
  0
LINE
  8
0
 62
     0
 10
149.376339
 20
174.727408
 30
0.0
 11
150.682655
 21
176.990015
 31
0.0
  0
LINE
  8
0
 62
     0
 10
144.468861
 20
162.227408
 30
0.0
 11
145.334887
 21
163.727408
 31
0.0
  0
LINE
  8
0
 62
     0
 10
146.778263
 20
162.227408
 30
0.0
 11
147.644288
 21
163.727408
 31
0.0
  0
LINE
  8
0
 62
     0
 10
149.087664
 20
162.227408
 30
0.0
 11
149.953689
 21
163.727408
 31
0.0
  0
ENDBLK
  8
HACH
  0
BLOCK
  8
HACH
  2
*X10
 70
    65
 10
0.0
 20
0.0
 30
0.0
  0
LINE
  8
0
 62
     0
 10
54.682655
 20
146.606537
 30
0.0
 11
63.601764
 21
155.525646
 31
0.0
  0
LINE
  8
0
 62
     0
 10
134.303527
 20
226.227408
 30
0.0
 11
139.103527
 21
231.027408
 31
0.0
  0
LINE
  8
0
 62
     0
 10
79.96264
 20
171.886522
 30
0.0
 11
84.303527
 21
176.227408
 31
0.0
  0
LINE
  8
0
 62
     0
 10
54.682655
 20
150.142071
 30
0.0
 11
58.706228
 21
154.165643
 31
0.0
  0
LINE
  8
0
 62
     0
 10
130.767993
 20
226.227408
 30
0.0
 11
135.567993
 21
231.027408
 31
0.0
  0
LINE
  8
0
 62
     0
 10
54.682655
 20
153.677605
 30
0.0
 11
54.734394
 21
153.729343
 31
0.0
  0
LINE
  8
0
 62
     0
 10
136.432459
 20
235.427408
 30
0.0
 11
139.671533
 21
238.666483
 31
0.0
  0
LINE
  8
0
 62
     0
 10
127.232459
 20
226.227408
 30
0.0
 11
132.032459
 21
231.027408
 31
0.0
  0
LINE
  8
0
 62
     0
 10
123.696925
 20
226.227408
 30
0.0
 11
128.496925
 21
231.027408
 31
0.0
  0
LINE
  8
0
 62
     0
 10
132.896925
 20
235.427408
 30
0.0
 11
137.696403
 21
240.226886
 31
0.0
  0
LINE
  8
0
 62
     0
 10
120.161391
 20
226.227408
 30
0.0
 11
124.961391
 21
231.027408
 31
0.0
  0
LINE
  8
0
 62
     0
 10
129.361391
 20
235.427408
 30
0.0
 11
134.159655
 21
240.225672
 31
0.0
  0
LINE
  8
0
 62
     0
 10
116.625857
 20
226.227408
 30
0.0
 11
121.425857
 21
231.027408
 31
0.0
  0
LINE
  8
0
 62
     0
 10
125.825857
 20
235.427408
 30
0.0
 11
130.622906
 21
240.224457
 31
0.0
  0
LINE
  8
0
 62
     0
 10
113.090323
 20
226.227408
 30
0.0
 11
117.890323
 21
231.027408
 31
0.0
  0
LINE
  8
0
 62
     0
 10
122.290323
 20
235.427408
 30
0.0
 11
126.929219
 21
240.066304
 31
0.0
  0
LINE
  8
0
 62
     0
 10
109.554789
 20
226.227408
 30
0.0
 11
114.354789
 21
231.027408
 31
0.0
  0
LINE
  8
0
 62
     0
 10
118.754789
 20
235.427408
 30
0.0
 11
121.550329
 21
238.222948
 31
0.0
  0
LINE
  8
0
 62
     0
 10
106.019255
 20
226.227408
 30
0.0
 11
111.369128
 21
231.577281
 31
0.0
  0
LINE
  8
0
 62
     0
 10
115.219255
 20
235.427408
 30
0.0
 11
118.017481
 21
238.225633
 31
0.0
  0
LINE
  8
0
 62
     0
 10
102.483721
 20
226.227408
 30
0.0
 11
115.682655
 21
239.426342
 31
0.0
  0
LINE
  8
0
 62
     0
 10
98.948188
 20
226.227408
 30
0.0
 11
112.948188
 21
240.227408
 31
0.0
  0
LINE
  8
0
 62
     0
 10
95.412654
 20
226.227408
 30
0.0
 11
109.412654
 21
240.227408
 31
0.0
  0
LINE
  8
0
 62
     0
 10
91.87712
 20
226.227408
 30
0.0
 11
105.87712
 21
240.227408
 31
0.0
  0
LINE
  8
0
 62
     0
 10
88.341586
 20
226.227408
 30
0.0
 11
102.341586
 21
240.227408
 31
0.0
  0
LINE
  8
0
 62
     0
 10
84.806052
 20
226.227408
 30
0.0
 11
98.806052
 21
240.227408
 31
0.0
  0
LINE
  8
0
 62
     0
 10
81.270518
 20
226.227408
 30
0.0
 11
95.270518
 21
240.227408
 31
0.0
  0
LINE
  8
0
 62
     0
 10
77.734984
 20
226.227408
 30
0.0
 11
89.717987
 21
238.210411
 31
0.0
  0
LINE
  8
0
 62
     0
 10
91.682673
 20
240.175097
 30
0.0
 11
91.734984
 21
240.227408
 31
0.0
  0
LINE
  8
0
 62
     0
 10
74.19945
 20
226.227408
 30
0.0
 11
86.181239
 21
238.209197
 31
0.0
  0
LINE
  8
0
 62
     0
 10
70.663916
 20
226.227408
 30
0.0
 11
82.644491
 21
238.207983
 31
0.0
  0
LINE
  8
0
 62
     0
 10
67.128382
 20
226.227408
 30
0.0
 11
79.107742
 21
238.206768
 31
0.0
  0
LINE
  8
0
 62
     0
 10
63.592849
 20
226.227408
 30
0.0
 11
75.570994
 21
238.205554
 31
0.0
  0
LINE
  8
0
 62
     0
 10
60.057315
 20
226.227408
 30
0.0
 11
72.034246
 21
238.204339
 31
0.0
  0
LINE
  8
0
 62
     0
 10
56.521781
 20
226.227408
 30
0.0
 11
68.497497
 21
238.203125
 31
0.0
  0
LINE
  8
0
 62
     0
 10
54.682655
 20
227.923817
 30
0.0
 11
64.960749
 21
238.20191
 31
0.0
  0
LINE
  8
0
 62
     0
 10
54.682655
 20
231.45935
 30
0.0
 11
61.424001
 21
238.200696
 31
0.0
  0
LINE
  8
0
 62
     0
 10
54.682655
 20
234.994884
 30
0.0
 11
57.887252
 21
238.199481
 31
0.0
  0
LINE
  8
0
 62
     0
 10
54.682655
 20
143.071003
 30
0.0
 11
87.839061
 21
176.227408
 31
0.0
  0
LINE
  8
0
 62
     0
 10
137.839061
 20
226.227408
 30
0.0
 11
139.682655
 21
228.071003
 31
0.0
  0
LINE
  8
0
 62
     0
 10
57.902387
 20
142.7552
 30
0.0
 11
91.374594
 21
176.227408
 31
0.0
  0
LINE
  8
0
 62
     0
 10
61.855346
 20
143.172626
 30
0.0
 11
94.910128
 21
176.227408
 31
0.0
  0
LINE
  8
0
 62
     0
 10
66.417579
 20
144.199325
 30
0.0
 11
98.445662
 21
176.227408
 31
0.0
  0
LINE
  8
0
 62
     0
 10
72.158302
 20
146.404514
 30
0.0
 11
101.981196
 21
176.227408
 31
0.0
  0
LINE
  8
0
 62
     0
 10
93.51673
 20
164.227408
 30
0.0
 11
105.51673
 21
176.227408
 31
0.0
  0
LINE
  8
0
 62
     0
 10
97.052264
 20
164.227408
 30
0.0
 11
109.052264
 21
176.227408
 31
0.0
  0
LINE
  8
0
 62
     0
 10
100.587798
 20
164.227408
 30
0.0
 11
112.587798
 21
176.227408
 31
0.0
  0
LINE
  8
0
 62
     0
 10
104.123332
 20
164.227408
 30
0.0
 11
116.123332
 21
176.227408
 31
0.0
  0
LINE
  8
0
 62
     0
 10
107.658866
 20
164.227408
 30
0.0
 11
111.197514
 21
167.766056
 31
0.0
  0
LINE
  8
0
 62
     0
 10
114.858866
 20
171.427408
 30
0.0
 11
119.658866
 21
176.227408
 31
0.0
  0
LINE
  8
0
 62
     0
 10
111.1944
 20
164.227408
 30
0.0
 11
113.9944
 21
167.027408
 31
0.0
  0
LINE
  8
0
 62
     0
 10
118.3944
 20
171.427408
 30
0.0
 11
123.1944
 21
176.227408
 31
0.0
  0
LINE
  8
0
 62
     0
 10
114.729934
 20
164.227408
 30
0.0
 11
117.529934
 21
167.027408
 31
0.0
  0
LINE
  8
0
 62
     0
 10
121.929934
 20
171.427408
 30
0.0
 11
126.729934
 21
176.227408
 31
0.0
  0
LINE
  8
0
 62
     0
 10
118.265467
 20
164.227408
 30
0.0
 11
121.065467
 21
167.027408
 31
0.0
  0
LINE
  8
0
 62
     0
 10
125.465467
 20
171.427408
 30
0.0
 11
130.265467
 21
176.227408
 31
0.0
  0
LINE
  8
0
 62
     0
 10
121.801001
 20
164.227408
 30
0.0
 11
124.601001
 21
167.027408
 31
0.0
  0
LINE
  8
0
 62
     0
 10
129.001001
 20
171.427408
 30
0.0
 11
133.801001
 21
176.227408
 31
0.0
  0
LINE
  8
0
 62
     0
 10
124.706023
 20
163.596896
 30
0.0
 11
128.136535
 21
167.027408
 31
0.0
  0
LINE
  8
0
 62
     0
 10
132.536535
 20
171.427408
 30
0.0
 11
137.336535
 21
176.227408
 31
0.0
  0
LINE
  8
0
 62
     0
 10
126.937042
 20
162.292381
 30
0.0
 11
131.672069
 21
167.027408
 31
0.0
  0
LINE
  8
0
 62
     0
 10
136.072069
 20
171.427408
 30
0.0
 11
139.682655
 21
175.037994
 31
0.0
  0
LINE
  8
0
 62
     0
 10
130.407603
 20
162.227408
 30
0.0
 11
135.207603
 21
167.027408
 31
0.0
  0
LINE
  8
0
 62
     0
 10
139.607603
 20
171.427408
 30
0.0
 11
139.682655
 21
171.50246
 31
0.0
  0
LINE
  8
0
 62
     0
 10
133.943137
 20
162.227408
 30
0.0
 11
138.743137
 21
167.027408
 31
0.0
  0
LINE
  8
0
 62
     0
 10
137.478671
 20
162.227408
 30
0.0
 11
139.682655
 21
164.431393
 31
0.0
  0
ENDBLK
  8
HACH
  0
BLOCK
  8
HACH
  2
*X11
 70
    65
 10
0.0
 20
0.0
 30
0.0
  0
LINE
  8
0
 62
     0
 10
74.267988
 20
174.633599
 30
0.0
 11
54.682655
 21
194.218932
 31
0.0
  0
LINE
  8
0
 62
     0
 10
76.824654
 20
174.90536
 30
0.0
 11
54.682655
 21
197.047359
 31
0.0
  0
LINE
  8
0
 62
     0
 10
78.970967
 20
175.587474
 30
0.0
 11
54.682655
 21
199.875786
 31
0.0
  0
LINE
  8
0
 62
     0
 10
80.343749
 20
177.04312
 30
0.0
 11
75.35813
 21
182.028738
 31
0.0
  0
LINE
  8
0
 62
     0
 10
58.500644
 20
198.886225
 30
0.0
 11
54.682655
 21
202.704213
 31
0.0
  0
LINE
  8
0
 62
     0
 10
72.305953
 20
185.080915
 30
0.0
 11
58.58829
 21
198.798578
 31
0.0
  0
LINE
  8
0
 62
     0
 10
74.240105
 20
185.97519
 30
0.0
 11
61.400934
 21
198.814362
 31
0.0
  0
LINE
  8
0
 62
     0
 10
58.37799
 20
201.837306
 30
0.0
 11
54.682655
 21
205.53264
 31
0.0
  0
LINE
  8
0
 62
     0
 10
75.90903
 20
187.134693
 30
0.0
 11
70.402826
 21
192.640897
 31
0.0
  0
LINE
  8
0
 62
     0
 10
56.521004
 20
206.522718
 30
0.0
 11
55.842183
 21
207.201539
 31
0.0
  0
LINE
  8
0
 62
     0
 10
68.089556
 20
194.954167
 30
0.0
 11
62.60502
 21
200.438703
 31
0.0
  0
LINE
  8
0
 62
     0
 10
77.336772
 20
188.535377
 30
0.0
 11
72.562268
 21
193.309881
 31
0.0
  0
LINE
  8
0
 62
     0
 10
69.042754
 20
196.829396
 30
0.0
 11
64.048531
 21
201.823619
 31
0.0
  0
LINE
  8
0
 62
     0
 10
78.524524
 20
190.176053
 30
0.0
 11
75.138692
 21
193.561885
 31
0.0
  0
LINE
  8
0
 62
     0
 10
69.687386
 20
199.013191
 30
0.0
 11
65.73405
 21
202.966526
 31
0.0
  0
LINE
  8
0
 62
     0
 10
69.90224
 20
201.626764
 30
0.0
 11
67.928928
 21
203.600076
 31
0.0
  0
LINE
  8
0
 62
     0
 10
71.433731
 20
174.639429
 30
0.0
 11
54.682655
 21
191.390505
 31
0.0
  0
LINE
  8
0
 62
     0
 10
72.425225
 20
170.819508
 30
0.0
 11
71.388434
 21
171.856299
 31
0.0
  0
LINE
  8
0
 62
     0
 10
70.538126
 20
172.706607
 30
0.0
 11
54.682655
 21
188.562078
 31
0.0
  0
LINE
  8
0
 62
     0
 10
75.181966
 20
165.234339
 30
0.0
 11
54.682655
 21
185.73365
 31
0.0
  0
LINE
  8
0
 62
     0
 10
73.887189
 20
163.700689
 30
0.0
 11
54.682655
 21
182.905223
 31
0.0
  0
LINE
  8
0
 62
     0
 10
71.235442
 20
163.52401
 30
0.0
 11
54.682655
 21
180.076796
 31
0.0
  0
LINE
  8
0
 62
     0
 10
65.264604
 20
166.66642
 30
0.0
 11
54.682655
 21
177.248369
 31
0.0
  0
LINE
  8
0
 62
     0
 10
63.543285
 20
165.559312
 30
0.0
 11
54.682655
 21
174.419942
 31
0.0
  0
LINE
  8
0
 62
     0
 10
64.065804
 20
162.208366
 30
0.0
 11
54.682655
 21
171.591515
 31
0.0
  0
LINE
  8
0
 62
     0
 10
64.011069
 20
159.434674
 30
0.0
 11
54.682655
 21
168.763088
 31
0.0
  0
LINE
  8
0
 62
     0
 10
63.466438
 20
157.150878
 30
0.0
 11
54.682655
 21
165.934661
 31
0.0
  0
LINE
  8
0
 62
     0
 10
61.619122
 20
156.169766
 30
0.0
 11
56.600956
 21
161.187933
 31
0.0
  0
ENDBLK
  8
HACH
  0
BLOCK
  8
HACH
  2
*X12
 70
    65
 10
0.0
 20
0.0
 30
0.0
  0
LINE
  8
0
 62
     0
 10
258.205968
 20
198.727408
 30
0.0
 11
259.47235
 21
199.458554
 31
0.0
  0
LINE
  8
0
 62
     0
 10
256.304269
 20
198.784162
 30
0.0
 11
259.47235
 21
200.613255
 31
0.0
  0
LINE
  8
0
 62
     0
 10
255.580712
 20
199.521117
 30
0.0
 11
259.353872
 21
201.699552
 31
0.0
  0
LINE
  8
0
 62
     0
 10
254.523946
 20
200.065693
 30
0.0
 11
258.268146
 21
202.227408
 31
0.0
  0
LINE
  8
0
 62
     0
 10
250.205968
 20
198.727408
 30
0.0
 11
250.956746
 21
199.16087
 31
0.0
  0
LINE
  8
0
 62
     0
 10
252.622712
 20
200.122716
 30
0.0
 11
256.268146
 21
202.227408
 31
0.0
  0
LINE
  8
0
 62
     0
 10
248.205968
 20
198.727408
 30
0.0
 11
254.268146
 21
202.227408
 31
0.0
  0
LINE
  8
0
 62
     0
 10
247.47235
 20
199.458554
 30
0.0
 11
252.268146
 21
202.227408
 31
0.0
  0
LINE
  8
0
 62
     0
 10
247.47235
 20
200.613255
 30
0.0
 11
250.268146
 21
202.227408
 31
0.0
  0
LINE
  8
0
 62
     0
 10
247.771384
 20
201.940603
 30
0.0
 11
248.205189
 21
202.19106
 31
0.0
  0
LINE
  8
0
 62
     0
 10
247.47235
 20
163.662838
 30
0.0
 11
247.58419
 21
163.727408
 31
0.0
  0
LINE
  8
0
 62
     0
 10
247.47235
 20
162.508137
 30
0.0
 11
249.58419
 21
163.727408
 31
0.0
  0
LINE
  8
0
 62
     0
 10
247.47235
 20
161.353437
 30
0.0
 11
250.913061
 21
163.339932
 31
0.0
  0
LINE
  8
0
 62
     0
 10
247.870644
 20
160.428691
 30
0.0
 11
251.760597
 21
162.674557
 31
0.0
  0
LINE
  8
0
 62
     0
 10
249.522012
 20
160.227408
 30
0.0
 11
253.033874
 21
162.254983
 31
0.0
  0
LINE
  8
0
 62
     0
 10
251.522012
 20
160.227408
 30
0.0
 11
257.58419
 21
163.727408
 31
0.0
  0
LINE
  8
0
 62
     0
 10
253.522012
 20
160.227408
 30
0.0
 11
259.47235
 21
163.662838
 31
0.0
  0
LINE
  8
0
 62
     0
 10
255.522012
 20
160.227408
 30
0.0
 11
259.47235
 21
162.508137
 31
0.0
  0
LINE
  8
0
 62
     0
 10
257.522012
 20
160.227408
 30
0.0
 11
259.47235
 21
161.353437
 31
0.0
  0
ENDBLK
  8
HACH
  0
BLOCK
  8
HACH
  2
*X13
 70
    65
 10
0.0
 20
0.0
 30
0.0
  0
LINE
  8
0
 62
     0
 10
248.59301
 20
191.227408
 30
0.0
 11
247.47235
 21
192.348068
 31
0.0
  0
LINE
  8
0
 62
     0
 10
250.007223
 20
191.227408
 30
0.0
 11
247.47235
 21
193.762281
 31
0.0
  0
LINE
  8
0
 62
     0
 10
251.421437
 20
191.227408
 30
0.0
 11
247.921437
 21
194.727408
 31
0.0
  0
LINE
  8
0
 62
     0
 10
252.83565
 20
191.227408
 30
0.0
 11
249.33565
 21
194.727408
 31
0.0
  0
LINE
  8
0
 62
     0
 10
254.249864
 20
191.227408
 30
0.0
 11
251.852411
 21
193.624861
 31
0.0
  0
LINE
  8
0
 62
     0
 10
255.664078
 20
191.227408
 30
0.0
 11
253.659092
 21
193.232394
 31
0.0
  0
LINE
  8
0
 62
     0
 10
257.078291
 20
191.227408
 30
0.0
 11
254.811832
 21
193.493867
 31
0.0
  0
LINE
  8
0
 62
     0
 10
258.492305
 20
191.227607
 30
0.0
 11
255.695644
 21
194.024269
 31
0.0
  0
LINE
  8
0
 62
     0
 10
259.362461
 20
191.771665
 30
0.0
 11
256.406718
 21
194.727408
 31
0.0
  0
LINE
  8
0
 62
     0
 10
259.47235
 20
193.07599
 30
0.0
 11
257.820932
 21
194.727408
 31
0.0
  0
LINE
  8
0
 62
     0
 10
259.47235
 20
194.490203
 30
0.0
 11
259.235145
 21
194.727408
 31
0.0
  0
LINE
  8
0
 62
     0
 10
259.439568
 20
170.481355
 30
0.0
 11
258.726296
 21
171.194627
 31
0.0
  0
LINE
  8
0
 62
     0
 10
259.47235
 20
169.034359
 30
0.0
 11
257.279301
 21
171.227408
 31
0.0
  0
LINE
  8
0
 62
     0
 10
259.365088
 20
167.727408
 30
0.0
 11
255.865088
 21
171.227408
 31
0.0
  0
LINE
  8
0
 62
     0
 10
257.950874
 20
167.727408
 30
0.0
 11
254.450874
 21
171.227408
 31
0.0
  0
LINE
  8
0
 62
     0
 10
256.536661
 20
167.727408
 30
0.0
 11
253.036661
 21
171.227408
 31
0.0
  0
LINE
  8
0
 62
     0
 10
253.625813
 20
169.224042
 30
0.0
 11
251.622447
 21
171.227408
 31
0.0
  0
LINE
  8
0
 62
     0
 10
252.382305
 20
169.053337
 30
0.0
 11
250.208233
 21
171.227408
 31
0.0
  0
LINE
  8
0
 62
     0
 10
251.442649
 20
168.578779
 30
0.0
 11
248.79402
 21
171.227408
 31
0.0
  0
LINE
  8
0
 62
     0
 10
250.719002
 20
167.888212
 30
0.0
 11
247.720487
 21
170.886727
 31
0.0
  0
LINE
  8
0
 62
     0
 10
249.465593
 20
167.727408
 30
0.0
 11
247.47235
 21
169.720651
 31
0.0
  0
LINE
  8
0
 62
     0
 10
248.051379
 20
167.727408
 30
0.0
 11
247.47235
 21
168.306437
 31
0.0
  0
ENDBLK
  8
HACH
  0
BLOCK
  8
0
  2
ROUL20X42
 70
    64
 10
0.0
 20
0.0
 30
0.0
  0
LINE
  8
0
 10
12.0
 20
13.5
 30
0.0
 11
12.0
 21
17.564571
 31
0.0
  0
LINE
  8
0
 10
0.0
 20
13.5
 30
0.0
 11
0.0
 21
17.564571
 31
0.0
  0
LINE
  8
0
 10
0.0
 20
-13.5
 30
0.0
 11
0.0
 21
-17.564571
 31
0.0
  0
LINE
  8
0
 10
12.0
 20
-13.5
 30
0.0
 11
12.0
 21
-17.564571
 31
0.0
  0
INSERT
  8
HACH
  2
*X13
 10
-247.47235
 20
-181.227408
 30
0.0
  0
INSERT
  8
HACH
  2
*X12
 10
-247.47235
 20
-181.227408
 30
0.0
  0
LINE
  8
0
  6
AXES
 62
     1
 10
6.0
 20
-11.65
 30
0.0
 11
6.0
 21
-19.35
 31
0.0
  0
LINE
  8
0
  6
AXES
 62
     1
 10
10.2
 20
-15.5
 30
0.0
 11
1.8
 21
-15.5
 31
0.0
  0
CIRCLE
  8
0
 10
6.0
 20
-15.5
 30
0.0
 40
3.5
  0
POLYLINE
  8
0
 62
     7
 66
     1
 10
0.0
 20
0.0
 30
0.0
 70
     1
  0
VERTEX
  8
0
 62
     7
 10
12.0
 20
-20.0
 30
0.0
 42
-0.414214
  0
VERTEX
  8
0
 62
     7
 10
11.0
 20
-21.0
 30
0.0
  0
VERTEX
  8
0
 62
     7
 10
1.0
 20
-21.0
 30
0.0
 42
-0.414214
  0
VERTEX
  8
0
 62
     7
 10
0.0
 20
-20.0
 30
0.0
  0
VERTEX
  8
0
 62
     7
 10
0.0
 20
-17.5
 30
0.0
  0
VERTEX
  8
0
 62
     7
 10
3.127719
 20
-17.5
 30
0.0
 42
0.522233
  0
VERTEX
  8
0
 62
     7
 10
8.872281
 20
-17.5
 30
0.0
  0
VERTEX
  8
0
 62
     7
 10
12.0
 20
-17.5
 30
0.0
  0
SEQEND
  8
0
  0
POLYLINE
  8
0
 62
     7
 66
     1
 10
0.0
 20
0.0
 30
0.0
 70
     1
  0
VERTEX
  8
0
 62
     7
 10
12.0
 20
-11.0
 30
0.0
 42
0.414214
  0
VERTEX
  8
0
 62
     7
 10
11.0
 20
-10.0
 30
0.0
  0
VERTEX
  8
0
 62
     7
 10
1.0
 20
-10.0
 30
0.0
 42
0.414214
  0
VERTEX
  8
0
 62
     7
 10
0.0
 20
-11.0
 30
0.0
  0
VERTEX
  8
0
 62
     7
 10
0.0
 20
-13.5
 30
0.0
  0
VERTEX
  8
0
 62
     7
 10
3.127719
 20
-13.5
 30
0.0
 42
-0.522233
  0
VERTEX
  8
0
 62
     7
 10
8.872281
 20
-13.5
 30
0.0
  0
VERTEX
  8
0
 62
     7
 10
12.0
 20
-13.5
 30
0.0
  0
SEQEND
  8
0
  0
POLYLINE
  8
0
 62
     7
 66
     1
 10
0.0
 20
0.0
 30
0.0
 70
     1
  0
VERTEX
  8
0
 62
     7
 10
12.0
 20
11.0
 30
0.0
 42
-0.414214
  0
VERTEX
  8
0
 62
     7
 10
11.0
 20
10.0
 30
0.0
  0
VERTEX
  8
0
 62
     7
 10
1.0
 20
10.0
 30
0.0
 42
-0.414214
  0
VERTEX
  8
0
 62
     7
 10
0.0
 20
11.0
 30
0.0
  0
VERTEX
  8
0
 62
     7
 10
0.0
 20
13.5
 30
0.0
  0
VERTEX
  8
0
 62
     7
 10
3.127719
 20
13.5
 30
0.0
 42
0.522233
  0
VERTEX
  8
0
 62
     7
 10
8.872281
 20
13.5
 30
0.0
  0
VERTEX
  8
0
 62
     7
 10
12.0
 20
13.5
 30
0.0
  0
SEQEND
  8
0
  0
POLYLINE
  8
0
 62
     7
 66
     1
 10
0.0
 20
0.0
 30
0.0
 70
     1
  0
VERTEX
  8
0
 62
     7
 10
12.0
 20
20.0
 30
0.0
 42
0.414214
  0
VERTEX
  8
0
 62
     7
 10
11.0
 20
21.0
 30
0.0
  0
VERTEX
  8
0
 62
     7
 10
1.0
 20
21.0
 30
0.0
 42
0.414214
  0
VERTEX
  8
0
 62
     7
 10
0.0
 20
20.0
 30
0.0
  0
VERTEX
  8
0
 62
     7
 10
0.0
 20
17.5
 30
0.0
  0
VERTEX
  8
0
 62
     7
 10
3.127719
 20
17.5
 30
0.0
 42
-0.522233
  0
VERTEX
  8
0
 62
     7
 10
8.872281
 20
17.5
 30
0.0
  0
VERTEX
  8
0
 62
     7
 10
12.0
 20
17.5
 30
0.0
  0
SEQEND
  8
0
  0
CIRCLE
  8
0
 10
6.0
 20
15.5
 30
0.0
 40
3.5
  0
LINE
  8
0
  6
AXES
 62
     1
 10
10.2
 20
15.5
 30
0.0
 11
1.8
 21
15.5
 31
0.0
  0
LINE
  8
0
  6
AXES
 62
     1
 10
6.0
 20
11.65
 30
0.0
 11
6.0
 21
19.35
 31
0.0
  0
ENDBLK
  8
0
  0
BLOCK
  8
HACH
  2
*X15
 70
    65
 10
0.0
 20
0.0
 30
0.0
  0
LINE
  8
0
 62
     0
 10
259.47235
 20
170.419294
 30
0.0
 11
260.47235
 21
172.151344
 31
0.0
  0
LINE
  8
0
 62
     0
 10
259.47235
 20
171.419294
 30
0.0
 11
259.938915
 21
172.227408
 31
0.0
  0
LINE
  8
0
 62
     0
 10
259.47235
 20
169.419294
 30
0.0
 11
260.47235
 21
171.151344
 31
0.0
  0
LINE
  8
0
 62
     0
 10
259.938915
 20
169.227408
 30
0.0
 11
260.47235
 21
170.151344
 31
0.0
  0
ENDBLK
  8
HACH
  0
BLOCK
  8
HACH
  2
CIRCL20
 70
    64
 10
0.0
 20
0.0
 30
0.0
  0
POLYLINE
  8
0
 66
     1
 10
0.0
 20
0.0
 30
0.0
 70
     1
  0
VERTEX
  8
0
 10
0.0
 20
9.0
 30
0.0
  0
VERTEX
  8
0
 10
0.0
 20
11.0
 30
0.0
  0
VERTEX
  8
0
 10
1.0
 20
11.0
 30
0.0
  0
VERTEX
  8
0
 10
1.0
 20
9.0
 30
0.0
  0
SEQEND
  8
0
  0
INSERT
  8
HACH
  2
*X15
 10
-259.47235
 20
-181.227408
 30
0.0
  0
POLYLINE
  8
0
 66
     1
 10
0.0
 20
0.0
 30
0.0
 70
     1
  0
VERTEX
  8
0
 10
0.0
 20
-9.0
 30
0.0
  0
VERTEX
  8
0
 10
0.0
 20
-12.0
 30
0.0
  0
VERTEX
  8
0
 10
1.0
 20
-12.0
 30
0.0
  0
VERTEX
  8
0
 10
1.0
 20
-9.0
 30
0.0
  0
SEQEND
  8
0
  0
ENDBLK
  8
HACH
  0
BLOCK
  8
HACH
  2
*X17
 70
    65
 10
0.0
 20
0.0
 30
0.0
  0
LINE
  8
0
 62
     0
 10
119.182655
 20
185.430414
 30
0.0
 11
120.682655
 21
188.02849
 31
0.0
  0
LINE
  8
0
 62
     0
 10
119.182655
 20
186.430414
 30
0.0
 11
120.22015
 21
188.227408
 31
0.0
  0
LINE
  8
0
 62
     0
 10
119.182655
 20
187.430414
 30
0.0
 11
119.6428
 21
188.227408
 31
0.0
  0
LINE
  8
0
 62
     0
 10
119.182655
 20
184.430414
 30
0.0
 11
120.682655
 21
187.02849
 31
0.0
  0
LINE
  8
0
 62
     0
 10
119.354125
 20
183.727408
 30
0.0
 11
120.682655
 21
186.02849
 31
0.0
  0
LINE
  8
0
 62
     0
 10
119.931475
 20
183.727408
 30
0.0
 11
120.682655
 21
185.02849
 31
0.0
  0
LINE
  8
0
 62
     0
 10
120.508825
 20
183.727408
 30
0.0
 11
120.682655
 21
184.02849
 31
0.0
  0
ENDBLK
  8
HACH
  0
BLOCK
  8
HACH
  2
CIRCL30
 70
    64
 10
0.0
 20
0.0
 30
0.0
  0
POLYLINE
  8
0
 66
     1
 10
0.0
 20
0.0
 30
0.0
 70
     1
  0
VERTEX
  8
0
 10
0.0
 20
13.0
 30
0.0
  0
VERTEX
  8
0
 10
0.0
 20
16.0
 30
0.0
  0
VERTEX
  8
0
 10
1.5
 20
16.0
 30
0.0
  0
VERTEX
  8
0
 10
1.5
 20
13.0
 30
0.0
  0
SEQEND
  8
0
  0
INSERT
  8
HACH
  2
*X17
 10
-119.182655
 20
-201.227408
 30
0.0
  0
POLYLINE
  8
0
 66
     1
 10
0.0
 20
0.0
 30
0.0
 70
     1
  0
VERTEX
  8
0
 10
0.0
 20
-13.0
 30
0.0
  0
VERTEX
  8
0
 10
0.0
 20
-17.5
 30
0.0
  0
VERTEX
  8
0
 10
1.5
 20
-17.5
 30
0.0
  0
VERTEX
  8
0
 10
1.5
 20
-13.0
 30
0.0
  0
SEQEND
  8
0
  0
ENDBLK
  8
HACH
  0
BLOCK
  8
HACH
  2
*X19
 70
    65
 10
0.0
 20
0.0
 30
0.0
  0
LINE
  8
0
 62
     0
 10
116.83987
 20
215.227408
 30
0.0
 11
116.682655
 21
215.499713
 31
0.0
  0
LINE
  8
0
 62
     0
 10
117.763631
 20
215.227408
 30
0.0
 11
116.682655
 21
217.099713
 31
0.0
  0
LINE
  8
0
 62
     0
 10
118.687391
 20
215.227408
 30
0.0
 11
116.682655
 21
218.699713
 31
0.0
  0
LINE
  8
0
 62
     0
 10
119.182655
 20
215.969586
 30
0.0
 11
116.682655
 21
220.299713
 31
0.0
  0
LINE
  8
0
 62
     0
 10
119.182655
 20
217.569586
 30
0.0
 11
116.682655
 21
221.899713
 31
0.0
  0
LINE
  8
0
 62
     0
 10
119.182655
 20
219.169586
 30
0.0
 11
116.83987
 21
223.227408
 31
0.0
  0
LINE
  8
0
 62
     0
 10
119.182655
 20
220.769586
 30
0.0
 11
117.763631
 21
223.227408
 31
0.0
  0
LINE
  8
0
 62
     0
 10
119.182655
 20
222.369586
 30
0.0
 11
118.687391
 21
223.227408
 31
0.0
  0
LINE
  8
0
 62
     0
 10
119.182655
 20
187.169586
 30
0.0
 11
119.149271
 21
187.227408
 31
0.0
  0
LINE
  8
0
 62
     0
 10
119.182655
 20
185.569586
 30
0.0
 11
118.225511
 21
187.227408
 31
0.0
  0
LINE
  8
0
 62
     0
 10
119.182655
 20
183.969586
 30
0.0
 11
117.301751
 21
187.227408
 31
0.0
  0
LINE
  8
0
 62
     0
 10
119.182655
 20
182.369586
 30
0.0
 11
116.682655
 21
186.699713
 31
0.0
  0
LINE
  8
0
 62
     0
 10
119.182655
 20
180.769586
 30
0.0
 11
116.682655
 21
185.099713
 31
0.0
  0
LINE
  8
0
 62
     0
 10
119.149271
 20
179.227408
 30
0.0
 11
116.682655
 21
183.499713
 31
0.0
  0
LINE
  8
0
 62
     0
 10
118.225511
 20
179.227408
 30
0.0
 11
116.682655
 21
181.899713
 31
0.0
  0
LINE
  8
0
 62
     0
 10
117.301751
 20
179.227408
 30
0.0
 11
116.682655
 21
180.299713
 31
0.0
  0
ENDBLK
  8
HACH
  0
BLOCK
  8
HACH
  2
BAGUE
 70
    64
 10
0.0
 20
0.0
 30
0.0
  0
INSERT
  8
HACH
  2
*X19
 10
-116.682655
 20
-201.227408
 30
0.0
  0
POLYLINE
  8
0
 66
     1
 10
0.0
 20
0.0
 30
0.0
 70
     1
  0
VERTEX
  8
0
 10
0.0
 20
14.0
 30
0.0
  0
VERTEX
  8
0
 10
0.0
 20
22.0
 30
0.0
  0
VERTEX
  8
0
 10
2.5
 20
22.0
 30
0.0
  0
VERTEX
  8
0
 10
2.5
 20
14.0
 30
0.0
  0
SEQEND
  8
0
  0
POLYLINE
  8
0
 66
     1
 10
0.0
 20
0.0
 30
0.0
 70
     1
  0
VERTEX
  8
0
 10
0.0
 20
-14.0
 30
0.0
  0
VERTEX
  8
0
 10
0.0
 20
-22.0
 30
0.0
  0
VERTEX
  8
0
 10
2.5
 20
-22.0
 30
0.0
  0
VERTEX
  8
0
 10
2.5
 20
-14.0
 30
0.0
  0
SEQEND
  8
0
  0
ENDBLK
  8
HACH
  0
BLOCK
  8
0
  2
*X21
 70
    65
 10
0.0
 20
0.0
 30
0.0
  0
LINE
  8
0
 62
     0
 10
135.293037
 20
224.482894
 30
0.0
 11
134.217656
 21
225.558274
 31
0.0
  0
LINE
  8
0
 62
     0
 10
136.039092
 20
224.585367
 30
0.0
 11
134.611832
 21
226.012627
 31
0.0
  0
LINE
  8
0
 62
     0
 10
136.53222
 20
224.940766
 30
0.0
 11
135.254517
 21
226.21847
 31
0.0
  0
LINE
  8
0
 62
     0
 10
136.647933
 20
177.307478
 30
0.0
 11
136.121145
 21
177.834266
 31
0.0
  0
LINE
  8
0
 62
     0
 10
136.479499
 20
176.627383
 30
0.0
 11
135.15178
 21
177.955103
 31
0.0
  0
LINE
  8
0
 62
     0
 10
135.953079
 20
176.305275
 30
0.0
 11
134.542007
 21
177.716348
 31
0.0
  0
LINE
  8
0
 62
     0
 10
135.161664
 20
176.248162
 30
0.0
 11
134.193214
 21
177.216613
 31
0.0
  0
ENDBLK
  8
0
  0
BLOCK
  8
0
  2
JOINT_TOR
 70
    64
 10
0.0
 20
0.0
 30
0.0
  0
INSERT
  8
HACH
  2
*X21
 10
-134.182655
 20
-201.227408
 30
0.0
  0
POLYLINE
  8
0
 66
     1
 10
0.0
 20
0.0
 30
0.0
 70
     1
  0
VERTEX
  8
0
 10
0.0
 20
-24.125
 30
0.0
 42
-0.13438
  0
VERTEX
  8
0
 10
0.086827
 20
-23.80777
 30
0.0
 42
-0.106842
  0
VERTEX
  8
0
 10
0.366117
 20
-23.506282
 30
0.0
 42
-0.082314
 70
     2
 50
325.00798
  0
VERTEX
  8
0
 10
0.754424
 20
-23.320396
 30
0.0
 42
-0.07067
  0
VERTEX
  8
0
 10
1.25
 20
-23.25
 30
0.0
 42
-0.07067
  0
VERTEX
  8
0
 10
1.745576
 20
-23.320396
 30
0.0
 42
-0.082314
  0
VERTEX
  8
0
 10
2.133883
 20
-23.506282
 30
0.0
 42
-0.106842
 70
     2
 50
34.99202
  0
VERTEX
  8
0
 10
2.413173
 20
-23.80777
 30
0.0
 42
-0.13438
  0
VERTEX
  8
0
 10
2.5
 20
-24.125
 30
0.0
 42
-0.13438
  0
VERTEX
  8
0
 10
2.413173
 20
-24.44223
 30
0.0
 42
-0.106842
  0
VERTEX
  8
0
 10
2.133883
 20
-24.743718
 30
0.0
 42
-0.082314
 70
     2
 50
145.00798
  0
VERTEX
  8
0
 10
1.745576
 20
-24.929604
 30
0.0
 42
-0.07067
  0
VERTEX
  8
0
 10
1.25
 20
-25.0
 30
0.0
 42
-0.07067
  0
VERTEX
  8
0
 10
0.754424
 20
-24.929604
 30
0.0
 42
-0.082314
  0
VERTEX
  8
0
 10
0.366117
 20
-24.743718
 30
0.0
 42
-0.106842
 70
     2
 50
214.99202
  0
VERTEX
  8
0
 10
0.086827
 20
-24.44223
 30
0.0
 42
-0.13438
  0
SEQEND
  8
0
  0
POLYLINE
  8
0
 66
     1
 10
0.0
 20
0.0
 30
0.0
 70
     1
  0
VERTEX
  8
0
 10
0.0
 20
24.125
 30
0.0
 42
0.13438
  0
VERTEX
  8
0
 10
0.086827
 20
23.80777
 30
0.0
 42
0.106842
  0
VERTEX
  8
0
 10
0.366117
 20
23.506282
 30
0.0
 42
0.082314
 70
     2
 50
325.00798
  0
VERTEX
  8
0
 10
0.754424
 20
23.320396
 30
0.0
 42
0.07067
 50
325.00798
  0
VERTEX
  8
0
 10
1.25
 20
23.25
 30
0.0
 42
0.07067
  0
VERTEX
  8
0
 10
1.745576
 20
23.320396
 30
0.0
 42
0.082314
  0
VERTEX
  8
0
 10
2.133883
 20
23.506282
 30
0.0
 42
0.106842
 70
     2
 50
34.99202
  0
VERTEX
  8
0
 10
2.413173
 20
23.80777
 30
0.0
 42
0.13438
 50
34.99202
  0
VERTEX
  8
0
 10
2.5
 20
24.125
 30
0.0
 42
0.13438
  0
VERTEX
  8
0
 10
2.413173
 20
24.44223
 30
0.0
 42
0.106842
  0
VERTEX
  8
0
 10
2.133883
 20
24.743718
 30
0.0
 42
0.082314
 70
     2
 50
145.00798
  0
VERTEX
  8
0
 10
1.745576
 20
24.929604
 30
0.0
 42
0.07067
 50
145.00798
  0
VERTEX
  8
0
 10
1.25
 20
25.0
 30
0.0
 42
0.07067
  0
VERTEX
  8
0
 10
0.754424
 20
24.929604
 30
0.0
 42
0.082314
  0
VERTEX
  8
0
 10
0.366117
 20
24.743718
 30
0.0
 42
0.106842
 70
     2
 50
214.99202
  0
VERTEX
  8
0
 10
0.086827
 20
24.44223
 30
0.0
 42
0.13438
 50
214.99202
  0
SEQEND
  8
0
  0
ENDBLK
  8
0
  0
BLOCK
  8
0
  2
*X23
 70
    65
 10
0.0
 20
0.0
 30
0.0
  0
LINE
  8
0
 62
     0
 10
109.284352
 20
220.227408
 30
0.0
 11
108.682655
 21
220.829105
 31
0.0
  0
LINE
  8
0
 62
     0
 10
110.698565
 20
220.227408
 30
0.0
 11
108.682655
 21
222.243318
 31
0.0
  0
LINE
  8
0
 62
     0
 10
112.112779
 20
220.227408
 30
0.0
 11
108.682655
 21
223.657532
 31
0.0
  0
LINE
  8
0
 62
     0
 10
113.526993
 20
220.227408
 30
0.0
 11
111.700941
 21
222.05346
 31
0.0
  0
LINE
  8
0
 62
     0
 10
110.323207
 20
223.431193
 30
0.0
 11
108.682655
 21
225.071746
 31
0.0
  0
LINE
  8
0
 62
     0
 10
114.941206
 20
220.227408
 30
0.0
 11
113.676591
 21
221.492024
 31
0.0
  0
LINE
  8
0
 62
     0
 10
111.259936
 20
223.908678
 30
0.0
 11
108.941206
 21
226.227408
 31
0.0
  0
LINE
  8
0
 62
     0
 10
112.303999
 20
224.278829
 30
0.0
 11
110.35542
 21
226.227408
 31
0.0
  0
LINE
  8
0
 62
     0
 10
113.348061
 20
224.64898
 30
0.0
 11
111.769633
 21
226.227408
 31
0.0
  0
LINE
  8
0
 62
     0
 10
114.392124
 20
225.019131
 30
0.0
 11
113.183847
 21
226.227408
 31
0.0
  0
LINE
  8
0
 62
     0
 10
115.270552
 20
225.554917
 30
0.0
 11
114.59806
 21
226.227408
 31
0.0
  0
LINE
  8
0
 62
     0
 10
115.300718
 20
181.68413
 30
0.0
 11
114.75744
 21
182.227408
 31
0.0
  0
LINE
  8
0
 62
     0
 10
114.401764
 20
181.168871
 30
0.0
 11
113.343226
 21
182.227408
 31
0.0
  0
LINE
  8
0
 62
     0
 10
113.300504
 20
180.855917
 30
0.0
 11
111.929013
 21
182.227408
 31
0.0
  0
LINE
  8
0
 62
     0
 10
112.199244
 20
180.542963
 30
0.0
 11
110.514799
 21
182.227408
 31
0.0
  0
LINE
  8
0
 62
     0
 10
115.100586
 20
176.227408
 30
0.0
 11
113.617781
 21
177.710213
 31
0.0
  0
LINE
  8
0
 62
     0
 10
111.097984
 20
180.23001
 30
0.0
 11
109.100586
 21
182.227408
 31
0.0
  0
LINE
  8
0
 62
     0
 10
113.686372
 20
176.227408
 30
0.0
 11
111.426801
 21
178.48698
 31
0.0
  0
LINE
  8
0
 62
     0
 10
110.323207
 20
179.590573
 30
0.0
 11
108.682655
 21
181.231125
 31
0.0
  0
LINE
  8
0
 62
     0
 10
112.272159
 20
176.227408
 30
0.0
 11
108.682655
 21
179.816912
 31
0.0
  0
LINE
  8
0
 62
     0
 10
110.857945
 20
176.227408
 30
0.0
 11
108.682655
 21
178.402698
 31
0.0
  0
LINE
  8
0
 62
     0
 10
109.443731
 20
176.227408
 30
0.0
 11
108.682655
 21
176.988484
 31
0.0
  0
ENDBLK
  8
0
  0
BLOCK
  8
0
  2
*X24
 70
    65
 10
0.0
 20
0.0
 30
0.0
  0
LINE
  8
0
 62
     0
 10
108.682655
 20
221.0
 30
0.0
 11
115.300718
 21
221.0
 31
0.0
  0
LINE
  8
0
 62
     0
 10
108.682655
 20
222.0
 30
0.0
 11
111.889062
 21
222.0
 31
0.0
  0
LINE
  8
0
 62
     0
 10
108.682655
 20
223.0
 30
0.0
 11
110.323207
 21
223.0
 31
0.0
  0
LINE
  8
0
 62
     0
 10
108.682655
 20
224.0
 30
0.0
 11
111.517522
 21
224.0
 31
0.0
  0
LINE
  8
0
 62
     0
 10
108.682655
 20
225.0
 30
0.0
 11
114.338163
 21
225.0
 31
0.0
  0
LINE
  8
0
 62
     0
 10
108.682655
 20
226.0
 30
0.0
 11
115.270552
 21
226.0
 31
0.0
  0
LINE
  8
0
 62
     0
 10
108.682655
 20
182.0
 30
0.0
 11
115.300718
 21
182.0
 31
0.0
  0
LINE
  8
0
 62
     0
 10
108.682655
 20
181.0
 30
0.0
 11
113.80752
 21
181.0
 31
0.0
  0
LINE
  8
0
 62
     0
 10
108.682655
 20
180.0
 30
0.0
 11
110.323207
 21
180.0
 31
0.0
  0
LINE
  8
0
 62
     0
 10
108.682655
 20
179.0
 30
0.0
 11
110.323207
 21
179.0
 31
0.0
  0
LINE
  8
0
 62
     0
 10
108.682655
 20
178.0
 30
0.0
 11
112.800395
 21
178.0
 31
0.0
  0
LINE
  8
0
 62
     0
 10
108.682655
 20
177.0
 30
0.0
 11
115.270552
 21
177.0
 31
0.0
  0
ENDBLK
  8
0
  0
BLOCK
  8
0
  2
JOINT_TUR
 70
    64
 10
0.0
 20
0.0
 30
0.0
  0
POLYLINE
  8
0
 66
     1
 10
0.0
 20
0.0
 30
0.0
 70
     1
  0
VERTEX
  8
0
 10
-0.0
 20
19.0
 30
0.0
  0
VERTEX
  8
0
 10
6.618063
 20
19.0
 30
0.0
  0
VERTEX
  8
0
 10
6.618063
 20
19.803074
 30
0.0
  0
VERTEX
  8
0
 10
1.640552
 20
21.217573
 30
0.0
  0
VERTEX
  8
0
 10
1.640552
 20
22.349172
 30
0.0
  0
VERTEX
  8
0
 10
6.587897
 20
24.103151
 30
0.0
  0
VERTEX
  8
0
 10
6.587897
 20
25.0
 30
0.0
  0
VERTEX
  8
0
 10
-0.0
 20
25.0
 30
0.0
  0
VERTEX
  8
0
 10
-0.0
 20
19.0
 30
0.0
  0
SEQEND
  8
0
  0
POLYLINE
  8
0
 66
     1
 10
0.0
 20
0.0
 30
0.0
 70
     1
  0
VERTEX
  8
0
 10
-0.0
 20
-19.0
 30
0.0
  0
VERTEX
  8
0
 10
6.618063
 20
-19.0
 30
0.0
  0
VERTEX
  8
0
 10
6.618063
 20
-19.803074
 30
0.0
  0
VERTEX
  8
0
 10
1.640552
 20
-21.217573
 30
0.0
  0
VERTEX
  8
0
 10
1.640552
 20
-22.349172
 30
0.0
  0
VERTEX
  8
0
 10
6.587897
 20
-24.103151
 30
0.0
  0
VERTEX
  8
0
 10
6.587897
 20
-25.0
 30
0.0
  0
VERTEX
  8
0
 10
-0.0
 20
-25.0
 30
0.0
  0
VERTEX
  8
0
 10
-0.0
 20
-19.0
 30
0.0
  0
SEQEND
  8
0
  0
INSERT
  8
HACH
  2
*X24
 10
-108.682655
 20
-201.227408
 30
0.0
  0
INSERT
  8
HACH
  2
*X23
 10
-108.682655
 20
-201.227408
 30
0.0
  0
ENDBLK
  8
0
  0
BLOCK
  8
0
  2
VIS_CHCM6_16
 70
    64
 10
0.0
 20
0.0
 30
0.0
  0
LINE
  8
0
 10
0.0
 20
5.0
 30
0.0
 11
5.0
 21
5.0
 31
0.0
  0
ARC
  8
0
 10
5.0
 20
4.0
 30
0.0
 40
1.0
 50
0.0
 51
90.0
  0
LINE
  8
0
 10
6.0
 20
4.0
 30
0.0
 11
6.0
 21
-4.0
 31
0.0
  0
ARC
  8
0
 10
5.0
 20
-4.0
 30
0.0
 40
1.0
 50
270.0
 51
0.0
  0
LINE
  8
0
 10
5.0
 20
-5.0
 30
0.0
 11
0.0
 21
-5.0
 31
0.0
  0
LINE
  8
0
 10
0.0
 20
-5.0
 30
0.0
 11
0.0
 21
5.0
 31
0.0
  0
LINE
  8
0
  6
CACHE
 62
     4
 10
6.0
 20
-2.885585
 30
0.0
 11
2.523622
 21
-2.885585
 31
0.0
  0
LINE
  8
0
  6
CACHE
 62
     4
 10
2.523622
 20
-2.885585
 30
0.0
 11
2.523622
 21
0.0
 31
0.0
  0
LINE
  8
0
  6
CACHE
 62
     4
 10
2.523622
 20
-2.885585
 30
0.0
 11
1.482496
 21
0.0
 31
0.0
  0
LINE
  8
0
  6
CACHE
 62
     4
 10
6.0
 20
-1.366328
 30
0.0
 11
2.523622
 21
-1.366328
 31
0.0
  0
LINE
  8
0
  6
CACHE
 62
     4
 10
6.0
 20
1.366328
 30
0.0
 11
2.523622
 21
1.366328
 31
0.0
  0
LINE
  8
0
  6
CACHE
 62
     4
 10
2.523622
 20
2.885585
 30
0.0
 11
1.482496
 21
0.0
 31
0.0
  0
LINE
  8
0
  6
CACHE
 62
     4
 10
2.523622
 20
2.885585
 30
0.0
 11
2.523622
 21
0.0
 31
0.0
  0
LINE
  8
0
  6
CACHE
 62
     4
 10
6.0
 20
2.885585
 30
0.0
 11
2.523622
 21
2.885585
 31
0.0
  0
LINE
  8
0
 10
0.0
 20
3.0
 30
0.0
 11
-15.2
 21
3.0
 31
0.0
  0
LINE
  8
0
 10
-2.0
 20
-3.0
 30
0.0
 11
-2.0
 21
3.0
 31
0.0
  0
LINE
  8
HACH
 10
-16.0
 20
2.2
 30
0.0
 11
-2.0
 21
2.2
 31
0.0
  0
LINE
  8
HACH
 10
-16.0
 20
-2.2
 30
0.0
 11
-2.0
 21
-2.2
 31
0.0
  0
LINE
  8
0
 10
-15.2
 20
-3.0
 30
0.0
 11
0.0
 21
-3.0
 31
0.0
  0
LINE
  8
0
 10
-15.2
 20
-3.0
 30
0.0
 11
-15.2
 21
3.0
 31
0.0
  0
LINE
  8
0
 10
-15.2
 20
3.0
 30
0.0
 11
-16.0
 21
2.2
 31
0.0
  0
LINE
  8
0
 10
-16.0
 20
2.2
 30
0.0
 11
-16.0
 21
-2.2
 31
0.0
  0
LINE
  8
0
 10
-16.0
 20
-2.2
 30
0.0
 11
-15.2
 21
-3.0
 31
0.0
  0
ENDBLK
  8
0
  0
BLOCK
  8
0
  2
VIS_CHCM6_25
 70
    64
 10
0.0
 20
0.0
 30
0.0
  0
LINE
  8
0
 10
-25.0
 20
-2.2
 30
0.0
 11
-24.2
 21
-3.0
 31
0.0
  0
LINE
  8
0
 10
-25.0
 20
2.2
 30
0.0
 11
-25.0
 21
-2.2
 31
0.0
  0
LINE
  8
0
 10
-24.2
 20
3.0
 30
0.0
 11
-25.0
 21
2.2
 31
0.0
  0
LINE
  8
0
 10
-24.2
 20
-3.0
 30
0.0
 11
-24.2
 21
3.0
 31
0.0
  0
LINE
  8
0
 10
-24.2
 20
-3.0
 30
0.0
 11
0.0
 21
-3.0
 31
0.0
  0
LINE
  8
HACH
 10
-25.0
 20
-2.2
 30
0.0
 11
-2.0
 21
-2.2
 31
0.0
  0
LINE
  8
HACH
 10
-25.0
 20
2.2
 30
0.0
 11
-2.0
 21
2.2
 31
0.0
  0
LINE
  8
0
 10
-2.0
 20
-3.0
 30
0.0
 11
-2.0
 21
3.0
 31
0.0
  0
LINE
  8
0
 10
0.0
 20
3.0
 30
0.0
 11
-24.2
 21
3.0
 31
0.0
  0
LINE
  8
0
  6
CACHE
 62
     4
 10
6.0
 20
2.885585
 30
0.0
 11
2.523622
 21
2.885585
 31
0.0
  0
LINE
  8
0
  6
CACHE
 62
     4
 10
2.523622
 20
2.885585
 30
0.0
 11
2.523622
 21
0.0
 31
0.0
  0
LINE
  8
0
  6
CACHE
 62
     4
 10
2.523622
 20
2.885585
 30
0.0
 11
1.482496
 21
0.0
 31
0.0
  0
LINE
  8
0
  6
CACHE
 62
     4
 10
6.0
 20
1.366328
 30
0.0
 11
2.523622
 21
1.366328
 31
0.0
  0
LINE
  8
0
  6
CACHE
 62
     4
 10
6.0
 20
-1.366328
 30
0.0
 11
2.523622
 21
-1.366328
 31
0.0
  0
LINE
  8
0
  6
CACHE
 62
     4
 10
2.523622
 20
-2.885585
 30
0.0
 11
1.482496
 21
0.0
 31
0.0
  0
LINE
  8
0
  6
CACHE
 62
     4
 10
2.523622
 20
-2.885585
 30
0.0
 11
2.523622
 21
0.0
 31
0.0
  0
LINE
  8
0
  6
CACHE
 62
     4
 10
6.0
 20
-2.885585
 30
0.0
 11
2.523622
 21
-2.885585
 31
0.0
  0
LINE
  8
0
 10
0.0
 20
-5.0
 30
0.0
 11
0.0
 21
5.0
 31
0.0
  0
LINE
  8
0
 10
5.0
 20
-5.0
 30
0.0
 11
0.0
 21
-5.0
 31
0.0
  0
ARC
  8
0
 10
5.0
 20
-4.0
 30
0.0
 40
1.0
 50
270.0
 51
0.0
  0
LINE
  8
0
 10
6.0
 20
4.0
 30
0.0
 11
6.0
 21
-4.0
 31
0.0
  0
ARC
  8
0
 10
5.0
 20
4.0
 30
0.0
 40
1.0
 50
0.0
 51
90.0
  0
LINE
  8
0
 10
0.0
 20
5.0
 30
0.0
 11
5.0
 21
5.0
 31
0.0
  0
ENDBLK
  8
0
  0
BLOCK
  8
0
  2
VIS_CHCM6_FACE
 70
    64
 10
0.0
 20
0.0
 30
0.0
  0
LINE
  8
0
 10
1.443376
 20
2.5
 30
0.0
 11
2.886751
 21
-0.0
 31
0.0
  0
LINE
  8
0
 10
2.886751
 20
-0.0
 30
0.0
 11
1.443376
 21
-2.5
 31
0.0
  0
LINE
  8
0
 10
1.443376
 20
-2.5
 30
0.0
 11
-1.443376
 21
-2.5
 31
0.0
  0
LINE
  8
0
 10
-1.443376
 20
-2.5
 30
0.0
 11
-2.886751
 21
-0.0
 31
0.0
  0
LINE
  8
0
 10
-2.886751
 20
-0.0
 30
0.0
 11
-1.443376
 21
2.5
 31
0.0
  0
LINE
  8
0
 10
-1.443376
 20
2.5
 30
0.0
 11
1.443376
 21
2.5
 31
0.0
  0
CIRCLE
  8
0
 10
0.0
 20
0.0
 30
0.0
 40
5.0
  0
ENDBLK
  8
0
  0
ENDSEC
  0
SECTION
  2
ENTITIES
  0
LINE
  8
0
  6
AXES
 62
     1
 10
180.341092
 20
181.227408
 30
0.0
 11
331.347645
 21
181.227408
 31
0.0
  0
LINE
  8
0
 10
190.00012
 20
181.227408
 30
0.0
 11
190.00012
 21
190.227408
 31
0.0
  0
LINE
  8
0
 10
190.00012
 20
190.227408
 30
0.0
 11
191.00012
 21
191.227408
 31
0.0
  0
LINE
  8
0
 10
191.00012
 20
191.227408
 30
0.0
 11
193.00012
 21
191.227408
 31
0.0
  0
LINE
  8
0
 10
193.00012
 20
191.227408
 30
0.0
 11
193.00012
 21
190.227408
 31
0.0
  0
LINE
  8
0
 10
193.00012
 20
190.227408
 30
0.0
 11
194.00012
 21
190.227408
 31
0.0
  0
LINE
  8
0
 10
194.00012
 20
190.227408
 30
0.0
 11
194.00012
 21
191.227408
 31
0.0
  0
LINE
  8
0
 10
194.00012
 20
191.227408
 30
0.0
 11
206.00012
 21
191.227408
 31
0.0
  0
LINE
  8
0
 10
206.00012
 20
191.227408
 30
0.0
 11
206.00012
 21
194.227408
 31
0.0
  0
LINE
  8
0
 10
206.00012
 20
194.227408
 30
0.0
 11
214.00012
 21
194.227408
 31
0.0
  0
LINE
  8
0
 10
214.00012
 20
194.227408
 30
0.0
 11
214.00012
 21
207.227408
 31
0.0
  0
LINE
  8
0
 10
214.00012
 20
207.227408
 30
0.0
 11
254.00012
 21
207.227408
 31
0.0
  0
LINE
  8
0
 10
214.00012
 20
155.227408
 30
0.0
 11
254.00012
 21
155.227408
 31
0.0
  0
LINE
  8
0
 10
214.00012
 20
168.227408
 30
0.0
 11
214.00012
 21
155.227408
 31
0.0
  0
LINE
  8
0
 10
206.00012
 20
168.227408
 30
0.0
 11
214.00012
 21
168.227408
 31
0.0
  0
LINE
  8
0
 10
206.00012
 20
171.227408
 30
0.0
 11
206.00012
 21
168.227408
 31
0.0
  0
LINE
  8
0
 10
194.00012
 20
171.227408
 30
0.0
 11
206.00012
 21
171.227408
 31
0.0
  0
LINE
  8
0
 10
194.00012
 20
172.227408
 30
0.0
 11
194.00012
 21
171.227408
 31
0.0
  0
LINE
  8
0
 10
193.00012
 20
172.227408
 30
0.0
 11
194.00012
 21
172.227408
 31
0.0
  0
LINE
  8
0
 10
193.00012
 20
171.227408
 30
0.0
 11
193.00012
 21
172.227408
 31
0.0
  0
LINE
  8
0
 10
191.00012
 20
171.227408
 30
0.0
 11
193.00012
 21
171.227408
 31
0.0
  0
LINE
  8
0
 10
190.00012
 20
172.227408
 30
0.0
 11
191.00012
 21
171.227408
 31
0.0
  0
LINE
  8
0
 10
190.00012
 20
181.227408
 30
0.0
 11
190.00012
 21
172.227408
 31
0.0
  0
LINE
  8
0
 10
275.00012
 20
171.227408
 30
0.0
 11
275.00012
 21
172.227408
 31
0.0
  0
LINE
  8
0
 10
275.00012
 20
172.227408
 30
0.0
 11
274.00012
 21
172.227408
 31
0.0
  0
LINE
  8
0
 10
274.00012
 20
172.227408
 30
0.0
 11
274.00012
 21
171.227408
 31
0.0
  0
LINE
  8
0
 10
274.00012
 20
171.227408
 30
0.0
 11
262.00012
 21
171.227408
 31
0.0
  0
LINE
  8
0
 10
262.00012
 20
171.227408
 30
0.0
 11
262.00012
 21
168.227408
 31
0.0
  0
LINE
  8
0
 10
262.00012
 20
168.227408
 30
0.0
 11
254.00012
 21
168.227408
 31
0.0
  0
LINE
  8
0
 10
262.00012
 20
194.227408
 30
0.0
 11
254.00012
 21
194.227408
 31
0.0
  0
LINE
  8
0
 10
262.00012
 20
191.227408
 30
0.0
 11
262.00012
 21
194.227408
 31
0.0
  0
LINE
  8
0
 10
274.00012
 20
191.227408
 30
0.0
 11
262.00012
 21
191.227408
 31
0.0
  0
LINE
  8
0
 10
274.00012
 20
190.227408
 30
0.0
 11
274.00012
 21
191.227408
 31
0.0
  0
LINE
  8
0
 10
275.00012
 20
190.227408
 30
0.0
 11
274.00012
 21
190.227408
 31
0.0
  0
LINE
  8
0
 10
275.00012
 20
191.227408
 30
0.0
 11
275.00012
 21
190.227408
 31
0.0
  0
LINE
  8
0
 10
254.00012
 20
194.227408
 30
0.0
 11
254.00012
 21
207.227408
 31
0.0
  0
LINE
  8
0
 10
254.00012
 20
168.227408
 30
0.0
 11
254.00012
 21
155.227408
 31
0.0
  0
LINE
  8
0
 10
275.00012
 20
191.227408
 30
0.0
 11
286.00012
 21
191.227408
 31
0.0
  0
LINE
  8
0
 10
286.00012
 20
191.227408
 30
0.0
 11
286.00012
 21
190.227408
 31
0.0
  0
LINE
  8
0
 10
286.00012
 20
190.227408
 30
0.0
 11
324.00012
 21
190.227408
 31
0.0
  0
LINE
  8
0
 10
324.00012
 20
190.227408
 30
0.0
 11
326.00012
 21
188.227408
 31
0.0
  0
LINE
  8
0
 10
324.00012
 20
172.227408
 30
0.0
 11
326.00012
 21
174.227408
 31
0.0
  0
LINE
  8
0
 10
286.00012
 20
172.227408
 30
0.0
 11
324.00012
 21
172.227408
 31
0.0
  0
LINE
  8
0
 10
286.00012
 20
171.227408
 30
0.0
 11
286.00012
 21
172.227408
 31
0.0
  0
LINE
  8
0
 10
275.00012
 20
171.227408
 30
0.0
 11
286.00012
 21
171.227408
 31
0.0
  0
LINE
  8
0
 10
326.00012
 20
188.227408
 30
0.0
 11
326.00012
 21
174.227408
 31
0.0
  0
LINE
  8
0
 10
324.00012
 20
190.227408
 30
0.0
 11
324.00012
 21
172.227408
 31
0.0
  0
LINE
  8
0
 10
286.00012
 20
190.227408
 30
0.0
 11
286.00012
 21
172.227408
 31
0.0
  0
LINE
  8
0
 10
275.00012
 20
190.227408
 30
0.0
 11
275.00012
 21
172.227408
 31
0.0
  0
LINE
  8
0
 10
274.00012
 20
172.227408
 30
0.0
 11
274.00012
 21
190.227408
 31
0.0
  0
LINE
  8
0
 10
262.00012
 20
191.227408
 30
0.0
 11
262.00012
 21
171.227408
 31
0.0
  0
LINE
  8
0
 10
254.00012
 20
194.227408
 30
0.0
 11
254.00012
 21
168.227408
 31
0.0
  0
LINE
  8
0
 10
214.00012
 20
194.227408
 30
0.0
 11
214.00012
 21
168.227408
 31
0.0
  0
LINE
  8
0
 10
206.00012
 20
171.227408
 30
0.0
 11
206.00012
 21
191.227408
 31
0.0
  0
LINE
  8
0
 10
194.00012
 20
190.227408
 30
0.0
 11
194.00012
 21
172.227408
 31
0.0
  0
LINE
  8
0
 10
193.00012
 20
172.227408
 30
0.0
 11
193.00012
 21
190.227408
 31
0.0
  0
LINE
  8
0
 10
191.00012
 20
191.227408
 30
0.0
 11
191.00012
 21
171.227408
 31
0.0
  0
LINE
  8
0
 10
214.00012
 20
199.227408
 30
0.0
 11
254.00012
 21
199.227408
 31
0.0
  0
LINE
  8
0
  6
AXES
 62
     1
 10
212.00012
 20
203.227408
 30
0.0
 11
256.108727
 21
203.227408
 31
0.0
  0
LINE
  8
0
  6
AXES
 62
     1
 10
212.00012
 20
159.227408
 30
0.0
 11
256.108727
 21
159.227408
 31
0.0
  0
LINE
  8
0
 10
206.00012
 20
202.227408
 30
0.0
 11
206.00012
 21
207.227408
 31
0.0
  0
LINE
  8
0
 10
206.00012
 20
207.227408
 30
0.0
 11
205.00012
 21
208.227408
 31
0.0
  0
LINE
  8
0
 10
205.00012
 20
208.227408
 30
0.0
 11
193.00012
 21
208.227408
 31
0.0
  0
LINE
  8
0
 10
193.00012
 20
208.227408
 30
0.0
 11
193.00012
 21
211.227408
 31
0.0
  0
LINE
  8
0
 10
193.00012
 20
220.227408
 30
0.0
 11
187.00012
 21
220.227408
 31
0.0
  0
LINE
  8
0
 10
187.00012
 20
220.227408
 30
0.0
 11
186.00012
 21
219.227408
 31
0.0
  0
LINE
  8
0
 10
206.00012
 20
202.227408
 30
0.0
 11
194.00012
 21
202.227408
 31
0.0
  0
LINE
  8
0
 10
194.00012
 20
202.227408
 30
0.0
 11
194.00012
 21
200.227408
 31
0.0
  0
LINE
  8
0
 10
194.00012
 20
200.227408
 30
0.0
 11
188.50012
 21
200.227408
 31
0.0
  0
LINE
  8
0
 10
194.00012
 20
162.227408
 30
0.0
 11
188.50012
 21
162.227408
 31
0.0
  0
LINE
  8
0
 10
194.00012
 20
160.227408
 30
0.0
 11
194.00012
 21
162.227408
 31
0.0
  0
LINE
  8
0
 10
206.00012
 20
160.227408
 30
0.0
 11
194.00012
 21
160.227408
 31
0.0
  0
LINE
  8
0
 10
187.00012
 20
142.227408
 30
0.0
 11
186.00012
 21
143.227408
 31
0.0
  0
LINE
  8
0
 10
193.00012
 20
142.227408
 30
0.0
 11
187.00012
 21
142.227408
 31
0.0
  0
LINE
  8
0
 10
193.00012
 20
154.227408
 30
0.0
 11
193.00012
 21
151.227408
 31
0.0
  0
LINE
  8
0
 10
205.00012
 20
154.227408
 30
0.0
 11
193.00012
 21
154.227408
 31
0.0
  0
LINE
  8
0
 10
206.00012
 20
155.227408
 30
0.0
 11
205.00012
 21
154.227408
 31
0.0
  0
LINE
  8
0
 10
206.00012
 20
160.227408
 30
0.0
 11
206.00012
 21
155.227408
 31
0.0
  0
LINE
  8
0
 10
188.50012
 20
200.227408
 30
0.0
 11
188.50012
 21
162.227408
 31
0.0
  0
LINE
  8
0
  6
AXES
 62
     1
 10
181.040159
 20
214.227408
 30
0.0
 11
205.684857
 21
214.227408
 31
0.0
  0
LINE
  8
0
  6
AXES
 62
     1
 10
286.960082
 20
214.227408
 30
0.0
 11
263.062359
 21
214.227408
 31
0.0
  0
LINE
  8
0
 10
279.50012
 20
200.227408
 30
0.0
 11
279.50012
 21
191.227408
 31
0.0
  0
LINE
  8
0
 10
285.50012
 20
204.727408
 30
0.0
 11
285.50012
 21
191.227408
 31
0.0
  0
LINE
  8
0
 10
274.00012
 20
200.227408
 30
0.0
 11
279.50012
 21
200.227408
 31
0.0
  0
LINE
  8
0
 10
274.00012
 20
202.227408
 30
0.0
 11
274.00012
 21
200.227408
 31
0.0
  0
LINE
  8
0
 10
262.00012
 20
202.227408
 30
0.0
 11
274.00012
 21
202.227408
 31
0.0
  0
LINE
  8
0
 10
282.00012
 20
208.227408
 30
0.0
 11
285.50012
 21
204.727408
 31
0.0
  0
LINE
  8
0
 10
282.00012
 20
209.227408
 30
0.0
 11
282.00012
 21
208.227408
 31
0.0
  0
LINE
  8
0
 10
281.00012
 20
220.227408
 30
0.0
 11
282.00012
 21
219.227408
 31
0.0
  0
LINE
  8
0
 10
275.00012
 20
220.227408
 30
0.0
 11
281.00012
 21
220.227408
 31
0.0
  0
LINE
  8
0
 10
275.00012
 20
208.227408
 30
0.0
 11
275.00012
 21
211.227408
 31
0.0
  0
LINE
  8
0
 10
263.00012
 20
208.227408
 30
0.0
 11
275.00012
 21
208.227408
 31
0.0
  0
LINE
  8
0
 10
262.00012
 20
202.227408
 30
0.0
 11
262.00012
 21
207.227408
 31
0.0
  0
LINE
  8
0
 10
262.00012
 20
207.227408
 30
0.0
 11
263.00012
 21
208.227408
 31
0.0
  0
LINE
  8
0
 10
262.00012
 20
160.227408
 30
0.0
 11
262.00012
 21
155.227408
 31
0.0
  0
LINE
  8
0
 10
262.00012
 20
155.227408
 30
0.0
 11
263.00012
 21
154.227408
 31
0.0
  0
LINE
  8
0
 10
263.00012
 20
154.227408
 30
0.0
 11
275.00012
 21
154.227408
 31
0.0
  0
LINE
  8
0
 10
275.00012
 20
154.227408
 30
0.0
 11
275.00012
 21
151.227408
 31
0.0
  0
LINE
  8
0
 10
275.00012
 20
142.227408
 30
0.0
 11
281.00012
 21
142.227408
 31
0.0
  0
LINE
  8
0
 10
281.00012
 20
142.227408
 30
0.0
 11
282.00012
 21
143.227408
 31
0.0
  0
LINE
  8
0
 10
262.00012
 20
160.227408
 30
0.0
 11
274.00012
 21
160.227408
 31
0.0
  0
LINE
  8
0
 10
274.00012
 20
160.227408
 30
0.0
 11
274.00012
 21
162.227408
 31
0.0
  0
LINE
  8
0
 10
274.00012
 20
162.227408
 30
0.0
 11
279.50012
 21
162.227408
 31
0.0
  0
LINE
  8
0
 10
279.50012
 20
171.227408
 30
0.0
 11
279.50012
 21
162.227408
 31
0.0
  0
LINE
  8
0
  6
AXES
 62
     1
 10
234.00012
 20
155.227408
 30
0.0
 11
234.00012
 21
248.425285
 31
0.0
  0
LINE
  8
0
  6
AXES
 62
     1
 10
222.648231
 20
201.227408
 30
0.0
 11
245.548469
 21
201.227408
 31
0.0
  0
LINE
  8
0
 10
275.00012
 20
209.227408
 30
0.0
 11
274.00012
 21
208.227408
 31
0.0
  0
LINE
  8
0
 10
275.00012
 20
209.227408
 30
0.0
 11
274.00012
 21
208.227408
 31
0.0
  0
LINE
  8
0
 10
275.00012
 20
217.727408
 30
0.0
 11
278.00012
 21
217.727408
 31
0.0
  0
LINE
  8
0
 10
278.00012
 20
208.727408
 30
0.0
 11
278.00012
 21
219.727408
 31
0.0
  0
LINE
  8
0
 10
278.00012
 20
219.727408
 30
0.0
 11
281.50012
 21
219.727408
 31
0.0
  0
LINE
  8
0
 10
278.00012
 20
208.727408
 30
0.0
 11
282.00012
 21
208.727408
 31
0.0
  0
LINE
  8
0
 10
275.00012
 20
210.727408
 30
0.0
 11
278.00012
 21
210.727408
 31
0.0
  0
LINE
  8
0
 10
275.00012
 20
151.727408
 30
0.0
 11
278.00012
 21
151.727408
 31
0.0
  0
LINE
  8
0
 10
275.00012
 20
144.727408
 30
0.0
 11
278.00012
 21
144.727408
 31
0.0
  0
LINE
  8
0
 10
278.00012
 20
153.727408
 30
0.0
 11
278.00012
 21
142.727408
 31
0.0
  0
LINE
  8
0
 10
278.00012
 20
142.727408
 30
0.0
 11
281.50012
 21
142.727408
 31
0.0
  0
LINE
  8
0
 10
278.00012
 20
153.727408
 30
0.0
 11
282.00012
 21
153.727408
 31
0.0
  0
LINE
  8
0
 10
282.00012
 20
153.227408
 30
0.0
 11
282.00012
 21
154.227408
 31
0.0
  0
LINE
  8
0
 10
282.00012
 20
154.227408
 30
0.0
 11
285.50012
 21
157.727408
 31
0.0
  0
LINE
  8
0
 10
285.50012
 20
157.727408
 30
0.0
 11
285.50012
 21
171.227408
 31
0.0
  0
LINE
  8
0
 10
193.00012
 20
210.727408
 30
0.0
 11
190.00012
 21
210.727408
 31
0.0
  0
LINE
  8
0
 10
193.00012
 20
217.727408
 30
0.0
 11
190.00012
 21
217.727408
 31
0.0
  0
LINE
  8
0
 10
190.00012
 20
219.727408
 30
0.0
 11
186.50012
 21
219.727408
 31
0.0
  0
LINE
  8
0
 10
190.00012
 20
208.727408
 30
0.0
 11
190.00012
 21
219.727408
 31
0.0
  0
LINE
  8
0
 10
190.00012
 20
208.727408
 30
0.0
 11
186.00012
 21
208.727408
 31
0.0
  0
LINE
  8
0
 10
186.00012
 20
208.227408
 30
0.0
 11
182.50012
 21
204.727408
 31
0.0
  0
LINE
  8
0
 10
182.50012
 20
204.727408
 30
0.0
 11
182.50012
 21
157.727408
 31
0.0
  0
LINE
  8
0
 10
186.00012
 20
154.227408
 30
0.0
 11
182.50012
 21
157.727408
 31
0.0
  0
LINE
  8
0
 10
190.00012
 20
153.727408
 30
0.0
 11
186.00012
 21
153.727408
 31
0.0
  0
LINE
  8
0
 10
193.00012
 20
151.727408
 30
0.0
 11
190.00012
 21
151.727408
 31
0.0
  0
LINE
  8
0
 10
190.00012
 20
153.727408
 30
0.0
 11
190.00012
 21
142.727408
 31
0.0
  0
LINE
  8
0
 10
193.00012
 20
144.727408
 30
0.0
 11
190.00012
 21
144.727408
 31
0.0
  0
LINE
  8
0
 10
186.00012
 20
153.227408
 30
0.0
 11
186.00012
 21
154.227408
 31
0.0
  0
LINE
  8
0
 10
190.00012
 20
142.727408
 30
0.0
 11
186.50012
 21
142.727408
 31
0.0
  0
LINE
  8
0
 10
280.50012
 20
191.227408
 30
0.0
 11
280.50012
 21
194.427408
 31
0.0
  0
LINE
  8
0
 10
280.50012
 20
194.427408
 30
0.0
 11
284.50012
 21
194.427408
 31
0.0
  0
LINE
  8
0
 10
284.50012
 20
194.427408
 30
0.0
 11
284.50012
 21
191.227408
 31
0.0
  0
LINE
  8
0
 10
279.50012
 20
191.727408
 30
0.0
 11
280.50012
 21
191.727408
 31
0.0
  0
LINE
  8
0
 10
284.50012
 20
191.727408
 30
0.0
 11
285.50012
 21
191.727408
 31
0.0
  0
LINE
  8
0
 10
281.30012
 20
194.427408
 30
0.0
 11
280.50012
 21
194.427408
 31
0.0
  0
LINE
  8
0
 10
281.30012
 20
168.027408
 30
0.0
 11
280.50012
 21
168.027408
 31
0.0
  0
LINE
  8
0
 10
284.50012
 20
170.727408
 30
0.0
 11
285.50012
 21
170.727408
 31
0.0
  0
LINE
  8
0
 10
279.50012
 20
170.727408
 30
0.0
 11
280.50012
 21
170.727408
 31
0.0
  0
LINE
  8
0
 10
284.50012
 20
168.027408
 30
0.0
 11
284.50012
 21
171.227408
 31
0.0
  0
LINE
  8
0
 10
280.50012
 20
168.027408
 30
0.0
 11
284.50012
 21
168.027408
 31
0.0
  0
LINE
  8
0
 10
280.50012
 20
171.227408
 30
0.0
 11
280.50012
 21
168.027408
 31
0.0
  0
LINE
  8
0
 10
275.00012
 20
142.227408
 30
0.0
 11
193.00012
 21
142.227408
 31
0.0
  0
LINE
  8
0
 10
193.00012
 20
154.227408
 30
0.0
 11
275.00012
 21
154.227408
 31
0.0
  0
ARC
  8
0
 10
234.00012
 20
201.227408
 30
0.0
 40
25.0
 50
343.739795
 51
196.260205
  0
LINE
  8
0
 10
256.585598
 20
214.227408
 30
0.0
 11
258.585598
 21
212.027408
 31
0.0
  0
LINE
  8
0
 10
258.585598
 20
216.427408
 30
0.0
 11
256.585598
 21
214.227408
 31
0.0
  0
LINE
  8
0
 10
258.585598
 20
212.027408
 30
0.0
 11
275.00012
 21
212.027408
 31
0.0
  0
LINE
  8
0
 10
258.585598
 20
216.427408
 30
0.0
 11
258.585598
 21
212.027408
 31
0.0
  0
LINE
  8
0
 10
275.00012
 20
216.427408
 30
0.0
 11
258.585598
 21
216.427408
 31
0.0
  0
LINE
  8
0
 62
     5
 10
259.747095
 20
217.227408
 30
0.0
 11
275.00012
 21
217.227408
 31
0.0
  0
LINE
  8
0
 10
259.747095
 20
211.227408
 30
0.0
 11
259.747095
 21
217.227408
 31
0.0
  0
LINE
  8
0
 62
     5
 10
275.00012
 20
211.227408
 30
0.0
 11
259.747095
 21
211.227408
 31
0.0
  0
LINE
  8
0
  6
AXES
 62
     1
 10
286.960082
 20
214.227408
 30
0.0
 11
254.833736
 21
214.227408
 31
0.0
  0
LINE
  8
0
  6
AXES
 62
     1
 10
181.040159
 20
214.227408
 30
0.0
 11
213.166504
 21
214.227408
 31
0.0
  0
LINE
  8
0
 62
     5
 10
193.00012
 20
211.227408
 30
0.0
 11
208.253146
 21
211.227408
 31
0.0
  0
LINE
  8
0
 62
     5
 10
208.253146
 20
217.227408
 30
0.0
 11
193.00012
 21
217.227408
 31
0.0
  0
LINE
  8
0
 10
193.00012
 20
216.427408
 30
0.0
 11
209.414643
 21
216.427408
 31
0.0
  0
LINE
  8
0
 10
209.414643
 20
212.027408
 30
0.0
 11
193.00012
 21
212.027408
 31
0.0
  0
LINE
  8
0
  6
AXES
 62
     1
 10
181.040159
 20
214.227408
 30
0.0
 11
204.937882
 21
214.227408
 31
0.0
  0
LINE
  8
0
 10
209.414643
 20
216.427408
 30
0.0
 11
211.414643
 21
214.227408
 31
0.0
  0
LINE
  8
0
 10
208.253146
 20
211.227408
 30
0.0
 11
208.253146
 21
217.227408
 31
0.0
  0
LINE
  8
0
 10
209.414643
 20
216.427408
 30
0.0
 11
209.414643
 21
212.027408
 31
0.0
  0
LINE
  8
0
 10
211.414643
 20
214.227408
 30
0.0
 11
209.414643
 21
212.027408
 31
0.0
  0
LINE
  8
0
  6
AXES
 62
     1
 10
181.040159
 20
148.227408
 30
0.0
 11
204.937882
 21
148.227408
 31
0.0
  0
LINE
  8
0
 10
209.414643
 20
150.427408
 30
0.0
 11
193.00012
 21
150.427408
 31
0.0
  0
LINE
  8
0
 10
193.00012
 20
146.027408
 30
0.0
 11
209.414643
 21
146.027408
 31
0.0
  0
LINE
  8
0
 62
     5
 10
208.253146
 20
145.227408
 30
0.0
 11
193.00012
 21
145.227408
 31
0.0
  0
LINE
  8
0
 62
     5
 10
193.00012
 20
151.227408
 30
0.0
 11
208.253146
 21
151.227408
 31
0.0
  0
LINE
  8
0
  6
AXES
 62
     1
 10
181.040159
 20
148.227408
 30
0.0
 11
213.166504
 21
148.227408
 31
0.0
  0
LINE
  8
0
  6
AXES
 62
     1
 10
181.040159
 20
148.227408
 30
0.0
 11
205.684857
 21
148.227408
 31
0.0
  0
LINE
  8
0
 10
211.414643
 20
148.227408
 30
0.0
 11
209.414643
 21
150.427408
 31
0.0
  0
LINE
  8
0
 10
209.414643
 20
146.027408
 30
0.0
 11
209.414643
 21
150.427408
 31
0.0
  0
LINE
  8
0
 10
208.253146
 20
151.227408
 30
0.0
 11
208.253146
 21
145.227408
 31
0.0
  0
LINE
  8
0
 10
209.414643
 20
146.027408
 30
0.0
 11
211.414643
 21
148.227408
 31
0.0
  0
LINE
  8
0
  6
AXES
 62
     1
 10
286.960082
 20
148.227408
 30
0.0
 11
254.833736
 21
148.227408
 31
0.0
  0
LINE
  8
0
 62
     5
 10
275.00012
 20
151.227408
 30
0.0
 11
259.747095
 21
151.227408
 31
0.0
  0
LINE
  8
0
 10
259.747095
 20
151.227408
 30
0.0
 11
259.747095
 21
145.227408
 31
0.0
  0
LINE
  8
0
 62
     5
 10
259.747095
 20
145.227408
 30
0.0
 11
275.00012
 21
145.227408
 31
0.0
  0
LINE
  8
0
 10
275.00012
 20
146.027408
 30
0.0
 11
258.585598
 21
146.027408
 31
0.0
  0
LINE
  8
0
 10
258.585598
 20
146.027408
 30
0.0
 11
258.585598
 21
150.427408
 31
0.0
  0
LINE
  8
0
 10
258.585598
 20
150.427408
 30
0.0
 11
275.00012
 21
150.427408
 31
0.0
  0
LINE
  8
0
 10
258.585598
 20
146.027408
 30
0.0
 11
256.585598
 21
148.227408
 31
0.0
  0
LINE
  8
0
 10
256.585598
 20
148.227408
 30
0.0
 11
258.585598
 21
150.427408
 31
0.0
  0
LINE
  8
0
  6
AXES
 62
     1
 10
234.00012
 20
207.227408
 30
0.0
 11
234.00012
 21
134.129665
 31
0.0
  0
LINE
  8
0
  6
AXES
 62
     1
 10
286.960082
 20
148.227408
 30
0.0
 11
263.062359
 21
148.227408
 31
0.0
  0
LINE
  8
0
 10
193.00012
 20
209.227408
 30
0.0
 11
194.00012
 21
208.227408
 31
0.0
  0
LINE
  8
0
 10
275.00012
 20
153.227408
 30
0.0
 11
274.00012
 21
154.227408
 31
0.0
  0
LINE
  8
0
 10
193.00012
 20
153.227408
 30
0.0
 11
194.00012
 21
154.227408
 31
0.0
  0
ARC
  8
0
 10
234.00012
 20
201.227408
 30
0.0
 40
37.0
 50
34.123295
 51
145.876705
  0
LINE
  8
0
 10
275.00012
 20
220.227408
 30
0.0
 11
267.941246
 21
220.227408
 31
0.0
  0
ARC
  8
0
 10
267.941246
 20
224.227408
 30
0.0
 40
4.0
 50
214.123295
 51
270.0
  0
ARC
  8
0
 10
200.058995
 20
224.227408
 30
0.0
 40
4.0
 50
270.0
 51
325.876705
  0
LINE
  8
0
 10
193.00012
 20
220.227408
 30
0.0
 11
200.058995
 21
220.227408
 31
0.0
  0
LINE
  8
0
 10
179.00012
 20
240.227408
 30
0.0
 11
289.00012
 21
240.227408
 31
0.0
  0
LINE
  8
0
 10
289.00012
 20
240.227408
 30
0.0
 11
289.00012
 21
229.227408
 31
0.0
  0
LINE
  8
0
 10
285.00012
 20
225.227408
 30
0.0
 11
265.652477
 21
225.227408
 31
0.0
  0
ARC
  8
0
 10
265.652477
 20
221.227408
 30
0.0
 40
4.0
 50
90.0
 51
131.677683
  0
ARC
  8
0
 10
285.00012
 20
229.227408
 30
0.0
 40
4.0
 50
270.0
 51
0.0
  0
LINE
  8
0
 10
179.00012
 20
240.227408
 30
0.0
 11
179.00012
 21
229.227408
 31
0.0
  0
ARC
  8
0
 10
183.00012
 20
229.227408
 30
0.0
 40
4.0
 50
180.0
 51
270.0
  0
LINE
  8
0
 10
183.00012
 20
225.227408
 30
0.0
 11
202.347764
 21
225.227408
 31
0.0
  0
ARC
  8
0
 10
202.347764
 20
221.227408
 30
0.0
 40
4.0
 50
48.322317
 51
90.0
  0
LINE
  8
0
  6
AXES
 62
     1
 10
278.00012
 20
242.227408
 30
0.0
 11
278.00012
 21
222.538551
 31
0.0
  0
LINE
  8
0
  6
CACHE
 62
     4
 10
282.00012
 20
240.227408
 30
0.0
 11
282.00012
 21
226.227408
 31
0.0
  0
LINE
  8
0
  6
CACHE
 62
     4
 10
270.00012
 20
226.227408
 30
0.0
 11
286.00012
 21
226.227408
 31
0.0
  0
LINE
  8
0
  6
CACHE
 62
     4
 10
286.00012
 20
226.227408
 30
0.0
 11
286.00012
 21
225.354425
 31
0.0
  0
LINE
  8
0
  6
CACHE
 62
     4
 10
270.00012
 20
226.227408
 30
0.0
 11
270.00012
 21
225.227408
 31
0.0
  0
LINE
  8
0
  6
CACHE
 62
     4
 10
274.00012
 20
240.227408
 30
0.0
 11
274.00012
 21
226.227408
 31
0.0
  0
LINE
  8
0
  6
CACHE
 62
     4
 10
194.00012
 20
240.227408
 30
0.0
 11
194.00012
 21
226.227408
 31
0.0
  0
LINE
  8
0
  6
CACHE
 62
     4
 10
198.00012
 20
226.227408
 30
0.0
 11
198.00012
 21
225.227408
 31
0.0
  0
LINE
  8
0
  6
CACHE
 62
     4
 10
182.00012
 20
226.227408
 30
0.0
 11
182.00012
 21
225.354425
 31
0.0
  0
LINE
  8
0
  6
CACHE
 62
     4
 10
198.00012
 20
226.227408
 30
0.0
 11
182.00012
 21
226.227408
 31
0.0
  0
LINE
  8
0
  6
CACHE
 62
     4
 10
186.00012
 20
240.227408
 30
0.0
 11
186.00012
 21
226.227408
 31
0.0
  0
LINE
  8
0
  6
AXES
 62
     1
 10
190.00012
 20
242.227408
 30
0.0
 11
190.00012
 21
222.538551
 31
0.0
  0
LINE
  8
0
 10
254.00012
 20
200.873898
 30
0.0
 11
255.580371
 21
200.873898
 31
0.0
  0
LINE
  8
0
 10
255.580371
 20
200.873898
 30
0.0
 11
257.025545
 21
210.965469
 31
0.0
  0
LINE
  8
0
 10
212.419869
 20
200.873898
 30
0.0
 11
210.974696
 21
210.965469
 31
0.0
  0
LINE
  8
0
 10
214.00012
 20
200.873898
 30
0.0
 11
212.419869
 21
200.873898
 31
0.0
  0
LINE
  8
0
 10
256.644889
 20
208.307365
 30
0.0
 11
211.355352
 21
208.307365
 31
0.0
  0
INSERT
  8
HACH
  2
*X2
 10
14.52777
 20
0.0
 30
0.0
  0
INSERT
  8
HACH
  2
*X3
 10
14.52777
 20
0.0
 30
0.0
  0
INSERT
  8
HACH
  2
*X4
 10
14.52777
 20
0.0
 30
0.0
  0
LINE
  8
0
 10
263.00012
 20
208.227408
 30
0.0
 11
258.00012
 21
208.227408
 31
0.0
  0
LINE
  8
0
 10
205.00012
 20
208.227408
 30
0.0
 11
210.00012
 21
208.227408
 31
0.0
  0
INSERT
  8
HACH
  2
*X5
 10
14.52777
 20
0.0
 30
0.0
  0
POLYLINE
  8
HACH
 66
     1
 10
0.0
 20
0.0
 30
0.0
 70
     2
  0
VERTEX
  8
HACH
 10
214.00012
 20
195.187845
 30
0.0
 42
-0.0205
  0
VERTEX
  8
HACH
 10
219.472501
 20
196.262441
 30
0.0
 42
-0.04514
 70
     1
  0
VERTEX
  8
HACH
 10
222.004305
 20
196.421364
 30
0.0
 42
-0.034018
  0
VERTEX
  8
HACH
 10
229.48217
 20
195.70476
 30
0.0
 42
0.026264
 70
     1
  0
VERTEX
  8
HACH
 10
239.147643
 20
194.627155
 30
0.0
 42
0.039109
  0
VERTEX
  8
HACH
 10
244.753809
 20
194.737392
 30
0.0
 42
0.023446
 70
     1
  0
VERTEX
  8
HACH
 10
254.00012
 20
196.08495
 30
0.0
  0
SEQEND
  8
HACH
  0
INSERT
  8
HACH
  2
*X6
 10
14.52777
 20
0.0
 30
0.0
  0
INSERT
  8
HACH
  2
*X7
 10
14.52777
 20
0.0
 30
0.0
  0
LINE
  8
0
 10
132.682655
 20
226.227408
 30
0.0
 11
134.182655
 21
226.227408
 31
0.0
  0
LINE
  8
0
 10
134.182655
 20
226.227408
 30
0.0
 11
134.182655
 21
224.477408
 31
0.0
  0
LINE
  8
0
 10
134.182655
 20
224.477408
 30
0.0
 11
136.682655
 21
224.477408
 31
0.0
  0
LINE
  8
0
 10
136.682655
 20
224.477408
 30
0.0
 11
136.682655
 21
226.227408
 31
0.0
  0
LINE
  8
0
 10
136.682655
 20
226.227408
 30
0.0
 11
139.682655
 21
226.227408
 31
0.0
  0
LINE
  8
0
 10
139.682655
 20
226.227408
 30
0.0
 11
139.682655
 21
230.227408
 31
0.0
  0
LINE
  8
0
 10
149.682655
 20
240.227408
 30
0.0
 11
140.682655
 21
240.227408
 31
0.0
  0
LINE
  8
0
 10
150.682655
 20
239.227408
 30
0.0
 11
150.682655
 21
163.227408
 31
0.0
  0
LINE
  8
0
 10
149.682655
 20
240.227408
 30
0.0
 11
150.682655
 21
239.227408
 31
0.0
  0
LINE
  8
0
 10
140.682655
 20
240.227408
 30
0.0
 11
139.682655
 21
239.227408
 31
0.0
  0
LINE
  8
0
 10
132.682655
 20
226.227408
 30
0.0
 11
132.682655
 21
176.227408
 31
0.0
  0
LINE
  8
0
 10
132.682655
 20
208.727408
 30
0.0
 11
148.682655
 21
208.727408
 31
0.0
  0
LINE
  8
0
 10
148.682655
 20
189.727408
 30
0.0
 11
148.682655
 21
212.727408
 31
0.0
  0
LINE
  8
0
 10
148.682655
 20
212.727408
 30
0.0
 11
150.682655
 21
212.727408
 31
0.0
  0
LINE
  8
HACH
 62
     5
 10
132.682655
 20
210.227408
 30
0.0
 11
148.682655
 21
210.227408
 31
0.0
  0
LINE
  8
HACH
 62
     5
 10
132.682655
 20
192.227408
 30
0.0
 11
148.682655
 21
192.227408
 31
0.0
  0
LINE
  8
0
 10
148.682655
 20
189.727408
 30
0.0
 11
150.682655
 21
189.727408
 31
0.0
  0
LINE
  8
0
 10
148.682655
 20
193.727408
 30
0.0
 11
148.682655
 21
189.727408
 31
0.0
  0
LINE
  8
0
 10
132.682655
 20
193.727408
 30
0.0
 11
148.682655
 21
193.727408
 31
0.0
  0
LINE
  8
0
 10
140.682655
 20
162.227408
 30
0.0
 11
139.682655
 21
163.227408
 31
0.0
  0
LINE
  8
0
 10
149.682655
 20
162.227408
 30
0.0
 11
150.682655
 21
163.227408
 31
0.0
  0
LINE
  8
0
 10
149.682655
 20
162.227408
 30
0.0
 11
140.682655
 21
162.227408
 31
0.0
  0
LINE
  8
0
 10
139.682655
 20
176.227408
 30
0.0
 11
139.682655
 21
172.227408
 31
0.0
  0
LINE
  8
0
 10
136.682655
 20
176.227408
 30
0.0
 11
139.682655
 21
176.227408
 31
0.0
  0
LINE
  8
0
 10
136.682655
 20
177.977408
 30
0.0
 11
136.682655
 21
176.227408
 31
0.0
  0
LINE
  8
0
 10
134.182655
 20
177.977408
 30
0.0
 11
136.682655
 21
177.977408
 31
0.0
  0
LINE
  8
0
 10
134.182655
 20
176.227408
 30
0.0
 11
134.182655
 21
177.977408
 31
0.0
  0
LINE
  8
0
 10
132.682655
 20
176.227408
 30
0.0
 11
134.182655
 21
176.227408
 31
0.0
  0
LINE
  8
0
  6
AXES
 62
     1
 10
54.682655
 20
134.133735
 30
0.0
 11
54.682655
 21
246.840086
 31
0.0
  0
ARC
  8
0
 10
46.570972
 20
199.868489
 30
0.0
 40
11.970042
 50
354.970401
 51
37.721173
  0
ARC
  8
0
 10
52.151351
 20
161.056097
 30
0.0
 40
11.970042
 50
338.642463
 51
21.393235
  0
ARC
  8
0
 10
67.717558
 20
165.626747
 30
0.0
 40
11.970042
 50
191.334038
 51
234.084809
  0
ARC
  8
0
 10
63.458621
 20
162.889695
 30
0.0
 40
11.970042
 50
11.369736
 51
54.120508
  0
ARC
  8
0
 10
74.082667
 20
175.150497
 30
0.0
 40
11.970042
 50
224.06131
 51
266.812082
  0
ARC
  8
0
 10
71.979584
 20
170.545388
 30
0.0
 40
11.970042
 50
44.097009
 51
86.847781
  0
ARC
  8
0
 10
74.28841
 20
186.603624
 30
0.0
 40
11.970042
 50
256.788583
 51
299.539355
  0
ARC
  8
0
 10
75.008894
 20
181.592546
 30
0.0
 40
11.970042
 50
76.824282
 51
119.575053
  0
ARC
  8
0
 10
68.269464
 20
196.34984
 30
0.0
 40
11.970042
 50
289.515856
 51
332.266627
  0
ARC
  8
0
 10
71.584767
 20
192.523776
 30
0.0
 40
11.970042
 50
109.551554
 51
152.302326
  0
ARC
  8
0
 10
57.936802
 20
201.29479
 30
0.0
 40
11.970042
 50
322.243129
 51
4.9939
  0
ARC
  8
0
 10
54.682655
 20
181.227408
 30
0.0
 40
26.0
 50
87.009146
 51
90.0
  0
ARC
  8
0
 10
54.682655
 20
181.227408
 30
0.0
 40
18.0
 50
69.500158
 51
77.77257
  0
ARC
  8
0
 10
54.682655
 20
181.227408
 30
0.0
 40
18.0
 50
270.0
 51
274.136206
  0
ARC
  8
0
 10
54.682655
 20
181.227408
 30
0.0
 40
26.0
 50
283.372782
 51
289.35449
  0
ARC
  8
0
 10
54.682655
 20
181.227408
 30
0.0
 40
18.0
 50
298.591067
 51
306.863479
  0
ARC
  8
0
 10
54.682655
 20
181.227408
 30
0.0
 40
26.0
 50
316.100055
 51
322.081763
  0
ARC
  8
0
 10
54.682655
 20
181.227408
 30
0.0
 40
18.0
 50
331.318339
 51
339.590751
  0
ARC
  8
0
 10
54.682655
 20
181.227408
 30
0.0
 40
26.0
 50
348.827328
 51
354.809036
  0
ARC
  8
0
 10
54.682655
 20
181.227408
 30
0.0
 40
18.0
 50
4.045612
 51
12.318024
  0
ARC
  8
0
 10
54.682655
 20
181.227408
 30
0.0
 40
26.0
 50
21.554601
 51
27.536308
  0
ARC
  8
0
 10
54.682655
 20
181.227408
 30
0.0
 40
18.0
 50
36.772885
 51
45.045297
  0
ARC
  8
0
 10
54.682655
 20
181.227408
 30
0.0
 40
26.0
 50
54.281873
 51
60.263581
  0
LINE
  8
0
 10
86.454608
 20
200.873898
 30
0.0
 11
82.745544
 21
200.873898
 31
0.0
  0
LINE
  8
0
 10
56.448739
 20
208.307365
 30
0.0
 11
58.811607
 21
200.873898
 31
0.0
  0
LINE
  8
0
 10
64.88354
 20
208.307365
 30
0.0
 11
62.520672
 21
200.873898
 31
0.0
  0
LINE
  8
0
 10
68.415707
 20
208.307365
 30
0.0
 11
70.778575
 21
200.873898
 31
0.0
  0
LINE
  8
0
 10
76.850508
 20
208.307365
 30
0.0
 11
74.48764
 21
200.873898
 31
0.0
  0
LINE
  8
0
 10
80.382675
 20
208.307365
 30
0.0
 11
82.745544
 21
200.873898
 31
0.0
  0
LINE
  8
0
 10
88.817477
 20
208.307365
 30
0.0
 11
86.454608
 21
200.873898
 31
0.0
  0
LINE
  8
0
 10
92.349644
 20
208.307365
 30
0.0
 11
94.712512
 21
200.873898
 31
0.0
  0
LINE
  8
0
 10
80.382675
 20
208.307365
 30
0.0
 11
76.850508
 21
208.307365
 31
0.0
  0
LINE
  8
0
 10
68.415707
 20
208.307365
 30
0.0
 11
64.88354
 21
208.307365
 31
0.0
  0
LINE
  8
0
 10
56.448739
 20
208.307365
 30
0.0
 11
54.682655
 21
208.307365
 31
0.0
  0
LINE
  8
0
 10
62.520672
 20
200.873898
 30
0.0
 11
58.811607
 21
200.873898
 31
0.0
  0
LINE
  8
0
 10
74.48764
 20
200.873898
 30
0.0
 11
70.778575
 21
200.873898
 31
0.0
  0
ARC
  8
0
 10
54.682655
 20
181.227408
 30
0.0
 40
27.0
 50
270.0
 51
46.689559
  0
ARC
  8
0
 10
54.682655
 20
181.227408
 30
0.0
 40
26.0
 50
270.0
 51
49.080817
  0
LINE
  8
0
 10
132.682655
 20
176.227408
 30
0.0
 11
81.215653
 21
176.227408
 31
0.0
  0
LINE
  8
0
 10
134.182655
 20
226.227408
 30
0.0
 11
54.682655
 21
226.227408
 31
0.0
  0
LINE
  8
0
 10
123.682655
 20
188.727408
 30
0.0
 11
123.682655
 21
213.727408
 31
0.0
  0
LINE
  8
0
 10
123.682655
 20
213.727408
 30
0.0
 11
122.182655
 21
215.227408
 31
0.0
  0
LINE
  8
0
 10
122.182655
 20
215.227408
 30
0.0
 11
120.682655
 21
215.227408
 31
0.0
  0
LINE
  8
0
 10
120.682655
 20
215.227408
 30
0.0
 11
120.682655
 21
214.227408
 31
0.0
  0
LINE
  8
0
 10
120.682655
 20
214.227408
 30
0.0
 11
119.182655
 21
214.227408
 31
0.0
  0
LINE
  8
0
 10
119.182655
 20
214.227408
 30
0.0
 11
119.182655
 21
215.227408
 31
0.0
  0
LINE
  8
0
 10
119.182655
 20
215.227408
 30
0.0
 11
116.682655
 21
215.227408
 31
0.0
  0
LINE
  8
0
 10
116.682655
 20
215.227408
 30
0.0
 11
116.682655
 21
220.227408
 31
0.0
  0
LINE
  8
0
 10
116.682655
 20
220.227408
 30
0.0
 11
108.682655
 21
220.227408
 31
0.0
  0
LINE
  8
0
 10
108.682655
 20
220.227408
 30
0.0
 11
108.682655
 21
226.227408
 31
0.0
  0
LINE
  8
0
 10
108.682655
 20
182.227408
 30
0.0
 11
108.682655
 21
176.227408
 31
0.0
  0
LINE
  8
0
 10
116.682655
 20
182.227408
 30
0.0
 11
108.682655
 21
182.227408
 31
0.0
  0
LINE
  8
0
 10
116.682655
 20
187.227408
 30
0.0
 11
116.682655
 21
182.227408
 31
0.0
  0
LINE
  8
0
 10
119.182655
 20
187.227408
 30
0.0
 11
116.682655
 21
187.227408
 31
0.0
  0
LINE
  8
0
 10
119.182655
 20
188.227408
 30
0.0
 11
119.182655
 21
187.227408
 31
0.0
  0
LINE
  8
0
 10
120.682655
 20
188.227408
 30
0.0
 11
119.182655
 21
188.227408
 31
0.0
  0
LINE
  8
0
 10
120.682655
 20
187.227408
 30
0.0
 11
120.682655
 21
188.227408
 31
0.0
  0
LINE
  8
0
 10
122.182655
 20
187.227408
 30
0.0
 11
120.682655
 21
187.227408
 31
0.0
  0
LINE
  8
0
 10
123.682655
 20
188.727408
 30
0.0
 11
122.182655
 21
187.227408
 31
0.0
  0
LINE
  8
0
 10
122.182655
 20
215.227408
 30
0.0
 11
122.182655
 21
187.227408
 31
0.0
  0
LINE
  8
0
 10
120.682655
 20
188.227408
 30
0.0
 11
120.682655
 21
214.227408
 31
0.0
  0
LINE
  8
0
 10
119.182655
 20
214.227408
 30
0.0
 11
119.182655
 21
188.227408
 31
0.0
  0
LINE
  8
0
 10
116.682655
 20
187.227408
 30
0.0
 11
116.682655
 21
215.227408
 31
0.0
  0
LINE
  8
0
 10
108.682655
 20
220.227408
 30
0.0
 11
108.682655
 21
182.227408
 31
0.0
  0
LINE
  8
0
 10
105.682655
 20
210.965469
 30
0.0
 11
48.619423
 21
210.965469
 31
0.0
  0
LINE
  8
0
 10
105.682655
 20
176.227408
 30
0.0
 11
105.682655
 21
210.965469
 31
0.0
  0
LINE
  8
0
 10
94.712512
 20
200.873898
 30
0.0
 11
97.92981
 21
200.873898
 31
0.0
  0
LINE
  8
0
 10
101.867434
 20
197.577542
 30
0.0
 11
105.682655
 21
176.227408
 31
0.0
  0
ARC
  8
0
 10
97.92981
 20
196.873898
 30
0.0
 40
4.0
 50
10.131685
 51
90.0
  0
LINE
  8
0
 10
88.817477
 20
208.307365
 30
0.0
 11
92.349644
 21
208.307365
 31
0.0
  0
ARC
  8
0
 10
54.682655
 20
181.227408
 30
0.0
 40
26.0
 50
85.284656
 51
90.0
  0
ARC
  8
0
 10
54.682655
 20
181.227408
 30
0.0
 40
27.0
 50
86.154427
 51
90.0
  0
ARC
  8
0
 10
54.682655
 20
181.227408
 30
0.0
 40
27.0
 50
55.582524
 51
69.14283
  0
ARC
  8
0
 10
54.682655
 20
181.227408
 30
0.0
 40
26.0
 50
52.659892
 51
69.018718
  0
LINE
  8
0
  6
AXES
 62
     1
 10
152.682655
 20
233.227408
 30
0.0
 11
104.514409
 21
233.227408
 31
0.0
  0
LINE
  8
0
 10
139.682655
 20
236.727408
 30
0.0
 11
143.682655
 21
236.727408
 31
0.0
  0
LINE
  8
0
 10
143.682655
 20
227.727408
 30
0.0
 11
143.682655
 21
238.727408
 31
0.0
  0
LINE
  8
0
 10
143.682655
 20
238.727408
 30
0.0
 11
150.682655
 21
238.727408
 31
0.0
  0
LINE
  8
0
 10
143.682655
 20
227.727408
 30
0.0
 11
150.682655
 21
227.727408
 31
0.0
  0
LINE
  8
0
 10
139.682655
 20
229.727408
 30
0.0
 11
143.682655
 21
229.727408
 31
0.0
  0
LINE
  8
HACH
 62
     5
 10
139.682655
 20
236.227408
 30
0.0
 11
114.682655
 21
236.227408
 31
0.0
  0
LINE
  8
0
 10
114.682655
 20
236.227408
 30
0.0
 11
114.682655
 21
230.227408
 31
0.0
  0
LINE
  8
HACH
 62
     5
 10
114.682655
 20
230.227408
 30
0.0
 11
139.682655
 21
230.227408
 31
0.0
  0
LINE
  8
0
 10
139.682655
 20
231.027408
 30
0.0
 11
111.869012
 21
231.027408
 31
0.0
  0
LINE
  8
0
 10
111.869012
 20
231.027408
 30
0.0
 11
111.869012
 21
235.427408
 31
0.0
  0
LINE
  8
0
 10
111.869012
 20
235.427408
 30
0.0
 11
139.682655
 21
235.427408
 31
0.0
  0
LINE
  8
0
 10
111.869012
 20
231.027408
 30
0.0
 11
109.869012
 21
233.227408
 31
0.0
  0
LINE
  8
0
 10
109.869012
 20
233.227408
 30
0.0
 11
111.869012
 21
235.427408
 31
0.0
  0
LINE
  8
0
 10
109.869012
 20
169.227408
 30
0.0
 11
111.869012
 21
167.027408
 31
0.0
  0
LINE
  8
0
 10
111.869012
 20
171.427408
 30
0.0
 11
109.869012
 21
169.227408
 31
0.0
  0
LINE
  8
0
 10
111.869012
 20
167.027408
 30
0.0
 11
139.682655
 21
167.027408
 31
0.0
  0
LINE
  8
0
 10
111.869012
 20
171.427408
 30
0.0
 11
111.869012
 21
167.027408
 31
0.0
  0
LINE
  8
0
 10
139.682655
 20
171.427408
 30
0.0
 11
111.869012
 21
171.427408
 31
0.0
  0
LINE
  8
HACH
 62
     5
 10
114.682655
 20
172.227408
 30
0.0
 11
139.682655
 21
172.227408
 31
0.0
  0
LINE
  8
0
 10
114.682655
 20
166.227408
 30
0.0
 11
114.682655
 21
172.227408
 31
0.0
  0
LINE
  8
HACH
 62
     5
 10
139.682655
 20
166.227408
 30
0.0
 11
114.682655
 21
166.227408
 31
0.0
  0
LINE
  8
0
 10
139.682655
 20
172.727408
 30
0.0
 11
143.682655
 21
172.727408
 31
0.0
  0
LINE
  8
0
 10
143.682655
 20
174.727408
 30
0.0
 11
150.682655
 21
174.727408
 31
0.0
  0
LINE
  8
0
 10
143.682655
 20
163.727408
 30
0.0
 11
150.682655
 21
163.727408
 31
0.0
  0
LINE
  8
0
 10
143.682655
 20
174.727408
 30
0.0
 11
143.682655
 21
163.727408
 31
0.0
  0
LINE
  8
0
 10
139.682655
 20
165.727408
 30
0.0
 11
143.682655
 21
165.727408
 31
0.0
  0
LINE
  8
0
  6
AXES
 62
     1
 10
152.682655
 20
169.227408
 30
0.0
 11
104.514409
 21
169.227408
 31
0.0
  0
LINE
  8
0
 10
140.682655
 20
162.227408
 30
0.0
 11
139.682655
 21
163.227408
 31
0.0
  0
LINE
  8
0
 10
149.682655
 20
162.227408
 30
0.0
 11
150.682655
 21
163.227408
 31
0.0
  0
LINE
  8
0
 10
149.682655
 20
162.227408
 30
0.0
 11
140.682655
 21
162.227408
 31
0.0
  0
LINE
  8
0
 10
139.682655
 20
163.227408
 30
0.0
 11
138.682655
 21
162.227408
 31
0.0
  0
LINE
  8
0
 10
138.682655
 20
162.227408
 30
0.0
 11
127.558019
 21
162.227408
 31
0.0
  0
LINE
  8
0
 10
123.018485
 20
164.227408
 30
0.0
 11
92.205981
 21
164.227408
 31
0.0
  0
LINE
  8
0
 10
124.995124
 20
163.484153
 30
0.0
 11
125.58138
 21
162.970663
 31
0.0
  0
ARC
  8
0
 10
127.558019
 20
165.227408
 30
0.0
 40
3.0
 50
228.785519
 51
270.0
  0
ARC
  8
0
 10
123.018485
 20
161.227408
 30
0.0
 40
3.0
 50
48.785519
 51
90.0
  0
ARC
  8
0
 10
123.004751
 20
241.221842
 30
0.0
 40
3.0
 50
270.019674
 51
311.234155
  0
ARC
  8
0
 10
127.545658
 20
237.223401
 30
0.0
 40
3.0
 50
90.019674
 51
131.234155
  0
LINE
  8
0
 10
124.982165
 20
238.965775
 30
0.0
 11
125.568245
 21
239.479467
 31
0.0
  0
LINE
  8
0
 10
91.683348
 20
238.211086
 30
0.0
 11
54.682655
 21
238.198381
 31
0.0
  0
LINE
  8
0
 10
138.669263
 20
240.22722
 30
0.0
 11
127.544628
 21
240.2234
 31
0.0
  0
LINE
  8
0
 10
139.669607
 20
239.227564
 30
0.0
 11
138.669263
 21
240.22722
 31
0.0
  0
LINE
  8
HACH
  6
AXES
 62
     1
 10
85.682182
 20
181.227408
 30
0.0
 11
11.159352
 21
181.227408
 31
0.0
  0
LINE
  8
HACH
  6
AXES
 62
     1
 10
155.402671
 20
201.227408
 30
0.0
 11
-46.104552
 21
201.227408
 31
0.0
  0
LINE
  8
0
 10
115.682655
 20
238.227408
 30
0.0
 11
115.682655
 21
240.227408
 31
0.0
  0
LINE
  8
0
 10
115.682655
 20
240.227408
 30
0.0
 11
91.682655
 21
240.227408
 31
0.0
  0
LINE
  8
0
 10
91.682655
 20
240.227408
 30
0.0
 11
91.683348
 21
238.211086
 31
0.0
  0
LINE
  8
0
  6
AXES
 62
     1
 10
103.683348
 20
223.856136
 30
0.0
 11
103.683348
 21
242.738762
 31
0.0
  0
LINE
  8
0
 10
115.682655
 20
238.227408
 30
0.0
 11
123.005781
 21
238.221842
 31
0.0
  0
ARC
  8
0
 10
54.682655
 20
181.227408
 30
0.0
 40
39.0
 50
90.0
 51
330.76636
  0
ARC
  8
0
 10
92.205981
 20
160.227408
 30
0.0
 40
4.0
 50
90.0
 51
150.76636
  0
LINE
  8
0
 10
124.796742
 20
163.643563
 30
0.0
 11
67.10448
 21
144.258526
 31
0.0
  0
LINE
  8
0
 10
17.681963
 20
238.211086
 30
0.0
 11
54.682655
 21
238.198381
 31
0.0
  0
LINE
  8
0
 10
-6.317345
 20
238.227408
 30
0.0
 11
-13.640471
 21
238.221842
 31
0.0
  0
LINE
  8
0
 10
17.682655
 20
240.227408
 30
0.0
 11
17.678921
 21
229.353051
 31
0.0
  0
LINE
  8
0
 10
-6.317345
 20
240.227408
 30
0.0
 11
17.682655
 21
240.227408
 31
0.0
  0
LINE
  8
0
 10
-6.317345
 20
229.354425
 30
0.0
 11
-6.317345
 21
240.227408
 31
0.0
  0
LINE
  8
0
 10
-30.304296
 20
239.227564
 30
0.0
 11
-29.303953
 21
240.22722
 31
0.0
  0
LINE
  8
0
 10
-29.303953
 20
240.22722
 30
0.0
 11
-18.179318
 21
240.2234
 31
0.0
  0
LINE
  8
0
 10
-15.616854
 20
238.965775
 30
0.0
 11
-16.202934
 21
239.479467
 31
0.0
  0
ARC
  8
0
 10
-18.180348
 20
237.223401
 30
0.0
 40
3.0
 50
48.765845
 51
89.980326
  0
ARC
  8
0
 10
-13.639441
 20
241.221842
 30
0.0
 40
3.0
 50
228.765845
 51
269.980326
  0
LINE
  8
0
 10
-31.317345
 20
240.227408
 30
0.0
 11
-30.317345
 21
239.227408
 31
0.0
  0
LINE
  8
0
 10
-40.317345
 20
240.227408
 30
0.0
 11
-41.317345
 21
239.227408
 31
0.0
  0
LINE
  8
0
 10
-40.317345
 20
240.227408
 30
0.0
 11
-31.317345
 21
240.227408
 31
0.0
  0
LINE
  8
0
 10
-41.317345
 20
239.227408
 30
0.0
 11
-41.317345
 21
163.227408
 31
0.0
  0
ARC
  8
0
 10
17.159329
 20
160.227408
 30
0.0
 40
4.0
 50
29.23364
 51
90.0
  0
ARC
  8
0
 10
-13.653175
 20
161.227408
 30
0.0
 40
3.0
 50
90.0
 51
131.214481
  0
ARC
  8
0
 10
-18.192709
 20
165.227408
 30
0.0
 40
3.0
 50
270.0
 51
311.214481
  0
LINE
  8
0
 10
-15.629814
 20
163.484153
 30
0.0
 11
-16.21607
 21
162.970663
 31
0.0
  0
LINE
  8
0
 10
-13.653175
 20
164.227408
 30
0.0
 11
17.159329
 21
164.227408
 31
0.0
  0
LINE
  8
0
 10
-29.317345
 20
162.227408
 30
0.0
 11
-18.192709
 21
162.227408
 31
0.0
  0
LINE
  8
0
 10
-30.317345
 20
163.227408
 30
0.0
 11
-29.317345
 21
162.227408
 31
0.0
  0
LINE
  8
0
 10
-40.317345
 20
162.227408
 30
0.0
 11
-31.317345
 21
162.227408
 31
0.0
  0
LINE
  8
0
 10
-40.317345
 20
162.227408
 30
0.0
 11
-41.317345
 21
163.227408
 31
0.0
  0
LINE
  8
0
 10
-31.317345
 20
162.227408
 30
0.0
 11
-30.317345
 21
163.227408
 31
0.0
  0
LINE
  8
0
 10
-40.317345
 20
162.227408
 30
0.0
 11
-31.317345
 21
162.227408
 31
0.0
  0
LINE
  8
0
 10
-40.317345
 20
162.227408
 30
0.0
 11
-41.317345
 21
163.227408
 31
0.0
  0
LINE
  8
0
 10
-31.317345
 20
162.227408
 30
0.0
 11
-30.317345
 21
163.227408
 31
0.0
  0
LINE
  8
0
 10
-15.431431
 20
163.643563
 30
0.0
 11
42.26083
 21
144.258526
 31
0.0
  0
LINE
  8
0
 10
-30.304296
 20
239.227564
 30
0.0
 11
-30.317345
 21
163.227408
 31
0.0
  0
LINE
  8
0
 10
-40.317345
 20
240.227408
 30
0.0
 11
-40.317345
 21
162.227408
 31
0.0
  0
LINE
  8
0
 10
-31.317345
 20
162.227408
 30
0.0
 11
-31.317345
 21
240.227408
 31
0.0
  0
LINE
  8
0
 10
-29.303953
 20
240.22722
 30
0.0
 11
-29.317345
 21
162.227408
 31
0.0
  0
LINE
  8
0
  6
AXES
 62
     1
 10
-43.317345
 20
233.227408
 30
0.0
 11
-10.359104
 21
233.227408
 31
0.0
  0
LINE
  8
0
  6
AXES
 62
     1
 10
-43.317345
 20
169.227408
 30
0.0
 11
-10.799595
 21
169.227408
 31
0.0
  0
LINE
  8
0
 10
13.678921
 20
225.354425
 30
0.0
 11
-2.317345
 21
225.354425
 31
0.0
  0
ARC
  8
0
 10
-2.317345
 20
229.354425
 30
0.0
 40
4.0
 50
180.0
 51
270.0
  0
ARC
  8
0
 10
13.678921
 20
229.354425
 30
0.0
 40
4.0
 50
270.0
 51
359.980326
  0
LINE
  8
0
  6
AXES
 62
     1
 10
5.681963
 20
223.856136
 30
0.0
 11
5.681963
 21
242.738762
 31
0.0
  0
ARC
  8
0
 10
54.682655
 20
181.227408
 30
0.0
 40
23.5
 50
90.0
 51
270.0
  0
ARC
  8
0
 10
54.682655
 20
181.227408
 30
0.0
 40
27.5
 50
90.0
 51
270.0
  0
ARC
  8
0
 10
54.682655
 20
181.227408
 30
0.0
 40
38.0
 50
93.707911
 51
146.292089
  0
ARC
  8
0
  6
AXES
 62
     1
 10
54.682655
 20
181.227408
 30
0.0
 40
33.0
 50
90.0
 51
270.0
  0
ARC
  8
0
 10
54.682655
 20
148.227408
 30
0.0
 40
5.5
 50
90.0
 51
270.0
  0
ARC
  8
0
 10
54.682655
 20
214.227408
 30
0.0
 40
5.5
 50
90.0
 51
270.0
  0
CIRCLE
  8
0
 10
26.103817
 20
197.727408
 30
0.0
 40
5.5
  0
CIRCLE
  8
0
 10
26.103817
 20
164.727408
 30
0.0
 40
5.5
  0
LINE
  8
0
  6
AXES
 62
     1
 10
30.866957
 20
194.977408
 30
0.0
 11
20.907664
 21
200.727408
 31
0.0
  0
LINE
  8
0
  6
AXES
 62
     1
 10
30.866957
 20
167.477408
 30
0.0
 11
20.907664
 21
161.727408
 31
0.0
  0
ARC
  8
0
 10
54.682655
 20
181.227408
 30
0.0
 40
9.0
 50
90.0
 51
270.0
  0
ARC
  8
0
 10
54.682655
 20
181.227408
 30
0.0
 40
7.0
 50
90.0
 51
270.0
  0
ARC
  8
0
 10
54.682655
 20
181.227408
 30
0.0
 40
10.0
 50
90.0
 51
270.0
  0
LINE
  8
0
 10
134.182655
 20
226.227408
 30
0.0
 11
136.682655
 21
226.227408
 31
0.0
  0
LINE
  8
0
 10
134.182655
 20
176.227408
 30
0.0
 11
136.682655
 21
176.227408
 31
0.0
  0
INSERT
  8
HACH
  2
*X9
 10
0.0
 20
0.0
 30
0.0
  0
INSERT
  8
HACH
  2
*X10
 10
0.0
 20
0.0
 30
0.0
  0
INSERT
  8
HACH
  2
*X11
 10
0.0
 20
0.0
 30
0.0
  0
LINE
  8
0
 10
-29.303953
 20
111.913486
 30
0.0
 11
-29.317345
 21
33.913673
 31
0.0
  0
LINE
  8
0
 10
-31.317345
 20
33.913673
 30
0.0
 11
-31.317345
 21
111.913673
 31
0.0
  0
LINE
  8
0
 10
-40.317345
 20
111.913673
 30
0.0
 11
-40.317345
 21
33.913673
 31
0.0
  0
LINE
  8
0
 10
-30.304296
 20
110.913829
 30
0.0
 11
-30.317345
 21
34.913673
 31
0.0
  0
LINE
  8
0
 10
-31.317345
 20
33.913673
 30
0.0
 11
-30.317345
 21
34.913673
 31
0.0
  0
LINE
  8
0
 10
-40.317345
 20
33.913673
 30
0.0
 11
-41.317345
 21
34.913673
 31
0.0
  0
LINE
  8
0
 10
-40.317345
 20
33.913673
 30
0.0
 11
-31.317345
 21
33.913673
 31
0.0
  0
LINE
  8
0
 10
-31.317345
 20
33.913673
 30
0.0
 11
-30.317345
 21
34.913673
 31
0.0
  0
LINE
  8
0
 10
-40.317345
 20
33.913673
 30
0.0
 11
-41.317345
 21
34.913673
 31
0.0
  0
LINE
  8
0
 10
-40.317345
 20
33.913673
 30
0.0
 11
-31.317345
 21
33.913673
 31
0.0
  0
LINE
  8
0
 10
-30.317345
 20
34.913673
 30
0.0
 11
-29.317345
 21
33.913673
 31
0.0
  0
LINE
  8
0
 10
-29.317345
 20
33.913673
 30
0.0
 11
-18.192709
 21
33.913673
 31
0.0
  0
LINE
  8
0
 10
-15.629814
 20
35.170419
 30
0.0
 11
-16.21607
 21
34.656928
 31
0.0
  0
ARC
  8
0
 10
-18.192709
 20
36.913673
 30
0.0
 40
3.0
 50
270.0
 51
311.214481
  0
ARC
  8
0
 10
-13.653175
 20
32.913673
 30
0.0
 40
3.0
 50
90.0
 51
131.214481
  0
LINE
  8
0
 10
-41.317345
 20
110.913673
 30
0.0
 11
-41.317345
 21
34.913673
 31
0.0
  0
LINE
  8
0
 10
-40.317345
 20
111.913673
 30
0.0
 11
-31.317345
 21
111.913673
 31
0.0
  0
LINE
  8
0
 10
-40.317345
 20
111.913673
 30
0.0
 11
-41.317345
 21
110.913673
 31
0.0
  0
LINE
  8
0
 10
-31.317345
 20
111.913673
 30
0.0
 11
-30.317345
 21
110.913673
 31
0.0
  0
ARC
  8
0
 10
-13.639441
 20
112.908107
 30
0.0
 40
3.0
 50
228.765845
 51
269.980326
  0
ARC
  8
0
 10
-18.180348
 20
108.909666
 30
0.0
 40
3.0
 50
48.765845
 51
89.980326
  0
LINE
  8
0
 10
-15.616854
 20
110.65204
 30
0.0
 11
-16.202934
 21
111.165732
 31
0.0
  0
LINE
  8
0
 10
-29.303953
 20
111.913486
 30
0.0
 11
-18.179318
 21
111.909666
 31
0.0
  0
LINE
  8
0
 10
-30.304296
 20
110.913829
 30
0.0
 11
-29.303953
 21
111.913486
 31
0.0
  0
LINE
  8
0
  6
AXES
 62
     1
 10
-43.317345
 20
104.913673
 30
0.0
 11
-10.359104
 21
104.913673
 31
0.0
  0
LINE
  8
HACH
  6
AXES
 62
     1
 10
155.402671
 20
72.913673
 30
0.0
 11
-46.104552
 21
72.913673
 31
0.0
  0
LINE
  8
0
  6
AXES
 62
     1
 10
-43.317345
 20
40.913673
 30
0.0
 11
-10.799595
 21
40.913673
 31
0.0
  0
LINE
  8
0
  6
AXES
 62
     1
 10
54.682655
 20
-22.529974
 30
0.0
 11
54.682655
 21
127.414869
 31
0.0
  0
LINE
  8
0
 10
-6.317345
 20
123.913673
 30
0.0
 11
-6.317345
 21
21.913673
 31
0.0
  0
LINE
  8
0
 10
17.678921
 20
123.913673
 30
0.0
 11
17.678921
 21
21.913673
 31
0.0
  0
LINE
  8
0
 10
-2.317345
 20
127.913673
 30
0.0
 11
13.678921
 21
127.913673
 31
0.0
  0
LINE
  8
0
  6
AXES
 62
     1
 10
5.681963
 20
107.60539
 30
0.0
 11
5.681963
 21
126.488015
 31
0.0
  0
LINE
  8
0
  6
AXES
 62
     1
 10
-4.963808
 20
116.913673
 30
0.0
 11
16.162084
 21
116.913673
 31
0.0
  0
CIRCLE
  8
0
 10
5.681963
 20
116.913673
 30
0.0
 40
4.0
  0
ARC
  8
0
 10
13.678921
 20
123.913673
 30
0.0
 40
4.0
 50
0.0
 51
90.0
  0
ARC
  8
0
 10
-2.317345
 20
123.913673
 30
0.0
 40
4.0
 50
90.0
 51
180.0
  0
LINE
  8
0
 10
-13.640471
 20
109.908107
 30
0.0
 11
-6.317345
 21
109.908107
 31
0.0
  0
LINE
  8
0
 10
-13.640471
 20
35.91924
 30
0.0
 11
-6.317345
 21
35.91924
 31
0.0
  0
ARC
  8
0
 10
-2.317345
 20
21.913673
 30
0.0
 40
4.0
 50
180.0
 51
270.0
  0
ARC
  8
0
 10
13.678921
 20
21.913673
 30
0.0
 40
4.0
 50
270.0
 51
0.0
  0
CIRCLE
  8
0
 10
5.681963
 20
28.913673
 30
0.0
 40
4.0
  0
LINE
  8
0
  6
AXES
 62
     1
 10
-4.963808
 20
28.913673
 30
0.0
 11
16.162084
 21
28.913673
 31
0.0
  0
LINE
  8
0
  6
AXES
 62
     1
 10
5.681963
 20
38.221957
 30
0.0
 11
5.681963
 21
19.339331
 31
0.0
  0
LINE
  8
0
 10
-2.317345
 20
17.913673
 30
0.0
 11
13.678921
 21
17.913673
 31
0.0
  0
LINE
  8
0
 10
111.682655
 20
17.913673
 30
0.0
 11
95.686389
 21
17.913673
 31
0.0
  0
LINE
  8
0
  6
AXES
 62
     1
 10
103.683348
 20
38.221957
 30
0.0
 11
103.683348
 21
19.339331
 31
0.0
  0
LINE
  8
0
  6
AXES
 62
     1
 10
114.329118
 20
28.913673
 30
0.0
 11
93.203227
 21
28.913673
 31
0.0
  0
CIRCLE
  8
0
 10
103.683348
 20
28.913673
 30
0.0
 40
4.0
  0
ARC
  8
0
 10
95.686389
 20
21.913673
 30
0.0
 40
4.0
 50
180.0
 51
270.0
  0
ARC
  8
0
 10
111.682655
 20
21.913673
 30
0.0
 40
4.0
 50
270.0
 51
0.0
  0
LINE
  8
0
 10
123.005781
 20
35.91924
 30
0.0
 11
115.682655
 21
35.91924
 31
0.0
  0
LINE
  8
0
 10
123.005781
 20
109.908107
 30
0.0
 11
115.682655
 21
109.908107
 31
0.0
  0
ARC
  8
0
 10
111.682655
 20
123.913673
 30
0.0
 40
4.0
 50
0.0
 51
90.0
  0
ARC
  8
0
 10
95.686389
 20
123.913673
 30
0.0
 40
4.0
 50
90.0
 51
180.0
  0
CIRCLE
  8
0
 10
103.683348
 20
116.913673
 30
0.0
 40
4.0
  0
LINE
  8
0
  6
AXES
 62
     1
 10
114.329118
 20
116.913673
 30
0.0
 11
93.203227
 21
116.913673
 31
0.0
  0
LINE
  8
0
  6
AXES
 62
     1
 10
103.683348
 20
107.60539
 30
0.0
 11
103.683348
 21
126.488015
 31
0.0
  0
LINE
  8
0
 10
111.682655
 20
127.913673
 30
0.0
 11
95.686389
 21
127.913673
 31
0.0
  0
LINE
  8
0
 10
91.686389
 20
123.913673
 30
0.0
 11
91.686389
 21
21.913673
 31
0.0
  0
LINE
  8
0
 10
115.682655
 20
123.913673
 30
0.0
 11
115.682655
 21
21.913673
 31
0.0
  0
LINE
  8
0
  6
AXES
 62
     1
 10
152.682655
 20
40.913673
 30
0.0
 11
120.164906
 21
40.913673
 31
0.0
  0
LINE
  8
0
  6
AXES
 62
     1
 10
152.682655
 20
104.913673
 30
0.0
 11
119.724414
 21
104.913673
 31
0.0
  0
LINE
  8
0
 10
139.669607
 20
110.913829
 30
0.0
 11
138.669263
 21
111.913486
 31
0.0
  0
LINE
  8
0
 10
138.669263
 20
111.913486
 30
0.0
 11
127.544628
 21
111.909666
 31
0.0
  0
LINE
  8
0
 10
124.982165
 20
110.65204
 30
0.0
 11
125.568245
 21
111.165732
 31
0.0
  0
ARC
  8
0
 10
127.545658
 20
108.909666
 30
0.0
 40
3.0
 50
90.019674
 51
131.234155
  0
ARC
  8
0
 10
123.004751
 20
112.908107
 30
0.0
 40
3.0
 50
270.019674
 51
311.234155
  0
LINE
  8
0
 10
140.682655
 20
111.913673
 30
0.0
 11
139.682655
 21
110.913673
 31
0.0
  0
LINE
  8
0
 10
149.682655
 20
111.913673
 30
0.0
 11
150.682655
 21
110.913673
 31
0.0
  0
LINE
  8
0
 10
149.682655
 20
111.913673
 30
0.0
 11
140.682655
 21
111.913673
 31
0.0
  0
LINE
  8
0
 10
150.682655
 20
110.913673
 30
0.0
 11
150.682655
 21
34.913673
 31
0.0
  0
ARC
  8
0
 10
123.018485
 20
32.913673
 30
0.0
 40
3.0
 50
48.785519
 51
90.0
  0
ARC
  8
0
 10
127.558019
 20
36.913673
 30
0.0
 40
3.0
 50
228.785519
 51
270.0
  0
LINE
  8
0
 10
124.995124
 20
35.170419
 30
0.0
 11
125.58138
 21
34.656928
 31
0.0
  0
LINE
  8
0
 10
138.682655
 20
33.913673
 30
0.0
 11
127.558019
 21
33.913673
 31
0.0
  0
LINE
  8
0
 10
139.682655
 20
34.913673
 30
0.0
 11
138.682655
 21
33.913673
 31
0.0
  0
LINE
  8
0
 10
149.682655
 20
33.913673
 30
0.0
 11
140.682655
 21
33.913673
 31
0.0
  0
LINE
  8
0
 10
149.682655
 20
33.913673
 30
0.0
 11
150.682655
 21
34.913673
 31
0.0
  0
LINE
  8
0
 10
140.682655
 20
33.913673
 30
0.0
 11
139.682655
 21
34.913673
 31
0.0
  0
LINE
  8
0
 10
149.682655
 20
33.913673
 30
0.0
 11
140.682655
 21
33.913673
 31
0.0
  0
LINE
  8
0
 10
149.682655
 20
33.913673
 30
0.0
 11
150.682655
 21
34.913673
 31
0.0
  0
LINE
  8
0
 10
140.682655
 20
33.913673
 30
0.0
 11
139.682655
 21
34.913673
 31
0.0
  0
LINE
  8
0
 10
139.669607
 20
110.913829
 30
0.0
 11
139.682655
 21
34.913673
 31
0.0
  0
LINE
  8
0
 10
149.682655
 20
111.913673
 30
0.0
 11
149.682655
 21
33.913673
 31
0.0
  0
LINE
  8
0
 10
140.682655
 20
33.913673
 30
0.0
 11
140.682655
 21
111.913673
 31
0.0
  0
LINE
  8
0
 10
138.669263
 20
111.913486
 30
0.0
 11
138.682655
 21
33.913673
 31
0.0
  0
LINE
  8
0
 10
17.678921
 20
113.913673
 30
0.0
 11
91.686389
 21
113.913673
 31
0.0
  0
LINE
  8
0
 10
17.678921
 20
120.913673
 30
0.0
 11
91.686389
 21
120.913673
 31
0.0
  0
LINE
  8
0
 10
31.182655
 20
124.413673
 30
0.0
 11
78.182655
 21
124.413673
 31
0.0
  0
LINE
  8
0
 10
78.182655
 20
124.413673
 30
0.0
 11
81.682655
 21
120.913673
 31
0.0
  0
LINE
  8
0
  6
AXES
 62
     1
 10
26.103817
 20
127.93451
 30
0.0
 11
26.103817
 21
109.52258
 31
0.0
  0
LINE
  8
0
  6
AXES
 62
     1
 10
83.261493
 20
127.93451
 30
0.0
 11
83.261493
 21
109.52258
 31
0.0
  0
LINE
  8
0
 10
31.182655
 20
124.413673
 30
0.0
 11
27.682655
 21
120.913673
 31
0.0
  0
LINE
  8
0
 10
31.182655
 20
21.413673
 30
0.0
 11
27.682655
 21
24.913673
 31
0.0
  0
LINE
  8
0
  6
AXES
 62
     1
 10
83.261493
 20
17.892837
 30
0.0
 11
83.261493
 21
36.304767
 31
0.0
  0
LINE
  8
0
  6
AXES
 62
     1
 10
26.103817
 20
17.892837
 30
0.0
 11
26.103817
 21
36.304767
 31
0.0
  0
LINE
  8
0
 10
78.182655
 20
21.413673
 30
0.0
 11
81.682655
 21
24.913673
 31
0.0
  0
LINE
  8
0
 10
31.182655
 20
21.413673
 30
0.0
 11
78.182655
 21
21.413673
 31
0.0
  0
LINE
  8
0
 10
17.678921
 20
24.913673
 30
0.0
 11
91.686389
 21
24.913673
 31
0.0
  0
LINE
  8
0
 10
17.678921
 20
31.913673
 30
0.0
 11
91.686389
 21
31.913673
 31
0.0
  0
LINE
  8
0
 10
63.682655
 20
20.873673
 30
0.0
 11
45.682655
 21
20.873673
 31
0.0
  0
LINE
  8
0
 10
63.682655
 20
20.873673
 30
0.0
 11
63.682655
 21
-17.126327
 31
0.0
  0
LINE
  8
0
 10
45.682655
 20
20.873673
 30
0.0
 11
45.682655
 21
-17.126327
 31
0.0
  0
LINE
  8
0
 10
63.682655
 20
-17.126327
 30
0.0
 11
45.682655
 21
-17.126327
 31
0.0
  0
LINE
  8
0
 10
61.682655
 20
-19.126327
 30
0.0
 11
47.682655
 21
-19.126327
 31
0.0
  0
LINE
  8
0
 10
45.682655
 20
-17.126327
 30
0.0
 11
47.682655
 21
-19.126327
 31
0.0
  0
LINE
  8
0
 10
63.682655
 20
-17.126327
 30
0.0
 11
61.682655
 21
-19.126327
 31
0.0
  0
LINE
  8
0
 10
63.682655
 20
20.873673
 30
0.0
 11
64.682655
 21
20.873673
 31
0.0
  0
LINE
  8
0
 10
64.682655
 20
20.873673
 30
0.0
 11
64.682655
 21
21.413673
 31
0.0
  0
LINE
  8
0
 10
44.682655
 20
20.873673
 30
0.0
 11
44.682655
 21
21.413673
 31
0.0
  0
LINE
  8
0
 10
45.682655
 20
20.873673
 30
0.0
 11
44.682655
 21
20.873673
 31
0.0
  0
ARC
  8
0
 10
54.682655
 20
181.227408
 30
0.0
 40
38.0
 50
213.707911
 51
266.292089
  0
ARC
  8
0
 10
54.682655
 20
181.227408
 30
0.0
 40
38.0
 50
153.707911
 51
206.292089
  0
LINE
  8
0
 10
17.678921
 20
119.913673
 30
0.0
 11
91.686389
 21
119.913673
 31
0.0
  0
LINE
  8
HACH
 62
     5
 10
-16.07645
 20
237.348609
 30
0.0
 11
-16.07645
 21
164.997116
 31
0.0
  0
LINE
  8
0
 62
     5
 10
-16.07645
 20
109.034874
 30
0.0
 11
-16.07645
 21
36.683381
 31
0.0
  0
LINE
  8
0
 62
     5
 10
125.44176
 20
109.034874
 30
0.0
 11
125.44176
 21
36.683381
 31
0.0
  0
ARC
  8
0
 62
     5
 10
54.586812
 20
209.153044
 30
0.0
 40
102.443987
 50
250.581899
 51
289.418101
  0
ARC
  8
0
 62
     5
 10
54.586812
 20
-63.325698
 30
0.0
 40
102.443987
 50
70.581899
 51
109.418101
  0
LINE
  8
0
  6
CACHE
 62
     4
 10
-14.579079
 20
78.913673
 30
0.0
 11
38.08635
 21
78.913673
 31
0.0
  0
ARC
  8
0
  6
CACHE
 62
     4
 10
38.08635
 20
82.913673
 30
0.0
 40
4.0
 50
270.0
 51
343.854303
  0
LINE
  8
0
  6
CACHE
 62
     4
 10
-17.20574
 20
79.896945
 30
0.0
 11
-19.563303
 21
81.949671
 31
0.0
  0
ARC
  8
0
  6
CACHE
 62
     4
 10
-14.579079
 20
82.913673
 30
0.0
 40
4.0
 50
228.95396
 51
270.0
  0
ARC
  8
0
  6
CACHE
 62
     4
 10
-14.579079
 20
62.913673
 30
0.0
 40
4.0
 50
90.0
 51
131.04604
  0
LINE
  8
0
  6
CACHE
 62
     4
 10
-17.20574
 20
65.930402
 30
0.0
 11
-19.563303
 21
63.877676
 31
0.0
  0
ARC
  8
0
  6
CACHE
 62
     4
 10
38.08635
 20
62.913673
 30
0.0
 40
4.0
 50
16.145697
 51
90.0
  0
LINE
  8
0
  6
CACHE
 62
     4
 10
-14.579079
 20
66.913673
 30
0.0
 11
38.08635
 21
66.913673
 31
0.0
  0
LINE
  8
0
  6
CACHE
 62
     4
 10
123.944389
 20
66.913673
 30
0.0
 11
71.278961
 21
66.913673
 31
0.0
  0
ARC
  8
0
  6
CACHE
 62
     4
 10
71.278961
 20
62.913673
 30
0.0
 40
4.0
 50
90.0
 51
163.854303
  0
LINE
  8
0
  6
CACHE
 62
     4
 10
126.57105
 20
65.930402
 30
0.0
 11
128.928613
 21
63.877676
 31
0.0
  0
ARC
  8
0
  6
CACHE
 62
     4
 10
123.944389
 20
62.913673
 30
0.0
 40
4.0
 50
48.95396
 51
90.0
  0
ARC
  8
0
  6
CACHE
 62
     4
 10
123.944389
 20
82.913673
 30
0.0
 40
4.0
 50
270.0
 51
311.04604
  0
LINE
  8
0
  6
CACHE
 62
     4
 10
126.57105
 20
79.896945
 30
0.0
 11
128.928613
 21
81.949671
 31
0.0
  0
ARC
  8
0
  6
CACHE
 62
     4
 10
71.278961
 20
82.913673
 30
0.0
 40
4.0
 50
196.145697
 51
270.0
  0
LINE
  8
0
  6
CACHE
 62
     4
 10
123.944389
 20
78.913673
 30
0.0
 11
71.278961
 21
78.913673
 31
0.0
  0
INSERT
  8
0
  2
JOINT_4L
 10
284.50012
 20
181.227408
 30
0.0
 50
180.0
  0
LINE
  8
0
 10
263.00012
 20
191.227408
 30
0.0
 11
273.00012
 21
191.227408
 31
0.0
  0
LINE
  8
0
 10
274.00012
 20
160.227408
 30
0.0
 11
274.00012
 21
162.227408
 31
0.0
  0
LINE
  8
0
 10
262.00012
 20
171.227408
 30
0.0
 11
262.00012
 21
168.227408
 31
0.0
  0
INSERT
  8
0
  2
ROUL20X42
 10
206.00012
 20
181.227408
 30
0.0
 50
180.0
  0
INSERT
  8
0
  2
CIRCL20
 10
194.00012
 20
181.227408
 30
0.0
 50
180.0
  0
INSERT
  8
0
  2
CIRCL30
 10
120.682655
 20
201.227408
 30
0.0
 50
180.0
  0
INSERT
  8
0
  2
BAGUE
 10
119.182655
 20
201.227408
 30
0.0
 50
180.0
  0
POLYLINE
  8
0
 66
     1
 10
0.0
 20
0.0
 30
0.0
 70
     1
 40
0.7
 41
0.7
  0
VERTEX
  8
0
 10
-56.312489
 20
-26.690835
 30
0.0
  0
VERTEX
  8
0
 10
343.687511
 20
-26.690835
 30
0.0
  0
VERTEX
  8
0
 10
343.687511
 20
250.309165
 30
0.0
  0
VERTEX
  8
0
 10
-56.312489
 20
250.309165
 30
0.0
  0
SEQEND
  8
0
  0
INSERT
  8
0
  2
JOINT_TOR
 10
136.682655
 20
201.227408
 30
0.0
 50
180.0
  0
INSERT
  8
0
  2
JOINT_TUR
 10
108.682655
 20
201.227408
 30
0.0
  0
INSERT
  8
0
  2
VIS_CHCM6_FACE
 10
26.103817
 20
164.727408
 30
0.0
  0
LINE
  8
0
 10
278.00012
 20
153.227408
 30
0.0
 11
283.00012
 21
153.227408
 31
0.0
  0
ARC
  8
0
 10
283.00012
 20
152.227408
 30
0.0
 40
1.0
 50
0.0
 51
90.0
  0
LINE
  8
0
 10
284.00012
 20
152.227408
 30
0.0
 11
284.00012
 21
144.227408
 31
0.0
  0
ARC
  8
0
 10
283.00012
 20
144.227408
 30
0.0
 40
1.0
 50
270.0
 51
0.0
  0
LINE
  8
0
 10
283.00012
 20
143.227408
 30
0.0
 11
278.00012
 21
143.227408
 31
0.0
  0
LINE
  8
0
 10
278.00012
 20
143.227408
 30
0.0
 11
278.00012
 21
153.227408
 31
0.0
  0
LINE
  8
0
  6
CACHE
 62
     4
 10
284.00012
 20
145.341823
 30
0.0
 11
280.523742
 21
145.341823
 31
0.0
  0
LINE
  8
0
  6
CACHE
 62
     4
 10
280.523742
 20
145.341823
 30
0.0
 11
280.523742
 21
148.227408
 31
0.0
  0
LINE
  8
0
  6
CACHE
 62
     4
 10
280.523742
 20
145.341823
 30
0.0
 11
279.482616
 21
148.227408
 31
0.0
  0
LINE
  8
0
  6
CACHE
 62
     4
 10
284.00012
 20
146.86108
 30
0.0
 11
280.523742
 21
146.86108
 31
0.0
  0
LINE
  8
0
  6
CACHE
 62
     4
 10
284.00012
 20
149.593736
 30
0.0
 11
280.523742
 21
149.593736
 31
0.0
  0
LINE
  8
0
  6
CACHE
 62
     4
 10
280.523742
 20
151.112993
 30
0.0
 11
279.482616
 21
148.227408
 31
0.0
  0
LINE
  8
0
  6
CACHE
 62
     4
 10
280.523742
 20
151.112993
 30
0.0
 11
280.523742
 21
148.227408
 31
0.0
  0
LINE
  8
0
  6
CACHE
 62
     4
 10
284.00012
 20
151.112993
 30
0.0
 11
280.523742
 21
151.112993
 31
0.0
  0
LINE
  8
0
 10
278.00012
 20
151.227408
 30
0.0
 11
262.80012
 21
151.227408
 31
0.0
  0
LINE
  8
0
 10
276.00012
 20
145.227408
 30
0.0
 11
276.00012
 21
151.227408
 31
0.0
  0
LINE
  8
HACH
 10
262.00012
 20
150.427408
 30
0.0
 11
276.00012
 21
150.427408
 31
0.0
  0
LINE
  8
HACH
 10
262.00012
 20
146.027408
 30
0.0
 11
276.00012
 21
146.027408
 31
0.0
  0
LINE
  8
0
 10
262.80012
 20
145.227408
 30
0.0
 11
278.00012
 21
145.227408
 31
0.0
  0
LINE
  8
0
 10
262.80012
 20
145.227408
 30
0.0
 11
262.80012
 21
151.227408
 31
0.0
  0
LINE
  8
0
 10
262.80012
 20
151.227408
 30
0.0
 11
262.00012
 21
150.427408
 31
0.0
  0
LINE
  8
0
 10
262.00012
 20
150.427408
 30
0.0
 11
262.00012
 21
146.027408
 31
0.0
  0
LINE
  8
0
 10
262.00012
 20
146.027408
 30
0.0
 11
262.80012
 21
145.227408
 31
0.0
  0
LINE
  8
0
 10
275.00012
 20
145.227408
 30
0.0
 11
275.00012
 21
142.227408
 31
0.0
  0
INSERT
  8
0
  2
VIS_CHCM6_16
 10
190.00012
 20
214.227408
 30
0.0
 41
-1.0
  0
LINE
  8
0
 10
190.00012
 20
143.227408
 30
0.0
 11
185.00012
 21
143.227408
 31
0.0
  0
ARC
  8
0
 10
185.00012
 20
144.227408
 30
0.0
 40
1.0
 50
180.0
 51
270.0
  0
LINE
  8
0
 10
184.00012
 20
144.227408
 30
0.0
 11
184.00012
 21
152.227408
 31
0.0
  0
ARC
  8
0
 10
185.00012
 20
152.227408
 30
0.0
 40
1.0
 50
90.0
 51
180.0
  0
LINE
  8
0
 10
185.00012
 20
153.227408
 30
0.0
 11
190.00012
 21
153.227408
 31
0.0
  0
LINE
  8
0
 10
190.00012
 20
153.227408
 30
0.0
 11
190.00012
 21
143.227408
 31
0.0
  0
LINE
  8
0
  6
CACHE
 62
     4
 10
184.00012
 20
151.112993
 30
0.0
 11
187.476498
 21
151.112993
 31
0.0
  0
LINE
  8
0
  6
CACHE
 62
     4
 10
187.476498
 20
151.112993
 30
0.0
 11
187.476498
 21
148.227408
 31
0.0
  0
LINE
  8
0
  6
CACHE
 62
     4
 10
187.476498
 20
151.112993
 30
0.0
 11
188.517625
 21
148.227408
 31
0.0
  0
LINE
  8
0
  6
CACHE
 62
     4
 10
184.00012
 20
149.593736
 30
0.0
 11
187.476498
 21
149.593736
 31
0.0
  0
LINE
  8
0
  6
CACHE
 62
     4
 10
184.00012
 20
146.86108
 30
0.0
 11
187.476498
 21
146.86108
 31
0.0
  0
LINE
  8
0
  6
CACHE
 62
     4
 10
187.476498
 20
145.341823
 30
0.0
 11
188.517625
 21
148.227408
 31
0.0
  0
LINE
  8
0
  6
CACHE
 62
     4
 10
187.476498
 20
145.341823
 30
0.0
 11
187.476498
 21
148.227408
 31
0.0
  0
LINE
  8
0
  6
CACHE
 62
     4
 10
184.00012
 20
145.341823
 30
0.0
 11
187.476498
 21
145.341823
 31
0.0
  0
LINE
  8
0
 10
190.00012
 20
145.227408
 30
0.0
 11
205.20012
 21
145.227408
 31
0.0
  0
LINE
  8
0
 10
192.00012
 20
151.227408
 30
0.0
 11
192.00012
 21
145.227408
 31
0.0
  0
LINE
  8
HACH
 10
206.00012
 20
146.027408
 30
0.0
 11
192.00012
 21
146.027408
 31
0.0
  0
LINE
  8
HACH
 10
206.00012
 20
150.427408
 30
0.0
 11
192.00012
 21
150.427408
 31
0.0
  0
LINE
  8
0
 10
205.20012
 20
151.227408
 30
0.0
 11
190.00012
 21
151.227408
 31
0.0
  0
LINE
  8
0
 10
205.20012
 20
151.227408
 30
0.0
 11
205.20012
 21
145.227408
 31
0.0
  0
LINE
  8
0
 10
205.20012
 20
145.227408
 30
0.0
 11
206.00012
 21
146.027408
 31
0.0
  0
LINE
  8
0
 10
206.00012
 20
146.027408
 30
0.0
 11
206.00012
 21
150.427408
 31
0.0
  0
LINE
  8
0
 10
206.00012
 20
150.427408
 30
0.0
 11
205.20012
 21
151.227408
 31
0.0
  0
LINE
  8
0
 10
193.00012
 20
145.227408
 30
0.0
 11
193.00012
 21
142.227408
 31
0.0
  0
LINE
  8
0
 10
193.00012
 20
217.227408
 30
0.0
 11
193.00012
 21
220.227408
 31
0.0
  0
LINE
  8
0
 10
186.00012
 20
209.227408
 30
0.0
 11
186.00012
 21
208.227408
 31
0.0
  0
LINE
  8
0
 10
278.00012
 20
219.227408
 30
0.0
 11
283.00012
 21
219.227408
 31
0.0
  0
ARC
  8
0
 10
283.00012
 20
218.227408
 30
0.0
 40
1.0
 50
0.0
 51
90.0
  0
LINE
  8
0
 10
284.00012
 20
218.227408
 30
0.0
 11
284.00012
 21
210.227408
 31
0.0
  0
ARC
  8
0
 10
283.00012
 20
210.227408
 30
0.0
 40
1.0
 50
270.0
 51
0.0
  0
LINE
  8
0
 10
283.00012
 20
209.227408
 30
0.0
 11
278.00012
 21
209.227408
 31
0.0
  0
LINE
  8
0
 10
278.00012
 20
209.227408
 30
0.0
 11
278.00012
 21
219.227408
 31
0.0
  0
LINE
  8
0
  6
CACHE
 62
     4
 10
284.00012
 20
211.341823
 30
0.0
 11
280.523742
 21
211.341823
 31
0.0
  0
LINE
  8
0
  6
CACHE
 62
     4
 10
280.523742
 20
211.341823
 30
0.0
 11
280.523742
 21
214.227408
 31
0.0
  0
LINE
  8
0
  6
CACHE
 62
     4
 10
280.523742
 20
211.341823
 30
0.0
 11
279.482616
 21
214.227408
 31
0.0
  0
LINE
  8
0
  6
CACHE
 62
     4
 10
284.00012
 20
212.86108
 30
0.0
 11
280.523742
 21
212.86108
 31
0.0
  0
LINE
  8
0
  6
CACHE
 62
     4
 10
284.00012
 20
215.593736
 30
0.0
 11
280.523742
 21
215.593736
 31
0.0
  0
LINE
  8
0
  6
CACHE
 62
     4
 10
280.523742
 20
217.112993
 30
0.0
 11
279.482616
 21
214.227408
 31
0.0
  0
LINE
  8
0
  6
CACHE
 62
     4
 10
280.523742
 20
217.112993
 30
0.0
 11
280.523742
 21
214.227408
 31
0.0
  0
LINE
  8
0
  6
CACHE
 62
     4
 10
284.00012
 20
217.112993
 30
0.0
 11
280.523742
 21
217.112993
 31
0.0
  0
LINE
  8
0
 10
278.00012
 20
217.227408
 30
0.0
 11
262.80012
 21
217.227408
 31
0.0
  0
LINE
  8
0
 10
276.00012
 20
211.227408
 30
0.0
 11
276.00012
 21
217.227408
 31
0.0
  0
LINE
  8
HACH
 10
262.00012
 20
216.427408
 30
0.0
 11
276.00012
 21
216.427408
 31
0.0
  0
LINE
  8
HACH
 10
262.00012
 20
212.027408
 30
0.0
 11
276.00012
 21
212.027408
 31
0.0
  0
LINE
  8
0
 10
262.80012
 20
211.227408
 30
0.0
 11
278.00012
 21
211.227408
 31
0.0
  0
LINE
  8
0
 10
262.80012
 20
211.227408
 30
0.0
 11
262.80012
 21
217.227408
 31
0.0
  0
LINE
  8
0
 10
262.80012
 20
217.227408
 30
0.0
 11
262.00012
 21
216.427408
 31
0.0
  0
LINE
  8
0
 10
262.00012
 20
216.427408
 30
0.0
 11
262.00012
 21
212.027408
 31
0.0
  0
LINE
  8
0
 10
262.00012
 20
212.027408
 30
0.0
 11
262.80012
 21
211.227408
 31
0.0
  0
LINE
  8
0
 10
275.00012
 20
217.227408
 30
0.0
 11
275.00012
 21
220.227408
 31
0.0
  0
INSERT
  8
0
  2
ROUL20X42
 10
262.00012
 20
181.227408
 30
0.0
 41
-1.0
 50
180.0
  0
INSERT
  8
0
  2
CIRCL20
 10
274.00012
 20
181.227408
 30
0.0
 41
-1.0
 50
180.0
  0
INSERT
  8
0
  2
VIS_CHCM6_25
 10
143.682655
 20
233.227408
 30
0.0
 41
-1.0
 50
180.0
  0
LINE
  8
0
 10
118.682655
 20
167.027408
 30
0.0
 11
119.482655
 21
166.227408
 31
0.0
  0
LINE
  8
0
 10
118.682655
 20
171.427408
 30
0.0
 11
118.682655
 21
167.027408
 31
0.0
  0
LINE
  8
0
 10
119.482655
 20
172.227408
 30
0.0
 11
118.682655
 21
171.427408
 31
0.0
  0
LINE
  8
0
 10
119.482655
 20
166.227408
 30
0.0
 11
119.482655
 21
172.227408
 31
0.0
  0
LINE
  8
0
 10
119.482655
 20
166.227408
 30
0.0
 11
143.682655
 21
166.227408
 31
0.0
  0
LINE
  8
HACH
 10
118.682655
 20
167.027408
 30
0.0
 11
141.682655
 21
167.027408
 31
0.0
  0
LINE
  8
HACH
 10
118.682655
 20
171.427408
 30
0.0
 11
141.682655
 21
171.427408
 31
0.0
  0
LINE
  8
0
 10
141.682655
 20
166.227408
 30
0.0
 11
141.682655
 21
172.227408
 31
0.0
  0
LINE
  8
0
 10
143.682655
 20
172.227408
 30
0.0
 11
119.482655
 21
172.227408
 31
0.0
  0
LINE
  8
0
  6
CACHE
 62
     4
 10
149.682655
 20
172.112993
 30
0.0
 11
146.206277
 21
172.112993
 31
0.0
  0
LINE
  8
0
  6
CACHE
 62
     4
 10
146.206277
 20
172.112993
 30
0.0
 11
146.206277
 21
169.227408
 31
0.0
  0
LINE
  8
0
  6
CACHE
 62
     4
 10
146.206277
 20
172.112993
 30
0.0
 11
145.165151
 21
169.227408
 31
0.0
  0
LINE
  8
0
  6
CACHE
 62
     4
 10
149.682655
 20
170.593736
 30
0.0
 11
146.206277
 21
170.593736
 31
0.0
  0
LINE
  8
0
  6
CACHE
 62
     4
 10
149.682655
 20
167.86108
 30
0.0
 11
146.206277
 21
167.86108
 31
0.0
  0
LINE
  8
0
  6
CACHE
 62
     4
 10
146.206277
 20
166.341823
 30
0.0
 11
145.165151
 21
169.227408
 31
0.0
  0
LINE
  8
0
  6
CACHE
 62
     4
 10
146.206277
 20
166.341823
 30
0.0
 11
146.206277
 21
169.227408
 31
0.0
  0
LINE
  8
0
  6
CACHE
 62
     4
 10
149.682655
 20
166.341823
 30
0.0
 11
146.206277
 21
166.341823
 31
0.0
  0
LINE
  8
0
 10
143.682655
 20
164.227408
 30
0.0
 11
143.682655
 21
174.227408
 31
0.0
  0
LINE
  8
0
 10
148.682655
 20
164.227408
 30
0.0
 11
143.682655
 21
164.227408
 31
0.0
  0
ARC
  8
0
 10
148.682655
 20
165.227408
 30
0.0
 40
1.0
 50
270.0
 51
0.0
  0
LINE
  8
0
 10
149.682655
 20
173.227408
 30
0.0
 11
149.682655
 21
165.227408
 31
0.0
  0
ARC
  8
0
 10
148.682655
 20
173.227408
 30
0.0
 40
1.0
 50
0.0
 51
90.0
  0
LINE
  8
0
 10
143.682655
 20
174.227408
 30
0.0
 11
148.682655
 21
174.227408
 31
0.0
  0
LINE
  8
0
 10
139.682655
 20
166.227408
 30
0.0
 11
139.682655
 21
163.227408
 31
0.0
  0
LINE
  8
0
 10
139.682655
 20
236.227408
 30
0.0
 11
139.682655
 21
239.227408
 31
0.0
  0
LINE
  8
0
 10
54.682655
 20
145.727408
 30
0.0
 11
53.239279
 21
145.727408
 31
0.0
  0
LINE
  8
0
 10
53.239279
 20
145.727408
 30
0.0
 11
51.795904
 21
148.227408
 31
0.0
  0
LINE
  8
0
 10
51.795904
 20
148.227408
 30
0.0
 11
53.239279
 21
150.727408
 31
0.0
  0
LINE
  8
0
 10
53.239279
 20
150.727408
 30
0.0
 11
54.682655
 21
150.727408
 31
0.0
  0
ARC
  8
0
 10
54.682655
 20
148.227408
 30
0.0
 40
5.0
 50
90.0
 51
270.0
  0
INSERT
  8
0
  2
VIS_CHCM6_FACE
 10
26.103817
 20
197.727408
 30
0.0
 41
-1.0
 50
180.0
  0
LINE
  8
0
 10
53.239279
 20
211.727408
 30
0.0
 11
54.682655
 21
211.727408
 31
0.0
  0
LINE
  8
0
 10
51.795904
 20
214.227408
 30
0.0
 11
53.239279
 21
211.727408
 31
0.0
  0
LINE
  8
0
 10
53.239279
 20
216.727408
 30
0.0
 11
51.795904
 21
214.227408
 31
0.0
  0
LINE
  8
0
 10
54.682655
 20
216.727408
 30
0.0
 11
53.239279
 21
216.727408
 31
0.0
  0
ARC
  8
0
 10
54.682655
 20
214.227408
 30
0.0
 40
5.0
 50
90.0
 51
270.0
  0
POLYLINE
  8
0
 66
     1
 10
0.0
 20
0.0
 30
0.0
 40
0.7
 41
0.7
  0
VERTEX
  8
0
 10
163.687511
 20
-26.690835
 30
0.0
  0
VERTEX
  8
0
 10
163.687511
 20
-10.690835
 30
0.0
  0
VERTEX
  8
0
 10
343.687511
 20
-10.690835
 30
0.0
  0
SEQEND
  8
0
  0
LINE
  8
0
 10
343.687511
 20
-10.690835
 30
0.0
 11
343.687511
 21
-18.690835
 31
0.0
  0
LINE
  8
0
 10
343.687511
 20
-18.690835
 30
0.0
 11
163.687511
 21
-18.690835
 31
0.0
  0
LINE
  8
0
 10
293.687511
 20
-10.690835
 30
0.0
 11
293.687511
 21
-26.690835
 31
0.0
  0
LINE
  8
0
 10
293.687511
 20
-26.690835
 30
0.0
 11
152.79411
 21
-26.690835
 31
0.0
  0
TEXT
  8
0
 10
174.125345
 20
-16.879584
 30
0.0
 40
5.0
  1
VERIN ROTATIF
 41
0.6
  7
S35
  0
TEXT
  8
0
 10
174.125345
 20
-25.006724
 30
0.0
 40
5.0
  1
DOSSIER TECHNIQUE
 41
0.6
  7
S35
  0
TEXT
  8
0
 10
297.986693
 20
-17.692298
 30
0.0
 40
5.0
  1
Echelle : 1
 41
0.6
  7
S35
  0
TEXT
  8
0
 10
297.58059
 20
-25.413081
 30
0.0
 40
5.0
  1
Fichier VERO1.DWG
 41
0.6
  7
S35
  0
POLYLINE
  8
0
 66
     1
 10
0.0
 20
0.0
 30
0.0
 40
0.7
 41
0.7
  0
VERTEX
  8
0
 10
163.687511
 20
-10.690835
 30
0.0
  0
VERTEX
  8
0
 10
163.687511
 20
121.2818
 30
0.0
  0
SEQEND
  8
0
  0
TEXT
  8
0
 10
166.815495
 20
-8.752443
 30
0.0
 40
3.5
  1
RP  NB        DESIGNATION                                    MATIERE
 41
0.6
  7
S35
  0
LINE
  8
0
 10
163.687511
 20
-2.690835
 30
0.0
 11
343.687511
 21
-2.690835
 31
0.0
  0
LINE
  8
0
 10
163.687511
 20
5.309165
 30
0.0
 11
343.687511
 21
5.309165
 31
0.0
  0
LINE
  8
0
 10
163.687511
 20
13.309165
 30
0.0
 11
343.687511
 21
13.309165
 31
0.0
  0
LINE
  8
0
 10
163.687511
 20
21.309165
 30
0.0
 11
343.687511
 21
21.309165
 31
0.0
  0
LINE
  8
0
 10
163.687511
 20
29.309165
 30
0.0
 11
343.687511
 21
29.309165
 31
0.0
  0
LINE
  8
0
 10
163.687511
 20
37.309165
 30
0.0
 11
343.687511
 21
37.309165
 31
0.0
  0
LINE
  8
0
 10
163.687511
 20
45.309165
 30
0.0
 11
343.687511
 21
45.309165
 31
0.0
  0
LINE
  8
0
 10
163.687511
 20
53.309165
 30
0.0
 11
343.687511
 21
53.309165
 31
0.0
  0
LINE
  8
0
 10
163.687511
 20
61.309165
 30
0.0
 11
343.687511
 21
61.309165
 31
0.0
  0
LINE
  8
0
 10
163.687511
 20
69.309165
 30
0.0
 11
343.687511
 21
69.309165
 31
0.0
  0
LINE
  8
0
 10
163.687511
 20
77.309165
 30
0.0
 11
343.687511
 21
77.309165
 31
0.0
  0
LINE
  8
0
 10
163.687511
 20
85.309165
 30
0.0
 11
343.687511
 21
85.309165
 31
0.0
  0
LINE
  8
0
 10
163.687511
 20
93.309165
 30
0.0
 11
343.687511
 21
93.309165
 31
0.0
  0
LINE
  8
0
 10
163.687511
 20
101.309165
 30
0.0
 11
343.687511
 21
101.309165
 31
0.0
  0
LINE
  8
0
 10
163.687511
 20
109.309165
 30
0.0
 11
343.687511
 21
109.309165
 31
0.0
  0
LINE
  8
0
 10
163.687511
 20
117.309165
 30
0.0
 11
343.687511
 21
117.309165
 31
0.0
  0
LINE
  8
0
 10
172.500934
 20
-10.690835
 30
0.0
 11
172.500934
 21
121.2818
 31
0.0
  0
LINE
  8
0
 10
180.216887
 20
-10.690835
 30
0.0
 11
180.216887
 21
121.2818
 31
0.0
  0
LINE
  8
0
 10
278.899862
 20
-10.690835
 30
0.0
 11
278.899862
 21
121.2818
 31
0.0
  0
TEXT
  8
0
 10
166.478498
 20
110.941035
 30
0.0
 40
3.5
  1
15   1      Joint 4 lobes 20 x4
 41
0.6
  7
S35
  0
TEXT
  8
0
 10
166.161146
 20
103.002203
 30
0.0
 40
3.5
  1
14   1      Chapeau ouvert 
 41
0.6
  7
S35
  0
TEXT
  8
0
 10
283.581594
 20
103.319756
 30
0.0
 40
3.5
  1
XC35
 41
0.6
  7
S35
  0
TEXT
  8
0
 10
165.843793
 20
95.06337
 30
0.0
 40
3.5
  1
13  12      
 41
0.6
  7
S35
  0
TEXT
  8
0
 10
165.843793
 20
87.44209
 30
0.0
 40
3.5
  1
12   2      
 41
0.6
  7
S35
  0
TEXT
  8
0
 10
188.375825
 20
86.806984
 30
0.0
 40
3.5
  1
Roulement a billes   20x42x12
 41
0.6
  7
S35
  0
TEXT
  8
0
 10
165.52644
 20
79.503257
 30
0.0
 40
3.5
  1
10   1      Chapeau ferme
 41
0.6
  7
S35
  0
TEXT
  8
0
 10
282.312184
 20
79.185704
 30
0.0
 40
3.5
  1
XC35
 41
0.6
  7
S35
  0
TEXT
  8
0
 10
166.478498
 20
71.246871
 30
0.0
 40
3.5
  1
9   
 41
0.6
  7
S35
  0
TEXT
  8
0
 10
174.729665
 20
70.611765
 30
0.0
 40
3.5
  1
2
 41
0.6
  7
S35
  0
TEXT
  8
0
 10
187.74112
 20
70.611765
 30
0.0
 40
3.5
  1
Couvercle
 41
0.6
  7
S35
  0
TEXT
  8
0
 10
281.994832
 20
70.611765
 30
0.0
 40
3.5
  1
A33
 41
0.6
  7
S35
  0
TEXT
  8
0
 10
166.478498
 20
62.990485
 30
0.0
 40
3.5
  1
8   2
 41
0.6
  7
S35
  0
TEXT
  8
0
 10
187.74112
 20
62.990485
 30
0.0
 40
3.5
  1
Joint  O-Ring  DI=47,35  W=1,78
 41
0.6
  7
S35
  0
TEXT
  8
0
 10
281.994832
 20
62.990485
 30
0.0
 40
3.5
  1
Busak-Shamban
 41
0.6
  7
S35
  0
TEXT
  8
0
 10
166.478498
 20
55.369206
 30
0.0
 40
3.5
  1
7   
 41
0.6
  7
S35
  0
TEXT
  8
0
 10
173.460255
 20
54.416546
 30
0.0
 40
3.5
  1
12      Vis CHc  M6 
 41
0.6
  7
S35
  0
TEXT
  8
0
 10
188.375825
 20
95.06337
 30
0.0
 40
3.5
  1
Vic CHc M6 16
 41
0.6
  7
S35
  0
TEXT
  8
0
 10
210.273152
 20
54.416546
 30
0.0
 40
3.5
  1
25
 41
0.6
  7
S35
  0
TEXT
  8
0
 10
166.795851
 20
47.434363
 30
0.0
 40
3.5
  1
6   2
 41
0.6
  7
S35
  0
TEXT
  8
0
 10
188.058473
 20
47.116809
 30
0.0
 40
3.5
  1
Circlips  20 x 1,2
 41
0.6
  7
S35
  0
TEXT
  8
0
 10
166.478498
 20
39.49553
 30
0.0
 40
3.5
  1
5   2
 41
0.6
  7
S35
  0
TEXT
  8
0
 10
187.74112
 20
39.49553
 30
0.0
 40
3.5
  1
Bague
 41
0.6
  7
S35
  0
TEXT
  8
0
 10
281.994832
 20
39.813083
 30
0.0
 40
3.5
  1
A33
 41
0.6
  7
S35
  0
TEXT
  8
0
 10
166.478498
 20
31.239144
 30
0.0
 40
3.5
  1
4   2
 41
0.6
  7
S35
  0
TEXT
  8
0
 10
187.74112
 20
31.239144
 30
0.0
 40
3.5
  1
Joint tursite Variseal  M
 41
0.6
  7
S35
  0
TEXT
  8
0
 10
281.677479
 20
30.92159
 30
0.0
 40
3.5
  1
Busak-Shamban
 41
0.6
  7
S35
  0
TEXT
  8
0
 10
166.478498
 20
23.617864
 30
0.0
 40
3.5
  1
3    
 41
0.6
  7
S35
  0
TEXT
  8
0
 10
174.412312
 20
23.300311
 30
0.0
 40
3.5
  1
1
 41
0.6
  7
S35
  0
TEXT
  8
0
 10
187.74112
 20
23.300311
 30
0.0
 40
3.5
  1
Piston
 41
0.6
  7
S35
  0
TEXT
  8
0
 10
282.312184
 20
22.665204
 30
0.0
 40
3.5
  1
10 NC6
 41
0.6
  7
S35
  0
TEXT
  8
0
 10
166.478498
 20
15.361478
 30
0.0
 40
3.5
  1
2   1
 41
0.6
  7
S35
  0
TEXT
  8
0
 10
187.74112
 20
14.726371
 30
0.0
 40
3.5
  1
Arbre de sortie
 41
0.6
  7
S35
  0
TEXT
  8
0
 10
282.312184
 20
15.361478
 30
0.0
 40
3.5
  1
10 NC6
 41
0.6
  7
S35
  0
TEXT
  8
0
 10
166.795851
 20
7.422645
 30
0.0
 40
3.5
  1
1   1
 41
0.6
  7
S35
  0
TEXT
  8
0
 10
187.74112
 20
7.105092
 30
0.0
 40
3.5
  1
Cylindre
 41
0.6
  7
S35
  0
TEXT
  8
0
 10
282.629537
 20
7.105092
 30
0.0
 40
3.5
  1
Ft 20
 41
0.6
  7
S35
  0
TEXT
  8
0
 10
65.931167
 20
240.739154
 30
0.0
 40
5.0
  1
AA
 41
0.6
  7
S35
  0
TEXT
  8
0
 10
237.55553
 20
242.141152
 30
0.0
 40
5.0
  1
BB
 41
0.6
  7
S35
  0
LINE
  8
0
 10
54.682655
 20
246.840086
 30
0.0
 11
54.682655
 21
241.840086
 31
0.0
  0
LINE
  8
0
 10
54.682655
 20
244.340086
 30
0.0
 11
44.682655
 21
244.340086
 31
0.0
  0
LINE
  8
0
 10
54.682655
 20
244.340086
 30
0.0
 11
51.682655
 21
245.340086
 31
0.0
  0
LINE
  8
0
 10
54.682655
 20
244.340086
 30
0.0
 11
51.682655
 21
243.340086
 31
0.0
  0
TEXT
  8
0
 10
37.759701
 20
241.959192
 30
0.0
 40
5.0
  1
B
 41
0.6
  7
S35
  0
TEXT
  8
0
 10
37.759701
 20
132.280159
 30
0.0
 40
5.0
  1
B
 41
0.6
  7
S35
  0
LINE
  8
0
 10
54.682655
 20
134.661053
 30
0.0
 11
51.682655
 21
133.661053
 31
0.0
  0
LINE
  8
0
 10
54.682655
 20
134.661053
 30
0.0
 11
51.682655
 21
135.661053
 31
0.0
  0
LINE
  8
0
 10
54.682655
 20
134.661053
 30
0.0
 11
44.682655
 21
134.661053
 31
0.0
  0
LINE
  8
0
 10
54.682655
 20
137.161053
 30
0.0
 11
54.682655
 21
132.161053
 31
0.0
  0
LINE
  8
0
 10
154.187381
 20
72.913673
 30
0.0
 11
155.187381
 21
69.913673
 31
0.0
  0
LINE
  8
0
 10
154.187381
 20
72.913673
 30
0.0
 11
153.187381
 21
69.913673
 31
0.0
  0
LINE
  8
0
 10
154.187381
 20
72.913673
 30
0.0
 11
154.187381
 21
62.913673
 31
0.0
  0
LINE
  8
0
 10
151.687381
 20
72.913673
 30
0.0
 11
156.687381
 21
72.913673
 31
0.0
  0
TEXT
  8
0
 10
155.023475
 20
62.936441
 30
0.0
 40
5.0
  1
A
 41
0.6
  7
S35
  0
TEXT
  8
0
 10
-46.022208
 20
62.936441
 30
0.0
 40
5.0
  1
A
 41
0.6
  7
S35
  0
LINE
  8
0
 10
-49.358302
 20
72.913673
 30
0.0
 11
-44.358302
 21
72.913673
 31
0.0
  0
LINE
  8
0
 10
-46.858302
 20
72.913673
 30
0.0
 11
-46.858302
 21
62.913673
 31
0.0
  0
LINE
  8
0
 10
-46.858302
 20
72.913673
 30
0.0
 11
-47.858302
 21
69.913673
 31
0.0
  0
LINE
  8
0
 10
-46.858302
 20
72.913673
 30
0.0
 11
-45.858302
 21
69.913673
 31
0.0
  0
ENDSEC
  0
EOF
