  0
SECTION
  2
HEADER
  9
$ACADVER
  1
AC1006
  9
$EXTMIN
 10
-3.032858
 20
-3.177610
  9
$EXTMAX
 10
3.491457
 20
3.745528
  9
$LTSCALE
 40
0.000394
  9
$PDMODE
 70
    35
  9
$PDSIZE
 40
0.000315
  0
ENDSEC
  0
SECTION
  2
TABLES
  0
TABLE
  2
LTYPE
 70
     9
  0
LTYPE
  2
CONTINUOUS
 70
    64
  3
Solid line
 72
    65
 73
     0
 40
0.000000
  0
LTYPE
  2
DASHED
 70
    64
  3
__ __ __ __ __ __ __ __ __ __ __ __ __ __ __
 72
    65
 73
     2
 40
0.000003
 49
0.000002
 49
-0.000001
  0
LTYPE
  2
HIDDEN
 70
    64
  3
 _ _ _ _ _ _ _ _ _ _ _ _ _ _ _ _ _ _ _ _ _ _
 72
    65
 73
     2
 40
0.000001
 49
0.000001
 49
-0.000000
  0
LTYPE
  2
CENTER
 70
    64
  3
____ _ ____ _ ____ _ ____ _ ____ _ ____ _ ____
 72
    65
 73
     4
 40
0.000008
 49
0.000005
 49
-0.000001
 49
0.000001
 49
-0.000001
  0
LTYPE
  2
PHANTOM
 70
    64
  3
_____ _ _ _____ _ _ _____ _ _ _____ _ _ ____
 72
    65
 73
     6
 40
0.000010
 49
0.000005
 49
-0.000001
 49
0.000001
 49
-0.000001
 49
0.000001
 49
-0.000001
  0
LTYPE
  2
DOT
 70
    64
  3
...............................................
 72
    65
 73
     2
 40
0.000001
 49
0.000000
 49
-0.000001
  0
LTYPE
  2
DASHDOT
 70
    64
  3
__ . __ . __ . __ . __ . __ . __ . __ . __ . __
 72
    65
 73
     4
 40
0.000004
 49
0.000002
 49
-0.000001
 49
0.000000
 49
-0.000001
  0
LTYPE
  2
BORDER
 70
    64
  3
__ __ . __ __ . __ __ . __ __ . __ __ . __ __
 72
    65
 73
     6
 40
0.000007
 49
0.000002
 49
-0.000001
 49
0.000002
 49
-0.000001
 49
0.000000
 49
-0.000001
  0
LTYPE
  2
DIVIDE
 70
    64
  3
__ . . __ . . __ . . __ . . __ . . __ . . __
 72
    65
 73
     6
 40
0.000005
 49
0.000002
 49
-0.000001
 49
0.000000
 49
-0.000001
 49
0.000000
 49
-0.000001
  0
LTYPE
  2
DOTDOT
 70
    64
  3
 . .  . .  . .  . .  . .  . . 
 72
    65
 73
     5
 40
0.000002
 49
-0.000001
 49
0.000000
 49
-0.000001
 49
0.000000
 49
-0.000001
  0
ENDTAB
  0
TABLE
  2
STYLE
 70
     0
  0
ENDTAB
  0
TABLE
  2
LAYER
 70
     3
  0
LAYER
  2
FOREGROUND
 70
    64
 62
     7
  6
CONTINUOUS
  0
LAYER
  2
BACKGROUND
 70
    65
 62
    -7
  6
CONTINUOUS
  0
LAYER
  2
7
 70
    64
 62
     7
  6
CONTINUOUS
  0
ENDTAB
  0
ENDSEC
  0
SECTION
  2
ENTITIES
  0
POLYLINE
  8
7
 62
     7
  6
CONTINUOUS
 66
     1
 40
0.003000
 41
0.003000
  0
VERTEX
  8
7
 62
     7
  6
CONTINUOUS
 10
-1.666047
 20
0.030563
  0
VERTEX
  8
7
 62
     7
  6
CONTINUOUS
 10
-2.308571
 20
-0.009457
  0
VERTEX
  8
7
 62
     7
  6
CONTINUOUS
 10
-2.790287
 20
-0.089512
  0
VERTEX
  8
7
 62
     7
  6
CONTINUOUS
 10
-2.793087
 20
-0.092327
  0
VERTEX
  8
7
 62
     7
  6
CONTINUOUS
 10
-2.800827
 20
-0.099346
  0
VERTEX
  8
7
 62
     7
  6
CONTINUOUS
 10
-2.812764
 20
-0.110591
  0
VERTEX
  8
7
 62
     7
  6
CONTINUOUS
 10
-2.828197
 20
-0.124626
  0
VERTEX
  8
7
 62
     7
  6
CONTINUOUS
 10
-2.846457
 20
-0.141488
  0
VERTEX
  8
7
 62
     7
  6
CONTINUOUS
 10
-2.866827
 20
-0.159740
  0
VERTEX
  8
7
 62
     7
  6
CONTINUOUS
 10
-2.888598
 20
-0.180102
  0
VERTEX
  8
7
 62
     7
  6
CONTINUOUS
 10
-2.911063
 20
-0.200457
  0
VERTEX
  8
7
 62
     7
  6
CONTINUOUS
 10
-2.933535
 20
-0.221524
  0
VERTEX
  8
7
 62
     7
  6
CONTINUOUS
 10
-2.955299
 20
-0.241193
  0
VERTEX
  8
7
 62
     7
  6
CONTINUOUS
 10
-2.975669
 20
-0.260157
  0
VERTEX
  8
7
 62
     7
  6
CONTINUOUS
 10
-2.993929
 20
-0.277008
  0
VERTEX
  8
7
 62
     7
  6
CONTINUOUS
 10
-3.008669
 20
-0.291047
  0
VERTEX
  8
7
 62
     7
  6
CONTINUOUS
 10
-3.020606
 20
-0.301583
  0
VERTEX
  8
7
 62
     7
  6
CONTINUOUS
 10
-3.028327
 20
-0.308610
  0
VERTEX
  8
7
 62
     7
  6
CONTINUOUS
 10
-3.031142
 20
-0.311409
  0
VERTEX
  8
7
 62
     7
  6
CONTINUOUS
 10
-2.809945
 20
-0.958146
  0
VERTEX
  8
7
 62
     7
  6
CONTINUOUS
 10
-2.807843
 20
-0.963764
  0
VERTEX
  8
7
 62
     7
  6
CONTINUOUS
 10
-2.801520
 20
-0.978504
  0
VERTEX
  8
7
 62
     7
  6
CONTINUOUS
 10
-2.791693
 20
-1.000980
  0
VERTEX
  8
7
 62
     7
  6
CONTINUOUS
 10
-2.779047
 20
-1.031177
  0
VERTEX
  8
7
 62
     7
  6
CONTINUOUS
 10
-2.763606
 20
-1.066276
  0
VERTEX
  8
7
 62
     7
  6
CONTINUOUS
 10
-2.746752
 20
-1.105602
  0
VERTEX
  8
7
 62
     7
  6
CONTINUOUS
 10
-2.728492
 20
-1.147728
  0
VERTEX
  8
7
 62
     7
  6
CONTINUOUS
 10
-2.710232
 20
-1.190571
  0
VERTEX
  8
7
 62
     7
  6
CONTINUOUS
 10
-2.691272
 20
-1.234102
  0
VERTEX
  8
7
 62
     7
  6
CONTINUOUS
 10
-2.673024
 20
-1.276252
  0
VERTEX
  8
7
 62
     7
  6
CONTINUOUS
 10
-2.656154
 20
-1.314878
  0
VERTEX
  8
7
 62
     7
  6
CONTINUOUS
 10
-2.640717
 20
-1.349972
  0
VERTEX
  8
7
 62
     7
  6
CONTINUOUS
 10
-2.628075
 20
-1.379465
  0
VERTEX
  8
7
 62
     7
  6
CONTINUOUS
 10
-2.618236
 20
-1.402654
  0
VERTEX
  8
7
 62
     7
  6
CONTINUOUS
 10
-2.611220
 20
-1.417390
  0
VERTEX
  8
7
 62
     7
  6
CONTINUOUS
 10
-2.609122
 20
-1.422307
  0
VERTEX
  8
7
 62
     7
  6
CONTINUOUS
 10
-2.607713
 20
-1.427217
  0
VERTEX
  8
7
 62
     7
  6
CONTINUOUS
 10
-2.602094
 20
-1.441961
  0
VERTEX
  8
7
 62
     7
  6
CONTINUOUS
 10
-2.594390
 20
-1.463728
  0
VERTEX
  8
7
 62
     7
  6
CONTINUOUS
 10
-2.584539
 20
-1.491815
  0
VERTEX
  8
7
 62
     7
  6
CONTINUOUS
 10
-2.572606
 20
-1.525524
  0
VERTEX
  8
7
 62
     7
  6
CONTINUOUS
 10
-2.558555
 20
-1.563445
  0
VERTEX
  8
7
 62
     7
  6
CONTINUOUS
 10
-2.544520
 20
-1.603476
  0
VERTEX
  8
7
 62
     7
  6
CONTINUOUS
 10
-2.529063
 20
-1.644906
  0
VERTEX
  8
7
 62
     7
  6
CONTINUOUS
 10
-2.514319
 20
-1.686327
  0
VERTEX
  8
7
 62
     7
  6
CONTINUOUS
 10
-2.499575
 20
-1.726358
  0
VERTEX
  8
7
 62
     7
  6
CONTINUOUS
 10
-2.486232
 20
-1.764287
  0
VERTEX
  8
7
 62
     7
  6
CONTINUOUS
 10
-2.473583
 20
-1.797980
  0
VERTEX
  8
7
 62
     7
  6
CONTINUOUS
 10
-2.463760
 20
-1.826071
  0
VERTEX
  8
7
 62
     7
  6
CONTINUOUS
 10
-2.455339
 20
-1.847843
  0
VERTEX
  8
7
 62
     7
  6
CONTINUOUS
 10
-2.450413
 20
-1.861882
  0
VERTEX
  8
7
 62
     7
  6
CONTINUOUS
 10
-2.448319
 20
-1.866799
  0
VERTEX
  8
7
 62
     7
  6
CONTINUOUS
 10
-2.446205
 20
-1.871709
  0
VERTEX
  8
7
 62
     7
  6
CONTINUOUS
 10
-2.439878
 20
-1.885756
  0
VERTEX
  8
7
 62
     7
  6
CONTINUOUS
 10
-2.430055
 20
-1.908220
  0
VERTEX
  8
7
 62
     7
  6
CONTINUOUS
 10
-2.417417
 20
-1.936315
  0
VERTEX
  8
7
 62
     7
  6
CONTINUOUS
 10
-2.401969
 20
-1.970031
  0
VERTEX
  8
7
 62
     7
  6
CONTINUOUS
 10
-2.385118
 20
-2.007949
  0
VERTEX
  8
7
 62
     7
  6
CONTINUOUS
 10
-2.366850
 20
-2.047965
  0
VERTEX
  8
7
 62
     7
  6
CONTINUOUS
 10
-2.347886
 20
-2.089402
  0
VERTEX
  8
7
 62
     7
  6
CONTINUOUS
 10
-2.329646
 20
-2.130835
  0
VERTEX
  8
7
 62
     7
  6
CONTINUOUS
 10
-2.311378
 20
-2.170862
  0
VERTEX
  8
7
 62
     7
  6
CONTINUOUS
 10
-2.294524
 20
-2.208075
  0
VERTEX
  8
7
 62
     7
  6
CONTINUOUS
 10
-2.279071
 20
-2.241772
  0
VERTEX
  8
7
 62
     7
  6
CONTINUOUS
 10
-2.265732
 20
-2.270579
  0
VERTEX
  8
7
 62
     7
  6
CONTINUOUS
 10
-2.255902
 20
-2.292343
  0
VERTEX
  8
7
 62
     7
  6
CONTINUOUS
 10
-2.249587
 20
-2.306386
  0
VERTEX
  8
7
 62
     7
  6
CONTINUOUS
 10
-2.247488
 20
-2.311291
  0
VERTEX
  8
7
 62
     7
  6
CONTINUOUS
 10
-2.026984
 20
-2.816878
  0
SEQEND
  8
0
  0
POLYLINE
  8
7
 62
     7
  6
CONTINUOUS
 66
     1
 40
0.003000
 41
0.003000
  0
VERTEX
  8
7
 62
     7
  6
CONTINUOUS
 10
-0.550248
 20
1.621059
  0
VERTEX
  8
7
 62
     7
  6
CONTINUOUS
 10
-0.807965
 20
2.242516
  0
VERTEX
  8
7
 62
     7
  6
CONTINUOUS
 10
-1.345846
 20
2.163154
  0
VERTEX
  8
7
 62
     7
  6
CONTINUOUS
 10
-1.350768
 20
2.162457
  0
VERTEX
  8
7
 62
     7
  6
CONTINUOUS
 10
-1.364110
 20
2.161756
  0
VERTEX
  8
7
 62
     7
  6
CONTINUOUS
 10
-1.384472
 20
2.160343
  0
VERTEX
  8
7
 62
     7
  6
CONTINUOUS
 10
-1.411146
 20
2.158240
  0
VERTEX
  8
7
 62
     7
  6
CONTINUOUS
 10
-1.442760
 20
2.155445
  0
VERTEX
  8
7
 62
     7
  6
CONTINUOUS
 10
-1.477858
 20
2.152630
  0
VERTEX
  8
7
 62
     7
  6
CONTINUOUS
 10
-1.515776
 20
2.149114
  0
VERTEX
  8
7
 62
     7
  6
CONTINUOUS
 10
-1.554398
 20
2.146307
  0
VERTEX
  8
7
 62
     7
  6
CONTINUOUS
 10
-1.593028
 20
2.143496
  0
VERTEX
  8
7
 62
     7
  6
CONTINUOUS
 10
-1.630236
 20
2.139996
  0
VERTEX
  8
7
 62
     7
  6
CONTINUOUS
 10
-1.665350
 20
2.137181
  0
VERTEX
  8
7
 62
     7
  6
CONTINUOUS
 10
-1.696949
 20
2.135075
  0
VERTEX
  8
7
 62
     7
  6
CONTINUOUS
 10
-1.723634
 20
2.132268
  0
VERTEX
  8
7
 62
     7
  6
CONTINUOUS
 10
-1.744004
 20
2.130866
  0
VERTEX
  8
7
 62
     7
  6
CONTINUOUS
 10
-1.757343
 20
2.130157
  0
VERTEX
  8
7
 62
     7
  6
CONTINUOUS
 10
-1.761559
 20
2.129457
  0
VERTEX
  8
7
 62
     7
  6
CONTINUOUS
 10
-1.763657
 20
2.128764
  0
VERTEX
  8
7
 62
     7
  6
CONTINUOUS
 10
-1.768567
 20
2.127350
  0
VERTEX
  8
7
 62
     7
  6
CONTINUOUS
 10
-1.777701
 20
2.125244
  0
VERTEX
  8
7
 62
     7
  6
CONTINUOUS
 10
-1.788941
 20
2.122429
  0
VERTEX
  8
7
 62
     7
  6
CONTINUOUS
 10
-1.803685
 20
2.118909
  0
VERTEX
  8
7
 62
     7
  6
CONTINUOUS
 10
-1.821244
 20
2.114709
  0
VERTEX
  8
7
 62
     7
  6
CONTINUOUS
 10
-1.840197
 20
2.109787
  0
VERTEX
  8
7
 62
     7
  6
CONTINUOUS
 10
-1.861969
 20
2.104870
  0
VERTEX
  8
7
 62
     7
  6
CONTINUOUS
 10
-1.885142
 20
2.099256
  0
VERTEX
  8
7
 62
     7
  6
CONTINUOUS
 10
-1.910425
 20
2.092937
  0
VERTEX
  8
7
 62
     7
  6
CONTINUOUS
 10
-1.937106
 20
2.086614
  0
VERTEX
  8
7
 62
     7
  6
CONTINUOUS
 10
-1.964488
 20
2.079598
  0
VERTEX
  8
7
 62
     7
  6
CONTINUOUS
 10
-1.993283
 20
2.072583
  0
VERTEX
  8
7
 62
     7
  6
CONTINUOUS
 10
-2.022083
 20
2.064854
  0
VERTEX
  8
7
 62
     7
  6
CONTINUOUS
 10
-2.052268
 20
2.057835
  0
VERTEX
  8
7
 62
     7
  6
CONTINUOUS
 10
-2.081756
 20
2.050807
  0
VERTEX
  8
7
 62
     7
  6
CONTINUOUS
 10
-2.111957
 20
2.043091
  0
VERTEX
  8
7
 62
     7
  6
CONTINUOUS
 10
-2.141449
 20
2.036059
  0
VERTEX
  8
7
 62
     7
  6
CONTINUOUS
 10
-2.170933
 20
2.028327
  0
VERTEX
  8
7
 62
     7
  6
CONTINUOUS
 10
-2.199028
 20
2.021315
  0
VERTEX
  8
7
 62
     7
  6
CONTINUOUS
 10
-2.227126
 20
2.014299
  0
VERTEX
  8
7
 62
     7
  6
CONTINUOUS
 10
-2.253106
 20
2.007972
  0
VERTEX
  8
7
 62
     7
  6
CONTINUOUS
 10
-2.278378
 20
2.001650
  0
VERTEX
  8
7
 62
     7
  6
CONTINUOUS
 10
-2.301543
 20
1.996028
  0
VERTEX
  8
7
 62
     7
  6
CONTINUOUS
 10
-2.323307
 20
1.991130
  0
VERTEX
  8
7
 62
     7
  6
CONTINUOUS
 10
-2.342276
 20
1.986213
  0
VERTEX
  8
7
 62
     7
  6
CONTINUOUS
 10
-2.359839
 20
1.981988
  0
VERTEX
  8
7
 62
     7
  6
CONTINUOUS
 10
-2.373878
 20
1.978484
  0
VERTEX
  8
7
 62
     7
  6
CONTINUOUS
 10
-2.385815
 20
1.975677
  0
VERTEX
  8
7
 62
     7
  6
CONTINUOUS
 10
-2.394240
 20
1.973559
  0
VERTEX
  8
7
 62
     7
  6
CONTINUOUS
 10
-2.399154
 20
1.972161
  0
VERTEX
  8
7
 62
     7
  6
CONTINUOUS
 10
-2.401264
 20
1.971453
  0
VERTEX
  8
7
 62
     7
  6
CONTINUOUS
 10
-2.404776
 20
1.970764
  0
VERTEX
  8
7
 62
     7
  6
CONTINUOUS
 10
-2.415319
 20
1.970043
  0
VERTEX
  8
7
 62
     7
  6
CONTINUOUS
 10
-2.431453
 20
1.968650
  0
VERTEX
  8
7
 62
     7
  6
CONTINUOUS
 10
-2.452531
 20
1.966543
  0
VERTEX
  8
7
 62
     7
  6
CONTINUOUS
 10
-2.477102
 20
1.963728
  0
VERTEX
  8
7
 62
     7
  6
CONTINUOUS
 10
-2.505185
 20
1.960925
  0
VERTEX
  8
7
 62
     7
  6
CONTINUOUS
 10
-2.533980
 20
1.957413
  0
VERTEX
  8
7
 62
     7
  6
CONTINUOUS
 10
-2.564878
 20
1.954606
  0
VERTEX
  8
7
 62
     7
  6
CONTINUOUS
 10
-2.595067
 20
1.951795
  0
VERTEX
  8
7
 62
     7
  6
CONTINUOUS
 10
-2.624559
 20
1.948291
  0
VERTEX
  8
7
 62
     7
  6
CONTINUOUS
 10
-2.651957
 20
1.945480
  0
VERTEX
  8
7
 62
     7
  6
CONTINUOUS
 10
-2.676524
 20
1.943366
  0
VERTEX
  8
7
 62
     7
  6
CONTINUOUS
 10
-2.697587
 20
1.940559
  0
VERTEX
  8
7
 62
     7
  6
CONTINUOUS
 10
-2.713055
 20
1.939161
  0
VERTEX
  8
7
 62
     7
  6
CONTINUOUS
 10
-2.723571
 20
1.938449
  0
VERTEX
  8
7
 62
     7
  6
CONTINUOUS
 10
-2.727094
 20
1.937752
  0
VERTEX
  8
7
 62
     7
  6
CONTINUOUS
 10
-2.730598
 20
1.941256
  0
VERTEX
  8
7
 62
     7
  6
CONTINUOUS
 10
-2.740421
 20
1.951098
  0
VERTEX
  8
7
 62
     7
  6
CONTINUOUS
 10
-2.755169
 20
1.967248
  0
VERTEX
  8
7
 62
     7
  6
CONTINUOUS
 10
-2.774835
 20
1.986902
  0
VERTEX
  8
7
 62
     7
  6
CONTINUOUS
 10
-2.797315
 20
2.010776
  0
VERTEX
  8
7
 62
     7
  6
CONTINUOUS
 10
-2.823287
 20
2.037469
  0
VERTEX
  8
7
 62
     7
  6
CONTINUOUS
 10
-2.850677
 20
2.066256
  0
VERTEX
  8
7
 62
     7
  6
CONTINUOUS
 10
-2.878760
 20
2.095740
  0
VERTEX
  8
7
 62
     7
  6
CONTINUOUS
 10
-2.906862
 20
2.125244
  0
VERTEX
  8
7
 62
     7
  6
CONTINUOUS
 10
-2.934240
 20
2.154028
  0
VERTEX
  8
7
 62
     7
  6
CONTINUOUS
 10
-2.959524
 20
2.180713
  0
VERTEX
  8
7
 62
     7
  6
CONTINUOUS
 10
-2.982681
 20
2.204594
  0
VERTEX
  8
7
 62
     7
  6
CONTINUOUS
 10
-3.001654
 20
2.224260
  0
VERTEX
  8
7
 62
     7
  6
CONTINUOUS
 10
-3.017098
 20
2.240402
  0
VERTEX
  8
7
 62
     7
  6
CONTINUOUS
 10
-3.026224
 20
2.250244
  0
VERTEX
  8
7
 62
     7
  6
CONTINUOUS
 10
-3.029732
 20
2.253736
  0
VERTEX
  8
7
 62
     7
  6
CONTINUOUS
 10
-3.018504
 20
2.558500
  0
VERTEX
  8
7
 62
     7
  6
CONTINUOUS
 10
-3.015689
 20
2.556402
  0
VERTEX
  8
7
 62
     7
  6
CONTINUOUS
 10
-3.007965
 20
2.551480
  0
VERTEX
  8
7
 62
     7
  6
CONTINUOUS
 10
-2.996736
 20
2.544465
  0
VERTEX
  8
7
 62
     7
  6
CONTINUOUS
 10
-2.981287
 20
2.534630
  0
VERTEX
  8
7
 62
     7
  6
CONTINUOUS
 10
-2.963024
 20
2.523398
  0
VERTEX
  8
7
 62
     7
  6
CONTINUOUS
 10
-2.942665
 20
2.511445
  0
VERTEX
  8
7
 62
     7
  6
CONTINUOUS
 10
-2.920189
 20
2.498807
  0
VERTEX
  8
7
 62
     7
  6
CONTINUOUS
 10
-2.897724
 20
2.486177
  0
VERTEX
  8
7
 62
     7
  6
CONTINUOUS
 10
-2.875248
 20
2.474244
  0
VERTEX
  8
7
 62
     7
  6
CONTINUOUS
 10
-2.852783
 20
2.464406
  0
VERTEX
  8
7
 62
     7
  6
CONTINUOUS
 10
-2.831709
 20
2.455272
  0
VERTEX
  8
7
 62
     7
  6
CONTINUOUS
 10
-2.812764
 20
2.449657
  0
VERTEX
  8
7
 62
     7
  6
CONTINUOUS
 10
-2.795902
 20
2.446150
  0
VERTEX
  8
7
 62
     7
  6
CONTINUOUS
 10
-2.783256
 20
2.446846
  0
VERTEX
  8
7
 62
     7
  6
CONTINUOUS
 10
-2.773433
 20
2.451067
  0
VERTEX
  8
7
 62
     7
  6
CONTINUOUS
 10
-2.769232
 20
2.460189
  0
SEQEND
  8
0
  0
POLYLINE
  8
7
 62
     7
  6
CONTINUOUS
 66
     1
 40
0.003000
 41
0.003000
  0
VERTEX
  8
7
 62
     7
  6
CONTINUOUS
 10
-2.769232
 20
2.460189
  0
VERTEX
  8
7
 62
     7
  6
CONTINUOUS
 10
-1.189945
 20
2.998791
  0
VERTEX
  8
7
 62
     7
  6
CONTINUOUS
 10
-0.887307
 20
3.156787
  0
VERTEX
  8
7
 62
     7
  6
CONTINUOUS
 10
-0.685075
 20
3.201728
  0
VERTEX
  8
7
 62
     7
  6
CONTINUOUS
 10
-0.449134
 20
2.806382
  0
VERTEX
  8
7
 62
     7
  6
CONTINUOUS
 10
-0.325539
 20
2.468606
  0
SEQEND
  8
0
  0
POLYLINE
  8
7
 62
     7
  6
CONTINUOUS
 66
     1
 40
0.003000
 41
0.003000
  0
VERTEX
  8
7
 62
     7
  6
CONTINUOUS
 10
-0.807965
 20
2.242516
  0
VERTEX
  8
7
 62
     7
  6
CONTINUOUS
 10
-0.920307
 20
2.524098
  0
VERTEX
  8
7
 62
     7
  6
CONTINUOUS
 10
-1.244728
 20
2.434205
  0
VERTEX
  8
7
 62
     7
  6
CONTINUOUS
 10
-1.246122
 20
2.434205
  0
VERTEX
  8
7
 62
     7
  6
CONTINUOUS
 10
-1.250346
 20
2.433504
  0
VERTEX
  8
7
 62
     7
  6
CONTINUOUS
 10
-1.257358
 20
2.432811
  0
VERTEX
  8
7
 62
     7
  6
CONTINUOUS
 10
-1.267193
 20
2.431398
  0
VERTEX
  8
7
 62
     7
  6
CONTINUOUS
 10
-1.278441
 20
2.429984
  0
VERTEX
  8
7
 62
     7
  6
CONTINUOUS
 10
-1.292480
 20
2.427890
  0
VERTEX
  8
7
 62
     7
  6
CONTINUOUS
 10
-1.307933
 20
2.425783
  0
VERTEX
  8
7
 62
     7
  6
CONTINUOUS
 10
-1.325488
 20
2.423669
  0
VERTEX
  8
7
 62
     7
  6
CONTINUOUS
 10
-1.344437
 20
2.420870
  0
VERTEX
  8
7
 62
     7
  6
CONTINUOUS
 10
-1.364799
 20
2.418756
  0
VERTEX
  8
7
 62
     7
  6
CONTINUOUS
 10
-1.385870
 20
2.415252
  0
VERTEX
  8
7
 62
     7
  6
CONTINUOUS
 10
-1.408339
 20
2.412441
  0
VERTEX
  8
7
 62
     7
  6
CONTINUOUS
 10
-1.431508
 20
2.409634
  0
VERTEX
  8
7
 62
     7
  6
CONTINUOUS
 10
-1.455382
 20
2.406815
  0
VERTEX
  8
7
 62
     7
  6
CONTINUOUS
 10
-1.479264
 20
2.403311
  0
VERTEX
  8
7
 62
     7
  6
CONTINUOUS
 10
-1.503142
 20
2.400512
  0
VERTEX
  8
7
 62
     7
  6
CONTINUOUS
 10
-1.527717
 20
2.396992
  0
VERTEX
  8
7
 62
     7
  6
CONTINUOUS
 10
-1.551594
 20
2.393484
  0
VERTEX
  8
7
 62
     7
  6
CONTINUOUS
 10
-1.575472
 20
2.390681
  0
VERTEX
  8
7
 62
     7
  6
CONTINUOUS
 10
-1.598646
 20
2.387870
  0
VERTEX
  8
7
 62
     7
  6
CONTINUOUS
 10
-1.620409
 20
2.385059
  0
VERTEX
  8
7
 62
     7
  6
CONTINUOUS
 10
-1.642177
 20
2.381547
  0
VERTEX
  8
7
 62
     7
  6
CONTINUOUS
 10
-1.662531
 20
2.379429
  0
VERTEX
  8
7
 62
     7
  6
CONTINUOUS
 10
-1.680799
 20
2.376634
  0
VERTEX
  8
7
 62
     7
  6
CONTINUOUS
 10
-1.698346
 20
2.374520
  0
VERTEX
  8
7
 62
     7
  6
CONTINUOUS
 10
-1.713803
 20
2.372421
  0
VERTEX
  8
7
 62
     7
  6
CONTINUOUS
 10
-1.727850
 20
2.370311
  0
VERTEX
  8
7
 62
     7
  6
CONTINUOUS
 10
-1.739787
 20
2.368902
  0
VERTEX
  8
7
 62
     7
  6
CONTINUOUS
 10
-1.748906
 20
2.367508
  0
VERTEX
  8
7
 62
     7
  6
CONTINUOUS
 10
-1.755921
 20
2.366795
  0
VERTEX
  8
7
 62
     7
  6
CONTINUOUS
 10
-1.760138
 20
2.366094
  0
VERTEX
  8
7
 62
     7
  6
CONTINUOUS
 10
-1.761559
 20
2.366094
  0
VERTEX
  8
7
 62
     7
  6
CONTINUOUS
 10
-1.765063
 20
2.365398
  0
VERTEX
  8
7
 62
     7
  6
CONTINUOUS
 10
-1.774890
 20
2.363980
  0
VERTEX
  8
7
 62
     7
  6
CONTINUOUS
 10
-1.789638
 20
2.361882
  0
VERTEX
  8
7
 62
     7
  6
CONTINUOUS
 10
-1.809303
 20
2.359083
  0
VERTEX
  8
7
 62
     7
  6
CONTINUOUS
 10
-1.832476
 20
2.355563
  0
VERTEX
  8
7
 62
     7
  6
CONTINUOUS
 10
-1.857760
 20
2.352059
  0
VERTEX
  8
7
 62
     7
  6
CONTINUOUS
 10
-1.885142
 20
2.347835
  0
VERTEX
  8
7
 62
     7
  6
CONTINUOUS
 10
-1.913232
 20
2.343630
  0
VERTEX
  8
7
 62
     7
  6
CONTINUOUS
 10
-1.941319
 20
2.339413
  0
VERTEX
  8
7
 62
     7
  6
CONTINUOUS
 10
-1.968709
 20
2.335213
  0
VERTEX
  8
7
 62
     7
  6
CONTINUOUS
 10
-1.994681
 20
2.331677
  0
VERTEX
  8
7
 62
     7
  6
CONTINUOUS
 10
-2.017161
 20
2.328185
  0
VERTEX
  8
7
 62
     7
  6
CONTINUOUS
 10
-2.036815
 20
2.325358
  0
VERTEX
  8
7
 62
     7
  6
CONTINUOUS
 10
-2.051567
 20
2.323264
  0
VERTEX
  8
7
 62
     7
  6
CONTINUOUS
 10
-2.060701
 20
2.321858
  0
VERTEX
  8
7
 62
     7
  6
CONTINUOUS
 10
-2.064205
 20
2.321161
  0
VERTEX
  8
7
 62
     7
  6
CONTINUOUS
 10
-2.068421
 20
2.320461
  0
VERTEX
  8
7
 62
     7
  6
CONTINUOUS
 10
-2.080358
 20
2.317646
  0
VERTEX
  8
7
 62
     7
  6
CONTINUOUS
 10
-2.098606
 20
2.314130
  0
VERTEX
  8
7
 62
     7
  6
CONTINUOUS
 10
-2.122484
 20
2.309220
  0
VERTEX
  8
7
 62
     7
  6
CONTINUOUS
 10
-2.150579
 20
2.302894
  0
VERTEX
  8
7
 62
     7
  6
CONTINUOUS
 10
-2.182173
 20
2.296575
  0
VERTEX
  8
7
 62
     7
  6
CONTINUOUS
 10
-2.215173
 20
2.288858
  0
VERTEX
  8
7
 62
     7
  6
CONTINUOUS
 10
-2.250287
 20
2.281831
  0
VERTEX
  8
7
 62
     7
  6
CONTINUOUS
 10
-2.284689
 20
2.274823
  0
VERTEX
  8
7
 62
     7
  6
CONTINUOUS
 10
-2.318398
 20
2.267083
  0
VERTEX
  8
7
 62
     7
  6
CONTINUOUS
 10
-2.349303
 20
2.260776
  0
VERTEX
  8
7
 62
     7
  6
CONTINUOUS
 10
-2.377394
 20
2.255154
  0
VERTEX
  8
7
 62
     7
  6
CONTINUOUS
 10
-2.401264
 20
2.249520
  0
VERTEX
  8
7
 62
     7
  6
CONTINUOUS
 10
-2.419516
 20
2.246024
  0
VERTEX
  8
7
 62
     7
  6
CONTINUOUS
 10
-2.430752
 20
2.243213
  0
VERTEX
  8
7
 62
     7
  6
CONTINUOUS
 10
-2.434976
 20
2.242516
  0
SEQEND
  8
0
  0
POLYLINE
  8
7
 62
     7
  6
CONTINUOUS
 66
     1
 40
0.003000
 41
0.003000
  0
VERTEX
  8
7
 62
     7
  6
CONTINUOUS
 10
-0.550248
 20
1.621059
  0
VERTEX
  8
7
 62
     7
  6
CONTINUOUS
 10
-0.325539
 20
2.468606
  0
VERTEX
  8
7
 62
     7
  6
CONTINUOUS
 10
-0.235657
 20
2.964370
  0
VERTEX
  8
7
 62
     7
  6
CONTINUOUS
 10
-0.280594
 20
3.743827
  0
VERTEX
  8
7
 62
     7
  6
CONTINUOUS
 10
1.189815
 20
3.562654
  0
VERTEX
  8
7
 62
     7
  6
CONTINUOUS
 10
2.323886
 20
2.705280
  0
VERTEX
  8
7
 62
     7
  6
CONTINUOUS
 10
1.774063
 20
2.095740
  0
SEQEND
  8
0
  0
POLYLINE
  8
7
 62
     7
  6
CONTINUOUS
 66
     1
 40
0.003000
 41
0.003000
  0
VERTEX
  8
7
 62
     7
  6
CONTINUOUS
 10
-0.460362
 20
1.971453
  0
VERTEX
  8
7
 62
     7
  6
CONTINUOUS
 10
0.168118
 20
1.814165
  0
VERTEX
  8
7
 62
     7
  6
CONTINUOUS
 10
0.516402
 20
1.735528
  0
VERTEX
  8
7
 62
     7
  6
CONTINUOUS
 10
0.520610
 20
1.733409
  0
VERTEX
  8
7
 62
     7
  6
CONTINUOUS
 10
0.533252
 20
1.728496
  0
VERTEX
  8
7
 62
     7
  6
CONTINUOUS
 10
0.552929
 20
1.720768
  0
VERTEX
  8
7
 62
     7
  6
CONTINUOUS
 10
0.578197
 20
1.710236
  0
VERTEX
  8
7
 62
     7
  6
CONTINUOUS
 10
0.607697
 20
1.698299
  0
VERTEX
  8
7
 62
     7
  6
CONTINUOUS
 10
0.640697
 20
1.684957
  0
VERTEX
  8
7
 62
     7
  6
CONTINUOUS
 10
0.676500
 20
1.670933
  0
VERTEX
  8
7
 62
     7
  6
CONTINUOUS
 10
0.713020
 20
1.656181
  0
VERTEX
  8
7
 62
     7
  6
CONTINUOUS
 10
0.749543
 20
1.641429
  0
VERTEX
  8
7
 62
     7
  6
CONTINUOUS
 10
0.785350
 20
1.626665
  0
VERTEX
  8
7
 62
     7
  6
CONTINUOUS
 10
0.818350
 20
1.613327
  0
VERTEX
  8
7
 62
     7
  6
CONTINUOUS
 10
0.848551
 20
1.601398
  0
VERTEX
  8
7
 62
     7
  6
CONTINUOUS
 10
0.873118
 20
1.591563
  0
VERTEX
  8
7
 62
     7
  6
CONTINUOUS
 10
0.892787
 20
1.583843
  0
VERTEX
  8
7
 62
     7
  6
CONTINUOUS
 10
0.905429
 20
1.578929
  0
VERTEX
  8
7
 62
     7
  6
CONTINUOUS
 10
0.909634
 20
1.576815
  0
SEQEND
  8
0
  0
POLYLINE
  8
7
 62
     7
  6
CONTINUOUS
 66
     1
 40
0.003000
 41
0.003000
  0
VERTEX
  8
7
 62
     7
  6
CONTINUOUS
 10
1.082374
 20
1.059992
  0
VERTEX
  8
7
 62
     7
  6
CONTINUOUS
 10
1.299366
 20
1.408980
  0
VERTEX
  8
7
 62
     7
  6
CONTINUOUS
 10
1.029724
 20
1.430768
  0
VERTEX
  8
7
 62
     7
  6
CONTINUOUS
 10
1.011472
 20
1.432169
  0
VERTEX
  8
7
 62
     7
  6
CONTINUOUS
 10
0.995311
 20
1.434264
  0
VERTEX
  8
7
 62
     7
  6
CONTINUOUS
 10
0.979858
 20
1.436374
  0
VERTEX
  8
7
 62
     7
  6
CONTINUOUS
 10
0.966520
 20
1.439890
  0
VERTEX
  8
7
 62
     7
  6
CONTINUOUS
 10
0.955283
 20
1.443402
  0
VERTEX
  8
7
 62
     7
  6
CONTINUOUS
 10
0.944752
 20
1.448311
  0
VERTEX
  8
7
 62
     7
  6
CONTINUOUS
 10
0.935618
 20
1.453909
  0
VERTEX
  8
7
 62
     7
  6
CONTINUOUS
 10
0.927902
 20
1.460965
  0
VERTEX
  8
7
 62
     7
  6
CONTINUOUS
 10
0.921579
 20
1.469382
  0
VERTEX
  8
7
 62
     7
  6
CONTINUOUS
 10
0.916665
 20
1.479217
  0
VERTEX
  8
7
 62
     7
  6
CONTINUOUS
 10
0.912453
 20
1.490449
  0
VERTEX
  8
7
 62
     7
  6
CONTINUOUS
 10
0.909634
 20
1.503787
  0
VERTEX
  8
7
 62
     7
  6
CONTINUOUS
 10
0.908240
 20
1.519240
  0
VERTEX
  8
7
 62
     7
  6
CONTINUOUS
 10
0.907528
 20
1.536083
  0
VERTEX
  8
7
 62
     7
  6
CONTINUOUS
 10
0.908240
 20
1.555055
  0
VERTEX
  8
7
 62
     7
  6
CONTINUOUS
 10
0.909634
 20
1.576815
  0
VERTEX
  8
7
 62
     7
  6
CONTINUOUS
 10
0.912453
 20
1.604906
  0
VERTEX
  8
7
 62
     7
  6
CONTINUOUS
 10
0.912453
 20
1.601398
  0
VERTEX
  8
7
 62
     7
  6
CONTINUOUS
 10
0.911744
 20
1.585953
  0
VERTEX
  8
7
 62
     7
  6
CONTINUOUS
 10
0.911744
 20
1.576815
  0
VERTEX
  8
7
 62
     7
  6
CONTINUOUS
 10
0.920886
 20
1.588744
  0
VERTEX
  8
7
 62
     7
  6
CONTINUOUS
 10
0.927902
 20
1.604209
  0
VERTEX
  8
7
 62
     7
  6
CONTINUOUS
 10
0.933524
 20
1.623169
  0
VERTEX
  8
7
 62
     7
  6
CONTINUOUS
 10
0.938429
 20
1.644224
  0
VERTEX
  8
7
 62
     7
  6
CONTINUOUS
 10
0.942646
 20
1.668098
  0
VERTEX
  8
7
 62
     7
  6
CONTINUOUS
 10
0.946866
 20
1.692681
  0
VERTEX
  8
7
 62
     7
  6
CONTINUOUS
 10
0.951067
 20
1.718661
  0
VERTEX
  8
7
 62
     7
  6
CONTINUOUS
 10
0.955283
 20
1.746035
  0
VERTEX
  8
7
 62
     7
  6
CONTINUOUS
 10
0.960898
 20
1.772740
  0
VERTEX
  8
7
 62
     7
  6
CONTINUOUS
 10
0.967933
 20
1.798713
  0
VERTEX
  8
7
 62
     7
  6
CONTINUOUS
 10
0.975646
 20
1.824697
  0
VERTEX
  8
7
 62
     7
  6
CONTINUOUS
 10
0.985469
 20
1.848571
  0
VERTEX
  8
7
 62
     7
  6
CONTINUOUS
 10
0.998118
 20
1.871051
  0
VERTEX
  8
7
 62
     7
  6
CONTINUOUS
 10
1.012862
 20
1.890709
  0
VERTEX
  8
7
 62
     7
  6
CONTINUOUS
 10
1.030413
 20
1.907563
  0
VERTEX
  8
7
 62
     7
  6
CONTINUOUS
 10
1.051488
 20
1.920902
  0
VERTEX
  8
7
 62
     7
  6
CONTINUOUS
 10
1.072547
 20
1.933539
  0
VERTEX
  8
7
 62
     7
  6
CONTINUOUS
 10
1.090811
 20
1.946882
  0
VERTEX
  8
7
 62
     7
  6
CONTINUOUS
 10
1.106256
 20
1.961626
  0
VERTEX
  8
7
 62
     7
  6
CONTINUOUS
 10
1.119598
 20
1.977776
  0
VERTEX
  8
7
 62
     7
  6
CONTINUOUS
 10
1.130138
 20
1.993933
  0
VERTEX
  8
7
 62
     7
  6
CONTINUOUS
 10
1.138567
 20
2.010079
  0
VERTEX
  8
7
 62
     7
  6
CONTINUOUS
 10
1.145583
 20
2.026224
  0
VERTEX
  8
7
 62
     7
  6
CONTINUOUS
 10
1.150492
 20
2.042390
  0
VERTEX
  8
7
 62
     7
  6
CONTINUOUS
 10
1.154012
 20
2.057130
  0
VERTEX
  8
7
 62
     7
  6
CONTINUOUS
 10
1.156819
 20
2.071165
  0
VERTEX
  8
7
 62
     7
  6
CONTINUOUS
 10
1.158228
 20
2.083807
  0
VERTEX
  8
7
 62
     7
  6
CONTINUOUS
 10
1.158925
 20
2.095055
  0
VERTEX
  8
7
 62
     7
  6
CONTINUOUS
 10
1.158925
 20
2.104173
  0
VERTEX
  8
7
 62
     7
  6
CONTINUOUS
 10
1.158925
 20
2.111197
  0
VERTEX
  8
7
 62
     7
  6
CONTINUOUS
 10
1.158228
 20
2.115406
  0
VERTEX
  8
7
 62
     7
  6
CONTINUOUS
 10
1.158228
 20
2.116811
  0
VERTEX
  8
7
 62
     7
  6
CONTINUOUS
 10
1.462272
 20
2.138575
  0
VERTEX
  8
7
 62
     7
  6
CONTINUOUS
 10
1.774063
 20
2.095740
  0
VERTEX
  8
7
 62
     7
  6
CONTINUOUS
 10
2.198894
 20
2.116811
  0
VERTEX
  8
7
 62
     7
  6
CONTINUOUS
 10
2.469937
 20
2.095055
  0
VERTEX
  8
7
 62
     7
  6
CONTINUOUS
 10
2.557016
 20
1.724988
  0
VERTEX
  8
7
 62
     7
  6
CONTINUOUS
 10
2.708693
 20
1.419524
  0
VERTEX
  8
7
 62
     7
  6
CONTINUOUS
 10
2.828063
 20
1.028394
  0
VERTEX
  8
7
 62
     7
  6
CONTINUOUS
 10
2.830169
 20
1.019276
  0
VERTEX
  8
7
 62
     7
  6
CONTINUOUS
 10
2.835791
 20
0.993976
  0
VERTEX
  8
7
 62
     7
  6
CONTINUOUS
 10
2.844209
 20
0.954661
  0
VERTEX
  8
7
 62
     7
  6
CONTINUOUS
 10
2.855449
 20
0.904098
  0
VERTEX
  8
7
 62
     7
  6
CONTINUOUS
 10
2.868098
 20
0.843724
  0
VERTEX
  8
7
 62
     7
  6
CONTINUOUS
 10
2.882843
 20
0.776307
  0
VERTEX
  8
7
 62
     7
  6
CONTINUOUS
 10
2.898291
 20
0.704677
  0
VERTEX
  8
7
 62
     7
  6
CONTINUOUS
 10
2.915138
 20
0.630248
  0
VERTEX
  8
7
 62
     7
  6
CONTINUOUS
 10
2.931303
 20
0.556508
  0
VERTEX
  8
7
 62
     7
  6
CONTINUOUS
 10
2.946736
 20
0.484193
  0
VERTEX
  8
7
 62
     7
  6
CONTINUOUS
 10
2.961484
 20
0.417476
  0
VERTEX
  8
7
 62
     7
  6
CONTINUOUS
 10
2.974130
 20
0.357098
  0
VERTEX
  8
7
 62
     7
  6
CONTINUOUS
 10
2.985358
 20
0.305827
  0
VERTEX
  8
7
 62
     7
  6
CONTINUOUS
 10
2.993783
 20
0.267205
  0
VERTEX
  8
7
 62
     7
  6
CONTINUOUS
 10
2.999409
 20
0.241925
  0
VERTEX
  8
7
 62
     7
  6
CONTINUOUS
 10
3.001508
 20
0.232791
  0
VERTEX
  8
7
 62
     7
  6
CONTINUOUS
 10
3.272575
 20
0.156961
  0
VERTEX
  8
7
 62
     7
  6
CONTINUOUS
 10
3.274669
 20
0.152035
  0
VERTEX
  8
7
 62
     7
  6
CONTINUOUS
 10
3.280283
 20
0.138697
  0
VERTEX
  8
7
 62
     7
  6
CONTINUOUS
 10
3.288717
 20
0.117634
  0
VERTEX
  8
7
 62
     7
  6
CONTINUOUS
 10
3.299953
 20
0.090252
  0
VERTEX
  8
7
 62
     7
  6
CONTINUOUS
 10
3.312591
 20
0.057949
  0
VERTEX
  8
7
 62
     7
  6
CONTINUOUS
 10
3.327335
 20
0.022126
  0
VERTEX
  8
7
 62
     7
  6
CONTINUOUS
 10
3.342791
 20
-0.016476
  0
VERTEX
  8
7
 62
     7
  6
CONTINUOUS
 10
3.359634
 20
-0.055811
  0
VERTEX
  8
7
 62
     7
  6
CONTINUOUS
 10
3.375776
 20
-0.095839
  0
VERTEX
  8
7
 62
     7
  6
CONTINUOUS
 10
3.391244
 20
-0.133760
  0
VERTEX
  8
7
 62
     7
  6
CONTINUOUS
 10
3.405972
 20
-0.169567
  0
VERTEX
  8
7
 62
     7
  6
CONTINUOUS
 10
3.418626
 20
-0.201866
  0
VERTEX
  8
7
 62
     7
  6
CONTINUOUS
 10
3.429854
 20
-0.229264
  0
VERTEX
  8
7
 62
     7
  6
CONTINUOUS
 10
3.438287
 20
-0.249626
  0
VERTEX
  8
7
 62
     7
  6
CONTINUOUS
 10
3.443902
 20
-0.262961
  0
VERTEX
  8
7
 62
     7
  6
CONTINUOUS
 10
3.446012
 20
-0.267870
  0
VERTEX
  8
7
 62
     7
  6
CONTINUOUS
 10
3.443201
 20
-0.268575
  0
VERTEX
  8
7
 62
     7
  6
CONTINUOUS
 10
3.434768
 20
-0.271382
  0
VERTEX
  8
7
 62
     7
  6
CONTINUOUS
 10
3.422138
 20
-0.275606
  0
VERTEX
  8
7
 62
     7
  6
CONTINUOUS
 10
3.405280
 20
-0.280520
  0
VERTEX
  8
7
 62
     7
  6
CONTINUOUS
 10
3.385626
 20
-0.286126
  0
VERTEX
  8
7
 62
     7
  6
CONTINUOUS
 10
3.363850
 20
-0.292449
  0
VERTEX
  8
7
 62
     7
  6
CONTINUOUS
 10
3.339972
 20
-0.299472
  0
VERTEX
  8
7
 62
     7
  6
CONTINUOUS
 10
3.316102
 20
-0.306500
  0
VERTEX
  8
7
 62
     7
  6
CONTINUOUS
 10
3.291520
 20
-0.313528
  0
VERTEX
  8
7
 62
     7
  6
CONTINUOUS
 10
3.267654
 20
-0.320535
  0
VERTEX
  8
7
 62
     7
  6
CONTINUOUS
 10
3.245882
 20
-0.326854
  0
VERTEX
  8
7
 62
     7
  6
CONTINUOUS
 10
3.226228
 20
-0.333173
  0
VERTEX
  8
7
 62
     7
  6
CONTINUOUS
 10
3.209378
 20
-0.337402
  0
VERTEX
  8
7
 62
     7
  6
CONTINUOUS
 10
3.196724
 20
-0.341606
  0
VERTEX
  8
7
 62
     7
  6
CONTINUOUS
 10
3.188303
 20
-0.343713
  0
VERTEX
  8
7
 62
     7
  6
CONTINUOUS
 10
3.185488
 20
-0.344413
  0
VERTEX
  8
7
 62
     7
  6
CONTINUOUS
 10
3.183382
 20
-0.345839
  0
VERTEX
  8
7
 62
     7
  6
CONTINUOUS
 10
3.177768
 20
-0.348634
  0
VERTEX
  8
7
 62
     7
  6
CONTINUOUS
 10
3.168642
 20
-0.352839
  0
VERTEX
  8
7
 62
     7
  6
CONTINUOUS
 10
3.156705
 20
-0.358461
  0
VERTEX
  8
7
 62
     7
  6
CONTINUOUS
 10
3.142654
 20
-0.364776
  0
VERTEX
  8
7
 62
     7
  6
CONTINUOUS
 10
3.127205
 20
-0.372512
  0
VERTEX
  8
7
 62
     7
  6
CONTINUOUS
 10
3.110366
 20
-0.380224
  0
VERTEX
  8
7
 62
     7
  6
CONTINUOUS
 10
3.093508
 20
-0.388650
  0
VERTEX
  8
7
 62
     7
  6
CONTINUOUS
 10
3.076646
 20
-0.396390
  0
VERTEX
  8
7
 62
     7
  6
CONTINUOUS
 10
3.059799
 20
-0.404106
  0
VERTEX
  8
7
 62
     7
  6
CONTINUOUS
 10
3.044350
 20
-0.411827
  0
VERTEX
  8
7
 62
     7
  6
CONTINUOUS
 10
3.030303
 20
-0.418150
  0
VERTEX
  8
7
 62
     7
  6
CONTINUOUS
 10
3.018366
 20
-0.423764
  0
VERTEX
  8
7
 62
     7
  6
CONTINUOUS
 10
3.009240
 20
-0.427980
  0
VERTEX
  8
7
 62
     7
  6
CONTINUOUS
 10
3.003622
 20
-0.430791
  0
VERTEX
  8
7
 62
     7
  6
CONTINUOUS
 10
3.001508
 20
-0.431488
  0
VERTEX
  8
7
 62
     7
  6
CONTINUOUS
 10
2.999409
 20
-0.428681
  0
VERTEX
  8
7
 62
     7
  6
CONTINUOUS
 10
2.993783
 20
-0.421665
  0
VERTEX
  8
7
 62
     7
  6
CONTINUOUS
 10
2.985358
 20
-0.409728
  0
VERTEX
  8
7
 62
     7
  6
CONTINUOUS
 10
2.974130
 20
-0.394276
  0
VERTEX
  8
7
 62
     7
  6
CONTINUOUS
 10
2.961484
 20
-0.376717
  0
VERTEX
  8
7
 62
     7
  6
CONTINUOUS
 10
2.946736
 20
-0.356350
  0
VERTEX
  8
7
 62
     7
  6
CONTINUOUS
 10
2.931303
 20
-0.334587
  0
VERTEX
  8
7
 62
     7
  6
CONTINUOUS
 10
2.915138
 20
-0.312114
  0
VERTEX
  8
7
 62
     7
  6
CONTINUOUS
 10
2.898291
 20
-0.289654
  0
VERTEX
  8
7
 62
     7
  6
CONTINUOUS
 10
2.882843
 20
-0.268575
  0
VERTEX
  8
7
 62
     7
  6
CONTINUOUS
 10
2.868098
 20
-0.248213
  0
VERTEX
  8
7
 62
     7
  6
CONTINUOUS
 10
2.855449
 20
-0.229961
  0
VERTEX
  8
7
 62
     7
  6
CONTINUOUS
 10
2.844209
 20
-0.214508
  0
VERTEX
  8
7
 62
     7
  6
CONTINUOUS
 10
2.835791
 20
-0.202575
  0
VERTEX
  8
7
 62
     7
  6
CONTINUOUS
 10
2.830169
 20
-0.194843
  0
VERTEX
  8
7
 62
     7
  6
CONTINUOUS
 10
2.828063
 20
-0.192035
  0
VERTEX
  8
7
 62
     7
  6
CONTINUOUS
 10
2.824563
 20
-0.187122
  0
VERTEX
  8
7
 62
     7
  6
CONTINUOUS
 10
2.814024
 20
-0.172378
  0
VERTEX
  8
7
 62
     7
  6
CONTINUOUS
 10
2.797874
 20
-0.149909
  0
VERTEX
  8
7
 62
     7
  6
CONTINUOUS
 10
2.777512
 20
-0.121110
  0
VERTEX
  8
7
 62
     7
  6
CONTINUOUS
 10
2.752929
 20
-0.086008
  0
VERTEX
  8
7
 62
     7
  6
CONTINUOUS
 10
2.725543
 20
-0.047378
  0
VERTEX
  8
7
 62
     7
  6
CONTINUOUS
 10
2.696047
 20
-0.006657
  0
VERTEX
  8
7
 62
     7
  6
CONTINUOUS
 10
2.665858
 20
0.036185
  0
VERTEX
  8
7
 62
     7
  6
CONTINUOUS
 10
2.634953
 20
0.079008
  0
VERTEX
  8
7
 62
     7
  6
CONTINUOUS
 10
2.605469
 20
0.120437
  0
VERTEX
  8
7
 62
     7
  6
CONTINUOUS
 10
2.578083
 20
0.159059
  0
VERTEX
  8
7
 62
     7
  6
CONTINUOUS
 10
2.553504
 20
0.194169
  0
VERTEX
  8
7
 62
     7
  6
CONTINUOUS
 10
2.533150
 20
0.222969
  0
VERTEX
  8
7
 62
     7
  6
CONTINUOUS
 10
2.516996
 20
0.246146
  0
VERTEX
  8
7
 62
     7
  6
CONTINUOUS
 10
2.506441
 20
0.260882
  0
VERTEX
  8
7
 62
     7
  6
CONTINUOUS
 10
2.502953
 20
0.265803
  0
VERTEX
  8
7
 62
     7
  6
CONTINUOUS
 10
2.499425
 20
0.270717
  0
VERTEX
  8
7
 62
     7
  6
CONTINUOUS
 10
2.490307
 20
0.284055
  0
VERTEX
  8
7
 62
     7
  6
CONTINUOUS
 10
2.476260
 20
0.305827
  0
VERTEX
  8
7
 62
     7
  6
CONTINUOUS
 10
2.457303
 20
0.333217
  0
VERTEX
  8
7
 62
     7
  6
CONTINUOUS
 10
2.434839
 20
0.366213
  0
VERTEX
  8
7
 62
     7
  6
CONTINUOUS
 10
2.410248
 20
0.403437
  0
VERTEX
  8
7
 62
     7
  6
CONTINUOUS
 10
2.383579
 20
0.442752
  0
VERTEX
  8
7
 62
     7
  6
CONTINUOUS
 10
2.356890
 20
0.483492
  0
VERTEX
  8
7
 62
     7
  6
CONTINUOUS
 10
2.329500
 20
0.524213
  0
VERTEX
  8
7
 62
     7
  6
CONTINUOUS
 10
2.302827
 20
0.563539
  0
VERTEX
  8
7
 62
     7
  6
CONTINUOUS
 10
2.278244
 20
0.600051
  0
VERTEX
  8
7
 62
     7
  6
CONTINUOUS
 10
2.255776
 20
0.633059
  0
VERTEX
  8
7
 62
     7
  6
CONTINUOUS
 10
2.236811
 20
0.661146
  0
VERTEX
  8
7
 62
     7
  6
CONTINUOUS
 10
2.222760
 20
0.682909
  0
VERTEX
  8
7
 62
     7
  6
CONTINUOUS
 10
2.213634
 20
0.696945
  0
VERTEX
  8
7
 62
     7
  6
CONTINUOUS
 10
2.210134
 20
0.701862
  0
VERTEX
  8
7
 62
     7
  6
CONTINUOUS
 10
2.206614
 20
0.706079
  0
VERTEX
  8
7
 62
     7
  6
CONTINUOUS
 10
2.196783
 20
0.719413
  0
VERTEX
  8
7
 62
     7
  6
CONTINUOUS
 10
2.181331
 20
0.739783
  0
VERTEX
  8
7
 62
     7
  6
CONTINUOUS
 10
2.160961
 20
0.765768
  0
VERTEX
  8
7
 62
     7
  6
CONTINUOUS
 10
2.137091
 20
0.797366
  0
VERTEX
  8
7
 62
     7
  6
CONTINUOUS
 10
2.110409
 20
0.832484
  0
VERTEX
  8
7
 62
     7
  6
CONTINUOUS
 10
2.082339
 20
0.869705
  0
VERTEX
  8
7
 62
     7
  6
CONTINUOUS
 10
2.052839
 20
0.908311
  0
VERTEX
  8
7
 62
     7
  6
CONTINUOUS
 10
2.023339
 20
0.946937
  0
VERTEX
  8
7
 62
     7
  6
CONTINUOUS
 10
1.995256
 20
0.984150
  0
VERTEX
  8
7
 62
     7
  6
CONTINUOUS
 10
1.968563
 20
1.018571
  0
VERTEX
  8
7
 62
     7
  6
CONTINUOUS
 10
1.944693
 20
1.050157
  0
VERTEX
  8
7
 62
     7
  6
CONTINUOUS
 10
1.924335
 20
1.076846
  0
VERTEX
  8
7
 62
     7
  6
CONTINUOUS
 10
1.908882
 20
1.097217
  0
VERTEX
  8
7
 62
     7
  6
CONTINUOUS
 10
1.899055
 20
1.109846
  0
VERTEX
  8
7
 62
     7
  6
CONTINUOUS
 10
1.895543
 20
1.114772
  0
VERTEX
  8
7
 62
     7
  6
CONTINUOUS
 10
1.678555
 20
1.463063
  0
VERTEX
  8
7
 62
     7
  6
CONTINUOUS
 10
1.299366
 20
1.408980
  0
SEQEND
  8
0
  0
POLYLINE
  8
7
 62
     7
  6
CONTINUOUS
 66
     1
 40
0.003000
 41
0.003000
  0
VERTEX
  8
7
 62
     7
  6
CONTINUOUS
 10
1.387138
 20
1.792394
  0
VERTEX
  8
7
 62
     7
  6
CONTINUOUS
 10
2.066882
 20
1.668803
  0
VERTEX
  8
7
 62
     7
  6
CONTINUOUS
 10
2.300008
 20
1.125992
  0
VERTEX
  8
7
 62
     7
  6
CONTINUOUS
 10
2.303520
 20
1.118280
  0
VERTEX
  8
7
 62
     7
  6
CONTINUOUS
 10
2.314051
 20
1.097921
  0
VERTEX
  8
7
 62
     7
  6
CONTINUOUS
 10
2.330205
 20
1.065606
  0
VERTEX
  8
7
 62
     7
  6
CONTINUOUS
 10
2.351264
 20
1.023492
  0
VERTEX
  8
7
 62
     7
  6
CONTINUOUS
 10
2.376551
 20
0.973622
  0
VERTEX
  8
7
 62
     7
  6
CONTINUOUS
 10
2.403937
 20
0.918854
  0
VERTEX
  8
7
 62
     7
  6
CONTINUOUS
 10
2.434130
 20
0.859866
  0
VERTEX
  8
7
 62
     7
  6
CONTINUOUS
 10
2.465031
 20
0.798776
  0
VERTEX
  8
7
 62
     7
  6
CONTINUOUS
 10
2.495217
 20
0.737681
  0
VERTEX
  8
7
 62
     7
  6
CONTINUOUS
 10
2.525417
 20
0.678697
  0
VERTEX
  8
7
 62
     7
  6
CONTINUOUS
 10
2.552807
 20
0.623232
  0
VERTEX
  8
7
 62
     7
  6
CONTINUOUS
 10
2.578083
 20
0.574067
  0
VERTEX
  8
7
 62
     7
  6
CONTINUOUS
 10
2.599150
 20
0.531929
  0
VERTEX
  8
7
 62
     7
  6
CONTINUOUS
 10
2.615311
 20
0.500339
  0
VERTEX
  8
7
 62
     7
  6
CONTINUOUS
 10
2.625823
 20
0.479272
  0
VERTEX
  8
7
 62
     7
  6
CONTINUOUS
 10
2.629346
 20
0.472252
  0
VERTEX
  8
7
 62
     7
  6
CONTINUOUS
 10
2.632150
 20
0.466630
  0
VERTEX
  8
7
 62
     7
  6
CONTINUOUS
 10
2.640583
 20
0.450488
  0
VERTEX
  8
7
 62
     7
  6
CONTINUOUS
 10
2.653925
 20
0.425201
  0
VERTEX
  8
7
 62
     7
  6
CONTINUOUS
 10
2.670075
 20
0.392898
  0
VERTEX
  8
7
 62
     7
  6
CONTINUOUS
 10
2.690433
 20
0.354276
  0
VERTEX
  8
7
 62
     7
  6
CONTINUOUS
 10
2.712201
 20
0.311449
  0
VERTEX
  8
7
 62
     7
  6
CONTINUOUS
 10
2.736083
 20
0.265803
  0
VERTEX
  8
7
 62
     7
  6
CONTINUOUS
 10
2.760650
 20
0.218752
  0
VERTEX
  8
7
 62
     7
  6
CONTINUOUS
 10
2.785236
 20
0.171705
  0
VERTEX
  8
7
 62
     7
  6
CONTINUOUS
 10
2.809114
 20
0.125354
  0
VERTEX
  8
7
 62
     7
  6
CONTINUOUS
 10
2.830874
 20
0.083217
  0
VERTEX
  8
7
 62
     7
  6
CONTINUOUS
 10
2.851236
 20
0.044598
  0
VERTEX
  8
7
 62
     7
  6
CONTINUOUS
 10
2.867390
 20
0.012311
  0
VERTEX
  8
7
 62
     7
  6
CONTINUOUS
 10
2.880724
 20
-0.012280
  0
VERTEX
  8
7
 62
     7
  6
CONTINUOUS
 10
2.889165
 20
-0.028417
  0
VERTEX
  8
7
 62
     7
  6
CONTINUOUS
 10
2.891969
 20
-0.034039
  0
VERTEX
  8
7
 62
     7
  6
CONTINUOUS
 10
2.894772
 20
-0.035449
  0
VERTEX
  8
7
 62
     7
  6
CONTINUOUS
 10
2.901807
 20
-0.038953
  0
VERTEX
  8
7
 62
     7
  6
CONTINUOUS
 10
2.913740
 20
-0.044579
  0
VERTEX
  8
7
 62
     7
  6
CONTINUOUS
 10
2.928480
 20
-0.051594
  0
VERTEX
  8
7
 62
     7
  6
CONTINUOUS
 10
2.946043
 20
-0.060035
  0
VERTEX
  8
7
 62
     7
  6
CONTINUOUS
 10
2.965693
 20
-0.069146
  0
VERTEX
  8
7
 62
     7
  6
CONTINUOUS
 10
2.986768
 20
-0.079685
  0
VERTEX
  8
7
 62
     7
  6
CONTINUOUS
 10
3.009240
 20
-0.089512
  0
VERTEX
  8
7
 62
     7
  6
CONTINUOUS
 10
3.031004
 20
-0.100047
  0
VERTEX
  8
7
 62
     7
  6
CONTINUOUS
 10
3.052079
 20
-0.109886
  0
VERTEX
  8
7
 62
     7
  6
CONTINUOUS
 10
3.071736
 20
-0.119717
  0
VERTEX
  8
7
 62
     7
  6
CONTINUOUS
 10
3.089283
 20
-0.127449
  0
VERTEX
  8
7
 62
     7
  6
CONTINUOUS
 10
3.104031
 20
-0.135169
  0
VERTEX
  8
7
 62
     7
  6
CONTINUOUS
 10
3.115965
 20
-0.140075
  0
VERTEX
  8
7
 62
     7
  6
CONTINUOUS
 10
3.122988
 20
-0.143583
  0
VERTEX
  8
7
 62
     7
  6
CONTINUOUS
 10
3.125807
 20
-0.144984
  0
SEQEND
  8
0
  0
POLYLINE
  8
7
 62
     7
  6
CONTINUOUS
 66
     1
 40
0.003000
 41
0.003000
  0
VERTEX
  8
7
 62
     7
  6
CONTINUOUS
 10
-0.504602
 20
1.447602
  0
VERTEX
  8
7
 62
     7
  6
CONTINUOUS
 10
0.276957
 20
1.272059
  0
VERTEX
  8
7
 62
     7
  6
CONTINUOUS
 10
0.897713
 20
1.015756
  0
VERTEX
  8
7
 62
     7
  6
CONTINUOUS
 10
0.899807
 20
1.016465
  0
VERTEX
  8
7
 62
     7
  6
CONTINUOUS
 10
0.905429
 20
1.017173
  0
VERTEX
  8
7
 62
     7
  6
CONTINUOUS
 10
0.914551
 20
1.019972
  0
VERTEX
  8
7
 62
     7
  6
CONTINUOUS
 10
0.926492
 20
1.022780
  0
VERTEX
  8
7
 62
     7
  6
CONTINUOUS
 10
0.940528
 20
1.025594
  0
VERTEX
  8
7
 62
     7
  6
CONTINUOUS
 10
0.955984
 20
1.029799
  0
VERTEX
  8
7
 62
     7
  6
CONTINUOUS
 10
0.972843
 20
1.034004
  0
VERTEX
  8
7
 62
     7
  6
CONTINUOUS
 10
0.990398
 20
1.038224
  0
VERTEX
  8
7
 62
     7
  6
CONTINUOUS
 10
1.007252
 20
1.042445
  0
VERTEX
  8
7
 62
     7
  6
CONTINUOUS
 10
1.024102
 20
1.046657
  0
VERTEX
  8
7
 62
     7
  6
CONTINUOUS
 10
1.039547
 20
1.050157
  0
VERTEX
  8
7
 62
     7
  6
CONTINUOUS
 10
1.053598
 20
1.053673
  0
VERTEX
  8
7
 62
     7
  6
CONTINUOUS
 10
1.065524
 20
1.057185
  0
VERTEX
  8
7
 62
     7
  6
CONTINUOUS
 10
1.074657
 20
1.059291
  0
VERTEX
  8
7
 62
     7
  6
CONTINUOUS
 10
1.080276
 20
1.060693
  0
VERTEX
  8
7
 62
     7
  6
CONTINUOUS
 10
1.082374
 20
1.061398
  0
VERTEX
  8
7
 62
     7
  6
CONTINUOUS
 10
1.085902
 20
1.057886
  0
VERTEX
  8
7
 62
     7
  6
CONTINUOUS
 10
1.096433
 20
1.047358
  0
VERTEX
  8
7
 62
     7
  6
CONTINUOUS
 10
1.113280
 20
1.031906
  0
VERTEX
  8
7
 62
     7
  6
CONTINUOUS
 10
1.134350
 20
1.011543
  0
VERTEX
  8
7
 62
     7
  6
CONTINUOUS
 10
1.159626
 20
0.987669
  0
VERTEX
  8
7
 62
     7
  6
CONTINUOUS
 10
1.188417
 20
0.960276
  0
VERTEX
  8
7
 62
     7
  6
CONTINUOUS
 10
1.218602
 20
0.931492
  0
VERTEX
  8
7
 62
     7
  6
CONTINUOUS
 10
1.249508
 20
0.901988
  0
VERTEX
  8
7
 62
     7
  6
CONTINUOUS
 10
1.280406
 20
0.872508
  0
VERTEX
  8
7
 62
     7
  6
CONTINUOUS
 10
1.310602
 20
0.843724
  0
VERTEX
  8
7
 62
     7
  6
CONTINUOUS
 10
1.339394
 20
0.817035
  0
VERTEX
  8
7
 62
     7
  6
CONTINUOUS
 10
1.364669
 20
0.793157
  0
VERTEX
  8
7
 62
     7
  6
CONTINUOUS
 10
1.385736
 20
0.772783
  0
VERTEX
  8
7
 62
     7
  6
CONTINUOUS
 10
1.402594
 20
0.757350
  0
VERTEX
  8
7
 62
     7
  6
CONTINUOUS
 10
1.413126
 20
0.747520
  0
VERTEX
  8
7
 62
     7
  6
CONTINUOUS
 10
1.416626
 20
0.744000
  0
VERTEX
  8
7
 62
     7
  6
CONTINUOUS
 10
1.421547
 20
0.738386
  0
VERTEX
  8
7
 62
     7
  6
CONTINUOUS
 10
1.434886
 20
0.722937
  0
VERTEX
  8
7
 62
     7
  6
CONTINUOUS
 10
1.455957
 20
0.699756
  0
VERTEX
  8
7
 62
     7
  6
CONTINUOUS
 10
1.482650
 20
0.668858
  0
VERTEX
  8
7
 62
     7
  6
CONTINUOUS
 10
1.514937
 20
0.633059
  0
VERTEX
  8
7
 62
     7
  6
CONTINUOUS
 10
1.550756
 20
0.592319
  0
VERTEX
  8
7
 62
     7
  6
CONTINUOUS
 10
1.588673
 20
0.549488
  0
VERTEX
  8
7
 62
     7
  6
CONTINUOUS
 10
1.628685
 20
0.504551
  0
VERTEX
  8
7
 62
     7
  6
CONTINUOUS
 10
1.668028
 20
0.460311
  0
VERTEX
  8
7
 62
     7
  6
CONTINUOUS
 10
1.705933
 20
0.416783
  0
VERTEX
  8
7
 62
     7
  6
CONTINUOUS
 10
1.741752
 20
0.376752
  0
VERTEX
  8
7
 62
     7
  6
CONTINUOUS
 10
1.774063
 20
0.340937
  0
VERTEX
  8
7
 62
     7
  6
CONTINUOUS
 10
1.800744
 20
0.310039
  0
VERTEX
  8
7
 62
     7
  6
CONTINUOUS
 10
1.821807
 20
0.286862
  0
VERTEX
  8
7
 62
     7
  6
CONTINUOUS
 10
1.835157
 20
0.271421
  0
VERTEX
  8
7
 62
     7
  6
CONTINUOUS
 10
1.840063
 20
0.266520
  0
VERTEX
  8
7
 62
     7
  6
CONTINUOUS
 10
1.841465
 20
0.265803
  0
VERTEX
  8
7
 62
     7
  6
CONTINUOUS
 10
1.845681
 20
0.263697
  0
VERTEX
  8
7
 62
     7
  6
CONTINUOUS
 10
1.853406
 20
0.259480
  0
VERTEX
  8
7
 62
     7
  6
CONTINUOUS
 10
1.862531
 20
0.255264
  0
VERTEX
  8
7
 62
     7
  6
CONTINUOUS
 10
1.874476
 20
0.248945
  0
VERTEX
  8
7
 62
     7
  6
CONTINUOUS
 10
1.888520
 20
0.241925
  0
VERTEX
  8
7
 62
     7
  6
CONTINUOUS
 10
1.904669
 20
0.233496
  0
VERTEX
  8
7
 62
     7
  6
CONTINUOUS
 10
1.922220
 20
0.225075
  0
VERTEX
  8
7
 62
     7
  6
CONTINUOUS
 10
1.941189
 20
0.215236
  0
VERTEX
  8
7
 62
     7
  6
CONTINUOUS
 10
1.962252
 20
0.204697
  0
VERTEX
  8
7
 62
     7
  6
CONTINUOUS
 10
1.984016
 20
0.194169
  0
VERTEX
  8
7
 62
     7
  6
CONTINUOUS
 10
2.006488
 20
0.182228
  0
VERTEX
  8
7
 62
     7
  6
CONTINUOUS
 10
2.029661
 20
0.171008
  0
VERTEX
  8
7
 62
     7
  6
CONTINUOUS
 10
2.054240
 20
0.158354
  0
VERTEX
  8
7
 62
     7
  6
CONTINUOUS
 10
2.078106
 20
0.146429
  0
VERTEX
  8
7
 62
     7
  6
CONTINUOUS
 10
2.103398
 20
0.133776
  0
VERTEX
  8
7
 62
     7
  6
CONTINUOUS
 10
2.127965
 20
0.121835
  0
VERTEX
  8
7
 62
     7
  6
CONTINUOUS
 10
2.151858
 20
0.109201
  0
VERTEX
  8
7
 62
     7
  6
CONTINUOUS
 10
2.176413
 20
0.097280
  0
VERTEX
  8
7
 62
     7
  6
CONTINUOUS
 10
2.199598
 20
0.085335
  0
VERTEX
  8
7
 62
     7
  6
CONTINUOUS
 10
2.222059
 20
0.074094
  0
VERTEX
  8
7
 62
     7
  6
CONTINUOUS
 10
2.243835
 20
0.063571
  0
VERTEX
  8
7
 62
     7
  6
CONTINUOUS
 10
2.264902
 20
0.053024
  0
VERTEX
  8
7
 62
     7
  6
CONTINUOUS
 10
2.283858
 20
0.043209
  0
VERTEX
  8
7
 62
     7
  6
CONTINUOUS
 10
2.301413
 20
0.034780
  0
VERTEX
  8
7
 62
     7
  6
CONTINUOUS
 10
2.317571
 20
0.026343
  0
VERTEX
  8
7
 62
     7
  6
CONTINUOUS
 10
2.331610
 20
0.019335
  0
VERTEX
  8
7
 62
     7
  6
CONTINUOUS
 10
2.343539
 20
0.013697
  0
VERTEX
  8
7
 62
     7
  6
CONTINUOUS
 10
2.352677
 20
0.008783
  0
VERTEX
  8
7
 62
     7
  6
CONTINUOUS
 10
2.360398
 20
0.005283
  0
VERTEX
  8
7
 62
     7
  6
CONTINUOUS
 10
2.364602
 20
0.003169
  0
VERTEX
  8
7
 62
     7
  6
CONTINUOUS
 10
2.366016
 20
0.002461
  0
VERTEX
  8
7
 62
     7
  6
CONTINUOUS
 10
2.367421
 20
0.001772
  0
VERTEX
  8
7
 62
     7
  6
CONTINUOUS
 10
2.370921
 20
0.000362
  0
VERTEX
  8
7
 62
     7
  6
CONTINUOUS
 10
2.377248
 20
-0.002445
  0
VERTEX
  8
7
 62
     7
  6
CONTINUOUS
 10
2.385677
 20
-0.005957
  0
VERTEX
  8
7
 62
     7
  6
CONTINUOUS
 10
2.396217
 20
-0.010169
  0
VERTEX
  8
7
 62
     7
  6
CONTINUOUS
 10
2.408846
 20
-0.015787
  0
VERTEX
  8
7
 62
     7
  6
CONTINUOUS
 10
2.422886
 20
-0.021386
  0
VERTEX
  8
7
 62
     7
  6
CONTINUOUS
 10
2.438339
 20
-0.028417
  0
VERTEX
  8
7
 62
     7
  6
CONTINUOUS
 10
2.455193
 20
-0.035449
  0
VERTEX
  8
7
 62
     7
  6
CONTINUOUS
 10
2.473453
 20
-0.042480
  0
VERTEX
  8
7
 62
     7
  6
CONTINUOUS
 10
2.492409
 20
-0.050894
  0
VERTEX
  8
7
 62
     7
  6
CONTINUOUS
 10
2.512079
 20
-0.059327
  0
VERTEX
  8
7
 62
     7
  6
CONTINUOUS
 10
2.533150
 20
-0.067748
  0
VERTEX
  8
7
 62
     7
  6
CONTINUOUS
 10
2.554209
 20
-0.076886
  0
VERTEX
  8
7
 62
     7
  6
CONTINUOUS
 10
2.575287
 20
-0.085295
  0
VERTEX
  8
7
 62
     7
  6
CONTINUOUS
 10
2.597047
 20
-0.094433
  0
VERTEX
  8
7
 62
     7
  6
CONTINUOUS
 10
2.618811
 20
-0.103571
  0
VERTEX
  8
7
 62
     7
  6
CONTINUOUS
 10
2.639882
 20
-0.112697
  0
VERTEX
  8
7
 62
     7
  6
CONTINUOUS
 10
2.660941
 20
-0.121819
  0
VERTEX
  8
7
 62
     7
  6
CONTINUOUS
 10
2.682008
 20
-0.130252
  0
VERTEX
  8
7
 62
     7
  6
CONTINUOUS
 10
2.701657
 20
-0.138669
  0
VERTEX
  8
7
 62
     7
  6
CONTINUOUS
 10
2.720634
 20
-0.146398
  0
VERTEX
  8
7
 62
     7
  6
CONTINUOUS
 10
2.738882
 20
-0.154122
  0
VERTEX
  8
7
 62
     7
  6
CONTINUOUS
 10
2.755732
 20
-0.161130
  0
VERTEX
  8
7
 62
     7
  6
CONTINUOUS
 10
2.771189
 20
-0.167457
  0
VERTEX
  8
7
 62
     7
  6
CONTINUOUS
 10
2.785236
 20
-0.173780
  0
VERTEX
  8
7
 62
     7
  6
CONTINUOUS
 10
2.797874
 20
-0.178693
  0
VERTEX
  8
7
 62
     7
  6
CONTINUOUS
 10
2.808398
 20
-0.182909
  0
VERTEX
  8
7
 62
     7
  6
CONTINUOUS
 10
2.816835
 20
-0.186421
  0
VERTEX
  8
7
 62
     7
  6
CONTINUOUS
 10
2.823150
 20
-0.189224
  0
VERTEX
  8
7
 62
     7
  6
CONTINUOUS
 10
2.826657
 20
-0.190634
  0
VERTEX
  8
7
 62
     7
  6
CONTINUOUS
 10
2.828063
 20
-0.191331
  0
SEQEND
  8
0
  0
POLYLINE
  8
7
 62
     7
  6
CONTINUOUS
 66
     1
 40
0.003000
 41
0.003000
  0
VERTEX
  8
7
 62
     7
  6
CONTINUOUS
 10
-0.446323
 20
1.307874
  0
VERTEX
  8
7
 62
     7
  6
CONTINUOUS
 10
-0.549543
 20
1.621059
  0
VERTEX
  8
7
 62
     7
  6
CONTINUOUS
 10
-0.963150
 20
1.660382
  0
VERTEX
  8
7
 62
     7
  6
CONTINUOUS
 10
-0.965256
 20
1.660382
  0
VERTEX
  8
7
 62
     7
  6
CONTINUOUS
 10
-0.972272
 20
1.661083
  0
VERTEX
  8
7
 62
     7
  6
CONTINUOUS
 10
-0.982803
 20
1.661787
  0
VERTEX
  8
7
 62
     7
  6
CONTINUOUS
 10
-0.996850
 20
1.663185
  0
VERTEX
  8
7
 62
     7
  6
CONTINUOUS
 10
-1.014406
 20
1.664602
  0
VERTEX
  8
7
 62
     7
  6
CONTINUOUS
 10
-1.034776
 20
1.666000
  0
VERTEX
  8
7
 62
     7
  6
CONTINUOUS
 10
-1.058646
 20
1.667402
  0
VERTEX
  8
7
 62
     7
  6
CONTINUOUS
 10
-1.084626
 20
1.669516
  0
VERTEX
  8
7
 62
     7
  6
CONTINUOUS
 10
-1.112713
 20
1.671618
  0
VERTEX
  8
7
 62
     7
  6
CONTINUOUS
 10
-1.142909
 20
1.673720
  0
VERTEX
  8
7
 62
     7
  6
CONTINUOUS
 10
-1.175213
 20
1.676535
  0
VERTEX
  8
7
 62
     7
  6
CONTINUOUS
 10
-1.208913
 20
1.679339
  0
VERTEX
  8
7
 62
     7
  6
CONTINUOUS
 10
-1.243327
 20
1.681445
  0
VERTEX
  8
7
 62
     7
  6
CONTINUOUS
 10
-1.278441
 20
1.684256
  0
VERTEX
  8
7
 62
     7
  6
CONTINUOUS
 10
-1.314949
 20
1.687067
  0
VERTEX
  8
7
 62
     7
  6
CONTINUOUS
 10
-1.350768
 20
1.689870
  0
VERTEX
  8
7
 62
     7
  6
CONTINUOUS
 10
-1.387268
 20
1.692681
  0
VERTEX
  8
7
 62
     7
  6
CONTINUOUS
 10
-1.423094
 20
1.695488
  0
VERTEX
  8
7
 62
     7
  6
CONTINUOUS
 10
-1.458906
 20
1.698299
  0
VERTEX
  8
7
 62
     7
  6
CONTINUOUS
 10
-1.493307
 20
1.700402
  0
VERTEX
  8
7
 62
     7
  6
CONTINUOUS
 10
-1.526303
 20
1.703220
  0
VERTEX
  8
7
 62
     7
  6
CONTINUOUS
 10
-1.558618
 20
1.706035
  0
VERTEX
  8
7
 62
     7
  6
CONTINUOUS
 10
-1.588807
 20
1.708130
  0
VERTEX
  8
7
 62
     7
  6
CONTINUOUS
 10
-1.616909
 20
1.710236
  0
VERTEX
  8
7
 62
     7
  6
CONTINUOUS
 10
-1.642878
 20
1.712346
  0
VERTEX
  8
7
 62
     7
  6
CONTINUOUS
 10
-1.666744
 20
1.713744
  0
VERTEX
  8
7
 62
     7
  6
CONTINUOUS
 10
-1.687114
 20
1.715165
  0
VERTEX
  8
7
 62
     7
  6
CONTINUOUS
 10
-1.704677
 20
1.716559
  0
VERTEX
  8
7
 62
     7
  6
CONTINUOUS
 10
-1.718713
 20
1.717961
  0
VERTEX
  8
7
 62
     7
  6
CONTINUOUS
 10
-1.729252
 20
1.718661
  0
VERTEX
  8
7
 62
     7
  6
CONTINUOUS
 10
-1.735567
 20
1.719366
  0
VERTEX
  8
7
 62
     7
  6
CONTINUOUS
 10
-1.737669
 20
1.719366
  0
VERTEX
  8
7
 62
     7
  6
CONTINUOUS
 10
-1.739787
 20
1.718661
  0
VERTEX
  8
7
 62
     7
  6
CONTINUOUS
 10
-1.746803
 20
1.716559
  0
VERTEX
  8
7
 62
     7
  6
CONTINUOUS
 10
-1.758039
 20
1.713744
  0
VERTEX
  8
7
 62
     7
  6
CONTINUOUS
 10
-1.773492
 20
1.710236
  0
VERTEX
  8
7
 62
     7
  6
CONTINUOUS
 10
-1.791740
 20
1.704618
  0
VERTEX
  8
7
 62
     7
  6
CONTINUOUS
 10
-1.814217
 20
1.698996
  0
VERTEX
  8
7
 62
     7
  6
CONTINUOUS
 10
-1.839496
 20
1.691984
  0
VERTEX
  8
7
 62
     7
  6
CONTINUOUS
 10
-1.866882
 20
1.684957
  0
VERTEX
  8
7
 62
     7
  6
CONTINUOUS
 10
-1.897079
 20
1.676535
  0
VERTEX
  8
7
 62
     7
  6
CONTINUOUS
 10
-1.929386
 20
1.668098
  0
VERTEX
  8
7
 62
     7
  6
CONTINUOUS
 10
-1.963787
 20
1.658984
  0
VERTEX
  8
7
 62
     7
  6
CONTINUOUS
 10
-1.998902
 20
1.649846
  0
VERTEX
  8
7
 62
     7
  6
CONTINUOUS
 10
-2.036118
 20
1.640016
  0
VERTEX
  8
7
 62
     7
  6
CONTINUOUS
 10
-2.074035
 20
1.629484
  0
VERTEX
  8
7
 62
     7
  6
CONTINUOUS
 10
-2.111957
 20
1.619661
  0
VERTEX
  8
7
 62
     7
  6
CONTINUOUS
 10
-2.150579
 20
1.609114
  0
VERTEX
  8
7
 62
     7
  6
CONTINUOUS
 10
-2.189197
 20
1.598594
  0
VERTEX
  8
7
 62
     7
  6
CONTINUOUS
 10
-2.227811
 20
1.588744
  0
VERTEX
  8
7
 62
     7
  6
CONTINUOUS
 10
-2.265732
 20
1.578224
  0
VERTEX
  8
7
 62
     7
  6
CONTINUOUS
 10
-2.302252
 20
1.568390
  0
VERTEX
  8
7
 62
     7
  6
CONTINUOUS
 10
-2.338063
 20
1.559252
  0
VERTEX
  8
7
 62
     7
  6
CONTINUOUS
 10
-2.371780
 20
1.550138
  0
VERTEX
  8
7
 62
     7
  6
CONTINUOUS
 10
-2.404063
 20
1.541717
  0
VERTEX
  8
7
 62
     7
  6
CONTINUOUS
 10
-2.434256
 20
1.533280
  0
VERTEX
  8
7
 62
     7
  6
CONTINUOUS
 10
-2.461654
 20
1.526268
  0
VERTEX
  8
7
 62
     7
  6
CONTINUOUS
 10
-2.486925
 20
1.519240
  0
VERTEX
  8
7
 62
     7
  6
CONTINUOUS
 10
-2.508701
 20
1.513618
  0
VERTEX
  8
7
 62
     7
  6
CONTINUOUS
 10
-2.527657
 20
1.508004
  0
VERTEX
  8
7
 62
     7
  6
CONTINUOUS
 10
-2.542409
 20
1.504488
  0
VERTEX
  8
7
 62
     7
  6
CONTINUOUS
 10
-2.553646
 20
1.501677
  0
VERTEX
  8
7
 62
     7
  6
CONTINUOUS
 10
-2.560665
 20
1.499579
  0
VERTEX
  8
7
 62
     7
  6
CONTINUOUS
 10
-2.562760
 20
1.498874
  0
VERTEX
  8
7
 62
     7
  6
CONTINUOUS
 10
-2.559260
 20
1.498165
  0
VERTEX
  8
7
 62
     7
  6
CONTINUOUS
 10
-2.548732
 20
1.497472
  0
VERTEX
  8
7
 62
     7
  6
CONTINUOUS
 10
-2.531173
 20
1.495366
  0
VERTEX
  8
7
 62
     7
  6
CONTINUOUS
 10
-2.507996
 20
1.492543
  0
VERTEX
  8
7
 62
     7
  6
CONTINUOUS
 10
-2.478504
 20
1.489740
  0
VERTEX
  8
7
 62
     7
  6
CONTINUOUS
 10
-2.444799
 20
1.486240
  0
VERTEX
  8
7
 62
     7
  6
CONTINUOUS
 10
-2.405472
 20
1.482031
  0
VERTEX
  8
7
 62
     7
  6
CONTINUOUS
 10
-2.362646
 20
1.477098
  0
VERTEX
  8
7
 62
     7
  6
CONTINUOUS
 10
-2.315598
 20
1.472189
  0
VERTEX
  8
7
 62
     7
  6
CONTINUOUS
 10
-2.265031
 20
1.466571
  0
VERTEX
  8
7
 62
     7
  6
CONTINUOUS
 10
-2.212362
 20
1.460965
  0
VERTEX
  8
7
 62
     7
  6
CONTINUOUS
 10
-2.156894
 20
1.454630
  0
VERTEX
  8
7
 62
     7
  6
CONTINUOUS
 10
-2.099315
 20
1.448311
  0
VERTEX
  8
7
 62
     7
  6
CONTINUOUS
 10
-2.040323
 20
1.441996
  0
VERTEX
  8
7
 62
     7
  6
CONTINUOUS
 10
-1.980646
 20
1.435677
  0
VERTEX
  8
7
 62
     7
  6
CONTINUOUS
 10
-1.920957
 20
1.429346
  0
VERTEX
  8
7
 62
     7
  6
CONTINUOUS
 10
-1.860567
 20
1.422335
  0
VERTEX
  8
7
 62
     7
  6
CONTINUOUS
 10
-1.800878
 20
1.416016
  0
VERTEX
  8
7
 62
     7
  6
CONTINUOUS
 10
-1.741894
 20
1.409693
  0
VERTEX
  8
7
 62
     7
  6
CONTINUOUS
 10
-1.685012
 20
1.403378
  0
VERTEX
  8
7
 62
     7
  6
CONTINUOUS
 10
-1.629535
 20
1.397055
  0
VERTEX
  8
7
 62
     7
  6
CONTINUOUS
 10
-1.576173
 20
1.391441
  0
VERTEX
  8
7
 62
     7
  6
CONTINUOUS
 10
-1.525614
 20
1.385823
  0
VERTEX
  8
7
 62
     7
  6
CONTINUOUS
 10
-1.478563
 20
1.380902
  0
VERTEX
  8
7
 62
     7
  6
CONTINUOUS
 10
-1.435732
 20
1.375988
  0
VERTEX
  8
7
 62
     7
  6
CONTINUOUS
 10
-1.396406
 20
1.371776
  0
VERTEX
  8
7
 62
     7
  6
CONTINUOUS
 10
-1.361996
 20
1.368260
  0
VERTEX
  8
7
 62
     7
  6
CONTINUOUS
 10
-1.333201
 20
1.365453
  0
VERTEX
  8
7
 62
     7
  6
CONTINUOUS
 10
-1.309327
 20
1.362642
  0
VERTEX
  8
7
 62
     7
  6
CONTINUOUS
 10
-1.292480
 20
1.360543
  0
VERTEX
  8
7
 62
     7
  6
CONTINUOUS
 10
-1.281248
 20
1.359839
  0
VERTEX
  8
7
 62
     7
  6
CONTINUOUS
 10
-1.277736
 20
1.359130
  0
VERTEX
  8
7
 62
     7
  6
CONTINUOUS
 10
-1.274925
 20
1.358429
  0
VERTEX
  8
7
 62
     7
  6
CONTINUOUS
 10
-1.265795
 20
1.356327
  0
VERTEX
  8
7
 62
     7
  6
CONTINUOUS
 10
-1.251740
 20
1.353512
  0
VERTEX
  8
7
 62
     7
  6
CONTINUOUS
 10
-1.232795
 20
1.350000
  0
VERTEX
  8
7
 62
     7
  6
CONTINUOUS
 10
-1.208217
 20
1.345094
  0
VERTEX
  8
7
 62
     7
  6
CONTINUOUS
 10
-1.180122
 20
1.338776
  0
VERTEX
  8
7
 62
     7
  6
CONTINUOUS
 10
-1.148524
 20
1.332453
  0
VERTEX
  8
7
 62
     7
  6
CONTINUOUS
 10
-1.112713
 20
1.324720
  0
VERTEX
  8
7
 62
     7
  6
CONTINUOUS
 10
-1.074087
 20
1.317008
  0
VERTEX
  8
7
 62
     7
  6
CONTINUOUS
 10
-1.032673
 20
1.308571
  0
VERTEX
  8
7
 62
     7
  6
CONTINUOUS
 10
-0.989138
 20
1.299449
  0
VERTEX
  8
7
 62
     7
  6
CONTINUOUS
 10
-0.943476
 20
1.289614
  0
VERTEX
  8
7
 62
     7
  6
CONTINUOUS
 10
-0.895740
 20
1.279787
  0
VERTEX
  8
7
 62
     7
  6
CONTINUOUS
 10
-0.847280
 20
1.269957
  0
VERTEX
  8
7
 62
     7
  6
CONTINUOUS
 10
-0.798134
 20
1.260126
  0
VERTEX
  8
7
 62
     7
  6
CONTINUOUS
 10
-0.748976
 20
1.249579
  0
VERTEX
  8
7
 62
     7
  6
CONTINUOUS
 10
-0.699114
 20
1.239760
  0
VERTEX
  8
7
 62
     7
  6
CONTINUOUS
 10
-0.649957
 20
1.229240
  0
VERTEX
  8
7
 62
     7
  6
CONTINUOUS
 10
-0.601508
 20
1.219394
  0
VERTEX
  8
7
 62
     7
  6
CONTINUOUS
 10
-0.554457
 20
1.209567
  0
VERTEX
  8
7
 62
     7
  6
CONTINUOUS
 10
-0.508823
 20
1.200437
  0
VERTEX
  8
7
 62
     7
  6
CONTINUOUS
 10
-0.465276
 20
1.191303
  0
VERTEX
  8
7
 62
     7
  6
CONTINUOUS
 10
-0.423858
 20
1.182874
  0
VERTEX
  8
7
 62
     7
  6
CONTINUOUS
 10
-0.385220
 20
1.174461
  0
VERTEX
  8
7
 62
     7
  6
CONTINUOUS
 10
-0.349409
 20
1.167425
  0
VERTEX
  8
7
 62
     7
  6
CONTINUOUS
 10
-0.317114
 20
1.160417
  0
VERTEX
  8
7
 62
     7
  6
CONTINUOUS
 10
-0.289035
 20
1.154783
  0
VERTEX
  8
7
 62
     7
  6
CONTINUOUS
 10
-0.265154
 20
1.149882
  0
VERTEX
  8
7
 62
     7
  6
CONTINUOUS
 10
-0.245492
 20
1.145661
  0
VERTEX
  8
7
 62
     7
  6
CONTINUOUS
 10
-0.231449
 20
1.142858
  0
VERTEX
  8
7
 62
     7
  6
CONTINUOUS
 10
-0.222319
 20
1.141457
  0
VERTEX
  8
7
 62
     7
  6
CONTINUOUS
 10
-0.219504
 20
1.140748
  0
VERTEX
  8
7
 62
     7
  6
CONTINUOUS
 10
-0.217394
 20
1.140043
  0
VERTEX
  8
7
 62
     7
  6
CONTINUOUS
 10
-0.210370
 20
1.137232
  0
VERTEX
  8
7
 62
     7
  6
CONTINUOUS
 10
-0.199850
 20
1.133724
  0
VERTEX
  8
7
 62
     7
  6
CONTINUOUS
 10
-0.185110
 20
1.128811
  0
VERTEX
  8
7
 62
     7
  6
CONTINUOUS
 10
-0.166839
 20
1.122496
  0
VERTEX
  8
7
 62
     7
  6
CONTINUOUS
 10
-0.145079
 20
1.115469
  0
VERTEX
  8
7
 62
     7
  6
CONTINUOUS
 10
-0.121193
 20
1.107047
  0
VERTEX
  8
7
 62
     7
  6
CONTINUOUS
 10
-0.093815
 20
1.097921
  0
VERTEX
  8
7
 62
     7
  6
CONTINUOUS
 10
-0.064327
 20
1.088079
  0
VERTEX
  8
7
 62
     7
  6
CONTINUOUS
 10
-0.033429
 20
1.077563
  0
VERTEX
  8
7
 62
     7
  6
CONTINUOUS
 10
0.000283
 20
1.066311
  0
VERTEX
  8
7
 62
     7
  6
CONTINUOUS
 10
0.034693
 20
1.054378
  0
VERTEX
  8
7
 62
     7
  6
CONTINUOUS
 10
0.070500
 20
1.042445
  0
VERTEX
  8
7
 62
     7
  6
CONTINUOUS
 10
0.107020
 20
1.029799
  0
VERTEX
  8
7
 62
     7
  6
CONTINUOUS
 10
0.144236
 20
1.017173
  0
VERTEX
  8
7
 62
     7
  6
CONTINUOUS
 10
0.182157
 20
1.004531
  0
VERTEX
  8
7
 62
     7
  6
CONTINUOUS
 10
0.220083
 20
0.991878
  0
VERTEX
  8
7
 62
     7
  6
CONTINUOUS
 10
0.257295
 20
0.979240
  0
VERTEX
  8
7
 62
     7
  6
CONTINUOUS
 10
0.293811
 20
0.966602
  0
VERTEX
  8
7
 62
     7
  6
CONTINUOUS
 10
0.329622
 20
0.954661
  0
VERTEX
  8
7
 62
     7
  6
CONTINUOUS
 10
0.364024
 20
0.942728
  0
VERTEX
  8
7
 62
     7
  6
CONTINUOUS
 10
0.397732
 20
0.931492
  0
VERTEX
  8
7
 62
     7
  6
CONTINUOUS
 10
0.428630
 20
0.920961
  0
VERTEX
  8
7
 62
     7
  6
CONTINUOUS
 10
0.458134
 20
0.911126
  0
VERTEX
  8
7
 62
     7
  6
CONTINUOUS
 10
0.485512
 20
0.901988
  0
VERTEX
  8
7
 62
     7
  6
CONTINUOUS
 10
0.509390
 20
0.893571
  0
VERTEX
  8
7
 62
     7
  6
CONTINUOUS
 10
0.531146
 20
0.886551
  0
VERTEX
  8
7
 62
     7
  6
CONTINUOUS
 10
0.549413
 20
0.880240
  0
VERTEX
  8
7
 62
     7
  6
CONTINUOUS
 10
0.564161
 20
0.875315
  0
VERTEX
  8
7
 62
     7
  6
CONTINUOUS
 10
0.574693
 20
0.871803
  0
VERTEX
  8
7
 62
     7
  6
CONTINUOUS
 10
0.581717
 20
0.869705
  0
VERTEX
  8
7
 62
     7
  6
CONTINUOUS
 10
0.583823
 20
0.868988
  0
VERTEX
  8
7
 62
     7
  6
CONTINUOUS
 10
0.585921
 20
0.867591
  0
VERTEX
  8
7
 62
     7
  6
CONTINUOUS
 10
0.592953
 20
0.864075
  0
VERTEX
  8
7
 62
     7
  6
CONTINUOUS
 10
0.604173
 20
0.859157
  0
VERTEX
  8
7
 62
     7
  6
CONTINUOUS
 10
0.618929
 20
0.851441
  0
VERTEX
  8
7
 62
     7
  6
CONTINUOUS
 10
0.637189
 20
0.843020
  0
VERTEX
  8
7
 62
     7
  6
CONTINUOUS
 10
0.659661
 20
0.831783
  0
VERTEX
  8
7
 62
     7
  6
CONTINUOUS
 10
0.684220
 20
0.819839
  0
VERTEX
  8
7
 62
     7
  6
CONTINUOUS
 10
0.711626
 20
0.806500
  0
VERTEX
  8
7
 62
     7
  6
CONTINUOUS
 10
0.741811
 20
0.791748
  0
VERTEX
  8
7
 62
     7
  6
CONTINUOUS
 10
0.773413
 20
0.776307
  0
VERTEX
  8
7
 62
     7
  6
CONTINUOUS
 10
0.807118
 20
0.760165
  0
VERTEX
  8
7
 62
     7
  6
CONTINUOUS
 10
0.842937
 20
0.743287
  0
VERTEX
  8
7
 62
     7
  6
CONTINUOUS
 10
0.879445
 20
0.725043
  0
VERTEX
  8
7
 62
     7
  6
CONTINUOUS
 10
0.916665
 20
0.706783
  0
VERTEX
  8
7
 62
     7
  6
CONTINUOUS
 10
0.954583
 20
0.688512
  0
VERTEX
  8
7
 62
     7
  6
CONTINUOUS
 10
0.993205
 20
0.670272
  0
VERTEX
  8
7
 62
     7
  6
CONTINUOUS
 10
1.031122
 20
0.651319
  0
VERTEX
  8
7
 62
     7
  6
CONTINUOUS
 10
1.069035
 20
0.633059
  0
VERTEX
  8
7
 62
     7
  6
CONTINUOUS
 10
1.106256
 20
0.614783
  0
VERTEX
  8
7
 62
     7
  6
CONTINUOUS
 10
1.142780
 20
0.597244
  0
VERTEX
  8
7
 62
     7
  6
CONTINUOUS
 10
1.178579
 20
0.580398
  0
VERTEX
  8
7
 62
     7
  6
CONTINUOUS
 10
1.212295
 20
0.563539
  0
VERTEX
  8
7
 62
     7
  6
CONTINUOUS
 10
1.243894
 20
0.548083
  0
VERTEX
  8
7
 62
     7
  6
CONTINUOUS
 10
1.274079
 20
0.534043
  0
VERTEX
  8
7
 62
     7
  6
CONTINUOUS
 10
1.301476
 20
0.520705
  0
VERTEX
  8
7
 62
     7
  6
CONTINUOUS
 10
1.326039
 20
0.508764
  0
VERTEX
  8
7
 62
     7
  6
CONTINUOUS
 10
1.348524
 20
0.498228
  0
VERTEX
  8
7
 62
     7
  6
CONTINUOUS
 10
1.366787
 20
0.489091
  0
VERTEX
  8
7
 62
     7
  6
CONTINUOUS
 10
1.381524
 20
0.482075
  0
VERTEX
  8
7
 62
     7
  6
CONTINUOUS
 10
1.392756
 20
0.476469
  0
VERTEX
  8
7
 62
     7
  6
CONTINUOUS
 10
1.399787
 20
0.473654
  0
VERTEX
  8
7
 62
     7
  6
CONTINUOUS
 10
1.401890
 20
0.472252
  0
VERTEX
  8
7
 62
     7
  6
CONTINUOUS
 10
1.406799
 20
0.470142
  0
VERTEX
  8
7
 62
     7
  6
CONTINUOUS
 10
1.421547
 20
0.465228
  0
VERTEX
  8
7
 62
     7
  6
CONTINUOUS
 10
1.443311
 20
0.457500
  0
VERTEX
  8
7
 62
     7
  6
CONTINUOUS
 10
1.472114
 20
0.447669
  0
VERTEX
  8
7
 62
     7
  6
CONTINUOUS
 10
1.506520
 20
0.435031
  0
VERTEX
  8
7
 62
     7
  6
CONTINUOUS
 10
1.544437
 20
0.420992
  0
VERTEX
  8
7
 62
     7
  6
CONTINUOUS
 10
1.585157
 20
0.405543
  0
VERTEX
  8
7
 62
     7
  6
CONTINUOUS
 10
1.626598
 20
0.389398
  0
VERTEX
  8
7
 62
     7
  6
CONTINUOUS
 10
1.668028
 20
0.372539
  0
VERTEX
  8
7
 62
     7
  6
CONTINUOUS
 10
1.708051
 20
0.354980
  0
VERTEX
  8
7
 62
     7
  6
CONTINUOUS
 10
1.745260
 20
0.338122
  0
VERTEX
  8
7
 62
     7
  6
CONTINUOUS
 10
1.777575
 20
0.321280
  0
VERTEX
  8
7
 62
     7
  6
CONTINUOUS
 10
1.804961
 20
0.305827
  0
VERTEX
  8
7
 62
     7
  6
CONTINUOUS
 10
1.825311
 20
0.291087
  0
VERTEX
  8
7
 62
     7
  6
CONTINUOUS
 10
1.837248
 20
0.278433
  0
VERTEX
  8
7
 62
     7
  6
CONTINUOUS
 10
1.840063
 20
0.267205
  0
SEQEND
  8
0
  0
POLYLINE
  8
7
 62
     7
  6
CONTINUOUS
 66
     1
 40
0.003000
 41
0.003000
  0
VERTEX
  8
7
 62
     7
  6
CONTINUOUS
 10
-1.015811
 20
0.698354
  0
VERTEX
  8
7
 62
     7
  6
CONTINUOUS
 10
-1.045996
 20
0.791051
  0
VERTEX
  8
7
 62
     7
  6
CONTINUOUS
 10
-0.949799
 20
0.859866
  0
VERTEX
  8
7
 62
     7
  6
CONTINUOUS
 10
-0.940673
 20
0.856358
  0
VERTEX
  8
7
 62
     7
  6
CONTINUOUS
 10
-0.931539
 20
0.852157
  0
VERTEX
  8
7
 62
     7
  6
CONTINUOUS
 10
-0.923114
 20
0.848626
  0
VERTEX
  8
7
 62
     7
  6
CONTINUOUS
 10
-0.913980
 20
0.844413
  0
VERTEX
  8
7
 62
     7
  6
CONTINUOUS
 10
-0.904858
 20
0.840913
  0
VERTEX
  8
7
 62
     7
  6
CONTINUOUS
 10
-0.895740
 20
0.836697
  0
VERTEX
  8
7
 62
     7
  6
CONTINUOUS
 10
-0.887307
 20
0.833169
  0
VERTEX
  8
7
 62
     7
  6
CONTINUOUS
 10
-0.878181
 20
0.829669
  0
VERTEX
  8
7
 62
     7
  6
CONTINUOUS
 10
-0.869043
 20
0.825449
  0
VERTEX
  8
7
 62
     7
  6
CONTINUOUS
 10
-0.859917
 20
0.821953
  0
VERTEX
  8
7
 62
     7
  6
CONTINUOUS
 10
-0.850791
 20
0.818433
  0
VERTEX
  8
7
 62
     7
  6
CONTINUOUS
 10
-0.842370
 20
0.814224
  0
VERTEX
  8
7
 62
     7
  6
CONTINUOUS
 10
-0.833236
 20
0.810713
  0
VERTEX
  8
7
 62
     7
  6
CONTINUOUS
 10
-0.824106
 20
0.807205
  0
VERTEX
  8
7
 62
     7
  6
CONTINUOUS
 10
-0.814984
 20
0.802984
  0
VERTEX
  8
7
 62
     7
  6
CONTINUOUS
 10
-0.805850
 20
0.799472
  0
VERTEX
  8
7
 62
     7
  6
CONTINUOUS
 10
-0.767228
 20
0.685016
  0
VERTEX
  8
7
 62
     7
  6
CONTINUOUS
 10
-0.720177
 20
0.581094
  0
VERTEX
  8
7
 62
     7
  6
CONTINUOUS
 10
-0.555157
 20
0.567744
  0
VERTEX
  8
7
 62
     7
  6
CONTINUOUS
 10
-0.552346
 20
0.561429
  0
VERTEX
  8
7
 62
     7
  6
CONTINUOUS
 10
-0.544646
 20
0.543882
  0
VERTEX
  8
7
 62
     7
  6
CONTINUOUS
 10
-0.534803
 20
0.518583
  0
VERTEX
  8
7
 62
     7
  6
CONTINUOUS
 10
-0.522157
 20
0.490504
  0
VERTEX
  8
7
 62
     7
  6
CONTINUOUS
 10
-0.510220
 20
0.462425
  0
VERTEX
  8
7
 62
     7
  6
CONTINUOUS
 10
-0.500394
 20
0.437839
  0
VERTEX
  8
7
 62
     7
  6
CONTINUOUS
 10
-0.492673
 20
0.420283
  0
VERTEX
  8
7
 62
     7
  6
CONTINUOUS
 10
-0.489854
 20
0.413961
  0
VERTEX
  8
7
 62
     7
  6
CONTINUOUS
 10
-0.487055
 20
0.416783
  0
VERTEX
  8
7
 62
     7
  6
CONTINUOUS
 10
-0.478618
 20
0.425913
  0
VERTEX
  8
7
 62
     7
  6
CONTINUOUS
 10
-0.466681
 20
0.439248
  0
VERTEX
  8
7
 62
     7
  6
CONTINUOUS
 10
-0.454055
 20
0.456795
  0
VERTEX
  8
7
 62
     7
  6
CONTINUOUS
 10
-0.440705
 20
0.478575
  0
VERTEX
  8
7
 62
     7
  6
CONTINUOUS
 10
-0.429472
 20
0.503142
  0
VERTEX
  8
7
 62
     7
  6
CONTINUOUS
 10
-0.421039
 20
0.529831
  0
VERTEX
  8
7
 62
     7
  6
CONTINUOUS
 10
-0.418228
 20
0.558618
  0
VERTEX
  8
7
 62
     7
  6
CONTINUOUS
 10
-0.413307
 20
0.582496
  0
VERTEX
  8
7
 62
     7
  6
CONTINUOUS
 10
-0.400681
 20
0.604260
  0
VERTEX
  8
7
 62
     7
  6
CONTINUOUS
 10
-0.383126
 20
0.623232
  0
VERTEX
  8
7
 62
     7
  6
CONTINUOUS
 10
-0.362760
 20
0.639370
  0
VERTEX
  8
7
 62
     7
  6
CONTINUOUS
 10
-0.342390
 20
0.652717
  0
VERTEX
  8
7
 62
     7
  6
CONTINUOUS
 10
-0.324843
 20
0.662547
  0
VERTEX
  8
7
 62
     7
  6
CONTINUOUS
 10
-0.312201
 20
0.668157
  0
VERTEX
  8
7
 62
     7
  6
CONTINUOUS
 10
-0.307287
 20
0.670272
  0
SEQEND
  8
0
  0
POLYLINE
  8
7
 62
     7
  6
CONTINUOUS
 66
     1
 40
0.003000
 41
0.003000
  0
VERTEX
  8
7
 62
     7
  6
CONTINUOUS
 10
-0.972272
 20
1.256606
  0
VERTEX
  8
7
 62
     7
  6
CONTINUOUS
 10
-0.818488
 20
1.125303
  0
VERTEX
  8
7
 62
     7
  6
CONTINUOUS
 10
-0.680150
 20
0.956776
  0
VERTEX
  8
7
 62
     7
  6
CONTINUOUS
 10
-0.678059
 20
0.944831
  0
VERTEX
  8
7
 62
     7
  6
CONTINUOUS
 10
-0.672417
 20
0.912543
  0
VERTEX
  8
7
 62
     7
  6
CONTINUOUS
 10
-0.664004
 20
0.868280
  0
VERTEX
  8
7
 62
     7
  6
CONTINUOUS
 10
-0.654165
 20
0.817035
  0
VERTEX
  8
7
 62
     7
  6
CONTINUOUS
 10
-0.645043
 20
0.765768
  0
VERTEX
  8
7
 62
     7
  6
CONTINUOUS
 10
-0.636622
 20
0.720827
  0
VERTEX
  8
7
 62
     7
  6
CONTINUOUS
 10
-0.631000
 20
0.689228
  0
VERTEX
  8
7
 62
     7
  6
CONTINUOUS
 10
-0.628902
 20
0.677295
  0
SEQEND
  8
0
  0
POLYLINE
  8
7
 62
     7
  6
CONTINUOUS
 66
     1
 40
0.003000
 41
0.003000
  0
VERTEX
  8
7
 62
     7
  6
CONTINUOUS
 10
-1.220157
 20
0.706079
  0
VERTEX
  8
7
 62
     7
  6
CONTINUOUS
 10
-1.241921
 20
0.992579
  0
VERTEX
  8
7
 62
     7
  6
CONTINUOUS
 10
-1.262992
 20
1.197626
  0
VERTEX
  8
7
 62
     7
  6
CONTINUOUS
 10
-1.261575
 20
1.199035
  0
VERTEX
  8
7
 62
     7
  6
CONTINUOUS
 10
-1.256677
 20
1.203244
  0
VERTEX
  8
7
 62
     7
  6
CONTINUOUS
 10
-1.249638
 20
1.208858
  0
VERTEX
  8
7
 62
     7
  6
CONTINUOUS
 10
-1.240512
 20
1.217287
  0
VERTEX
  8
7
 62
     7
  6
CONTINUOUS
 10
-1.229976
 20
1.226425
  0
VERTEX
  8
7
 62
     7
  6
CONTINUOUS
 10
-1.217335
 20
1.236941
  0
VERTEX
  8
7
 62
     7
  6
CONTINUOUS
 10
-1.204701
 20
1.248185
  0
VERTEX
  8
7
 62
     7
  6
CONTINUOUS
 10
-1.190657
 20
1.260126
  0
VERTEX
  8
7
 62
     7
  6
CONTINUOUS
 10
-1.177319
 20
1.272059
  0
VERTEX
  8
7
 62
     7
  6
CONTINUOUS
 10
-1.163972
 20
1.283295
  0
VERTEX
  8
7
 62
     7
  6
CONTINUOUS
 10
-1.152039
 20
1.293835
  0
VERTEX
  8
7
 62
     7
  6
CONTINUOUS
 10
-1.140799
 20
1.302961
  0
VERTEX
  8
7
 62
     7
  6
CONTINUOUS
 10
-1.131677
 20
1.311398
  0
VERTEX
  8
7
 62
     7
  6
CONTINUOUS
 10
-1.124646
 20
1.317008
  0
VERTEX
  8
7
 62
     7
  6
CONTINUOUS
 10
-1.119736
 20
1.321224
  0
VERTEX
  8
7
 62
     7
  6
CONTINUOUS
 10
-1.118327
 20
1.322626
  0
SEQEND
  8
0
  0
POLYLINE
  8
7
 62
     7
  6
CONTINUOUS
 66
     1
 40
0.003000
 41
0.003000
  0
VERTEX
  8
7
 62
     7
  6
CONTINUOUS
 10
-0.022193
 20
0.683610
  0
VERTEX
  8
7
 62
     7
  6
CONTINUOUS
 10
-0.057996
 20
0.882343
  0
VERTEX
  8
7
 62
     7
  6
CONTINUOUS
 10
-0.008142
 20
1.073339
  0
SEQEND
  8
0
  0
POLYLINE
  8
7
 62
     7
  6
CONTINUOUS
 66
     1
 40
0.003000
 41
0.003000
  0
VERTEX
  8
7
 62
     7
  6
CONTINUOUS
 10
-1.154843
 20
0.713098
  0
VERTEX
  8
7
 62
     7
  6
CONTINUOUS
 10
-1.140098
 20
0.897079
  0
VERTEX
  8
7
 62
     7
  6
CONTINUOUS
 10
-1.125346
 20
1.065606
  0
VERTEX
  8
7
 62
     7
  6
CONTINUOUS
 10
-1.088835
 20
1.197626
  0
VERTEX
  8
7
 62
     7
  6
CONTINUOUS
 10
-1.008791
 20
1.234843
  0
VERTEX
  8
7
 62
     7
  6
CONTINUOUS
 10
-0.935760
 20
1.197626
  0
VERTEX
  8
7
 62
     7
  6
CONTINUOUS
 10
-0.818488
 20
1.109846
  0
VERTEX
  8
7
 62
     7
  6
CONTINUOUS
 10
-0.723689
 20
1.014350
  0
VERTEX
  8
7
 62
     7
  6
CONTINUOUS
 10
-0.643642
 20
0.897079
  0
VERTEX
  8
7
 62
     7
  6
CONTINUOUS
 10
-0.643642
 20
0.677295
  0
SEQEND
  8
0
  0
POLYLINE
  8
7
 62
     7
  6
CONTINUOUS
 66
     1
 40
0.003000
 41
0.003000
  0
VERTEX
  8
7
 62
     7
  6
CONTINUOUS
 10
0.189169
 20
0.683610
  0
VERTEX
  8
7
 62
     7
  6
CONTINUOUS
 10
0.175122
 20
0.793870
  0
VERTEX
  8
7
 62
     7
  6
CONTINUOUS
 10
0.248173
 20
0.838091
  0
VERTEX
  8
7
 62
     7
  6
CONTINUOUS
 10
0.328220
 20
0.808606
  0
VERTEX
  8
7
 62
     7
  6
CONTINUOUS
 10
0.401236
 20
0.677295
  0
SEQEND
  8
0
  0
POLYLINE
  8
7
 62
     7
  6
CONTINUOUS
 66
     1
 40
0.003000
 41
0.003000
  0
VERTEX
  8
7
 62
     7
  6
CONTINUOUS
 10
0.517807
 20
0.654823
  0
VERTEX
  8
7
 62
     7
  6
CONTINUOUS
 10
0.504476
 20
0.793870
  0
VERTEX
  8
7
 62
     7
  6
CONTINUOUS
 10
0.453205
 20
0.918854
  0
SEQEND
  8
0
  0
POLYLINE
  8
7
 62
     7
  6
CONTINUOUS
 66
     1
 40
0.003000
 41
0.003000
  0
VERTEX
  8
7
 62
     7
  6
CONTINUOUS
 10
-1.227874
 20
0.661843
  0
VERTEX
  8
7
 62
     7
  6
CONTINUOUS
 10
-1.147130
 20
0.479272
  0
VERTEX
  8
7
 62
     7
  6
CONTINUOUS
 10
-0.942783
 20
0.274224
  0
VERTEX
  8
7
 62
     7
  6
CONTINUOUS
 10
-0.939976
 20
0.272819
  0
VERTEX
  8
7
 62
     7
  6
CONTINUOUS
 10
-0.932945
 20
0.268614
  0
VERTEX
  8
7
 62
     7
  6
CONTINUOUS
 10
-0.921012
 20
0.262984
  0
VERTEX
  8
7
 62
     7
  6
CONTINUOUS
 10
-0.906260
 20
0.255264
  0
VERTEX
  8
7
 62
     7
  6
CONTINUOUS
 10
-0.888713
 20
0.246839
  0
VERTEX
  8
7
 62
     7
  6
CONTINUOUS
 10
-0.869043
 20
0.236311
  0
VERTEX
  8
7
 62
     7
  6
CONTINUOUS
 10
-0.847984
 20
0.225776
  0
VERTEX
  8
7
 62
     7
  6
CONTINUOUS
 10
-0.825508
 20
0.215236
  0
VERTEX
  8
7
 62
     7
  6
CONTINUOUS
 10
-0.803732
 20
0.204012
  0
VERTEX
  8
7
 62
     7
  6
CONTINUOUS
 10
-0.782677
 20
0.193465
  0
VERTEX
  8
7
 62
     7
  6
CONTINUOUS
 10
-0.763012
 20
0.183650
  0
VERTEX
  8
7
 62
     7
  6
CONTINUOUS
 10
-0.745461
 20
0.175213
  0
VERTEX
  8
7
 62
     7
  6
CONTINUOUS
 10
-0.730713
 20
0.167488
  0
VERTEX
  8
7
 62
     7
  6
CONTINUOUS
 10
-0.718768
 20
0.161874
  0
VERTEX
  8
7
 62
     7
  6
CONTINUOUS
 10
-0.711740
 20
0.158354
  0
VERTEX
  8
7
 62
     7
  6
CONTINUOUS
 10
-0.708957
 20
0.156961
  0
VERTEX
  8
7
 62
     7
  6
CONTINUOUS
 10
-0.705425
 20
0.156252
  0
VERTEX
  8
7
 62
     7
  6
CONTINUOUS
 10
-0.694898
 20
0.153449
  0
VERTEX
  8
7
 62
     7
  6
CONTINUOUS
 10
-0.678756
 20
0.149232
  0
VERTEX
  8
7
 62
     7
  6
CONTINUOUS
 10
-0.657685
 20
0.143606
  0
VERTEX
  8
7
 62
     7
  6
CONTINUOUS
 10
-0.632409
 20
0.137992
  0
VERTEX
  8
7
 62
     7
  6
CONTINUOUS
 10
-0.605024
 20
0.130969
  0
VERTEX
  8
7
 62
     7
  6
CONTINUOUS
 10
-0.575528
 20
0.123264
  0
VERTEX
  8
7
 62
     7
  6
CONTINUOUS
 10
-0.544646
 20
0.116236
  0
VERTEX
  8
7
 62
     7
  6
CONTINUOUS
 10
-0.513732
 20
0.108512
  0
VERTEX
  8
7
 62
     7
  6
CONTINUOUS
 10
-0.484236
 20
0.101484
  0
VERTEX
  8
7
 62
     7
  6
CONTINUOUS
 10
-0.456854
 20
0.094457
  0
VERTEX
  8
7
 62
     7
  6
CONTINUOUS
 10
-0.431567
 20
0.088154
  0
VERTEX
  8
7
 62
     7
  6
CONTINUOUS
 10
-0.410516
 20
0.083217
  0
VERTEX
  8
7
 62
     7
  6
CONTINUOUS
 10
-0.394362
 20
0.079717
  0
VERTEX
  8
7
 62
     7
  6
CONTINUOUS
 10
-0.383827
 20
0.076909
  0
VERTEX
  8
7
 62
     7
  6
CONTINUOUS
 10
-0.380323
 20
0.076197
  0
VERTEX
  8
7
 62
     7
  6
CONTINUOUS
 10
-0.376098
 20
0.076197
  0
VERTEX
  8
7
 62
     7
  6
CONTINUOUS
 10
-0.364154
 20
0.075496
  0
VERTEX
  8
7
 62
     7
  6
CONTINUOUS
 10
-0.345201
 20
0.075496
  0
VERTEX
  8
7
 62
     7
  6
CONTINUOUS
 10
-0.320622
 20
0.074803
  0
VERTEX
  8
7
 62
     7
  6
CONTINUOUS
 10
-0.292535
 20
0.074094
  0
VERTEX
  8
7
 62
     7
  6
CONTINUOUS
 10
-0.260240
 20
0.073398
  0
VERTEX
  8
7
 62
     7
  6
CONTINUOUS
 10
-0.225827
 20
0.072693
  0
VERTEX
  8
7
 62
     7
  6
CONTINUOUS
 10
-0.190008
 20
0.071988
  0
VERTEX
  8
7
 62
     7
  6
CONTINUOUS
 10
-0.154906
 20
0.071283
  0
VERTEX
  8
7
 62
     7
  6
CONTINUOUS
 10
-0.120484
 20
0.070598
  0
VERTEX
  8
7
 62
     7
  6
CONTINUOUS
 10
-0.088197
 20
0.069882
  0
VERTEX
  8
7
 62
     7
  6
CONTINUOUS
 10
-0.060098
 20
0.069177
  0
VERTEX
  8
7
 62
     7
  6
CONTINUOUS
 10
-0.035531
 20
0.069177
  0
VERTEX
  8
7
 62
     7
  6
CONTINUOUS
 10
-0.016567
 20
0.068480
  0
VERTEX
  8
7
 62
     7
  6
CONTINUOUS
 10
-0.004646
 20
0.068480
  0
VERTEX
  8
7
 62
     7
  6
CONTINUOUS
 10
-0.000413
 20
0.068480
  0
VERTEX
  8
7
 62
     7
  6
CONTINUOUS
 10
0.003087
 20
0.069177
  0
VERTEX
  8
7
 62
     7
  6
CONTINUOUS
 10
0.012929
 20
0.072693
  0
VERTEX
  8
7
 62
     7
  6
CONTINUOUS
 10
0.027673
 20
0.076909
  0
VERTEX
  8
7
 62
     7
  6
CONTINUOUS
 10
0.047331
 20
0.083217
  0
VERTEX
  8
7
 62
     7
  6
CONTINUOUS
 10
0.070500
 20
0.090252
  0
VERTEX
  8
7
 62
     7
  6
CONTINUOUS
 10
0.096492
 20
0.097969
  0
VERTEX
  8
7
 62
     7
  6
CONTINUOUS
 10
0.124575
 20
0.107102
  0
VERTEX
  8
7
 62
     7
  6
CONTINUOUS
 10
0.153354
 20
0.115528
  0
VERTEX
  8
7
 62
     7
  6
CONTINUOUS
 10
0.181445
 20
0.124657
  0
VERTEX
  8
7
 62
     7
  6
CONTINUOUS
 10
0.209543
 20
0.133075
  0
VERTEX
  8
7
 62
     7
  6
CONTINUOUS
 10
0.235516
 20
0.141512
  0
VERTEX
  8
7
 62
     7
  6
CONTINUOUS
 10
0.258697
 20
0.148524
  0
VERTEX
  8
7
 62
     7
  6
CONTINUOUS
 10
0.278366
 20
0.154846
  0
VERTEX
  8
7
 62
     7
  6
CONTINUOUS
 10
0.293098
 20
0.159768
  0
VERTEX
  8
7
 62
     7
  6
CONTINUOUS
 10
0.302937
 20
0.162587
  0
VERTEX
  8
7
 62
     7
  6
CONTINUOUS
 10
0.306457
 20
0.163980
  0
VERTEX
  8
7
 62
     7
  6
CONTINUOUS
 10
0.308551
 20
0.166087
  0
VERTEX
  8
7
 62
     7
  6
CONTINUOUS
 10
0.313472
 20
0.171705
  0
VERTEX
  8
7
 62
     7
  6
CONTINUOUS
 10
0.321890
 20
0.180823
  0
VERTEX
  8
7
 62
     7
  6
CONTINUOUS
 10
0.332421
 20
0.192075
  0
VERTEX
  8
7
 62
     7
  6
CONTINUOUS
 10
0.345071
 20
0.206110
  0
VERTEX
  8
7
 62
     7
  6
CONTINUOUS
 10
0.359807
 20
0.221559
  0
VERTEX
  8
7
 62
     7
  6
CONTINUOUS
 10
0.374563
 20
0.238425
  0
VERTEX
  8
7
 62
     7
  6
CONTINUOUS
 10
0.390717
 20
0.255264
  0
VERTEX
  8
7
 62
     7
  6
CONTINUOUS
 10
0.406161
 20
0.272819
  0
VERTEX
  8
7
 62
     7
  6
CONTINUOUS
 10
0.420902
 20
0.288969
  0
VERTEX
  8
7
 62
     7
  6
CONTINUOUS
 10
0.435638
 20
0.305122
  0
VERTEX
  8
7
 62
     7
  6
CONTINUOUS
 10
0.448303
 20
0.319157
  0
VERTEX
  8
7
 62
     7
  6
CONTINUOUS
 10
0.458823
 20
0.330402
  0
VERTEX
  8
7
 62
     7
  6
CONTINUOUS
 10
0.467252
 20
0.339524
  0
VERTEX
  8
7
 62
     7
  6
CONTINUOUS
 10
0.472169
 20
0.345854
  0
VERTEX
  8
7
 62
     7
  6
CONTINUOUS
 10
0.474268
 20
0.347965
  0
VERTEX
  8
7
 62
     7
  6
CONTINUOUS
 10
0.477783
 20
0.353579
  0
VERTEX
  8
7
 62
     7
  6
CONTINUOUS
 10
0.488319
 20
0.368323
  0
VERTEX
  8
7
 62
     7
  6
CONTINUOUS
 10
0.502362
 20
0.389398
  0
VERTEX
  8
7
 62
     7
  6
CONTINUOUS
 10
0.518516
 20
0.413260
  0
VERTEX
  8
7
 62
     7
  6
CONTINUOUS
 10
0.533961
 20
0.437839
  0
VERTEX
  8
7
 62
     7
  6
CONTINUOUS
 10
0.548008
 20
0.458902
  0
VERTEX
  8
7
 62
     7
  6
CONTINUOUS
 10
0.558543
 20
0.474354
  0
VERTEX
  8
7
 62
     7
  6
CONTINUOUS
 10
0.562051
 20
0.479972
  0
VERTEX
  8
7
 62
     7
  6
CONTINUOUS
 10
0.564854
 20
0.487693
  0
VERTEX
  8
7
 62
     7
  6
CONTINUOUS
 10
0.571173
 20
0.508059
  0
VERTEX
  8
7
 62
     7
  6
CONTINUOUS
 10
0.580295
 20
0.537563
  0
VERTEX
  8
7
 62
     7
  6
CONTINUOUS
 10
0.591539
 20
0.570563
  0
VERTEX
  8
7
 62
     7
  6
CONTINUOUS
 10
0.602079
 20
0.604260
  0
VERTEX
  8
7
 62
     7
  6
CONTINUOUS
 10
0.611201
 20
0.633059
  0
VERTEX
  8
7
 62
     7
  6
CONTINUOUS
 10
0.617516
 20
0.654110
  0
VERTEX
  8
7
 62
     7
  6
CONTINUOUS
 10
0.620339
 20
0.661843
  0
VERTEX
  8
7
 62
     7
  6
CONTINUOUS
 10
-2.059280
 20
0.727850
  0
VERTEX
  8
7
 62
     7
  6
CONTINUOUS
 10
-2.060701
 20
0.721528
  0
VERTEX
  8
7
 62
     7
  6
CONTINUOUS
 10
-2.062799
 20
0.705374
  0
VERTEX
  8
7
 62
     7
  6
CONTINUOUS
 10
-2.067016
 20
0.681504
  0
VERTEX
  8
7
 62
     7
  6
CONTINUOUS
 10
-2.070520
 20
0.654823
  0
VERTEX
  8
7
 62
     7
  6
CONTINUOUS
 10
-2.074732
 20
0.628134
  0
VERTEX
  8
7
 62
     7
  6
CONTINUOUS
 10
-2.078244
 20
0.604969
  0
VERTEX
  8
7
 62
     7
  6
CONTINUOUS
 10
-2.080358
 20
0.588807
  0
VERTEX
  8
7
 62
     7
  6
CONTINUOUS
 10
-2.081055
 20
0.582496
  0
VERTEX
  8
7
 62
     7
  6
CONTINUOUS
 10
-2.078244
 20
0.581799
  0
VERTEX
  8
7
 62
     7
  6
CONTINUOUS
 10
-2.070520
 20
0.581094
  0
VERTEX
  8
7
 62
     7
  6
CONTINUOUS
 10
-2.057882
 20
0.579681
  0
VERTEX
  8
7
 62
     7
  6
CONTINUOUS
 10
-2.041732
 20
0.577583
  0
VERTEX
  8
7
 62
     7
  6
CONTINUOUS
 10
-2.022083
 20
0.575469
  0
VERTEX
  8
7
 62
     7
  6
CONTINUOUS
 10
-2.001004
 20
0.572665
  0
VERTEX
  8
7
 62
     7
  6
CONTINUOUS
 10
-1.977823
 20
0.569843
  0
VERTEX
  8
7
 62
     7
  6
CONTINUOUS
 10
-1.953965
 20
0.567047
  0
VERTEX
  8
7
 62
     7
  6
CONTINUOUS
 10
-1.930091
 20
0.564232
  0
VERTEX
  8
7
 62
     7
  6
CONTINUOUS
 10
-1.906909
 20
0.562134
  0
VERTEX
  8
7
 62
     7
  6
CONTINUOUS
 10
-1.885142
 20
0.559331
  0
VERTEX
  8
7
 62
     7
  6
CONTINUOUS
 10
-1.865484
 20
0.557217
  0
VERTEX
  8
7
 62
     7
  6
CONTINUOUS
 10
-1.849327
 20
0.555110
  0
VERTEX
  8
7
 62
     7
  6
CONTINUOUS
 10
-1.836677
 20
0.553685
  0
VERTEX
  8
7
 62
     7
  6
CONTINUOUS
 10
-1.828268
 20
0.553008
  0
VERTEX
  8
7
 62
     7
  6
CONTINUOUS
 10
-1.825453
 20
0.553008
  0
VERTEX
  8
7
 62
     7
  6
CONTINUOUS
 10
-1.824047
 20
0.550193
  0
VERTEX
  8
7
 62
     7
  6
CONTINUOUS
 10
-1.819134
 20
0.541764
  0
VERTEX
  8
7
 62
     7
  6
CONTINUOUS
 10
-1.812106
 20
0.529831
  0
VERTEX
  8
7
 62
     7
  6
CONTINUOUS
 10
-1.802980
 20
0.513677
  0
VERTEX
  8
7
 62
     7
  6
CONTINUOUS
 10
-1.791740
 20
0.494720
  0
VERTEX
  8
7
 62
     7
  6
CONTINUOUS
 10
-1.779815
 20
0.473654
  0
VERTEX
  8
7
 62
     7
  6
CONTINUOUS
 10
-1.766457
 20
0.451177
  0
VERTEX
  8
7
 62
     7
  6
CONTINUOUS
 10
-1.753122
 20
0.427996
  0
VERTEX
  8
7
 62
     7
  6
CONTINUOUS
 10
-1.739083
 20
0.404843
  0
VERTEX
  8
7
 62
     7
  6
CONTINUOUS
 10
-1.726441
 20
0.382358
  0
VERTEX
  8
7
 62
     7
  6
CONTINUOUS
 10
-1.713803
 20
0.361299
  0
VERTEX
  8
7
 62
     7
  6
CONTINUOUS
 10
-1.702567
 20
0.342327
  0
VERTEX
  8
7
 62
     7
  6
CONTINUOUS
 10
-1.693433
 20
0.326193
  0
VERTEX
  8
7
 62
     7
  6
CONTINUOUS
 10
-1.685717
 20
0.314256
  0
VERTEX
  8
7
 62
     7
  6
CONTINUOUS
 10
-1.681500
 20
0.306531
  0
VERTEX
  8
7
 62
     7
  6
CONTINUOUS
 10
-1.679394
 20
0.303717
  0
VERTEX
  8
7
 62
     7
  6
CONTINUOUS
 10
-1.677280
 20
0.301610
  0
VERTEX
  8
7
 62
     7
  6
CONTINUOUS
 10
-1.670965
 20
0.295295
  0
VERTEX
  8
7
 62
     7
  6
CONTINUOUS
 10
-1.661835
 20
0.285461
  0
VERTEX
  8
7
 62
     7
  6
CONTINUOUS
 10
-1.649197
 20
0.273524
  0
VERTEX
  8
7
 62
     7
  6
CONTINUOUS
 10
-1.633748
 20
0.258776
  0
VERTEX
  8
7
 62
     7
  6
CONTINUOUS
 10
-1.617591
 20
0.242622
  0
VERTEX
  8
7
 62
     7
  6
CONTINUOUS
 10
-1.599346
 20
0.225776
  0
VERTEX
  8
7
 62
     7
  6
CONTINUOUS
 10
-1.581083
 20
0.207512
  0
VERTEX
  8
7
 62
     7
  6
CONTINUOUS
 10
-1.562823
 20
0.189965
  0
VERTEX
  8
7
 62
     7
  6
CONTINUOUS
 10
-1.545276
 20
0.172402
  0
VERTEX
  8
7
 62
     7
  6
CONTINUOUS
 10
-1.528417
 20
0.156252
  0
VERTEX
  8
7
 62
     7
  6
CONTINUOUS
 10
-1.512969
 20
0.142220
  0
VERTEX
  8
7
 62
     7
  6
CONTINUOUS
 10
-1.500323
 20
0.130272
  0
VERTEX
  8
7
 62
     7
  6
CONTINUOUS
 10
-1.490496
 20
0.120437
  0
VERTEX
  8
7
 62
     7
  6
CONTINUOUS
 10
-1.484181
 20
0.114823
  0
VERTEX
  8
7
 62
     7
  6
CONTINUOUS
 10
-1.482083
 20
0.112724
  0
VERTEX
  8
7
 62
     7
  6
CONTINUOUS
 10
-1.479264
 20
0.116933
  0
VERTEX
  8
7
 62
     7
  6
CONTINUOUS
 10
-1.470831
 20
0.127469
  0
VERTEX
  8
7
 62
     7
  6
CONTINUOUS
 10
-1.459610
 20
0.142220
  0
VERTEX
  8
7
 62
     7
  6
CONTINUOUS
 10
-1.446260
 20
0.159768
  0
VERTEX
  8
7
 62
     7
  6
CONTINUOUS
 10
-1.432917
 20
0.177323
  0
VERTEX
  8
7
 62
     7
  6
CONTINUOUS
 10
-1.420992
 20
0.192776
  0
VERTEX
  8
7
 62
     7
  6
CONTINUOUS
 10
-1.412559
 20
0.204012
  0
VERTEX
  8
7
 62
     7
  6
CONTINUOUS
 10
-1.409039
 20
0.208209
  0
VERTEX
  8
7
 62
     7
  6
CONTINUOUS
 10
-1.405531
 20
0.202598
  0
VERTEX
  8
7
 62
     7
  6
CONTINUOUS
 10
-1.397102
 20
0.188551
  0
VERTEX
  8
7
 62
     7
  6
CONTINUOUS
 10
-1.383772
 20
0.168197
  0
VERTEX
  8
7
 62
     7
  6
CONTINUOUS
 10
-1.369024
 20
0.145020
  0
VERTEX
  8
7
 62
     7
  6
CONTINUOUS
 10
-1.354276
 20
0.122547
  0
VERTEX
  8
7
 62
     7
  6
CONTINUOUS
 10
-1.341634
 20
0.102193
  0
VERTEX
  8
7
 62
     7
  6
CONTINUOUS
 10
-1.331807
 20
0.088154
  0
VERTEX
  8
7
 62
     7
  6
CONTINUOUS
 10
-1.328291
 20
0.083217
  0
VERTEX
  8
7
 62
     7
  6
CONTINUOUS
 10
-1.326181
 20
0.081811
  0
VERTEX
  8
7
 62
     7
  6
CONTINUOUS
 10
-1.321264
 20
0.077606
  0
VERTEX
  8
7
 62
     7
  6
CONTINUOUS
 10
-1.312843
 20
0.070598
  0
VERTEX
  8
7
 62
     7
  6
CONTINUOUS
 10
-1.301614
 20
0.062161
  0
VERTEX
  8
7
 62
     7
  6
CONTINUOUS
 10
-1.288260
 20
0.052319
  0
VERTEX
  8
7
 62
     7
  6
CONTINUOUS
 10
-1.273516
 20
0.041094
  0
VERTEX
  8
7
 62
     7
  6
CONTINUOUS
 10
-1.258079
 20
0.029146
  0
VERTEX
  8
7
 62
     7
  6
CONTINUOUS
 10
-1.241921
 20
0.016516
  0
VERTEX
  8
7
 62
     7
  6
CONTINUOUS
 10
-1.225764
 20
0.004579
  0
VERTEX
  8
7
 62
     7
  6
CONTINUOUS
 10
-1.209618
 20
-0.007354
  0
VERTEX
  8
7
 62
     7
  6
CONTINUOUS
 10
-1.194878
 20
-0.018591
  0
VERTEX
  8
7
 62
     7
  6
CONTINUOUS
 10
-1.182228
 20
-0.029126
  0
VERTEX
  8
7
 62
     7
  6
CONTINUOUS
 10
-1.171000
 20
-0.037547
  0
VERTEX
  8
7
 62
     7
  6
CONTINUOUS
 10
-1.162571
 20
-0.043878
  0
VERTEX
  8
7
 62
     7
  6
CONTINUOUS
 10
-1.156949
 20
-0.048075
  0
VERTEX
  8
7
 62
     7
  6
CONTINUOUS
 10
-1.154843
 20
-0.049496
  0
SEQEND
  8
0
  0
POLYLINE
  8
7
 62
     7
  6
CONTINUOUS
 66
     1
 40
0.003000
 41
0.003000
  0
VERTEX
  8
7
 62
     7
  6
CONTINUOUS
 10
-0.088197
 20
0.060067
  0
VERTEX
  8
7
 62
     7
  6
CONTINUOUS
 10
-0.058705
 20
-0.262256
  0
VERTEX
  8
7
 62
     7
  6
CONTINUOUS
 10
-0.312909
 20
-0.232760
  0
VERTEX
  8
7
 62
     7
  6
CONTINUOUS
 10
-0.315705
 20
-0.185028
  0
VERTEX
  8
7
 62
     7
  6
CONTINUOUS
 10
-0.320622
 20
-0.078980
  0
VERTEX
  8
7
 62
     7
  6
CONTINUOUS
 10
-0.325539
 20
0.026343
  0
VERTEX
  8
7
 62
     7
  6
CONTINUOUS
 10
-0.327650
 20
0.074803
  0
VERTEX
  8
7
 62
     7
  6
CONTINUOUS
 10
-0.330449
 20
0.072693
  0
VERTEX
  8
7
 62
     7
  6
CONTINUOUS
 10
-0.338169
 20
0.067071
  0
VERTEX
  8
7
 62
     7
  6
CONTINUOUS
 10
-0.350114
 20
0.057949
  0
VERTEX
  8
7
 62
     7
  6
CONTINUOUS
 10
-0.366976
 20
0.045307
  0
VERTEX
  8
7
 62
     7
  6
CONTINUOUS
 10
-0.387335
 20
0.029858
  0
VERTEX
  8
7
 62
     7
  6
CONTINUOUS
 10
-0.411913
 20
0.011602
  0
VERTEX
  8
7
 62
     7
  6
CONTINUOUS
 10
-0.439299
 20
-0.008760
  0
VERTEX
  8
7
 62
     7
  6
CONTINUOUS
 10
-0.469500
 20
-0.031937
  0
VERTEX
  8
7
 62
     7
  6
CONTINUOUS
 10
-0.502500
 20
-0.056516
  0
VERTEX
  8
7
 62
     7
  6
CONTINUOUS
 10
-0.538307
 20
-0.083193
  0
VERTEX
  8
7
 62
     7
  6
CONTINUOUS
 10
-0.575528
 20
-0.111984
  0
VERTEX
  8
7
 62
     7
  6
CONTINUOUS
 10
-0.614846
 20
-0.140783
  0
VERTEX
  8
7
 62
     7
  6
CONTINUOUS
 10
-0.654882
 20
-0.171673
  0
VERTEX
  8
7
 62
     7
  6
CONTINUOUS
 10
-0.696295
 20
-0.202575
  0
VERTEX
  8
7
 62
     7
  6
CONTINUOUS
 10
-0.738441
 20
-0.234181
  0
VERTEX
  8
7
 62
     7
  6
CONTINUOUS
 10
-0.781268
 20
-0.266472
  0
VERTEX
  8
7
 62
     7
  6
CONTINUOUS
 10
-0.823398
 20
-0.298075
  0
VERTEX
  8
7
 62
     7
  6
CONTINUOUS
 10
-0.865539
 20
-0.329669
  0
VERTEX
  8
7
 62
     7
  6
CONTINUOUS
 10
-0.906976
 20
-0.361276
  0
VERTEX
  8
7
 62
     7
  6
CONTINUOUS
 10
-0.947697
 20
-0.391465
  0
VERTEX
  8
7
 62
     7
  6
CONTINUOUS
 10
-0.986311
 20
-0.420961
  0
VERTEX
  8
7
 62
     7
  6
CONTINUOUS
 10
-1.023531
 20
-0.449051
  0
VERTEX
  8
7
 62
     7
  6
CONTINUOUS
 10
-1.059346
 20
-0.475728
  0
VERTEX
  8
7
 62
     7
  6
CONTINUOUS
 10
-1.092346
 20
-0.501012
  0
VERTEX
  8
7
 62
     7
  6
CONTINUOUS
 10
-1.122547
 20
-0.523484
  0
VERTEX
  8
7
 62
     7
  6
CONTINUOUS
 10
-1.149937
 20
-0.544543
  0
VERTEX
  8
7
 62
     7
  6
CONTINUOUS
 10
-1.174508
 20
-0.562803
  0
VERTEX
  8
7
 62
     7
  6
CONTINUOUS
 10
-1.194878
 20
-0.578256
  0
VERTEX
  8
7
 62
     7
  6
CONTINUOUS
 10
-1.211020
 20
-0.590197
  0
VERTEX
  8
7
 62
     7
  6
CONTINUOUS
 10
-1.223665
 20
-0.599319
  0
VERTEX
  8
7
 62
     7
  6
CONTINUOUS
 10
-1.230681
 20
-0.604933
  0
VERTEX
  8
7
 62
     7
  6
CONTINUOUS
 10
-1.233500
 20
-0.607043
  0
VERTEX
  8
7
 62
     7
  6
CONTINUOUS
 10
-1.235591
 20
-0.609146
  0
VERTEX
  8
7
 62
     7
  6
CONTINUOUS
 10
-1.241224
 20
-0.614772
  0
VERTEX
  8
7
 62
     7
  6
CONTINUOUS
 10
-1.250346
 20
-0.623185
  0
VERTEX
  8
7
 62
     7
  6
CONTINUOUS
 10
-1.262287
 20
-0.633732
  0
VERTEX
  8
7
 62
     7
  6
CONTINUOUS
 10
-1.276323
 20
-0.646366
  0
VERTEX
  8
7
 62
     7
  6
CONTINUOUS
 10
-1.291780
 20
-0.661106
  0
VERTEX
  8
7
 62
     7
  6
CONTINUOUS
 10
-1.307933
 20
-0.675858
  0
VERTEX
  8
7
 62
     7
  6
CONTINUOUS
 10
-1.325488
 20
-0.692008
  0
VERTEX
  8
7
 62
     7
  6
CONTINUOUS
 10
-1.342335
 20
-0.707457
  0
VERTEX
  8
7
 62
     7
  6
CONTINUOUS
 10
-1.358476
 20
-0.722909
  0
VERTEX
  8
7
 62
     7
  6
CONTINUOUS
 10
-1.373929
 20
-0.736949
  0
VERTEX
  8
7
 62
     7
  6
CONTINUOUS
 10
-1.387984
 20
-0.749587
  0
VERTEX
  8
7
 62
     7
  6
CONTINUOUS
 10
-1.399220
 20
-0.760122
  0
VERTEX
  8
7
 62
     7
  6
CONTINUOUS
 10
-1.408339
 20
-0.768547
  0
VERTEX
  8
7
 62
     7
  6
CONTINUOUS
 10
-1.413957
 20
-0.773461
  0
VERTEX
  8
7
 62
     7
  6
CONTINUOUS
 10
-1.416063
 20
-0.775575
  0
VERTEX
  8
7
 62
     7
  6
CONTINUOUS
 10
-1.418878
 20
-0.776272
  0
VERTEX
  8
7
 62
     7
  6
CONTINUOUS
 10
-1.426594
 20
-0.776976
  0
VERTEX
  8
7
 62
     7
  6
CONTINUOUS
 10
-1.437839
 20
-0.778382
  0
VERTEX
  8
7
 62
     7
  6
CONTINUOUS
 10
-1.453295
 20
-0.780476
  0
VERTEX
  8
7
 62
     7
  6
CONTINUOUS
 10
-1.470831
 20
-0.782594
  0
VERTEX
  8
7
 62
     7
  6
CONTINUOUS
 10
-1.490496
 20
-0.785406
  0
VERTEX
  8
7
 62
     7
  6
CONTINUOUS
 10
-1.511575
 20
-0.788213
  0
VERTEX
  8
7
 62
     7
  6
CONTINUOUS
 10
-1.533339
 20
-0.791024
  0
VERTEX
  8
7
 62
     7
  6
CONTINUOUS
 10
-1.555110
 20
-0.793835
  0
VERTEX
  8
7
 62
     7
  6
CONTINUOUS
 10
-1.576173
 20
-0.795925
  0
VERTEX
  8
7
 62
     7
  6
CONTINUOUS
 10
-1.595831
 20
-0.798744
  0
VERTEX
  8
7
 62
     7
  6
CONTINUOUS
 10
-1.614087
 20
-0.800854
  0
VERTEX
  8
7
 62
     7
  6
CONTINUOUS
 10
-1.628835
 20
-0.802949
  0
VERTEX
  8
7
 62
     7
  6
CONTINUOUS
 10
-1.640075
 20
-0.804362
  0
VERTEX
  8
7
 62
     7
  6
CONTINUOUS
 10
-1.647098
 20
-0.805063
  0
VERTEX
  8
7
 62
     7
  6
CONTINUOUS
 10
-1.649894
 20
-0.805063
  0
VERTEX
  8
7
 62
     7
  6
CONTINUOUS
 10
-1.652012
 20
-0.805063
  0
VERTEX
  8
7
 62
     7
  6
CONTINUOUS
 10
-1.659028
 20
-0.803654
  0
VERTEX
  8
7
 62
     7
  6
CONTINUOUS
 10
-1.668862
 20
-0.802252
  0
VERTEX
  8
7
 62
     7
  6
CONTINUOUS
 10
-1.682205
 20
-0.799445
  0
VERTEX
  8
7
 62
     7
  6
CONTINUOUS
 10
-1.697650
 20
-0.797331
  0
VERTEX
  8
7
 62
     7
  6
CONTINUOUS
 10
-1.715205
 20
-0.793835
  0
VERTEX
  8
7
 62
     7
  6
CONTINUOUS
 10
-1.733465
 20
-0.791024
  0
VERTEX
  8
7
 62
     7
  6
CONTINUOUS
 10
-1.752425
 20
-0.787516
  0
VERTEX
  8
7
 62
     7
  6
CONTINUOUS
 10
-1.771382
 20
-0.783996
  0
VERTEX
  8
7
 62
     7
  6
CONTINUOUS
 10
-1.790343
 20
-0.780476
  0
VERTEX
  8
7
 62
     7
  6
CONTINUOUS
 10
-1.807193
 20
-0.777685
  0
VERTEX
  8
7
 62
     7
  6
CONTINUOUS
 10
-1.822646
 20
-0.774878
  0
VERTEX
  8
7
 62
     7
  6
CONTINUOUS
 10
-1.835984
 20
-0.772059
  0
VERTEX
  8
7
 62
     7
  6
CONTINUOUS
 10
-1.845815
 20
-0.770657
  0
VERTEX
  8
7
 62
     7
  6
CONTINUOUS
 10
-1.852130
 20
-0.769244
  0
VERTEX
  8
7
 62
     7
  6
CONTINUOUS
 10
-1.854240
 20
-0.768547
  0
VERTEX
  8
7
 62
     7
  6
CONTINUOUS
 10
-1.851429
 20
-0.765740
  0
VERTEX
  8
7
 62
     7
  6
CONTINUOUS
 10
-1.843016
 20
-0.758016
  0
VERTEX
  8
7
 62
     7
  6
CONTINUOUS
 10
-1.828965
 20
-0.745382
  0
VERTEX
  8
7
 62
     7
  6
CONTINUOUS
 10
-1.810004
 20
-0.727819
  0
VERTEX
  8
7
 62
     7
  6
CONTINUOUS
 10
-1.786122
 20
-0.706752
  0
VERTEX
  8
7
 62
     7
  6
CONTINUOUS
 10
-1.758736
 20
-0.681469
  0
VERTEX
  8
7
 62
     7
  6
CONTINUOUS
 10
-1.727146
 20
-0.652681
  0
VERTEX
  8
7
 62
     7
  6
CONTINUOUS
 10
-1.692740
 20
-0.621091
  0
VERTEX
  8
7
 62
     7
  6
CONTINUOUS
 10
-1.654823
 20
-0.586681
  0
VERTEX
  8
7
 62
     7
  6
CONTINUOUS
 10
-1.614087
 20
-0.549457
  0
VERTEX
  8
7
 62
     7
  6
CONTINUOUS
 10
-1.571256
 20
-0.510138
  0
VERTEX
  8
7
 62
     7
  6
CONTINUOUS
 10
-1.526303
 20
-0.469421
  0
VERTEX
  8
7
 62
     7
  6
CONTINUOUS
 10
-1.479969
 20
-0.427276
  0
VERTEX
  8
7
 62
     7
  6
CONTINUOUS
 10
-1.432917
 20
-0.384441
  0
VERTEX
  8
7
 62
     7
  6
CONTINUOUS
 10
-1.384472
 20
-0.340205
  0
VERTEX
  8
7
 62
     7
  6
CONTINUOUS
 10
-1.336016
 20
-0.295961
  0
VERTEX
  8
7
 62
     7
  6
CONTINUOUS
 10
-1.287563
 20
-0.251728
  0
VERTEX
  8
7
 62
     7
  6
CONTINUOUS
 10
-1.239110
 20
-0.207484
  0
VERTEX
  8
7
 62
     7
  6
CONTINUOUS
 10
-1.192059
 20
-0.164646
  0
VERTEX
  8
7
 62
     7
  6
CONTINUOUS
 10
-1.145720
 20
-0.121819
  0
VERTEX
  8
7
 62
     7
  6
CONTINUOUS
 10
-1.100760
 20
-0.081098
  0
VERTEX
  8
7
 62
     7
  6
CONTINUOUS
 10
-1.057937
 20
-0.042480
  0
VERTEX
  8
7
 62
     7
  6
CONTINUOUS
 10
-1.017220
 20
-0.005252
  0
VERTEX
  8
7
 62
     7
  6
CONTINUOUS
 10
-0.979299
 20
0.029146
  0
VERTEX
  8
7
 62
     7
  6
CONTINUOUS
 10
-0.944882
 20
0.061461
  0
VERTEX
  8
7
 62
     7
  6
CONTINUOUS
 10
-0.913283
 20
0.090252
  0
VERTEX
  8
7
 62
     7
  6
CONTINUOUS
 10
-0.885193
 20
0.115528
  0
VERTEX
  8
7
 62
     7
  6
CONTINUOUS
 10
-0.862020
 20
0.136602
  0
VERTEX
  8
7
 62
     7
  6
CONTINUOUS
 10
-0.843075
 20
0.154142
  0
VERTEX
  8
7
 62
     7
  6
CONTINUOUS
 10
-0.829024
 20
0.166791
  0
VERTEX
  8
7
 62
     7
  6
CONTINUOUS
 10
-0.819894
 20
0.174508
  0
VERTEX
  8
7
 62
     7
  6
CONTINUOUS
 10
-0.817083
 20
0.177323
  0
VERTEX
  8
7
 62
     7
  6
CONTINUOUS
 10
-0.820594
 20
0.178724
  0
VERTEX
  8
7
 62
     7
  6
CONTINUOUS
 10
-0.830433
 20
0.183650
  0
VERTEX
  8
7
 62
     7
  6
CONTINUOUS
 10
-0.845870
 20
0.189965
  0
VERTEX
  8
7
 62
     7
  6
CONTINUOUS
 10
-0.865539
 20
0.199083
  0
VERTEX
  8
7
 62
     7
  6
CONTINUOUS
 10
-0.888713
 20
0.209610
  0
VERTEX
  8
7
 62
     7
  6
CONTINUOUS
 10
-0.914681
 20
0.221559
  0
VERTEX
  8
7
 62
     7
  6
CONTINUOUS
 10
-0.942079
 20
0.234201
  0
VERTEX
  8
7
 62
     7
  6
CONTINUOUS
 10
-0.970870
 20
0.247531
  0
VERTEX
  8
7
 62
     7
  6
CONTINUOUS
 10
-0.999661
 20
0.260185
  0
VERTEX
  8
7
 62
     7
  6
CONTINUOUS
 10
-1.027047
 20
0.272819
  0
VERTEX
  8
7
 62
     7
  6
CONTINUOUS
 10
-1.053028
 20
0.284756
  0
VERTEX
  8
7
 62
     7
  6
CONTINUOUS
 10
-1.076197
 20
0.295295
  0
VERTEX
  8
7
 62
     7
  6
CONTINUOUS
 10
-1.095854
 20
0.304425
  0
VERTEX
  8
7
 62
     7
  6
CONTINUOUS
 10
-1.111295
 20
0.310744
  0
VERTEX
  8
7
 62
     7
  6
CONTINUOUS
 10
-1.120441
 20
0.315650
  0
VERTEX
  8
7
 62
     7
  6
CONTINUOUS
 10
-1.123941
 20
0.317055
  0
VERTEX
  8
7
 62
     7
  6
CONTINUOUS
 10
-1.123244
 20
0.324787
  0
VERTEX
  8
7
 62
     7
  6
CONTINUOUS
 10
-1.121146
 20
0.343039
  0
VERTEX
  8
7
 62
     7
  6
CONTINUOUS
 10
-1.118327
 20
0.360591
  0
VERTEX
  8
7
 62
     7
  6
CONTINUOUS
 10
-1.116929
 20
0.368323
  0
VERTEX
  8
7
 62
     7
  6
CONTINUOUS
 10
-1.118327
 20
0.369020
  0
VERTEX
  8
7
 62
     7
  6
CONTINUOUS
 10
-1.122547
 20
0.369724
  0
VERTEX
  8
7
 62
     7
  6
CONTINUOUS
 10
-1.129567
 20
0.371843
  0
VERTEX
  8
7
 62
     7
  6
CONTINUOUS
 10
-1.137996
 20
0.373917
  0
VERTEX
  8
7
 62
     7
  6
CONTINUOUS
 10
-1.147827
 20
0.376752
  0
VERTEX
  8
7
 62
     7
  6
CONTINUOUS
 10
-1.159051
 20
0.379559
  0
VERTEX
  8
7
 62
     7
  6
CONTINUOUS
 10
-1.171000
 20
0.383063
  0
VERTEX
  8
7
 62
     7
  6
CONTINUOUS
 10
-1.182933
 20
0.386579
  0
VERTEX
  8
7
 62
     7
  6
CONTINUOUS
 10
-1.195579
 20
0.390091
  0
VERTEX
  8
7
 62
     7
  6
CONTINUOUS
 10
-1.207504
 20
0.393602
  0
VERTEX
  8
7
 62
     7
  6
CONTINUOUS
 10
-1.218047
 20
0.396413
  0
VERTEX
  8
7
 62
     7
  6
CONTINUOUS
 10
-1.227874
 20
0.399213
  0
VERTEX
  8
7
 62
     7
  6
CONTINUOUS
 10
-1.236295
 20
0.401327
  0
VERTEX
  8
7
 62
     7
  6
CONTINUOUS
 10
-1.242622
 20
0.403437
  0
VERTEX
  8
7
 62
     7
  6
CONTINUOUS
 10
-1.246827
 20
0.404134
  0
VERTEX
  8
7
 62
     7
  6
CONTINUOUS
 10
-1.248240
 20
0.404843
  0
VERTEX
  8
7
 62
     7
  6
CONTINUOUS
 10
-1.244728
 20
0.399213
  0
VERTEX
  8
7
 62
     7
  6
CONTINUOUS
 10
-1.233500
 20
0.385181
  0
VERTEX
  8
7
 62
     7
  6
CONTINUOUS
 10
-1.218744
 20
0.365508
  0
VERTEX
  8
7
 62
     7
  6
CONTINUOUS
 10
-1.201189
 20
0.342327
  0
VERTEX
  8
7
 62
     7
  6
CONTINUOUS
 10
-1.183642
 20
0.319157
  0
VERTEX
  8
7
 62
     7
  6
CONTINUOUS
 10
-1.168874
 20
0.299500
  0
VERTEX
  8
7
 62
     7
  6
CONTINUOUS
 10
-1.157650
 20
0.285461
  0
VERTEX
  8
7
 62
     7
  6
CONTINUOUS
 10
-1.153453
 20
0.279843
  0
VERTEX
  8
7
 62
     7
  6
CONTINUOUS
 10
-1.152039
 20
0.281252
  0
VERTEX
  8
7
 62
     7
  6
CONTINUOUS
 10
-1.147827
 20
0.285461
  0
VERTEX
  8
7
 62
     7
  6
CONTINUOUS
 10
-1.142205
 20
0.291783
  0
VERTEX
  8
7
 62
     7
  6
CONTINUOUS
 10
-1.135886
 20
0.298807
  0
VERTEX
  8
7
 62
     7
  6
CONTINUOUS
 10
-1.128862
 20
0.305122
  0
VERTEX
  8
7
 62
     7
  6
CONTINUOUS
 10
-1.123244
 20
0.311449
  0
VERTEX
  8
7
 62
     7
  6
CONTINUOUS
 10
-1.119028
 20
0.315650
  0
VERTEX
  8
7
 62
     7
  6
CONTINUOUS
 10
-1.117626
 20
0.317055
  0
SEQEND
  8
0
  0
POLYLINE
  8
7
 62
     7
  6
CONTINUOUS
 66
     1
 40
0.003000
 41
0.003000
  0
VERTEX
  8
7
 62
     7
  6
CONTINUOUS
 10
-1.753823
 20
-0.703941
  0
VERTEX
  8
7
 62
     7
  6
CONTINUOUS
 10
-1.505256
 20
-0.608445
  0
VERTEX
  8
7
 62
     7
  6
CONTINUOUS
 10
-1.380957
 20
-0.557181
  0
VERTEX
  8
7
 62
     7
  6
CONTINUOUS
 10
-1.227874
 20
-0.600728
  0
SEQEND
  8
0
  0
POLYLINE
  8
7
 62
     7
  6
CONTINUOUS
 66
     1
 40
0.003000
 41
0.003000
  0
VERTEX
  8
7
 62
     7
  6
CONTINUOUS
 10
-1.256677
 20
-0.241193
  0
VERTEX
  8
7
 62
     7
  6
CONTINUOUS
 10
-1.052323
 20
-0.211697
  0
VERTEX
  8
7
 62
     7
  6
CONTINUOUS
 10
-1.088835
 20
-0.291047
  0
VERTEX
  8
7
 62
     7
  6
CONTINUOUS
 10
-1.086724
 20
-0.291047
  0
VERTEX
  8
7
 62
     7
  6
CONTINUOUS
 10
-1.081807
 20
-0.289654
  0
VERTEX
  8
7
 62
     7
  6
CONTINUOUS
 10
-1.074087
 20
-0.288252
  0
VERTEX
  8
7
 62
     7
  6
CONTINUOUS
 10
-1.063559
 20
-0.285413
  0
VERTEX
  8
7
 62
     7
  6
CONTINUOUS
 10
-1.051618
 20
-0.283331
  0
VERTEX
  8
7
 62
     7
  6
CONTINUOUS
 10
-1.038280
 20
-0.279815
  0
VERTEX
  8
7
 62
     7
  6
CONTINUOUS
 10
-1.023531
 20
-0.277008
  0
VERTEX
  8
7
 62
     7
  6
CONTINUOUS
 10
-1.008083
 20
-0.273492
  0
VERTEX
  8
7
 62
     7
  6
CONTINUOUS
 10
-0.993331
 20
-0.269980
  0
VERTEX
  8
7
 62
     7
  6
CONTINUOUS
 10
-0.978598
 20
-0.266472
  0
VERTEX
  8
7
 62
     7
  6
CONTINUOUS
 10
-0.965256
 20
-0.263665
  0
VERTEX
  8
7
 62
     7
  6
CONTINUOUS
 10
-0.953315
 20
-0.260858
  0
VERTEX
  8
7
 62
     7
  6
CONTINUOUS
 10
-0.942783
 20
-0.258043
  0
VERTEX
  8
7
 62
     7
  6
CONTINUOUS
 10
-0.935063
 20
-0.256634
  0
VERTEX
  8
7
 62
     7
  6
CONTINUOUS
 10
-0.930146
 20
-0.255248
  0
VERTEX
  8
7
 62
     7
  6
CONTINUOUS
 10
-0.928028
 20
-0.254531
  0
VERTEX
  8
7
 62
     7
  6
CONTINUOUS
 10
-0.926626
 20
-0.253130
  0
VERTEX
  8
7
 62
     7
  6
CONTINUOUS
 10
-0.922425
 20
-0.248213
  0
VERTEX
  8
7
 62
     7
  6
CONTINUOUS
 10
-0.915390
 20
-0.241193
  0
VERTEX
  8
7
 62
     7
  6
CONTINUOUS
 10
-0.906260
 20
-0.232067
  0
VERTEX
  8
7
 62
     7
  6
CONTINUOUS
 10
-0.895740
 20
-0.220839
  0
VERTEX
  8
7
 62
     7
  6
CONTINUOUS
 10
-0.884488
 20
-0.208894
  0
VERTEX
  8
7
 62
     7
  6
CONTINUOUS
 10
-0.871854
 20
-0.195555
  0
VERTEX
  8
7
 62
     7
  6
CONTINUOUS
 10
-0.858524
 20
-0.182205
  0
VERTEX
  8
7
 62
     7
  6
CONTINUOUS
 10
-0.845870
 20
-0.168866
  0
VERTEX
  8
7
 62
     7
  6
CONTINUOUS
 10
-0.833236
 20
-0.155520
  0
VERTEX
  8
7
 62
     7
  6
CONTINUOUS
 10
-0.822000
 20
-0.142886
  0
VERTEX
  8
7
 62
     7
  6
CONTINUOUS
 10
-0.811465
 20
-0.131650
  0
VERTEX
  8
7
 62
     7
  6
CONTINUOUS
 10
-0.802331
 20
-0.122520
  0
VERTEX
  8
7
 62
     7
  6
CONTINUOUS
 10
-0.795319
 20
-0.115496
  0
VERTEX
  8
7
 62
     7
  6
CONTINUOUS
 10
-0.791102
 20
-0.110591
  0
VERTEX
  8
7
 62
     7
  6
CONTINUOUS
 10
-0.789697
 20
-0.109169
  0
VERTEX
  8
7
 62
     7
  6
CONTINUOUS
 10
-0.906260
 20
-0.079685
  0
VERTEX
  8
7
 62
     7
  6
CONTINUOUS
 10
-1.008791
 20
-0.123925
  0
VERTEX
  8
7
 62
     7
  6
CONTINUOUS
 10
-1.118327
 20
-0.101457
  0
SEQEND
  8
0
  0
POLYLINE
  8
7
 62
     7
  6
CONTINUOUS
 66
     1
 40
0.003000
 41
0.003000
  0
VERTEX
  8
7
 62
     7
  6
CONTINUOUS
 10
-1.052323
 20
-0.204677
  0
VERTEX
  8
7
 62
     7
  6
CONTINUOUS
 10
-0.964551
 20
-0.109169
  0
SEQEND
  8
0
  0
POLYLINE
  8
7
 62
     7
  6
CONTINUOUS
 66
     1
 40
0.003000
 41
0.003000
  0
VERTEX
  8
7
 62
     7
  6
CONTINUOUS
 10
-0.913283
 20
-0.226449
  0
VERTEX
  8
7
 62
     7
  6
CONTINUOUS
 10
-0.862724
 20
-0.314937
  0
SEQEND
  8
0
  0
POLYLINE
  8
7
 62
     7
  6
CONTINUOUS
 66
     1
 40
0.003000
 41
0.003000
  0
VERTEX
  8
7
 62
     7
  6
CONTINUOUS
 10
-0.840252
 20
-0.138669
  0
VERTEX
  8
7
 62
     7
  6
CONTINUOUS
 10
-0.781976
 20
-0.255929
  0
SEQEND
  8
0
  0
POLYLINE
  8
7
 62
     7
  6
CONTINUOUS
 66
     1
 40
0.003000
 41
0.003000
  0
VERTEX
  8
7
 62
     7
  6
CONTINUOUS
 10
-0.577626
 20
-0.138669
  0
VERTEX
  8
7
 62
     7
  6
CONTINUOUS
 10
-0.577626
 20
-0.291752
  0
VERTEX
  8
7
 62
     7
  6
CONTINUOUS
 10
-0.307287
 20
-0.255248
  0
SEQEND
  8
0
  0
POLYLINE
  8
7
 62
     7
  6
CONTINUOUS
 66
     1
 40
0.003000
 41
0.003000
  0
VERTEX
  8
7
 62
     7
  6
CONTINUOUS
 10
-0.730713
 20
-0.262961
  0
VERTEX
  8
7
 62
     7
  6
CONTINUOUS
 10
-0.423858
 20
-0.409012
  0
VERTEX
  8
7
 62
     7
  6
CONTINUOUS
 10
-0.102933
 20
-0.386543
  0
VERTEX
  8
7
 62
     7
  6
CONTINUOUS
 10
-0.101539
 20
-0.385846
  0
VERTEX
  8
7
 62
     7
  6
CONTINUOUS
 10
-0.097331
 20
-0.385138
  0
VERTEX
  8
7
 62
     7
  6
CONTINUOUS
 10
-0.091000
 20
-0.383035
  0
VERTEX
  8
7
 62
     7
  6
CONTINUOUS
 10
-0.082563
 20
-0.380224
  0
VERTEX
  8
7
 62
     7
  6
CONTINUOUS
 10
-0.072051
 20
-0.376717
  0
VERTEX
  8
7
 62
     7
  6
CONTINUOUS
 10
-0.059409
 20
-0.372512
  0
VERTEX
  8
7
 62
     7
  6
CONTINUOUS
 10
-0.044665
 20
-0.368291
  0
VERTEX
  8
7
 62
     7
  6
CONTINUOUS
 10
-0.028508
 20
-0.363374
  0
VERTEX
  8
7
 62
     7
  6
CONTINUOUS
 10
-0.011646
 20
-0.357764
  0
VERTEX
  8
7
 62
     7
  6
CONTINUOUS
 10
0.007311
 20
-0.351449
  0
VERTEX
  8
7
 62
     7
  6
CONTINUOUS
 10
0.026969
 20
-0.345122
  0
VERTEX
  8
7
 62
     7
  6
CONTINUOUS
 10
0.047331
 20
-0.338803
  0
VERTEX
  8
7
 62
     7
  6
CONTINUOUS
 10
0.068406
 20
-0.331776
  0
VERTEX
  8
7
 62
     7
  6
CONTINUOUS
 10
0.090165
 20
-0.324752
  0
VERTEX
  8
7
 62
     7
  6
CONTINUOUS
 10
0.111925
 20
-0.317728
  0
VERTEX
  8
7
 62
     7
  6
CONTINUOUS
 10
0.134398
 20
-0.310717
  0
VERTEX
  8
7
 62
     7
  6
CONTINUOUS
 10
0.156874
 20
-0.303685
  0
VERTEX
  8
7
 62
     7
  6
CONTINUOUS
 10
0.178642
 20
-0.296661
  0
VERTEX
  8
7
 62
     7
  6
CONTINUOUS
 10
0.200417
 20
-0.289654
  0
VERTEX
  8
7
 62
     7
  6
CONTINUOUS
 10
0.221480
 20
-0.282626
  0
VERTEX
  8
7
 62
     7
  6
CONTINUOUS
 10
0.241843
 20
-0.276295
  0
VERTEX
  8
7
 62
     7
  6
CONTINUOUS
 10
0.261508
 20
-0.269980
  0
VERTEX
  8
7
 62
     7
  6
CONTINUOUS
 10
0.280457
 20
-0.263665
  0
VERTEX
  8
7
 62
     7
  6
CONTINUOUS
 10
0.297315
 20
-0.258043
  0
VERTEX
  8
7
 62
     7
  6
CONTINUOUS
 10
0.313472
 20
-0.253130
  0
VERTEX
  8
7
 62
     7
  6
CONTINUOUS
 10
0.328220
 20
-0.248213
  0
VERTEX
  8
7
 62
     7
  6
CONTINUOUS
 10
0.340850
 20
-0.243996
  0
VERTEX
  8
7
 62
     7
  6
CONTINUOUS
 10
0.351386
 20
-0.240496
  0
VERTEX
  8
7
 62
     7
  6
CONTINUOUS
 10
0.359807
 20
-0.237685
  0
VERTEX
  8
7
 62
     7
  6
CONTINUOUS
 10
0.366134
 20
-0.235575
  0
VERTEX
  8
7
 62
     7
  6
CONTINUOUS
 10
0.370358
 20
-0.234862
  0
VERTEX
  8
7
 62
     7
  6
CONTINUOUS
 10
0.371748
 20
-0.234181
  0
VERTEX
  8
7
 62
     7
  6
CONTINUOUS
 10
0.759378
 20
0.030563
  0
VERTEX
  8
7
 62
     7
  6
CONTINUOUS
 10
0.773413
 20
-0.079685
  0
VERTEX
  8
7
 62
     7
  6
CONTINUOUS
 10
1.182803
 20
0.022850
  0
VERTEX
  8
7
 62
     7
  6
CONTINUOUS
 10
1.102740
 20
0.140815
  0
VERTEX
  8
7
 62
     7
  6
CONTINUOUS
 10
1.307091
 20
0.089543
  0
VERTEX
  8
7
 62
     7
  6
CONTINUOUS
 10
1.182803
 20
0.243339
  0
VERTEX
  8
7
 62
     7
  6
CONTINUOUS
 10
1.481949
 20
0.192075
  0
VERTEX
  8
7
 62
     7
  6
CONTINUOUS
 10
1.182803
 20
0.397815
  0
VERTEX
  8
7
 62
     7
  6
CONTINUOUS
 10
1.102740
 20
0.632343
  0
SEQEND
  8
0
  0
POLYLINE
  8
7
 62
     7
  6
CONTINUOUS
 66
     1
 40
0.003000
 41
0.003000
  0
VERTEX
  8
7
 62
     7
  6
CONTINUOUS
 10
0.313472
 20
0.140815
  0
VERTEX
  8
7
 62
     7
  6
CONTINUOUS
 10
0.620339
 20
0.294587
  0
VERTEX
  8
7
 62
     7
  6
CONTINUOUS
 10
0.562051
 20
0.317055
  0
VERTEX
  8
7
 62
     7
  6
CONTINUOUS
 10
0.759378
 20
0.412551
  0
VERTEX
  8
7
 62
     7
  6
CONTINUOUS
 10
0.686343
 20
0.243339
  0
VERTEX
  8
7
 62
     7
  6
CONTINUOUS
 10
0.627350
 20
0.272819
  0
SEQEND
  8
0
  0
POLYLINE
  8
7
 62
     7
  6
CONTINUOUS
 66
     1
 40
0.003000
 41
0.003000
  0
VERTEX
  8
7
 62
     7
  6
CONTINUOUS
 10
-1.709598
 20
-0.887217
  0
VERTEX
  8
7
 62
     7
  6
CONTINUOUS
 10
-1.666047
 20
-1.474268
  0
VERTEX
  8
7
 62
     7
  6
CONTINUOUS
 10
-1.607776
 20
-1.840122
  0
VERTEX
  8
7
 62
     7
  6
CONTINUOUS
 10
-1.604961
 20
-1.840122
  0
VERTEX
  8
7
 62
     7
  6
CONTINUOUS
 10
-1.595831
 20
-1.839409
  0
VERTEX
  8
7
 62
     7
  6
CONTINUOUS
 10
-1.581783
 20
-1.838004
  0
VERTEX
  8
7
 62
     7
  6
CONTINUOUS
 10
-1.564236
 20
-1.835906
  0
VERTEX
  8
7
 62
     7
  6
CONTINUOUS
 10
-1.543161
 20
-1.833795
  0
VERTEX
  8
7
 62
     7
  6
CONTINUOUS
 10
-1.519988
 20
-1.831681
  0
VERTEX
  8
7
 62
     7
  6
CONTINUOUS
 10
-1.494717
 20
-1.828882
  0
VERTEX
  8
7
 62
     7
  6
CONTINUOUS
 10
-1.468732
 20
-1.826071
  0
VERTEX
  8
7
 62
     7
  6
CONTINUOUS
 10
-1.442760
 20
-1.823264
  0
VERTEX
  8
7
 62
     7
  6
CONTINUOUS
 10
-1.417472
 20
-1.821161
  0
VERTEX
  8
7
 62
     7
  6
CONTINUOUS
 10
-1.394299
 20
-1.818346
  0
VERTEX
  8
7
 62
     7
  6
CONTINUOUS
 10
-1.373232
 20
-1.816244
  0
VERTEX
  8
7
 62
     7
  6
CONTINUOUS
 10
-1.355673
 20
-1.814142
  0
VERTEX
  8
7
 62
     7
  6
CONTINUOUS
 10
-1.341634
 20
-1.812732
  0
VERTEX
  8
7
 62
     7
  6
CONTINUOUS
 10
-1.332504
 20
-1.812035
  0
VERTEX
  8
7
 62
     7
  6
CONTINUOUS
 10
-1.329697
 20
-1.811327
  0
VERTEX
  8
7
 62
     7
  6
CONTINUOUS
 10
-1.328291
 20
-1.811327
  0
VERTEX
  8
7
 62
     7
  6
CONTINUOUS
 10
-1.324083
 20
-1.810622
  0
VERTEX
  8
7
 62
     7
  6
CONTINUOUS
 10
-1.317051
 20
-1.809220
  0
VERTEX
  8
7
 62
     7
  6
CONTINUOUS
 10
-1.307228
 20
-1.807114
  0
VERTEX
  8
7
 62
     7
  6
CONTINUOUS
 10
-1.295984
 20
-1.805008
  0
VERTEX
  8
7
 62
     7
  6
CONTINUOUS
 10
-1.281941
 20
-1.802193
  0
VERTEX
  8
7
 62
     7
  6
CONTINUOUS
 10
-1.266492
 20
-1.798677
  0
VERTEX
  8
7
 62
     7
  6
CONTINUOUS
 10
-1.248941
 20
-1.795878
  0
VERTEX
  8
7
 62
     7
  6
CONTINUOUS
 10
-1.229976
 20
-1.791654
  0
VERTEX
  8
7
 62
     7
  6
CONTINUOUS
 10
-1.209618
 20
-1.788150
  0
VERTEX
  8
7
 62
     7
  6
CONTINUOUS
 10
-1.187850
 20
-1.783941
  0
VERTEX
  8
7
 62
     7
  6
CONTINUOUS
 10
-1.165374
 20
-1.779024
  0
VERTEX
  8
7
 62
     7
  6
CONTINUOUS
 10
-1.142909
 20
-1.774815
  0
VERTEX
  8
7
 62
     7
  6
CONTINUOUS
 10
-1.119028
 20
-1.769906
  0
VERTEX
  8
7
 62
     7
  6
CONTINUOUS
 10
-1.095157
 20
-1.764969
  0
VERTEX
  8
7
 62
     7
  6
CONTINUOUS
 10
-1.070579
 20
-1.760067
  0
VERTEX
  8
7
 62
     7
  6
CONTINUOUS
 10
-1.045996
 20
-1.755150
  0
VERTEX
  8
7
 62
     7
  6
CONTINUOUS
 10
-1.022138
 20
-1.750933
  0
VERTEX
  8
7
 62
     7
  6
CONTINUOUS
 10
-0.998256
 20
-1.746028
  0
VERTEX
  8
7
 62
     7
  6
CONTINUOUS
 10
-0.975783
 20
-1.741106
  0
VERTEX
  8
7
 62
     7
  6
CONTINUOUS
 10
-0.953315
 20
-1.736894
  0
VERTEX
  8
7
 62
     7
  6
CONTINUOUS
 10
-0.931539
 20
-1.732673
  0
VERTEX
  8
7
 62
     7
  6
CONTINUOUS
 10
-0.911177
 20
-1.728465
  0
VERTEX
  8
7
 62
     7
  6
CONTINUOUS
 10
-0.892220
 20
-1.724949
  0
VERTEX
  8
7
 62
     7
  6
CONTINUOUS
 10
-0.874661
 20
-1.721445
  0
VERTEX
  8
7
 62
     7
  6
CONTINUOUS
 10
-0.859220
 20
-1.717937
  0
VERTEX
  8
7
 62
     7
  6
CONTINUOUS
 10
-0.845165
 20
-1.715134
  0
VERTEX
  8
7
 62
     7
  6
CONTINUOUS
 10
-0.833933
 20
-1.713016
  0
VERTEX
  8
7
 62
     7
  6
CONTINUOUS
 10
-0.824106
 20
-1.710898
  0
VERTEX
  8
7
 62
     7
  6
CONTINUOUS
 10
-0.817083
 20
-1.709504
  0
VERTEX
  8
7
 62
     7
  6
CONTINUOUS
 10
-0.812866
 20
-1.708799
  0
VERTEX
  8
7
 62
     7
  6
CONTINUOUS
 10
-0.811465
 20
-1.708106
  0
VERTEX
  8
7
 62
     7
  6
CONTINUOUS
 10
-0.810055
 20
-1.707398
  0
VERTEX
  8
7
 62
     7
  6
CONTINUOUS
 10
-0.804445
 20
-1.705992
  0
VERTEX
  8
7
 62
     7
  6
CONTINUOUS
 10
-0.796713
 20
-1.703185
  0
VERTEX
  8
7
 62
     7
  6
CONTINUOUS
 10
-0.785480
 20
-1.699677
  0
VERTEX
  8
7
 62
     7
  6
CONTINUOUS
 10
-0.771445
 20
-1.695469
  0
VERTEX
  8
7
 62
     7
  6
CONTINUOUS
 10
-0.755295
 20
-1.689843
  0
VERTEX
  8
7
 62
     7
  6
CONTINUOUS
 10
-0.737035
 20
-1.684228
  0
VERTEX
  8
7
 62
     7
  6
CONTINUOUS
 10
-0.716661
 20
-1.677209
  0
VERTEX
  8
7
 62
     7
  6
CONTINUOUS
 10
-0.694209
 20
-1.670177
  0
VERTEX
  8
7
 62
     7
  6
CONTINUOUS
 10
-0.671024
 20
-1.662449
  0
VERTEX
  8
7
 62
     7
  6
CONTINUOUS
 10
-0.645740
 20
-1.654736
  0
VERTEX
  8
7
 62
     7
  6
CONTINUOUS
 10
-0.619768
 20
-1.645606
  0
VERTEX
  8
7
 62
     7
  6
CONTINUOUS
 10
-0.592382
 20
-1.637177
  0
VERTEX
  8
7
 62
     7
  6
CONTINUOUS
 10
-0.564988
 20
-1.628059
  0
VERTEX
  8
7
 62
     7
  6
CONTINUOUS
 10
-0.536205
 20
-1.618925
  0
VERTEX
  8
7
 62
     7
  6
CONTINUOUS
 10
-0.508122
 20
-1.609791
  0
VERTEX
  8
7
 62
     7
  6
CONTINUOUS
 10
-0.480020
 20
-1.600665
  0
VERTEX
  8
7
 62
     7
  6
CONTINUOUS
 10
-0.451232
 20
-1.590835
  0
VERTEX
  8
7
 62
     7
  6
CONTINUOUS
 10
-0.423858
 20
-1.582406
  0
VERTEX
  8
7
 62
     7
  6
CONTINUOUS
 10
-0.396461
 20
-1.573276
  0
VERTEX
  8
7
 62
     7
  6
CONTINUOUS
 10
-0.370484
 20
-1.564854
  0
VERTEX
  8
7
 62
     7
  6
CONTINUOUS
 10
-0.345201
 20
-1.556429
  0
VERTEX
  8
7
 62
     7
  6
CONTINUOUS
 10
-0.322035
 20
-1.548701
  0
VERTEX
  8
7
 62
     7
  6
CONTINUOUS
 10
-0.299567
 20
-1.541685
  0
VERTEX
  8
7
 62
     7
  6
CONTINUOUS
 10
-0.279193
 20
-1.534650
  0
VERTEX
  8
7
 62
     7
  6
CONTINUOUS
 10
-0.260937
 20
-1.528339
  0
VERTEX
  8
7
 62
     7
  6
CONTINUOUS
 10
-0.244791
 20
-1.523417
  0
VERTEX
  8
7
 62
     7
  6
CONTINUOUS
 10
-0.230748
 20
-1.518504
  0
VERTEX
  8
7
 62
     7
  6
CONTINUOUS
 10
-0.219504
 20
-1.514996
  0
VERTEX
  8
7
 62
     7
  6
CONTINUOUS
 10
-0.211780
 20
-1.512189
  0
VERTEX
  8
7
 62
     7
  6
CONTINUOUS
 10
-0.206169
 20
-1.510783
  0
VERTEX
  8
7
 62
     7
  6
CONTINUOUS
 10
-0.204764
 20
-1.510075
  0
VERTEX
  8
7
 62
     7
  6
CONTINUOUS
 10
-0.207567
 20
-1.487602
  0
VERTEX
  8
7
 62
     7
  6
CONTINUOUS
 10
-0.215992
 20
-1.426520
  0
VERTEX
  8
7
 62
     7
  6
CONTINUOUS
 10
-0.227925
 20
-1.340846
  0
VERTEX
  8
7
 62
     7
  6
CONTINUOUS
 10
-0.241272
 20
-1.242539
  0
VERTEX
  8
7
 62
     7
  6
CONTINUOUS
 10
-0.254626
 20
-1.144228
  0
VERTEX
  8
7
 62
     7
  6
CONTINUOUS
 10
-0.266555
 20
-1.058555
  0
VERTEX
  8
7
 62
     7
  6
CONTINUOUS
 10
-0.274984
 20
-0.997472
  0
VERTEX
  8
7
 62
     7
  6
CONTINUOUS
 10
-0.277783
 20
-0.974299
  0
VERTEX
  8
7
 62
     7
  6
CONTINUOUS
 10
-0.280594
 20
-0.973602
  0
VERTEX
  8
7
 62
     7
  6
CONTINUOUS
 10
-0.288327
 20
-0.970787
  0
VERTEX
  8
7
 62
     7
  6
CONTINUOUS
 10
-0.301665
 20
-0.966579
  0
VERTEX
  8
7
 62
     7
  6
CONTINUOUS
 10
-0.319220
 20
-0.960248
  0
VERTEX
  8
7
 62
     7
  6
CONTINUOUS
 10
-0.340287
 20
-0.953228
  0
VERTEX
  8
7
 62
     7
  6
CONTINUOUS
 10
-0.366268
 20
-0.944114
  0
VERTEX
  8
7
 62
     7
  6
CONTINUOUS
 10
-0.395067
 20
-0.934268
  0
VERTEX
  8
7
 62
     7
  6
CONTINUOUS
 10
-0.427358
 20
-0.923031
  0
VERTEX
  8
7
 62
     7
  6
CONTINUOUS
 10
-0.462465
 20
-0.911098
  0
VERTEX
  8
7
 62
     7
  6
CONTINUOUS
 10
-0.499685
 20
-0.898461
  0
VERTEX
  8
7
 62
     7
  6
CONTINUOUS
 10
-0.539000
 20
-0.884409
  0
VERTEX
  8
7
 62
     7
  6
CONTINUOUS
 10
-0.580441
 20
-0.870370
  0
VERTEX
  8
7
 62
     7
  6
CONTINUOUS
 10
-0.623276
 20
-0.855618
  0
VERTEX
  8
7
 62
     7
  6
CONTINUOUS
 10
-0.666799
 20
-0.840874
  0
VERTEX
  8
7
 62
     7
  6
CONTINUOUS
 10
-0.711740
 20
-0.825429
  0
VERTEX
  8
7
 62
     7
  6
CONTINUOUS
 10
-0.755996
 20
-0.809980
  0
VERTEX
  8
7
 62
     7
  6
CONTINUOUS
 10
-0.800933
 20
-0.794531
  0
VERTEX
  8
7
 62
     7
  6
CONTINUOUS
 10
-0.845870
 20
-0.779087
  0
VERTEX
  8
7
 62
     7
  6
CONTINUOUS
 10
-0.889417
 20
-0.764346
  0
VERTEX
  8
7
 62
     7
  6
CONTINUOUS
 10
-0.932244
 20
-0.749587
  0
VERTEX
  8
7
 62
     7
  6
CONTINUOUS
 10
-0.973685
 20
-0.734843
  0
VERTEX
  8
7
 62
     7
  6
CONTINUOUS
 10
-1.013004
 20
-0.721508
  0
VERTEX
  8
7
 62
     7
  6
CONTINUOUS
 10
-1.050217
 20
-0.708862
  0
VERTEX
  8
7
 62
     7
  6
CONTINUOUS
 10
-1.085323
 20
-0.696228
  0
VERTEX
  8
7
 62
     7
  6
CONTINUOUS
 10
-1.117626
 20
-0.685685
  0
VERTEX
  8
7
 62
     7
  6
CONTINUOUS
 10
-1.146421
 20
-0.675154
  0
VERTEX
  8
7
 62
     7
  6
CONTINUOUS
 10
-1.172402
 20
-0.666732
  0
VERTEX
  8
7
 62
     7
  6
CONTINUOUS
 10
-1.193465
 20
-0.659004
  0
VERTEX
  8
7
 62
     7
  6
CONTINUOUS
 10
-1.211020
 20
-0.653386
  0
VERTEX
  8
7
 62
     7
  6
CONTINUOUS
 10
-1.224358
 20
-0.648469
  0
VERTEX
  8
7
 62
     7
  6
CONTINUOUS
 10
-1.232087
 20
-0.645661
  0
VERTEX
  8
7
 62
     7
  6
CONTINUOUS
 10
-1.234894
 20
-0.644965
  0
SEQEND
  8
0
  0
POLYLINE
  8
7
 62
     7
  6
CONTINUOUS
 66
     1
 40
0.003000
 41
0.003000
  0
VERTEX
  8
7
 62
     7
  6
CONTINUOUS
 10
-0.270768
 20
-0.960961
  0
VERTEX
  8
7
 62
     7
  6
CONTINUOUS
 10
0.423000
 20
-0.975000
  0
VERTEX
  8
7
 62
     7
  6
CONTINUOUS
 10
0.489020
 20
-1.554319
  0
VERTEX
  8
7
 62
     7
  6
CONTINUOUS
 10
0.487610
 20
-1.555012
  0
VERTEX
  8
7
 62
     7
  6
CONTINUOUS
 10
0.483402
 20
-1.557823
  0
VERTEX
  8
7
 62
     7
  6
CONTINUOUS
 10
0.477079
 20
-1.562039
  0
VERTEX
  8
7
 62
     7
  6
CONTINUOUS
 10
0.468654
 20
-1.567661
  0
VERTEX
  8
7
 62
     7
  6
CONTINUOUS
 10
0.458823
 20
-1.573276
  0
VERTEX
  8
7
 62
     7
  6
CONTINUOUS
 10
0.447598
 20
-1.580303
  0
VERTEX
  8
7
 62
     7
  6
CONTINUOUS
 10
0.435638
 20
-1.588024
  0
VERTEX
  8
7
 62
     7
  6
CONTINUOUS
 10
0.423717
 20
-1.595047
  0
VERTEX
  8
7
 62
     7
  6
CONTINUOUS
 10
0.411075
 20
-1.602764
  0
VERTEX
  8
7
 62
     7
  6
CONTINUOUS
 10
0.399146
 20
-1.609791
  0
VERTEX
  8
7
 62
     7
  6
CONTINUOUS
 10
0.387898
 20
-1.616815
  0
VERTEX
  8
7
 62
     7
  6
CONTINUOUS
 10
0.378071
 20
-1.623142
  0
VERTEX
  8
7
 62
     7
  6
CONTINUOUS
 10
0.369646
 20
-1.628059
  0
VERTEX
  8
7
 62
     7
  6
CONTINUOUS
 10
0.363319
 20
-1.631563
  0
VERTEX
  8
7
 62
     7
  6
CONTINUOUS
 10
0.359106
 20
-1.634374
  0
VERTEX
  8
7
 62
     7
  6
CONTINUOUS
 10
0.357709
 20
-1.635079
  0
VERTEX
  8
7
 62
     7
  6
CONTINUOUS
 10
0.356303
 20
-1.635079
  0
VERTEX
  8
7
 62
     7
  6
CONTINUOUS
 10
0.352094
 20
-1.635079
  0
VERTEX
  8
7
 62
     7
  6
CONTINUOUS
 10
0.345768
 20
-1.635079
  0
VERTEX
  8
7
 62
     7
  6
CONTINUOUS
 10
0.336642
 20
-1.635079
  0
VERTEX
  8
7
 62
     7
  6
CONTINUOUS
 10
0.326106
 20
-1.635079
  0
VERTEX
  8
7
 62
     7
  6
CONTINUOUS
 10
0.313472
 20
-1.634374
  0
VERTEX
  8
7
 62
     7
  6
CONTINUOUS
 10
0.298728
 20
-1.634374
  0
VERTEX
  8
7
 62
     7
  6
CONTINUOUS
 10
0.282567
 20
-1.634374
  0
VERTEX
  8
7
 62
     7
  6
CONTINUOUS
 10
0.265016
 20
-1.633677
  0
VERTEX
  8
7
 62
     7
  6
CONTINUOUS
 10
0.246055
 20
-1.633677
  0
VERTEX
  8
7
 62
     7
  6
CONTINUOUS
 10
0.225701
 20
-1.633677
  0
VERTEX
  8
7
 62
     7
  6
CONTINUOUS
 10
0.205327
 20
-1.632965
  0
VERTEX
  8
7
 62
     7
  6
CONTINUOUS
 10
0.183551
 20
-1.632965
  0
VERTEX
  8
7
 62
     7
  6
CONTINUOUS
 10
0.161787
 20
-1.632268
  0
VERTEX
  8
7
 62
     7
  6
CONTINUOUS
 10
0.139323
 20
-1.632268
  0
VERTEX
  8
7
 62
     7
  6
CONTINUOUS
 10
0.116846
 20
-1.631563
  0
VERTEX
  8
7
 62
     7
  6
CONTINUOUS
 10
0.093677
 20
-1.631563
  0
VERTEX
  8
7
 62
     7
  6
CONTINUOUS
 10
0.071201
 20
-1.630854
  0
VERTEX
  8
7
 62
     7
  6
CONTINUOUS
 10
0.049425
 20
-1.630854
  0
VERTEX
  8
7
 62
     7
  6
CONTINUOUS
 10
0.027673
 20
-1.630157
  0
VERTEX
  8
7
 62
     7
  6
CONTINUOUS
 10
0.007311
 20
-1.630157
  0
VERTEX
  8
7
 62
     7
  6
CONTINUOUS
 10
-0.013055
 20
-1.629461
  0
VERTEX
  8
7
 62
     7
  6
CONTINUOUS
 10
-0.032012
 20
-1.629461
  0
VERTEX
  8
7
 62
     7
  6
CONTINUOUS
 10
-0.049579
 20
-1.628756
  0
VERTEX
  8
7
 62
     7
  6
CONTINUOUS
 10
-0.065724
 20
-1.628756
  0
VERTEX
  8
7
 62
     7
  6
CONTINUOUS
 10
-0.080472
 20
-1.628059
  0
VERTEX
  8
7
 62
     7
  6
CONTINUOUS
 10
-0.093118
 20
-1.628059
  0
VERTEX
  8
7
 62
     7
  6
CONTINUOUS
 10
-0.103642
 20
-1.628059
  0
VERTEX
  8
7
 62
     7
  6
CONTINUOUS
 10
-0.112764
 20
-1.628059
  0
VERTEX
  8
7
 62
     7
  6
CONTINUOUS
 10
-0.119098
 20
-1.627346
  0
VERTEX
  8
7
 62
     7
  6
CONTINUOUS
 10
-0.123303
 20
-1.627346
  0
VERTEX
  8
7
 62
     7
  6
CONTINUOUS
 10
-0.124717
 20
-1.627346
  0
VERTEX
  8
7
 62
     7
  6
CONTINUOUS
 10
-0.129622
 20
-1.624543
  0
VERTEX
  8
7
 62
     7
  6
CONTINUOUS
 10
-0.141555
 20
-1.616114
  0
VERTEX
  8
7
 62
     7
  6
CONTINUOUS
 10
-0.159118
 20
-1.604886
  0
VERTEX
  8
7
 62
     7
  6
CONTINUOUS
 10
-0.179476
 20
-1.591531
  0
VERTEX
  8
7
 62
     7
  6
CONTINUOUS
 10
-0.199850
 20
-1.578189
  0
VERTEX
  8
7
 62
     7
  6
CONTINUOUS
 10
-0.217394
 20
-1.566256
  0
VERTEX
  8
7
 62
     7
  6
CONTINUOUS
 10
-0.229346
 20
-1.557823
  0
VERTEX
  8
7
 62
     7
  6
CONTINUOUS
 10
-0.234252
 20
-1.555012
  0
SEQEND
  8
0
  0
POLYLINE
  8
7
 62
     7
  6
CONTINUOUS
 66
     1
 40
0.003000
 41
0.003000
  0
VERTEX
  8
7
 62
     7
  6
CONTINUOUS
 10
0.444783
 20
-1.078217
  0
VERTEX
  8
7
 62
     7
  6
CONTINUOUS
 10
1.168059
 20
-0.791728
  0
VERTEX
  8
7
 62
     7
  6
CONTINUOUS
 10
1.665213
 20
-0.630220
  0
VERTEX
  8
7
 62
     7
  6
CONTINUOUS
 10
2.007894
 20
-0.689205
  0
VERTEX
  8
7
 62
     7
  6
CONTINUOUS
 10
2.103398
 20
-1.004484
  0
VERTEX
  8
7
 62
     7
  6
CONTINUOUS
 10
2.110409
 20
-1.444075
  0
VERTEX
  8
7
 62
     7
  6
CONTINUOUS
 10
2.108311
 20
-1.493929
  0
VERTEX
  8
7
 62
     7
  6
CONTINUOUS
 10
2.103398
 20
-1.602067
  0
VERTEX
  8
7
 62
     7
  6
CONTINUOUS
 10
2.097780
 20
-1.710898
  0
VERTEX
  8
7
 62
     7
  6
CONTINUOUS
 10
2.095665
 20
-1.760067
  0
SEQEND
  8
0
  0
POLYLINE
  8
7
 62
     7
  6
CONTINUOUS
 66
     1
 40
0.003000
 41
0.003000
  0
VERTEX
  8
7
 62
     7
  6
CONTINUOUS
 10
0.481299
 20
-1.533248
  0
VERTEX
  8
7
 62
     7
  6
CONTINUOUS
 10
0.839425
 20
-1.708799
  0
VERTEX
  8
7
 62
     7
  6
CONTINUOUS
 10
1.496681
 20
-1.944055
  0
SEQEND
  8
0
  0
POLYLINE
  8
7
 62
     7
  6
CONTINUOUS
 66
     1
 40
0.003000
 41
0.003000
  0
VERTEX
  8
7
 62
     7
  6
CONTINUOUS
 10
1.372398
 20
-2.355543
  0
VERTEX
  8
7
 62
     7
  6
CONTINUOUS
 10
1.554969
 20
-1.907528
  0
VERTEX
  8
7
 62
     7
  6
CONTINUOUS
 10
1.781780
 20
-1.775524
  0
VERTEX
  8
7
 62
     7
  6
CONTINUOUS
 10
2.103398
 20
-1.746028
  0
VERTEX
  8
7
 62
     7
  6
CONTINUOUS
 10
2.373740
 20
-1.826768
  0
SEQEND
  8
0
  0
POLYLINE
  8
7
 62
     7
  6
CONTINUOUS
 66
     1
 40
0.003000
 41
0.003000
  0
VERTEX
  8
7
 62
     7
  6
CONTINUOUS
 10
0.673701
 20
-3.136386
  0
VERTEX
  8
7
 62
     7
  6
CONTINUOUS
 10
1.102740
 20
-2.569012
  0
VERTEX
  8
7
 62
     7
  6
CONTINUOUS
 10
1.408913
 20
-2.333768
  0
VERTEX
  8
7
 62
     7
  6
CONTINUOUS
 10
2.052134
 20
-1.937020
  0
VERTEX
  8
7
 62
     7
  6
CONTINUOUS
 10
2.548591
 20
-1.775524
  0
VERTEX
  8
7
 62
     7
  6
CONTINUOUS
 10
3.038039
 20
-1.768496
  0
VERTEX
  8
7
 62
     7
  6
CONTINUOUS
 10
3.476201
 20
-1.878736
  0
SEQEND
  8
0
  0
POLYLINE
  8
7
 62
     7
  6
CONTINUOUS
 66
     1
 40
0.003000
 41
0.003000
  0
VERTEX
  8
7
 62
     7
  6
CONTINUOUS
 10
1.231961
 20
-3.147622
  0
VERTEX
  8
7
 62
     7
  6
CONTINUOUS
 10
1.672252
 20
-2.635016
  0
VERTEX
  8
7
 62
     7
  6
CONTINUOUS
 10
2.073898
 20
-2.348508
  0
VERTEX
  8
7
 62
     7
  6
CONTINUOUS
 10
2.519799
 20
-2.187004
  0
VERTEX
  8
7
 62
     7
  6
CONTINUOUS
 10
3.038039
 20
-2.150500
  0
VERTEX
  8
7
 62
     7
  6
CONTINUOUS
 10
3.264835
 20
-2.216504
  0
VERTEX
  8
7
 62
     7
  6
CONTINUOUS
 10
3.490953
 20
-2.297252
  0
SEQEND
  8
0
  0
POLYLINE
  8
7
 62
     7
  6
CONTINUOUS
 66
     1
 40
0.003000
 41
0.003000
  0
VERTEX
  8
7
 62
     7
  6
CONTINUOUS
 10
2.629346
 20
-1.775524
  0
VERTEX
  8
7
 62
     7
  6
CONTINUOUS
 10
2.972020
 20
-1.599256
  0
VERTEX
  8
7
 62
     7
  6
CONTINUOUS
 10
3.147567
 20
-1.592228
  0
VERTEX
  8
7
 62
     7
  6
CONTINUOUS
 10
3.483929
 20
-1.606980
  0
SEQEND
  8
0
  0
POLYLINE
  8
7
 62
     7
  6
CONTINUOUS
 66
     1
 40
0.003000
 41
0.003000
  0
VERTEX
  8
7
 62
     7
  6
CONTINUOUS
 10
2.979748
 20
-1.460224
  0
VERTEX
  8
7
 62
     7
  6
CONTINUOUS
 10
2.870913
 20
-1.401236
  0
VERTEX
  8
7
 62
     7
  6
CONTINUOUS
 10
2.951657
 20
-1.305740
  0
VERTEX
  8
7
 62
     7
  6
CONTINUOUS
 10
2.953067
 20
-1.305740
  0
VERTEX
  8
7
 62
     7
  6
CONTINUOUS
 10
2.957976
 20
-1.304331
  0
VERTEX
  8
7
 62
     7
  6
CONTINUOUS
 10
2.965693
 20
-1.302925
  0
VERTEX
  8
7
 62
     7
  6
CONTINUOUS
 10
2.974835
 20
-1.300819
  0
VERTEX
  8
7
 62
     7
  6
CONTINUOUS
 10
2.986768
 20
-1.298720
  0
VERTEX
  8
7
 62
     7
  6
CONTINUOUS
 10
2.999409
 20
-1.296606
  0
VERTEX
  8
7
 62
     7
  6
CONTINUOUS
 10
3.013457
 20
-1.293799
  0
VERTEX
  8
7
 62
     7
  6
CONTINUOUS
 10
3.027492
 20
-1.291004
  0
VERTEX
  8
7
 62
     7
  6
CONTINUOUS
 10
3.041539
 20
-1.288177
  0
VERTEX
  8
7
 62
     7
  6
CONTINUOUS
 10
3.055583
 20
-1.285370
  0
VERTEX
  8
7
 62
     7
  6
CONTINUOUS
 10
3.068228
 20
-1.283264
  0
VERTEX
  8
7
 62
     7
  6
CONTINUOUS
 10
3.080150
 20
-1.281161
  0
VERTEX
  8
7
 62
     7
  6
CONTINUOUS
 10
3.089992
 20
-1.279043
  0
VERTEX
  8
7
 62
     7
  6
CONTINUOUS
 10
3.097724
 20
-1.277654
  0
VERTEX
  8
7
 62
     7
  6
CONTINUOUS
 10
3.102634
 20
-1.276252
  0
VERTEX
  8
7
 62
     7
  6
CONTINUOUS
 10
3.104031
 20
-1.276252
  0
VERTEX
  8
7
 62
     7
  6
CONTINUOUS
 10
3.293626
 20
-1.305740
  0
VERTEX
  8
7
 62
     7
  6
CONTINUOUS
 10
3.351913
 20
-1.386500
  0
VERTEX
  8
7
 62
     7
  6
CONTINUOUS
 10
3.235343
 20
-1.465839
  0
VERTEX
  8
7
 62
     7
  6
CONTINUOUS
 10
3.231835
 20
-1.465839
  0
VERTEX
  8
7
 62
     7
  6
CONTINUOUS
 10
3.221307
 20
-1.466535
  0
VERTEX
  8
7
 62
     7
  6
CONTINUOUS
 10
3.207268
 20
-1.466535
  0
VERTEX
  8
7
 62
     7
  6
CONTINUOUS
 10
3.191811
 20
-1.466535
  0
VERTEX
  8
7
 62
     7
  6
CONTINUOUS
 10
3.175657
 20
-1.466535
  0
VERTEX
  8
7
 62
     7
  6
CONTINUOUS
 10
3.161622
 20
-1.466535
  0
VERTEX
  8
7
 62
     7
  6
CONTINUOUS
 10
3.151083
 20
-1.466535
  0
VERTEX
  8
7
 62
     7
  6
CONTINUOUS
 10
3.147567
 20
-1.466535
  0
SEQEND
  8
0
  0
POLYLINE
  8
7
 62
     7
  6
CONTINUOUS
 66
     1
 40
0.003000
 41
0.003000
  0
VERTEX
  8
7
 62
     7
  6
CONTINUOUS
 10
3.001508
 20
-1.356996
  0
VERTEX
  8
7
 62
     7
  6
CONTINUOUS
 10
2.994488
 20
-1.606980
  0
SEQEND
  8
0
  0
POLYLINE
  8
7
 62
     7
  6
CONTINUOUS
 66
     1
 40
0.003000
 41
0.003000
  0
VERTEX
  8
7
 62
     7
  6
CONTINUOUS
 10
3.177067
 20
-1.356996
  0
VERTEX
  8
7
 62
     7
  6
CONTINUOUS
 10
3.162319
 20
-1.592228
  0
SEQEND
  8
0
  0
POLYLINE
  8
7
 62
     7
  6
CONTINUOUS
 66
     1
 40
0.003000
 41
0.003000
  0
VERTEX
  8
7
 62
     7
  6
CONTINUOUS
 10
2.877228
 20
-1.356996
  0
VERTEX
  8
7
 62
     7
  6
CONTINUOUS
 10
2.826657
 20
-0.857717
  0
VERTEX
  8
7
 62
     7
  6
CONTINUOUS
 10
2.979748
 20
-0.923728
  0
VERTEX
  8
7
 62
     7
  6
CONTINUOUS
 10
3.213587
 20
-0.938480
  0
VERTEX
  8
7
 62
     7
  6
CONTINUOUS
 10
3.432665
 20
-0.872472
  0
VERTEX
  8
7
 62
     7
  6
CONTINUOUS
 10
3.351913
 20
-1.371035
  0
SEQEND
  8
0
  0
POLYLINE
  8
7
 62
     7
  6
CONTINUOUS
 66
     1
 40
0.003000
 41
0.003000
  0
VERTEX
  8
7
 62
     7
  6
CONTINUOUS
 10
2.979748
 20
-1.019220
  0
VERTEX
  8
7
 62
     7
  6
CONTINUOUS
 10
2.986768
 20
-1.239736
  0
SEQEND
  8
0
  0
POLYLINE
  8
7
 62
     7
  6
CONTINUOUS
 66
     1
 40
0.003000
 41
0.003000
  0
VERTEX
  8
7
 62
     7
  6
CONTINUOUS
 10
3.147567
 20
-1.026965
  0
VERTEX
  8
7
 62
     7
  6
CONTINUOUS
 10
3.132827
 20
-1.224984
  0
SEQEND
  8
0
  0
POLYLINE
  8
7
 62
     7
  6
CONTINUOUS
 66
     1
 40
0.003000
 41
0.003000
  0
VERTEX
  8
7
 62
     7
  6
CONTINUOUS
 10
3.308370
 20
-1.019220
  0
VERTEX
  8
7
 62
     7
  6
CONTINUOUS
 10
3.271862
 20
-1.224984
  0
SEQEND
  8
0
  0
POLYLINE
  8
7
 62
     7
  6
CONTINUOUS
 66
     1
 40
0.003000
 41
0.003000
  0
VERTEX
  8
7
 62
     7
  6
CONTINUOUS
 10
1.292346
 20
-2.399780
  0
VERTEX
  8
7
 62
     7
  6
CONTINUOUS
 10
1.022701
 20
-2.297252
  0
VERTEX
  8
7
 62
     7
  6
CONTINUOUS
 10
0.877331
 20
-2.312004
  0
VERTEX
  8
7
 62
     7
  6
CONTINUOUS
 10
0.875937
 20
-2.312689
  0
VERTEX
  8
7
 62
     7
  6
CONTINUOUS
 10
0.871024
 20
-2.313406
  0
VERTEX
  8
7
 62
     7
  6
CONTINUOUS
 10
0.863988
 20
-2.315524
  0
VERTEX
  8
7
 62
     7
  6
CONTINUOUS
 10
0.855571
 20
-2.317618
  0
VERTEX
  8
7
 62
     7
  6
CONTINUOUS
 10
0.844335
 20
-2.320425
  0
VERTEX
  8
7
 62
     7
  6
CONTINUOUS
 10
0.833110
 20
-2.323244
  0
VERTEX
  8
7
 62
     7
  6
CONTINUOUS
 10
0.820453
 20
-2.326752
  0
VERTEX
  8
7
 62
     7
  6
CONTINUOUS
 10
0.807118
 20
-2.330260
  0
VERTEX
  8
7
 62
     7
  6
CONTINUOUS
 10
0.794484
 20
-2.333768
  0
VERTEX
  8
7
 62
     7
  6
CONTINUOUS
 10
0.781831
 20
-2.337272
  0
VERTEX
  8
7
 62
     7
  6
CONTINUOUS
 10
0.769906
 20
-2.340091
  0
VERTEX
  8
7
 62
     7
  6
CONTINUOUS
 10
0.759378
 20
-2.342898
  0
VERTEX
  8
7
 62
     7
  6
CONTINUOUS
 10
0.750929
 20
-2.345012
  0
VERTEX
  8
7
 62
     7
  6
CONTINUOUS
 10
0.743925
 20
-2.347114
  0
VERTEX
  8
7
 62
     7
  6
CONTINUOUS
 10
0.739705
 20
-2.347807
  0
VERTEX
  8
7
 62
     7
  6
CONTINUOUS
 10
0.738311
 20
-2.348508
  0
VERTEX
  8
7
 62
     7
  6
CONTINUOUS
 10
0.736894
 20
-2.354831
  0
VERTEX
  8
7
 62
     7
  6
CONTINUOUS
 10
0.733382
 20
-2.370272
  0
VERTEX
  8
7
 62
     7
  6
CONTINUOUS
 10
0.728472
 20
-2.392744
  0
VERTEX
  8
7
 62
     7
  6
CONTINUOUS
 10
0.723551
 20
-2.418031
  0
VERTEX
  8
7
 62
     7
  6
CONTINUOUS
 10
0.717945
 20
-2.443303
  0
VERTEX
  8
7
 62
     7
  6
CONTINUOUS
 10
0.713728
 20
-2.465783
  0
VERTEX
  8
7
 62
     7
  6
CONTINUOUS
 10
0.710224
 20
-2.481232
  0
VERTEX
  8
7
 62
     7
  6
CONTINUOUS
 10
0.709516
 20
-2.486850
  0
VERTEX
  8
7
 62
     7
  6
CONTINUOUS
 10
0.708815
 20
-2.508618
  0
VERTEX
  8
7
 62
     7
  6
CONTINUOUS
 10
0.708815
 20
-2.557071
  0
VERTEX
  8
7
 62
     7
  6
CONTINUOUS
 10
0.708815
 20
-2.604827
  0
VERTEX
  8
7
 62
     7
  6
CONTINUOUS
 10
0.709516
 20
-2.625886
  0
VERTEX
  8
7
 62
     7
  6
CONTINUOUS
 10
0.711626
 20
-2.630098
  0
VERTEX
  8
7
 62
     7
  6
CONTINUOUS
 10
0.717945
 20
-2.641327
  0
VERTEX
  8
7
 62
     7
  6
CONTINUOUS
 10
0.727776
 20
-2.656787
  0
VERTEX
  8
7
 62
     7
  6
CONTINUOUS
 10
0.738311
 20
-2.674343
  0
VERTEX
  8
7
 62
     7
  6
CONTINUOUS
 10
0.748835
 20
-2.691902
  0
VERTEX
  8
7
 62
     7
  6
CONTINUOUS
 10
0.757965
 20
-2.706630
  0
VERTEX
  8
7
 62
     7
  6
CONTINUOUS
 10
0.764984
 20
-2.717169
  0
VERTEX
  8
7
 62
     7
  6
CONTINUOUS
 10
0.767795
 20
-2.721382
  0
VERTEX
  8
7
 62
     7
  6
CONTINUOUS
 10
0.769201
 20
-2.722083
  0
VERTEX
  8
7
 62
     7
  6
CONTINUOUS
 10
0.774114
 20
-2.723492
  0
VERTEX
  8
7
 62
     7
  6
CONTINUOUS
 10
0.781831
 20
-2.726303
  0
VERTEX
  8
7
 62
     7
  6
CONTINUOUS
 10
0.790961
 20
-2.729807
  0
VERTEX
  8
7
 62
     7
  6
CONTINUOUS
 10
0.802909
 20
-2.734028
  0
VERTEX
  8
7
 62
     7
  6
CONTINUOUS
 10
0.815543
 20
-2.738244
  0
VERTEX
  8
7
 62
     7
  6
CONTINUOUS
 10
0.829587
 20
-2.743150
  0
VERTEX
  8
7
 62
     7
  6
CONTINUOUS
 10
0.843634
 20
-2.747366
  0
VERTEX
  8
7
 62
     7
  6
CONTINUOUS
 10
0.857669
 20
-2.752287
  0
VERTEX
  8
7
 62
     7
  6
CONTINUOUS
 10
0.871720
 20
-2.757201
  0
VERTEX
  8
7
 62
     7
  6
CONTINUOUS
 10
0.884358
 20
-2.761406
  0
VERTEX
  8
7
 62
     7
  6
CONTINUOUS
 10
0.896291
 20
-2.765630
  0
VERTEX
  8
7
 62
     7
  6
CONTINUOUS
 10
0.906134
 20
-2.768433
  0
VERTEX
  8
7
 62
     7
  6
CONTINUOUS
 10
0.913866
 20
-2.771244
  0
VERTEX
  8
7
 62
     7
  6
CONTINUOUS
 10
0.918764
 20
-2.772654
  0
VERTEX
  8
7
 62
     7
  6
CONTINUOUS
 10
0.920169
 20
-2.773350
  0
SEQEND
  8
0
  0
POLYLINE
  8
7
 62
     7
  6
CONTINUOUS
 66
     1
 40
0.003000
 41
0.003000
  0
VERTEX
  8
7
 62
     7
  6
CONTINUOUS
 10
1.255827
 20
-2.451043
  0
VERTEX
  8
7
 62
     7
  6
CONTINUOUS
 10
1.103453
 20
-2.421547
  0
VERTEX
  8
7
 62
     7
  6
CONTINUOUS
 10
0.890681
 20
-2.414520
  0
VERTEX
  8
7
 62
     7
  6
CONTINUOUS
 10
0.886465
 20
-2.415220
  0
VERTEX
  8
7
 62
     7
  6
CONTINUOUS
 10
0.874528
 20
-2.416622
  0
VERTEX
  8
7
 62
     7
  6
CONTINUOUS
 10
0.858386
 20
-2.419445
  0
VERTEX
  8
7
 62
     7
  6
CONTINUOUS
 10
0.840134
 20
-2.421547
  0
VERTEX
  8
7
 62
     7
  6
CONTINUOUS
 10
0.821854
 20
-2.424346
  0
VERTEX
  8
7
 62
     7
  6
CONTINUOUS
 10
0.805701
 20
-2.427157
  0
VERTEX
  8
7
 62
     7
  6
CONTINUOUS
 10
0.794484
 20
-2.428567
  0
VERTEX
  8
7
 62
     7
  6
CONTINUOUS
 10
0.790260
 20
-2.429268
  0
VERTEX
  8
7
 62
     7
  6
CONTINUOUS
 10
0.790961
 20
-2.436291
  0
VERTEX
  8
7
 62
     7
  6
CONTINUOUS
 10
0.793783
 20
-2.451043
  0
VERTEX
  8
7
 62
     7
  6
CONTINUOUS
 10
0.797283
 20
-2.465783
  0
VERTEX
  8
7
 62
     7
  6
CONTINUOUS
 10
0.798693
 20
-2.472102
  0
VERTEX
  8
7
 62
     7
  6
CONTINUOUS
 10
0.800799
 20
-2.474220
  0
VERTEX
  8
7
 62
     7
  6
CONTINUOUS
 10
0.807815
 20
-2.480539
  0
VERTEX
  8
7
 62
     7
  6
CONTINUOUS
 10
0.817650
 20
-2.488957
  0
VERTEX
  8
7
 62
     7
  6
CONTINUOUS
 10
0.828882
 20
-2.498087
  0
VERTEX
  8
7
 62
     7
  6
CONTINUOUS
 10
0.840134
 20
-2.507909
  0
VERTEX
  8
7
 62
     7
  6
CONTINUOUS
 10
0.849957
 20
-2.515650
  0
VERTEX
  8
7
 62
     7
  6
CONTINUOUS
 10
0.856972
 20
-2.521256
  0
VERTEX
  8
7
 62
     7
  6
CONTINUOUS
 10
0.859787
 20
-2.523358
  0
VERTEX
  8
7
 62
     7
  6
CONTINUOUS
 10
0.856972
 20
-2.524776
  0
VERTEX
  8
7
 62
     7
  6
CONTINUOUS
 10
0.850654
 20
-2.528276
  0
VERTEX
  8
7
 62
     7
  6
CONTINUOUS
 10
0.842228
 20
-2.533197
  0
VERTEX
  8
7
 62
     7
  6
CONTINUOUS
 10
0.832402
 20
-2.538819
  0
VERTEX
  8
7
 62
     7
  6
CONTINUOUS
 10
0.822571
 20
-2.543724
  0
VERTEX
  8
7
 62
     7
  6
CONTINUOUS
 10
0.813437
 20
-2.548646
  0
VERTEX
  8
7
 62
     7
  6
CONTINUOUS
 10
0.807815
 20
-2.552154
  0
VERTEX
  8
7
 62
     7
  6
CONTINUOUS
 10
0.805701
 20
-2.552854
  0
VERTEX
  8
7
 62
     7
  6
CONTINUOUS
 10
0.802909
 20
-2.552854
  0
VERTEX
  8
7
 62
     7
  6
CONTINUOUS
 10
0.794484
 20
-2.551449
  0
VERTEX
  8
7
 62
     7
  6
CONTINUOUS
 10
0.783941
 20
-2.549354
  0
VERTEX
  8
7
 62
     7
  6
CONTINUOUS
 10
0.771299
 20
-2.547236
  0
VERTEX
  8
7
 62
     7
  6
CONTINUOUS
 10
0.758669
 20
-2.544441
  0
VERTEX
  8
7
 62
     7
  6
CONTINUOUS
 10
0.748138
 20
-2.542315
  0
VERTEX
  8
7
 62
     7
  6
CONTINUOUS
 10
0.740406
 20
-2.540917
  0
VERTEX
  8
7
 62
     7
  6
CONTINUOUS
 10
0.737594
 20
-2.540213
  0
VERTEX
  8
7
 62
     7
  6
CONTINUOUS
 10
0.739705
 20
-2.543724
  0
VERTEX
  8
7
 62
     7
  6
CONTINUOUS
 10
0.746724
 20
-2.552854
  0
VERTEX
  8
7
 62
     7
  6
CONTINUOUS
 10
0.756563
 20
-2.565500
  0
VERTEX
  8
7
 62
     7
  6
CONTINUOUS
 10
0.767795
 20
-2.580244
  0
VERTEX
  8
7
 62
     7
  6
CONTINUOUS
 10
0.779031
 20
-2.594280
  0
VERTEX
  8
7
 62
     7
  6
CONTINUOUS
 10
0.788858
 20
-2.606925
  0
VERTEX
  8
7
 62
     7
  6
CONTINUOUS
 10
0.795878
 20
-2.616059
  0
VERTEX
  8
7
 62
     7
  6
CONTINUOUS
 10
0.798693
 20
-2.618870
  0
VERTEX
  8
7
 62
     7
  6
CONTINUOUS
 10
0.802197
 20
-2.620972
  0
VERTEX
  8
7
 62
     7
  6
CONTINUOUS
 10
0.811319
 20
-2.625886
  0
VERTEX
  8
7
 62
     7
  6
CONTINUOUS
 10
0.824669
 20
-2.632906
  0
VERTEX
  8
7
 62
     7
  6
CONTINUOUS
 10
0.840134
 20
-2.641327
  0
VERTEX
  8
7
 62
     7
  6
CONTINUOUS
 10
0.855571
 20
-2.649071
  0
VERTEX
  8
7
 62
     7
  6
CONTINUOUS
 10
0.868906
 20
-2.656083
  0
VERTEX
  8
7
 62
     7
  6
CONTINUOUS
 10
0.878736
 20
-2.661000
  0
VERTEX
  8
7
 62
     7
  6
CONTINUOUS
 10
0.882256
 20
-2.662402
  0
VERTEX
  8
7
 62
     7
  6
CONTINUOUS
 10
0.885768
 20
-2.664500
  0
VERTEX
  8
7
 62
     7
  6
CONTINUOUS
 10
0.896291
 20
-2.668724
  0
VERTEX
  8
7
 62
     7
  6
CONTINUOUS
 10
0.911043
 20
-2.675059
  0
VERTEX
  8
7
 62
     7
  6
CONTINUOUS
 10
0.927902
 20
-2.681366
  0
VERTEX
  8
7
 62
     7
  6
CONTINUOUS
 10
0.944752
 20
-2.688386
  0
VERTEX
  8
7
 62
     7
  6
CONTINUOUS
 10
0.959496
 20
-2.694705
  0
VERTEX
  8
7
 62
     7
  6
CONTINUOUS
 10
0.969319
 20
-2.698913
  0
VERTEX
  8
7
 62
     7
  6
CONTINUOUS
 10
0.973543
 20
-2.700327
  0
SEQEND
  8
0
  0
POLYLINE
  8
7
 62
     7
  6
CONTINUOUS
 66
     1
 40
0.003000
 41
0.003000
  0
VERTEX
  8
7
 62
     7
  6
CONTINUOUS
 10
0.335236
 20
-2.649752
  0
VERTEX
  8
7
 62
     7
  6
CONTINUOUS
 10
0.481299
 20
-2.656083
  0
VERTEX
  8
7
 62
     7
  6
CONTINUOUS
 10
0.708106
 20
-2.627287
  0
SEQEND
  8
0
  0
POLYLINE
  8
7
 62
     7
  6
CONTINUOUS
 66
     1
 40
0.003000
 41
0.003000
 70
     1
  0
VERTEX
  8
7
 62
     7
  6
CONTINUOUS
 10
0.269933
 20
-2.076772
  0
VERTEX
  8
7
 62
     7
  6
CONTINUOUS
 10
0.357709
 20
-2.120295
  0
VERTEX
  8
7
 62
     7
  6
CONTINUOUS
 10
0.379469
 20
-2.229843
  0
VERTEX
  8
7
 62
     7
  6
CONTINUOUS
 10
0.378071
 20
-2.232654
  0
VERTEX
  8
7
 62
     7
  6
CONTINUOUS
 10
0.373858
 20
-2.240382
  0
VERTEX
  8
7
 62
     7
  6
CONTINUOUS
 10
0.368240
 20
-2.250898
  0
VERTEX
  8
7
 62
     7
  6
CONTINUOUS
 10
0.361213
 20
-2.263555
  0
VERTEX
  8
7
 62
     7
  6
CONTINUOUS
 10
0.354193
 20
-2.275480
  0
VERTEX
  8
7
 62
     7
  6
CONTINUOUS
 10
0.348571
 20
-2.286016
  0
VERTEX
  8
7
 62
     7
  6
CONTINUOUS
 10
0.344362
 20
-2.293043
  0
VERTEX
  8
7
 62
     7
  6
CONTINUOUS
 10
0.342961
 20
-2.295850
  0
VERTEX
  8
7
 62
     7
  6
CONTINUOUS
 10
0.340146
 20
-2.297957
  0
VERTEX
  8
7
 62
     7
  6
CONTINUOUS
 10
0.331720
 20
-2.302874
  0
VERTEX
  8
7
 62
     7
  6
CONTINUOUS
 10
0.319787
 20
-2.309886
  0
VERTEX
  8
7
 62
     7
  6
CONTINUOUS
 10
0.306457
 20
-2.318319
  0
VERTEX
  8
7
 62
     7
  6
CONTINUOUS
 10
0.293098
 20
-2.326039
  0
VERTEX
  8
7
 62
     7
  6
CONTINUOUS
 10
0.281169
 20
-2.333059
  0
VERTEX
  8
7
 62
     7
  6
CONTINUOUS
 10
0.272748
 20
-2.337992
  0
VERTEX
  8
7
 62
     7
  6
CONTINUOUS
 10
0.269933
 20
-2.339394
  0
VERTEX
  8
7
 62
     7
  6
CONTINUOUS
 10
0.268535
 20
-2.338693
  0
VERTEX
  8
7
 62
     7
  6
CONTINUOUS
 10
0.264303
 20
-2.335169
  0
VERTEX
  8
7
 62
     7
  6
CONTINUOUS
 10
0.257996
 20
-2.330965
  0
VERTEX
  8
7
 62
     7
  6
CONTINUOUS
 10
0.249563
 20
-2.324638
  0
VERTEX
  8
7
 62
     7
  6
CONTINUOUS
 10
0.239728
 20
-2.317618
  0
VERTEX
  8
7
 62
     7
  6
CONTINUOUS
 10
0.228504
 20
-2.309886
  0
VERTEX
  8
7
 62
     7
  6
CONTINUOUS
 10
0.216567
 20
-2.300772
  0
VERTEX
  8
7
 62
     7
  6
CONTINUOUS
 10
0.204626
 20
-2.292343
  0
VERTEX
  8
7
 62
     7
  6
CONTINUOUS
 10
0.191980
 20
-2.283213
  0
VERTEX
  8
7
 62
     7
  6
CONTINUOUS
 10
0.180051
 20
-2.274780
  0
VERTEX
  8
7
 62
     7
  6
CONTINUOUS
 10
0.169516
 20
-2.266354
  0
VERTEX
  8
7
 62
     7
  6
CONTINUOUS
 10
0.159677
 20
-2.259335
  0
VERTEX
  8
7
 62
     7
  6
CONTINUOUS
 10
0.151260
 20
-2.253008
  0
VERTEX
  8
7
 62
     7
  6
CONTINUOUS
 10
0.144941
 20
-2.248098
  0
VERTEX
  8
7
 62
     7
  6
CONTINUOUS
 10
0.140728
 20
-2.245291
  0
VERTEX
  8
7
 62
     7
  6
CONTINUOUS
 10
0.139323
 20
-2.243882
  0
VERTEX
  8
7
 62
     7
  6
CONTINUOUS
 10
0.140728
 20
-2.238972
  0
VERTEX
  8
7
 62
     7
  6
CONTINUOUS
 10
0.145638
 20
-2.224933
  0
VERTEX
  8
7
 62
     7
  6
CONTINUOUS
 10
0.152654
 20
-2.205260
  0
VERTEX
  8
7
 62
     7
  6
CONTINUOUS
 10
0.161083
 20
-2.182087
  0
VERTEX
  8
7
 62
     7
  6
CONTINUOUS
 10
0.168803
 20
-2.159630
  0
VERTEX
  8
7
 62
     7
  6
CONTINUOUS
 10
0.175839
 20
-2.139965
  0
VERTEX
  8
7
 62
     7
  6
CONTINUOUS
 10
0.180756
 20
-2.125913
  0
VERTEX
  8
7
 62
     7
  6
CONTINUOUS
 10
0.182854
 20
-2.120295
  0
VERTEX
  8
7
 62
     7
  6
CONTINUOUS
 10
0.187063
 20
-2.118906
  0
VERTEX
  8
7
 62
     7
  6
CONTINUOUS
 10
0.198303
 20
-2.114685
  0
VERTEX
  8
7
 62
     7
  6
CONTINUOUS
 10
0.214461
 20
-2.108358
  0
VERTEX
  8
7
 62
     7
  6
CONTINUOUS
 10
0.232016
 20
-2.100626
  0
VERTEX
  8
7
 62
     7
  6
CONTINUOUS
 10
0.248862
 20
-2.093614
  0
VERTEX
  8
7
 62
     7
  6
CONTINUOUS
 10
0.262201
 20
-2.085882
  0
VERTEX
  8
7
 62
     7
  6
CONTINUOUS
 10
0.270642
 20
-2.080268
  0
SEQEND
  8
0
  0
POLYLINE
  8
7
 62
     7
  6
CONTINUOUS
 66
     1
 40
0.003000
 41
0.003000
  0
VERTEX
  8
7
 62
     7
  6
CONTINUOUS
 10
0.495343
 20
-2.872358
  0
VERTEX
  8
7
 62
     7
  6
CONTINUOUS
 10
0.546598
 20
-3.003673
  0
VERTEX
  8
7
 62
     7
  6
CONTINUOUS
 10
0.446185
 20
-3.061953
  0
VERTEX
  8
7
 62
     7
  6
CONTINUOUS
 10
0.444783
 20
-3.061244
  0
VERTEX
  8
7
 62
     7
  6
CONTINUOUS
 10
0.440571
 20
-3.059146
  0
VERTEX
  8
7
 62
     7
  6
CONTINUOUS
 10
0.434953
 20
-3.056343
  0
VERTEX
  8
7
 62
     7
  6
CONTINUOUS
 10
0.427224
 20
-3.052130
  0
VERTEX
  8
7
 62
     7
  6
CONTINUOUS
 10
0.418799
 20
-3.047209
  0
VERTEX
  8
7
 62
     7
  6
CONTINUOUS
 10
0.408260
 20
-3.041598
  0
VERTEX
  8
7
 62
     7
  6
CONTINUOUS
 10
0.397732
 20
-3.035976
  0
VERTEX
  8
7
 62
     7
  6
CONTINUOUS
 10
0.387197
 20
-3.029654
  0
VERTEX
  8
7
 62
     7
  6
CONTINUOUS
 10
0.375965
 20
-3.023339
  0
VERTEX
  8
7
 62
     7
  6
CONTINUOUS
 10
0.365437
 20
-3.017008
  0
VERTEX
  8
7
 62
     7
  6
CONTINUOUS
 10
0.355587
 20
-3.011406
  0
VERTEX
  8
7
 62
     7
  6
CONTINUOUS
 10
0.347177
 20
-3.006496
  0
VERTEX
  8
7
 62
     7
  6
CONTINUOUS
 10
0.339441
 20
-3.002268
  0
VERTEX
  8
7
 62
     7
  6
CONTINUOUS
 10
0.333835
 20
-2.998744
  0
VERTEX
  8
7
 62
     7
  6
CONTINUOUS
 10
0.330331
 20
-2.996646
  0
VERTEX
  8
7
 62
     7
  6
CONTINUOUS
 10
0.328925
 20
-2.995945
  0
VERTEX
  8
7
 62
     7
  6
CONTINUOUS
 10
0.328220
 20
-2.981205
  0
VERTEX
  8
7
 62
     7
  6
CONTINUOUS
 10
0.328220
 20
-2.948898
  0
VERTEX
  8
7
 62
     7
  6
CONTINUOUS
 10
0.328220
 20
-2.915898
  0
VERTEX
  8
7
 62
     7
  6
CONTINUOUS
 10
0.328925
 20
-2.900453
  0
VERTEX
  8
7
 62
     7
  6
CONTINUOUS
 10
0.332421
 20
-2.896937
  0
VERTEX
  8
7
 62
     7
  6
CONTINUOUS
 10
0.342256
 20
-2.885709
  0
VERTEX
  8
7
 62
     7
  6
CONTINUOUS
 10
0.356303
 20
-2.870957
  0
VERTEX
  8
7
 62
     7
  6
CONTINUOUS
 10
0.372457
 20
-2.853406
  0
VERTEX
  8
7
 62
     7
  6
CONTINUOUS
 10
0.388606
 20
-2.836535
  0
VERTEX
  8
7
 62
     7
  6
CONTINUOUS
 10
0.402646
 20
-2.821094
  0
VERTEX
  8
7
 62
     7
  6
CONTINUOUS
 10
0.412480
 20
-2.810571
  0
VERTEX
  8
7
 62
     7
  6
CONTINUOUS
 10
0.416693
 20
-2.806366
  0
VERTEX
  8
7
 62
     7
  6
CONTINUOUS
 10
0.418799
 20
-2.807055
  0
VERTEX
  8
7
 62
     7
  6
CONTINUOUS
 10
0.425118
 20
-2.809874
  0
VERTEX
  8
7
 62
     7
  6
CONTINUOUS
 10
0.434953
 20
-2.813370
  0
VERTEX
  8
7
 62
     7
  6
CONTINUOUS
 10
0.445480
 20
-2.816878
  0
VERTEX
  8
7
 62
     7
  6
CONTINUOUS
 10
0.456020
 20
-2.821094
  0
VERTEX
  8
7
 62
     7
  6
CONTINUOUS
 10
0.465154
 20
-2.824618
  0
VERTEX
  8
7
 62
     7
  6
CONTINUOUS
 10
0.471457
 20
-2.827413
  0
VERTEX
  8
7
 62
     7
  6
CONTINUOUS
 10
0.474268
 20
-2.828122
  0
SEQEND
  8
0
  0
POLYLINE
  8
7
 62
     7
  6
CONTINUOUS
 66
     1
 40
0.003000
 41
0.003000
  0
VERTEX
  8
7
 62
     7
  6
CONTINUOUS
 10
0.788165
 20
-2.465783
  0
VERTEX
  8
7
 62
     7
  6
CONTINUOUS
 10
0.700374
 20
-2.458756
  0
VERTEX
  8
7
 62
     7
  6
CONTINUOUS
 10
0.547311
 20
-2.458756
  0
VERTEX
  8
7
 62
     7
  6
CONTINUOUS
 10
0.349980
 20
-2.480539
  0
VERTEX
  8
7
 62
     7
  6
CONTINUOUS
 10
0.203921
 20
-2.480539
  0
VERTEX
  8
7
 62
     7
  6
CONTINUOUS
 10
0.137921
 20
-2.583047
  0
VERTEX
  8
7
 62
     7
  6
CONTINUOUS
 10
0.234110
 20
-2.553559
  0
VERTEX
  8
7
 62
     7
  6
CONTINUOUS
 10
0.526941
 20
-2.538110
  0
VERTEX
  8
7
 62
     7
  6
CONTINUOUS
 10
0.529035
 20
-2.538110
  0
VERTEX
  8
7
 62
     7
  6
CONTINUOUS
 10
0.535362
 20
-2.538110
  0
VERTEX
  8
7
 62
     7
  6
CONTINUOUS
 10
0.544488
 20
-2.538110
  0
VERTEX
  8
7
 62
     7
  6
CONTINUOUS
 10
0.557142
 20
-2.538819
  0
VERTEX
  8
7
 62
     7
  6
CONTINUOUS
 10
0.571870
 20
-2.538819
  0
VERTEX
  8
7
 62
     7
  6
CONTINUOUS
 10
0.588728
 20
-2.538819
  0
VERTEX
  8
7
 62
     7
  6
CONTINUOUS
 10
0.606283
 20
-2.538819
  0
VERTEX
  8
7
 62
     7
  6
CONTINUOUS
 10
0.625248
 20
-2.538819
  0
VERTEX
  8
7
 62
     7
  6
CONTINUOUS
 10
0.643508
 20
-2.538819
  0
VERTEX
  8
7
 62
     7
  6
CONTINUOUS
 10
0.661067
 20
-2.538819
  0
VERTEX
  8
7
 62
     7
  6
CONTINUOUS
 10
0.677906
 20
-2.538819
  0
VERTEX
  8
7
 62
     7
  6
CONTINUOUS
 10
0.692661
 20
-2.538819
  0
VERTEX
  8
7
 62
     7
  6
CONTINUOUS
 10
0.705303
 20
-2.538819
  0
VERTEX
  8
7
 62
     7
  6
CONTINUOUS
 10
0.715130
 20
-2.538819
  0
VERTEX
  8
7
 62
     7
  6
CONTINUOUS
 10
0.721445
 20
-2.538819
  0
VERTEX
  8
7
 62
     7
  6
CONTINUOUS
 10
0.723551
 20
-2.538819
  0
SEQEND
  8
0
  0
POLYLINE
  8
7
 62
     7
  6
CONTINUOUS
 66
     1
 40
0.003000
 41
0.003000
  0
VERTEX
  8
7
 62
     7
  6
CONTINUOUS
 10
0.183551
 20
-2.497386
  0
VERTEX
  8
7
 62
     7
  6
CONTINUOUS
 10
0.081035
 20
-2.494575
  0
VERTEX
  8
7
 62
     7
  6
CONTINUOUS
 10
-0.043961
 20
-2.560575
  0
VERTEX
  8
7
 62
     7
  6
CONTINUOUS
 10
-0.159823
 20
-2.670118
  0
VERTEX
  8
7
 62
     7
  6
CONTINUOUS
 10
-0.161220
 20
-2.687677
  0
VERTEX
  8
7
 62
     7
  6
CONTINUOUS
 10
-0.163331
 20
-2.725602
  0
VERTEX
  8
7
 62
     7
  6
CONTINUOUS
 10
-0.166142
 20
-2.763516
  0
VERTEX
  8
7
 62
     7
  6
CONTINUOUS
 10
-0.166839
 20
-2.780374
  0
VERTEX
  8
7
 62
     7
  6
CONTINUOUS
 10
-0.065028
 20
-2.765630
  0
VERTEX
  8
7
 62
     7
  6
CONTINUOUS
 10
-0.064327
 20
-2.768433
  0
VERTEX
  8
7
 62
     7
  6
CONTINUOUS
 10
-0.062213
 20
-2.774756
  0
VERTEX
  8
7
 62
     7
  6
CONTINUOUS
 10
-0.058705
 20
-2.784579
  0
VERTEX
  8
7
 62
     7
  6
CONTINUOUS
 10
-0.054484
 20
-2.795130
  0
VERTEX
  8
7
 62
     7
  6
CONTINUOUS
 10
-0.050276
 20
-2.805654
  0
VERTEX
  8
7
 62
     7
  6
CONTINUOUS
 10
-0.046764
 20
-2.814783
  0
VERTEX
  8
7
 62
     7
  6
CONTINUOUS
 10
-0.043961
 20
-2.821094
  0
VERTEX
  8
7
 62
     7
  6
CONTINUOUS
 10
-0.043264
 20
-2.823909
  0
VERTEX
  8
7
 62
     7
  6
CONTINUOUS
 10
0.088768
 20
-2.809874
  0
VERTEX
  8
7
 62
     7
  6
CONTINUOUS
 10
0.093677
 20
-2.806366
  0
VERTEX
  8
7
 62
     7
  6
CONTINUOUS
 10
0.104909
 20
-2.797220
  0
VERTEX
  8
7
 62
     7
  6
CONTINUOUS
 10
0.121768
 20
-2.784579
  0
VERTEX
  8
7
 62
     7
  6
CONTINUOUS
 10
0.141425
 20
-2.769839
  0
VERTEX
  8
7
 62
     7
  6
CONTINUOUS
 10
0.161083
 20
-2.755091
  0
VERTEX
  8
7
 62
     7
  6
CONTINUOUS
 10
0.178642
 20
-2.742461
  0
VERTEX
  8
7
 62
     7
  6
CONTINUOUS
 10
0.192689
 20
-2.733327
  0
VERTEX
  8
7
 62
     7
  6
CONTINUOUS
 10
0.200417
 20
-2.729122
  0
VERTEX
  8
7
 62
     7
  6
CONTINUOUS
 10
0.206024
 20
-2.720685
  0
VERTEX
  8
7
 62
     7
  6
CONTINUOUS
 10
0.215862
 20
-2.700327
  0
VERTEX
  8
7
 62
     7
  6
CONTINUOUS
 10
0.226394
 20
-2.672224
  0
VERTEX
  8
7
 62
     7
  6
CONTINUOUS
 10
0.236217
 20
-2.639949
  0
VERTEX
  8
7
 62
     7
  6
CONTINUOUS
 10
0.243244
 20
-2.608335
  0
VERTEX
  8
7
 62
     7
  6
CONTINUOUS
 10
0.245350
 20
-2.581638
  0
VERTEX
  8
7
 62
     7
  6
CONTINUOUS
 10
0.240433
 20
-2.564094
  0
VERTEX
  8
7
 62
     7
  6
CONTINUOUS
 10
0.225701
 20
-2.560575
  0
SEQEND
  8
0
  0
POLYLINE
  8
7
 62
     7
  6
CONTINUOUS
 66
     1
 40
0.003000
 41
0.003000
  0
VERTEX
  8
7
 62
     7
  6
CONTINUOUS
 10
-0.249004
 20
-2.847787
  0
VERTEX
  8
7
 62
     7
  6
CONTINUOUS
 10
-0.277083
 20
-2.722780
  0
VERTEX
  8
7
 62
     7
  6
CONTINUOUS
 10
-0.269366
 20
-2.583047
  0
VERTEX
  8
7
 62
     7
  6
CONTINUOUS
 10
-0.265154
 20
-2.580244
  0
VERTEX
  8
7
 62
     7
  6
CONTINUOUS
 10
-0.252512
 20
-2.571815
  0
VERTEX
  8
7
 62
     7
  6
CONTINUOUS
 10
-0.235657
 20
-2.559890
  0
VERTEX
  8
7
 62
     7
  6
CONTINUOUS
 10
-0.215291
 20
-2.546539
  0
VERTEX
  8
7
 62
     7
  6
CONTINUOUS
 10
-0.195626
 20
-2.533197
  0
VERTEX
  8
7
 62
     7
  6
CONTINUOUS
 10
-0.178071
 20
-2.521256
  0
VERTEX
  8
7
 62
     7
  6
CONTINUOUS
 10
-0.166142
 20
-2.512827
  0
VERTEX
  8
7
 62
     7
  6
CONTINUOUS
 10
-0.161220
 20
-2.510028
  0
VERTEX
  8
7
 62
     7
  6
CONTINUOUS
 10
-0.044665
 20
-2.429268
  0
VERTEX
  8
7
 62
     7
  6
CONTINUOUS
 10
0.109122
 20
-2.385039
  0
VERTEX
  8
7
 62
     7
  6
CONTINUOUS
 10
0.269933
 20
-2.406799
  0
VERTEX
  8
7
 62
     7
  6
CONTINUOUS
 10
0.313472
 20
-2.473512
  0
SEQEND
  8
0
  0
POLYLINE
  8
7
 62
     7
  6
CONTINUOUS
 66
     1
 40
0.003000
 41
0.003000
  0
VERTEX
  8
7
 62
     7
  6
CONTINUOUS
 10
-0.161220
 20
-2.928547
  0
VERTEX
  8
7
 62
     7
  6
CONTINUOUS
 10
-0.066421
 20
-2.957327
  0
VERTEX
  8
7
 62
     7
  6
CONTINUOUS
 10
0.109122
 20
-2.941886
  0
VERTEX
  8
7
 62
     7
  6
CONTINUOUS
 10
0.110528
 20
-2.940476
  0
VERTEX
  8
7
 62
     7
  6
CONTINUOUS
 10
0.115449
 20
-2.936260
  0
VERTEX
  8
7
 62
     7
  6
CONTINUOUS
 10
0.121768
 20
-2.930650
  0
VERTEX
  8
7
 62
     7
  6
CONTINUOUS
 10
0.130898
 20
-2.922217
  0
VERTEX
  8
7
 62
     7
  6
CONTINUOUS
 10
0.141425
 20
-2.913087
  0
VERTEX
  8
7
 62
     7
  6
CONTINUOUS
 10
0.153354
 20
-2.902547
  0
VERTEX
  8
7
 62
     7
  6
CONTINUOUS
 10
0.166000
 20
-2.891327
  0
VERTEX
  8
7
 62
     7
  6
CONTINUOUS
 10
0.179354
 20
-2.879382
  0
VERTEX
  8
7
 62
     7
  6
CONTINUOUS
 10
0.192689
 20
-2.868146
  0
VERTEX
  8
7
 62
     7
  6
CONTINUOUS
 10
0.205327
 20
-2.856909
  0
VERTEX
  8
7
 62
     7
  6
CONTINUOUS
 10
0.217268
 20
-2.846386
  0
VERTEX
  8
7
 62
     7
  6
CONTINUOUS
 10
0.227795
 20
-2.837240
  0
VERTEX
  8
7
 62
     7
  6
CONTINUOUS
 10
0.236933
 20
-2.828823
  0
VERTEX
  8
7
 62
     7
  6
CONTINUOUS
 10
0.243244
 20
-2.823205
  0
VERTEX
  8
7
 62
     7
  6
CONTINUOUS
 10
0.248173
 20
-2.819000
  0
VERTEX
  8
7
 62
     7
  6
CONTINUOUS
 10
0.249563
 20
-2.817591
  0
VERTEX
  8
7
 62
     7
  6
CONTINUOUS
 10
0.345071
 20
-2.650465
  0
VERTEX
  8
7
 62
     7
  6
CONTINUOUS
 10
0.373161
 20
-2.565500
  0
SEQEND
  8
0
  0
POLYLINE
  8
7
 62
     7
  6
CONTINUOUS
 66
     1
 40
0.003000
 41
0.003000
 70
     1
  0
VERTEX
  8
7
 62
     7
  6
CONTINUOUS
 10
-0.036925
 20
-2.825307
  0
VERTEX
  8
7
 62
     7
  6
CONTINUOUS
 10
-0.050980
 20
-2.774047
  0
VERTEX
  8
7
 62
     7
  6
CONTINUOUS
 10
-0.159823
 20
-2.774047
  0
VERTEX
  8
7
 62
     7
  6
CONTINUOUS
 10
-0.164740
 20
-2.779673
  0
VERTEX
  8
7
 62
     7
  6
CONTINUOUS
 10
-0.175976
 20
-2.794417
  0
VERTEX
  8
7
 62
     7
  6
CONTINUOUS
 10
-0.192823
 20
-2.815480
  0
VERTEX
  8
7
 62
     7
  6
CONTINUOUS
 10
-0.211780
 20
-2.839366
  0
VERTEX
  8
7
 62
     7
  6
CONTINUOUS
 10
-0.230748
 20
-2.863941
  0
VERTEX
  8
7
 62
     7
  6
CONTINUOUS
 10
-0.246886
 20
-2.884291
  0
VERTEX
  8
7
 62
     7
  6
CONTINUOUS
 10
-0.258134
 20
-2.899043
  0
VERTEX
  8
7
 62
     7
  6
CONTINUOUS
 10
-0.262331
 20
-2.904665
  0
VERTEX
  8
7
 62
     7
  6
CONTINUOUS
 10
-0.265154
 20
-2.907465
  0
VERTEX
  8
7
 62
     7
  6
CONTINUOUS
 10
-0.272169
 20
-2.914500
  0
VERTEX
  8
7
 62
     7
  6
CONTINUOUS
 10
-0.283409
 20
-2.925732
  0
VERTEX
  8
7
 62
     7
  6
CONTINUOUS
 10
-0.298169
 20
-2.940476
  0
VERTEX
  8
7
 62
     7
  6
CONTINUOUS
 10
-0.315004
 20
-2.958028
  0
VERTEX
  8
7
 62
     7
  6
CONTINUOUS
 10
-0.334673
 20
-2.977685
  0
VERTEX
  8
7
 62
     7
  6
CONTINUOUS
 10
-0.355035
 20
-2.998059
  0
VERTEX
  8
7
 62
     7
  6
CONTINUOUS
 10
-0.376098
 20
-3.019122
  0
VERTEX
  8
7
 62
     7
  6
CONTINUOUS
 10
-0.397161
 20
-3.040886
  0
VERTEX
  8
7
 62
     7
  6
CONTINUOUS
 10
-0.417520
 20
-3.061244
  0
VERTEX
  8
7
 62
     7
  6
CONTINUOUS
 10
-0.436492
 20
-3.080213
  0
VERTEX
  8
7
 62
     7
  6
CONTINUOUS
 10
-0.453331
 20
-3.097780
  0
VERTEX
  8
7
 62
     7
  6
CONTINUOUS
 10
-0.468094
 20
-3.111823
  0
VERTEX
  8
7
 62
     7
  6
CONTINUOUS
 10
-0.478618
 20
-3.123047
  0
VERTEX
  8
7
 62
     7
  6
CONTINUOUS
 10
-0.486350
 20
-3.130768
  0
VERTEX
  8
7
 62
     7
  6
CONTINUOUS
 10
-0.488449
 20
-3.132886
  0
VERTEX
  8
7
 62
     7
  6
CONTINUOUS
 10
-0.484941
 20
-3.133583
  0
VERTEX
  8
7
 62
     7
  6
CONTINUOUS
 10
-0.473713
 20
-3.135685
  0
VERTEX
  8
7
 62
     7
  6
CONTINUOUS
 10
-0.458953
 20
-3.137791
  0
VERTEX
  8
7
 62
     7
  6
CONTINUOUS
 10
-0.441402
 20
-3.140618
  0
VERTEX
  8
7
 62
     7
  6
CONTINUOUS
 10
-0.423858
 20
-3.143413
  0
VERTEX
  8
7
 62
     7
  6
CONTINUOUS
 10
-0.409094
 20
-3.145524
  0
VERTEX
  8
7
 62
     7
  6
CONTINUOUS
 10
-0.397858
 20
-3.146925
  0
VERTEX
  8
7
 62
     7
  6
CONTINUOUS
 10
-0.393657
 20
-3.147622
  0
VERTEX
  8
7
 62
     7
  6
CONTINUOUS
 10
-0.390843
 20
-3.144114
  0
VERTEX
  8
7
 62
     7
  6
CONTINUOUS
 10
-0.381728
 20
-3.134988
  0
VERTEX
  8
7
 62
     7
  6
CONTINUOUS
 10
-0.367677
 20
-3.120236
  0
VERTEX
  8
7
 62
     7
  6
CONTINUOUS
 10
-0.349409
 20
-3.101287
  0
VERTEX
  8
7
 62
     7
  6
CONTINUOUS
 10
-0.328354
 20
-3.078106
  0
VERTEX
  8
7
 62
     7
  6
CONTINUOUS
 10
-0.303780
 20
-3.052839
  0
VERTEX
  8
7
 62
     7
  6
CONTINUOUS
 10
-0.278500
 20
-3.025437
  0
VERTEX
  8
7
 62
     7
  6
CONTINUOUS
 10
-0.251815
 20
-2.997354
  0
VERTEX
  8
7
 62
     7
  6
CONTINUOUS
 10
-0.225130
 20
-2.969268
  0
VERTEX
  8
7
 62
     7
  6
CONTINUOUS
 10
-0.199146
 20
-2.942583
  0
VERTEX
  8
7
 62
     7
  6
CONTINUOUS
 10
-0.175268
 20
-2.916587
  0
VERTEX
  8
7
 62
     7
  6
CONTINUOUS
 10
-0.153500
 20
-2.894134
  0
VERTEX
  8
7
 62
     7
  6
CONTINUOUS
 10
-0.135240
 20
-2.875169
  0
VERTEX
  8
7
 62
     7
  6
CONTINUOUS
 10
-0.121193
 20
-2.859728
  0
VERTEX
  8
7
 62
     7
  6
CONTINUOUS
 10
-0.112764
 20
-2.850594
  0
VERTEX
  8
7
 62
     7
  6
CONTINUOUS
 10
-0.109268
 20
-2.847083
  0
VERTEX
  8
7
 62
     7
  6
CONTINUOUS
 10
-0.105748
 20
-2.845673
  0
VERTEX
  8
7
 62
     7
  6
CONTINUOUS
 10
-0.096622
 20
-2.841465
  0
VERTEX
  8
7
 62
     7
  6
CONTINUOUS
 10
-0.084681
 20
-2.836535
  0
VERTEX
  8
7
 62
     7
  6
CONTINUOUS
 10
-0.069937
 20
-2.830933
  0
VERTEX
  8
7
 62
     7
  6
CONTINUOUS
 10
-0.056598
 20
-2.826020
  0
VERTEX
  8
7
 62
     7
  6
CONTINUOUS
 10
-0.044665
 20
-2.822500
  0
VERTEX
  8
7
 62
     7
  6
CONTINUOUS
 10
-0.037638
 20
-2.821799
  0
SEQEND
  8
0
  0
POLYLINE
  8
7
 62
     7
  6
CONTINUOUS
 66
     1
 40
0.003000
 41
0.003000
  0
VERTEX
  8
7
 62
     7
  6
CONTINUOUS
 10
-0.051681
 20
-2.943283
  0
VERTEX
  8
7
 62
     7
  6
CONTINUOUS
 10
-0.221614
 20
-3.143413
  0
SEQEND
  8
0
  0
POLYLINE
  8
7
 62
     7
  6
CONTINUOUS
 66
     1
 40
0.003000
 41
0.003000
  0
VERTEX
  8
7
 62
     7
  6
CONTINUOUS
 10
-0.723689
 20
-3.163087
  0
VERTEX
  8
7
 62
     7
  6
CONTINUOUS
 10
-0.883791
 20
-2.928547
  0
VERTEX
  8
7
 62
     7
  6
CONTINUOUS
 10
-1.328291
 20
-2.825307
  0
VERTEX
  8
7
 62
     7
  6
CONTINUOUS
 10
-1.330406
 20
-2.825307
  0
VERTEX
  8
7
 62
     7
  6
CONTINUOUS
 10
-1.336717
 20
-2.825307
  0
VERTEX
  8
7
 62
     7
  6
CONTINUOUS
 10
-1.345846
 20
-2.824618
  0
VERTEX
  8
7
 62
     7
  6
CONTINUOUS
 10
-1.359185
 20
-2.824618
  0
VERTEX
  8
7
 62
     7
  6
CONTINUOUS
 10
-1.375346
 20
-2.823909
  0
VERTEX
  8
7
 62
     7
  6
CONTINUOUS
 10
-1.394299
 20
-2.823205
  0
VERTEX
  8
7
 62
     7
  6
CONTINUOUS
 10
-1.415354
 20
-2.822500
  0
VERTEX
  8
7
 62
     7
  6
CONTINUOUS
 10
-1.439244
 20
-2.821799
  0
VERTEX
  8
7
 62
     7
  6
CONTINUOUS
 10
-1.465217
 20
-2.821094
  0
VERTEX
  8
7
 62
     7
  6
CONTINUOUS
 10
-1.493307
 20
-2.820402
  0
VERTEX
  8
7
 62
     7
  6
CONTINUOUS
 10
-1.522094
 20
-2.819697
  0
VERTEX
  8
7
 62
     7
  6
CONTINUOUS
 10
-1.553004
 20
-2.818291
  0
VERTEX
  8
7
 62
     7
  6
CONTINUOUS
 10
-1.584594
 20
-2.817591
  0
VERTEX
  8
7
 62
     7
  6
CONTINUOUS
 10
-1.616909
 20
-2.816193
  0
VERTEX
  8
7
 62
     7
  6
CONTINUOUS
 10
-1.649894
 20
-2.815480
  0
VERTEX
  8
7
 62
     7
  6
CONTINUOUS
 10
-1.682909
 20
-2.814075
  0
VERTEX
  8
7
 62
     7
  6
CONTINUOUS
 10
-1.715906
 20
-2.813370
  0
VERTEX
  8
7
 62
     7
  6
CONTINUOUS
 10
-1.748906
 20
-2.812673
  0
VERTEX
  8
7
 62
     7
  6
CONTINUOUS
 10
-1.781213
 20
-2.811268
  0
VERTEX
  8
7
 62
     7
  6
CONTINUOUS
 10
-1.812831
 20
-2.810571
  0
VERTEX
  8
7
 62
     7
  6
CONTINUOUS
 10
-1.843717
 20
-2.809169
  0
VERTEX
  8
7
 62
     7
  6
CONTINUOUS
 10
-1.873201
 20
-2.808472
  0
VERTEX
  8
7
 62
     7
  6
CONTINUOUS
 10
-1.900587
 20
-2.807756
  0
VERTEX
  8
7
 62
     7
  6
CONTINUOUS
 10
-1.926571
 20
-2.807055
  0
VERTEX
  8
7
 62
     7
  6
CONTINUOUS
 10
-1.950441
 20
-2.806366
  0
VERTEX
  8
7
 62
     7
  6
CONTINUOUS
 10
-1.971508
 20
-2.805654
  0
VERTEX
  8
7
 62
     7
  6
CONTINUOUS
 10
-1.990480
 20
-2.804953
  0
VERTEX
  8
7
 62
     7
  6
CONTINUOUS
 10
-2.006630
 20
-2.804248
  0
VERTEX
  8
7
 62
     7
  6
CONTINUOUS
 10
-2.019264
 20
-2.804248
  0
VERTEX
  8
7
 62
     7
  6
CONTINUOUS
 10
-2.029094
 20
-2.803551
  0
VERTEX
  8
7
 62
     7
  6
CONTINUOUS
 10
-2.034709
 20
-2.803551
  0
VERTEX
  8
7
 62
     7
  6
CONTINUOUS
 10
-2.036815
 20
-2.803551
  0
VERTEX
  8
7
 62
     7
  6
CONTINUOUS
 10
-2.038220
 20
-2.803551
  0
VERTEX
  8
7
 62
     7
  6
CONTINUOUS
 10
-2.043142
 20
-2.803551
  0
VERTEX
  8
7
 62
     7
  6
CONTINUOUS
 10
-2.050870
 20
-2.804248
  0
VERTEX
  8
7
 62
     7
  6
CONTINUOUS
 10
-2.060701
 20
-2.804248
  0
VERTEX
  8
7
 62
     7
  6
CONTINUOUS
 10
-2.073339
 20
-2.804248
  0
VERTEX
  8
7
 62
     7
  6
CONTINUOUS
 10
-2.088083
 20
-2.804953
  0
VERTEX
  8
7
 62
     7
  6
CONTINUOUS
 10
-2.105634
 20
-2.805654
  0
VERTEX
  8
7
 62
     7
  6
CONTINUOUS
 10
-2.123894
 20
-2.805654
  0
VERTEX
  8
7
 62
     7
  6
CONTINUOUS
 10
-2.144252
 20
-2.806366
  0
VERTEX
  8
7
 62
     7
  6
CONTINUOUS
 10
-2.166012
 20
-2.807055
  0
VERTEX
  8
7
 62
     7
  6
CONTINUOUS
 10
-2.189197
 20
-2.807756
  0
VERTEX
  8
7
 62
     7
  6
CONTINUOUS
 10
-2.213075
 20
-2.808472
  0
VERTEX
  8
7
 62
     7
  6
CONTINUOUS
 10
-2.237650
 20
-2.809169
  0
VERTEX
  8
7
 62
     7
  6
CONTINUOUS
 10
-2.262937
 20
-2.809874
  0
VERTEX
  8
7
 62
     7
  6
CONTINUOUS
 10
-2.288906
 20
-2.810571
  0
VERTEX
  8
7
 62
     7
  6
CONTINUOUS
 10
-2.314898
 20
-2.810571
  0
VERTEX
  8
7
 62
     7
  6
CONTINUOUS
 10
-2.340862
 20
-2.811268
  0
VERTEX
  8
7
 62
     7
  6
CONTINUOUS
 10
-2.366850
 20
-2.811976
  0
VERTEX
  8
7
 62
     7
  6
CONTINUOUS
 10
-2.392130
 20
-2.812673
  0
VERTEX
  8
7
 62
     7
  6
CONTINUOUS
 10
-2.416713
 20
-2.813370
  0
VERTEX
  8
7
 62
     7
  6
CONTINUOUS
 10
-2.441280
 20
-2.814075
  0
VERTEX
  8
7
 62
     7
  6
CONTINUOUS
 10
-2.463760
 20
-2.814783
  0
VERTEX
  8
7
 62
     7
  6
CONTINUOUS
 10
-2.485528
 20
-2.815480
  0
VERTEX
  8
7
 62
     7
  6
CONTINUOUS
 10
-2.505894
 20
-2.816193
  0
VERTEX
  8
7
 62
     7
  6
CONTINUOUS
 10
-2.524854
 20
-2.816193
  0
VERTEX
  8
7
 62
     7
  6
CONTINUOUS
 10
-2.541016
 20
-2.816878
  0
VERTEX
  8
7
 62
     7
  6
CONTINUOUS
 10
-2.555748
 20
-2.817591
  0
VERTEX
  8
7
 62
     7
  6
CONTINUOUS
 10
-2.568398
 20
-2.817591
  0
VERTEX
  8
7
 62
     7
  6
CONTINUOUS
 10
-2.578917
 20
-2.817591
  0
VERTEX
  8
7
 62
     7
  6
CONTINUOUS
 10
-2.585949
 20
-2.818291
  0
VERTEX
  8
7
 62
     7
  6
CONTINUOUS
 10
-2.590866
 20
-2.818291
  0
VERTEX
  8
7
 62
     7
  6
CONTINUOUS
 10
-2.592268
 20
-2.818291
  0
VERTEX
  8
7
 62
     7
  6
CONTINUOUS
 10
-2.593673
 20
-2.819697
  0
VERTEX
  8
7
 62
     7
  6
CONTINUOUS
 10
-2.597185
 20
-2.823909
  0
VERTEX
  8
7
 62
     7
  6
CONTINUOUS
 10
-2.603496
 20
-2.829520
  0
VERTEX
  8
7
 62
     7
  6
CONTINUOUS
 10
-2.611220
 20
-2.837949
  0
VERTEX
  8
7
 62
     7
  6
CONTINUOUS
 10
-2.619646
 20
-2.847083
  0
VERTEX
  8
7
 62
     7
  6
CONTINUOUS
 10
-2.629472
 20
-2.857618
  0
VERTEX
  8
7
 62
     7
  6
CONTINUOUS
 10
-2.640008
 20
-2.868850
  0
VERTEX
  8
7
 62
     7
  6
CONTINUOUS
 10
-2.651260
 20
-2.880791
  0
VERTEX
  8
7
 62
     7
  6
CONTINUOUS
 10
-2.661772
 20
-2.892713
  0
VERTEX
  8
7
 62
     7
  6
CONTINUOUS
 10
-2.672319
 20
-2.903941
  0
VERTEX
  8
7
 62
     7
  6
CONTINUOUS
 10
-2.682146
 20
-2.914500
  0
VERTEX
  8
7
 62
     7
  6
CONTINUOUS
 10
-2.691272
 20
-2.923630
  0
VERTEX
  8
7
 62
     7
  6
CONTINUOUS
 10
-2.698996
 20
-2.932055
  0
VERTEX
  8
7
 62
     7
  6
CONTINUOUS
 10
-2.704622
 20
-2.937665
  0
VERTEX
  8
7
 62
     7
  6
CONTINUOUS
 10
-2.708122
 20
-2.941886
  0
VERTEX
  8
7
 62
     7
  6
CONTINUOUS
 10
-2.709535
 20
-2.943283
  0
SEQEND
  8
0
  0
POLYLINE
  8
7
 62
     7
  6
CONTINUOUS
 66
     1
 40
0.003000
 41
0.003000
  0
VERTEX
  8
7
 62
     7
  6
CONTINUOUS
 10
-2.209567
 20
-2.927126
  0
VERTEX
  8
7
 62
     7
  6
CONTINUOUS
 10
-2.265732
 20
-3.061244
  0
VERTEX
  8
7
 62
     7
  6
CONTINUOUS
 10
-2.113354
 20
-3.176413
  0
SEQEND
  8
0
  0
POLYLINE
  8
7
 62
     7
  6
CONTINUOUS
 66
     1
 40
0.003000
 41
0.003000
 70
     1
  0
VERTEX
  8
7
 62
     7
  6
CONTINUOUS
 10
2.535252
 20
-2.446819
  0
VERTEX
  8
7
 62
     7
  6
CONTINUOUS
 10
2.669378
 20
-2.234752
  0
VERTEX
  8
7
 62
     7
  6
CONTINUOUS
 10
2.821744
 20
-2.234752
  0
VERTEX
  8
7
 62
     7
  6
CONTINUOUS
 10
2.860366
 20
-2.656787
  0
VERTEX
  8
7
 62
     7
  6
CONTINUOUS
 10
2.858961
 20
-2.656787
  0
VERTEX
  8
7
 62
     7
  6
CONTINUOUS
 10
2.854752
 20
-2.657484
  0
VERTEX
  8
7
 62
     7
  6
CONTINUOUS
 10
2.847744
 20
-2.658890
  0
VERTEX
  8
7
 62
     7
  6
CONTINUOUS
 10
2.839303
 20
-2.660307
  0
VERTEX
  8
7
 62
     7
  6
CONTINUOUS
 10
2.829472
 20
-2.661705
  0
VERTEX
  8
7
 62
     7
  6
CONTINUOUS
 10
2.818240
 20
-2.663091
  0
VERTEX
  8
7
 62
     7
  6
CONTINUOUS
 10
2.805606
 20
-2.665205
  0
VERTEX
  8
7
 62
     7
  6
CONTINUOUS
 10
2.793657
 20
-2.666618
  0
VERTEX
  8
7
 62
     7
  6
CONTINUOUS
 10
2.781016
 20
-2.668724
  0
VERTEX
  8
7
 62
     7
  6
CONTINUOUS
 10
2.768382
 20
-2.670118
  0
VERTEX
  8
7
 62
     7
  6
CONTINUOUS
 10
2.757154
 20
-2.671528
  0
VERTEX
  8
7
 62
     7
  6
CONTINUOUS
 10
2.747311
 20
-2.672941
  0
VERTEX
  8
7
 62
     7
  6
CONTINUOUS
 10
2.738882
 20
-2.674343
  0
VERTEX
  8
7
 62
     7
  6
CONTINUOUS
 10
2.731862
 20
-2.675059
  0
VERTEX
  8
7
 62
     7
  6
CONTINUOUS
 10
2.727661
 20
-2.675736
  0
VERTEX
  8
7
 62
     7
  6
CONTINUOUS
 10
2.726248
 20
-2.675736
  0
VERTEX
  8
7
 62
     7
  6
CONTINUOUS
 10
2.726248
 20
-2.625185
  0
VERTEX
  8
7
 62
     7
  6
CONTINUOUS
 10
2.726248
 20
-2.513543
  0
VERTEX
  8
7
 62
     7
  6
CONTINUOUS
 10
2.726248
 20
-2.401185
  0
VERTEX
  8
7
 62
     7
  6
CONTINUOUS
 10
2.726248
 20
-2.350622
  0
SEQEND
  8
0
  0
POLYLINE
  8
7
 62
     7
  6
CONTINUOUS
 66
     1
 40
0.003000
 41
0.003000
  0
VERTEX
  8
7
 62
     7
  6
CONTINUOUS
 10
1.451744
 20
-3.135685
  0
VERTEX
  8
7
 62
     7
  6
CONTINUOUS
 10
1.477728
 20
-2.992441
  0
VERTEX
  8
7
 62
     7
  6
CONTINUOUS
 10
1.635717
 20
-2.889213
  0
VERTEX
  8
7
 62
     7
  6
CONTINUOUS
 10
1.740350
 20
-2.987524
  0
VERTEX
  8
7
 62
     7
  6
CONTINUOUS
 10
1.788799
 20
-3.140618
  0
SEQEND
  8
0
  0
POLYLINE
  8
7
 62
     7
  6
CONTINUOUS
 66
     1
 40
0.003000
 41
0.003000
  0
VERTEX
  8
7
 62
     7
  6
CONTINUOUS
 10
-2.744646
 20
-3.139201
  0
VERTEX
  8
7
 62
     7
  6
CONTINUOUS
 10
2.821744
 20
-3.139201
  0
SEQEND
  8
0
  0
POLYLINE
  8
7
 62
     7
  6
CONTINUOUS
 66
     1
 40
0.003000
 41
0.003000
  0
VERTEX
  8
7
 62
     7
  6
CONTINUOUS
 10
2.624433
 20
-3.116028
  0
VERTEX
  8
7
 62
     7
  6
CONTINUOUS
 10
2.357591
 20
-2.769839
  0
VERTEX
  8
7
 62
     7
  6
CONTINUOUS
 10
2.472752
 20
-2.692594
  0
VERTEX
  8
7
 62
     7
  6
CONTINUOUS
 10
2.469240
 20
-2.691197
  0
VERTEX
  8
7
 62
     7
  6
CONTINUOUS
 10
2.460114
 20
-2.686972
  0
VERTEX
  8
7
 62
     7
  6
CONTINUOUS
 10
2.446071
 20
-2.679961
  0
VERTEX
  8
7
 62
     7
  6
CONTINUOUS
 10
2.427819
 20
-2.671528
  0
VERTEX
  8
7
 62
     7
  6
CONTINUOUS
 10
2.405339
 20
-2.661000
  0
VERTEX
  8
7
 62
     7
  6
CONTINUOUS
 10
2.381465
 20
-2.649752
  0
VERTEX
  8
7
 62
     7
  6
CONTINUOUS
 10
2.355484
 20
-2.637823
  0
VERTEX
  8
7
 62
     7
  6
CONTINUOUS
 10
2.328799
 20
-2.625185
  0
VERTEX
  8
7
 62
     7
  6
CONTINUOUS
 10
2.302110
 20
-2.612543
  0
VERTEX
  8
7
 62
     7
  6
CONTINUOUS
 10
2.276134
 20
-2.600610
  0
VERTEX
  8
7
 62
     7
  6
CONTINUOUS
 10
2.251551
 20
-2.589366
  0
VERTEX
  8
7
 62
     7
  6
CONTINUOUS
 10
2.229783
 20
-2.578835
  0
VERTEX
  8
7
 62
     7
  6
CONTINUOUS
 10
2.211531
 20
-2.570402
  0
VERTEX
  8
7
 62
     7
  6
CONTINUOUS
 10
2.197480
 20
-2.563398
  0
VERTEX
  8
7
 62
     7
  6
CONTINUOUS
 10
2.188370
 20
-2.559177
  0
VERTEX
  8
7
 62
     7
  6
CONTINUOUS
 10
2.185551
 20
-2.557768
  0
VERTEX
  8
7
 62
     7
  6
CONTINUOUS
 10
2.185551
 20
-2.569012
  0
VERTEX
  8
7
 62
     7
  6
CONTINUOUS
 10
2.185551
 20
-2.598500
  0
VERTEX
  8
7
 62
     7
  6
CONTINUOUS
 10
2.186248
 20
-2.641327
  0
VERTEX
  8
7
 62
     7
  6
CONTINUOUS
 10
2.187661
 20
-2.691902
  0
VERTEX
  8
7
 62
     7
  6
CONTINUOUS
 10
2.191154
 20
-2.745965
  0
VERTEX
  8
7
 62
     7
  6
CONTINUOUS
 10
2.197480
 20
-2.797917
  0
VERTEX
  8
7
 62
     7
  6
CONTINUOUS
 10
2.203094
 20
-2.843571
  0
VERTEX
  8
7
 62
     7
  6
CONTINUOUS
 10
2.205213
 20
-2.877283
  0
VERTEX
  8
7
 62
     7
  6
CONTINUOUS
 10
2.205917
 20
-2.885709
  0
VERTEX
  8
7
 62
     7
  6
CONTINUOUS
 10
2.208717
 20
-2.889917
  0
VERTEX
  8
7
 62
     7
  6
CONTINUOUS
 10
2.213634
 20
-2.891327
  0
VERTEX
  8
7
 62
     7
  6
CONTINUOUS
 10
2.220661
 20
-2.889213
  0
VERTEX
  8
7
 62
     7
  6
CONTINUOUS
 10
2.228378
 20
-2.885008
  0
VERTEX
  8
7
 62
     7
  6
CONTINUOUS
 10
2.237512
 20
-2.877972
  0
VERTEX
  8
7
 62
     7
  6
CONTINUOUS
 10
2.247335
 20
-2.870260
  0
VERTEX
  8
7
 62
     7
  6
CONTINUOUS
 10
2.257169
 20
-2.861831
  0
VERTEX
  8
7
 62
     7
  6
CONTINUOUS
 10
2.267697
 20
-2.852709
  0
VERTEX
  8
7
 62
     7
  6
CONTINUOUS
 10
2.277539
 20
-2.843571
  0
VERTEX
  8
7
 62
     7
  6
CONTINUOUS
 10
2.287374
 20
-2.835850
  0
VERTEX
  8
7
 62
     7
  6
CONTINUOUS
 10
2.296488
 20
-2.828823
  0
VERTEX
  8
7
 62
     7
  6
CONTINUOUS
 10
2.304217
 20
-2.823205
  0
VERTEX
  8
7
 62
     7
  6
CONTINUOUS
 10
2.310539
 20
-2.820402
  0
VERTEX
  8
7
 62
     7
  6
CONTINUOUS
 10
2.314752
 20
-2.820402
  0
VERTEX
  8
7
 62
     7
  6
CONTINUOUS
 10
2.317571
 20
-2.823205
  0
VERTEX
  8
7
 62
     7
  6
CONTINUOUS
 10
2.321075
 20
-2.830933
  0
VERTEX
  8
7
 62
     7
  6
CONTINUOUS
 10
2.329500
 20
-2.844268
  0
VERTEX
  8
7
 62
     7
  6
CONTINUOUS
 10
2.340744
 20
-2.861831
  0
VERTEX
  8
7
 62
     7
  6
CONTINUOUS
 10
2.355484
 20
-2.883594
  0
VERTEX
  8
7
 62
     7
  6
CONTINUOUS
 10
2.373043
 20
-2.907465
  0
VERTEX
  8
7
 62
     7
  6
CONTINUOUS
 10
2.391299
 20
-2.934161
  0
VERTEX
  8
7
 62
     7
  6
CONTINUOUS
 10
2.411657
 20
-2.961547
  0
VERTEX
  8
7
 62
     7
  6
CONTINUOUS
 10
2.432020
 20
-2.989634
  0
VERTEX
  8
7
 62
     7
  6
CONTINUOUS
 10
2.452406
 20
-3.017008
  0
VERTEX
  8
7
 62
     7
  6
CONTINUOUS
 10
2.472055
 20
-3.042992
  0
VERTEX
  8
7
 62
     7
  6
CONTINUOUS
 10
2.490307
 20
-3.067579
  0
VERTEX
  8
7
 62
     7
  6
CONTINUOUS
 10
2.506441
 20
-3.088642
  0
VERTEX
  8
7
 62
     7
  6
CONTINUOUS
 10
2.520496
 20
-3.106197
  0
VERTEX
  8
7
 62
     7
  6
CONTINUOUS
 10
2.530331
 20
-3.119547
  0
VERTEX
  8
7
 62
     7
  6
CONTINUOUS
 10
2.537343
 20
-3.127264
  0
VERTEX
  8
7
 62
     7
  6
CONTINUOUS
 10
2.539469
 20
-3.128669
  0
SEQEND
  8
0
  0
ENDSEC
  0
EOF
