  0
SECTION
  2
HEADER
  9
$ACADVER
  1
AC1009
  9
$ANGBASE
  50
0.0
  9
$ANGDIR
  70
0
  9
$ATTDIA
  70
0
  9
$ATTMODE
  70
0
  9
$ATTREQ
  70
1
  9
$AUNITS
  70
0
  9
$AUPREC
  70
2
  9
$AXISMODE
  70
0
  9
$CECOLOR
  62
256
  9
$CELTYPE
  6
BYLAYER
  9
$CLAYER
  8
0
  9
$DIMALT
  70
0
  9
$DIMALTD
  70
2
  9
$DIMALTF
  40
0.0
  9
$DIMAPOST
  1

  9
$DIMASO
  70
0
  9
$DIMASZ
  40
4.0
  9
$DIMBLK
  1

  9
$DIMBLK1
  1

  9
$DIMBLK2
  1

  9
$DIMCEN
  40
0.09
  9
$DIMCLRD
  70
256
  9
$DIMCLRE
  70
256
  9
$DIMCLRT
  70
256
  9
$DIMDLE
  40
0.0
  9
$DIMDLI
  40
10.0
  9
$DIMEXE
  40
3.0
  9
$DIMEXO
  40
0.0
  9
$DIMGAP
  40
1.5
  9
$DIMLFAC
  40
1.0
  9
$DIMLIM
  70
0
  9
$DIMPOST
  1

  9
$DIMRND
  40
0.001
  9
$DIMSAH
  70
0
  9
$DIMSCALE
  40
0.6
  9
$DIMSE1
  70
0
  9
$DIMSE2
  70
0
  9
$DIMSHO
  70
1
  9
$DIMSOXD
  70
0
  9
$DIMSTYLE
  2
*UNNAMED
  9
$DIMTAD
  70
1
  9
$DIMTFAC
  40
1.0
  9
$DIMTIH
  70
0
  9
$DIMTIX
  70
0
  9
$DIMTM
  40
0.0
  9
$DIMTOFL
  70
0
  9
$DIMTOH
  70
0
  9
$DIMTOL
  70
0
  9
$DIMTP
  40
0.2
  9
$DIMTSZ
  40
0.0
  9
$DIMTVP
  40
0.0
  9
$DIMTXT
  40
4.283
  9
$DIMZIN
  70
8
  9
$DRAGMODE
  70
0
  9
$ELEVATION
  40
0.0
  9
$EXTMAX
  10
0.0
  20
0.0
  30
0.0
  9
$EXTMIN
  10
0.0
  20
0.0
  30
0.0
  9
$FILLETRAD
  40
25.0
  9
$FILLMODE
  70
1
  9
$INSBASE
  10
0.0
  20
0.0
  30
0.0
  9
$LIMMAX
  10
310.512077
  20
259.961536
  9
$LIMMIN
  10
72.767988
  20
91.859655
  9
$LTSCALE
  40
1.0
  9
$LUNITS
  70
2
  9
$LUPREC
  70
3
  9
$MENU
  1
acad
  9
$MIRRTEXT
  70
0
  9
$ORTHOMODE
  70
0
  9
$OSMODE
  70
0
  9
$PDMODE
  70
0
  9
$PDSIZE
  40
0.0
  9
$PEXTMAX
  10
0.0
  20
0.0
  30
0.0
  9
$PEXTMIN
  10
0.0
  20
0.0
  30
0.0
  9
$PLIMCHECK
  70
0
  9
$PLIMMAX
  10
0.0
  20
0.0
  9
$PLIMMIN
  10
0.0
  20
0.0
  9
$PLINEWID
  40
0.0
  9
$PUCSXDIR
  10
1.0
  20
0.0
  30
0.0
  9
$PUCSYDIR
  10
0.0
  20
1.0
  30
0.0
  9
$QTEXTMODE
  70
0
  9
$SHADEDGE
  70
3
  9
$SHADEDIF
  70
70
  9
$SKETCHINC
  40
1.0
  9
$SPLFRAME
  70
0
  9
$SPLINESEGS
  70
20
  9
$SPLINETYPE
  70
0
  9
$SURFTAB1
  70
6
  9
$SURFTAB2
  70
6
  9
$TDINDWG
  40
0.0
  9
$TDUPDATE
  40
2449702.667959
  9
$TDUSRTIMER
  40
0.0
  9
$TEXTSIZE
  40
6.779
  9
$TEXTSTYLE
  7
STANDARD
  9
$TILEMODE
  70
1
  9
$TRACEWID
  40
1.0
  9
$UCSORG
  10
0.0
  20
0.0
  30
0.0
  9
$UCSXDIR
  10
1.0
  20
0.0
  30
0.0
  9
$UCSYDIR
  10
0.0
  20
1.0
  30
0.0
  9
$UNITMODE
  70
0
  9
$WORLDVIEW
  70
1
  9
$GRIDMODE
  70
1
  9
$PINSBASE
  10
0.0
  20
0.0
  30
0.0
  9
$PSLTSCALE
  70
1
  9
$TREEDEPTH
  70
3020
  0
ENDSEC
  0
SECTION
  2
TABLES
  0
TABLE
  2
VPORT
  70
1
  0
VPORT
  2
*ACTIVE
  70
0
  10
0.0
  20
0.0
  11
1.0
  21
1.0
  12
191.640034
  22
175.910614
  13
0.0
  23
0.0
  14
5.0
  24
5.0
  15
5.0
  25
5.0
  16
0.0
  26
0.0
  36
1.0
  17
0.0
  27
0.0
  37
0.0
  40
171.463928
  41
1.591518
  42
50.0
  43
0.0
  44
0.0
  50
0.0
  51
0.0
  71
0
  72
100
  73
1
  74
1
  75
0
  76
1
  77
0
  78
0
  0
ENDTAB
  0
TABLE
  2
LTYPE
  70
12
  0
LTYPE
  2
CONTINUOUS
  70
0
  3
CONTINUOUS
  72
65
  73
0
  40
0.0
  0
LTYPE
  2
BORDER
  70
0
  3
BORDER
  72
65
  73
6
  40
1.75
  49
0.5
  49
-0.25
  49
0.5
  49
-0.25
  49
0.0
  49
-0.25
  0
LTYPE
  2
CENTER
  70
0
  3
CENTER
  72
65
  73
4
  40
2.0
  49
1.25
  49
-0.25
  49
0.25
  49
-0.25
  0
LTYPE
  2
DASHDOT
  70
0
  3
DASHDOT
  72
65
  73
4
  40
1.0
  49
0.5
  49
-0.25
  49
0.0
  49
-0.25
  0
LTYPE
  2
DASHED
  70
0
  3
DASHED
  72
65
  73
2
  40
0.75
  49
0.5
  49
-0.25
  0
LTYPE
  2
DIVIDE
  70
0
  3
DIVIDE
  72
65
  73
6
  40
1.25
  49
0.5
  49
-0.25
  49
0.0
  49
-0.25
  49
0.0
  49
-0.25
  0
LTYPE
  2
DOT
  70
0
  3
DOT
  72
65
  73
2
  40
0.25
  49
0.0
  49
-0.25
  0
LTYPE
  2
HIDDEN
  70
0
  3
HIDDEN
  72
65
  73
2
  40
0.375
  49
0.25
  49
-0.125
  0
LTYPE
  2
PHANTOM
  70
0
  3
PHANTOM
  72
65
  73
6
  40
2.5
  49
1.25
  49
-0.25
  49
0.25
  49
-0.25
  49
0.25
  49
-0.25
  0
LTYPE
  2
$AUXILIARY
  70
0
  3
$AUXILIARY
  72
65
  73
2
  40
0.1
  49
0.05
  49
-0.05
  0
LTYPE
  2
$INVISIBLE
  70
0
  3
$INVISIBLE
  72
65
  73
2
  40
200.0
  49
-100.0
  49
-100.0
  0
LTYPE
  2
AXES
  70
0
  3
AXES
  72
65
  73
4
  40
20.0
  49
12.5
  49
-2.5
  49
2.5
  49
-2.5
  0
ENDTAB
  0
TABLE
  2
LAYER
  70
1
  0
LAYER
  2
0
  70
64
  6
CONTINUOUS
  62
7
  0
ENDTAB
  0
TABLE
  2
STYLE
  70
1
  0
STYLE
  2
STANDARD
  70
0
  3
txt
  4

  40
0.0
  41
1.0
  42
0.2
  50
0.0
  71
0
  0
ENDTAB
  0
ENDSEC
  0
SECTION
  2
BLOCKS
  0
BLOCK
  8
0
  70
64
  2
Bloc_1
  10
125.55838
  20
25.439186
  30
0.0
  3
Bloc_1
  0
TEXT
  8
0
  62
82
  10
113.768379
  20
24.189186
  1
Dessiné par :
  40
3.75
  7
STANDARD
  72
5
  11
137.348373
  21
24.189186
  31
0.0
  0
ENDBLK
  0
BLOCK
  8
0
  70
64
  2
A4-V
  10
0.0
  20
0.0
  30
0.0
  3
A4-V
  0
POLYLINE
  8
0
  66
1
  70
1
  0
VERTEX
  8
0
  10
0.0
  20
0.0
  30
0.0
  0
VERTEX
  8
0
  10
190.0
  20
0.0
  30
0.0
  0
VERTEX
  8
0
  10
190.0
  20
277.0
  30
0.0
  0
VERTEX
  8
0
  10
0.0
  20
277.0
  30
0.0
  0
SEQEND
  0
ENDBLK
  0
BLOCK
  8
0
  70
64
  2
CARTOUCH
  10
0.0
  20
0.0
  30
0.0
  3
CARTOUCH
  0
SOLID
  8
0
  10
-179.75
  20
0.25
  11
-0.25
  21
0.25
  12
-179.75
  22
31.75
  13
-0.25
  23
31.75
  0
SOLID
  8
0
  10
-180.25
  20
-0.25
  11
-180.25
  21
32.25
  12
0.25
  22
-0.25
  13
0.25
  23
32.25
  0
LINE
  8
0
  62
3
  10
-150.0
  20
0.0
  11
-150.0
  21
32.0
  0
LINE
  8
0
  62
3
  10
-70.0
  20
32.0
  11
-70.0
  21
16.0
  0
LINE
  8
0
  62
3
  10
-150.0
  20
16.0
  11
0.0
  21
16.0
  0
POINT
  8
0
  62
3
  10
-150.0
  20
10.666667
  1001
ACAD
  1000
TCW30POINT
  1002
{
  1070
0
  1040
0.00001
  1000

  1070
0
  1071
65280
  1040
1.0
  1040
0.0
  1000
UNDEFINED
  1000
0
  1071
1
  1071
242
  1010
-150.0
  1020
10.666667
  1002
}
  0
POINT
  8
0
  62
3
  10
-150.0
  20
21.333334
  1001
ACAD
  1000
TCW30POINT
  1002
{
  1070
0
  1040
0.00001
  1000

  1070
0
  1071
65280
  1040
1.0
  1040
0.0
  1000
UNDEFINED
  1000
0
  1071
1
  1071
242
  1010
-150.0
  1020
21.333334
  1002
}
  0
LINE
  8
0
  62
3
  10
-150.0
  20
21.333334
  11
-180.0
  21
21.333334
  0
LINE
  8
0
  62
3
  10
-150.0
  20
10.666667
  11
-180.0
  21
10.666667
  0
LINE
  8
0
  62
3
  10
-70.0
  20
24.0
  11
0.0
  21
24.0
  0
TEXT
  8
0
  10
-141.9608
  20
21.74437
  1
AIFT INDUSTRIE
  40
5.0
  7
STANDARD
  72
5
  11
-79.854439
  21
21.74437
  31
0.0
  0
TEXT
  8
0
  62
3
  10
-68.01075
  20
28.894913
  1
dessine par :
  40
2.0
  7
STANDARD
  72
5
  11
-55.968082
  21
28.894913
  31
0.0
  0
TEXT
  8
0
  62
3
  10
-68.01075
  20
20.978732
  1
le :
  40
2.000001
  7
STANDARD
  72
5
  11
-65.000084
  21
20.978732
  31
0.0
  0
TEXT
  8
0
  62
3
  10
-177.84581
  20
25.16764
  1
Echelle:
  40
2.499999
  7
STANDARD
  72
5
  11
-167.995804
  21
25.16764
  31
0.0
  0
LINE
  8
0
  6
AXES
  62
3
  10
-176.49585
  20
16.088823
  11
-151.090744
  21
16.088823
  0
LINE
  8
0
  6
AXES
  62
3
  10
-157.740021
  20
20.277731
  11
-157.740021
  21
11.438282
  0
CIRCLE
  8
0
  62
3
  10
-157.740021
  20
16.088823
  40
4.73477
  0
CIRCLE
  8
0
  62
3
  10
-157.740021
  20
16.088823
  40
3.23018
  0
LINE
  8
0
  62
3
  10
-164.116425
  20
20.823591
  11
-164.116425
  21
11.354056
  0
LINE
  8
0
  62
3
  10
-175.346939
  20
12.858644
  11
-175.346939
  21
19.319004
  0
LINE
  8
0
  62
3
  10
-175.346939
  20
19.319004
  11
-164.116425
  21
20.823591
  0
LINE
  8
0
  62
3
  10
-175.346939
  20
12.858644
  11
-164.116425
  21
11.354056
  0
ENDBLK
  0
BLOCK
  8
0
  70
64
  2
Bloc_2
  10
90.0
  20
15.0
  30
0.0
  3
Bloc_2
  0
POLYLINE
  8
0
  6
CONTINUOUS
  62
7
  40
0.03937
  41
0.03937
  66
1
  70
1
  0
VERTEX
  8
0
  10
0.0
  20
0.0
  30
0.0
  0
VERTEX
  8
0
  10
180.0
  20
0.0
  30
0.0
  0
VERTEX
  8
0
  10
180.0
  20
30.0
  30
0.0
  0
VERTEX
  8
0
  10
0.0
  20
30.0
  30
0.0
  0
SEQEND
  0
POLYLINE
  8
0
  6
CONTINUOUS
  62
7
  40
0.007874
  41
0.007874
  66
1
  0
VERTEX
  8
0
  10
30.0
  20
30.0
  30
0.0
  0
VERTEX
  8
0
  10
30.0
  20
0.0
  30
0.0
  0
SEQEND
  0
POLYLINE
  8
0
  6
CONTINUOUS
  62
7
  40
0.007874
  41
0.007874
  66
1
  0
VERTEX
  8
0
  10
110.0
  20
30.0
  30
0.0
  0
VERTEX
  8
0
  10
110.0
  20
15.0
  30
0.0
  0
SEQEND
  0
POLYLINE
  8
0
  6
CONTINUOUS
  62
7
  40
0.007874
  41
0.007874
  66
1
  0
VERTEX
  8
0
  10
30.0
  20
15.0
  30
0.0
  0
VERTEX
  8
0
  10
180.0
  20
15.0
  30
0.0
  0
SEQEND
  0
POLYLINE
  8
0
  6
CONTINUOUS
  62
7
  40
0.007874
  41
0.007874
  66
1
  0
VERTEX
  8
0
  10
110.0
  20
22.5
  30
0.0
  0
VERTEX
  8
0
  10
180.0
  20
22.5
  30
0.0
  0
SEQEND
  0
POLYLINE
  8
0
  6
CONTINUOUS
  62
7
  40
0.007874
  41
0.007874
  66
1
  0
VERTEX
  8
0
  10
0.0
  20
20.0
  30
0.0
  0
VERTEX
  8
0
  10
30.0
  20
20.0
  30
0.0
  0
SEQEND
  0
POLYLINE
  8
0
  6
CONTINUOUS
  62
7
  40
0.007874
  41
0.007874
  66
1
  0
VERTEX
  8
0
  10
0.0
  20
10.0
  30
0.0
  0
VERTEX
  8
0
  10
30.0
  20
10.0
  30
0.0
  0
SEQEND
  0
CIRCLE
  8
0
  6
CONTINUOUS
  62
70
  210
0.0
  220
0.098069
  230
0.99518
  10
-19.832396
  20
-14.779912
  30
1.456479
  40
3.317184
  0
CIRCLE
  8
0
  6
CONTINUOUS
  62
70
  210
0.0
  220
0.098067
  230
0.99518
  10
-19.832396
  20
-14.779916
  30
1.456436
  40
1.658592
  0
POLYLINE
  8
0
  6
CONTINUOUS
  62
70
  40
0.007874
  41
0.007874
  66
1
  0
VERTEX
  8
0
  10
13.198025
  20
18.152697
  30
0.0
  0
VERTEX
  8
0
  10
13.198025
  20
11.55031
  30
0.0
  0
SEQEND
  0
POLYLINE
  8
0
  6
CONTINUOUS
  62
70
  40
0.007874
  41
0.007874
  66
1
  0
VERTEX
  8
0
  10
6.697942
  20
16.641684
  30
0.0
  0
VERTEX
  8
0
  10
6.697942
  20
13.200907
  30
0.0
  0
SEQEND
  0
POLYLINE
  8
0
  6
CONTINUOUS
  62
70
  40
0.007874
  41
0.007874
  66
1
  0
VERTEX
  8
0
  10
13.198025
  20
18.152697
  30
0.0
  0
VERTEX
  8
0
  10
6.697942
  20
16.641684
  30
0.0
  0
SEQEND
  0
POLYLINE
  8
0
  6
CONTINUOUS
  62
70
  40
0.007874
  41
0.007874
  66
1
  0
VERTEX
  8
0
  10
13.198025
  20
11.55031
  30
0.0
  0
VERTEX
  8
0
  10
6.697942
  20
13.200907
  30
0.0
  0
SEQEND
  0
POLYLINE
  8
0
  6
DASHDOT
  62
70
  40
0.007874
  41
0.007874
  66
1
  0
VERTEX
  8
0
  10
4.905061
  20
14.851502
  30
0.0
  0
VERTEX
  8
0
  10
24.808172
  20
14.851502
  30
0.0
  0
SEQEND
  0
POLYLINE
  8
0
  6
DASHDOT
  62
70
  40
0.007874
  41
0.007874
  66
1
  0
VERTEX
  8
0
  10
19.832396
  20
19.803291
  30
0.0
  0
VERTEX
  8
0
  10
19.832396
  20
9.899714
  30
0.0
  0
SEQEND
  0
TEXT
  8
0
  62
150
  10
42.530231
  20
21.188855
  1
aift industrie
  40
5.795903
  7
STANDARD
  72
5
  11
100.782715
  21
21.188855
  31
0.0
  0
TEXT
  8
0
  62
82
  10
4.037598
  20
21.689184
  1
Echelle:
  40
3.75
  7
STANDARD
  72
5
  11
18.837597
  21
21.689184
  31
0.0
  0
TEXT
  8
0
  62
82
  10
115.206894
  20
17.234102
  1
Le:
  40
3.75
  7
STANDARD
  72
5
  11
121.226891
  21
17.234102
  31
0.0
  0
TEXT
  8
0
  62
82
  10
113.149826
  20
24.638334
  1
Dessine par : G. Maillard
  40
3.75
  7
STANDARD
  72
5
  11
158.93483
  21
24.638334
  31
0.0
  0
ENDBLK
  0
BLOCK
  8
0
  70
65
  2
*G4
  10
0.0
  20
0.0
  30
0.0
  3
*G
  0
POLYLINE
  8
0
  6
CONTINUOUS
  62
7
  40
0.03937
  41
0.03937
  66
1
  70
9
  0
VERTEX
  8
0
  10
152.453522
  20
98.175125
  30
7.405934
  70
32
  0
VERTEX
  8
0
  10
287.546478
  20
98.175125
  30
7.405934
  70
32
  0
VERTEX
  8
0
  10
287.546478
  20
115.723473
  30
7.405934
  70
32
  0
VERTEX
  8
0
  10
152.453522
  20
115.723473
  30
7.405934
  70
32
  0
SEQEND
  0
POLYLINE
  8
0
  6
CONTINUOUS
  62
7
  40
0.007874
  41
0.007874
  66
1
  70
8
  0
VERTEX
  8
0
  10
174.969009
  20
115.723473
  30
7.405934
  70
32
  0
VERTEX
  8
0
  10
174.969009
  20
98.175125
  30
7.405934
  70
32
  0
SEQEND
  0
POLYLINE
  8
0
  6
CONTINUOUS
  62
7
  40
0.007874
  41
0.007874
  66
1
  70
8
  0
VERTEX
  8
0
  10
235.01033
  20
115.723473
  30
7.405934
  70
32
  0
VERTEX
  8
0
  10
235.01033
  20
106.74189
  30
7.405934
  70
32
  0
SEQEND
  0
POLYLINE
  8
0
  6
CONTINUOUS
  62
7
  40
0.007874
  41
0.007874
  66
1
  70
8
  0
VERTEX
  8
0
  10
174.969009
  20
110.388962
  30
7.405934
  70
32
  0
VERTEX
  8
0
  10
152.453522
  20
110.388962
  30
7.405934
  70
32
  0
SEQEND
  0
POLYLINE
  8
0
  6
CONTINUOUS
  62
7
  40
0.007874
  41
0.007874
  66
1
  70
8
  0
VERTEX
  8
0
  10
174.910583
  20
104.401184
  30
7.405934
  70
32
  0
VERTEX
  8
0
  10
152.453522
  20
104.401184
  30
7.405934
  70
32
  0
SEQEND
  0
POLYLINE
  8
0
  6
CONTINUOUS
  62
7
  40
0.007874
  41
0.007874
  66
1
  70
8
  0
VERTEX
  8
0
  10
287.546478
  20
106.74189
  30
7.405934
  70
32
  0
VERTEX
  8
0
  10
174.969009
  20
106.74189
  30
7.405934
  70
32
  0
SEQEND
  0
POLYLINE
  8
0
  6
CONTINUOUS
  62
82
  40
0.015748
  41
0.015748
  66
1
  70
8
  0
VERTEX
  8
0
  10
163.073212
  20
109.457703
  30
7.405934
  70
32
  0
VERTEX
  8
0
  10
163.073212
  20
105.38961
  30
7.405934
  70
32
  0
SEQEND
  0
POLYLINE
  8
0
  6
CENTER
  62
82
  40
0.007874
  41
0.007874
  66
1
  70
8
  0
VERTEX
  8
0
  10
154.163147
  20
107.42366
  30
7.405934
  70
32
  0
VERTEX
  8
0
  10
172.832611
  20
107.42366
  30
7.405934
  70
32
  0
SEQEND
  0
POLYLINE
  8
0
  6
CENTER
  62
82
  40
0.007874
  41
0.007874
  66
1
  70
8
  0
VERTEX
  8
0
  10
168.733307
  20
110.267776
  30
7.405934
  70
32
  0
VERTEX
  8
0
  10
168.733307
  20
104.522308
  30
7.405934
  70
32
  0
SEQEND
  0
CIRCLE
  8
0
  6
CONTINUOUS
  62
82
  210
0.0
  220
0.654112
  230
0.756398
  10
-168.733307
  20
-76.410745
  30
75.868891
  40
2.542297
  0
CIRCLE
  8
0
  6
CONTINUOUS
  62
82
  210
0.0
  220
0.654107
  230
0.756402
  10
-168.733307
  20
-76.411162
  30
75.868472
  40
1.256134
  0
POLYLINE
  8
0
  6
CONTINUOUS
  62
82
  40
0.015748
  41
0.015748
  66
1
  70
8
  0
VERTEX
  8
0
  10
155.529617
  20
108.373802
  30
7.405934
  70
32
  0
VERTEX
  8
0
  10
155.529617
  20
106.473518
  30
7.405934
  70
32
  0
SEQEND
  0
POLYLINE
  8
0
  6
CONTINUOUS
  62
82
  40
0.015748
  41
0.015748
  66
1
  70
8
  0
VERTEX
  8
0
  10
163.073212
  20
109.457703
  30
7.405934
  70
32
  0
VERTEX
  8
0
  10
155.529617
  20
108.373802
  30
7.405934
  70
32
  0
SEQEND
  0
POLYLINE
  8
0
  6
CONTINUOUS
  62
82
  40
0.015748
  41
0.015748
  66
1
  70
8
  0
VERTEX
  8
0
  10
163.073212
  20
105.38961
  30
7.405934
  70
32
  0
VERTEX
  8
0
  10
155.529617
  20
106.473518
  30
7.405934
  70
32
  0
SEQEND
  0
TEXT
  8
0
  62
82
  10
153.276138
  20
112.383253
  30
7.405934
  1
Echelle:
  40
2.245394
  7
STANDARD
  72
5
  11
164.383759
  21
112.383253
  31
7.405934
  0
POLYLINE
  8
0
  6
CONTINUOUS
  62
7
  40
0.015748
  41
0.015748
  66
1
  70
8
  0
VERTEX
  8
0
  10
287.546478
  20
111.232651
  30
7.405934
  70
32
  0
VERTEX
  8
0
  10
235.01033
  20
111.232651
  30
7.405934
  70
32
  0
SEQEND
  0
TEXT
  8
0
  62
82
  10
237.156769
  20
108.255362
  30
7.405934
  1
Le :
  40
2.245394
  7
STANDARD
  72
5
  11
242.52298
  21
108.255362
  31
7.405934
  0
TEXT
  8
0
  62
150
  10
182.477646
  20
110.080946
  30
7.405934
  1
AIFT INDUSTRIE
  40
3.36133
  7
STANDARD
  72
5
  11
227.565277
  21
110.080946
  31
7.405934
  0
TEXT
  8
0
  62
82
  10
238.356537
  20
112.662619
  30
7.405934
  1
Dessiné par : G. Maillard
  40
2.24544
  7
STANDARD
  72
5
  11
272.718964
  21
112.662619
  31
7.405934
  0
ENDBLK
  0
BLOCK
  8
0
  70
65
  2
*G5
  10
0.0
  20
0.0
  30
0.0
  3
*G
  0
POLYLINE
  8
0
  6
CONTINUOUS
  62
7
  40
0.007874
  41
0.007874
  66
1
  70
8
  0
VERTEX
  8
0
  10
216.770126
  20
132.103638
  30
7.103367
  70
32
  0
VERTEX
  8
0
  10
217.710205
  20
130.510361
  30
7.103367
  70
32
  0
VERTEX
  8
0
  10
220.177902
  20
133.588593
  30
7.103367
  70
32
  0
VERTEX
  8
0
  10
226.053375
  20
133.588593
  30
7.103367
  70
32
  0
SEQEND
  0
TEXT
  8
0
  62
7
  10
246.309402
  20
130.685707
  30
7.033605
  1
Tolérance générale ISO 2768 f K
  40
1.885551
  7
STANDARD
  72
5
  11
284.565186
  21
130.685707
  31
7.033605
  0
TEXT
  8
0
  62
7
  10
220.170624
  20
130.829044
  30
7.033605
  1
Sauf indication
  40
1.885586
  7
STANDARD
  72
5
  11
237.665466
  21
130.829044
  31
7.033605
  0
TEXT
  8
0
  62
7
  10
211.828903
  20
133.194855
  30
7.033605
  1
Ra 3.2
  40
1.376312
  7
STANDARD
  72
5
  11
218.607147
  21
133.194855
  31
7.033605
  0
TEXT
  8
0
  62
7
  10
188.731659
  20
131.128254
  30
7.033605
  1
Usinage général
  40
1.885586
  7
STANDARD
  72
5
  11
207.337463
  21
131.128254
  31
7.033605
  0
ENDBLK
  0
BLOCK
  8
0
  70
65
  2
*G6
  10
0.0
  20
0.0
  30
0.0
  3
*G
  0
POLYLINE
  8
0
  6
$AUXILIARY
  62
7
  40
0.007874
  41
0.007874
  66
1
  70
8
  1001
ACAD
  1000
TCW25BRUSH
  1002
{
  1000
L45
  1071
-5
  1070
0
  1070
0
  1040
5.0
  1040
0.0
  1002
}
  0
VERTEX
  8
0
  10
153.399994
  20
196.610428
  30
0.130071
  70
32
  0
VERTEX
  8
0
  10
153.399994
  20
178.996063
  30
0.130071
  70
32
  0
SEQEND
  0
POLYLINE
  8
0
  6
$AUXILIARY
  62
7
  40
0.007874
  41
0.007874
  66
1
  70
8
  1001
ACAD
  1000
TCW25BRUSH
  1002
{
  1000
L45
  1071
-5
  1070
0
  1070
0
  1040
5.0
  1040
0.0
  1002
}
  0
VERTEX
  8
0
  10
148.600006
  20
196.610428
  30
0.130071
  70
32
  0
VERTEX
  8
0
  10
148.600006
  20
178.996063
  30
0.130071
  70
32
  0
SEQEND
  0
POLYLINE
  8
0
  6
$AUXILIARY
  62
7
  40
0.007874
  41
0.007874
  66
1
  70
8
  1001
ACAD
  1000
TCW25BRUSH
  1002
{
  1000
L45
  1071
-5
  1070
0
  1070
0
  1040
5.0
  1040
0.0
  1002
}
  0
VERTEX
  8
0
  10
154.0
  20
192.996063
  30
0.130071
  70
32
  0
VERTEX
  8
0
  10
154.0
  20
178.396057
  30
0.130071
  70
32
  0
SEQEND
  0
POLYLINE
  8
0
  6
$AUXILIARY
  62
7
  40
0.007874
  41
0.007874
  66
1
  70
8
  1001
ACAD
  1000
TCW25BRUSH
  1002
{
  1000
L45
  1071
-5
  1070
0
  1070
0
  1040
5.0
  1040
0.0
  1002
}
  0
VERTEX
  8
0
  10
148.0
  20
192.996063
  30
0.130071
  70
32
  0
VERTEX
  8
0
  10
148.0
  20
178.396057
  30
0.130071
  70
32
  0
SEQEND
  0
POLYLINE
  8
0
  6
$AUXILIARY
  62
7
  40
0.007874
  41
0.007874
  66
1
  70
8
  1001
ACAD
  1000
TCW25BRUSH
  1002
{
  1000
L45
  1071
-5
  1070
0
  1070
0
  1040
5.0
  1040
0.0
  1002
}
  0
VERTEX
  8
0
  10
154.0
  20
192.996063
  30
0.130071
  70
32
  0
VERTEX
  8
0
  10
148.0
  20
192.996063
  30
0.130071
  70
32
  0
SEQEND
  0
POLYLINE
  8
0
  6
$AUXILIARY
  62
7
  40
0.007874
  41
0.007874
  66
1
  70
8
  1001
ACAD
  1000
TCW25BRUSH
  1002
{
  1000
L45
  1071
-5
  1070
0
  1070
0
  1040
5.0
  1040
0.0
  1002
}
  0
VERTEX
  8
0
  10
151.0
  20
197.996063
  30
0.130071
  70
32
  0
VERTEX
  8
0
  10
153.399994
  20
196.610428
  30
0.130071
  70
32
  0
SEQEND
  0
POLYLINE
  8
0
  6
$AUXILIARY
  62
7
  40
0.007874
  41
0.007874
  66
1
  70
8
  1001
ACAD
  1000
TCW25BRUSH
  1002
{
  1000
L45
  1071
-5
  1070
0
  1070
0
  1040
5.0
  1040
0.0
  1002
}
  0
VERTEX
  8
0
  10
150.999985
  20
197.996063
  30
0.130071
  70
32
  0
VERTEX
  8
0
  10
148.600006
  20
196.610428
  30
0.130071
  70
32
  0
SEQEND
  0
POLYLINE
  8
0
  6
$AUXILIARY
  62
7
  40
0.007874
  41
0.007874
  66
1
  70
8
  1001
ACAD
  1000
TCW25BRUSH
  1002
{
  1000
L45
  1071
-5
  1070
0
  1070
0
  1040
5.0
  1040
0.0
  1002
}
  0
VERTEX
  8
0
  10
153.399994
  20
178.996063
  30
0.130071
  70
32
  0
VERTEX
  8
0
  10
148.600006
  20
178.996063
  30
0.130071
  70
32
  0
SEQEND
  0
POLYLINE
  8
0
  6
$AUXILIARY
  62
7
  40
0.007874
  41
0.007874
  66
1
  70
8
  1001
ACAD
  1000
TCW25BRUSH
  1002
{
  1000
L45
  1071
-5
  1070
0
  1070
0
  1040
5.0
  1040
0.0
  1002
}
  0
VERTEX
  8
0
  10
153.399994
  20
178.996063
  30
0.130071
  70
32
  0
VERTEX
  8
0
  10
154.399994
  20
177.996063
  30
0.130071
  70
32
  0
SEQEND
  0
POLYLINE
  8
0
  6
$AUXILIARY
  62
7
  40
0.007874
  41
0.007874
  66
1
  70
8
  1001
ACAD
  1000
TCW25BRUSH
  1002
{
  1000
L45
  1071
-5
  1070
0
  1070
0
  1040
5.0
  1040
0.0
  1002
}
  0
VERTEX
  8
0
  10
148.600006
  20
178.996063
  30
0.130071
  70
32
  0
VERTEX
  8
0
  10
147.600006
  20
177.996063
  30
0.130071
  70
32
  0
SEQEND
  0
POLYLINE
  8
0
  6
$AUXILIARY
  62
7
  40
0.007874
  41
0.007874
  66
1
  70
8
  1001
ACAD
  1000
TCW25BRUSH
  1002
{
  1000
L45
  1071
-5
  1070
0
  1070
0
  1040
5.0
  1040
0.0
  1002
}
  0
VERTEX
  8
0
  10
153.399979
  20
196.610428
  30
0.130071
  70
32
  0
VERTEX
  8
0
  10
148.600006
  20
196.610428
  30
0.130071
  70
32
  0
SEQEND
  0
ENDBLK
  0
BLOCK
  8
0
  70
65
  2
*G7
  10
0.0
  20
0.0
  30
0.0
  3
*G
  0
POLYLINE
  8
0
  6
CONTINUOUS
  62
7
  40
0.019685
  41
0.019685
  66
1
  70
8
  1001
ACAD
  1000
TCW25BRUSH
  1002
{
  1000
L45
  1071
-5
  1070
0
  1070
0
  1040
5.0
  1040
0.0
  1002
}
  0
VERTEX
  8
0
  10
233.399994
  20
196.604523
  30
0.130071
  70
32
  0
VERTEX
  8
0
  10
233.399994
  20
178.990158
  30
0.130071
  70
32
  0
SEQEND
  0
POLYLINE
  8
0
  6
CONTINUOUS
  62
7
  40
0.019685
  41
0.019685
  66
1
  70
8
  1001
ACAD
  1000
TCW25BRUSH
  1002
{
  1000
L45
  1071
-5
  1070
0
  1070
0
  1040
5.0
  1040
0.0
  1002
}
  0
VERTEX
  8
0
  10
228.600006
  20
196.604523
  30
0.130071
  70
32
  0
VERTEX
  8
0
  10
228.600006
  20
178.990158
  30
0.130071
  70
32
  0
SEQEND
  0
POLYLINE
  8
0
  6
CONTINUOUS
  62
7
  40
0.007874
  41
0.007874
  66
1
  70
8
  1001
ACAD
  1000
TCW25BRUSH
  1002
{
  1000
L45
  1071
-5
  1070
0
  1070
0
  1040
5.0
  1040
0.0
  1002
}
  0
VERTEX
  8
0
  10
234.0
  20
192.990158
  30
0.130071
  70
32
  0
VERTEX
  8
0
  10
234.0
  20
178.390152
  30
0.130071
  70
32
  0
SEQEND
  0
POLYLINE
  8
0
  6
CONTINUOUS
  62
7
  40
0.007874
  41
0.007874
  66
1
  70
8
  1001
ACAD
  1000
TCW25BRUSH
  1002
{
  1000
L45
  1071
-5
  1070
0
  1070
0
  1040
5.0
  1040
0.0
  1002
}
  0
VERTEX
  8
0
  10
228.0
  20
192.990158
  30
0.130071
  70
32
  0
VERTEX
  8
0
  10
228.0
  20
178.390152
  30
0.130071
  70
32
  0
SEQEND
  0
POLYLINE
  8
0
  6
CONTINUOUS
  62
7
  40
0.019685
  41
0.019685
  66
1
  70
8
  1001
ACAD
  1000
TCW25BRUSH
  1002
{
  1000
L45
  1071
-5
  1070
0
  1070
0
  1040
5.0
  1040
0.0
  1002
}
  0
VERTEX
  8
0
  10
234.0
  20
192.990158
  30
0.130071
  70
32
  0
VERTEX
  8
0
  10
228.0
  20
192.990158
  30
0.130071
  70
32
  0
SEQEND
  0
POLYLINE
  8
0
  6
CONTINUOUS
  62
7
  40
0.019685
  41
0.019685
  66
1
  70
8
  1001
ACAD
  1000
TCW25BRUSH
  1002
{
  1000
L45
  1071
-5
  1070
0
  1070
0
  1040
5.0
  1040
0.0
  1002
}
  0
VERTEX
  8
0
  10
231.0
  20
197.990158
  30
0.130071
  70
32
  0
VERTEX
  8
0
  10
233.399994
  20
196.604523
  30
0.130071
  70
32
  0
SEQEND
  0
POLYLINE
  8
0
  6
CONTINUOUS
  62
7
  40
0.019685
  41
0.019685
  66
1
  70
8
  1001
ACAD
  1000
TCW25BRUSH
  1002
{
  1000
L45
  1071
-5
  1070
0
  1070
0
  1040
5.0
  1040
0.0
  1002
}
  0
VERTEX
  8
0
  10
230.999985
  20
197.990158
  30
0.130071
  70
32
  0
VERTEX
  8
0
  10
228.600006
  20
196.604523
  30
0.130071
  70
32
  0
SEQEND
  0
POLYLINE
  8
0
  6
CONTINUOUS
  62
7
  40
0.019685
  41
0.019685
  66
1
  70
8
  1001
ACAD
  1000
TCW25BRUSH
  1002
{
  1000
L45
  1071
-5
  1070
0
  1070
0
  1040
5.0
  1040
0.0
  1002
}
  0
VERTEX
  8
0
  10
233.399994
  20
178.990158
  30
0.130071
  70
32
  0
VERTEX
  8
0
  10
228.600006
  20
178.990158
  30
0.130071
  70
32
  0
SEQEND
  0
POLYLINE
  8
0
  6
CONTINUOUS
  62
7
  40
0.019685
  41
0.019685
  66
1
  70
8
  1001
ACAD
  1000
TCW25BRUSH
  1002
{
  1000
L45
  1071
-5
  1070
0
  1070
0
  1040
5.0
  1040
0.0
  1002
}
  0
VERTEX
  8
0
  10
233.399994
  20
178.990158
  30
0.130071
  70
32
  0
VERTEX
  8
0
  10
234.399994
  20
177.990158
  30
0.130071
  70
32
  0
SEQEND
  0
POLYLINE
  8
0
  6
CONTINUOUS
  62
7
  40
0.019685
  41
0.019685
  66
1
  70
8
  1001
ACAD
  1000
TCW25BRUSH
  1002
{
  1000
L45
  1071
-5
  1070
0
  1070
0
  1040
5.0
  1040
0.0
  1002
}
  0
VERTEX
  8
0
  10
228.600006
  20
178.990158
  30
0.130071
  70
32
  0
VERTEX
  8
0
  10
227.600006
  20
177.990158
  30
0.130071
  70
32
  0
SEQEND
  0
POLYLINE
  8
0
  6
CONTINUOUS
  62
7
  40
0.019685
  41
0.019685
  66
1
  70
8
  1001
ACAD
  1000
TCW25BRUSH
  1002
{
  1000
L45
  1071
-5
  1070
0
  1070
0
  1040
5.0
  1040
0.0
  1002
}
  0
VERTEX
  8
0
  10
233.399979
  20
196.604523
  30
0.130071
  70
32
  0
VERTEX
  8
0
  10
228.600006
  20
196.604523
  30
0.130071
  70
32
  0
SEQEND
  0
ENDBLK
  0
BLOCK
  8
0
  70
65
  2
*H8
  10
0.0
  20
0.0
  30
0.0
  3
*H
  0
LINE
  8
0
  6
CONTINUOUS
  62
7
  10
248.710669
  20
178.0
  11
250.0
  21
179.289331
  0
LINE
  8
0
  6
CONTINUOUS
  62
7
  10
245.175135
  20
178.0
  11
250.0
  21
182.824865
  0
LINE
  8
0
  6
CONTINUOUS
  62
7
  10
241.639601
  20
178.0
  11
248.639601
  21
185.0
  0
LINE
  8
0
  6
CONTINUOUS
  62
7
  10
238.104067
  20
178.0
  11
247.0
  21
186.895933
  0
LINE
  8
0
  6
CONTINUOUS
  62
7
  10
234.568533
  20
178.0
  11
247.0
  21
190.431467
  0
LINE
  8
0
  6
CONTINUOUS
  62
7
  10
233.399994
  20
180.366994
  11
247.0
  21
193.967001
  0
LINE
  8
0
  6
CONTINUOUS
  62
7
  10
227.497466
  20
178.0
  11
228.600006
  21
179.10254
  0
LINE
  8
0
  6
CONTINUOUS
  62
7
  10
233.399994
  20
183.902528
  11
247.0
  21
197.502535
  0
LINE
  8
0
  6
CONTINUOUS
  62
7
  10
225.0
  20
179.038068
  11
228.600006
  21
182.638074
  0
LINE
  8
0
  6
CONTINUOUS
  62
7
  10
233.399994
  20
187.438062
  11
249.196002
  21
203.234072
  0
LINE
  8
0
  6
CONTINUOUS
  62
7
  10
225.0
  20
182.573602
  11
228.600006
  21
186.173608
  0
LINE
  8
0
  6
CONTINUOUS
  62
7
  10
233.399994
  20
190.973596
  11
244.099133
  21
201.672736
  0
LINE
  8
0
  6
CONTINUOUS
  62
7
  10
225.0
  20
186.109136
  11
228.600006
  21
189.709142
  0
LINE
  8
0
  6
CONTINUOUS
  62
7
  10
233.399994
  20
194.50913
  11
239.555527
  21
200.664663
  0
LINE
  8
0
  6
CONTINUOUS
  62
7
  10
225.0
  20
189.64467
  11
228.600006
  21
193.244676
  0
LINE
  8
0
  6
CONTINUOUS
  62
7
  10
232.48698
  20
197.131651
  11
237.141016
  21
201.785687
  0
LINE
  8
0
  6
CONTINUOUS
  62
7
  10
225.0
  20
193.180204
  11
232.612953
  21
200.793157
  0
LINE
  8
0
  6
CONTINUOUS
  62
7
  10
225.0
  20
196.715738
  11
230.392972
  21
202.10871
  0
LINE
  8
0
  6
CONTINUOUS
  62
7
  10
225.0
  20
200.251272
  11
226.532639
  21
201.783911
  0
ENDBLK
  0
BLOCK
  8
0
  70
65
  2
*D9
  10
0.0
  20
0.0
  30
0.0
  3
*D
  0
LINE
  8
0
  6
CONTINUOUS
  62
1
  10
250.0
  20
178.0
  11
250.0
  21
158.841098
  0
LINE
  8
0
  6
CONTINUOUS
  62
1
  10
231.0
  20
176.290726
  11
231.0
  21
158.841098
  0
POLYLINE
  8
0
  6
CONTINUOUS
  62
1
  66
1
  0
VERTEX
  8
0
  10
247.6
  20
160.641098
  30
0.0
  0
VERTEX
  8
0
  10
247.6
  20
160.641098
  30
0.0
  0
VERTEX
  8
0
  10
247.6
  20
160.641098
  30
0.0
  0
VERTEX
  8
0
  10
240.5
  20
160.641098
  30
0.0
  0
SEQEND
  0
POLYLINE
  8
0
  6
CONTINUOUS
  62
1
  66
1
  0
VERTEX
  8
0
  10
233.4
  20
160.641098
  30
0.0
  0
VERTEX
  8
0
  10
233.4
  20
160.641098
  30
0.0
  0
VERTEX
  8
0
  10
233.4
  20
160.641098
  30
0.0
  0
VERTEX
  8
0
  10
240.5
  20
160.641098
  30
0.0
  0
SEQEND
  0
SOLID
  8
0
  6
CONTINUOUS
  62
1
  10
250.0
  20
160.641098
  11
247.6
  21
160.953098
  12
250.0
  22
160.641098
  13
247.6
  23
160.329098
  0
SOLID
  8
0
  6
CONTINUOUS
  62
1
  10
231.0
  20
160.641098
  11
233.4
  21
160.329098
  12
231.0
  22
160.641098
  13
233.4
  23
160.953098
  0
TEXT
  8
0
  62
7
  10
239.33845
  20
162.183548
  1
19
  40
1.92735
  7
STANDARD
  72
5
  11
241.66155
  21
162.183548
  31
0.0
  0
ENDBLK
  0
BLOCK
  8
0
  70
65
  2
*D10
  10
0.0
  20
0.0
  30
0.0
  3
*D
  0
LINE
  8
0
  6
CONTINUOUS
  62
1
  10
228.0
  20
178.390152
  11
228.0
  21
169.338779
  0
LINE
  8
0
  6
CONTINUOUS
  62
1
  10
234.0
  20
178.390152
  11
234.0
  21
169.338779
  0
LINE
  8
0
  6
CONTINUOUS
  62
1
  10
223.2
  20
171.138779
  11
225.6
  21
171.138779
  0
LINE
  8
0
  6
CONTINUOUS
  62
1
  10
228.0
  20
171.138779
  11
231.0
  21
171.138779
  0
LINE
  8
0
  6
CONTINUOUS
  62
1
  10
238.8
  20
171.138779
  11
236.4
  21
171.138779
  0
LINE
  8
0
  6
CONTINUOUS
  62
1
  10
234.0
  20
171.138779
  11
231.0
  21
171.138779
  0
SOLID
  8
0
  6
CONTINUOUS
  62
1
  10
234.0
  20
171.138779
  11
236.4
  21
170.826779
  12
234.0
  22
171.138779
  13
236.4
  23
171.450779
  0
SOLID
  8
0
  6
CONTINUOUS
  62
1
  10
228.0
  20
171.138779
  11
225.6
  21
171.450779
  12
228.0
  22
171.138779
  13
225.6
  23
170.826779
  0
TEXT
  8
0
  62
7
  10
229.38745
  20
172.681229
  1
M6
  40
1.92735
  7
STANDARD
  72
5
  11
232.61255
  21
172.681229
  31
0.0
  0
ENDBLK
  0
BLOCK
  8
0
  70
65
  2
*D11
  10
0.0
  20
0.0
  30
0.0
  3
*D
  0
LINE
  8
0
  6
CONTINUOUS
  62
1
  10
250.0
  20
178.0
  11
250.0
  21
150.206943
  0
LINE
  8
0
  6
CONTINUOUS
  62
1
  10
225.0
  20
178.0
  11
225.0
  21
150.206943
  0
POLYLINE
  8
0
  6
CONTINUOUS
  62
1
  66
1
  0
VERTEX
  8
0
  10
247.6
  20
152.006943
  30
0.0
  0
VERTEX
  8
0
  10
247.6
  20
152.006943
  30
0.0
  0
VERTEX
  8
0
  10
247.6
  20
152.006943
  30
0.0
  0
VERTEX
  8
0
  10
237.5
  20
152.006943
  30
0.0
  0
SEQEND
  0
POLYLINE
  8
0
  6
CONTINUOUS
  62
1
  66
1
  0
VERTEX
  8
0
  10
227.4
  20
152.006943
  30
0.0
  0
VERTEX
  8
0
  10
227.4
  20
152.006943
  30
0.0
  0
VERTEX
  8
0
  10
227.4
  20
152.006943
  30
0.0
  0
VERTEX
  8
0
  10
237.5
  20
152.006943
  30
0.0
  0
SEQEND
  0
SOLID
  8
0
  6
CONTINUOUS
  62
1
  10
250.0
  20
152.006943
  11
247.6
  21
152.318943
  12
250.0
  22
152.006943
  13
247.6
  23
151.694943
  0
SOLID
  8
0
  6
CONTINUOUS
  62
1
  10
225.0
  20
152.006943
  11
227.4
  21
151.694943
  12
225.0
  22
152.006943
  13
227.4
  23
152.318943
  0
TEXT
  8
0
  62
7
  10
236.33845
  20
153.549393
  1
25
  40
1.92735
  7
STANDARD
  72
5
  11
238.66155
  21
153.549393
  31
0.0
  0
ENDBLK
  0
BLOCK
  8
0
  70
65
  2
*D12
  10
0.0
  20
0.0
  30
0.0
  3
*D
  0
LINE
  8
0
  6
CONTINUOUS
  62
1
  10
229.0
  20
212.0
  11
229.0
  21
204.50278
  0
LINE
  8
0
  6
CONTINUOUS
  62
1
  10
225.0
  20
212.0
  11
225.0
  21
204.50278
  0
LINE
  8
0
  6
CONTINUOUS
  62
1
  10
233.8
  20
206.30278
  11
231.4
  21
206.30278
  0
LINE
  8
0
  6
CONTINUOUS
  62
1
  10
229.0
  20
206.30278
  11
227.0
  21
206.30278
  0
LINE
  8
0
  6
CONTINUOUS
  62
1
  10
220.2
  20
206.30278
  11
222.6
  21
206.30278
  0
LINE
  8
0
  6
CONTINUOUS
  62
1
  10
225.0
  20
206.30278
  11
227.0
  21
206.30278
  0
SOLID
  8
0
  6
CONTINUOUS
  62
1
  10
225.0
  20
206.30278
  11
222.6
  21
206.61478
  12
225.0
  22
206.30278
  13
222.6
  23
205.99078
  0
SOLID
  8
0
  6
CONTINUOUS
  62
1
  10
229.0
  20
206.30278
  11
231.4
  21
205.99078
  12
229.0
  22
206.30278
  13
231.4
  23
206.61478
  0
TEXT
  8
0
  62
7
  10
226.419225
  20
207.84523
  1
4
  40
1.92735
  7
STANDARD
  72
5
  11
227.580775
  21
207.84523
  31
0.0
  0
ENDBLK
  0
BLOCK
  8
0
  70
65
  2
*D13
  10
0.0
  20
0.0
  30
0.0
  3
*D
  0
LINE
  8
0
  6
CONTINUOUS
  62
1
  10
250.0
  20
230.0
  11
250.0
  21
249.380032
  0
LINE
  8
0
  6
CONTINUOUS
  62
1
  10
210.0
  20
230.0
  11
210.0
  21
249.380032
  0
POLYLINE
  8
0
  6
CONTINUOUS
  62
1
  66
1
  0
VERTEX
  8
0
  10
247.6
  20
247.580032
  30
0.0
  0
VERTEX
  8
0
  10
247.6
  20
247.580032
  30
0.0
  0
VERTEX
  8
0
  10
247.6
  20
247.580032
  30
0.0
  0
VERTEX
  8
0
  10
230.0
  20
247.580032
  30
0.0
  0
SEQEND
  0
POLYLINE
  8
0
  6
CONTINUOUS
  62
1
  66
1
  0
VERTEX
  8
0
  10
212.4
  20
247.580032
  30
0.0
  0
VERTEX
  8
0
  10
212.4
  20
247.580032
  30
0.0
  0
VERTEX
  8
0
  10
212.4
  20
247.580032
  30
0.0
  0
VERTEX
  8
0
  10
230.0
  20
247.580032
  30
0.0
  0
SEQEND
  0
SOLID
  8
0
  6
CONTINUOUS
  62
1
  10
250.0
  20
247.580032
  11
247.6
  21
247.892032
  12
250.0
  22
247.580032
  13
247.6
  23
247.268032
  0
SOLID
  8
0
  6
CONTINUOUS
  62
1
  10
210.0
  20
247.580032
  11
212.4
  21
247.268032
  12
210.0
  22
247.580032
  13
212.4
  23
247.892032
  0
TEXT
  8
0
  62
7
  10
228.83845
  20
249.122482
  1
40
  40
1.92735
  7
STANDARD
  72
5
  11
231.16155
  21
249.122482
  31
0.0
  0
ENDBLK
  0
BLOCK
  8
0
  70
65
  2
*D14
  10
0.0
  20
0.0
  30
0.0
  3
*D
  0
LINE
  8
0
  6
CONTINUOUS
  62
1
  10
250.0
  20
230.0
  11
250.0
  21
241.665295
  0
LINE
  8
0
  6
CONTINUOUS
  62
1
  10
240.0
  20
228.5
  11
240.0
  21
241.665295
  0
POLYLINE
  8
0
  6
CONTINUOUS
  62
1
  66
1
  0
VERTEX
  8
0
  10
247.6
  20
239.865295
  30
0.0
  0
VERTEX
  8
0
  10
247.6
  20
239.865295
  30
0.0
  0
VERTEX
  8
0
  10
247.6
  20
239.865295
  30
0.0
  0
VERTEX
  8
0
  10
245.0
  20
239.865295
  30
0.0
  0
SEQEND
  0
POLYLINE
  8
0
  6
CONTINUOUS
  62
1
  66
1
  0
VERTEX
  8
0
  10
242.4
  20
239.865295
  30
0.0
  0
VERTEX
  8
0
  10
242.4
  20
239.865295
  30
0.0
  0
VERTEX
  8
0
  10
242.4
  20
239.865295
  30
0.0
  0
VERTEX
  8
0
  10
245.0
  20
239.865295
  30
0.0
  0
SEQEND
  0
SOLID
  8
0
  6
CONTINUOUS
  62
1
  10
250.0
  20
239.865295
  11
247.6
  21
240.177295
  12
250.0
  22
239.865295
  13
247.6
  23
239.553295
  0
SOLID
  8
0
  6
CONTINUOUS
  62
1
  10
240.0
  20
239.865295
  11
242.4
  21
239.553295
  12
240.0
  22
239.865295
  13
242.4
  23
240.177295
  0
TEXT
  8
0
  62
7
  10
243.83845
  20
241.407745
  1
10
  40
1.92735
  7
STANDARD
  72
5
  11
246.16155
  21
241.407745
  31
0.0
  0
ENDBLK
  0
BLOCK
  8
0
  70
65
  2
*D15
  10
0.0
  20
0.0
  30
0.0
  3
*D
  0
LINE
  8
0
  6
CONTINUOUS
  62
1
  10
250.0
  20
185.0
  11
250.0
  21
170.802508
  0
LINE
  8
0
  6
CONTINUOUS
  62
1
  10
247.0
  20
185.0
  11
247.0
  21
170.802508
  0
LINE
  8
0
  6
CONTINUOUS
  62
1
  10
254.8
  20
172.602509
  11
252.4
  21
172.602509
  0
LINE
  8
0
  6
CONTINUOUS
  62
1
  10
250.0
  20
172.602509
  11
248.5
  21
172.602509
  0
LINE
  8
0
  6
CONTINUOUS
  62
1
  10
242.2
  20
172.602509
  11
244.6
  21
172.602509
  0
LINE
  8
0
  6
CONTINUOUS
  62
1
  10
247.0
  20
172.602509
  11
248.5
  21
172.602509
  0
SOLID
  8
0
  6
CONTINUOUS
  62
1
  10
247.0
  20
172.602509
  11
244.6
  21
172.914509
  12
247.0
  22
172.602509
  13
244.6
  23
172.290509
  0
SOLID
  8
0
  6
CONTINUOUS
  62
1
  10
250.0
  20
172.602509
  11
252.4
  21
172.290509
  12
250.0
  22
172.602509
  13
252.4
  23
172.914509
  0
TEXT
  8
0
  62
7
  10
247.919225
  20
174.144959
  1
3
  40
1.92735
  7
STANDARD
  72
5
  11
249.080775
  21
174.144959
  31
0.0
  0
ENDBLK
  0
BLOCK
  8
0
  70
65
  2
*D16
  10
0.0
  20
0.0
  30
0.0
  3
*D
  0
LINE
  8
0
  6
CONTINUOUS
  62
1
  10
228.600006
  20
192.990158
  11
218.998019
  21
192.990158
  0
LINE
  8
0
  6
CONTINUOUS
  62
1
  10
225.0
  20
178.0
  11
218.998019
  21
178.0
  0
POLYLINE
  8
0
  6
CONTINUOUS
  62
1
  66
1
  0
VERTEX
  8
0
  10
220.798019
  20
190.590158
  30
0.0
  0
VERTEX
  8
0
  10
220.798019
  20
190.590158
  30
0.0
  0
VERTEX
  8
0
  10
220.798019
  20
190.590158
  30
0.0
  0
VERTEX
  8
0
  10
220.798019
  20
185.495079
  30
0.0
  0
SEQEND
  0
POLYLINE
  8
0
  6
CONTINUOUS
  62
1
  66
1
  0
VERTEX
  8
0
  10
220.798019
  20
180.4
  30
0.0
  0
VERTEX
  8
0
  10
220.798019
  20
180.4
  30
0.0
  0
VERTEX
  8
0
  10
220.798019
  20
180.4
  30
0.0
  0
VERTEX
  8
0
  10
220.798019
  20
185.495079
  30
0.0
  0
SEQEND
  0
SOLID
  8
0
  6
CONTINUOUS
  62
1
  10
220.798019
  20
192.990158
  11
220.486019
  21
190.590158
  12
220.798019
  22
192.990158
  13
221.110019
  23
190.590158
  0
SOLID
  8
0
  6
CONTINUOUS
  62
1
  10
220.798019
  20
178.0
  11
221.110019
  21
180.4
  12
220.798019
  22
178.0
  13
220.486019
  23
180.4
  0
TEXT
  8
0
  62
7
  10
219.255569
  20
184.333529
  1
15
  40
1.92735
  50
90.0
  7
STANDARD
  72
5
  11
219.255569
  21
186.656629
  31
0.0
  0
ENDBLK
  0
BLOCK
  8
0
  70
65
  2
*D17
  10
0.0
  20
0.0
  30
0.0
  3
*D
  0
LINE
  8
0
  6
CONTINUOUS
  62
1
  10
225.0
  20
178.0
  11
214.451831
  21
178.0
  0
LINE
  8
0
  6
CONTINUOUS
  62
1
  10
230.999985
  20
197.990158
  11
214.451831
  21
197.990158
  0
POLYLINE
  8
0
  6
CONTINUOUS
  62
1
  66
1
  0
VERTEX
  8
0
  10
216.251831
  20
180.4
  30
0.0
  0
VERTEX
  8
0
  10
216.251831
  20
180.4
  30
0.0
  0
VERTEX
  8
0
  10
216.251831
  20
180.4
  30
0.0
  0
VERTEX
  8
0
  10
216.251831
  20
187.995079
  30
0.0
  0
SEQEND
  0
POLYLINE
  8
0
  6
CONTINUOUS
  62
1
  66
1
  0
VERTEX
  8
0
  10
216.251831
  20
195.590158
  30
0.0
  0
VERTEX
  8
0
  10
216.251831
  20
195.590158
  30
0.0
  0
VERTEX
  8
0
  10
216.251831
  20
195.590158
  30
0.0
  0
VERTEX
  8
0
  10
216.251831
  20
187.995079
  30
0.0
  0
SEQEND
  0
SOLID
  8
0
  6
CONTINUOUS
  62
1
  10
216.251831
  20
178.0
  11
216.563831
  21
180.4
  12
216.251831
  22
178.0
  13
215.939831
  23
180.4
  0
SOLID
  8
0
  6
CONTINUOUS
  62
1
  10
216.251831
  20
197.990158
  11
215.939831
  21
195.590158
  12
216.251831
  22
197.990158
  13
216.563831
  23
195.590158
  0
TEXT
  8
0
  62
7
  10
214.709381
  20
186.833529
  1
20
  40
1.92735
  50
90.0
  7
STANDARD
  72
5
  11
214.709381
  21
189.156629
  31
0.0
  0
ENDBLK
  0
BLOCK
  8
0
  70
65
  2
*D18
  10
0.0
  20
0.0
  30
0.0
  3
*D
  0
LINE
  8
0
  6
CONTINUOUS
  62
1
  10
225.0
  20
178.0
  11
209.905658
  21
178.0
  0
LINE
  8
0
  6
CONTINUOUS
  62
1
  10
225.0
  20
212.0
  11
209.905658
  21
212.0
  0
POLYLINE
  8
0
  6
CONTINUOUS
  62
1
  66
1
  0
VERTEX
  8
0
  10
211.705658
  20
180.4
  30
0.0
  0
VERTEX
  8
0
  10
211.705658
  20
180.4
  30
0.0
  0
VERTEX
  8
0
  10
211.705658
  20
180.4
  30
0.0
  0
VERTEX
  8
0
  10
211.705658
  20
195.0
  30
0.0
  0
SEQEND
  0
POLYLINE
  8
0
  6
CONTINUOUS
  62
1
  66
1
  0
VERTEX
  8
0
  10
211.705658
  20
209.6
  30
0.0
  0
VERTEX
  8
0
  10
211.705658
  20
209.6
  30
0.0
  0
VERTEX
  8
0
  10
211.705658
  20
209.6
  30
0.0
  0
VERTEX
  8
0
  10
211.705658
  20
195.0
  30
0.0
  0
SEQEND
  0
SOLID
  8
0
  6
CONTINUOUS
  62
1
  10
211.705658
  20
178.0
  11
212.017658
  21
180.4
  12
211.705658
  22
178.0
  13
211.393658
  23
180.4
  0
SOLID
  8
0
  6
CONTINUOUS
  62
1
  10
211.705658
  20
212.0
  11
211.393658
  21
209.6
  12
211.705658
  22
212.0
  13
212.017658
  23
209.6
  0
TEXT
  8
0
  62
7
  10
210.163208
  20
193.83845
  1
34
  40
1.92735
  50
90.0
  7
STANDARD
  72
5
  11
210.163208
  21
196.16155
  31
0.0
  0
ENDBLK
  0
BLOCK
  8
0
  70
65
  2
*D19
  10
0.0
  20
0.0
  30
0.0
  3
*D
  0
LINE
  8
0
  6
CONTINUOUS
  62
1
  10
225.0
  20
212.0
  11
209.905658
  21
212.0
  0
LINE
  8
0
  6
CONTINUOUS
  62
1
  10
210.0
  20
226.0
  11
213.505658
  21
226.0
  0
POLYLINE
  8
0
  6
CONTINUOUS
  62
1
  66
1
  0
VERTEX
  8
0
  10
211.705658
  20
214.4
  30
0.0
  0
VERTEX
  8
0
  10
211.705658
  20
214.4
  30
0.0
  0
VERTEX
  8
0
  10
211.705658
  20
214.4
  30
0.0
  0
VERTEX
  8
0
  10
211.705658
  20
219.0
  30
0.0
  0
SEQEND
  0
POLYLINE
  8
0
  6
CONTINUOUS
  62
1
  66
1
  0
VERTEX
  8
0
  10
211.705658
  20
223.6
  30
0.0
  0
VERTEX
  8
0
  10
211.705658
  20
223.6
  30
0.0
  0
VERTEX
  8
0
  10
211.705658
  20
223.6
  30
0.0
  0
VERTEX
  8
0
  10
211.705658
  20
219.0
  30
0.0
  0
SEQEND
  0
SOLID
  8
0
  6
CONTINUOUS
  62
1
  10
211.705658
  20
212.0
  11
212.017658
  21
214.4
  12
211.705658
  22
212.0
  13
211.393658
  23
214.4
  0
SOLID
  8
0
  6
CONTINUOUS
  62
1
  10
211.705658
  20
226.0
  11
211.393658
  21
223.6
  12
211.705658
  22
226.0
  13
212.017658
  23
223.6
  0
TEXT
  8
0
  62
7
  10
210.163208
  20
217.83845
  1
14
  40
1.92735
  50
90.0
  7
STANDARD
  72
5
  11
210.163208
  21
220.16155
  31
0.0
  0
ENDBLK
  0
BLOCK
  8
0
  70
65
  2
*D20
  10
0.0
  20
0.0
  30
0.0
  3
*D
  0
LINE
  8
0
  6
CONTINUOUS
  62
1
  10
250.0
  20
201.0
  11
261.171643
  21
201.0
  0
LINE
  8
0
  6
CONTINUOUS
  62
1
  10
250.0
  20
185.0
  11
261.171643
  21
185.0
  0
POLYLINE
  8
0
  6
CONTINUOUS
  62
1
  66
1
  0
VERTEX
  8
0
  10
259.371643
  20
198.6
  30
0.0
  0
VERTEX
  8
0
  10
259.371643
  20
198.6
  30
0.0
  0
VERTEX
  8
0
  10
259.371643
  20
198.6
  30
0.0
  0
VERTEX
  8
0
  10
259.371643
  20
193.0
  30
0.0
  0
SEQEND
  0
POLYLINE
  8
0
  6
CONTINUOUS
  62
1
  66
1
  0
VERTEX
  8
0
  10
259.371643
  20
187.4
  30
0.0
  0
VERTEX
  8
0
  10
259.371643
  20
187.4
  30
0.0
  0
VERTEX
  8
0
  10
259.371643
  20
187.4
  30
0.0
  0
VERTEX
  8
0
  10
259.371643
  20
193.0
  30
0.0
  0
SEQEND
  0
SOLID
  8
0
  6
CONTINUOUS
  62
1
  10
259.371643
  20
201.0
  11
259.059643
  21
198.6
  12
259.371643
  22
201.0
  13
259.683643
  23
198.6
  0
SOLID
  8
0
  6
CONTINUOUS
  62
1
  10
259.371643
  20
185.0
  11
259.683643
  21
187.4
  12
259.371643
  22
185.0
  13
259.059643
  23
187.4
  0
TEXT
  8
0
  62
7
  10
256.544293
  20
188.608212
  1
%%c 16
  40
1.92735
  50
90.0
  7
STANDARD
  72
5
  11
256.544293
  21
193.179886
  31
0.0
  0
TEXT
  8
0
  62
7
  10
255.259393
  20
193.179886
  1
+0,2
  40
1.92735
  50
90.0
  7
STANDARD
  72
5
  11
255.259393
  21
197.391788
  31
0.0
  0
TEXT
  8
0
  62
7
  10
257.829193
  20
193.179886
  1
-0
  40
1.92735
  50
90.0
  7
STANDARD
  72
5
  11
257.829193
  21
195.114945
  31
0.0
  0
ENDBLK
  0
BLOCK
  8
0
  70
65
  2
*D21
  10
0.0
  20
0.0
  30
0.0
  3
*D
  0
LINE
  8
0
  6
CONTINUOUS
  62
1
  10
172.0
  20
178.0
  11
180.442563
  21
178.0
  0
LINE
  8
0
  6
CONTINUOUS
  62
1
  10
161.590866
  20
193.0
  11
180.442563
  21
193.0
  0
POLYLINE
  8
0
  6
CONTINUOUS
  62
1
  66
1
  0
VERTEX
  8
0
  10
178.642563
  20
180.4
  30
0.0
  0
VERTEX
  8
0
  10
178.642563
  20
180.4
  30
0.0
  0
VERTEX
  8
0
  10
178.642563
  20
180.4
  30
0.0
  0
VERTEX
  8
0
  10
178.642563
  20
185.5
  30
0.0
  0
SEQEND
  0
POLYLINE
  8
0
  6
CONTINUOUS
  62
1
  66
1
  0
VERTEX
  8
0
  10
178.642563
  20
190.6
  30
0.0
  0
VERTEX
  8
0
  10
178.642563
  20
190.6
  30
0.0
  0
VERTEX
  8
0
  10
178.642563
  20
190.6
  30
0.0
  0
VERTEX
  8
0
  10
178.642563
  20
185.5
  30
0.0
  0
SEQEND
  0
SOLID
  8
0
  6
CONTINUOUS
  62
1
  10
178.642563
  20
178.0
  11
178.954563
  21
180.4
  12
178.642563
  22
178.0
  13
178.330563
  23
180.4
  0
SOLID
  8
0
  6
CONTINUOUS
  62
1
  10
178.642563
  20
193.0
  11
178.330563
  21
190.6
  12
178.642563
  22
193.0
  13
178.954563
  23
190.6
  0
TEXT
  8
0
  62
7
  10
177.100113
  20
184.33845
  1
15
  40
1.92735
  50
90.0
  7
STANDARD
  72
5
  11
177.100113
  21
186.66155
  31
0.0
  0
ENDBLK
  0
BLOCK
  8
0
  70
65
  2
*D22
  10
0.0
  20
0.0
  30
0.0
  3
*D
  0
LINE
  8
0
  6
CONTINUOUS
  62
1
  10
172.0
  20
178.0
  11
185.953076
  21
178.0
  0
LINE
  8
0
  6
CONTINUOUS
  62
1
  10
174.831665
  20
216.0
  11
185.953076
  21
216.0
  0
POLYLINE
  8
0
  6
CONTINUOUS
  62
1
  66
1
  0
VERTEX
  8
0
  10
184.153076
  20
180.4
  30
0.0
  0
VERTEX
  8
0
  10
184.153076
  20
180.4
  30
0.0
  0
VERTEX
  8
0
  10
184.153076
  20
180.4
  30
0.0
  0
VERTEX
  8
0
  10
184.153076
  20
197.0
  30
0.0
  0
SEQEND
  0
POLYLINE
  8
0
  6
CONTINUOUS
  62
1
  66
1
  0
VERTEX
  8
0
  10
184.153076
  20
213.6
  30
0.0
  0
VERTEX
  8
0
  10
184.153076
  20
213.6
  30
0.0
  0
VERTEX
  8
0
  10
184.153076
  20
213.6
  30
0.0
  0
VERTEX
  8
0
  10
184.153076
  20
197.0
  30
0.0
  0
SEQEND
  0
SOLID
  8
0
  6
CONTINUOUS
  62
1
  10
184.153076
  20
178.0
  11
184.465076
  21
180.4
  12
184.153076
  22
178.0
  13
183.841076
  23
180.4
  0
SOLID
  8
0
  6
CONTINUOUS
  62
1
  10
184.153076
  20
216.0
  11
183.841076
  21
213.6
  12
184.153076
  22
216.0
  13
184.465076
  23
213.6
  0
TEXT
  8
0
  62
7
  10
182.610626
  20
195.83845
  1
38
  40
1.92735
  50
90.0
  7
STANDARD
  72
5
  11
182.610626
  21
198.16155
  31
0.0
  0
ENDBLK
  0
BLOCK
  8
0
  70
65
  2
*D23
  10
0.0
  20
0.0
  30
0.0
  3
*D
  0
LINE
  8
0
  6
CONTINUOUS
  62
1
  10
174.831665
  20
216.0
  11
185.953076
  21
216.0
  0
LINE
  8
0
  6
CONTINUOUS
  62
1
  10
173.853378
  20
222.0
  11
185.953076
  21
222.0
  0
LINE
  8
0
  6
CONTINUOUS
  62
1
  10
184.153076
  20
211.2
  11
184.153076
  21
213.6
  0
LINE
  8
0
  6
CONTINUOUS
  62
1
  10
184.153076
  20
216.0
  11
184.153076
  21
219.0
  0
LINE
  8
0
  6
CONTINUOUS
  62
1
  10
184.153076
  20
226.8
  11
184.153076
  21
224.4
  0
LINE
  8
0
  6
CONTINUOUS
  62
1
  10
184.153076
  20
222.0
  11
184.153076
  21
219.0
  0
SOLID
  8
0
  6
CONTINUOUS
  62
1
  10
184.153076
  20
222.0
  11
184.465076
  21
224.4
  12
184.153076
  22
222.0
  13
183.841076
  23
224.4
  0
SOLID
  8
0
  6
CONTINUOUS
  62
1
  10
184.153076
  20
216.0
  11
183.841076
  21
213.6
  12
184.153076
  22
216.0
  13
184.465076
  23
213.6
  0
TEXT
  8
0
  62
7
  10
182.610626
  20
218.419225
  1
6
  40
1.92735
  50
90.0
  7
STANDARD
  72
5
  11
182.610626
  21
219.580775
  31
0.0
  0
ENDBLK
  0
BLOCK
  8
0
  70
65
  2
*D24
  10
0.0
  20
0.0
  30
0.0
  3
*D
  0
LINE
  8
0
  6
CONTINUOUS
  62
1
  10
172.0
  20
178.0
  11
172.0
  21
169.252673
  0
LINE
  8
0
  6
CONTINUOUS
  62
1
  10
151.0
  20
176.507294
  11
151.0
  21
169.252673
  0
POLYLINE
  8
0
  6
CONTINUOUS
  62
1
  66
1
  0
VERTEX
  8
0
  10
169.6
  20
171.052673
  30
0.0
  0
VERTEX
  8
0
  10
169.6
  20
171.052673
  30
0.0
  0
VERTEX
  8
0
  10
169.6
  20
171.052673
  30
0.0
  0
VERTEX
  8
0
  10
161.5
  20
171.052673
  30
0.0
  0
SEQEND
  0
POLYLINE
  8
0
  6
CONTINUOUS
  62
1
  66
1
  0
VERTEX
  8
0
  10
153.4
  20
171.052673
  30
0.0
  0
VERTEX
  8
0
  10
153.4
  20
171.052673
  30
0.0
  0
VERTEX
  8
0
  10
153.4
  20
171.052673
  30
0.0
  0
VERTEX
  8
0
  10
161.5
  20
171.052673
  30
0.0
  0
SEQEND
  0
SOLID
  8
0
  6
CONTINUOUS
  62
1
  10
172.0
  20
171.052673
  11
169.6
  21
171.364673
  12
172.0
  22
171.052673
  13
169.6
  23
170.740673
  0
SOLID
  8
0
  6
CONTINUOUS
  62
1
  10
151.0
  20
171.052673
  11
153.4
  21
170.740673
  12
151.0
  22
171.052673
  13
153.4
  23
171.364673
  0
TEXT
  8
0
  62
7
  10
160.33845
  20
172.595123
  1
21
  40
1.92735
  7
STANDARD
  72
5
  11
162.66155
  21
172.595123
  31
0.0
  0
ENDBLK
  0
BLOCK
  8
0
  70
65
  2
*D25
  10
0.0
  20
0.0
  30
0.0
  3
*D
  0
LINE
  8
0
  6
CONTINUOUS
  62
1
  10
172.0
  20
178.0
  11
172.0
  21
160.883578
  0
LINE
  8
0
  6
CONTINUOUS
  62
1
  10
130.0
  20
178.0
  11
130.0
  21
160.883578
  0
POLYLINE
  8
0
  6
CONTINUOUS
  62
1
  66
1
  0
VERTEX
  8
0
  10
169.6
  20
162.683578
  30
0.0
  0
VERTEX
  8
0
  10
169.6
  20
162.683578
  30
0.0
  0
VERTEX
  8
0
  10
169.6
  20
162.683578
  30
0.0
  0
VERTEX
  8
0
  10
151.0
  20
162.683578
  30
0.0
  0
SEQEND
  0
POLYLINE
  8
0
  6
CONTINUOUS
  62
1
  66
1
  0
VERTEX
  8
0
  10
132.4
  20
162.683578
  30
0.0
  0
VERTEX
  8
0
  10
132.4
  20
162.683578
  30
0.0
  0
VERTEX
  8
0
  10
132.4
  20
162.683578
  30
0.0
  0
VERTEX
  8
0
  10
151.0
  20
162.683578
  30
0.0
  0
SEQEND
  0
SOLID
  8
0
  6
CONTINUOUS
  62
1
  10
172.0
  20
162.683578
  11
169.6
  21
162.995579
  12
172.0
  22
162.683578
  13
169.6
  23
162.371578
  0
SOLID
  8
0
  6
CONTINUOUS
  62
1
  10
130.0
  20
162.683578
  11
132.4
  21
162.371578
  12
130.0
  22
162.683578
  13
132.4
  23
162.995579
  0
TEXT
  8
0
  62
7
  10
149.83845
  20
164.226029
  1
42
  40
1.92735
  7
STANDARD
  72
5
  11
152.16155
  21
164.226029
  31
0.0
  0
ENDBLK
  0
BLOCK
  8
0
  70
65
  2
*D26
  10
0.0
  20
0.0
  30
0.0
  3
*D
  0
LINE
  8
0
  6
CONTINUOUS
  62
1
  10
172.0
  20
228.5
  11
172.0
  21
237.39465
  0
LINE
  8
0
  6
CONTINUOUS
  62
1
  10
163.0
  20
230.0
  11
163.0
  21
237.39465
  0
POLYLINE
  8
0
  6
CONTINUOUS
  62
1
  66
1
  0
VERTEX
  8
0
  10
169.6
  20
235.59465
  30
0.0
  0
VERTEX
  8
0
  10
169.6
  20
235.59465
  30
0.0
  0
VERTEX
  8
0
  10
169.6
  20
235.59465
  30
0.0
  0
VERTEX
  8
0
  10
167.5
  20
235.59465
  30
0.0
  0
SEQEND
  0
POLYLINE
  8
0
  6
CONTINUOUS
  62
1
  66
1
  0
VERTEX
  8
0
  10
165.4
  20
235.59465
  30
0.0
  0
VERTEX
  8
0
  10
165.4
  20
235.59465
  30
0.0
  0
VERTEX
  8
0
  10
165.4
  20
235.59465
  30
0.0
  0
VERTEX
  8
0
  10
167.5
  20
235.59465
  30
0.0
  0
SEQEND
  0
SOLID
  8
0
  6
CONTINUOUS
  62
1
  10
172.0
  20
235.59465
  11
169.6
  21
235.90665
  12
172.0
  22
235.59465
  13
169.6
  23
235.28265
  0
SOLID
  8
0
  6
CONTINUOUS
  62
1
  10
163.0
  20
235.59465
  11
165.4
  21
235.28265
  12
163.0
  22
235.59465
  13
165.4
  23
235.90665
  0
TEXT
  8
0
  62
7
  10
166.919225
  20
237.1371
  1
9
  40
1.92735
  7
STANDARD
  72
5
  11
168.080775
  21
237.1371
  31
0.0
  0
ENDBLK
  0
BLOCK
  8
0
  70
65
  2
*D27
  10
0.0
  20
0.0
  30
0.0
  3
*D
  0
LINE
  8
0
  6
CONTINUOUS
  62
1
  10
163.0
  20
229.287399
  11
163.0
  21
237.39465
  0
LINE
  8
0
  6
CONTINUOUS
  62
1
  10
139.0
  20
229.287399
  11
139.0
  21
237.39465
  0
POLYLINE
  8
0
  6
CONTINUOUS
  62
1
  66
1
  0
VERTEX
  8
0
  10
160.6
  20
235.59465
  30
0.0
  0
VERTEX
  8
0
  10
160.6
  20
235.59465
  30
0.0
  0
VERTEX
  8
0
  10
160.6
  20
235.59465
  30
0.0
  0
VERTEX
  8
0
  10
151.0
  20
235.59465
  30
0.0
  0
SEQEND
  0
POLYLINE
  8
0
  6
CONTINUOUS
  62
1
  66
1
  0
VERTEX
  8
0
  10
141.4
  20
235.59465
  30
0.0
  0
VERTEX
  8
0
  10
141.4
  20
235.59465
  30
0.0
  0
VERTEX
  8
0
  10
141.4
  20
235.59465
  30
0.0
  0
VERTEX
  8
0
  10
151.0
  20
235.59465
  30
0.0
  0
SEQEND
  0
SOLID
  8
0
  6
CONTINUOUS
  62
1
  10
163.0
  20
235.59465
  11
160.6
  21
235.90665
  12
163.0
  22
235.59465
  13
160.6
  23
235.28265
  0
SOLID
  8
0
  6
CONTINUOUS
  62
1
  10
139.0
  20
235.59465
  11
141.4
  21
235.28265
  12
139.0
  22
235.59465
  13
141.4
  23
235.90665
  0
TEXT
  8
0
  62
7
  10
149.83845
  20
237.1371
  1
24
  40
1.92735
  7
STANDARD
  72
5
  11
152.16155
  21
237.1371
  31
0.0
  0
ENDBLK
  0
BLOCK
  8
0
  70
65
  2
*D28
  10
0.0
  20
0.0
  30
0.0
  3
*D
  0
TEXT
  8
0
  62
7
  10
177.062857
  20
230.972199
  1
4x Ø8 prof/1.5
  40
1.92735
  7
STANDARD
  72
5
  11
190.803578
  21
230.972199
  31
0.0
  0
POLYLINE
  8
0
  6
CONTINUOUS
  62
1
  66
1
  0
VERTEX
  8
0
  10
161.606639
  20
221.21352
  30
0.0
  0
VERTEX
  8
0
  10
163.0
  20
222.0
  30
0.0
  0
VERTEX
  8
0
  10
163.0
  20
222.0
  30
0.0
  0
VERTEX
  8
0
  10
164.393361
  20
222.78648
  30
0.0
  0
SEQEND
  0
POLYLINE
  8
0
  6
CONTINUOUS
  62
1
  66
1
  0
VERTEX
  8
0
  10
166.4834
  20
223.966198
  30
0.0
  0
VERTEX
  8
0
  10
168.57344
  20
225.145917
  30
0.0
  0
VERTEX
  8
0
  10
176.162857
  20
229.429749
  30
0.0
  0
VERTEX
  8
0
  10
190.803578
  20
229.429749
  30
0.0
  0
SEQEND
  0
SOLID
  8
0
  6
CONTINUOUS
  62
1
  10
159.5166
  20
220.033802
  11
161.760002
  21
220.941815
  12
159.5166
  22
220.033802
  13
161.453276
  23
221.485225
  0
SOLID
  8
0
  6
CONTINUOUS
  62
1
  10
166.4834
  20
223.966198
  11
164.239998
  21
223.058185
  12
166.4834
  22
223.966198
  13
164.546724
  23
222.514775
  0
ENDBLK
  0
BLOCK
  8
0
  70
65
  2
*D29
  10
0.0
  20
0.0
  30
0.0
  3
*D
  0
LINE
  8
0
  6
CONTINUOUS
  62
1
  10
250.0
  20
230.0
  11
268.74867
  21
230.0
  0
LINE
  8
0
  6
CONTINUOUS
  62
1
  10
250.0
  20
178.0
  11
268.74867
  21
178.0
  0
POLYLINE
  8
0
  6
CONTINUOUS
  62
1
  66
1
  0
VERTEX
  8
0
  10
266.948669
  20
227.6
  30
0.0
  0
VERTEX
  8
0
  10
266.948669
  20
227.6
  30
0.0
  0
VERTEX
  8
0
  10
266.948669
  20
227.6
  30
0.0
  0
VERTEX
  8
0
  10
266.948669
  20
204.0
  30
0.0
  0
SEQEND
  0
POLYLINE
  8
0
  6
CONTINUOUS
  62
1
  66
1
  0
VERTEX
  8
0
  10
266.948669
  20
180.4
  30
0.0
  0
VERTEX
  8
0
  10
266.948669
  20
180.4
  30
0.0
  0
VERTEX
  8
0
  10
266.948669
  20
180.4
  30
0.0
  0
VERTEX
  8
0
  10
266.948669
  20
204.0
  30
0.0
  0
SEQEND
  0
SOLID
  8
0
  6
CONTINUOUS
  62
1
  10
266.948669
  20
230.0
  11
266.636669
  21
227.6
  12
266.948669
  22
230.0
  13
267.260669
  23
227.6
  0
SOLID
  8
0
  6
CONTINUOUS
  62
1
  10
266.948669
  20
178.0
  11
267.260669
  21
180.4
  12
266.948669
  22
178.0
  13
266.636669
  23
180.4
  0
TEXT
  8
0
  62
7
  10
265.406219
  20
202.84102
  1
52
  40
1.92735
  50
90.0
  7
STANDARD
  72
5
  11
265.406219
  21
205.15898
  31
0.0
  0
ENDBLK
  0
BLOCK
  8
0
  70
65
  2
*D30
  10
0.0
  20
0.0
  30
0.0
  3
*D
  0
LINE
  8
0
  6
CONTINUOUS
  62
1
  10
130.0
  20
228.5
  11
90.327733
  21
225.029127
  0
LINE
  8
0
  6
CONTINUOUS
  62
1
  10
130.0
  20
230.0
  11
90.1107
  21
230.0
  0
ARC
  8
0
  6
CONTINUOUS
  62
1
  10
147.145081
  20
230.0
  40
55.251957
  50
4.101623
  51
177.511031
  0
ARC
  8
0
  6
CONTINUOUS
  62
1
  10
147.145081
  20
230.0
  40
55.251968
  50
-172.51102
  51
0.900331
  0
LINE
  8
0
  6
CONTINUOUS
  62
1
  10
92.120884
  20
225.186007
  11
92.120884
  21
225.186007
  0
TEXT
  8
0
  62
7
  10
90.918647
  20
226.94826
  1
5%%d
  40
1.92735
  7
STANDARD
  72
5
  11
93.007895
  21
226.94826
  31
0.0
  0
ENDBLK
  0
BLOCK
  8
0
  70
65
  2
*D31
  10
0.0
  20
0.0
  30
0.0
  3
*D
  0
LINE
  8
0
  6
CONTINUOUS
  62
1
  10
250.0
  20
230.0
  11
258.781354
  21
230.0
  0
LINE
  8
0
  6
CONTINUOUS
  62
1
  10
250.0
  20
228.5
  11
258.781354
  21
228.5
  0
LINE
  8
0
  6
CONTINUOUS
  62
1
  10
256.981354
  20
234.8
  11
256.981354
  21
232.4
  0
LINE
  8
0
  6
CONTINUOUS
  62
1
  10
256.981354
  20
232.4
  11
256.981354
  21
232.4
  0
POLYLINE
  8
0
  6
CONTINUOUS
  62
1
  66
1
  0
VERTEX
  8
0
  10
256.981354
  20
217.496126
  30
0.0
  0
VERTEX
  8
0
  10
256.981354
  20
223.7
  30
0.0
  0
VERTEX
  8
0
  10
256.981354
  20
226.1
  30
0.0
  0
VERTEX
  8
0
  10
256.981354
  20
226.1
  30
0.0
  0
SEQEND
  0
SOLID
  8
0
  6
CONTINUOUS
  62
1
  10
256.981354
  20
228.5
  11
256.669354
  21
226.1
  12
256.981354
  22
228.5
  13
257.293354
  23
226.1
  0
SOLID
  8
0
  6
CONTINUOUS
  62
1
  10
256.981354
  20
230.0
  11
257.293354
  21
232.4
  12
256.981354
  22
230.0
  13
256.669354
  23
232.4
  0
TEXT
  8
0
  62
7
  10
255.438904
  20
217.496126
  1
1,5
  40
1.92735
  50
90.0
  7
STANDARD
  72
5
  11
255.438904
  21
220.4
  31
0.0
  0
ENDBLK
  0
ENDSEC
  0
SECTION
  2
ENTITIES
  0
INSERT
  8
0
  6
CONTINUOUS
  62
7
  2
*G4
  10
0.0
  20
0.0
  1001
ACAD
  1000
ACAD_TCW25GROUP
  1002
{
  1000
Groupe_1
  1002
}
  0
TEXT
  8
0
  62
7
  10
244.808182
  20
108.11038
  30
7.033605
  1
03 septembre 2001
  40
1.906717
  7
STANDARD
  72
5
  11
268.547424
  21
108.11038
  31
7.033605
  0
TEXT
  8
0
  62
7
  10
202.724854
  20
100.963041
  30
4.958926
  1
CABINE
  40
3.813303
  7
STANDARD
  72
5
  11
228.039246
  21
100.963041
  31
4.958926
  0
POLYLINE
  8
0
  6
CONTINUOUS
  62
7
  40
0.03937
  41
0.03937
  66
1
  70
8
  0
VERTEX
  8
0
  10
152.453522
  20
115.723473
  30
4.958926
  70
32
  0
VERTEX
  8
0
  10
152.453522
  20
127.966949
  30
0.0
  70
32
  0
SEQEND
  0
POLYLINE
  8
0
  6
CONTINUOUS
  62
7
  40
0.03937
  41
0.03937
  66
1
  70
8
  0
VERTEX
  8
0
  10
287.546478
  20
115.723473
  30
4.958926
  70
32
  0
VERTEX
  8
0
  10
287.546478
  20
127.966949
  30
0.0
  70
32
  0
SEQEND
  0
POLYLINE
  8
0
  6
CONTINUOUS
  62
7
  40
0.03937
  41
0.03937
  66
1
  70
8
  0
VERTEX
  8
0
  10
152.453522
  20
127.966949
  30
4.958926
  70
32
  0
VERTEX
  8
0
  10
287.546478
  20
127.966949
  30
4.958926
  70
32
  0
SEQEND
  0
POLYLINE
  8
0
  6
CONTINUOUS
  62
7
  40
0.03937
  41
0.03937
  66
1
  70
8
  0
VERTEX
  8
0
  10
152.453522
  20
121.845184
  30
4.958926
  70
32
  0
VERTEX
  8
0
  10
287.546478
  20
121.845184
  30
4.958926
  70
32
  0
SEQEND
  0
POLYLINE
  8
0
  6
CONTINUOUS
  62
7
  40
0.03937
  41
0.03937
  66
1
  70
8
  0
VERTEX
  8
0
  10
166.047592
  20
115.723473
  30
4.958926
  70
32
  0
VERTEX
  8
0
  10
166.047592
  20
127.966949
  30
0.0
  70
32
  0
SEQEND
  0
POLYLINE
  8
0
  6
CONTINUOUS
  62
7
  40
0.03937
  41
0.03937
  66
1
  70
8
  0
VERTEX
  8
0
  10
179.641693
  20
115.723473
  30
4.958926
  70
32
  0
VERTEX
  8
0
  10
179.641693
  20
127.966949
  30
0.0
  70
32
  0
SEQEND
  0
POLYLINE
  8
0
  6
CONTINUOUS
  62
7
  40
0.03937
  41
0.03937
  66
1
  70
8
  0
VERTEX
  8
0
  10
234.018021
  20
115.723473
  30
4.958926
  70
32
  0
VERTEX
  8
0
  10
234.018021
  20
127.966949
  30
0.0
  70
32
  0
SEQEND
  0
POLYLINE
  8
0
  6
CONTINUOUS
  62
7
  40
0.03937
  41
0.03937
  66
1
  70
8
  0
VERTEX
  8
0
  10
261.206268
  20
115.723473
  30
4.958926
  70
32
  0
VERTEX
  8
0
  10
261.206268
  20
127.966949
  30
0.0
  70
32
  0
SEQEND
  0
TEXT
  8
0
  62
7
  10
155.328903
  20
117.760477
  30
4.958926
  1
Rep
  40
2.542173
  7
STANDARD
  72
5
  11
162.620087
  21
117.760477
  31
4.958926
  0
TEXT
  8
0
  62
7
  10
197.0681
  20
117.760477
  30
4.958926
  1
Désignation
  40
2.542173
  7
STANDARD
  72
5
  11
218.941696
  21
117.760477
  31
4.958926
  0
TEXT
  8
0
  62
7
  10
168.187668
  20
117.760477
  30
4.958926
  1
Nbre
  40
2.542173
  7
STANDARD
  72
5
  11
177.230148
  21
117.760477
  31
4.958926
  0
TEXT
  8
0
  62
7
  10
240.953842
  20
117.760477
  30
4.958926
  1
Matière
  40
2.542173
  7
STANDARD
  72
5
  11
255.024445
  21
117.760477
  31
4.958926
  0
TEXT
  8
0
  62
7
  10
270.753845
  20
117.760477
  30
4.958926
  1
Débit
  40
2.542173
  7
STANDARD
  72
5
  11
280.809967
  21
117.760477
  31
4.958926
  0
TEXT
  8
0
  62
7
  10
172.506271
  20
124.398708
  30
4.958926
  1
1
  40
2.224445
  7
STANDARD
  72
5
  11
174.490891
  21
124.398708
  31
4.958926
  0
TEXT
  8
0
  62
7
  10
187.018082
  20
124.398708
  30
4.958926
  1
Cabine
  40
2.224445
  7
STANDARD
  72
5
  11
198.25415
  21
124.398708
  31
4.958926
  0
TEXT
  8
0
  62
7
  10
235.716568
  20
124.586689
  30
4.958926
  1
EN AW-2017
  40
2.224445
  7
STANDARD
  72
5
  11
256.525299
  21
124.586689
  31
4.958926
  0
TEXT
  8
0
  62
7
  10
262.960693
  20
124.586689
  30
4.958926
  1
45x45 lg/56
  40
2.224445
  7
STANDARD
  72
5
  11
282.031128
  21
124.586689
  31
4.958926
  0
TEXT
  8
0
  62
7
  10
157.767746
  20
124.398708
  1
2
  40
2.224445
  7
STANDARD
  72
5
  11
159.752365
  21
124.398708
  31
0.0
  0
INSERT
  8
0
  6
CONTINUOUS
  62
7
  2
*G5
  10
0.0
  20
0.0
  1001
ACAD
  1000
ACAD_TCW25GROUP
  1002
{
  1000
Groupe_1
  1002
}
  0
POLYLINE
  8
0
  6
CONTINUOUS
  62
7
  40
0.019685
  41
0.019685
  66
1
  0
VERTEX
  8
0
  10
210.0
  20
230.0
  30
0.0
  0
VERTEX
  8
0
  10
250.0
  20
230.0
  30
0.0
  0
SEQEND
  0
POLYLINE
  8
0
  6
CONTINUOUS
  62
7
  40
0.019685
  41
0.019685
  66
1
  0
VERTEX
  8
0
  10
250.0
  20
230.0
  30
0.0
  0
VERTEX
  8
0
  10
250.0
  20
178.0
  30
0.0
  0
SEQEND
  0
POLYLINE
  8
0
  6
CONTINUOUS
  62
7
  40
0.019685
  41
0.019685
  66
1
  0
VERTEX
  8
0
  10
250.0
  20
178.0
  30
0.0
  0
VERTEX
  8
0
  10
225.0
  20
178.0
  30
0.0
  0
SEQEND
  0
POLYLINE
  8
0
  6
CONTINUOUS
  62
7
  40
0.019685
  41
0.019685
  66
1
  0
VERTEX
  8
0
  10
210.0
  20
226.0
  30
0.0
  0
VERTEX
  8
0
  10
210.0
  20
230.0
  30
0.0
  0
SEQEND
  0
POLYLINE
  8
0
  6
CONTINUOUS
  62
7
  40
0.019685
  41
0.019685
  66
1
  0
VERTEX
  8
0
  10
147.145081
  20
230.0
  30
0.0
  0
VERTEX
  8
0
  10
154.854919
  20
230.0
  30
0.0
  0
SEQEND
  0
POLYLINE
  8
0
  6
CONTINUOUS
  62
7
  40
0.019685
  41
0.019685
  66
1
  0
VERTEX
  8
0
  10
172.0
  20
228.5
  30
0.0
  0
VERTEX
  8
0
  10
172.0
  20
178.0
  30
0.0
  0
SEQEND
  0
POLYLINE
  8
0
  6
CONTINUOUS
  62
7
  40
0.019685
  41
0.019685
  66
1
  0
VERTEX
  8
0
  10
172.0
  20
178.0
  30
0.0
  0
VERTEX
  8
0
  10
130.0
  20
178.0
  30
0.0
  0
SEQEND
  0
POLYLINE
  8
0
  6
CONTINUOUS
  62
7
  40
0.019685
  41
0.019685
  66
1
  0
VERTEX
  8
0
  10
130.0
  20
178.0
  30
0.0
  0
VERTEX
  8
0
  10
130.0
  20
228.5
  30
0.0
  0
SEQEND
  0
POLYLINE
  8
0
  6
CONTINUOUS
  62
7
  40
0.019685
  41
0.019685
  66
1
  0
VERTEX
  8
0
  10
225.0
  20
212.0
  30
0.0
  0
VERTEX
  8
0
  10
225.0
  20
178.0
  30
0.0
  0
SEQEND
  0
POLYLINE
  8
0
  6
CONTINUOUS
  62
7
  40
0.019685
  41
0.019685
  66
1
  0
VERTEX
  8
0
  10
229.0
  20
212.0
  30
0.0
  0
VERTEX
  8
0
  10
225.0
  20
212.0
  30
0.0
  0
SEQEND
  0
POLYLINE
  8
0
  6
CONTINUOUS
  62
7
  40
0.019685
  41
0.019685
  66
1
  0
VERTEX
  8
0
  10
229.0
  20
226.0
  30
0.0
  0
VERTEX
  8
0
  10
210.0
  20
226.0
  30
0.0
  0
SEQEND
  0
POLYLINE
  8
0
  6
CONTINUOUS
  62
7
  40
0.019685
  41
0.019685
  66
1
  0
VERTEX
  8
0
  10
229.0
  20
226.0
  30
0.0
  0
VERTEX
  8
0
  10
229.0
  20
212.0
  30
0.0
  0
SEQEND
  0
POLYLINE
  8
0
  6
$AUXILIARY
  62
7
  40
0.007874
  41
0.007874
  66
1
  0
VERTEX
  8
0
  10
172.0
  20
212.0
  30
0.0
  0
VERTEX
  8
0
  10
130.0
  20
212.0
  30
0.0
  0
SEQEND
  0
POLYLINE
  8
0
  6
$AUXILIARY
  62
7
  40
0.007874
  41
0.007874
  66
1
  0
VERTEX
  8
0
  10
172.0
  20
226.0
  30
0.0
  0
VERTEX
  8
0
  10
130.0
  20
226.0
  30
0.0
  0
SEQEND
  0
POLYLINE
  8
0
  6
CENTER
  62
7
  40
0.007874
  41
0.007874
  66
1
  0
VERTEX
  8
0
  10
250.0
  20
216.0
  30
0.0
  0
VERTEX
  8
0
  10
230.919632
  20
216.0
  30
0.0
  0
SEQEND
  0
POLYLINE
  8
0
  6
CENTER
  62
7
  40
0.007874
  41
0.007874
  66
1
  0
VERTEX
  8
0
  10
174.831665
  20
216.0
  30
0.0
  0
VERTEX
  8
0
  10
154.613907
  20
216.0
  30
0.0
  0
SEQEND
  0
POLYLINE
  8
0
  6
CENTER
  62
7
  40
0.007874
  41
0.007874
  66
1
  0
VERTEX
  8
0
  10
144.17894
  20
216.0
  30
0.0
  0
VERTEX
  8
0
  10
125.591644
  20
216.0
  30
0.0
  0
SEQEND
  0
POLYLINE
  8
0
  6
CENTER
  62
7
  40
0.007874
  41
0.007874
  66
1
  0
VERTEX
  8
0
  10
250.0
  20
222.0
  30
0.0
  0
VERTEX
  8
0
  10
231.897903
  20
222.0
  30
0.0
  0
SEQEND
  0
POLYLINE
  8
0
  6
CENTER
  62
7
  40
0.007874
  41
0.007874
  66
1
  0
VERTEX
  8
0
  10
173.853378
  20
222.0
  30
0.0
  0
VERTEX
  8
0
  10
154.613907
  20
222.0
  30
0.0
  0
SEQEND
  0
POLYLINE
  8
0
  6
CENTER
  62
7
  40
0.007874
  41
0.007874
  66
1
  0
VERTEX
  8
0
  10
143.852844
  20
222.0
  30
0.0
  0
VERTEX
  8
0
  10
126.243835
  20
222.0
  30
0.0
  0
SEQEND
  0
POLYLINE
  8
0
  6
CENTER
  62
7
  40
0.007874
  41
0.007874
  66
1
  0
VERTEX
  8
0
  10
151.0
  20
176.507294
  30
0.0
  0
VERTEX
  8
0
  10
151.0
  20
206.818588
  30
0.0
  0
SEQEND
  0
POLYLINE
  8
0
  6
CENTER
  62
7
  40
0.007874
  41
0.007874
  66
1
  0
VERTEX
  8
0
  10
253.202713
  20
193.0
  30
0.0
  0
VERTEX
  8
0
  10
245.189377
  20
193.0
  30
0.0
  0
SEQEND
  0
POLYLINE
  8
0
  6
CENTER
  62
7
  40
0.007874
  41
0.007874
  66
1
  0
VERTEX
  8
0
  10
161.590866
  20
193.0
  30
0.0
  0
VERTEX
  8
0
  10
140.799515
  20
193.0
  30
0.0
  0
SEQEND
  0
POLYLINE
  8
0
  6
CENTER
  62
7
  40
0.007874
  41
0.007874
  66
1
  0
VERTEX
  8
0
  10
139.0
  20
208.775146
  30
0.0
  0
VERTEX
  8
0
  10
139.0
  20
230.0
  30
0.0
  0
SEQEND
  0
POLYLINE
  8
0
  6
CENTER
  62
7
  40
0.007874
  41
0.007874
  66
1
  0
VERTEX
  8
0
  10
163.0
  20
208.449051
  30
0.0
  0
VERTEX
  8
0
  10
163.0
  20
230.0
  30
0.0
  0
SEQEND
  0
POLYLINE
  8
0
  6
CENTER
  62
7
  40
0.007874
  41
0.007874
  66
1
  0
VERTEX
  8
0
  10
240.0
  20
230.0
  30
0.0
  0
VERTEX
  8
0
  10
240.0
  20
208.775146
  30
0.0
  0
SEQEND
  0
POLYLINE
  8
0
  6
CENTER
  62
7
  40
0.007874
  41
0.007874
  66
1
  0
VERTEX
  8
0
  10
231.0
  20
199.897552
  30
0.0
  0
VERTEX
  8
0
  10
231.0
  20
176.290726
  30
0.0
  0
SEQEND
  0
ARC
  8
0
  6
CONTINUOUS
  62
7
  10
240.0
  20
216.0
  40
4.0
  50
180.0
  51
360.0
  0
ARC
  8
0
  6
CONTINUOUS
  62
7
  10
240.0
  20
222.0
  40
4.0
  50
0.0
  51
180.0
  0
ARC
  8
0
  6
CONTINUOUS
  62
7
  10
139.0
  20
222.0
  40
4.0
  50
0.0
  51
180.0
  0
ARC
  8
0
  6
CONTINUOUS
  62
7
  10
139.0
  20
216.0
  40
4.0
  50
180.0
  51
360.0
  0
ARC
  8
0
  6
CONTINUOUS
  62
7
  10
163.0
  20
222.0
  40
4.0
  50
0.0
  51
180.0
  0
ARC
  8
0
  6
CONTINUOUS
  62
7
  10
163.0
  20
216.0
  40
4.0
  50
180.0
  51
360.0
  0
CIRCLE
  8
0
  6
CONTINUOUS
  62
7
  10
151.0
  20
193.0
  40
8.0
  0
POLYLINE
  8
0
  6
$AUXILIARY
  62
7
  40
0.007874
  41
0.007874
  66
1
  0
VERTEX
  8
0
  10
131.5
  20
212.0
  30
0.0
  0
VERTEX
  8
0
  10
131.5
  20
226.0
  30
0.0
  0
SEQEND
  0
POLYLINE
  8
0
  6
$AUXILIARY
  62
7
  40
0.007874
  41
0.007874
  66
1
  0
VERTEX
  8
0
  10
170.5
  20
226.0
  30
0.0
  0
VERTEX
  8
0
  10
170.5
  20
212.0
  30
0.0
  0
SEQEND
  0
POLYLINE
  8
0
  6
$AUXILIARY
  62
7
  40
0.007874
  41
0.007874
  66
1
  0
VERTEX
  8
0
  10
248.5
  20
226.0
  30
0.0
  0
VERTEX
  8
0
  10
248.5
  20
212.0
  30
0.0
  0
SEQEND
  0
POLYLINE
  8
0
  6
$AUXILIARY
  62
7
  40
0.007874
  41
0.007874
  66
1
  0
VERTEX
  8
0
  10
248.5
  20
212.0
  30
0.0
  0
VERTEX
  8
0
  10
250.0
  20
212.0
  30
0.0
  0
SEQEND
  0
POLYLINE
  8
0
  6
$AUXILIARY
  62
7
  40
0.007874
  41
0.007874
  66
1
  0
VERTEX
  8
0
  10
248.5
  20
226.0
  30
0.0
  0
VERTEX
  8
0
  10
250.0
  20
226.0
  30
0.0
  0
SEQEND
  0
POLYLINE
  8
0
  6
CONTINUOUS
  62
7
  40
0.019685
  41
0.019685
  66
1
  0
VERTEX
  8
0
  10
244.0
  20
222.0
  30
0.0
  0
VERTEX
  8
0
  10
244.0
  20
216.0
  30
0.0
  0
SEQEND
  0
POLYLINE
  8
0
  6
CONTINUOUS
  62
7
  40
0.019685
  41
0.019685
  66
1
  0
VERTEX
  8
0
  10
236.0
  20
222.0
  30
0.0
  0
VERTEX
  8
0
  10
236.0
  20
216.0
  30
0.0
  0
SEQEND
  0
POLYLINE
  8
0
  6
CONTINUOUS
  62
7
  40
0.019685
  41
0.019685
  66
1
  0
VERTEX
  8
0
  10
135.0
  20
222.0
  30
0.0
  0
VERTEX
  8
0
  10
135.0
  20
216.0
  30
0.0
  0
SEQEND
  0
POLYLINE
  8
0
  6
CONTINUOUS
  62
7
  40
0.019685
  41
0.019685
  66
1
  0
VERTEX
  8
0
  10
143.0
  20
222.0
  30
0.0
  0
VERTEX
  8
0
  10
143.0
  20
216.0
  30
0.0
  0
SEQEND
  0
POLYLINE
  8
0
  6
CONTINUOUS
  62
7
  40
0.019685
  41
0.019685
  66
1
  0
VERTEX
  8
0
  10
167.0
  20
222.0
  30
0.0
  0
VERTEX
  8
0
  10
167.0
  20
216.0
  30
0.0
  0
SEQEND
  0
POLYLINE
  8
0
  6
CONTINUOUS
  62
7
  40
0.019685
  41
0.019685
  66
1
  0
VERTEX
  8
0
  10
159.0
  20
222.0
  30
0.0
  0
VERTEX
  8
0
  10
159.0
  20
216.0
  30
0.0
  0
SEQEND
  0
POLYLINE
  8
0
  6
CONTINUOUS
  62
7
  40
0.019685
  41
0.019685
  66
1
  0
VERTEX
  8
0
  10
210.0
  20
228.5
  30
0.0
  0
VERTEX
  8
0
  10
250.0
  20
228.5
  30
0.0
  0
SEQEND
  0
POLYLINE
  8
0
  6
CONTINUOUS
  62
7
  40
0.019685
  41
0.019685
  66
1
  0
VERTEX
  8
0
  10
130.0
  20
228.5
  30
0.0
  0
VERTEX
  8
0
  10
147.145081
  20
230.0
  30
0.0
  0
SEQEND
  0
POLYLINE
  8
0
  6
CONTINUOUS
  62
7
  40
0.019685
  41
0.019685
  66
1
  0
VERTEX
  8
0
  10
172.0
  20
228.5
  30
0.0
  0
VERTEX
  8
0
  10
154.854919
  20
230.0
  30
0.0
  0
SEQEND
  0
POLYLINE
  8
0
  6
CONTINUOUS
  62
7
  40
0.019685
  41
0.019685
  66
1
  0
VERTEX
  8
0
  10
247.0
  20
201.0
  30
0.0
  0
VERTEX
  8
0
  10
247.0
  20
185.0
  30
0.0
  0
SEQEND
  0
POLYLINE
  8
0
  6
CONTINUOUS
  62
7
  40
0.019685
  41
0.019685
  66
1
  0
VERTEX
  8
0
  10
247.0
  20
201.0
  30
0.0
  0
VERTEX
  8
0
  10
250.0
  20
201.0
  30
0.0
  0
SEQEND
  0
POLYLINE
  8
0
  6
CONTINUOUS
  62
7
  40
0.019685
  41
0.019685
  66
1
  0
VERTEX
  8
0
  10
247.0
  20
185.0
  30
0.0
  0
VERTEX
  8
0
  10
250.0
  20
185.0
  30
0.0
  0
SEQEND
  0
INSERT
  8
0
  6
$AUXILIARY
  62
7
  2
*G6
  10
0.0
  20
0.0
  1001
ACAD
  1000
ACAD_TCW25GROUP
  1002
{
  1000
Groupe_2
  1002
}
  0
INSERT
  8
0
  6
$AUXILIARY
  62
7
  2
*G7
  10
0.0
  20
0.0
  1001
ACAD
  1000
ACAD_TCW25GROUP
  1002
{
  1000
Groupe_1
  1002
}
  0
POLYLINE
  8
0
  6
CONTINUOUS
  62
7
  40
0.003937
  41
0.003937
  66
1
  70
1
  1001
ACAD
  1000
TCW25BRUSH
  1002
{
  1000
L45
  1071
-5
  1070
0
  1070
0
  1040
5.0
  1040
0.0
  1002
}
  0
VERTEX
  8
0
  10
250.0
  20
185.0
  30
0.0
  0
VERTEX
  8
0
  10
250.0
  20
178.0
  30
0.0
  0
VERTEX
  8
0
  10
234.390167
  20
178.0
  30
0.0
  0
VERTEX
  8
0
  10
233.399994
  20
178.990158
  30
0.0
  0
VERTEX
  8
0
  10
233.399994
  20
196.604523
  30
0.0
  0
VERTEX
  8
0
  10
231.0
  20
197.990158
  30
0.0
  0
VERTEX
  8
0
  10
228.600006
  20
196.604523
  30
0.0
  0
VERTEX
  8
0
  10
228.600006
  20
178.990158
  30
0.0
  0
VERTEX
  8
0
  10
227.609848
  20
178.0
  30
0.0
  0
VERTEX
  8
0
  10
225.0
  20
178.0
  30
0.0
  0
VERTEX
  8
0
  10
225.0
  20
201.488144
  30
0.0
  0
VERTEX
  8
0
  10
229.858124
  20
202.425659
  30
0.0
  0
VERTEX
  8
0
  10
233.022217
  20
200.550629
  30
0.0
  0
VERTEX
  8
0
  10
236.772263
  20
201.956894
  30
0.0
  0
VERTEX
  8
0
  10
240.053543
  20
200.433441
  30
0.0
  0
VERTEX
  8
0
  10
250.0
  20
203.480362
  30
0.0
  0
VERTEX
  8
0
  10
250.0
  20
201.0
  30
0.0
  0
VERTEX
  8
0
  10
247.0
  20
201.0
  30
0.0
  0
VERTEX
  8
0
  10
247.0
  20
185.0
  30
0.0
  0
SEQEND
  0
INSERT
  8
0
  6
CONTINUOUS
  62
7
  2
*H8
  10
0.0
  20
0.0
  1001
ACAD
  1000
TCW25BRUSH
  1002
{
  1002
}
  0
DIMENSION
  8
0
  1
<>
  2
*D9
  10
231.0
  20
160.641098
  11
240.5
  21
162.825998
  13
250.0
  23
178.0
  14
231.0
  24
176.290726
  70
0
  0
DIMENSION
  8
0
  1
<>
  2
*D10
  10
234.0
  20
171.138779
  11
231.0
  21
173.323679
  13
228.0
  23
178.390152
  14
234.0
  24
178.390152
  70
0
  0
DIMENSION
  8
0
  1
<>
  2
*D11
  10
225.0
  20
152.006943
  11
237.5
  21
154.191843
  13
250.0
  23
178.0
  14
225.0
  24
178.0
  70
0
  0
DIMENSION
  8
0
  1
<>
  2
*D12
  10
225.0
  20
206.30278
  11
227.0
  21
208.48768
  13
229.0
  23
212.0
  14
225.0
  24
212.0
  70
0
  0
DIMENSION
  8
0
  1
<>
  2
*D13
  10
210.0
  20
247.580032
  11
230.0
  21
249.764932
  13
250.0
  23
230.0
  14
210.0
  24
230.0
  50
180.0
  70
0
  0
DIMENSION
  8
0
  1
<>
  2
*D14
  10
240.0
  20
239.865295
  11
245.0
  21
242.050195
  13
250.0
  23
230.0
  14
240.0
  24
228.5
  50
180.0
  70
0
  0
DIMENSION
  8
0
  1
<>
  2
*D15
  10
247.0
  20
172.602509
  11
248.5
  21
174.787409
  13
250.0
  23
185.0
  14
247.0
  24
185.0
  70
0
  0
DIMENSION
  8
0
  1
<>
  2
*D16
  10
220.798019
  20
178.0
  11
218.613119
  21
185.495079
  13
228.600006
  23
192.990158
  14
225.0
  24
178.0
  50
-90.0
  70
0
  0
DIMENSION
  8
0
  1
<>
  2
*D17
  10
216.251831
  20
197.990158
  11
214.066931
  21
187.995079
  13
225.0
  23
178.0
  14
230.999985
  24
197.990158
  50
-90.0
  70
0
  0
DIMENSION
  8
0
  1
<>
  2
*D18
  10
211.705658
  20
212.0
  11
209.520758
  21
195.0
  13
225.0
  23
178.0
  14
225.0
  24
212.0
  50
-90.0
  70
0
  0
DIMENSION
  8
0
  1
<>
  2
*D19
  10
211.705658
  20
226.0
  11
209.520758
  21
219.0
  13
225.0
  23
212.0
  14
210.0
  24
226.0
  50
90.0
  70
0
  0
DIMENSION
  8
0
  1
<>
  2
*D20
  10
259.371643
  20
185.0
  11
255.901843
  21
193.0
  13
250.0
  23
201.0
  14
250.0
  24
185.0
  50
90.0
  70
0
  0
DIMENSION
  8
0
  1
<>
  2
*D21
  10
178.642563
  20
193.0
  11
176.457663
  21
185.5
  13
172.0
  23
178.0
  14
161.590866
  24
193.0
  50
90.0
  70
0
  0
DIMENSION
  8
0
  1
<>
  2
*D22
  10
184.153076
  20
216.0
  11
181.968176
  21
197.0
  13
172.0
  23
178.0
  14
174.831665
  24
216.0
  50
90.0
  70
0
  0
DIMENSION
  8
0
  1
<>
  2
*D23
  10
184.153076
  20
222.0
  11
181.968176
  21
219.0
  13
174.831665
  23
216.0
  14
173.853378
  24
222.0
  50
90.0
  70
0
  0
DIMENSION
  8
0
  1
<>
  2
*D24
  10
151.0
  20
171.052673
  11
161.5
  21
173.237573
  13
172.0
  23
178.0
  14
151.0
  24
176.507294
  70
0
  0
DIMENSION
  8
0
  1
<>
  2
*D25
  10
130.0
  20
162.683578
  11
151.0
  21
164.868479
  13
172.0
  23
178.0
  14
130.0
  24
178.0
  70
0
  0
DIMENSION
  8
0
  1
<>
  2
*D26
  10
163.0
  20
235.59465
  11
167.5
  21
237.77955
  13
172.0
  23
228.5
  14
163.0
  24
230.0
  50
180.0
  70
0
  0
DIMENSION
  8
0
  1
<>
  2
*D27
  10
139.0
  20
235.59465
  11
151.0
  21
237.77955
  13
163.0
  23
229.287399
  14
139.0
  24
229.287399
  50
180.0
  70
0
  0
DIMENSION
  8
0
  1
<>
  2
*D28
  10
159.5166
  20
220.033802
  11
183.933218
  21
231.614649
  15
166.4834
  25
223.966198
  40
11.114957
  70
3
  0
DIMENSION
  8
0
  1
<>
  2
*D29
  10
266.948669
  20
178.0
  11
264.763769
  21
204.0
  13
250.0
  23
230.0
  14
250.0
  24
178.0
  50
90.0
  70
0
  0
DIMENSION
  8
0
  1
<>
  2
*D30
  10
91.978073
  20
227.27272
  11
91.963271
  21
227.59071
  13
130.0
  23
230.0
  14
130.0
  24
228.5
  15
147.145081
  25
230.0
  70
5
  0
DIMENSION
  8
0
  1
<>
  2
*D31
  10
256.981354
  20
228.5
  11
254.796454
  21
218.948063
  13
250.0
  23
230.0
  14
250.0
  24
228.5
  50
90.0
  70
0
  0
ENDSEC
  0
EOF
