  0
SECTION
  2
HEADER
  9
$ACADVER
  1
AC1009
  9
$ANGBASE
  50
0.0
  9
$ANGDIR
  70
0
  9
$ATTDIA
  70
0
  9
$ATTMODE
  70
0
  9
$ATTREQ
  70
1
  9
$AUNITS
  70
0
  9
$AUPREC
  70
2
  9
$AXISMODE
  70
0
  9
$CECOLOR
  62
256
  9
$CELTYPE
  6
BYLAYER
  9
$CLAYER
  8
0
  9
$DIMALT
  70
0
  9
$DIMALTD
  70
2
  9
$DIMALTF
  40
0.0
  9
$DIMAPOST
  1

  9
$DIMASO
  70
1
  9
$DIMASZ
  40
4.0
  9
$DIMBLK
  1

  9
$DIMBLK1
  1

  9
$DIMBLK2
  1

  9
$DIMCEN
  40
0.09
  9
$DIMCLRD
  70
256
  9
$DIMCLRE
  70
256
  9
$DIMCLRT
  70
256
  9
$DIMDLE
  40
0.0
  9
$DIMDLI
  40
10.0
  9
$DIMEXE
  40
3.0
  9
$DIMEXO
  40
0.0
  9
$DIMGAP
  40
1.5
  9
$DIMLFAC
  40
1.0
  9
$DIMLIM
  70
0
  9
$DIMPOST
  1

  9
$DIMRND
  40
0.001
  9
$DIMSAH
  70
0
  9
$DIMSCALE
  40
1.0
  9
$DIMSE1
  70
0
  9
$DIMSE2
  70
0
  9
$DIMSHO
  70
1
  9
$DIMSOXD
  70
0
  9
$DIMSTYLE
  2
*UNNAMED
  9
$DIMTAD
  70
1
  9
$DIMTFAC
  40
1.0
  9
$DIMTIH
  70
0
  9
$DIMTIX
  70
1
  9
$DIMTM
  40
0.0
  9
$DIMTOFL
  70
0
  9
$DIMTOH
  70
0
  9
$DIMTOL
  70
0
  9
$DIMTP
  40
0.2
  9
$DIMTSZ
  40
0.0
  9
$DIMTVP
  40
0.0
  9
$DIMTXT
  40
4.283
  9
$DIMZIN
  70
8
  9
$DRAGMODE
  70
0
  9
$ELEVATION
  40
0.0
  9
$EXTMAX
  10
0.0
  20
0.0
  30
0.0
  9
$EXTMIN
  10
0.0
  20
0.0
  30
0.0
  9
$FILLETRAD
  40
25.0
  9
$FILLMODE
  70
1
  9
$INSBASE
  10
0.0
  20
0.0
  30
0.0
  9
$LIMMAX
  10
310.512077
  20
259.961536
  9
$LIMMIN
  10
72.767988
  20
91.859655
  9
$LTSCALE
  40
1.0
  9
$LUNITS
  70
2
  9
$LUPREC
  70
3
  9
$MENU
  1
acad
  9
$MIRRTEXT
  70
0
  9
$ORTHOMODE
  70
0
  9
$OSMODE
  70
0
  9
$PDMODE
  70
0
  9
$PDSIZE
  40
0.0
  9
$PEXTMAX
  10
0.0
  20
0.0
  30
0.0
  9
$PEXTMIN
  10
0.0
  20
0.0
  30
0.0
  9
$PLIMCHECK
  70
0
  9
$PLIMMAX
  10
0.0
  20
0.0
  9
$PLIMMIN
  10
0.0
  20
0.0
  9
$PLINEWID
  40
0.0
  9
$PUCSXDIR
  10
1.0
  20
0.0
  30
0.0
  9
$PUCSYDIR
  10
0.0
  20
1.0
  30
0.0
  9
$QTEXTMODE
  70
0
  9
$SHADEDGE
  70
3
  9
$SHADEDIF
  70
70
  9
$SKETCHINC
  40
1.0
  9
$SPLFRAME
  70
0
  9
$SPLINESEGS
  70
20
  9
$SPLINETYPE
  70
0
  9
$SURFTAB1
  70
6
  9
$SURFTAB2
  70
6
  9
$TDINDWG
  40
0.0
  9
$TDUPDATE
  40
2449702.667959
  9
$TDUSRTIMER
  40
0.0
  9
$TEXTSIZE
  40
5.0
  9
$TEXTSTYLE
  7
STANDARD
  9
$TILEMODE
  70
1
  9
$TRACEWID
  40
1.0
  9
$UCSORG
  10
0.0
  20
0.0
  30
0.0
  9
$UCSXDIR
  10
1.0
  20
0.0
  30
0.0
  9
$UCSYDIR
  10
0.0
  20
1.0
  30
0.0
  9
$UNITMODE
  70
0
  9
$WORLDVIEW
  70
1
  9
$GRIDMODE
  70
1
  9
$PINSBASE
  10
0.0
  20
0.0
  30
0.0
  9
$PSLTSCALE
  70
1
  9
$TREEDEPTH
  70
3020
  0
ENDSEC
  0
SECTION
  2
TABLES
  0
TABLE
  2
VPORT
  70
1
  0
VPORT
  2
*ACTIVE
  70
0
  10
0.0
  20
0.0
  11
1.0
  21
1.0
  12
210.627665
  22
192.90052
  13
0.0
  23
0.0
  14
5.0
  24
5.0
  15
5.0
  25
5.0
  16
0.0
  26
0.0
  36
1.0
  17
0.0
  27
0.0
  37
0.0
  40
191.953537
  41
1.591518
  42
50.0
  43
0.0
  44
0.0
  50
0.0
  51
0.0
  71
0
  72
100
  73
1
  74
1
  75
0
  76
1
  77
0
  78
0
  0
ENDTAB
  0
TABLE
  2
LTYPE
  70
12
  0
LTYPE
  2
CONTINUOUS
  70
0
  3
CONTINUOUS
  72
65
  73
0
  40
0.0
  0
LTYPE
  2
BORDER
  70
0
  3
BORDER
  72
65
  73
6
  40
1.75
  49
0.5
  49
-0.25
  49
0.5
  49
-0.25
  49
0.0
  49
-0.25
  0
LTYPE
  2
CENTER
  70
0
  3
CENTER
  72
65
  73
4
  40
2.0
  49
1.25
  49
-0.25
  49
0.25
  49
-0.25
  0
LTYPE
  2
DASHDOT
  70
0
  3
DASHDOT
  72
65
  73
4
  40
1.0
  49
0.5
  49
-0.25
  49
0.0
  49
-0.25
  0
LTYPE
  2
DASHED
  70
0
  3
DASHED
  72
65
  73
2
  40
0.75
  49
0.5
  49
-0.25
  0
LTYPE
  2
DIVIDE
  70
0
  3
DIVIDE
  72
65
  73
6
  40
1.25
  49
0.5
  49
-0.25
  49
0.0
  49
-0.25
  49
0.0
  49
-0.25
  0
LTYPE
  2
DOT
  70
0
  3
DOT
  72
65
  73
2
  40
0.25
  49
0.0
  49
-0.25
  0
LTYPE
  2
HIDDEN
  70
0
  3
HIDDEN
  72
65
  73
2
  40
0.375
  49
0.25
  49
-0.125
  0
LTYPE
  2
PHANTOM
  70
0
  3
PHANTOM
  72
65
  73
6
  40
2.5
  49
1.25
  49
-0.25
  49
0.25
  49
-0.25
  49
0.25
  49
-0.25
  0
LTYPE
  2
$AUXILIARY
  70
0
  3
$AUXILIARY
  72
65
  73
2
  40
0.1
  49
0.05
  49
-0.05
  0
LTYPE
  2
$INVISIBLE
  70
0
  3
$INVISIBLE
  72
65
  73
2
  40
200.0
  49
-100.0
  49
-100.0
  0
LTYPE
  2
AXES
  70
0
  3
AXES
  72
65
  73
4
  40
20.0
  49
12.5
  49
-2.5
  49
2.5
  49
-2.5
  0
ENDTAB
  0
TABLE
  2
LAYER
  70
1
  0
LAYER
  2
0
  70
64
  6
CONTINUOUS
  62
7
  0
ENDTAB
  0
TABLE
  2
STYLE
  70
1
  0
STYLE
  2
STANDARD
  70
0
  3
txt
  4

  40
0.0
  41
1.0
  42
0.2
  50
0.0
  71
0
  0
ENDTAB
  0
ENDSEC
  0
SECTION
  2
BLOCKS
  0
BLOCK
  8
0
  70
64
  2
Bloc_1
  10
125.55838
  20
25.439186
  30
0.0
  3
Bloc_1
  0
TEXT
  8
0
  62
82
  10
113.768379
  20
24.189186
  1
Dessiné par :
  40
3.75
  7
STANDARD
  72
5
  11
137.348373
  21
24.189186
  31
0.0
  0
ENDBLK
  0
BLOCK
  8
0
  70
64
  2
A4-V
  10
0.0
  20
0.0
  30
0.0
  3
A4-V
  0
POLYLINE
  8
0
  66
1
  70
1
  0
VERTEX
  8
0
  10
0.0
  20
0.0
  30
0.0
  0
VERTEX
  8
0
  10
190.0
  20
0.0
  30
0.0
  0
VERTEX
  8
0
  10
190.0
  20
277.0
  30
0.0
  0
VERTEX
  8
0
  10
0.0
  20
277.0
  30
0.0
  0
SEQEND
  0
ENDBLK
  0
BLOCK
  8
0
  70
64
  2
CARTOUCH
  10
0.0
  20
0.0
  30
0.0
  3
CARTOUCH
  0
SOLID
  8
0
  10
-179.75
  20
0.25
  11
-0.25
  21
0.25
  12
-179.75
  22
31.75
  13
-0.25
  23
31.75
  0
SOLID
  8
0
  10
-180.25
  20
-0.25
  11
-180.25
  21
32.25
  12
0.25
  22
-0.25
  13
0.25
  23
32.25
  0
LINE
  8
0
  62
3
  10
-150.0
  20
0.0
  11
-150.0
  21
32.0
  0
LINE
  8
0
  62
3
  10
-70.0
  20
32.0
  11
-70.0
  21
16.0
  0
LINE
  8
0
  62
3
  10
-150.0
  20
16.0
  11
0.0
  21
16.0
  0
POINT
  8
0
  62
3
  10
-150.0
  20
10.666667
  1001
ACAD
  1000
TCW30POINT
  1002
{
  1070
0
  1040
0.00001
  1000

  1070
0
  1071
65280
  1040
1.0
  1040
0.0
  1000
UNDEFINED
  1000
0
  1071
1
  1071
242
  1010
-150.0
  1020
10.666667
  1002
}
  0
POINT
  8
0
  62
3
  10
-150.0
  20
21.333334
  1001
ACAD
  1000
TCW30POINT
  1002
{
  1070
0
  1040
0.00001
  1000

  1070
0
  1071
65280
  1040
1.0
  1040
0.0
  1000
UNDEFINED
  1000
0
  1071
1
  1071
242
  1010
-150.0
  1020
21.333334
  1002
}
  0
LINE
  8
0
  62
3
  10
-150.0
  20
21.333334
  11
-180.0
  21
21.333334
  0
LINE
  8
0
  62
3
  10
-150.0
  20
10.666667
  11
-180.0
  21
10.666667
  0
LINE
  8
0
  62
3
  10
-70.0
  20
24.0
  11
0.0
  21
24.0
  0
TEXT
  8
0
  10
-141.9608
  20
21.74437
  1
AIFT INDUSTRIE
  40
5.0
  7
STANDARD
  72
5
  11
-79.854439
  21
21.74437
  31
0.0
  0
TEXT
  8
0
  62
3
  10
-68.01075
  20
28.894913
  1
dessine par :
  40
2.0
  7
STANDARD
  72
5
  11
-55.968082
  21
28.894913
  31
0.0
  0
TEXT
  8
0
  62
3
  10
-68.01075
  20
20.978732
  1
le :
  40
2.000001
  7
STANDARD
  72
5
  11
-65.000084
  21
20.978732
  31
0.0
  0
TEXT
  8
0
  62
3
  10
-177.84581
  20
25.16764
  1
Echelle:
  40
2.499999
  7
STANDARD
  72
5
  11
-167.995804
  21
25.16764
  31
0.0
  0
LINE
  8
0
  6
AXES
  62
3
  10
-176.49585
  20
16.088823
  11
-151.090744
  21
16.088823
  0
LINE
  8
0
  6
AXES
  62
3
  10
-157.740021
  20
20.277731
  11
-157.740021
  21
11.438282
  0
CIRCLE
  8
0
  62
3
  10
-157.740021
  20
16.088823
  40
4.73477
  0
CIRCLE
  8
0
  62
3
  10
-157.740021
  20
16.088823
  40
3.23018
  0
LINE
  8
0
  62
3
  10
-164.116425
  20
20.823591
  11
-164.116425
  21
11.354056
  0
LINE
  8
0
  62
3
  10
-175.346939
  20
12.858644
  11
-175.346939
  21
19.319004
  0
LINE
  8
0
  62
3
  10
-175.346939
  20
19.319004
  11
-164.116425
  21
20.823591
  0
LINE
  8
0
  62
3
  10
-175.346939
  20
12.858644
  11
-164.116425
  21
11.354056
  0
ENDBLK
  0
BLOCK
  8
0
  70
64
  2
Bloc_2
  10
90.0
  20
15.0
  30
0.0
  3
Bloc_2
  0
POLYLINE
  8
0
  6
CONTINUOUS
  62
7
  40
0.03937
  41
0.03937
  66
1
  70
1
  0
VERTEX
  8
0
  10
0.0
  20
0.0
  30
0.0
  0
VERTEX
  8
0
  10
180.0
  20
0.0
  30
0.0
  0
VERTEX
  8
0
  10
180.0
  20
30.0
  30
0.0
  0
VERTEX
  8
0
  10
0.0
  20
30.0
  30
0.0
  0
SEQEND
  0
POLYLINE
  8
0
  6
CONTINUOUS
  62
7
  40
0.007874
  41
0.007874
  66
1
  0
VERTEX
  8
0
  10
30.0
  20
30.0
  30
0.0
  0
VERTEX
  8
0
  10
30.0
  20
0.0
  30
0.0
  0
SEQEND
  0
POLYLINE
  8
0
  6
CONTINUOUS
  62
7
  40
0.007874
  41
0.007874
  66
1
  0
VERTEX
  8
0
  10
110.0
  20
30.0
  30
0.0
  0
VERTEX
  8
0
  10
110.0
  20
15.0
  30
0.0
  0
SEQEND
  0
POLYLINE
  8
0
  6
CONTINUOUS
  62
7
  40
0.007874
  41
0.007874
  66
1
  0
VERTEX
  8
0
  10
30.0
  20
15.0
  30
0.0
  0
VERTEX
  8
0
  10
180.0
  20
15.0
  30
0.0
  0
SEQEND
  0
POLYLINE
  8
0
  6
CONTINUOUS
  62
7
  40
0.007874
  41
0.007874
  66
1
  0
VERTEX
  8
0
  10
110.0
  20
22.5
  30
0.0
  0
VERTEX
  8
0
  10
180.0
  20
22.5
  30
0.0
  0
SEQEND
  0
POLYLINE
  8
0
  6
CONTINUOUS
  62
7
  40
0.007874
  41
0.007874
  66
1
  0
VERTEX
  8
0
  10
0.0
  20
20.0
  30
0.0
  0
VERTEX
  8
0
  10
30.0
  20
20.0
  30
0.0
  0
SEQEND
  0
POLYLINE
  8
0
  6
CONTINUOUS
  62
7
  40
0.007874
  41
0.007874
  66
1
  0
VERTEX
  8
0
  10
0.0
  20
10.0
  30
0.0
  0
VERTEX
  8
0
  10
30.0
  20
10.0
  30
0.0
  0
SEQEND
  0
CIRCLE
  8
0
  6
CONTINUOUS
  62
70
  210
0.0
  220
0.098069
  230
0.99518
  10
-19.832396
  20
-14.779912
  30
1.456479
  40
3.317184
  0
CIRCLE
  8
0
  6
CONTINUOUS
  62
70
  210
0.0
  220
0.098067
  230
0.99518
  10
-19.832396
  20
-14.779916
  30
1.456436
  40
1.658592
  0
POLYLINE
  8
0
  6
CONTINUOUS
  62
70
  40
0.007874
  41
0.007874
  66
1
  0
VERTEX
  8
0
  10
13.198025
  20
18.152697
  30
0.0
  0
VERTEX
  8
0
  10
13.198025
  20
11.55031
  30
0.0
  0
SEQEND
  0
POLYLINE
  8
0
  6
CONTINUOUS
  62
70
  40
0.007874
  41
0.007874
  66
1
  0
VERTEX
  8
0
  10
6.697942
  20
16.641684
  30
0.0
  0
VERTEX
  8
0
  10
6.697942
  20
13.200907
  30
0.0
  0
SEQEND
  0
POLYLINE
  8
0
  6
CONTINUOUS
  62
70
  40
0.007874
  41
0.007874
  66
1
  0
VERTEX
  8
0
  10
13.198025
  20
18.152697
  30
0.0
  0
VERTEX
  8
0
  10
6.697942
  20
16.641684
  30
0.0
  0
SEQEND
  0
POLYLINE
  8
0
  6
CONTINUOUS
  62
70
  40
0.007874
  41
0.007874
  66
1
  0
VERTEX
  8
0
  10
13.198025
  20
11.55031
  30
0.0
  0
VERTEX
  8
0
  10
6.697942
  20
13.200907
  30
0.0
  0
SEQEND
  0
POLYLINE
  8
0
  6
DASHDOT
  62
70
  40
0.007874
  41
0.007874
  66
1
  0
VERTEX
  8
0
  10
4.905061
  20
14.851502
  30
0.0
  0
VERTEX
  8
0
  10
24.808172
  20
14.851502
  30
0.0
  0
SEQEND
  0
POLYLINE
  8
0
  6
DASHDOT
  62
70
  40
0.007874
  41
0.007874
  66
1
  0
VERTEX
  8
0
  10
19.832396
  20
19.803291
  30
0.0
  0
VERTEX
  8
0
  10
19.832396
  20
9.899714
  30
0.0
  0
SEQEND
  0
TEXT
  8
0
  62
150
  10
42.530231
  20
21.188855
  1
aift industrie
  40
5.795903
  7
STANDARD
  72
5
  11
100.782715
  21
21.188855
  31
0.0
  0
TEXT
  8
0
  62
82
  10
4.037598
  20
21.689184
  1
Echelle:
  40
3.75
  7
STANDARD
  72
5
  11
18.837597
  21
21.689184
  31
0.0
  0
TEXT
  8
0
  62
82
  10
115.206894
  20
17.234102
  1
Le:
  40
3.75
  7
STANDARD
  72
5
  11
121.226891
  21
17.234102
  31
0.0
  0
TEXT
  8
0
  62
82
  10
113.149826
  20
24.638334
  1
Dessine par : G. Maillard
  40
3.75
  7
STANDARD
  72
5
  11
158.93483
  21
24.638334
  31
0.0
  0
ENDBLK
  0
BLOCK
  8
0
  70
65
  2
*G4
  10
0.0
  20
0.0
  30
0.0
  3
*G
  0
POLYLINE
  8
0
  6
CONTINUOUS
  62
7
  40
0.03937
  41
0.03937
  66
1
  70
9
  0
VERTEX
  8
0
  10
152.453522
  20
98.175125
  30
7.405934
  70
32
  0
VERTEX
  8
0
  10
287.546478
  20
98.175125
  30
7.405934
  70
32
  0
VERTEX
  8
0
  10
287.546478
  20
115.723473
  30
7.405934
  70
32
  0
VERTEX
  8
0
  10
152.453522
  20
115.723473
  30
7.405934
  70
32
  0
SEQEND
  0
POLYLINE
  8
0
  6
CONTINUOUS
  62
7
  40
0.007874
  41
0.007874
  66
1
  70
8
  0
VERTEX
  8
0
  10
174.969009
  20
115.723473
  30
7.405934
  70
32
  0
VERTEX
  8
0
  10
174.969009
  20
98.175125
  30
7.405934
  70
32
  0
SEQEND
  0
POLYLINE
  8
0
  6
CONTINUOUS
  62
7
  40
0.007874
  41
0.007874
  66
1
  70
8
  0
VERTEX
  8
0
  10
235.01033
  20
115.723473
  30
7.405934
  70
32
  0
VERTEX
  8
0
  10
235.01033
  20
106.74189
  30
7.405934
  70
32
  0
SEQEND
  0
POLYLINE
  8
0
  6
CONTINUOUS
  62
7
  40
0.007874
  41
0.007874
  66
1
  70
8
  0
VERTEX
  8
0
  10
174.969009
  20
110.388962
  30
7.405934
  70
32
  0
VERTEX
  8
0
  10
152.453522
  20
110.388962
  30
7.405934
  70
32
  0
SEQEND
  0
POLYLINE
  8
0
  6
CONTINUOUS
  62
7
  40
0.007874
  41
0.007874
  66
1
  70
8
  0
VERTEX
  8
0
  10
174.910583
  20
104.401184
  30
7.405934
  70
32
  0
VERTEX
  8
0
  10
152.453522
  20
104.401184
  30
7.405934
  70
32
  0
SEQEND
  0
POLYLINE
  8
0
  6
CONTINUOUS
  62
7
  40
0.007874
  41
0.007874
  66
1
  70
8
  0
VERTEX
  8
0
  10
287.546478
  20
106.74189
  30
7.405934
  70
32
  0
VERTEX
  8
0
  10
174.969009
  20
106.74189
  30
7.405934
  70
32
  0
SEQEND
  0
POLYLINE
  8
0
  6
CONTINUOUS
  62
82
  40
0.015748
  41
0.015748
  66
1
  70
8
  0
VERTEX
  8
0
  10
163.073212
  20
109.457703
  30
7.405934
  70
32
  0
VERTEX
  8
0
  10
163.073212
  20
105.38961
  30
7.405934
  70
32
  0
SEQEND
  0
POLYLINE
  8
0
  6
CENTER
  62
82
  40
0.007874
  41
0.007874
  66
1
  70
8
  0
VERTEX
  8
0
  10
154.163147
  20
107.42366
  30
7.405934
  70
32
  0
VERTEX
  8
0
  10
172.832611
  20
107.42366
  30
7.405934
  70
32
  0
SEQEND
  0
POLYLINE
  8
0
  6
CENTER
  62
82
  40
0.007874
  41
0.007874
  66
1
  70
8
  0
VERTEX
  8
0
  10
168.733307
  20
110.267776
  30
7.405934
  70
32
  0
VERTEX
  8
0
  10
168.733307
  20
104.522308
  30
7.405934
  70
32
  0
SEQEND
  0
CIRCLE
  8
0
  6
CONTINUOUS
  62
82
  210
0.0
  220
0.654112
  230
0.756398
  10
-168.733307
  20
-76.410745
  30
75.868891
  40
2.542297
  0
CIRCLE
  8
0
  6
CONTINUOUS
  62
82
  210
0.0
  220
0.654107
  230
0.756402
  10
-168.733307
  20
-76.411162
  30
75.868472
  40
1.256134
  0
POLYLINE
  8
0
  6
CONTINUOUS
  62
82
  40
0.015748
  41
0.015748
  66
1
  70
8
  0
VERTEX
  8
0
  10
155.529617
  20
108.373802
  30
7.405934
  70
32
  0
VERTEX
  8
0
  10
155.529617
  20
106.473518
  30
7.405934
  70
32
  0
SEQEND
  0
POLYLINE
  8
0
  6
CONTINUOUS
  62
82
  40
0.015748
  41
0.015748
  66
1
  70
8
  0
VERTEX
  8
0
  10
163.073212
  20
109.457703
  30
7.405934
  70
32
  0
VERTEX
  8
0
  10
155.529617
  20
108.373802
  30
7.405934
  70
32
  0
SEQEND
  0
POLYLINE
  8
0
  6
CONTINUOUS
  62
82
  40
0.015748
  41
0.015748
  66
1
  70
8
  0
VERTEX
  8
0
  10
163.073212
  20
105.38961
  30
7.405934
  70
32
  0
VERTEX
  8
0
  10
155.529617
  20
106.473518
  30
7.405934
  70
32
  0
SEQEND
  0
TEXT
  8
0
  62
82
  10
153.276138
  20
112.383253
  30
7.405934
  1
Echelle:
  40
2.245394
  7
STANDARD
  72
5
  11
164.383759
  21
112.383253
  31
7.405934
  0
POLYLINE
  8
0
  6
CONTINUOUS
  62
7
  40
0.015748
  41
0.015748
  66
1
  70
8
  0
VERTEX
  8
0
  10
287.546478
  20
111.232651
  30
7.405934
  70
32
  0
VERTEX
  8
0
  10
235.01033
  20
111.232651
  30
7.405934
  70
32
  0
SEQEND
  0
TEXT
  8
0
  62
82
  10
237.156769
  20
108.255362
  30
7.405934
  1
Le :
  40
2.245394
  7
STANDARD
  72
5
  11
242.52298
  21
108.255362
  31
7.405934
  0
TEXT
  8
0
  62
150
  10
182.477646
  20
110.080946
  30
7.405934
  1
AIFT INDUSTRIE
  40
3.36133
  7
STANDARD
  72
5
  11
227.565277
  21
110.080946
  31
7.405934
  0
TEXT
  8
0
  62
82
  10
238.356537
  20
112.662619
  30
7.405934
  1
Dessiné par : G. Maillard
  40
2.24544
  7
STANDARD
  72
5
  11
272.718964
  21
112.662619
  31
7.405934
  0
ENDBLK
  0
BLOCK
  8
0
  70
65
  2
*G5
  10
0.0
  20
0.0
  30
0.0
  3
*G
  0
POLYLINE
  8
0
  6
CONTINUOUS
  62
7
  40
0.007874
  41
0.007874
  66
1
  70
8
  0
VERTEX
  8
0
  10
216.949081
  20
131.102661
  30
7.103367
  70
32
  0
VERTEX
  8
0
  10
217.88916
  20
129.509384
  30
7.103367
  70
32
  0
VERTEX
  8
0
  10
220.356857
  20
132.587616
  30
7.103367
  70
32
  0
VERTEX
  8
0
  10
226.23233
  20
132.587616
  30
7.103367
  70
32
  0
SEQEND
  0
TEXT
  8
0
  62
7
  10
246.488358
  20
129.684731
  30
7.033605
  1
Tolérance générale ISO 2768 f K
  40
1.885551
  7
STANDARD
  72
5
  11
284.74411
  21
129.684731
  31
7.033605
  0
TEXT
  8
0
  62
7
  10
220.349579
  20
129.828068
  30
7.033605
  1
Sauf indication
  40
1.885586
  7
STANDARD
  72
5
  11
237.844421
  21
129.828068
  31
7.033605
  0
TEXT
  8
0
  62
7
  10
212.007858
  20
132.193878
  30
7.033605
  1
Ra 3.2
  40
1.376312
  7
STANDARD
  72
5
  11
218.786102
  21
132.193878
  31
7.033605
  0
TEXT
  8
0
  62
7
  10
188.910614
  20
130.127277
  30
7.033605
  1
Usinage général
  40
1.885586
  7
STANDARD
  72
5
  11
207.516418
  21
130.127277
  31
7.033605
  0
ENDBLK
  0
BLOCK
  8
0
  70
65
  2
*D6
  10
0.0
  20
0.0
  30
0.0
  3
*D
  0
LINE
  8
0
  6
CONTINUOUS
  62
1
  10
96.758217
  20
238.732605
  11
96.758217
  21
251.495087
  0
LINE
  8
0
  6
CONTINUOUS
  62
1
  10
214.758209
  20
238.732605
  11
214.758209
  21
251.495087
  0
POLYLINE
  8
0
  6
CONTINUOUS
  62
1
  66
1
  0
VERTEX
  8
0
  10
100.758217
  20
248.495087
  30
0.0
  0
VERTEX
  8
0
  10
100.758217
  20
248.495087
  30
0.0
  0
VERTEX
  8
0
  10
100.758217
  20
248.495087
  30
0.0
  0
VERTEX
  8
0
  10
155.758213
  20
248.495087
  30
0.0
  0
SEQEND
  0
POLYLINE
  8
0
  6
CONTINUOUS
  62
1
  66
1
  0
VERTEX
  8
0
  10
210.758209
  20
248.495087
  30
0.0
  0
VERTEX
  8
0
  10
210.758209
  20
248.495087
  30
0.0
  0
VERTEX
  8
0
  10
210.758209
  20
248.495087
  30
0.0
  0
VERTEX
  8
0
  10
155.758213
  20
248.495087
  30
0.0
  0
SEQEND
  0
SOLID
  8
0
  6
CONTINUOUS
  62
1
  10
96.758217
  20
248.495087
  11
100.758217
  21
247.975087
  12
96.758217
  22
248.495087
  13
100.758217
  23
249.015087
  0
SOLID
  8
0
  6
CONTINUOUS
  62
1
  10
214.758209
  20
248.495087
  11
210.758209
  21
249.015087
  12
214.758209
  22
248.495087
  13
210.758209
  23
247.975087
  0
TEXT
  8
0
  62
7
  10
152.854339
  20
251.065837
  1
118
  40
3.21225
  7
STANDARD
  72
5
  11
158.662087
  21
251.065837
  31
0.0
  0
ENDBLK
  0
BLOCK
  8
0
  70
65
  2
*D7
  10
0.0
  20
0.0
  30
0.0
  3
*D
  0
LINE
  8
0
  6
CONTINUOUS
  62
1
  10
246.758209
  20
238.732605
  11
246.758209
  21
251.495087
  0
LINE
  8
0
  6
CONTINUOUS
  62
1
  10
251.758209
  20
238.732605
  11
251.758209
  21
251.495087
  0
LINE
  8
0
  6
CONTINUOUS
  62
1
  10
238.758209
  20
248.495087
  11
242.758209
  21
248.495087
  0
LINE
  8
0
  6
CONTINUOUS
  62
1
  10
242.758209
  20
248.495087
  11
242.758209
  21
248.495087
  0
POLYLINE
  8
0
  6
CONTINUOUS
  62
1
  66
1
  0
VERTEX
  8
0
  10
263.194125
  20
248.495087
  30
0.0
  0
VERTEX
  8
0
  10
259.758209
  20
248.495087
  30
0.0
  0
VERTEX
  8
0
  10
255.758209
  20
248.495087
  30
0.0
  0
VERTEX
  8
0
  10
255.758209
  20
248.495087
  30
0.0
  0
SEQEND
  0
SOLID
  8
0
  6
CONTINUOUS
  62
1
  10
251.758209
  20
248.495087
  11
255.758209
  21
247.975087
  12
251.758209
  22
248.495087
  13
255.758209
  23
249.015087
  0
SOLID
  8
0
  6
CONTINUOUS
  62
1
  10
246.758209
  20
248.495087
  11
242.758209
  21
249.015087
  12
246.758209
  22
248.495087
  13
242.758209
  23
247.975087
  0
TEXT
  8
0
  62
7
  10
248.290251
  20
251.065837
  1
5
  40
3.21225
  7
STANDARD
  72
5
  11
250.226167
  21
251.065837
  31
0.0
  0
ENDBLK
  0
BLOCK
  8
0
  70
65
  2
*D8
  10
0.0
  20
0.0
  30
0.0
  3
*D
  0
LINE
  8
0
  6
CONTINUOUS
  62
1
  10
251.758209
  20
238.732605
  11
273.462402
  21
238.732605
  0
LINE
  8
0
  6
CONTINUOUS
  62
1
  10
251.758209
  20
186.732605
  11
273.462402
  21
186.732605
  0
POLYLINE
  8
0
  6
CONTINUOUS
  62
1
  66
1
  0
VERTEX
  8
0
  10
270.462402
  20
234.732605
  30
0.0
  0
VERTEX
  8
0
  10
270.462402
  20
234.732605
  30
0.0
  0
VERTEX
  8
0
  10
270.462402
  20
234.732605
  30
0.0
  0
VERTEX
  8
0
  10
270.462402
  20
212.732605
  30
0.0
  0
SEQEND
  0
POLYLINE
  8
0
  6
CONTINUOUS
  62
1
  66
1
  0
VERTEX
  8
0
  10
270.462402
  20
190.732605
  30
0.0
  0
VERTEX
  8
0
  10
270.462402
  20
190.732605
  30
0.0
  0
VERTEX
  8
0
  10
270.462402
  20
190.732605
  30
0.0
  0
VERTEX
  8
0
  10
270.462402
  20
212.732605
  30
0.0
  0
SEQEND
  0
SOLID
  8
0
  6
CONTINUOUS
  62
1
  10
270.462402
  20
238.732605
  11
269.942402
  21
234.732605
  12
270.462402
  22
238.732605
  13
270.982402
  23
234.732605
  0
SOLID
  8
0
  6
CONTINUOUS
  62
1
  10
270.462402
  20
186.732605
  11
270.982402
  21
190.732605
  12
270.462402
  22
186.732605
  13
269.942402
  23
190.732605
  0
TEXT
  8
0
  62
7
  10
267.891652
  20
210.796689
  1
52
  40
3.21225
  50
90.0
  7
STANDARD
  72
5
  11
267.891652
  21
214.668521
  31
0.0
  0
ENDBLK
  0
BLOCK
  8
0
  70
65
  2
*D9
  10
0.0
  20
0.0
  30
0.0
  3
*D
  0
LINE
  8
0
  6
CONTINUOUS
  62
1
  10
214.758209
  20
238.732605
  11
227.103058
  21
238.732605
  0
LINE
  8
0
  6
CONTINUOUS
  62
1
  10
221.758209
  20
212.732605
  11
227.103058
  21
212.732605
  0
POLYLINE
  8
0
  6
CONTINUOUS
  62
1
  66
1
  0
VERTEX
  8
0
  10
224.103058
  20
234.732605
  30
0.0
  0
VERTEX
  8
0
  10
224.103058
  20
234.732605
  30
0.0
  0
VERTEX
  8
0
  10
224.103058
  20
234.732605
  30
0.0
  0
VERTEX
  8
0
  10
224.103058
  20
225.732605
  30
0.0
  0
SEQEND
  0
POLYLINE
  8
0
  6
CONTINUOUS
  62
1
  66
1
  0
VERTEX
  8
0
  10
224.103058
  20
216.732605
  30
0.0
  0
VERTEX
  8
0
  10
224.103058
  20
216.732605
  30
0.0
  0
VERTEX
  8
0
  10
224.103058
  20
216.732605
  30
0.0
  0
VERTEX
  8
0
  10
224.103058
  20
225.732605
  30
0.0
  0
SEQEND
  0
SOLID
  8
0
  6
CONTINUOUS
  62
1
  10
224.103058
  20
238.732605
  11
223.583058
  21
234.732605
  12
224.103058
  22
238.732605
  13
224.623058
  23
234.732605
  0
SOLID
  8
0
  6
CONTINUOUS
  62
1
  10
224.103058
  20
212.732605
  11
224.623058
  21
216.732605
  12
224.103058
  22
212.732605
  13
223.583058
  23
216.732605
  0
TEXT
  8
0
  62
7
  10
221.532308
  20
223.796689
  1
26
  40
3.21225
  50
90.0
  7
STANDARD
  72
5
  11
221.532308
  21
227.668521
  31
0.0
  0
ENDBLK
  0
BLOCK
  8
0
  70
65
  2
*D10
  10
0.0
  20
0.0
  30
0.0
  3
*D
  0
LINE
  8
0
  6
CONTINUOUS
  62
1
  10
214.758209
  20
161.732605
  11
214.758209
  21
172.498764
  0
LINE
  8
0
  6
CONTINUOUS
  62
1
  10
190.758209
  20
166.900146
  11
190.758209
  21
172.498764
  0
POLYLINE
  8
0
  6
CONTINUOUS
  62
1
  66
1
  0
VERTEX
  8
0
  10
210.758209
  20
169.498764
  30
0.0
  0
VERTEX
  8
0
  10
210.758209
  20
169.498764
  30
0.0
  0
VERTEX
  8
0
  10
210.758209
  20
169.498764
  30
0.0
  0
VERTEX
  8
0
  10
202.758209
  20
169.498764
  30
0.0
  0
SEQEND
  0
POLYLINE
  8
0
  6
CONTINUOUS
  62
1
  66
1
  0
VERTEX
  8
0
  10
194.758209
  20
169.498764
  30
0.0
  0
VERTEX
  8
0
  10
194.758209
  20
169.498764
  30
0.0
  0
VERTEX
  8
0
  10
194.758209
  20
169.498764
  30
0.0
  0
VERTEX
  8
0
  10
202.758209
  20
169.498764
  30
0.0
  0
SEQEND
  0
SOLID
  8
0
  6
CONTINUOUS
  62
1
  10
214.758209
  20
169.498764
  11
210.758209
  21
170.018764
  12
214.758209
  22
169.498764
  13
210.758209
  23
168.978764
  0
SOLID
  8
0
  6
CONTINUOUS
  62
1
  10
190.758209
  20
169.498764
  11
194.758209
  21
168.978764
  12
190.758209
  22
169.498764
  13
194.758209
  23
170.018764
  0
TEXT
  8
0
  62
7
  10
200.822293
  20
172.069514
  1
24
  40
3.21225
  7
STANDARD
  72
5
  11
204.694125
  21
172.069514
  31
0.0
  0
ENDBLK
  0
BLOCK
  8
0
  70
65
  2
*D11
  10
0.0
  20
0.0
  30
0.0
  3
*D
  0
LINE
  8
0
  6
CONTINUOUS
  62
1
  10
118.758217
  20
166.536575
  11
118.758217
  21
172.498764
  0
LINE
  8
0
  6
CONTINUOUS
  62
1
  10
190.758209
  20
166.900146
  11
190.758209
  21
172.498764
  0
POLYLINE
  8
0
  6
CONTINUOUS
  62
1
  66
1
  0
VERTEX
  8
0
  10
122.758217
  20
169.498764
  30
0.0
  0
VERTEX
  8
0
  10
122.758217
  20
169.498764
  30
0.0
  0
VERTEX
  8
0
  10
122.758217
  20
169.498764
  30
0.0
  0
VERTEX
  8
0
  10
154.758213
  20
169.498764
  30
0.0
  0
SEQEND
  0
POLYLINE
  8
0
  6
CONTINUOUS
  62
1
  66
1
  0
VERTEX
  8
0
  10
186.758209
  20
169.498764
  30
0.0
  0
VERTEX
  8
0
  10
186.758209
  20
169.498764
  30
0.0
  0
VERTEX
  8
0
  10
186.758209
  20
169.498764
  30
0.0
  0
VERTEX
  8
0
  10
154.758213
  20
169.498764
  30
0.0
  0
SEQEND
  0
SOLID
  8
0
  6
CONTINUOUS
  62
1
  10
118.758217
  20
169.498764
  11
122.758217
  21
168.978764
  12
118.758217
  22
169.498764
  13
122.758217
  23
170.018764
  0
SOLID
  8
0
  6
CONTINUOUS
  62
1
  10
190.758209
  20
169.498764
  11
186.758209
  21
170.018764
  12
190.758209
  22
169.498764
  13
186.758209
  23
168.978764
  0
TEXT
  8
0
  62
7
  10
152.822297
  20
172.069514
  1
72
  40
3.21225
  7
STANDARD
  72
5
  11
156.694129
  21
172.069514
  31
0.0
  0
ENDBLK
  0
BLOCK
  8
0
  70
65
  2
*D12
  10
0.0
  20
0.0
  30
0.0
  3
*D
  0
LINE
  8
0
  6
CONTINUOUS
  62
1
  10
118.758217
  20
169.498764
  11
118.758217
  21
169.498764
  0
LINE
  8
0
  6
CONTINUOUS
  62
1
  10
100.758217
  20
166.536575
  11
100.758217
  21
172.498764
  0
POLYLINE
  8
0
  6
CONTINUOUS
  62
1
  66
1
  0
VERTEX
  8
0
  10
114.758217
  20
169.498764
  30
0.0
  0
VERTEX
  8
0
  10
114.758217
  20
169.498764
  30
0.0
  0
VERTEX
  8
0
  10
114.758217
  20
169.498764
  30
0.0
  0
VERTEX
  8
0
  10
109.758217
  20
169.498764
  30
0.0
  0
SEQEND
  0
POLYLINE
  8
0
  6
CONTINUOUS
  62
1
  66
1
  0
VERTEX
  8
0
  10
104.758217
  20
169.498764
  30
0.0
  0
VERTEX
  8
0
  10
104.758217
  20
169.498764
  30
0.0
  0
VERTEX
  8
0
  10
104.758217
  20
169.498764
  30
0.0
  0
VERTEX
  8
0
  10
109.758217
  20
169.498764
  30
0.0
  0
SEQEND
  0
SOLID
  8
0
  6
CONTINUOUS
  62
1
  10
118.758217
  20
169.498764
  11
114.758217
  21
170.018764
  12
118.758217
  22
169.498764
  13
114.758217
  23
168.978764
  0
SOLID
  8
0
  6
CONTINUOUS
  62
1
  10
100.758217
  20
169.498764
  11
104.758217
  21
168.978764
  12
100.758217
  22
169.498764
  13
104.758217
  23
170.018764
  0
TEXT
  8
0
  62
7
  10
107.822301
  20
172.069514
  1
18
  40
3.21225
  7
STANDARD
  72
5
  11
111.694133
  21
172.069514
  31
0.0
  0
ENDBLK
  0
BLOCK
  8
0
  70
65
  2
*D13
  10
0.0
  20
0.0
  30
0.0
  3
*D
  0
LINE
  8
0
  6
CONTINUOUS
  62
1
  10
214.758209
  20
156.732605
  11
214.758209
  21
143.739716
  0
LINE
  8
0
  6
CONTINUOUS
  62
1
  10
197.758224
  20
156.732605
  11
197.758224
  21
143.739716
  0
POLYLINE
  8
0
  6
CONTINUOUS
  62
1
  66
1
  0
VERTEX
  8
0
  10
210.758209
  20
146.739716
  30
0.0
  0
VERTEX
  8
0
  10
210.758209
  20
146.739716
  30
0.0
  0
VERTEX
  8
0
  10
210.758209
  20
146.739716
  30
0.0
  0
VERTEX
  8
0
  10
206.258217
  20
146.739716
  30
0.0
  0
SEQEND
  0
POLYLINE
  8
0
  6
CONTINUOUS
  62
1
  66
1
  0
VERTEX
  8
0
  10
201.758224
  20
146.739716
  30
0.0
  0
VERTEX
  8
0
  10
201.758224
  20
146.739716
  30
0.0
  0
VERTEX
  8
0
  10
201.758224
  20
146.739716
  30
0.0
  0
VERTEX
  8
0
  10
206.258217
  20
146.739716
  30
0.0
  0
SEQEND
  0
SOLID
  8
0
  6
CONTINUOUS
  62
1
  10
214.758209
  20
146.739716
  11
210.758209
  21
147.259716
  12
214.758209
  22
146.739716
  13
210.758209
  23
146.219716
  0
SOLID
  8
0
  6
CONTINUOUS
  62
1
  10
197.758224
  20
146.739716
  11
201.758224
  21
146.219716
  12
197.758224
  22
146.739716
  13
201.758224
  23
147.259716
  0
TEXT
  8
0
  62
7
  10
204.322301
  20
149.310466
  1
17
  40
3.21225
  7
STANDARD
  72
5
  11
208.194133
  21
149.310466
  31
0.0
  0
ENDBLK
  0
BLOCK
  8
0
  70
65
  2
*D14
  10
0.0
  20
0.0
  30
0.0
  3
*D
  0
LINE
  8
0
  6
CONTINUOUS
  62
1
  10
197.758224
  20
156.732605
  11
197.758224
  21
143.739716
  0
LINE
  8
0
  6
CONTINUOUS
  62
1
  10
183.758209
  20
156.732605
  11
183.758209
  21
143.739716
  0
LINE
  8
0
  6
CONTINUOUS
  62
1
  10
205.758224
  20
146.739716
  11
201.758224
  21
146.739716
  0
LINE
  8
0
  6
CONTINUOUS
  62
1
  10
201.758224
  20
146.739716
  11
201.758224
  21
146.739716
  0
POLYLINE
  8
0
  6
CONTINUOUS
  62
1
  66
1
  0
VERTEX
  8
0
  10
188.149878
  20
146.739716
  30
0.0
  0
VERTEX
  8
0
  10
175.758209
  20
146.739716
  30
0.0
  0
VERTEX
  8
0
  10
179.758209
  20
146.739716
  30
0.0
  0
VERTEX
  8
0
  10
179.758209
  20
146.739716
  30
0.0
  0
SEQEND
  0
SOLID
  8
0
  6
CONTINUOUS
  62
1
  10
183.758209
  20
146.739716
  11
179.758209
  21
147.259716
  12
183.758209
  22
146.739716
  13
179.758209
  23
146.219716
  0
SOLID
  8
0
  6
CONTINUOUS
  62
1
  10
197.758224
  20
146.739716
  11
201.758224
  21
146.219716
  12
197.758224
  22
146.739716
  13
201.758224
  23
147.259716
  0
TEXT
  8
0
  62
7
  10
185.312382
  20
151.451966
  1
14
  40
3.21225
  7
STANDARD
  72
5
  11
189.184214
  21
151.451966
  31
0.0
  0
TEXT
  8
0
  62
7
  10
189.184214
  20
153.593466
  1
+0,2
  40
3.21225
  7
STANDARD
  72
5
  11
196.204051
  21
153.593466
  31
0.0
  0
TEXT
  8
0
  62
7
  10
189.184214
  20
149.310466
  1
-0
  40
3.21225
  7
STANDARD
  72
5
  11
192.409313
  21
149.310466
  31
0.0
  0
ENDBLK
  0
BLOCK
  8
0
  70
65
  2
*D15
  10
0.0
  20
0.0
  30
0.0
  3
*D
  0
LINE
  8
0
  6
CONTINUOUS
  62
1
  10
125.758217
  20
156.732605
  11
125.758217
  21
143.739716
  0
LINE
  8
0
  6
CONTINUOUS
  62
1
  10
111.758217
  20
156.732605
  11
111.758217
  21
143.739716
  0
LINE
  8
0
  6
CONTINUOUS
  62
1
  10
133.758217
  20
146.739716
  11
129.758217
  21
146.739716
  0
LINE
  8
0
  6
CONTINUOUS
  62
1
  10
129.758217
  20
146.739716
  11
129.758217
  21
146.739716
  0
POLYLINE
  8
0
  6
CONTINUOUS
  62
1
  66
1
  0
VERTEX
  8
0
  10
116.149886
  20
146.739716
  30
0.0
  0
VERTEX
  8
0
  10
103.758217
  20
146.739716
  30
0.0
  0
VERTEX
  8
0
  10
107.758217
  20
146.739716
  30
0.0
  0
VERTEX
  8
0
  10
107.758217
  20
146.739716
  30
0.0
  0
SEQEND
  0
SOLID
  8
0
  6
CONTINUOUS
  62
1
  10
111.758217
  20
146.739716
  11
107.758217
  21
147.259716
  12
111.758217
  22
146.739716
  13
107.758217
  23
146.219716
  0
SOLID
  8
0
  6
CONTINUOUS
  62
1
  10
125.758217
  20
146.739716
  11
129.758217
  21
146.219716
  12
125.758217
  22
146.739716
  13
129.758217
  23
147.259716
  0
TEXT
  8
0
  62
7
  10
113.312382
  20
151.451966
  1
14
  40
3.21225
  7
STANDARD
  72
5
  11
117.184214
  21
151.451966
  31
0.0
  0
TEXT
  8
0
  62
7
  10
117.184214
  20
153.593466
  1
+0,2
  40
3.21225
  7
STANDARD
  72
5
  11
124.204051
  21
153.593466
  31
0.0
  0
TEXT
  8
0
  62
7
  10
117.184214
  20
149.310466
  1
-0
  40
3.21225
  7
STANDARD
  72
5
  11
120.409313
  21
149.310466
  31
0.0
  0
ENDBLK
  0
BLOCK
  8
0
  70
65
  2
*D16
  10
0.0
  20
0.0
  30
0.0
  3
*D
  0
LINE
  8
0
  6
CONTINUOUS
  62
1
  10
214.758209
  20
156.732605
  11
214.758209
  21
137.473389
  0
LINE
  8
0
  6
CONTINUOUS
  62
1
  10
125.758217
  20
156.732605
  11
125.758217
  21
137.473389
  0
POLYLINE
  8
0
  6
CONTINUOUS
  62
1
  66
1
  0
VERTEX
  8
0
  10
210.758209
  20
140.473389
  30
0.0
  0
VERTEX
  8
0
  10
210.758209
  20
140.473389
  30
0.0
  0
VERTEX
  8
0
  10
210.758209
  20
140.473389
  30
0.0
  0
VERTEX
  8
0
  10
170.258213
  20
140.473389
  30
0.0
  0
SEQEND
  0
POLYLINE
  8
0
  6
CONTINUOUS
  62
1
  66
1
  0
VERTEX
  8
0
  10
129.758217
  20
140.473389
  30
0.0
  0
VERTEX
  8
0
  10
129.758217
  20
140.473389
  30
0.0
  0
VERTEX
  8
0
  10
129.758217
  20
140.473389
  30
0.0
  0
VERTEX
  8
0
  10
170.258213
  20
140.473389
  30
0.0
  0
SEQEND
  0
SOLID
  8
0
  6
CONTINUOUS
  62
1
  10
214.758209
  20
140.473389
  11
210.758209
  21
140.993389
  12
214.758209
  22
140.473389
  13
210.758209
  23
139.953389
  0
SOLID
  8
0
  6
CONTINUOUS
  62
1
  10
125.758217
  20
140.473389
  11
129.758217
  21
139.953389
  12
125.758217
  22
140.473389
  13
129.758217
  23
140.993389
  0
TEXT
  8
0
  62
7
  10
168.322297
  20
143.044139
  1
89
  40
3.21225
  7
STANDARD
  72
5
  11
172.194129
  21
143.044139
  31
0.0
  0
ENDBLK
  0
BLOCK
  8
0
  70
65
  2
*D17
  10
0.0
  20
0.0
  30
0.0
  3
*D
  0
TEXT
  8
0
  62
7
  10
166.748531
  20
224.401835
  1
2x Ø6,5
  40
3.21225
  7
STANDARD
  72
5
  11
179.220627
  21
224.401835
  31
0.0
  0
POLYLINE
  8
0
  6
CONTINUOUS
  62
1
  66
1
  0
VERTEX
  8
0
  10
185.386566
  20
217.601684
  30
0.0
  0
VERTEX
  8
0
  10
180.720627
  20
221.831085
  30
0.0
  0
VERTEX
  8
0
  10
166.748531
  20
221.831085
  30
0.0
  0
SEQEND
  0
SOLID
  8
0
  6
CONTINUOUS
  62
1
  10
188.350232
  20
214.915295
  11
185.735797
  21
217.986961
  12
188.350232
  22
214.915295
  13
185.037336
  23
217.216408
  0
LINE
  8
0
  6
CONTINUOUS
  62
1
  10
188.758209
  20
212.732605
  11
192.758209
  21
212.732605
  0
LINE
  8
0
  6
CONTINUOUS
  62
1
  10
190.758209
  20
210.732605
  11
190.758209
  21
214.732605
  0
ENDBLK
  0
BLOCK
  8
0
  70
65
  2
*D18
  10
0.0
  20
0.0
  30
0.0
  3
*D
  0
TEXT
  8
0
  62
7
  10
88.53759
  20
222.675166
  1
%%c3
  40
3.21225
  7
STANDARD
  72
5
  11
93.266022
  21
222.675166
  31
0.0
  0
POLYLINE
  8
0
  6
CONTINUOUS
  62
1
  66
1
  0
VERTEX
  8
0
  10
97.289051
  20
217.000496
  30
0.0
  0
VERTEX
  8
0
  10
94.766022
  20
220.104416
  30
0.0
  0
VERTEX
  8
0
  10
88.53759
  20
220.104416
  30
0.0
  0
SEQEND
  0
SOLID
  8
0
  6
CONTINUOUS
  62
1
  10
99.81208
  20
213.896576
  11
97.69256
  21
217.32849
  12
99.81208
  22
213.896576
  13
96.885541
  23
216.672502
  0
LINE
  8
0
  6
CONTINUOUS
  62
1
  10
98.758217
  20
212.732605
  11
102.758217
  21
212.732605
  0
LINE
  8
0
  6
CONTINUOUS
  62
1
  10
100.758217
  20
210.732605
  11
100.758217
  21
214.732605
  0
ENDBLK
  0
BLOCK
  8
0
  70
65
  2
*D19
  10
0.0
  20
0.0
  30
0.0
  3
*D
  0
LINE
  8
0
  6
CONTINUOUS
  62
1
  10
197.758224
  20
158.232605
  11
220.828266
  21
158.232605
  0
LINE
  8
0
  6
CONTINUOUS
  62
1
  10
225.967866
  20
158.232605
  11
230.039566
  21
158.232605
  0
LINE
  8
0
  6
CONTINUOUS
  62
1
  10
214.758209
  20
156.732605
  11
220.828266
  21
156.732605
  0
LINE
  8
0
  6
CONTINUOUS
  62
1
  10
225.967866
  20
156.732605
  11
230.039566
  21
156.732605
  0
LINE
  8
0
  6
CONTINUOUS
  62
1
  10
227.039566
  20
166.232605
  11
227.039566
  21
162.232605
  0
LINE
  8
0
  6
CONTINUOUS
  62
1
  10
227.039566
  20
162.232605
  11
227.039566
  21
162.232605
  0
POLYLINE
  8
0
  6
CONTINUOUS
  62
1
  66
1
  0
VERTEX
  8
0
  10
227.039566
  20
142.392815
  30
0.0
  0
VERTEX
  8
0
  10
227.039566
  20
148.732605
  30
0.0
  0
VERTEX
  8
0
  10
227.039566
  20
152.732605
  30
0.0
  0
VERTEX
  8
0
  10
227.039566
  20
152.732605
  30
0.0
  0
SEQEND
  0
SOLID
  8
0
  6
CONTINUOUS
  62
1
  10
227.039566
  20
156.732605
  11
226.519566
  21
152.732605
  12
227.039566
  22
156.732605
  13
227.559566
  23
152.732605
  0
SOLID
  8
0
  6
CONTINUOUS
  62
1
  10
227.039566
  20
158.232605
  11
227.559566
  21
162.232605
  12
227.039566
  22
158.232605
  13
226.519566
  23
162.232605
  0
TEXT
  8
0
  62
7
  10
224.468816
  20
155.06271
  1
1,5
  40
3.21225
  50
90.0
  7
STANDARD
  72
5
  11
224.468816
  21
159.9025
  31
0.0
  0
ENDBLK
  0
ENDSEC
  0
SECTION
  2
ENTITIES
  0
INSERT
  8
0
  6
CONTINUOUS
  62
7
  2
*G4
  10
0.0
  20
0.0
  1001
ACAD
  1000
ACAD_TCW25GROUP
  1002
{
  1000
Groupe_1
  1002
}
  0
TEXT
  8
0
  62
7
  10
244.808182
  20
108.11038
  30
7.033605
  1
27 août 2001
  40
1.906717
  7
STANDARD
  72
5
  11
261.103882
  21
108.11038
  31
7.033605
  0
TEXT
  8
0
  62
7
  10
202.724854
  20
100.963041
  30
4.958926
  1
CHASSIS
  40
3.813303
  7
STANDARD
  72
5
  11
230.690445
  21
100.963041
  31
4.958926
  0
POLYLINE
  8
0
  6
CONTINUOUS
  62
7
  40
0.03937
  41
0.03937
  66
1
  70
8
  0
VERTEX
  8
0
  10
152.453522
  20
115.723473
  30
4.958926
  70
32
  0
VERTEX
  8
0
  10
152.453522
  20
127.966949
  30
0.0
  70
32
  0
SEQEND
  0
POLYLINE
  8
0
  6
CONTINUOUS
  62
7
  40
0.03937
  41
0.03937
  66
1
  70
8
  0
VERTEX
  8
0
  10
287.546478
  20
115.723473
  30
4.958926
  70
32
  0
VERTEX
  8
0
  10
287.546478
  20
127.966949
  30
0.0
  70
32
  0
SEQEND
  0
POLYLINE
  8
0
  6
CONTINUOUS
  62
7
  40
0.03937
  41
0.03937
  66
1
  70
8
  0
VERTEX
  8
0
  10
152.453522
  20
127.966949
  30
4.958926
  70
32
  0
VERTEX
  8
0
  10
287.546478
  20
127.966949
  30
4.958926
  70
32
  0
SEQEND
  0
POLYLINE
  8
0
  6
CONTINUOUS
  62
7
  40
0.03937
  41
0.03937
  66
1
  70
8
  0
VERTEX
  8
0
  10
152.453522
  20
121.845184
  30
4.958926
  70
32
  0
VERTEX
  8
0
  10
287.546478
  20
121.845184
  30
4.958926
  70
32
  0
SEQEND
  0
POLYLINE
  8
0
  6
CONTINUOUS
  62
7
  40
0.03937
  41
0.03937
  66
1
  70
8
  0
VERTEX
  8
0
  10
166.047592
  20
115.723473
  30
4.958926
  70
32
  0
VERTEX
  8
0
  10
166.047592
  20
127.966949
  30
0.0
  70
32
  0
SEQEND
  0
POLYLINE
  8
0
  6
CONTINUOUS
  62
7
  40
0.03937
  41
0.03937
  66
1
  70
8
  0
VERTEX
  8
0
  10
179.641693
  20
115.723473
  30
4.958926
  70
32
  0
VERTEX
  8
0
  10
179.641693
  20
127.966949
  30
0.0
  70
32
  0
SEQEND
  0
POLYLINE
  8
0
  6
CONTINUOUS
  62
7
  40
0.03937
  41
0.03937
  66
1
  70
8
  0
VERTEX
  8
0
  10
234.018021
  20
115.723473
  30
4.958926
  70
32
  0
VERTEX
  8
0
  10
234.018021
  20
127.966949
  30
0.0
  70
32
  0
SEQEND
  0
POLYLINE
  8
0
  6
CONTINUOUS
  62
7
  40
0.03937
  41
0.03937
  66
1
  70
8
  0
VERTEX
  8
0
  10
261.206268
  20
115.723473
  30
4.958926
  70
32
  0
VERTEX
  8
0
  10
261.206268
  20
127.966949
  30
0.0
  70
32
  0
SEQEND
  0
TEXT
  8
0
  62
7
  10
155.328903
  20
117.760477
  30
4.958926
  1
Rep
  40
2.542173
  7
STANDARD
  72
5
  11
162.620087
  21
117.760477
  31
4.958926
  0
TEXT
  8
0
  62
7
  10
197.0681
  20
117.760477
  30
4.958926
  1
Désignation
  40
2.542173
  7
STANDARD
  72
5
  11
218.941696
  21
117.760477
  31
4.958926
  0
TEXT
  8
0
  62
7
  10
168.187668
  20
117.760477
  30
4.958926
  1
Nbre
  40
2.542173
  7
STANDARD
  72
5
  11
177.230148
  21
117.760477
  31
4.958926
  0
TEXT
  8
0
  62
7
  10
240.953842
  20
117.760477
  30
4.958926
  1
Matière
  40
2.542173
  7
STANDARD
  72
5
  11
255.024445
  21
117.760477
  31
4.958926
  0
TEXT
  8
0
  62
7
  10
270.753845
  20
117.760477
  30
4.958926
  1
Débit
  40
2.542173
  7
STANDARD
  72
5
  11
280.809967
  21
117.760477
  31
4.958926
  0
TEXT
  8
0
  62
7
  10
172.506271
  20
124.398708
  30
4.958926
  1
1
  40
2.224445
  7
STANDARD
  72
5
  11
174.490891
  21
124.398708
  31
4.958926
  0
TEXT
  8
0
  62
7
  10
187.018082
  20
124.398708
  30
4.958926
  1
Chassis
  40
2.224445
  7
STANDARD
  72
5
  11
199.132309
  21
124.398708
  31
4.958926
  0
TEXT
  8
0
  62
7
  10
235.716568
  20
124.586689
  30
4.958926
  1
EN AW-2017
  40
2.224445
  7
STANDARD
  72
5
  11
256.525299
  21
124.586689
  31
4.958926
  0
TEXT
  8
0
  62
7
  10
262.960693
  20
124.586689
  30
4.958926
  1
55x5 lg/122
  40
2.224445
  7
STANDARD
  72
5
  11
282.031128
  21
124.586689
  31
4.958926
  0
INSERT
  8
0
  6
CONTINUOUS
  62
7
  2
*G5
  10
0.0
  20
0.0
  1001
ACAD
  1000
ACAD_TCW25GROUP
  1002
{
  1000
Groupe_1
  1002
}
  0
POLYLINE
  8
0
  6
CONTINUOUS
  62
7
  40
0.019685
  41
0.019685
  66
1
  0
VERTEX
  8
0
  10
125.758217
  20
156.732605
  30
0.0
  0
VERTEX
  8
0
  10
183.758209
  20
156.732605
  30
0.0
  0
SEQEND
  0
POLYLINE
  8
0
  6
CONTINUOUS
  62
7
  40
0.019685
  41
0.019685
  66
1
  0
VERTEX
  8
0
  10
197.758224
  20
156.732605
  30
0.0
  0
VERTEX
  8
0
  10
214.758209
  20
156.732605
  30
0.0
  0
VERTEX
  8
0
  10
214.758209
  20
161.732605
  30
0.0
  0
VERTEX
  8
0
  10
96.758217
  20
161.732605
  30
0.0
  0
VERTEX
  8
0
  10
96.758217
  20
156.732605
  30
0.0
  0
VERTEX
  8
0
  10
111.758217
  20
156.732605
  30
0.0
  0
SEQEND
  0
POLYLINE
  8
0
  6
CONTINUOUS
  62
7
  40
0.019685
  41
0.019685
  66
1
  70
1
  0
VERTEX
  8
0
  10
246.758209
  20
186.732605
  30
0.0
  0
VERTEX
  8
0
  10
251.758209
  20
186.732605
  30
0.0
  0
VERTEX
  8
0
  10
251.758209
  20
238.732605
  30
0.0
  0
VERTEX
  8
0
  10
246.758209
  20
238.732605
  30
0.0
  0
SEQEND
  0
POLYLINE
  8
0
  6
CONTINUOUS
  62
7
  40
0.019685
  41
0.019685
  66
1
  70
1
  0
VERTEX
  8
0
  10
96.758217
  20
186.732605
  30
0.0
  0
VERTEX
  8
0
  10
214.758209
  20
186.732605
  30
0.0
  0
VERTEX
  8
0
  10
214.758209
  20
238.732605
  30
0.0
  0
VERTEX
  8
0
  10
96.758217
  20
238.732605
  30
0.0
  0
SEQEND
  0
POLYLINE
  8
0
  6
CENTER
  62
7
  40
0.007874
  41
0.007874
  66
1
  0
VERTEX
  8
0
  10
91.758217
  20
212.732605
  30
0.0
  0
VERTEX
  8
0
  10
221.758209
  20
212.732605
  30
0.0
  0
SEQEND
  0
POLYLINE
  8
0
  6
CENTER
  62
7
  40
0.007874
  41
0.007874
  66
1
  0
VERTEX
  8
0
  10
241.758209
  20
212.732605
  30
0.0
  0
VERTEX
  8
0
  10
261.758209
  20
212.732605
  30
0.0
  0
SEQEND
  0
POLYLINE
  8
0
  6
CENTER
  62
7
  40
0.007874
  41
0.007874
  66
1
  0
VERTEX
  8
0
  10
190.758209
  20
157.183594
  30
0.0
  0
VERTEX
  8
0
  10
190.758209
  20
166.900146
  30
0.0
  0
SEQEND
  0
POLYLINE
  8
0
  6
CENTER
  62
7
  40
0.007874
  41
0.007874
  66
1
  0
VERTEX
  8
0
  10
190.758209
  20
181.732605
  30
0.0
  0
VERTEX
  8
0
  10
190.758209
  20
241.732605
  30
0.0
  0
SEQEND
  0
POLYLINE
  8
0
  6
CENTER
  62
7
  40
0.007874
  41
0.007874
  66
1
  0
VERTEX
  8
0
  10
118.758217
  20
156.556961
  30
0.0
  0
VERTEX
  8
0
  10
118.758217
  20
166.536575
  30
0.0
  0
SEQEND
  0
POLYLINE
  8
0
  6
CENTER
  62
7
  40
0.007874
  41
0.007874
  66
1
  0
VERTEX
  8
0
  10
118.758217
  20
181.732605
  30
0.0
  0
VERTEX
  8
0
  10
118.758217
  20
241.732605
  30
0.0
  0
SEQEND
  0
POLYLINE
  8
0
  6
CENTER
  62
7
  40
0.007874
  41
0.007874
  66
1
  0
VERTEX
  8
0
  10
100.758217
  20
241.732605
  30
0.0
  0
VERTEX
  8
0
  10
100.758217
  20
181.732605
  30
0.0
  0
SEQEND
  0
POLYLINE
  8
0
  6
CENTER
  62
7
  40
0.007874
  41
0.007874
  66
1
  0
VERTEX
  8
0
  10
100.758217
  20
166.536575
  30
0.0
  0
VERTEX
  8
0
  10
100.758217
  20
147.994141
  30
0.0
  0
SEQEND
  0
CIRCLE
  8
0
  6
CONTINUOUS
  62
7
  10
118.758217
  20
212.732605
  40
3.25
  0
CIRCLE
  8
0
  6
CONTINUOUS
  62
7
  10
190.758209
  20
212.732605
  40
3.25
  0
CIRCLE
  8
0
  6
CONTINUOUS
  62
7
  10
100.758217
  20
212.732605
  40
1.5
  0
POLYLINE
  8
0
  6
CONTINUOUS
  62
7
  40
0.019685
  41
0.019685
  66
1
  0
VERTEX
  8
0
  10
183.758209
  20
156.732605
  30
0.0
  0
VERTEX
  8
0
  10
183.758209
  20
158.232605
  30
0.0
  0
SEQEND
  0
POLYLINE
  8
0
  6
CONTINUOUS
  62
7
  40
0.019685
  41
0.019685
  66
1
  0
VERTEX
  8
0
  10
183.758209
  20
186.732605
  30
0.0
  0
VERTEX
  8
0
  10
183.758209
  20
238.732605
  30
0.0
  0
SEQEND
  0
POLYLINE
  8
0
  6
CONTINUOUS
  62
7
  40
0.019685
  41
0.019685
  66
1
  0
VERTEX
  8
0
  10
197.758224
  20
156.732605
  30
0.0
  0
VERTEX
  8
0
  10
197.758224
  20
158.232605
  30
0.0
  0
SEQEND
  0
POLYLINE
  8
0
  6
CONTINUOUS
  62
7
  40
0.019685
  41
0.019685
  66
1
  0
VERTEX
  8
0
  10
197.758209
  20
186.732605
  30
0.0
  0
VERTEX
  8
0
  10
197.758209
  20
238.732605
  30
0.0
  0
SEQEND
  0
POLYLINE
  8
0
  6
CONTINUOUS
  62
7
  40
0.019685
  41
0.019685
  66
1
  0
VERTEX
  8
0
  10
111.758217
  20
156.732605
  30
0.0
  0
VERTEX
  8
0
  10
111.758217
  20
158.232605
  30
0.0
  0
SEQEND
  0
POLYLINE
  8
0
  6
CONTINUOUS
  62
7
  40
0.019685
  41
0.019685
  66
1
  0
VERTEX
  8
0
  10
111.758217
  20
186.732605
  30
0.0
  0
VERTEX
  8
0
  10
111.758217
  20
238.732605
  30
0.0
  0
SEQEND
  0
POLYLINE
  8
0
  6
CONTINUOUS
  62
7
  40
0.019685
  41
0.019685
  66
1
  0
VERTEX
  8
0
  10
125.758217
  20
156.732605
  30
0.0
  0
VERTEX
  8
0
  10
125.758217
  20
158.232605
  30
0.0
  0
SEQEND
  0
POLYLINE
  8
0
  6
CONTINUOUS
  62
7
  40
0.019685
  41
0.019685
  66
1
  0
VERTEX
  8
0
  10
125.758217
  20
186.732605
  30
0.0
  0
VERTEX
  8
0
  10
125.758217
  20
238.732605
  30
0.0
  0
SEQEND
  0
POLYLINE
  8
0
  6
CONTINUOUS
  62
7
  40
0.019685
  41
0.019685
  66
1
  0
VERTEX
  8
0
  10
111.758217
  20
158.232605
  30
0.0
  0
VERTEX
  8
0
  10
125.758217
  20
158.232605
  30
0.0
  0
SEQEND
  0
POLYLINE
  8
0
  6
CONTINUOUS
  62
7
  40
0.019685
  41
0.019685
  66
1
  0
VERTEX
  8
0
  10
183.758209
  20
158.232605
  30
0.0
  0
VERTEX
  8
0
  10
197.758224
  20
158.232605
  30
0.0
  0
SEQEND
  0
POLYLINE
  8
0
  6
$AUXILIARY
  62
7
  40
0.007874
  41
0.007874
  66
1
  0
VERTEX
  8
0
  10
250.258209
  20
186.732605
  30
0.0
  0
VERTEX
  8
0
  10
250.258209
  20
238.732605
  30
0.0
  0
SEQEND
  0
POLYLINE
  8
0
  6
$AUXILIARY
  62
7
  40
0.007874
  41
0.007874
  66
1
  0
VERTEX
  8
0
  10
246.758209
  20
215.982605
  30
0.0
  0
VERTEX
  8
0
  10
250.258209
  20
215.982605
  30
0.0
  0
SEQEND
  0
POLYLINE
  8
0
  6
$AUXILIARY
  62
7
  40
0.007874
  41
0.007874
  66
1
  0
VERTEX
  8
0
  10
246.758209
  20
209.482605
  30
0.0
  0
VERTEX
  8
0
  10
250.258209
  20
209.482605
  30
0.0
  0
SEQEND
  0
POLYLINE
  8
0
  6
$AUXILIARY
  62
7
  40
0.007874
  41
0.007874
  66
1
  0
VERTEX
  8
0
  10
246.758209
  20
214.232605
  30
0.0
  0
VERTEX
  8
0
  10
251.758209
  20
214.232605
  30
0.0
  0
SEQEND
  0
POLYLINE
  8
0
  6
$AUXILIARY
  62
7
  40
0.007874
  41
0.007874
  66
1
  0
VERTEX
  8
0
  10
246.758209
  20
211.232605
  30
0.0
  0
VERTEX
  8
0
  10
251.758209
  20
211.232605
  30
0.0
  0
SEQEND
  0
POLYLINE
  8
0
  6
$AUXILIARY
  62
7
  40
0.007874
  41
0.007874
  66
1
  0
VERTEX
  8
0
  10
102.258217
  20
161.732605
  30
0.0
  0
VERTEX
  8
0
  10
102.258217
  20
156.732605
  30
0.0
  0
SEQEND
  0
POLYLINE
  8
0
  6
$AUXILIARY
  62
7
  40
0.007874
  41
0.007874
  66
1
  0
VERTEX
  8
0
  10
99.258217
  20
161.732605
  30
0.0
  0
VERTEX
  8
0
  10
99.258217
  20
156.732605
  30
0.0
  0
SEQEND
  0
POLYLINE
  8
0
  6
$AUXILIARY
  62
7
  40
0.007874
  41
0.007874
  66
1
  0
VERTEX
  8
0
  10
187.508209
  20
158.232605
  30
0.0
  0
VERTEX
  8
0
  10
187.508209
  20
161.732605
  30
0.0
  0
SEQEND
  0
POLYLINE
  8
0
  6
$AUXILIARY
  62
7
  40
0.007874
  41
0.007874
  66
1
  0
VERTEX
  8
0
  10
194.008209
  20
158.232605
  30
0.0
  0
VERTEX
  8
0
  10
194.008209
  20
161.732605
  30
0.0
  0
SEQEND
  0
POLYLINE
  8
0
  6
$AUXILIARY
  62
7
  40
0.007874
  41
0.007874
  66
1
  0
VERTEX
  8
0
  10
115.508217
  20
158.232605
  30
0.0
  0
VERTEX
  8
0
  10
115.508217
  20
161.732605
  30
0.0
  0
SEQEND
  0
POLYLINE
  8
0
  6
$AUXILIARY
  62
7
  40
0.007874
  41
0.007874
  66
1
  0
VERTEX
  8
0
  10
122.008217
  20
158.232605
  30
0.0
  0
VERTEX
  8
0
  10
122.008217
  20
161.732605
  30
0.0
  0
SEQEND
  0
DIMENSION
  8
0
  1
<>
  2
*D6
  10
214.758209
  20
248.495087
  11
155.758213
  21
252.136587
  13
96.758217
  23
238.732605
  14
214.758209
  24
238.732605
  50
180.0
  70
0
  0
DIMENSION
  8
0
  1
<>
  2
*D7
  10
251.758209
  20
248.495087
  11
249.258209
  21
252.136587
  13
246.758209
  23
238.732605
  14
251.758209
  24
238.732605
  50
180.0
  70
0
  0
DIMENSION
  8
0
  1
<>
  2
*D8
  10
270.462402
  20
186.732605
  11
266.820902
  21
212.732605
  13
251.758209
  23
238.732605
  14
251.758209
  24
186.732605
  50
90.0
  70
0
  0
DIMENSION
  8
0
  1
<>
  2
*D9
  10
224.103058
  20
212.732605
  11
220.461558
  21
225.732605
  13
214.758209
  23
238.732605
  14
221.758209
  24
212.732605
  50
90.0
  70
0
  0
DIMENSION
  8
0
  1
<>
  2
*D10
  10
190.758209
  20
169.498764
  11
202.758209
  21
173.140264
  13
214.758209
  23
161.732605
  14
190.758209
  24
166.900146
  50
180.0
  70
0
  0
DIMENSION
  8
0
  1
<>
  2
*D11
  10
190.758209
  20
169.498764
  11
154.758213
  21
173.140264
  13
118.758217
  23
166.536575
  14
190.758209
  24
166.900146
  50
180.0
  70
0
  0
DIMENSION
  8
0
  1
<>
  2
*D12
  10
100.758217
  20
169.498764
  11
109.758217
  21
173.140264
  13
118.758217
  23
169.498764
  14
100.758217
  24
166.536575
  50
180.0
  70
0
  0
DIMENSION
  8
0
  1
<>
  2
*D13
  10
197.758224
  20
146.739716
  11
206.258217
  21
150.381216
  13
214.758209
  23
156.732605
  14
197.758224
  24
156.732605
  70
0
  0
DIMENSION
  8
0
  1
<>
  2
*D14
  10
183.758209
  20
146.739716
  11
190.758217
  21
152.522716
  13
197.758224
  23
156.732605
  14
183.758209
  24
156.732605
  70
0
  0
DIMENSION
  8
0
  1
<>
  2
*D15
  10
111.758217
  20
146.739716
  11
118.758217
  21
152.522716
  13
125.758217
  23
156.732605
  14
111.758217
  24
156.732605
  70
0
  0
DIMENSION
  8
0
  1
<>
  2
*D16
  10
125.758217
  20
140.473389
  11
170.258213
  21
144.114889
  13
214.758209
  23
156.732605
  14
125.758217
  24
156.732605
  70
0
  0
DIMENSION
  8
0
  1
<>
  2
*D17
  10
193.166186
  20
210.549915
  11
172.984579
  21
225.472585
  15
188.350232
  25
214.915295
  40
10.297525
  70
3
  0
DIMENSION
  8
0
  1
<>
  2
*D18
  10
101.704353
  20
211.568634
  11
90.901806
  21
223.745916
  15
99.81208
  25
213.896576
  40
7.999999
  70
3
  0
TEXT
  8
0
  62
7
  10
157.767746
  20
124.398708
  1
1
  40
2.224445
  7
STANDARD
  72
5
  11
159.752365
  21
124.398708
  31
0.0
  0
DIMENSION
  8
0
  1
<>
  2
*D19
  10
227.039566
  20
156.732605
  11
223.398066
  21
157.482605
  13
197.758224
  23
158.232605
  14
214.758209
  24
156.732605
  50
90.0
  70
0
  0
ENDSEC
  0
EOF
