  0
SECTION
  2
HEADER
  9
$ACADVER
  1
AC1009
  9
$ANGBASE
  50
0.0
  9
$ANGDIR
  70
0
  9
$ATTDIA
  70
0
  9
$ATTMODE
  70
0
  9
$ATTREQ
  70
1
  9
$AUNITS
  70
0
  9
$AUPREC
  70
2
  9
$AXISMODE
  70
0
  9
$CECOLOR
  62
256
  9
$CELTYPE
  6
BYLAYER
  9
$CLAYER
  8
0
  9
$DIMALT
  70
0
  9
$DIMALTD
  70
2
  9
$DIMALTF
  40
0.0
  9
$DIMAPOST
  1

  9
$DIMASO
  70
0
  9
$DIMASZ
  40
4.0
  9
$DIMBLK
  1

  9
$DIMBLK1
  1

  9
$DIMBLK2
  1

  9
$DIMCEN
  40
0.09
  9
$DIMCLRD
  70
256
  9
$DIMCLRE
  70
256
  9
$DIMCLRT
  70
256
  9
$DIMDLE
  40
0.0
  9
$DIMDLI
  40
10.0
  9
$DIMEXE
  40
3.0
  9
$DIMEXO
  40
0.0
  9
$DIMGAP
  40
1.5
  9
$DIMLFAC
  40
1.0
  9
$DIMLIM
  70
0
  9
$DIMPOST
  1

  9
$DIMRND
  40
0.001
  9
$DIMSAH
  70
0
  9
$DIMSCALE
  40
1.0
  9
$DIMSE1
  70
0
  9
$DIMSE2
  70
0
  9
$DIMSHO
  70
1
  9
$DIMSOXD
  70
0
  9
$DIMSTYLE
  2
*UNNAMED
  9
$DIMTAD
  70
1
  9
$DIMTFAC
  40
1.0
  9
$DIMTIH
  70
0
  9
$DIMTIX
  70
1
  9
$DIMTM
  40
0.2
  9
$DIMTOFL
  70
1
  9
$DIMTOH
  70
0
  9
$DIMTOL
  70
0
  9
$DIMTP
  40
0.0
  9
$DIMTSZ
  40
0.0
  9
$DIMTVP
  40
0.0
  9
$DIMTXT
  40
4.283
  9
$DIMZIN
  70
8
  9
$DRAGMODE
  70
0
  9
$ELEVATION
  40
0.0
  9
$EXTMAX
  10
0.0
  20
0.0
  30
0.0
  9
$EXTMIN
  10
0.0
  20
0.0
  30
0.0
  9
$FILLETRAD
  40
25.0
  9
$FILLMODE
  70
1
  9
$INSBASE
  10
0.0
  20
0.0
  30
0.0
  9
$LIMMAX
  10
310.512077
  20
259.961536
  9
$LIMMIN
  10
72.767988
  20
91.859655
  9
$LTSCALE
  40
1.0
  9
$LUNITS
  70
2
  9
$LUPREC
  70
3
  9
$MENU
  1
acad
  9
$MIRRTEXT
  70
0
  9
$ORTHOMODE
  70
0
  9
$OSMODE
  70
0
  9
$PDMODE
  70
0
  9
$PDSIZE
  40
0.0
  9
$PEXTMAX
  10
0.0
  20
0.0
  30
0.0
  9
$PEXTMIN
  10
0.0
  20
0.0
  30
0.0
  9
$PLIMCHECK
  70
0
  9
$PLIMMAX
  10
0.0
  20
0.0
  9
$PLIMMIN
  10
0.0
  20
0.0
  9
$PLINEWID
  40
0.0
  9
$PUCSXDIR
  10
1.0
  20
0.0
  30
0.0
  9
$PUCSYDIR
  10
0.0
  20
1.0
  30
0.0
  9
$QTEXTMODE
  70
0
  9
$SHADEDGE
  70
3
  9
$SHADEDIF
  70
70
  9
$SKETCHINC
  40
1.0
  9
$SPLFRAME
  70
0
  9
$SPLINESEGS
  70
20
  9
$SPLINETYPE
  70
0
  9
$SURFTAB1
  70
6
  9
$SURFTAB2
  70
6
  9
$TDINDWG
  40
0.0
  9
$TDUPDATE
  40
2449702.667959
  9
$TDUSRTIMER
  40
0.0
  9
$TEXTSIZE
  40
5.0
  9
$TEXTSTYLE
  7
STANDARD
  9
$TILEMODE
  70
1
  9
$TRACEWID
  40
1.0
  9
$UCSORG
  10
0.0
  20
0.0
  30
0.0
  9
$UCSXDIR
  10
1.0
  20
0.0
  30
0.0
  9
$UCSYDIR
  10
0.0
  20
1.0
  30
0.0
  9
$UNITMODE
  70
0
  9
$WORLDVIEW
  70
1
  9
$GRIDMODE
  70
1
  9
$PINSBASE
  10
0.0
  20
0.0
  30
0.0
  9
$PSLTSCALE
  70
1
  9
$TREEDEPTH
  70
3020
  0
ENDSEC
  0
SECTION
  2
TABLES
  0
TABLE
  2
VPORT
  70
1
  0
VPORT
  2
*ACTIVE
  70
0
  10
0.0
  20
0.0
  11
1.0
  21
1.0
  12
191.640034
  22
175.910614
  13
0.0
  23
0.0
  14
5.0
  24
5.0
  15
5.0
  25
5.0
  16
0.0
  26
0.0
  36
1.0
  17
0.0
  27
0.0
  37
0.0
  40
171.463928
  41
1.591518
  42
50.0
  43
0.0
  44
0.0
  50
0.0
  51
0.0
  71
0
  72
100
  73
1
  74
1
  75
0
  76
1
  77
0
  78
0
  0
ENDTAB
  0
TABLE
  2
LTYPE
  70
12
  0
LTYPE
  2
CONTINUOUS
  70
0
  3
CONTINUOUS
  72
65
  73
0
  40
0.0
  0
LTYPE
  2
BORDER
  70
0
  3
BORDER
  72
65
  73
6
  40
1.75
  49
0.5
  49
-0.25
  49
0.5
  49
-0.25
  49
0.0
  49
-0.25
  0
LTYPE
  2
CENTER
  70
0
  3
CENTER
  72
65
  73
4
  40
2.0
  49
1.25
  49
-0.25
  49
0.25
  49
-0.25
  0
LTYPE
  2
DASHDOT
  70
0
  3
DASHDOT
  72
65
  73
4
  40
1.0
  49
0.5
  49
-0.25
  49
0.0
  49
-0.25
  0
LTYPE
  2
DASHED
  70
0
  3
DASHED
  72
65
  73
2
  40
0.75
  49
0.5
  49
-0.25
  0
LTYPE
  2
DIVIDE
  70
0
  3
DIVIDE
  72
65
  73
6
  40
1.25
  49
0.5
  49
-0.25
  49
0.0
  49
-0.25
  49
0.0
  49
-0.25
  0
LTYPE
  2
DOT
  70
0
  3
DOT
  72
65
  73
2
  40
0.25
  49
0.0
  49
-0.25
  0
LTYPE
  2
HIDDEN
  70
0
  3
HIDDEN
  72
65
  73
2
  40
0.375
  49
0.25
  49
-0.125
  0
LTYPE
  2
PHANTOM
  70
0
  3
PHANTOM
  72
65
  73
6
  40
2.5
  49
1.25
  49
-0.25
  49
0.25
  49
-0.25
  49
0.25
  49
-0.25
  0
LTYPE
  2
$AUXILIARY
  70
0
  3
$AUXILIARY
  72
65
  73
2
  40
0.1
  49
0.05
  49
-0.05
  0
LTYPE
  2
$INVISIBLE
  70
0
  3
$INVISIBLE
  72
65
  73
2
  40
200.0
  49
-100.0
  49
-100.0
  0
LTYPE
  2
AXES
  70
0
  3
AXES
  72
65
  73
4
  40
20.0
  49
12.5
  49
-2.5
  49
2.5
  49
-2.5
  0
ENDTAB
  0
TABLE
  2
LAYER
  70
1
  0
LAYER
  2
0
  70
64
  6
CONTINUOUS
  62
7
  0
ENDTAB
  0
TABLE
  2
STYLE
  70
1
  0
STYLE
  2
STANDARD
  70
0
  3
txt
  4

  40
0.0
  41
1.0
  42
0.2
  50
0.0
  71
0
  0
ENDTAB
  0
ENDSEC
  0
SECTION
  2
BLOCKS
  0
BLOCK
  8
0
  70
64
  2
Bloc_1
  10
125.55838
  20
25.439186
  30
0.0
  3
Bloc_1
  0
TEXT
  8
0
  62
82
  10
113.768379
  20
24.189186
  1
Dessiné par :
  40
3.75
  7
STANDARD
  72
5
  11
137.348373
  21
24.189186
  31
0.0
  0
ENDBLK
  0
BLOCK
  8
0
  70
64
  2
A4-V
  10
0.0
  20
0.0
  30
0.0
  3
A4-V
  0
POLYLINE
  8
0
  66
1
  70
1
  0
VERTEX
  8
0
  10
0.0
  20
0.0
  30
0.0
  0
VERTEX
  8
0
  10
190.0
  20
0.0
  30
0.0
  0
VERTEX
  8
0
  10
190.0
  20
277.0
  30
0.0
  0
VERTEX
  8
0
  10
0.0
  20
277.0
  30
0.0
  0
SEQEND
  0
ENDBLK
  0
BLOCK
  8
0
  70
64
  2
CARTOUCH
  10
0.0
  20
0.0
  30
0.0
  3
CARTOUCH
  0
SOLID
  8
0
  10
-179.75
  20
0.25
  11
-0.25
  21
0.25
  12
-179.75
  22
31.75
  13
-0.25
  23
31.75
  0
SOLID
  8
0
  10
-180.25
  20
-0.25
  11
-180.25
  21
32.25
  12
0.25
  22
-0.25
  13
0.25
  23
32.25
  0
LINE
  8
0
  62
3
  10
-150.0
  20
0.0
  11
-150.0
  21
32.0
  0
LINE
  8
0
  62
3
  10
-70.0
  20
32.0
  11
-70.0
  21
16.0
  0
LINE
  8
0
  62
3
  10
-150.0
  20
16.0
  11
0.0
  21
16.0
  0
POINT
  8
0
  62
3
  10
-150.0
  20
10.666667
  1001
ACAD
  1000
TCW30POINT
  1002
{
  1070
0
  1040
0.00001
  1000

  1070
0
  1071
65280
  1040
1.0
  1040
0.0
  1000
UNDEFINED
  1000
0
  1071
1
  1071
242
  1010
-150.0
  1020
10.666667
  1002
}
  0
POINT
  8
0
  62
3
  10
-150.0
  20
21.333334
  1001
ACAD
  1000
TCW30POINT
  1002
{
  1070
0
  1040
0.00001
  1000

  1070
0
  1071
65280
  1040
1.0
  1040
0.0
  1000
UNDEFINED
  1000
0
  1071
1
  1071
242
  1010
-150.0
  1020
21.333334
  1002
}
  0
LINE
  8
0
  62
3
  10
-150.0
  20
21.333334
  11
-180.0
  21
21.333334
  0
LINE
  8
0
  62
3
  10
-150.0
  20
10.666667
  11
-180.0
  21
10.666667
  0
LINE
  8
0
  62
3
  10
-70.0
  20
24.0
  11
0.0
  21
24.0
  0
TEXT
  8
0
  10
-141.9608
  20
21.74437
  1
AIFT INDUSTRIE
  40
5.0
  7
STANDARD
  72
5
  11
-79.854439
  21
21.74437
  31
0.0
  0
TEXT
  8
0
  62
3
  10
-68.01075
  20
28.894913
  1
dessine par :
  40
2.0
  7
STANDARD
  72
5
  11
-55.968082
  21
28.894913
  31
0.0
  0
TEXT
  8
0
  62
3
  10
-68.01075
  20
20.978732
  1
le :
  40
2.000001
  7
STANDARD
  72
5
  11
-65.000084
  21
20.978732
  31
0.0
  0
TEXT
  8
0
  62
3
  10
-177.84581
  20
25.16764
  1
Echelle:
  40
2.499999
  7
STANDARD
  72
5
  11
-167.995804
  21
25.16764
  31
0.0
  0
LINE
  8
0
  6
AXES
  62
3
  10
-176.49585
  20
16.088823
  11
-151.090744
  21
16.088823
  0
LINE
  8
0
  6
AXES
  62
3
  10
-157.740021
  20
20.277731
  11
-157.740021
  21
11.438282
  0
CIRCLE
  8
0
  62
3
  10
-157.740021
  20
16.088823
  40
4.73477
  0
CIRCLE
  8
0
  62
3
  10
-157.740021
  20
16.088823
  40
3.23018
  0
LINE
  8
0
  62
3
  10
-164.116425
  20
20.823591
  11
-164.116425
  21
11.354056
  0
LINE
  8
0
  62
3
  10
-175.346939
  20
12.858644
  11
-175.346939
  21
19.319004
  0
LINE
  8
0
  62
3
  10
-175.346939
  20
19.319004
  11
-164.116425
  21
20.823591
  0
LINE
  8
0
  62
3
  10
-175.346939
  20
12.858644
  11
-164.116425
  21
11.354056
  0
ENDBLK
  0
BLOCK
  8
0
  70
64
  2
Bloc_2
  10
90.0
  20
15.0
  30
0.0
  3
Bloc_2
  0
POLYLINE
  8
0
  6
CONTINUOUS
  62
7
  40
0.03937
  41
0.03937
  66
1
  70
1
  0
VERTEX
  8
0
  10
0.0
  20
0.0
  30
0.0
  0
VERTEX
  8
0
  10
180.0
  20
0.0
  30
0.0
  0
VERTEX
  8
0
  10
180.0
  20
30.0
  30
0.0
  0
VERTEX
  8
0
  10
0.0
  20
30.0
  30
0.0
  0
SEQEND
  0
POLYLINE
  8
0
  6
CONTINUOUS
  62
7
  40
0.007874
  41
0.007874
  66
1
  0
VERTEX
  8
0
  10
30.0
  20
30.0
  30
0.0
  0
VERTEX
  8
0
  10
30.0
  20
0.0
  30
0.0
  0
SEQEND
  0
POLYLINE
  8
0
  6
CONTINUOUS
  62
7
  40
0.007874
  41
0.007874
  66
1
  0
VERTEX
  8
0
  10
110.0
  20
30.0
  30
0.0
  0
VERTEX
  8
0
  10
110.0
  20
15.0
  30
0.0
  0
SEQEND
  0
POLYLINE
  8
0
  6
CONTINUOUS
  62
7
  40
0.007874
  41
0.007874
  66
1
  0
VERTEX
  8
0
  10
30.0
  20
15.0
  30
0.0
  0
VERTEX
  8
0
  10
180.0
  20
15.0
  30
0.0
  0
SEQEND
  0
POLYLINE
  8
0
  6
CONTINUOUS
  62
7
  40
0.007874
  41
0.007874
  66
1
  0
VERTEX
  8
0
  10
110.0
  20
22.5
  30
0.0
  0
VERTEX
  8
0
  10
180.0
  20
22.5
  30
0.0
  0
SEQEND
  0
POLYLINE
  8
0
  6
CONTINUOUS
  62
7
  40
0.007874
  41
0.007874
  66
1
  0
VERTEX
  8
0
  10
0.0
  20
20.0
  30
0.0
  0
VERTEX
  8
0
  10
30.0
  20
20.0
  30
0.0
  0
SEQEND
  0
POLYLINE
  8
0
  6
CONTINUOUS
  62
7
  40
0.007874
  41
0.007874
  66
1
  0
VERTEX
  8
0
  10
0.0
  20
10.0
  30
0.0
  0
VERTEX
  8
0
  10
30.0
  20
10.0
  30
0.0
  0
SEQEND
  0
CIRCLE
  8
0
  6
CONTINUOUS
  62
70
  210
0.0
  220
0.098069
  230
0.99518
  10
-19.832396
  20
-14.779912
  30
1.456479
  40
3.317184
  0
CIRCLE
  8
0
  6
CONTINUOUS
  62
70
  210
0.0
  220
0.098067
  230
0.99518
  10
-19.832396
  20
-14.779916
  30
1.456436
  40
1.658592
  0
POLYLINE
  8
0
  6
CONTINUOUS
  62
70
  40
0.007874
  41
0.007874
  66
1
  0
VERTEX
  8
0
  10
13.198025
  20
18.152697
  30
0.0
  0
VERTEX
  8
0
  10
13.198025
  20
11.55031
  30
0.0
  0
SEQEND
  0
POLYLINE
  8
0
  6
CONTINUOUS
  62
70
  40
0.007874
  41
0.007874
  66
1
  0
VERTEX
  8
0
  10
6.697942
  20
16.641684
  30
0.0
  0
VERTEX
  8
0
  10
6.697942
  20
13.200907
  30
0.0
  0
SEQEND
  0
POLYLINE
  8
0
  6
CONTINUOUS
  62
70
  40
0.007874
  41
0.007874
  66
1
  0
VERTEX
  8
0
  10
13.198025
  20
18.152697
  30
0.0
  0
VERTEX
  8
0
  10
6.697942
  20
16.641684
  30
0.0
  0
SEQEND
  0
POLYLINE
  8
0
  6
CONTINUOUS
  62
70
  40
0.007874
  41
0.007874
  66
1
  0
VERTEX
  8
0
  10
13.198025
  20
11.55031
  30
0.0
  0
VERTEX
  8
0
  10
6.697942
  20
13.200907
  30
0.0
  0
SEQEND
  0
POLYLINE
  8
0
  6
DASHDOT
  62
70
  40
0.007874
  41
0.007874
  66
1
  0
VERTEX
  8
0
  10
4.905061
  20
14.851502
  30
0.0
  0
VERTEX
  8
0
  10
24.808172
  20
14.851502
  30
0.0
  0
SEQEND
  0
POLYLINE
  8
0
  6
DASHDOT
  62
70
  40
0.007874
  41
0.007874
  66
1
  0
VERTEX
  8
0
  10
19.832396
  20
19.803291
  30
0.0
  0
VERTEX
  8
0
  10
19.832396
  20
9.899714
  30
0.0
  0
SEQEND
  0
TEXT
  8
0
  62
150
  10
42.530231
  20
21.188855
  1
aift industrie
  40
5.795903
  7
STANDARD
  72
5
  11
100.782715
  21
21.188855
  31
0.0
  0
TEXT
  8
0
  62
82
  10
4.037598
  20
21.689184
  1
Echelle:
  40
3.75
  7
STANDARD
  72
5
  11
18.837597
  21
21.689184
  31
0.0
  0
TEXT
  8
0
  62
82
  10
115.206894
  20
17.234102
  1
Le:
  40
3.75
  7
STANDARD
  72
5
  11
121.226891
  21
17.234102
  31
0.0
  0
TEXT
  8
0
  62
82
  10
113.149826
  20
24.638334
  1
Dessine par : G. Maillard
  40
3.75
  7
STANDARD
  72
5
  11
158.93483
  21
24.638334
  31
0.0
  0
ENDBLK
  0
BLOCK
  8
0
  70
65
  2
*G4
  10
0.0
  20
0.0
  30
0.0
  3
*G
  0
POLYLINE
  8
0
  6
CONTINUOUS
  62
7
  40
0.03937
  41
0.03937
  66
1
  70
9
  0
VERTEX
  8
0
  10
152.453522
  20
98.175125
  30
7.405934
  70
32
  0
VERTEX
  8
0
  10
287.546478
  20
98.175125
  30
7.405934
  70
32
  0
VERTEX
  8
0
  10
287.546478
  20
115.723473
  30
7.405934
  70
32
  0
VERTEX
  8
0
  10
152.453522
  20
115.723473
  30
7.405934
  70
32
  0
SEQEND
  0
POLYLINE
  8
0
  6
CONTINUOUS
  62
7
  40
0.007874
  41
0.007874
  66
1
  70
8
  0
VERTEX
  8
0
  10
174.969009
  20
115.723473
  30
7.405934
  70
32
  0
VERTEX
  8
0
  10
174.969009
  20
98.175125
  30
7.405934
  70
32
  0
SEQEND
  0
POLYLINE
  8
0
  6
CONTINUOUS
  62
7
  40
0.007874
  41
0.007874
  66
1
  70
8
  0
VERTEX
  8
0
  10
235.01033
  20
115.723473
  30
7.405934
  70
32
  0
VERTEX
  8
0
  10
235.01033
  20
106.74189
  30
7.405934
  70
32
  0
SEQEND
  0
POLYLINE
  8
0
  6
CONTINUOUS
  62
7
  40
0.007874
  41
0.007874
  66
1
  70
8
  0
VERTEX
  8
0
  10
174.969009
  20
110.388962
  30
7.405934
  70
32
  0
VERTEX
  8
0
  10
152.453522
  20
110.388962
  30
7.405934
  70
32
  0
SEQEND
  0
POLYLINE
  8
0
  6
CONTINUOUS
  62
7
  40
0.007874
  41
0.007874
  66
1
  70
8
  0
VERTEX
  8
0
  10
174.910583
  20
104.401184
  30
7.405934
  70
32
  0
VERTEX
  8
0
  10
152.453522
  20
104.401184
  30
7.405934
  70
32
  0
SEQEND
  0
POLYLINE
  8
0
  6
CONTINUOUS
  62
7
  40
0.007874
  41
0.007874
  66
1
  70
8
  0
VERTEX
  8
0
  10
287.546478
  20
106.74189
  30
7.405934
  70
32
  0
VERTEX
  8
0
  10
174.969009
  20
106.74189
  30
7.405934
  70
32
  0
SEQEND
  0
POLYLINE
  8
0
  6
CONTINUOUS
  62
82
  40
0.015748
  41
0.015748
  66
1
  70
8
  0
VERTEX
  8
0
  10
163.073212
  20
109.457703
  30
7.405934
  70
32
  0
VERTEX
  8
0
  10
163.073212
  20
105.38961
  30
7.405934
  70
32
  0
SEQEND
  0
POLYLINE
  8
0
  6
CENTER
  62
82
  40
0.007874
  41
0.007874
  66
1
  70
8
  0
VERTEX
  8
0
  10
154.163147
  20
107.42366
  30
7.405934
  70
32
  0
VERTEX
  8
0
  10
172.832611
  20
107.42366
  30
7.405934
  70
32
  0
SEQEND
  0
POLYLINE
  8
0
  6
CENTER
  62
82
  40
0.007874
  41
0.007874
  66
1
  70
8
  0
VERTEX
  8
0
  10
168.733307
  20
110.267776
  30
7.405934
  70
32
  0
VERTEX
  8
0
  10
168.733307
  20
104.522308
  30
7.405934
  70
32
  0
SEQEND
  0
CIRCLE
  8
0
  6
CONTINUOUS
  62
82
  210
0.0
  220
0.654112
  230
0.756398
  10
-168.733307
  20
-76.410745
  30
75.868891
  40
2.542297
  0
CIRCLE
  8
0
  6
CONTINUOUS
  62
82
  210
0.0
  220
0.654107
  230
0.756402
  10
-168.733307
  20
-76.411162
  30
75.868472
  40
1.256134
  0
POLYLINE
  8
0
  6
CONTINUOUS
  62
82
  40
0.015748
  41
0.015748
  66
1
  70
8
  0
VERTEX
  8
0
  10
155.529617
  20
108.373802
  30
7.405934
  70
32
  0
VERTEX
  8
0
  10
155.529617
  20
106.473518
  30
7.405934
  70
32
  0
SEQEND
  0
POLYLINE
  8
0
  6
CONTINUOUS
  62
82
  40
0.015748
  41
0.015748
  66
1
  70
8
  0
VERTEX
  8
0
  10
163.073212
  20
109.457703
  30
7.405934
  70
32
  0
VERTEX
  8
0
  10
155.529617
  20
108.373802
  30
7.405934
  70
32
  0
SEQEND
  0
POLYLINE
  8
0
  6
CONTINUOUS
  62
82
  40
0.015748
  41
0.015748
  66
1
  70
8
  0
VERTEX
  8
0
  10
163.073212
  20
105.38961
  30
7.405934
  70
32
  0
VERTEX
  8
0
  10
155.529617
  20
106.473518
  30
7.405934
  70
32
  0
SEQEND
  0
TEXT
  8
0
  62
82
  10
153.276138
  20
112.383253
  30
7.405934
  1
Echelle:
  40
2.245394
  7
STANDARD
  72
5
  11
164.383759
  21
112.383253
  31
7.405934
  0
POLYLINE
  8
0
  6
CONTINUOUS
  62
7
  40
0.015748
  41
0.015748
  66
1
  70
8
  0
VERTEX
  8
0
  10
287.546478
  20
111.232651
  30
7.405934
  70
32
  0
VERTEX
  8
0
  10
235.01033
  20
111.232651
  30
7.405934
  70
32
  0
SEQEND
  0
TEXT
  8
0
  62
82
  10
237.156769
  20
108.255362
  30
7.405934
  1
Le :
  40
2.245394
  7
STANDARD
  72
5
  11
242.52298
  21
108.255362
  31
7.405934
  0
TEXT
  8
0
  62
150
  10
182.477646
  20
110.080946
  30
7.405934
  1
AIFT INDUSTRIE
  40
3.36133
  7
STANDARD
  72
5
  11
227.565277
  21
110.080946
  31
7.405934
  0
TEXT
  8
0
  62
82
  10
238.356537
  20
112.662619
  30
7.405934
  1
Dessiné par : G. Maillard
  40
2.24544
  7
STANDARD
  72
5
  11
272.718964
  21
112.662619
  31
7.405934
  0
ENDBLK
  0
BLOCK
  8
0
  70
65
  2
*G5
  10
0.0
  20
0.0
  30
0.0
  3
*G
  0
POLYLINE
  8
0
  6
CONTINUOUS
  62
7
  40
0.007874
  41
0.007874
  66
1
  70
8
  0
VERTEX
  8
0
  10
216.949081
  20
131.102661
  30
7.103367
  70
32
  0
VERTEX
  8
0
  10
217.88916
  20
129.509384
  30
7.103367
  70
32
  0
VERTEX
  8
0
  10
220.356857
  20
132.587616
  30
7.103367
  70
32
  0
VERTEX
  8
0
  10
226.23233
  20
132.587616
  30
7.103367
  70
32
  0
SEQEND
  0
TEXT
  8
0
  62
7
  10
246.488358
  20
129.684731
  30
7.033605
  1
Tolérance générale ISO 2768 f K
  40
1.885551
  7
STANDARD
  72
5
  11
284.74411
  21
129.684731
  31
7.033605
  0
TEXT
  8
0
  62
7
  10
220.349579
  20
129.828068
  30
7.033605
  1
Sauf indication
  40
1.885586
  7
STANDARD
  72
5
  11
237.844421
  21
129.828068
  31
7.033605
  0
TEXT
  8
0
  62
7
  10
212.007858
  20
132.193878
  30
7.033605
  1
Ra 3.2
  40
1.376312
  7
STANDARD
  72
5
  11
218.786102
  21
132.193878
  31
7.033605
  0
TEXT
  8
0
  62
7
  10
188.910614
  20
130.127277
  30
7.033605
  1
Usinage général
  40
1.885586
  7
STANDARD
  72
5
  11
207.516418
  21
130.127277
  31
7.033605
  0
ENDBLK
  0
BLOCK
  8
0
  70
65
  2
*H6
  10
0.0
  20
0.0
  30
0.0
  3
*H
  0
LINE
  8
0
  6
CONTINUOUS
  62
7
  10
223.890864
  20
185.0
  11
224.116694
  21
185.22583
  0
LINE
  8
0
  6
CONTINUOUS
  62
7
  10
220.35533
  20
185.0
  11
224.51153
  21
189.1562
  0
LINE
  8
0
  6
CONTINUOUS
  62
7
  10
218.75
  20
186.930204
  11
225.222031
  21
193.402235
  0
LINE
  8
0
  6
CONTINUOUS
  62
7
  10
218.75
  20
190.465738
  11
225.171198
  21
196.886936
  0
LINE
  8
0
  6
CONTINUOUS
  62
7
  10
218.75
  20
194.001272
  11
224.631643
  21
199.882915
  0
LINE
  8
0
  6
CONTINUOUS
  62
7
  10
218.75
  20
197.536806
  11
224.39157
  21
203.178376
  0
LINE
  8
0
  6
CONTINUOUS
  62
7
  10
218.75
  20
201.07234
  11
224.782502
  21
207.104842
  0
LINE
  8
0
  6
CONTINUOUS
  62
7
  10
218.75
  20
204.607874
  11
224.866653
  21
210.724527
  0
LINE
  8
0
  6
CONTINUOUS
  62
7
  10
218.75
  20
208.143408
  11
224.866653
  21
214.260061
  0
LINE
  8
0
  6
CONTINUOUS
  62
7
  10
218.75
  20
211.678942
  11
219.071058
  21
212.0
  0
LINE
  8
0
  6
CONTINUOUS
  62
7
  10
220.5
  20
213.428942
  11
224.701065
  21
217.630007
  0
LINE
  8
0
  6
CONTINUOUS
  62
7
  10
220.5
  20
216.964476
  11
223.535524
  21
220.0
  0
ENDBLK
  0
BLOCK
  8
0
  70
65
  2
*H7
  10
0.0
  20
0.0
  30
0.0
  3
*H
  0
LINE
  8
0
  6
CONTINUOUS
  62
7
  10
209.748729
  20
185.0
  11
212.25
  21
187.501271
  0
LINE
  8
0
  6
CONTINUOUS
  62
7
  10
206.461681
  20
185.248486
  11
212.25
  21
191.036805
  0
LINE
  8
0
  6
CONTINUOUS
  62
7
  10
205.915046
  20
188.237385
  11
212.25
  21
194.572339
  0
LINE
  8
0
  6
CONTINUOUS
  62
7
  10
205.587997
  20
191.44587
  11
212.25
  21
198.107873
  0
LINE
  8
0
  6
CONTINUOUS
  62
7
  10
205.787401
  20
195.180808
  11
212.25
  21
201.643407
  0
LINE
  8
0
  6
CONTINUOUS
  62
7
  10
207.595555
  20
200.524496
  11
212.25
  21
205.178941
  0
LINE
  8
0
  6
CONTINUOUS
  62
7
  10
207.868274
  20
204.332749
  11
212.25
  21
208.714475
  0
LINE
  8
0
  6
CONTINUOUS
  62
7
  10
207.053544
  20
207.053553
  11
211.999991
  21
212.0
  0
LINE
  8
0
  6
CONTINUOUS
  62
7
  10
206.75652
  20
210.292063
  11
210.5
  21
214.035543
  0
LINE
  8
0
  6
CONTINUOUS
  62
7
  10
206.752911
  20
213.823988
  11
210.5
  21
217.571077
  0
LINE
  8
0
  6
CONTINUOUS
  62
7
  10
207.254059
  20
217.86067
  11
209.393389
  21
220.0
  0
ENDBLK
  0
BLOCK
  8
0
  70
65
  2
*D8
  10
0.0
  20
0.0
  30
0.0
  3
*D
  0
LINE
  8
0
  6
CONTINUOUS
  62
1
  10
100.0
  20
200.0
  11
100.0
  21
231.756302
  0
LINE
  8
0
  6
CONTINUOUS
  62
1
  10
140.0
  20
200.0
  11
140.0
  21
231.756302
  0
POLYLINE
  8
0
  6
CONTINUOUS
  62
1
  66
1
  0
VERTEX
  8
0
  10
104.0
  20
228.756302
  30
0.0
  0
VERTEX
  8
0
  10
104.0
  20
228.756302
  30
0.0
  0
VERTEX
  8
0
  10
104.0
  20
228.756302
  30
0.0
  0
VERTEX
  8
0
  10
120.0
  20
228.756302
  30
0.0
  0
SEQEND
  0
POLYLINE
  8
0
  6
CONTINUOUS
  62
1
  66
1
  0
VERTEX
  8
0
  10
136.0
  20
228.756302
  30
0.0
  0
VERTEX
  8
0
  10
136.0
  20
228.756302
  30
0.0
  0
VERTEX
  8
0
  10
136.0
  20
228.756302
  30
0.0
  0
VERTEX
  8
0
  10
120.0
  20
228.756302
  30
0.0
  0
SEQEND
  0
SOLID
  8
0
  6
CONTINUOUS
  62
1
  10
100.0
  20
228.756302
  11
104.0
  21
228.236302
  12
100.0
  22
228.756302
  13
104.0
  23
229.276302
  0
SOLID
  8
0
  6
CONTINUOUS
  62
1
  10
140.0
  20
228.756302
  11
136.0
  21
229.276302
  12
140.0
  22
228.756302
  13
136.0
  23
228.236302
  0
TEXT
  8
0
  62
7
  10
116.183847
  20
231.327052
  1
%%c 40
  40
3.21225
  7
STANDARD
  72
5
  11
123.816153
  21
231.327052
  31
0.0
  0
ENDBLK
  0
BLOCK
  8
0
  70
65
  2
*D9
  10
0.0
  20
0.0
  30
0.0
  3
*D
  0
LINE
  8
0
  6
CONTINUOUS
  62
1
  10
120.0
  20
185.0
  11
90.548927
  21
185.0
  0
LINE
  8
0
  6
CONTINUOUS
  62
1
  10
100.0
  20
200.0
  11
90.548927
  21
200.0
  0
POLYLINE
  8
0
  6
CONTINUOUS
  62
1
  66
1
  0
VERTEX
  8
0
  10
93.548927
  20
189.0
  30
0.0
  0
VERTEX
  8
0
  10
93.548927
  20
189.0
  30
0.0
  0
VERTEX
  8
0
  10
93.548927
  20
189.0
  30
0.0
  0
VERTEX
  8
0
  10
93.548927
  20
192.5
  30
0.0
  0
SEQEND
  0
POLYLINE
  8
0
  6
CONTINUOUS
  62
1
  66
1
  0
VERTEX
  8
0
  10
93.548927
  20
196.0
  30
0.0
  0
VERTEX
  8
0
  10
93.548927
  20
196.0
  30
0.0
  0
VERTEX
  8
0
  10
93.548927
  20
196.0
  30
0.0
  0
VERTEX
  8
0
  10
93.548927
  20
192.5
  30
0.0
  0
SEQEND
  0
SOLID
  8
0
  6
CONTINUOUS
  62
1
  10
93.548927
  20
185.0
  11
94.068927
  21
189.0
  12
93.548927
  22
185.0
  13
93.028927
  23
189.0
  0
SOLID
  8
0
  6
CONTINUOUS
  62
1
  10
93.548927
  20
200.0
  11
93.028927
  21
196.0
  12
93.548927
  22
200.0
  13
94.068927
  23
196.0
  0
TEXT
  8
0
  62
7
  10
90.978177
  20
190.564084
  1
15
  40
3.21225
  50
90.0
  7
STANDARD
  72
5
  11
90.978177
  21
194.435916
  31
0.0
  0
ENDBLK
  0
BLOCK
  8
0
  70
65
  2
*D10
  10
0.0
  20
0.0
  30
0.0
  3
*D
  0
LINE
  8
0
  6
CONTINUOUS
  62
1
  10
160.0
  20
208.0
  11
160.0
  21
243.976105
  0
LINE
  8
0
  6
CONTINUOUS
  62
1
  10
236.0
  20
205.0
  11
236.0
  21
243.976105
  0
POLYLINE
  8
0
  6
CONTINUOUS
  62
1
  66
1
  0
VERTEX
  8
0
  10
164.0
  20
240.976105
  30
0.0
  0
VERTEX
  8
0
  10
164.0
  20
240.976105
  30
0.0
  0
VERTEX
  8
0
  10
164.0
  20
240.976105
  30
0.0
  0
VERTEX
  8
0
  10
198.0
  20
240.976105
  30
0.0
  0
SEQEND
  0
POLYLINE
  8
0
  6
CONTINUOUS
  62
1
  66
1
  0
VERTEX
  8
0
  10
232.0
  20
240.976105
  30
0.0
  0
VERTEX
  8
0
  10
232.0
  20
240.976105
  30
0.0
  0
VERTEX
  8
0
  10
232.0
  20
240.976105
  30
0.0
  0
VERTEX
  8
0
  10
198.0
  20
240.976105
  30
0.0
  0
SEQEND
  0
SOLID
  8
0
  6
CONTINUOUS
  62
1
  10
160.0
  20
240.976105
  11
164.0
  21
240.456105
  12
160.0
  22
240.976105
  13
164.0
  23
241.496105
  0
SOLID
  8
0
  6
CONTINUOUS
  62
1
  10
236.0
  20
240.976105
  11
232.0
  21
241.496105
  12
236.0
  22
240.976105
  13
232.0
  23
240.456105
  0
TEXT
  8
0
  62
7
  10
196.064084
  20
243.546855
  1
76
  40
3.21225
  7
STANDARD
  72
5
  11
199.935916
  21
243.546855
  31
0.0
  0
ENDBLK
  0
BLOCK
  8
0
  70
65
  2
*D11
  10
0.0
  20
0.0
  30
0.0
  3
*D
  0
LINE
  8
0
  6
CONTINUOUS
  62
1
  10
160.0
  20
192.0
  11
160.0
  21
175.89439
  0
LINE
  8
0
  6
CONTINUOUS
  62
1
  10
160.0
  20
170.75479
  11
160.0
  21
166.68309
  0
LINE
  8
0
  6
CONTINUOUS
  62
1
  10
162.5
  20
185.0
  11
162.5
  21
175.89439
  0
LINE
  8
0
  6
CONTINUOUS
  62
1
  10
162.5
  20
170.75479
  11
162.5
  21
166.68309
  0
LINE
  8
0
  6
CONTINUOUS
  62
1
  10
152.0
  20
169.68309
  11
156.0
  21
169.68309
  0
LINE
  8
0
  6
CONTINUOUS
  62
1
  10
156.0
  20
169.68309
  11
156.0
  21
169.68309
  0
POLYLINE
  8
0
  6
CONTINUOUS
  62
1
  66
1
  0
VERTEX
  8
0
  10
176.83979
  20
169.68309
  30
0.0
  0
VERTEX
  8
0
  10
170.5
  20
169.68309
  30
0.0
  0
VERTEX
  8
0
  10
166.5
  20
169.68309
  30
0.0
  0
VERTEX
  8
0
  10
166.5
  20
169.68309
  30
0.0
  0
SEQEND
  0
SOLID
  8
0
  6
CONTINUOUS
  62
1
  10
162.5
  20
169.68309
  11
166.5
  21
169.16309
  12
162.5
  22
169.68309
  13
166.5
  23
170.20309
  0
SOLID
  8
0
  6
CONTINUOUS
  62
1
  10
160.0
  20
169.68309
  11
156.0
  21
170.20309
  12
160.0
  22
169.68309
  13
156.0
  23
169.16309
  0
TEXT
  8
0
  62
7
  10
158.830105
  20
172.25384
  1
2,5
  40
3.21225
  7
STANDARD
  72
5
  11
163.669895
  21
172.25384
  31
0.0
  0
ENDBLK
  0
BLOCK
  8
0
  70
65
  2
*D12
  10
0.0
  20
0.0
  30
0.0
  3
*D
  0
LINE
  8
0
  6
CONTINUOUS
  62
1
  10
218.75
  20
212.0
  11
218.75
  21
226.928711
  0
LINE
  8
0
  6
CONTINUOUS
  62
1
  10
212.25
  20
212.0
  11
212.25
  21
226.928711
  0
LINE
  8
0
  6
CONTINUOUS
  62
1
  10
226.75
  20
223.928711
  11
222.75
  21
223.928711
  0
LINE
  8
0
  6
CONTINUOUS
  62
1
  10
222.75
  20
223.928711
  11
222.75
  21
223.928711
  0
POLYLINE
  8
0
  6
CONTINUOUS
  62
1
  66
1
  0
VERTEX
  8
0
  10
190.149736
  20
223.928711
  30
0.0
  0
VERTEX
  8
0
  10
204.25
  20
223.928711
  30
0.0
  0
VERTEX
  8
0
  10
208.25
  20
223.928711
  30
0.0
  0
VERTEX
  8
0
  10
208.25
  20
223.928711
  30
0.0
  0
SEQEND
  0
SOLID
  8
0
  6
CONTINUOUS
  62
1
  10
212.25
  20
223.928711
  11
208.25
  21
224.448711
  12
212.25
  22
223.928711
  13
208.25
  23
223.408711
  0
SOLID
  8
0
  6
CONTINUOUS
  62
1
  10
218.75
  20
223.928711
  11
222.75
  21
223.408711
  12
218.75
  22
223.928711
  13
222.75
  23
224.448711
  0
TEXT
  8
0
  62
7
  10
190.149736
  20
226.499461
  1
%%c 6,5
  40
3.21225
  7
STANDARD
  72
5
  11
198.75
  21
226.499461
  31
0.0
  0
ENDBLK
  0
BLOCK
  8
0
  70
65
  2
*D13
  10
0.0
  20
0.0
  30
0.0
  3
*D
  0
LINE
  8
0
  6
CONTINUOUS
  62
1
  10
210.5
  20
220.0
  11
210.5
  21
230.606596
  0
LINE
  8
0
  6
CONTINUOUS
  62
1
  10
220.5
  20
220.0
  11
220.5
  21
230.606596
  0
LINE
  8
0
  6
CONTINUOUS
  62
1
  10
202.5
  20
229.963196
  11
206.5
  21
229.963196
  0
LINE
  8
0
  6
CONTINUOUS
  62
1
  10
210.5
  20
229.963196
  11
215.5
  21
229.963196
  0
LINE
  8
0
  6
CONTINUOUS
  62
1
  10
228.5
  20
229.963196
  11
224.5
  21
229.963196
  0
LINE
  8
0
  6
CONTINUOUS
  62
1
  10
220.5
  20
229.963196
  11
215.5
  21
229.963196
  0
SOLID
  8
0
  6
CONTINUOUS
  62
1
  10
220.5
  20
229.963196
  11
224.5
  21
229.443196
  12
220.5
  22
229.963196
  13
224.5
  23
230.483196
  0
SOLID
  8
0
  6
CONTINUOUS
  62
1
  10
210.5
  20
229.963196
  11
206.5
  21
230.483196
  12
210.5
  22
229.963196
  13
206.5
  23
229.443196
  0
TEXT
  8
0
  62
7
  10
208.173929
  20
234.675446
  1
%%c 10
  40
3.21225
  7
STANDARD
  72
5
  11
215.806235
  21
234.675446
  31
0.0
  0
TEXT
  8
0
  62
7
  10
215.806235
  20
236.816946
  1
+0,2
  40
3.21225
  7
STANDARD
  72
5
  11
222.826071
  21
236.816946
  31
0.0
  0
TEXT
  8
0
  62
7
  10
215.806235
  20
232.533946
  1
-0
  40
3.21225
  7
STANDARD
  72
5
  11
219.031334
  21
232.533946
  31
0.0
  0
ENDBLK
  0
BLOCK
  8
0
  70
65
  2
*D14
  10
0.0
  20
0.0
  30
0.0
  3
*D
  0
LINE
  8
0
  6
CONTINUOUS
  62
1
  10
270.0
  20
220.0
  11
295.686737
  21
220.0
  0
LINE
  8
0
  6
CONTINUOUS
  62
1
  10
270.0
  20
212.0
  11
295.686737
  21
212.0
  0
LINE
  8
0
  6
CONTINUOUS
  62
1
  10
292.686737
  20
228.0
  11
292.686737
  21
224.0
  0
LINE
  8
0
  6
CONTINUOUS
  62
1
  10
292.686737
  20
220.0
  11
292.686737
  21
216.0
  0
LINE
  8
0
  6
CONTINUOUS
  62
1
  10
292.686737
  20
204.0
  11
292.686737
  21
208.0
  0
LINE
  8
0
  6
CONTINUOUS
  62
1
  10
292.686737
  20
212.0
  11
292.686737
  21
216.0
  0
SOLID
  8
0
  6
CONTINUOUS
  62
1
  10
292.686737
  20
212.0
  11
292.166737
  21
208.0
  12
292.686737
  22
212.0
  13
293.206737
  23
208.0
  0
SOLID
  8
0
  6
CONTINUOUS
  62
1
  10
292.686737
  20
220.0
  11
293.206737
  21
224.0
  12
292.686737
  22
220.0
  13
292.166737
  23
224.0
  0
TEXT
  8
0
  62
7
  10
290.115987
  20
215.032042
  1
8
  40
3.21225
  50
90.0
  7
STANDARD
  72
5
  11
290.115987
  21
216.967958
  31
0.0
  0
ENDBLK
  0
BLOCK
  8
0
  70
65
  2
*D15
  10
0.0
  20
0.0
  30
0.0
  3
*D
  0
LINE
  8
0
  6
CONTINUOUS
  62
1
  10
234.236725
  20
185.0
  11
231.089899
  21
167.153516
  0
LINE
  8
0
  6
CONTINUOUS
  62
1
  10
230.903445
  20
166.096088
  11
230.564688
  21
164.174906
  0
LINE
  8
0
  6
CONTINUOUS
  62
1
  10
236.0
  20
172.695313
  11
236.0
  21
163.699376
  0
ARC
  8
0
  6
CONTINUOUS
  62
1
  10
236.0
  20
195.0
  40
20.00467
  50
93.905834
  51
253.12198
  0
ARC
  8
0
  6
CONTINUOUS
  62
1
  10
236.0
  20
195.0
  40
20.004669
  50
-83.121989
  51
75.970084
  0
LINE
  8
0
  6
CONTINUOUS
  62
1
  10
236.0
  20
165.499376
  11
236.0
  21
165.499376
  0
TEXT
  8
0
  62
7
  10
231.803445
  20
164.969186
  1
10%%d
  40
1.92735
  7
STANDARD
  72
5
  11
235.054242
  21
164.969186
  31
0.0
  0
ENDBLK
  0
BLOCK
  8
0
  70
65
  2
*D16
  10
0.0
  20
0.0
  30
0.0
  3
*D
  0
LINE
  8
0
  6
CONTINUOUS
  62
1
  10
160.0
  20
192.0
  11
154.403078
  21
192.0
  0
LINE
  8
0
  6
CONTINUOUS
  62
1
  10
160.0
  20
208.0
  11
154.403078
  21
208.0
  0
LINE
  8
0
  6
CONTINUOUS
  62
1
  10
155.046478
  20
184.0
  11
155.046478
  21
188.0
  0
LINE
  8
0
  6
CONTINUOUS
  62
1
  10
155.046478
  20
192.0
  11
155.046478
  21
200.0
  0
LINE
  8
0
  6
CONTINUOUS
  62
1
  10
155.046478
  20
216.0
  11
155.046478
  21
212.0
  0
LINE
  8
0
  6
CONTINUOUS
  62
1
  10
155.046478
  20
208.0
  11
155.046478
  21
200.0
  0
SOLID
  8
0
  6
CONTINUOUS
  62
1
  10
155.046478
  20
208.0
  11
155.566478
  21
212.0
  12
155.046478
  22
208.0
  13
154.526478
  23
212.0
  0
SOLID
  8
0
  6
CONTINUOUS
  62
1
  10
155.046478
  20
192.0
  11
154.526478
  21
188.0
  12
155.046478
  22
192.0
  13
155.566478
  23
188.0
  0
TEXT
  8
0
  62
7
  10
150.334228
  20
193.119361
  1
%%c 16
  40
3.21225
  50
90.0
  7
STANDARD
  72
5
  11
150.334228
  21
200.751667
  31
0.0
  0
TEXT
  8
0
  62
7
  10
148.192728
  20
200.751667
  1
+0
  40
3.21225
  50
90.0
  7
STANDARD
  72
5
  11
148.192728
  21
204.867629
  31
0.0
  0
TEXT
  8
0
  62
7
  10
152.475728
  20
200.751667
  1
-0,2
  40
3.21225
  50
90.0
  7
STANDARD
  72
5
  11
152.475728
  21
206.880639
  31
0.0
  0
ENDBLK
  0
BLOCK
  8
0
  70
65
  2
*D17
  10
0.0
  20
0.0
  30
0.0
  3
*D
  0
LINE
  8
0
  6
CONTINUOUS
  62
1
  10
236.0
  20
195.0
  11
239.609684
  21
195.0
  0
LINE
  8
0
  6
CONTINUOUS
  62
1
  10
244.749284
  20
195.0
  11
248.820984
  21
195.0
  0
LINE
  8
0
  6
CONTINUOUS
  62
1
  10
236.0
  20
205.0
  11
239.609684
  21
205.0
  0
LINE
  8
0
  6
CONTINUOUS
  62
1
  10
244.749284
  20
205.0
  11
248.820984
  21
205.0
  0
LINE
  8
0
  6
CONTINUOUS
  62
1
  10
245.820984
  20
187.0
  11
245.820984
  21
191.0
  0
LINE
  8
0
  6
CONTINUOUS
  62
1
  10
245.820984
  20
195.0
  11
245.820984
  21
200.0
  0
LINE
  8
0
  6
CONTINUOUS
  62
1
  10
245.820984
  20
213.0
  11
245.820984
  21
209.0
  0
LINE
  8
0
  6
CONTINUOUS
  62
1
  10
245.820984
  20
205.0
  11
245.820984
  21
200.0
  0
SOLID
  8
0
  6
CONTINUOUS
  62
1
  10
245.820984
  20
205.0
  11
246.340984
  21
209.0
  12
245.820984
  22
205.0
  13
245.300984
  23
209.0
  0
SOLID
  8
0
  6
CONTINUOUS
  62
1
  10
245.820984
  20
195.0
  11
245.300984
  21
191.0
  12
245.820984
  22
195.0
  13
246.340984
  23
191.0
  0
TEXT
  8
0
  62
7
  10
243.250234
  20
196.183847
  1
%%c 10
  40
3.21225
  50
90.0
  7
STANDARD
  72
5
  11
243.250234
  21
203.816153
  31
0.0
  0
ENDBLK
  0
ENDSEC
  0
SECTION
  2
ENTITIES
  0
INSERT
  8
0
  6
CONTINUOUS
  62
7
  2
*G4
  10
0.0
  20
0.0
  1001
ACAD
  1000
ACAD_TCW25GROUP
  1002
{
  1000
Groupe_1
  1002
}
  0
TEXT
  8
0
  62
7
  10
244.808182
  20
108.11038
  30
7.033605
  1
27 août 2001
  40
1.906717
  7
STANDARD
  72
5
  11
261.103882
  21
108.11038
  31
7.033605
  0
TEXT
  8
0
  62
7
  10
202.724854
  20
100.963041
  30
4.958926
  1
CHAUDIERE
  40
3.813303
  7
STANDARD
  72
5
  11
242.01828
  21
100.963041
  31
4.958926
  0
POLYLINE
  8
0
  6
CONTINUOUS
  62
7
  40
0.03937
  41
0.03937
  66
1
  70
8
  0
VERTEX
  8
0
  10
152.453522
  20
115.723473
  30
4.958926
  70
32
  0
VERTEX
  8
0
  10
152.453522
  20
127.966949
  30
0.0
  70
32
  0
SEQEND
  0
POLYLINE
  8
0
  6
CONTINUOUS
  62
7
  40
0.03937
  41
0.03937
  66
1
  70
8
  0
VERTEX
  8
0
  10
287.546478
  20
115.723473
  30
4.958926
  70
32
  0
VERTEX
  8
0
  10
287.546478
  20
127.966949
  30
0.0
  70
32
  0
SEQEND
  0
POLYLINE
  8
0
  6
CONTINUOUS
  62
7
  40
0.03937
  41
0.03937
  66
1
  70
8
  0
VERTEX
  8
0
  10
152.453522
  20
127.966949
  30
4.958926
  70
32
  0
VERTEX
  8
0
  10
287.546478
  20
127.966949
  30
4.958926
  70
32
  0
SEQEND
  0
POLYLINE
  8
0
  6
CONTINUOUS
  62
7
  40
0.03937
  41
0.03937
  66
1
  70
8
  0
VERTEX
  8
0
  10
152.453522
  20
121.845184
  30
4.958926
  70
32
  0
VERTEX
  8
0
  10
287.546478
  20
121.845184
  30
4.958926
  70
32
  0
SEQEND
  0
POLYLINE
  8
0
  6
CONTINUOUS
  62
7
  40
0.03937
  41
0.03937
  66
1
  70
8
  0
VERTEX
  8
0
  10
166.047592
  20
115.723473
  30
4.958926
  70
32
  0
VERTEX
  8
0
  10
166.047592
  20
127.966949
  30
0.0
  70
32
  0
SEQEND
  0
POLYLINE
  8
0
  6
CONTINUOUS
  62
7
  40
0.03937
  41
0.03937
  66
1
  70
8
  0
VERTEX
  8
0
  10
179.641693
  20
115.723473
  30
4.958926
  70
32
  0
VERTEX
  8
0
  10
179.641693
  20
127.966949
  30
0.0
  70
32
  0
SEQEND
  0
POLYLINE
  8
0
  6
CONTINUOUS
  62
7
  40
0.03937
  41
0.03937
  66
1
  70
8
  0
VERTEX
  8
0
  10
234.018021
  20
115.723473
  30
4.958926
  70
32
  0
VERTEX
  8
0
  10
234.018021
  20
127.966949
  30
0.0
  70
32
  0
SEQEND
  0
POLYLINE
  8
0
  6
CONTINUOUS
  62
7
  40
0.03937
  41
0.03937
  66
1
  70
8
  0
VERTEX
  8
0
  10
261.206268
  20
115.723473
  30
4.958926
  70
32
  0
VERTEX
  8
0
  10
261.206268
  20
127.966949
  30
0.0
  70
32
  0
SEQEND
  0
TEXT
  8
0
  62
7
  10
155.328903
  20
117.760477
  30
4.958926
  1
Rep
  40
2.542173
  7
STANDARD
  72
5
  11
162.620087
  21
117.760477
  31
4.958926
  0
TEXT
  8
0
  62
7
  10
197.0681
  20
117.760477
  30
4.958926
  1
Désignation
  40
2.542173
  7
STANDARD
  72
5
  11
218.941696
  21
117.760477
  31
4.958926
  0
TEXT
  8
0
  62
7
  10
168.187668
  20
117.760477
  30
4.958926
  1
Nbre
  40
2.542173
  7
STANDARD
  72
5
  11
177.230148
  21
117.760477
  31
4.958926
  0
TEXT
  8
0
  62
7
  10
240.953842
  20
117.760477
  30
4.958926
  1
Matière
  40
2.542173
  7
STANDARD
  72
5
  11
255.024445
  21
117.760477
  31
4.958926
  0
TEXT
  8
0
  62
7
  10
270.753845
  20
117.760477
  30
4.958926
  1
Débit
  40
2.542173
  7
STANDARD
  72
5
  11
280.809967
  21
117.760477
  31
4.958926
  0
TEXT
  8
0
  62
7
  10
172.506271
  20
124.398708
  30
4.958926
  1
1
  40
2.224445
  7
STANDARD
  72
5
  11
174.490891
  21
124.398708
  31
4.958926
  0
TEXT
  8
0
  62
7
  10
187.018082
  20
124.398708
  30
4.958926
  1
Chaudière
  40
2.224445
  7
STANDARD
  72
5
  11
203.321121
  21
124.398708
  31
4.958926
  0
TEXT
  8
0
  62
7
  10
235.716568
  20
124.586689
  30
4.958926
  1
EN AW-2017
  40
2.224445
  7
STANDARD
  72
5
  11
256.525299
  21
124.586689
  31
4.958926
  0
TEXT
  8
0
  62
7
  10
262.960693
  20
124.586689
  30
4.958926
  1
Ø45 lg/80
  40
2.224445
  7
STANDARD
  72
5
  11
278.940521
  21
124.586689
  31
4.958926
  0
INSERT
  8
0
  6
CONTINUOUS
  62
7
  2
*G5
  10
0.0
  20
0.0
  1001
ACAD
  1000
ACAD_TCW25GROUP
  1002
{
  1000
Groupe_1
  1002
}
  0
TEXT
  8
0
  62
7
  10
157.767746
  20
124.398708
  1
3
  40
2.224445
  7
STANDARD
  72
5
  11
159.752365
  21
124.398708
  31
0.0
  0
POLYLINE
  8
0
  6
CENTER
  62
7
  40
0.007874
  41
0.007874
  66
1
  0
VERTEX
  8
0
  10
97.103981
  20
200.0
  30
0.0
  0
VERTEX
  8
0
  10
142.366852
  20
200.0
  30
0.0
  0
SEQEND
  0
POLYLINE
  8
0
  6
CENTER
  62
7
  40
0.007874
  41
0.007874
  66
1
  0
VERTEX
  8
0
  10
157.341995
  20
200.0
  30
0.0
  0
VERTEX
  8
0
  10
239.113556
  20
200.0
  30
0.0
  0
SEQEND
  0
POLYLINE
  8
0
  6
CENTER
  62
7
  40
0.007874
  41
0.007874
  66
1
  0
VERTEX
  8
0
  10
247.694199
  20
200.0
  30
0.0
  0
VERTEX
  8
0
  10
292.957062
  20
200.0
  30
0.0
  0
SEQEND
  0
POLYLINE
  8
0
  6
CENTER
  62
7
  40
0.007874
  41
0.007874
  66
1
  0
VERTEX
  8
0
  10
120.0
  20
222.986954
  30
0.0
  0
VERTEX
  8
0
  10
120.0
  20
181.799881
  30
0.0
  0
SEQEND
  0
ARC
  8
0
  6
CONTINUOUS
  62
7
  10
120.0
  20
200.0
  40
20.000002
  50
-48.590371
  51
228.590371
  0
POLYLINE
  8
0
  6
CENTER
  62
7
  40
0.007874
  41
0.007874
  66
1
  0
VERTEX
  8
0
  10
270.0
  20
222.343399
  30
0.0
  0
VERTEX
  8
0
  10
270.0
  20
182.228912
  30
0.0
  0
SEQEND
  0
POLYLINE
  8
0
  6
CONTINUOUS
  62
7
  40
0.019685
  41
0.019685
  66
1
  0
VERTEX
  8
0
  10
162.5
  20
220.0
  30
0.0
  0
VERTEX
  8
0
  10
210.5
  20
220.0
  30
0.0
  0
SEQEND
  0
POLYLINE
  8
0
  6
CONTINUOUS
  62
7
  40
0.019685
  41
0.019685
  66
1
  0
VERTEX
  8
0
  10
220.5
  20
220.0
  30
0.0
  0
VERTEX
  8
0
  10
233.355103
  20
220.0
  30
0.0
  0
SEQEND
  0
POLYLINE
  8
0
  6
CONTINUOUS
  62
7
  40
0.019685
  41
0.019685
  66
1
  0
VERTEX
  8
0
  10
106.77124
  20
185.0
  30
0.0
  0
VERTEX
  8
0
  10
133.22876
  20
185.0
  30
0.0
  0
SEQEND
  0
POLYLINE
  8
0
  6
CONTINUOUS
  62
7
  40
0.019685
  41
0.019685
  66
1
  0
VERTEX
  8
0
  10
162.5
  20
185.0
  30
0.0
  0
VERTEX
  8
0
  10
234.236725
  20
185.0
  30
0.0
  0
SEQEND
  0
POLYLINE
  8
0
  6
CONTINUOUS
  62
7
  40
0.019685
  41
0.019685
  66
1
  0
VERTEX
  8
0
  10
256.77124
  20
185.0
  30
0.0
  0
VERTEX
  8
0
  10
283.22876
  20
185.0
  30
0.0
  0
SEQEND
  0
ARC
  8
0
  6
CONTINUOUS
  62
7
  10
270.0
  20
200.0
  40
20.000002
  50
-48.590371
  51
228.590371
  0
POLYLINE
  8
0
  6
CONTINUOUS
  62
7
  40
0.019685
  41
0.019685
  66
1
  0
VERTEX
  8
0
  10
160.0
  20
208.0
  30
0.0
  0
VERTEX
  8
0
  10
160.0
  20
192.0
  30
0.0
  0
SEQEND
  0
POLYLINE
  8
0
  6
CONTINUOUS
  62
7
  40
0.019685
  41
0.019685
  66
1
  0
VERTEX
  8
0
  10
236.0
  20
205.0
  30
0.0
  0
VERTEX
  8
0
  10
236.0
  20
195.0
  30
0.0
  0
SEQEND
  0
POLYLINE
  8
0
  6
CONTINUOUS
  62
7
  40
0.019685
  41
0.019685
  66
1
  0
VERTEX
  8
0
  10
162.5
  20
220.0
  30
0.0
  0
VERTEX
  8
0
  10
162.5
  20
185.0
  30
0.0
  0
SEQEND
  0
CIRCLE
  8
0
  6
CONTINUOUS
  62
7
  10
270.0
  20
200.0
  40
8.0
  0
POLYLINE
  8
0
  6
CONTINUOUS
  62
7
  40
0.019685
  41
0.019685
  66
1
  0
VERTEX
  8
0
  10
162.5
  20
208.0
  30
0.0
  0
VERTEX
  8
0
  10
160.0
  20
208.0
  30
0.0
  0
SEQEND
  0
POLYLINE
  8
0
  6
CONTINUOUS
  62
7
  40
0.019685
  41
0.019685
  66
1
  0
VERTEX
  8
0
  10
162.5
  20
192.0
  30
0.0
  0
VERTEX
  8
0
  10
160.0
  20
192.0
  30
0.0
  0
SEQEND
  0
CIRCLE
  8
0
  6
$AUXILIARY
  62
7
  10
120.0
  20
200.0
  40
8.0
  0
CIRCLE
  8
0
  6
$AUXILIARY
  62
7
  10
270.0
  20
200.0
  40
5.0
  0
CIRCLE
  8
0
  6
CONTINUOUS
  62
7
  10
120.0
  20
200.0
  40
5.0
  0
POLYLINE
  8
0
  6
CONTINUOUS
  62
7
  40
0.019685
  41
0.019685
  66
1
  0
VERTEX
  8
0
  10
236.0
  20
205.0
  30
0.0
  0
VERTEX
  8
0
  10
233.355103
  20
220.0
  30
0.0
  0
SEQEND
  0
POLYLINE
  8
0
  6
CONTINUOUS
  62
7
  40
0.019685
  41
0.019685
  66
1
  0
VERTEX
  8
0
  10
236.0
  20
195.0
  30
0.0
  0
VERTEX
  8
0
  10
234.236725
  20
185.0
  30
0.0
  0
SEQEND
  0
POLYLINE
  8
0
  6
CONTINUOUS
  62
7
  40
0.019685
  41
0.019685
  66
1
  0
VERTEX
  8
0
  10
233.355103
  20
220.0
  30
0.0
  0
VERTEX
  8
0
  10
233.355103
  20
185.0
  30
0.0
  0
SEQEND
  0
POLYLINE
  8
0
  6
CENTER
  62
7
  40
0.007874
  41
0.007874
  66
1
  0
VERTEX
  8
0
  10
215.5
  20
220.0
  30
0.0
  0
VERTEX
  8
0
  10
215.5
  20
185.0
  30
0.0
  0
SEQEND
  0
POLYLINE
  8
0
  6
CONTINUOUS
  62
7
  40
0.019685
  41
0.019685
  66
1
  0
VERTEX
  8
0
  10
210.5
  20
212.0
  30
0.0
  0
VERTEX
  8
0
  10
220.5
  20
212.0
  30
0.0
  0
SEQEND
  0
POLYLINE
  8
0
  6
CONTINUOUS
  62
7
  40
0.019685
  41
0.019685
  66
1
  0
VERTEX
  8
0
  10
220.5
  20
220.0
  30
0.0
  0
VERTEX
  8
0
  10
220.5
  20
212.0
  30
0.0
  0
SEQEND
  0
POLYLINE
  8
0
  6
CONTINUOUS
  62
7
  40
0.019685
  41
0.019685
  66
1
  0
VERTEX
  8
0
  10
210.5
  20
220.0
  30
0.0
  0
VERTEX
  8
0
  10
210.5
  20
212.0
  30
0.0
  0
SEQEND
  0
POLYLINE
  8
0
  6
CONTINUOUS
  62
7
  40
0.019685
  41
0.019685
  66
1
  0
VERTEX
  8
0
  10
218.75
  20
212.0
  30
0.0
  0
VERTEX
  8
0
  10
218.75
  20
185.0
  30
0.0
  0
SEQEND
  0
POLYLINE
  8
0
  6
CONTINUOUS
  62
7
  40
0.019685
  41
0.019685
  66
1
  0
VERTEX
  8
0
  10
212.25
  20
212.0
  30
0.0
  0
VERTEX
  8
0
  10
212.25
  20
185.0
  30
0.0
  0
SEQEND
  0
POLYLINE
  8
0
  6
$AUXILIARY
  62
7
  40
0.007874
  41
0.007874
  66
1
  0
VERTEX
  8
0
  10
123.25
  20
212.0
  30
0.0
  0
VERTEX
  8
0
  10
123.25
  20
185.0
  30
0.0
  0
SEQEND
  0
POLYLINE
  8
0
  6
$AUXILIARY
  62
7
  40
0.007874
  41
0.007874
  66
1
  0
VERTEX
  8
0
  10
116.75
  20
212.0
  30
0.0
  0
VERTEX
  8
0
  10
116.75
  20
185.0
  30
0.0
  0
SEQEND
  0
POLYLINE
  8
0
  6
$AUXILIARY
  62
7
  40
0.007874
  41
0.007874
  66
1
  0
VERTEX
  8
0
  10
273.25
  20
212.0
  30
0.0
  0
VERTEX
  8
0
  10
273.25
  20
185.0
  30
0.0
  0
SEQEND
  0
POLYLINE
  8
0
  6
$AUXILIARY
  62
7
  40
0.007874
  41
0.007874
  66
1
  0
VERTEX
  8
0
  10
266.75
  20
212.0
  30
0.0
  0
VERTEX
  8
0
  10
266.75
  20
185.0
  30
0.0
  0
SEQEND
  0
POLYLINE
  8
0
  6
$AUXILIARY
  62
7
  40
0.007874
  41
0.007874
  66
1
  0
VERTEX
  8
0
  10
265.0
  20
212.0
  30
0.0
  0
VERTEX
  8
0
  10
275.0
  20
212.0
  30
0.0
  0
SEQEND
  0
POLYLINE
  8
0
  6
$AUXILIARY
  62
7
  40
0.007874
  41
0.007874
  66
1
  0
VERTEX
  8
0
  10
115.0
  20
212.0
  30
0.0
  0
VERTEX
  8
0
  10
125.0
  20
212.0
  30
0.0
  0
SEQEND
  0
POLYLINE
  8
0
  6
$AUXILIARY
  62
7
  40
0.007874
  41
0.007874
  66
1
  0
VERTEX
  8
0
  10
125.0
  20
219.364914
  30
0.0
  0
VERTEX
  8
0
  10
125.0
  20
212.0
  30
0.0
  0
SEQEND
  0
POLYLINE
  8
0
  6
$AUXILIARY
  62
7
  40
0.007874
  41
0.007874
  66
1
  0
VERTEX
  8
0
  10
115.0
  20
219.364914
  30
0.0
  0
VERTEX
  8
0
  10
115.0
  20
212.0
  30
0.0
  0
SEQEND
  0
POLYLINE
  8
0
  6
$AUXILIARY
  62
7
  40
0.007874
  41
0.007874
  66
1
  0
VERTEX
  8
0
  10
275.0
  20
219.364914
  30
0.0
  0
VERTEX
  8
0
  10
275.0
  20
212.0
  30
0.0
  0
SEQEND
  0
POLYLINE
  8
0
  6
$AUXILIARY
  62
7
  40
0.007874
  41
0.007874
  66
1
  0
VERTEX
  8
0
  10
265.0
  20
219.364914
  30
0.0
  0
VERTEX
  8
0
  10
265.0
  20
212.0
  30
0.0
  0
SEQEND
  0
POLYLINE
  8
0
  6
CONTINUOUS
  62
7
  40
0.003937
  41
0.003937
  66
1
  70
1
  1001
ACAD
  1000
TCW25BRUSH
  1002
{
  1000
L45
  1071
-5
  1070
0
  1070
0
  1040
5.0
  1040
0.0
  1002
}
  0
VERTEX
  8
0
  10
224.526474
  20
220.0
  30
0.0
  0
VERTEX
  8
0
  10
220.5
  20
220.0
  30
0.0
  0
VERTEX
  8
0
  10
220.5
  20
212.0
  30
0.0
  0
VERTEX
  8
0
  10
218.75
  20
212.0
  30
0.0
  0
VERTEX
  8
0
  10
218.75
  20
185.0
  30
0.0
  0
VERTEX
  8
0
  10
224.097443
  20
185.0
  30
0.0
  0
VERTEX
  8
0
  10
224.422455
  20
188.812622
  30
0.0
  0
VERTEX
  8
0
  10
225.044342
  20
191.211349
  30
0.0
  0
VERTEX
  8
0
  10
225.222031
  20
193.165878
  30
0.0
  0
VERTEX
  8
0
  10
225.222031
  20
194.853867
  30
0.0
  0
VERTEX
  8
0
  10
225.133179
  20
198.407532
  30
0.0
  0
VERTEX
  8
0
  10
224.777817
  20
199.473633
  30
0.0
  0
VERTEX
  8
0
  10
224.333603
  20
200.717422
  30
0.0
  0
VERTEX
  8
0
  10
224.333603
  20
201.961212
  30
0.0
  0
VERTEX
  8
0
  10
224.422455
  20
203.826889
  30
0.0
  0
VERTEX
  8
0
  10
224.333603
  20
205.603714
  30
0.0
  0
VERTEX
  8
0
  10
224.777817
  20
207.025192
  30
0.0
  0
VERTEX
  8
0
  10
224.866653
  20
208.535492
  30
0.0
  0
VERTEX
  8
0
  10
224.866653
  20
212.089172
  30
0.0
  0
VERTEX
  8
0
  10
224.866653
  20
215.642838
  30
0.0
  0
VERTEX
  8
0
  10
224.68898
  20
217.77504
  30
0.0
  0
VERTEX
  8
0
  10
224.511292
  20
219.463028
  30
0.0
  0
SEQEND
  0
INSERT
  8
0
  6
CONTINUOUS
  62
7
  2
*H6
  10
0.0
  20
0.0
  1001
ACAD
  1000
TCW25BRUSH
  1002
{
  1002
}
  0
POLYLINE
  8
0
  6
CONTINUOUS
  62
7
  40
0.003937
  41
0.003937
  66
1
  70
1
  1001
ACAD
  1000
TCW25BRUSH
  1002
{
  1000
L45
  1071
-5
  1070
0
  1070
0
  1040
5.0
  1040
0.0
  1002
}
  0
VERTEX
  8
0
  10
207.150681
  20
220.0
  30
0.0
  0
VERTEX
  8
0
  10
210.5
  20
220.0
  30
0.0
  0
VERTEX
  8
0
  10
210.5
  20
212.0
  30
0.0
  0
VERTEX
  8
0
  10
212.25
  20
212.0
  30
0.0
  0
VERTEX
  8
0
  10
212.25
  20
185.0
  30
0.0
  0
VERTEX
  8
0
  10
206.507126
  20
185.0
  30
0.0
  0
VERTEX
  8
0
  10
205.854523
  20
188.568314
  30
0.0
  0
VERTEX
  8
0
  10
205.587997
  20
190.789352
  30
0.0
  0
VERTEX
  8
0
  10
205.587997
  20
192.655029
  30
0.0
  0
VERTEX
  8
0
  10
205.854523
  20
196.031021
  30
0.0
  0
VERTEX
  8
0
  10
207.098312
  20
198.429749
  30
0.0
  0
VERTEX
  8
0
  10
207.453674
  20
199.49585
  30
0.0
  0
VERTEX
  8
0
  10
207.809036
  20
202.07225
  30
0.0
  0
VERTEX
  8
0
  10
207.986725
  20
203.582565
  30
0.0
  0
VERTEX
  8
0
  10
207.7202
  20
205.270554
  30
0.0
  0
VERTEX
  8
0
  10
207.098312
  20
206.247818
  30
0.0
  0
VERTEX
  8
0
  10
207.00946
  20
207.84697
  30
0.0
  0
VERTEX
  8
0
  10
206.742935
  20
210.423386
  30
0.0
  0
VERTEX
  8
0
  10
206.654099
  20
213.066422
  30
0.0
  0
VERTEX
  8
0
  10
206.920624
  20
215.109787
  30
0.0
  0
VERTEX
  8
0
  10
207.275986
  20
218.041565
  30
0.0
  0
SEQEND
  0
INSERT
  8
0
  6
CONTINUOUS
  62
7
  2
*H7
  10
0.0
  20
0.0
  1001
ACAD
  1000
TCW25BRUSH
  1002
{
  1002
}
  0
ARC
  8
0
  6
CONTINUOUS
  62
7
  10
215.5
  20
239.364914
  40
19.999997
  50
-104.477514
  51
-75.522486
  0
DIMENSION
  8
0
  1
<>
  2
*D8
  10
140.0
  20
228.756302
  11
120.0
  21
232.397802
  13
100.0
  23
200.0
  14
140.0
  24
200.0
  50
180.0
  70
0
  0
DIMENSION
  8
0
  1
<>
  2
*D9
  10
93.548927
  20
200.0
  11
89.907427
  21
192.5
  13
120.0
  23
185.0
  14
100.0
  24
200.0
  50
-90.0
  70
0
  0
DIMENSION
  8
0
  1
<>
  2
*D10
  10
236.0
  20
240.976105
  11
198.0
  21
244.617605
  13
160.0
  23
208.0
  14
236.0
  24
205.0
  50
180.0
  70
0
  0
DIMENSION
  8
0
  1
<>
  2
*D11
  10
162.5
  20
169.68309
  11
161.25
  21
173.32459
  13
160.0
  23
192.0
  14
162.5
  24
185.0
  70
0
  0
LINE
  8
0
  6
CONTINUOUS
  62
1
  10
215.5
  20
185.0
  11
215.5
  21
166.68309
  0
POLYLINE
  8
0
  6
CONTINUOUS
  62
1
  66
1
  0
VERTEX
  8
0
  10
166.5
  20
169.68309
  30
0.0
  0
VERTEX
  8
0
  10
166.5
  20
169.68309
  30
0.0
  0
VERTEX
  8
0
  10
166.5
  20
169.68309
  30
0.0
  0
VERTEX
  8
0
  10
189.0
  20
169.68309
  30
0.0
  0
SEQEND
  0
POLYLINE
  8
0
  6
CONTINUOUS
  62
1
  66
1
  0
VERTEX
  8
0
  10
211.5
  20
169.68309
  30
0.0
  0
VERTEX
  8
0
  10
211.5
  20
169.68309
  30
0.0
  0
VERTEX
  8
0
  10
211.5
  20
169.68309
  30
0.0
  0
VERTEX
  8
0
  10
189.0
  20
169.68309
  30
0.0
  0
SEQEND
  0
SOLID
  8
0
  6
CONTINUOUS
  62
1
  10
162.5
  20
169.68309
  11
166.5
  21
169.163086
  12
162.5
  22
169.68309
  13
166.5
  23
170.203094
  0
SOLID
  8
0
  6
CONTINUOUS
  62
1
  10
215.5
  20
169.68309
  11
211.5
  21
170.203094
  12
215.5
  22
169.68309
  13
211.5
  23
169.163086
  0
TEXT
  8
0
  62
7
  10
187.064087
  20
172.253841
  1
53
  40
3.212254
  7
STANDARD
  72
5
  11
190.935913
  21
172.253841
  31
0.0
  0
DIMENSION
  8
0
  1
<>
  2
*D12
  10
212.25
  20
223.928711
  11
194.449868
  21
227.570211
  13
218.75
  23
212.0
  14
212.25
  24
212.0
  50
180.0
  70
0
  0
DIMENSION
  8
0
  1
<>
  2
*D13
  10
220.5
  20
229.963196
  11
215.5
  21
235.746196
  13
210.5
  23
220.0
  14
220.5
  24
220.0
  50
180.0
  70
0
  0
DIMENSION
  8
0
  1
<>
  2
*D14
  10
292.686737
  20
212.0
  11
289.045237
  21
216.0
  13
270.0
  23
220.0
  14
270.0
  24
212.0
  50
90.0
  70
0
  0
POLYLINE
  8
0
  6
CONTINUOUS
  62
7
  40
0.003937
  41
0.003937
  66
1
  1001
ACAD
  1000
TCW25BRUSH
  1002
{
  1000
L45
  1071
-5
  1070
0
  1070
0
  1040
5.0
  1040
0.0
  1002
}
  0
VERTEX
  8
0
  10
236.0
  20
195.0
  30
0.0
  0
VERTEX
  8
0
  10
236.0
  20
172.695313
  30
0.0
  0
SEQEND
  0
DIMENSION
  8
0
  1
<>
  2
*D15
  10
231.993057
  20
165.772766
  11
233.428844
  21
165.611636
  13
236.0
  23
172.695313
  14
234.236725
  24
185.0
  15
236.0
  25
195.0
  70
5
  0
DIMENSION
  8
0
  1
<>
  2
*D16
  10
155.046478
  20
208.0
  11
149.263478
  21
200.0
  13
160.0
  23
192.0
  14
160.0
  24
208.0
  50
-90.0
  70
0
  0
DIMENSION
  8
0
  1
<>
  2
*D17
  10
245.820984
  20
205.0
  11
242.179484
  21
200.0
  13
236.0
  23
195.0
  14
236.0
  24
205.0
  50
90.0
  70
0
  0
ENDSEC
  0
EOF
