  0
SECTION
  2
HEADER
  9
$ACADVER
  1
AC1009
  9
$ANGBASE
  50
0.0
  9
$ANGDIR
  70
0
  9
$ATTDIA
  70
0
  9
$ATTMODE
  70
0
  9
$ATTREQ
  70
1
  9
$AUNITS
  70
0
  9
$AUPREC
  70
2
  9
$AXISMODE
  70
0
  9
$CECOLOR
  62
256
  9
$CELTYPE
  6
BYLAYER
  9
$CLAYER
  8
0
  9
$DIMALT
  70
0
  9
$DIMALTD
  70
2
  9
$DIMALTF
  40
0.0
  9
$DIMAPOST
  1

  9
$DIMASO
  70
0
  9
$DIMASZ
  40
4.0
  9
$DIMBLK
  1

  9
$DIMBLK1
  1

  9
$DIMBLK2
  1

  9
$DIMCEN
  40
0.09
  9
$DIMCLRD
  70
256
  9
$DIMCLRE
  70
256
  9
$DIMCLRT
  70
256
  9
$DIMDLE
  40
0.0
  9
$DIMDLI
  40
10.0
  9
$DIMEXE
  40
3.0
  9
$DIMEXO
  40
0.0
  9
$DIMGAP
  40
1.5
  9
$DIMLFAC
  40
1.0
  9
$DIMLIM
  70
0
  9
$DIMPOST
  1

  9
$DIMRND
  40
0.001
  9
$DIMSAH
  70
0
  9
$DIMSCALE
  40
1.0
  9
$DIMSE1
  70
0
  9
$DIMSE2
  70
0
  9
$DIMSHO
  70
1
  9
$DIMSOXD
  70
0
  9
$DIMSTYLE
  2
*UNNAMED
  9
$DIMTAD
  70
1
  9
$DIMTFAC
  40
1.0
  9
$DIMTIH
  70
1
  9
$DIMTIX
  70
1
  9
$DIMTM
  40
0.2
  9
$DIMTOFL
  70
1
  9
$DIMTOH
  70
1
  9
$DIMTOL
  70
1
  9
$DIMTP
  40
0.0
  9
$DIMTSZ
  40
0.0
  9
$DIMTVP
  40
0.0
  9
$DIMTXT
  40
4.283
  9
$DIMZIN
  70
8
  9
$DRAGMODE
  70
0
  9
$ELEVATION
  40
0.0
  9
$EXTMAX
  10
0.0
  20
0.0
  30
0.0
  9
$EXTMIN
  10
0.0
  20
0.0
  30
0.0
  9
$FILLETRAD
  40
25.0
  9
$FILLMODE
  70
1
  9
$INSBASE
  10
0.0
  20
0.0
  30
0.0
  9
$LIMMAX
  10
310.512077
  20
259.961536
  9
$LIMMIN
  10
72.767988
  20
91.859655
  9
$LTSCALE
  40
1.0
  9
$LUNITS
  70
2
  9
$LUPREC
  70
3
  9
$MENU
  1
acad
  9
$MIRRTEXT
  70
0
  9
$ORTHOMODE
  70
0
  9
$OSMODE
  70
0
  9
$PDMODE
  70
0
  9
$PDSIZE
  40
0.0
  9
$PEXTMAX
  10
0.0
  20
0.0
  30
0.0
  9
$PEXTMIN
  10
0.0
  20
0.0
  30
0.0
  9
$PLIMCHECK
  70
0
  9
$PLIMMAX
  10
0.0
  20
0.0
  9
$PLIMMIN
  10
0.0
  20
0.0
  9
$PLINEWID
  40
0.0
  9
$PUCSXDIR
  10
1.0
  20
0.0
  30
0.0
  9
$PUCSYDIR
  10
0.0
  20
1.0
  30
0.0
  9
$QTEXTMODE
  70
0
  9
$SHADEDGE
  70
3
  9
$SHADEDIF
  70
70
  9
$SKETCHINC
  40
1.0
  9
$SPLFRAME
  70
0
  9
$SPLINESEGS
  70
20
  9
$SPLINETYPE
  70
0
  9
$SURFTAB1
  70
6
  9
$SURFTAB2
  70
6
  9
$TDINDWG
  40
0.0
  9
$TDUPDATE
  40
2449702.667959
  9
$TDUSRTIMER
  40
0.0
  9
$TEXTSIZE
  40
6.779
  9
$TEXTSTYLE
  7
STANDARD
  9
$TILEMODE
  70
1
  9
$TRACEWID
  40
1.0
  9
$UCSORG
  10
0.0
  20
0.0
  30
0.0
  9
$UCSXDIR
  10
1.0
  20
0.0
  30
0.0
  9
$UCSYDIR
  10
0.0
  20
1.0
  30
0.0
  9
$UNITMODE
  70
0
  9
$WORLDVIEW
  70
1
  9
$GRIDMODE
  70
1
  9
$PINSBASE
  10
0.0
  20
0.0
  30
0.0
  9
$PSLTSCALE
  70
1
  9
$TREEDEPTH
  70
3020
  0
ENDSEC
  0
SECTION
  2
TABLES
  0
TABLE
  2
VPORT
  70
1
  0
VPORT
  2
*ACTIVE
  70
0
  10
0.0
  20
0.0
  11
1.0
  21
1.0
  12
191.640024
  22
175.839336
  13
0.0
  23
0.0
  14
5.0
  24
5.0
  15
5.0
  25
5.0
  16
0.0
  26
0.0
  36
1.0
  17
0.0
  27
0.0
  37
0.0
  40
171.606483
  41
1.591518
  42
50.0
  43
0.0
  44
0.0
  50
0.0
  51
0.0
  71
0
  72
100
  73
1
  74
1
  75
0
  76
1
  77
0
  78
0
  0
ENDTAB
  0
TABLE
  2
LTYPE
  70
12
  0
LTYPE
  2
CONTINUOUS
  70
0
  3
CONTINUOUS
  72
65
  73
0
  40
0.0
  0
LTYPE
  2
BORDER
  70
0
  3
BORDER
  72
65
  73
6
  40
1.75
  49
0.5
  49
-0.25
  49
0.5
  49
-0.25
  49
0.0
  49
-0.25
  0
LTYPE
  2
CENTER
  70
0
  3
CENTER
  72
65
  73
4
  40
2.0
  49
1.25
  49
-0.25
  49
0.25
  49
-0.25
  0
LTYPE
  2
DASHDOT
  70
0
  3
DASHDOT
  72
65
  73
4
  40
1.0
  49
0.5
  49
-0.25
  49
0.0
  49
-0.25
  0
LTYPE
  2
DASHED
  70
0
  3
DASHED
  72
65
  73
2
  40
0.75
  49
0.5
  49
-0.25
  0
LTYPE
  2
DIVIDE
  70
0
  3
DIVIDE
  72
65
  73
6
  40
1.25
  49
0.5
  49
-0.25
  49
0.0
  49
-0.25
  49
0.0
  49
-0.25
  0
LTYPE
  2
DOT
  70
0
  3
DOT
  72
65
  73
2
  40
0.25
  49
0.0
  49
-0.25
  0
LTYPE
  2
HIDDEN
  70
0
  3
HIDDEN
  72
65
  73
2
  40
0.375
  49
0.25
  49
-0.125
  0
LTYPE
  2
PHANTOM
  70
0
  3
PHANTOM
  72
65
  73
6
  40
2.5
  49
1.25
  49
-0.25
  49
0.25
  49
-0.25
  49
0.25
  49
-0.25
  0
LTYPE
  2
$AUXILIARY
  70
0
  3
$AUXILIARY
  72
65
  73
2
  40
0.1
  49
0.05
  49
-0.05
  0
LTYPE
  2
$INVISIBLE
  70
0
  3
$INVISIBLE
  72
65
  73
2
  40
200.0
  49
-100.0
  49
-100.0
  0
LTYPE
  2
AXES
  70
0
  3
AXES
  72
65
  73
4
  40
20.0
  49
12.5
  49
-2.5
  49
2.5
  49
-2.5
  0
ENDTAB
  0
TABLE
  2
LAYER
  70
1
  0
LAYER
  2
0
  70
64
  6
CONTINUOUS
  62
7
  0
ENDTAB
  0
TABLE
  2
STYLE
  70
1
  0
STYLE
  2
STANDARD
  70
0
  3
txt
  4

  40
0.0
  41
1.0
  42
0.2
  50
0.0
  71
0
  0
ENDTAB
  0
ENDSEC
  0
SECTION
  2
BLOCKS
  0
BLOCK
  8
0
  70
64
  2
Bloc_1
  10
125.55838
  20
25.439186
  30
0.0
  3
Bloc_1
  0
TEXT
  8
0
  62
82
  10
113.768379
  20
24.189186
  1
Dessiné par :
  40
3.75
  7
STANDARD
  72
5
  11
137.348373
  21
24.189186
  31
0.0
  0
ENDBLK
  0
BLOCK
  8
0
  70
64
  2
A4-V
  10
0.0
  20
0.0
  30
0.0
  3
A4-V
  0
POLYLINE
  8
0
  66
1
  70
1
  0
VERTEX
  8
0
  10
0.0
  20
0.0
  30
0.0
  0
VERTEX
  8
0
  10
190.0
  20
0.0
  30
0.0
  0
VERTEX
  8
0
  10
190.0
  20
277.0
  30
0.0
  0
VERTEX
  8
0
  10
0.0
  20
277.0
  30
0.0
  0
SEQEND
  0
ENDBLK
  0
BLOCK
  8
0
  70
64
  2
CARTOUCH
  10
0.0
  20
0.0
  30
0.0
  3
CARTOUCH
  0
SOLID
  8
0
  10
-179.75
  20
0.25
  11
-0.25
  21
0.25
  12
-179.75
  22
31.75
  13
-0.25
  23
31.75
  0
SOLID
  8
0
  10
-180.25
  20
-0.25
  11
-180.25
  21
32.25
  12
0.25
  22
-0.25
  13
0.25
  23
32.25
  0
LINE
  8
0
  62
3
  10
-150.0
  20
0.0
  11
-150.0
  21
32.0
  0
LINE
  8
0
  62
3
  10
-70.0
  20
32.0
  11
-70.0
  21
16.0
  0
LINE
  8
0
  62
3
  10
-150.0
  20
16.0
  11
0.0
  21
16.0
  0
POINT
  8
0
  62
3
  10
-150.0
  20
10.666667
  1001
ACAD
  1000
TCW30POINT
  1002
{
  1070
0
  1040
0.00001
  1000

  1070
0
  1071
65280
  1040
1.0
  1040
0.0
  1000
UNDEFINED
  1000
0
  1071
1
  1071
242
  1010
-150.0
  1020
10.666667
  1002
}
  0
POINT
  8
0
  62
3
  10
-150.0
  20
21.333334
  1001
ACAD
  1000
TCW30POINT
  1002
{
  1070
0
  1040
0.00001
  1000

  1070
0
  1071
65280
  1040
1.0
  1040
0.0
  1000
UNDEFINED
  1000
0
  1071
1
  1071
242
  1010
-150.0
  1020
21.333334
  1002
}
  0
LINE
  8
0
  62
3
  10
-150.0
  20
21.333334
  11
-180.0
  21
21.333334
  0
LINE
  8
0
  62
3
  10
-150.0
  20
10.666667
  11
-180.0
  21
10.666667
  0
LINE
  8
0
  62
3
  10
-70.0
  20
24.0
  11
0.0
  21
24.0
  0
TEXT
  8
0
  10
-141.9608
  20
21.74437
  1
AIFT INDUSTRIE
  40
5.0
  7
STANDARD
  72
5
  11
-79.854439
  21
21.74437
  31
0.0
  0
TEXT
  8
0
  62
3
  10
-68.01075
  20
28.894913
  1
dessine par :
  40
2.0
  7
STANDARD
  72
5
  11
-55.968082
  21
28.894913
  31
0.0
  0
TEXT
  8
0
  62
3
  10
-68.01075
  20
20.978732
  1
le :
  40
2.000001
  7
STANDARD
  72
5
  11
-65.000084
  21
20.978732
  31
0.0
  0
TEXT
  8
0
  62
3
  10
-177.84581
  20
25.16764
  1
Echelle:
  40
2.499999
  7
STANDARD
  72
5
  11
-167.995804
  21
25.16764
  31
0.0
  0
LINE
  8
0
  6
AXES
  62
3
  10
-176.49585
  20
16.088823
  11
-151.090744
  21
16.088823
  0
LINE
  8
0
  6
AXES
  62
3
  10
-157.740021
  20
20.277731
  11
-157.740021
  21
11.438282
  0
CIRCLE
  8
0
  62
3
  10
-157.740021
  20
16.088823
  40
4.73477
  0
CIRCLE
  8
0
  62
3
  10
-157.740021
  20
16.088823
  40
3.23018
  0
LINE
  8
0
  62
3
  10
-164.116425
  20
20.823591
  11
-164.116425
  21
11.354056
  0
LINE
  8
0
  62
3
  10
-175.346939
  20
12.858644
  11
-175.346939
  21
19.319004
  0
LINE
  8
0
  62
3
  10
-175.346939
  20
19.319004
  11
-164.116425
  21
20.823591
  0
LINE
  8
0
  62
3
  10
-175.346939
  20
12.858644
  11
-164.116425
  21
11.354056
  0
ENDBLK
  0
BLOCK
  8
0
  70
64
  2
Bloc_2
  10
90.0
  20
15.0
  30
0.0
  3
Bloc_2
  0
POLYLINE
  8
0
  6
CONTINUOUS
  62
7
  40
0.03937
  41
0.03937
  66
1
  70
1
  0
VERTEX
  8
0
  10
0.0
  20
0.0
  30
0.0
  0
VERTEX
  8
0
  10
180.0
  20
0.0
  30
0.0
  0
VERTEX
  8
0
  10
180.0
  20
30.0
  30
0.0
  0
VERTEX
  8
0
  10
0.0
  20
30.0
  30
0.0
  0
SEQEND
  0
POLYLINE
  8
0
  6
CONTINUOUS
  62
7
  40
0.007874
  41
0.007874
  66
1
  0
VERTEX
  8
0
  10
30.0
  20
30.0
  30
0.0
  0
VERTEX
  8
0
  10
30.0
  20
0.0
  30
0.0
  0
SEQEND
  0
POLYLINE
  8
0
  6
CONTINUOUS
  62
7
  40
0.007874
  41
0.007874
  66
1
  0
VERTEX
  8
0
  10
110.0
  20
30.0
  30
0.0
  0
VERTEX
  8
0
  10
110.0
  20
15.0
  30
0.0
  0
SEQEND
  0
POLYLINE
  8
0
  6
CONTINUOUS
  62
7
  40
0.007874
  41
0.007874
  66
1
  0
VERTEX
  8
0
  10
30.0
  20
15.0
  30
0.0
  0
VERTEX
  8
0
  10
180.0
  20
15.0
  30
0.0
  0
SEQEND
  0
POLYLINE
  8
0
  6
CONTINUOUS
  62
7
  40
0.007874
  41
0.007874
  66
1
  0
VERTEX
  8
0
  10
110.0
  20
22.5
  30
0.0
  0
VERTEX
  8
0
  10
180.0
  20
22.5
  30
0.0
  0
SEQEND
  0
POLYLINE
  8
0
  6
CONTINUOUS
  62
7
  40
0.007874
  41
0.007874
  66
1
  0
VERTEX
  8
0
  10
0.0
  20
20.0
  30
0.0
  0
VERTEX
  8
0
  10
30.0
  20
20.0
  30
0.0
  0
SEQEND
  0
POLYLINE
  8
0
  6
CONTINUOUS
  62
7
  40
0.007874
  41
0.007874
  66
1
  0
VERTEX
  8
0
  10
0.0
  20
10.0
  30
0.0
  0
VERTEX
  8
0
  10
30.0
  20
10.0
  30
0.0
  0
SEQEND
  0
CIRCLE
  8
0
  6
CONTINUOUS
  62
70
  210
0.0
  220
0.098069
  230
0.99518
  10
-19.832396
  20
-14.779912
  30
1.456479
  40
3.317184
  0
CIRCLE
  8
0
  6
CONTINUOUS
  62
70
  210
0.0
  220
0.098067
  230
0.99518
  10
-19.832396
  20
-14.779916
  30
1.456436
  40
1.658592
  0
POLYLINE
  8
0
  6
CONTINUOUS
  62
70
  40
0.007874
  41
0.007874
  66
1
  0
VERTEX
  8
0
  10
13.198025
  20
18.152697
  30
0.0
  0
VERTEX
  8
0
  10
13.198025
  20
11.55031
  30
0.0
  0
SEQEND
  0
POLYLINE
  8
0
  6
CONTINUOUS
  62
70
  40
0.007874
  41
0.007874
  66
1
  0
VERTEX
  8
0
  10
6.697942
  20
16.641684
  30
0.0
  0
VERTEX
  8
0
  10
6.697942
  20
13.200907
  30
0.0
  0
SEQEND
  0
POLYLINE
  8
0
  6
CONTINUOUS
  62
70
  40
0.007874
  41
0.007874
  66
1
  0
VERTEX
  8
0
  10
13.198025
  20
18.152697
  30
0.0
  0
VERTEX
  8
0
  10
6.697942
  20
16.641684
  30
0.0
  0
SEQEND
  0
POLYLINE
  8
0
  6
CONTINUOUS
  62
70
  40
0.007874
  41
0.007874
  66
1
  0
VERTEX
  8
0
  10
13.198025
  20
11.55031
  30
0.0
  0
VERTEX
  8
0
  10
6.697942
  20
13.200907
  30
0.0
  0
SEQEND
  0
POLYLINE
  8
0
  6
DASHDOT
  62
70
  40
0.007874
  41
0.007874
  66
1
  0
VERTEX
  8
0
  10
4.905061
  20
14.851502
  30
0.0
  0
VERTEX
  8
0
  10
24.808172
  20
14.851502
  30
0.0
  0
SEQEND
  0
POLYLINE
  8
0
  6
DASHDOT
  62
70
  40
0.007874
  41
0.007874
  66
1
  0
VERTEX
  8
0
  10
19.832396
  20
19.803291
  30
0.0
  0
VERTEX
  8
0
  10
19.832396
  20
9.899714
  30
0.0
  0
SEQEND
  0
TEXT
  8
0
  62
150
  10
42.530231
  20
21.188855
  1
aift industrie
  40
5.795903
  7
STANDARD
  72
5
  11
100.782715
  21
21.188855
  31
0.0
  0
TEXT
  8
0
  62
82
  10
4.037598
  20
21.689184
  1
Echelle:
  40
3.75
  7
STANDARD
  72
5
  11
18.837597
  21
21.689184
  31
0.0
  0
TEXT
  8
0
  62
82
  10
115.206894
  20
17.234102
  1
Le:
  40
3.75
  7
STANDARD
  72
5
  11
121.226891
  21
17.234102
  31
0.0
  0
TEXT
  8
0
  62
82
  10
113.149826
  20
24.638334
  1
Dessine par : G. Maillard
  40
3.75
  7
STANDARD
  72
5
  11
158.93483
  21
24.638334
  31
0.0
  0
ENDBLK
  0
BLOCK
  8
0
  70
65
  2
*G4
  10
0.0
  20
0.0
  30
0.0
  3
*G
  0
POLYLINE
  8
0
  6
CONTINUOUS
  62
7
  40
0.03937
  41
0.03937
  66
1
  70
9
  0
VERTEX
  8
0
  10
152.453522
  20
98.175125
  30
7.405934
  70
32
  0
VERTEX
  8
0
  10
287.546478
  20
98.175125
  30
7.405934
  70
32
  0
VERTEX
  8
0
  10
287.546478
  20
115.723473
  30
7.405934
  70
32
  0
VERTEX
  8
0
  10
152.453522
  20
115.723473
  30
7.405934
  70
32
  0
SEQEND
  0
POLYLINE
  8
0
  6
CONTINUOUS
  62
7
  40
0.007874
  41
0.007874
  66
1
  70
8
  0
VERTEX
  8
0
  10
174.969009
  20
115.723473
  30
7.405934
  70
32
  0
VERTEX
  8
0
  10
174.969009
  20
98.175125
  30
7.405934
  70
32
  0
SEQEND
  0
POLYLINE
  8
0
  6
CONTINUOUS
  62
7
  40
0.007874
  41
0.007874
  66
1
  70
8
  0
VERTEX
  8
0
  10
235.01033
  20
115.723473
  30
7.405934
  70
32
  0
VERTEX
  8
0
  10
235.01033
  20
106.74189
  30
7.405934
  70
32
  0
SEQEND
  0
POLYLINE
  8
0
  6
CONTINUOUS
  62
7
  40
0.007874
  41
0.007874
  66
1
  70
8
  0
VERTEX
  8
0
  10
174.969009
  20
110.388962
  30
7.405934
  70
32
  0
VERTEX
  8
0
  10
152.453522
  20
110.388962
  30
7.405934
  70
32
  0
SEQEND
  0
POLYLINE
  8
0
  6
CONTINUOUS
  62
7
  40
0.007874
  41
0.007874
  66
1
  70
8
  0
VERTEX
  8
0
  10
174.910583
  20
104.401184
  30
7.405934
  70
32
  0
VERTEX
  8
0
  10
152.453522
  20
104.401184
  30
7.405934
  70
32
  0
SEQEND
  0
POLYLINE
  8
0
  6
CONTINUOUS
  62
7
  40
0.007874
  41
0.007874
  66
1
  70
8
  0
VERTEX
  8
0
  10
287.546478
  20
106.74189
  30
7.405934
  70
32
  0
VERTEX
  8
0
  10
174.969009
  20
106.74189
  30
7.405934
  70
32
  0
SEQEND
  0
POLYLINE
  8
0
  6
CONTINUOUS
  62
82
  40
0.015748
  41
0.015748
  66
1
  70
8
  0
VERTEX
  8
0
  10
163.073212
  20
109.457703
  30
7.405934
  70
32
  0
VERTEX
  8
0
  10
163.073212
  20
105.38961
  30
7.405934
  70
32
  0
SEQEND
  0
POLYLINE
  8
0
  6
CENTER
  62
82
  40
0.007874
  41
0.007874
  66
1
  70
8
  0
VERTEX
  8
0
  10
154.163147
  20
107.42366
  30
7.405934
  70
32
  0
VERTEX
  8
0
  10
172.832611
  20
107.42366
  30
7.405934
  70
32
  0
SEQEND
  0
POLYLINE
  8
0
  6
CENTER
  62
82
  40
0.007874
  41
0.007874
  66
1
  70
8
  0
VERTEX
  8
0
  10
168.733307
  20
110.267776
  30
7.405934
  70
32
  0
VERTEX
  8
0
  10
168.733307
  20
104.522308
  30
7.405934
  70
32
  0
SEQEND
  0
CIRCLE
  8
0
  6
CONTINUOUS
  62
82
  210
0.0
  220
0.654112
  230
0.756398
  10
-168.733307
  20
-76.410745
  30
75.868891
  40
2.542297
  0
CIRCLE
  8
0
  6
CONTINUOUS
  62
82
  210
0.0
  220
0.654107
  230
0.756402
  10
-168.733307
  20
-76.411162
  30
75.868472
  40
1.256134
  0
POLYLINE
  8
0
  6
CONTINUOUS
  62
82
  40
0.015748
  41
0.015748
  66
1
  70
8
  0
VERTEX
  8
0
  10
155.529617
  20
108.373802
  30
7.405934
  70
32
  0
VERTEX
  8
0
  10
155.529617
  20
106.473518
  30
7.405934
  70
32
  0
SEQEND
  0
POLYLINE
  8
0
  6
CONTINUOUS
  62
82
  40
0.015748
  41
0.015748
  66
1
  70
8
  0
VERTEX
  8
0
  10
163.073212
  20
109.457703
  30
7.405934
  70
32
  0
VERTEX
  8
0
  10
155.529617
  20
108.373802
  30
7.405934
  70
32
  0
SEQEND
  0
POLYLINE
  8
0
  6
CONTINUOUS
  62
82
  40
0.015748
  41
0.015748
  66
1
  70
8
  0
VERTEX
  8
0
  10
163.073212
  20
105.38961
  30
7.405934
  70
32
  0
VERTEX
  8
0
  10
155.529617
  20
106.473518
  30
7.405934
  70
32
  0
SEQEND
  0
TEXT
  8
0
  62
82
  10
153.276138
  20
112.383253
  30
7.405934
  1
Echelle:
  40
2.245394
  7
STANDARD
  72
5
  11
164.383759
  21
112.383253
  31
7.405934
  0
POLYLINE
  8
0
  6
CONTINUOUS
  62
7
  40
0.015748
  41
0.015748
  66
1
  70
8
  0
VERTEX
  8
0
  10
287.546478
  20
111.232651
  30
7.405934
  70
32
  0
VERTEX
  8
0
  10
235.01033
  20
111.232651
  30
7.405934
  70
32
  0
SEQEND
  0
TEXT
  8
0
  62
82
  10
237.156769
  20
108.255362
  30
7.405934
  1
Le :
  40
2.245394
  7
STANDARD
  72
5
  11
242.52298
  21
108.255362
  31
7.405934
  0
TEXT
  8
0
  62
150
  10
182.477646
  20
110.080946
  30
7.405934
  1
AIFT INDUSTRIE
  40
3.36133
  7
STANDARD
  72
5
  11
227.565277
  21
110.080946
  31
7.405934
  0
TEXT
  8
0
  62
82
  10
238.356537
  20
112.662619
  30
7.405934
  1
Dessiné par : G. Maillard
  40
2.24544
  7
STANDARD
  72
5
  11
272.718964
  21
112.662619
  31
7.405934
  0
ENDBLK
  0
BLOCK
  8
0
  70
65
  2
*H5
  10
0.0
  20
0.0
  30
0.0
  3
*H
  0
LINE
  8
0
  6
CONTINUOUS
  62
7
  10
174.093734
  20
195.306946
  11
176.387123
  21
197.600334
  0
LINE
  8
0
  6
CONTINUOUS
  62
7
  10
170.5582
  20
195.306946
  11
173.158206
  21
197.906952
  0
LINE
  8
0
  6
CONTINUOUS
  62
7
  10
167.022667
  20
195.306946
  11
169.622673
  21
197.906952
  0
LINE
  8
0
  6
CONTINUOUS
  62
7
  10
174.422659
  20
202.706938
  11
176.801586
  21
205.085865
  0
LINE
  8
0
  6
CONTINUOUS
  62
7
  10
162.238926
  20
194.058739
  11
166.087139
  21
197.906952
  0
LINE
  8
0
  6
CONTINUOUS
  62
7
  10
170.887122
  20
202.706935
  11
173.487132
  21
205.306946
  0
LINE
  8
0
  6
CONTINUOUS
  62
7
  10
157.001718
  20
192.357065
  11
162.551605
  21
197.906952
  0
LINE
  8
0
  6
CONTINUOUS
  62
7
  10
167.351585
  20
202.706932
  11
169.951599
  21
205.306946
  0
LINE
  8
0
  6
CONTINUOUS
  62
7
  10
154.973996
  20
193.864877
  11
159.016071
  21
197.906952
  0
LINE
  8
0
  6
CONTINUOUS
  62
7
  10
163.816048
  20
202.706929
  11
166.416065
  21
205.306946
  0
LINE
  8
0
  6
CONTINUOUS
  62
7
  10
154.961091
  20
197.387506
  11
157.37333
  21
199.799745
  0
LINE
  8
0
  6
CONTINUOUS
  62
7
  10
160.280511
  20
202.706926
  11
163.665284
  21
206.091699
  0
LINE
  8
0
  6
CONTINUOUS
  62
7
  10
154.571644
  20
200.533593
  11
160.996795
  21
206.958744
  0
LINE
  8
0
  6
CONTINUOUS
  62
7
  10
154.633165
  20
204.130648
  11
158.328306
  21
207.825788
  0
ENDBLK
  0
BLOCK
  8
0
  70
65
  2
*D6
  10
0.0
  20
0.0
  30
0.0
  3
*D
  0
LINE
  8
0
  6
CONTINUOUS
  62
1
  10
147.61441
  20
211.306946
  11
134.13391
  21
215.687027
  0
LINE
  8
0
  6
CONTINUOUS
  62
1
  10
147.61441
  20
189.306946
  11
134.13391
  21
184.926864
  0
ARC
  8
0
  6
CONTINUOUS
  62
1
  10
181.468918
  20
200.306946
  40
46.770974
  50
-176.850335
  51
-166.901603
  0
ARC
  8
0
  6
CONTINUOUS
  62
1
  10
181.468918
  20
200.306946
  40
46.770974
  50
166.901603
  51
176.850335
  0
SOLID
  8
0
  6
CONTINUOUS
  62
1
  10
136.98708
  20
214.759976
  11
135.413848
  21
211.045768
  12
136.98708
  22
214.759976
  13
136.415785
  23
210.766979
  0
SOLID
  8
0
  6
CONTINUOUS
  62
1
  10
136.98708
  20
185.853916
  11
136.415785
  21
189.846912
  12
136.98708
  22
185.853916
  13
135.413848
  23
189.568124
  0
TEXT
  8
0
  62
7
  10
131.988946
  20
199.236196
  1
36%%d
  40
3.21225
  7
STANDARD
  72
5
  11
137.406941
  21
199.236196
  31
0.0
  0
ENDBLK
  0
BLOCK
  8
0
  70
65
  2
*D7
  10
0.0
  20
0.0
  30
0.0
  3
*D
  0
LINE
  8
0
  6
CONTINUOUS
  62
1
  10
103.612732
  20
200.306931
  11
103.612732
  21
230.992935
  0
LINE
  8
0
  6
CONTINUOUS
  62
1
  10
125.612732
  20
200.306946
  11
125.612732
  21
230.992935
  0
POLYLINE
  8
0
  6
CONTINUOUS
  62
1
  66
1
  0
VERTEX
  8
0
  10
107.612732
  20
227.992935
  30
0.0
  0
VERTEX
  8
0
  10
107.612732
  20
227.992935
  30
0.0
  0
VERTEX
  8
0
  10
107.612732
  20
227.992935
  30
0.0
  0
VERTEX
  8
0
  10
114.612732
  20
227.992935
  30
0.0
  0
SEQEND
  0
POLYLINE
  8
0
  6
CONTINUOUS
  62
1
  66
1
  0
VERTEX
  8
0
  10
121.612732
  20
227.992935
  30
0.0
  0
VERTEX
  8
0
  10
121.612732
  20
227.992935
  30
0.0
  0
VERTEX
  8
0
  10
121.612732
  20
227.992935
  30
0.0
  0
VERTEX
  8
0
  10
114.612732
  20
227.992935
  30
0.0
  0
SEQEND
  0
SOLID
  8
0
  6
CONTINUOUS
  62
1
  10
103.612732
  20
227.992935
  11
107.612732
  21
227.472935
  12
103.612732
  22
227.992935
  13
107.612732
  23
228.512935
  0
SOLID
  8
0
  6
CONTINUOUS
  62
1
  10
125.612732
  20
227.992935
  11
121.612732
  21
228.512935
  12
125.612732
  22
227.992935
  13
121.612732
  23
227.472935
  0
TEXT
  8
0
  62
7
  10
110.796579
  20
230.563685
  1
%%c 22
  40
3.21225
  7
STANDARD
  72
5
  11
118.428885
  21
230.563685
  31
0.0
  0
ENDBLK
  0
BLOCK
  8
0
  70
65
  2
*D8
  10
0.0
  20
0.0
  30
0.0
  3
*D
  0
LINE
  8
0
  6
CONTINUOUS
  62
1
  10
177.080505
  20
204.806946
  11
177.080505
  21
220.099411
  0
LINE
  8
0
  6
CONTINUOUS
  62
1
  10
166.080505
  20
205.306946
  11
166.080505
  21
220.099411
  0
LINE
  8
0
  6
CONTINUOUS
  62
1
  10
185.080505
  20
217.099411
  11
181.080505
  21
217.099411
  0
LINE
  8
0
  6
CONTINUOUS
  62
1
  10
177.080505
  20
217.099411
  11
171.580505
  21
217.099411
  0
LINE
  8
0
  6
CONTINUOUS
  62
1
  10
158.080505
  20
217.099411
  11
162.080505
  21
217.099411
  0
LINE
  8
0
  6
CONTINUOUS
  62
1
  10
166.080505
  20
217.099411
  11
171.580505
  21
217.099411
  0
SOLID
  8
0
  6
CONTINUOUS
  62
1
  10
166.080505
  20
217.099411
  11
162.080505
  21
217.619411
  12
166.080505
  22
217.099411
  13
162.080505
  23
216.579411
  0
SOLID
  8
0
  6
CONTINUOUS
  62
1
  10
177.080505
  20
217.099411
  11
181.080505
  21
216.579411
  12
177.080505
  22
217.099411
  13
181.080505
  23
217.619411
  0
TEXT
  8
0
  62
7
  10
169.644589
  20
219.670161
  1
11
  40
3.21225
  7
STANDARD
  72
5
  11
173.516421
  21
219.670161
  31
0.0
  0
ENDBLK
  0
BLOCK
  8
0
  70
65
  2
*D9
  10
0.0
  20
0.0
  30
0.0
  3
*D
  0
LINE
  8
0
  6
CONTINUOUS
  62
1
  10
177.080505
  20
204.806946
  11
177.080505
  21
232.967545
  0
LINE
  8
0
  6
CONTINUOUS
  62
1
  10
142.080505
  20
210.806946
  11
142.080505
  21
232.967545
  0
POLYLINE
  8
0
  6
CONTINUOUS
  62
1
  66
1
  0
VERTEX
  8
0
  10
173.080505
  20
229.967545
  30
0.0
  0
VERTEX
  8
0
  10
173.080505
  20
229.967545
  30
0.0
  0
VERTEX
  8
0
  10
173.080505
  20
229.967545
  30
0.0
  0
VERTEX
  8
0
  10
159.580505
  20
229.967545
  30
0.0
  0
SEQEND
  0
POLYLINE
  8
0
  6
CONTINUOUS
  62
1
  66
1
  0
VERTEX
  8
0
  10
146.080505
  20
229.967545
  30
0.0
  0
VERTEX
  8
0
  10
146.080505
  20
229.967545
  30
0.0
  0
VERTEX
  8
0
  10
146.080505
  20
229.967545
  30
0.0
  0
VERTEX
  8
0
  10
159.580505
  20
229.967545
  30
0.0
  0
SEQEND
  0
SOLID
  8
0
  6
CONTINUOUS
  62
1
  10
177.080505
  20
229.967545
  11
173.080505
  21
230.487545
  12
177.080505
  22
229.967545
  13
173.080505
  23
229.447545
  0
SOLID
  8
0
  6
CONTINUOUS
  62
1
  10
142.080505
  20
229.967545
  11
146.080505
  21
229.447545
  12
142.080505
  22
229.967545
  13
146.080505
  23
230.487545
  0
TEXT
  8
0
  62
7
  10
157.644589
  20
232.538295
  1
35
  40
3.21225
  7
STANDARD
  72
5
  11
161.516421
  21
232.538295
  31
0.0
  0
ENDBLK
  0
BLOCK
  8
0
  70
65
  2
*D10
  10
0.0
  20
0.0
  30
0.0
  3
*D
  0
LINE
  8
0
  6
CONTINUOUS
  62
1
  10
177.080505
  20
195.806946
  11
177.080505
  21
184.084656
  0
LINE
  8
0
  6
CONTINUOUS
  62
1
  10
162.080505
  20
197.306946
  11
162.080505
  21
184.084656
  0
POLYLINE
  8
0
  6
CONTINUOUS
  62
1
  66
1
  0
VERTEX
  8
0
  10
173.080505
  20
187.084656
  30
0.0
  0
VERTEX
  8
0
  10
173.080505
  20
187.084656
  30
0.0
  0
VERTEX
  8
0
  10
173.080505
  20
187.084656
  30
0.0
  0
VERTEX
  8
0
  10
169.580505
  20
187.084656
  30
0.0
  0
SEQEND
  0
POLYLINE
  8
0
  6
CONTINUOUS
  62
1
  66
1
  0
VERTEX
  8
0
  10
166.080505
  20
187.084656
  30
0.0
  0
VERTEX
  8
0
  10
166.080505
  20
187.084656
  30
0.0
  0
VERTEX
  8
0
  10
166.080505
  20
187.084656
  30
0.0
  0
VERTEX
  8
0
  10
169.580505
  20
187.084656
  30
0.0
  0
SEQEND
  0
SOLID
  8
0
  6
CONTINUOUS
  62
1
  10
177.080505
  20
187.084656
  11
173.080505
  21
187.604656
  12
177.080505
  22
187.084656
  13
173.080505
  23
186.564656
  0
SOLID
  8
0
  6
CONTINUOUS
  62
1
  10
162.080505
  20
187.084656
  11
166.080505
  21
186.564656
  12
162.080505
  22
187.084656
  13
166.080505
  23
187.604656
  0
TEXT
  8
0
  62
7
  10
167.644589
  20
189.655406
  1
15
  40
3.21225
  7
STANDARD
  72
5
  11
171.516421
  21
189.655406
  31
0.0
  0
ENDBLK
  0
BLOCK
  8
0
  70
65
  2
*D11
  10
0.0
  20
0.0
  30
0.0
  3
*D
  0
LINE
  8
0
  6
CONTINUOUS
  62
1
  10
177.080505
  20
195.806946
  11
177.080505
  21
175.922745
  0
LINE
  8
0
  6
CONTINUOUS
  62
1
  10
157.08049
  20
200.306931
  11
157.08049
  21
175.922745
  0
POLYLINE
  8
0
  6
CONTINUOUS
  62
1
  66
1
  0
VERTEX
  8
0
  10
173.080505
  20
178.922745
  30
0.0
  0
VERTEX
  8
0
  10
173.080505
  20
178.922745
  30
0.0
  0
VERTEX
  8
0
  10
173.080505
  20
178.922745
  30
0.0
  0
VERTEX
  8
0
  10
167.080498
  20
178.922745
  30
0.0
  0
SEQEND
  0
POLYLINE
  8
0
  6
CONTINUOUS
  62
1
  66
1
  0
VERTEX
  8
0
  10
161.08049
  20
178.922745
  30
0.0
  0
VERTEX
  8
0
  10
161.08049
  20
178.922745
  30
0.0
  0
VERTEX
  8
0
  10
161.08049
  20
178.922745
  30
0.0
  0
VERTEX
  8
0
  10
167.080498
  20
178.922745
  30
0.0
  0
SEQEND
  0
SOLID
  8
0
  6
CONTINUOUS
  62
1
  10
177.080505
  20
178.922745
  11
173.080505
  21
179.442745
  12
177.080505
  22
178.922745
  13
173.080505
  23
178.402745
  0
SOLID
  8
0
  6
CONTINUOUS
  62
1
  10
157.08049
  20
178.922745
  11
161.08049
  21
178.402745
  12
157.08049
  22
178.922745
  13
161.08049
  23
179.442745
  0
TEXT
  8
0
  62
7
  10
165.144582
  20
181.493495
  1
20
  40
3.21225
  7
STANDARD
  72
5
  11
169.016414
  21
181.493495
  31
0.0
  0
ENDBLK
  0
BLOCK
  8
0
  70
65
  2
*D12
  10
0.0
  20
0.0
  30
0.0
  3
*D
  0
LINE
  8
0
  6
CONTINUOUS
  62
1
  10
176.580505
  20
197.306946
  11
178.122867
  21
197.306946
  0
LINE
  8
0
  6
CONTINUOUS
  62
1
  10
183.262467
  20
197.306946
  11
187.334167
  21
197.306946
  0
LINE
  8
0
  6
CONTINUOUS
  62
1
  10
176.580505
  20
203.306946
  11
178.122867
  21
203.306946
  0
LINE
  8
0
  6
CONTINUOUS
  62
1
  10
183.262467
  20
203.306946
  11
187.334167
  21
203.306946
  0
LINE
  8
0
  6
CONTINUOUS
  62
1
  10
184.334167
  20
189.306946
  11
184.334167
  21
193.306946
  0
LINE
  8
0
  6
CONTINUOUS
  62
1
  10
184.334167
  20
197.306946
  11
184.334167
  21
200.306946
  0
LINE
  8
0
  6
CONTINUOUS
  62
1
  10
184.334167
  20
211.306946
  11
184.334167
  21
207.306946
  0
LINE
  8
0
  6
CONTINUOUS
  62
1
  10
184.334167
  20
203.306946
  11
184.334167
  21
200.306946
  0
SOLID
  8
0
  6
CONTINUOUS
  62
1
  10
184.334167
  20
203.306946
  11
184.854167
  21
207.306946
  12
184.334167
  22
203.306946
  13
183.814167
  23
207.306946
  0
SOLID
  8
0
  6
CONTINUOUS
  62
1
  10
184.334167
  20
197.306946
  11
183.814167
  21
193.306946
  12
184.334167
  22
197.306946
  13
184.854167
  23
193.306946
  0
TEXT
  8
0
  62
7
  10
181.763417
  20
197.619363
  1
M6
  40
3.21225
  50
90.0
  7
STANDARD
  72
5
  11
181.763417
  21
202.994528
  31
0.0
  0
ENDBLK
  0
BLOCK
  8
0
  70
65
  2
*D13
  10
0.0
  20
0.0
  30
0.0
  3
*D
  0
LINE
  8
0
  6
CONTINUOUS
  62
1
  10
176.58049
  20
205.306931
  11
188.682213
  21
205.306931
  0
LINE
  8
0
  6
CONTINUOUS
  62
1
  10
198.961413
  20
205.306931
  11
202.604813
  21
205.306931
  0
LINE
  8
0
  6
CONTINUOUS
  62
1
  10
176.580505
  20
195.306946
  11
188.682213
  21
195.306946
  0
LINE
  8
0
  6
CONTINUOUS
  62
1
  10
198.961413
  20
195.306946
  11
202.604813
  21
195.306946
  0
LINE
  8
0
  6
CONTINUOUS
  62
1
  10
199.604813
  20
213.306931
  11
199.604813
  21
209.306931
  0
LINE
  8
0
  6
CONTINUOUS
  62
1
  10
199.604813
  20
205.306931
  11
199.604813
  21
200.306938
  0
LINE
  8
0
  6
CONTINUOUS
  62
1
  10
199.604813
  20
187.306946
  11
199.604813
  21
191.306946
  0
LINE
  8
0
  6
CONTINUOUS
  62
1
  10
199.604813
  20
195.306946
  11
199.604813
  21
200.306938
  0
SOLID
  8
0
  6
CONTINUOUS
  62
1
  10
199.604813
  20
195.306946
  11
199.084813
  21
191.306946
  12
199.604813
  22
195.306946
  13
200.124813
  23
191.306946
  0
SOLID
  8
0
  6
CONTINUOUS
  62
1
  10
199.604813
  20
205.306931
  11
200.124813
  21
209.306931
  12
199.604813
  22
205.306931
  13
199.084813
  23
209.306931
  0
TEXT
  8
0
  62
7
  10
194.892563
  20
193.426299
  1
%%c 10
  40
3.21225
  50
90.0
  7
STANDARD
  72
5
  11
194.892563
  21
201.058605
  31
0.0
  0
TEXT
  8
0
  62
7
  10
192.751063
  20
201.058605
  1
+0
  40
3.21225
  50
90.0
  7
STANDARD
  72
5
  11
192.751063
  21
205.174568
  31
0.0
  0
TEXT
  8
0
  62
7
  10
197.034063
  20
201.058605
  1
-0,2
  40
3.21225
  50
90.0
  7
STANDARD
  72
5
  11
197.034063
  21
207.187578
  31
0.0
  0
ENDBLK
  0
BLOCK
  8
0
  70
65
  2
*A14
  10
0.0
  20
0.0
  30
0.0
  3
*A
  0
POLYLINE
  8
0
  6
CONTINUOUS
  62
1
  66
1
  0
VERTEX
  8
0
  10
178.647406
  20
191.983208
  30
0.0
  0
VERTEX
  8
0
  10
184.851028
  20
179.99086
  30
0.0
  0
VERTEX
  8
0
  10
188.851028
  20
179.99086
  30
0.0
  0
VERTEX
  8
0
  10
204.480645
  20
179.99086
  30
0.0
  0
SEQEND
  0
SOLID
  8
0
  6
CONTINUOUS
  62
1
  10
176.809555
  20
195.535995
  11
178.185544
  21
191.744287
  12
176.809555
  22
195.535995
  13
179.109269
  23
192.222128
  0
TEXT
  8
0
  62
7
  10
190.351028
  20
182.56161
  1
0.5 x 45°
  40
3.21225
  7
STANDARD
  72
5
  11
204.480645
  21
182.56161
  31
0.0
  0
ENDBLK
  0
BLOCK
  8
0
  70
65
  2
*A15
  10
0.0
  20
0.0
  30
0.0
  3
*A
  0
POLYLINE
  8
0
  6
CONTINUOUS
  62
1
  66
1
  0
VERTEX
  8
0
  10
140.758491
  20
185.846447
  30
0.0
  0
VERTEX
  8
0
  10
138.116714
  20
179.923706
  30
0.0
  0
VERTEX
  8
0
  10
134.116714
  20
179.923706
  30
0.0
  0
VERTEX
  8
0
  10
118.487097
  20
179.923706
  30
0.0
  0
SEQEND
  0
SOLID
  8
0
  6
CONTINUOUS
  62
1
  10
142.387909
  20
189.499527
  11
140.28359
  21
186.058271
  12
142.387909
  22
189.499527
  13
141.233391
  23
185.634622
  0
TEXT
  8
0
  62
7
  10
118.487097
  20
182.494456
  1
0.5 x 45°
  40
3.21225
  7
STANDARD
  72
5
  11
132.616714
  21
182.494456
  31
0.0
  0
ENDBLK
  0
BLOCK
  8
0
  70
65
  2
*G16
  10
0.0
  20
0.0
  30
0.0
  3
*G
  0
POLYLINE
  8
0
  6
CONTINUOUS
  62
7
  40
0.007874
  41
0.007874
  66
1
  70
8
  0
VERTEX
  8
0
  10
214.723633
  20
137.149445
  30
7.103367
  70
32
  0
VERTEX
  8
0
  10
215.663712
  20
135.556168
  30
7.103367
  70
32
  0
VERTEX
  8
0
  10
218.131409
  20
138.634399
  30
7.103367
  70
32
  0
VERTEX
  8
0
  10
224.006882
  20
138.634399
  30
7.103367
  70
32
  0
SEQEND
  0
TEXT
  8
0
  62
7
  10
244.262909
  20
135.731514
  30
7.033605
  1
Tolérance générale ISO 2768 f K
  40
1.885551
  7
STANDARD
  72
5
  11
282.518677
  21
135.731514
  31
7.033605
  0
TEXT
  8
0
  62
7
  10
218.12413
  20
135.874851
  30
7.033605
  1
Sauf indication
  40
1.885586
  7
STANDARD
  72
5
  11
235.618973
  21
135.874851
  31
7.033605
  0
TEXT
  8
0
  62
7
  10
209.78241
  20
138.240662
  30
7.033605
  1
Ra 3.2
  40
1.376312
  7
STANDARD
  72
5
  11
216.560654
  21
138.240662
  31
7.033605
  0
TEXT
  8
0
  62
7
  10
186.685165
  20
136.174061
  30
7.033605
  1
Usinage général
  40
1.885586
  7
STANDARD
  72
5
  11
205.29097
  21
136.174061
  31
7.033605
  0
ENDBLK
  0
BLOCK
  8
0
  70
65
  2
*D17
  10
0.0
  20
0.0
  30
0.0
  3
*D
  0
LINE
  8
0
  6
CONTINUOUS
  62
1
  10
264.5
  20
211.0
  11
279.860443
  21
211.0
  0
LINE
  8
0
  6
CONTINUOUS
  62
1
  10
264.5
  20
189.0
  11
279.860443
  21
189.0
  0
LINE
  8
0
  6
CONTINUOUS
  62
1
  10
276.860443
  20
219.0
  11
276.860443
  21
215.0
  0
LINE
  8
0
  6
CONTINUOUS
  62
1
  10
276.860443
  20
211.0
  11
276.860443
  21
200.0
  0
LINE
  8
0
  6
CONTINUOUS
  62
1
  10
276.860443
  20
181.0
  11
276.860443
  21
185.0
  0
LINE
  8
0
  6
CONTINUOUS
  62
1
  10
276.860443
  20
189.0
  11
276.860443
  21
200.0
  0
SOLID
  8
0
  6
CONTINUOUS
  62
1
  10
276.860443
  20
189.0
  11
276.340443
  21
185.0
  12
276.860443
  22
189.0
  13
277.380443
  23
185.0
  0
SOLID
  8
0
  6
CONTINUOUS
  62
1
  10
276.860443
  20
211.0
  11
277.380443
  21
215.0
  12
276.860443
  22
211.0
  13
276.340443
  23
215.0
  0
TEXT
  8
0
  62
7
  10
272.148193
  20
193.11936
  1
%%c 22
  40
3.21225
  50
90.0
  7
STANDARD
  72
5
  11
272.148193
  21
200.751667
  31
0.0
  0
TEXT
  8
0
  62
7
  10
270.006693
  20
200.751667
  1
+0
  40
3.21225
  50
90.0
  7
STANDARD
  72
5
  11
270.006693
  21
204.86763
  31
0.0
  0
TEXT
  8
0
  62
7
  10
274.289693
  20
200.751667
  1
-0,2
  40
3.21225
  50
90.0
  7
STANDARD
  72
5
  11
274.289693
  21
206.88064
  31
0.0
  0
ENDBLK
  0
BLOCK
  8
0
  70
65
  2
*D18
  10
0.0
  20
0.0
  30
0.0
  3
*D
  0
LINE
  8
0
  6
CONTINUOUS
  62
1
  10
225.0
  20
200.0
  11
225.0
  21
216.875472
  0
LINE
  8
0
  6
CONTINUOUS
  62
1
  10
235.0
  20
200.0
  11
235.0
  21
216.875472
  0
LINE
  8
0
  6
CONTINUOUS
  62
1
  10
217.0
  20
215.803772
  11
221.0
  21
215.803772
  0
LINE
  8
0
  6
CONTINUOUS
  62
1
  10
225.0
  20
215.803772
  11
230.0
  21
215.803772
  0
LINE
  8
0
  6
CONTINUOUS
  62
1
  10
243.0
  20
215.803772
  11
239.0
  21
215.803772
  0
LINE
  8
0
  6
CONTINUOUS
  62
1
  10
235.0
  20
215.803772
  11
230.0
  21
215.803772
  0
SOLID
  8
0
  6
CONTINUOUS
  62
1
  10
235.0
  20
215.803772
  11
239.0
  21
215.283772
  12
235.0
  22
215.803772
  13
239.0
  23
216.323772
  0
SOLID
  8
0
  6
CONTINUOUS
  62
1
  10
225.0
  20
215.803772
  11
221.0
  21
216.323772
  12
225.0
  22
215.803772
  13
221.0
  23
215.283772
  0
TEXT
  8
0
  62
7
  10
223.335652
  20
218.374522
  1
%%c 10 H8
  40
3.21225
  7
STANDARD
  72
5
  11
236.664348
  21
218.374522
  31
0.0
  0
ENDBLK
  0
BLOCK
  8
0
  70
65
  2
*D19
  10
0.0
  20
0.0
  30
0.0
  3
*D
  0
LINE
  8
0
  6
CONTINUOUS
  62
1
  10
260.0
  20
210.5
  11
260.0
  21
219.132292
  0
LINE
  8
0
  6
CONTINUOUS
  62
1
  10
265.0
  20
210.5
  11
265.0
  21
219.132292
  0
LINE
  8
0
  6
CONTINUOUS
  62
1
  10
252.0
  20
218.488892
  11
256.0
  21
218.488892
  0
LINE
  8
0
  6
CONTINUOUS
  62
1
  10
260.0
  20
218.488892
  11
262.5
  21
218.488892
  0
LINE
  8
0
  6
CONTINUOUS
  62
1
  10
273.0
  20
218.488892
  11
269.0
  21
218.488892
  0
LINE
  8
0
  6
CONTINUOUS
  62
1
  10
265.0
  20
218.488892
  11
262.5
  21
218.488892
  0
SOLID
  8
0
  6
CONTINUOUS
  62
1
  10
265.0
  20
218.488892
  11
269.0
  21
217.968892
  12
265.0
  22
218.488892
  13
269.0
  23
219.008892
  0
SOLID
  8
0
  6
CONTINUOUS
  62
1
  10
260.0
  20
218.488892
  11
256.0
  21
219.008892
  12
260.0
  22
218.488892
  13
256.0
  23
217.968892
  0
TEXT
  8
0
  62
7
  10
258.467556
  20
223.201142
  1
5
  40
3.21225
  7
STANDARD
  72
5
  11
260.403472
  21
223.201142
  31
0.0
  0
TEXT
  8
0
  62
7
  10
260.403472
  20
225.342642
  1
+0
  40
3.21225
  7
STANDARD
  72
5
  11
264.519434
  21
225.342642
  31
0.0
  0
TEXT
  8
0
  62
7
  10
260.403472
  20
221.059642
  1
-0,2
  40
3.21225
  7
STANDARD
  72
5
  11
266.532445
  21
221.059642
  31
0.0
  0
ENDBLK
  0
BLOCK
  8
0
  70
65
  2
*A20
  10
0.0
  20
0.0
  30
0.0
  3
*A
  0
POLYLINE
  8
0
  6
CONTINUOUS
  62
1
  66
1
  0
VERTEX
  8
0
  10
258.320374
  20
185.869736
  30
0.0
  0
VERTEX
  8
0
  10
255.635208
  20
180.066132
  30
0.0
  0
VERTEX
  8
0
  10
251.635208
  20
180.066132
  30
0.0
  0
VERTEX
  8
0
  10
236.973541
  20
180.066132
  30
0.0
  0
SEQEND
  0
SOLID
  8
0
  6
CONTINUOUS
  62
1
  10
260.0
  20
189.5
  11
257.84845
  21
186.088089
  12
260.0
  22
189.5
  13
258.792297
  23
185.651382
  0
TEXT
  8
0
  62
7
  10
236.973541
  20
182.636883
  1
0.5 x45°
  40
3.212254
  7
STANDARD
  72
5
  11
250.135208
  21
182.636883
  31
0.0
  0
ENDBLK
  0
BLOCK
  8
0
  70
65
  2
*A21
  10
0.0
  20
0.0
  30
0.0
  3
*A
  0
POLYLINE
  8
0
  6
CONTINUOUS
  62
1
  66
1
  0
VERTEX
  8
0
  10
266.676971
  20
185.741547
  30
0.0
  0
VERTEX
  8
0
  10
272.001617
  20
176.102386
  30
0.0
  0
VERTEX
  8
0
  10
276.001617
  20
176.102386
  30
0.0
  0
VERTEX
  8
0
  10
291.631226
  20
176.102386
  30
0.0
  0
SEQEND
  0
SOLID
  8
0
  6
CONTINUOUS
  62
1
  10
264.742859
  20
189.242859
  11
266.221802
  21
185.490112
  12
264.742859
  22
189.242859
  13
267.132141
  23
185.992981
  0
TEXT
  8
0
  62
7
  10
277.501617
  20
178.673138
  1
0.5 x 45°
  40
3.212254
  7
STANDARD
  72
5
  11
291.631226
  21
178.673138
  31
0.0
  0
ENDBLK
  0
ENDSEC
  0
SECTION
  2
ENTITIES
  0
INSERT
  8
0
  6
CONTINUOUS
  62
7
  2
*G4
  10
0.0
  20
0.0
  1001
ACAD
  1000
ACAD_TCW25GROUP
  1002
{
  1000
Groupe_1
  1002
}
  0
TEXT
  8
0
  62
7
  10
244.808182
  20
108.11038
  30
7.033605
  1
27 août 2001
  40
1.906717
  7
STANDARD
  72
5
  11
261.103882
  21
108.11038
  31
7.033605
  0
TEXT
  8
0
  62
7
  10
202.724854
  20
100.963041
  30
4.958926
  1
CHEMINEE ROUE
  40
3.813303
  7
STANDARD
  72
5
  11
258.083618
  21
100.963041
  31
4.958926
  0
POLYLINE
  8
0
  6
CONTINUOUS
  62
7
  40
0.03937
  41
0.03937
  66
1
  70
8
  0
VERTEX
  8
0
  10
152.453522
  20
115.723473
  30
4.958926
  70
32
  0
VERTEX
  8
0
  10
152.453522
  20
133.875946
  30
0.0
  70
32
  0
SEQEND
  0
POLYLINE
  8
0
  6
CONTINUOUS
  62
7
  40
0.03937
  41
0.03937
  66
1
  70
8
  0
VERTEX
  8
0
  10
287.546478
  20
115.723473
  30
4.958926
  70
32
  0
VERTEX
  8
0
  10
287.546478
  20
133.875946
  30
0.0
  70
32
  0
SEQEND
  0
POLYLINE
  8
0
  6
CONTINUOUS
  62
7
  40
0.03937
  41
0.03937
  66
1
  70
8
  0
VERTEX
  8
0
  10
152.453522
  20
127.966949
  30
4.958926
  70
32
  0
VERTEX
  8
0
  10
287.546478
  20
127.966949
  30
4.958926
  70
32
  0
SEQEND
  0
POLYLINE
  8
0
  6
CONTINUOUS
  62
7
  40
0.03937
  41
0.03937
  66
1
  70
8
  0
VERTEX
  8
0
  10
152.453522
  20
121.845184
  30
4.958926
  70
32
  0
VERTEX
  8
0
  10
287.546478
  20
121.845184
  30
4.958926
  70
32
  0
SEQEND
  0
POLYLINE
  8
0
  6
CONTINUOUS
  62
7
  40
0.03937
  41
0.03937
  66
1
  70
8
  0
VERTEX
  8
0
  10
166.047592
  20
115.723473
  30
4.958926
  70
32
  0
VERTEX
  8
0
  10
166.047592
  20
133.875946
  30
0.0
  70
32
  0
SEQEND
  0
POLYLINE
  8
0
  6
CONTINUOUS
  62
7
  40
0.03937
  41
0.03937
  66
1
  70
8
  0
VERTEX
  8
0
  10
179.641693
  20
115.723473
  30
4.958926
  70
32
  0
VERTEX
  8
0
  10
179.641693
  20
133.875946
  30
0.0
  70
32
  0
SEQEND
  0
POLYLINE
  8
0
  6
CONTINUOUS
  62
7
  40
0.03937
  41
0.03937
  66
1
  70
8
  0
VERTEX
  8
0
  10
234.018021
  20
115.723473
  30
4.958926
  70
32
  0
VERTEX
  8
0
  10
234.018021
  20
133.875946
  30
0.0
  70
32
  0
SEQEND
  0
POLYLINE
  8
0
  6
CONTINUOUS
  62
7
  40
0.03937
  41
0.03937
  66
1
  70
8
  0
VERTEX
  8
0
  10
261.206268
  20
115.723473
  30
4.958926
  70
32
  0
VERTEX
  8
0
  10
261.206268
  20
133.875946
  30
0.0
  70
32
  0
SEQEND
  0
TEXT
  8
0
  62
7
  10
155.328903
  20
117.760477
  30
4.958926
  1
Rep
  40
2.542173
  7
STANDARD
  72
5
  11
162.620087
  21
117.760477
  31
4.958926
  0
TEXT
  8
0
  62
7
  10
197.0681
  20
117.760477
  30
4.958926
  1
Désignation
  40
2.542173
  7
STANDARD
  72
5
  11
218.941696
  21
117.760477
  31
4.958926
  0
TEXT
  8
0
  62
7
  10
168.187668
  20
117.760477
  30
4.958926
  1
Nbre
  40
2.542173
  7
STANDARD
  72
5
  11
177.230148
  21
117.760477
  31
4.958926
  0
TEXT
  8
0
  62
7
  10
240.953842
  20
117.760477
  30
4.958926
  1
Matière
  40
2.542173
  7
STANDARD
  72
5
  11
255.024445
  21
117.760477
  31
4.958926
  0
TEXT
  8
0
  62
7
  10
270.753845
  20
117.760477
  30
4.958926
  1
Débit
  40
2.542173
  7
STANDARD
  72
5
  11
280.809967
  21
117.760477
  31
4.958926
  0
TEXT
  8
0
  62
7
  10
172.506271
  20
124.398708
  30
4.958926
  1
1
  40
2.224445
  7
STANDARD
  72
5
  11
174.490891
  21
124.398708
  31
4.958926
  0
TEXT
  8
0
  62
7
  10
187.018082
  20
124.398708
  30
4.958926
  1
Cheminée
  40
2.224445
  7
STANDARD
  72
5
  11
203.097198
  21
124.398708
  31
4.958926
  0
TEXT
  8
0
  62
7
  10
235.716568
  20
124.586689
  30
4.958926
  1
Cu Sn 8 P
  40
2.224445
  7
STANDARD
  72
5
  11
250.736145
  21
124.586689
  31
4.958926
  0
TEXT
  8
0
  62
7
  10
262.960693
  20
124.586689
  30
4.958926
  1
Ø25 lg/38
  40
2.224445
  7
STANDARD
  72
5
  11
278.940521
  21
124.586689
  31
4.958926
  0
TEXT
  8
0
  62
7
  10
157.767746
  20
124.398708
  1
4
  40
2.224445
  7
STANDARD
  72
5
  11
159.752365
  21
124.398708
  31
0.0
  0
POLYLINE
  8
0
  6
CENTER
  62
7
  40
0.007874
  41
0.007874
  66
1
  1001
ACAD
  1000
TCW25BRUSH
  1002
{
  1000
L45
  1071
-5
  1070
0
  1070
0
  1040
5.0
  1040
0.0
  1002
}
  0
VERTEX
  8
0
  10
99.098122
  20
200.306946
  30
0.0
  0
VERTEX
  8
0
  10
129.018005
  20
200.306946
  30
0.0
  0
SEQEND
  0
POLYLINE
  8
0
  6
CENTER
  62
7
  40
0.007874
  41
0.007874
  66
1
  1001
ACAD
  1000
TCW25BRUSH
  1002
{
  1000
L45
  1071
-5
  1070
0
  1070
0
  1040
5.0
  1040
0.0
  1002
}
  0
VERTEX
  8
0
  10
114.612732
  20
214.768158
  30
0.0
  0
VERTEX
  8
0
  10
114.612732
  20
185.231857
  30
0.0
  0
SEQEND
  0
CIRCLE
  8
0
  6
CONTINUOUS
  62
7
  10
114.612732
  20
200.306946
  40
11.0
  0
CIRCLE
  8
0
  6
CONTINUOUS
  62
7
  10
114.612732
  20
200.306946
  40
5.0
  0
CIRCLE
  8
0
  6
CONTINUOUS
  62
7
  10
114.612732
  20
200.306946
  40
2.399994
  0
CIRCLE
  8
0
  6
CONTINUOUS
  62
7
  10
114.612732
  20
200.306946
  40
4.5
  0
CIRCLE
  8
0
  6
$AUXILIARY
  62
7
  10
114.612732
  20
200.306946
  40
10.5
  0
ARC
  8
0
  6
CONTINUOUS
  62
7
  10
114.612732
  20
200.306946
  40
2.999989
  50
-15.080389
  51
283.760102
  0
POLYLINE
  8
0
  6
CENTER
  62
7
  40
0.007874
  41
0.007874
  66
1
  1001
ACAD
  1000
TCW25BRUSH
  1002
{
  1000
L45
  1071
-5
  1070
0
  1070
0
  1040
5.0
  1040
0.0
  1002
}
  0
VERTEX
  8
0
  10
138.323593
  20
200.306946
  30
0.0
  0
VERTEX
  8
0
  10
180.901886
  20
200.306946
  30
0.0
  0
SEQEND
  0
POLYLINE
  8
0
  6
CONTINUOUS
  62
7
  40
0.019685
  41
0.019685
  66
1
  1001
ACAD
  1000
TCW25BRUSH
  1002
{
  1000
L45
  1071
-5
  1070
0
  1070
0
  1040
5.0
  1040
0.0
  1002
}
  0
VERTEX
  8
0
  10
142.080505
  20
210.806946
  30
0.0
  0
VERTEX
  8
0
  10
142.080505
  20
189.806946
  30
0.0
  0
SEQEND
  0
POLYLINE
  8
0
  6
CONTINUOUS
  62
7
  40
0.019685
  41
0.019685
  66
1
  1001
ACAD
  1000
TCW25BRUSH
  1002
{
  1000
L45
  1071
-5
  1070
0
  1070
0
  1040
5.0
  1040
0.0
  1002
}
  0
VERTEX
  8
0
  10
142.580505
  20
211.306946
  30
0.0
  0
VERTEX
  8
0
  10
142.580505
  20
189.306946
  30
0.0
  0
SEQEND
  0
POLYLINE
  8
0
  6
CONTINUOUS
  62
7
  40
0.019685
  41
0.019685
  66
1
  1001
ACAD
  1000
TCW25BRUSH
  1002
{
  1000
L45
  1071
-5
  1070
0
  1070
0
  1040
5.0
  1040
0.0
  1002
}
  0
VERTEX
  8
0
  10
177.080505
  20
204.806946
  30
0.0
  0
VERTEX
  8
0
  10
176.580505
  20
205.306946
  30
0.0
  0
SEQEND
  0
POLYLINE
  8
0
  6
CONTINUOUS
  62
7
  40
0.019685
  41
0.019685
  66
1
  1001
ACAD
  1000
TCW25BRUSH
  1002
{
  1000
L45
  1071
-5
  1070
0
  1070
0
  1040
5.0
  1040
0.0
  1002
}
  0
VERTEX
  8
0
  10
177.080505
  20
195.806946
  30
0.0
  0
VERTEX
  8
0
  10
176.580505
  20
195.306946
  30
0.0
  0
SEQEND
  0
POLYLINE
  8
0
  6
CONTINUOUS
  62
7
  40
0.019685
  41
0.019685
  66
1
  1001
ACAD
  1000
TCW25BRUSH
  1002
{
  1000
L45
  1071
-5
  1070
0
  1070
0
  1040
5.0
  1040
0.0
  1002
}
  0
VERTEX
  8
0
  10
177.080505
  20
204.806946
  30
0.0
  0
VERTEX
  8
0
  10
177.080505
  20
195.806946
  30
0.0
  0
SEQEND
  0
POLYLINE
  8
0
  6
$AUXILIARY
  62
7
  40
0.007874
  41
0.007874
  66
1
  1001
ACAD
  1000
TCW25BRUSH
  1002
{
  1000
L45
  1071
-5
  1070
0
  1070
0
  1040
5.0
  1040
0.0
  1002
}
  0
VERTEX
  8
0
  10
166.080505
  20
205.306946
  30
0.0
  0
VERTEX
  8
0
  10
166.080505
  20
195.306946
  30
0.0
  0
SEQEND
  0
POLYLINE
  8
0
  6
CONTINUOUS
  62
7
  40
0.019685
  41
0.019685
  66
1
  1001
ACAD
  1000
TCW25BRUSH
  1002
{
  1000
L45
  1071
-5
  1070
0
  1070
0
  1040
5.0
  1040
0.0
  1002
}
  0
VERTEX
  8
0
  10
166.080505
  20
205.306946
  30
0.0
  0
VERTEX
  8
0
  10
176.580505
  20
205.306946
  30
0.0
  0
SEQEND
  0
POLYLINE
  8
0
  6
CONTINUOUS
  62
7
  40
0.019685
  41
0.019685
  66
1
  1001
ACAD
  1000
TCW25BRUSH
  1002
{
  1000
L45
  1071
-5
  1070
0
  1070
0
  1040
5.0
  1040
0.0
  1002
}
  0
VERTEX
  8
0
  10
166.080505
  20
195.306946
  30
0.0
  0
VERTEX
  8
0
  10
176.580505
  20
195.306946
  30
0.0
  0
SEQEND
  0
POLYLINE
  8
0
  6
$AUXILIARY
  62
7
  40
0.007874
  41
0.007874
  66
1
  1001
ACAD
  1000
TCW25BRUSH
  1002
{
  1000
L45
  1071
-5
  1070
0
  1070
0
  1040
5.0
  1040
0.0
  1002
}
  0
VERTEX
  8
0
  10
176.580505
  20
205.306946
  30
0.0
  0
VERTEX
  8
0
  10
176.580505
  20
195.306946
  30
0.0
  0
SEQEND
  0
POLYLINE
  8
0
  6
CONTINUOUS
  62
7
  40
0.019685
  41
0.019685
  66
1
  1001
ACAD
  1000
TCW25BRUSH
  1002
{
  1000
L45
  1071
-5
  1070
0
  1070
0
  1040
5.0
  1040
0.0
  1002
}
  0
VERTEX
  8
0
  10
158.466141
  20
202.70694
  30
0.0
  0
VERTEX
  8
0
  10
176.080505
  20
202.70694
  30
0.0
  0
SEQEND
  0
POLYLINE
  8
0
  6
CONTINUOUS
  62
7
  40
0.019685
  41
0.019685
  66
1
  1001
ACAD
  1000
TCW25BRUSH
  1002
{
  1000
L45
  1071
-5
  1070
0
  1070
0
  1040
5.0
  1040
0.0
  1002
}
  0
VERTEX
  8
0
  10
158.466141
  20
197.906952
  30
0.0
  0
VERTEX
  8
0
  10
176.080505
  20
197.906952
  30
0.0
  0
SEQEND
  0
POLYLINE
  8
0
  6
CONTINUOUS
  62
7
  40
0.007874
  41
0.007874
  66
1
  1001
ACAD
  1000
TCW25BRUSH
  1002
{
  1000
L45
  1071
-5
  1070
0
  1070
0
  1040
5.0
  1040
0.0
  1002
}
  0
VERTEX
  8
0
  10
162.080505
  20
203.306946
  30
0.0
  0
VERTEX
  8
0
  10
176.680511
  20
203.306946
  30
0.0
  0
SEQEND
  0
POLYLINE
  8
0
  6
CONTINUOUS
  62
7
  40
0.007874
  41
0.007874
  66
1
  1001
ACAD
  1000
TCW25BRUSH
  1002
{
  1000
L45
  1071
-5
  1070
0
  1070
0
  1040
5.0
  1040
0.0
  1002
}
  0
VERTEX
  8
0
  10
162.080505
  20
197.306946
  30
0.0
  0
VERTEX
  8
0
  10
176.680511
  20
197.306946
  30
0.0
  0
SEQEND
  0
POLYLINE
  8
0
  6
CONTINUOUS
  62
7
  40
0.019685
  41
0.019685
  66
1
  1001
ACAD
  1000
TCW25BRUSH
  1002
{
  1000
L45
  1071
-5
  1070
0
  1070
0
  1040
5.0
  1040
0.0
  1002
}
  0
VERTEX
  8
0
  10
142.580505
  20
211.306946
  30
0.0
  0
VERTEX
  8
0
  10
142.080505
  20
210.806946
  30
0.0
  0
SEQEND
  0
POLYLINE
  8
0
  6
CONTINUOUS
  62
7
  40
0.019685
  41
0.019685
  66
1
  1001
ACAD
  1000
TCW25BRUSH
  1002
{
  1000
L45
  1071
-5
  1070
0
  1070
0
  1040
5.0
  1040
0.0
  1002
}
  0
VERTEX
  8
0
  10
142.580505
  20
211.306946
  30
0.0
  0
VERTEX
  8
0
  10
147.61441
  20
211.306946
  30
0.0
  0
SEQEND
  0
POLYLINE
  8
0
  6
CONTINUOUS
  62
7
  40
0.019685
  41
0.019685
  66
1
  1001
ACAD
  1000
TCW25BRUSH
  1002
{
  1000
L45
  1071
-5
  1070
0
  1070
0
  1040
5.0
  1040
0.0
  1002
}
  0
VERTEX
  8
0
  10
142.580505
  20
189.306946
  30
0.0
  0
VERTEX
  8
0
  10
142.080505
  20
189.806946
  30
0.0
  0
SEQEND
  0
POLYLINE
  8
0
  6
CONTINUOUS
  62
7
  40
0.019685
  41
0.019685
  66
1
  1001
ACAD
  1000
TCW25BRUSH
  1002
{
  1000
L45
  1071
-5
  1070
0
  1070
0
  1040
5.0
  1040
0.0
  1002
}
  0
VERTEX
  8
0
  10
142.580505
  20
189.306946
  30
0.0
  0
VERTEX
  8
0
  10
147.61441
  20
189.306946
  30
0.0
  0
SEQEND
  0
POLYLINE
  8
0
  6
CONTINUOUS
  62
7
  40
0.019685
  41
0.019685
  66
1
  1001
ACAD
  1000
TCW25BRUSH
  1002
{
  1000
L45
  1071
-5
  1070
0
  1070
0
  1040
5.0
  1040
0.0
  1002
}
  0
VERTEX
  8
0
  10
166.080505
  20
205.306946
  30
0.0
  0
VERTEX
  8
0
  10
147.61441
  20
211.306946
  30
0.0
  0
SEQEND
  0
POLYLINE
  8
0
  6
CONTINUOUS
  62
7
  40
0.019685
  41
0.019685
  66
1
  1001
ACAD
  1000
TCW25BRUSH
  1002
{
  1000
L45
  1071
-5
  1070
0
  1070
0
  1040
5.0
  1040
0.0
  1002
}
  0
VERTEX
  8
0
  10
166.080505
  20
195.306946
  30
0.0
  0
VERTEX
  8
0
  10
147.61441
  20
189.306946
  30
0.0
  0
SEQEND
  0
POLYLINE
  8
0
  6
CONTINUOUS
  62
7
  40
0.019685
  41
0.019685
  66
1
  1001
ACAD
  1000
TCW25BRUSH
  1002
{
  1000
L45
  1071
-5
  1070
0
  1070
0
  1040
5.0
  1040
0.0
  1002
}
  0
VERTEX
  8
0
  10
162.080505
  20
203.306946
  30
0.0
  0
VERTEX
  8
0
  10
162.080505
  20
197.306946
  30
0.0
  0
SEQEND
  0
POLYLINE
  8
0
  6
CONTINUOUS
  62
7
  40
0.019685
  41
0.019685
  66
1
  1001
ACAD
  1000
TCW25BRUSH
  1002
{
  1000
L45
  1071
-5
  1070
0
  1070
0
  1040
5.0
  1040
0.0
  1002
}
  0
VERTEX
  8
0
  10
157.080505
  20
200.306946
  30
0.0
  0
VERTEX
  8
0
  10
158.466141
  20
202.70694
  30
0.0
  0
SEQEND
  0
POLYLINE
  8
0
  6
CONTINUOUS
  62
7
  40
0.019685
  41
0.019685
  66
1
  1001
ACAD
  1000
TCW25BRUSH
  1002
{
  1000
L45
  1071
-5
  1070
0
  1070
0
  1040
5.0
  1040
0.0
  1002
}
  0
VERTEX
  8
0
  10
157.080505
  20
200.306931
  30
0.0
  0
VERTEX
  8
0
  10
158.466141
  20
197.906952
  30
0.0
  0
SEQEND
  0
POLYLINE
  8
0
  6
CONTINUOUS
  62
7
  40
0.019685
  41
0.019685
  66
1
  1001
ACAD
  1000
TCW25BRUSH
  1002
{
  1000
L45
  1071
-5
  1070
0
  1070
0
  1040
5.0
  1040
0.0
  1002
}
  0
VERTEX
  8
0
  10
176.080505
  20
202.70694
  30
0.0
  0
VERTEX
  8
0
  10
176.080505
  20
197.906952
  30
0.0
  0
SEQEND
  0
POLYLINE
  8
0
  6
CONTINUOUS
  62
7
  40
0.019685
  41
0.019685
  66
1
  1001
ACAD
  1000
TCW25BRUSH
  1002
{
  1000
L45
  1071
-5
  1070
0
  1070
0
  1040
5.0
  1040
0.0
  1002
}
  0
VERTEX
  8
0
  10
176.080505
  20
202.70694
  30
0.0
  0
VERTEX
  8
0
  10
177.080505
  20
203.70694
  30
0.0
  0
SEQEND
  0
POLYLINE
  8
0
  6
CONTINUOUS
  62
7
  40
0.019685
  41
0.019685
  66
1
  1001
ACAD
  1000
TCW25BRUSH
  1002
{
  1000
L45
  1071
-5
  1070
0
  1070
0
  1040
5.0
  1040
0.0
  1002
}
  0
VERTEX
  8
0
  10
176.080505
  20
197.906952
  30
0.0
  0
VERTEX
  8
0
  10
177.080505
  20
196.906952
  30
0.0
  0
SEQEND
  0
POLYLINE
  8
0
  6
CONTINUOUS
  62
7
  40
0.019685
  41
0.019685
  66
1
  1001
ACAD
  1000
TCW25BRUSH
  1002
{
  1000
L45
  1071
-5
  1070
0
  1070
0
  1040
5.0
  1040
0.0
  1002
}
  0
VERTEX
  8
0
  10
147.61441
  20
211.306946
  30
0.0
  0
VERTEX
  8
0
  10
147.61441
  20
189.306946
  30
0.0
  0
SEQEND
  0
POLYLINE
  8
0
  6
CONTINUOUS
  62
7
  40
0.019685
  41
0.019685
  66
1
  1001
ACAD
  1000
TCW25BRUSH
  1002
{
  1000
L45
  1071
-5
  1070
0
  1070
0
  1040
5.0
  1040
0.0
  1002
}
  0
VERTEX
  8
0
  10
158.466141
  20
202.706924
  30
0.0
  0
VERTEX
  8
0
  10
158.466141
  20
197.906952
  30
0.0
  0
SEQEND
  0
POLYLINE
  8
0
  6
CONTINUOUS
  62
7
  40
0.003937
  41
0.003937
  66
1
  70
1
  1001
ACAD
  1000
TCW25BRUSH
  1002
{
  1000
L45
  1071
-5
  1070
0
  1070
0
  1040
5.0
  1040
0.0
  1002
}
  0
VERTEX
  8
0
  10
177.080505
  20
203.70694
  30
0.0
  0
VERTEX
  8
0
  10
177.080505
  20
203.70694
  30
0.0
  0
VERTEX
  8
0
  10
177.080505
  20
204.806946
  30
0.0
  0
VERTEX
  8
0
  10
176.580505
  20
205.306946
  30
0.0
  0
VERTEX
  8
0
  10
166.080505
  20
205.306946
  30
0.0
  0
VERTEX
  8
0
  10
156.261749
  20
208.497253
  30
0.0
  0
VERTEX
  8
0
  10
154.467957
  20
204.828201
  30
0.0
  0
VERTEX
  8
0
  10
154.966782
  20
202.722031
  30
0.0
  0
VERTEX
  8
0
  10
154.246246
  20
198.7314
  30
0.0
  0
VERTEX
  8
0
  10
155.631897
  20
196.126404
  30
0.0
  0
VERTEX
  8
0
  10
154.745087
  20
193.078003
  30
0.0
  0
VERTEX
  8
0
  10
155.049728
  20
191.722824
  30
0.0
  0
VERTEX
  8
0
  10
166.080505
  20
195.306946
  30
0.0
  0
VERTEX
  8
0
  10
176.580505
  20
195.306946
  30
0.0
  0
VERTEX
  8
0
  10
177.080505
  20
195.806946
  30
0.0
  0
VERTEX
  8
0
  10
177.080505
  20
196.906952
  30
0.0
  0
VERTEX
  8
0
  10
176.080505
  20
197.906952
  30
0.0
  0
VERTEX
  8
0
  10
158.466141
  20
197.906952
  30
0.0
  0
VERTEX
  8
0
  10
157.080505
  20
200.306931
  30
0.0
  0
VERTEX
  8
0
  10
158.466141
  20
202.706924
  30
0.0
  0
VERTEX
  8
0
  10
176.080505
  20
202.70694
  30
0.0
  0
SEQEND
  0
INSERT
  8
0
  6
CONTINUOUS
  62
7
  2
*H5
  10
0.0
  20
0.0
  1001
ACAD
  1000
TCW25BRUSH
  1002
{
  1002
}
  0
DIMENSION
  8
0
  1
<>
  2
*D6
  10
135.0
  20
195.0
  11
134.697944
  21
200.306946
  13
147.61441
  23
189.306946
  14
147.61441
  24
211.306946
  15
181.468918
  25
200.306946
  70
5
  0
DIMENSION
  8
0
  1
<>
  2
*D7
  10
125.612732
  20
227.992935
  11
114.612732
  21
231.634435
  13
103.612732
  23
200.306931
  14
125.612732
  24
200.306946
  50
180.0
  70
0
  0
DIMENSION
  8
0
  1
<>
  2
*D8
  10
166.080505
  20
217.099411
  11
171.580505
  21
220.740911
  13
177.080505
  23
204.806946
  14
166.080505
  24
205.306946
  50
180.0
  70
0
  0
DIMENSION
  8
0
  1
<>
  2
*D9
  10
142.080505
  20
229.967545
  11
159.580505
  21
233.609045
  13
177.080505
  23
204.806946
  14
142.080505
  24
210.806946
  50
180.0
  70
0
  0
DIMENSION
  8
0
  1
<>
  2
*D10
  10
162.080505
  20
187.084656
  11
169.580505
  21
190.726156
  13
177.080505
  23
195.806946
  14
162.080505
  24
197.306946
  70
0
  0
DIMENSION
  8
0
  1
<>
  2
*D11
  10
157.08049
  20
178.922745
  11
167.080498
  21
182.564245
  13
177.080505
  23
195.806946
  14
157.08049
  24
200.306931
  70
0
  0
DIMENSION
  8
0
  1
<>
  2
*D12
  10
184.334167
  20
203.306946
  11
180.692667
  21
200.306946
  13
176.580505
  23
197.306946
  14
176.580505
  24
203.306946
  50
90.0
  70
0
  0
DIMENSION
  8
0
  1
<>
  2
*D13
  10
199.604813
  20
195.306946
  11
193.821813
  21
200.306938
  13
176.58049
  23
205.306931
  14
176.580505
  24
195.306946
  50
90.0
  70
0
  0
INSERT
  8
0
  6
CONTINUOUS
  62
7
  2
*A14
  10
0.0
  20
0.0
  1001
ACAD
  1000
TCW25DIMLEAD
  1002
{
  1070
10
  1000
0.5 x 45°
  1000
Cote
  1070
0
  1071
0
  1040
1.0
  1040
0.0
  1000
CONTINUOUS
  1000
0
  1071
4
  1071
130
  1010
190.351028
  1020
181.49086
  1071
2
  1010
190.351028
  1020
181.49086
  1071
194
  1010
176.809555
  1020
195.535995
  1071
130
  1010
184.851028
  1020
179.99086
  1002
}
  0
INSERT
  8
0
  6
CONTINUOUS
  62
7
  2
*A15
  10
0.0
  20
0.0
  1001
ACAD
  1000
TCW25DIMLEAD
  1002
{
  1070
10
  1000
0.5 x 45°
  1000
Cote
  1070
0
  1071
0
  1040
1.0
  1040
0.0
  1000
CONTINUOUS
  1000
0
  1071
4
  1071
130
  1010
132.616714
  1020
181.423706
  1071
2
  1010
132.616714
  1020
181.423706
  1071
194
  1010
142.387909
  1020
189.499527
  1071
130
  1010
138.116714
  1020
179.923706
  1002
}
  0
POLYLINE
  8
0
  6
CONTINUOUS
  62
7
  40
0.03937
  41
0.03937
  66
1
  70
8
  1001
ACAD
  1000
TCW25BRUSH
  1002
{
  1000
Solid
  1071
-5
  1070
0
  1002
}
  0
VERTEX
  8
0
  10
152.453522
  20
133.875946
  30
4.958926
  70
32
  0
VERTEX
  8
0
  10
287.546478
  20
133.875946
  30
4.958926
  70
32
  0
SEQEND
  0
TEXT
  8
0
  62
7
  10
172.553284
  20
130.00906
  30
4.958926
  1
4
  40
2.224445
  7
STANDARD
  72
5
  11
174.537903
  21
130.00906
  31
4.958926
  0
TEXT
  8
0
  62
7
  10
187.065094
  20
130.00906
  30
4.958926
  1
Roue
  40
2.224445
  7
STANDARD
  72
5
  11
195.438354
  21
130.00906
  31
4.958926
  0
TEXT
  8
0
  62
7
  10
235.76358
  20
130.197048
  30
4.958926
  1
Cu Sn 8 P
  40
2.224445
  7
STANDARD
  72
5
  11
250.783157
  21
130.197048
  31
4.958926
  0
TEXT
  8
0
  62
7
  10
263.007721
  20
130.197048
  30
4.958926
  1
Ø25 lg/8
  40
2.224445
  7
STANDARD
  72
5
  11
277.003235
  21
130.197048
  31
4.958926
  0
TEXT
  8
0
  62
7
  10
157.814758
  20
130.00906
  1
6
  40
2.224445
  7
STANDARD
  72
5
  11
159.799377
  21
130.00906
  31
0.0
  0
POLYLINE
  8
0
  6
CONTINUOUS
  62
7
  40
0.03937
  41
0.03937
  66
1
  1001
ACAD
  1000
TCW25BRUSH
  1002
{
  1000
Solid
  1071
-5
  1070
0
  1002
}
  0
VERTEX
  8
0
  10
205.0
  20
250.0
  30
0.0
  0
VERTEX
  8
0
  10
205.0
  20
145.0
  30
0.0
  0
SEQEND
  0
INSERT
  8
0
  6
CONTINUOUS
  62
7
  2
*G16
  10
0.0
  20
0.0
  1001
ACAD
  1000
ACAD_TCW25GROUP
  1002
{
  1000
Groupe_1
  1002
}
  0
POLYLINE
  8
0
  6
CENTER
  62
7
  40
0.007874
  41
0.007874
  66
1
  1001
ACAD
  1000
TCW25BRUSH
  1002
{
  1000
Solid
  1071
-5
  1070
0
  1002
}
  0
VERTEX
  8
0
  10
216.892807
  20
200.0
  30
0.0
  0
VERTEX
  8
0
  10
243.232544
  20
200.0
  30
0.0
  0
SEQEND
  0
POLYLINE
  8
0
  6
CENTER
  62
7
  40
0.007874
  41
0.007874
  66
1
  1001
ACAD
  1000
TCW25BRUSH
  1002
{
  1000
Solid
  1071
-5
  1070
0
  1002
}
  0
VERTEX
  8
0
  10
257.68103
  20
200.0
  30
0.0
  0
VERTEX
  8
0
  10
267.142883
  20
200.0
  30
0.0
  0
SEQEND
  0
POLYLINE
  8
0
  6
CENTER
  62
7
  40
0.007874
  41
0.007874
  66
1
  1001
ACAD
  1000
TCW25BRUSH
  1002
{
  1000
Solid
  1071
-5
  1070
0
  1002
}
  0
VERTEX
  8
0
  10
230.0
  20
212.735062
  30
0.0
  0
VERTEX
  8
0
  10
230.0
  20
186.683029
  30
0.0
  0
SEQEND
  0
CIRCLE
  8
0
  6
CONTINUOUS
  62
7
  10
230.0
  20
200.0
  40
11.0
  0
CIRCLE
  8
0
  6
CONTINUOUS
  62
7
  10
230.0
  20
200.0
  40
0.193848
  0
CIRCLE
  8
0
  6
CONTINUOUS
  62
7
  10
230.0
  20
200.0
  40
10.5
  0
CIRCLE
  8
0
  6
CONTINUOUS
  62
7
  10
230.0
  20
200.0
  40
5.0
  0
POLYLINE
  8
0
  6
CONTINUOUS
  62
7
  40
0.019685
  41
0.019685
  66
1
  1001
ACAD
  1000
TCW25BRUSH
  1002
{
  1000
Solid
  1071
-5
  1070
0
  1002
}
  0
VERTEX
  8
0
  10
260.0
  20
189.5
  30
0.0
  0
VERTEX
  8
0
  10
260.5
  20
189.0
  30
0.0
  0
SEQEND
  0
POLYLINE
  8
0
  6
CONTINUOUS
  62
7
  40
0.019685
  41
0.019685
  66
1
  1001
ACAD
  1000
TCW25BRUSH
  1002
{
  1000
Solid
  1071
-5
  1070
0
  1002
}
  0
VERTEX
  8
0
  10
260.0
  20
210.5
  30
0.0
  0
VERTEX
  8
0
  10
260.0
  20
189.5
  30
0.0
  0
SEQEND
  0
POLYLINE
  8
0
  6
CONTINUOUS
  62
7
  40
0.019685
  41
0.019685
  66
1
  1001
ACAD
  1000
TCW25BRUSH
  1002
{
  1000
Solid
  1071
-5
  1070
0
  1002
}
  0
VERTEX
  8
0
  10
265.0
  20
210.5
  30
0.0
  0
VERTEX
  8
0
  10
264.5
  20
211.0
  30
0.0
  0
SEQEND
  0
POLYLINE
  8
0
  6
CONTINUOUS
  62
7
  40
0.019685
  41
0.019685
  66
1
  1001
ACAD
  1000
TCW25BRUSH
  1002
{
  1000
Solid
  1071
-5
  1070
0
  1002
}
  0
VERTEX
  8
0
  10
265.0
  20
189.5
  30
0.0
  0
VERTEX
  8
0
  10
264.5
  20
189.0
  30
0.0
  0
SEQEND
  0
POLYLINE
  8
0
  6
CONTINUOUS
  62
7
  40
0.019685
  41
0.019685
  66
1
  1001
ACAD
  1000
TCW25BRUSH
  1002
{
  1000
Solid
  1071
-5
  1070
0
  1002
}
  0
VERTEX
  8
0
  10
265.0
  20
210.5
  30
0.0
  0
VERTEX
  8
0
  10
265.0
  20
189.5
  30
0.0
  0
SEQEND
  0
POLYLINE
  8
0
  6
CONTINUOUS
  62
7
  40
0.019685
  41
0.019685
  66
1
  1001
ACAD
  1000
TCW25BRUSH
  1002
{
  1000
Solid
  1071
-5
  1070
0
  1002
}
  0
VERTEX
  8
0
  10
260.5
  20
211.0
  30
0.0
  0
VERTEX
  8
0
  10
260.0
  20
210.5
  30
0.0
  0
SEQEND
  0
POLYLINE
  8
0
  6
CONTINUOUS
  62
7
  40
0.019685
  41
0.019685
  66
1
  1001
ACAD
  1000
TCW25BRUSH
  1002
{
  1000
Solid
  1071
-5
  1070
0
  1002
}
  0
VERTEX
  8
0
  10
260.5
  20
211.0
  30
0.0
  0
VERTEX
  8
0
  10
264.5
  20
211.0
  30
0.0
  0
SEQEND
  0
POLYLINE
  8
0
  6
CONTINUOUS
  62
7
  40
0.019685
  41
0.019685
  66
1
  1001
ACAD
  1000
TCW25BRUSH
  1002
{
  1000
Solid
  1071
-5
  1070
0
  1002
}
  0
VERTEX
  8
0
  10
260.5
  20
189.0
  30
0.0
  0
VERTEX
  8
0
  10
264.5
  20
189.0
  30
0.0
  0
SEQEND
  0
POLYLINE
  8
0
  6
$AUXILIARY
  62
7
  40
0.007874
  41
0.007874
  66
1
  1001
ACAD
  1000
TCW25BRUSH
  1002
{
  1000
Solid
  1071
-5
  1070
0
  1002
}
  0
VERTEX
  8
0
  10
260.0
  20
205.0
  30
0.0
  0
VERTEX
  8
0
  10
265.0
  20
205.0
  30
0.0
  0
SEQEND
  0
POLYLINE
  8
0
  6
$AUXILIARY
  62
7
  40
0.007874
  41
0.007874
  66
1
  1001
ACAD
  1000
TCW25BRUSH
  1002
{
  1000
Solid
  1071
-5
  1070
0
  1002
}
  0
VERTEX
  8
0
  10
260.0
  20
195.0
  30
0.0
  0
VERTEX
  8
0
  10
265.0
  20
195.0
  30
0.0
  0
SEQEND
  0
POLYLINE
  8
0
  6
CONTINUOUS
  62
7
  40
0.019685
  41
0.019685
  66
1
  1001
ACAD
  1000
TCW25BRUSH
  1002
{
  1000
Solid
  1071
-5
  1070
0
  1002
}
  0
VERTEX
  8
0
  10
260.5
  20
211.0
  30
0.0
  0
VERTEX
  8
0
  10
260.5
  20
189.0
  30
0.0
  0
SEQEND
  0
POLYLINE
  8
0
  6
CONTINUOUS
  62
7
  40
0.019685
  41
0.019685
  66
1
  1001
ACAD
  1000
TCW25BRUSH
  1002
{
  1000
Solid
  1071
-5
  1070
0
  1002
}
  0
VERTEX
  8
0
  10
264.5
  20
211.0
  30
0.0
  0
VERTEX
  8
0
  10
264.5
  20
189.0
  30
0.0
  0
SEQEND
  0
DIMENSION
  8
0
  1
<>
  2
*D17
  10
276.860443
  20
189.0
  11
271.077443
  21
200.0
  13
264.5
  23
211.0
  14
264.5
  24
189.0
  50
90.0
  70
0
  0
DIMENSION
  8
0
  1
<>
  2
*D18
  10
235.0
  20
215.803772
  11
230.0
  21
219.445272
  13
225.0
  23
200.0
  14
235.0
  24
200.0
  50
180.0
  70
0
  0
DIMENSION
  8
0
  1
<>
  2
*D19
  10
265.0
  20
218.488892
  11
262.5
  21
224.271892
  13
260.0
  23
210.5
  14
265.0
  24
210.5
  50
180.0
  70
0
  0
INSERT
  8
0
  6
CONTINUOUS
  62
7
  2
*A20
  10
0.0
  20
0.0
  1001
ACAD
  1000
TCW25DIMLEAD
  1002
{
  1070
9
  1000
0.5 x45°
  1000
Cote
  1070
0
  1071
0
  1040
1.0
  1040
0.0
  1000
CONTINUOUS
  1000
0
  1071
3
  1071
130
  1010
250.135208
  1020
181.566132
  1071
2
  1010
250.135208
  1020
181.566132
  1071
194
  1010
260.0
  1020
189.5
  1002
}
  0
INSERT
  8
0
  6
CONTINUOUS
  62
7
  2
*A21
  10
0.0
  20
0.0
  1001
ACAD
  1000
TCW25DIMLEAD
  1002
{
  1070
10
  1000
0.5 x 45°
  1000
Cote
  1070
0
  1071
0
  1040
1.0
  1040
0.0
  1000
CONTINUOUS
  1000
0
  1071
3
  1071
130
  1010
277.501617
  1020
177.602386
  1071
2
  1010
277.501617
  1020
177.602386
  1071
194
  1010
264.742859
  1020
189.242859
  1002
}
  0
CIRCLE
  8
0
  6
CONTINUOUS
  62
7
  10
120.0
  20
160.0
  40
5.0
  0
CIRCLE
  8
0
  6
CONTINUOUS
  62
7
  10
240.0
  20
160.0
  40
5.0
  0
TEXT
  8
0
  62
7
  10
118.374809
  20
158.398197
  1
4
  40
5.084255
  7
STANDARD
  72
5
  11
121.432137
  21
158.398197
  31
0.0
  0
TEXT
  8
0
  62
7
  10
238.481613
  20
158.317535
  1
6
  40
5.084244
  7
STANDARD
  72
5
  11
241.545715
  21
158.317535
  31
0.0
  0
ENDSEC
  0
EOF
