  0
SECTION
  2
HEADER
  9
$ACADVER
  1
AC1009
  9
$ANGBASE
  50
0.0
  9
$ANGDIR
  70
0
  9
$ATTDIA
  70
0
  9
$ATTMODE
  70
0
  9
$ATTREQ
  70
1
  9
$AUNITS
  70
0
  9
$AUPREC
  70
2
  9
$AXISMODE
  70
0
  9
$CECOLOR
  62
256
  9
$CELTYPE
  6
BYLAYER
  9
$CLAYER
  8
0
  9
$DIMALT
  70
0
  9
$DIMALTD
  70
2
  9
$DIMALTF
  40
0.0
  9
$DIMAPOST
  1

  9
$DIMASO
  70
0
  9
$DIMASZ
  40
2.0
  9
$DIMBLK
  1

  9
$DIMBLK1
  1

  9
$DIMBLK2
  1

  9
$DIMCEN
  40
0.09
  9
$DIMCLRD
  70
256
  9
$DIMCLRE
  70
256
  9
$DIMCLRT
  70
256
  9
$DIMDLE
  40
0.0
  9
$DIMDLI
  40
10.0
  9
$DIMEXE
  40
3.0
  9
$DIMEXO
  40
0.0
  9
$DIMGAP
  40
1.5
  9
$DIMLFAC
  40
1.0
  9
$DIMLIM
  70
0
  9
$DIMPOST
  1

  9
$DIMRND
  40
0.001
  9
$DIMSAH
  70
0
  9
$DIMSCALE
  40
1.0
  9
$DIMSE1
  70
0
  9
$DIMSE2
  70
0
  9
$DIMSHO
  70
1
  9
$DIMSOXD
  70
0
  9
$DIMSTYLE
  2
*UNNAMED
  9
$DIMTAD
  70
1
  9
$DIMTFAC
  40
1.0
  9
$DIMTIH
  70
1
  9
$DIMTIX
  70
1
  9
$DIMTM
  40
0.15
  9
$DIMTOFL
  70
1
  9
$DIMTOH
  70
1
  9
$DIMTOL
  70
0
  9
$DIMTP
  40
0.0
  9
$DIMTSZ
  40
0.0
  9
$DIMTVP
  40
0.0
  9
$DIMTXT
  40
4.283
  9
$DIMZIN
  70
8
  9
$DRAGMODE
  70
0
  9
$ELEVATION
  40
0.0
  9
$EXTMAX
  10
0.0
  20
0.0
  30
0.0
  9
$EXTMIN
  10
0.0
  20
0.0
  30
0.0
  9
$FILLETRAD
  40
0.5
  9
$FILLMODE
  70
1
  9
$INSBASE
  10
0.0
  20
0.0
  30
0.0
  9
$LIMMAX
  10
333.03019
  20
327.904704
  9
$LIMMIN
  10
76.331832
  20
146.400815
  9
$LTSCALE
  40
1.0
  9
$LUNITS
  70
2
  9
$LUPREC
  70
3
  9
$MENU
  1
acad
  9
$MIRRTEXT
  70
0
  9
$ORTHOMODE
  70
0
  9
$OSMODE
  70
0
  9
$PDMODE
  70
0
  9
$PDSIZE
  40
0.0
  9
$PEXTMAX
  10
0.0
  20
0.0
  30
0.0
  9
$PEXTMIN
  10
0.0
  20
0.0
  30
0.0
  9
$PLIMCHECK
  70
0
  9
$PLIMMAX
  10
0.0
  20
0.0
  9
$PLIMMIN
  10
0.0
  20
0.0
  9
$PLINEWID
  40
0.0
  9
$PUCSXDIR
  10
1.0
  20
0.0
  30
0.0
  9
$PUCSYDIR
  10
0.0
  20
1.0
  30
0.0
  9
$QTEXTMODE
  70
0
  9
$SHADEDGE
  70
3
  9
$SHADEDIF
  70
70
  9
$SKETCHINC
  40
1.0
  9
$SPLFRAME
  70
0
  9
$SPLINESEGS
  70
20
  9
$SPLINETYPE
  70
0
  9
$SURFTAB1
  70
6
  9
$SURFTAB2
  70
6
  9
$TDINDWG
  40
0.0
  9
$TDUPDATE
  40
2449702.667959
  9
$TDUSRTIMER
  40
0.0
  9
$TEXTSIZE
  40
6.779
  9
$TEXTSTYLE
  7
STANDARD
  9
$TILEMODE
  70
1
  9
$TRACEWID
  40
1.0
  9
$UCSORG
  10
0.0
  20
0.0
  30
0.0
  9
$UCSXDIR
  10
1.0
  20
0.0
  30
0.0
  9
$UCSYDIR
  10
0.0
  20
1.0
  30
0.0
  9
$UNITMODE
  70
0
  9
$WORLDVIEW
  70
1
  9
$GRIDMODE
  70
1
  9
$PINSBASE
  10
0.0
  20
0.0
  30
0.0
  9
$PSLTSCALE
  70
1
  9
$TREEDEPTH
  70
3020
  0
ENDSEC
  0
SECTION
  2
TABLES
  0
TABLE
  2
VPORT
  70
1
  0
VPORT
  2
*ACTIVE
  70
0
  10
0.0
  20
0.0
  11
1.0
  21
1.0
  12
204.681004
  22
237.07579
  13
0.0
  23
0.0
  14
5.0
  24
5.0
  15
5.0
  25
5.0
  16
0.0
  26
0.0
  36
1.0
  17
0.0
  27
0.0
  37
0.0
  40
185.287872
  41
1.591518
  42
50.0
  43
0.0
  44
0.0
  50
0.0
  51
0.0
  71
0
  72
100
  73
1
  74
1
  75
0
  76
1
  77
0
  78
0
  0
ENDTAB
  0
TABLE
  2
LTYPE
  70
12
  0
LTYPE
  2
CONTINUOUS
  70
0
  3
CONTINUOUS
  72
65
  73
0
  40
0.0
  0
LTYPE
  2
BORDER
  70
0
  3
BORDER
  72
65
  73
6
  40
1.75
  49
0.5
  49
-0.25
  49
0.5
  49
-0.25
  49
0.0
  49
-0.25
  0
LTYPE
  2
CENTER
  70
0
  3
CENTER
  72
65
  73
4
  40
2.0
  49
1.25
  49
-0.25
  49
0.25
  49
-0.25
  0
LTYPE
  2
DASHDOT
  70
0
  3
DASHDOT
  72
65
  73
4
  40
1.0
  49
0.5
  49
-0.25
  49
0.0
  49
-0.25
  0
LTYPE
  2
DASHED
  70
0
  3
DASHED
  72
65
  73
2
  40
0.75
  49
0.5
  49
-0.25
  0
LTYPE
  2
DIVIDE
  70
0
  3
DIVIDE
  72
65
  73
6
  40
1.25
  49
0.5
  49
-0.25
  49
0.0
  49
-0.25
  49
0.0
  49
-0.25
  0
LTYPE
  2
DOT
  70
0
  3
DOT
  72
65
  73
2
  40
0.25
  49
0.0
  49
-0.25
  0
LTYPE
  2
HIDDEN
  70
0
  3
HIDDEN
  72
65
  73
2
  40
0.375
  49
0.25
  49
-0.125
  0
LTYPE
  2
PHANTOM
  70
0
  3
PHANTOM
  72
65
  73
6
  40
2.5
  49
1.25
  49
-0.25
  49
0.25
  49
-0.25
  49
0.25
  49
-0.25
  0
LTYPE
  2
$AUXILIARY
  70
0
  3
$AUXILIARY
  72
65
  73
2
  40
0.1
  49
0.05
  49
-0.05
  0
LTYPE
  2
$INVISIBLE
  70
0
  3
$INVISIBLE
  72
65
  73
2
  40
200.0
  49
-100.0
  49
-100.0
  0
LTYPE
  2
AXES
  70
0
  3
AXES
  72
65
  73
4
  40
20.0
  49
12.5
  49
-2.5
  49
2.5
  49
-2.5
  0
ENDTAB
  0
TABLE
  2
LAYER
  70
1
  0
LAYER
  2
0
  70
64
  6
CONTINUOUS
  62
7
  0
ENDTAB
  0
TABLE
  2
STYLE
  70
1
  0
STYLE
  2
STANDARD
  70
0
  3
txt
  4

  40
0.0
  41
1.0
  42
0.2
  50
0.0
  71
0
  0
ENDTAB
  0
ENDSEC
  0
SECTION
  2
BLOCKS
  0
BLOCK
  8
0
  70
64
  2
Bloc_1
  10
125.55838
  20
25.439186
  30
0.0
  3
Bloc_1
  0
TEXT
  8
0
  62
82
  10
113.768379
  20
24.189186
  1
Dessiné par :
  40
3.75
  7
STANDARD
  72
5
  11
137.348373
  21
24.189186
  31
0.0
  0
ENDBLK
  0
BLOCK
  8
0
  70
64
  2
A4-V
  10
0.0
  20
0.0
  30
0.0
  3
A4-V
  0
POLYLINE
  8
0
  66
1
  70
1
  0
VERTEX
  8
0
  10
0.0
  20
0.0
  30
0.0
  0
VERTEX
  8
0
  10
190.0
  20
0.0
  30
0.0
  0
VERTEX
  8
0
  10
190.0
  20
277.0
  30
0.0
  0
VERTEX
  8
0
  10
0.0
  20
277.0
  30
0.0
  0
SEQEND
  0
ENDBLK
  0
BLOCK
  8
0
  70
64
  2
CARTOUCH
  10
0.0
  20
0.0
  30
0.0
  3
CARTOUCH
  0
SOLID
  8
0
  10
-179.75
  20
0.25
  11
-0.25
  21
0.25
  12
-179.75
  22
31.75
  13
-0.25
  23
31.75
  0
SOLID
  8
0
  10
-180.25
  20
-0.25
  11
-180.25
  21
32.25
  12
0.25
  22
-0.25
  13
0.25
  23
32.25
  0
LINE
  8
0
  62
3
  10
-150.0
  20
0.0
  11
-150.0
  21
32.0
  0
LINE
  8
0
  62
3
  10
-70.0
  20
32.0
  11
-70.0
  21
16.0
  0
LINE
  8
0
  62
3
  10
-150.0
  20
16.0
  11
0.0
  21
16.0
  0
POINT
  8
0
  62
3
  10
-150.0
  20
10.666667
  1001
ACAD
  1000
TCW30POINT
  1002
{
  1070
0
  1040
0.00001
  1000

  1070
0
  1071
65280
  1040
1.0
  1040
0.0
  1000
UNDEFINED
  1000
0
  1071
1
  1071
242
  1010
-150.0
  1020
10.666667
  1002
}
  0
POINT
  8
0
  62
3
  10
-150.0
  20
21.333334
  1001
ACAD
  1000
TCW30POINT
  1002
{
  1070
0
  1040
0.00001
  1000

  1070
0
  1071
65280
  1040
1.0
  1040
0.0
  1000
UNDEFINED
  1000
0
  1071
1
  1071
242
  1010
-150.0
  1020
21.333334
  1002
}
  0
LINE
  8
0
  62
3
  10
-150.0
  20
21.333334
  11
-180.0
  21
21.333334
  0
LINE
  8
0
  62
3
  10
-150.0
  20
10.666667
  11
-180.0
  21
10.666667
  0
LINE
  8
0
  62
3
  10
-70.0
  20
24.0
  11
0.0
  21
24.0
  0
TEXT
  8
0
  10
-141.9608
  20
21.74437
  1
AIFT INDUSTRIE
  40
5.0
  7
STANDARD
  72
5
  11
-79.854439
  21
21.74437
  31
0.0
  0
TEXT
  8
0
  62
3
  10
-68.01075
  20
28.894913
  1
dessine par :
  40
2.0
  7
STANDARD
  72
5
  11
-55.968082
  21
28.894913
  31
0.0
  0
TEXT
  8
0
  62
3
  10
-68.01075
  20
20.978732
  1
le :
  40
2.000001
  7
STANDARD
  72
5
  11
-65.000084
  21
20.978732
  31
0.0
  0
TEXT
  8
0
  62
3
  10
-177.84581
  20
25.16764
  1
Echelle:
  40
2.499999
  7
STANDARD
  72
5
  11
-167.995804
  21
25.16764
  31
0.0
  0
LINE
  8
0
  6
AXES
  62
3
  10
-176.49585
  20
16.088823
  11
-151.090744
  21
16.088823
  0
LINE
  8
0
  6
AXES
  62
3
  10
-157.740021
  20
20.277731
  11
-157.740021
  21
11.438282
  0
CIRCLE
  8
0
  62
3
  10
-157.740021
  20
16.088823
  40
4.73477
  0
CIRCLE
  8
0
  62
3
  10
-157.740021
  20
16.088823
  40
3.23018
  0
LINE
  8
0
  62
3
  10
-164.116425
  20
20.823591
  11
-164.116425
  21
11.354056
  0
LINE
  8
0
  62
3
  10
-175.346939
  20
12.858644
  11
-175.346939
  21
19.319004
  0
LINE
  8
0
  62
3
  10
-175.346939
  20
19.319004
  11
-164.116425
  21
20.823591
  0
LINE
  8
0
  62
3
  10
-175.346939
  20
12.858644
  11
-164.116425
  21
11.354056
  0
ENDBLK
  0
BLOCK
  8
0
  70
64
  2
Bloc_2
  10
90.0
  20
15.0
  30
0.0
  3
Bloc_2
  0
POLYLINE
  8
0
  6
CONTINUOUS
  62
7
  40
0.03937
  41
0.03937
  66
1
  70
1
  0
VERTEX
  8
0
  10
0.0
  20
0.0
  30
0.0
  0
VERTEX
  8
0
  10
180.0
  20
0.0
  30
0.0
  0
VERTEX
  8
0
  10
180.0
  20
30.0
  30
0.0
  0
VERTEX
  8
0
  10
0.0
  20
30.0
  30
0.0
  0
SEQEND
  0
POLYLINE
  8
0
  6
CONTINUOUS
  62
7
  40
0.007874
  41
0.007874
  66
1
  0
VERTEX
  8
0
  10
30.0
  20
30.0
  30
0.0
  0
VERTEX
  8
0
  10
30.0
  20
0.0
  30
0.0
  0
SEQEND
  0
POLYLINE
  8
0
  6
CONTINUOUS
  62
7
  40
0.007874
  41
0.007874
  66
1
  0
VERTEX
  8
0
  10
110.0
  20
30.0
  30
0.0
  0
VERTEX
  8
0
  10
110.0
  20
15.0
  30
0.0
  0
SEQEND
  0
POLYLINE
  8
0
  6
CONTINUOUS
  62
7
  40
0.007874
  41
0.007874
  66
1
  0
VERTEX
  8
0
  10
30.0
  20
15.0
  30
0.0
  0
VERTEX
  8
0
  10
180.0
  20
15.0
  30
0.0
  0
SEQEND
  0
POLYLINE
  8
0
  6
CONTINUOUS
  62
7
  40
0.007874
  41
0.007874
  66
1
  0
VERTEX
  8
0
  10
110.0
  20
22.5
  30
0.0
  0
VERTEX
  8
0
  10
180.0
  20
22.5
  30
0.0
  0
SEQEND
  0
POLYLINE
  8
0
  6
CONTINUOUS
  62
7
  40
0.007874
  41
0.007874
  66
1
  0
VERTEX
  8
0
  10
0.0
  20
20.0
  30
0.0
  0
VERTEX
  8
0
  10
30.0
  20
20.0
  30
0.0
  0
SEQEND
  0
POLYLINE
  8
0
  6
CONTINUOUS
  62
7
  40
0.007874
  41
0.007874
  66
1
  0
VERTEX
  8
0
  10
0.0
  20
10.0
  30
0.0
  0
VERTEX
  8
0
  10
30.0
  20
10.0
  30
0.0
  0
SEQEND
  0
CIRCLE
  8
0
  6
CONTINUOUS
  62
70
  210
0.0
  220
0.098069
  230
0.99518
  10
-19.832396
  20
-14.779912
  30
1.456479
  40
3.317184
  0
CIRCLE
  8
0
  6
CONTINUOUS
  62
70
  210
0.0
  220
0.098067
  230
0.99518
  10
-19.832396
  20
-14.779916
  30
1.456436
  40
1.658592
  0
POLYLINE
  8
0
  6
CONTINUOUS
  62
70
  40
0.007874
  41
0.007874
  66
1
  0
VERTEX
  8
0
  10
13.198025
  20
18.152697
  30
0.0
  0
VERTEX
  8
0
  10
13.198025
  20
11.55031
  30
0.0
  0
SEQEND
  0
POLYLINE
  8
0
  6
CONTINUOUS
  62
70
  40
0.007874
  41
0.007874
  66
1
  0
VERTEX
  8
0
  10
6.697942
  20
16.641684
  30
0.0
  0
VERTEX
  8
0
  10
6.697942
  20
13.200907
  30
0.0
  0
SEQEND
  0
POLYLINE
  8
0
  6
CONTINUOUS
  62
70
  40
0.007874
  41
0.007874
  66
1
  0
VERTEX
  8
0
  10
13.198025
  20
18.152697
  30
0.0
  0
VERTEX
  8
0
  10
6.697942
  20
16.641684
  30
0.0
  0
SEQEND
  0
POLYLINE
  8
0
  6
CONTINUOUS
  62
70
  40
0.007874
  41
0.007874
  66
1
  0
VERTEX
  8
0
  10
13.198025
  20
11.55031
  30
0.0
  0
VERTEX
  8
0
  10
6.697942
  20
13.200907
  30
0.0
  0
SEQEND
  0
POLYLINE
  8
0
  6
DASHDOT
  62
70
  40
0.007874
  41
0.007874
  66
1
  0
VERTEX
  8
0
  10
4.905061
  20
14.851502
  30
0.0
  0
VERTEX
  8
0
  10
24.808172
  20
14.851502
  30
0.0
  0
SEQEND
  0
POLYLINE
  8
0
  6
DASHDOT
  62
70
  40
0.007874
  41
0.007874
  66
1
  0
VERTEX
  8
0
  10
19.832396
  20
19.803291
  30
0.0
  0
VERTEX
  8
0
  10
19.832396
  20
9.899714
  30
0.0
  0
SEQEND
  0
TEXT
  8
0
  62
150
  10
42.530231
  20
21.188855
  1
aift industrie
  40
5.795903
  7
STANDARD
  72
5
  11
100.782715
  21
21.188855
  31
0.0
  0
TEXT
  8
0
  62
82
  10
4.037598
  20
21.689184
  1
Echelle:
  40
3.75
  7
STANDARD
  72
5
  11
18.837597
  21
21.689184
  31
0.0
  0
TEXT
  8
0
  62
82
  10
115.206894
  20
17.234102
  1
Le:
  40
3.75
  7
STANDARD
  72
5
  11
121.226891
  21
17.234102
  31
0.0
  0
TEXT
  8
0
  62
82
  10
113.149826
  20
24.638334
  1
Dessine par : G. Maillard
  40
3.75
  7
STANDARD
  72
5
  11
158.93483
  21
24.638334
  31
0.0
  0
ENDBLK
  0
BLOCK
  8
0
  70
65
  2
*G4
  10
0.0
  20
0.0
  30
0.0
  3
*G
  0
POLYLINE
  8
0
  6
CONTINUOUS
  62
7
  40
0.019685
  41
0.019685
  66
1
  70
8
  1001
ACAD
  1000
TCW25BRUSH
  1002
{
  1000
Solid
  1071
-5
  1070
0
  1002
}
  0
VERTEX
  8
0
  10
138.484818
  20
230.243057
  30
0.107842
  70
32
  0
VERTEX
  8
0
  10
138.984818
  20
229.743057
  30
0.107842
  70
32
  0
SEQEND
  0
POLYLINE
  8
0
  6
CONTINUOUS
  62
7
  40
0.019685
  41
0.019685
  66
1
  70
8
  1001
ACAD
  1000
TCW25BRUSH
  1002
{
  1000
Solid
  1071
-5
  1070
0
  1002
}
  0
VERTEX
  8
0
  10
138.484818
  20
251.243057
  30
0.107842
  70
32
  0
VERTEX
  8
0
  10
138.484818
  20
230.243057
  30
0.107842
  70
32
  0
SEQEND
  0
POLYLINE
  8
0
  6
CONTINUOUS
  62
7
  40
0.019685
  41
0.019685
  66
1
  70
8
  1001
ACAD
  1000
TCW25BRUSH
  1002
{
  1000
Solid
  1071
-5
  1070
0
  1002
}
  0
VERTEX
  8
0
  10
143.484818
  20
251.243057
  30
0.107842
  70
32
  0
VERTEX
  8
0
  10
142.984818
  20
251.743057
  30
0.107842
  70
32
  0
SEQEND
  0
POLYLINE
  8
0
  6
CONTINUOUS
  62
7
  40
0.019685
  41
0.019685
  66
1
  70
8
  1001
ACAD
  1000
TCW25BRUSH
  1002
{
  1000
Solid
  1071
-5
  1070
0
  1002
}
  0
VERTEX
  8
0
  10
143.484818
  20
230.243057
  30
0.107842
  70
32
  0
VERTEX
  8
0
  10
142.984818
  20
229.743057
  30
0.107842
  70
32
  0
SEQEND
  0
POLYLINE
  8
0
  6
CONTINUOUS
  62
7
  40
0.019685
  41
0.019685
  66
1
  70
8
  1001
ACAD
  1000
TCW25BRUSH
  1002
{
  1000
Solid
  1071
-5
  1070
0
  1002
}
  0
VERTEX
  8
0
  10
143.484818
  20
251.243057
  30
0.107842
  70
32
  0
VERTEX
  8
0
  10
143.484818
  20
230.243057
  30
0.107842
  70
32
  0
SEQEND
  0
POLYLINE
  8
0
  6
CONTINUOUS
  62
7
  40
0.019685
  41
0.019685
  66
1
  70
8
  1001
ACAD
  1000
TCW25BRUSH
  1002
{
  1000
Solid
  1071
-5
  1070
0
  1002
}
  0
VERTEX
  8
0
  10
138.984818
  20
251.743057
  30
0.107842
  70
32
  0
VERTEX
  8
0
  10
138.484818
  20
251.243057
  30
0.107842
  70
32
  0
SEQEND
  0
POLYLINE
  8
0
  6
CONTINUOUS
  62
7
  40
0.019685
  41
0.019685
  66
1
  70
8
  1001
ACAD
  1000
TCW25BRUSH
  1002
{
  1000
Solid
  1071
-5
  1070
0
  1002
}
  0
VERTEX
  8
0
  10
138.984818
  20
251.743057
  30
0.107842
  70
32
  0
VERTEX
  8
0
  10
142.984818
  20
251.743057
  30
0.107842
  70
32
  0
SEQEND
  0
POLYLINE
  8
0
  6
CONTINUOUS
  62
7
  40
0.019685
  41
0.019685
  66
1
  70
8
  1001
ACAD
  1000
TCW25BRUSH
  1002
{
  1000
Solid
  1071
-5
  1070
0
  1002
}
  0
VERTEX
  8
0
  10
138.984818
  20
229.743057
  30
0.107842
  70
32
  0
VERTEX
  8
0
  10
142.984818
  20
229.743057
  30
0.107842
  70
32
  0
SEQEND
  0
POLYLINE
  8
0
  6
CONTINUOUS
  62
7
  40
0.019685
  41
0.019685
  66
1
  70
8
  1001
ACAD
  1000
TCW25BRUSH
  1002
{
  1000
Solid
  1071
-5
  1070
0
  1002
}
  0
VERTEX
  8
0
  10
138.984818
  20
251.743057
  30
0.107842
  70
32
  0
VERTEX
  8
0
  10
138.984818
  20
229.743057
  30
0.107842
  70
32
  0
SEQEND
  0
POLYLINE
  8
0
  6
CONTINUOUS
  62
7
  40
0.019685
  41
0.019685
  66
1
  70
8
  1001
ACAD
  1000
TCW25BRUSH
  1002
{
  1000
Solid
  1071
-5
  1070
0
  1002
}
  0
VERTEX
  8
0
  10
142.984818
  20
251.743057
  30
0.107842
  70
32
  0
VERTEX
  8
0
  10
142.984818
  20
229.743057
  30
0.107842
  70
32
  0
SEQEND
  0
ENDBLK
  0
BLOCK
  8
0
  70
65
  2
*G5
  10
0.0
  20
0.0
  30
0.0
  3
*G
  0
POLYLINE
  8
0
  6
CONTINUOUS
  62
7
  40
0.019685
  41
0.019685
  66
1
  70
8
  1001
ACAD
  1000
TCW25BRUSH
  1002
{
  1000
Solid
  1071
-5
  1070
0
  1002
}
  0
VERTEX
  8
0
  10
97.465126
  20
230.243073
  30
0.361937
  70
32
  0
VERTEX
  8
0
  10
97.965126
  20
229.743073
  30
0.361937
  70
32
  0
SEQEND
  0
POLYLINE
  8
0
  6
CONTINUOUS
  62
7
  40
0.019685
  41
0.019685
  66
1
  70
8
  1001
ACAD
  1000
TCW25BRUSH
  1002
{
  1000
Solid
  1071
-5
  1070
0
  1002
}
  0
VERTEX
  8
0
  10
97.465126
  20
251.243073
  30
0.361937
  70
32
  0
VERTEX
  8
0
  10
97.465126
  20
230.243073
  30
0.361937
  70
32
  0
SEQEND
  0
POLYLINE
  8
0
  6
CONTINUOUS
  62
7
  40
0.019685
  41
0.019685
  66
1
  70
8
  1001
ACAD
  1000
TCW25BRUSH
  1002
{
  1000
Solid
  1071
-5
  1070
0
  1002
}
  0
VERTEX
  8
0
  10
102.465126
  20
251.243073
  30
0.361937
  70
32
  0
VERTEX
  8
0
  10
101.965126
  20
251.743073
  30
0.361937
  70
32
  0
SEQEND
  0
POLYLINE
  8
0
  6
CONTINUOUS
  62
7
  40
0.019685
  41
0.019685
  66
1
  70
8
  1001
ACAD
  1000
TCW25BRUSH
  1002
{
  1000
Solid
  1071
-5
  1070
0
  1002
}
  0
VERTEX
  8
0
  10
102.465126
  20
230.243073
  30
0.361937
  70
32
  0
VERTEX
  8
0
  10
101.965126
  20
229.743073
  30
0.361937
  70
32
  0
SEQEND
  0
POLYLINE
  8
0
  6
CONTINUOUS
  62
7
  40
0.019685
  41
0.019685
  66
1
  70
8
  1001
ACAD
  1000
TCW25BRUSH
  1002
{
  1000
Solid
  1071
-5
  1070
0
  1002
}
  0
VERTEX
  8
0
  10
102.465126
  20
251.243073
  30
0.361937
  70
32
  0
VERTEX
  8
0
  10
102.465126
  20
230.243073
  30
0.361937
  70
32
  0
SEQEND
  0
POLYLINE
  8
0
  6
CONTINUOUS
  62
7
  40
0.019685
  41
0.019685
  66
1
  70
8
  1001
ACAD
  1000
TCW25BRUSH
  1002
{
  1000
Solid
  1071
-5
  1070
0
  1002
}
  0
VERTEX
  8
0
  10
97.965126
  20
251.743073
  30
0.361937
  70
32
  0
VERTEX
  8
0
  10
97.465126
  20
251.243073
  30
0.361937
  70
32
  0
SEQEND
  0
POLYLINE
  8
0
  6
CONTINUOUS
  62
7
  40
0.019685
  41
0.019685
  66
1
  70
8
  1001
ACAD
  1000
TCW25BRUSH
  1002
{
  1000
Solid
  1071
-5
  1070
0
  1002
}
  0
VERTEX
  8
0
  10
97.965126
  20
251.743073
  30
0.361937
  70
32
  0
VERTEX
  8
0
  10
101.965126
  20
251.743073
  30
0.361937
  70
32
  0
SEQEND
  0
POLYLINE
  8
0
  6
CONTINUOUS
  62
7
  40
0.019685
  41
0.019685
  66
1
  70
8
  1001
ACAD
  1000
TCW25BRUSH
  1002
{
  1000
Solid
  1071
-5
  1070
0
  1002
}
  0
VERTEX
  8
0
  10
97.965126
  20
229.743073
  30
0.361937
  70
32
  0
VERTEX
  8
0
  10
101.965126
  20
229.743073
  30
0.361937
  70
32
  0
SEQEND
  0
POLYLINE
  8
0
  6
CONTINUOUS
  62
7
  40
0.019685
  41
0.019685
  66
1
  70
8
  1001
ACAD
  1000
TCW25BRUSH
  1002
{
  1000
Solid
  1071
-5
  1070
0
  1002
}
  0
VERTEX
  8
0
  10
97.965126
  20
251.743073
  30
0.361937
  70
32
  0
VERTEX
  8
0
  10
97.965126
  20
229.743073
  30
0.361937
  70
32
  0
SEQEND
  0
POLYLINE
  8
0
  6
CONTINUOUS
  62
7
  40
0.019685
  41
0.019685
  66
1
  70
8
  1001
ACAD
  1000
TCW25BRUSH
  1002
{
  1000
Solid
  1071
-5
  1070
0
  1002
}
  0
VERTEX
  8
0
  10
101.965126
  20
251.743073
  30
0.361937
  70
32
  0
VERTEX
  8
0
  10
101.965126
  20
229.743073
  30
0.361937
  70
32
  0
SEQEND
  0
ENDBLK
  0
BLOCK
  8
0
  70
65
  2
*H6
  10
0.0
  20
0.0
  30
0.0
  3
*H
  0
LINE
  8
0
  6
CONTINUOUS
  62
7
  10
284.636482
  20
259.262756
  30
0.308775
  11
286.598899
  21
261.225174
  31
0.308775
  0
LINE
  8
0
  6
CONTINUOUS
  62
7
  10
281.100948
  20
259.262756
  30
0.308775
  11
287.385129
  21
265.546937
  31
0.308775
  0
LINE
  8
0
  6
CONTINUOUS
  62
7
  10
281.084167
  20
262.78151
  30
0.308775
  11
287.552844
  21
269.250187
  31
0.308775
  0
LINE
  8
0
  6
CONTINUOUS
  62
7
  10
281.084167
  20
266.317044
  30
0.308775
  11
287.459862
  21
272.692739
  31
0.308775
  0
LINE
  8
0
  6
CONTINUOUS
  62
7
  10
281.084167
  20
269.852578
  30
0.308775
  11
286.667755
  21
275.436166
  31
0.308775
  0
LINE
  8
0
  6
CONTINUOUS
  62
7
  10
281.084167
  20
273.388112
  30
0.308775
  11
286.710376
  21
279.01432
  31
0.308775
  0
LINE
  8
0
  6
CONTINUOUS
  62
7
  10
281.084167
  20
276.923646
  30
0.308775
  11
287.200806
  21
283.040284
  31
0.308775
  0
LINE
  8
0
  6
CONTINUOUS
  62
7
  10
281.084167
  20
280.45918
  30
0.308775
  11
287.200806
  21
286.575818
  31
0.308775
  0
LINE
  8
0
  6
CONTINUOUS
  62
7
  10
281.084167
  20
283.994714
  30
0.308775
  11
287.18498
  21
290.095527
  31
0.308775
  0
LINE
  8
0
  6
CONTINUOUS
  62
7
  10
282.834167
  20
289.280248
  30
0.308775
  11
286.886815
  21
293.332896
  31
0.308775
  0
LINE
  8
0
  6
CONTINUOUS
  62
7
  10
282.834167
  20
292.815782
  30
0.308775
  11
284.281142
  21
294.262756
  31
0.308775
  0
LINE
  8
0
  6
CONTINUOUS
  62
7
  10
284.011482
  20
259.262756
  30
0.308775
  11
286.657143
  21
261.908418
  31
0.308775
  0
LINE
  8
0
  6
CONTINUOUS
  62
7
  10
281.084167
  20
259.870976
  30
0.308775
  11
287.447624
  21
266.234433
  31
0.308775
  0
LINE
  8
0
  6
CONTINUOUS
  62
7
  10
281.084167
  20
263.40651
  30
0.308775
  11
287.537601
  21
269.859944
  31
0.308775
  0
LINE
  8
0
  6
CONTINUOUS
  62
7
  10
281.084167
  20
266.942044
  30
0.308775
  11
287.303609
  21
273.161486
  31
0.308775
  0
LINE
  8
0
  6
CONTINUOUS
  62
7
  10
281.084167
  20
270.477578
  30
0.308775
  11
286.667755
  21
276.061166
  31
0.308775
  0
LINE
  8
0
  6
CONTINUOUS
  62
7
  10
281.084167
  20
274.013112
  30
0.308775
  11
286.680606
  21
279.60955
  31
0.308775
  0
LINE
  8
0
  6
CONTINUOUS
  62
7
  10
281.084167
  20
277.548646
  30
0.308775
  11
287.200806
  21
283.665284
  31
0.308775
  0
LINE
  8
0
  6
CONTINUOUS
  62
7
  10
281.084167
  20
281.08418
  30
0.308775
  11
287.200806
  21
287.200818
  31
0.308775
  0
LINE
  8
0
  6
CONTINUOUS
  62
7
  10
281.084167
  20
284.619714
  30
0.308775
  11
282.72721
  21
286.262756
  31
0.308775
  0
LINE
  8
0
  6
CONTINUOUS
  62
7
  10
282.834167
  20
286.369714
  30
0.308775
  11
287.136906
  21
290.672452
  31
0.308775
  0
LINE
  8
0
  6
CONTINUOUS
  62
7
  10
282.834167
  20
289.905248
  30
0.308775
  11
286.851003
  21
293.922084
  31
0.308775
  0
LINE
  8
0
  6
CONTINUOUS
  62
7
  10
282.834167
  20
293.440782
  30
0.308775
  11
283.656142
  21
294.262756
  31
0.308775
  0
ENDBLK
  0
BLOCK
  8
0
  70
65
  2
*H7
  10
0.0
  20
0.0
  30
0.0
  3
*H
  0
LINE
  8
0
  6
CONTINUOUS
  62
7
  10
274.02988
  20
259.262756
  30
0.308775
  11
274.584167
  21
259.817044
  31
0.308775
  0
LINE
  8
0
  6
CONTINUOUS
  62
7
  10
270.494347
  20
259.262756
  30
0.308775
  11
274.584167
  21
263.352578
  31
0.308775
  0
LINE
  8
0
  6
CONTINUOUS
  62
7
  10
268.550234
  20
260.854177
  30
0.308775
  11
274.584167
  21
266.888111
  31
0.308775
  0
LINE
  8
0
  6
CONTINUOUS
  62
7
  10
268.060425
  20
263.899902
  30
0.308775
  11
274.584167
  21
270.423645
  31
0.308775
  0
LINE
  8
0
  6
CONTINUOUS
  62
7
  10
267.954669
  20
267.329681
  30
0.308775
  11
274.584167
  21
273.959179
  31
0.308775
  0
LINE
  8
0
  6
CONTINUOUS
  62
7
  10
269.056087
  20
271.966633
  30
0.308775
  11
274.584167
  21
277.494713
  31
0.308775
  0
LINE
  8
0
  6
CONTINUOUS
  62
7
  10
270.177092
  20
276.623172
  30
0.308775
  11
274.584167
  21
281.030247
  31
0.308775
  0
LINE
  8
0
  6
CONTINUOUS
  62
7
  10
269.858882
  20
279.840496
  30
0.308775
  11
274.584167
  21
284.565781
  31
0.308775
  0
LINE
  8
0
  6
CONTINUOUS
  62
7
  10
269.273215
  20
282.790363
  30
0.308775
  11
272.834167
  21
286.351315
  31
0.308775
  0
LINE
  8
0
  6
CONTINUOUS
  62
7
  10
269.030143
  20
286.082825
  30
0.308775
  11
272.834167
  21
289.886849
  31
0.308775
  0
LINE
  8
0
  6
CONTINUOUS
  62
7
  10
269.319677
  20
289.907892
  30
0.308775
  11
272.834167
  21
293.422383
  31
0.308775
  0
LINE
  8
0
  6
CONTINUOUS
  62
7
  10
269.524171
  20
293.647921
  30
0.308775
  11
270.139007
  21
294.262756
  31
0.308775
  0
LINE
  8
0
  6
CONTINUOUS
  62
7
  10
273.40488
  20
259.262756
  30
0.308775
  11
274.584167
  21
260.442044
  31
0.308775
  0
LINE
  8
0
  6
CONTINUOUS
  62
7
  10
269.869347
  20
259.262756
  30
0.308775
  11
274.584167
  21
263.977578
  31
0.308775
  0
LINE
  8
0
  6
CONTINUOUS
  62
7
  10
268.453604
  20
261.382547
  30
0.308775
  11
274.584167
  21
267.513112
  31
0.308775
  0
LINE
  8
0
  6
CONTINUOUS
  62
7
  10
267.993457
  20
264.457934
  30
0.308775
  11
274.584167
  21
271.048645
  31
0.308775
  0
LINE
  8
0
  6
CONTINUOUS
  62
7
  10
268.008244
  20
268.008256
  30
0.308775
  11
274.584167
  21
274.584179
  31
0.308775
  0
LINE
  8
0
  6
CONTINUOUS
  62
7
  10
269.570223
  20
273.105769
  30
0.308775
  11
274.584167
  21
278.119713
  31
0.308775
  0
LINE
  8
0
  6
CONTINUOUS
  62
7
  10
270.260436
  20
277.331516
  30
0.308775
  11
274.584167
  21
281.655247
  31
0.308775
  0
LINE
  8
0
  6
CONTINUOUS
  62
7
  10
269.615829
  20
280.222442
  30
0.308775
  11
274.584167
  21
285.190781
  31
0.308775
  0
LINE
  8
0
  6
CONTINUOUS
  62
7
  10
269.214618
  20
283.356766
  30
0.308775
  11
272.834167
  21
286.976315
  31
0.308775
  0
LINE
  8
0
  6
CONTINUOUS
  62
7
  10
269.009819
  20
286.687501
  30
0.308775
  11
272.834167
  21
290.511849
  31
0.308775
  0
LINE
  8
0
  6
CONTINUOUS
  62
7
  10
269.405879
  20
290.619094
  30
0.308775
  11
272.834167
  21
294.047383
  31
0.308775
  0
LINE
  8
0
  6
CONTINUOUS
  62
7
  10
269.486587
  20
294.235337
  30
0.308775
  11
269.514007
  21
294.262756
  31
0.308775
  0
ENDBLK
  0
BLOCK
  8
0
  70
65
  2
*H8
  10
0.0
  20
0.0
  30
0.0
  3
*H
  0
LINE
  8
0
  6
CONTINUOUS
  62
7
  10
224.542233
  20
259.272583
  30
0.319856
  11
224.82431
  21
259.55466
  31
0.319856
  0
LINE
  8
0
  6
CONTINUOUS
  62
7
  10
221.0067
  20
259.272583
  30
0.319856
  11
224.82431
  21
263.090194
  31
0.319856
  0
LINE
  8
0
  6
CONTINUOUS
  62
7
  10
217.471166
  20
259.272583
  30
0.319856
  11
224.471165
  21
266.272583
  31
0.319856
  0
LINE
  8
0
  6
CONTINUOUS
  62
7
  10
213.935632
  20
259.272583
  30
0.319856
  11
221.82431
  21
267.161262
  31
0.319856
  0
LINE
  8
0
  6
CONTINUOUS
  62
7
  10
210.400098
  20
259.272583
  30
0.319856
  11
221.82431
  21
270.696796
  31
0.319856
  0
LINE
  8
0
  6
CONTINUOUS
  62
7
  10
208.224304
  20
260.632323
  30
0.319856
  11
221.82431
  21
274.23233
  31
0.319856
  0
LINE
  8
0
  6
CONTINUOUS
  62
7
  10
208.224304
  20
264.167857
  30
0.319856
  11
221.82431
  21
277.767864
  31
0.319856
  0
LINE
  8
0
  6
CONTINUOUS
  62
7
  10
199.82431
  20
259.303397
  30
0.319856
  11
203.424316
  21
262.903403
  31
0.319856
  0
LINE
  8
0
  6
CONTINUOUS
  62
7
  10
208.224304
  20
267.703391
  30
0.319856
  11
221.82431
  21
281.303398
  31
0.319856
  0
LINE
  8
0
  6
CONTINUOUS
  62
7
  10
222.793496
  20
282.272583
  30
0.319856
  11
224.82431
  21
284.303398
  31
0.319856
  0
LINE
  8
0
  6
CONTINUOUS
  62
7
  10
199.82431
  20
262.838931
  30
0.319856
  11
203.424316
  21
266.438937
  31
0.319856
  0
LINE
  8
0
  6
CONTINUOUS
  62
7
  10
208.224304
  20
271.238925
  30
0.319856
  11
220.375526
  21
283.390147
  31
0.319856
  0
LINE
  8
0
  6
CONTINUOUS
  62
7
  10
199.82431
  20
266.374465
  30
0.319856
  11
203.424316
  21
269.974471
  31
0.319856
  0
LINE
  8
0
  6
CONTINUOUS
  62
7
  10
208.224304
  20
274.774459
  30
0.319856
  11
215.278645
  21
281.8288
  31
0.319856
  0
LINE
  8
0
  6
CONTINUOUS
  62
7
  10
199.82431
  20
269.909999
  30
0.319856
  11
203.424316
  21
273.510005
  31
0.319856
  0
LINE
  8
0
  6
CONTINUOUS
  62
7
  10
207.949866
  20
278.035554
  30
0.319856
  11
212.653214
  21
282.738903
  31
0.319856
  0
LINE
  8
0
  6
CONTINUOUS
  62
7
  10
199.82431
  20
273.445533
  30
0.319856
  11
203.424316
  21
277.045539
  31
0.319856
  0
LINE
  8
0
  6
CONTINUOUS
  62
7
  10
205.391851
  20
279.013073
  30
0.319856
  11
208.415269
  21
282.036492
  31
0.319856
  0
LINE
  8
0
  6
CONTINUOUS
  62
7
  10
199.82431
  20
276.981067
  30
0.319856
  11
205.849743
  21
283.006499
  31
0.319856
  0
LINE
  8
0
  6
CONTINUOUS
  62
7
  10
199.82431
  20
280.516601
  30
0.319856
  11
202.605071
  21
283.297362
  31
0.319856
  0
LINE
  8
0
  6
CONTINUOUS
  62
7
  10
223.917233
  20
259.272583
  30
0.319856
  11
224.82431
  21
260.17966
  31
0.319856
  0
LINE
  8
0
  6
CONTINUOUS
  62
7
  10
220.3817
  20
259.272583
  30
0.319856
  11
224.82431
  21
263.715194
  31
0.319856
  0
LINE
  8
0
  6
CONTINUOUS
  62
7
  10
216.846166
  20
259.272583
  30
0.319856
  11
223.846165
  21
266.272583
  31
0.319856
  0
LINE
  8
0
  6
CONTINUOUS
  62
7
  10
213.310632
  20
259.272583
  30
0.319856
  11
221.82431
  21
267.786262
  31
0.319856
  0
LINE
  8
0
  6
CONTINUOUS
  62
7
  10
209.775098
  20
259.272583
  30
0.319856
  11
221.82431
  21
271.321796
  31
0.319856
  0
LINE
  8
0
  6
CONTINUOUS
  62
7
  10
208.224304
  20
261.257323
  30
0.319856
  11
221.82431
  21
274.85733
  31
0.319856
  0
LINE
  8
0
  6
CONTINUOUS
  62
7
  10
208.224304
  20
264.792857
  30
0.319856
  11
221.82431
  21
278.392864
  31
0.319856
  0
LINE
  8
0
  6
CONTINUOUS
  62
7
  10
199.82431
  20
259.928397
  30
0.319856
  11
203.424316
  21
263.528403
  31
0.319856
  0
LINE
  8
0
  6
CONTINUOUS
  62
7
  10
208.224304
  20
268.328391
  30
0.319856
  11
221.82431
  21
281.928398
  31
0.319856
  0
LINE
  8
0
  6
CONTINUOUS
  62
7
  10
222.168496
  20
282.272583
  30
0.319856
  11
224.571397
  21
284.675484
  31
0.319856
  0
LINE
  8
0
  6
CONTINUOUS
  62
7
  10
199.82431
  20
263.463931
  30
0.319856
  11
203.424316
  21
267.063937
  31
0.319856
  0
LINE
  8
0
  6
CONTINUOUS
  62
7
  10
208.224304
  20
271.863925
  30
0.319856
  11
219.474516
  21
283.114137
  31
0.319856
  0
LINE
  8
0
  6
CONTINUOUS
  62
7
  10
199.82431
  20
266.999465
  30
0.319856
  11
203.424316
  21
270.599471
  31
0.319856
  0
LINE
  8
0
  6
CONTINUOUS
  62
7
  10
208.224304
  20
275.399459
  30
0.319856
  11
214.640889
  21
281.816044
  31
0.319856
  0
LINE
  8
0
  6
CONTINUOUS
  62
7
  10
199.82431
  20
270.534999
  30
0.319856
  11
203.424316
  21
274.135005
  31
0.319856
  0
LINE
  8
0
  6
CONTINUOUS
  62
7
  10
207.553633
  20
278.264322
  30
0.319856
  11
212.226387
  21
282.937076
  31
0.319856
  0
LINE
  8
0
  6
CONTINUOUS
  62
7
  10
199.82431
  20
274.070533
  30
0.319856
  11
203.424316
  21
277.670539
  31
0.319856
  0
LINE
  8
0
  6
CONTINUOUS
  62
7
  10
203.913065
  20
278.159288
  30
0.319856
  11
207.677283
  21
281.923505
  31
0.319856
  0
LINE
  8
0
  6
CONTINUOUS
  62
7
  10
199.82431
  20
277.606067
  30
0.319856
  11
205.457302
  21
283.239058
  31
0.319856
  0
LINE
  8
0
  6
CONTINUOUS
  62
7
  10
199.82431
  20
281.141601
  30
0.319856
  11
201.830621
  21
283.147911
  31
0.319856
  0
ENDBLK
  0
BLOCK
  8
0
  70
65
  2
*G9
  10
0.0
  20
0.0
  30
0.0
  3
*G
  0
ARC
  8
0
  6
CONTINUOUS
  62
7
  10
273.343994
  20
236.598587
  30
0.025368
  40
0.5
  50
180.0
  51
270.0
  0
POLYLINE
  8
0
  6
CONTINUOUS
  62
7
  40
0.019685
  41
0.019685
  66
1
  70
8
  1001
ACAD
  1000
TCW25BRUSH
  1002
{
  1000
Solid
  1071
-5
  1070
0
  1002
}
  0
VERTEX
  8
0
  10
282.343994
  20
236.098587
  30
0.084081
  70
32
  0
VERTEX
  8
0
  10
273.343994
  20
236.098587
  30
0.084081
  70
32
  0
SEQEND
  0
POLYLINE
  8
0
  6
CONTINUOUS
  62
7
  40
0.019685
  41
0.019685
  66
1
  70
8
  1001
ACAD
  1000
TCW25BRUSH
  1002
{
  1000
Solid
  1071
-5
  1070
0
  1002
}
  0
VERTEX
  8
0
  10
272.843994
  20
236.598587
  30
0.025368
  70
32
  0
VERTEX
  8
0
  10
272.843994
  20
241.729279
  30
0.025368
  70
32
  0
SEQEND
  0
ARC
  8
0
  6
CONTINUOUS
  62
7
  10
282.343994
  20
236.598587
  30
0.025368
  40
0.5
  50
-90.0
  51
0.0
  0
POLYLINE
  8
0
  6
CONTINUOUS
  62
7
  40
0.019685
  41
0.019685
  66
1
  70
8
  1001
ACAD
  1000
TCW25BRUSH
  1002
{
  1000
Solid
  1071
-5
  1070
0
  1002
}
  0
VERTEX
  8
0
  10
282.843994
  20
236.598587
  30
0.025368
  70
32
  0
VERTEX
  8
0
  10
282.843994
  20
241.729279
  30
0.025368
  70
32
  0
SEQEND
  0
POLYLINE
  8
0
  6
$AUXILIARY
  62
7
  40
0.007874
  41
0.007874
  66
1
  70
8
  1001
ACAD
  1000
TCW25BRUSH
  1002
{
  1000
Solid
  1071
-5
  1070
0
  1002
}
  0
VERTEX
  8
0
  10
280.843994
  20
239.810425
  30
0.084081
  70
32
  0
VERTEX
  8
0
  10
274.843994
  20
239.810425
  30
0.084081
  70
32
  0
SEQEND
  0
POLYLINE
  8
0
  6
$AUXILIARY
  62
7
  40
0.007874
  41
0.007874
  66
1
  70
8
  1001
ACAD
  1000
TCW25BRUSH
  1002
{
  1000
Solid
  1071
-5
  1070
0
  1002
}
  0
VERTEX
  8
0
  10
274.843994
  20
236.098587
  30
0.025368
  70
32
  0
VERTEX
  8
0
  10
274.843994
  20
239.810425
  30
0.025368
  70
32
  0
SEQEND
  0
POLYLINE
  8
0
  6
$AUXILIARY
  62
7
  40
0.007874
  41
0.007874
  66
1
  70
8
  1001
ACAD
  1000
TCW25BRUSH
  1002
{
  1000
Solid
  1071
-5
  1070
0
  1002
}
  0
VERTEX
  8
0
  10
280.843994
  20
236.098587
  30
0.025368
  70
32
  0
VERTEX
  8
0
  10
280.843994
  20
239.810425
  30
0.025368
  70
32
  0
SEQEND
  0
POLYLINE
  8
0
  6
$AUXILIARY
  62
7
  40
0.007874
  41
0.007874
  66
1
  70
8
  1001
ACAD
  1000
TCW25BRUSH
  1002
{
  1000
Solid
  1071
-5
  1070
0
  1002
}
  0
VERTEX
  8
0
  10
276.343994
  20
236.098587
  30
0.025368
  70
32
  0
VERTEX
  8
0
  10
276.343994
  20
239.810425
  30
0.025368
  70
32
  0
SEQEND
  0
POLYLINE
  8
0
  6
$AUXILIARY
  62
7
  40
0.007874
  41
0.007874
  66
1
  70
8
  1001
ACAD
  1000
TCW25BRUSH
  1002
{
  1000
Solid
  1071
-5
  1070
0
  1002
}
  0
VERTEX
  8
0
  10
279.343994
  20
236.098587
  30
0.025368
  70
32
  0
VERTEX
  8
0
  10
279.343994
  20
239.810425
  30
0.025368
  70
32
  0
SEQEND
  0
POLYLINE
  8
0
  6
$AUXILIARY
  62
7
  40
0.007874
  41
0.007874
  66
1
  70
8
  1001
ACAD
  1000
TCW25BRUSH
  1002
{
  1000
Solid
  1071
-5
  1070
0
  1002
}
  0
VERTEX
  8
0
  10
274.843994
  20
239.810425
  30
0.025368
  70
32
  0
VERTEX
  8
0
  10
277.843994
  20
240.733215
  30
0.025368
  70
32
  0
SEQEND
  0
POLYLINE
  8
0
  6
$AUXILIARY
  62
7
  40
0.007874
  41
0.007874
  66
1
  70
8
  1001
ACAD
  1000
TCW25BRUSH
  1002
{
  1000
Solid
  1071
-5
  1070
0
  1002
}
  0
VERTEX
  8
0
  10
280.843994
  20
239.810425
  30
0.025368
  70
32
  0
VERTEX
  8
0
  10
277.843994
  20
240.733215
  30
0.025368
  70
32
  0
SEQEND
  0
ENDBLK
  0
BLOCK
  8
0
  70
65
  2
*H10
  10
0.0
  20
0.0
  30
0.0
  3
*H
  0
LINE
  8
0
  6
CONTINUOUS
  62
7
  10
280.205213
  20
287.276293
  30
0.489206
  11
282.789185
  21
289.860265
  31
0.489206
  0
LINE
  8
0
  6
CONTINUOUS
  62
7
  10
280.189172
  20
290.795787
  30
0.489206
  11
282.789185
  21
293.395799
  31
0.489206
  0
LINE
  8
0
  6
CONTINUOUS
  62
7
  10
272.789185
  20
286.931332
  30
0.489206
  11
275.389191
  21
289.531339
  31
0.489206
  0
LINE
  8
0
  6
CONTINUOUS
  62
7
  10
280.189166
  20
294.331314
  30
0.489206
  11
282.789185
  21
296.931333
  31
0.489206
  0
LINE
  8
0
  6
CONTINUOUS
  62
7
  10
272.789185
  20
290.466866
  30
0.489206
  11
275.389191
  21
293.066873
  31
0.489206
  0
LINE
  8
0
  6
CONTINUOUS
  62
7
  10
280.18916
  20
297.866842
  30
0.489206
  11
284.317107
  21
301.994789
  31
0.489206
  0
LINE
  8
0
  6
CONTINUOUS
  62
7
  10
272.789185
  20
294.0024
  30
0.489206
  11
275.389191
  21
296.602407
  31
0.489206
  0
LINE
  8
0
  6
CONTINUOUS
  62
7
  10
280.189154
  20
301.40237
  30
0.489206
  11
285.92467
  21
307.137886
  31
0.489206
  0
LINE
  8
0
  6
CONTINUOUS
  62
7
  10
272.728953
  20
297.477702
  30
0.489206
  11
275.389191
  21
300.137941
  31
0.489206
  0
LINE
  8
0
  6
CONTINUOUS
  62
7
  10
280.169355
  20
304.918105
  30
0.489206
  11
283.550069
  21
308.298819
  31
0.489206
  0
LINE
  8
0
  6
CONTINUOUS
  62
7
  10
271.861905
  20
300.146189
  30
0.489206
  11
275.389191
  21
303.673475
  31
0.489206
  0
LINE
  8
0
  6
CONTINUOUS
  62
7
  10
277.927924
  20
306.212208
  30
0.489206
  11
280.134396
  21
308.41868
  31
0.489206
  0
LINE
  8
0
  6
CONTINUOUS
  62
7
  10
270.994857
  20
302.814675
  30
0.489206
  11
277.139584
  21
308.959402
  31
0.489206
  0
LINE
  8
0
  6
CONTINUOUS
  62
7
  10
270.12781
  20
305.483162
  30
0.489206
  11
272.661204
  21
308.016556
  31
0.489206
  0
LINE
  8
0
  6
CONTINUOUS
  62
7
  10
269.260762
  20
308.151648
  30
0.489206
  11
269.49811
  21
308.388996
  31
0.489206
  0
ENDBLK
  0
BLOCK
  8
0
  70
65
  2
*H11
  10
0.0
  20
0.0
  30
0.0
  3
*H
  0
LINE
  8
0
  6
CONTINUOUS
  62
7
  10
198.844009
  20
237.109892
  11
200.344009
  21
238.609892
  0
LINE
  8
0
  6
CONTINUOUS
  62
7
  10
198.844009
  20
240.645426
  11
202.594009
  21
244.395426
  0
LINE
  8
0
  6
CONTINUOUS
  62
7
  10
198.844009
  20
244.18096
  11
202.594009
  21
247.93096
  0
LINE
  8
0
  6
CONTINUOUS
  62
7
  10
198.844009
  20
247.716494
  11
202.594009
  21
251.466494
  0
LINE
  8
0
  6
CONTINUOUS
  62
7
  10
198.844009
  20
251.252028
  11
202.594009
  21
255.002028
  0
LINE
  8
0
  6
CONTINUOUS
  62
7
  10
198.844009
  20
254.787562
  11
199.802019
  21
255.745572
  0
LINE
  8
0
  6
CONTINUOUS
  62
7
  10
199.387709
  20
234.743057
  11
200.344009
  21
235.699358
  0
LINE
  8
0
  6
CONTINUOUS
  62
7
  10
198.844009
  20
237.734892
  11
200.344009
  21
239.234892
  0
LINE
  8
0
  6
CONTINUOUS
  62
7
  10
198.844009
  20
241.270426
  11
202.594009
  21
245.020426
  0
LINE
  8
0
  6
CONTINUOUS
  62
7
  10
198.844009
  20
244.80596
  11
202.594009
  21
248.55596
  0
LINE
  8
0
  6
CONTINUOUS
  62
7
  10
198.844009
  20
248.341494
  11
202.594009
  21
252.091494
  0
LINE
  8
0
  6
CONTINUOUS
  62
7
  10
198.844009
  20
251.877028
  11
202.594009
  21
255.627028
  0
LINE
  8
0
  6
CONTINUOUS
  62
7
  10
198.844009
  20
255.412562
  11
199.175374
  21
255.743927
  0
ENDBLK
  0
BLOCK
  8
0
  70
65
  2
*H12
  10
0.0
  20
0.0
  30
0.0
  3
*H
  0
LINE
  8
0
  6
CONTINUOUS
  62
7
  10
211.379693
  20
235.50344
  11
212.844009
  21
236.967757
  0
LINE
  8
0
  6
CONTINUOUS
  62
7
  10
211.344009
  20
239.00329
  11
212.844009
  21
240.503291
  0
LINE
  8
0
  6
CONTINUOUS
  62
7
  10
210.544305
  20
241.73912
  11
212.844009
  21
244.038825
  0
LINE
  8
0
  6
CONTINUOUS
  62
7
  10
209.094009
  20
243.824358
  11
212.844009
  21
247.574359
  0
LINE
  8
0
  6
CONTINUOUS
  62
7
  10
209.094009
  20
247.359892
  11
212.844009
  21
251.109892
  0
LINE
  8
0
  6
CONTINUOUS
  62
7
  10
209.094009
  20
250.895426
  11
212.844009
  21
254.645426
  0
LINE
  8
0
  6
CONTINUOUS
  62
7
  10
209.094009
  20
254.43096
  11
210.406106
  21
255.743057
  0
LINE
  8
0
  6
CONTINUOUS
  62
7
  10
211.344009
  20
236.092757
  11
212.844009
  21
237.592757
  0
LINE
  8
0
  6
CONTINUOUS
  62
7
  10
211.344009
  20
239.628291
  11
212.844009
  21
241.128291
  0
LINE
  8
0
  6
CONTINUOUS
  62
7
  10
209.919305
  20
241.73912
  11
212.844009
  21
244.663825
  0
LINE
  8
0
  6
CONTINUOUS
  62
7
  10
209.094009
  20
244.449358
  11
212.844009
  21
248.199359
  0
LINE
  8
0
  6
CONTINUOUS
  62
7
  10
209.094009
  20
247.984892
  11
212.844009
  21
251.734893
  0
LINE
  8
0
  6
CONTINUOUS
  62
7
  10
209.094009
  20
251.520426
  11
212.844009
  21
255.270427
  0
LINE
  8
0
  6
CONTINUOUS
  62
7
  10
209.094009
  20
255.05596
  11
209.781106
  21
255.743057
  0
ENDBLK
  0
BLOCK
  8
0
  70
65
  2
*H13
  10
0.0
  20
0.0
  30
0.0
  3
*H
  0
LINE
  8
0
  6
CONTINUOUS
  62
7
  10
270.843994
  20
234.863666
  11
272.343994
  21
236.363666
  0
LINE
  8
0
  6
CONTINUOUS
  62
7
  10
270.843994
  20
238.3992
  11
272.343994
  21
239.8992
  0
LINE
  8
0
  6
CONTINUOUS
  62
7
  10
274.183914
  20
241.73912
  11
274.593994
  21
242.1492
  0
LINE
  8
0
  6
CONTINUOUS
  62
7
  10
270.843994
  20
241.934734
  11
274.593994
  21
245.684734
  0
LINE
  8
0
  6
CONTINUOUS
  62
7
  10
270.843994
  20
245.470268
  11
274.593994
  21
249.220268
  0
LINE
  8
0
  6
CONTINUOUS
  62
7
  10
270.843994
  20
249.005802
  11
274.593994
  21
252.755802
  0
LINE
  8
0
  6
CONTINUOUS
  62
7
  10
270.843994
  20
252.541336
  11
274.045715
  21
255.743057
  0
LINE
  8
0
  6
CONTINUOUS
  62
7
  10
270.843994
  20
235.488666
  11
272.343994
  21
236.988666
  0
LINE
  8
0
  6
CONTINUOUS
  62
7
  10
270.843994
  20
239.0242
  11
272.343994
  21
240.5242
  0
LINE
  8
0
  6
CONTINUOUS
  62
7
  10
273.558914
  20
241.73912
  11
274.593994
  21
242.7742
  0
LINE
  8
0
  6
CONTINUOUS
  62
7
  10
270.843994
  20
242.559734
  11
274.593994
  21
246.309734
  0
LINE
  8
0
  6
CONTINUOUS
  62
7
  10
270.843994
  20
246.095268
  11
274.593994
  21
249.845268
  0
LINE
  8
0
  6
CONTINUOUS
  62
7
  10
270.843994
  20
249.630802
  11
274.593994
  21
253.380802
  0
LINE
  8
0
  6
CONTINUOUS
  62
7
  10
270.843994
  20
253.166336
  11
273.420715
  21
255.743057
  0
ENDBLK
  0
BLOCK
  8
0
  70
65
  2
*H14
  10
0.0
  20
0.0
  30
0.0
  3
*H
  0
LINE
  8
0
  6
CONTINUOUS
  62
7
  10
283.343994
  20
236.757065
  11
284.843994
  21
238.257065
  0
LINE
  8
0
  6
CONTINUOUS
  62
7
  10
283.343994
  20
240.292599
  11
284.843994
  21
241.792599
  0
LINE
  8
0
  6
CONTINUOUS
  62
7
  10
281.254982
  20
241.73912
  11
284.843994
  21
245.328133
  0
LINE
  8
0
  6
CONTINUOUS
  62
7
  10
281.093994
  20
245.113667
  11
284.843994
  21
248.863667
  0
LINE
  8
0
  6
CONTINUOUS
  62
7
  10
281.093994
  20
248.649201
  11
284.843994
  21
252.399201
  0
LINE
  8
0
  6
CONTINUOUS
  62
7
  10
281.093994
  20
252.184735
  11
284.652317
  21
255.743057
  0
LINE
  8
0
  6
CONTINUOUS
  62
7
  10
281.093994
  20
255.720269
  11
281.116783
  21
255.743057
  0
LINE
  8
0
  6
CONTINUOUS
  62
7
  10
284.240521
  20
234.743057
  11
284.843994
  21
235.346531
  0
LINE
  8
0
  6
CONTINUOUS
  62
7
  10
283.343994
  20
237.382065
  11
284.843994
  21
238.882065
  0
LINE
  8
0
  6
CONTINUOUS
  62
7
  10
283.343994
  20
240.917599
  11
284.843994
  21
242.417599
  0
LINE
  8
0
  6
CONTINUOUS
  62
7
  10
281.093994
  20
242.203133
  11
284.843994
  21
245.953133
  0
LINE
  8
0
  6
CONTINUOUS
  62
7
  10
281.093994
  20
245.738667
  11
284.843994
  21
249.488667
  0
LINE
  8
0
  6
CONTINUOUS
  62
7
  10
281.093994
  20
249.274201
  11
284.843994
  21
253.024201
  0
LINE
  8
0
  6
CONTINUOUS
  62
7
  10
281.093994
  20
252.809735
  11
284.027317
  21
255.743057
  0
ENDBLK
  0
BLOCK
  8
0
  70
65
  2
*H15
  10
0.0
  20
0.0
  30
0.0
  3
*H
  0
LINE
  8
0
  6
CONTINUOUS
  62
7
  10
186.344009
  20
256.222724
  11
183.844009
  21
258.722724
  0
LINE
  8
0
  6
CONTINUOUS
  62
7
  10
184.778301
  20
254.252899
  11
183.844009
  21
255.18719
  0
LINE
  8
0
  6
CONTINUOUS
  62
7
  10
186.344009
  20
259.133258
  11
186.224368
  21
259.252899
  0
LINE
  8
0
  6
CONTINUOUS
  62
7
  10
186.344009
  20
255.597724
  11
183.844009
  21
258.097724
  0
LINE
  8
0
  6
CONTINUOUS
  62
7
  10
184.153301
  20
254.252899
  11
183.844009
  21
254.56219
  0
ENDBLK
  0
BLOCK
  8
0
  70
65
  2
*H16
  10
0.0
  20
0.0
  30
0.0
  3
*H
  0
LINE
  8
0
  6
CONTINUOUS
  62
7
  10
202.503732
  20
257.740672
  11
200.974017
  21
259.270387
  0
LINE
  8
0
  6
CONTINUOUS
  62
7
  10
200.960259
  20
255.748611
  11
197.443791
  21
259.265079
  0
LINE
  8
0
  6
CONTINUOUS
  62
7
  10
198.844009
  20
254.329327
  11
193.913565
  21
259.25977
  0
LINE
  8
0
  6
CONTINUOUS
  62
7
  10
195.384903
  20
254.252899
  11
190.38334
  21
259.254462
  0
LINE
  8
0
  6
CONTINUOUS
  62
7
  10
191.849369
  20
254.252899
  11
189.344009
  21
256.758258
  0
LINE
  8
0
  6
CONTINUOUS
  62
7
  10
202.533468
  20
257.085936
  11
200.349955
  21
259.269449
  0
LINE
  8
0
  6
CONTINUOUS
  62
7
  10
200.336895
  20
255.746975
  11
196.819729
  21
259.264141
  0
LINE
  8
0
  6
CONTINUOUS
  62
7
  10
198.295437
  20
254.252899
  11
193.289504
  21
259.258832
  0
LINE
  8
0
  6
CONTINUOUS
  62
7
  10
194.759903
  20
254.252899
  11
189.759278
  21
259.253524
  0
LINE
  8
0
  6
CONTINUOUS
  62
7
  10
191.224369
  20
254.252899
  11
189.344009
  21
256.133258
  0
ENDBLK
  0
BLOCK
  8
0
  70
65
  2
*H17
  10
0.0
  20
0.0
  30
0.0
  3
*H
  0
LINE
  8
0
  6
CONTINUOUS
  62
7
  10
274.592264
  20
256.362823
  11
271.691896
  21
259.263191
  0
LINE
  8
0
  6
CONTINUOUS
  62
7
  10
271.676496
  20
255.743057
  11
268.15583
  21
259.263723
  0
LINE
  8
0
  6
CONTINUOUS
  62
7
  10
269.63112
  20
254.252899
  11
264.619764
  21
259.264254
  0
LINE
  8
0
  6
CONTINUOUS
  62
7
  10
266.095586
  20
254.252899
  11
261.083699
  21
259.264786
  0
LINE
  8
0
  6
CONTINUOUS
  62
7
  10
262.560052
  20
254.252899
  11
257.547633
  21
259.265317
  0
LINE
  8
0
  6
CONTINUOUS
  62
7
  10
259.024518
  20
254.252899
  11
254.011567
  21
259.265849
  0
LINE
  8
0
  6
CONTINUOUS
  62
7
  10
255.488983
  20
254.252899
  11
250.475501
  21
259.26638
  0
LINE
  8
0
  6
CONTINUOUS
  62
7
  10
251.953449
  20
254.252899
  11
246.939436
  21
259.266912
  0
LINE
  8
0
  6
CONTINUOUS
  62
7
  10
248.417915
  20
254.252899
  11
243.40337
  21
259.267444
  0
LINE
  8
0
  6
CONTINUOUS
  62
7
  10
244.882381
  20
254.252899
  11
239.867304
  21
259.267975
  0
LINE
  8
0
  6
CONTINUOUS
  62
7
  10
241.346847
  20
254.252899
  11
236.331239
  21
259.268507
  0
LINE
  8
0
  6
CONTINUOUS
  62
7
  10
237.811313
  20
254.252899
  11
232.795173
  21
259.269038
  0
LINE
  8
0
  6
CONTINUOUS
  62
7
  10
234.275779
  20
254.252899
  11
229.259107
  21
259.26957
  0
LINE
  8
0
  6
CONTINUOUS
  62
7
  10
230.740244
  20
254.252899
  11
225.723042
  21
259.270101
  0
LINE
  8
0
  6
CONTINUOUS
  62
7
  10
227.20471
  20
254.252899
  11
222.186976
  21
259.270633
  0
LINE
  8
0
  6
CONTINUOUS
  62
7
  10
223.669176
  20
254.252899
  11
218.65091
  21
259.271164
  0
LINE
  8
0
  6
CONTINUOUS
  62
7
  10
220.133642
  20
254.252899
  11
215.114844
  21
259.271696
  0
LINE
  8
0
  6
CONTINUOUS
  62
7
  10
216.598108
  20
254.252899
  11
211.578779
  21
259.272228
  0
LINE
  8
0
  6
CONTINUOUS
  62
7
  10
213.062574
  20
254.252899
  11
212.844009
  21
254.471463
  0
LINE
  8
0
  6
CONTINUOUS
  62
7
  10
211.572415
  20
255.743057
  11
209.175809
  21
258.139663
  0
LINE
  8
0
  6
CONTINUOUS
  62
7
  10
274.58703
  20
255.743057
  11
271.066802
  21
259.263285
  0
LINE
  8
0
  6
CONTINUOUS
  62
7
  10
271.051496
  20
255.743057
  11
267.530736
  21
259.263817
  0
LINE
  8
0
  6
CONTINUOUS
  62
7
  10
269.00612
  20
254.252899
  11
263.99467
  21
259.264348
  0
LINE
  8
0
  6
CONTINUOUS
  62
7
  10
265.470586
  20
254.252899
  11
260.458604
  21
259.26488
  0
LINE
  8
0
  6
CONTINUOUS
  62
7
  10
261.935052
  20
254.252899
  11
256.922539
  21
259.265411
  0
LINE
  8
0
  6
CONTINUOUS
  62
7
  10
258.399517
  20
254.252899
  11
253.386473
  21
259.265943
  0
LINE
  8
0
  6
CONTINUOUS
  62
7
  10
254.863983
  20
254.252899
  11
249.850407
  21
259.266474
  0
LINE
  8
0
  6
CONTINUOUS
  62
7
  10
251.328449
  20
254.252899
  11
246.314342
  21
259.267006
  0
LINE
  8
0
  6
CONTINUOUS
  62
7
  10
247.792915
  20
254.252899
  11
242.778276
  21
259.267538
  0
LINE
  8
0
  6
CONTINUOUS
  62
7
  10
244.257381
  20
254.252899
  11
239.24221
  21
259.268069
  0
LINE
  8
0
  6
CONTINUOUS
  62
7
  10
240.721847
  20
254.252899
  11
235.706145
  21
259.268601
  0
LINE
  8
0
  6
CONTINUOUS
  62
7
  10
237.186313
  20
254.252899
  11
232.170079
  21
259.269132
  0
LINE
  8
0
  6
CONTINUOUS
  62
7
  10
233.650778
  20
254.252899
  11
228.634013
  21
259.269664
  0
LINE
  8
0
  6
CONTINUOUS
  62
7
  10
230.115244
  20
254.252899
  11
225.097948
  21
259.270195
  0
LINE
  8
0
  6
CONTINUOUS
  62
7
  10
226.57971
  20
254.252899
  11
221.561882
  21
259.270727
  0
LINE
  8
0
  6
CONTINUOUS
  62
7
  10
223.044176
  20
254.252899
  11
218.025816
  21
259.271258
  0
LINE
  8
0
  6
CONTINUOUS
  62
7
  10
219.508642
  20
254.252899
  11
214.48975
  21
259.27179
  0
LINE
  8
0
  6
CONTINUOUS
  62
7
  10
215.973108
  20
254.252899
  11
210.953685
  21
259.272322
  0
LINE
  8
0
  6
CONTINUOUS
  62
7
  10
210.947415
  20
255.743057
  11
209.155181
  21
257.535291
  0
ENDBLK
  0
BLOCK
  8
0
  70
65
  2
*H18
  10
0.0
  20
0.0
  30
0.0
  3
*H
  0
LINE
  8
0
  6
CONTINUOUS
  62
7
  10
301.843994
  20
257.395366
  11
299.985578
  21
259.253782
  0
LINE
  8
0
  6
CONTINUOUS
  62
7
  10
301.450927
  20
254.252899
  11
296.448365
  21
259.255461
  0
LINE
  8
0
  6
CONTINUOUS
  62
7
  10
297.915393
  20
254.252899
  11
292.911151
  21
259.257141
  0
LINE
  8
0
  6
CONTINUOUS
  62
7
  10
294.379859
  20
254.252899
  11
289.373937
  21
259.25882
  0
LINE
  8
0
  6
CONTINUOUS
  62
7
  10
290.844325
  20
254.252899
  11
285.836724
  21
259.2605
  0
LINE
  8
0
  6
CONTINUOUS
  62
7
  10
287.308791
  20
254.252899
  11
282.29951
  21
259.262179
  0
LINE
  8
0
  6
CONTINUOUS
  62
7
  10
282.276359
  20
255.749796
  11
281.090683
  21
256.935472
  0
LINE
  8
0
  6
CONTINUOUS
  62
7
  10
301.843994
  20
256.770366
  11
299.360281
  21
259.254078
  0
LINE
  8
0
  6
CONTINUOUS
  62
7
  10
300.825927
  20
254.252899
  11
295.823068
  21
259.255758
  0
LINE
  8
0
  6
CONTINUOUS
  62
7
  10
297.290393
  20
254.252899
  11
292.285854
  21
259.257438
  0
LINE
  8
0
  6
CONTINUOUS
  62
7
  10
293.754859
  20
254.252899
  11
288.74864
  21
259.259117
  0
LINE
  8
0
  6
CONTINUOUS
  62
7
  10
290.219325
  20
254.252899
  11
285.211427
  21
259.260797
  0
LINE
  8
0
  6
CONTINUOUS
  62
7
  10
286.683791
  20
254.252899
  11
281.674213
  21
259.262476
  0
LINE
  8
0
  6
CONTINUOUS
  62
7
  10
281.649715
  20
255.751441
  11
281.092438
  21
256.308717
  0
ENDBLK
  0
BLOCK
  8
0
  70
65
  2
*A19
  10
0.0
  20
0.0
  30
0.0
  3
*A
  0
POLYLINE
  8
0
  6
CONTINUOUS
  62
1
  66
1
  0
VERTEX
  8
0
  10
239.876343
  20
296.102997
  30
0.0
  0
VERTEX
  8
0
  10
242.046555
  20
301.201813
  30
0.0
  0
VERTEX
  8
0
  10
244.046555
  20
301.201813
  30
0.0
  0
VERTEX
  8
0
  10
247.482468
  20
301.201813
  30
0.0
  0
SEQEND
  0
POLYLINE
  8
0
  6
CONTINUOUS
  62
1
  66
1
  1001
ACAD
  1000
TCW25BRUSH
  1002
{
  1000
Solid
  1071
255
  1070
0
  1002
}
  0
VERTEX
  8
0
  10
239.876343
  20
296.102997
  30
0.0
  0
VERTEX
  8
0
  10
239.484711
  20
295.182892
  30
0.0
  0
VERTEX
  8
0
  10
238.972183
  20
295.255432
  30
0.0
  0
VERTEX
  8
0
  10
238.49205
  20
295.061981
  30
0.0
  0
VERTEX
  8
0
  10
238.172958
  20
294.654388
  30
0.0
  0
VERTEX
  8
0
  10
238.100418
  20
294.141876
  30
0.0
  0
VERTEX
  8
0
  10
238.293854
  20
293.661713
  30
0.0
  0
VERTEX
  8
0
  10
238.701447
  20
293.342651
  30
0.0
  0
VERTEX
  8
0
  10
239.213974
  20
293.270081
  30
0.0
  0
VERTEX
  8
0
  10
239.694107
  20
293.463531
  30
0.0
  0
VERTEX
  8
0
  10
240.013199
  20
293.871124
  30
0.0
  0
VERTEX
  8
0
  10
240.085739
  20
294.383667
  30
0.0
  0
VERTEX
  8
0
  10
239.892303
  20
294.8638
  30
0.0
  0
VERTEX
  8
0
  10
239.484711
  20
295.182892
  30
0.0
  0
VERTEX
  8
0
  10
239.484711
  20
295.182892
  30
0.0
  0
SEQEND
  0
TEXT
  8
0
  62
7
  10
245.546555
  20
303.772568
  1
3
  40
3.212265
  7
STANDARD
  72
5
  11
247.482468
  21
303.772568
  31
0.0
  0
ENDBLK
  0
BLOCK
  8
0
  70
65
  2
*A20
  10
0.0
  20
0.0
  30
0.0
  3
*A
  0
POLYLINE
  8
0
  6
CONTINUOUS
  62
1
  66
1
  0
VERTEX
  8
0
  10
288.957794
  20
309.84845
  30
0.0
  0
VERTEX
  8
0
  10
294.13504
  20
306.571777
  30
0.0
  0
VERTEX
  8
0
  10
296.13504
  20
306.571777
  30
0.0
  0
VERTEX
  8
0
  10
299.570953
  20
306.571777
  30
0.0
  0
SEQEND
  0
POLYLINE
  8
0
  6
CONTINUOUS
  62
1
  66
1
  1001
ACAD
  1000
TCW25BRUSH
  1002
{
  1000
Solid
  1071
255
  1070
0
  1002
}
  0
VERTEX
  8
0
  10
288.957794
  20
309.84845
  30
0.0
  0
VERTEX
  8
0
  10
288.112793
  20
310.38324
  30
0.0
  0
VERTEX
  8
0
  10
288.266998
  20
310.87738
  30
0.0
  0
VERTEX
  8
0
  10
288.153442
  20
311.382416
  30
0.0
  0
VERTEX
  8
0
  10
287.802612
  20
311.763
  30
0.0
  0
VERTEX
  8
0
  10
287.308472
  20
311.917206
  30
0.0
  0
VERTEX
  8
0
  10
286.803436
  20
311.80365
  30
0.0
  0
VERTEX
  8
0
  10
286.422852
  20
311.45282
  30
0.0
  0
VERTEX
  8
0
  10
286.268646
  20
310.958679
  30
0.0
  0
VERTEX
  8
0
  10
286.382202
  20
310.453644
  30
0.0
  0
VERTEX
  8
0
  10
286.733032
  20
310.073029
  30
0.0
  0
VERTEX
  8
0
  10
287.227173
  20
309.918854
  30
0.0
  0
VERTEX
  8
0
  10
287.732208
  20
310.032379
  30
0.0
  0
VERTEX
  8
0
  10
288.112793
  20
310.38324
  30
0.0
  0
VERTEX
  8
0
  10
288.112793
  20
310.38324
  30
0.0
  0
SEQEND
  0
TEXT
  8
0
  62
7
  10
297.63504
  20
309.142525
  1
4
  40
3.212242
  7
STANDARD
  72
5
  11
299.570953
  21
309.142525
  31
0.0
  0
ENDBLK
  0
BLOCK
  8
0
  70
65
  2
*A21
  10
0.0
  20
0.0
  30
0.0
  3
*A
  0
POLYLINE
  8
0
  6
CONTINUOUS
  62
1
  66
1
  0
VERTEX
  8
0
  10
200.587418
  20
311.146881
  30
0.0
  0
VERTEX
  8
0
  10
197.475998
  20
314.089691
  30
0.0
  0
VERTEX
  8
0
  10
195.475998
  20
314.089691
  30
0.0
  0
VERTEX
  8
0
  10
192.04007
  20
314.089691
  30
0.0
  0
SEQEND
  0
POLYLINE
  8
0
  6
CONTINUOUS
  62
1
  66
1
  1001
ACAD
  1000
TCW25BRUSH
  1002
{
  1000
Solid
  1071
255
  1070
0
  1002
}
  0
VERTEX
  8
0
  10
200.587418
  20
311.146881
  30
0.0
  0
VERTEX
  8
0
  10
201.313934
  20
310.459747
  30
0.0
  0
VERTEX
  8
0
  10
201.067688
  20
310.004425
  30
0.0
  0
VERTEX
  8
0
  10
201.082108
  20
309.486969
  30
0.0
  0
VERTEX
  8
0
  10
201.353302
  20
309.046082
  30
0.0
  0
VERTEX
  8
0
  10
201.808624
  20
308.799835
  30
0.0
  0
VERTEX
  8
0
  10
202.32605
  20
308.81424
  30
0.0
  0
VERTEX
  8
0
  10
202.766968
  20
309.085449
  30
0.0
  0
VERTEX
  8
0
  10
203.013199
  20
309.540771
  30
0.0
  0
VERTEX
  8
0
  10
202.998795
  20
310.058197
  30
0.0
  0
VERTEX
  8
0
  10
202.7276
  20
310.499115
  30
0.0
  0
VERTEX
  8
0
  10
202.272278
  20
310.745361
  30
0.0
  0
VERTEX
  8
0
  10
201.754837
  20
310.730927
  30
0.0
  0
VERTEX
  8
0
  10
201.313934
  20
310.459747
  30
0.0
  0
VERTEX
  8
0
  10
201.313934
  20
310.459747
  30
0.0
  0
SEQEND
  0
TEXT
  8
0
  62
7
  10
192.04007
  20
316.660439
  1
2
  40
3.212242
  7
STANDARD
  72
5
  11
193.975998
  21
316.660439
  31
0.0
  0
ENDBLK
  0
BLOCK
  8
0
  70
65
  2
*A22
  10
0.0
  20
0.0
  30
0.0
  3
*A
  0
POLYLINE
  8
0
  6
CONTINUOUS
  62
1
  66
1
  0
VERTEX
  8
0
  10
182.772476
  20
259.393982
  30
0.0
  0
VERTEX
  8
0
  10
179.755173
  20
264.1492
  30
0.0
  0
VERTEX
  8
0
  10
177.755173
  20
264.1492
  30
0.0
  0
VERTEX
  8
0
  10
174.319244
  20
264.1492
  30
0.0
  0
SEQEND
  0
POLYLINE
  8
0
  6
CONTINUOUS
  62
1
  66
1
  1001
ACAD
  1000
TCW25BRUSH
  1002
{
  1000
Solid
  1071
255
  1070
0
  1002
}
  0
VERTEX
  8
0
  10
182.772476
  20
259.393982
  30
0.0
  0
VERTEX
  8
0
  10
183.308243
  20
258.549622
  30
0.0
  0
VERTEX
  8
0
  10
182.95784
  20
258.16861
  30
0.0
  0
VERTEX
  8
0
  10
182.844879
  20
257.663452
  30
0.0
  0
VERTEX
  8
0
  10
182.999649
  20
257.169495
  30
0.0
  0
VERTEX
  8
0
  10
183.380661
  20
256.819092
  30
0.0
  0
VERTEX
  8
0
  10
183.885818
  20
256.706116
  30
0.0
  0
VERTEX
  8
0
  10
184.379776
  20
256.860901
  30
0.0
  0
VERTEX
  8
0
  10
184.730179
  20
257.241913
  30
0.0
  0
VERTEX
  8
0
  10
184.84314
  20
257.74707
  30
0.0
  0
VERTEX
  8
0
  10
184.68837
  20
258.241028
  30
0.0
  0
VERTEX
  8
0
  10
184.307373
  20
258.591431
  30
0.0
  0
VERTEX
  8
0
  10
183.8022
  20
258.704376
  30
0.0
  0
VERTEX
  8
0
  10
183.308243
  20
258.549622
  30
0.0
  0
VERTEX
  8
0
  10
183.308243
  20
258.549622
  30
0.0
  0
SEQEND
  0
TEXT
  8
0
  62
7
  10
174.319244
  20
266.719948
  1
1
  40
3.212242
  7
STANDARD
  72
5
  11
176.255173
  21
266.719948
  31
0.0
  0
ENDBLK
  0
BLOCK
  8
0
  70
65
  2
*A23
  10
0.0
  20
0.0
  30
0.0
  3
*A
  0
POLYLINE
  8
0
  6
CONTINUOUS
  62
1
  66
1
  0
VERTEX
  8
0
  10
126.216087
  20
232.789581
  30
0.0
  0
VERTEX
  8
0
  10
128.740692
  20
221.290298
  30
0.0
  0
VERTEX
  8
0
  10
130.740692
  20
221.290298
  30
0.0
  0
VERTEX
  8
0
  10
134.176605
  20
221.290298
  30
0.0
  0
SEQEND
  0
POLYLINE
  8
0
  6
CONTINUOUS
  62
1
  66
1
  1001
ACAD
  1000
TCW25BRUSH
  1002
{
  1000
Solid
  1071
255
  1070
0
  1002
}
  0
VERTEX
  8
0
  10
126.216087
  20
232.789581
  30
0.0
  0
VERTEX
  8
0
  10
126.001656
  20
233.766327
  30
0.0
  0
VERTEX
  8
0
  10
126.461296
  20
234.004395
  30
0.0
  0
VERTEX
  8
0
  10
126.740311
  20
234.440399
  30
0.0
  0
VERTEX
  8
0
  10
126.763954
  20
234.957504
  30
0.0
  0
VERTEX
  8
0
  10
126.525879
  20
235.41713
  30
0.0
  0
VERTEX
  8
0
  10
126.089874
  20
235.696152
  30
0.0
  0
VERTEX
  8
0
  10
125.572777
  20
235.719803
  30
0.0
  0
VERTEX
  8
0
  10
125.113136
  20
235.48172
  30
0.0
  0
VERTEX
  8
0
  10
124.834114
  20
235.045715
  30
0.0
  0
VERTEX
  8
0
  10
124.810478
  20
234.528625
  30
0.0
  0
VERTEX
  8
0
  10
125.048553
  20
234.068985
  30
0.0
  0
VERTEX
  8
0
  10
125.484558
  20
233.789963
  30
0.0
  0
VERTEX
  8
0
  10
126.001656
  20
233.766327
  30
0.0
  0
VERTEX
  8
0
  10
126.001656
  20
233.766327
  30
0.0
  0
SEQEND
  0
TEXT
  8
0
  62
7
  10
132.240692
  20
223.86105
  1
5
  40
3.212254
  7
STANDARD
  72
5
  11
134.176605
  21
223.86105
  31
0.0
  0
ENDBLK
  0
BLOCK
  8
0
  70
65
  2
*A24
  10
0.0
  20
0.0
  30
0.0
  3
*A
  0
POLYLINE
  8
0
  6
CONTINUOUS
  62
1
  66
1
  0
VERTEX
  8
0
  10
142.418015
  20
228.045792
  30
0.0
  0
VERTEX
  8
0
  10
146.461517
  20
221.558807
  30
0.0
  0
VERTEX
  8
0
  10
148.461517
  20
221.558807
  30
0.0
  0
VERTEX
  8
0
  10
151.89743
  20
221.558807
  30
0.0
  0
SEQEND
  0
POLYLINE
  8
0
  6
CONTINUOUS
  62
1
  66
1
  1001
ACAD
  1000
TCW25BRUSH
  1002
{
  1000
Solid
  1071
255
  1070
0
  1002
}
  0
VERTEX
  8
0
  10
142.418015
  20
228.045792
  30
0.0
  0
VERTEX
  8
0
  10
141.889038
  20
228.894424
  30
0.0
  0
VERTEX
  8
0
  10
142.242493
  20
229.272614
  30
0.0
  0
VERTEX
  8
0
  10
142.359497
  20
229.776855
  30
0.0
  0
VERTEX
  8
0
  10
142.208694
  20
230.272034
  30
0.0
  0
VERTEX
  8
0
  10
141.830521
  20
230.625488
  30
0.0
  0
VERTEX
  8
0
  10
141.326279
  20
230.742493
  30
0.0
  0
VERTEX
  8
0
  10
140.831085
  20
230.59169
  30
0.0
  0
VERTEX
  8
0
  10
140.477631
  20
230.213516
  30
0.0
  0
VERTEX
  8
0
  10
140.360626
  20
229.709274
  30
0.0
  0
VERTEX
  8
0
  10
140.511429
  20
229.214081
  30
0.0
  0
VERTEX
  8
0
  10
140.889603
  20
228.860641
  30
0.0
  0
VERTEX
  8
0
  10
141.393845
  20
228.743637
  30
0.0
  0
VERTEX
  8
0
  10
141.889038
  20
228.894424
  30
0.0
  0
VERTEX
  8
0
  10
141.889038
  20
228.894424
  30
0.0
  0
SEQEND
  0
TEXT
  8
0
  62
7
  10
149.961517
  20
224.129555
  1
6
  40
3.212242
  7
STANDARD
  72
5
  11
151.89743
  21
224.129555
  31
0.0
  0
ENDBLK
  0
BLOCK
  8
0
  70
65
  2
*A25
  10
0.0
  20
0.0
  30
0.0
  3
*A
  0
POLYLINE
  8
0
  6
CONTINUOUS
  62
1
  66
1
  0
VERTEX
  8
0
  10
146.628235
  20
248.159439
  30
0.0
  0
VERTEX
  8
0
  10
150.757462
  20
250.28801
  30
0.0
  0
VERTEX
  8
0
  10
152.757462
  20
250.28801
  30
0.0
  0
VERTEX
  8
0
  10
156.19339
  20
250.28801
  30
0.0
  0
SEQEND
  0
POLYLINE
  8
0
  6
CONTINUOUS
  62
1
  66
1
  1001
ACAD
  1000
TCW25BRUSH
  1002
{
  1000
Solid
  1071
255
  1070
0
  1002
}
  0
VERTEX
  8
0
  10
146.628235
  20
248.159439
  30
0.0
  0
VERTEX
  8
0
  10
145.73938
  20
247.701248
  30
0.0
  0
VERTEX
  8
0
  10
145.391205
  20
248.08429
  30
0.0
  0
VERTEX
  8
0
  10
144.898148
  20
248.241928
  30
0.0
  0
VERTEX
  8
0
  10
144.392334
  20
248.131912
  30
0.0
  0
VERTEX
  8
0
  10
144.009293
  20
247.783737
  30
0.0
  0
VERTEX
  8
0
  10
143.851654
  20
247.29068
  30
0.0
  0
VERTEX
  8
0
  10
143.96167
  20
246.784866
  30
0.0
  0
VERTEX
  8
0
  10
144.30986
  20
246.401825
  30
0.0
  0
VERTEX
  8
0
  10
144.802902
  20
246.244202
  30
0.0
  0
VERTEX
  8
0
  10
145.308716
  20
246.354202
  30
0.0
  0
VERTEX
  8
0
  10
145.691757
  20
246.702393
  30
0.0
  0
VERTEX
  8
0
  10
145.849396
  20
247.195435
  30
0.0
  0
VERTEX
  8
0
  10
145.73938
  20
247.701248
  30
0.0
  0
VERTEX
  8
0
  10
145.73938
  20
247.701248
  30
0.0
  0
SEQEND
  0
TEXT
  8
0
  62
7
  10
154.257462
  20
252.858761
  1
7
  40
3.212254
  7
STANDARD
  72
5
  11
156.19339
  21
252.858761
  31
0.0
  0
ENDBLK
  0
BLOCK
  8
0
  70
65
  2
*A26
  10
0.0
  20
0.0
  30
0.0
  3
*A
  0
POLYLINE
  8
0
  6
CONTINUOUS
  62
1
  66
1
  0
VERTEX
  8
0
  10
207.610672
  20
240.890945
  30
0.0
  0
VERTEX
  8
0
  10
221.372269
  20
234.446671
  30
0.0
  0
VERTEX
  8
0
  10
223.372269
  20
234.446671
  30
0.0
  0
VERTEX
  8
0
  10
226.808182
  20
234.446671
  30
0.0
  0
SEQEND
  0
POLYLINE
  8
0
  6
CONTINUOUS
  62
1
  66
1
  1001
ACAD
  1000
TCW25BRUSH
  1002
{
  1000
Solid
  1071
255
  1070
0
  1002
}
  0
VERTEX
  8
0
  10
207.610672
  20
240.890945
  30
0.0
  0
VERTEX
  8
0
  10
206.705048
  20
241.315033
  30
0.0
  0
VERTEX
  8
0
  10
206.795761
  20
241.824661
  30
0.0
  0
VERTEX
  8
0
  10
206.619507
  20
242.311371
  30
0.0
  0
VERTEX
  8
0
  10
206.223511
  20
242.644745
  30
0.0
  0
VERTEX
  8
0
  10
205.713882
  20
242.735458
  30
0.0
  0
VERTEX
  8
0
  10
205.227173
  20
242.559189
  30
0.0
  0
VERTEX
  8
0
  10
204.893799
  20
242.163208
  30
0.0
  0
VERTEX
  8
0
  10
204.803085
  20
241.65358
  30
0.0
  0
VERTEX
  8
0
  10
204.97934
  20
241.16687
  30
0.0
  0
VERTEX
  8
0
  10
205.375336
  20
240.833496
  30
0.0
  0
VERTEX
  8
0
  10
205.884964
  20
240.742783
  30
0.0
  0
VERTEX
  8
0
  10
206.371674
  20
240.919037
  30
0.0
  0
VERTEX
  8
0
  10
206.705048
  20
241.315033
  30
0.0
  0
VERTEX
  8
0
  10
206.705048
  20
241.315033
  30
0.0
  0
SEQEND
  0
TEXT
  8
0
  62
7
  10
224.872269
  20
237.017422
  1
8
  40
3.212254
  7
STANDARD
  72
5
  11
226.808182
  21
237.017422
  31
0.0
  0
ENDBLK
  0
BLOCK
  8
0
  70
65
  2
*A27
  10
0.0
  20
0.0
  30
0.0
  3
*A
  0
POLYLINE
  8
0
  6
CONTINUOUS
  62
1
  66
1
  0
VERTEX
  8
0
  10
279.514801
  20
240.865295
  30
0.0
  0
VERTEX
  8
0
  10
291.718597
  20
232.835693
  30
0.0
  0
VERTEX
  8
0
  10
293.718597
  20
232.835693
  30
0.0
  0
VERTEX
  8
0
  10
297.15451
  20
232.835693
  30
0.0
  0
SEQEND
  0
POLYLINE
  8
0
  6
CONTINUOUS
  62
1
  66
1
  1001
ACAD
  1000
TCW25BRUSH
  1002
{
  1000
Solid
  1071
255
  1070
0
  1002
}
  0
VERTEX
  8
0
  10
279.514801
  20
240.865295
  30
0.0
  0
VERTEX
  8
0
  10
278.679382
  20
241.414948
  30
0.0
  0
VERTEX
  8
0
  10
278.842316
  20
241.906281
  30
0.0
  0
VERTEX
  8
0
  10
278.737701
  20
242.413239
  30
0.0
  0
VERTEX
  8
0
  10
278.393646
  20
242.799988
  30
0.0
  0
VERTEX
  8
0
  10
277.902313
  20
242.962891
  30
0.0
  0
VERTEX
  8
0
  10
277.395355
  20
242.858307
  30
0.0
  0
VERTEX
  8
0
  10
277.008606
  20
242.514252
  30
0.0
  0
VERTEX
  8
0
  10
276.845703
  20
242.022919
  30
0.0
  0
VERTEX
  8
0
  10
276.950287
  20
241.515961
  30
0.0
  0
VERTEX
  8
0
  10
277.294342
  20
241.129211
  30
0.0
  0
VERTEX
  8
0
  10
277.785675
  20
240.966293
  30
0.0
  0
VERTEX
  8
0
  10
278.292664
  20
241.070892
  30
0.0
  0
VERTEX
  8
0
  10
278.679382
  20
241.414948
  30
0.0
  0
VERTEX
  8
0
  10
278.679382
  20
241.414948
  30
0.0
  0
SEQEND
  0
TEXT
  8
0
  62
7
  10
295.218597
  20
235.406441
  1
9
  40
3.212242
  7
STANDARD
  72
5
  11
297.15451
  21
235.406441
  31
0.0
  0
ENDBLK
  0
ENDSEC
  0
SECTION
  2
ENTITIES
  0
POLYLINE
  8
0
  6
CONTINUOUS
  62
7
  40
0.019685
  41
0.019685
  66
1
  70
8
  0
VERTEX
  8
0
  10
212.844009
  20
254.252899
  30
0.404851
  70
32
  0
VERTEX
  8
0
  10
270.843994
  20
254.252899
  30
0.404851
  70
32
  0
SEQEND
  0
POLYLINE
  8
0
  6
CONTINUOUS
  62
7
  40
0.019685
  41
0.019685
  66
1
  70
8
  0
VERTEX
  8
0
  10
284.844025
  20
254.252899
  30
0.404851
  70
32
  0
VERTEX
  8
0
  10
301.843994
  20
254.252899
  30
0.404851
  70
32
  0
VERTEX
  8
0
  10
301.843994
  20
259.252899
  30
0.404851
  70
32
  0
VERTEX
  8
0
  10
281.093994
  20
259.252899
  30
0.0
  70
32
  0
SEQEND
  0
POLYLINE
  8
0
  6
CONTINUOUS
  62
7
  40
0.019685
  41
0.019685
  66
1
  0
VERTEX
  8
0
  10
274.593994
  20
259.252899
  30
0.0
  0
VERTEX
  8
0
  10
209.094009
  20
259.252899
  30
0.0
  0
SEQEND
  0
POLYLINE
  8
0
  6
CONTINUOUS
  62
7
  40
0.019685
  41
0.019685
  66
1
  70
8
  0
VERTEX
  8
0
  10
202.594009
  20
259.252899
  30
0.0
  70
32
  0
VERTEX
  8
0
  10
183.844009
  20
259.252899
  30
0.404851
  70
32
  0
VERTEX
  8
0
  10
183.844009
  20
254.252899
  30
0.404851
  70
32
  0
VERTEX
  8
0
  10
198.844009
  20
254.252899
  30
0.404851
  70
32
  0
SEQEND
  0
POLYLINE
  8
0
  6
CENTER
  62
7
  40
0.007874
  41
0.007874
  66
1
  70
8
  0
VERTEX
  8
0
  10
277.843994
  20
242.033142
  30
0.404851
  70
32
  0
VERTEX
  8
0
  10
277.843994
  20
264.420441
  30
0.404851
  70
32
  0
SEQEND
  0
POLYLINE
  8
0
  6
CENTER
  62
7
  40
0.007874
  41
0.007874
  66
1
  70
8
  0
VERTEX
  8
0
  10
205.844009
  20
242.753571
  30
0.404851
  70
32
  0
VERTEX
  8
0
  10
205.844009
  20
264.056854
  30
0.404851
  70
32
  0
SEQEND
  0
POLYLINE
  8
0
  6
CENTER
  62
7
  40
0.007874
  41
0.007874
  66
1
  70
8
  0
VERTEX
  8
0
  10
187.844009
  20
264.056854
  30
0.404851
  70
32
  0
VERTEX
  8
0
  10
187.844009
  20
245.514435
  30
0.404851
  70
32
  0
SEQEND
  0
POLYLINE
  8
0
  6
CONTINUOUS
  62
7
  40
0.019685
  41
0.019685
  66
1
  70
8
  0
VERTEX
  8
0
  10
189.344009
  20
259.252899
  30
0.404851
  70
32
  0
VERTEX
  8
0
  10
189.344009
  20
254.252899
  30
0.404851
  70
32
  0
SEQEND
  0
POLYLINE
  8
0
  6
CONTINUOUS
  62
7
  40
0.019685
  41
0.019685
  66
1
  70
8
  0
VERTEX
  8
0
  10
186.344009
  20
259.252899
  30
0.404851
  70
32
  0
VERTEX
  8
0
  10
186.344009
  20
254.252899
  30
0.404851
  70
32
  0
SEQEND
  0
POLYLINE
  8
0
  6
CONTINUOUS
  62
7
  40
0.019685
  41
0.019685
  66
1
  70
8
  0
VERTEX
  8
0
  10
274.593994
  20
255.752899
  30
0.404851
  70
32
  0
VERTEX
  8
0
  10
274.593994
  20
259.252899
  30
0.404851
  70
32
  0
SEQEND
  0
POLYLINE
  8
0
  6
CONTINUOUS
  62
7
  40
0.019685
  41
0.019685
  66
1
  70
8
  0
VERTEX
  8
0
  10
281.093994
  20
255.752899
  30
0.404851
  70
32
  0
VERTEX
  8
0
  10
281.093994
  20
259.252899
  30
0.404851
  70
32
  0
SEQEND
  0
POLYLINE
  8
0
  6
CONTINUOUS
  62
7
  40
0.019685
  41
0.019685
  66
1
  70
8
  0
VERTEX
  8
0
  10
202.594009
  20
255.752899
  30
0.404851
  70
32
  0
VERTEX
  8
0
  10
202.594009
  20
259.252899
  30
0.404851
  70
32
  0
SEQEND
  0
POLYLINE
  8
0
  6
CONTINUOUS
  62
7
  40
0.019685
  41
0.019685
  66
1
  70
8
  0
VERTEX
  8
0
  10
209.094009
  20
255.752899
  30
0.404851
  70
32
  0
VERTEX
  8
0
  10
209.094009
  20
259.252899
  30
0.404851
  70
32
  0
SEQEND
  0
POLYLINE
  8
0
  6
CONTINUOUS
  62
7
  40
0.019685
  41
0.019685
  66
1
  0
VERTEX
  8
0
  10
212.844009
  20
234.743057
  30
0.0
  0
VERTEX
  8
0
  10
198.844009
  20
234.743057
  30
0.0
  0
SEQEND
  0
POLYLINE
  8
0
  6
CONTINUOUS
  62
7
  40
0.019685
  41
0.019685
  66
1
  0
VERTEX
  8
0
  10
198.844009
  20
234.743057
  30
0.0
  0
VERTEX
  8
0
  10
198.844009
  20
255.743057
  30
0.0
  0
SEQEND
  0
POLYLINE
  8
0
  6
CONTINUOUS
  62
7
  40
0.019685
  41
0.019685
  66
1
  0
VERTEX
  8
0
  10
198.844009
  20
255.743057
  30
0.0
  0
VERTEX
  8
0
  10
202.594009
  20
255.743057
  30
0.0
  0
SEQEND
  0
POLYLINE
  8
0
  6
CONTINUOUS
  62
7
  40
0.019685
  41
0.019685
  66
1
  0
VERTEX
  8
0
  10
209.094009
  20
255.743057
  30
0.0
  0
VERTEX
  8
0
  10
212.844009
  20
255.743057
  30
0.0
  0
SEQEND
  0
POLYLINE
  8
0
  6
CONTINUOUS
  62
7
  40
0.019685
  41
0.019685
  66
1
  0
VERTEX
  8
0
  10
212.844009
  20
255.743057
  30
0.0
  0
VERTEX
  8
0
  10
212.844009
  20
234.743057
  30
0.0
  0
SEQEND
  0
POLYLINE
  8
0
  6
CENTER
  62
7
  40
0.007874
  41
0.007874
  66
1
  0
VERTEX
  8
0
  10
205.844009
  20
231.363129
  30
0.0
  0
VERTEX
  8
0
  10
205.844009
  20
255.743057
  30
0.0
  0
SEQEND
  0
POLYLINE
  8
0
  6
CENTER
  62
7
  40
0.007874
  41
0.007874
  66
1
  0
VERTEX
  8
0
  10
212.844009
  20
240.743057
  30
0.0
  0
VERTEX
  8
0
  10
198.844009
  20
240.743057
  30
0.0
  0
SEQEND
  0
POLYLINE
  8
0
  6
CONTINUOUS
  62
7
  40
0.019685
  41
0.019685
  66
1
  70
8
  0
VERTEX
  8
0
  10
202.594009
  20
241.73912
  30
0.058713
  70
32
  0
VERTEX
  8
0
  10
202.594009
  20
255.743057
  30
0.058713
  70
32
  0
SEQEND
  0
POLYLINE
  8
0
  6
CONTINUOUS
  62
7
  40
0.019685
  41
0.019685
  66
1
  70
8
  0
VERTEX
  8
0
  10
209.094009
  20
241.73912
  30
0.058713
  70
32
  0
VERTEX
  8
0
  10
209.094009
  20
255.743057
  30
0.058713
  70
32
  0
SEQEND
  0
POLYLINE
  8
0
  6
CONTINUOUS
  62
7
  40
0.019685
  41
0.019685
  66
1
  70
8
  0
VERTEX
  8
0
  10
200.344009
  20
235.539124
  30
0.058713
  70
32
  0
VERTEX
  8
0
  10
200.344009
  20
241.73912
  30
0.058713
  70
32
  0
SEQEND
  0
POLYLINE
  8
0
  6
CONTINUOUS
  62
7
  40
0.019685
  41
0.019685
  66
1
  70
8
  0
VERTEX
  8
0
  10
211.344009
  20
235.539124
  30
0.058713
  70
32
  0
VERTEX
  8
0
  10
211.344009
  20
241.73912
  30
0.058713
  70
32
  0
SEQEND
  0
POLYLINE
  8
0
  6
CONTINUOUS
  62
7
  40
0.019685
  41
0.019685
  66
1
  70
8
  0
VERTEX
  8
0
  10
211.344009
  20
241.73912
  30
0.058713
  70
32
  0
VERTEX
  8
0
  10
200.344009
  20
241.73912
  30
0.058713
  70
32
  0
SEQEND
  0
POLYLINE
  8
0
  6
CONTINUOUS
  62
7
  40
0.019685
  41
0.019685
  66
1
  70
8
  0
VERTEX
  8
0
  10
211.344009
  20
235.539124
  30
0.058713
  70
32
  0
VERTEX
  8
0
  10
200.344009
  20
235.539124
  30
0.058713
  70
32
  0
SEQEND
  0
POLYLINE
  8
0
  6
CONTINUOUS
  62
7
  40
0.019685
  41
0.019685
  66
1
  1001
ACAD
  1000
TCW25BRUSH
  1002
{
  1000
L45
  1071
-5
  1070
0
  1070
0
  1040
5.0
  1040
0.0
  1002
}
  0
VERTEX
  8
0
  10
200.344009
  20
235.539124
  30
0.0
  0
VERTEX
  8
0
  10
199.547943
  20
234.743057
  30
0.0
  0
SEQEND
  0
POLYLINE
  8
0
  6
CONTINUOUS
  62
7
  40
0.019685
  41
0.019685
  66
1
  1001
ACAD
  1000
TCW25BRUSH
  1002
{
  1000
L45
  1071
-5
  1070
0
  1070
0
  1040
5.0
  1040
0.0
  1002
}
  0
VERTEX
  8
0
  10
211.344009
  20
235.539124
  30
0.0
  0
VERTEX
  8
0
  10
212.140076
  20
234.743057
  30
0.0
  0
SEQEND
  0
POLYLINE
  8
0
  6
CONTINUOUS
  62
7
  40
0.019685
  41
0.019685
  66
1
  70
8
  0
VERTEX
  8
0
  10
284.843994
  20
234.743057
  30
0.170182
  70
32
  0
VERTEX
  8
0
  10
270.843994
  20
234.743057
  30
0.170182
  70
32
  0
SEQEND
  0
POLYLINE
  8
0
  6
CONTINUOUS
  62
7
  40
0.019685
  41
0.019685
  66
1
  70
8
  0
VERTEX
  8
0
  10
270.843994
  20
234.743057
  30
0.170182
  70
32
  0
VERTEX
  8
0
  10
270.843994
  20
255.743057
  30
0.170182
  70
32
  0
SEQEND
  0
POLYLINE
  8
0
  6
CONTINUOUS
  62
7
  40
0.019685
  41
0.019685
  66
1
  70
8
  0
VERTEX
  8
0
  10
270.843994
  20
255.743057
  30
0.170182
  70
32
  0
VERTEX
  8
0
  10
274.593994
  20
255.743057
  30
0.0
  70
32
  0
SEQEND
  0
POLYLINE
  8
0
  6
CONTINUOUS
  62
7
  40
0.019685
  41
0.019685
  66
1
  70
8
  0
VERTEX
  8
0
  10
281.093994
  20
255.743057
  30
0.0
  70
32
  0
VERTEX
  8
0
  10
284.843994
  20
255.743057
  30
0.170182
  70
32
  0
SEQEND
  0
POLYLINE
  8
0
  6
CONTINUOUS
  62
7
  40
0.019685
  41
0.019685
  66
1
  70
8
  0
VERTEX
  8
0
  10
284.843994
  20
255.743057
  30
0.170182
  70
32
  0
VERTEX
  8
0
  10
284.843994
  20
234.743057
  30
0.170182
  70
32
  0
SEQEND
  0
POLYLINE
  8
0
  6
CENTER
  62
7
  40
0.007874
  41
0.007874
  66
1
  70
8
  0
VERTEX
  8
0
  10
277.843994
  20
231.363129
  30
0.170182
  70
32
  0
VERTEX
  8
0
  10
277.843994
  20
255.743057
  30
0.0
  70
32
  0
SEQEND
  0
POLYLINE
  8
0
  6
CENTER
  62
7
  40
0.007874
  41
0.007874
  66
1
  0
VERTEX
  8
0
  10
284.843994
  20
240.743057
  30
0.0
  0
VERTEX
  8
0
  10
270.843994
  20
240.743057
  30
0.0
  0
SEQEND
  0
POLYLINE
  8
0
  6
CONTINUOUS
  62
7
  40
0.019685
  41
0.019685
  66
1
  70
8
  0
VERTEX
  8
0
  10
274.593994
  20
241.73912
  30
0.228895
  70
32
  0
VERTEX
  8
0
  10
274.593994
  20
255.743057
  30
0.228895
  70
32
  0
SEQEND
  0
POLYLINE
  8
0
  6
CONTINUOUS
  62
7
  40
0.019685
  41
0.019685
  66
1
  70
8
  0
VERTEX
  8
0
  10
281.093994
  20
241.73912
  30
0.228895
  70
32
  0
VERTEX
  8
0
  10
281.093994
  20
255.743057
  30
0.228895
  70
32
  0
SEQEND
  0
POLYLINE
  8
0
  6
CONTINUOUS
  62
7
  40
0.019685
  41
0.019685
  66
1
  70
8
  0
VERTEX
  8
0
  10
272.343994
  20
235.539124
  30
0.228895
  70
32
  0
VERTEX
  8
0
  10
272.343994
  20
241.73912
  30
0.228895
  70
32
  0
SEQEND
  0
POLYLINE
  8
0
  6
CONTINUOUS
  62
7
  40
0.019685
  41
0.019685
  66
1
  70
8
  0
VERTEX
  8
0
  10
283.343994
  20
235.539124
  30
0.228895
  70
32
  0
VERTEX
  8
0
  10
283.343994
  20
241.73912
  30
0.228895
  70
32
  0
SEQEND
  0
POLYLINE
  8
0
  6
CONTINUOUS
  62
7
  40
0.019685
  41
0.019685
  66
1
  70
8
  0
VERTEX
  8
0
  10
283.343994
  20
241.73912
  30
0.228895
  70
32
  0
VERTEX
  8
0
  10
272.343994
  20
241.73912
  30
0.228895
  70
32
  0
SEQEND
  0
POLYLINE
  8
0
  6
CONTINUOUS
  62
7
  40
0.019685
  41
0.019685
  66
1
  70
8
  0
VERTEX
  8
0
  10
283.343994
  20
235.539124
  30
0.228895
  70
32
  0
VERTEX
  8
0
  10
272.343994
  20
235.539124
  30
0.228895
  70
32
  0
SEQEND
  0
POLYLINE
  8
0
  6
CONTINUOUS
  62
7
  40
0.019685
  41
0.019685
  66
1
  70
8
  1001
ACAD
  1000
TCW25BRUSH
  1002
{
  1000
L45
  1071
-5
  1070
0
  1070
0
  1040
5.0
  1040
0.0
  1002
}
  0
VERTEX
  8
0
  10
272.343994
  20
235.539124
  30
0.170182
  70
32
  0
VERTEX
  8
0
  10
271.547943
  20
234.743057
  30
0.170182
  70
32
  0
SEQEND
  0
POLYLINE
  8
0
  6
CONTINUOUS
  62
7
  40
0.019685
  41
0.019685
  66
1
  70
8
  1001
ACAD
  1000
TCW25BRUSH
  1002
{
  1000
L45
  1071
-5
  1070
0
  1070
0
  1040
5.0
  1040
0.0
  1002
}
  0
VERTEX
  8
0
  10
283.343994
  20
235.539124
  30
0.170182
  70
32
  0
VERTEX
  8
0
  10
284.140076
  20
234.743057
  30
0.170182
  70
32
  0
SEQEND
  0
POLYLINE
  8
0
  6
CONTINUOUS
  62
7
  40
0.019685
  41
0.019685
  66
1
  0
VERTEX
  8
0
  10
137.974976
  20
234.743057
  30
0.0
  0
VERTEX
  8
0
  10
102.974976
  20
234.743057
  30
0.0
  0
SEQEND
  0
POLYLINE
  8
0
  6
CONTINUOUS
  62
7
  40
0.019685
  41
0.019685
  66
1
  0
VERTEX
  8
0
  10
102.974976
  20
234.743057
  30
0.0
  0
VERTEX
  8
0
  10
102.974976
  20
254.243057
  30
0.0
  0
SEQEND
  0
POLYLINE
  8
0
  6
CONTINUOUS
  62
7
  40
0.019685
  41
0.019685
  66
1
  0
VERTEX
  8
0
  10
137.974976
  20
254.243057
  30
0.0
  0
VERTEX
  8
0
  10
137.974976
  20
234.743057
  30
0.0
  0
SEQEND
  0
POLYLINE
  8
0
  6
CENTER
  62
7
  40
0.007874
  41
0.007874
  66
1
  0
VERTEX
  8
0
  10
147.874069
  20
240.743057
  30
0.0
  0
VERTEX
  8
0
  10
92.711182
  20
240.743057
  30
0.0
  0
SEQEND
  0
POLYLINE
  8
0
  6
CONTINUOUS
  62
7
  40
0.019685
  41
0.019685
  66
1
  0
VERTEX
  8
0
  10
145.674973
  20
235.743057
  30
0.0
  0
VERTEX
  8
0
  10
145.074982
  20
235.743057
  30
0.0
  0
SEQEND
  0
POLYLINE
  8
0
  6
CONTINUOUS
  62
7
  40
0.019685
  41
0.019685
  66
1
  0
VERTEX
  8
0
  10
143.974976
  20
235.743057
  30
0.0
  0
VERTEX
  8
0
  10
143.484818
  20
235.743057
  30
0.0
  0
SEQEND
  0
POLYLINE
  8
0
  6
CONTINUOUS
  62
7
  40
0.019685
  41
0.019685
  66
1
  0
VERTEX
  8
0
  10
138.484818
  20
235.743057
  30
0.0
  0
VERTEX
  8
0
  10
137.974976
  20
235.743057
  30
0.0
  0
SEQEND
  0
POLYLINE
  8
0
  6
CONTINUOUS
  62
7
  40
0.019685
  41
0.019685
  66
1
  0
VERTEX
  8
0
  10
102.974976
  20
235.743057
  30
0.0
  0
VERTEX
  8
0
  10
102.465126
  20
235.743057
  30
0.0
  0
SEQEND
  0
POLYLINE
  8
0
  6
CONTINUOUS
  62
7
  40
0.019685
  41
0.019685
  66
1
  0
VERTEX
  8
0
  10
97.465126
  20
235.743057
  30
0.0
  0
VERTEX
  8
0
  10
96.974976
  20
235.743057
  30
0.0
  0
SEQEND
  0
POLYLINE
  8
0
  6
CONTINUOUS
  62
7
  40
0.019685
  41
0.019685
  66
1
  0
VERTEX
  8
0
  10
95.874969
  20
235.743057
  30
0.0
  0
VERTEX
  8
0
  10
95.274979
  20
235.743057
  30
0.0
  0
SEQEND
  0
POLYLINE
  8
0
  6
CONTINUOUS
  62
7
  40
0.019685
  41
0.019685
  66
1
  0
VERTEX
  8
0
  10
145.674973
  20
245.743057
  30
0.0
  0
VERTEX
  8
0
  10
145.074982
  20
245.743057
  30
0.0
  0
SEQEND
  0
POLYLINE
  8
0
  6
CONTINUOUS
  62
7
  40
0.019685
  41
0.019685
  66
1
  0
VERTEX
  8
0
  10
143.974976
  20
245.743057
  30
0.0
  0
VERTEX
  8
0
  10
143.484818
  20
245.743057
  30
0.0
  0
SEQEND
  0
POLYLINE
  8
0
  6
CONTINUOUS
  62
7
  40
0.019685
  41
0.019685
  66
1
  0
VERTEX
  8
0
  10
138.381027
  20
245.743057
  30
0.0
  0
VERTEX
  8
0
  10
137.974976
  20
245.743057
  30
0.0
  0
SEQEND
  0
POLYLINE
  8
0
  6
CONTINUOUS
  62
7
  40
0.019685
  41
0.019685
  66
1
  0
VERTEX
  8
0
  10
102.974976
  20
245.743057
  30
0.0
  0
VERTEX
  8
0
  10
102.465126
  20
245.743057
  30
0.0
  0
SEQEND
  0
POLYLINE
  8
0
  6
CONTINUOUS
  62
7
  40
0.019685
  41
0.019685
  66
1
  0
VERTEX
  8
0
  10
97.465126
  20
245.743057
  30
0.0
  0
VERTEX
  8
0
  10
96.974976
  20
245.743057
  30
0.0
  0
SEQEND
  0
POLYLINE
  8
0
  6
CONTINUOUS
  62
7
  40
0.019685
  41
0.019685
  66
1
  0
VERTEX
  8
0
  10
95.874969
  20
245.743057
  30
0.0
  0
VERTEX
  8
0
  10
95.274979
  20
245.743057
  30
0.0
  0
SEQEND
  0
POLYLINE
  8
0
  6
CONTINUOUS
  62
7
  40
0.019685
  41
0.019685
  66
1
  0
VERTEX
  8
0
  10
96.974976
  20
235.743057
  30
0.0
  0
VERTEX
  8
0
  10
96.974976
  20
245.743057
  30
0.0
  0
SEQEND
  0
POLYLINE
  8
0
  6
CONTINUOUS
  62
7
  40
0.019685
  41
0.019685
  66
1
  0
VERTEX
  8
0
  10
143.974976
  20
245.743057
  30
0.0
  0
VERTEX
  8
0
  10
143.974976
  20
235.743057
  30
0.0
  0
SEQEND
  0
POLYLINE
  8
0
  6
CONTINUOUS
  62
7
  40
0.019685
  41
0.019685
  66
1
  0
VERTEX
  8
0
  10
145.074982
  20
245.743057
  30
0.0
  0
VERTEX
  8
0
  10
145.074982
  20
235.743057
  30
0.0
  0
SEQEND
  0
POLYLINE
  8
0
  6
CONTINUOUS
  62
7
  40
0.019685
  41
0.019685
  66
1
  0
VERTEX
  8
0
  10
95.874969
  20
235.743057
  30
0.0
  0
VERTEX
  8
0
  10
95.874969
  20
245.743057
  30
0.0
  0
SEQEND
  0
POLYLINE
  8
0
  6
CONTINUOUS
  62
7
  40
0.019685
  41
0.019685
  66
1
  0
VERTEX
  8
0
  10
145.974976
  20
236.04306
  30
0.0
  0
VERTEX
  8
0
  10
145.674973
  20
235.743057
  30
0.0
  0
SEQEND
  0
POLYLINE
  8
0
  6
CONTINUOUS
  62
7
  40
0.019685
  41
0.019685
  66
1
  0
VERTEX
  8
0
  10
145.974976
  20
245.443054
  30
0.0
  0
VERTEX
  8
0
  10
145.674973
  20
245.743057
  30
0.0
  0
SEQEND
  0
POLYLINE
  8
0
  6
CONTINUOUS
  62
7
  40
0.019685
  41
0.019685
  66
1
  0
VERTEX
  8
0
  10
145.974976
  20
245.443054
  30
0.0
  0
VERTEX
  8
0
  10
145.974976
  20
236.04306
  30
0.0
  0
SEQEND
  0
POLYLINE
  8
0
  6
CONTINUOUS
  62
7
  40
0.019685
  41
0.019685
  66
1
  0
VERTEX
  8
0
  10
94.974976
  20
236.04306
  30
0.0
  0
VERTEX
  8
0
  10
95.274979
  20
235.743057
  30
0.0
  0
SEQEND
  0
POLYLINE
  8
0
  6
CONTINUOUS
  62
7
  40
0.019685
  41
0.019685
  66
1
  0
VERTEX
  8
0
  10
94.974976
  20
245.443054
  30
0.0
  0
VERTEX
  8
0
  10
95.274979
  20
245.743057
  30
0.0
  0
SEQEND
  0
POLYLINE
  8
0
  6
CONTINUOUS
  62
7
  40
0.019685
  41
0.019685
  66
1
  0
VERTEX
  8
0
  10
94.974976
  20
236.04306
  30
0.0
  0
VERTEX
  8
0
  10
94.974976
  20
245.443054
  30
0.0
  0
SEQEND
  0
POLYLINE
  8
0
  6
CONTINUOUS
  62
7
  40
0.019685
  41
0.019685
  66
1
  0
VERTEX
  8
0
  10
145.074982
  20
236.443054
  30
0.0
  0
VERTEX
  8
0
  10
143.974976
  20
236.443054
  30
0.0
  0
SEQEND
  0
POLYLINE
  8
0
  6
CONTINUOUS
  62
7
  40
0.019685
  41
0.019685
  66
1
  0
VERTEX
  8
0
  10
96.974976
  20
236.443054
  30
0.0
  0
VERTEX
  8
0
  10
95.874969
  20
236.443054
  30
0.0
  0
SEQEND
  0
POLYLINE
  8
0
  6
CONTINUOUS
  62
7
  40
0.019685
  41
0.019685
  66
1
  0
VERTEX
  8
0
  10
145.074982
  20
245.04306
  30
0.0
  0
VERTEX
  8
0
  10
143.974976
  20
245.04306
  30
0.0
  0
SEQEND
  0
POLYLINE
  8
0
  6
CONTINUOUS
  62
7
  40
0.019685
  41
0.019685
  66
1
  0
VERTEX
  8
0
  10
96.974976
  20
245.04306
  30
0.0
  0
VERTEX
  8
0
  10
95.874969
  20
245.04306
  30
0.0
  0
SEQEND
  0
POLYLINE
  8
0
  6
CONTINUOUS
  62
7
  40
0.019685
  41
0.019685
  66
1
  0
VERTEX
  8
0
  10
145.674973
  20
235.743057
  30
0.0
  0
VERTEX
  8
0
  10
145.674973
  20
245.743057
  30
0.0
  0
SEQEND
  0
POLYLINE
  8
0
  6
CONTINUOUS
  62
7
  40
0.019685
  41
0.019685
  66
1
  0
VERTEX
  8
0
  10
95.274979
  20
235.743057
  30
0.0
  0
VERTEX
  8
0
  10
95.274979
  20
245.743057
  30
0.0
  0
SEQEND
  0
POLYLINE
  8
0
  6
CENTER
  62
7
  40
0.007874
  41
0.007874
  66
1
  0
VERTEX
  8
0
  10
120.474976
  20
231.652618
  30
0.0
  0
VERTEX
  8
0
  10
120.474976
  20
322.237885
  30
0.0
  0
SEQEND
  0
POLYLINE
  8
0
  6
CONTINUOUS
  62
7
  40
0.019685
  41
0.019685
  66
1
  1001
ACAD
  1000
TCW25BRUSH
  1002
{
  1000
L45
  1071
-5
  1070
0
  1070
0
  1040
5.0
  1040
0.0
  1002
}
  0
VERTEX
  8
0
  10
94.474976
  20
254.243057
  30
0.0
  0
VERTEX
  8
0
  10
146.474976
  20
254.243057
  30
0.0
  0
SEQEND
  0
POLYLINE
  8
0
  6
CONTINUOUS
  62
7
  40
0.019685
  41
0.019685
  66
1
  1001
ACAD
  1000
TCW25BRUSH
  1002
{
  1000
L45
  1071
-5
  1070
0
  1070
0
  1040
5.0
  1040
0.0
  1002
}
  0
VERTEX
  8
0
  10
94.474976
  20
259.243073
  30
0.0
  0
VERTEX
  8
0
  10
146.474976
  20
259.243073
  30
0.0
  0
SEQEND
  0
POLYLINE
  8
0
  6
CONTINUOUS
  62
7
  40
0.019685
  41
0.019685
  66
1
  1001
ACAD
  1000
TCW25BRUSH
  1002
{
  1000
L45
  1071
-5
  1070
0
  1070
0
  1040
5.0
  1040
0.0
  1002
}
  0
VERTEX
  8
0
  10
94.474976
  20
254.243057
  30
0.0
  0
VERTEX
  8
0
  10
94.474976
  20
259.243073
  30
0.0
  0
SEQEND
  0
POLYLINE
  8
0
  6
CONTINUOUS
  62
7
  40
0.019685
  41
0.019685
  66
1
  1001
ACAD
  1000
TCW25BRUSH
  1002
{
  1000
L45
  1071
-5
  1070
0
  1070
0
  1040
5.0
  1040
0.0
  1002
}
  0
VERTEX
  8
0
  10
146.474976
  20
254.243057
  30
0.0
  0
VERTEX
  8
0
  10
146.474976
  20
259.243073
  30
0.0
  0
SEQEND
  0
ARC
  8
0
  6
CONTINUOUS
  62
7
  10
277.843994
  20
240.743057
  40
10.999989
  50
129.521247
  51
410.478804
  0
ARC
  8
0
  6
CONTINUOUS
  62
7
  10
277.843994
  20
240.743057
  40
10.499996
  50
131.810333
  51
408.189722
  0
ARC
  8
0
  6
CONTINUOUS
  62
7
  10
205.844009
  20
240.743057
  40
11.000007
  50
129.521166
  51
410.478783
  0
ARC
  8
0
  6
CONTINUOUS
  62
7
  10
205.844009
  20
240.743057
  40
10.500008
  50
131.810278
  51
408.189667
  0
INSERT
  8
0
  6
CONTINUOUS
  62
7
  2
*G4
  10
0.0
  20
0.0
  1001
ACAD
  1000
ACAD_TCW25GROUP
  1002
{
  1000
Groupe_9
  1002
}
  1000
TCW25BRUSH
  1002
{
  1000
L45
  1071
-5
  1070
0
  1070
0
  1040
5.0
  1040
0.0
  1002
}
  0
INSERT
  8
0
  6
CONTINUOUS
  62
7
  2
*G5
  10
0.0
  20
0.0
  1001
ACAD
  1000
ACAD_TCW25GROUP
  1002
{
  1000
Groupe_9
  1002
}
  1000
TCW25BRUSH
  1002
{
  1000
L45
  1071
-5
  1070
0
  1070
0
  1040
5.0
  1040
0.0
  1002
}
  0
POLYLINE
  8
0
  6
CONTINUOUS
  62
7
  40
0.007874
  41
0.007874
  66
1
  70
9
  1001
ACAD
  1000
TCW25BRUSH
  1002
{
  1000
Solid
  1071
-5
  1070
0
  1002
}
  0
VERTEX
  8
0
  10
143.978912
  20
234.243057
  30
0.108083
  70
32
  0
VERTEX
  8
0
  10
144.978912
  20
234.243057
  30
0.108083
  70
32
  0
VERTEX
  8
0
  10
144.978912
  20
247.243057
  30
0.108083
  70
32
  0
VERTEX
  8
0
  10
143.978912
  20
247.243057
  30
0.108083
  70
32
  0
SEQEND
  0
POLYLINE
  8
0
  6
CONTINUOUS
  62
7
  40
0.007874
  41
0.007874
  66
1
  70
1
  1001
ACAD
  1000
TCW25BRUSH
  1002
{
  1000
Solid
  1071
-5
  1070
0
  1002
}
  0
VERTEX
  8
0
  10
95.971039
  20
234.243057
  30
0.0
  0
VERTEX
  8
0
  10
96.971039
  20
234.243057
  30
0.0
  0
VERTEX
  8
0
  10
96.971039
  20
247.243057
  30
0.0
  0
VERTEX
  8
0
  10
95.971039
  20
247.243057
  30
0.0
  0
SEQEND
  0
POLYLINE
  8
0
  6
CENTER
  62
7
  40
0.007874
  41
0.007874
  66
1
  0
VERTEX
  8
0
  10
95.808151
  20
274.262756
  30
0.0
  0
VERTEX
  8
0
  10
144.120331
  20
274.262756
  30
0.0
  0
SEQEND
  0
POLYLINE
  8
0
  6
CENTER
  62
7
  40
0.007874
  41
0.007874
  66
1
  0
VERTEX
  8
0
  10
216.310944
  20
274.262756
  30
0.0
  0
VERTEX
  8
0
  10
300.903534
  20
274.262756
  30
0.0
  0
SEQEND
  0
POLYLINE
  8
0
  6
CONTINUOUS
  62
7
  40
0.019685
  41
0.019685
  66
1
  70
8
  0
VERTEX
  8
0
  10
224.834167
  20
294.262756
  30
0.308775
  70
32
  0
VERTEX
  8
0
  10
272.834167
  20
294.262756
  30
0.308775
  70
32
  0
SEQEND
  0
POLYLINE
  8
0
  6
CONTINUOUS
  62
7
  40
0.019685
  41
0.019685
  66
1
  70
8
  0
VERTEX
  8
0
  10
282.834167
  20
294.262756
  30
0.308775
  70
32
  0
VERTEX
  8
0
  10
295.68927
  20
294.262756
  30
0.308775
  70
32
  0
SEQEND
  0
POLYLINE
  8
0
  6
CONTINUOUS
  62
7
  40
0.019685
  41
0.019685
  66
1
  70
8
  0
VERTEX
  8
0
  10
224.834167
  20
259.262756
  30
0.308775
  70
32
  0
VERTEX
  8
0
  10
274.834167
  20
259.262756
  30
0.0
  70
32
  0
SEQEND
  0
POLYLINE
  8
0
  6
CONTINUOUS
  62
7
  40
0.019685
  41
0.019685
  66
1
  70
8
  0
VERTEX
  8
0
  10
280.834167
  20
259.262756
  30
0.0
  70
32
  0
VERTEX
  8
0
  10
296.570892
  20
259.262756
  30
0.308775
  70
32
  0
SEQEND
  0
POLYLINE
  8
0
  6
CONTINUOUS
  62
7
  40
0.019685
  41
0.019685
  66
1
  70
8
  0
VERTEX
  8
0
  10
222.334167
  20
282.262756
  30
0.308775
  70
32
  0
VERTEX
  8
0
  10
222.334167
  20
266.262756
  30
0.308775
  70
32
  0
SEQEND
  0
POLYLINE
  8
0
  6
CONTINUOUS
  62
7
  40
0.019685
  41
0.019685
  66
1
  70
8
  0
VERTEX
  8
0
  10
298.334167
  20
279.262756
  30
0.308775
  70
32
  0
VERTEX
  8
0
  10
298.334167
  20
269.262756
  30
0.308775
  70
32
  0
SEQEND
  0
POLYLINE
  8
0
  6
CONTINUOUS
  62
7
  40
0.019685
  41
0.019685
  66
1
  70
8
  0
VERTEX
  8
0
  10
224.834167
  20
294.262756
  30
0.308775
  70
32
  0
VERTEX
  8
0
  10
224.834167
  20
259.262756
  30
0.308775
  70
32
  0
SEQEND
  0
POLYLINE
  8
0
  6
CONTINUOUS
  62
7
  40
0.019685
  41
0.019685
  66
1
  70
8
  0
VERTEX
  8
0
  10
224.834167
  20
282.262756
  30
0.308775
  70
32
  0
VERTEX
  8
0
  10
222.334167
  20
282.262756
  30
0.308775
  70
32
  0
SEQEND
  0
POLYLINE
  8
0
  6
CONTINUOUS
  62
7
  40
0.019685
  41
0.019685
  66
1
  70
8
  0
VERTEX
  8
0
  10
224.834167
  20
266.262756
  30
0.308775
  70
32
  0
VERTEX
  8
0
  10
222.334167
  20
266.262756
  30
0.308775
  70
32
  0
SEQEND
  0
POLYLINE
  8
0
  6
CONTINUOUS
  62
7
  40
0.019685
  41
0.019685
  66
1
  70
8
  0
VERTEX
  8
0
  10
298.334167
  20
279.262756
  30
0.308775
  70
32
  0
VERTEX
  8
0
  10
295.68927
  20
294.262756
  30
0.308775
  70
32
  0
SEQEND
  0
POLYLINE
  8
0
  6
CONTINUOUS
  62
7
  40
0.019685
  41
0.019685
  66
1
  70
8
  0
VERTEX
  8
0
  10
298.334167
  20
269.262756
  30
0.308775
  70
32
  0
VERTEX
  8
0
  10
296.570892
  20
259.262756
  30
0.308775
  70
32
  0
SEQEND
  0
POLYLINE
  8
0
  6
CONTINUOUS
  62
7
  40
0.019685
  41
0.019685
  66
1
  70
8
  0
VERTEX
  8
0
  10
295.68927
  20
294.262756
  30
0.308775
  70
32
  0
VERTEX
  8
0
  10
295.68927
  20
259.262756
  30
0.308775
  70
32
  0
SEQEND
  0
POLYLINE
  8
0
  6
CENTER
  62
7
  40
0.007874
  41
0.007874
  66
1
  70
8
  0
VERTEX
  8
0
  10
277.834167
  20
321.890808
  30
0.308775
  70
32
  0
VERTEX
  8
0
  10
277.834167
  20
259.262756
  30
0.308775
  70
32
  0
SEQEND
  0
POLYLINE
  8
0
  6
CONTINUOUS
  62
7
  40
0.019685
  41
0.019685
  66
1
  70
8
  0
VERTEX
  8
0
  10
272.834167
  20
286.262756
  30
0.308775
  70
32
  0
VERTEX
  8
0
  10
274.834167
  20
286.262756
  30
0.0
  70
32
  0
SEQEND
  0
POLYLINE
  8
0
  6
CONTINUOUS
  62
7
  40
0.019685
  41
0.019685
  66
1
  0
VERTEX
  8
0
  10
277.727753
  20
286.262756
  30
0.0
  0
VERTEX
  8
0
  10
277.834167
  20
286.262756
  30
0.0
  0
SEQEND
  0
POLYLINE
  8
0
  6
CONTINUOUS
  62
7
  40
0.019685
  41
0.019685
  66
1
  70
8
  0
VERTEX
  8
0
  10
280.834167
  20
286.262756
  30
0.0
  70
32
  0
VERTEX
  8
0
  10
282.834167
  20
286.262756
  30
0.308775
  70
32
  0
SEQEND
  0
POLYLINE
  8
0
  6
CONTINUOUS
  62
7
  40
0.019685
  41
0.019685
  66
1
  70
8
  0
VERTEX
  8
0
  10
282.834167
  20
294.262756
  30
0.308775
  70
32
  0
VERTEX
  8
0
  10
282.834167
  20
286.262756
  30
0.308775
  70
32
  0
SEQEND
  0
POLYLINE
  8
0
  6
CONTINUOUS
  62
7
  40
0.019685
  41
0.019685
  66
1
  70
8
  0
VERTEX
  8
0
  10
272.834167
  20
294.262756
  30
0.308775
  70
32
  0
VERTEX
  8
0
  10
272.834167
  20
286.262756
  30
0.308775
  70
32
  0
SEQEND
  0
POLYLINE
  8
0
  6
CONTINUOUS
  62
7
  40
0.019685
  41
0.019685
  66
1
  70
8
  0
VERTEX
  8
0
  10
281.084167
  20
286.262756
  30
0.308775
  70
32
  0
VERTEX
  8
0
  10
281.084167
  20
259.262756
  30
0.308775
  70
32
  0
SEQEND
  0
POLYLINE
  8
0
  6
CONTINUOUS
  62
7
  40
0.019685
  41
0.019685
  66
1
  70
8
  0
VERTEX
  8
0
  10
274.584167
  20
286.262756
  30
0.308775
  70
32
  0
VERTEX
  8
0
  10
274.584167
  20
259.262756
  30
0.308775
  70
32
  0
SEQEND
  0
POLYLINE
  8
0
  6
CONTINUOUS
  62
7
  40
0.003937
  41
0.003937
  66
1
  70
9
  1001
ACAD
  1000
TCW25BRUSH
  1002
{
  1000
STEEL
  1071
-5
  1070
0
  1070
0
  1040
5.0
  1040
0.0
  1002
}
  0
VERTEX
  8
0
  10
286.860626
  20
294.262756
  30
0.308775
  70
32
  0
VERTEX
  8
0
  10
282.834167
  20
294.262756
  30
0.308775
  70
32
  0
VERTEX
  8
0
  10
282.834167
  20
286.262756
  30
0.308775
  70
32
  0
VERTEX
  8
0
  10
281.084167
  20
286.262756
  30
0.308775
  70
32
  0
VERTEX
  8
0
  10
281.084167
  20
259.262756
  30
0.308775
  70
32
  0
VERTEX
  8
0
  10
286.43161
  20
259.262756
  30
0.308775
  70
32
  0
VERTEX
  8
0
  10
286.756622
  20
263.075378
  30
0.308775
  70
32
  0
VERTEX
  8
0
  10
287.37851
  20
265.474121
  30
0.308775
  70
32
  0
VERTEX
  8
0
  10
287.556183
  20
267.42865
  30
0.308775
  70
32
  0
VERTEX
  8
0
  10
287.556183
  20
269.116638
  30
0.308775
  70
32
  0
VERTEX
  8
0
  10
287.467346
  20
272.670288
  30
0.308775
  70
32
  0
VERTEX
  8
0
  10
287.111969
  20
273.736389
  30
0.308775
  70
32
  0
VERTEX
  8
0
  10
286.667755
  20
274.980194
  30
0.308775
  70
32
  0
VERTEX
  8
0
  10
286.667755
  20
276.223969
  30
0.308775
  70
32
  0
VERTEX
  8
0
  10
286.756622
  20
278.089661
  30
0.308775
  70
32
  0
VERTEX
  8
0
  10
286.667755
  20
279.866486
  30
0.308775
  70
32
  0
VERTEX
  8
0
  10
287.111969
  20
281.287964
  30
0.308775
  70
32
  0
VERTEX
  8
0
  10
287.200806
  20
282.798248
  30
0.308775
  70
32
  0
VERTEX
  8
0
  10
287.200806
  20
286.351929
  30
0.308775
  70
32
  0
VERTEX
  8
0
  10
287.200806
  20
289.905609
  30
0.308775
  70
32
  0
VERTEX
  8
0
  10
287.023132
  20
292.037811
  30
0.308775
  70
32
  0
VERTEX
  8
0
  10
286.845459
  20
293.7258
  30
0.308775
  70
32
  0
SEQEND
  0
INSERT
  8
0
  6
CONTINUOUS
  62
7
  2
*H6
  10
0.0
  20
0.0
  1001
ACAD
  1000
TCW25BRUSH
  1002
{
  1002
}
  0
POLYLINE
  8
0
  6
CONTINUOUS
  62
7
  40
0.003937
  41
0.003937
  66
1
  70
9
  1001
ACAD
  1000
TCW25BRUSH
  1002
{
  1000
STEEL
  1071
-5
  1070
0
  1070
0
  1040
5.0
  1040
0.0
  1002
}
  0
VERTEX
  8
0
  10
269.484833
  20
294.262756
  30
0.308775
  70
32
  0
VERTEX
  8
0
  10
272.834167
  20
294.262756
  30
0.308775
  70
32
  0
VERTEX
  8
0
  10
272.834167
  20
286.262756
  30
0.308775
  70
32
  0
VERTEX
  8
0
  10
274.584167
  20
286.262756
  30
0.308775
  70
32
  0
VERTEX
  8
0
  10
274.584167
  20
259.262756
  30
0.308775
  70
32
  0
VERTEX
  8
0
  10
268.841278
  20
259.262756
  30
0.308775
  70
32
  0
VERTEX
  8
0
  10
268.18869
  20
262.831085
  30
0.308775
  70
32
  0
VERTEX
  8
0
  10
267.92215
  20
265.052124
  30
0.308775
  70
32
  0
VERTEX
  8
0
  10
267.92215
  20
266.917786
  30
0.308775
  70
32
  0
VERTEX
  8
0
  10
268.18869
  20
270.293793
  30
0.308775
  70
32
  0
VERTEX
  8
0
  10
269.432465
  20
272.692505
  30
0.308775
  70
32
  0
VERTEX
  8
0
  10
269.787842
  20
273.758606
  30
0.308775
  70
32
  0
VERTEX
  8
0
  10
270.143188
  20
276.335022
  30
0.308775
  70
32
  0
VERTEX
  8
0
  10
270.320892
  20
277.845337
  30
0.308775
  70
32
  0
VERTEX
  8
0
  10
270.054352
  20
279.533325
  30
0.308775
  70
32
  0
VERTEX
  8
0
  10
269.432465
  20
280.51059
  30
0.308775
  70
32
  0
VERTEX
  8
0
  10
269.343628
  20
282.109741
  30
0.308775
  70
32
  0
VERTEX
  8
0
  10
269.077087
  20
284.686157
  30
0.308775
  70
32
  0
VERTEX
  8
0
  10
268.988251
  20
287.329193
  30
0.308775
  70
32
  0
VERTEX
  8
0
  10
269.254791
  20
289.372559
  30
0.308775
  70
32
  0
VERTEX
  8
0
  10
269.610138
  20
292.304321
  30
0.308775
  70
32
  0
SEQEND
  0
INSERT
  8
0
  6
CONTINUOUS
  62
7
  2
*H7
  10
0.0
  20
0.0
  1001
ACAD
  1000
TCW25BRUSH
  1002
{
  1002
}
  0
ARC
  8
0
  6
CONTINUOUS
  62
7
  10
120.474976
  20
274.25293
  30
0.308775
  40
20.000002
  50
-48.590371
  51
228.590371
  0
POLYLINE
  8
0
  6
CONTINUOUS
  62
7
  40
0.007874
  41
0.007874
  66
1
  1001
ACAD
  1000
TCW25BRUSH
  1002
{
  1000
Solid
  1071
-5
  1070
0
  1002
}
  0
VERTEX
  8
0
  10
224.834167
  20
294.262756
  30
0.0
  0
VERTEX
  8
0
  10
224.834167
  20
294.262756
  30
0.0
  0
SEQEND
  0
CIRCLE
  8
0
  6
CONTINUOUS
  62
7
  10
120.60817
  20
274.262756
  40
5.0
  0
POLYLINE
  8
0
  6
CONTINUOUS
  62
7
  40
0.019685
  41
0.019685
  66
1
  70
8
  0
VERTEX
  8
0
  10
184.82431
  20
311.272583
  30
0.319856
  70
32
  0
VERTEX
  8
0
  10
224.82431
  20
311.272583
  30
0.319856
  70
32
  0
SEQEND
  0
POLYLINE
  8
0
  6
CONTINUOUS
  62
7
  40
0.019685
  41
0.019685
  66
1
  70
8
  0
VERTEX
  8
0
  10
224.82431
  20
311.272583
  30
0.319856
  70
32
  0
VERTEX
  8
0
  10
224.82431
  20
259.272583
  30
0.319856
  70
32
  0
SEQEND
  0
POLYLINE
  8
0
  6
CONTINUOUS
  62
7
  40
0.019685
  41
0.019685
  66
1
  70
8
  0
VERTEX
  8
0
  10
224.82431
  20
259.272583
  30
0.319856
  70
32
  0
VERTEX
  8
0
  10
208.82431
  20
259.272583
  30
0.0
  70
32
  0
SEQEND
  0
POLYLINE
  8
0
  6
CONTINUOUS
  62
7
  40
0.019685
  41
0.019685
  66
1
  70
8
  0
VERTEX
  8
0
  10
202.82431
  20
259.272583
  30
0.0
  70
32
  0
VERTEX
  8
0
  10
199.82431
  20
259.272583
  30
0.319856
  70
32
  0
SEQEND
  0
POLYLINE
  8
0
  6
CONTINUOUS
  62
7
  40
0.019685
  41
0.019685
  66
1
  70
8
  0
VERTEX
  8
0
  10
184.82431
  20
307.272583
  30
0.319856
  70
32
  0
VERTEX
  8
0
  10
184.82431
  20
311.272583
  30
0.319856
  70
32
  0
SEQEND
  0
POLYLINE
  8
0
  6
CONTINUOUS
  62
7
  40
0.019685
  41
0.019685
  66
1
  70
8
  0
VERTEX
  8
0
  10
199.82431
  20
293.272583
  30
0.319856
  70
32
  0
VERTEX
  8
0
  10
199.82431
  20
259.272583
  30
0.319856
  70
32
  0
SEQEND
  0
POLYLINE
  8
0
  6
CONTINUOUS
  62
7
  40
0.019685
  41
0.019685
  66
1
  70
8
  0
VERTEX
  8
0
  10
203.82431
  20
293.272583
  30
0.319856
  70
32
  0
VERTEX
  8
0
  10
199.82431
  20
293.272583
  30
0.319856
  70
32
  0
SEQEND
  0
POLYLINE
  8
0
  6
CONTINUOUS
  62
7
  40
0.019685
  41
0.019685
  66
1
  70
8
  0
VERTEX
  8
0
  10
203.82431
  20
307.272583
  30
0.319856
  70
32
  0
VERTEX
  8
0
  10
184.82431
  20
307.272583
  30
0.319856
  70
32
  0
SEQEND
  0
POLYLINE
  8
0
  6
CONTINUOUS
  62
7
  40
0.019685
  41
0.019685
  66
1
  70
8
  0
VERTEX
  8
0
  10
203.82431
  20
307.272583
  30
0.319856
  70
32
  0
VERTEX
  8
0
  10
203.82431
  20
293.272583
  30
0.319856
  70
32
  0
SEQEND
  0
POLYLINE
  8
0
  6
CENTER
  62
7
  40
0.007874
  41
0.007874
  66
1
  70
8
  0
VERTEX
  8
0
  10
223.32431
  20
297.272583
  30
0.0
  70
32
  0
VERTEX
  8
0
  10
205.743942
  20
297.272583
  30
0.319856
  70
32
  0
SEQEND
  0
POLYLINE
  8
0
  6
CENTER
  62
7
  40
0.007874
  41
0.007874
  66
1
  70
8
  0
VERTEX
  8
0
  10
223.32431
  20
303.272583
  30
0.0
  70
32
  0
VERTEX
  8
0
  10
206.722214
  20
303.272583
  30
0.319856
  70
32
  0
SEQEND
  0
POLYLINE
  8
0
  6
CENTER
  62
7
  40
0.007874
  41
0.007874
  66
1
  70
8
  0
VERTEX
  8
0
  10
224.82431
  20
274.272583
  30
0.0
  70
32
  0
VERTEX
  8
0
  10
220.013687
  20
274.272583
  30
0.319856
  70
32
  0
SEQEND
  0
POLYLINE
  8
0
  6
CENTER
  62
7
  40
0.007874
  41
0.007874
  66
1
  70
8
  0
VERTEX
  8
0
  10
214.82431
  20
311.272583
  30
0.319856
  70
32
  0
VERTEX
  8
0
  10
214.82431
  20
290.047729
  30
0.319856
  70
32
  0
SEQEND
  0
POLYLINE
  8
0
  6
CENTER
  62
7
  40
0.007874
  41
0.007874
  66
1
  70
8
  0
VERTEX
  8
0
  10
205.82431
  20
281.170135
  30
0.319856
  70
32
  0
VERTEX
  8
0
  10
205.82431
  20
259.272583
  30
0.0
  70
32
  0
SEQEND
  0
ARC
  8
0
  6
CONTINUOUS
  62
7
  10
214.82431
  20
297.272583
  30
0.319856
  40
4.0
  50
180.0
  51
360.0
  0
ARC
  8
0
  6
CONTINUOUS
  62
7
  10
214.82431
  20
303.272583
  30
0.319856
  40
4.0
  50
0.0
  51
180.0
  0
POLYLINE
  8
0
  6
$AUXILIARY
  62
7
  40
0.007874
  41
0.007874
  66
1
  70
8
  0
VERTEX
  8
0
  10
223.32431
  20
307.272583
  30
0.319856
  70
32
  0
VERTEX
  8
0
  10
223.32431
  20
293.272583
  30
0.319856
  70
32
  0
SEQEND
  0
POLYLINE
  8
0
  6
$AUXILIARY
  62
7
  40
0.007874
  41
0.007874
  66
1
  70
8
  0
VERTEX
  8
0
  10
223.32431
  20
293.272583
  30
0.319856
  70
32
  0
VERTEX
  8
0
  10
224.82431
  20
293.272583
  30
0.319856
  70
32
  0
SEQEND
  0
POLYLINE
  8
0
  6
$AUXILIARY
  62
7
  40
0.007874
  41
0.007874
  66
1
  70
8
  0
VERTEX
  8
0
  10
223.32431
  20
307.272583
  30
0.319856
  70
32
  0
VERTEX
  8
0
  10
224.82431
  20
307.272583
  30
0.319856
  70
32
  0
SEQEND
  0
POLYLINE
  8
0
  6
CONTINUOUS
  62
7
  40
0.019685
  41
0.019685
  66
1
  70
8
  0
VERTEX
  8
0
  10
218.82431
  20
303.272583
  30
0.319856
  70
32
  0
VERTEX
  8
0
  10
218.82431
  20
297.272583
  30
0.319856
  70
32
  0
SEQEND
  0
POLYLINE
  8
0
  6
CONTINUOUS
  62
7
  40
0.019685
  41
0.019685
  66
1
  70
8
  0
VERTEX
  8
0
  10
210.82431
  20
303.272583
  30
0.319856
  70
32
  0
VERTEX
  8
0
  10
210.82431
  20
297.272583
  30
0.319856
  70
32
  0
SEQEND
  0
POLYLINE
  8
0
  6
CONTINUOUS
  62
7
  40
0.019685
  41
0.019685
  66
1
  70
8
  0
VERTEX
  8
0
  10
184.82431
  20
309.772583
  30
0.319856
  70
32
  0
VERTEX
  8
0
  10
224.82431
  20
309.772583
  30
0.319856
  70
32
  0
SEQEND
  0
POLYLINE
  8
0
  6
CONTINUOUS
  62
7
  40
0.019685
  41
0.019685
  66
1
  70
8
  0
VERTEX
  8
0
  10
221.82431
  20
282.272583
  30
0.319856
  70
32
  0
VERTEX
  8
0
  10
221.82431
  20
266.272583
  30
0.319856
  70
32
  0
SEQEND
  0
POLYLINE
  8
0
  6
CONTINUOUS
  62
7
  40
0.019685
  41
0.019685
  66
1
  70
8
  0
VERTEX
  8
0
  10
221.82431
  20
282.272583
  30
0.319856
  70
32
  0
VERTEX
  8
0
  10
224.82431
  20
282.272583
  30
0.319856
  70
32
  0
SEQEND
  0
POLYLINE
  8
0
  6
CONTINUOUS
  62
7
  40
0.019685
  41
0.019685
  66
1
  70
8
  0
VERTEX
  8
0
  10
221.82431
  20
266.272583
  30
0.319856
  70
32
  0
VERTEX
  8
0
  10
224.82431
  20
266.272583
  30
0.319856
  70
32
  0
SEQEND
  0
POLYLINE
  8
0
  6
CONTINUOUS
  62
7
  40
0.019685
  41
0.019685
  66
1
  70
8
  1001
ACAD
  1000
TCW25BRUSH
  1002
{
  1000
L45
  1071
-5
  1070
0
  1070
0
  1040
5.0
  1040
0.0
  1002
}
  0
VERTEX
  8
0
  10
208.224304
  20
277.877106
  30
0.449927
  70
32
  0
VERTEX
  8
0
  10
208.224304
  20
274.262756
  30
0.0
  70
32
  0
SEQEND
  0
POLYLINE
  8
0
  6
CONTINUOUS
  62
7
  40
0.019685
  41
0.019685
  66
1
  1001
ACAD
  1000
TCW25BRUSH
  1002
{
  1000
L45
  1071
-5
  1070
0
  1070
0
  1040
5.0
  1040
0.0
  1002
}
  0
VERTEX
  8
0
  10
208.224304
  20
274.262756
  30
0.0
  0
VERTEX
  8
0
  10
208.224304
  20
271.739105
  30
0.0
  0
SEQEND
  0
POLYLINE
  8
0
  6
CONTINUOUS
  62
7
  40
0.007874
  41
0.007874
  66
1
  1001
ACAD
  1000
TCW25BRUSH
  1002
{
  1000
L45
  1071
-5
  1070
0
  1070
0
  1040
5.0
  1040
0.0
  1002
}
  0
VERTEX
  8
0
  10
208.224304
  20
271.739105
  30
0.0
  0
VERTEX
  8
0
  10
208.224304
  20
251.73912
  30
0.0
  0
SEQEND
  0
POLYLINE
  8
0
  6
CONTINUOUS
  62
7
  40
0.019685
  41
0.019685
  66
1
  70
8
  1001
ACAD
  1000
TCW25BRUSH
  1002
{
  1000
L45
  1071
-5
  1070
0
  1070
0
  1040
5.0
  1040
0.0
  1002
}
  0
VERTEX
  8
0
  10
203.424316
  20
277.877106
  30
0.449927
  70
32
  0
VERTEX
  8
0
  10
203.424316
  20
271.739105
  30
0.0
  70
32
  0
SEQEND
  0
POLYLINE
  8
0
  6
CONTINUOUS
  62
7
  40
0.007874
  41
0.007874
  66
1
  1001
ACAD
  1000
TCW25BRUSH
  1002
{
  1000
L45
  1071
-5
  1070
0
  1070
0
  1040
5.0
  1040
0.0
  1002
}
  0
VERTEX
  8
0
  10
203.424316
  20
271.739105
  30
0.0
  0
VERTEX
  8
0
  10
203.424316
  20
251.73912
  30
0.0
  0
SEQEND
  0
POLYLINE
  8
0
  6
CONTINUOUS
  62
7
  40
0.007874
  41
0.007874
  66
1
  70
8
  1001
ACAD
  1000
TCW25BRUSH
  1002
{
  1000
L45
  1071
-5
  1070
0
  1070
0
  1040
5.0
  1040
0.0
  1002
}
  0
VERTEX
  8
0
  10
208.82431
  20
274.262756
  30
0.449927
  70
32
  0
VERTEX
  8
0
  10
208.82431
  20
271.739105
  30
0.0
  70
32
  0
SEQEND
  0
POLYLINE
  8
0
  6
CONTINUOUS
  62
7
  40
0.019685
  41
0.019685
  66
1
  1001
ACAD
  1000
TCW25BRUSH
  1002
{
  1000
L45
  1071
-5
  1070
0
  1070
0
  1040
5.0
  1040
0.0
  1002
}
  0
VERTEX
  8
0
  10
208.82431
  20
271.739105
  30
0.0
  0
VERTEX
  8
0
  10
208.82431
  20
241.73912
  30
0.0
  0
SEQEND
  0
POLYLINE
  8
0
  6
CONTINUOUS
  62
7
  40
0.007874
  41
0.007874
  66
1
  70
8
  1001
ACAD
  1000
TCW25BRUSH
  1002
{
  1000
L45
  1071
-5
  1070
0
  1070
0
  1040
5.0
  1040
0.0
  1002
}
  0
VERTEX
  8
0
  10
202.82431
  20
274.262756
  30
0.449927
  70
32
  0
VERTEX
  8
0
  10
202.82431
  20
274.262756
  30
0.0
  70
32
  0
SEQEND
  0
POLYLINE
  8
0
  6
CONTINUOUS
  62
7
  40
0.007874
  41
0.007874
  66
1
  1001
ACAD
  1000
TCW25BRUSH
  1002
{
  1000
L45
  1071
-5
  1070
0
  1070
0
  1040
5.0
  1040
0.0
  1002
}
  0
VERTEX
  8
0
  10
202.82431
  20
274.262756
  30
0.0
  0
VERTEX
  8
0
  10
202.82431
  20
271.739105
  30
0.0
  0
SEQEND
  0
POLYLINE
  8
0
  6
CONTINUOUS
  62
7
  40
0.019685
  41
0.019685
  66
1
  1001
ACAD
  1000
TCW25BRUSH
  1002
{
  1000
L45
  1071
-5
  1070
0
  1070
0
  1040
5.0
  1040
0.0
  1002
}
  0
VERTEX
  8
0
  10
202.82431
  20
271.739105
  30
0.0
  0
VERTEX
  8
0
  10
202.82431
  20
241.73912
  30
0.0
  0
SEQEND
  0
POLYLINE
  8
0
  6
CONTINUOUS
  62
7
  40
0.019685
  41
0.019685
  66
1
  70
8
  1001
ACAD
  1000
TCW25BRUSH
  1002
{
  1000
L45
  1071
-5
  1070
0
  1070
0
  1040
5.0
  1040
0.0
  1002
}
  0
VERTEX
  8
0
  10
208.82431
  20
274.262756
  30
0.449927
  70
32
  0
VERTEX
  8
0
  10
202.82431
  20
274.262756
  30
0.449927
  70
32
  0
SEQEND
  0
POLYLINE
  8
0
  6
CONTINUOUS
  62
7
  40
0.019685
  41
0.019685
  66
1
  70
8
  1001
ACAD
  1000
TCW25BRUSH
  1002
{
  1000
L45
  1071
-5
  1070
0
  1070
0
  1040
5.0
  1040
0.0
  1002
}
  0
VERTEX
  8
0
  10
205.82431
  20
279.262756
  30
0.449927
  70
32
  0
VERTEX
  8
0
  10
208.224304
  20
277.877106
  30
0.449927
  70
32
  0
SEQEND
  0
POLYLINE
  8
0
  6
CONTINUOUS
  62
7
  40
0.019685
  41
0.019685
  66
1
  70
8
  1001
ACAD
  1000
TCW25BRUSH
  1002
{
  1000
L45
  1071
-5
  1070
0
  1070
0
  1040
5.0
  1040
0.0
  1002
}
  0
VERTEX
  8
0
  10
205.824295
  20
279.262756
  30
0.449927
  70
32
  0
VERTEX
  8
0
  10
203.424316
  20
277.877106
  30
0.449927
  70
32
  0
SEQEND
  0
POLYLINE
  8
0
  6
CONTINUOUS
  62
7
  40
0.019685
  41
0.019685
  66
1
  70
8
  1001
ACAD
  1000
TCW25BRUSH
  1002
{
  1000
L45
  1071
-5
  1070
0
  1070
0
  1040
5.0
  1040
0.0
  1002
}
  0
VERTEX
  8
0
  10
208.224289
  20
277.877106
  30
0.449927
  70
32
  0
VERTEX
  8
0
  10
203.424316
  20
277.877106
  30
0.449927
  70
32
  0
SEQEND
  0
POLYLINE
  8
0
  6
CONTINUOUS
  62
7
  40
0.003937
  41
0.003937
  66
1
  70
9
  1001
ACAD
  1000
TCW25BRUSH
  1002
{
  1000
STEEL
  1071
-5
  1070
0
  1070
0
  1040
5.0
  1040
0.0
  1002
}
  0
VERTEX
  8
0
  10
224.82431
  20
266.272583
  30
0.319856
  70
32
  0
VERTEX
  8
0
  10
224.82431
  20
259.272583
  30
0.319856
  70
32
  0
VERTEX
  8
0
  10
209.214478
  20
259.272583
  30
0.319856
  70
32
  0
VERTEX
  8
0
  10
208.224304
  20
260.262756
  30
0.319856
  70
32
  0
VERTEX
  8
0
  10
208.224304
  20
277.877106
  30
0.319856
  70
32
  0
VERTEX
  8
0
  10
205.82431
  20
279.262756
  30
0.319856
  70
32
  0
VERTEX
  8
0
  10
203.424316
  20
277.877106
  30
0.319856
  70
32
  0
VERTEX
  8
0
  10
203.424316
  20
260.262756
  30
0.319856
  70
32
  0
VERTEX
  8
0
  10
202.434158
  20
259.272583
  30
0.319856
  70
32
  0
VERTEX
  8
0
  10
199.82431
  20
259.272583
  30
0.319856
  70
32
  0
VERTEX
  8
0
  10
199.82431
  20
282.760742
  30
0.319856
  70
32
  0
VERTEX
  8
0
  10
204.682434
  20
283.698242
  30
0.319856
  70
32
  0
VERTEX
  8
0
  10
207.846527
  20
281.823212
  30
0.319856
  70
32
  0
VERTEX
  8
0
  10
211.596573
  20
283.229492
  30
0.319856
  70
32
  0
VERTEX
  8
0
  10
214.877853
  20
281.706024
  30
0.319856
  70
32
  0
VERTEX
  8
0
  10
224.82431
  20
284.75296
  30
0.319856
  70
32
  0
VERTEX
  8
0
  10
224.82431
  20
282.272583
  30
0.319856
  70
32
  0
VERTEX
  8
0
  10
221.82431
  20
282.272583
  30
0.319856
  70
32
  0
VERTEX
  8
0
  10
221.82431
  20
266.272583
  30
0.319856
  70
32
  0
SEQEND
  0
INSERT
  8
0
  6
CONTINUOUS
  62
7
  2
*H8
  10
0.0
  20
0.0
  1001
ACAD
  1000
TCW25BRUSH
  1002
{
  1002
}
  0
POLYLINE
  8
0
  6
CONTINUOUS
  62
7
  40
0.019685
  41
0.019685
  66
1
  70
8
  0
VERTEX
  8
0
  10
141.474976
  20
309.752899
  30
0.319856
  70
32
  0
VERTEX
  8
0
  10
141.474976
  20
259.252899
  30
0.319856
  70
32
  0
SEQEND
  0
POLYLINE
  8
0
  6
CONTINUOUS
  62
7
  40
0.019685
  41
0.019685
  66
1
  70
8
  0
VERTEX
  8
0
  10
141.474976
  20
259.252899
  30
0.319856
  70
32
  0
VERTEX
  8
0
  10
99.474976
  20
259.252899
  30
0.319856
  70
32
  0
SEQEND
  0
POLYLINE
  8
0
  6
CONTINUOUS
  62
7
  40
0.019685
  41
0.019685
  66
1
  70
8
  0
VERTEX
  8
0
  10
99.474976
  20
259.252899
  30
0.319856
  70
32
  0
VERTEX
  8
0
  10
99.474976
  20
309.752899
  30
0.319856
  70
32
  0
SEQEND
  0
POLYLINE
  8
0
  6
$AUXILIARY
  62
7
  40
0.007874
  41
0.007874
  66
1
  70
8
  0
VERTEX
  8
0
  10
141.474976
  20
293.252899
  30
0.319856
  70
32
  0
VERTEX
  8
0
  10
99.474976
  20
293.252899
  30
0.319856
  70
32
  0
SEQEND
  0
POLYLINE
  8
0
  6
$AUXILIARY
  62
7
  40
0.007874
  41
0.007874
  66
1
  70
8
  0
VERTEX
  8
0
  10
141.474976
  20
307.252899
  30
0.319856
  70
32
  0
VERTEX
  8
0
  10
99.474976
  20
307.252899
  30
0.319856
  70
32
  0
SEQEND
  0
POLYLINE
  8
0
  6
CENTER
  62
7
  40
0.007874
  41
0.007874
  66
1
  70
8
  0
VERTEX
  8
0
  10
139.974976
  20
297.252899
  30
0.0
  70
32
  0
VERTEX
  8
0
  10
124.088882
  20
297.252899
  30
0.319856
  70
32
  0
SEQEND
  0
POLYLINE
  8
0
  6
CENTER
  62
7
  40
0.007874
  41
0.007874
  66
1
  70
8
  0
VERTEX
  8
0
  10
113.653915
  20
297.252899
  30
0.319856
  70
32
  0
VERTEX
  8
0
  10
100.974976
  20
297.252899
  30
0.0
  70
32
  0
SEQEND
  0
POLYLINE
  8
0
  6
CENTER
  62
7
  40
0.007874
  41
0.007874
  66
1
  70
8
  0
VERTEX
  8
0
  10
139.974976
  20
303.252899
  30
0.0
  70
32
  0
VERTEX
  8
0
  10
124.088882
  20
303.252899
  30
0.319856
  70
32
  0
SEQEND
  0
POLYLINE
  8
0
  6
CENTER
  62
7
  40
0.007874
  41
0.007874
  66
1
  70
8
  0
VERTEX
  8
0
  10
113.32782
  20
303.252899
  30
0.319856
  70
32
  0
VERTEX
  8
0
  10
100.974976
  20
303.252899
  30
0.0
  70
32
  0
SEQEND
  0
POLYLINE
  8
0
  6
CENTER
  62
7
  40
0.007874
  41
0.007874
  66
1
  70
8
  0
VERTEX
  8
0
  10
108.474976
  20
290.028046
  30
0.319856
  70
32
  0
VERTEX
  8
0
  10
108.474976
  20
311.252899
  30
0.319856
  70
32
  0
SEQEND
  0
POLYLINE
  8
0
  6
CENTER
  62
7
  40
0.007874
  41
0.007874
  66
1
  70
8
  0
VERTEX
  8
0
  10
132.474976
  20
289.701965
  30
0.319856
  70
32
  0
VERTEX
  8
0
  10
132.474976
  20
311.252899
  30
0.319856
  70
32
  0
SEQEND
  0
ARC
  8
0
  6
CONTINUOUS
  62
7
  10
108.474976
  20
303.252899
  30
0.319856
  40
4.0
  50
0.0
  51
180.0
  0
ARC
  8
0
  6
CONTINUOUS
  62
7
  10
108.474976
  20
297.252899
  30
0.319856
  40
4.0
  50
180.0
  51
360.0
  0
ARC
  8
0
  6
CONTINUOUS
  62
7
  10
132.474976
  20
303.252899
  30
0.319856
  40
4.0
  50
0.0
  51
180.0
  0
ARC
  8
0
  6
CONTINUOUS
  62
7
  10
132.474976
  20
297.252899
  30
0.319856
  40
4.0
  50
180.0
  51
360.0
  0
POLYLINE
  8
0
  6
$AUXILIARY
  62
7
  40
0.007874
  41
0.007874
  66
1
  70
8
  0
VERTEX
  8
0
  10
100.974976
  20
293.252899
  30
0.319856
  70
32
  0
VERTEX
  8
0
  10
100.974976
  20
307.252899
  30
0.319856
  70
32
  0
SEQEND
  0
POLYLINE
  8
0
  6
$AUXILIARY
  62
7
  40
0.007874
  41
0.007874
  66
1
  70
8
  0
VERTEX
  8
0
  10
139.974976
  20
307.252899
  30
0.319856
  70
32
  0
VERTEX
  8
0
  10
139.974976
  20
293.252899
  30
0.319856
  70
32
  0
SEQEND
  0
POLYLINE
  8
0
  6
CONTINUOUS
  62
7
  40
0.019685
  41
0.019685
  66
1
  70
8
  0
VERTEX
  8
0
  10
104.474976
  20
303.252899
  30
0.319856
  70
32
  0
VERTEX
  8
0
  10
104.474976
  20
297.252899
  30
0.319856
  70
32
  0
SEQEND
  0
POLYLINE
  8
0
  6
CONTINUOUS
  62
7
  40
0.019685
  41
0.019685
  66
1
  70
8
  0
VERTEX
  8
0
  10
112.474976
  20
303.252899
  30
0.319856
  70
32
  0
VERTEX
  8
0
  10
112.474976
  20
297.252899
  30
0.319856
  70
32
  0
SEQEND
  0
POLYLINE
  8
0
  6
CONTINUOUS
  62
7
  40
0.019685
  41
0.019685
  66
1
  70
8
  0
VERTEX
  8
0
  10
136.474976
  20
303.252899
  30
0.319856
  70
32
  0
VERTEX
  8
0
  10
136.474976
  20
297.252899
  30
0.319856
  70
32
  0
SEQEND
  0
POLYLINE
  8
0
  6
CONTINUOUS
  62
7
  40
0.019685
  41
0.019685
  66
1
  70
8
  0
VERTEX
  8
0
  10
128.474976
  20
303.252899
  30
0.319856
  70
32
  0
VERTEX
  8
0
  10
128.474976
  20
297.252899
  30
0.319856
  70
32
  0
SEQEND
  0
POLYLINE
  8
0
  6
CONTINUOUS
  62
7
  40
0.019685
  41
0.019685
  66
1
  70
8
  0
VERTEX
  8
0
  10
99.474976
  20
309.752899
  30
0.319856
  70
32
  0
VERTEX
  8
0
  10
111.089714
  20
310.769073
  30
0.0
  70
32
  0
SEQEND
  0
POLYLINE
  8
0
  6
CONTINUOUS
  62
7
  40
0.019685
  41
0.019685
  66
1
  70
8
  0
VERTEX
  8
0
  10
141.474976
  20
309.752899
  30
0.319856
  70
32
  0
VERTEX
  8
0
  10
129.860229
  20
310.769073
  30
0.0
  70
32
  0
SEQEND
  0
POLYLINE
  8
0
  6
CONTINUOUS
  62
7
  40
0.019685
  41
0.019685
  66
1
  70
8
  1001
ACAD
  1000
TCW25BRUSH
  1002
{
  1000
L45
  1071
-5
  1070
0
  1070
0
  1040
5.0
  1040
0.0
  1002
}
  0
VERTEX
  8
0
  10
130.974976
  20
321.272614
  30
0.361937
  70
32
  0
VERTEX
  8
0
  10
109.974976
  20
321.272614
  30
0.361937
  70
32
  0
SEQEND
  0
POLYLINE
  8
0
  6
CONTINUOUS
  62
7
  40
0.019685
  41
0.019685
  66
1
  70
8
  1001
ACAD
  1000
TCW25BRUSH
  1002
{
  1000
L45
  1071
-5
  1070
0
  1070
0
  1040
5.0
  1040
0.0
  1002
}
  0
VERTEX
  8
0
  10
131.474976
  20
320.772614
  30
0.361937
  70
32
  0
VERTEX
  8
0
  10
109.474976
  20
320.772614
  30
0.361937
  70
32
  0
SEQEND
  0
POLYLINE
  8
0
  6
CONTINUOUS
  62
7
  40
0.019685
  41
0.019685
  66
1
  70
8
  1001
ACAD
  1000
TCW25BRUSH
  1002
{
  1000
L45
  1071
-5
  1070
0
  1070
0
  1040
5.0
  1040
0.0
  1002
}
  0
VERTEX
  8
0
  10
125.474976
  20
297.272614
  30
0.361937
  70
32
  0
VERTEX
  8
0
  10
115.474976
  20
297.272614
  30
0.361937
  70
32
  0
SEQEND
  0
POLYLINE
  8
0
  6
CONTINUOUS
  62
7
  40
0.019685
  41
0.019685
  66
1
  70
8
  1001
ACAD
  1000
TCW25BRUSH
  1002
{
  1000
L45
  1071
-5
  1070
0
  1070
0
  1040
5.0
  1040
0.0
  1002
}
  0
VERTEX
  8
0
  10
125.474976
  20
297.272614
  30
0.361937
  70
32
  0
VERTEX
  8
0
  10
125.474976
  20
293.617859
  30
0.0
  70
32
  0
SEQEND
  0
POLYLINE
  8
0
  6
CONTINUOUS
  62
7
  40
0.019685
  41
0.019685
  66
1
  70
8
  1001
ACAD
  1000
TCW25BRUSH
  1002
{
  1000
L45
  1071
-5
  1070
0
  1070
0
  1040
5.0
  1040
0.0
  1002
}
  0
VERTEX
  8
0
  10
115.474976
  20
297.272614
  30
0.361937
  70
32
  0
VERTEX
  8
0
  10
115.474976
  20
293.617859
  30
0.0
  70
32
  0
SEQEND
  0
POLYLINE
  8
0
  6
CONTINUOUS
  62
7
  40
0.019685
  41
0.019685
  66
1
  70
8
  1001
ACAD
  1000
TCW25BRUSH
  1002
{
  1000
L45
  1071
-5
  1070
0
  1070
0
  1040
5.0
  1040
0.0
  1002
}
  0
VERTEX
  8
0
  10
131.474976
  20
320.772614
  30
0.361937
  70
32
  0
VERTEX
  8
0
  10
130.974976
  20
321.272614
  30
0.361937
  70
32
  0
SEQEND
  0
POLYLINE
  8
0
  6
CONTINUOUS
  62
7
  40
0.019685
  41
0.019685
  66
1
  70
8
  1001
ACAD
  1000
TCW25BRUSH
  1002
{
  1000
L45
  1071
-5
  1070
0
  1070
0
  1040
5.0
  1040
0.0
  1002
}
  0
VERTEX
  8
0
  10
131.474976
  20
320.772614
  30
0.361937
  70
32
  0
VERTEX
  8
0
  10
131.474976
  20
315.738708
  30
0.361937
  70
32
  0
SEQEND
  0
POLYLINE
  8
0
  6
CONTINUOUS
  62
7
  40
0.019685
  41
0.019685
  66
1
  70
8
  1001
ACAD
  1000
TCW25BRUSH
  1002
{
  1000
L45
  1071
-5
  1070
0
  1070
0
  1040
5.0
  1040
0.0
  1002
}
  0
VERTEX
  8
0
  10
109.474976
  20
320.772614
  30
0.361937
  70
32
  0
VERTEX
  8
0
  10
109.974976
  20
321.272614
  30
0.361937
  70
32
  0
SEQEND
  0
POLYLINE
  8
0
  6
CONTINUOUS
  62
7
  40
0.019685
  41
0.019685
  66
1
  70
8
  1001
ACAD
  1000
TCW25BRUSH
  1002
{
  1000
L45
  1071
-5
  1070
0
  1070
0
  1040
5.0
  1040
0.0
  1002
}
  0
VERTEX
  8
0
  10
109.474976
  20
320.772614
  30
0.361937
  70
32
  0
VERTEX
  8
0
  10
109.474976
  20
315.738708
  30
0.361937
  70
32
  0
SEQEND
  0
POLYLINE
  8
0
  6
CONTINUOUS
  62
7
  40
0.019685
  41
0.019685
  66
1
  70
8
  1001
ACAD
  1000
TCW25BRUSH
  1002
{
  1000
L45
  1071
-5
  1070
0
  1070
0
  1040
5.0
  1040
0.0
  1002
}
  0
VERTEX
  8
0
  10
125.474976
  20
297.272614
  30
0.361937
  70
32
  0
VERTEX
  8
0
  10
131.474976
  20
315.738708
  30
0.361937
  70
32
  0
SEQEND
  0
POLYLINE
  8
0
  6
CONTINUOUS
  62
7
  40
0.019685
  41
0.019685
  66
1
  70
8
  1001
ACAD
  1000
TCW25BRUSH
  1002
{
  1000
L45
  1071
-5
  1070
0
  1070
0
  1040
5.0
  1040
0.0
  1002
}
  0
VERTEX
  8
0
  10
115.474976
  20
297.272614
  30
0.361937
  70
32
  0
VERTEX
  8
0
  10
109.474976
  20
315.738708
  30
0.361937
  70
32
  0
SEQEND
  0
POLYLINE
  8
0
  6
CONTINUOUS
  62
7
  40
0.019685
  41
0.019685
  66
1
  70
8
  1001
ACAD
  1000
TCW25BRUSH
  1002
{
  1000
L45
  1071
-5
  1070
0
  1070
0
  1040
5.0
  1040
0.0
  1002
}
  0
VERTEX
  8
0
  10
131.474976
  20
315.738708
  30
0.361937
  70
32
  0
VERTEX
  8
0
  10
109.474976
  20
315.738708
  30
0.361937
  70
32
  0
SEQEND
  0
POLYLINE
  8
0
  6
CONTINUOUS
  62
7
  40
0.019685
  41
0.019685
  66
1
  70
8
  1001
ACAD
  1000
TCW25BRUSH
  1002
{
  1000
L45
  1071
-5
  1070
0
  1070
0
  1040
5.0
  1040
0.0
  1002
}
  0
VERTEX
  8
0
  10
288.334167
  20
321.272614
  30
0.489206
  70
32
  0
VERTEX
  8
0
  10
267.334167
  20
321.272614
  30
0.489206
  70
32
  0
SEQEND
  0
POLYLINE
  8
0
  6
CONTINUOUS
  62
7
  40
0.019685
  41
0.019685
  66
1
  70
8
  1001
ACAD
  1000
TCW25BRUSH
  1002
{
  1000
L45
  1071
-5
  1070
0
  1070
0
  1040
5.0
  1040
0.0
  1002
}
  0
VERTEX
  8
0
  10
288.834167
  20
320.772614
  30
0.489206
  70
32
  0
VERTEX
  8
0
  10
266.834167
  20
320.772614
  30
0.489206
  70
32
  0
SEQEND
  0
POLYLINE
  8
0
  6
CONTINUOUS
  62
7
  40
0.019685
  41
0.019685
  66
1
  70
8
  1001
ACAD
  1000
TCW25BRUSH
  1002
{
  1000
L45
  1071
-5
  1070
0
  1070
0
  1040
5.0
  1040
0.0
  1002
}
  0
VERTEX
  8
0
  10
282.334167
  20
286.272614
  30
0.489206
  70
32
  0
VERTEX
  8
0
  10
282.834167
  20
286.772614
  30
0.489206
  70
32
  0
SEQEND
  0
POLYLINE
  8
0
  6
CONTINUOUS
  62
7
  40
0.019685
  41
0.019685
  66
1
  70
8
  1001
ACAD
  1000
TCW25BRUSH
  1002
{
  1000
L45
  1071
-5
  1070
0
  1070
0
  1040
5.0
  1040
0.0
  1002
}
  0
VERTEX
  8
0
  10
273.334167
  20
286.272614
  30
0.489206
  70
32
  0
VERTEX
  8
0
  10
272.834167
  20
286.772614
  30
0.489206
  70
32
  0
SEQEND
  0
POLYLINE
  8
0
  6
$AUXILIARY
  62
7
  40
0.007874
  41
0.007874
  66
1
  70
8
  1001
ACAD
  1000
TCW25BRUSH
  1002
{
  1000
L45
  1071
-5
  1070
0
  1070
0
  1040
5.0
  1040
0.0
  1002
}
  0
VERTEX
  8
0
  10
282.834167
  20
297.272614
  30
0.489206
  70
32
  0
VERTEX
  8
0
  10
272.834167
  20
297.272614
  30
0.489206
  70
32
  0
SEQEND
  0
POLYLINE
  8
0
  6
CONTINUOUS
  62
7
  40
0.019685
  41
0.019685
  66
1
  70
8
  1001
ACAD
  1000
TCW25BRUSH
  1002
{
  1000
L45
  1071
-5
  1070
0
  1070
0
  1040
5.0
  1040
0.0
  1002
}
  0
VERTEX
  8
0
  10
282.834167
  20
297.272614
  30
0.489206
  70
32
  0
VERTEX
  8
0
  10
282.834167
  20
286.772614
  30
0.489206
  70
32
  0
SEQEND
  0
POLYLINE
  8
0
  6
CONTINUOUS
  62
7
  40
0.019685
  41
0.019685
  66
1
  70
8
  1001
ACAD
  1000
TCW25BRUSH
  1002
{
  1000
L45
  1071
-5
  1070
0
  1070
0
  1040
5.0
  1040
0.0
  1002
}
  0
VERTEX
  8
0
  10
272.834167
  20
297.272614
  30
0.489206
  70
32
  0
VERTEX
  8
0
  10
272.834167
  20
291.188934
  30
0.0
  70
32
  0
SEQEND
  0
POLYLINE
  8
0
  6
CONTINUOUS
  62
7
  40
0.019685
  41
0.019685
  66
1
  70
8
  1001
ACAD
  1000
TCW25BRUSH
  1002
{
  1000
L45
  1071
-5
  1070
0
  1070
0
  1040
5.0
  1040
0.0
  1002
}
  0
VERTEX
  8
0
  10
280.234161
  20
304.886963
  30
0.489206
  70
32
  0
VERTEX
  8
0
  10
280.234161
  20
291.739136
  30
0.0
  70
32
  0
SEQEND
  0
POLYLINE
  8
0
  6
CONTINUOUS
  62
7
  40
0.007874
  41
0.007874
  66
1
  1001
ACAD
  1000
TCW25BRUSH
  1002
{
  1000
L45
  1071
-5
  1070
0
  1070
0
  1040
5.0
  1040
0.0
  1002
}
  0
VERTEX
  8
0
  10
280.234161
  20
291.739136
  30
0.0
  0
VERTEX
  8
0
  10
280.234161
  20
276.739136
  30
0.0
  0
SEQEND
  0
POLYLINE
  8
0
  6
CONTINUOUS
  62
7
  40
0.019685
  41
0.019685
  66
1
  70
8
  1001
ACAD
  1000
TCW25BRUSH
  1002
{
  1000
L45
  1071
-5
  1070
0
  1070
0
  1040
5.0
  1040
0.0
  1002
}
  0
VERTEX
  8
0
  10
275.434174
  20
304.886963
  30
0.489206
  70
32
  0
VERTEX
  8
0
  10
275.434174
  20
291.739136
  30
0.0
  70
32
  0
SEQEND
  0
POLYLINE
  8
0
  6
CONTINUOUS
  62
7
  40
0.007874
  41
0.007874
  66
1
  1001
ACAD
  1000
TCW25BRUSH
  1002
{
  1000
L45
  1071
-5
  1070
0
  1070
0
  1040
5.0
  1040
0.0
  1002
}
  0
VERTEX
  8
0
  10
275.434174
  20
291.739136
  30
0.0
  0
VERTEX
  8
0
  10
275.434174
  20
276.739136
  30
0.0
  0
SEQEND
  0
POLYLINE
  8
0
  6
CONTINUOUS
  62
7
  40
0.007874
  41
0.007874
  66
1
  70
8
  1001
ACAD
  1000
TCW25BRUSH
  1002
{
  1000
L45
  1071
-5
  1070
0
  1070
0
  1040
5.0
  1040
0.0
  1002
}
  0
VERTEX
  8
0
  10
280.834167
  20
301.272614
  30
0.489206
  70
32
  0
VERTEX
  8
0
  10
280.834167
  20
291.739136
  30
0.0
  70
32
  0
SEQEND
  0
POLYLINE
  8
0
  6
CONTINUOUS
  62
7
  40
0.019685
  41
0.019685
  66
1
  1001
ACAD
  1000
TCW25BRUSH
  1002
{
  1000
L45
  1071
-5
  1070
0
  1070
0
  1040
5.0
  1040
0.0
  1002
}
  0
VERTEX
  8
0
  10
280.834167
  20
291.739136
  30
0.0
  0
VERTEX
  8
0
  10
280.834167
  20
241.73912
  30
0.0
  0
SEQEND
  0
POLYLINE
  8
0
  6
CONTINUOUS
  62
7
  40
0.007874
  41
0.007874
  66
1
  70
8
  1001
ACAD
  1000
TCW25BRUSH
  1002
{
  1000
L45
  1071
-5
  1070
0
  1070
0
  1040
5.0
  1040
0.0
  1002
}
  0
VERTEX
  8
0
  10
274.834167
  20
301.272614
  30
0.489206
  70
32
  0
VERTEX
  8
0
  10
274.834167
  20
291.739136
  30
0.0
  70
32
  0
SEQEND
  0
POLYLINE
  8
0
  6
CONTINUOUS
  62
7
  40
0.019685
  41
0.019685
  66
1
  1001
ACAD
  1000
TCW25BRUSH
  1002
{
  1000
L45
  1071
-5
  1070
0
  1070
0
  1040
5.0
  1040
0.0
  1002
}
  0
VERTEX
  8
0
  10
274.834167
  20
291.739136
  30
0.0
  0
VERTEX
  8
0
  10
274.834167
  20
287.272614
  30
0.0
  0
SEQEND
  0
POLYLINE
  8
0
  6
CONTINUOUS
  62
7
  40
0.007874
  41
0.007874
  66
1
  70
8
  1001
ACAD
  1000
TCW25BRUSH
  1002
{
  1000
L45
  1071
-5
  1070
0
  1070
0
  1040
5.0
  1040
0.0
  1002
}
  0
VERTEX
  8
0
  10
274.834167
  20
241.73912
  30
0.0
  70
32
  0
VERTEX
  8
0
  10
274.834167
  20
286.672607
  30
0.489206
  70
32
  0
SEQEND
  0
POLYLINE
  8
0
  6
CONTINUOUS
  62
7
  40
0.019685
  41
0.019685
  66
1
  70
8
  1001
ACAD
  1000
TCW25BRUSH
  1002
{
  1000
L45
  1071
-5
  1070
0
  1070
0
  1040
5.0
  1040
0.0
  1002
}
  0
VERTEX
  8
0
  10
288.834167
  20
320.772614
  30
0.489206
  70
32
  0
VERTEX
  8
0
  10
288.334167
  20
321.272614
  30
0.489206
  70
32
  0
SEQEND
  0
POLYLINE
  8
0
  6
CONTINUOUS
  62
7
  40
0.019685
  41
0.019685
  66
1
  70
8
  1001
ACAD
  1000
TCW25BRUSH
  1002
{
  1000
L45
  1071
-5
  1070
0
  1070
0
  1040
5.0
  1040
0.0
  1002
}
  0
VERTEX
  8
0
  10
288.834167
  20
320.772614
  30
0.489206
  70
32
  0
VERTEX
  8
0
  10
288.834167
  20
315.738708
  30
0.489206
  70
32
  0
SEQEND
  0
POLYLINE
  8
0
  6
CONTINUOUS
  62
7
  40
0.019685
  41
0.019685
  66
1
  70
8
  1001
ACAD
  1000
TCW25BRUSH
  1002
{
  1000
L45
  1071
-5
  1070
0
  1070
0
  1040
5.0
  1040
0.0
  1002
}
  0
VERTEX
  8
0
  10
266.834167
  20
320.772614
  30
0.489206
  70
32
  0
VERTEX
  8
0
  10
267.334167
  20
321.272614
  30
0.489206
  70
32
  0
SEQEND
  0
POLYLINE
  8
0
  6
CONTINUOUS
  62
7
  40
0.019685
  41
0.019685
  66
1
  70
8
  1001
ACAD
  1000
TCW25BRUSH
  1002
{
  1000
L45
  1071
-5
  1070
0
  1070
0
  1040
5.0
  1040
0.0
  1002
}
  0
VERTEX
  8
0
  10
266.834167
  20
320.772614
  30
0.489206
  70
32
  0
VERTEX
  8
0
  10
266.834167
  20
315.738708
  30
0.489206
  70
32
  0
SEQEND
  0
POLYLINE
  8
0
  6
CONTINUOUS
  62
7
  40
0.019685
  41
0.019685
  66
1
  70
8
  1001
ACAD
  1000
TCW25BRUSH
  1002
{
  1000
L45
  1071
-5
  1070
0
  1070
0
  1040
5.0
  1040
0.0
  1002
}
  0
VERTEX
  8
0
  10
282.834167
  20
297.272614
  30
0.489206
  70
32
  0
VERTEX
  8
0
  10
288.834167
  20
315.738708
  30
0.489206
  70
32
  0
SEQEND
  0
POLYLINE
  8
0
  6
CONTINUOUS
  62
7
  40
0.019685
  41
0.019685
  66
1
  70
8
  1001
ACAD
  1000
TCW25BRUSH
  1002
{
  1000
L45
  1071
-5
  1070
0
  1070
0
  1040
5.0
  1040
0.0
  1002
}
  0
VERTEX
  8
0
  10
272.834167
  20
297.272614
  30
0.489206
  70
32
  0
VERTEX
  8
0
  10
266.834167
  20
315.738708
  30
0.489206
  70
32
  0
SEQEND
  0
POLYLINE
  8
0
  6
CONTINUOUS
  62
7
  40
0.019685
  41
0.019685
  66
1
  70
8
  1001
ACAD
  1000
TCW25BRUSH
  1002
{
  1000
L45
  1071
-5
  1070
0
  1070
0
  1040
5.0
  1040
0.0
  1002
}
  0
VERTEX
  8
0
  10
280.834167
  20
301.272614
  30
0.489206
  70
32
  0
VERTEX
  8
0
  10
274.834167
  20
301.272614
  30
0.489206
  70
32
  0
SEQEND
  0
POLYLINE
  8
0
  6
CONTINUOUS
  62
7
  40
0.019685
  41
0.019685
  66
1
  70
8
  1001
ACAD
  1000
TCW25BRUSH
  1002
{
  1000
L45
  1071
-5
  1070
0
  1070
0
  1040
5.0
  1040
0.0
  1002
}
  0
VERTEX
  8
0
  10
277.834167
  20
306.272614
  30
0.489206
  70
32
  0
VERTEX
  8
0
  10
280.234161
  20
304.886963
  30
0.489206
  70
32
  0
SEQEND
  0
POLYLINE
  8
0
  6
CONTINUOUS
  62
7
  40
0.019685
  41
0.019685
  66
1
  70
8
  1001
ACAD
  1000
TCW25BRUSH
  1002
{
  1000
L45
  1071
-5
  1070
0
  1070
0
  1040
5.0
  1040
0.0
  1002
}
  0
VERTEX
  8
0
  10
277.834137
  20
306.272614
  30
0.489206
  70
32
  0
VERTEX
  8
0
  10
275.434174
  20
304.886963
  30
0.489206
  70
32
  0
SEQEND
  0
POLYLINE
  8
0
  6
CONTINUOUS
  62
7
  40
0.019685
  41
0.019685
  66
1
  70
8
  1001
ACAD
  1000
TCW25BRUSH
  1002
{
  1000
L45
  1071
-5
  1070
0
  1070
0
  1040
5.0
  1040
0.0
  1002
}
  0
VERTEX
  8
0
  10
288.834167
  20
315.738708
  30
0.489206
  70
32
  0
VERTEX
  8
0
  10
266.834167
  20
315.738708
  30
0.489206
  70
32
  0
SEQEND
  0
POLYLINE
  8
0
  6
CONTINUOUS
  62
7
  40
0.019685
  41
0.019685
  66
1
  70
8
  1001
ACAD
  1000
TCW25BRUSH
  1002
{
  1000
L45
  1071
-5
  1070
0
  1070
0
  1040
5.0
  1040
0.0
  1002
}
  0
VERTEX
  8
0
  10
280.234131
  20
304.886963
  30
0.489206
  70
32
  0
VERTEX
  8
0
  10
275.434174
  20
304.886963
  30
0.489206
  70
32
  0
SEQEND
  0
POLYLINE
  8
0
  6
CONTINUOUS
  62
7
  40
0.019685
  41
0.019685
  66
1
  1001
ACAD
  1000
TCW25BRUSH
  1002
{
  1000
Solid
  1071
-5
  1070
0
  1002
}
  0
VERTEX
  8
0
  10
208.82431
  20
271.739105
  30
0.0
  0
VERTEX
  8
0
  10
202.82431
  20
271.739105
  30
0.0
  0
SEQEND
  0
POLYLINE
  8
0
  6
CONTINUOUS
  62
7
  40
0.019685
  41
0.019685
  66
1
  1001
ACAD
  1000
TCW25BRUSH
  1002
{
  1000
Solid
  1071
-5
  1070
0
  1002
}
  0
VERTEX
  8
0
  10
208.82431
  20
271.322998
  30
0.0
  0
VERTEX
  8
0
  10
202.82431
  20
271.322998
  30
0.0
  0
SEQEND
  0
POLYLINE
  8
0
  6
CONTINUOUS
  62
7
  40
0.019685
  41
0.019685
  66
1
  1001
ACAD
  1000
TCW25BRUSH
  1002
{
  1000
Solid
  1071
-5
  1070
0
  1002
}
  0
VERTEX
  8
0
  10
208.82431
  20
251.73912
  30
0.0
  0
VERTEX
  8
0
  10
202.82431
  20
251.73912
  30
0.0
  0
SEQEND
  0
ARC
  8
0
  6
CONTINUOUS
  62
7
  10
201.344009
  20
236.608429
  40
0.5
  50
180.0
  51
270.0
  0
POLYLINE
  8
0
  6
CONTINUOUS
  62
7
  40
0.019685
  41
0.019685
  66
1
  70
8
  1001
ACAD
  1000
TCW25BRUSH
  1002
{
  1000
Solid
  1071
-5
  1070
0
  1002
}
  0
VERTEX
  8
0
  10
210.344009
  20
236.108429
  30
0.058713
  70
32
  0
VERTEX
  8
0
  10
201.344009
  20
236.108429
  30
0.058713
  70
32
  0
SEQEND
  0
POLYLINE
  8
0
  6
CONTINUOUS
  62
7
  40
0.019685
  41
0.019685
  66
1
  1001
ACAD
  1000
TCW25BRUSH
  1002
{
  1000
Solid
  1071
-5
  1070
0
  1002
}
  0
VERTEX
  8
0
  10
200.844009
  20
236.608429
  30
0.0
  0
VERTEX
  8
0
  10
200.844009
  20
241.73912
  30
0.0
  0
SEQEND
  0
ARC
  8
0
  6
CONTINUOUS
  62
7
  10
210.344009
  20
236.608429
  40
0.5
  50
-90.0
  51
0.0
  0
POLYLINE
  8
0
  6
CONTINUOUS
  62
7
  40
0.019685
  41
0.019685
  66
1
  1001
ACAD
  1000
TCW25BRUSH
  1002
{
  1000
Solid
  1071
-5
  1070
0
  1002
}
  0
VERTEX
  8
0
  10
210.844009
  20
236.608429
  30
0.0
  0
VERTEX
  8
0
  10
210.844009
  20
241.73912
  30
0.0
  0
SEQEND
  0
POLYLINE
  8
0
  6
$AUXILIARY
  62
7
  40
0.007874
  41
0.007874
  66
1
  70
8
  1001
ACAD
  1000
TCW25BRUSH
  1002
{
  1000
Solid
  1071
-5
  1070
0
  1002
}
  0
VERTEX
  8
0
  10
208.844009
  20
239.820267
  30
0.058713
  70
32
  0
VERTEX
  8
0
  10
202.844009
  20
239.820267
  30
0.058713
  70
32
  0
SEQEND
  0
POLYLINE
  8
0
  6
$AUXILIARY
  62
7
  40
0.007874
  41
0.007874
  66
1
  1001
ACAD
  1000
TCW25BRUSH
  1002
{
  1000
Solid
  1071
-5
  1070
0
  1002
}
  0
VERTEX
  8
0
  10
202.844009
  20
236.108429
  30
0.0
  0
VERTEX
  8
0
  10
202.844009
  20
239.820267
  30
0.0
  0
SEQEND
  0
POLYLINE
  8
0
  6
$AUXILIARY
  62
7
  40
0.007874
  41
0.007874
  66
1
  1001
ACAD
  1000
TCW25BRUSH
  1002
{
  1000
Solid
  1071
-5
  1070
0
  1002
}
  0
VERTEX
  8
0
  10
208.844009
  20
236.108429
  30
0.0
  0
VERTEX
  8
0
  10
208.844009
  20
239.820267
  30
0.0
  0
SEQEND
  0
POLYLINE
  8
0
  6
$AUXILIARY
  62
7
  40
0.007874
  41
0.007874
  66
1
  1001
ACAD
  1000
TCW25BRUSH
  1002
{
  1000
Solid
  1071
-5
  1070
0
  1002
}
  0
VERTEX
  8
0
  10
204.344009
  20
236.108429
  30
0.0
  0
VERTEX
  8
0
  10
204.344009
  20
239.820267
  30
0.0
  0
SEQEND
  0
POLYLINE
  8
0
  6
$AUXILIARY
  62
7
  40
0.007874
  41
0.007874
  66
1
  1001
ACAD
  1000
TCW25BRUSH
  1002
{
  1000
Solid
  1071
-5
  1070
0
  1002
}
  0
VERTEX
  8
0
  10
207.344009
  20
236.108429
  30
0.0
  0
VERTEX
  8
0
  10
207.344009
  20
239.820267
  30
0.0
  0
SEQEND
  0
POLYLINE
  8
0
  6
$AUXILIARY
  62
7
  40
0.007874
  41
0.007874
  66
1
  1001
ACAD
  1000
TCW25BRUSH
  1002
{
  1000
Solid
  1071
-5
  1070
0
  1002
}
  0
VERTEX
  8
0
  10
202.844009
  20
239.820267
  30
0.0
  0
VERTEX
  8
0
  10
205.844009
  20
240.743057
  30
0.0
  0
SEQEND
  0
POLYLINE
  8
0
  6
$AUXILIARY
  62
7
  40
0.007874
  41
0.007874
  66
1
  1001
ACAD
  1000
TCW25BRUSH
  1002
{
  1000
Solid
  1071
-5
  1070
0
  1002
}
  0
VERTEX
  8
0
  10
208.844009
  20
239.820267
  30
0.0
  0
VERTEX
  8
0
  10
205.844009
  20
240.743057
  30
0.0
  0
SEQEND
  0
INSERT
  8
0
  6
$AUXILIARY
  62
7
  2
*G9
  10
0.0
  20
0.0
  1001
ACAD
  1000
ACAD_TCW25GROUP
  1002
{
  1000
Groupe_15
  1002
}
  1000
TCW25BRUSH
  1002
{
  1000
Solid
  1071
-5
  1070
0
  1002
}
  0
POLYLINE
  8
0
  6
CONTINUOUS
  62
7
  40
0.019685
  41
0.019685
  66
1
  1001
ACAD
  1000
TCW25BRUSH
  1002
{
  1000
Solid
  1071
-5
  1070
0
  1002
}
  0
VERTEX
  8
0
  10
280.834167
  20
291.739136
  30
0.0
  0
VERTEX
  8
0
  10
274.834167
  20
291.739136
  30
0.0
  0
SEQEND
  0
POLYLINE
  8
0
  6
CONTINUOUS
  62
7
  40
0.019685
  41
0.019685
  66
1
  1001
ACAD
  1000
TCW25BRUSH
  1002
{
  1000
Solid
  1071
-5
  1070
0
  1002
}
  0
VERTEX
  8
0
  10
280.834167
  20
291.188934
  30
0.0
  0
VERTEX
  8
0
  10
274.834167
  20
291.188934
  30
0.0
  0
SEQEND
  0
POLYLINE
  8
0
  6
CONTINUOUS
  62
7
  40
0.019685
  41
0.019685
  66
1
  1001
ACAD
  1000
TCW25BRUSH
  1002
{
  1000
Solid
  1071
-5
  1070
0
  1002
}
  0
VERTEX
  8
0
  10
280.834167
  20
276.739136
  30
0.0
  0
VERTEX
  8
0
  10
274.834167
  20
276.739136
  30
0.0
  0
SEQEND
  0
POLYLINE
  8
0
  6
CONTINUOUS
  62
7
  40
0.003937
  41
0.003937
  66
1
  70
9
  1001
ACAD
  1000
TCW25BRUSH
  1002
{
  1000
L45
  1071
-5
  1070
0
  1070
0
  1040
5.0
  1040
0.0
  1002
}
  0
VERTEX
  8
0
  10
281.189178
  20
286.292328
  30
0.489206
  70
32
  0
VERTEX
  8
0
  10
281.189178
  20
286.292328
  30
0.489206
  70
32
  0
VERTEX
  8
0
  10
282.289185
  20
286.292328
  30
0.489206
  70
32
  0
VERTEX
  8
0
  10
282.789185
  20
286.792328
  30
0.489206
  70
32
  0
VERTEX
  8
0
  10
282.789185
  20
297.292328
  30
0.489206
  70
32
  0
VERTEX
  8
0
  10
285.979492
  20
307.111084
  30
0.489206
  70
32
  0
VERTEX
  8
0
  10
282.310425
  20
308.904877
  30
0.489206
  70
32
  0
VERTEX
  8
0
  10
280.204254
  20
308.406067
  30
0.489206
  70
32
  0
VERTEX
  8
0
  10
276.213623
  20
309.126587
  30
0.489206
  70
32
  0
VERTEX
  8
0
  10
273.608643
  20
307.740936
  30
0.489206
  70
32
  0
VERTEX
  8
0
  10
270.560242
  20
308.627747
  30
0.489206
  70
32
  0
VERTEX
  8
0
  10
269.205048
  20
308.32312
  30
0.489206
  70
32
  0
VERTEX
  8
0
  10
272.789185
  20
297.292328
  30
0.489206
  70
32
  0
VERTEX
  8
0
  10
272.789185
  20
286.792328
  30
0.489206
  70
32
  0
VERTEX
  8
0
  10
273.289185
  20
286.292328
  30
0.489206
  70
32
  0
VERTEX
  8
0
  10
274.389191
  20
286.292328
  30
0.489206
  70
32
  0
VERTEX
  8
0
  10
275.389191
  20
287.292328
  30
0.489206
  70
32
  0
VERTEX
  8
0
  10
275.389191
  20
304.906677
  30
0.489206
  70
32
  0
VERTEX
  8
0
  10
277.789154
  20
306.292328
  30
0.489206
  70
32
  0
VERTEX
  8
0
  10
280.189148
  20
304.906677
  30
0.489206
  70
32
  0
VERTEX
  8
0
  10
280.189178
  20
287.292328
  30
0.489206
  70
32
  0
SEQEND
  0
INSERT
  8
0
  6
CONTINUOUS
  62
7
  2
*H10
  10
0.0
  20
0.0
  1001
ACAD
  1000
TCW25BRUSH
  1002
{
  1002
}
  0
POLYLINE
  8
0
  6
CONTINUOUS
  62
7
  40
0.003937
  41
0.003937
  66
1
  70
1
  1001
ACAD
  1000
TCW25BRUSH
  1002
{
  1000
STEEL
  1071
-5
  1070
0
  1070
0
  1040
5.0
  1040
0.0
  1002
}
  0
VERTEX
  8
0
  10
200.344009
  20
235.539124
  30
0.0
  0
VERTEX
  8
0
  10
200.344009
  20
235.539124
  30
0.0
  0
VERTEX
  8
0
  10
199.547943
  20
234.743057
  30
0.0
  0
VERTEX
  8
0
  10
198.844009
  20
234.743057
  30
0.0
  0
VERTEX
  8
0
  10
198.844009
  20
255.743057
  30
0.0
  0
VERTEX
  8
0
  10
202.594009
  20
255.752899
  30
0.0
  0
VERTEX
  8
0
  10
202.594009
  20
241.73912
  30
0.0
  0
VERTEX
  8
0
  10
200.344009
  20
241.73912
  30
0.0
  0
SEQEND
  0
INSERT
  8
0
  6
CONTINUOUS
  62
7
  2
*H11
  10
0.0
  20
0.0
  1001
ACAD
  1000
TCW25BRUSH
  1002
{
  1002
}
  0
POLYLINE
  8
0
  6
CONTINUOUS
  62
7
  40
0.003937
  41
0.003937
  66
1
  70
1
  1001
ACAD
  1000
TCW25BRUSH
  1002
{
  1000
STEEL
  1071
-5
  1070
0
  1070
0
  1040
5.0
  1040
0.0
  1002
}
  0
VERTEX
  8
0
  10
212.844009
  20
234.743057
  30
0.0
  0
VERTEX
  8
0
  10
212.844009
  20
255.743057
  30
0.0
  0
VERTEX
  8
0
  10
209.094009
  20
255.743057
  30
0.0
  0
VERTEX
  8
0
  10
209.094009
  20
241.73912
  30
0.0
  0
VERTEX
  8
0
  10
211.344009
  20
241.73912
  30
0.0
  0
VERTEX
  8
0
  10
211.344009
  20
235.539124
  30
0.0
  0
VERTEX
  8
0
  10
212.140076
  20
234.743057
  30
0.0
  0
SEQEND
  0
INSERT
  8
0
  6
CONTINUOUS
  62
7
  2
*H12
  10
0.0
  20
0.0
  1001
ACAD
  1000
TCW25BRUSH
  1002
{
  1002
}
  0
POLYLINE
  8
0
  6
CONTINUOUS
  62
7
  40
0.003937
  41
0.003937
  66
1
  70
1
  1001
ACAD
  1000
TCW25BRUSH
  1002
{
  1000
STEEL
  1071
-5
  1070
0
  1070
0
  1040
5.0
  1040
0.0
  1002
}
  0
VERTEX
  8
0
  10
274.593994
  20
241.73912
  30
0.0
  0
VERTEX
  8
0
  10
274.593994
  20
255.743057
  30
0.0
  0
VERTEX
  8
0
  10
270.843994
  20
255.743057
  30
0.0
  0
VERTEX
  8
0
  10
270.843994
  20
234.743057
  30
0.0
  0
VERTEX
  8
0
  10
271.547943
  20
234.743057
  30
0.0
  0
VERTEX
  8
0
  10
272.343994
  20
235.539124
  30
0.0
  0
VERTEX
  8
0
  10
272.343994
  20
241.73912
  30
0.0
  0
SEQEND
  0
INSERT
  8
0
  6
CONTINUOUS
  62
7
  2
*H13
  10
0.0
  20
0.0
  1001
ACAD
  1000
TCW25BRUSH
  1002
{
  1002
}
  0
POLYLINE
  8
0
  6
CONTINUOUS
  62
7
  40
0.003937
  41
0.003937
  66
1
  70
1
  1001
ACAD
  1000
TCW25BRUSH
  1002
{
  1000
STEEL
  1071
-5
  1070
0
  1070
0
  1040
5.0
  1040
0.0
  1002
}
  0
VERTEX
  8
0
  10
281.093994
  20
241.73912
  30
0.0
  0
VERTEX
  8
0
  10
281.093994
  20
255.743057
  30
0.0
  0
VERTEX
  8
0
  10
284.843994
  20
255.743057
  30
0.0
  0
VERTEX
  8
0
  10
284.843994
  20
234.743057
  30
0.0
  0
VERTEX
  8
0
  10
284.140076
  20
234.743057
  30
0.0
  0
VERTEX
  8
0
  10
283.343994
  20
235.539124
  30
0.0
  0
VERTEX
  8
0
  10
283.343994
  20
241.73912
  30
0.0
  0
SEQEND
  0
INSERT
  8
0
  6
CONTINUOUS
  62
7
  2
*H14
  10
0.0
  20
0.0
  1001
ACAD
  1000
TCW25BRUSH
  1002
{
  1002
}
  0
POLYLINE
  8
0
  6
CONTINUOUS
  62
7
  40
0.003937
  41
0.003937
  66
1
  70
1
  1001
ACAD
  1000
TCW25BRUSH
  1002
{
  1000
STEEL
  1071
-5
  1070
0
  1070
0
  1040
5.0
  1040
90.0
  1002
}
  0
VERTEX
  8
0
  10
186.344009
  20
259.252899
  30
0.0
  0
VERTEX
  8
0
  10
183.844009
  20
259.252899
  30
0.0
  0
VERTEX
  8
0
  10
183.844009
  20
254.252899
  30
0.0
  0
VERTEX
  8
0
  10
186.344009
  20
254.252899
  30
0.0
  0
SEQEND
  0
INSERT
  8
0
  6
CONTINUOUS
  62
7
  2
*H15
  10
0.0
  20
0.0
  1001
ACAD
  1000
TCW25BRUSH
  1002
{
  1002
}
  0
POLYLINE
  8
0
  6
CONTINUOUS
  62
7
  40
0.003937
  41
0.003937
  66
1
  70
1
  1001
ACAD
  1000
TCW25BRUSH
  1002
{
  1000
STEEL
  1071
-5
  1070
0
  1070
0
  1040
5.0
  1040
90.0
  1002
}
  0
VERTEX
  8
0
  10
189.344009
  20
254.252899
  30
0.0
  0
VERTEX
  8
0
  10
189.344009
  20
259.252899
  30
0.0
  0
VERTEX
  8
0
  10
202.434158
  20
259.272583
  30
0.0
  0
VERTEX
  8
0
  10
202.594009
  20
255.752899
  30
0.0
  0
VERTEX
  8
0
  10
198.844009
  20
255.743057
  30
0.0
  0
VERTEX
  8
0
  10
198.844009
  20
254.252899
  30
0.0
  0
SEQEND
  0
INSERT
  8
0
  6
CONTINUOUS
  62
7
  2
*H16
  10
0.0
  20
0.0
  1001
ACAD
  1000
TCW25BRUSH
  1002
{
  1002
}
  0
POLYLINE
  8
0
  6
CONTINUOUS
  62
7
  40
0.003937
  41
0.003937
  66
1
  70
1
  1001
ACAD
  1000
TCW25BRUSH
  1002
{
  1000
STEEL
  1071
-5
  1070
0
  1070
0
  1040
5.0
  1040
90.0
  1002
}
  0
VERTEX
  8
0
  10
274.584167
  20
259.262756
  30
0.0
  0
VERTEX
  8
0
  10
209.214478
  20
259.272583
  30
0.0
  0
VERTEX
  8
0
  10
209.094009
  20
255.743057
  30
0.0
  0
VERTEX
  8
0
  10
212.844009
  20
255.743057
  30
0.0
  0
VERTEX
  8
0
  10
212.844009
  20
254.252899
  30
0.0
  0
VERTEX
  8
0
  10
270.843994
  20
254.252899
  30
0.0
  0
VERTEX
  8
0
  10
270.843994
  20
255.743057
  30
0.0
  0
VERTEX
  8
0
  10
274.593994
  20
255.743057
  30
0.0
  0
SEQEND
  0
INSERT
  8
0
  6
CONTINUOUS
  62
7
  2
*H17
  10
0.0
  20
0.0
  1001
ACAD
  1000
TCW25BRUSH
  1002
{
  1002
}
  0
POLYLINE
  8
0
  6
CONTINUOUS
  62
7
  40
0.003937
  41
0.003937
  66
1
  70
1
  1001
ACAD
  1000
TCW25BRUSH
  1002
{
  1000
STEEL
  1071
-5
  1070
0
  1070
0
  1040
5.0
  1040
90.0
  1002
}
  0
VERTEX
  8
0
  10
301.843994
  20
259.252899
  30
0.0
  0
VERTEX
  8
0
  10
281.084167
  20
259.262756
  30
0.0
  0
VERTEX
  8
0
  10
281.093994
  20
255.752899
  30
0.0
  0
VERTEX
  8
0
  10
284.843994
  20
255.743057
  30
0.0
  0
VERTEX
  8
0
  10
284.844025
  20
254.252899
  30
0.0
  0
VERTEX
  8
0
  10
301.843994
  20
254.252899
  30
0.0
  0
SEQEND
  0
INSERT
  8
0
  6
CONTINUOUS
  62
7
  2
*H18
  10
0.0
  20
0.0
  1001
ACAD
  1000
TCW25BRUSH
  1002
{
  1002
}
  0
INSERT
  8
0
  6
CONTINUOUS
  62
7
  2
*A19
  10
0.0
  20
0.0
  1001
ACAD
  1000
TCW25DIMLEAD
  1002
{
  1070
2
  1000
3
  1000
Cote
  1070
0
  1071
0
  1040
1.0
  1040
0.0
  1000
CONTINUOUS
  1000
0
  1071
3
  1071
130
  1010
245.546555
  1020
302.701813
  1071
2
  1010
245.546555
  1020
302.701813
  1071
194
  1010
239.093079
  1020
294.262756
  1002
}
  0
INSERT
  8
0
  6
CONTINUOUS
  62
7
  2
*A20
  10
0.0
  20
0.0
  1001
ACAD
  1000
TCW25DIMLEAD
  1002
{
  1070
2
  1000
4
  1000
Cote
  1070
0
  1071
0
  1040
1.0
  1040
0.0
  1000
CONTINUOUS
  1000
0
  1071
3
  1071
130
  1010
297.63504
  1020
308.071777
  1071
2
  1010
297.63504
  1020
308.071777
  1071
194
  1010
287.267822
  1020
310.91803
  1002
}
  0
INSERT
  8
0
  6
CONTINUOUS
  62
7
  2
*A21
  10
0.0
  20
0.0
  1001
ACAD
  1000
TCW25DIMLEAD
  1002
{
  1070
2
  1000
2
  1000
Cote
  1070
0
  1071
0
  1040
1.0
  1040
0.0
  1000
CONTINUOUS
  1000
0
  1071
3
  1071
130
  1010
193.975998
  1020
315.589691
  1071
2
  1010
193.975998
  1020
315.589691
  1071
194
  1010
202.040451
  1020
309.772583
  1002
}
  0
INSERT
  8
0
  6
CONTINUOUS
  62
7
  2
*A22
  10
0.0
  20
0.0
  1001
ACAD
  1000
TCW25DIMLEAD
  1002
{
  1070
2
  1000
1
  1000
Cote
  1070
0
  1071
0
  1040
1.0
  1040
0.0
  1000
CONTINUOUS
  1000
0
  1071
3
  1071
130
  1010
176.255173
  1020
265.6492
  1071
2
  1010
176.255173
  1020
265.6492
  1071
194
  1010
183.844009
  1020
257.705261
  1002
}
  0
INSERT
  8
0
  6
CONTINUOUS
  62
7
  2
*A23
  10
0.0
  20
0.0
  1001
ACAD
  1000
TCW25DIMLEAD
  1002
{
  1070
2
  1000
5
  1000
Cote
  1070
0
  1071
0
  1040
1.0
  1040
0.0
  1000
CONTINUOUS
  1000
0
  1071
3
  1071
130
  1010
132.240692
  1020
222.790298
  1071
2
  1010
132.240692
  1020
222.790298
  1071
194
  1010
125.787216
  1020
234.743057
  1002
}
  0
INSERT
  8
0
  6
CONTINUOUS
  62
7
  2
*A24
  10
0.0
  20
0.0
  1001
ACAD
  1000
TCW25DIMLEAD
  1002
{
  1070
2
  1000
6
  1000
Cote
  1070
0
  1071
0
  1040
1.0
  1040
0.0
  1000
CONTINUOUS
  1000
0
  1071
3
  1071
130
  1010
149.961517
  1020
223.058807
  1071
2
  1010
149.961517
  1020
223.058807
  1071
194
  1010
141.360062
  1020
229.743057
  1002
}
  0
INSERT
  8
0
  6
CONTINUOUS
  62
7
  2
*A25
  10
0.0
  20
0.0
  1001
ACAD
  1000
TCW25DIMLEAD
  1002
{
  1070
2
  1000
7
  1000
Cote
  1070
0
  1071
0
  1040
1.0
  1040
0.0
  1000
CONTINUOUS
  1000
0
  1071
3
  1071
130
  1010
154.257462
  1020
251.78801
  1071
2
  1010
154.257462
  1020
251.78801
  1071
194
  1010
144.850525
  1020
247.243057
  1002
}
  0
INSERT
  8
0
  6
CONTINUOUS
  62
7
  2
*A26
  10
0.0
  20
0.0
  1001
ACAD
  1000
TCW25DIMLEAD
  1002
{
  1070
2
  1000
8
  1000
Cote
  1070
0
  1071
0
  1040
1.0
  1040
0.0
  1000
CONTINUOUS
  1000
0
  1071
3
  1071
130
  1010
224.872269
  1020
235.946671
  1071
2
  1010
224.872269
  1020
235.946671
  1071
194
  1010
205.799423
  1020
241.73912
  1002
}
  0
INSERT
  8
0
  6
CONTINUOUS
  62
7
  2
*A27
  10
0.0
  20
0.0
  1001
ACAD
  1000
TCW25DIMLEAD
  1002
{
  1070
2
  1000
9
  1000
Cote
  1070
0
  1071
0
  1040
1.0
  1040
0.0
  1000
CONTINUOUS
  1000
0
  1071
3
  1071
130
  1010
295.218597
  1020
234.335693
  1071
2
  1010
295.218597
  1020
234.335693
  1071
194
  1010
277.843994
  1020
241.9646
  1002
}
  0
POLYLINE
  8
0
  6
CONTINUOUS
  62
7
  40
0.03937
  41
0.03937
  66
1
  70
9
  0
VERTEX
  8
0
  10
173.760422
  20
153.485123
  30
7.405934
  70
32
  0
VERTEX
  8
0
  10
308.853394
  20
153.485123
  30
7.405934
  70
32
  0
VERTEX
  8
0
  10
308.853394
  20
171.033463
  30
7.405934
  70
32
  0
VERTEX
  8
0
  10
173.760422
  20
171.033463
  30
7.405934
  70
32
  0
SEQEND
  0
POLYLINE
  8
0
  6
CONTINUOUS
  62
7
  40
0.007874
  41
0.007874
  66
1
  70
8
  0
VERTEX
  8
0
  10
196.275909
  20
171.033463
  30
7.405934
  70
32
  0
VERTEX
  8
0
  10
196.275909
  20
153.485123
  30
7.405934
  70
32
  0
SEQEND
  0
POLYLINE
  8
0
  6
CONTINUOUS
  62
7
  40
0.007874
  41
0.007874
  66
1
  70
8
  0
VERTEX
  8
0
  10
256.31723
  20
171.033463
  30
7.405934
  70
32
  0
VERTEX
  8
0
  10
256.31723
  20
162.05188
  30
7.405934
  70
32
  0
SEQEND
  0
POLYLINE
  8
0
  6
CONTINUOUS
  62
7
  40
0.007874
  41
0.007874
  66
1
  70
8
  0
VERTEX
  8
0
  10
196.275909
  20
165.698959
  30
7.405934
  70
32
  0
VERTEX
  8
0
  10
173.760422
  20
165.698959
  30
7.405934
  70
32
  0
SEQEND
  0
POLYLINE
  8
0
  6
CONTINUOUS
  62
7
  40
0.007874
  41
0.007874
  66
1
  70
8
  0
VERTEX
  8
0
  10
196.217484
  20
159.711182
  30
7.405934
  70
32
  0
VERTEX
  8
0
  10
173.760422
  20
159.711182
  30
7.405934
  70
32
  0
SEQEND
  0
POLYLINE
  8
0
  6
CONTINUOUS
  62
7
  40
0.007874
  41
0.007874
  66
1
  70
8
  0
VERTEX
  8
0
  10
308.853394
  20
162.05188
  30
7.405934
  70
32
  0
VERTEX
  8
0
  10
196.275909
  20
162.05188
  30
7.405934
  70
32
  0
SEQEND
  0
POLYLINE
  8
0
  6
CONTINUOUS
  62
82
  40
0.015748
  41
0.015748
  66
1
  70
8
  0
VERTEX
  8
0
  10
184.380112
  20
164.7677
  30
7.405934
  70
32
  0
VERTEX
  8
0
  10
184.380112
  20
160.6996
  30
7.405934
  70
32
  0
SEQEND
  0
POLYLINE
  8
0
  6
CENTER
  62
82
  40
0.007874
  41
0.007874
  66
1
  70
8
  0
VERTEX
  8
0
  10
175.470047
  20
162.733658
  30
7.405934
  70
32
  0
VERTEX
  8
0
  10
194.139511
  20
162.733658
  30
7.405934
  70
32
  0
SEQEND
  0
POLYLINE
  8
0
  6
CENTER
  62
82
  40
0.007874
  41
0.007874
  66
1
  70
8
  0
VERTEX
  8
0
  10
190.040207
  20
165.577774
  30
7.405934
  70
32
  0
VERTEX
  8
0
  10
190.040207
  20
159.832306
  30
7.405934
  70
32
  0
SEQEND
  0
CIRCLE
  8
0
  6
CONTINUOUS
  62
82
  210
0.0
  220
0.654112
  230
0.756398
  10
-190.040207
  20
-118.247122
  30
112.047799
  40
2.542297
  0
CIRCLE
  8
0
  6
CONTINUOUS
  62
82
  210
0.0
  220
0.654114
  230
0.756396
  10
-190.040207
  20
-118.246697
  30
112.048248
  40
1.256134
  0
POLYLINE
  8
0
  6
CONTINUOUS
  62
82
  40
0.015748
  41
0.015748
  66
1
  70
8
  0
VERTEX
  8
0
  10
176.836517
  20
163.683792
  30
7.405934
  70
32
  0
VERTEX
  8
0
  10
176.836517
  20
161.783508
  30
7.405934
  70
32
  0
SEQEND
  0
POLYLINE
  8
0
  6
CONTINUOUS
  62
82
  40
0.015748
  41
0.015748
  66
1
  70
8
  0
VERTEX
  8
0
  10
184.380112
  20
164.7677
  30
7.405934
  70
32
  0
VERTEX
  8
0
  10
176.836517
  20
163.683792
  30
7.405934
  70
32
  0
SEQEND
  0
POLYLINE
  8
0
  6
CONTINUOUS
  62
82
  40
0.015748
  41
0.015748
  66
1
  70
8
  0
VERTEX
  8
0
  10
184.380112
  20
160.6996
  30
7.405934
  70
32
  0
VERTEX
  8
0
  10
176.836517
  20
161.783508
  30
7.405934
  70
32
  0
SEQEND
  0
TEXT
  8
0
  62
82
  10
174.583038
  20
167.693245
  30
7.405934
  1
Echelle:
  40
2.245399
  7
STANDARD
  72
5
  11
185.690659
  21
167.693245
  31
7.405934
  0
POLYLINE
  8
0
  6
CONTINUOUS
  62
7
  40
0.015748
  41
0.015748
  66
1
  70
8
  0
VERTEX
  8
0
  10
308.853394
  20
166.542648
  30
7.405934
  70
32
  0
VERTEX
  8
0
  10
256.31723
  20
166.542648
  30
7.405934
  70
32
  0
SEQEND
  0
TEXT
  8
0
  62
82
  10
258.463684
  20
163.565357
  30
7.405934
  1
Le :
  40
2.245388
  7
STANDARD
  72
5
  11
263.829895
  21
163.565357
  31
7.405934
  0
TEXT
  8
0
  62
150
  10
203.784546
  20
165.390938
  30
7.405934
  1
AIFT INDUSTRIE
  40
3.361336
  7
STANDARD
  72
5
  11
248.872177
  21
165.390938
  31
7.405934
  0
TEXT
  8
0
  62
7
  10
259.663452
  20
167.972614
  30
7.405934
  1
Dessiné par : G. Maillard
  40
2.245434
  7
STANDARD
  72
5
  11
294.025879
  21
167.972614
  31
7.405934
  0
TEXT
  8
0
  62
7
  10
266.115082
  20
163.420376
  30
7.033605
  1
03 septembre 2001
  40
1.906712
  7
STANDARD
  72
5
  11
289.85434
  21
163.420376
  31
7.033605
  0
POLYLINE
  8
0
  6
CONTINUOUS
  62
7
  40
0.03937
  41
0.03937
  66
1
  70
8
  0
VERTEX
  8
0
  10
173.760422
  20
171.033463
  30
4.958926
  70
32
  0
VERTEX
  8
0
  10
173.760422
  20
224.876938
  30
0.0
  70
32
  0
SEQEND
  0
POLYLINE
  8
0
  6
CONTINUOUS
  62
7
  40
0.03937
  41
0.03937
  66
1
  70
8
  0
VERTEX
  8
0
  10
308.853394
  20
171.033463
  30
4.958926
  70
32
  0
VERTEX
  8
0
  10
308.853394
  20
224.876938
  30
0.0
  70
32
  0
SEQEND
  0
POLYLINE
  8
0
  6
CONTINUOUS
  62
7
  40
0.03937
  41
0.03937
  66
1
  70
8
  0
VERTEX
  8
0
  10
173.760422
  20
183.276947
  30
4.958926
  70
32
  0
VERTEX
  8
0
  10
308.853394
  20
183.276947
  30
4.958926
  70
32
  0
SEQEND
  0
POLYLINE
  8
0
  6
CONTINUOUS
  62
7
  40
0.03937
  41
0.03937
  66
1
  70
8
  0
VERTEX
  8
0
  10
173.760422
  20
177.155182
  30
4.958926
  70
32
  0
VERTEX
  8
0
  10
308.853394
  20
177.155182
  30
4.958926
  70
32
  0
SEQEND
  0
POLYLINE
  8
0
  6
CONTINUOUS
  62
7
  40
0.03937
  41
0.03937
  66
1
  70
8
  0
VERTEX
  8
0
  10
187.354492
  20
171.033463
  30
4.958926
  70
32
  0
VERTEX
  8
0
  10
187.354492
  20
224.876938
  30
0.0
  70
32
  0
SEQEND
  0
POLYLINE
  8
0
  6
CONTINUOUS
  62
7
  40
0.03937
  41
0.03937
  66
1
  70
8
  0
VERTEX
  8
0
  10
200.948593
  20
171.033463
  30
4.958926
  70
32
  0
VERTEX
  8
0
  10
200.948593
  20
224.876938
  30
0.0
  70
32
  0
SEQEND
  0
POLYLINE
  8
0
  6
CONTINUOUS
  62
7
  40
0.03937
  41
0.03937
  66
1
  70
8
  0
VERTEX
  8
0
  10
255.324921
  20
171.033463
  30
4.958926
  70
32
  0
VERTEX
  8
0
  10
255.324921
  20
224.876938
  30
0.0
  70
32
  0
SEQEND
  0
POLYLINE
  8
0
  6
CONTINUOUS
  62
7
  40
0.03937
  41
0.03937
  66
1
  70
8
  0
VERTEX
  8
0
  10
282.513184
  20
171.033463
  30
4.958926
  70
32
  0
VERTEX
  8
0
  10
282.513184
  20
224.876938
  30
0.0
  70
32
  0
SEQEND
  0
TEXT
  8
0
  62
7
  10
176.635803
  20
173.070473
  30
4.958926
  1
Rep
  40
2.542168
  7
STANDARD
  72
5
  11
183.926987
  21
173.070473
  31
4.958926
  0
TEXT
  8
0
  62
7
  10
218.375
  20
173.070473
  30
4.958926
  1
Désignation
  40
2.542168
  7
STANDARD
  72
5
  11
240.248596
  21
173.070473
  31
4.958926
  0
TEXT
  8
0
  62
7
  10
189.494568
  20
173.070473
  30
4.958926
  1
Nbre
  40
2.542168
  7
STANDARD
  72
5
  11
198.537048
  21
173.070473
  31
4.958926
  0
TEXT
  8
0
  62
7
  10
262.260742
  20
173.070473
  30
4.958926
  1
Matière
  40
2.542168
  7
STANDARD
  72
5
  11
276.33136
  21
173.070473
  31
4.958926
  0
TEXT
  8
0
  62
7
  10
292.06076
  20
173.070473
  30
4.958926
  1
Débit
  40
2.542168
  7
STANDARD
  72
5
  11
302.116882
  21
173.070473
  31
4.958926
  0
TEXT
  8
0
  62
7
  10
193.813171
  20
179.708706
  30
4.958926
  1
1
  40
2.224445
  7
STANDARD
  72
5
  11
195.797791
  21
179.708706
  31
4.958926
  0
TEXT
  8
0
  62
7
  10
208.324982
  20
179.708706
  30
4.958926
  1
Chassis
  40
2.224445
  7
STANDARD
  72
5
  11
220.439209
  21
179.708706
  31
4.958926
  0
TEXT
  8
0
  62
7
  10
257.023468
  20
179.896679
  30
4.958926
  1
EN AW-2017
  40
2.224445
  7
STANDARD
  72
5
  11
277.832214
  21
179.896679
  31
4.958926
  0
TEXT
  8
0
  62
7
  10
284.267609
  20
179.896679
  30
4.958926
  1
55x5 lg/122
  40
2.224445
  7
STANDARD
  72
5
  11
303.338043
  21
179.896679
  31
4.958926
  0
TEXT
  8
0
  62
7
  10
179.074646
  20
179.708706
  1
1
  40
2.224445
  7
STANDARD
  72
5
  11
181.059265
  21
179.708706
  31
0.0
  0
POLYLINE
  8
0
  6
CONTINUOUS
  62
7
  40
0.03937
  41
0.03937
  66
1
  70
8
  0
VERTEX
  8
0
  10
173.760422
  20
188.476944
  30
4.958926
  70
32
  0
VERTEX
  8
0
  10
308.853394
  20
188.476944
  30
4.958926
  70
32
  0
SEQEND
  0
POLYLINE
  8
0
  6
CONTINUOUS
  62
7
  40
0.03937
  41
0.03937
  66
1
  70
8
  0
VERTEX
  8
0
  10
173.760422
  20
193.676941
  30
4.958926
  70
32
  0
VERTEX
  8
0
  10
308.853394
  20
193.676941
  30
4.958926
  70
32
  0
SEQEND
  0
POLYLINE
  8
0
  6
CONTINUOUS
  62
7
  40
0.03937
  41
0.03937
  66
1
  70
8
  0
VERTEX
  8
0
  10
173.760422
  20
198.876938
  30
4.958926
  70
32
  0
VERTEX
  8
0
  10
308.853394
  20
198.876938
  30
4.958926
  70
32
  0
SEQEND
  0
POLYLINE
  8
0
  6
CONTINUOUS
  62
7
  40
0.03937
  41
0.03937
  66
1
  70
8
  0
VERTEX
  8
0
  10
173.760422
  20
204.076935
  30
4.958926
  70
32
  0
VERTEX
  8
0
  10
308.853394
  20
204.076935
  30
4.958926
  70
32
  0
SEQEND
  0
POLYLINE
  8
0
  6
CONTINUOUS
  62
7
  40
0.03937
  41
0.03937
  66
1
  70
8
  0
VERTEX
  8
0
  10
173.760422
  20
198.876938
  30
4.958926
  70
32
  0
VERTEX
  8
0
  10
308.853394
  20
198.876938
  30
4.958926
  70
32
  0
SEQEND
  0
POLYLINE
  8
0
  6
CONTINUOUS
  62
7
  40
0.03937
  41
0.03937
  66
1
  70
8
  0
VERTEX
  8
0
  10
173.760422
  20
209.276947
  30
4.958926
  70
32
  0
VERTEX
  8
0
  10
308.853394
  20
209.276947
  30
4.958926
  70
32
  0
SEQEND
  0
POLYLINE
  8
0
  6
CONTINUOUS
  62
7
  40
0.03937
  41
0.03937
  66
1
  70
8
  0
VERTEX
  8
0
  10
173.760422
  20
214.476944
  30
4.958926
  70
32
  0
VERTEX
  8
0
  10
308.853394
  20
214.476944
  30
4.958926
  70
32
  0
SEQEND
  0
POLYLINE
  8
0
  6
CONTINUOUS
  62
7
  40
0.03937
  41
0.03937
  66
1
  70
8
  0
VERTEX
  8
0
  10
173.760422
  20
219.676941
  30
4.958926
  70
32
  0
VERTEX
  8
0
  10
308.853394
  20
219.676941
  30
4.958926
  70
32
  0
SEQEND
  0
POLYLINE
  8
0
  6
CONTINUOUS
  62
7
  40
0.03937
  41
0.03937
  66
1
  70
8
  0
VERTEX
  8
0
  10
173.760422
  20
224.876938
  30
4.958926
  70
32
  0
VERTEX
  8
0
  10
308.853394
  20
224.876938
  30
4.958926
  70
32
  0
SEQEND
  0
TEXT
  8
0
  62
7
  10
207.538208
  20
157.693798
  30
4.958926
  1
LOCOMOTIVE A VAPEUR
  40
3.813297
  7
STANDARD
  72
5
  11
288.023071
  21
157.693798
  31
4.958926
  0
TEXT
  8
0
  62
7
  10
193.955627
  20
185.012722
  30
4.958926
  1
1
  40
2.224445
  7
STANDARD
  72
5
  11
195.940247
  21
185.012722
  31
4.958926
  0
TEXT
  8
0
  62
7
  10
208.467438
  20
185.012722
  30
4.958926
  1
Cabine
  40
2.224445
  7
STANDARD
  72
5
  11
219.703506
  21
185.012722
  31
4.958926
  0
TEXT
  8
0
  62
7
  10
257.165924
  20
185.20071
  30
4.958926
  1
EN AW-2017
  40
2.224445
  7
STANDARD
  72
5
  11
277.97467
  21
185.20071
  31
4.958926
  0
TEXT
  8
0
  62
7
  10
284.410065
  20
185.20071
  30
4.958926
  1
45x45 lg/56
  40
2.224445
  7
STANDARD
  72
5
  11
303.480499
  21
185.20071
  31
4.958926
  0
TEXT
  8
0
  62
7
  10
179.217102
  20
185.012722
  1
2
  40
2.224445
  7
STANDARD
  72
5
  11
181.201721
  21
185.012722
  31
0.0
  0
TEXT
  8
0
  62
7
  10
193.955643
  20
189.845669
  30
4.958926
  1
1
  40
2.224445
  7
STANDARD
  72
5
  11
195.940262
  21
189.845669
  31
4.958926
  0
TEXT
  8
0
  62
7
  10
208.467453
  20
189.845669
  30
4.958926
  1
Chaudière
  40
2.224445
  7
STANDARD
  72
5
  11
224.770508
  21
189.845669
  31
4.958926
  0
TEXT
  8
0
  62
7
  10
257.165924
  20
190.033657
  30
4.958926
  1
EN AW-2017
  40
2.224445
  7
STANDARD
  72
5
  11
277.97467
  21
190.033657
  31
4.958926
  0
TEXT
  8
0
  62
7
  10
284.410065
  20
190.033657
  30
4.958926
  1
Ø 45 lg/80
  40
2.224445
  7
STANDARD
  72
5
  11
301.38205
  21
190.033657
  31
4.958926
  0
TEXT
  8
0
  62
7
  10
179.217117
  20
189.845669
  1
3
  40
2.224445
  7
STANDARD
  72
5
  11
181.201736
  21
189.845669
  31
0.0
  0
TEXT
  8
0
  62
7
  10
193.955627
  20
195.484127
  30
4.958926
  1
1
  40
2.224445
  7
STANDARD
  72
5
  11
195.940247
  21
195.484127
  31
4.958926
  0
TEXT
  8
0
  62
7
  10
208.467438
  20
195.484127
  30
4.958926
  1
Cheminée
  40
2.224445
  7
STANDARD
  72
5
  11
224.54657
  21
195.484127
  31
4.958926
  0
TEXT
  8
0
  62
7
  10
257.165924
  20
195.6721
  30
4.958926
  1
Cu Sn 8 P
  40
2.224445
  7
STANDARD
  72
5
  11
272.185516
  21
195.6721
  31
4.958926
  0
TEXT
  8
0
  62
7
  10
284.410065
  20
195.6721
  30
4.958926
  1
Ø 25 lg/38
  40
2.224445
  7
STANDARD
  72
5
  11
301.38205
  21
195.6721
  31
4.958926
  0
TEXT
  8
0
  62
7
  10
179.217102
  20
195.484127
  1
4
  40
2.224445
  7
STANDARD
  72
5
  11
181.201721
  21
195.484127
  31
0.0
  0
TEXT
  8
0
  62
7
  10
193.955643
  20
200.585567
  30
4.958926
  1
2
  40
2.224445
  7
STANDARD
  72
5
  11
195.940262
  21
200.585567
  31
4.958926
  0
TEXT
  8
0
  62
7
  10
208.467453
  20
200.585567
  30
4.958926
  1
Essieu
  40
2.224445
  7
STANDARD
  72
5
  11
218.820969
  21
200.585567
  31
4.958926
  0
TEXT
  8
0
  62
7
  10
257.165924
  20
200.773556
  30
4.958926
  1
EN AW-2017
  40
2.224445
  7
STANDARD
  72
5
  11
277.97467
  21
200.773556
  31
4.958926
  0
TEXT
  8
0
  62
7
  10
284.410065
  20
200.773556
  30
4.958926
  1
Ø 35 lg/54
  40
2.224445
  7
STANDARD
  72
5
  11
301.38205
  21
200.773556
  31
4.958926
  0
TEXT
  8
0
  62
7
  10
179.217117
  20
200.585567
  1
5
  40
2.224445
  7
STANDARD
  72
5
  11
181.201736
  21
200.585567
  31
0.0
  0
TEXT
  8
0
  62
7
  10
193.955643
  20
205.955517
  30
4.958926
  1
4
  40
2.224445
  7
STANDARD
  72
5
  11
195.940262
  21
205.955517
  31
4.958926
  0
TEXT
  8
0
  62
7
  10
208.467453
  20
205.955517
  30
4.958926
  1
Roue
  40
2.224445
  7
STANDARD
  72
5
  11
216.840714
  21
205.955517
  31
4.958926
  0
TEXT
  8
0
  62
7
  10
257.165924
  20
206.14349
  30
4.958926
  1
Cu Sn 8 p
  40
2.224445
  7
STANDARD
  72
5
  11
271.979218
  21
206.14349
  31
4.958926
  0
TEXT
  8
0
  62
7
  10
284.410065
  20
206.14349
  30
4.958926
  1
Ø 25 lg/8
  40
2.224445
  7
STANDARD
  72
5
  11
299.397736
  21
206.14349
  31
4.958926
  0
TEXT
  8
0
  62
7
  10
179.217117
  20
205.955517
  1
6
  40
2.224445
  7
STANDARD
  72
5
  11
181.201736
  21
205.955517
  31
0.0
  0
TEXT
  8
0
  62
7
  10
194.095581
  20
211.59396
  30
4.958926
  1
4
  40
2.224445
  7
STANDARD
  72
5
  11
196.0802
  21
211.59396
  31
4.958926
  0
TEXT
  8
0
  62
7
  10
179.357056
  20
211.59396
  1
7
  40
2.224445
  7
STANDARD
  72
5
  11
181.341675
  21
211.59396
  31
0.0
  0
TEXT
  8
0
  62
7
  10
193.955643
  20
216.426907
  30
4.958926
  1
1
  40
2.224445
  7
STANDARD
  72
5
  11
195.940262
  21
216.426907
  31
4.958926
  0
TEXT
  8
0
  62
7
  10
208.467453
  20
216.426907
  30
4.958926
  1
Vis CHC M6-30
  40
2.224445
  7
STANDARD
  72
5
  11
234.908875
  21
216.426907
  31
4.958926
  0
TEXT
  8
0
  62
7
  10
179.217117
  20
216.426907
  1
8
  40
2.224445
  7
STANDARD
  72
5
  11
181.201736
  21
216.426907
  31
0.0
  0
TEXT
  8
0
  62
7
  10
194.095581
  20
220.722866
  30
4.958926
  1
1
  40
2.224445
  7
STANDARD
  72
5
  11
196.0802
  21
220.722866
  31
4.958926
  0
TEXT
  8
0
  62
7
  10
208.607391
  20
220.722866
  30
4.958926
  1
Vis CHC M6-50
  40
2.224445
  7
STANDARD
  72
5
  11
235.048813
  21
220.722866
  31
4.958926
  0
TEXT
  8
0
  62
7
  10
179.357056
  20
220.722866
  1
9
  40
2.224445
  7
STANDARD
  72
5
  11
181.341675
  21
220.722866
  31
0.0
  0
TEXT
  8
0
  62
7
  10
201.176498
  20
211.246548
  30
4.958926
  1
Anneau elastique pour arbre 10x1
  40
2.224445
  7
STANDARD
  72
5
  11
254.946289
  21
211.246548
  31
4.958926
  0
ENDSEC
  0
EOF
