  0
SECTION
  2
HEADER
  9
$ACADVER
  1
AC1009
  9
$ANGBASE
  50
0.0
  9
$ANGDIR
  70
0
  9
$ATTDIA
  70
0
  9
$ATTMODE
  70
0
  9
$ATTREQ
  70
1
  9
$AUNITS
  70
0
  9
$AUPREC
  70
2
  9
$AXISMODE
  70
0
  9
$CECOLOR
  62
256
  9
$CELTYPE
  6
BYLAYER
  9
$CLAYER
  8
0
  9
$DIMALT
  70
0
  9
$DIMALTD
  70
2
  9
$DIMALTF
  40
0.0
  9
$DIMAPOST
  1

  9
$DIMASO
  70
0
  9
$DIMASZ
  40
4.0
  9
$DIMBLK
  1

  9
$DIMBLK1
  1

  9
$DIMBLK2
  1

  9
$DIMCEN
  40
0.09
  9
$DIMCLRD
  70
256
  9
$DIMCLRE
  70
256
  9
$DIMCLRT
  70
256
  9
$DIMDLE
  40
0.0
  9
$DIMDLI
  40
10.0
  9
$DIMEXE
  40
3.0
  9
$DIMEXO
  40
0.0
  9
$DIMGAP
  40
1.5
  9
$DIMLFAC
  40
1.0
  9
$DIMLIM
  70
0
  9
$DIMPOST
  1

  9
$DIMRND
  40
0.001
  9
$DIMSAH
  70
0
  9
$DIMSCALE
  40
0.6
  9
$DIMSE1
  70
0
  9
$DIMSE2
  70
0
  9
$DIMSHO
  70
1
  9
$DIMSOXD
  70
0
  9
$DIMSTYLE
  2
*UNNAMED
  9
$DIMTAD
  70
1
  9
$DIMTFAC
  40
1.0
  9
$DIMTIH
  70
1
  9
$DIMTIX
  70
1
  9
$DIMTM
  40
0.15
  9
$DIMTOFL
  70
1
  9
$DIMTOH
  70
1
  9
$DIMTOL
  70
0
  9
$DIMTP
  40
0.0
  9
$DIMTSZ
  40
0.0
  9
$DIMTVP
  40
0.0
  9
$DIMTXT
  40
4.283
  9
$DIMZIN
  70
8
  9
$DRAGMODE
  70
0
  9
$ELEVATION
  40
0.0
  9
$EXTMAX
  10
0.0
  20
0.0
  30
0.0
  9
$EXTMIN
  10
0.0
  20
0.0
  30
0.0
  9
$FILLETRAD
  40
25.0
  9
$FILLMODE
  70
1
  9
$INSBASE
  10
0.0
  20
0.0
  30
0.0
  9
$LIMMAX
  10
310.512077
  20
259.961536
  9
$LIMMIN
  10
72.767988
  20
91.859655
  9
$LTSCALE
  40
1.0
  9
$LUNITS
  70
2
  9
$LUPREC
  70
3
  9
$MENU
  1
acad
  9
$MIRRTEXT
  70
0
  9
$ORTHOMODE
  70
0
  9
$OSMODE
  70
0
  9
$PDMODE
  70
0
  9
$PDSIZE
  40
0.0
  9
$PEXTMAX
  10
0.0
  20
0.0
  30
0.0
  9
$PEXTMIN
  10
0.0
  20
0.0
  30
0.0
  9
$PLIMCHECK
  70
0
  9
$PLIMMAX
  10
0.0
  20
0.0
  9
$PLIMMIN
  10
0.0
  20
0.0
  9
$PLINEWID
  40
0.0
  9
$PUCSXDIR
  10
1.0
  20
0.0
  30
0.0
  9
$PUCSYDIR
  10
0.0
  20
1.0
  30
0.0
  9
$QTEXTMODE
  70
0
  9
$SHADEDGE
  70
3
  9
$SHADEDIF
  70
70
  9
$SKETCHINC
  40
1.0
  9
$SPLFRAME
  70
0
  9
$SPLINESEGS
  70
20
  9
$SPLINETYPE
  70
0
  9
$SURFTAB1
  70
6
  9
$SURFTAB2
  70
6
  9
$TDINDWG
  40
0.0
  9
$TDUPDATE
  40
2449702.667959
  9
$TDUSRTIMER
  40
0.0
  9
$TEXTSIZE
  40
6.779
  9
$TEXTSTYLE
  7
STANDARD
  9
$TILEMODE
  70
1
  9
$TRACEWID
  40
1.0
  9
$UCSORG
  10
0.0
  20
0.0
  30
0.0
  9
$UCSXDIR
  10
1.0
  20
0.0
  30
0.0
  9
$UCSYDIR
  10
0.0
  20
1.0
  30
0.0
  9
$UNITMODE
  70
0
  9
$WORLDVIEW
  70
1
  9
$GRIDMODE
  70
1
  9
$PINSBASE
  10
0.0
  20
0.0
  30
0.0
  9
$PSLTSCALE
  70
1
  9
$TREEDEPTH
  70
3020
  0
ENDSEC
  0
SECTION
  2
TABLES
  0
TABLE
  2
VPORT
  70
1
  0
VPORT
  2
*ACTIVE
  70
0
  10
0.0
  20
0.0
  11
1.0
  21
1.0
  12
191.640024
  22
175.839367
  13
0.0
  23
0.0
  14
5.0
  24
5.0
  15
5.0
  25
5.0
  16
0.0
  26
0.0
  36
1.0
  17
0.0
  27
0.0
  37
0.0
  40
171.606483
  41
1.591518
  42
50.0
  43
0.0
  44
0.0
  50
0.0
  51
0.0
  71
0
  72
100
  73
1
  74
1
  75
0
  76
1
  77
0
  78
0
  0
ENDTAB
  0
TABLE
  2
LTYPE
  70
12
  0
LTYPE
  2
CONTINUOUS
  70
0
  3
CONTINUOUS
  72
65
  73
0
  40
0.0
  0
LTYPE
  2
BORDER
  70
0
  3
BORDER
  72
65
  73
6
  40
1.75
  49
0.5
  49
-0.25
  49
0.5
  49
-0.25
  49
0.0
  49
-0.25
  0
LTYPE
  2
CENTER
  70
0
  3
CENTER
  72
65
  73
4
  40
2.0
  49
1.25
  49
-0.25
  49
0.25
  49
-0.25
  0
LTYPE
  2
DASHDOT
  70
0
  3
DASHDOT
  72
65
  73
4
  40
1.0
  49
0.5
  49
-0.25
  49
0.0
  49
-0.25
  0
LTYPE
  2
DASHED
  70
0
  3
DASHED
  72
65
  73
2
  40
0.75
  49
0.5
  49
-0.25
  0
LTYPE
  2
DIVIDE
  70
0
  3
DIVIDE
  72
65
  73
6
  40
1.25
  49
0.5
  49
-0.25
  49
0.0
  49
-0.25
  49
0.0
  49
-0.25
  0
LTYPE
  2
DOT
  70
0
  3
DOT
  72
65
  73
2
  40
0.25
  49
0.0
  49
-0.25
  0
LTYPE
  2
HIDDEN
  70
0
  3
HIDDEN
  72
65
  73
2
  40
0.375
  49
0.25
  49
-0.125
  0
LTYPE
  2
PHANTOM
  70
0
  3
PHANTOM
  72
65
  73
6
  40
2.5
  49
1.25
  49
-0.25
  49
0.25
  49
-0.25
  49
0.25
  49
-0.25
  0
LTYPE
  2
$AUXILIARY
  70
0
  3
$AUXILIARY
  72
65
  73
2
  40
0.1
  49
0.05
  49
-0.05
  0
LTYPE
  2
$INVISIBLE
  70
0
  3
$INVISIBLE
  72
65
  73
2
  40
200.0
  49
-100.0
  49
-100.0
  0
LTYPE
  2
AXES
  70
0
  3
AXES
  72
65
  73
4
  40
20.0
  49
12.5
  49
-2.5
  49
2.5
  49
-2.5
  0
ENDTAB
  0
TABLE
  2
LAYER
  70
1
  0
LAYER
  2
0
  70
64
  6
CONTINUOUS
  62
7
  0
ENDTAB
  0
TABLE
  2
STYLE
  70
1
  0
STYLE
  2
STANDARD
  70
0
  3
txt
  4

  40
0.0
  41
1.0
  42
0.2
  50
0.0
  71
0
  0
ENDTAB
  0
ENDSEC
  0
SECTION
  2
BLOCKS
  0
BLOCK
  8
0
  70
64
  2
Bloc_1
  10
125.55838
  20
25.439186
  30
0.0
  3
Bloc_1
  0
TEXT
  8
0
  62
82
  10
113.768379
  20
24.189186
  1
Dessiné par :
  40
3.75
  7
STANDARD
  72
5
  11
137.348373
  21
24.189186
  31
0.0
  0
ENDBLK
  0
BLOCK
  8
0
  70
64
  2
A4-V
  10
0.0
  20
0.0
  30
0.0
  3
A4-V
  0
POLYLINE
  8
0
  66
1
  70
1
  0
VERTEX
  8
0
  10
0.0
  20
0.0
  30
0.0
  0
VERTEX
  8
0
  10
190.0
  20
0.0
  30
0.0
  0
VERTEX
  8
0
  10
190.0
  20
277.0
  30
0.0
  0
VERTEX
  8
0
  10
0.0
  20
277.0
  30
0.0
  0
SEQEND
  0
ENDBLK
  0
BLOCK
  8
0
  70
64
  2
CARTOUCH
  10
0.0
  20
0.0
  30
0.0
  3
CARTOUCH
  0
SOLID
  8
0
  10
-179.75
  20
0.25
  11
-0.25
  21
0.25
  12
-179.75
  22
31.75
  13
-0.25
  23
31.75
  0
SOLID
  8
0
  10
-180.25
  20
-0.25
  11
-180.25
  21
32.25
  12
0.25
  22
-0.25
  13
0.25
  23
32.25
  0
LINE
  8
0
  62
3
  10
-150.0
  20
0.0
  11
-150.0
  21
32.0
  0
LINE
  8
0
  62
3
  10
-70.0
  20
32.0
  11
-70.0
  21
16.0
  0
LINE
  8
0
  62
3
  10
-150.0
  20
16.0
  11
0.0
  21
16.0
  0
POINT
  8
0
  62
3
  10
-150.0
  20
10.666667
  1001
ACAD
  1000
TCW30POINT
  1002
{
  1070
0
  1040
0.00001
  1000

  1070
0
  1071
65280
  1040
1.0
  1040
0.0
  1000
UNDEFINED
  1000
0
  1071
1
  1071
242
  1010
-150.0
  1020
10.666667
  1002
}
  0
POINT
  8
0
  62
3
  10
-150.0
  20
21.333334
  1001
ACAD
  1000
TCW30POINT
  1002
{
  1070
0
  1040
0.00001
  1000

  1070
0
  1071
65280
  1040
1.0
  1040
0.0
  1000
UNDEFINED
  1000
0
  1071
1
  1071
242
  1010
-150.0
  1020
21.333334
  1002
}
  0
LINE
  8
0
  62
3
  10
-150.0
  20
21.333334
  11
-180.0
  21
21.333334
  0
LINE
  8
0
  62
3
  10
-150.0
  20
10.666667
  11
-180.0
  21
10.666667
  0
LINE
  8
0
  62
3
  10
-70.0
  20
24.0
  11
0.0
  21
24.0
  0
TEXT
  8
0
  10
-141.9608
  20
21.74437
  1
AIFT INDUSTRIE
  40
5.0
  7
STANDARD
  72
5
  11
-79.854439
  21
21.74437
  31
0.0
  0
TEXT
  8
0
  62
3
  10
-68.01075
  20
28.894913
  1
dessine par :
  40
2.0
  7
STANDARD
  72
5
  11
-55.968082
  21
28.894913
  31
0.0
  0
TEXT
  8
0
  62
3
  10
-68.01075
  20
20.978732
  1
le :
  40
2.000001
  7
STANDARD
  72
5
  11
-65.000084
  21
20.978732
  31
0.0
  0
TEXT
  8
0
  62
3
  10
-177.84581
  20
25.16764
  1
Echelle:
  40
2.499999
  7
STANDARD
  72
5
  11
-167.995804
  21
25.16764
  31
0.0
  0
LINE
  8
0
  6
AXES
  62
3
  10
-176.49585
  20
16.088823
  11
-151.090744
  21
16.088823
  0
LINE
  8
0
  6
AXES
  62
3
  10
-157.740021
  20
20.277731
  11
-157.740021
  21
11.438282
  0
CIRCLE
  8
0
  62
3
  10
-157.740021
  20
16.088823
  40
4.73477
  0
CIRCLE
  8
0
  62
3
  10
-157.740021
  20
16.088823
  40
3.23018
  0
LINE
  8
0
  62
3
  10
-164.116425
  20
20.823591
  11
-164.116425
  21
11.354056
  0
LINE
  8
0
  62
3
  10
-175.346939
  20
12.858644
  11
-175.346939
  21
19.319004
  0
LINE
  8
0
  62
3
  10
-175.346939
  20
19.319004
  11
-164.116425
  21
20.823591
  0
LINE
  8
0
  62
3
  10
-175.346939
  20
12.858644
  11
-164.116425
  21
11.354056
  0
ENDBLK
  0
BLOCK
  8
0
  70
64
  2
Bloc_2
  10
90.0
  20
15.0
  30
0.0
  3
Bloc_2
  0
POLYLINE
  8
0
  6
CONTINUOUS
  62
7
  40
0.03937
  41
0.03937
  66
1
  70
1
  0
VERTEX
  8
0
  10
0.0
  20
0.0
  30
0.0
  0
VERTEX
  8
0
  10
180.0
  20
0.0
  30
0.0
  0
VERTEX
  8
0
  10
180.0
  20
30.0
  30
0.0
  0
VERTEX
  8
0
  10
0.0
  20
30.0
  30
0.0
  0
SEQEND
  0
POLYLINE
  8
0
  6
CONTINUOUS
  62
7
  40
0.007874
  41
0.007874
  66
1
  0
VERTEX
  8
0
  10
30.0
  20
30.0
  30
0.0
  0
VERTEX
  8
0
  10
30.0
  20
0.0
  30
0.0
  0
SEQEND
  0
POLYLINE
  8
0
  6
CONTINUOUS
  62
7
  40
0.007874
  41
0.007874
  66
1
  0
VERTEX
  8
0
  10
110.0
  20
30.0
  30
0.0
  0
VERTEX
  8
0
  10
110.0
  20
15.0
  30
0.0
  0
SEQEND
  0
POLYLINE
  8
0
  6
CONTINUOUS
  62
7
  40
0.007874
  41
0.007874
  66
1
  0
VERTEX
  8
0
  10
30.0
  20
15.0
  30
0.0
  0
VERTEX
  8
0
  10
180.0
  20
15.0
  30
0.0
  0
SEQEND
  0
POLYLINE
  8
0
  6
CONTINUOUS
  62
7
  40
0.007874
  41
0.007874
  66
1
  0
VERTEX
  8
0
  10
110.0
  20
22.5
  30
0.0
  0
VERTEX
  8
0
  10
180.0
  20
22.5
  30
0.0
  0
SEQEND
  0
POLYLINE
  8
0
  6
CONTINUOUS
  62
7
  40
0.007874
  41
0.007874
  66
1
  0
VERTEX
  8
0
  10
0.0
  20
20.0
  30
0.0
  0
VERTEX
  8
0
  10
30.0
  20
20.0
  30
0.0
  0
SEQEND
  0
POLYLINE
  8
0
  6
CONTINUOUS
  62
7
  40
0.007874
  41
0.007874
  66
1
  0
VERTEX
  8
0
  10
0.0
  20
10.0
  30
0.0
  0
VERTEX
  8
0
  10
30.0
  20
10.0
  30
0.0
  0
SEQEND
  0
CIRCLE
  8
0
  6
CONTINUOUS
  62
70
  210
0.0
  220
0.098069
  230
0.99518
  10
-19.832396
  20
-14.779912
  30
1.456479
  40
3.317184
  0
CIRCLE
  8
0
  6
CONTINUOUS
  62
70
  210
0.0
  220
0.098067
  230
0.99518
  10
-19.832396
  20
-14.779916
  30
1.456436
  40
1.658592
  0
POLYLINE
  8
0
  6
CONTINUOUS
  62
70
  40
0.007874
  41
0.007874
  66
1
  0
VERTEX
  8
0
  10
13.198025
  20
18.152697
  30
0.0
  0
VERTEX
  8
0
  10
13.198025
  20
11.55031
  30
0.0
  0
SEQEND
  0
POLYLINE
  8
0
  6
CONTINUOUS
  62
70
  40
0.007874
  41
0.007874
  66
1
  0
VERTEX
  8
0
  10
6.697942
  20
16.641684
  30
0.0
  0
VERTEX
  8
0
  10
6.697942
  20
13.200907
  30
0.0
  0
SEQEND
  0
POLYLINE
  8
0
  6
CONTINUOUS
  62
70
  40
0.007874
  41
0.007874
  66
1
  0
VERTEX
  8
0
  10
13.198025
  20
18.152697
  30
0.0
  0
VERTEX
  8
0
  10
6.697942
  20
16.641684
  30
0.0
  0
SEQEND
  0
POLYLINE
  8
0
  6
CONTINUOUS
  62
70
  40
0.007874
  41
0.007874
  66
1
  0
VERTEX
  8
0
  10
13.198025
  20
11.55031
  30
0.0
  0
VERTEX
  8
0
  10
6.697942
  20
13.200907
  30
0.0
  0
SEQEND
  0
POLYLINE
  8
0
  6
DASHDOT
  62
70
  40
0.007874
  41
0.007874
  66
1
  0
VERTEX
  8
0
  10
4.905061
  20
14.851502
  30
0.0
  0
VERTEX
  8
0
  10
24.808172
  20
14.851502
  30
0.0
  0
SEQEND
  0
POLYLINE
  8
0
  6
DASHDOT
  62
70
  40
0.007874
  41
0.007874
  66
1
  0
VERTEX
  8
0
  10
19.832396
  20
19.803291
  30
0.0
  0
VERTEX
  8
0
  10
19.832396
  20
9.899714
  30
0.0
  0
SEQEND
  0
TEXT
  8
0
  62
150
  10
42.530231
  20
21.188855
  1
aift industrie
  40
5.795903
  7
STANDARD
  72
5
  11
100.782715
  21
21.188855
  31
0.0
  0
TEXT
  8
0
  62
82
  10
4.037598
  20
21.689184
  1
Echelle:
  40
3.75
  7
STANDARD
  72
5
  11
18.837597
  21
21.689184
  31
0.0
  0
TEXT
  8
0
  62
82
  10
115.206894
  20
17.234102
  1
Le:
  40
3.75
  7
STANDARD
  72
5
  11
121.226891
  21
17.234102
  31
0.0
  0
TEXT
  8
0
  62
82
  10
113.149826
  20
24.638334
  1
Dessine par : G. Maillard
  40
3.75
  7
STANDARD
  72
5
  11
158.93483
  21
24.638334
  31
0.0
  0
ENDBLK
  0
BLOCK
  8
0
  70
65
  2
*G4
  10
0.0
  20
0.0
  30
0.0
  3
*G
  0
POLYLINE
  8
0
  6
CONTINUOUS
  62
7
  40
0.03937
  41
0.03937
  66
1
  70
9
  0
VERTEX
  8
0
  10
152.453522
  20
98.175125
  30
7.405934
  70
32
  0
VERTEX
  8
0
  10
287.546478
  20
98.175125
  30
7.405934
  70
32
  0
VERTEX
  8
0
  10
287.546478
  20
115.723473
  30
7.405934
  70
32
  0
VERTEX
  8
0
  10
152.453522
  20
115.723473
  30
7.405934
  70
32
  0
SEQEND
  0
POLYLINE
  8
0
  6
CONTINUOUS
  62
7
  40
0.007874
  41
0.007874
  66
1
  70
8
  0
VERTEX
  8
0
  10
174.969009
  20
115.723473
  30
7.405934
  70
32
  0
VERTEX
  8
0
  10
174.969009
  20
98.175125
  30
7.405934
  70
32
  0
SEQEND
  0
POLYLINE
  8
0
  6
CONTINUOUS
  62
7
  40
0.007874
  41
0.007874
  66
1
  70
8
  0
VERTEX
  8
0
  10
235.01033
  20
115.723473
  30
7.405934
  70
32
  0
VERTEX
  8
0
  10
235.01033
  20
106.74189
  30
7.405934
  70
32
  0
SEQEND
  0
POLYLINE
  8
0
  6
CONTINUOUS
  62
7
  40
0.007874
  41
0.007874
  66
1
  70
8
  0
VERTEX
  8
0
  10
174.969009
  20
110.388962
  30
7.405934
  70
32
  0
VERTEX
  8
0
  10
152.453522
  20
110.388962
  30
7.405934
  70
32
  0
SEQEND
  0
POLYLINE
  8
0
  6
CONTINUOUS
  62
7
  40
0.007874
  41
0.007874
  66
1
  70
8
  0
VERTEX
  8
0
  10
174.910583
  20
104.401184
  30
7.405934
  70
32
  0
VERTEX
  8
0
  10
152.453522
  20
104.401184
  30
7.405934
  70
32
  0
SEQEND
  0
POLYLINE
  8
0
  6
CONTINUOUS
  62
7
  40
0.007874
  41
0.007874
  66
1
  70
8
  0
VERTEX
  8
0
  10
287.546478
  20
106.74189
  30
7.405934
  70
32
  0
VERTEX
  8
0
  10
174.969009
  20
106.74189
  30
7.405934
  70
32
  0
SEQEND
  0
POLYLINE
  8
0
  6
CONTINUOUS
  62
82
  40
0.015748
  41
0.015748
  66
1
  70
8
  0
VERTEX
  8
0
  10
163.073212
  20
109.457703
  30
7.405934
  70
32
  0
VERTEX
  8
0
  10
163.073212
  20
105.38961
  30
7.405934
  70
32
  0
SEQEND
  0
POLYLINE
  8
0
  6
CENTER
  62
82
  40
0.007874
  41
0.007874
  66
1
  70
8
  0
VERTEX
  8
0
  10
154.163147
  20
107.42366
  30
7.405934
  70
32
  0
VERTEX
  8
0
  10
172.832611
  20
107.42366
  30
7.405934
  70
32
  0
SEQEND
  0
POLYLINE
  8
0
  6
CENTER
  62
82
  40
0.007874
  41
0.007874
  66
1
  70
8
  0
VERTEX
  8
0
  10
168.733307
  20
110.267776
  30
7.405934
  70
32
  0
VERTEX
  8
0
  10
168.733307
  20
104.522308
  30
7.405934
  70
32
  0
SEQEND
  0
CIRCLE
  8
0
  6
CONTINUOUS
  62
82
  210
0.0
  220
0.654112
  230
0.756398
  10
-168.733307
  20
-76.410745
  30
75.868891
  40
2.542297
  0
CIRCLE
  8
0
  6
CONTINUOUS
  62
82
  210
0.0
  220
0.654107
  230
0.756402
  10
-168.733307
  20
-76.411162
  30
75.868472
  40
1.256134
  0
POLYLINE
  8
0
  6
CONTINUOUS
  62
82
  40
0.015748
  41
0.015748
  66
1
  70
8
  0
VERTEX
  8
0
  10
155.529617
  20
108.373802
  30
7.405934
  70
32
  0
VERTEX
  8
0
  10
155.529617
  20
106.473518
  30
7.405934
  70
32
  0
SEQEND
  0
POLYLINE
  8
0
  6
CONTINUOUS
  62
82
  40
0.015748
  41
0.015748
  66
1
  70
8
  0
VERTEX
  8
0
  10
163.073212
  20
109.457703
  30
7.405934
  70
32
  0
VERTEX
  8
0
  10
155.529617
  20
108.373802
  30
7.405934
  70
32
  0
SEQEND
  0
POLYLINE
  8
0
  6
CONTINUOUS
  62
82
  40
0.015748
  41
0.015748
  66
1
  70
8
  0
VERTEX
  8
0
  10
163.073212
  20
105.38961
  30
7.405934
  70
32
  0
VERTEX
  8
0
  10
155.529617
  20
106.473518
  30
7.405934
  70
32
  0
SEQEND
  0
TEXT
  8
0
  62
82
  10
153.276138
  20
112.383253
  30
7.405934
  1
Echelle:
  40
2.245394
  7
STANDARD
  72
5
  11
164.383759
  21
112.383253
  31
7.405934
  0
POLYLINE
  8
0
  6
CONTINUOUS
  62
7
  40
0.015748
  41
0.015748
  66
1
  70
8
  0
VERTEX
  8
0
  10
287.546478
  20
111.232651
  30
7.405934
  70
32
  0
VERTEX
  8
0
  10
235.01033
  20
111.232651
  30
7.405934
  70
32
  0
SEQEND
  0
TEXT
  8
0
  62
82
  10
237.156769
  20
108.255362
  30
7.405934
  1
Le :
  40
2.245394
  7
STANDARD
  72
5
  11
242.52298
  21
108.255362
  31
7.405934
  0
TEXT
  8
0
  62
150
  10
182.477646
  20
110.080946
  30
7.405934
  1
AIFT INDUSTRIE
  40
3.36133
  7
STANDARD
  72
5
  11
227.565277
  21
110.080946
  31
7.405934
  0
TEXT
  8
0
  62
82
  10
238.356537
  20
112.662619
  30
7.405934
  1
Dessiné par : G. Maillard
  40
2.24544
  7
STANDARD
  72
5
  11
272.718964
  21
112.662619
  31
7.405934
  0
ENDBLK
  0
BLOCK
  8
0
  70
65
  2
*G5
  10
0.0
  20
0.0
  30
0.0
  3
*G
  0
POLYLINE
  8
0
  6
CONTINUOUS
  62
7
  40
0.007874
  41
0.007874
  66
1
  70
8
  0
VERTEX
  8
0
  10
216.770126
  20
132.103638
  30
7.103367
  70
32
  0
VERTEX
  8
0
  10
217.710205
  20
130.510361
  30
7.103367
  70
32
  0
VERTEX
  8
0
  10
220.177902
  20
133.588593
  30
7.103367
  70
32
  0
VERTEX
  8
0
  10
226.053375
  20
133.588593
  30
7.103367
  70
32
  0
SEQEND
  0
TEXT
  8
0
  62
7
  10
246.309402
  20
130.685707
  30
7.033605
  1
Tolérance générale ISO 2768 f K
  40
1.885551
  7
STANDARD
  72
5
  11
284.565186
  21
130.685707
  31
7.033605
  0
TEXT
  8
0
  62
7
  10
220.170624
  20
130.829044
  30
7.033605
  1
Sauf indication
  40
1.885586
  7
STANDARD
  72
5
  11
237.665466
  21
130.829044
  31
7.033605
  0
TEXT
  8
0
  62
7
  10
211.828903
  20
133.194855
  30
7.033605
  1
Ra 3.2
  40
1.376312
  7
STANDARD
  72
5
  11
218.607147
  21
133.194855
  31
7.033605
  0
TEXT
  8
0
  62
7
  10
188.731659
  20
131.128254
  30
7.033605
  1
Usinage général
  40
1.885586
  7
STANDARD
  72
5
  11
207.337463
  21
131.128254
  31
7.033605
  0
ENDBLK
  0
BLOCK
  8
0
  70
65
  2
*G6
  10
0.0
  20
0.0
  30
0.0
  3
*G
  0
POLYLINE
  8
0
  6
CONTINUOUS
  62
7
  40
0.019685
  41
0.019685
  66
1
  70
1
  0
VERTEX
  8
0
  10
144.757721
  20
219.292206
  30
0.0
  0
VERTEX
  8
0
  10
179.757721
  20
219.292206
  30
0.0
  0
VERTEX
  8
0
  10
179.757721
  20
198.292206
  30
0.0
  0
VERTEX
  8
0
  10
144.757721
  20
198.292206
  30
0.0
  0
SEQEND
  0
POLYLINE
  8
0
  6
CONTINUOUS
  62
7
  40
0.019685
  41
0.019685
  66
1
  70
1
  0
VERTEX
  8
0
  10
214.757721
  20
219.292206
  30
0.0
  0
VERTEX
  8
0
  10
228.757721
  20
219.292206
  30
0.0
  0
VERTEX
  8
0
  10
228.757721
  20
198.292206
  30
0.0
  0
VERTEX
  8
0
  10
214.757721
  20
198.292206
  30
0.0
  0
SEQEND
  0
POLYLINE
  8
0
  6
CONTINUOUS
  62
7
  40
0.019685
  41
0.019685
  66
1
  70
1
  0
VERTEX
  8
0
  10
144.757721
  20
169.292206
  30
0.0
  0
VERTEX
  8
0
  10
179.757721
  20
169.292206
  30
0.0
  0
VERTEX
  8
0
  10
179.757721
  20
155.292206
  30
0.0
  0
VERTEX
  8
0
  10
144.757721
  20
155.292206
  30
0.0
  0
SEQEND
  0
POLYLINE
  8
0
  6
CENTER
  62
7
  40
0.007874
  41
0.007874
  66
1
  0
VERTEX
  8
0
  10
134.858627
  20
162.292206
  30
0.0
  0
VERTEX
  8
0
  10
190.021515
  20
162.292206
  30
0.0
  0
SEQEND
  0
POLYLINE
  8
0
  6
CENTER
  62
7
  40
0.007874
  41
0.007874
  66
1
  0
VERTEX
  8
0
  10
221.757721
  20
222.672134
  30
0.0
  0
VERTEX
  8
0
  10
221.757721
  20
195.3517
  30
0.0
  0
SEQEND
  0
POLYLINE
  8
0
  6
CENTER
  62
7
  40
0.007874
  41
0.007874
  66
1
  0
VERTEX
  8
0
  10
134.858627
  20
213.292206
  30
0.0
  0
VERTEX
  8
0
  10
190.021515
  20
213.292206
  30
0.0
  0
SEQEND
  0
POLYLINE
  8
0
  6
CENTER
  62
7
  40
0.007874
  41
0.007874
  66
1
  0
VERTEX
  8
0
  10
212.991562
  20
213.292206
  30
0.0
  0
VERTEX
  8
0
  10
230.741119
  20
213.292206
  30
0.0
  0
SEQEND
  0
CIRCLE
  8
0
  6
CONTINUOUS
  62
7
  10
221.757721
  20
213.292206
  40
5.0
  0
POLYLINE
  8
0
  6
CONTINUOUS
  62
7
  40
0.019685
  41
0.019685
  66
1
  0
VERTEX
  8
0
  10
137.057724
  20
218.292206
  30
0.0
  0
VERTEX
  8
0
  10
137.657715
  20
218.292206
  30
0.0
  0
SEQEND
  0
POLYLINE
  8
0
  6
CONTINUOUS
  62
7
  40
0.019685
  41
0.019685
  66
1
  0
VERTEX
  8
0
  10
138.757721
  20
218.292206
  30
0.0
  0
VERTEX
  8
0
  10
144.757721
  20
218.292206
  30
0.0
  0
SEQEND
  0
POLYLINE
  8
0
  6
CONTINUOUS
  62
7
  40
0.019685
  41
0.019685
  66
1
  0
VERTEX
  8
0
  10
179.757721
  20
218.292206
  30
0.0
  0
VERTEX
  8
0
  10
185.757721
  20
218.292206
  30
0.0
  0
SEQEND
  0
POLYLINE
  8
0
  6
CONTINUOUS
  62
7
  40
0.019685
  41
0.019685
  66
1
  0
VERTEX
  8
0
  10
186.857727
  20
218.292206
  30
0.0
  0
VERTEX
  8
0
  10
187.457718
  20
218.292206
  30
0.0
  0
SEQEND
  0
POLYLINE
  8
0
  6
CONTINUOUS
  62
7
  40
0.019685
  41
0.019685
  66
1
  0
VERTEX
  8
0
  10
137.057724
  20
208.292206
  30
0.0
  0
VERTEX
  8
0
  10
137.657715
  20
208.292206
  30
0.0
  0
SEQEND
  0
POLYLINE
  8
0
  6
CONTINUOUS
  62
7
  40
0.019685
  41
0.019685
  66
1
  0
VERTEX
  8
0
  10
138.757721
  20
208.292206
  30
0.0
  0
VERTEX
  8
0
  10
144.757721
  20
208.292206
  30
0.0
  0
SEQEND
  0
POLYLINE
  8
0
  6
CONTINUOUS
  62
7
  40
0.019685
  41
0.019685
  66
1
  0
VERTEX
  8
0
  10
179.757721
  20
208.292206
  30
0.0
  0
VERTEX
  8
0
  10
185.757721
  20
208.292206
  30
0.0
  0
SEQEND
  0
POLYLINE
  8
0
  6
CONTINUOUS
  62
7
  40
0.019685
  41
0.019685
  66
1
  0
VERTEX
  8
0
  10
186.857727
  20
208.292206
  30
0.0
  0
VERTEX
  8
0
  10
187.457718
  20
208.292206
  30
0.0
  0
SEQEND
  0
POLYLINE
  8
0
  6
CONTINUOUS
  62
7
  40
0.019685
  41
0.019685
  66
1
  0
VERTEX
  8
0
  10
137.057724
  20
167.292206
  30
0.0
  0
VERTEX
  8
0
  10
137.657715
  20
167.292206
  30
0.0
  0
SEQEND
  0
POLYLINE
  8
0
  6
CONTINUOUS
  62
7
  40
0.019685
  41
0.019685
  66
1
  0
VERTEX
  8
0
  10
138.757721
  20
167.292206
  30
0.0
  0
VERTEX
  8
0
  10
144.757721
  20
167.292206
  30
0.0
  0
SEQEND
  0
POLYLINE
  8
0
  6
CONTINUOUS
  62
7
  40
0.019685
  41
0.019685
  66
1
  0
VERTEX
  8
0
  10
179.757721
  20
167.292206
  30
0.0
  0
VERTEX
  8
0
  10
185.757721
  20
167.292206
  30
0.0
  0
SEQEND
  0
POLYLINE
  8
0
  6
CONTINUOUS
  62
7
  40
0.019685
  41
0.019685
  66
1
  0
VERTEX
  8
0
  10
186.857727
  20
167.292206
  30
0.0
  0
VERTEX
  8
0
  10
187.457718
  20
167.292206
  30
0.0
  0
SEQEND
  0
POLYLINE
  8
0
  6
CONTINUOUS
  62
7
  40
0.019685
  41
0.019685
  66
1
  0
VERTEX
  8
0
  10
137.057724
  20
157.292206
  30
0.0
  0
VERTEX
  8
0
  10
137.657715
  20
157.292206
  30
0.0
  0
SEQEND
  0
POLYLINE
  8
0
  6
CONTINUOUS
  62
7
  40
0.019685
  41
0.019685
  66
1
  0
VERTEX
  8
0
  10
138.757721
  20
157.292206
  30
0.0
  0
VERTEX
  8
0
  10
144.757721
  20
157.292206
  30
0.0
  0
SEQEND
  0
POLYLINE
  8
0
  6
CONTINUOUS
  62
7
  40
0.019685
  41
0.019685
  66
1
  0
VERTEX
  8
0
  10
179.757721
  20
157.292206
  30
0.0
  0
VERTEX
  8
0
  10
185.757721
  20
157.292206
  30
0.0
  0
SEQEND
  0
POLYLINE
  8
0
  6
CONTINUOUS
  62
7
  40
0.019685
  41
0.019685
  66
1
  0
VERTEX
  8
0
  10
186.857727
  20
157.292206
  30
0.0
  0
VERTEX
  8
0
  10
187.457718
  20
157.292206
  30
0.0
  0
SEQEND
  0
POLYLINE
  8
0
  6
CONTINUOUS
  62
7
  40
0.019685
  41
0.019685
  66
1
  0
VERTEX
  8
0
  10
185.757721
  20
218.292206
  30
0.0
  0
VERTEX
  8
0
  10
185.757721
  20
208.292206
  30
0.0
  0
SEQEND
  0
POLYLINE
  8
0
  6
CONTINUOUS
  62
7
  40
0.019685
  41
0.019685
  66
1
  0
VERTEX
  8
0
  10
185.757721
  20
167.292206
  30
0.0
  0
VERTEX
  8
0
  10
185.757721
  20
157.292206
  30
0.0
  0
SEQEND
  0
POLYLINE
  8
0
  6
CONTINUOUS
  62
7
  40
0.019685
  41
0.019685
  66
1
  0
VERTEX
  8
0
  10
138.757721
  20
157.292206
  30
0.0
  0
VERTEX
  8
0
  10
138.757721
  20
167.292206
  30
0.0
  0
SEQEND
  0
POLYLINE
  8
0
  6
CONTINUOUS
  62
7
  40
0.019685
  41
0.019685
  66
1
  0
VERTEX
  8
0
  10
138.757721
  20
208.292206
  30
0.0
  0
VERTEX
  8
0
  10
138.757721
  20
218.292206
  30
0.0
  0
SEQEND
  0
POLYLINE
  8
0
  6
CONTINUOUS
  62
7
  40
0.019685
  41
0.019685
  66
1
  0
VERTEX
  8
0
  10
137.657715
  20
157.292206
  30
0.0
  0
VERTEX
  8
0
  10
137.657715
  20
167.292206
  30
0.0
  0
SEQEND
  0
POLYLINE
  8
0
  6
CONTINUOUS
  62
7
  40
0.019685
  41
0.019685
  66
1
  0
VERTEX
  8
0
  10
137.657715
  20
208.292206
  30
0.0
  0
VERTEX
  8
0
  10
137.657715
  20
218.292206
  30
0.0
  0
SEQEND
  0
POLYLINE
  8
0
  6
CONTINUOUS
  62
7
  40
0.019685
  41
0.019685
  66
1
  0
VERTEX
  8
0
  10
186.857727
  20
218.292206
  30
0.0
  0
VERTEX
  8
0
  10
186.857727
  20
208.292206
  30
0.0
  0
SEQEND
  0
POLYLINE
  8
0
  6
CONTINUOUS
  62
7
  40
0.019685
  41
0.019685
  66
1
  0
VERTEX
  8
0
  10
186.857727
  20
167.292206
  30
0.0
  0
VERTEX
  8
0
  10
186.857727
  20
157.292206
  30
0.0
  0
SEQEND
  0
POLYLINE
  8
0
  6
CONTINUOUS
  62
7
  40
0.019685
  41
0.019685
  66
1
  0
VERTEX
  8
0
  10
136.757721
  20
166.992203
  30
0.0
  0
VERTEX
  8
0
  10
137.057724
  20
167.292206
  30
0.0
  0
SEQEND
  0
POLYLINE
  8
0
  6
CONTINUOUS
  62
7
  40
0.019685
  41
0.019685
  66
1
  0
VERTEX
  8
0
  10
136.757721
  20
157.592209
  30
0.0
  0
VERTEX
  8
0
  10
137.057724
  20
157.292206
  30
0.0
  0
SEQEND
  0
POLYLINE
  8
0
  6
CONTINUOUS
  62
7
  40
0.019685
  41
0.019685
  66
1
  0
VERTEX
  8
0
  10
136.757721
  20
157.592209
  30
0.0
  0
VERTEX
  8
0
  10
136.757721
  20
166.992203
  30
0.0
  0
SEQEND
  0
POLYLINE
  8
0
  6
CONTINUOUS
  62
7
  40
0.019685
  41
0.019685
  66
1
  0
VERTEX
  8
0
  10
136.757721
  20
217.992203
  30
0.0
  0
VERTEX
  8
0
  10
137.057724
  20
218.292206
  30
0.0
  0
SEQEND
  0
POLYLINE
  8
0
  6
CONTINUOUS
  62
7
  40
0.019685
  41
0.019685
  66
1
  0
VERTEX
  8
0
  10
136.757721
  20
208.592209
  30
0.0
  0
VERTEX
  8
0
  10
137.057724
  20
208.292206
  30
0.0
  0
SEQEND
  0
POLYLINE
  8
0
  6
CONTINUOUS
  62
7
  40
0.019685
  41
0.019685
  66
1
  0
VERTEX
  8
0
  10
136.757721
  20
208.592209
  30
0.0
  0
VERTEX
  8
0
  10
136.757721
  20
217.992203
  30
0.0
  0
SEQEND
  0
POLYLINE
  8
0
  6
CONTINUOUS
  62
7
  40
0.019685
  41
0.019685
  66
1
  0
VERTEX
  8
0
  10
187.757721
  20
217.992203
  30
0.0
  0
VERTEX
  8
0
  10
187.457718
  20
218.292206
  30
0.0
  0
SEQEND
  0
POLYLINE
  8
0
  6
CONTINUOUS
  62
7
  40
0.019685
  41
0.019685
  66
1
  0
VERTEX
  8
0
  10
187.757721
  20
208.592209
  30
0.0
  0
VERTEX
  8
0
  10
187.457718
  20
208.292206
  30
0.0
  0
SEQEND
  0
POLYLINE
  8
0
  6
CONTINUOUS
  62
7
  40
0.019685
  41
0.019685
  66
1
  0
VERTEX
  8
0
  10
187.757721
  20
217.992203
  30
0.0
  0
VERTEX
  8
0
  10
187.757721
  20
208.592209
  30
0.0
  0
SEQEND
  0
POLYLINE
  8
0
  6
CONTINUOUS
  62
7
  40
0.019685
  41
0.019685
  66
1
  0
VERTEX
  8
0
  10
187.757721
  20
166.992203
  30
0.0
  0
VERTEX
  8
0
  10
187.457718
  20
167.292206
  30
0.0
  0
SEQEND
  0
POLYLINE
  8
0
  6
CONTINUOUS
  62
7
  40
0.019685
  41
0.019685
  66
1
  0
VERTEX
  8
0
  10
187.757721
  20
157.592209
  30
0.0
  0
VERTEX
  8
0
  10
187.457718
  20
157.292206
  30
0.0
  0
SEQEND
  0
POLYLINE
  8
0
  6
CONTINUOUS
  62
7
  40
0.019685
  41
0.019685
  66
1
  0
VERTEX
  8
0
  10
187.757721
  20
166.992203
  30
0.0
  0
VERTEX
  8
0
  10
187.757721
  20
157.592209
  30
0.0
  0
SEQEND
  0
POLYLINE
  8
0
  6
CONTINUOUS
  62
7
  40
0.019685
  41
0.019685
  66
1
  0
VERTEX
  8
0
  10
137.657715
  20
217.592209
  30
0.0
  0
VERTEX
  8
0
  10
138.757721
  20
217.592209
  30
0.0
  0
SEQEND
  0
POLYLINE
  8
0
  6
CONTINUOUS
  62
7
  40
0.019685
  41
0.019685
  66
1
  0
VERTEX
  8
0
  10
185.757721
  20
217.592209
  30
0.0
  0
VERTEX
  8
0
  10
186.857727
  20
217.592209
  30
0.0
  0
SEQEND
  0
POLYLINE
  8
0
  6
CONTINUOUS
  62
7
  40
0.019685
  41
0.019685
  66
1
  0
VERTEX
  8
0
  10
137.657715
  20
208.992203
  30
0.0
  0
VERTEX
  8
0
  10
138.757721
  20
208.992203
  30
0.0
  0
SEQEND
  0
POLYLINE
  8
0
  6
CONTINUOUS
  62
7
  40
0.019685
  41
0.019685
  66
1
  0
VERTEX
  8
0
  10
185.757721
  20
208.992203
  30
0.0
  0
VERTEX
  8
0
  10
186.857727
  20
208.992203
  30
0.0
  0
SEQEND
  0
POLYLINE
  8
0
  6
CONTINUOUS
  62
7
  40
0.019685
  41
0.019685
  66
1
  0
VERTEX
  8
0
  10
137.657715
  20
166.592209
  30
0.0
  0
VERTEX
  8
0
  10
138.757721
  20
166.592209
  30
0.0
  0
SEQEND
  0
POLYLINE
  8
0
  6
CONTINUOUS
  62
7
  40
0.019685
  41
0.019685
  66
1
  0
VERTEX
  8
0
  10
185.757721
  20
166.592209
  30
0.0
  0
VERTEX
  8
0
  10
186.857727
  20
166.592209
  30
0.0
  0
SEQEND
  0
POLYLINE
  8
0
  6
CONTINUOUS
  62
7
  40
0.019685
  41
0.019685
  66
1
  0
VERTEX
  8
0
  10
137.657715
  20
157.992203
  30
0.0
  0
VERTEX
  8
0
  10
138.757721
  20
157.992203
  30
0.0
  0
SEQEND
  0
POLYLINE
  8
0
  6
CONTINUOUS
  62
7
  40
0.019685
  41
0.019685
  66
1
  0
VERTEX
  8
0
  10
138.202942
  20
157.992203
  30
0.0
  0
VERTEX
  8
0
  10
138.757721
  20
157.992203
  30
0.0
  0
SEQEND
  0
POLYLINE
  8
0
  6
CONTINUOUS
  62
7
  40
0.019685
  41
0.019685
  66
1
  0
VERTEX
  8
0
  10
185.757721
  20
157.992203
  30
0.0
  0
VERTEX
  8
0
  10
186.452988
  20
157.992203
  30
0.0
  0
SEQEND
  0
POLYLINE
  8
0
  6
CONTINUOUS
  62
7
  40
0.019685
  41
0.019685
  66
1
  0
VERTEX
  8
0
  10
186.452988
  20
157.992203
  30
0.0
  0
VERTEX
  8
0
  10
186.857727
  20
157.992203
  30
0.0
  0
SEQEND
  0
POLYLINE
  8
0
  6
CONTINUOUS
  62
7
  40
0.019685
  41
0.019685
  66
1
  0
VERTEX
  8
0
  10
187.457718
  20
167.292206
  30
0.0
  0
VERTEX
  8
0
  10
187.457718
  20
157.292206
  30
0.0
  0
SEQEND
  0
POLYLINE
  8
0
  6
CONTINUOUS
  62
7
  40
0.019685
  41
0.019685
  66
1
  0
VERTEX
  8
0
  10
137.057724
  20
167.292206
  30
0.0
  0
VERTEX
  8
0
  10
137.057724
  20
157.292206
  30
0.0
  0
SEQEND
  0
POLYLINE
  8
0
  6
CONTINUOUS
  62
7
  40
0.019685
  41
0.019685
  66
1
  0
VERTEX
  8
0
  10
137.057724
  20
218.292206
  30
0.0
  0
VERTEX
  8
0
  10
137.057724
  20
208.292206
  30
0.0
  0
SEQEND
  0
POLYLINE
  8
0
  6
CONTINUOUS
  62
7
  40
0.019685
  41
0.019685
  66
1
  0
VERTEX
  8
0
  10
187.457718
  20
218.292206
  30
0.0
  0
VERTEX
  8
0
  10
187.457718
  20
208.292206
  30
0.0
  0
SEQEND
  0
CIRCLE
  8
0
  6
CONTINUOUS
  62
7
  10
221.757721
  20
213.292206
  40
4.699997
  0
POLYLINE
  8
0
  6
CENTER
  62
7
  40
0.007874
  41
0.007874
  66
1
  0
VERTEX
  8
0
  10
162.257721
  20
221.279999
  30
0.0
  0
VERTEX
  8
0
  10
162.257721
  20
195.927353
  30
0.0
  0
SEQEND
  0
POLYLINE
  8
0
  6
CENTER
  62
7
  40
0.007874
  41
0.007874
  66
1
  0
VERTEX
  8
0
  10
162.257721
  20
171.816177
  30
0.0
  0
VERTEX
  8
0
  10
162.257721
  20
152.133591
  30
0.0
  0
SEQEND
  0
CIRCLE
  8
0
  6
CONTINUOUS
  62
7
  10
162.257721
  20
162.292206
  40
3.25
  0
CIRCLE
  8
0
  6
CONTINUOUS
  62
7
  10
162.257721
  20
162.292206
  40
5.5
  0
CIRCLE
  8
0
  6
CONTINUOUS
  62
7
  10
162.257721
  20
162.292206
  40
6.199997
  0
POLYLINE
  8
0
  6
CONTINUOUS
  62
7
  40
0.019685
  41
0.019685
  66
1
  0
VERTEX
  8
0
  10
165.507721
  20
212.292206
  30
0.0
  0
VERTEX
  8
0
  10
165.507721
  20
198.292206
  30
0.0
  0
SEQEND
  0
POLYLINE
  8
0
  6
CONTINUOUS
  62
7
  40
0.019685
  41
0.019685
  66
1
  0
VERTEX
  8
0
  10
159.007721
  20
212.292206
  30
0.0
  0
VERTEX
  8
0
  10
159.007721
  20
198.292206
  30
0.0
  0
SEQEND
  0
POLYLINE
  8
0
  6
CONTINUOUS
  62
7
  40
0.019685
  41
0.019685
  66
1
  0
VERTEX
  8
0
  10
167.757721
  20
218.492203
  30
0.0
  0
VERTEX
  8
0
  10
167.757721
  20
212.292206
  30
0.0
  0
SEQEND
  0
POLYLINE
  8
0
  6
CONTINUOUS
  62
7
  40
0.019685
  41
0.019685
  66
1
  0
VERTEX
  8
0
  10
156.757721
  20
218.492203
  30
0.0
  0
VERTEX
  8
0
  10
156.757721
  20
212.292206
  30
0.0
  0
SEQEND
  0
POLYLINE
  8
0
  6
CONTINUOUS
  62
7
  40
0.019685
  41
0.019685
  66
1
  0
VERTEX
  8
0
  10
156.757721
  20
212.292206
  30
0.0
  0
VERTEX
  8
0
  10
167.757721
  20
212.292206
  30
0.0
  0
SEQEND
  0
POLYLINE
  8
0
  6
CONTINUOUS
  62
7
  40
0.019685
  41
0.019685
  66
1
  0
VERTEX
  8
0
  10
156.757721
  20
218.492203
  30
0.0
  0
VERTEX
  8
0
  10
167.757721
  20
218.492203
  30
0.0
  0
SEQEND
  0
POLYLINE
  8
0
  6
CONTINUOUS
  62
7
  40
0.019685
  41
0.019685
  66
1
  0
VERTEX
  8
0
  10
167.757721
  20
218.492203
  30
0.0
  0
VERTEX
  8
0
  10
168.557724
  20
219.292206
  30
0.0
  0
SEQEND
  0
POLYLINE
  8
0
  6
CONTINUOUS
  62
7
  40
0.019685
  41
0.019685
  66
1
  0
VERTEX
  8
0
  10
156.757721
  20
218.492203
  30
0.0
  0
VERTEX
  8
0
  10
155.957718
  20
219.292206
  30
0.0
  0
SEQEND
  0
POLYLINE
  8
0
  6
CONTINUOUS
  62
7
  40
0.003937
  41
0.003937
  66
1
  70
1
  1001
ACAD
  1000
TCW25BRUSH
  1002
{
  1000
L45
  1071
-5
  1070
0
  1070
0
  1040
5.0
  1040
0.0
  1002
}
  0
VERTEX
  8
0
  10
171.494049
  20
219.292206
  30
0.0
  0
VERTEX
  8
0
  10
168.557724
  20
219.292206
  30
0.0
  0
VERTEX
  8
0
  10
167.757721
  20
218.492203
  30
0.0
  0
VERTEX
  8
0
  10
167.757721
  20
212.292206
  30
0.0
  0
VERTEX
  8
0
  10
165.507721
  20
212.292206
  30
0.0
  0
VERTEX
  8
0
  10
165.507721
  20
198.292206
  30
0.0
  0
VERTEX
  8
0
  10
170.686249
  20
198.292206
  30
0.0
  0
VERTEX
  8
0
  10
170.064865
  20
202.242935
  30
0.0
  0
VERTEX
  8
0
  10
170.872665
  20
204.728455
  30
0.0
  0
VERTEX
  8
0
  10
170.313416
  20
209.015991
  30
0.0
  0
VERTEX
  8
0
  10
171.121216
  20
211.998627
  30
0.0
  0
VERTEX
  8
0
  10
171.059082
  20
215.602631
  30
0.0
  0
SEQEND
  0
INSERT
  8
0
  6
CONTINUOUS
  62
7
  2
*H7
  10
0.0
  20
0.0
  1001
ACAD
  1000
TCW25BRUSH
  1002
{
  1002
}
  0
POLYLINE
  8
0
  6
CONTINUOUS
  62
7
  40
0.003937
  41
0.003937
  66
1
  70
1
  1001
ACAD
  1000
TCW25BRUSH
  1002
{
  1000
L45
  1071
-5
  1070
0
  1070
0
  1040
5.0
  1040
0.0
  1002
}
  0
VERTEX
  8
0
  10
153.473984
  20
219.292206
  30
0.0
  0
VERTEX
  8
0
  10
155.957718
  20
219.292206
  30
0.0
  0
VERTEX
  8
0
  10
156.757721
  20
218.492203
  30
0.0
  0
VERTEX
  8
0
  10
156.757721
  20
212.292206
  30
0.0
  0
VERTEX
  8
0
  10
159.007721
  20
212.292206
  30
0.0
  0
VERTEX
  8
0
  10
159.007721
  20
198.292206
  30
0.0
  0
VERTEX
  8
0
  10
155.58667
  20
198.292206
  30
0.0
  0
VERTEX
  8
0
  10
153.722534
  20
204.977005
  30
0.0
  0
VERTEX
  8
0
  10
153.163284
  20
208.332474
  30
0.0
  0
VERTEX
  8
0
  10
154.033218
  20
210.880127
  30
0.0
  0
VERTEX
  8
0
  10
153.225418
  20
214.670563
  30
0.0
  0
SEQEND
  0
INSERT
  8
0
  6
CONTINUOUS
  62
7
  2
*H8
  10
0.0
  20
0.0
  1001
ACAD
  1000
TCW25BRUSH
  1002
{
  1002
}
  0
INSERT
  8
0
  6
CONTINUOUS
  62
7
  2
*G9
  10
0.0
  20
0.0
  1001
ACAD
  1000
ACAD_TCW25GROUP
  1002
{
  1000
Groupe_2
  1002
}
  1000
TCW25BRUSH
  1002
{
  1000
L45
  1071
-5
  1070
0
  1070
0
  1040
5.0
  1040
0.0
  1002
}
  0
POLYLINE
  8
0
  6
$AUXILIARY
  62
7
  40
0.007874
  41
0.007874
  66
1
  1001
ACAD
  1000
TCW25BRUSH
  1002
{
  1000
L45
  1071
-5
  1070
0
  1070
0
  1040
5.0
  1040
0.0
  1002
}
  0
VERTEX
  8
0
  10
227.257721
  20
218.49614
  30
0.0
  0
VERTEX
  8
0
  10
228.053787
  20
219.292206
  30
0.0
  0
SEQEND
  0
POLYLINE
  8
0
  6
$AUXILIARY
  62
7
  40
0.007874
  41
0.007874
  66
1
  1001
ACAD
  1000
TCW25BRUSH
  1002
{
  1000
L45
  1071
-5
  1070
0
  1070
0
  1040
5.0
  1040
0.0
  1002
}
  0
VERTEX
  8
0
  10
216.257721
  20
218.49614
  30
0.0
  0
VERTEX
  8
0
  10
215.461655
  20
219.292206
  30
0.0
  0
SEQEND
  0
CIRCLE
  8
0
  6
CENTER
  62
7
  10
221.757721
  20
213.292206
  40
17.5
  0
DIMENSION
  8
0
  1
<>
  2
*D10
  10
228.757721
  20
186.15062
  11
221.757721
  21
189.62042
  13
214.757721
  23
198.292206
  14
228.757721
  24
198.292206
  70
0
  0
DIMENSION
  8
0
  1
<>
  2
*D11
  10
221.757721
  20
225.304092
  11
225.257721
  21
227.488992
  13
228.757721
  23
219.292206
  14
221.757721
  24
222.672134
  50
180.0
  70
0
  0
DIMENSION
  8
0
  1
<>
  2
*D12
  10
211.947449
  20
213.292206
  11
209.762549
  21
205.792206
  13
214.757721
  23
198.292206
  14
212.991562
  24
213.292206
  50
-90.0
  70
0
  0
DIMENSION
  8
0
  1
<>
  2
*D13
  10
243.444229
  20
198.292206
  11
241.259329
  21
208.792206
  13
228.757721
  23
219.292206
  14
228.757721
  24
198.292206
  50
90.0
  70
0
  0
DIMENSION
  8
0
  1
<>
  2
*D14
  10
187.757721
  20
177.971893
  11
162.257721
  21
180.156793
  13
136.757721
  23
166.992203
  14
187.757721
  24
166.992203
  50
180.0
  70
0
  0
DIMENSION
  8
0
  1
<>
  2
*D15
  10
179.757721
  20
190.326996
  11
162.257721
  21
192.511896
  13
144.757721
  23
198.292206
  14
179.757721
  24
198.292206
  70
0
  0
DIMENSION
  8
0
  1
<>
  2
*D16
  10
187.757721
  20
190.326996
  11
183.757721
  21
192.511896
  13
179.757721
  23
198.292206
  14
187.757721
  24
208.592209
  70
0
  0
DIMENSION
  8
0
  1
<>
  2
*D17
  10
136.757721
  20
190.326996
  11
140.757721
  21
192.511896
  13
144.757721
  23
198.292206
  14
136.757721
  24
208.592209
  70
0
  0
DIMENSION
  8
0
  1
<>
  2
*D18
  10
137.657715
  20
149.476868
  11
138.207718
  21
151.661768
  13
138.757721
  23
157.292206
  14
137.657715
  24
157.292206
  70
0
  0
DIMENSION
  8
0
  1
<>
  2
*D19
  10
123.025574
  20
208.292206
  11
120.840674
  21
213.292206
  13
138.757721
  23
218.292206
  14
138.757721
  24
208.292206
  50
-90.0
  70
0
  0
DIMENSION
  8
0
  1
<>
  2
*D20
  10
123.025574
  20
157.992203
  11
120.840674
  21
162.292206
  13
137.657715
  23
166.592209
  14
138.202942
  24
157.992203
  50
-90.0
  70
0
  0
DIMENSION
  8
0
  1
<>
  2
*D21
  10
165.507721
  20
226.15242
  11
162.257721
  21
228.33732
  13
159.007721
  23
212.292206
  14
165.507721
  24
212.292206
  50
180.0
  70
0
  0
DIMENSION
  8
0
  1
<>
  2
*D22
  10
167.757721
  20
232.416977
  11
162.257721
  21
234.601877
  13
156.757721
  23
218.492203
  14
167.757721
  24
218.492203
  50
180.0
  70
0
  0
DIMENSION
  8
0
  1
<>
  2
*D23
  10
192.979782
  20
212.292206
  11
190.794882
  21
215.792206
  13
168.557724
  23
219.292206
  14
167.757721
  24
212.292206
  50
90.0
  70
0
  0
DIMENSION
  8
0
  1
<>
  2
*D24
  10
162.257721
  20
148.606796
  11
171.007721
  21
150.791696
  13
179.757721
  23
155.292206
  14
162.257721
  24
152.133591
  70
0
  0
INSERT
  8
0
  6
CONTINUOUS
  62
7
  2
*A25
  10
0.0
  20
0.0
  1001
ACAD
  1000
TCW25DIMLEAD
  1002
{
  1070
10
  1000
0.3 x 45°
  1000
Cote
  1070
0
  1071
0
  1040
1.0
  1040
0.0
  1000
CONTINUOUS
  1000
0
  1071
4
  1071
130
  1010
195.583707
  1020
200.275793
  1071
2
  1010
195.583707
  1020
200.275793
  1071
194
  1010
187.457718
  1020
208.292206
  1071
130
  1010
192.283707
  1020
199.375793
  1002
}
  0
INSERT
  8
0
  6
CONTINUOUS
  62
7
  2
*A26
  10
0.0
  20
0.0
  1001
ACAD
  1000
TCW25DIMLEAD
  1002
{
  1070
10
  1000
0.5 x 45°
  1000
Cote
  1070
0
  1071
0
  1040
1.0
  1040
0.0
  1000
CONTINUOUS
  1000
0
  1071
4
  1071
130
  1010
172.091626
  1020
223.245825
  1071
2
  1010
172.091626
  1020
223.245825
  1071
194
  1010
167.757721
  1020
219.292206
  1071
130
  1010
168.791626
  1020
222.345825
  1002
}
  0
DIMENSION
  8
0
  1
<>
  2
*D27
  10
138.757721
  20
226.15242
  11
141.757721
  21
228.33732
  13
144.757721
  23
219.292206
  14
138.757721
  24
218.292206
  50
180.0
  70
0
  0
DIMENSION
  8
0
  1
<>
  2
*D28
  10
185.757721
  20
226.15242
  11
182.757721
  21
228.33732
  13
179.757721
  23
219.292206
  14
185.757721
  24
218.292206
  50
180.0
  70
0
  0
ENDBLK
  0
BLOCK
  8
0
  70
65
  2
*H7
  10
0.0
  20
0.0
  30
0.0
  3
*H
  0
LINE
  8
0
  6
CONTINUOUS
  62
7
  10
170.007927
  20
198.292206
  11
170.59406
  21
198.878339
  0
LINE
  8
0
  6
CONTINUOUS
  62
7
  10
166.472393
  20
198.292206
  11
170.113555
  21
201.933368
  0
LINE
  8
0
  6
CONTINUOUS
  62
7
  10
165.507721
  20
200.863068
  11
170.699638
  21
206.054985
  0
LINE
  8
0
  6
CONTINUOUS
  62
7
  10
165.507721
  20
204.398602
  11
170.383358
  21
209.274239
  0
LINE
  8
0
  6
CONTINUOUS
  62
7
  10
165.507721
  20
207.934136
  11
171.094963
  21
213.521379
  0
LINE
  8
0
  6
CONTINUOUS
  62
7
  10
165.507721
  20
211.46967
  11
166.330257
  21
212.292206
  0
LINE
  8
0
  6
CONTINUOUS
  62
7
  10
167.757721
  20
213.71967
  11
171.248646
  21
217.210596
  0
LINE
  8
0
  6
CONTINUOUS
  62
7
  10
167.757721
  20
217.255204
  11
169.794723
  21
219.292206
  0
ENDBLK
  0
BLOCK
  8
0
  70
65
  2
*H8
  10
0.0
  20
0.0
  30
0.0
  3
*H
  0
LINE
  8
0
  6
CONTINUOUS
  62
7
  10
155.865791
  20
198.292206
  11
159.007721
  21
201.434136
  0
LINE
  8
0
  6
CONTINUOUS
  62
7
  10
154.876594
  20
200.838542
  11
159.007721
  21
204.96967
  0
LINE
  8
0
  6
CONTINUOUS
  62
7
  10
154.105654
  20
203.603136
  11
159.007721
  21
208.505204
  0
LINE
  8
0
  6
CONTINUOUS
  62
7
  10
153.468454
  20
206.501471
  11
159.007721
  21
212.040738
  0
LINE
  8
0
  6
CONTINUOUS
  62
7
  10
153.888884
  20
210.457434
  11
156.757721
  21
213.326272
  0
LINE
  8
0
  6
CONTINUOUS
  62
7
  10
153.46101
  20
213.565095
  11
156.757721
  21
216.861806
  0
LINE
  8
0
  6
CONTINUOUS
  62
7
  10
153.350152
  20
216.98977
  11
155.652587
  21
219.292206
  0
ENDBLK
  0
BLOCK
  8
0
  70
65
  2
*G9
  10
0.0
  20
0.0
  30
0.0
  3
*G
  0
POLYLINE
  8
0
  6
$AUXILIARY
  62
7
  40
0.007874
  41
0.007874
  66
1
  70
8
  0
VERTEX
  8
0
  10
225.007721
  20
212.296143
  30
0.058713
  70
32
  0
VERTEX
  8
0
  10
225.007721
  20
198.296143
  30
0.058713
  70
32
  0
SEQEND
  0
POLYLINE
  8
0
  6
$AUXILIARY
  62
7
  40
0.007874
  41
0.007874
  66
1
  70
8
  0
VERTEX
  8
0
  10
218.507721
  20
212.296143
  30
0.058713
  70
32
  0
VERTEX
  8
0
  10
218.507721
  20
198.296143
  30
0.058713
  70
32
  0
SEQEND
  0
POLYLINE
  8
0
  6
$AUXILIARY
  62
7
  40
0.007874
  41
0.007874
  66
1
  70
8
  0
VERTEX
  8
0
  10
227.257721
  20
218.49614
  30
0.058713
  70
32
  0
VERTEX
  8
0
  10
227.257721
  20
212.296143
  30
0.058713
  70
32
  0
SEQEND
  0
POLYLINE
  8
0
  6
$AUXILIARY
  62
7
  40
0.007874
  41
0.007874
  66
1
  70
8
  0
VERTEX
  8
0
  10
216.257721
  20
218.49614
  30
0.058713
  70
32
  0
VERTEX
  8
0
  10
216.257721
  20
212.296143
  30
0.058713
  70
32
  0
SEQEND
  0
POLYLINE
  8
0
  6
$AUXILIARY
  62
7
  40
0.007874
  41
0.007874
  66
1
  70
8
  0
VERTEX
  8
0
  10
216.257721
  20
212.296143
  30
0.058713
  70
32
  0
VERTEX
  8
0
  10
227.257721
  20
212.296143
  30
0.058713
  70
32
  0
SEQEND
  0
POLYLINE
  8
0
  6
$AUXILIARY
  62
7
  40
0.007874
  41
0.007874
  66
1
  70
8
  0
VERTEX
  8
0
  10
216.257721
  20
218.49614
  30
0.058713
  70
32
  0
VERTEX
  8
0
  10
227.257721
  20
218.49614
  30
0.058713
  70
32
  0
SEQEND
  0
ENDBLK
  0
BLOCK
  8
0
  70
65
  2
*D10
  10
0.0
  20
0.0
  30
0.0
  3
*D
  0
LINE
  8
0
  6
CONTINUOUS
  62
1
  10
214.757721
  20
198.292206
  11
214.757721
  21
184.350619
  0
LINE
  8
0
  6
CONTINUOUS
  62
1
  10
228.757721
  20
198.292206
  11
228.757721
  21
184.350619
  0
POLYLINE
  8
0
  6
CONTINUOUS
  62
1
  66
1
  0
VERTEX
  8
0
  10
217.157721
  20
186.15062
  30
0.0
  0
VERTEX
  8
0
  10
217.157721
  20
186.15062
  30
0.0
  0
VERTEX
  8
0
  10
217.157721
  20
186.15062
  30
0.0
  0
VERTEX
  8
0
  10
221.757721
  20
186.15062
  30
0.0
  0
SEQEND
  0
POLYLINE
  8
0
  6
CONTINUOUS
  62
1
  66
1
  0
VERTEX
  8
0
  10
226.357721
  20
186.15062
  30
0.0
  0
VERTEX
  8
0
  10
226.357721
  20
186.15062
  30
0.0
  0
VERTEX
  8
0
  10
226.357721
  20
186.15062
  30
0.0
  0
VERTEX
  8
0
  10
221.757721
  20
186.15062
  30
0.0
  0
SEQEND
  0
SOLID
  8
0
  6
CONTINUOUS
  62
1
  10
214.757721
  20
186.15062
  11
217.157721
  21
185.838619
  12
214.757721
  22
186.15062
  13
217.157721
  23
186.46262
  0
SOLID
  8
0
  6
CONTINUOUS
  62
1
  10
228.757721
  20
186.15062
  11
226.357721
  21
186.46262
  12
228.757721
  22
186.15062
  13
226.357721
  23
185.838619
  0
TEXT
  8
0
  62
7
  10
218.176705
  20
188.97797
  1
14
  40
1.92735
  7
STANDARD
  72
5
  11
220.499804
  21
188.97797
  31
0.0
  0
TEXT
  8
0
  62
7
  10
220.499804
  20
190.26287
  1
+0
  40
1.92735
  7
STANDARD
  72
5
  11
222.969382
  21
190.26287
  31
0.0
  0
TEXT
  8
0
  62
7
  10
220.499804
  20
187.69307
  1
-0,15
  40
1.92735
  7
STANDARD
  72
5
  11
225.338737
  21
187.69307
  31
0.0
  0
ENDBLK
  0
BLOCK
  8
0
  70
65
  2
*D11
  10
0.0
  20
0.0
  30
0.0
  3
*D
  0
LINE
  8
0
  6
CONTINUOUS
  62
1
  10
228.757721
  20
219.292206
  11
228.757721
  21
227.104092
  0
LINE
  8
0
  6
CONTINUOUS
  62
1
  10
221.757721
  20
222.672134
  11
221.757721
  21
227.104092
  0
LINE
  8
0
  6
CONTINUOUS
  62
1
  10
233.557721
  20
225.304092
  11
231.157721
  21
225.304092
  0
LINE
  8
0
  6
CONTINUOUS
  62
1
  10
228.757721
  20
225.304092
  11
225.257721
  21
225.304092
  0
LINE
  8
0
  6
CONTINUOUS
  62
1
  10
216.957721
  20
225.304092
  11
219.357721
  21
225.304092
  0
LINE
  8
0
  6
CONTINUOUS
  62
1
  10
221.757721
  20
225.304092
  11
225.257721
  21
225.304092
  0
SOLID
  8
0
  6
CONTINUOUS
  62
1
  10
221.757721
  20
225.304092
  11
219.357721
  21
225.616092
  12
221.757721
  22
225.304092
  13
219.357721
  23
224.992092
  0
SOLID
  8
0
  6
CONTINUOUS
  62
1
  10
228.757721
  20
225.304092
  11
231.157721
  21
224.992092
  12
228.757721
  22
225.304092
  13
231.157721
  23
225.616092
  0
TEXT
  8
0
  62
7
  10
224.676946
  20
226.846542
  1
7
  40
1.92735
  7
STANDARD
  72
5
  11
225.838496
  21
226.846542
  31
0.0
  0
ENDBLK
  0
BLOCK
  8
0
  70
65
  2
*D12
  10
0.0
  20
0.0
  30
0.0
  3
*D
  0
LINE
  8
0
  6
CONTINUOUS
  62
1
  10
214.757721
  20
198.292206
  11
210.147449
  21
198.292206
  0
LINE
  8
0
  6
CONTINUOUS
  62
1
  10
212.991562
  20
213.292206
  11
210.147449
  21
213.292206
  0
POLYLINE
  8
0
  6
CONTINUOUS
  62
1
  66
1
  0
VERTEX
  8
0
  10
211.947449
  20
200.692206
  30
0.0
  0
VERTEX
  8
0
  10
211.947449
  20
200.692206
  30
0.0
  0
VERTEX
  8
0
  10
211.947449
  20
200.692206
  30
0.0
  0
VERTEX
  8
0
  10
211.947449
  20
205.792206
  30
0.0
  0
SEQEND
  0
POLYLINE
  8
0
  6
CONTINUOUS
  62
1
  66
1
  0
VERTEX
  8
0
  10
211.947449
  20
210.892206
  30
0.0
  0
VERTEX
  8
0
  10
211.947449
  20
210.892206
  30
0.0
  0
VERTEX
  8
0
  10
211.947449
  20
210.892206
  30
0.0
  0
VERTEX
  8
0
  10
211.947449
  20
205.792206
  30
0.0
  0
SEQEND
  0
SOLID
  8
0
  6
CONTINUOUS
  62
1
  10
211.947449
  20
198.292206
  11
212.259449
  21
200.692206
  12
211.947449
  22
198.292206
  13
211.635449
  23
200.692206
  0
SOLID
  8
0
  6
CONTINUOUS
  62
1
  10
211.947449
  20
213.292206
  11
211.635449
  21
210.892206
  12
211.947449
  22
213.292206
  13
212.259449
  23
210.892206
  0
TEXT
  8
0
  62
7
  10
210.404999
  20
204.630656
  1
15
  40
1.92735
  50
90.0
  7
STANDARD
  72
5
  11
210.404999
  21
206.953755
  31
0.0
  0
ENDBLK
  0
BLOCK
  8
0
  70
65
  2
*D13
  10
0.0
  20
0.0
  30
0.0
  3
*D
  0
LINE
  8
0
  6
CONTINUOUS
  62
1
  10
228.757721
  20
219.292206
  11
245.244229
  21
219.292206
  0
LINE
  8
0
  6
CONTINUOUS
  62
1
  10
228.757721
  20
198.292206
  11
245.244229
  21
198.292206
  0
POLYLINE
  8
0
  6
CONTINUOUS
  62
1
  66
1
  0
VERTEX
  8
0
  10
243.444229
  20
216.892206
  30
0.0
  0
VERTEX
  8
0
  10
243.444229
  20
216.892206
  30
0.0
  0
VERTEX
  8
0
  10
243.444229
  20
216.892206
  30
0.0
  0
VERTEX
  8
0
  10
243.444229
  20
208.792206
  30
0.0
  0
SEQEND
  0
POLYLINE
  8
0
  6
CONTINUOUS
  62
1
  66
1
  0
VERTEX
  8
0
  10
243.444229
  20
200.692206
  30
0.0
  0
VERTEX
  8
0
  10
243.444229
  20
200.692206
  30
0.0
  0
VERTEX
  8
0
  10
243.444229
  20
200.692206
  30
0.0
  0
VERTEX
  8
0
  10
243.444229
  20
208.792206
  30
0.0
  0
SEQEND
  0
SOLID
  8
0
  6
CONTINUOUS
  62
1
  10
243.444229
  20
219.292206
  11
243.132229
  21
216.892206
  12
243.444229
  22
219.292206
  13
243.756229
  23
216.892206
  0
SOLID
  8
0
  6
CONTINUOUS
  62
1
  10
243.444229
  20
198.292206
  11
243.756229
  21
200.692206
  12
243.444229
  22
198.292206
  13
243.132229
  23
200.692206
  0
TEXT
  8
0
  62
7
  10
241.901779
  20
207.630656
  1
21
  40
1.92735
  50
90.0
  7
STANDARD
  72
5
  11
241.901779
  21
209.953755
  31
0.0
  0
ENDBLK
  0
BLOCK
  8
0
  70
65
  2
*D14
  10
0.0
  20
0.0
  30
0.0
  3
*D
  0
LINE
  8
0
  6
CONTINUOUS
  62
1
  10
136.757721
  20
166.992203
  11
136.757721
  21
179.771893
  0
LINE
  8
0
  6
CONTINUOUS
  62
1
  10
187.757721
  20
166.992203
  11
187.757721
  21
179.771893
  0
POLYLINE
  8
0
  6
CONTINUOUS
  62
1
  66
1
  0
VERTEX
  8
0
  10
139.157721
  20
177.971893
  30
0.0
  0
VERTEX
  8
0
  10
139.157721
  20
177.971893
  30
0.0
  0
VERTEX
  8
0
  10
139.157721
  20
177.971893
  30
0.0
  0
VERTEX
  8
0
  10
162.257721
  20
177.971893
  30
0.0
  0
SEQEND
  0
POLYLINE
  8
0
  6
CONTINUOUS
  62
1
  66
1
  0
VERTEX
  8
0
  10
185.357721
  20
177.971893
  30
0.0
  0
VERTEX
  8
0
  10
185.357721
  20
177.971893
  30
0.0
  0
VERTEX
  8
0
  10
185.357721
  20
177.971893
  30
0.0
  0
VERTEX
  8
0
  10
162.257721
  20
177.971893
  30
0.0
  0
SEQEND
  0
SOLID
  8
0
  6
CONTINUOUS
  62
1
  10
136.757721
  20
177.971893
  11
139.157721
  21
177.659893
  12
136.757721
  22
177.971893
  13
139.157721
  23
178.283893
  0
SOLID
  8
0
  6
CONTINUOUS
  62
1
  10
187.757721
  20
177.971893
  11
185.357721
  21
178.283893
  12
187.757721
  22
177.971893
  13
185.357721
  23
177.659893
  0
TEXT
  8
0
  62
7
  10
161.096171
  20
179.514343
  1
51
  40
1.92735
  7
STANDARD
  72
5
  11
163.419271
  21
179.514343
  31
0.0
  0
ENDBLK
  0
BLOCK
  8
0
  70
65
  2
*D15
  10
0.0
  20
0.0
  30
0.0
  3
*D
  0
LINE
  8
0
  6
CONTINUOUS
  62
1
  10
144.757721
  20
198.292206
  11
144.757721
  21
188.526996
  0
LINE
  8
0
  6
CONTINUOUS
  62
1
  10
179.757721
  20
198.292206
  11
179.757721
  21
188.526996
  0
POLYLINE
  8
0
  6
CONTINUOUS
  62
1
  66
1
  0
VERTEX
  8
0
  10
147.157721
  20
190.326996
  30
0.0
  0
VERTEX
  8
0
  10
147.157721
  20
190.326996
  30
0.0
  0
VERTEX
  8
0
  10
147.157721
  20
190.326996
  30
0.0
  0
VERTEX
  8
0
  10
162.257721
  20
190.326996
  30
0.0
  0
SEQEND
  0
POLYLINE
  8
0
  6
CONTINUOUS
  62
1
  66
1
  0
VERTEX
  8
0
  10
177.357721
  20
190.326996
  30
0.0
  0
VERTEX
  8
0
  10
177.357721
  20
190.326996
  30
0.0
  0
VERTEX
  8
0
  10
177.357721
  20
190.326996
  30
0.0
  0
VERTEX
  8
0
  10
162.257721
  20
190.326996
  30
0.0
  0
SEQEND
  0
SOLID
  8
0
  6
CONTINUOUS
  62
1
  10
144.757721
  20
190.326996
  11
147.157721
  21
190.014996
  12
144.757721
  22
190.326996
  13
147.157721
  23
190.638996
  0
SOLID
  8
0
  6
CONTINUOUS
  62
1
  10
179.757721
  20
190.326996
  11
177.357721
  21
190.638996
  12
179.757721
  22
190.326996
  13
177.357721
  23
190.014996
  0
TEXT
  8
0
  62
7
  10
161.096171
  20
191.869446
  1
35
  40
1.92735
  7
STANDARD
  72
5
  11
163.419271
  21
191.869446
  31
0.0
  0
ENDBLK
  0
BLOCK
  8
0
  70
65
  2
*D16
  10
0.0
  20
0.0
  30
0.0
  3
*D
  0
LINE
  8
0
  6
CONTINUOUS
  62
1
  10
179.757721
  20
198.292206
  11
179.757721
  21
188.526996
  0
LINE
  8
0
  6
CONTINUOUS
  62
1
  10
187.757721
  20
208.592209
  11
187.757721
  21
188.526996
  0
POLYLINE
  8
0
  6
CONTINUOUS
  62
1
  66
1
  0
VERTEX
  8
0
  10
182.157721
  20
190.326996
  30
0.0
  0
VERTEX
  8
0
  10
182.157721
  20
190.326996
  30
0.0
  0
VERTEX
  8
0
  10
182.157721
  20
190.326996
  30
0.0
  0
VERTEX
  8
0
  10
183.757721
  20
190.326996
  30
0.0
  0
SEQEND
  0
POLYLINE
  8
0
  6
CONTINUOUS
  62
1
  66
1
  0
VERTEX
  8
0
  10
185.357721
  20
190.326996
  30
0.0
  0
VERTEX
  8
0
  10
185.357721
  20
190.326996
  30
0.0
  0
VERTEX
  8
0
  10
185.357721
  20
190.326996
  30
0.0
  0
VERTEX
  8
0
  10
183.757721
  20
190.326996
  30
0.0
  0
SEQEND
  0
SOLID
  8
0
  6
CONTINUOUS
  62
1
  10
179.757721
  20
190.326996
  11
182.157721
  21
190.014996
  12
179.757721
  22
190.326996
  13
182.157721
  23
190.638996
  0
SOLID
  8
0
  6
CONTINUOUS
  62
1
  10
187.757721
  20
190.326996
  11
185.357721
  21
190.638996
  12
187.757721
  22
190.326996
  13
185.357721
  23
190.014996
  0
TEXT
  8
0
  62
7
  10
183.176946
  20
191.869446
  1
8
  40
1.92735
  7
STANDARD
  72
5
  11
184.338496
  21
191.869446
  31
0.0
  0
ENDBLK
  0
BLOCK
  8
0
  70
65
  2
*D17
  10
0.0
  20
0.0
  30
0.0
  3
*D
  0
LINE
  8
0
  6
CONTINUOUS
  62
1
  10
144.757721
  20
198.292206
  11
144.757721
  21
188.526996
  0
LINE
  8
0
  6
CONTINUOUS
  62
1
  10
136.757721
  20
208.592209
  11
136.757721
  21
188.526996
  0
POLYLINE
  8
0
  6
CONTINUOUS
  62
1
  66
1
  0
VERTEX
  8
0
  10
142.357721
  20
190.326996
  30
0.0
  0
VERTEX
  8
0
  10
142.357721
  20
190.326996
  30
0.0
  0
VERTEX
  8
0
  10
142.357721
  20
190.326996
  30
0.0
  0
VERTEX
  8
0
  10
140.757721
  20
190.326996
  30
0.0
  0
SEQEND
  0
POLYLINE
  8
0
  6
CONTINUOUS
  62
1
  66
1
  0
VERTEX
  8
0
  10
139.157721
  20
190.326996
  30
0.0
  0
VERTEX
  8
0
  10
139.157721
  20
190.326996
  30
0.0
  0
VERTEX
  8
0
  10
139.157721
  20
190.326996
  30
0.0
  0
VERTEX
  8
0
  10
140.757721
  20
190.326996
  30
0.0
  0
SEQEND
  0
SOLID
  8
0
  6
CONTINUOUS
  62
1
  10
144.757721
  20
190.326996
  11
142.357721
  21
190.638996
  12
144.757721
  22
190.326996
  13
142.357721
  23
190.014996
  0
SOLID
  8
0
  6
CONTINUOUS
  62
1
  10
136.757721
  20
190.326996
  11
139.157721
  21
190.014996
  12
136.757721
  22
190.326996
  13
139.157721
  23
190.638996
  0
TEXT
  8
0
  62
7
  10
140.176946
  20
191.869446
  1
8
  40
1.92735
  7
STANDARD
  72
5
  11
141.338496
  21
191.869446
  31
0.0
  0
ENDBLK
  0
BLOCK
  8
0
  70
65
  2
*D18
  10
0.0
  20
0.0
  30
0.0
  3
*D
  0
LINE
  8
0
  6
CONTINUOUS
  62
1
  10
138.757721
  20
157.292206
  11
138.757721
  21
153.203648
  0
LINE
  8
0
  6
CONTINUOUS
  62
1
  10
138.757721
  20
150.119888
  11
138.757721
  21
147.676868
  0
LINE
  8
0
  6
CONTINUOUS
  62
1
  10
137.657715
  20
157.292206
  11
137.657715
  21
153.203648
  0
LINE
  8
0
  6
CONTINUOUS
  62
1
  10
137.657715
  20
150.119888
  11
137.657715
  21
147.676868
  0
LINE
  8
0
  6
CONTINUOUS
  62
1
  10
143.557721
  20
149.476868
  11
141.157721
  21
149.476868
  0
LINE
  8
0
  6
CONTINUOUS
  62
1
  10
138.757721
  20
149.476868
  11
138.207718
  21
149.476868
  0
LINE
  8
0
  6
CONTINUOUS
  62
1
  10
132.857715
  20
149.476868
  11
135.257715
  21
149.476868
  0
LINE
  8
0
  6
CONTINUOUS
  62
1
  10
137.657715
  20
149.476868
  11
138.207718
  21
149.476868
  0
SOLID
  8
0
  6
CONTINUOUS
  62
1
  10
137.657715
  20
149.476868
  11
135.257715
  21
149.788868
  12
137.657715
  22
149.476868
  13
135.257715
  23
149.164868
  0
SOLID
  8
0
  6
CONTINUOUS
  62
1
  10
138.757721
  20
149.476868
  11
141.157721
  21
149.164868
  12
138.757721
  22
149.476868
  13
141.157721
  23
149.788868
  0
TEXT
  8
0
  62
7
  10
136.755781
  20
151.019318
  1
1,1
  40
1.92735
  7
STANDARD
  72
5
  11
139.659655
  21
151.019318
  31
0.0
  0
ENDBLK
  0
BLOCK
  8
0
  70
65
  2
*D19
  10
0.0
  20
0.0
  30
0.0
  3
*D
  0
LINE
  8
0
  6
CONTINUOUS
  62
1
  10
138.757721
  20
218.292206
  11
121.225574
  21
218.292206
  0
LINE
  8
0
  6
CONTINUOUS
  62
1
  10
138.757721
  20
208.292206
  11
121.225574
  21
208.292206
  0
LINE
  8
0
  6
CONTINUOUS
  62
1
  10
123.025574
  20
223.092206
  11
123.025574
  21
220.692206
  0
LINE
  8
0
  6
CONTINUOUS
  62
1
  10
123.025574
  20
218.292206
  11
123.025574
  21
213.292206
  0
LINE
  8
0
  6
CONTINUOUS
  62
1
  10
123.025574
  20
203.492206
  11
123.025574
  21
205.892206
  0
LINE
  8
0
  6
CONTINUOUS
  62
1
  10
123.025574
  20
208.292206
  11
123.025574
  21
213.292206
  0
SOLID
  8
0
  6
CONTINUOUS
  62
1
  10
123.025574
  20
208.292206
  11
122.713574
  21
205.892206
  12
123.025574
  22
208.292206
  13
123.337574
  23
205.892206
  0
SOLID
  8
0
  6
CONTINUOUS
  62
1
  10
123.025574
  20
218.292206
  11
123.337574
  21
220.692206
  12
123.025574
  22
218.292206
  13
122.713574
  23
220.692206
  0
TEXT
  8
0
  62
7
  10
121.483124
  20
209.744597
  1
%%c 10 f8
  40
1.92735
  50
90.0
  7
STANDARD
  72
5
  11
121.483124
  21
216.839815
  31
0.0
  0
ENDBLK
  0
BLOCK
  8
0
  70
65
  2
*D20
  10
0.0
  20
0.0
  30
0.0
  3
*D
  0
LINE
  8
0
  6
CONTINUOUS
  62
1
  10
137.657715
  20
166.592209
  11
121.225574
  21
166.592209
  0
LINE
  8
0
  6
CONTINUOUS
  62
1
  10
138.202942
  20
157.992203
  11
121.225574
  21
157.992203
  0
LINE
  8
0
  6
CONTINUOUS
  62
1
  10
123.025574
  20
171.392209
  11
123.025574
  21
168.992209
  0
LINE
  8
0
  6
CONTINUOUS
  62
1
  10
123.025574
  20
166.592209
  11
123.025574
  21
162.292206
  0
LINE
  8
0
  6
CONTINUOUS
  62
1
  10
123.025574
  20
153.192203
  11
123.025574
  21
155.592203
  0
LINE
  8
0
  6
CONTINUOUS
  62
1
  10
123.025574
  20
157.992203
  11
123.025574
  21
162.292206
  0
SOLID
  8
0
  6
CONTINUOUS
  62
1
  10
123.025574
  20
157.992203
  11
122.713574
  21
155.592203
  12
123.025574
  22
157.992203
  13
123.337574
  23
155.592203
  0
SOLID
  8
0
  6
CONTINUOUS
  62
1
  10
123.025574
  20
166.592209
  11
123.337574
  21
168.992209
  12
123.025574
  22
166.592209
  13
122.713574
  23
168.992209
  0
TEXT
  8
0
  62
7
  10
121.483124
  20
159.712127
  1
%%c 9,6
  40
1.92735
  50
90.0
  7
STANDARD
  72
5
  11
121.483124
  21
164.872285
  31
0.0
  0
ENDBLK
  0
BLOCK
  8
0
  70
65
  2
*D21
  10
0.0
  20
0.0
  30
0.0
  3
*D
  0
LINE
  8
0
  6
CONTINUOUS
  62
1
  10
159.007721
  20
212.292206
  11
159.007721
  21
226.79544
  0
LINE
  8
0
  6
CONTINUOUS
  62
1
  10
165.507721
  20
212.292206
  11
165.507721
  21
226.79544
  0
LINE
  8
0
  6
CONTINUOUS
  62
1
  10
154.207721
  20
226.15242
  11
156.607721
  21
226.15242
  0
LINE
  8
0
  6
CONTINUOUS
  62
1
  10
159.007721
  20
226.15242
  11
162.257721
  21
226.15242
  0
LINE
  8
0
  6
CONTINUOUS
  62
1
  10
170.307721
  20
226.15242
  11
167.907721
  21
226.15242
  0
LINE
  8
0
  6
CONTINUOUS
  62
1
  10
165.507721
  20
226.15242
  11
162.257721
  21
226.15242
  0
SOLID
  8
0
  6
CONTINUOUS
  62
1
  10
165.507721
  20
226.15242
  11
167.907721
  21
225.84042
  12
165.507721
  22
226.15242
  13
167.907721
  23
226.46442
  0
SOLID
  8
0
  6
CONTINUOUS
  62
1
  10
159.007721
  20
226.15242
  11
156.607721
  21
226.46442
  12
159.007721
  22
226.15242
  13
156.607721
  23
225.84042
  0
TEXT
  8
0
  62
7
  10
159.677642
  20
227.69487
  1
%%c 6,5
  40
1.92735
  7
STANDARD
  72
5
  11
164.8378
  21
227.69487
  31
0.0
  0
ENDBLK
  0
BLOCK
  8
0
  70
65
  2
*D22
  10
0.0
  20
0.0
  30
0.0
  3
*D
  0
LINE
  8
0
  6
CONTINUOUS
  62
1
  10
156.757721
  20
218.492203
  11
156.757721
  21
234.216977
  0
LINE
  8
0
  6
CONTINUOUS
  62
1
  10
167.757721
  20
218.492203
  11
167.757721
  21
234.216977
  0
LINE
  8
0
  6
CONTINUOUS
  62
1
  10
151.957721
  20
232.416977
  11
154.357721
  21
232.416977
  0
LINE
  8
0
  6
CONTINUOUS
  62
1
  10
156.757721
  20
232.416977
  11
162.257721
  21
232.416977
  0
LINE
  8
0
  6
CONTINUOUS
  62
1
  10
172.557721
  20
232.416977
  11
170.157721
  21
232.416977
  0
LINE
  8
0
  6
CONTINUOUS
  62
1
  10
167.757721
  20
232.416977
  11
162.257721
  21
232.416977
  0
SOLID
  8
0
  6
CONTINUOUS
  62
1
  10
167.757721
  20
232.416977
  11
170.157721
  21
232.104977
  12
167.757721
  22
232.416977
  13
170.157721
  23
232.728977
  0
SOLID
  8
0
  6
CONTINUOUS
  62
1
  10
156.757721
  20
232.416977
  11
154.357721
  21
232.728977
  12
156.757721
  22
232.416977
  13
154.357721
  23
232.104977
  0
TEXT
  8
0
  62
7
  10
159.968029
  20
233.959427
  1
%%c 11
  40
1.92735
  7
STANDARD
  72
5
  11
164.547413
  21
233.959427
  31
0.0
  0
ENDBLK
  0
BLOCK
  8
0
  70
65
  2
*D23
  10
0.0
  20
0.0
  30
0.0
  3
*D
  0
LINE
  8
0
  6
CONTINUOUS
  62
1
  10
168.557724
  20
219.292206
  11
194.779782
  21
219.292206
  0
LINE
  8
0
  6
CONTINUOUS
  62
1
  10
167.757721
  20
212.292206
  11
194.779782
  21
212.292206
  0
LINE
  8
0
  6
CONTINUOUS
  62
1
  10
192.979782
  20
224.092206
  11
192.979782
  21
221.692206
  0
LINE
  8
0
  6
CONTINUOUS
  62
1
  10
192.979782
  20
219.292206
  11
192.979782
  21
215.792206
  0
LINE
  8
0
  6
CONTINUOUS
  62
1
  10
192.979782
  20
207.492206
  11
192.979782
  21
209.892206
  0
LINE
  8
0
  6
CONTINUOUS
  62
1
  10
192.979782
  20
212.292206
  11
192.979782
  21
215.792206
  0
SOLID
  8
0
  6
CONTINUOUS
  62
1
  10
192.979782
  20
212.292206
  11
192.667782
  21
209.892206
  12
192.979782
  22
212.292206
  13
193.291782
  23
209.892206
  0
SOLID
  8
0
  6
CONTINUOUS
  62
1
  10
192.979782
  20
219.292206
  11
193.291782
  21
221.692206
  12
192.979782
  22
219.292206
  13
192.667782
  23
221.692206
  0
TEXT
  8
0
  62
7
  10
191.437332
  20
215.211431
  1
7
  40
1.92735
  50
90.0
  7
STANDARD
  72
5
  11
191.437332
  21
216.372981
  31
0.0
  0
ENDBLK
  0
BLOCK
  8
0
  70
65
  2
*D24
  10
0.0
  20
0.0
  30
0.0
  3
*D
  0
LINE
  8
0
  6
CONTINUOUS
  62
1
  10
179.757721
  20
155.292206
  11
179.757721
  21
146.806796
  0
LINE
  8
0
  6
CONTINUOUS
  62
1
  10
162.257721
  20
152.133591
  11
162.257721
  21
146.806796
  0
POLYLINE
  8
0
  6
CONTINUOUS
  62
1
  66
1
  0
VERTEX
  8
0
  10
177.357721
  20
148.606796
  30
0.0
  0
VERTEX
  8
0
  10
177.357721
  20
148.606796
  30
0.0
  0
VERTEX
  8
0
  10
177.357721
  20
148.606796
  30
0.0
  0
VERTEX
  8
0
  10
171.007721
  20
148.606796
  30
0.0
  0
SEQEND
  0
POLYLINE
  8
0
  6
CONTINUOUS
  62
1
  66
1
  0
VERTEX
  8
0
  10
164.657721
  20
148.606796
  30
0.0
  0
VERTEX
  8
0
  10
164.657721
  20
148.606796
  30
0.0
  0
VERTEX
  8
0
  10
164.657721
  20
148.606796
  30
0.0
  0
VERTEX
  8
0
  10
171.007721
  20
148.606796
  30
0.0
  0
SEQEND
  0
SOLID
  8
0
  6
CONTINUOUS
  62
1
  10
179.757721
  20
148.606796
  11
177.357721
  21
148.918796
  12
179.757721
  22
148.606796
  13
177.357721
  23
148.294796
  0
SOLID
  8
0
  6
CONTINUOUS
  62
1
  10
162.257721
  20
148.606796
  11
164.657721
  21
148.294796
  12
162.257721
  22
148.606796
  13
164.657721
  23
148.918796
  0
TEXT
  8
0
  62
7
  10
168.975009
  20
150.149246
  1
17,5
  40
1.92735
  7
STANDARD
  72
5
  11
173.040433
  21
150.149246
  31
0.0
  0
ENDBLK
  0
BLOCK
  8
0
  70
65
  2
*A25
  10
0.0
  20
0.0
  30
0.0
  3
*A
  0
POLYLINE
  8
0
  6
CONTINUOUS
  62
1
  66
1
  0
VERTEX
  8
0
  10
188.600114
  20
206.181535
  30
0.0
  0
VERTEX
  8
0
  10
192.283707
  20
199.375793
  30
0.0
  0
VERTEX
  8
0
  10
194.683707
  20
199.375793
  30
0.0
  0
VERTEX
  8
0
  10
204.061477
  20
199.375793
  30
0.0
  0
SEQEND
  0
SOLID
  8
0
  6
CONTINUOUS
  62
1
  10
187.457718
  20
208.292206
  11
188.325727
  21
206.033023
  12
187.457718
  22
208.292206
  13
188.874501
  23
206.330046
  0
TEXT
  8
0
  62
7
  10
195.583707
  20
200.918244
  1
0.3 x 45°
  40
1.92735
  7
STANDARD
  72
5
  11
204.061477
  21
200.918244
  31
0.0
  0
ENDBLK
  0
BLOCK
  8
0
  70
65
  2
*A26
  10
0.0
  20
0.0
  30
0.0
  3
*A
  0
POLYLINE
  8
0
  6
CONTINUOUS
  62
1
  66
1
  0
VERTEX
  8
0
  10
167.757721
  20
219.292206
  30
0.0
  0
VERTEX
  8
0
  10
168.791626
  20
222.345825
  30
0.0
  0
VERTEX
  8
0
  10
171.191626
  20
222.345825
  30
0.0
  0
VERTEX
  8
0
  10
180.569397
  20
222.345825
  30
0.0
  0
SEQEND
  0
TEXT
  8
0
  62
7
  10
172.091626
  20
223.888275
  1
0.5 x 45°
  40
1.92735
  7
STANDARD
  72
5
  11
180.569397
  21
223.888275
  31
0.0
  0
ENDBLK
  0
BLOCK
  8
0
  70
65
  2
*D27
  10
0.0
  20
0.0
  30
0.0
  3
*D
  0
LINE
  8
0
  6
CONTINUOUS
  62
1
  10
144.757721
  20
219.292206
  11
144.757721
  21
227.95242
  0
LINE
  8
0
  6
CONTINUOUS
  62
1
  10
138.757721
  20
218.292206
  11
138.757721
  21
227.95242
  0
LINE
  8
0
  6
CONTINUOUS
  62
1
  10
149.557721
  20
226.15242
  11
147.157721
  21
226.15242
  0
LINE
  8
0
  6
CONTINUOUS
  62
1
  10
144.757721
  20
226.15242
  11
141.757721
  21
226.15242
  0
LINE
  8
0
  6
CONTINUOUS
  62
1
  10
133.957721
  20
226.15242
  11
136.357721
  21
226.15242
  0
LINE
  8
0
  6
CONTINUOUS
  62
1
  10
138.757721
  20
226.15242
  11
141.757721
  21
226.15242
  0
SOLID
  8
0
  6
CONTINUOUS
  62
1
  10
138.757721
  20
226.15242
  11
136.357721
  21
226.46442
  12
138.757721
  22
226.15242
  13
136.357721
  23
225.84042
  0
SOLID
  8
0
  6
CONTINUOUS
  62
1
  10
144.757721
  20
226.15242
  11
147.157721
  21
225.84042
  12
144.757721
  22
226.15242
  13
147.157721
  23
226.46442
  0
TEXT
  8
0
  62
7
  10
140.305784
  20
227.69487
  1
5.2
  40
1.92735
  7
STANDARD
  72
5
  11
143.209658
  21
227.69487
  31
0.0
  0
ENDBLK
  0
BLOCK
  8
0
  70
65
  2
*D28
  10
0.0
  20
0.0
  30
0.0
  3
*D
  0
LINE
  8
0
  6
CONTINUOUS
  62
1
  10
179.757721
  20
219.292206
  11
179.757721
  21
227.95242
  0
LINE
  8
0
  6
CONTINUOUS
  62
1
  10
185.757721
  20
218.292206
  11
185.757721
  21
227.95242
  0
LINE
  8
0
  6
CONTINUOUS
  62
1
  10
174.957721
  20
226.15242
  11
177.357721
  21
226.15242
  0
LINE
  8
0
  6
CONTINUOUS
  62
1
  10
179.757721
  20
226.15242
  11
182.757721
  21
226.15242
  0
LINE
  8
0
  6
CONTINUOUS
  62
1
  10
190.557721
  20
226.15242
  11
188.157721
  21
226.15242
  0
LINE
  8
0
  6
CONTINUOUS
  62
1
  10
185.757721
  20
226.15242
  11
182.757721
  21
226.15242
  0
SOLID
  8
0
  6
CONTINUOUS
  62
1
  10
185.757721
  20
226.15242
  11
188.157721
  21
225.84042
  12
185.757721
  22
226.15242
  13
188.157721
  23
226.46442
  0
SOLID
  8
0
  6
CONTINUOUS
  62
1
  10
179.757721
  20
226.15242
  11
177.357721
  21
226.46442
  12
179.757721
  22
226.15242
  13
177.357721
  23
225.84042
  0
TEXT
  8
0
  62
7
  10
181.305784
  20
227.69487
  1
5.2
  40
1.92735
  7
STANDARD
  72
5
  11
184.209658
  21
227.69487
  31
0.0
  0
ENDBLK
  0
ENDSEC
  0
SECTION
  2
ENTITIES
  0
INSERT
  8
0
  6
CONTINUOUS
  62
7
  2
*G4
  10
0.0
  20
0.0
  1001
ACAD
  1000
ACAD_TCW25GROUP
  1002
{
  1000
Groupe_1
  1002
}
  0
TEXT
  8
0
  62
7
  10
244.808182
  20
108.11038
  30
7.033605
  1
03 septembre 2001
  40
1.906717
  7
STANDARD
  72
5
  11
268.547424
  21
108.11038
  31
7.033605
  0
TEXT
  8
0
  62
7
  10
202.724854
  20
100.963041
  30
4.958926
  1
ESSIEU
  40
3.813303
  7
STANDARD
  72
5
  11
225.779709
  21
100.963041
  31
4.958926
  0
POLYLINE
  8
0
  6
CONTINUOUS
  62
7
  40
0.03937
  41
0.03937
  66
1
  70
8
  0
VERTEX
  8
0
  10
152.453522
  20
115.723473
  30
4.958926
  70
32
  0
VERTEX
  8
0
  10
152.453522
  20
127.966949
  30
0.0
  70
32
  0
SEQEND
  0
POLYLINE
  8
0
  6
CONTINUOUS
  62
7
  40
0.03937
  41
0.03937
  66
1
  70
8
  0
VERTEX
  8
0
  10
287.546478
  20
115.723473
  30
4.958926
  70
32
  0
VERTEX
  8
0
  10
287.546478
  20
127.966949
  30
0.0
  70
32
  0
SEQEND
  0
POLYLINE
  8
0
  6
CONTINUOUS
  62
7
  40
0.03937
  41
0.03937
  66
1
  70
8
  0
VERTEX
  8
0
  10
152.453522
  20
127.966949
  30
4.958926
  70
32
  0
VERTEX
  8
0
  10
287.546478
  20
127.966949
  30
4.958926
  70
32
  0
SEQEND
  0
POLYLINE
  8
0
  6
CONTINUOUS
  62
7
  40
0.03937
  41
0.03937
  66
1
  70
8
  0
VERTEX
  8
0
  10
152.453522
  20
121.845184
  30
4.958926
  70
32
  0
VERTEX
  8
0
  10
287.546478
  20
121.845184
  30
4.958926
  70
32
  0
SEQEND
  0
POLYLINE
  8
0
  6
CONTINUOUS
  62
7
  40
0.03937
  41
0.03937
  66
1
  70
8
  0
VERTEX
  8
0
  10
166.047592
  20
115.723473
  30
4.958926
  70
32
  0
VERTEX
  8
0
  10
166.047592
  20
127.966949
  30
0.0
  70
32
  0
SEQEND
  0
POLYLINE
  8
0
  6
CONTINUOUS
  62
7
  40
0.03937
  41
0.03937
  66
1
  70
8
  0
VERTEX
  8
0
  10
179.641693
  20
115.723473
  30
4.958926
  70
32
  0
VERTEX
  8
0
  10
179.641693
  20
127.966949
  30
0.0
  70
32
  0
SEQEND
  0
POLYLINE
  8
0
  6
CONTINUOUS
  62
7
  40
0.03937
  41
0.03937
  66
1
  70
8
  0
VERTEX
  8
0
  10
234.018021
  20
115.723473
  30
4.958926
  70
32
  0
VERTEX
  8
0
  10
234.018021
  20
127.966949
  30
0.0
  70
32
  0
SEQEND
  0
POLYLINE
  8
0
  6
CONTINUOUS
  62
7
  40
0.03937
  41
0.03937
  66
1
  70
8
  0
VERTEX
  8
0
  10
261.206268
  20
115.723473
  30
4.958926
  70
32
  0
VERTEX
  8
0
  10
261.206268
  20
127.966949
  30
0.0
  70
32
  0
SEQEND
  0
TEXT
  8
0
  62
7
  10
155.328903
  20
117.760477
  30
4.958926
  1
Rep
  40
2.542173
  7
STANDARD
  72
5
  11
162.620087
  21
117.760477
  31
4.958926
  0
TEXT
  8
0
  62
7
  10
197.0681
  20
117.760477
  30
4.958926
  1
Désignation
  40
2.542173
  7
STANDARD
  72
5
  11
218.941696
  21
117.760477
  31
4.958926
  0
TEXT
  8
0
  62
7
  10
168.187668
  20
117.760477
  30
4.958926
  1
Nbre
  40
2.542173
  7
STANDARD
  72
5
  11
177.230148
  21
117.760477
  31
4.958926
  0
TEXT
  8
0
  62
7
  10
240.953842
  20
117.760477
  30
4.958926
  1
Matière
  40
2.542173
  7
STANDARD
  72
5
  11
255.024445
  21
117.760477
  31
4.958926
  0
TEXT
  8
0
  62
7
  10
270.753845
  20
117.760477
  30
4.958926
  1
Débit
  40
2.542173
  7
STANDARD
  72
5
  11
280.809967
  21
117.760477
  31
4.958926
  0
TEXT
  8
0
  62
7
  10
172.506271
  20
124.398708
  30
4.958926
  1
2
  40
2.224445
  7
STANDARD
  72
5
  11
174.490891
  21
124.398708
  31
4.958926
  0
TEXT
  8
0
  62
7
  10
187.018082
  20
124.398708
  30
4.958926
  1
Essieu
  40
2.224445
  7
STANDARD
  72
5
  11
197.371597
  21
124.398708
  31
4.958926
  0
TEXT
  8
0
  62
7
  10
235.716568
  20
124.586689
  30
4.958926
  1
EN AW-2017
  40
2.224445
  7
STANDARD
  72
5
  11
256.525299
  21
124.586689
  31
4.958926
  0
TEXT
  8
0
  62
7
  10
262.960693
  20
124.586689
  30
4.958926
  1
Ø 35 lg/54
  40
2.224445
  7
STANDARD
  72
5
  11
279.932678
  21
124.586689
  31
4.958926
  0
TEXT
  8
0
  62
7
  10
157.767746
  20
124.398708
  1
5
  40
2.224445
  7
STANDARD
  72
5
  11
159.752365
  21
124.398708
  31
0.0
  0
INSERT
  8
0
  6
CONTINUOUS
  62
7
  2
*G5
  10
0.0
  20
0.0
  1001
ACAD
  1000
ACAD_TCW25GROUP
  1002
{
  1000
Groupe_1
  1002
}
  0
INSERT
  8
0
  6
$AUXILIARY
  62
7
  2
*G6
  10
0.0
  20
0.0
  1001
ACAD
  1000
ACAD_TCW25GROUP
  1002
{
  1000
Groupe_3
  1002
}
  1000
TCW25BRUSH
  1002
{
  1000
L45
  1071
-5
  1070
0
  1070
0
  1040
5.0
  1040
0.0
  1002
}
  0
ENDSEC
  0
EOF
