  0
SECTION
  2
HEADER
  9
$ACADVER
  1
AC1006
  9
$EXTMIN
 10
-2.930909
 20
-2.426559
  9
$EXTMAX
 10
3.337280
 20
2.176437
  9
$LTSCALE
 40
0.000394
  9
$PDMODE
 70
    35
  9
$PDSIZE
 40
0.000315
  0
ENDSEC
  0
SECTION
  2
TABLES
  0
TABLE
  2
LTYPE
 70
     9
  0
LTYPE
  2
CONTINUOUS
 70
    64
  3
Solid line
 72
    65
 73
     0
 40
0.000000
  0
LTYPE
  2
DASHED
 70
    64
  3
__ __ __ __ __ __ __ __ __ __ __ __ __ __ __
 72
    65
 73
     2
 40
0.000003
 49
0.000002
 49
-0.000001
  0
LTYPE
  2
HIDDEN
 70
    64
  3
 _ _ _ _ _ _ _ _ _ _ _ _ _ _ _ _ _ _ _ _ _ _
 72
    65
 73
     2
 40
0.000001
 49
0.000001
 49
-0.000000
  0
LTYPE
  2
CENTER
 70
    64
  3
____ _ ____ _ ____ _ ____ _ ____ _ ____ _ ____
 72
    65
 73
     4
 40
0.000008
 49
0.000005
 49
-0.000001
 49
0.000001
 49
-0.000001
  0
LTYPE
  2
PHANTOM
 70
    64
  3
_____ _ _ _____ _ _ _____ _ _ _____ _ _ ____
 72
    65
 73
     6
 40
0.000010
 49
0.000005
 49
-0.000001
 49
0.000001
 49
-0.000001
 49
0.000001
 49
-0.000001
  0
LTYPE
  2
DOT
 70
    64
  3
...............................................
 72
    65
 73
     2
 40
0.000001
 49
0.000000
 49
-0.000001
  0
LTYPE
  2
DASHDOT
 70
    64
  3
__ . __ . __ . __ . __ . __ . __ . __ . __ . __
 72
    65
 73
     4
 40
0.000004
 49
0.000002
 49
-0.000001
 49
0.000000
 49
-0.000001
  0
LTYPE
  2
BORDER
 70
    64
  3
__ __ . __ __ . __ __ . __ __ . __ __ . __ __
 72
    65
 73
     6
 40
0.000007
 49
0.000002
 49
-0.000001
 49
0.000002
 49
-0.000001
 49
0.000000
 49
-0.000001
  0
LTYPE
  2
DIVIDE
 70
    64
  3
__ . . __ . . __ . . __ . . __ . . __ . . __
 72
    65
 73
     6
 40
0.000005
 49
0.000002
 49
-0.000001
 49
0.000000
 49
-0.000001
 49
0.000000
 49
-0.000001
  0
LTYPE
  2
DOTDOT
 70
    64
  3
 . .  . .  . .  . .  . .  . . 
 72
    65
 73
     5
 40
0.000002
 49
-0.000001
 49
0.000000
 49
-0.000001
 49
0.000000
 49
-0.000001
  0
ENDTAB
  0
TABLE
  2
STYLE
 70
     0
  0
ENDTAB
  0
TABLE
  2
LAYER
 70
     3
  0
LAYER
  2
FOREGROUND
 70
    64
 62
     7
  6
CONTINUOUS
  0
LAYER
  2
BACKGROUND
 70
    65
 62
    -7
  6
CONTINUOUS
  0
LAYER
  2
7
 70
    64
 62
     7
  6
CONTINUOUS
  0
ENDTAB
  0
ENDSEC
  0
SECTION
  2
ENTITIES
  0
POLYLINE
  8
7
 62
     7
  6
CONTINUOUS
 66
     1
 40
0.003000
 41
0.003000
 70
     1
  0
VERTEX
  8
7
 62
     7
  6
CONTINUOUS
 10
-0.142756
 20
-1.590839
  0
VERTEX
  8
7
 62
     7
  6
CONTINUOUS
 10
-0.174937
 20
-1.904126
  0
VERTEX
  8
7
 62
     7
  6
CONTINUOUS
 10
-0.228413
 20
-2.185382
  0
VERTEX
  8
7
 62
     7
  6
CONTINUOUS
 10
-0.233425
 20
-2.193055
  0
VERTEX
  8
7
 62
     7
  6
CONTINUOUS
 10
-0.245228
 20
-2.211669
  0
VERTEX
  8
7
 62
     7
  6
CONTINUOUS
 10
-0.263165
 20
-2.237024
  0
VERTEX
  8
7
 62
     7
  6
CONTINUOUS
 10
-0.282622
 20
-2.267461
  0
VERTEX
  8
7
 62
     7
  6
CONTINUOUS
 10
-0.302799
 20
-2.297126
  0
VERTEX
  8
7
 62
     7
  6
CONTINUOUS
 10
-0.319760
 20
-2.323394
  0
VERTEX
  8
7
 62
     7
  6
CONTINUOUS
 10
-0.331638
 20
-2.341295
  0
VERTEX
  8
7
 62
     7
  6
CONTINUOUS
 10
-0.335878
 20
-2.347941
  0
VERTEX
  8
7
 62
     7
  6
CONTINUOUS
 10
-0.337657
 20
-2.348803
  0
VERTEX
  8
7
 62
     7
  6
CONTINUOUS
 10
-0.341791
 20
-2.351315
  0
VERTEX
  8
7
 62
     7
  6
CONTINUOUS
 10
-0.349500
 20
-2.355575
  0
VERTEX
  8
7
 62
     7
  6
CONTINUOUS
 10
-0.357890
 20
-2.360697
  0
VERTEX
  8
7
 62
     7
  6
CONTINUOUS
 10
-0.368996
 20
-2.366681
  0
VERTEX
  8
7
 62
     7
  6
CONTINUOUS
 10
-0.380764
 20
-2.372594
  0
VERTEX
  8
7
 62
     7
  6
CONTINUOUS
 10
-0.393429
 20
-2.379421
  0
VERTEX
  8
7
 62
     7
  6
CONTINUOUS
 10
-0.407051
 20
-2.386858
  0
VERTEX
  8
7
 62
     7
  6
CONTINUOUS
 10
-0.419752
 20
-2.393650
  0
VERTEX
  8
7
 62
     7
  6
CONTINUOUS
 10
-0.432421
 20
-2.400461
  0
VERTEX
  8
7
 62
     7
  6
CONTINUOUS
 10
-0.444244
 20
-2.407272
  0
VERTEX
  8
7
 62
     7
  6
CONTINUOUS
 10
-0.455331
 20
-2.412319
  0
VERTEX
  8
7
 62
     7
  6
CONTINUOUS
 10
-0.463740
 20
-2.417496
  0
VERTEX
  8
7
 62
     7
  6
CONTINUOUS
 10
-0.470512
 20
-2.420874
  0
VERTEX
  8
7
 62
     7
  6
CONTINUOUS
 10
-0.474827
 20
-2.423370
  0
VERTEX
  8
7
 62
     7
  6
CONTINUOUS
 10
-0.476441
 20
-2.424268
  0
VERTEX
  8
7
 62
     7
  6
CONTINUOUS
 10
-0.479102
 20
-2.424268
  0
VERTEX
  8
7
 62
     7
  6
CONTINUOUS
 10
-0.487512
 20
-2.424268
  0
VERTEX
  8
7
 62
     7
  6
CONTINUOUS
 10
-0.499280
 20
-2.424268
  0
VERTEX
  8
7
 62
     7
  6
CONTINUOUS
 10
-0.515398
 20
-2.425059
  0
VERTEX
  8
7
 62
     7
  6
CONTINUOUS
 10
-0.534874
 20
-2.425059
  0
VERTEX
  8
7
 62
     7
  6
CONTINUOUS
 10
-0.555287
 20
-2.425059
  0
VERTEX
  8
7
 62
     7
  6
CONTINUOUS
 10
-0.578197
 20
-2.425059
  0
VERTEX
  8
7
 62
     7
  6
CONTINUOUS
 10
-0.601035
 20
-2.425059
  0
VERTEX
  8
7
 62
     7
  6
CONTINUOUS
 10
-0.624661
 20
-2.425059
  0
VERTEX
  8
7
 62
     7
  6
CONTINUOUS
 10
-0.646799
 20
-2.425059
  0
VERTEX
  8
7
 62
     7
  6
CONTINUOUS
 10
-0.667929
 20
-2.425059
  0
VERTEX
  8
7
 62
     7
  6
CONTINUOUS
 10
-0.686508
 20
-2.425059
  0
VERTEX
  8
7
 62
     7
  6
CONTINUOUS
 10
-0.701764
 20
-2.424268
  0
VERTEX
  8
7
 62
     7
  6
CONTINUOUS
 10
-0.714520
 20
-2.424268
  0
VERTEX
  8
7
 62
     7
  6
CONTINUOUS
 10
-0.722083
 20
-2.424268
  0
VERTEX
  8
7
 62
     7
  6
CONTINUOUS
 10
-0.724598
 20
-2.424268
  0
VERTEX
  8
7
 62
     7
  6
CONTINUOUS
 10
-0.727260
 20
-2.422453
  0
VERTEX
  8
7
 62
     7
  6
CONTINUOUS
 10
-0.734000
 20
-2.418358
  0
VERTEX
  8
7
 62
     7
  6
CONTINUOUS
 10
-0.744976
 20
-2.411602
  0
VERTEX
  8
7
 62
     7
  6
CONTINUOUS
 10
-0.758634
 20
-2.402976
  0
VERTEX
  8
7
 62
     7
  6
CONTINUOUS
 10
-0.775598
 20
-2.392126
  0
VERTEX
  8
7
 62
     7
  6
CONTINUOUS
 10
-0.793256
 20
-2.380193
  0
VERTEX
  8
7
 62
     7
  6
CONTINUOUS
 10
-0.812772
 20
-2.367362
  0
VERTEX
  8
7
 62
     7
  6
CONTINUOUS
 10
-0.833185
 20
-2.354713
  0
VERTEX
  8
7
 62
     7
  6
CONTINUOUS
 10
-0.853358
 20
-2.341295
  0
VERTEX
  8
7
 62
     7
  6
CONTINUOUS
 10
-0.872819
 20
-2.328610
  0
VERTEX
  8
7
 62
     7
  6
CONTINUOUS
 10
-0.891579
 20
-2.316583
  0
VERTEX
  8
7
 62
     7
  6
CONTINUOUS
 10
-0.907717
 20
-2.305736
  0
VERTEX
  8
7
 62
     7
  6
CONTINUOUS
 10
-0.921118
 20
-2.297126
  0
VERTEX
  8
7
 62
     7
  6
CONTINUOUS
 10
-0.931323
 20
-2.289634
  0
VERTEX
  8
7
 62
     7
  6
CONTINUOUS
 10
-0.938114
 20
-2.285358
  0
VERTEX
  8
7
 62
     7
  6
CONTINUOUS
 10
-0.940614
 20
-2.283579
  0
VERTEX
  8
7
 62
     7
  6
CONTINUOUS
 10
-0.945807
 20
-2.272673
  0
VERTEX
  8
7
 62
     7
  6
CONTINUOUS
 10
-0.958512
 20
-2.241354
  0
VERTEX
  8
7
 62
     7
  6
CONTINUOUS
 10
-0.975457
 20
-2.198067
  0
VERTEX
  8
7
 62
     7
  6
CONTINUOUS
 10
-0.995650
 20
-2.148154
  0
VERTEX
  8
7
 62
     7
  6
CONTINUOUS
 10
-1.015161
 20
-2.098110
  0
VERTEX
  8
7
 62
     7
  6
CONTINUOUS
 10
-1.033079
 20
-2.054898
  0
VERTEX
  8
7
 62
     7
  6
CONTINUOUS
 10
-1.044866
 20
-2.023524
  0
VERTEX
  8
7
 62
     7
  6
CONTINUOUS
 10
-1.049122
 20
-2.011776
  0
VERTEX
  8
7
 62
     7
  6
CONTINUOUS
 10
-1.051638
 20
-2.000634
  0
VERTEX
  8
7
 62
     7
  6
CONTINUOUS
 10
-1.058504
 20
-1.971846
  0
VERTEX
  8
7
 62
     7
  6
CONTINUOUS
 10
-1.066839
 20
-1.930378
  0
VERTEX
  8
7
 62
     7
  6
CONTINUOUS
 10
-1.077063
 20
-1.882079
  0
VERTEX
  8
7
 62
     7
  6
CONTINUOUS
 10
-1.086335
 20
-1.834772
  0
VERTEX
  8
7
 62
     7
  6
CONTINUOUS
 10
-1.095642
 20
-1.793283
  0
VERTEX
  8
7
 62
     7
  6
CONTINUOUS
 10
-1.101535
 20
-1.763563
  0
VERTEX
  8
7
 62
     7
  6
CONTINUOUS
 10
-1.103315
 20
-1.751760
  0
VERTEX
  8
7
 62
     7
  6
CONTINUOUS
 10
-1.106768
 20
-1.735677
  0
VERTEX
  8
7
 62
     7
  6
CONTINUOUS
 10
-1.115138
 20
-1.691472
  0
VERTEX
  8
7
 62
     7
  6
CONTINUOUS
 10
-1.127803
 20
-1.628949
  0
VERTEX
  8
7
 62
     7
  6
CONTINUOUS
 10
-1.141425
 20
-1.557776
  0
VERTEX
  8
7
 62
     7
  6
CONTINUOUS
 10
-1.155780
 20
-1.485685
  0
VERTEX
  8
7
 62
     7
  6
CONTINUOUS
 10
-1.167732
 20
-1.423969
  0
VERTEX
  8
7
 62
     7
  6
CONTINUOUS
 10
-1.176122
 20
-1.379835
  0
VERTEX
  8
7
 62
     7
  6
CONTINUOUS
 10
-1.178618
 20
-1.362890
  0
VERTEX
  8
7
 62
     7
  6
CONTINUOUS
 10
-1.183815
 20
-1.356961
  0
VERTEX
  8
7
 62
     7
  6
CONTINUOUS
 10
-1.196535
 20
-1.340862
  0
VERTEX
  8
7
 62
     7
  6
CONTINUOUS
 10
-1.213480
 20
-1.317933
  0
VERTEX
  8
7
 62
     7
  6
CONTINUOUS
 10
-1.233709
 20
-1.291846
  0
VERTEX
  8
7
 62
     7
  6
CONTINUOUS
 10
-1.253130
 20
-1.266295
  0
VERTEX
  8
7
 62
     7
  6
CONTINUOUS
 10
-1.271067
 20
-1.243512
  0
VERTEX
  8
7
 62
     7
  6
CONTINUOUS
 10
-1.282870
 20
-1.227504
  0
VERTEX
  8
7
 62
     7
  6
CONTINUOUS
 10
-1.287165
 20
-1.221409
  0
VERTEX
  8
7
 62
     7
  6
CONTINUOUS
 10
-1.292142
 20
-1.236811
  0
VERTEX
  8
7
 62
     7
  6
CONTINUOUS
 10
-1.303945
 20
-1.277382
  0
VERTEX
  8
7
 62
     7
  6
CONTINUOUS
 10
-1.321862
 20
-1.334933
  0
VERTEX
  8
7
 62
     7
  6
CONTINUOUS
 10
-1.341394
 20
-1.400268
  0
VERTEX
  8
7
 62
     7
  6
CONTINUOUS
 10
-1.361697
 20
-1.466189
  0
VERTEX
  8
7
 62
     7
  6
CONTINUOUS
 10
-1.378512
 20
-1.523815
  0
VERTEX
  8
7
 62
     7
  6
CONTINUOUS
 10
-1.390465
 20
-1.564587
  0
VERTEX
  8
7
 62
     7
  6
CONTINUOUS
 10
-1.394614
 20
-1.579748
  0
VERTEX
  8
7
 62
     7
  6
CONTINUOUS
 10
-1.397181
 20
-1.580650
  0
VERTEX
  8
7
 62
     7
  6
CONTINUOUS
 10
-1.404783
 20
-1.582244
  0
VERTEX
  8
7
 62
     7
  6
CONTINUOUS
 10
-1.416587
 20
-1.585661
  0
VERTEX
  8
7
 62
     7
  6
CONTINUOUS
 10
-1.432043
 20
-1.589957
  0
VERTEX
  8
7
 62
     7
  6
CONTINUOUS
 10
-1.450602
 20
-1.594969
  0
VERTEX
  8
7
 62
     7
  6
CONTINUOUS
 10
-1.470925
 20
-1.600146
  0
VERTEX
  8
7
 62
     7
  6
CONTINUOUS
 10
-1.492055
 20
-1.606055
  0
VERTEX
  8
7
 62
     7
  6
CONTINUOUS
 10
-1.514028
 20
-1.611894
  0
VERTEX
  8
7
 62
     7
  6
CONTINUOUS
 10
-1.536059
 20
-1.617823
  0
VERTEX
  8
7
 62
     7
  6
CONTINUOUS
 10
-1.558161
 20
-1.623752
  0
VERTEX
  8
7
 62
     7
  6
CONTINUOUS
 10
-1.577528
 20
-1.628949
  0
VERTEX
  8
7
 62
     7
  6
CONTINUOUS
 10
-1.596327
 20
-1.633886
  0
VERTEX
  8
7
 62
     7
  6
CONTINUOUS
 10
-1.611543
 20
-1.637299
  0
VERTEX
  8
7
 62
     7
  6
CONTINUOUS
 10
-1.622504
 20
-1.640697
  0
VERTEX
  8
7
 62
     7
  6
CONTINUOUS
 10
-1.630067
 20
-1.642531
  0
VERTEX
  8
7
 62
     7
  6
CONTINUOUS
 10
-1.632618
 20
-1.643228
  0
VERTEX
  8
7
 62
     7
  6
CONTINUOUS
 10
-1.631039
 20
-1.637299
  0
VERTEX
  8
7
 62
     7
  6
CONTINUOUS
 10
-1.626689
 20
-1.619622
  0
VERTEX
  8
7
 62
     7
  6
CONTINUOUS
 10
-1.619913
 20
-1.592398
  0
VERTEX
  8
7
 62
     7
  6
CONTINUOUS
 10
-1.611543
 20
-1.557776
  0
VERTEX
  8
7
 62
     7
  6
CONTINUOUS
 10
-1.600437
 20
-1.515350
  0
VERTEX
  8
7
 62
     7
  6
CONTINUOUS
 10
-1.588614
 20
-1.468850
  0
VERTEX
  8
7
 62
     7
  6
CONTINUOUS
 10
-1.575929
 20
-1.418791
  0
VERTEX
  8
7
 62
     7
  6
CONTINUOUS
 10
-1.563264
 20
-1.367114
  0
VERTEX
  8
7
 62
     7
  6
CONTINUOUS
 10
-1.549642
 20
-1.316374
  0
VERTEX
  8
7
 62
     7
  6
CONTINUOUS
 10
-1.536957
 20
-1.266295
  0
VERTEX
  8
7
 62
     7
  6
CONTINUOUS
 10
-1.525173
 20
-1.218913
  0
VERTEX
  8
7
 62
     7
  6
CONTINUOUS
 10
-1.514028
 20
-1.177390
  0
VERTEX
  8
7
 62
     7
  6
CONTINUOUS
 10
-1.505677
 20
-1.141831
  0
VERTEX
  8
7
 62
     7
  6
CONTINUOUS
 10
-1.497965
 20
-1.114807
  0
VERTEX
  8
7
 62
     7
  6
CONTINUOUS
 10
-1.493689
 20
-1.096945
  0
VERTEX
  8
7
 62
     7
  6
CONTINUOUS
 10
-1.492055
 20
-1.091091
  0
VERTEX
  8
7
 62
     7
  6
CONTINUOUS
 10
-1.493689
 20
-1.090154
  0
VERTEX
  8
7
 62
     7
  6
CONTINUOUS
 10
-1.499748
 20
-1.086740
  0
VERTEX
  8
7
 62
     7
  6
CONTINUOUS
 10
-1.508154
 20
-1.081783
  0
VERTEX
  8
7
 62
     7
  6
CONTINUOUS
 10
-1.519941
 20
-1.075008
  0
VERTEX
  8
7
 62
     7
  6
CONTINUOUS
 10
-1.534461
 20
-1.066563
  0
VERTEX
  8
7
 62
     7
  6
CONTINUOUS
 10
-1.551421
 20
-1.057075
  0
VERTEX
  8
7
 62
     7
  6
CONTINUOUS
 10
-1.570917
 20
-1.046224
  0
VERTEX
  8
7
 62
     7
  6
CONTINUOUS
 10
-1.592047
 20
-1.033539
  0
VERTEX
  8
7
 62
     7
  6
CONTINUOUS
 10
-1.615823
 20
-1.019882
  0
VERTEX
  8
7
 62
     7
  6
CONTINUOUS
 10
-1.640291
 20
-1.005413
  0
VERTEX
  8
7
 62
     7
  6
CONTINUOUS
 10
-1.666598
 20
-0.990177
  0
VERTEX
  8
7
 62
     7
  6
CONTINUOUS
 10
-1.694465
 20
-0.974114
  0
VERTEX
  8
7
 62
     7
  6
CONTINUOUS
 10
-1.723268
 20
-0.957996
  0
VERTEX
  8
7
 62
     7
  6
CONTINUOUS
 10
-1.752051
 20
-0.941091
  0
VERTEX
  8
7
 62
     7
  6
CONTINUOUS
 10
-1.781736
 20
-0.924256
  0
VERTEX
  8
7
 62
     7
  6
CONTINUOUS
 10
-1.811421
 20
-0.906358
  0
VERTEX
  8
7
 62
     7
  6
CONTINUOUS
 10
-1.841142
 20
-0.889488
  0
VERTEX
  8
7
 62
     7
  6
CONTINUOUS
 10
-1.870622
 20
-0.872579
  0
VERTEX
  8
7
 62
     7
  6
CONTINUOUS
 10
-1.900252
 20
-0.855598
  0
VERTEX
  8
7
 62
     7
  6
CONTINUOUS
 10
-1.928323
 20
-0.839480
  0
VERTEX
  8
7
 62
     7
  6
CONTINUOUS
 10
-1.956280
 20
-0.823382
  0
VERTEX
  8
7
 62
     7
  6
CONTINUOUS
 10
-1.982567
 20
-0.808201
  0
VERTEX
  8
7
 62
     7
  6
CONTINUOUS
 10
-2.007039
 20
-0.793681
  0
VERTEX
  8
7
 62
     7
  6
CONTINUOUS
 10
-2.030811
 20
-0.780130
  0
VERTEX
  8
7
 62
     7
  6
CONTINUOUS
 10
-2.051886
 20
-0.767409
  0
VERTEX
  8
7
 62
     7
  6
CONTINUOUS
 10
-2.071382
 20
-0.756543
  0
VERTEX
  8
7
 62
     7
  6
CONTINUOUS
 10
-2.088437
 20
-0.747217
  0
VERTEX
  8
7
 62
     7
  6
CONTINUOUS
 10
-2.102701
 20
-0.738606
  0
VERTEX
  8
7
 62
     7
  6
CONTINUOUS
 10
-2.114650
 20
-0.731890
  0
VERTEX
  8
7
 62
     7
  6
CONTINUOUS
 10
-2.123094
 20
-0.726839
  0
VERTEX
  8
7
 62
     7
  6
CONTINUOUS
 10
-2.128106
 20
-0.723406
  0
VERTEX
  8
7
 62
     7
  6
CONTINUOUS
 10
-2.129906
 20
-0.722543
  0
VERTEX
  8
7
 62
     7
  6
CONTINUOUS
 10
-2.132366
 20
-0.721827
  0
VERTEX
  8
7
 62
     7
  6
CONTINUOUS
 10
-2.139177
 20
-0.719165
  0
VERTEX
  8
7
 62
     7
  6
CONTINUOUS
 10
-2.149382
 20
-0.714154
  0
VERTEX
  8
7
 62
     7
  6
CONTINUOUS
 10
-2.162087
 20
-0.709126
  0
VERTEX
  8
7
 62
     7
  6
CONTINUOUS
 10
-2.178169
 20
-0.702370
  0
VERTEX
  8
7
 62
     7
  6
CONTINUOUS
 10
-2.195165
 20
-0.694657
  0
VERTEX
  8
7
 62
     7
  6
CONTINUOUS
 10
-2.213764
 20
-0.686969
  0
VERTEX
  8
7
 62
     7
  6
CONTINUOUS
 10
-2.233220
 20
-0.678524
  0
VERTEX
  8
7
 62
     7
  6
CONTINUOUS
 10
-2.251819
 20
-0.670831
  0
VERTEX
  8
7
 62
     7
  6
CONTINUOUS
 10
-2.270378
 20
-0.663378
  0
VERTEX
  8
7
 62
     7
  6
CONTINUOUS
 10
-2.288311
 20
-0.655630
  0
VERTEX
  8
7
 62
     7
  6
CONTINUOUS
 10
-2.303512
 20
-0.648858
  0
VERTEX
  8
7
 62
     7
  6
CONTINUOUS
 10
-2.316197
 20
-0.643902
  0
VERTEX
  8
7
 62
     7
  6
CONTINUOUS
 10
-2.326406
 20
-0.638685
  0
VERTEX
  8
7
 62
     7
  6
CONTINUOUS
 10
-2.332280
 20
-0.636134
  0
VERTEX
  8
7
 62
     7
  6
CONTINUOUS
 10
-2.334811
 20
-0.635307
  0
VERTEX
  8
7
 62
     7
  6
CONTINUOUS
 10
-2.333933
 20
-0.665874
  0
VERTEX
  8
7
 62
     7
  6
CONTINUOUS
 10
-2.329819
 20
-0.732713
  0
VERTEX
  8
7
 62
     7
  6
CONTINUOUS
 10
-2.326406
 20
-0.800472
  0
VERTEX
  8
7
 62
     7
  6
CONTINUOUS
 10
-2.323870
 20
-0.831110
  0
VERTEX
  8
7
 62
     7
  6
CONTINUOUS
 10
-2.326406
 20
-0.859894
  0
VERTEX
  8
7
 62
     7
  6
CONTINUOUS
 10
-2.329819
 20
-0.923339
  0
VERTEX
  8
7
 62
     7
  6
CONTINUOUS
 10
-2.333933
 20
-0.986819
  0
VERTEX
  8
7
 62
     7
  6
CONTINUOUS
 10
-2.334811
 20
-1.015587
  0
VERTEX
  8
7
 62
     7
  6
CONTINUOUS
 10
-2.337291
 20
-1.026728
  0
VERTEX
  8
7
 62
     7
  6
CONTINUOUS
 10
-2.342484
 20
-1.054579
  0
VERTEX
  8
7
 62
     7
  6
CONTINUOUS
 10
-2.349295
 20
-1.094469
  0
VERTEX
  8
7
 62
     7
  6
CONTINUOUS
 10
-2.356768
 20
-1.140252
  0
VERTEX
  8
7
 62
     7
  6
CONTINUOUS
 10
-2.365358
 20
-1.185870
  0
VERTEX
  8
7
 62
     7
  6
CONTINUOUS
 10
-2.372169
 20
-1.225705
  0
VERTEX
  8
7
 62
     7
  6
CONTINUOUS
 10
-2.376283
 20
-1.253591
  0
VERTEX
  8
7
 62
     7
  6
CONTINUOUS
 10
-2.378083
 20
-1.264697
  0
VERTEX
  8
7
 62
     7
  6
CONTINUOUS
 10
-2.382303
 20
-1.267177
  0
VERTEX
  8
7
 62
     7
  6
CONTINUOUS
 10
-2.391646
 20
-1.274886
  0
VERTEX
  8
7
 62
     7
  6
CONTINUOUS
 10
-2.405929
 20
-1.285091
  0
VERTEX
  8
7
 62
     7
  6
CONTINUOUS
 10
-2.422047
 20
-1.296878
  0
VERTEX
  8
7
 62
     7
  6
CONTINUOUS
 10
-2.437228
 20
-1.309563
  0
VERTEX
  8
7
 62
     7
  6
CONTINUOUS
 10
-2.451732
 20
-1.319787
  0
VERTEX
  8
7
 62
     7
  6
CONTINUOUS
 10
-2.461039
 20
-1.327370
  0
VERTEX
  8
7
 62
     7
  6
CONTINUOUS
 10
-2.464453
 20
-1.329957
  0
VERTEX
  8
7
 62
     7
  6
CONTINUOUS
 10
-2.466933
 20
-1.329957
  0
VERTEX
  8
7
 62
     7
  6
CONTINUOUS
 10
-2.472843
 20
-1.329957
  0
VERTEX
  8
7
 62
     7
  6
CONTINUOUS
 10
-2.481433
 20
-1.329957
  0
VERTEX
  8
7
 62
     7
  6
CONTINUOUS
 10
-2.493220
 20
-1.329957
  0
VERTEX
  8
7
 62
     7
  6
CONTINUOUS
 10
-2.507665
 20
-1.329957
  0
VERTEX
  8
7
 62
     7
  6
CONTINUOUS
 10
-2.522941
 20
-1.329957
  0
VERTEX
  8
7
 62
     7
  6
CONTINUOUS
 10
-2.539866
 20
-1.329957
  0
VERTEX
  8
7
 62
     7
  6
CONTINUOUS
 10
-2.556665
 20
-1.329957
  0
VERTEX
  8
7
 62
     7
  6
CONTINUOUS
 10
-2.573681
 20
-1.329957
  0
VERTEX
  8
7
 62
     7
  6
CONTINUOUS
 10
-2.590661
 20
-1.329957
  0
VERTEX
  8
7
 62
     7
  6
CONTINUOUS
 10
-2.605862
 20
-1.329957
  0
VERTEX
  8
7
 62
     7
  6
CONTINUOUS
 10
-2.620346
 20
-1.329957
  0
VERTEX
  8
7
 62
     7
  6
CONTINUOUS
 10
-2.631232
 20
-1.329957
  0
VERTEX
  8
7
 62
     7
  6
CONTINUOUS
 10
-2.640520
 20
-1.329957
  0
VERTEX
  8
7
 62
     7
  6
CONTINUOUS
 10
-2.646413
 20
-1.329957
  0
VERTEX
  8
7
 62
     7
  6
CONTINUOUS
 10
-2.648248
 20
-1.329957
  0
VERTEX
  8
7
 62
     7
  6
CONTINUOUS
 10
-2.653260
 20
-1.326579
  0
VERTEX
  8
7
 62
     7
  6
CONTINUOUS
 10
-2.665929
 20
-1.316374
  0
VERTEX
  8
7
 62
     7
  6
CONTINUOUS
 10
-2.682909
 20
-1.302752
  0
VERTEX
  8
7
 62
     7
  6
CONTINUOUS
 10
-2.703378
 20
-1.286654
  0
VERTEX
  8
7
 62
     7
  6
CONTINUOUS
 10
-2.722799
 20
-1.270571
  0
VERTEX
  8
7
 62
     7
  6
CONTINUOUS
 10
-2.740496
 20
-1.257004
  0
VERTEX
  8
7
 62
     7
  6
CONTINUOUS
 10
-2.752465
 20
-1.246870
  0
VERTEX
  8
7
 62
     7
  6
CONTINUOUS
 10
-2.756594
 20
-1.243512
  0
VERTEX
  8
7
 62
     7
  6
CONTINUOUS
 10
-2.759972
 20
-1.235913
  0
VERTEX
  8
7
 62
     7
  6
CONTINUOUS
 10
-2.766783
 20
-1.214638
  0
VERTEX
  8
7
 62
     7
  6
CONTINUOUS
 10
-2.777890
 20
-1.185118
  0
VERTEX
  8
7
 62
     7
  6
CONTINUOUS
 10
-2.789713
 20
-1.151138
  0
VERTEX
  8
7
 62
     7
  6
CONTINUOUS
 10
-2.801480
 20
-1.117343
  0
VERTEX
  8
7
 62
     7
  6
CONTINUOUS
 10
-2.811650
 20
-1.087693
  0
VERTEX
  8
7
 62
     7
  6
CONTINUOUS
 10
-2.818461
 20
-1.066563
  0
VERTEX
  8
7
 62
     7
  6
CONTINUOUS
 10
-2.820937
 20
-1.058909
  0
VERTEX
  8
7
 62
     7
  6
CONTINUOUS
 10
-2.823472
 20
-1.047067
  0
VERTEX
  8
7
 62
     7
  6
CONTINUOUS
 10
-2.828705
 20
-1.016520
  0
VERTEX
  8
7
 62
     7
  6
CONTINUOUS
 10
-2.835476
 20
-0.973327
  0
VERTEX
  8
7
 62
     7
  6
CONTINUOUS
 10
-2.842969
 20
-0.923339
  0
VERTEX
  8
7
 62
     7
  6
CONTINUOUS
 10
-2.851539
 20
-0.873370
  0
VERTEX
  8
7
 62
     7
  6
CONTINUOUS
 10
-2.858370
 20
-0.830193
  0
VERTEX
  8
7
 62
     7
  6
CONTINUOUS
 10
-2.862465
 20
-0.799591
  0
VERTEX
  8
7
 62
     7
  6
CONTINUOUS
 10
-2.864280
 20
-0.787787
  0
VERTEX
  8
7
 62
     7
  6
CONTINUOUS
 10
-2.866760
 20
-0.726839
  0
VERTEX
  8
7
 62
     7
  6
CONTINUOUS
 10
-2.870173
 20
-0.592224
  0
VERTEX
  8
7
 62
     7
  6
CONTINUOUS
 10
-2.874453
 20
-0.457571
  0
VERTEX
  8
7
 62
     7
  6
CONTINUOUS
 10
-2.875150
 20
-0.396571
  0
VERTEX
  8
7
 62
     7
  6
CONTINUOUS
 10
-2.877811
 20
-0.393870
  0
VERTEX
  8
7
 62
     7
  6
CONTINUOUS
 10
-2.884547
 20
-0.387976
  0
VERTEX
  8
7
 62
     7
  6
CONTINUOUS
 10
-2.893067
 20
-0.379606
  0
VERTEX
  8
7
 62
     7
  6
CONTINUOUS
 10
-2.903252
 20
-0.369382
  0
VERTEX
  8
7
 62
     7
  6
CONTINUOUS
 10
-2.912563
 20
-0.359173
  0
VERTEX
  8
7
 62
     7
  6
CONTINUOUS
 10
-2.921850
 20
-0.350823
  0
VERTEX
  8
7
 62
     7
  6
CONTINUOUS
 10
-2.927724
 20
-0.344894
  0
VERTEX
  8
7
 62
     7
  6
CONTINUOUS
 10
-2.929413
 20
-0.342248
  0
VERTEX
  8
7
 62
     7
  6
CONTINUOUS
 10
-2.928622
 20
-0.257657
  0
VERTEX
  8
7
 62
     7
  6
CONTINUOUS
 10
-2.924291
 20
-0.071327
  0
VERTEX
  8
7
 62
     7
  6
CONTINUOUS
 10
-2.920913
 20
0.114945
  0
VERTEX
  8
7
 62
     7
  6
CONTINUOUS
 10
-2.918417
 20
0.199720
  0
VERTEX
  8
7
 62
     7
  6
CONTINUOUS
 10
-2.916673
 20
0.208130
  0
VERTEX
  8
7
 62
     7
  6
CONTINUOUS
 10
-2.912563
 20
0.230303
  0
VERTEX
  8
7
 62
     7
  6
CONTINUOUS
 10
-2.905768
 20
0.261622
  0
VERTEX
  8
7
 62
     7
  6
CONTINUOUS
 10
-2.897287
 20
0.298063
  0
VERTEX
  8
7
 62
     7
  6
CONTINUOUS
 10
-2.889669
 20
0.333567
  0
VERTEX
  8
7
 62
     7
  6
CONTINUOUS
 10
-2.882858
 20
0.364937
  0
VERTEX
  8
7
 62
     7
  6
CONTINUOUS
 10
-2.877811
 20
0.386949
  0
VERTEX
  8
7
 62
     7
  6
CONTINUOUS
 10
-2.875150
 20
0.395303
  0
VERTEX
  8
7
 62
     7
  6
CONTINUOUS
 10
-2.870173
 20
0.404626
  0
VERTEX
  8
7
 62
     7
  6
CONTINUOUS
 10
-2.855669
 20
0.429339
  0
VERTEX
  8
7
 62
     7
  6
CONTINUOUS
 10
-2.834559
 20
0.464031
  0
VERTEX
  8
7
 62
     7
  6
CONTINUOUS
 10
-2.810768
 20
0.503870
  0
VERTEX
  8
7
 62
     7
  6
CONTINUOUS
 10
-2.787197
 20
0.543559
  0
VERTEX
  8
7
 62
     7
  6
CONTINUOUS
 10
-2.765886
 20
0.578252
  0
VERTEX
  8
7
 62
     7
  6
CONTINUOUS
 10
-2.751602
 20
0.602961
  0
VERTEX
  8
7
 62
     7
  6
CONTINUOUS
 10
-2.745709
 20
0.612252
  0
VERTEX
  8
7
 62
     7
  6
CONTINUOUS
 10
-2.742992
 20
0.613866
  0
VERTEX
  8
7
 62
     7
  6
CONTINUOUS
 10
-2.734602
 20
0.619063
  0
VERTEX
  8
7
 62
     7
  6
CONTINUOUS
 10
-2.722799
 20
0.625819
  0
VERTEX
  8
7
 62
     7
  6
CONTINUOUS
 10
-2.708295
 20
0.634224
  0
VERTEX
  8
7
 62
     7
  6
CONTINUOUS
 10
-2.694748
 20
0.641917
  0
VERTEX
  8
7
 62
     7
  6
CONTINUOUS
 10
-2.682047
 20
0.648728
  0
VERTEX
  8
7
 62
     7
  6
CONTINUOUS
 10
-2.673638
 20
0.653720
  0
VERTEX
  8
7
 62
     7
  6
CONTINUOUS
 10
-2.670224
 20
0.655484
  0
VERTEX
  8
7
 62
     7
  6
CONTINUOUS
 10
-2.665929
 20
0.673217
  0
VERTEX
  8
7
 62
     7
  6
CONTINUOUS
 10
-2.655866
 20
0.719846
  0
VERTEX
  8
7
 62
     7
  6
CONTINUOUS
 10
-2.639748
 20
0.785858
  0
VERTEX
  8
7
 62
     7
  6
CONTINUOUS
 10
-2.621961
 20
0.862024
  0
VERTEX
  8
7
 62
     7
  6
CONTINUOUS
 10
-2.604283
 20
0.937492
  0
VERTEX
  8
7
 62
     7
  6
CONTINUOUS
 10
-2.588898
 20
1.003469
  0
VERTEX
  8
7
 62
     7
  6
CONTINUOUS
 10
-2.577094
 20
1.050169
  0
VERTEX
  8
7
 62
     7
  6
CONTINUOUS
 10
-2.572780
 20
1.067811
  0
VERTEX
  8
7
 62
     7
  6
CONTINUOUS
 10
-2.571201
 20
1.073870
  0
VERTEX
  8
7
 62
     7
  6
CONTINUOUS
 10
-2.566870
 20
1.089142
  0
VERTEX
  8
7
 62
     7
  6
CONTINUOUS
 10
-2.560059
 20
1.113614
  0
VERTEX
  8
7
 62
     7
  6
CONTINUOUS
 10
-2.551709
 20
1.145776
  0
VERTEX
  8
7
 62
     7
  6
CONTINUOUS
 10
-2.540602
 20
1.183886
  0
VERTEX
  8
7
 62
     7
  6
CONTINUOUS
 10
-2.528815
 20
1.225429
  0
VERTEX
  8
7
 62
     7
  6
CONTINUOUS
 10
-2.516094
 20
1.271142
  0
VERTEX
  8
7
 62
     7
  6
CONTINUOUS
 10
-2.503409
 20
1.317803
  0
VERTEX
  8
7
 62
     7
  6
CONTINUOUS
 10
-2.489787
 20
1.363606
  0
VERTEX
  8
7
 62
     7
  6
CONTINUOUS
 10
-2.477102
 20
1.409224
  0
VERTEX
  8
7
 62
     7
  6
CONTINUOUS
 10
-2.465335
 20
1.450732
  0
VERTEX
  8
7
 62
     7
  6
CONTINUOUS
 10
-2.454193
 20
1.488917
  0
VERTEX
  8
7
 62
     7
  6
CONTINUOUS
 10
-2.445819
 20
1.521150
  0
VERTEX
  8
7
 62
     7
  6
CONTINUOUS
 10
-2.438130
 20
1.545622
  0
VERTEX
  8
7
 62
     7
  6
CONTINUOUS
 10
-2.433906
 20
1.560823
  0
VERTEX
  8
7
 62
     7
  6
CONTINUOUS
 10
-2.432272
 20
1.566732
  0
VERTEX
  8
7
 62
     7
  6
CONTINUOUS
 10
-2.430547
 20
1.570130
  0
VERTEX
  8
7
 62
     7
  6
CONTINUOUS
 10
-2.426398
 20
1.581217
  0
VERTEX
  8
7
 62
     7
  6
CONTINUOUS
 10
-2.419551
 20
1.598197
  0
VERTEX
  8
7
 62
     7
  6
CONTINUOUS
 10
-2.411126
 20
1.619272
  0
VERTEX
  8
7
 62
     7
  6
CONTINUOUS
 10
-2.400055
 20
1.644661
  0
VERTEX
  8
7
 62
     7
  6
CONTINUOUS
 10
-2.388252
 20
1.673465
  0
VERTEX
  8
7
 62
     7
  6
CONTINUOUS
 10
-2.375567
 20
1.703165
  0
VERTEX
  8
7
 62
     7
  6
CONTINUOUS
 10
-2.362827
 20
1.735311
  0
VERTEX
  8
7
 62
     7
  6
CONTINUOUS
 10
-2.349295
 20
1.766591
  0
VERTEX
  8
7
 62
     7
  6
CONTINUOUS
 10
-2.336555
 20
1.796276
  0
VERTEX
  8
7
 62
     7
  6
CONTINUOUS
 10
-2.324606
 20
1.825079
  0
VERTEX
  8
7
 62
     7
  6
CONTINUOUS
 10
-2.313701
 20
1.850469
  0
VERTEX
  8
7
 62
     7
  6
CONTINUOUS
 10
-2.305091
 20
1.871799
  0
VERTEX
  8
7
 62
     7
  6
CONTINUOUS
 10
-2.297638
 20
1.888614
  0
VERTEX
  8
7
 62
     7
  6
CONTINUOUS
 10
-2.293287
 20
1.899665
  0
VERTEX
  8
7
 62
     7
  6
CONTINUOUS
 10
-2.291728
 20
1.903063
  0
VERTEX
  8
7
 62
     7
  6
CONTINUOUS
 10
-2.289909
 20
1.904732
  0
VERTEX
  8
7
 62
     7
  6
CONTINUOUS
 10
-2.284035
 20
1.910736
  0
VERTEX
  8
7
 62
     7
  6
CONTINUOUS
 10
-2.274728
 20
1.919161
  0
VERTEX
  8
7
 62
     7
  6
CONTINUOUS
 10
-2.263622
 20
1.930232
  0
VERTEX
  8
7
 62
     7
  6
CONTINUOUS
 10
-2.249303
 20
1.943614
  0
VERTEX
  8
7
 62
     7
  6
CONTINUOUS
 10
-2.234122
 20
1.958154
  0
VERTEX
  8
7
 62
     7
  6
CONTINUOUS
 10
-2.217157
 20
1.973315
  0
VERTEX
  8
7
 62
     7
  6
CONTINUOUS
 10
-2.200142
 20
1.990370
  0
VERTEX
  8
7
 62
     7
  6
CONTINUOUS
 10
-2.183161
 20
2.006433
  0
VERTEX
  8
7
 62
     7
  6
CONTINUOUS
 10
-2.166382
 20
2.021579
  0
VERTEX
  8
7
 62
     7
  6
CONTINUOUS
 10
-2.150980
 20
2.036118
  0
VERTEX
  8
7
 62
     7
  6
CONTINUOUS
 10
-2.136717
 20
2.049575
  0
VERTEX
  8
7
 62
     7
  6
CONTINUOUS
 10
-2.124728
 20
2.060606
  0
VERTEX
  8
7
 62
     7
  6
CONTINUOUS
 10
-2.116248
 20
2.068996
  0
VERTEX
  8
7
 62
     7
  6
CONTINUOUS
 10
-2.110409
 20
2.075091
  0
VERTEX
  8
7
 62
     7
  6
CONTINUOUS
 10
-2.107894
 20
2.076705
  0
VERTEX
  8
7
 62
     7
  6
CONTINUOUS
 10
-2.105362
 20
2.077606
  0
VERTEX
  8
7
 62
     7
  6
CONTINUOUS
 10
-2.098587
 20
2.080083
  0
VERTEX
  8
7
 62
     7
  6
CONTINUOUS
 10
-2.087500
 20
2.083516
  0
VERTEX
  8
7
 62
     7
  6
CONTINUOUS
 10
-2.073146
 20
2.088492
  0
VERTEX
  8
7
 62
     7
  6
CONTINUOUS
 10
-2.055283
 20
2.094441
  0
VERTEX
  8
7
 62
     7
  6
CONTINUOUS
 10
-2.036724
 20
2.100461
  0
VERTEX
  8
7
 62
     7
  6
CONTINUOUS
 10
-2.016327
 20
2.107988
  0
VERTEX
  8
7
 62
     7
  6
CONTINUOUS
 10
-1.995236
 20
2.114760
  0
VERTEX
  8
7
 62
     7
  6
CONTINUOUS
 10
-1.973976
 20
2.121535
  0
VERTEX
  8
7
 62
     7
  6
CONTINUOUS
 10
-1.952866
 20
2.129299
  0
VERTEX
  8
7
 62
     7
  6
CONTINUOUS
 10
-1.934252
 20
2.135193
  0
VERTEX
  8
7
 62
     7
  6
CONTINUOUS
 10
-1.916370
 20
2.141031
  0
VERTEX
  8
7
 62
     7
  6
CONTINUOUS
 10
-1.902091
 20
2.146059
  0
VERTEX
  8
7
 62
     7
  6
CONTINUOUS
 10
-1.891000
 20
2.149476
  0
VERTEX
  8
7
 62
     7
  6
CONTINUOUS
 10
-1.883307
 20
2.152154
  0
VERTEX
  8
7
 62
     7
  6
CONTINUOUS
 10
-1.880776
 20
2.152854
  0
VERTEX
  8
7
 62
     7
  6
CONTINUOUS
 10
-1.877362
 20
2.152854
  0
VERTEX
  8
7
 62
     7
  6
CONTINUOUS
 10
-1.869008
 20
2.153717
  0
VERTEX
  8
7
 62
     7
  6
CONTINUOUS
 10
-1.855425
 20
2.154689
  0
VERTEX
  8
7
 62
     7
  6
CONTINUOUS
 10
-1.837728
 20
2.156268
  0
VERTEX
  8
7
 62
     7
  6
CONTINUOUS
 10
-1.816433
 20
2.158087
  0
VERTEX
  8
7
 62
     7
  6
CONTINUOUS
 10
-1.792843
 20
2.159665
  0
VERTEX
  8
7
 62
     7
  6
CONTINUOUS
 10
-1.767343
 20
2.162197
  0
VERTEX
  8
7
 62
     7
  6
CONTINUOUS
 10
-1.741165
 20
2.163941
  0
VERTEX
  8
7
 62
     7
  6
CONTINUOUS
 10
-1.714898
 20
2.165575
  0
VERTEX
  8
7
 62
     7
  6
CONTINUOUS
 10
-1.689472
 20
2.168236
  0
VERTEX
  8
7
 62
     7
  6
CONTINUOUS
 10
-1.665681
 20
2.169815
  0
VERTEX
  8
7
 62
     7
  6
CONTINUOUS
 10
-1.644571
 20
2.171650
  0
VERTEX
  8
7
 62
     7
  6
CONTINUOUS
 10
-1.626689
 20
2.173248
  0
VERTEX
  8
7
 62
     7
  6
CONTINUOUS
 10
-1.613102
 20
2.174146
  0
VERTEX
  8
7
 62
     7
  6
CONTINUOUS
 10
-1.603795
 20
2.174937
  0
VERTEX
  8
7
 62
     7
  6
CONTINUOUS
 10
-1.600437
 20
2.174937
  0
VERTEX
  8
7
 62
     7
  6
CONTINUOUS
 10
-1.595445
 20
2.174937
  0
VERTEX
  8
7
 62
     7
  6
CONTINUOUS
 10
-1.581823
 20
2.174937
  0
VERTEX
  8
7
 62
     7
  6
CONTINUOUS
 10
-1.559831
 20
2.174937
  0
VERTEX
  8
7
 62
     7
  6
CONTINUOUS
 10
-1.531945
 20
2.174937
  0
VERTEX
  8
7
 62
     7
  6
CONTINUOUS
 10
-1.497965
 20
2.174937
  0
VERTEX
  8
7
 62
     7
  6
CONTINUOUS
 10
-1.460772
 20
2.174937
  0
VERTEX
  8
7
 62
     7
  6
CONTINUOUS
 10
-1.420882
 20
2.174937
  0
VERTEX
  8
7
 62
     7
  6
CONTINUOUS
 10
-1.379413
 20
2.174937
  0
VERTEX
  8
7
 62
     7
  6
CONTINUOUS
 10
-1.337945
 20
2.174937
  0
VERTEX
  8
7
 62
     7
  6
CONTINUOUS
 10
-1.298035
 20
2.174937
  0
VERTEX
  8
7
 62
     7
  6
CONTINUOUS
 10
-1.260898
 20
2.174937
  0
VERTEX
  8
7
 62
     7
  6
CONTINUOUS
 10
-1.226898
 20
2.174937
  0
VERTEX
  8
7
 62
     7
  6
CONTINUOUS
 10
-1.199012
 20
2.174937
  0
VERTEX
  8
7
 62
     7
  6
CONTINUOUS
 10
-1.177004
 20
2.174937
  0
VERTEX
  8
7
 62
     7
  6
CONTINUOUS
 10
-1.162520
 20
2.174937
  0
VERTEX
  8
7
 62
     7
  6
CONTINUOUS
 10
-1.157543
 20
2.174937
  0
VERTEX
  8
7
 62
     7
  6
CONTINUOUS
 10
-1.153213
 20
2.174937
  0
VERTEX
  8
7
 62
     7
  6
CONTINUOUS
 10
-1.140508
 20
2.174937
  0
VERTEX
  8
7
 62
     7
  6
CONTINUOUS
 10
-1.119413
 20
2.174937
  0
VERTEX
  8
7
 62
     7
  6
CONTINUOUS
 10
-1.090650
 20
2.174937
  0
VERTEX
  8
7
 62
     7
  6
CONTINUOUS
 10
-1.055933
 20
2.174937
  0
VERTEX
  8
7
 62
     7
  6
CONTINUOUS
 10
-1.014280
 20
2.174937
  0
VERTEX
  8
7
 62
     7
  6
CONTINUOUS
 10
-0.966882
 20
2.174937
  0
VERTEX
  8
7
 62
     7
  6
CONTINUOUS
 10
-0.915169
 20
2.174937
  0
VERTEX
  8
7
 62
     7
  6
CONTINUOUS
 10
-0.858555
 20
2.174937
  0
VERTEX
  8
7
 62
     7
  6
CONTINUOUS
 10
-0.797571
 20
2.174937
  0
VERTEX
  8
7
 62
     7
  6
CONTINUOUS
 10
-0.733228
 20
2.174937
  0
VERTEX
  8
7
 62
     7
  6
CONTINUOUS
 10
-0.666295
 20
2.174937
  0
VERTEX
  8
7
 62
     7
  6
CONTINUOUS
 10
-0.596756
 20
2.174937
  0
VERTEX
  8
7
 62
     7
  6
CONTINUOUS
 10
-0.525602
 20
2.174937
  0
VERTEX
  8
7
 62
     7
  6
CONTINUOUS
 10
-0.453717
 20
2.174937
  0
VERTEX
  8
7
 62
     7
  6
CONTINUOUS
 10
-0.380764
 20
2.174937
  0
VERTEX
  8
7
 62
     7
  6
CONTINUOUS
 10
-0.307992
 20
2.174937
  0
VERTEX
  8
7
 62
     7
  6
CONTINUOUS
 10
-0.235921
 20
2.174937
  0
VERTEX
  8
7
 62
     7
  6
CONTINUOUS
 10
-0.164768
 20
2.174937
  0
VERTEX
  8
7
 62
     7
  6
CONTINUOUS
 10
-0.095413
 20
2.174937
  0
VERTEX
  8
7
 62
     7
  6
CONTINUOUS
 10
-0.028520
 20
2.174937
  0
VERTEX
  8
7
 62
     7
  6
CONTINUOUS
 10
0.035827
 20
2.174937
  0
VERTEX
  8
7
 62
     7
  6
CONTINUOUS
 10
0.096807
 20
2.174937
  0
VERTEX
  8
7
 62
     7
  6
CONTINUOUS
 10
0.153701
 20
2.174937
  0
VERTEX
  8
7
 62
     7
  6
CONTINUOUS
 10
0.206035
 20
2.174937
  0
VERTEX
  8
7
 62
     7
  6
CONTINUOUS
 10
0.253657
 20
2.174937
  0
VERTEX
  8
7
 62
     7
  6
CONTINUOUS
 10
0.295106
 20
2.174937
  0
VERTEX
  8
7
 62
     7
  6
CONTINUOUS
 10
0.329783
 20
2.174937
  0
VERTEX
  8
7
 62
     7
  6
CONTINUOUS
 10
0.358551
 20
2.174937
  0
VERTEX
  8
7
 62
     7
  6
CONTINUOUS
 10
0.378984
 20
2.174937
  0
VERTEX
  8
7
 62
     7
  6
CONTINUOUS
 10
0.392531
 20
2.174937
  0
VERTEX
  8
7
 62
     7
  6
CONTINUOUS
 10
0.396661
 20
2.174937
  0
VERTEX
  8
7
 62
     7
  6
CONTINUOUS
 10
0.721075
 20
2.098642
  0
VERTEX
  8
7
 62
     7
  6
CONTINUOUS
 10
0.915941
 20
1.892874
  0
VERTEX
  8
7
 62
     7
  6
CONTINUOUS
 10
1.002276
 20
1.719228
  0
VERTEX
  8
7
 62
     7
  6
CONTINUOUS
 10
1.229378
 20
1.241547
  0
VERTEX
  8
7
 62
     7
  6
CONTINUOUS
 10
1.423217
 20
0.862024
  0
VERTEX
  8
7
 62
     7
  6
CONTINUOUS
 10
1.596106
 20
0.774807
  0
VERTEX
  8
7
 62
     7
  6
CONTINUOUS
 10
1.866291
 20
0.623228
  0
VERTEX
  8
7
 62
     7
  6
CONTINUOUS
 10
2.147382
 20
0.373327
  0
VERTEX
  8
7
 62
     7
  6
CONTINUOUS
 10
2.266138
 20
0.232819
  0
VERTEX
  8
7
 62
     7
  6
CONTINUOUS
 10
2.482811
 20
0.297161
  0
VERTEX
  8
7
 62
     7
  6
CONTINUOUS
 10
2.612472
 20
0.286992
  0
VERTEX
  8
7
 62
     7
  6
CONTINUOUS
 10
2.796303
 20
0.330205
  0
VERTEX
  8
7
 62
     7
  6
CONTINUOUS
 10
2.968992
 20
0.253874
  0
VERTEX
  8
7
 62
     7
  6
CONTINUOUS
 10
3.022524
 20
0.091409
  0
VERTEX
  8
7
 62
     7
  6
CONTINUOUS
 10
3.130835
 20
-0.039130
  0
VERTEX
  8
7
 62
     7
  6
CONTINUOUS
 10
3.271343
 20
-0.244937
  0
VERTEX
  8
7
 62
     7
  6
CONTINUOUS
 10
3.325531
 20
-0.505835
  0
VERTEX
  8
7
 62
     7
  6
CONTINUOUS
 10
3.335685
 20
-0.754724
  0
VERTEX
  8
7
 62
     7
  6
CONTINUOUS
 10
3.292638
 20
-1.069815
  0
VERTEX
  8
7
 62
     7
  6
CONTINUOUS
 10
3.152807
 20
-1.210543
  0
VERTEX
  8
7
 62
     7
  6
CONTINUOUS
 10
3.196094
 20
-1.286654
  0
VERTEX
  8
7
 62
     7
  6
CONTINUOUS
 10
3.172303
 20
-1.570461
  0
VERTEX
  8
7
 62
     7
  6
CONTINUOUS
 10
3.090228
 20
-1.748402
  0
VERTEX
  8
7
 62
     7
  6
CONTINUOUS
 10
2.978299
 20
-1.846520
  0
VERTEX
  8
7
 62
     7
  6
CONTINUOUS
 10
2.874949
 20
-1.866016
  0
VERTEX
  8
7
 62
     7
  6
CONTINUOUS
 10
2.735339
 20
-1.808429
  0
VERTEX
  8
7
 62
     7
  6
CONTINUOUS
 10
2.660752
 20
-1.682220
  0
VERTEX
  8
7
 62
     7
  6
CONTINUOUS
 10
2.648067
 20
-1.596748
  0
VERTEX
  8
7
 62
     7
  6
CONTINUOUS
 10
2.656457
 20
-1.536555
  0
VERTEX
  8
7
 62
     7
  6
CONTINUOUS
 10
2.558299
 20
-1.568791
  0
VERTEX
  8
7
 62
     7
  6
CONTINUOUS
 10
1.423217
 20
-1.708472
  0
VERTEX
  8
7
 62
     7
  6
CONTINUOUS
 10
1.418220
 20
-1.711024
  0
VERTEX
  8
7
 62
     7
  6
CONTINUOUS
 10
1.404583
 20
-1.716181
  0
VERTEX
  8
7
 62
     7
  6
CONTINUOUS
 10
1.386024
 20
-1.722976
  0
VERTEX
  8
7
 62
     7
  6
CONTINUOUS
 10
1.364012
 20
-1.730500
  0
VERTEX
  8
7
 62
     7
  6
CONTINUOUS
 10
1.342020
 20
-1.739039
  0
VERTEX
  8
7
 62
     7
  6
CONTINUOUS
 10
1.323260
 20
-1.745866
  0
VERTEX
  8
7
 62
     7
  6
CONTINUOUS
 10
1.309874
 20
-1.749961
  0
VERTEX
  8
7
 62
     7
  6
CONTINUOUS
 10
1.304626
 20
-1.751760
  0
VERTEX
  8
7
 62
     7
  6
CONTINUOUS
 10
1.302165
 20
-1.749961
  0
VERTEX
  8
7
 62
     7
  6
CONTINUOUS
 10
1.294437
 20
-1.744067
  0
VERTEX
  8
7
 62
     7
  6
CONTINUOUS
 10
1.284303
 20
-1.734780
  0
VERTEX
  8
7
 62
     7
  6
CONTINUOUS
 10
1.272500
 20
-1.725508
  0
VERTEX
  8
7
 62
     7
  6
CONTINUOUS
 10
1.259740
 20
-1.715283
  0
VERTEX
  8
7
 62
     7
  6
CONTINUOUS
 10
1.249591
 20
-1.706913
  0
VERTEX
  8
7
 62
     7
  6
CONTINUOUS
 10
1.242083
 20
-1.700102
  0
VERTEX
  8
7
 62
     7
  6
CONTINUOUS
 10
1.239437
 20
-1.697512
  0
VERTEX
  8
7
 62
     7
  6
CONTINUOUS
 10
1.237803
 20
-1.697512
  0
VERTEX
  8
7
 62
     7
  6
CONTINUOUS
 10
1.232701
 20
-1.697512
  0
VERTEX
  8
7
 62
     7
  6
CONTINUOUS
 10
1.225118
 20
-1.698283
  0
VERTEX
  8
7
 62
     7
  6
CONTINUOUS
 10
1.214874
 20
-1.698283
  0
VERTEX
  8
7
 62
     7
  6
CONTINUOUS
 10
1.202209
 20
-1.699201
  0
VERTEX
  8
7
 62
     7
  6
CONTINUOUS
 10
1.186988
 20
-1.700102
  0
VERTEX
  8
7
 62
     7
  6
CONTINUOUS
 10
1.169110
 20
-1.700874
  0
VERTEX
  8
7
 62
     7
  6
CONTINUOUS
 10
1.149650
 20
-1.700874
  0
VERTEX
  8
7
 62
     7
  6
CONTINUOUS
 10
1.129421
 20
-1.701661
  0
VERTEX
  8
7
 62
     7
  6
CONTINUOUS
 10
1.106528
 20
-1.702598
  0
VERTEX
  8
7
 62
     7
  6
CONTINUOUS
 10
1.082736
 20
-1.704197
  0
VERTEX
  8
7
 62
     7
  6
CONTINUOUS
 10
1.058248
 20
-1.705075
  0
VERTEX
  8
7
 62
     7
  6
CONTINUOUS
 10
1.032898
 20
-1.706012
  0
VERTEX
  8
7
 62
     7
  6
CONTINUOUS
 10
1.006626
 20
-1.706913
  0
VERTEX
  8
7
 62
     7
  6
CONTINUOUS
 10
0.980303
 20
-1.707575
  0
VERTEX
  8
7
 62
     7
  6
CONTINUOUS
 10
0.953098
 20
-1.708472
  0
VERTEX
  8
7
 62
     7
  6
CONTINUOUS
 10
0.926130
 20
-1.709409
  0
VERTEX
  8
7
 62
     7
  6
CONTINUOUS
 10
0.899843
 20
-1.711024
  0
VERTEX
  8
7
 62
     7
  6
CONTINUOUS
 10
0.873535
 20
-1.711886
  0
VERTEX
  8
7
 62
     7
  6
CONTINUOUS
 10
0.848165
 20
-1.712803
  0
VERTEX
  8
7
 62
     7
  6
CONTINUOUS
 10
0.823657
 20
-1.713650
  0
VERTEX
  8
7
 62
     7
  6
CONTINUOUS
 10
0.799902
 20
-1.714366
  0
VERTEX
  8
7
 62
     7
  6
CONTINUOUS
 10
0.776992
 20
-1.715283
  0
VERTEX
  8
7
 62
     7
  6
CONTINUOUS
 10
0.756614
 20
-1.716181
  0
VERTEX
  8
7
 62
     7
  6
CONTINUOUS
 10
0.737083
 20
-1.716181
  0
VERTEX
  8
7
 62
     7
  6
CONTINUOUS
 10
0.719441
 20
-1.716992
  0
VERTEX
  8
7
 62
     7
  6
CONTINUOUS
 10
0.704240
 20
-1.717780
  0
VERTEX
  8
7
 62
     7
  6
CONTINUOUS
 10
0.691500
 20
-1.717780
  0
VERTEX
  8
7
 62
     7
  6
CONTINUOUS
 10
0.681331
 20
-1.718661
  0
VERTEX
  8
7
 62
     7
  6
CONTINUOUS
 10
0.673638
 20
-1.718661
  0
VERTEX
  8
7
 62
     7
  6
CONTINUOUS
 10
0.668646
 20
-1.718661
  0
VERTEX
  8
7
 62
     7
  6
CONTINUOUS
 10
0.666831
 20
-1.718661
  0
VERTEX
  8
7
 62
     7
  6
CONTINUOUS
 10
0.661854
 20
-1.718661
  0
VERTEX
  8
7
 62
     7
  6
CONTINUOUS
 10
0.646654
 20
-1.717780
  0
VERTEX
  8
7
 62
     7
  6
CONTINUOUS
 10
0.623819
 20
-1.716181
  0
VERTEX
  8
7
 62
     7
  6
CONTINUOUS
 10
0.594079
 20
-1.714366
  0
VERTEX
  8
7
 62
     7
  6
CONTINUOUS
 10
0.559346
 20
-1.711886
  0
VERTEX
  8
7
 62
     7
  6
CONTINUOUS
 10
0.520409
 20
-1.709409
  0
VERTEX
  8
7
 62
     7
  6
CONTINUOUS
 10
0.478039
 20
-1.706012
  0
VERTEX
  8
7
 62
     7
  6
CONTINUOUS
 10
0.434736
 20
-1.703516
  0
VERTEX
  8
7
 62
     7
  6
CONTINUOUS
 10
0.391685
 20
-1.700102
  0
VERTEX
  8
7
 62
     7
  6
CONTINUOUS
 10
0.349299
 20
-1.697512
  0
VERTEX
  8
7
 62
     7
  6
CONTINUOUS
 10
0.310272
 20
-1.694189
  0
VERTEX
  8
7
 62
     7
  6
CONTINUOUS
 10
0.275630
 20
-1.691472
  0
VERTEX
  8
7
 62
     7
  6
CONTINUOUS
 10
0.245909
 20
-1.689913
  0
VERTEX
  8
7
 62
     7
  6
CONTINUOUS
 10
0.223055
 20
-1.688169
  0
VERTEX
  8
7
 62
     7
  6
CONTINUOUS
 10
0.207854
 20
-1.687362
  0
VERTEX
  8
7
 62
     7
  6
CONTINUOUS
 10
0.202713
 20
-1.686500
  0
VERTEX
  8
7
 62
     7
  6
CONTINUOUS
 10
0.201043
 20
-1.683102
  0
VERTEX
  8
7
 62
     7
  6
CONTINUOUS
 10
0.196012
 20
-1.673815
  0
VERTEX
  8
7
 62
     7
  6
CONTINUOUS
 10
0.189256
 20
-1.659346
  0
VERTEX
  8
7
 62
     7
  6
CONTINUOUS
 10
0.181547
 20
-1.644075
  0
VERTEX
  8
7
 62
     7
  6
CONTINUOUS
 10
0.173157
 20
-1.628012
  0
VERTEX
  8
7
 62
     7
  6
CONTINUOUS
 10
0.166346
 20
-1.614425
  0
VERTEX
  8
7
 62
     7
  6
CONTINUOUS
 10
0.161154
 20
-1.604295
  0
VERTEX
  8
7
 62
     7
  6
CONTINUOUS
 10
0.159591
 20
-1.600898
  0
VERTEX
  8
7
 62
     7
  6
CONTINUOUS
 10
0.156177
 20
-1.600898
  0
VERTEX
  8
7
 62
     7
  6
CONTINUOUS
 10
0.146925
 20
-1.601724
  0
VERTEX
  8
7
 62
     7
  6
CONTINUOUS
 10
0.131705
 20
-1.601724
  0
VERTEX
  8
7
 62
     7
  6
CONTINUOUS
 10
0.112193
 20
-1.602642
  0
VERTEX
  8
7
 62
     7
  6
CONTINUOUS
 10
0.089339
 20
-1.602642
  0
VERTEX
  8
7
 62
     7
  6
CONTINUOUS
 10
0.063929
 20
-1.603539
  0
VERTEX
  8
7
 62
     7
  6
CONTINUOUS
 10
0.036724
 20
-1.603539
  0
VERTEX
  8
7
 62
     7
  6
CONTINUOUS
 10
0.008878
 20
-1.603539
  0
VERTEX
  8
7
 62
     7
  6
CONTINUOUS
 10
-0.019890
 20
-1.603539
  0
VERTEX
  8
7
 62
     7
  6
CONTINUOUS
 10
-0.047114
 20
-1.603539
  0
VERTEX
  8
7
 62
     7
  6
CONTINUOUS
 10
-0.072520
 20
-1.602642
  0
VERTEX
  8
7
 62
     7
  6
CONTINUOUS
 10
-0.095413
 20
-1.600898
  0
VERTEX
  8
7
 62
     7
  6
CONTINUOUS
 10
-0.114890
 20
-1.599244
  0
VERTEX
  8
7
 62
     7
  6
CONTINUOUS
 10
-0.130071
 20
-1.597650
  0
VERTEX
  8
7
 62
     7
  6
CONTINUOUS
 10
-0.139343
 20
-1.594232
  0
SEQEND
  8
0
  0
POLYLINE
  8
7
 62
     7
  6
CONTINUOUS
 66
     1
 40
0.003000
 41
0.003000
  0
VERTEX
  8
7
 62
     7
  6
CONTINUOUS
 10
-2.649827
 20
0.677512
  0
VERTEX
  8
7
 62
     7
  6
CONTINUOUS
 10
-2.563457
 20
0.645331
  0
VERTEX
  8
7
 62
     7
  6
CONTINUOUS
 10
-2.477102
 20
0.472421
  0
VERTEX
  8
7
 62
     7
  6
CONTINUOUS
 10
-2.475543
 20
0.425004
  0
VERTEX
  8
7
 62
     7
  6
CONTINUOUS
 10
-2.471228
 20
0.320071
  0
VERTEX
  8
7
 62
     7
  6
CONTINUOUS
 10
-2.467850
 20
0.215819
  0
VERTEX
  8
7
 62
     7
  6
CONTINUOUS
 10
-2.466031
 20
0.169248
  0
VERTEX
  8
7
 62
     7
  6
CONTINUOUS
 10
-2.469465
 20
0.100701
  0
VERTEX
  8
7
 62
     7
  6
CONTINUOUS
 10
-2.477102
 20
-0.048417
  0
VERTEX
  8
7
 62
     7
  6
CONTINUOUS
 10
-2.484831
 20
-0.197409
  0
VERTEX
  8
7
 62
     7
  6
CONTINUOUS
 10
-2.488209
 20
-0.265146
  0
VERTEX
  8
7
 62
     7
  6
CONTINUOUS
 10
-2.488209
 20
-0.301587
  0
VERTEX
  8
7
 62
     7
  6
CONTINUOUS
 10
-2.488209
 20
-0.379606
  0
VERTEX
  8
7
 62
     7
  6
CONTINUOUS
 10
-2.488209
 20
-0.458252
  0
VERTEX
  8
7
 62
     7
  6
CONTINUOUS
 10
-2.488209
 20
-0.493130
  0
VERTEX
  8
7
 62
     7
  6
CONTINUOUS
 10
-2.494138
 20
-0.493846
  0
VERTEX
  8
7
 62
     7
  6
CONTINUOUS
 10
-2.508421
 20
-0.496528
  0
VERTEX
  8
7
 62
     7
  6
CONTINUOUS
 10
-2.528815
 20
-0.500618
  0
VERTEX
  8
7
 62
     7
  6
CONTINUOUS
 10
-2.552587
 20
-0.503996
  0
VERTEX
  8
7
 62
     7
  6
CONTINUOUS
 10
-2.577094
 20
-0.508366
  0
VERTEX
  8
7
 62
     7
  6
CONTINUOUS
 10
-2.597472
 20
-0.511744
  0
VERTEX
  8
7
 62
     7
  6
CONTINUOUS
 10
-2.611756
 20
-0.513323
  0
VERTEX
  8
7
 62
     7
  6
CONTINUOUS
 10
-2.617701
 20
-0.514205
  0
VERTEX
  8
7
 62
     7
  6
CONTINUOUS
 10
-2.619465
 20
-0.513323
  0
VERTEX
  8
7
 62
     7
  6
CONTINUOUS
 10
-2.624441
 20
-0.512646
  0
VERTEX
  8
7
 62
     7
  6
CONTINUOUS
 10
-2.633051
 20
-0.509925
  0
VERTEX
  8
7
 62
     7
  6
CONTINUOUS
 10
-2.643091
 20
-0.506567
  0
VERTEX
  8
7
 62
     7
  6
CONTINUOUS
 10
-2.655059
 20
-0.502457
  0
VERTEX
  8
7
 62
     7
  6
CONTINUOUS
 10
-2.668591
 20
-0.497205
  0
VERTEX
  8
7
 62
     7
  6
CONTINUOUS
 10
-2.682909
 20
-0.493130
  0
VERTEX
  8
7
 62
     7
  6
CONTINUOUS
 10
-2.698146
 20
-0.487953
  0
VERTEX
  8
7
 62
     7
  6
CONTINUOUS
 10
-2.713528
 20
-0.482941
  0
VERTEX
  8
7
 62
     7
  6
CONTINUOUS
 10
-2.727791
 20
-0.477748
  0
VERTEX
  8
7
 62
     7
  6
CONTINUOUS
 10
-2.741378
 20
-0.472752
  0
VERTEX
  8
7
 62
     7
  6
CONTINUOUS
 10
-2.753181
 20
-0.469339
  0
VERTEX
  8
7
 62
     7
  6
CONTINUOUS
 10
-2.763370
 20
-0.465043
  0
VERTEX
  8
7
 62
     7
  6
CONTINUOUS
 10
-2.771134
 20
-0.462528
  0
VERTEX
  8
7
 62
     7
  6
CONTINUOUS
 10
-2.776055
 20
-0.460969
  0
VERTEX
  8
7
 62
     7
  6
CONTINUOUS
 10
-2.777890
 20
-0.460051
  0
VERTEX
  8
7
 62
     7
  6
CONTINUOUS
 10
-2.782902
 20
-0.458252
  0
VERTEX
  8
7
 62
     7
  6
CONTINUOUS
 10
-2.795587
 20
-0.452303
  0
VERTEX
  8
7
 62
     7
  6
CONTINUOUS
 10
-2.812587
 20
-0.443969
  0
VERTEX
  8
7
 62
     7
  6
CONTINUOUS
 10
-2.832965
 20
-0.433744
  0
VERTEX
  8
7
 62
     7
  6
CONTINUOUS
 10
-2.852295
 20
-0.423555
  0
VERTEX
  8
7
 62
     7
  6
CONTINUOUS
 10
-2.870173
 20
-0.415165
  0
VERTEX
  8
7
 62
     7
  6
CONTINUOUS
 10
-2.881921
 20
-0.409291
  0
VERTEX
  8
7
 62
     7
  6
CONTINUOUS
 10
-2.887154
 20
-0.406610
  0
SEQEND
  8
0
  0
POLYLINE
  8
7
 62
     7
  6
CONTINUOUS
 66
     1
 40
0.003000
 41
0.003000
  0
VERTEX
  8
7
 62
     7
  6
CONTINUOUS
 10
-2.920051
 20
-0.222906
  0
VERTEX
  8
7
 62
     7
  6
CONTINUOUS
 10
-2.704094
 20
-0.374484
  0
VERTEX
  8
7
 62
     7
  6
CONTINUOUS
 10
-2.574618
 20
-0.416764
  0
VERTEX
  8
7
 62
     7
  6
CONTINUOUS
 10
-2.571201
 20
-0.415165
  0
VERTEX
  8
7
 62
     7
  6
CONTINUOUS
 10
-2.562630
 20
-0.410815
  0
VERTEX
  8
7
 62
     7
  6
CONTINUOUS
 10
-2.550752
 20
-0.404059
  0
VERTEX
  8
7
 62
     7
  6
CONTINUOUS
 10
-2.536469
 20
-0.395689
  0
VERTEX
  8
7
 62
     7
  6
CONTINUOUS
 10
-2.522941
 20
-0.387976
  0
VERTEX
  8
7
 62
     7
  6
CONTINUOUS
 10
-2.511008
 20
-0.381205
  0
VERTEX
  8
7
 62
     7
  6
CONTINUOUS
 10
-2.502472
 20
-0.376193
  0
VERTEX
  8
7
 62
     7
  6
CONTINUOUS
 10
-2.499094
 20
-0.374484
  0
SEQEND
  8
0
  0
POLYLINE
  8
7
 62
     7
  6
CONTINUOUS
 66
     1
 40
0.003000
 41
0.003000
  0
VERTEX
  8
7
 62
     7
  6
CONTINUOUS
 10
-2.606760
 20
-0.538016
  0
VERTEX
  8
7
 62
     7
  6
CONTINUOUS
 10
-2.574618
 20
-0.884346
  0
VERTEX
  8
7
 62
     7
  6
CONTINUOUS
 10
-2.648248
 20
-1.111394
  0
VERTEX
  8
7
 62
     7
  6
CONTINUOUS
 10
-2.652508
 20
-1.110587
  0
VERTEX
  8
7
 62
     7
  6
CONTINUOUS
 10
-2.664366
 20
-1.108071
  0
VERTEX
  8
7
 62
     7
  6
CONTINUOUS
 10
-2.679512
 20
-1.104673
  0
VERTEX
  8
7
 62
     7
  6
CONTINUOUS
 10
-2.697409
 20
-1.101280
  0
VERTEX
  8
7
 62
     7
  6
CONTINUOUS
 10
-2.715106
 20
-1.096945
  0
VERTEX
  8
7
 62
     7
  6
CONTINUOUS
 10
-2.731189
 20
-1.093531
  0
VERTEX
  8
7
 62
     7
  6
CONTINUOUS
 10
-2.741378
 20
-1.090154
  0
VERTEX
  8
7
 62
     7
  6
CONTINUOUS
 10
-2.745709
 20
-1.089291
  0
VERTEX
  8
7
 62
     7
  6
CONTINUOUS
 10
-2.749067
 20
-1.081783
  0
VERTEX
  8
7
 62
     7
  6
CONTINUOUS
 10
-2.757496
 20
-1.061370
  0
VERTEX
  8
7
 62
     7
  6
CONTINUOUS
 10
-2.770181
 20
-1.031705
  0
VERTEX
  8
7
 62
     7
  6
CONTINUOUS
 10
-2.783819
 20
-0.997945
  0
VERTEX
  8
7
 62
     7
  6
CONTINUOUS
 10
-2.798067
 20
-0.964827
  0
VERTEX
  8
7
 62
     7
  6
CONTINUOUS
 10
-2.810051
 20
-0.935142
  0
VERTEX
  8
7
 62
     7
  6
CONTINUOUS
 10
-2.818461
 20
-0.914067
  0
VERTEX
  8
7
 62
     7
  6
CONTINUOUS
 10
-2.821874
 20
-0.906358
  0
SEQEND
  8
0
  0
POLYLINE
  8
7
 62
     7
  6
CONTINUOUS
 66
     1
 40
0.003000
 41
0.003000
  0
VERTEX
  8
7
 62
     7
  6
CONTINUOUS
 10
-2.499094
 20
-0.483823
  0
VERTEX
  8
7
 62
     7
  6
CONTINUOUS
 10
-2.293287
 20
-0.613280
  0
VERTEX
  8
7
 62
     7
  6
CONTINUOUS
 10
-2.142591
 20
-0.698972
  0
VERTEX
  8
7
 62
     7
  6
CONTINUOUS
 10
-2.140075
 20
-0.669252
  0
VERTEX
  8
7
 62
     7
  6
CONTINUOUS
 10
-2.131449
 20
-0.585413
  0
VERTEX
  8
7
 62
     7
  6
CONTINUOUS
 10
-2.118780
 20
-0.454984
  0
VERTEX
  8
7
 62
     7
  6
CONTINUOUS
 10
-2.102004
 20
-0.285524
  0
VERTEX
  8
7
 62
     7
  6
CONTINUOUS
 10
-2.082488
 20
-0.085610
  0
VERTEX
  8
7
 62
     7
  6
CONTINUOUS
 10
-2.060386
 20
0.137799
  0
VERTEX
  8
7
 62
     7
  6
CONTINUOUS
 10
-2.036724
 20
0.376724
  0
VERTEX
  8
7
 62
     7
  6
CONTINUOUS
 10
-2.012051
 20
0.624035
  0
VERTEX
  8
7
 62
     7
  6
CONTINUOUS
 10
-1.988480
 20
0.870598
  0
VERTEX
  8
7
 62
     7
  6
CONTINUOUS
 10
-1.964614
 20
1.109484
  0
VERTEX
  8
7
 62
     7
  6
CONTINUOUS
 10
-1.942642
 20
1.333024
  0
VERTEX
  8
7
 62
     7
  6
CONTINUOUS
 10
-1.923146
 20
1.533835
  0
VERTEX
  8
7
 62
     7
  6
CONTINUOUS
 10
-1.906181
 20
1.703165
  0
VERTEX
  8
7
 62
     7
  6
CONTINUOUS
 10
-1.893480
 20
1.833654
  0
VERTEX
  8
7
 62
     7
  6
CONTINUOUS
 10
-1.885126
 20
1.917508
  0
VERTEX
  8
7
 62
     7
  6
CONTINUOUS
 10
-1.882650
 20
1.947028
  0
VERTEX
  8
7
 62
     7
  6
CONTINUOUS
 10
-2.034244
 20
1.903063
  0
VERTEX
  8
7
 62
     7
  6
CONTINUOUS
 10
-2.218004
 20
1.708197
  0
VERTEX
  8
7
 62
     7
  6
CONTINUOUS
 10
-2.336555
 20
1.458350
  0
VERTEX
  8
7
 62
     7
  6
CONTINUOUS
 10
-2.401689
 20
1.230606
  0
VERTEX
  8
7
 62
     7
  6
CONTINUOUS
 10
-2.401689
 20
0.981512
  0
VERTEX
  8
7
 62
     7
  6
CONTINUOUS
 10
-2.347516
 20
0.894205
  0
VERTEX
  8
7
 62
     7
  6
CONTINUOUS
 10
-2.206953
 20
0.872213
  0
VERTEX
  8
7
 62
     7
  6
CONTINUOUS
 10
-2.034244
 20
0.851157
  0
VERTEX
  8
7
 62
     7
  6
CONTINUOUS
 10
-1.861315
 20
0.818075
  0
VERTEX
  8
7
 62
     7
  6
CONTINUOUS
 10
-1.525925
 20
0.796945
  0
VERTEX
  8
7
 62
     7
  6
CONTINUOUS
 10
-1.396394
 20
0.796945
  0
VERTEX
  8
7
 62
     7
  6
CONTINUOUS
 10
-1.332051
 20
0.894205
  0
VERTEX
  8
7
 62
     7
  6
CONTINUOUS
 10
-1.320925
 20
1.100028
  0
VERTEX
  8
7
 62
     7
  6
CONTINUOUS
 10
-1.342937
 20
1.426169
  0
VERTEX
  8
7
 62
     7
  6
CONTINUOUS
 10
-1.418421
 20
1.631957
  0
VERTEX
  8
7
 62
     7
  6
CONTINUOUS
 10
-1.504740
 20
1.838701
  0
VERTEX
  8
7
 62
     7
  6
CONTINUOUS
 10
-1.623276
 20
1.914114
  0
VERTEX
  8
7
 62
     7
  6
CONTINUOUS
 10
-1.872406
 20
1.958154
  0
SEQEND
  8
0
  0
POLYLINE
  8
7
 62
     7
  6
CONTINUOUS
 66
     1
 40
0.003000
 41
0.003000
  0
VERTEX
  8
7
 62
     7
  6
CONTINUOUS
 10
-1.482803
 20
-1.069815
  0
VERTEX
  8
7
 62
     7
  6
CONTINUOUS
 10
-1.396394
 20
-0.776902
  0
VERTEX
  8
7
 62
     7
  6
CONTINUOUS
 10
-1.310059
 20
-0.418579
  0
VERTEX
  8
7
 62
     7
  6
CONTINUOUS
 10
-1.169291
 20
-0.201630
  0
VERTEX
  8
7
 62
     7
  6
CONTINUOUS
 10
-0.910232
 20
-0.201630
  0
VERTEX
  8
7
 62
     7
  6
CONTINUOUS
 10
-0.791657
 20
-0.396571
  0
VERTEX
  8
7
 62
     7
  6
CONTINUOUS
 10
-0.705142
 20
-0.668315
  0
VERTEX
  8
7
 62
     7
  6
CONTINUOUS
 10
-0.596756
 20
-0.993575
  0
VERTEX
  8
7
 62
     7
  6
CONTINUOUS
 10
-0.434937
 20
-1.295980
  0
VERTEX
  8
7
 62
     7
  6
CONTINUOUS
 10
-0.433358
 20
-1.298457
  0
VERTEX
  8
7
 62
     7
  6
CONTINUOUS
 10
-0.428217
 20
-1.305268
  0
VERTEX
  8
7
 62
     7
  6
CONTINUOUS
 10
-0.419752
 20
-1.315437
  0
VERTEX
  8
7
 62
     7
  6
CONTINUOUS
 10
-0.409583
 20
-1.329059
  0
VERTEX
  8
7
 62
     7
  6
CONTINUOUS
 10
-0.397744
 20
-1.344240
  0
VERTEX
  8
7
 62
     7
  6
CONTINUOUS
 10
-0.384157
 20
-1.362138
  0
VERTEX
  8
7
 62
     7
  6
CONTINUOUS
 10
-0.368996
 20
-1.380772
  0
VERTEX
  8
7
 62
     7
  6
CONTINUOUS
 10
-0.353795
 20
-1.399295
  0
VERTEX
  8
7
 62
     7
  6
CONTINUOUS
 10
-0.339276
 20
-1.418791
  0
VERTEX
  8
7
 62
     7
  6
CONTINUOUS
 10
-0.324130
 20
-1.437406
  0
VERTEX
  8
7
 62
     7
  6
CONTINUOUS
 10
-0.310508
 20
-1.454386
  0
VERTEX
  8
7
 62
     7
  6
CONTINUOUS
 10
-0.298705
 20
-1.470484
  0
VERTEX
  8
7
 62
     7
  6
CONTINUOUS
 10
-0.288516
 20
-1.483169
  0
VERTEX
  8
7
 62
     7
  6
CONTINUOUS
 10
-0.279996
 20
-1.493413
  0
VERTEX
  8
7
 62
     7
  6
CONTINUOUS
 10
-0.274894
 20
-1.499252
  0
VERTEX
  8
7
 62
     7
  6
CONTINUOUS
 10
-0.273299
 20
-1.501783
  0
VERTEX
  8
7
 62
     7
  6
CONTINUOUS
 10
-0.267240
 20
-1.506098
  0
VERTEX
  8
7
 62
     7
  6
CONTINUOUS
 10
-0.252921
 20
-1.517846
  0
VERTEX
  8
7
 62
     7
  6
CONTINUOUS
 10
-0.231791
 20
-1.533268
  0
VERTEX
  8
7
 62
     7
  6
CONTINUOUS
 10
-0.208091
 20
-1.550929
  0
VERTEX
  8
7
 62
     7
  6
CONTINUOUS
 10
-0.184244
 20
-1.569524
  0
VERTEX
  8
7
 62
     7
  6
CONTINUOUS
 10
-0.163169
 20
-1.584925
  0
VERTEX
  8
7
 62
     7
  6
CONTINUOUS
 10
-0.148650
 20
-1.595811
  0
VERTEX
  8
7
 62
     7
  6
CONTINUOUS
 10
-0.142756
 20
-1.600146
  0
SEQEND
  8
0
  0
POLYLINE
  8
7
 62
     7
  6
CONTINUOUS
 66
     1
 40
0.003000
 41
0.003000
  0
VERTEX
  8
7
 62
     7
  6
CONTINUOUS
 10
-1.191323
 20
-1.362890
  0
VERTEX
  8
7
 62
     7
  6
CONTINUOUS
 10
-1.148256
 20
-1.036882
  0
VERTEX
  8
7
 62
     7
  6
CONTINUOUS
 10
-1.082921
 20
-0.754724
  0
VERTEX
  8
7
 62
     7
  6
CONTINUOUS
 10
-0.986413
 20
-0.700531
  0
VERTEX
  8
7
 62
     7
  6
CONTINUOUS
 10
-0.823858
 20
-0.733650
  0
VERTEX
  8
7
 62
     7
  6
CONTINUOUS
 10
-0.694236
 20
-0.863272
  0
VERTEX
  8
7
 62
     7
  6
CONTINUOUS
 10
-0.618768
 20
-1.102031
  0
VERTEX
  8
7
 62
     7
  6
CONTINUOUS
 10
-0.596756
 20
-1.329957
  0
VERTEX
  8
7
 62
     7
  6
CONTINUOUS
 10
-0.575681
 20
-1.610295
  0
VERTEX
  8
7
 62
     7
  6
CONTINUOUS
 10
-0.577260
 20
-1.624579
  0
VERTEX
  8
7
 62
     7
  6
CONTINUOUS
 10
-0.580693
 20
-1.662028
  0
VERTEX
  8
7
 62
     7
  6
CONTINUOUS
 10
-0.585815
 20
-1.714366
  0
VERTEX
  8
7
 62
     7
  6
CONTINUOUS
 10
-0.591783
 20
-1.773807
  0
VERTEX
  8
7
 62
     7
  6
CONTINUOUS
 10
-0.597713
 20
-1.833799
  0
VERTEX
  8
7
 62
     7
  6
CONTINUOUS
 10
-0.602669
 20
-1.885512
  0
VERTEX
  8
7
 62
     7
  6
CONTINUOUS
 10
-0.606047
 20
-1.922850
  0
VERTEX
  8
7
 62
     7
  6
CONTINUOUS
 10
-0.607882
 20
-1.936291
  0
VERTEX
  8
7
 62
     7
  6
CONTINUOUS
 10
-0.611992
 20
-1.943980
  0
VERTEX
  8
7
 62
     7
  6
CONTINUOUS
 10
-0.624661
 20
-1.964378
  0
VERTEX
  8
7
 62
     7
  6
CONTINUOUS
 10
-0.641622
 20
-1.992280
  0
VERTEX
  8
7
 62
     7
  6
CONTINUOUS
 10
-0.662055
 20
-2.023524
  0
VERTEX
  8
7
 62
     7
  6
CONTINUOUS
 10
-0.681531
 20
-2.055705
  0
VERTEX
  8
7
 62
     7
  6
CONTINUOUS
 10
-0.699173
 20
-2.083776
  0
VERTEX
  8
7
 62
     7
  6
CONTINUOUS
 10
-0.711197
 20
-2.103287
  0
VERTEX
  8
7
 62
     7
  6
CONTINUOUS
 10
-0.716228
 20
-2.109953
  0
VERTEX
  8
7
 62
     7
  6
CONTINUOUS
 10
-0.722083
 20
-2.108319
  0
VERTEX
  8
7
 62
     7
  6
CONTINUOUS
 10
-0.736587
 20
-2.103287
  0
VERTEX
  8
7
 62
     7
  6
CONTINUOUS
 10
-0.756815
 20
-2.096496
  0
VERTEX
  8
7
 62
     7
  6
CONTINUOUS
 10
-0.780591
 20
-2.088823
  0
VERTEX
  8
7
 62
     7
  6
CONTINUOUS
 10
-0.805079
 20
-2.080398
  0
VERTEX
  8
7
 62
     7
  6
CONTINUOUS
 10
-0.825472
 20
-2.073642
  0
VERTEX
  8
7
 62
     7
  6
CONTINUOUS
 10
-0.839941
 20
-2.068425
  0
VERTEX
  8
7
 62
     7
  6
CONTINUOUS
 10
-0.845886
 20
-2.065929
  0
VERTEX
  8
7
 62
     7
  6
CONTINUOUS
 10
-0.850807
 20
-2.059102
  0
VERTEX
  8
7
 62
     7
  6
CONTINUOUS
 10
-0.864465
 20
-2.039661
  0
VERTEX
  8
7
 62
     7
  6
CONTINUOUS
 10
-0.883024
 20
-2.011776
  0
VERTEX
  8
7
 62
     7
  6
CONTINUOUS
 10
-0.905035
 20
-1.979594
  0
VERTEX
  8
7
 62
     7
  6
CONTINUOUS
 10
-0.927083
 20
-1.948315
  0
VERTEX
  8
7
 62
     7
  6
CONTINUOUS
 10
-0.945807
 20
-1.920173
  0
VERTEX
  8
7
 62
     7
  6
CONTINUOUS
 10
-0.959339
 20
-1.899996
  0
VERTEX
  8
7
 62
     7
  6
CONTINUOUS
 10
-0.964406
 20
-1.892287
  0
VERTEX
  8
7
 62
     7
  6
CONTINUOUS
 10
-0.967854
 20
-1.882079
  0
VERTEX
  8
7
 62
     7
  6
CONTINUOUS
 10
-0.976189
 20
-1.855866
  0
VERTEX
  8
7
 62
     7
  6
CONTINUOUS
 10
-0.988177
 20
-1.817717
  0
VERTEX
  8
7
 62
     7
  6
CONTINUOUS
 10
-1.001559
 20
-1.773807
  0
VERTEX
  8
7
 62
     7
  6
CONTINUOUS
 10
-1.016098
 20
-1.730500
  0
VERTEX
  8
7
 62
     7
  6
CONTINUOUS
 10
-1.027846
 20
-1.691472
  0
VERTEX
  8
7
 62
     7
  6
CONTINUOUS
 10
-1.036457
 20
-1.664524
  0
VERTEX
  8
7
 62
     7
  6
CONTINUOUS
 10
-1.039799
 20
-1.654319
  0
VERTEX
  8
7
 62
     7
  6
CONTINUOUS
 10
-1.041469
 20
-1.639835
  0
VERTEX
  8
7
 62
     7
  6
CONTINUOUS
 10
-1.046480
 20
-1.600898
  0
VERTEX
  8
7
 62
     7
  6
CONTINUOUS
 10
-1.053256
 20
-1.545091
  0
VERTEX
  8
7
 62
     7
  6
CONTINUOUS
 10
-1.061000
 20
-1.481610
  0
VERTEX
  8
7
 62
     7
  6
CONTINUOUS
 10
-1.069354
 20
-1.417909
  0
VERTEX
  8
7
 62
     7
  6
CONTINUOUS
 10
-1.076126
 20
-1.362890
  0
VERTEX
  8
7
 62
     7
  6
CONTINUOUS
 10
-1.081358
 20
-1.324012
  0
VERTEX
  8
7
 62
     7
  6
CONTINUOUS
 10
-1.082921
 20
-1.308681
  0
VERTEX
  8
7
 62
     7
  6
CONTINUOUS
 10
-1.029701
 20
-1.004736
  0
VERTEX
  8
7
 62
     7
  6
CONTINUOUS
 10
-0.932240
 20
-0.907240
  0
VERTEX
  8
7
 62
     7
  6
CONTINUOUS
 10
-0.791657
 20
-0.971618
  0
VERTEX
  8
7
 62
     7
  6
CONTINUOUS
 10
-0.694236
 20
-1.124189
  0
VERTEX
  8
7
 62
     7
  6
CONTINUOUS
 10
-0.629874
 20
-1.329957
  0
SEQEND
  8
0
  0
POLYLINE
  8
7
 62
     7
  6
CONTINUOUS
 66
     1
 40
0.003000
 41
0.003000
 70
     1
  0
VERTEX
  8
7
 62
     7
  6
CONTINUOUS
 10
-1.126224
 20
0.926366
  0
VERTEX
  8
7
 62
     7
  6
CONTINUOUS
 10
1.261559
 20
1.056945
  0
VERTEX
  8
7
 62
     7
  6
CONTINUOUS
 10
1.347929
 20
0.937492
  0
VERTEX
  8
7
 62
     7
  6
CONTINUOUS
 10
1.304626
 20
0.874067
  0
VERTEX
  8
7
 62
     7
  6
CONTINUOUS
 10
1.297835
 20
0.874067
  0
VERTEX
  8
7
 62
     7
  6
CONTINUOUS
 10
1.278354
 20
0.873150
  0
VERTEX
  8
7
 62
     7
  6
CONTINUOUS
 10
1.246157
 20
0.872213
  0
VERTEX
  8
7
 62
     7
  6
CONTINUOUS
 10
1.203843
 20
0.870598
  0
VERTEX
  8
7
 62
     7
  6
CONTINUOUS
 10
1.150531
 20
0.868799
  0
VERTEX
  8
7
 62
     7
  6
CONTINUOUS
 10
1.087071
 20
0.866339
  0
VERTEX
  8
7
 62
     7
  6
CONTINUOUS
 10
1.015862
 20
0.864669
  0
VERTEX
  8
7
 62
     7
  6
CONTINUOUS
 10
0.936335
 20
0.862024
  0
VERTEX
  8
7
 62
     7
  6
CONTINUOUS
 10
0.850642
 20
0.858626
  0
VERTEX
  8
7
 62
     7
  6
CONTINUOUS
 10
0.758433
 20
0.856094
  0
VERTEX
  8
7
 62
     7
  6
CONTINUOUS
 10
0.660917
 20
0.852697
  0
VERTEX
  8
7
 62
     7
  6
CONTINUOUS
 10
0.559346
 20
0.849319
  0
VERTEX
  8
7
 62
     7
  6
CONTINUOUS
 10
0.454248
 20
0.845961
  0
VERTEX
  8
7
 62
     7
  6
CONTINUOUS
 10
0.346764
 20
0.842528
  0
VERTEX
  8
7
 62
     7
  6
CONTINUOUS
 10
0.237539
 20
0.839169
  0
VERTEX
  8
7
 62
     7
  6
CONTINUOUS
 10
0.127429
 20
0.835791
  0
VERTEX
  8
7
 62
     7
  6
CONTINUOUS
 10
0.016402
 20
0.832433
  0
VERTEX
  8
7
 62
     7
  6
CONTINUOUS
 10
-0.092862
 20
0.828264
  0
VERTEX
  8
7
 62
     7
  6
CONTINUOUS
 10
-0.200307
 20
0.824886
  0
VERTEX
  8
7
 62
     7
  6
CONTINUOUS
 10
-0.305476
 20
0.821453
  0
VERTEX
  8
7
 62
     7
  6
CONTINUOUS
 10
-0.407051
 20
0.818937
  0
VERTEX
  8
7
 62
     7
  6
CONTINUOUS
 10
-0.504567
 20
0.815579
  0
VERTEX
  8
7
 62
     7
  6
CONTINUOUS
 10
-0.596756
 20
0.813063
  0
VERTEX
  8
7
 62
     7
  6
CONTINUOUS
 10
-0.682413
 20
0.809650
  0
VERTEX
  8
7
 62
     7
  6
CONTINUOUS
 10
-0.762012
 20
0.806953
  0
VERTEX
  8
7
 62
     7
  6
CONTINUOUS
 10
-0.833185
 20
0.805354
  0
VERTEX
  8
7
 62
     7
  6
CONTINUOUS
 10
-0.896610
 20
0.802878
  0
VERTEX
  8
7
 62
     7
  6
CONTINUOUS
 10
-0.949921
 20
0.801039
  0
VERTEX
  8
7
 62
     7
  6
CONTINUOUS
 10
-0.992307
 20
0.800323
  0
VERTEX
  8
7
 62
     7
  6
CONTINUOUS
 10
-1.024469
 20
0.799461
  0
VERTEX
  8
7
 62
     7
  6
CONTINUOUS
 10
-1.043965
 20
0.798543
  0
VERTEX
  8
7
 62
     7
  6
CONTINUOUS
 10
-1.050740
 20
0.798543
  0
VERTEX
  8
7
 62
     7
  6
CONTINUOUS
 10
-1.054154
 20
0.799461
  0
VERTEX
  8
7
 62
     7
  6
CONTINUOUS
 10
-1.062579
 20
0.802878
  0
VERTEX
  8
7
 62
     7
  6
CONTINUOUS
 10
-1.074587
 20
0.807850
  0
VERTEX
  8
7
 62
     7
  6
CONTINUOUS
 10
-1.088043
 20
0.813744
  0
VERTEX
  8
7
 62
     7
  6
CONTINUOUS
 10
-1.102433
 20
0.819654
  0
VERTEX
  8
7
 62
     7
  6
CONTINUOUS
 10
-1.114236
 20
0.824886
  0
VERTEX
  8
7
 62
     7
  6
CONTINUOUS
 10
-1.122831
 20
0.828264
  0
VERTEX
  8
7
 62
     7
  6
CONTINUOUS
 10
-1.126224
 20
0.829843
  0
VERTEX
  8
7
 62
     7
  6
CONTINUOUS
 10
-1.124425
 20
0.845244
  0
VERTEX
  8
7
 62
     7
  6
CONTINUOUS
 10
-1.121929
 20
0.878142
  0
VERTEX
  8
7
 62
     7
  6
CONTINUOUS
 10
-1.121929
 20
0.911205
  0
SEQEND
  8
0
  0
POLYLINE
  8
7
 62
     7
  6
CONTINUOUS
 66
     1
 40
0.003000
 41
0.003000
  0
VERTEX
  8
7
 62
     7
  6
CONTINUOUS
 10
-0.013134
 20
1.469457
  0
VERTEX
  8
7
 62
     7
  6
CONTINUOUS
 10
-0.358787
 20
1.003469
  0
VERTEX
  8
7
 62
     7
  6
CONTINUOUS
 10
-0.339276
 20
0.995961
  0
VERTEX
  8
7
 62
     7
  6
CONTINUOUS
 10
-0.320717
 20
0.996732
  0
VERTEX
  8
7
 62
     7
  6
CONTINUOUS
 10
-0.303661
 20
1.002807
  0
VERTEX
  8
7
 62
     7
  6
CONTINUOUS
 10
-0.289378
 20
1.012866
  0
VERTEX
  8
7
 62
     7
  6
CONTINUOUS
 10
-0.277409
 20
1.024764
  0
VERTEX
  8
7
 62
     7
  6
CONTINUOUS
 10
-0.269039
 20
1.035650
  0
VERTEX
  8
7
 62
     7
  6
CONTINUOUS
 10
-0.263165
 20
1.044240
  0
VERTEX
  8
7
 62
     7
  6
CONTINUOUS
 10
-0.260614
 20
1.047638
  0
VERTEX
  8
7
 62
     7
  6
CONTINUOUS
 10
-0.263165
 20
1.055146
  0
VERTEX
  8
7
 62
     7
  6
CONTINUOUS
 10
-0.266524
 20
1.073870
  0
VERTEX
  8
7
 62
     7
  6
CONTINUOUS
 10
-0.270579
 20
1.092504
  0
VERTEX
  8
7
 62
     7
  6
CONTINUOUS
 10
-0.272417
 20
1.100909
  0
SEQEND
  8
0
  0
POLYLINE
  8
7
 62
     7
  6
CONTINUOUS
 66
     1
 40
0.003000
 41
0.003000
  0
VERTEX
  8
7
 62
     7
  6
CONTINUOUS
 10
0.893949
 20
1.480362
  0
VERTEX
  8
7
 62
     7
  6
CONTINUOUS
 10
0.592280
 20
1.046756
  0
VERTEX
  8
7
 62
     7
  6
CONTINUOUS
 10
0.658457
 20
1.015457
  0
VERTEX
  8
7
 62
     7
  6
CONTINUOUS
 10
0.660035
 20
1.018870
  0
VERTEX
  8
7
 62
     7
  6
CONTINUOUS
 10
0.664315
 20
1.028177
  0
VERTEX
  8
7
 62
     7
  6
CONTINUOUS
 10
0.671126
 20
1.042441
  0
VERTEX
  8
7
 62
     7
  6
CONTINUOUS
 10
0.679531
 20
1.057843
  0
VERTEX
  8
7
 62
     7
  6
CONTINUOUS
 10
0.687224
 20
1.073870
  0
VERTEX
  8
7
 62
     7
  6
CONTINUOUS
 10
0.694035
 20
1.087362
  0
VERTEX
  8
7
 62
     7
  6
CONTINUOUS
 10
0.699047
 20
1.097531
  0
VERTEX
  8
7
 62
     7
  6
CONTINUOUS
 10
0.700846
 20
1.100909
  0
SEQEND
  8
0
  0
POLYLINE
  8
7
 62
     7
  6
CONTINUOUS
 66
     1
 40
0.003000
 41
0.003000
  0
VERTEX
  8
7
 62
     7
  6
CONTINUOUS
 10
-2.152780
 20
2.033457
  0
VERTEX
  8
7
 62
     7
  6
CONTINUOUS
 10
-1.904622
 20
2.098642
  0
VERTEX
  8
7
 62
     7
  6
CONTINUOUS
 10
-1.688591
 20
2.087795
  0
VERTEX
  8
7
 62
     7
  6
CONTINUOUS
 10
-1.536957
 20
2.024075
  0
VERTEX
  8
7
 62
     7
  6
CONTINUOUS
 10
-1.535378
 20
2.022551
  0
VERTEX
  8
7
 62
     7
  6
CONTINUOUS
 10
-1.531083
 20
2.018201
  0
VERTEX
  8
7
 62
     7
  6
CONTINUOUS
 10
-1.524236
 20
2.011409
  0
VERTEX
  8
7
 62
     7
  6
CONTINUOUS
 10
-1.514965
 20
2.003937
  0
VERTEX
  8
7
 62
     7
  6
CONTINUOUS
 10
-1.503839
 20
1.993748
  0
VERTEX
  8
7
 62
     7
  6
CONTINUOUS
 10
-1.492055
 20
1.982642
  0
VERTEX
  8
7
 62
     7
  6
CONTINUOUS
 10
-1.479406
 20
1.970839
  0
VERTEX
  8
7
 62
     7
  6
CONTINUOUS
 10
-1.466685
 20
1.959051
  0
VERTEX
  8
7
 62
     7
  6
CONTINUOUS
 10
-1.454000
 20
1.946350
  0
VERTEX
  8
7
 62
     7
  6
CONTINUOUS
 10
-1.441295
 20
1.935260
  0
VERTEX
  8
7
 62
     7
  6
CONTINUOUS
 10
-1.429307
 20
1.924154
  0
VERTEX
  8
7
 62
     7
  6
CONTINUOUS
 10
-1.418421
 20
1.914114
  0
VERTEX
  8
7
 62
     7
  6
CONTINUOUS
 10
-1.409114
 20
1.906476
  0
VERTEX
  8
7
 62
     7
  6
CONTINUOUS
 10
-1.402287
 20
1.899665
  0
VERTEX
  8
7
 62
     7
  6
CONTINUOUS
 10
-1.397992
 20
1.896252
  0
VERTEX
  8
7
 62
     7
  6
CONTINUOUS
 10
-1.396394
 20
1.894689
  0
VERTEX
  8
7
 62
     7
  6
CONTINUOUS
 10
-1.390465
 20
1.889441
  0
VERTEX
  8
7
 62
     7
  6
CONTINUOUS
 10
-1.376016
 20
1.876756
  0
VERTEX
  8
7
 62
     7
  6
CONTINUOUS
 10
-1.355638
 20
1.859831
  0
VERTEX
  8
7
 62
     7
  6
CONTINUOUS
 10
-1.331150
 20
1.839598
  0
VERTEX
  8
7
 62
     7
  6
CONTINUOUS
 10
-1.307358
 20
1.820142
  0
VERTEX
  8
7
 62
     7
  6
CONTINUOUS
 10
-1.287165
 20
1.802189
  0
VERTEX
  8
7
 62
     7
  6
CONTINUOUS
 10
-1.272646
 20
1.790402
  0
VERTEX
  8
7
 62
     7
  6
CONTINUOUS
 10
-1.266807
 20
1.786126
  0
VERTEX
  8
7
 62
     7
  6
CONTINUOUS
 10
-1.260898
 20
1.786126
  0
VERTEX
  8
7
 62
     7
  6
CONTINUOUS
 10
-1.242283
 20
1.787024
  0
VERTEX
  8
7
 62
     7
  6
CONTINUOUS
 10
-1.212598
 20
1.787024
  0
VERTEX
  8
7
 62
     7
  6
CONTINUOUS
 10
-1.172669
 20
1.787941
  0
VERTEX
  8
7
 62
     7
  6
CONTINUOUS
 10
-1.123547
 20
1.789539
  0
VERTEX
  8
7
 62
     7
  6
CONTINUOUS
 10
-1.065260
 20
1.790402
  0
VERTEX
  8
7
 62
     7
  6
CONTINUOUS
 10
-0.999063
 20
1.792035
  0
VERTEX
  8
7
 62
     7
  6
CONTINUOUS
 10
-0.925413
 20
1.793835
  0
VERTEX
  8
7
 62
     7
  6
CONTINUOUS
 10
-0.845886
 20
1.796276
  0
VERTEX
  8
7
 62
     7
  6
CONTINUOUS
 10
-0.760193
 20
1.798110
  0
VERTEX
  8
7
 62
     7
  6
CONTINUOUS
 10
-0.670445
 20
1.800626
  0
VERTEX
  8
7
 62
     7
  6
CONTINUOUS
 10
-0.576343
 20
1.802189
  0
VERTEX
  8
7
 62
     7
  6
CONTINUOUS
 10
-0.479102
 20
1.804776
  0
VERTEX
  8
7
 62
     7
  6
CONTINUOUS
 10
-0.379185
 20
1.807402
  0
VERTEX
  8
7
 62
     7
  6
CONTINUOUS
 10
-0.277409
 20
1.809898
  0
VERTEX
  8
7
 62
     7
  6
CONTINUOUS
 10
-0.174937
 20
1.812394
  0
VERTEX
  8
7
 62
     7
  6
CONTINUOUS
 10
-0.073402
 20
1.814890
  0
VERTEX
  8
7
 62
     7
  6
CONTINUOUS
 10
0.028354
 20
1.817551
  0
VERTEX
  8
7
 62
     7
  6
CONTINUOUS
 10
0.128311
 20
1.820142
  0
VERTEX
  8
7
 62
     7
  6
CONTINUOUS
 10
0.225531
 20
1.822618
  0
VERTEX
  8
7
 62
     7
  6
CONTINUOUS
 10
0.319594
 20
1.825079
  0
VERTEX
  8
7
 62
     7
  6
CONTINUOUS
 10
0.409366
 20
1.826878
  0
VERTEX
  8
7
 62
     7
  6
CONTINUOUS
 10
0.495004
 20
1.829394
  0
VERTEX
  8
7
 62
     7
  6
CONTINUOUS
 10
0.574583
 20
1.830988
  0
VERTEX
  8
7
 62
     7
  6
CONTINUOUS
 10
0.648232
 20
1.832807
  0
VERTEX
  8
7
 62
     7
  6
CONTINUOUS
 10
0.714358
 20
1.834421
  0
VERTEX
  8
7
 62
     7
  6
CONTINUOUS
 10
0.772717
 20
1.836185
  0
VERTEX
  8
7
 62
     7
  6
CONTINUOUS
 10
0.821823
 20
1.837031
  0
VERTEX
  8
7
 62
     7
  6
CONTINUOUS
 10
0.861787
 20
1.837764
  0
VERTEX
  8
7
 62
     7
  6
CONTINUOUS
 10
0.891413
 20
1.838701
  0
VERTEX
  8
7
 62
     7
  6
CONTINUOUS
 10
0.910047
 20
1.839598
  0
VERTEX
  8
7
 62
     7
  6
CONTINUOUS
 10
0.915941
 20
1.839598
  0
SEQEND
  8
0
  0
POLYLINE
  8
7
 62
     7
  6
CONTINUOUS
 66
     1
 40
0.003000
 41
0.003000
  0
VERTEX
  8
7
 62
     7
  6
CONTINUOUS
 10
-1.202409
 20
-0.212756
  0
VERTEX
  8
7
 62
     7
  6
CONTINUOUS
 10
-0.996602
 20
-0.039130
  0
VERTEX
  8
7
 62
     7
  6
CONTINUOUS
 10
-0.662055
 20
0.069382
  0
VERTEX
  8
7
 62
     7
  6
CONTINUOUS
 10
-0.240272
 20
0.080268
  0
VERTEX
  8
7
 62
     7
  6
CONTINUOUS
 10
-0.013134
 20
0.037181
  0
VERTEX
  8
7
 62
     7
  6
CONTINUOUS
 10
0.202713
 20
-0.039130
  0
VERTEX
  8
7
 62
     7
  6
CONTINUOUS
 10
0.300102
 20
0.091409
  0
VERTEX
  8
7
 62
     7
  6
CONTINUOUS
 10
0.418654
 20
0.178626
  0
VERTEX
  8
7
 62
     7
  6
CONTINUOUS
 10
0.559346
 20
0.156469
  0
VERTEX
  8
7
 62
     7
  6
CONTINUOUS
 10
0.623819
 20
0.080268
  0
VERTEX
  8
7
 62
     7
  6
CONTINUOUS
 10
0.710114
 20
-0.049224
  0
VERTEX
  8
7
 62
     7
  6
CONTINUOUS
 10
0.710114
 20
-0.221126
  0
VERTEX
  8
7
 62
     7
  6
CONTINUOUS
 10
0.708354
 20
-0.222063
  0
VERTEX
  8
7
 62
     7
  6
CONTINUOUS
 10
0.703323
 20
-0.225476
  0
VERTEX
  8
7
 62
     7
  6
CONTINUOUS
 10
0.696531
 20
-0.230453
  0
VERTEX
  8
7
 62
     7
  6
CONTINUOUS
 10
0.686287
 20
-0.237244
  0
VERTEX
  8
7
 62
     7
  6
CONTINUOUS
 10
0.675421
 20
-0.244937
  0
VERTEX
  8
7
 62
     7
  6
CONTINUOUS
 10
0.662697
 20
-0.252461
  0
VERTEX
  8
7
 62
     7
  6
CONTINUOUS
 10
0.649150
 20
-0.261752
  0
VERTEX
  8
7
 62
     7
  6
CONTINUOUS
 10
0.634650
 20
-0.271244
  0
VERTEX
  8
7
 62
     7
  6
CONTINUOUS
 10
0.620366
 20
-0.280512
  0
VERTEX
  8
7
 62
     7
  6
CONTINUOUS
 10
0.606764
 20
-0.288902
  0
VERTEX
  8
7
 62
     7
  6
CONTINUOUS
 10
0.594079
 20
-0.297291
  0
VERTEX
  8
7
 62
     7
  6
CONTINUOUS
 10
0.583008
 20
-0.304122
  0
VERTEX
  8
7
 62
     7
  6
CONTINUOUS
 10
0.572874
 20
-0.310894
  0
VERTEX
  8
7
 62
     7
  6
CONTINUOUS
 10
0.566173
 20
-0.315228
  0
VERTEX
  8
7
 62
     7
  6
CONTINUOUS
 10
0.560961
 20
-0.318642
  0
VERTEX
  8
7
 62
     7
  6
CONTINUOUS
 10
0.559346
 20
-0.319504
  0
VERTEX
  8
7
 62
     7
  6
CONTINUOUS
 10
0.557602
 20
-0.319504
  0
VERTEX
  8
7
 62
     7
  6
CONTINUOUS
 10
0.552591
 20
-0.320201
  0
VERTEX
  8
7
 62
     7
  6
CONTINUOUS
 10
0.543980
 20
-0.322039
  0
VERTEX
  8
7
 62
     7
  6
CONTINUOUS
 10
0.534012
 20
-0.322902
  0
VERTEX
  8
7
 62
     7
  6
CONTINUOUS
 10
0.521272
 20
-0.324516
  0
VERTEX
  8
7
 62
     7
  6
CONTINUOUS
 10
0.507724
 20
-0.326992
  0
VERTEX
  8
7
 62
     7
  6
CONTINUOUS
 10
0.493185
 20
-0.328831
  0
VERTEX
  8
7
 62
     7
  6
CONTINUOUS
 10
0.478039
 20
-0.330390
  0
VERTEX
  8
7
 62
     7
  6
CONTINUOUS
 10
0.462823
 20
-0.332925
  0
VERTEX
  8
7
 62
     7
  6
CONTINUOUS
 10
0.448319
 20
-0.334724
  0
VERTEX
  8
7
 62
     7
  6
CONTINUOUS
 10
0.434736
 20
-0.336303
  0
VERTEX
  8
7
 62
     7
  6
CONTINUOUS
 10
0.422012
 20
-0.338138
  0
VERTEX
  8
7
 62
     7
  6
CONTINUOUS
 10
0.411917
 20
-0.338980
  0
VERTEX
  8
7
 62
     7
  6
CONTINUOUS
 10
0.403453
 20
-0.339697
  0
VERTEX
  8
7
 62
     7
  6
CONTINUOUS
 10
0.398441
 20
-0.340614
  0
VERTEX
  8
7
 62
     7
  6
CONTINUOUS
 10
0.396661
 20
-0.340614
  0
VERTEX
  8
7
 62
     7
  6
CONTINUOUS
 10
0.391685
 20
-0.338980
  0
VERTEX
  8
7
 62
     7
  6
CONTINUOUS
 10
0.378083
 20
-0.332925
  0
VERTEX
  8
7
 62
     7
  6
CONTINUOUS
 10
0.359488
 20
-0.323579
  0
VERTEX
  8
7
 62
     7
  6
CONTINUOUS
 10
0.337496
 20
-0.314307
  0
VERTEX
  8
7
 62
     7
  6
CONTINUOUS
 10
0.315299
 20
-0.304122
  0
VERTEX
  8
7
 62
     7
  6
CONTINUOUS
 10
0.296685
 20
-0.295713
  0
VERTEX
  8
7
 62
     7
  6
CONTINUOUS
 10
0.283213
 20
-0.288902
  0
VERTEX
  8
7
 62
     7
  6
CONTINUOUS
 10
0.278126
 20
-0.286461
  0
VERTEX
  8
7
 62
     7
  6
CONTINUOUS
 10
0.275630
 20
-0.280512
  0
VERTEX
  8
7
 62
     7
  6
CONTINUOUS
 10
0.267882
 20
-0.263531
  0
VERTEX
  8
7
 62
     7
  6
CONTINUOUS
 10
0.257713
 20
-0.239024
  0
VERTEX
  8
7
 62
     7
  6
CONTINUOUS
 10
0.245909
 20
-0.211874
  0
VERTEX
  8
7
 62
     7
  6
CONTINUOUS
 10
0.234122
 20
-0.183988
  0
VERTEX
  8
7
 62
     7
  6
CONTINUOUS
 10
0.223972
 20
-0.160161
  0
VERTEX
  8
7
 62
     7
  6
CONTINUOUS
 10
0.216224
 20
-0.143197
  0
VERTEX
  8
7
 62
     7
  6
CONTINUOUS
 10
0.213728
 20
-0.136406
  0
VERTEX
  8
7
 62
     7
  6
CONTINUOUS
 10
0.180665
 20
-0.028059
  0
SEQEND
  8
0
  0
POLYLINE
  8
7
 62
     7
  6
CONTINUOUS
 66
     1
 40
0.003000
 41
0.003000
  0
VERTEX
  8
7
 62
     7
  6
CONTINUOUS
 10
0.591563
 20
-0.332224
  0
VERTEX
  8
7
 62
     7
  6
CONTINUOUS
 10
0.699909
 20
-0.504933
  0
VERTEX
  8
7
 62
     7
  6
CONTINUOUS
 10
0.850642
 20
-0.742020
  0
VERTEX
  8
7
 62
     7
  6
CONTINUOUS
 10
0.855819
 20
-0.753146
  0
VERTEX
  8
7
 62
     7
  6
CONTINUOUS
 10
0.867661
 20
-0.781913
  0
VERTEX
  8
7
 62
     7
  6
CONTINUOUS
 10
0.885358
 20
-0.821783
  0
VERTEX
  8
7
 62
     7
  6
CONTINUOUS
 10
0.904870
 20
-0.867346
  0
VERTEX
  8
7
 62
     7
  6
CONTINUOUS
 10
0.925213
 20
-0.913134
  0
VERTEX
  8
7
 62
     7
  6
CONTINUOUS
 10
0.942248
 20
-0.953059
  0
VERTEX
  8
7
 62
     7
  6
CONTINUOUS
 10
0.954933
 20
-0.981862
  0
VERTEX
  8
7
 62
     7
  6
CONTINUOUS
 10
0.959154
 20
-0.992016
  0
VERTEX
  8
7
 62
     7
  6
CONTINUOUS
 10
0.962516
 20
-1.024929
  0
VERTEX
  8
7
 62
     7
  6
CONTINUOUS
 10
0.970094
 20
-1.095366
  0
VERTEX
  8
7
 62
     7
  6
CONTINUOUS
 10
0.976906
 20
-1.166394
  0
VERTEX
  8
7
 62
     7
  6
CONTINUOUS
 10
0.980303
 20
-1.197839
  0
VERTEX
  8
7
 62
     7
  6
CONTINUOUS
 10
0.982780
 20
-1.208008
  0
VERTEX
  8
7
 62
     7
  6
CONTINUOUS
 10
0.988693
 20
-1.235913
  0
VERTEX
  8
7
 62
     7
  6
CONTINUOUS
 10
0.997283
 20
-1.273969
  0
VERTEX
  8
7
 62
     7
  6
CONTINUOUS
 10
1.007398
 20
-1.317933
  0
VERTEX
  8
7
 62
     7
  6
CONTINUOUS
 10
1.017441
 20
-1.361240
  0
VERTEX
  8
7
 62
     7
  6
CONTINUOUS
 10
1.026087
 20
-1.399295
  0
VERTEX
  8
7
 62
     7
  6
CONTINUOUS
 10
1.031996
 20
-1.426535
  0
VERTEX
  8
7
 62
     7
  6
CONTINUOUS
 10
1.034457
 20
-1.436709
  0
VERTEX
  8
7
 62
     7
  6
CONTINUOUS
 10
1.036972
 20
-1.437406
  0
VERTEX
  8
7
 62
     7
  6
CONTINUOUS
 10
1.042882
 20
-1.439240
  0
VERTEX
  8
7
 62
     7
  6
CONTINUOUS
 10
1.052339
 20
-1.441701
  0
VERTEX
  8
7
 62
     7
  6
CONTINUOUS
 10
1.065039
 20
-1.445976
  0
VERTEX
  8
7
 62
     7
  6
CONTINUOUS
 10
1.079323
 20
-1.449394
  0
VERTEX
  8
7
 62
     7
  6
CONTINUOUS
 10
1.096358
 20
-1.454386
  0
VERTEX
  8
7
 62
     7
  6
CONTINUOUS
 10
1.114020
 20
-1.459417
  0
VERTEX
  8
7
 62
     7
  6
CONTINUOUS
 10
1.131972
 20
-1.464591
  0
VERTEX
  8
7
 62
     7
  6
CONTINUOUS
 10
1.149650
 20
-1.469622
  0
VERTEX
  8
7
 62
     7
  6
CONTINUOUS
 10
1.167567
 20
-1.473917
  0
VERTEX
  8
7
 62
     7
  6
CONTINUOUS
 10
1.184492
 20
-1.478874
  0
VERTEX
  8
7
 62
     7
  6
CONTINUOUS
 10
1.198811
 20
-1.483169
  0
VERTEX
  8
7
 62
     7
  6
CONTINUOUS
 10
1.211461
 20
-1.486567
  0
VERTEX
  8
7
 62
     7
  6
CONTINUOUS
 10
1.220787
 20
-1.489098
  0
VERTEX
  8
7
 62
     7
  6
CONTINUOUS
 10
1.226697
 20
-1.490000
  0
VERTEX
  8
7
 62
     7
  6
CONTINUOUS
 10
1.229378
 20
-1.490882
  0
VERTEX
  8
7
 62
     7
  6
CONTINUOUS
 10
1.231894
 20
-1.490000
  0
VERTEX
  8
7
 62
     7
  6
CONTINUOUS
 10
1.237803
 20
-1.486567
  0
VERTEX
  8
7
 62
     7
  6
CONTINUOUS
 10
1.246157
 20
-1.481610
  0
VERTEX
  8
7
 62
     7
  6
CONTINUOUS
 10
1.256362
 20
-1.475551
  0
VERTEX
  8
7
 62
     7
  6
CONTINUOUS
 10
1.266571
 20
-1.469622
  0
VERTEX
  8
7
 62
     7
  6
CONTINUOUS
 10
1.274976
 20
-1.463693
  0
VERTEX
  8
7
 62
     7
  6
CONTINUOUS
 10
1.281035
 20
-1.460260
  0
VERTEX
  8
7
 62
     7
  6
CONTINUOUS
 10
1.283587
 20
-1.458717
  0
VERTEX
  8
7
 62
     7
  6
CONTINUOUS
 10
1.280193
 20
-1.427197
  0
VERTEX
  8
7
 62
     7
  6
CONTINUOUS
 10
1.272500
 20
-1.356228
  0
VERTEX
  8
7
 62
     7
  6
CONTINUOUS
 10
1.264953
 20
-1.285772
  0
VERTEX
  8
7
 62
     7
  6
CONTINUOUS
 10
1.261559
 20
-1.252929
  0
VERTEX
  8
7
 62
     7
  6
CONTINUOUS
 10
1.263138
 20
-1.246083
  0
VERTEX
  8
7
 62
     7
  6
CONTINUOUS
 10
1.268315
 20
-1.226622
  0
VERTEX
  8
7
 62
     7
  6
CONTINUOUS
 10
1.274976
 20
-1.198646
  0
VERTEX
  8
7
 62
     7
  6
CONTINUOUS
 10
1.283587
 20
-1.166394
  0
VERTEX
  8
7
 62
     7
  6
CONTINUOUS
 10
1.291059
 20
-1.135000
  0
VERTEX
  8
7
 62
     7
  6
CONTINUOUS
 10
1.297835
 20
-1.107189
  0
VERTEX
  8
7
 62
     7
  6
CONTINUOUS
 10
1.303047
 20
-1.086740
  0
VERTEX
  8
7
 62
     7
  6
CONTINUOUS
 10
1.304626
 20
-1.079268
  0
VERTEX
  8
7
 62
     7
  6
CONTINUOUS
 10
1.309874
 20
-1.083378
  0
VERTEX
  8
7
 62
     7
  6
CONTINUOUS
 10
1.321661
 20
-1.092689
  0
VERTEX
  8
7
 62
     7
  6
CONTINUOUS
 10
1.339358
 20
-1.107189
  0
VERTEX
  8
7
 62
     7
  6
CONTINUOUS
 10
1.358815
 20
-1.123272
  0
VERTEX
  8
7
 62
     7
  6
CONTINUOUS
 10
1.379213
 20
-1.138453
  0
VERTEX
  8
7
 62
     7
  6
CONTINUOUS
 10
1.396213
 20
-1.152957
  0
VERTEX
  8
7
 62
     7
  6
CONTINUOUS
 10
1.408933
 20
-1.162244
  0
VERTEX
  8
7
 62
     7
  6
CONTINUOUS
 10
1.413154
 20
-1.165657
  0
VERTEX
  8
7
 62
     7
  6
CONTINUOUS
 10
1.413154
 20
-1.198646
  0
VERTEX
  8
7
 62
     7
  6
CONTINUOUS
 10
1.413154
 20
-1.268992
  0
VERTEX
  8
7
 62
     7
  6
CONTINUOUS
 10
1.413154
 20
-1.340110
  0
VERTEX
  8
7
 62
     7
  6
CONTINUOUS
 10
1.413154
 20
-1.371409
  0
VERTEX
  8
7
 62
     7
  6
CONTINUOUS
 10
1.416421
 20
-1.371409
  0
VERTEX
  8
7
 62
     7
  6
CONTINUOUS
 10
1.424996
 20
-1.369630
  0
VERTEX
  8
7
 62
     7
  6
CONTINUOUS
 10
1.440177
 20
-1.368051
  0
VERTEX
  8
7
 62
     7
  6
CONTINUOUS
 10
1.459673
 20
-1.365500
  0
VERTEX
  8
7
 62
     7
  6
CONTINUOUS
 10
1.485043
 20
-1.362138
  0
VERTEX
  8
7
 62
     7
  6
CONTINUOUS
 10
1.513846
 20
-1.357843
  0
VERTEX
  8
7
 62
     7
  6
CONTINUOUS
 10
1.546945
 20
-1.353567
  0
VERTEX
  8
7
 62
     7
  6
CONTINUOUS
 10
1.583441
 20
-1.348555
  0
VERTEX
  8
7
 62
     7
  6
CONTINUOUS
 10
1.623091
 20
-1.342626
  0
VERTEX
  8
7
 62
     7
  6
CONTINUOUS
 10
1.666398
 20
-1.336787
  0
VERTEX
  8
7
 62
     7
  6
CONTINUOUS
 10
1.711264
 20
-1.330713
  0
VERTEX
  8
7
 62
     7
  6
CONTINUOUS
 10
1.758646
 20
-1.324012
  0
VERTEX
  8
7
 62
     7
  6
CONTINUOUS
 10
1.806906
 20
-1.317272
  0
VERTEX
  8
7
 62
     7
  6
CONTINUOUS
 10
1.857004
 20
-1.310480
  0
VERTEX
  8
7
 62
     7
  6
CONTINUOUS
 10
1.907835
 20
-1.303689
  0
VERTEX
  8
7
 62
     7
  6
CONTINUOUS
 10
1.958539
 20
-1.295980
  0
VERTEX
  8
7
 62
     7
  6
CONTINUOUS
 10
2.009335
 20
-1.289169
  0
VERTEX
  8
7
 62
     7
  6
CONTINUOUS
 10
2.060220
 20
-1.282374
  0
VERTEX
  8
7
 62
     7
  6
CONTINUOUS
 10
2.110209
 20
-1.274886
  0
VERTEX
  8
7
 62
     7
  6
CONTINUOUS
 10
2.158488
 20
-1.268094
  0
VERTEX
  8
7
 62
     7
  6
CONTINUOUS
 10
2.205795
 20
-1.262201
  0
VERTEX
  8
7
 62
     7
  6
CONTINUOUS
 10
2.250736
 20
-1.255409
  0
VERTEX
  8
7
 62
     7
  6
CONTINUOUS
 10
2.294024
 20
-1.249480
  0
VERTEX
  8
7
 62
     7
  6
CONTINUOUS
 10
2.333768
 20
-1.244283
  0
VERTEX
  8
7
 62
     7
  6
CONTINUOUS
 10
2.370169
 20
-1.238390
  0
VERTEX
  8
7
 62
     7
  6
CONTINUOUS
 10
2.403287
 20
-1.234134
  0
VERTEX
  8
7
 62
     7
  6
CONTINUOUS
 10
2.432035
 20
-1.230020
  0
VERTEX
  8
7
 62
     7
  6
CONTINUOUS
 10
2.457406
 20
-1.226622
  0
VERTEX
  8
7
 62
     7
  6
CONTINUOUS
 10
2.476902
 20
-1.224110
  0
VERTEX
  8
7
 62
     7
  6
CONTINUOUS
 10
2.492102
 20
-1.221409
  0
VERTEX
  8
7
 62
     7
  6
CONTINUOUS
 10
2.500693
 20
-1.220693
  0
VERTEX
  8
7
 62
     7
  6
CONTINUOUS
 10
2.504142
 20
-1.219831
  0
VERTEX
  8
7
 62
     7
  6
CONTINUOUS
 10
2.508201
 20
-1.216417
  0
VERTEX
  8
7
 62
     7
  6
CONTINUOUS
 10
2.519343
 20
-1.207130
  0
VERTEX
  8
7
 62
     7
  6
CONTINUOUS
 10
2.534488
 20
-1.192646
  0
VERTEX
  8
7
 62
     7
  6
CONTINUOUS
 10
2.553087
 20
-1.177390
  0
VERTEX
  8
7
 62
     7
  6
CONTINUOUS
 10
2.571020
 20
-1.161327
  0
VERTEX
  8
7
 62
     7
  6
CONTINUOUS
 10
2.586146
 20
-1.147008
  0
VERTEX
  8
7
 62
     7
  6
CONTINUOUS
 10
2.597291
 20
-1.137551
  0
VERTEX
  8
7
 62
     7
  6
CONTINUOUS
 10
2.601421
 20
-1.133461
  0
VERTEX
  8
7
 62
     7
  6
CONTINUOUS
 10
2.601421
 20
-1.111394
  0
VERTEX
  8
7
 62
     7
  6
CONTINUOUS
 10
2.601421
 20
-1.063185
  0
VERTEX
  8
7
 62
     7
  6
CONTINUOUS
 10
2.601421
 20
-1.014906
  0
VERTEX
  8
7
 62
     7
  6
CONTINUOUS
 10
2.601421
 20
-0.992016
  0
VERTEX
  8
7
 62
     7
  6
CONTINUOUS
 10
2.604780
 20
-0.990177
  0
VERTEX
  8
7
 62
     7
  6
CONTINUOUS
 10
2.613354
 20
-0.984303
  0
VERTEX
  8
7
 62
     7
  6
CONTINUOUS
 10
2.625157
 20
-0.975016
  0
VERTEX
  8
7
 62
     7
  6
CONTINUOUS
 10
2.639587
 20
-0.965764
  0
VERTEX
  8
7
 62
     7
  6
CONTINUOUS
 10
2.653059
 20
-0.955520
  0
VERTEX
  8
7
 62
     7
  6
CONTINUOUS
 10
2.665028
 20
-0.947130
  0
VERTEX
  8
7
 62
     7
  6
CONTINUOUS
 10
2.673437
 20
-0.940394
  0
VERTEX
  8
7
 62
     7
  6
CONTINUOUS
 10
2.676850
 20
-0.937732
  0
VERTEX
  8
7
 62
     7
  6
CONTINUOUS
 10
2.678469
 20
-0.941898
  0
VERTEX
  8
7
 62
     7
  6
CONTINUOUS
 10
2.681862
 20
-0.953850
  0
VERTEX
  8
7
 62
     7
  6
CONTINUOUS
 10
2.687004
 20
-0.969142
  0
VERTEX
  8
7
 62
     7
  6
CONTINUOUS
 10
2.692933
 20
-0.986819
  0
VERTEX
  8
7
 62
     7
  6
CONTINUOUS
 10
2.698843
 20
-1.004736
  0
VERTEX
  8
7
 62
     7
  6
CONTINUOUS
 10
2.703929
 20
-1.020819
  0
VERTEX
  8
7
 62
     7
  6
CONTINUOUS
 10
2.707287
 20
-1.031024
  0
VERTEX
  8
7
 62
     7
  6
CONTINUOUS
 10
2.708996
 20
-1.035098
  0
VERTEX
  8
7
 62
     7
  6
CONTINUOUS
 10
2.707287
 20
-1.078386
  0
VERTEX
  8
7
 62
     7
  6
CONTINUOUS
 10
2.703929
 20
-1.171551
  0
VERTEX
  8
7
 62
     7
  6
CONTINUOUS
 10
2.700606
 20
-1.264697
  0
VERTEX
  8
7
 62
     7
  6
CONTINUOUS
 10
2.698843
 20
-1.307067
  0
VERTEX
  8
7
 62
     7
  6
CONTINUOUS
 10
2.703929
 20
-1.306165
  0
VERTEX
  8
7
 62
     7
  6
CONTINUOUS
 10
2.716724
 20
-1.302752
  0
VERTEX
  8
7
 62
     7
  6
CONTINUOUS
 10
2.737799
 20
-1.298457
  0
VERTEX
  8
7
 62
     7
  6
CONTINUOUS
 10
2.764984
 20
-1.291846
  0
VERTEX
  8
7
 62
     7
  6
CONTINUOUS
 10
2.796303
 20
-1.285091
  0
VERTEX
  8
7
 62
     7
  6
CONTINUOUS
 10
2.831882
 20
-1.276465
  0
VERTEX
  8
7
 62
     7
  6
CONTINUOUS
 10
2.869937
 20
-1.268094
  0
VERTEX
  8
7
 62
     7
  6
CONTINUOUS
 10
2.909807
 20
-1.258823
  0
VERTEX
  8
7
 62
     7
  6
CONTINUOUS
 10
2.948728
 20
-1.249480
  0
VERTEX
  8
7
 62
     7
  6
CONTINUOUS
 10
2.986894
 20
-1.240886
  0
VERTEX
  8
7
 62
     7
  6
CONTINUOUS
 10
3.022524
 20
-1.232516
  0
VERTEX
  8
7
 62
     7
  6
CONTINUOUS
 10
3.053787
 20
-1.224807
  0
VERTEX
  8
7
 62
     7
  6
CONTINUOUS
 10
3.080807
 20
-1.218913
  0
VERTEX
  8
7
 62
     7
  6
CONTINUOUS
 10
3.102067
 20
-1.213902
  0
VERTEX
  8
7
 62
     7
  6
CONTINUOUS
 10
3.114752
 20
-1.210543
  0
VERTEX
  8
7
 62
     7
  6
CONTINUOUS
 10
3.119744
 20
-1.209606
  0
SEQEND
  8
0
  0
POLYLINE
  8
7
 62
     7
  6
CONTINUOUS
 66
     1
 40
0.003000
 41
0.003000
  0
VERTEX
  8
7
 62
     7
  6
CONTINUOUS
 10
0.148504
 20
-1.590839
  0
VERTEX
  8
7
 62
     7
  6
CONTINUOUS
 10
1.045563
 20
-1.460260
  0
SEQEND
  8
0
  0
POLYLINE
  8
7
 62
     7
  6
CONTINUOUS
 66
     1
 40
0.003000
 41
0.003000
 70
     1
  0
VERTEX
  8
7
 62
     7
  6
CONTINUOUS
 10
1.769752
 20
-0.353299
  0
VERTEX
  8
7
 62
     7
  6
CONTINUOUS
 10
1.651177
 20
-0.613280
  0
VERTEX
  8
7
 62
     7
  6
CONTINUOUS
 10
1.769752
 20
-0.405878
  0
VERTEX
  8
7
 62
     7
  6
CONTINUOUS
 10
1.772248
 20
-0.407492
  0
VERTEX
  8
7
 62
     7
  6
CONTINUOUS
 10
1.779059
 20
-0.413366
  0
VERTEX
  8
7
 62
     7
  6
CONTINUOUS
 10
1.789945
 20
-0.421059
  0
VERTEX
  8
7
 62
     7
  6
CONTINUOUS
 10
1.803547
 20
-0.432165
  0
VERTEX
  8
7
 62
     7
  6
CONTINUOUS
 10
1.819591
 20
-0.443969
  0
VERTEX
  8
7
 62
     7
  6
CONTINUOUS
 10
1.838205
 20
-0.458252
  0
VERTEX
  8
7
 62
     7
  6
CONTINUOUS
 10
1.857701
 20
-0.472752
  0
VERTEX
  8
7
 62
     7
  6
CONTINUOUS
 10
1.878079
 20
-0.487953
  0
VERTEX
  8
7
 62
     7
  6
CONTINUOUS
 10
1.897575
 20
-0.503209
  0
VERTEX
  8
7
 62
     7
  6
CONTINUOUS
 10
1.917087
 20
-0.517618
  0
VERTEX
  8
7
 62
     7
  6
CONTINUOUS
 10
1.935646
 20
-0.531260
  0
VERTEX
  8
7
 62
     7
  6
CONTINUOUS
 10
1.951748
 20
-0.543925
  0
VERTEX
  8
7
 62
     7
  6
CONTINUOUS
 10
1.965350
 20
-0.554150
  0
VERTEX
  8
7
 62
     7
  6
CONTINUOUS
 10
1.976382
 20
-0.562484
  0
VERTEX
  8
7
 62
     7
  6
CONTINUOUS
 10
1.983102
 20
-0.567571
  0
VERTEX
  8
7
 62
     7
  6
CONTINUOUS
 10
1.985744
 20
-0.569331
  0
SEQEND
  8
0
  0
POLYLINE
  8
7
 62
     7
  6
CONTINUOUS
 66
     1
 40
0.003000
 41
0.003000
 70
     1
  0
VERTEX
  8
7
 62
     7
  6
CONTINUOUS
 10
1.801949
 20
-0.515965
  0
VERTEX
  8
7
 62
     7
  6
CONTINUOUS
 10
1.694264
 20
-0.753992
  0
VERTEX
  8
7
 62
     7
  6
CONTINUOUS
 10
1.812799
 20
-0.590406
  0
VERTEX
  8
7
 62
     7
  6
CONTINUOUS
 10
1.814654
 20
-0.592224
  0
VERTEX
  8
7
 62
     7
  6
CONTINUOUS
 10
1.820528
 20
-0.595602
  0
VERTEX
  8
7
 62
     7
  6
CONTINUOUS
 10
1.828917
 20
-0.601512
  0
VERTEX
  8
7
 62
     7
  6
CONTINUOUS
 10
1.840024
 20
-0.609882
  0
VERTEX
  8
7
 62
     7
  6
CONTINUOUS
 10
1.852709
 20
-0.618476
  0
VERTEX
  8
7
 62
     7
  6
CONTINUOUS
 10
1.867870
 20
-0.628681
  0
VERTEX
  8
7
 62
     7
  6
CONTINUOUS
 10
1.883126
 20
-0.639567
  0
VERTEX
  8
7
 62
     7
  6
CONTINUOUS
 10
1.899264
 20
-0.650673
  0
VERTEX
  8
7
 62
     7
  6
CONTINUOUS
 10
1.915382
 20
-0.662441
  0
VERTEX
  8
7
 62
     7
  6
CONTINUOUS
 10
1.930673
 20
-0.672650
  0
VERTEX
  8
7
 62
     7
  6
CONTINUOUS
 10
1.945854
 20
-0.682874
  0
VERTEX
  8
7
 62
     7
  6
CONTINUOUS
 10
1.958539
 20
-0.692181
  0
VERTEX
  8
7
 62
     7
  6
CONTINUOUS
 10
1.969646
 20
-0.699669
  0
VERTEX
  8
7
 62
     7
  6
CONTINUOUS
 10
1.978035
 20
-0.705764
  0
VERTEX
  8
7
 62
     7
  6
CONTINUOUS
 10
1.983965
 20
-0.709126
  0
VERTEX
  8
7
 62
     7
  6
CONTINUOUS
 10
1.985744
 20
-0.710740
  0
SEQEND
  8
0
  0
POLYLINE
  8
7
 62
     7
  6
CONTINUOUS
 66
     1
 40
0.003000
 41
0.003000
 70
     1
  0
VERTEX
  8
7
 62
     7
  6
CONTINUOUS
 10
0.959154
 20
-0.212756
  0
VERTEX
  8
7
 62
     7
  6
CONTINUOUS
 10
1.715559
 20
-0.232949
  0
VERTEX
  8
7
 62
     7
  6
CONTINUOUS
 10
2.276988
 20
-0.114413
  0
VERTEX
  8
7
 62
     7
  6
CONTINUOUS
 10
2.439744
 20
-1.100378
  0
VERTEX
  8
7
 62
     7
  6
CONTINUOUS
 10
2.434512
 20
-1.102031
  0
VERTEX
  8
7
 62
     7
  6
CONTINUOUS
 10
2.419350
 20
-1.107189
  0
VERTEX
  8
7
 62
     7
  6
CONTINUOUS
 10
2.396441
 20
-1.114807
  0
VERTEX
  8
7
 62
     7
  6
CONTINUOUS
 10
2.366776
 20
-1.124850
  0
VERTEX
  8
7
 62
     7
  6
CONTINUOUS
 10
2.332079
 20
-1.135937
  0
VERTEX
  8
7
 62
     7
  6
CONTINUOUS
 10
2.292205
 20
-1.149559
  0
VERTEX
  8
7
 62
     7
  6
CONTINUOUS
 10
2.250736
 20
-1.163051
  0
VERTEX
  8
7
 62
     7
  6
CONTINUOUS
 10
2.207650
 20
-1.177390
  0
VERTEX
  8
7
 62
     7
  6
CONTINUOUS
 10
2.163484
 20
-1.191890
  0
VERTEX
  8
7
 62
     7
  6
CONTINUOUS
 10
2.121996
 20
-1.205311
  0
VERTEX
  8
7
 62
     7
  6
CONTINUOUS
 10
2.082323
 20
-1.218031
  0
VERTEX
  8
7
 62
     7
  6
CONTINUOUS
 10
2.047445
 20
-1.229102
  0
VERTEX
  8
7
 62
     7
  6
CONTINUOUS
 10
2.017906
 20
-1.239291
  0
VERTEX
  8
7
 62
     7
  6
CONTINUOUS
 10
1.995051
 20
-1.246870
  0
VERTEX
  8
7
 62
     7
  6
CONTINUOUS
 10
1.979740
 20
-1.251075
  0
VERTEX
  8
7
 62
     7
  6
CONTINUOUS
 10
1.974638
 20
-1.252929
  0
VERTEX
  8
7
 62
     7
  6
CONTINUOUS
 10
1.973059
 20
-1.252929
  0
VERTEX
  8
7
 62
     7
  6
CONTINUOUS
 10
1.968764
 20
-1.252929
  0
VERTEX
  8
7
 62
     7
  6
CONTINUOUS
 10
1.961035
 20
-1.253591
  0
VERTEX
  8
7
 62
     7
  6
CONTINUOUS
 10
1.950886
 20
-1.253591
  0
VERTEX
  8
7
 62
     7
  6
CONTINUOUS
 10
1.938146
 20
-1.254508
  0
VERTEX
  8
7
 62
     7
  6
CONTINUOUS
 10
1.923917
 20
-1.255409
  0
VERTEX
  8
7
 62
     7
  6
CONTINUOUS
 10
1.906862
 20
-1.256327
  0
VERTEX
  8
7
 62
     7
  6
CONTINUOUS
 10
1.888303
 20
-1.256327
  0
VERTEX
  8
7
 62
     7
  6
CONTINUOUS
 10
1.867870
 20
-1.257004
  0
VERTEX
  8
7
 62
     7
  6
CONTINUOUS
 10
1.846870
 20
-1.257886
  0
VERTEX
  8
7
 62
     7
  6
CONTINUOUS
 10
1.823941
 20
-1.259650
  0
VERTEX
  8
7
 62
     7
  6
CONTINUOUS
 10
1.800150
 20
-1.260402
  0
VERTEX
  8
7
 62
     7
  6
CONTINUOUS
 10
1.775661
 20
-1.261283
  0
VERTEX
  8
7
 62
     7
  6
CONTINUOUS
 10
1.750256
 20
-1.262201
  0
VERTEX
  8
7
 62
     7
  6
CONTINUOUS
 10
1.724846
 20
-1.262988
  0
VERTEX
  8
7
 62
     7
  6
CONTINUOUS
 10
1.699461
 20
-1.263760
  0
VERTEX
  8
7
 62
     7
  6
CONTINUOUS
 10
1.673209
 20
-1.264697
  0
VERTEX
  8
7
 62
     7
  6
CONTINUOUS
 10
1.647799
 20
-1.266295
  0
VERTEX
  8
7
 62
     7
  6
CONTINUOUS
 10
1.622339
 20
-1.267177
  0
VERTEX
  8
7
 62
     7
  6
CONTINUOUS
 10
1.597720
 20
-1.268094
  0
VERTEX
  8
7
 62
     7
  6
CONTINUOUS
 10
1.574134
 20
-1.268992
  0
VERTEX
  8
7
 62
     7
  6
CONTINUOUS
 10
1.551220
 20
-1.269689
  0
VERTEX
  8
7
 62
     7
  6
CONTINUOUS
 10
1.529929
 20
-1.270571
  0
VERTEX
  8
7
 62
     7
  6
CONTINUOUS
 10
1.509622
 20
-1.271472
  0
VERTEX
  8
7
 62
     7
  6
CONTINUOUS
 10
1.490953
 20
-1.271472
  0
VERTEX
  8
7
 62
     7
  6
CONTINUOUS
 10
1.474157
 20
-1.272370
  0
VERTEX
  8
7
 62
     7
  6
CONTINUOUS
 10
1.459673
 20
-1.273087
  0
VERTEX
  8
7
 62
     7
  6
CONTINUOUS
 10
1.446988
 20
-1.273087
  0
VERTEX
  8
7
 62
     7
  6
CONTINUOUS
 10
1.436780
 20
-1.273969
  0
VERTEX
  8
7
 62
     7
  6
CONTINUOUS
 10
1.429146
 20
-1.273969
  0
VERTEX
  8
7
 62
     7
  6
CONTINUOUS
 10
1.424996
 20
-1.273969
  0
VERTEX
  8
7
 62
     7
  6
CONTINUOUS
 10
1.423217
 20
-1.273969
  0
VERTEX
  8
7
 62
     7
  6
CONTINUOUS
 10
1.421618
 20
-1.257886
  0
VERTEX
  8
7
 62
     7
  6
CONTINUOUS
 10
1.418220
 20
-1.220693
  0
VERTEX
  8
7
 62
     7
  6
CONTINUOUS
 10
1.414807
 20
-1.183299
  0
VERTEX
  8
7
 62
     7
  6
CONTINUOUS
 10
1.413154
 20
-1.165657
  0
VERTEX
  8
7
 62
     7
  6
CONTINUOUS
 10
1.410492
 20
-1.163051
  0
VERTEX
  8
7
 62
     7
  6
CONTINUOUS
 10
1.404583
 20
-1.156350
  0
VERTEX
  8
7
 62
     7
  6
CONTINUOUS
 10
1.396213
 20
-1.145209
  0
VERTEX
  8
7
 62
     7
  6
CONTINUOUS
 10
1.386024
 20
-1.133461
  0
VERTEX
  8
7
 62
     7
  6
CONTINUOUS
 10
1.375815
 20
-1.121472
  0
VERTEX
  8
7
 62
     7
  6
CONTINUOUS
 10
1.367409
 20
-1.111394
  0
VERTEX
  8
7
 62
     7
  6
CONTINUOUS
 10
1.361516
 20
-1.103776
  0
VERTEX
  8
7
 62
     7
  6
CONTINUOUS
 10
1.358815
 20
-1.100378
  0
VERTEX
  8
7
 62
     7
  6
CONTINUOUS
 10
1.357256
 20
-1.095366
  0
VERTEX
  8
7
 62
     7
  6
CONTINUOUS
 10
1.352059
 20
-1.081783
  0
VERTEX
  8
7
 62
     7
  6
CONTINUOUS
 10
1.344535
 20
-1.059772
  0
VERTEX
  8
7
 62
     7
  6
CONTINUOUS
 10
1.335244
 20
-1.031705
  0
VERTEX
  8
7
 62
     7
  6
CONTINUOUS
 10
1.323260
 20
-0.997945
  0
VERTEX
  8
7
 62
     7
  6
CONTINUOUS
 10
1.310535
 20
-0.960512
  0
VERTEX
  8
7
 62
     7
  6
CONTINUOUS
 10
1.297063
 20
-0.919925
  0
VERTEX
  8
7
 62
     7
  6
CONTINUOUS
 10
1.283587
 20
-0.878472
  0
VERTEX
  8
7
 62
     7
  6
CONTINUOUS
 10
1.269047
 20
-0.837039
  0
VERTEX
  8
7
 62
     7
  6
CONTINUOUS
 10
1.255480
 20
-0.797039
  0
VERTEX
  8
7
 62
     7
  6
CONTINUOUS
 10
1.242780
 20
-0.759957
  0
VERTEX
  8
7
 62
     7
  6
CONTINUOUS
 10
1.230957
 20
-0.725902
  0
VERTEX
  8
7
 62
     7
  6
CONTINUOUS
 10
1.221705
 20
-0.697098
  0
VERTEX
  8
7
 62
     7
  6
CONTINUOUS
 10
1.214012
 20
-0.676098
  0
VERTEX
  8
7
 62
     7
  6
CONTINUOUS
 10
1.209020
 20
-0.661559
  0
VERTEX
  8
7
 62
     7
  6
CONTINUOUS
 10
1.207201
 20
-0.656587
  0
SEQEND
  8
0
  0
POLYLINE
  8
7
 62
     7
  6
CONTINUOUS
 66
     1
 40
0.003000
 41
0.003000
  0
VERTEX
  8
7
 62
     7
  6
CONTINUOUS
 10
0.332244
 20
0.840031
  0
VERTEX
  8
7
 62
     7
  6
CONTINUOUS
 10
0.732091
 20
0.754614
  0
VERTEX
  8
7
 62
     7
  6
CONTINUOUS
 10
0.991264
 20
0.679091
  0
VERTEX
  8
7
 62
     7
  6
CONTINUOUS
 10
0.993925
 20
0.677512
  0
VERTEX
  8
7
 62
     7
  6
CONTINUOUS
 10
1.002276
 20
0.671602
  0
VERTEX
  8
7
 62
     7
  6
CONTINUOUS
 10
1.014098
 20
0.663945
  0
VERTEX
  8
7
 62
     7
  6
CONTINUOUS
 10
1.030181
 20
0.652839
  0
VERTEX
  8
7
 62
     7
  6
CONTINUOUS
 10
1.048961
 20
0.641035
  0
VERTEX
  8
7
 62
     7
  6
CONTINUOUS
 10
1.070051
 20
0.627413
  0
VERTEX
  8
7
 62
     7
  6
CONTINUOUS
 10
1.092043
 20
0.612252
  0
VERTEX
  8
7
 62
     7
  6
CONTINUOUS
 10
1.115874
 20
0.597087
  0
VERTEX
  8
7
 62
     7
  6
CONTINUOUS
 10
1.138764
 20
0.581669
  0
VERTEX
  8
7
 62
     7
  6
CONTINUOUS
 10
1.160720
 20
0.567386
  0
VERTEX
  8
7
 62
     7
  6
CONTINUOUS
 10
1.181815
 20
0.553764
  0
VERTEX
  8
7
 62
     7
  6
CONTINUOUS
 10
1.200610
 20
0.541079
  0
VERTEX
  8
7
 62
     7
  6
CONTINUOUS
 10
1.216638
 20
0.530909
  0
VERTEX
  8
7
 62
     7
  6
CONTINUOUS
 10
1.228496
 20
0.523382
  0
VERTEX
  8
7
 62
     7
  6
CONTINUOUS
 10
1.236866
 20
0.518169
  0
VERTEX
  8
7
 62
     7
  6
CONTINUOUS
 10
1.239437
 20
0.516591
  0
VERTEX
  8
7
 62
     7
  6
CONTINUOUS
 10
1.242083
 20
0.513890
  0
VERTEX
  8
7
 62
     7
  6
CONTINUOUS
 10
1.248012
 20
0.507264
  0
VERTEX
  8
7
 62
     7
  6
CONTINUOUS
 10
1.257264
 20
0.496177
  0
VERTEX
  8
7
 62
     7
  6
CONTINUOUS
 10
1.269984
 20
0.481768
  0
VERTEX
  8
7
 62
     7
  6
CONTINUOUS
 10
1.284303
 20
0.465630
  0
VERTEX
  8
7
 62
     7
  6
CONTINUOUS
 10
1.301228
 20
0.446976
  0
VERTEX
  8
7
 62
     7
  6
CONTINUOUS
 10
1.319165
 20
0.427539
  0
VERTEX
  8
7
 62
     7
  6
CONTINUOUS
 10
1.336823
 20
0.407362
  0
VERTEX
  8
7
 62
     7
  6
CONTINUOUS
 10
1.354740
 20
0.386949
  0
VERTEX
  8
7
 62
     7
  6
CONTINUOUS
 10
1.372402
 20
0.367453
  0
VERTEX
  8
7
 62
     7
  6
CONTINUOUS
 10
1.389417
 20
0.348839
  0
VERTEX
  8
7
 62
     7
  6
CONTINUOUS
 10
1.403701
 20
0.332795
  0
VERTEX
  8
7
 62
     7
  6
CONTINUOUS
 10
1.416421
 20
0.318256
  0
VERTEX
  8
7
 62
     7
  6
CONTINUOUS
 10
1.425878
 20
0.308102
  0
VERTEX
  8
7
 62
     7
  6
CONTINUOUS
 10
1.431807
 20
0.301311
  0
VERTEX
  8
7
 62
     7
  6
CONTINUOUS
 10
1.434303
 20
0.298780
  0
VERTEX
  8
7
 62
     7
  6
CONTINUOUS
 10
1.435917
 20
0.295382
  0
VERTEX
  8
7
 62
     7
  6
CONTINUOUS
 10
1.441114
 20
0.284496
  0
VERTEX
  8
7
 62
     7
  6
CONTINUOUS
 10
1.448622
 20
0.268378
  0
VERTEX
  8
7
 62
     7
  6
CONTINUOUS
 10
1.458039
 20
0.247083
  0
VERTEX
  8
7
 62
     7
  6
CONTINUOUS
 10
1.469898
 20
0.222630
  0
VERTEX
  8
7
 62
     7
  6
CONTINUOUS
 10
1.482547
 20
0.195445
  0
VERTEX
  8
7
 62
     7
  6
CONTINUOUS
 10
1.496185
 20
0.165925
  0
VERTEX
  8
7
 62
     7
  6
CONTINUOUS
 10
1.510449
 20
0.135358
  0
VERTEX
  8
7
 62
     7
  6
CONTINUOUS
 10
1.524035
 20
0.104886
  0
VERTEX
  8
7
 62
     7
  6
CONTINUOUS
 10
1.537657
 20
0.076008
  0
VERTEX
  8
7
 62
     7
  6
CONTINUOUS
 10
1.550378
 20
0.048106
  0
VERTEX
  8
7
 62
     7
  6
CONTINUOUS
 10
1.562106
 20
0.023634
  0
VERTEX
  8
7
 62
     7
  6
CONTINUOUS
 10
1.571413
 20
0.003220
  0
VERTEX
  8
7
 62
     7
  6
CONTINUOUS
 10
1.579161
 20
-0.012878
  0
VERTEX
  8
7
 62
     7
  6
CONTINUOUS
 10
1.584098
 20
-0.023087
  0
VERTEX
  8
7
 62
     7
  6
CONTINUOUS
 10
1.585937
 20
-0.026445
  0
VERTEX
  8
7
 62
     7
  6
CONTINUOUS
 10
1.589350
 20
-0.027142
  0
VERTEX
  8
7
 62
     7
  6
CONTINUOUS
 10
1.597720
 20
-0.028961
  0
VERTEX
  8
7
 62
     7
  6
CONTINUOUS
 10
1.609579
 20
-0.030520
  0
VERTEX
  8
7
 62
     7
  6
CONTINUOUS
 10
1.624028
 20
-0.032339
  0
VERTEX
  8
7
 62
     7
  6
CONTINUOUS
 10
1.637650
 20
-0.034835
  0
VERTEX
  8
7
 62
     7
  6
CONTINUOUS
 10
1.649362
 20
-0.036469
  0
VERTEX
  8
7
 62
     7
  6
CONTINUOUS
 10
1.657843
 20
-0.037331
  0
VERTEX
  8
7
 62
     7
  6
CONTINUOUS
 10
1.661220
 20
-0.037331
  0
VERTEX
  8
7
 62
     7
  6
CONTINUOUS
 10
1.663020
 20
-0.028059
  0
VERTEX
  8
7
 62
     7
  6
CONTINUOUS
 10
1.667295
 20
-0.005130
  0
VERTEX
  8
7
 62
     7
  6
CONTINUOUS
 10
1.670583
 20
0.016843
  0
VERTEX
  8
7
 62
     7
  6
CONTINUOUS
 10
1.672307
 20
0.027913
  0
VERTEX
  8
7
 62
     7
  6
CONTINUOUS
 10
1.667976
 20
0.034559
  0
VERTEX
  8
7
 62
     7
  6
CONTINUOUS
 10
1.655311
 20
0.054000
  0
VERTEX
  8
7
 62
     7
  6
CONTINUOUS
 10
1.638457
 20
0.082102
  0
VERTEX
  8
7
 62
     7
  6
CONTINUOUS
 10
1.618118
 20
0.114248
  0
VERTEX
  8
7
 62
     7
  6
CONTINUOUS
 10
1.598622
 20
0.145567
  0
VERTEX
  8
7
 62
     7
  6
CONTINUOUS
 10
1.580724
 20
0.173433
  0
VERTEX
  8
7
 62
     7
  6
CONTINUOUS
 10
1.568917
 20
0.193846
  0
VERTEX
  8
7
 62
     7
  6
CONTINUOUS
 10
1.563945
 20
0.201484
  0
VERTEX
  8
7
 62
     7
  6
CONTINUOUS
 10
1.562106
 20
0.203134
  0
VERTEX
  8
7
 62
     7
  6
CONTINUOUS
 10
1.557169
 20
0.209929
  0
VERTEX
  8
7
 62
     7
  6
CONTINUOUS
 10
1.548543
 20
0.219217
  0
VERTEX
  8
7
 62
     7
  6
CONTINUOUS
 10
1.538500
 20
0.231937
  0
VERTEX
  8
7
 62
     7
  6
CONTINUOUS
 10
1.526567
 20
0.246406
  0
VERTEX
  8
7
 62
     7
  6
CONTINUOUS
 10
1.512984
 20
0.262524
  0
VERTEX
  8
7
 62
     7
  6
CONTINUOUS
 10
1.497764
 20
0.280181
  0
VERTEX
  8
7
 62
     7
  6
CONTINUOUS
 10
1.483484
 20
0.298780
  0
VERTEX
  8
7
 62
     7
  6
CONTINUOUS
 10
1.468098
 20
0.316732
  0
VERTEX
  8
7
 62
     7
  6
CONTINUOUS
 10
1.452862
 20
0.334335
  0
VERTEX
  8
7
 62
     7
  6
CONTINUOUS
 10
1.439280
 20
0.351390
  0
VERTEX
  8
7
 62
     7
  6
CONTINUOUS
 10
1.427492
 20
0.365803
  0
VERTEX
  8
7
 62
     7
  6
CONTINUOUS
 10
1.417283
 20
0.378559
  0
VERTEX
  8
7
 62
     7
  6
CONTINUOUS
 10
1.408933
 20
0.388563
  0
VERTEX
  8
7
 62
     7
  6
CONTINUOUS
 10
1.403701
 20
0.394657
  0
VERTEX
  8
7
 62
     7
  6
CONTINUOUS
 10
1.402122
 20
0.397157
  0
VERTEX
  8
7
 62
     7
  6
CONTINUOUS
 10
1.400323
 20
0.398736
  0
VERTEX
  8
7
 62
     7
  6
CONTINUOUS
 10
1.395311
 20
0.403067
  0
VERTEX
  8
7
 62
     7
  6
CONTINUOUS
 10
1.387583
 20
0.410685
  0
VERTEX
  8
7
 62
     7
  6
CONTINUOUS
 10
1.378331
 20
0.420028
  0
VERTEX
  8
7
 62
     7
  6
CONTINUOUS
 10
1.366528
 20
0.431835
  0
VERTEX
  8
7
 62
     7
  6
CONTINUOUS
 10
1.353843
 20
0.444535
  0
VERTEX
  8
7
 62
     7
  6
CONTINUOUS
 10
1.340201
 20
0.458122
  0
VERTEX
  8
7
 62
     7
  6
CONTINUOUS
 10
1.326634
 20
0.472421
  0
VERTEX
  8
7
 62
     7
  6
CONTINUOUS
 10
1.312370
 20
0.485988
  0
VERTEX
  8
7
 62
     7
  6
CONTINUOUS
 10
1.298752
 20
0.500528
  0
VERTEX
  8
7
 62
     7
  6
CONTINUOUS
 10
1.286047
 20
0.513193
  0
VERTEX
  8
7
 62
     7
  6
CONTINUOUS
 10
1.274280
 20
0.524063
  0
VERTEX
  8
7
 62
     7
  6
CONTINUOUS
 10
1.264953
 20
0.534268
  0
VERTEX
  8
7
 62
     7
  6
CONTINUOUS
 10
1.257264
 20
0.541996
  0
VERTEX
  8
7
 62
     7
  6
CONTINUOUS
 10
1.252177
 20
0.546917
  0
VERTEX
  8
7
 62
     7
  6
CONTINUOUS
 10
1.250488
 20
0.548772
  0
VERTEX
  8
7
 62
     7
  6
CONTINUOUS
 10
1.248012
 20
0.549469
  0
VERTEX
  8
7
 62
     7
  6
CONTINUOUS
 10
1.242083
 20
0.553764
  0
VERTEX
  8
7
 62
     7
  6
CONTINUOUS
 10
1.231894
 20
0.559638
  0
VERTEX
  8
7
 62
     7
  6
CONTINUOUS
 10
1.218272
 20
0.566449
  0
VERTEX
  8
7
 62
     7
  6
CONTINUOUS
 10
1.203126
 20
0.575720
  0
VERTEX
  8
7
 62
     7
  6
CONTINUOUS
 10
1.185209
 20
0.585945
  0
VERTEX
  8
7
 62
     7
  6
CONTINUOUS
 10
1.167567
 20
0.597087
  0
VERTEX
  8
7
 62
     7
  6
CONTINUOUS
 10
1.148035
 20
0.607957
  0
VERTEX
  8
7
 62
     7
  6
CONTINUOUS
 10
1.128559
 20
0.619063
  0
VERTEX
  8
7
 62
     7
  6
CONTINUOUS
 10
1.110622
 20
0.629268
  0
VERTEX
  8
7
 62
     7
  6
CONTINUOUS
 10
1.092945
 20
0.639346
  0
VERTEX
  8
7
 62
     7
  6
CONTINUOUS
 10
1.077724
 20
0.648728
  0
VERTEX
  8
7
 62
     7
  6
CONTINUOUS
 10
1.064177
 20
0.656236
  0
VERTEX
  8
7
 62
     7
  6
CONTINUOUS
 10
1.053953
 20
0.662110
  0
VERTEX
  8
7
 62
     7
  6
CONTINUOUS
 10
1.048079
 20
0.665508
  0
VERTEX
  8
7
 62
     7
  6
CONTINUOUS
 10
1.045563
 20
0.667343
  0
SEQEND
  8
0
  0
POLYLINE
  8
7
 62
     7
  6
CONTINUOUS
 66
     1
 40
0.003000
 41
0.003000
 70
     1
  0
VERTEX
  8
7
 62
     7
  6
CONTINUOUS
 10
-1.245642
 20
0.590276
  0
VERTEX
  8
7
 62
     7
  6
CONTINUOUS
 10
-1.374437
 20
0.612252
  0
VERTEX
  8
7
 62
     7
  6
CONTINUOUS
 10
-1.245642
 20
0.536764
  0
SEQEND
  8
0
  0
POLYLINE
  8
7
 62
     7
  6
CONTINUOUS
 66
     1
 40
0.003000
 41
0.003000
  0
VERTEX
  8
7
 62
     7
  6
CONTINUOUS
 10
-1.310059
 20
1.100028
  0
VERTEX
  8
7
 62
     7
  6
CONTINUOUS
 10
-1.180453
 20
0.624035
  0
VERTEX
  8
7
 62
     7
  6
CONTINUOUS
 10
-1.169291
 20
0.298780
  0
VERTEX
  8
7
 62
     7
  6
CONTINUOUS
 10
-1.171110
 20
0.276803
  0
VERTEX
  8
7
 62
     7
  6
CONTINUOUS
 10
-1.176122
 20
0.218299
  0
VERTEX
  8
7
 62
     7
  6
CONTINUOUS
 10
-1.182878
 20
0.137102
  0
VERTEX
  8
7
 62
     7
  6
CONTINUOUS
 10
-1.190622
 20
0.043094
  0
VERTEX
  8
7
 62
     7
  6
CONTINUOUS
 10
-1.199012
 20
-0.050016
  0
VERTEX
  8
7
 62
     7
  6
CONTINUOUS
 10
-1.205823
 20
-0.132311
  0
VERTEX
  8
7
 62
     7
  6
CONTINUOUS
 10
-1.210819
 20
-0.189882
  0
VERTEX
  8
7
 62
     7
  6
CONTINUOUS
 10
-1.212598
 20
-0.211874
  0
SEQEND
  8
0
  0
POLYLINE
  8
7
 62
     7
  6
CONTINUOUS
 66
     1
 40
0.003000
 41
0.003000
  0
VERTEX
  8
7
 62
     7
  6
CONTINUOUS
 10
2.136516
 20
0.341146
  0
VERTEX
  8
7
 62
     7
  6
CONTINUOUS
 10
2.050823
 20
0.060020
  0
VERTEX
  8
7
 62
     7
  6
CONTINUOUS
 10
1.706067
 20
-0.200087
  0
VERTEX
  8
7
 62
     7
  6
CONTINUOUS
 10
1.701992
 20
-0.199189
  0
VERTEX
  8
7
 62
     7
  6
CONTINUOUS
 10
1.689252
 20
-0.196693
  0
VERTEX
  8
7
 62
     7
  6
CONTINUOUS
 10
1.669791
 20
-0.193315
  0
VERTEX
  8
7
 62
     7
  6
CONTINUOUS
 10
1.645122
 20
-0.188102
  0
VERTEX
  8
7
 62
     7
  6
CONTINUOUS
 10
1.615622
 20
-0.183106
  0
VERTEX
  8
7
 62
     7
  6
CONTINUOUS
 10
1.582559
 20
-0.176260
  0
VERTEX
  8
7
 62
     7
  6
CONTINUOUS
 10
1.547862
 20
-0.169469
  0
VERTEX
  8
7
 62
     7
  6
CONTINUOUS
 10
1.511350
 20
-0.162657
  0
VERTEX
  8
7
 62
     7
  6
CONTINUOUS
 10
1.474890
 20
-0.155185
  0
VERTEX
  8
7
 62
     7
  6
CONTINUOUS
 10
1.440177
 20
-0.148374
  0
VERTEX
  8
7
 62
     7
  6
CONTINUOUS
 10
1.407098
 20
-0.142445
  0
VERTEX
  8
7
 62
     7
  6
CONTINUOUS
 10
1.377539
 20
-0.136406
  0
VERTEX
  8
7
 62
     7
  6
CONTINUOUS
 10
1.352925
 20
-0.131394
  0
VERTEX
  8
7
 62
     7
  6
CONTINUOUS
 10
1.333409
 20
-0.127079
  0
VERTEX
  8
7
 62
     7
  6
CONTINUOUS
 10
1.321661
 20
-0.124583
  0
VERTEX
  8
7
 62
     7
  6
CONTINUOUS
 10
1.317327
 20
-0.123665
  0
VERTEX
  8
7
 62
     7
  6
CONTINUOUS
 10
1.312370
 20
-0.121169
  0
VERTEX
  8
7
 62
     7
  6
CONTINUOUS
 10
1.297063
 20
-0.113571
  0
VERTEX
  8
7
 62
     7
  6
CONTINUOUS
 10
1.273398
 20
-0.101693
  0
VERTEX
  8
7
 62
     7
  6
CONTINUOUS
 10
1.242780
 20
-0.086512
  0
VERTEX
  8
7
 62
     7
  6
CONTINUOUS
 10
1.206504
 20
-0.068705
  0
VERTEX
  8
7
 62
     7
  6
CONTINUOUS
 10
1.165697
 20
-0.048417
  0
VERTEX
  8
7
 62
     7
  6
CONTINUOUS
 10
1.123362
 20
-0.027142
  0
VERTEX
  8
7
 62
     7
  6
CONTINUOUS
 10
1.078461
 20
-0.005130
  0
VERTEX
  8
7
 62
     7
  6
CONTINUOUS
 10
1.034457
 20
0.017724
  0
VERTEX
  8
7
 62
     7
  6
CONTINUOUS
 10
0.991264
 20
0.038780
  0
VERTEX
  8
7
 62
     7
  6
CONTINUOUS
 10
0.951535
 20
0.059213
  0
VERTEX
  8
7
 62
     7
  6
CONTINUOUS
 10
0.915039
 20
0.076870
  0
VERTEX
  8
7
 62
     7
  6
CONTINUOUS
 10
0.884642
 20
0.092972
  0
VERTEX
  8
7
 62
     7
  6
CONTINUOUS
 10
0.861787
 20
0.104886
  0
VERTEX
  8
7
 62
     7
  6
CONTINUOUS
 10
0.846421
 20
0.112449
  0
VERTEX
  8
7
 62
     7
  6
CONTINUOUS
 10
0.841335
 20
0.114945
  0
VERTEX
  8
7
 62
     7
  6
CONTINUOUS
 10
0.839756
 20
0.115862
  0
VERTEX
  8
7
 62
     7
  6
CONTINUOUS
 10
0.833661
 20
0.117626
  0
VERTEX
  8
7
 62
     7
  6
CONTINUOUS
 10
0.825272
 20
0.121756
  0
VERTEX
  8
7
 62
     7
  6
CONTINUOUS
 10
0.813449
 20
0.126071
  0
VERTEX
  8
7
 62
     7
  6
CONTINUOUS
 10
0.798197
 20
0.132882
  0
VERTEX
  8
7
 62
     7
  6
CONTINUOUS
 10
0.781307
 20
0.139654
  0
VERTEX
  8
7
 62
     7
  6
CONTINUOUS
 10
0.761831
 20
0.148043
  0
VERTEX
  8
7
 62
     7
  6
CONTINUOUS
 10
0.739783
 20
0.156469
  0
VERTEX
  8
7
 62
     7
  6
CONTINUOUS
 10
0.716008
 20
0.166642
  0
VERTEX
  8
7
 62
     7
  6
CONTINUOUS
 10
0.690638
 20
0.176846
  0
VERTEX
  8
7
 62
     7
  6
CONTINUOUS
 10
0.663433
 20
0.187917
  0
VERTEX
  8
7
 62
     7
  6
CONTINUOUS
 10
0.635547
 20
0.199720
  0
VERTEX
  8
7
 62
     7
  6
CONTINUOUS
 10
0.606764
 20
0.211524
  0
VERTEX
  8
7
 62
     7
  6
CONTINUOUS
 10
0.577059
 20
0.224228
  0
VERTEX
  8
7
 62
     7
  6
CONTINUOUS
 10
0.546697
 20
0.236949
  0
VERTEX
  8
7
 62
     7
  6
CONTINUOUS
 10
0.516996
 20
0.249709
  0
VERTEX
  8
7
 62
     7
  6
CONTINUOUS
 10
0.486409
 20
0.262524
  0
VERTEX
  8
7
 62
     7
  6
CONTINUOUS
 10
0.456067
 20
0.274307
  0
VERTEX
  8
7
 62
     7
  6
CONTINUOUS
 10
0.426346
 20
0.286992
  0
VERTEX
  8
7
 62
     7
  6
CONTINUOUS
 10
0.397579
 20
0.298780
  0
VERTEX
  8
7
 62
     7
  6
CONTINUOUS
 10
0.369713
 20
0.310783
  0
VERTEX
  8
7
 62
     7
  6
CONTINUOUS
 10
0.342469
 20
0.321650
  0
VERTEX
  8
7
 62
     7
  6
CONTINUOUS
 10
0.317980
 20
0.332795
  0
VERTEX
  8
7
 62
     7
  6
CONTINUOUS
 10
0.294189
 20
0.342102
  0
VERTEX
  8
7
 62
     7
  6
CONTINUOUS
 10
0.272252
 20
0.351390
  0
VERTEX
  8
7
 62
     7
  6
CONTINUOUS
 10
0.252756
 20
0.359760
  0
VERTEX
  8
7
 62
     7
  6
CONTINUOUS
 10
0.234858
 20
0.366555
  0
VERTEX
  8
7
 62
     7
  6
CONTINUOUS
 10
0.220539
 20
0.372465
  0
VERTEX
  8
7
 62
     7
  6
CONTINUOUS
 10
0.208772
 20
0.377661
  0
VERTEX
  8
7
 62
     7
  6
CONTINUOUS
 10
0.200161
 20
0.381075
  0
VERTEX
  8
7
 62
     7
  6
CONTINUOUS
 10
0.194232
 20
0.383571
  0
VERTEX
  8
7
 62
     7
  6
CONTINUOUS
 10
0.192654
 20
0.384472
  0
SEQEND
  8
0
  0
POLYLINE
  8
7
 62
     7
  6
CONTINUOUS
 66
     1
 40
0.003000
 41
0.003000
  0
VERTEX
  8
7
 62
     7
  6
CONTINUOUS
 10
-1.082921
 20
0.720579
  0
VERTEX
  8
7
 62
     7
  6
CONTINUOUS
 10
-0.650949
 20
0.624035
  0
VERTEX
  8
7
 62
     7
  6
CONTINUOUS
 10
-0.305476
 20
0.483528
  0
VERTEX
  8
7
 62
     7
  6
CONTINUOUS
 10
-0.301201
 20
0.481768
  0
VERTEX
  8
7
 62
     7
  6
CONTINUOUS
 10
-0.288516
 20
0.477618
  0
VERTEX
  8
7
 62
     7
  6
CONTINUOUS
 10
-0.269921
 20
0.469870
  0
VERTEX
  8
7
 62
     7
  6
CONTINUOUS
 10
-0.244531
 20
0.461535
  0
VERTEX
  8
7
 62
     7
  6
CONTINUOUS
 10
-0.215654
 20
0.450409
  0
VERTEX
  8
7
 62
     7
  6
CONTINUOUS
 10
-0.182705
 20
0.438626
  0
VERTEX
  8
7
 62
     7
  6
CONTINUOUS
 10
-0.147091
 20
0.425976
  0
VERTEX
  8
7
 62
     7
  6
CONTINUOUS
 10
-0.110559
 20
0.412319
  0
VERTEX
  8
7
 62
     7
  6
CONTINUOUS
 10
-0.074980
 20
0.399654
  0
VERTEX
  8
7
 62
     7
  6
CONTINUOUS
 10
-0.039406
 20
0.386949
  0
VERTEX
  8
7
 62
     7
  6
CONTINUOUS
 10
-0.006472
 20
0.375126
  0
VERTEX
  8
7
 62
     7
  6
CONTINUOUS
 10
0.022425
 20
0.364039
  0
VERTEX
  8
7
 62
     7
  6
CONTINUOUS
 10
0.047866
 20
0.355650
  0
VERTEX
  8
7
 62
     7
  6
CONTINUOUS
 10
0.066445
 20
0.348839
  0
VERTEX
  8
7
 62
     7
  6
CONTINUOUS
 10
0.079130
 20
0.344543
  0
VERTEX
  8
7
 62
     7
  6
CONTINUOUS
 10
0.083445
 20
0.342965
  0
VERTEX
  8
7
 62
     7
  6
CONTINUOUS
 10
0.086823
 20
0.341146
  0
VERTEX
  8
7
 62
     7
  6
CONTINUOUS
 10
0.096807
 20
0.336173
  0
VERTEX
  8
7
 62
     7
  6
CONTINUOUS
 10
0.112909
 20
0.329398
  0
VERTEX
  8
7
 62
     7
  6
CONTINUOUS
 10
0.134240
 20
0.320071
  0
VERTEX
  8
7
 62
     7
  6
CONTINUOUS
 10
0.158638
 20
0.309921
  0
VERTEX
  8
7
 62
     7
  6
CONTINUOUS
 10
0.185917
 20
0.297161
  0
VERTEX
  8
7
 62
     7
  6
CONTINUOUS
 10
0.215492
 20
0.284496
  0
VERTEX
  8
7
 62
     7
  6
CONTINUOUS
 10
0.245909
 20
0.271791
  0
VERTEX
  8
7
 62
     7
  6
CONTINUOUS
 10
0.275630
 20
0.258244
  0
VERTEX
  8
7
 62
     7
  6
CONTINUOUS
 10
0.305295
 20
0.245524
  0
VERTEX
  8
7
 62
     7
  6
CONTINUOUS
 10
0.332244
 20
0.233701
  0
VERTEX
  8
7
 62
     7
  6
CONTINUOUS
 10
0.356917
 20
0.222630
  0
VERTEX
  8
7
 62
     7
  6
CONTINUOUS
 10
0.378083
 20
0.213378
  0
VERTEX
  8
7
 62
     7
  6
CONTINUOUS
 10
0.394165
 20
0.206531
  0
VERTEX
  8
7
 62
     7
  6
CONTINUOUS
 10
0.404354
 20
0.202181
  0
VERTEX
  8
7
 62
     7
  6
CONTINUOUS
 10
0.407768
 20
0.200657
  0
SEQEND
  8
0
  0
POLYLINE
  8
7
 62
     7
  6
CONTINUOUS
 66
     1
 40
0.003000
 41
0.003000
  0
VERTEX
  8
7
 62
     7
  6
CONTINUOUS
 10
-0.975457
 20
0.580071
  0
VERTEX
  8
7
 62
     7
  6
CONTINUOUS
 10
-0.845886
 20
0.091409
  0
SEQEND
  8
0
  0
POLYLINE
  8
7
 62
     7
  6
CONTINUOUS
 66
     1
 40
0.003000
 41
0.003000
  0
VERTEX
  8
7
 62
     7
  6
CONTINUOUS
 10
-0.834799
 20
0.492799
  0
VERTEX
  8
7
 62
     7
  6
CONTINUOUS
 10
-0.759496
 20
0.156469
  0
SEQEND
  8
0
  0
POLYLINE
  8
7
 62
     7
  6
CONTINUOUS
 66
     1
 40
0.003000
 41
0.003000
  0
VERTEX
  8
7
 62
     7
  6
CONTINUOUS
 10
-0.694236
 20
0.427539
  0
VERTEX
  8
7
 62
     7
  6
CONTINUOUS
 10
-0.640063
 20
0.167539
  0
SEQEND
  8
0
  0
POLYLINE
  8
7
 62
     7
  6
CONTINUOUS
 66
     1
 40
0.003000
 41
0.003000
  0
VERTEX
  8
7
 62
     7
  6
CONTINUOUS
 10
-0.575681
 20
0.395303
  0
VERTEX
  8
7
 62
     7
  6
CONTINUOUS
 10
-0.532413
 20
0.188724
  0
SEQEND
  8
0
  0
POLYLINE
  8
7
 62
     7
  6
CONTINUOUS
 66
     1
 40
0.003000
 41
0.003000
  0
VERTEX
  8
7
 62
     7
  6
CONTINUOUS
 10
2.628571
 20
0.286075
  0
VERTEX
  8
7
 62
     7
  6
CONTINUOUS
 10
2.499831
 20
0.103177
  0
VERTEX
  8
7
 62
     7
  6
CONTINUOUS
 10
2.565807
 20
-0.047520
  0
VERTEX
  8
7
 62
     7
  6
CONTINUOUS
 10
2.568524
 20
-0.053429
  0
VERTEX
  8
7
 62
     7
  6
CONTINUOUS
 10
2.576894
 20
-0.068705
  0
VERTEX
  8
7
 62
     7
  6
CONTINUOUS
 10
2.588697
 20
-0.089024
  0
VERTEX
  8
7
 62
     7
  6
CONTINUOUS
 10
2.602228
 20
-0.113571
  0
VERTEX
  8
7
 62
     7
  6
CONTINUOUS
 10
2.615886
 20
-0.137268
  0
VERTEX
  8
7
 62
     7
  6
CONTINUOUS
 10
2.627634
 20
-0.157701
  0
VERTEX
  8
7
 62
     7
  6
CONTINUOUS
 10
2.636264
 20
-0.172846
  0
VERTEX
  8
7
 62
     7
  6
CONTINUOUS
 10
2.639587
 20
-0.178059
  0
VERTEX
  8
7
 62
     7
  6
CONTINUOUS
 10
2.641256
 20
-0.178059
  0
VERTEX
  8
7
 62
     7
  6
CONTINUOUS
 10
2.646287
 20
-0.178795
  0
VERTEX
  8
7
 62
     7
  6
CONTINUOUS
 10
2.653059
 20
-0.179657
  0
VERTEX
  8
7
 62
     7
  6
CONTINUOUS
 10
2.663228
 20
-0.180610
  0
VERTEX
  8
7
 62
     7
  6
CONTINUOUS
 10
2.674335
 20
-0.181307
  0
VERTEX
  8
7
 62
     7
  6
CONTINUOUS
 10
2.687004
 20
-0.182154
  0
VERTEX
  8
7
 62
     7
  6
CONTINUOUS
 10
2.700606
 20
-0.183106
  0
VERTEX
  8
7
 62
     7
  6
CONTINUOUS
 10
2.714906
 20
-0.183988
  0
VERTEX
  8
7
 62
     7
  6
CONTINUOUS
 10
2.729429
 20
-0.184685
  0
VERTEX
  8
7
 62
     7
  6
CONTINUOUS
 10
2.742791
 20
-0.186504
  0
VERTEX
  8
7
 62
     7
  6
CONTINUOUS
 10
2.755531
 20
-0.187366
  0
VERTEX
  8
7
 62
     7
  6
CONTINUOUS
 10
2.766583
 20
-0.188102
  0
VERTEX
  8
7
 62
     7
  6
CONTINUOUS
 10
2.776827
 20
-0.188102
  0
VERTEX
  8
7
 62
     7
  6
CONTINUOUS
 10
2.783602
 20
-0.188945
  0
VERTEX
  8
7
 62
     7
  6
CONTINUOUS
 10
2.788575
 20
-0.188945
  0
VERTEX
  8
7
 62
     7
  6
CONTINUOUS
 10
2.790374
 20
-0.188945
  0
VERTEX
  8
7
 62
     7
  6
CONTINUOUS
 10
2.794469
 20
-0.183106
  0
VERTEX
  8
7
 62
     7
  6
CONTINUOUS
 10
2.807154
 20
-0.167008
  0
VERTEX
  8
7
 62
     7
  6
CONTINUOUS
 10
2.824169
 20
-0.145016
  0
VERTEX
  8
7
 62
     7
  6
CONTINUOUS
 10
2.844602
 20
-0.118709
  0
VERTEX
  8
7
 62
     7
  6
CONTINUOUS
 10
2.864063
 20
-0.093358
  0
VERTEX
  8
7
 62
     7
  6
CONTINUOUS
 10
2.881004
 20
-0.070429
  0
VERTEX
  8
7
 62
     7
  6
CONTINUOUS
 10
2.893728
 20
-0.054331
  0
VERTEX
  8
7
 62
     7
  6
CONTINUOUS
 10
2.897803
 20
-0.047520
  0
VERTEX
  8
7
 62
     7
  6
CONTINUOUS
 10
2.900500
 20
-0.041661
  0
VERTEX
  8
7
 62
     7
  6
CONTINUOUS
 10
2.906429
 20
-0.026445
  0
VERTEX
  8
7
 62
     7
  6
CONTINUOUS
 10
2.914819
 20
-0.003571
  0
VERTEX
  8
7
 62
     7
  6
CONTINUOUS
 10
2.925028
 20
0.021835
  0
VERTEX
  8
7
 62
     7
  6
CONTINUOUS
 10
2.935217
 20
0.048106
  0
VERTEX
  8
7
 62
     7
  6
CONTINUOUS
 10
2.943622
 20
0.070996
  0
VERTEX
  8
7
 62
     7
  6
CONTINUOUS
 10
2.949480
 20
0.087079
  0
VERTEX
  8
7
 62
     7
  6
CONTINUOUS
 10
2.952067
 20
0.092972
  0
VERTEX
  8
7
 62
     7
  6
CONTINUOUS
 10
2.950433
 20
0.112449
  0
VERTEX
  8
7
 62
     7
  6
CONTINUOUS
 10
2.947000
 20
0.157370
  0
VERTEX
  8
7
 62
     7
  6
CONTINUOUS
 10
2.942724
 20
0.201484
  0
VERTEX
  8
7
 62
     7
  6
CONTINUOUS
 10
2.941146
 20
0.221713
  0
SEQEND
  8
0
  0
ENDSEC
  0
EOF
