  0
SECTION
  2
HEADER
  9
$ACADVER
  1
AC1004
  9
$INSBASE
 10
0.0
 20
0.0
  9
$EXTMIN
 10
0.0
 20
0.0
  9
$EXTMAX
 10
10.29
 20
7.99
  9
$LIMMIN
 10
0.0
 20
0.0
  9
$LIMMAX
 10
10.29
 20
7.99
  9
$VIEWCTR
 10
5.884031
 20
3.995
  9
$VIEWSIZE
 40
7.99
  9
$SNAPMODE
 70
     1
  9
$SNAPUNIT
 10
0.025
 20
0.025
  9
$SNAPBASE
 10
0.0
 20
0.0
  9
$SNAPANG
 50
0.0
  9
$SNAPSTYLE
 70
     0
  9
$SNAPISOPAIR
 70
     0
  9
$GRIDMODE
 70
     1
  9
$GRIDUNIT
 10
0.2
 20
0.2
  9
$ORTHOMODE
 70
     0
  9
$REGENMODE
 70
     1
  9
$FILLMODE
 70
     1
  9
$QTEXTMODE
 70
     0
  9
$DRAGMODE
 70
     2
  9
$LTSCALE
 40
1.0
  9
$OSMODE
 70
     0
  9
$ATTMODE
 70
     1
  9
$TEXTSIZE
 40
0.2
  9
$TRACEWID
 40
0.05
  9
$TEXTSTYLE
  7
STANDARD
  9
$CLAYER
  8
0
  9
$CELTYPE
  6
BYLAYER
  9
$CECOLOR
 62
   256
  9
$DIMSCALE
 40
1.0
  9
$DIMASZ
 40
0.18
  9
$DIMEXO
 40
0.0625
  9
$DIMDLI
 40
0.38
  9
$DIMRND
 40
0.0
  9
$DIMDLE
 40
0.0
  9
$DIMEXE
 40
0.18
  9
$DIMTP
 40
0.0
  9
$DIMTM
 40
0.0
  9
$DIMTXT
 40
0.18
  9
$DIMCEN
 40
0.09
  9
$DIMTSZ
 40
0.0
  9
$DIMTOL
 70
     0
  9
$DIMLIM
 70
     0
  9
$DIMTIH
 70
     1
  9
$DIMTOH
 70
     1
  9
$DIMSE1
 70
     0
  9
$DIMSE2
 70
     0
  9
$DIMTAD
 70
     0
  9
$DIMZIN
 70
     0
  9
$DIMBLK
  1

  9
$DIMASO
 70
     1
  9
$DIMSHO
 70
     0
  9
$DIMPOST
  1

  9
$DIMAPOST
  1

  9
$DIMALT
 70
     0
  9
$DIMALTD
 70
     2
  9
$DIMALTF
 40
25.4
  9
$DIMLFAC
 40
1.0
  9
$LUNITS
 70
     2
  9
$LUPREC
 70
     4
  9
$AXISMODE
 70
     0
  9
$AXISUNIT
 10
0.0
 20
0.0
  9
$SKETCHINC
 40
0.1
  9
$FILLETRAD
 40
0.0
  9
$AUNITS
 70
     0
  9
$AUPREC
 70
     0
  9
$MENU
  1
acad
  9
$ELEVATION
 40
0.0
  9
$THICKNESS
 40
0.0
  9
$VIEWDIR
 10
0.0
 20
0.0
 30
1.0
  9
$LIMCHECK
 70
     0
  9
$BLIPMODE
 70
     0
  9
$CHAMFERA
 40
0.0
  9
$CHAMFERB
 40
0.0
  9
$FASTZOOM
 70
     1
  9
$SKPOLY
 70
     0
  9
$TDCREATE
 40
2447479.5449670139
  9
$TDUPDATE
 40
2447479.5449670139
  9
$TDINDWG
 40
0.0000000000
  9
$TDUSRTIMER
 40
0.0000000000
  9
$USRTIMER
 70
     1
  9
$ANGBASE
 50
0.0
  9
$ANGDIR
 70
     0
  9
$PDMODE
 70
     0
  9
$PDSIZE
 40
0.0
  9
$PLINEWID
 40
0.0
  9
$COORDS
 70
     2
  9
$SPLFRAME
 70
     0
  9
$SPLINESEGS
 70
     8
  9
$ATTDIA
 70
     0
  9
$ATTREQ
 70
     1
  9
$USERI1
 70
     0
  9
$USERI2
 70
     0
  9
$USERI3
 70
     0
  9
$USERI4
 70
     0
  9
$USERI5
 70
     0
  9
$USERR1
 40
0.0
  9
$USERR2
 40
0.0
  9
$USERR3
 40
0.0
  9
$USERR4
 40
0.0
  9
$USERR5
 40
0.0
  0
ENDSEC
  0
SECTION
  2
TABLES
  0
TABLE
  2
LTYPE
 70
     1
  0
LTYPE
  2
CONTINUOUS
 70
    64
  3
Solid line
 72
    65
 73
     0
 40
0.0
  0
ENDTAB
  0
TABLE
  2
LAYER
 70
     2
  0
LAYER
  2
0
 70
    64
 62
     7
  6
CONTINUOUS
  0
LAYER
  2
PEN1
 70
     0
 62
     7
  6
CONTINUOUS
  0
ENDTAB
  0
TABLE
  2
STYLE
 70
     1
  0
STYLE
  2
STANDARD
 70
     0
 40
0.0
 41
1.0
 50
0.0
 71
     0
 42
0.2
  3
SIMPLEX
  4

  0
ENDTAB
  0
TABLE
  2
VIEW
 70
     0
  0
ENDTAB
  0
ENDSEC
  0
SECTION
  2
BLOCKS
  0
BLOCK
  8
0
  2
BORDER
 70
     0
 10
0.0
 20
0.0
  0
LINE
  8
0
 10
0.0
 20
0.0
 11
1.0
 21
0.0
  0
LINE
  8
0
 10
1.0
 20
0.0
 11
1.0
 21
1.0
  0
LINE
  8
0
 10
1.0
 20
1.0
 11
0.0
 21
1.0
  0
LINE
  8
0
 10
0.0
 20
1.0
 11
0.0
 21
0.0
  0
ENDBLK
  8
0
  0
ENDSEC
  0
SECTION
  2
ENTITIES
  0
LINE
  8
PEN1
 10
6.651
 20
3.356
 11
6.651
 21
3.356
  0
LINE
  8
PEN1
 10
6.651
 20
3.356
 11
6.667
 21
3.336
  0
LINE
  8
PEN1
 10
6.667
 20
3.336
 11
6.651
 21
2.677
  0
LINE
  8
PEN1
 10
6.651
 20
2.677
 11
6.691
 21
2.358
  0
LINE
  8
PEN1
 10
6.691
 20
2.358
 11
6.738
 21
2.347
  0
LINE
  8
PEN1
 10
6.738
 20
2.347
 11
6.756
 21
2.447
  0
LINE
  8
PEN1
 10
6.756
 20
2.447
 11
6.774
 21
2.42
  0
LINE
  8
PEN1
 10
6.774
 20
2.42
 11
6.777
 21
2.372
  0
LINE
  8
PEN1
 10
6.777
 20
2.372
 11
6.802
 21
2.348
  0
LINE
  8
PEN1
 10
6.802
 20
2.348
 11
6.765
 21
2.326
  0
LINE
  8
PEN1
 10
6.765
 20
2.326
 11
6.857
 21
2.35
  0
LINE
  8
PEN1
 10
6.857
 20
2.35
 11
6.876
 21
2.38
  0
LINE
  8
PEN1
 10
6.876
 20
2.38
 11
6.861
 21
2.397
  0
LINE
  8
PEN1
 10
6.861
 20
2.397
 11
6.869
 21
2.423
  0
LINE
  8
PEN1
 10
6.869
 20
2.423
 11
6.824
 21
2.466
  0
LINE
  8
PEN1
 10
6.824
 20
2.466
 11
6.827
 21
2.499
  0
LINE
  8
PEN1
 10
6.827
 20
2.499
 11
7.306
 21
2.543
  0
LINE
  8
PEN1
 10
7.306
 20
2.543
 11
7.265
 21
2.712
  0
LINE
  8
PEN1
 10
7.265
 20
2.712
 11
7.272
 21
2.772
  0
LINE
  8
PEN1
 10
7.272
 20
2.772
 11
7.292
 21
2.812
  0
LINE
  8
PEN1
 10
7.292
 20
2.812
 11
7.275
 21
2.868
  0
LINE
  8
PEN1
 10
7.275
 20
2.868
 11
7.229
 21
2.944
  0
LINE
  8
PEN1
 10
7.229
 20
2.944
 11
7.106
 21
3.394
  0
LINE
  8
PEN1
 10
7.106
 20
3.394
 11
6.651
 21
3.356
  0
LINE
  8
PEN1
 10
1.017
 20
1.352
 11
1.017
 21
1.352
  0
LINE
  8
PEN1
 10
1.017
 20
1.352
 11
1.038
 21
1.374
  0
LINE
  8
PEN1
 10
1.038
 20
1.374
 11
1.097
 21
1.394
  0
LINE
  8
PEN1
 10
1.097
 20
1.394
 11
1.102
 21
1.386
  0
LINE
  8
PEN1
 10
1.102
 20
1.386
 11
1.017
 21
1.352
  0
LINE
  8
PEN1
 10
1.14
 20
1.378
 11
1.14
 21
1.378
  0
LINE
  8
PEN1
 10
1.14
 20
1.378
 11
1.151
 21
1.412
  0
LINE
  8
PEN1
 10
1.151
 20
1.412
 11
1.191
 21
1.406
  0
LINE
  8
PEN1
 10
1.191
 20
1.406
 11
1.185
 21
1.386
  0
LINE
  8
PEN1
 10
1.185
 20
1.386
 11
1.14
 21
1.378
  0
LINE
  8
PEN1
 10
1.252
 20
1.414
 11
1.252
 21
1.414
  0
LINE
  8
PEN1
 10
1.252
 20
1.414
 11
1.273
 21
1.452
  0
LINE
  8
PEN1
 10
1.273
 20
1.452
 11
1.33
 21
1.452
  0
LINE
  8
PEN1
 10
1.33
 20
1.452
 11
1.344
 21
1.417
  0
LINE
  8
PEN1
 10
1.344
 20
1.417
 11
1.283
 21
1.426
  0
LINE
  8
PEN1
 10
1.283
 20
1.426
 11
1.252
 21
1.414
  0
LINE
  8
PEN1
 10
1.338
 20
1.44
 11
1.338
 21
1.44
  0
LINE
  8
PEN1
 10
1.338
 20
1.44
 11
1.352
 21
1.461
  0
LINE
  8
PEN1
 10
1.352
 20
1.461
 11
1.365
 21
1.458
  0
LINE
  8
PEN1
 10
1.365
 20
1.458
 11
1.433
 21
1.508
  0
LINE
  8
PEN1
 10
1.433
 20
1.508
 11
1.474
 21
1.499
  0
LINE
  8
PEN1
 10
1.474
 20
1.499
 11
1.486
 21
1.48
  0
LINE
  8
PEN1
 10
1.486
 20
1.48
 11
1.489
 21
1.5
  0
LINE
  8
PEN1
 10
1.489
 20
1.5
 11
1.53
 21
1.529
  0
LINE
  8
PEN1
 10
1.53
 20
1.529
 11
1.595
 21
1.554
  0
LINE
  8
PEN1
 10
1.595
 20
1.554
 11
1.654
 21
1.602
  0
LINE
  8
PEN1
 10
1.654
 20
1.602
 11
1.668
 21
1.597
  0
LINE
  8
PEN1
 10
1.668
 20
1.597
 11
1.678
 21
1.658
  0
LINE
  8
PEN1
 10
1.678
 20
1.658
 11
1.712
 21
1.707
  0
LINE
  8
PEN1
 10
1.712
 20
1.707
 11
1.653
 21
1.702
  0
LINE
  8
PEN1
 10
1.653
 20
1.702
 11
1.66
 21
1.726
  0
LINE
  8
PEN1
 10
1.66
 20
1.726
 11
1.681
 21
1.724
  0
LINE
  8
PEN1
 10
1.681
 20
1.724
 11
1.661
 21
1.736
  0
LINE
  8
PEN1
 10
1.661
 20
1.736
 11
1.631
 21
1.708
  0
LINE
  8
PEN1
 10
1.631
 20
1.708
 11
1.629
 21
1.687
  0
LINE
  8
PEN1
 10
1.629
 20
1.687
 11
1.594
 21
1.734
  0
LINE
  8
PEN1
 10
1.594
 20
1.734
 11
1.583
 21
1.726
  0
LINE
  8
PEN1
 10
1.583
 20
1.726
 11
1.564
 21
1.75
  0
LINE
  8
PEN1
 10
1.564
 20
1.75
 11
1.518
 21
1.732
  0
LINE
  8
PEN1
 10
1.518
 20
1.732
 11
1.507
 21
1.728
  0
LINE
  8
PEN1
 10
1.507
 20
1.728
 11
1.468
 21
1.74
  0
LINE
  8
PEN1
 10
1.468
 20
1.74
 11
1.508
 21
1.773
  0
LINE
  8
PEN1
 10
1.508
 20
1.773
 11
1.497
 21
1.781
  0
LINE
  8
PEN1
 10
1.497
 20
1.781
 11
1.51
 21
1.804
  0
LINE
  8
PEN1
 10
1.51
 20
1.804
 11
1.503
 21
1.873
  0
LINE
  8
PEN1
 10
1.503
 20
1.873
 11
1.524
 21
1.906
  0
LINE
  8
PEN1
 10
1.524
 20
1.906
 11
1.49
 21
1.881
  0
LINE
  8
PEN1
 10
1.49
 20
1.881
 11
1.492
 21
1.86
  0
LINE
  8
PEN1
 10
1.492
 20
1.86
 11
1.462
 21
1.842
  0
LINE
  8
PEN1
 10
1.462
 20
1.842
 11
1.423
 21
1.855
  0
LINE
  8
PEN1
 10
1.423
 20
1.855
 11
1.411
 21
1.908
  0
LINE
  8
PEN1
 10
1.411
 20
1.908
 11
1.384
 21
1.933
  0
LINE
  8
PEN1
 10
1.384
 20
1.933
 11
1.385
 21
1.947
  0
LINE
  8
PEN1
 10
1.385
 20
1.947
 11
1.401
 21
1.947
  0
LINE
  8
PEN1
 10
1.401
 20
1.947
 11
1.409
 21
1.959
  0
LINE
  8
PEN1
 10
1.409
 20
1.959
 11
1.421
 21
1.964
  0
LINE
  8
PEN1
 10
1.421
 20
1.964
 11
1.409
 21
1.966
  0
LINE
  8
PEN1
 10
1.409
 20
1.966
 11
1.419
 21
1.975
  0
LINE
  8
PEN1
 10
1.419
 20
1.975
 11
1.404
 21
1.993
  0
LINE
  8
PEN1
 10
1.404
 20
1.993
 11
1.397
 21
1.984
  0
LINE
  8
PEN1
 10
1.397
 20
1.984
 11
1.376
 21
2.026
  0
LINE
  8
PEN1
 10
1.376
 20
2.026
 11
1.389
 21
2.055
  0
LINE
  8
PEN1
 10
1.389
 20
2.055
 11
1.465
 21
2.107
  0
LINE
  8
PEN1
 10
1.465
 20
2.107
 11
1.485
 21
2.143
  0
LINE
  8
PEN1
 10
1.485
 20
2.143
 11
1.501
 21
2.149
  0
LINE
  8
PEN1
 10
1.501
 20
2.149
 11
1.537
 21
2.125
  0
LINE
  8
PEN1
 10
1.537
 20
2.125
 11
1.565
 21
2.133
  0
LINE
  8
PEN1
 10
1.565
 20
2.133
 11
1.577
 21
2.151
  0
LINE
  8
PEN1
 10
1.577
 20
2.151
 11
1.632
 21
2.143
  0
LINE
  8
PEN1
 10
1.632
 20
2.143
 11
1.645
 21
2.199
  0
LINE
  8
PEN1
 10
1.645
 20
2.199
 11
1.629
 21
2.22
  0
LINE
  8
PEN1
 10
1.629
 20
2.22
 11
1.665
 21
2.241
  0
LINE
  8
PEN1
 10
1.665
 20
2.241
 11
1.631
 21
2.253
  0
LINE
  8
PEN1
 10
1.631
 20
2.253
 11
1.584
 21
2.223
  0
LINE
  8
PEN1
 10
1.584
 20
2.223
 11
1.58
 21
2.252
  0
LINE
  8
PEN1
 10
1.58
 20
2.252
 11
1.496
 21
2.256
  0
LINE
  8
PEN1
 10
1.496
 20
2.256
 11
1.459
 21
2.289
  0
LINE
  8
PEN1
 10
1.459
 20
2.289
 11
1.453
 21
2.346
  0
LINE
  8
PEN1
 10
1.453
 20
2.346
 11
1.481
 21
2.335
  0
LINE
  8
PEN1
 10
1.481
 20
2.335
 11
1.422
 21
2.394
  0
LINE
  8
PEN1
 10
1.422
 20
2.394
 11
1.574
 21
2.427
  0
LINE
  8
PEN1
 10
1.574
 20
2.427
 11
1.596
 21
2.419
  0
LINE
  8
PEN1
 10
1.596
 20
2.419
 11
1.577
 21
2.393
  0
LINE
  8
PEN1
 10
1.577
 20
2.393
 11
1.655
 21
2.356
  0
LINE
  8
PEN1
 10
1.655
 20
2.356
 11
1.691
 21
2.367
  0
LINE
  8
PEN1
 10
1.691
 20
2.367
 11
1.686
 21
2.379
  0
LINE
  8
PEN1
 10
1.686
 20
2.379
 11
1.659
 21
2.387
  0
LINE
  8
PEN1
 10
1.659
 20
2.387
 11
1.643
 21
2.44
  0
LINE
  8
PEN1
 10
1.643
 20
2.44
 11
1.664
 21
2.422
  0
LINE
  8
PEN1
 10
1.664
 20
2.422
 11
1.671
 21
2.393
  0
LINE
  8
PEN1
 10
1.671
 20
2.393
 11
1.706
 21
2.374
  0
LINE
  8
PEN1
 10
1.706
 20
2.374
 11
1.74
 21
2.376
  0
LINE
  8
PEN1
 10
1.74
 20
2.376
 11
1.732
 21
2.395
  0
LINE
  8
PEN1
 10
1.732
 20
2.395
 11
1.674
 21
2.409
  0
LINE
  8
PEN1
 10
1.674
 20
2.409
 11
1.685
 21
2.44
  0
LINE
  8
PEN1
 10
1.685
 20
2.44
 11
1.618
 21
2.464
  0
LINE
  8
PEN1
 10
1.618
 20
2.464
 11
1.616
 21
2.509
  0
LINE
  8
PEN1
 10
1.616
 20
2.509
 11
1.596
 21
2.54
  0
LINE
  8
PEN1
 10
1.596
 20
2.54
 11
1.548
 21
2.598
  0
LINE
  8
PEN1
 10
1.548
 20
2.598
 11
1.566
 21
2.6
  0
LINE
  8
PEN1
 10
1.566
 20
2.6
 11
1.589
 21
2.644
  0
LINE
  8
PEN1
 10
1.589
 20
2.644
 11
1.646
 21
2.624
  0
LINE
  8
PEN1
 10
1.646
 20
2.624
 11
1.688
 21
2.645
  0
LINE
  8
PEN1
 10
1.688
 20
2.645
 11
1.752
 21
2.721
  0
LINE
  8
PEN1
 10
1.752
 20
2.721
 11
1.771
 21
2.71
  0
LINE
  8
PEN1
 10
1.771
 20
2.71
 11
1.811
 21
2.736
  0
LINE
  8
PEN1
 10
1.811
 20
2.736
 11
1.812
 21
2.714
  0
LINE
  8
PEN1
 10
1.812
 20
2.714
 11
1.833
 21
2.719
  0
LINE
  8
PEN1
 10
1.833
 20
2.719
 11
1.822
 21
2.732
  0
LINE
  8
PEN1
 10
1.822
 20
2.732
 11
1.882
 21
2.741
  0
LINE
  8
PEN1
 10
1.882
 20
2.741
 11
1.925
 21
2.781
  0
LINE
  8
PEN1
 10
1.925
 20
2.781
 11
1.952
 21
2.753
  0
LINE
  8
PEN1
 10
1.952
 20
2.753
 11
1.942
 21
2.721
  0
LINE
  8
PEN1
 10
1.942
 20
2.721
 11
1.962
 21
2.719
  0
LINE
  8
PEN1
 10
1.962
 20
2.719
 11
1.97
 21
2.749
  0
LINE
  8
PEN1
 10
1.97
 20
2.749
 11
1.997
 21
2.712
  0
LINE
  8
PEN1
 10
1.997
 20
2.712
 11
2.044
 21
2.712
  0
LINE
  8
PEN1
 10
2.044
 20
2.712
 11
2.051
 21
2.678
  0
LINE
  8
PEN1
 10
2.051
 20
2.678
 11
2.138
 21
2.669
  0
LINE
  8
PEN1
 10
2.138
 20
2.669
 11
2.137
 21
2.651
  0
LINE
  8
PEN1
 10
2.137
 20
2.651
 11
2.158
 21
2.662
  0
LINE
  8
PEN1
 10
2.158
 20
2.662
 11
2.18
 21
2.636
  0
LINE
  8
PEN1
 10
2.18
 20
2.636
 11
2.225
 21
2.644
  0
LINE
  8
PEN1
 10
2.225
 20
2.644
 11
2.267
 21
2.624
  0
LINE
  8
PEN1
 10
2.267
 20
2.624
 11
2.308
 21
2.643
  0
LINE
  8
PEN1
 10
2.308
 20
2.643
 11
2.308
 21
2.633
  0
LINE
  8
PEN1
 10
2.308
 20
2.633
 11
2.324
 21
2.637
  0
LINE
  8
PEN1
 10
2.324
 20
2.637
 11
2.394
 21
2.602
  0
LINE
  8
PEN1
 10
2.394
 20
2.602
 11
2.448
 21
1.789
  0
LINE
  8
PEN1
 10
2.448
 20
1.789
 11
2.528
 21
1.791
  0
LINE
  8
PEN1
 10
2.528
 20
1.791
 11
2.526
 21
1.77
  0
LINE
  8
PEN1
 10
2.526
 20
1.77
 11
2.552
 21
1.75
  0
LINE
  8
PEN1
 10
2.552
 20
1.75
 11
2.602
 21
1.711
  0
LINE
  8
PEN1
 10
2.602
 20
1.711
 11
2.61
 21
1.688
  0
LINE
  8
PEN1
 10
2.61
 20
1.688
 11
2.651
 21
1.713
  0
LINE
  8
PEN1
 10
2.651
 20
1.713
 11
2.662
 21
1.746
  0
LINE
  8
PEN1
 10
2.662
 20
1.746
 11
2.685
 21
1.759
  0
LINE
  8
PEN1
 10
2.685
 20
1.759
 11
2.69
 21
1.765
  0
LINE
  8
PEN1
 10
2.69
 20
1.765
 11
2.715
 21
1.746
  0
LINE
  8
PEN1
 10
2.715
 20
1.746
 11
2.713
 21
1.724
  0
LINE
  8
PEN1
 10
2.713
 20
1.724
 11
2.731
 21
1.723
  0
LINE
  8
PEN1
 10
2.731
 20
1.723
 11
2.741
 21
1.715
  0
LINE
  8
PEN1
 10
2.741
 20
1.715
 11
2.749
 21
1.699
  0
LINE
  8
PEN1
 10
2.749
 20
1.699
 11
2.776
 21
1.685
  0
LINE
  8
PEN1
 10
2.776
 20
1.685
 11
2.896
 21
1.518
  0
LINE
  8
PEN1
 10
2.896
 20
1.518
 11
2.933
 21
1.509
  0
LINE
  8
PEN1
 10
2.933
 20
1.509
 11
2.993
 21
1.486
  0
LINE
  8
PEN1
 10
2.993
 20
1.486
 11
2.999
 21
1.473
  0
LINE
  8
PEN1
 10
2.999
 20
1.473
 11
2.986
 21
1.461
  0
LINE
  8
PEN1
 10
2.986
 20
1.461
 11
2.989
 21
1.433
  0
LINE
  8
PEN1
 10
2.989
 20
1.433
 11
2.978
 21
1.377
  0
LINE
  8
PEN1
 10
2.978
 20
1.377
 11
2.971
 21
1.388
  0
LINE
  8
PEN1
 10
2.971
 20
1.388
 11
2.96
 21
1.378
  0
LINE
  8
PEN1
 10
2.96
 20
1.378
 11
2.946
 21
1.39
  0
LINE
  8
PEN1
 10
2.946
 20
1.39
 11
2.966
 21
1.406
  0
LINE
  8
PEN1
 10
2.966
 20
1.406
 11
2.951
 21
1.426
  0
LINE
  8
PEN1
 10
2.951
 20
1.426
 11
2.951
 21
1.438
  0
LINE
  8
PEN1
 10
2.951
 20
1.438
 11
2.933
 21
1.476
  0
LINE
  8
PEN1
 10
2.933
 20
1.476
 11
2.922
 21
1.476
  0
LINE
  8
PEN1
 10
2.922
 20
1.476
 11
2.901
 21
1.462
  0
LINE
  8
PEN1
 10
2.901
 20
1.462
 11
2.898
 21
1.442
  0
LINE
  8
PEN1
 10
2.898
 20
1.442
 11
2.88
 21
1.437
  0
LINE
  8
PEN1
 10
2.88
 20
1.437
 11
2.877
 21
1.442
  0
LINE
  8
PEN1
 10
2.877
 20
1.442
 11
2.891
 21
1.465
  0
LINE
  8
PEN1
 10
2.891
 20
1.465
 11
2.895
 21
1.486
  0
LINE
  8
PEN1
 10
2.895
 20
1.486
 11
2.883
 21
1.478
  0
LINE
  8
PEN1
 10
2.883
 20
1.478
 11
2.878
 21
1.461
  0
LINE
  8
PEN1
 10
2.878
 20
1.461
 11
2.836
 21
1.488
  0
LINE
  8
PEN1
 10
2.836
 20
1.488
 11
2.838
 21
1.497
  0
LINE
  8
PEN1
 10
2.838
 20
1.497
 11
2.86
 21
1.496
  0
LINE
  8
PEN1
 10
2.86
 20
1.496
 11
2.863
 21
1.513
  0
LINE
  8
PEN1
 10
2.863
 20
1.513
 11
2.877
 21
1.519
  0
LINE
  8
PEN1
 10
2.877
 20
1.519
 11
2.875
 21
1.527
  0
LINE
  8
PEN1
 10
2.875
 20
1.527
 11
2.854
 21
1.524
  0
LINE
  8
PEN1
 10
2.854
 20
1.524
 11
2.847
 21
1.554
  0
LINE
  8
PEN1
 10
2.847
 20
1.554
 11
2.804
 21
1.555
  0
LINE
  8
PEN1
 10
2.804
 20
1.555
 11
2.792
 21
1.589
  0
LINE
  8
PEN1
 10
2.792
 20
1.589
 11
2.804
 21
1.617
  0
LINE
  8
PEN1
 10
2.804
 20
1.617
 11
2.788
 21
1.613
  0
LINE
  8
PEN1
 10
2.788
 20
1.613
 11
2.782
 21
1.634
  0
LINE
  8
PEN1
 10
2.782
 20
1.634
 11
2.773
 21
1.626
  0
LINE
  8
PEN1
 10
2.773
 20
1.626
 11
2.766
 21
1.635
  0
LINE
  8
PEN1
 10
2.766
 20
1.635
 11
2.776
 21
1.66
  0
LINE
  8
PEN1
 10
2.776
 20
1.66
 11
2.767
 21
1.664
  0
LINE
  8
PEN1
 10
2.767
 20
1.664
 11
2.764
 21
1.649
  0
LINE
  8
PEN1
 10
2.764
 20
1.649
 11
2.749
 21
1.644
  0
LINE
  8
PEN1
 10
2.749
 20
1.644
 11
2.732
 21
1.653
  0
LINE
  8
PEN1
 10
2.732
 20
1.653
 11
2.73
 21
1.675
  0
LINE
  8
PEN1
 10
2.73
 20
1.675
 11
2.708
 21
1.703
  0
LINE
  8
PEN1
 10
2.708
 20
1.703
 11
2.709
 21
1.72
  0
LINE
  8
PEN1
 10
2.709
 20
1.72
 11
2.7
 21
1.723
  0
LINE
  8
PEN1
 10
2.7
 20
1.723
 11
2.698
 21
1.744
  0
LINE
  8
PEN1
 10
2.698
 20
1.744
 11
2.695
 21
1.736
  0
LINE
  8
PEN1
 10
2.695
 20
1.736
 11
2.704
 21
1.687
  0
LINE
  8
PEN1
 10
2.704
 20
1.687
 11
2.723
 21
1.652
  0
LINE
  8
PEN1
 10
2.723
 20
1.652
 11
2.783
 21
1.605
  0
LINE
  8
PEN1
 10
2.783
 20
1.605
 11
2.784
 21
1.596
  0
LINE
  8
PEN1
 10
2.784
 20
1.596
 11
2.769
 21
1.599
  0
LINE
  8
PEN1
 10
2.769
 20
1.599
 11
2.768
 21
1.589
  0
LINE
  8
PEN1
 10
2.768
 20
1.589
 11
2.776
 21
1.591
  0
LINE
  8
PEN1
 10
2.776
 20
1.591
 11
2.785
 21
1.558
  0
LINE
  8
PEN1
 10
2.785
 20
1.558
 11
2.823
 21
1.54
  0
LINE
  8
PEN1
 10
2.823
 20
1.54
 11
2.843
 21
1.508
  0
LINE
  8
PEN1
 10
2.843
 20
1.508
 11
2.797
 21
1.498
  0
LINE
  8
PEN1
 10
2.797
 20
1.498
 11
2.776
 21
1.439
  0
LINE
  8
PEN1
 10
2.776
 20
1.439
 11
2.763
 21
1.533
  0
LINE
  8
PEN1
 10
2.763
 20
1.533
 11
2.754
 21
1.542
  0
LINE
  8
PEN1
 10
2.754
 20
1.542
 11
2.753
 21
1.56
  0
LINE
  8
PEN1
 10
2.753
 20
1.56
 11
2.761
 21
1.567
  0
LINE
  8
PEN1
 10
2.761
 20
1.567
 11
2.724
 21
1.638
  0
LINE
  8
PEN1
 10
2.724
 20
1.638
 11
2.71
 21
1.64
  0
LINE
  8
PEN1
 10
2.71
 20
1.64
 11
2.702
 21
1.653
  0
LINE
  8
PEN1
 10
2.702
 20
1.653
 11
2.691
 21
1.65
  0
LINE
  8
PEN1
 10
2.691
 20
1.65
 11
2.683
 21
1.656
  0
LINE
  8
PEN1
 10
2.683
 20
1.656
 11
2.674
 21
1.696
  0
LINE
  8
PEN1
 10
2.674
 20
1.696
 11
2.668
 21
1.68
  0
LINE
  8
PEN1
 10
2.668
 20
1.68
 11
2.637
 21
1.691
  0
LINE
  8
PEN1
 10
2.637
 20
1.691
 11
2.631
 21
1.683
  0
LINE
  8
PEN1
 10
2.631
 20
1.683
 11
2.67
 21
1.66
  0
LINE
  8
PEN1
 10
2.67
 20
1.66
 11
2.652
 21
1.654
  0
LINE
  8
PEN1
 10
2.652
 20
1.654
 11
2.654
 21
1.636
  0
LINE
  8
PEN1
 10
2.654
 20
1.636
 11
2.622
 21
1.648
  0
LINE
  8
PEN1
 10
2.622
 20
1.648
 11
2.582
 21
1.687
  0
LINE
  8
PEN1
 10
2.582
 20
1.687
 11
2.523
 21
1.715
  0
LINE
  8
PEN1
 10
2.523
 20
1.715
 11
2.48
 21
1.716
  0
LINE
  8
PEN1
 10
2.48
 20
1.716
 11
2.509
 21
1.755
  0
LINE
  8
PEN1
 10
2.509
 20
1.755
 11
2.524
 21
1.736
  0
LINE
  8
PEN1
 10
2.524
 20
1.736
 11
2.526
 21
1.755
  0
LINE
  8
PEN1
 10
2.526
 20
1.755
 11
2.501
 21
1.773
  0
LINE
  8
PEN1
 10
2.501
 20
1.773
 11
2.486
 21
1.742
  0
LINE
  8
PEN1
 10
2.486
 20
1.742
 11
2.451
 21
1.74
  0
LINE
  8
PEN1
 10
2.451
 20
1.74
 11
2.299
 21
1.754
  0
LINE
  8
PEN1
 10
2.299
 20
1.754
 11
2.304
 21
1.779
  0
LINE
  8
PEN1
 10
2.304
 20
1.779
 11
2.29
 21
1.772
  0
LINE
  8
PEN1
 10
2.29
 20
1.772
 11
2.27
 21
1.795
  0
LINE
  8
PEN1
 10
2.27
 20
1.795
 11
2.248
 21
1.783
  0
LINE
  8
PEN1
 10
2.248
 20
1.783
 11
2.238
 21
1.798
  0
LINE
  8
PEN1
 10
2.238
 20
1.798
 11
2.199
 21
1.781
  0
LINE
  8
PEN1
 10
2.199
 20
1.781
 11
2.197
 21
1.793
  0
LINE
  8
PEN1
 10
2.197
 20
1.793
 11
2.216
 21
1.82
  0
LINE
  8
PEN1
 10
2.216
 20
1.82
 11
2.204
 21
1.821
  0
LINE
  8
PEN1
 10
2.204
 20
1.821
 11
2.218
 21
1.83
  0
LINE
  8
PEN1
 10
2.218
 20
1.83
 11
2.173
 21
1.824
  0
LINE
  8
PEN1
 10
2.173
 20
1.824
 11
2.156
 21
1.84
  0
LINE
  8
PEN1
 10
2.156
 20
1.84
 11
2.141
 21
1.83
  0
LINE
  8
PEN1
 10
2.141
 20
1.83
 11
2.137
 21
1.842
  0
LINE
  8
PEN1
 10
2.137
 20
1.842
 11
2.147
 21
1.855
  0
LINE
  8
PEN1
 10
2.147
 20
1.855
 11
2.123
 21
1.847
  0
LINE
  8
PEN1
 10
2.123
 20
1.847
 11
2.127
 21
1.84
  0
LINE
  8
PEN1
 10
2.127
 20
1.84
 11
2.114
 21
1.827
  0
LINE
  8
PEN1
 10
2.114
 20
1.827
 11
2.131
 21
1.829
  0
LINE
  8
PEN1
 10
2.131
 20
1.829
 11
2.123
 21
1.805
  0
LINE
  8
PEN1
 10
2.123
 20
1.805
 11
2.141
 21
1.796
  0
LINE
  8
PEN1
 10
2.141
 20
1.796
 11
2.162
 21
1.785
  0
LINE
  8
PEN1
 10
2.162
 20
1.785
 11
2.187
 21
1.796
  0
LINE
  8
PEN1
 10
2.187
 20
1.796
 11
2.182
 21
1.744
  0
LINE
  8
PEN1
 10
2.182
 20
1.744
 11
2.139
 21
1.742
  0
LINE
  8
PEN1
 10
2.139
 20
1.742
 11
2.139
 21
1.756
  0
LINE
  8
PEN1
 10
2.139
 20
1.756
 11
2.123
 21
1.766
  0
LINE
  8
PEN1
 10
2.123
 20
1.766
 11
2.09
 21
1.752
  0
LINE
  8
PEN1
 10
2.09
 20
1.752
 11
2.088
 21
1.766
  0
LINE
  8
PEN1
 10
2.088
 20
1.766
 11
2.075
 21
1.754
  0
LINE
  8
PEN1
 10
2.075
 20
1.754
 11
2.073
 21
1.77
  0
LINE
  8
PEN1
 10
2.073
 20
1.77
 11
2.047
 21
1.773
  0
LINE
  8
PEN1
 10
2.047
 20
1.773
 11
2.066
 21
1.744
  0
LINE
  8
PEN1
 10
2.066
 20
1.744
 11
2.063
 21
1.737
  0
LINE
  8
PEN1
 10
2.063
 20
1.737
 11
2.063
 21
1.737
  0
LINE
  8
PEN1
 10
2.063
 20
1.737
 11
2.052
 21
1.742
  0
LINE
  8
PEN1
 10
2.052
 20
1.742
 11
2.022
 21
1.724
  0
LINE
  8
PEN1
 10
2.022
 20
1.724
 11
2.016
 21
1.73
  0
LINE
  8
PEN1
 10
2.016
 20
1.73
 11
1.994
 21
1.691
  0
LINE
  8
PEN1
 10
1.994
 20
1.691
 11
1.982
 21
1.707
  0
LINE
  8
PEN1
 10
1.982
 20
1.707
 11
1.973
 21
1.697
  0
LINE
  8
PEN1
 10
1.973
 20
1.697
 11
1.952
 21
1.701
  0
LINE
  8
PEN1
 10
1.952
 20
1.701
 11
1.949
 21
1.721
  0
LINE
  8
PEN1
 10
1.949
 20
1.721
 11
1.977
 21
1.721
  0
LINE
  8
PEN1
 10
1.977
 20
1.721
 11
1.994
 21
1.741
  0
LINE
  8
PEN1
 10
1.994
 20
1.741
 11
1.948
 21
1.742
  0
LINE
  8
PEN1
 10
1.948
 20
1.742
 11
1.987
 21
1.834
  0
LINE
  8
PEN1
 10
1.987
 20
1.834
 11
2.053
 21
1.849
  0
LINE
  8
PEN1
 10
2.053
 20
1.849
 11
2.046
 21
1.87
  0
LINE
  8
PEN1
 10
2.046
 20
1.87
 11
2.087
 21
1.894
  0
LINE
  8
PEN1
 10
2.087
 20
1.894
 11
2.031
 21
1.879
  0
LINE
  8
PEN1
 10
2.031
 20
1.879
 11
2.04
 21
1.926
  0
LINE
  8
PEN1
 10
2.04
 20
1.926
 11
2.013
 21
1.871
  0
LINE
  8
PEN1
 10
2.013
 20
1.871
 11
1.977
 21
1.854
  0
LINE
  8
PEN1
 10
1.977
 20
1.854
 11
1.934
 21
1.799
  0
LINE
  8
PEN1
 10
1.934
 20
1.799
 11
1.904
 21
1.799
  0
LINE
  8
PEN1
 10
1.904
 20
1.799
 11
1.92
 21
1.77
  0
LINE
  8
PEN1
 10
1.92
 20
1.77
 11
1.845
 21
1.71
  0
LINE
  8
PEN1
 10
1.845
 20
1.71
 11
1.878
 21
1.697
  0
LINE
  8
PEN1
 10
1.878
 20
1.697
 11
1.871
 21
1.671
  0
LINE
  8
PEN1
 10
1.871
 20
1.671
 11
1.702
 21
1.543
  0
LINE
  8
PEN1
 10
1.702
 20
1.543
 11
1.581
 21
1.509
  0
LINE
  8
PEN1
 10
1.581
 20
1.509
 11
1.616
 21
1.495
  0
LINE
  8
PEN1
 10
1.616
 20
1.495
 11
1.543
 21
1.455
  0
LINE
  8
PEN1
 10
1.543
 20
1.455
 11
1.528
 21
1.474
  0
LINE
  8
PEN1
 10
1.528
 20
1.474
 11
1.479
 21
1.455
  0
LINE
  8
PEN1
 10
1.479
 20
1.455
 11
1.441
 21
1.454
  0
LINE
  8
PEN1
 10
1.441
 20
1.454
 11
1.442
 21
1.477
  0
LINE
  8
PEN1
 10
1.442
 20
1.477
 11
1.394
 21
1.431
  0
LINE
  8
PEN1
 10
1.394
 20
1.431
 11
1.382
 21
1.434
  0
LINE
  8
PEN1
 10
1.382
 20
1.434
 11
1.381
 21
1.456
  0
LINE
  8
PEN1
 10
1.381
 20
1.456
 11
1.372
 21
1.434
  0
LINE
  8
PEN1
 10
1.372
 20
1.434
 11
1.338
 21
1.44
  0
LINE
  8
PEN1
 10
1.781
 20
1.476
 11
1.781
 21
1.476
  0
LINE
  8
PEN1
 10
1.781
 20
1.476
 11
1.828
 21
1.52
  0
LINE
  8
PEN1
 10
1.828
 20
1.52
 11
1.797
 21
1.576
  0
LINE
  8
PEN1
 10
1.797
 20
1.576
 11
1.841
 21
1.558
  0
LINE
  8
PEN1
 10
1.841
 20
1.558
 11
1.907
 21
1.641
  0
LINE
  8
PEN1
 10
1.907
 20
1.641
 11
1.946
 21
1.632
  0
LINE
  8
PEN1
 10
1.946
 20
1.632
 11
1.911
 21
1.551
  0
LINE
  8
PEN1
 10
1.911
 20
1.551
 11
1.781
 21
1.476
  0
LINE
  8
PEN1
 10
2.657
 20
1.599
 11
2.657
 21
1.599
  0
LINE
  8
PEN1
 10
2.657
 20
1.599
 11
2.678
 21
1.649
  0
LINE
  8
PEN1
 10
2.678
 20
1.649
 11
2.727
 21
1.601
  0
LINE
  8
PEN1
 10
2.727
 20
1.601
 11
2.754
 21
1.462
  0
LINE
  8
PEN1
 10
2.754
 20
1.462
 11
2.657
 21
1.599
  0
LINE
  8
PEN1
 10
2.805
 20
1.461
 11
2.805
 21
1.461
  0
LINE
  8
PEN1
 10
2.805
 20
1.461
 11
2.816
 21
1.392
  0
LINE
  8
PEN1
 10
2.816
 20
1.392
 11
2.898
 21
1.359
  0
LINE
  8
PEN1
 10
2.898
 20
1.359
 11
2.852
 21
1.459
  0
LINE
  8
PEN1
 10
2.852
 20
1.459
 11
2.805
 21
1.461
  0
LINE
  8
PEN1
 10
2.91
 20
1.406
 11
2.91
 21
1.406
  0
LINE
  8
PEN1
 10
2.91
 20
1.406
 11
2.916
 21
1.461
  0
LINE
  8
PEN1
 10
2.916
 20
1.461
 11
2.94
 21
1.414
  0
LINE
  8
PEN1
 10
2.94
 20
1.414
 11
2.91
 21
1.406
  0
LINE
  8
PEN1
 10
1.861
 20
3.122
 11
1.861
 21
3.122
  0
LINE
  8
PEN1
 10
1.861
 20
3.122
 11
1.937
 21
3.187
  0
LINE
  8
PEN1
 10
1.937
 20
3.187
 11
1.907
 21
3.239
  0
LINE
  8
PEN1
 10
1.907
 20
3.239
 11
1.923
 21
3.314
  0
LINE
  8
PEN1
 10
1.923
 20
3.314
 11
1.999
 21
3.442
  0
LINE
  8
PEN1
 10
1.999
 20
3.442
 11
2.058
 21
3.479
  0
LINE
  8
PEN1
 10
2.058
 20
3.479
 11
2.024
 21
3.524
  0
LINE
  8
PEN1
 10
2.024
 20
3.524
 11
2.002
 21
3.651
  0
LINE
  8
PEN1
 10
2.002
 20
3.651
 11
2.027
 21
3.878
  0
LINE
  8
PEN1
 10
2.027
 20
3.878
 11
2.066
 21
3.891
  0
LINE
  8
PEN1
 10
2.066
 20
3.891
 11
2.132
 21
3.852
  0
LINE
  8
PEN1
 10
2.132
 20
3.852
 11
2.189
 21
4.054
  0
LINE
  8
PEN1
 10
2.189
 20
4.054
 11
3.037
 21
3.909
  0
LINE
  8
PEN1
 10
3.037
 20
3.909
 11
2.859
 21
2.691
  0
LINE
  8
PEN1
 10
2.859
 20
2.691
 11
2.6
 21
2.73
  0
LINE
  8
PEN1
 10
2.6
 20
2.73
 11
2.437
 21
2.777
  0
LINE
  8
PEN1
 10
2.437
 20
2.777
 11
2.105
 21
2.972
  0
LINE
  8
PEN1
 10
2.105
 20
2.972
 11
1.861
 21
3.122
  0
LINE
  8
PEN1
 10
5.512
 20
3.638
 11
5.512
 21
3.638
  0
LINE
  8
PEN1
 10
5.512
 20
3.638
 11
5.547
 21
3.395
  0
LINE
  8
PEN1
 10
5.547
 20
3.395
 11
5.541
 21
3.017
  0
LINE
  8
PEN1
 10
5.541
 20
3.017
 11
5.558
 21
2.996
  0
LINE
  8
PEN1
 10
5.558
 20
2.996
 11
5.62
 21
2.998
  0
LINE
  8
PEN1
 10
5.62
 20
2.998
 11
5.623
 21
2.881
  0
LINE
  8
PEN1
 10
5.623
 20
2.881
 11
6.14
 21
2.888
  0
LINE
  8
PEN1
 10
6.14
 20
2.888
 11
6.129
 21
3.007
  0
LINE
  8
PEN1
 10
6.129
 20
3.007
 11
6.174
 21
3.136
  0
LINE
  8
PEN1
 10
6.174
 20
3.136
 11
6.238
 21
3.227
  0
LINE
  8
PEN1
 10
6.238
 20
3.227
 11
6.235
 21
3.252
  0
LINE
  8
PEN1
 10
6.235
 20
3.252
 11
6.283
 21
3.332
  0
LINE
  8
PEN1
 10
6.283
 20
3.332
 11
6.308
 21
3.421
  0
LINE
  8
PEN1
 10
6.308
 20
3.421
 11
6.298
 21
3.428
  0
LINE
  8
PEN1
 10
6.298
 20
3.428
 11
6.342
 21
3.462
  0
LINE
  8
PEN1
 10
6.342
 20
3.462
 11
6.381
 21
3.541
  0
LINE
  8
PEN1
 10
6.381
 20
3.541
 11
6.368
 21
3.558
  0
LINE
  8
PEN1
 10
6.368
 20
3.558
 11
6.252
 21
3.552
  0
LINE
  8
PEN1
 10
6.252
 20
3.552
 11
6.284
 21
3.595
  0
LINE
  8
PEN1
 10
6.284
 20
3.595
 11
6.274
 21
3.663
  0
LINE
  8
PEN1
 10
6.274
 20
3.663
 11
5.512
 21
3.638
  0
LINE
  8
PEN1
 10
0.723
 20
5.104
 11
0.723
 21
5.104
  0
LINE
  8
PEN1
 10
0.723
 20
5.104
 11
0.74
 21
5.053
  0
LINE
  8
PEN1
 10
0.74
 20
5.053
 11
0.7
 21
4.871
  0
LINE
  8
PEN1
 10
0.7
 20
4.871
 11
0.725
 21
4.816
  0
LINE
  8
PEN1
 10
0.725
 20
4.816
 11
0.833
 21
4.575
  0
LINE
  8
PEN1
 10
0.833
 20
4.575
 11
0.845
 21
4.582
  0
LINE
  8
PEN1
 10
0.845
 20
4.582
 11
0.85
 21
4.635
  0
LINE
  8
PEN1
 10
0.85
 20
4.635
 11
0.868
 21
4.642
  0
LINE
  8
PEN1
 10
0.868
 20
4.642
 11
0.886
 21
4.629
  0
LINE
  8
PEN1
 10
0.886
 20
4.629
 11
0.854
 21
4.597
  0
LINE
  8
PEN1
 10
0.854
 20
4.597
 11
0.867
 21
4.579
  0
LINE
  8
PEN1
 10
0.867
 20
4.579
 11
0.895
 21
4.475
  0
LINE
  8
PEN1
 10
0.895
 20
4.475
 11
0.877
 21
4.481
  0
LINE
  8
PEN1
 10
0.877
 20
4.481
 11
0.839
 21
4.522
  0
LINE
  8
PEN1
 10
0.839
 20
4.522
 11
0.85
 21
4.562
  0
LINE
  8
PEN1
 10
0.85
 20
4.562
 11
0.831
 21
4.56
  0
LINE
  8
PEN1
 10
0.831
 20
4.56
 11
0.811
 21
4.516
  0
LINE
  8
PEN1
 10
0.811
 20
4.516
 11
0.817
 21
4.422
  0
LINE
  8
PEN1
 10
0.817
 20
4.422
 11
0.84
 21
4.378
  0
LINE
  8
PEN1
 10
0.84
 20
4.378
 11
0.89
 21
4.341
  0
LINE
  8
PEN1
 10
0.89
 20
4.341
 11
0.872
 21
4.295
  0
LINE
  8
PEN1
 10
0.872
 20
4.295
 11
0.845
 21
4.287
  0
LINE
  8
PEN1
 10
0.845
 20
4.287
 11
0.84
 21
4.227
  0
LINE
  8
PEN1
 10
0.84
 20
4.227
 11
0.907
 21
4.087
  0
LINE
  8
PEN1
 10
0.907
 20
4.087
 11
0.96
 21
4.0
  0
LINE
  8
PEN1
 10
0.96
 20
4.0
 11
0.952
 21
3.949
  0
LINE
  8
PEN1
 10
0.952
 20
3.949
 11
0.984
 21
3.917
  0
LINE
  8
PEN1
 10
0.984
 20
3.917
 11
0.971
 21
3.883
  0
LINE
  8
PEN1
 10
0.971
 20
3.883
 11
0.951
 21
3.802
  0
LINE
  8
PEN1
 10
0.951
 20
3.802
 11
0.975
 21
3.771
  0
LINE
  8
PEN1
 10
0.975
 20
3.771
 11
1.142
 21
3.712
  0
LINE
  8
PEN1
 10
1.142
 20
3.712
 11
1.21
 21
3.621
  0
LINE
  8
PEN1
 10
1.21
 20
3.621
 11
1.288
 21
3.59
  0
LINE
  8
PEN1
 10
1.288
 20
3.59
 11
1.29
 21
3.534
  0
LINE
  8
PEN1
 10
1.29
 20
3.534
 11
1.342
 21
3.52
  0
LINE
  8
PEN1
 10
1.342
 20
3.52
 11
1.413
 21
3.426
  0
LINE
  8
PEN1
 10
1.413
 20
3.426
 11
1.451
 21
3.344
  0
LINE
  8
PEN1
 10
1.451
 20
3.344
 11
1.453
 21
3.218
  0
LINE
  8
PEN1
 10
1.453
 20
3.218
 11
1.937
 21
3.187
  0
LINE
  8
PEN1
 10
1.937
 20
3.187
 11
1.907
 21
3.239
  0
LINE
  8
PEN1
 10
1.907
 20
3.239
 11
1.923
 21
3.314
  0
LINE
  8
PEN1
 10
1.923
 20
3.314
 11
1.999
 21
3.442
  0
LINE
  8
PEN1
 10
1.999
 20
3.442
 11
2.058
 21
3.479
  0
LINE
  8
PEN1
 10
2.058
 20
3.479
 11
2.024
 21
3.524
  0
LINE
  8
PEN1
 10
2.024
 20
3.524
 11
2.002
 21
3.651
  0
LINE
  8
PEN1
 10
2.002
 20
3.651
 11
1.355
 21
4.626
  0
LINE
  8
PEN1
 10
1.355
 20
4.626
 11
1.305
 21
4.724
  0
LINE
  8
PEN1
 10
1.305
 20
4.724
 11
1.468
 21
5.347
  0
LINE
  8
PEN1
 10
1.468
 20
5.347
 11
0.823
 21
5.528
  0
LINE
  8
PEN1
 10
0.823
 20
5.528
 11
0.804
 21
5.491
  0
LINE
  8
PEN1
 10
0.804
 20
5.491
 11
0.81
 21
5.41
  0
LINE
  8
PEN1
 10
0.81
 20
5.41
 11
0.691
 21
5.216
  0
LINE
  8
PEN1
 10
0.691
 20
5.216
 11
0.723
 21
5.104
  0
LINE
  8
PEN1
 10
3.037
 20
3.909
 11
3.037
 21
3.909
  0
LINE
  8
PEN1
 10
3.037
 20
3.909
 11
3.16
 21
4.776
  0
LINE
  8
PEN1
 10
3.16
 20
4.776
 11
3.967
 21
4.684
  0
LINE
  8
PEN1
 10
3.967
 20
4.684
 11
4.292
 21
4.657
  0
LINE
  8
PEN1
 10
4.292
 20
4.657
 11
4.278
 21
4.441
  0
LINE
  8
PEN1
 10
4.278
 20
4.441
 11
4.234
 21
3.784
  0
LINE
  8
PEN1
 10
4.234
 20
3.784
 11
4.07
 21
3.796
  0
LINE
  8
PEN1
 10
4.07
 20
3.796
 11
3.555
 21
3.841
  0
LINE
  8
PEN1
 10
3.555
 20
3.841
 11
3.037
 21
3.909
  0
LINE
  8
PEN1
 10
8.86
 20
5.256
 11
8.86
 21
5.256
  0
LINE
  8
PEN1
 10
8.86
 20
5.256
 11
8.885
 21
5.109
  0
LINE
  8
PEN1
 10
8.885
 20
5.109
 11
8.884
 21
5.032
  0
LINE
  8
PEN1
 10
8.884
 20
5.032
 11
8.908
 21
5.039
  0
LINE
  8
PEN1
 10
8.908
 20
5.039
 11
8.921
 21
5.061
  0
LINE
  8
PEN1
 10
8.921
 20
5.061
 11
8.964
 21
5.078
  0
LINE
  8
PEN1
 10
8.964
 20
5.078
 11
8.984
 21
5.117
  0
LINE
  8
PEN1
 10
8.984
 20
5.117
 11
8.995
 21
5.109
  0
LINE
  8
PEN1
 10
8.995
 20
5.109
 11
9.028
 21
5.122
  0
LINE
  8
PEN1
 10
9.028
 20
5.122
 11
9.072
 21
5.131
  0
LINE
  8
PEN1
 10
9.072
 20
5.131
 11
9.075
 21
5.146
  0
LINE
  8
PEN1
 10
9.075
 20
5.146
 11
9.088
 21
5.138
  0
LINE
  8
PEN1
 10
9.088
 20
5.138
 11
9.102
 21
5.151
  0
LINE
  8
PEN1
 10
9.102
 20
5.151
 11
9.126
 21
5.155
  0
LINE
  8
PEN1
 10
9.126
 20
5.155
 11
9.156
 21
5.17
  0
LINE
  8
PEN1
 10
9.156
 20
5.17
 11
9.128
 21
5.313
  0
LINE
  8
PEN1
 10
9.128
 20
5.313
 11
8.86
 21
5.256
  0
LINE
  8
PEN1
 10
8.604
 20
4.679
 11
8.604
 21
4.679
  0
LINE
  8
PEN1
 10
8.604
 20
4.679
 11
8.628
 21
4.709
  0
LINE
  8
PEN1
 10
8.628
 20
4.709
 11
8.663
 21
4.709
  0
LINE
  8
PEN1
 10
8.663
 20
4.709
 11
8.651
 21
4.678
  0
LINE
  8
PEN1
 10
8.651
 20
4.678
 11
8.641
 21
4.667
  0
LINE
  8
PEN1
 10
8.641
 20
4.667
 11
8.648
 21
4.634
  0
LINE
  8
PEN1
 10
8.648
 20
4.634
 11
8.666
 21
4.612
  0
LINE
  8
PEN1
 10
8.666
 20
4.612
 11
8.692
 21
4.587
  0
LINE
  8
PEN1
 10
8.692
 20
4.587
 11
8.7
 21
4.552
  0
LINE
  8
PEN1
 10
8.7
 20
4.552
 11
8.719
 21
4.528
  0
LINE
  8
PEN1
 10
8.719
 20
4.528
 11
8.735
 21
4.511
  0
LINE
  8
PEN1
 10
8.735
 20
4.511
 11
8.763
 21
4.501
  0
LINE
  8
PEN1
 10
8.763
 20
4.501
 11
8.776
 21
4.474
  0
LINE
  8
PEN1
 10
8.776
 20
4.474
 11
8.753
 21
4.451
  0
LINE
  8
PEN1
 10
8.753
 20
4.451
 11
8.777
 21
4.456
  0
LINE
  8
PEN1
 10
8.777
 20
4.456
 11
8.784
 21
4.433
  0
LINE
  8
PEN1
 10
8.784
 20
4.433
 11
8.736
 21
4.423
  0
LINE
  8
PEN1
 10
8.736
 20
4.423
 11
8.675
 21
4.411
  0
LINE
  8
PEN1
 10
8.675
 20
4.411
 11
8.671
 21
4.432
  0
LINE
  8
PEN1
 10
8.671
 20
4.432
 11
8.604
 21
4.679
  0
LINE
  8
PEN1
 10
8.42
 20
4.467
 11
8.42
 21
4.467
  0
LINE
  8
PEN1
 10
8.42
 20
4.467
 11
8.438
 21
4.477
  0
LINE
  8
PEN1
 10
8.438
 20
4.477
 11
8.448
 21
4.456
  0
LINE
  8
PEN1
 10
8.448
 20
4.456
 11
8.439
 21
4.44
  0
LINE
  8
PEN1
 10
8.439
 20
4.44
 11
8.42
 21
4.467
  0
LINE
  8
PEN1
 10
6.827
 20
2.499
 11
6.827
 21
2.499
  0
LINE
  8
PEN1
 10
6.827
 20
2.499
 11
6.824
 21
2.466
  0
LINE
  8
PEN1
 10
6.824
 20
2.466
 11
6.869
 21
2.423
  0
LINE
  8
PEN1
 10
6.869
 20
2.423
 11
6.861
 21
2.397
  0
LINE
  8
PEN1
 10
6.861
 20
2.397
 11
6.876
 21
2.38
  0
LINE
  8
PEN1
 10
6.876
 20
2.38
 11
6.857
 21
2.35
  0
LINE
  8
PEN1
 10
6.857
 20
2.35
 11
6.891
 21
2.365
  0
LINE
  8
PEN1
 10
6.891
 20
2.365
 11
6.912
 21
2.386
  0
LINE
  8
PEN1
 10
6.912
 20
2.386
 11
6.91
 21
2.41
  0
LINE
  8
PEN1
 10
6.91
 20
2.41
 11
6.926
 21
2.395
  0
LINE
  8
PEN1
 10
6.926
 20
2.395
 11
6.94
 21
2.416
  0
LINE
  8
PEN1
 10
6.94
 20
2.416
 11
6.953
 21
2.398
  0
LINE
  8
PEN1
 10
6.953
 20
2.398
 11
6.917
 21
2.37
  0
LINE
  8
PEN1
 10
6.917
 20
2.37
 11
7.019
 21
2.393
  0
LINE
  8
PEN1
 10
7.019
 20
2.393
 11
7.04
 21
2.414
  0
LINE
  8
PEN1
 10
7.04
 20
2.414
 11
7.053
 21
2.406
  0
LINE
  8
PEN1
 10
7.053
 20
2.406
 11
7.091
 21
2.415
  0
LINE
  8
PEN1
 10
7.091
 20
2.415
 11
7.11
 21
2.403
  0
LINE
  8
PEN1
 10
7.11
 20
2.403
 11
7.041
 21
2.395
  0
LINE
  8
PEN1
 10
7.041
 20
2.395
 11
7.062
 21
2.388
  0
LINE
  8
PEN1
 10
7.062
 20
2.388
 11
7.14
 21
2.371
  0
LINE
  8
PEN1
 10
7.14
 20
2.371
 11
7.188
 21
2.345
  0
LINE
  8
PEN1
 10
7.188
 20
2.345
 11
7.175
 21
2.382
  0
LINE
  8
PEN1
 10
7.175
 20
2.382
 11
7.197
 21
2.353
  0
LINE
  8
PEN1
 10
7.197
 20
2.353
 11
7.23
 21
2.349
  0
LINE
  8
PEN1
 10
7.23
 20
2.349
 11
7.202
 21
2.34
  0
LINE
  8
PEN1
 10
7.202
 20
2.34
 11
7.256
 21
2.312
  0
LINE
  8
PEN1
 10
7.256
 20
2.312
 11
7.275
 21
2.288
  0
LINE
  8
PEN1
 10
7.275
 20
2.288
 11
7.274
 21
2.262
  0
LINE
  8
PEN1
 10
7.274
 20
2.262
 11
7.253
 21
2.294
  0
LINE
  8
PEN1
 10
7.253
 20
2.294
 11
7.265
 21
2.253
  0
LINE
  8
PEN1
 10
7.265
 20
2.253
 11
7.307
 21
2.269
  0
LINE
  8
PEN1
 10
7.307
 20
2.269
 11
7.335
 21
2.271
  0
LINE
  8
PEN1
 10
7.335
 20
2.271
 11
7.352
 21
2.29
  0
LINE
  8
PEN1
 10
7.352
 20
2.29
 11
7.36
 21
2.278
  0
LINE
  8
PEN1
 10
7.36
 20
2.278
 11
7.416
 21
2.32
  0
LINE
  8
PEN1
 10
7.416
 20
2.32
 11
7.453
 21
2.322
  0
LINE
  8
PEN1
 10
7.453
 20
2.322
 11
7.44
 21
2.336
  0
LINE
  8
PEN1
 10
7.44
 20
2.336
 11
7.465
 21
2.369
  0
LINE
  8
PEN1
 10
7.465
 20
2.369
 11
7.52
 21
2.372
  0
LINE
  8
PEN1
 10
7.52
 20
2.372
 11
7.578
 21
2.344
  0
LINE
  8
PEN1
 10
7.578
 20
2.344
 11
7.611
 21
2.302
  0
LINE
  8
PEN1
 10
7.611
 20
2.302
 11
7.639
 21
2.293
  0
LINE
  8
PEN1
 10
7.639
 20
2.293
 11
7.647
 21
2.262
  0
LINE
  8
PEN1
 10
7.647
 20
2.262
 11
7.683
 21
2.244
  0
LINE
  8
PEN1
 10
7.683
 20
2.244
 11
7.697
 21
2.221
  0
LINE
  8
PEN1
 10
7.697
 20
2.221
 11
7.716
 21
2.202
  0
LINE
  8
PEN1
 10
7.716
 20
2.202
 11
7.766
 21
2.2
  0
LINE
  8
PEN1
 10
7.766
 20
2.2
 11
7.785
 21
2.167
  0
LINE
  8
PEN1
 10
7.785
 20
2.167
 11
7.812
 21
2.104
  0
LINE
  8
PEN1
 10
7.812
 20
2.104
 11
7.797
 21
1.987
  0
LINE
  8
PEN1
 10
7.797
 20
1.987
 11
7.801
 21
1.915
  0
LINE
  8
PEN1
 10
7.801
 20
1.915
 11
7.832
 21
1.893
  0
LINE
  8
PEN1
 10
7.832
 20
1.893
 11
7.838
 21
1.927
  0
LINE
  8
PEN1
 10
7.838
 20
1.927
 11
7.817
 21
1.938
  0
LINE
  8
PEN1
 10
7.817
 20
1.938
 11
7.82
 21
1.962
  0
LINE
  8
PEN1
 10
7.82
 20
1.962
 11
7.829
 21
1.956
  0
LINE
  8
PEN1
 10
7.829
 20
1.956
 11
7.852
 21
1.948
  0
LINE
  8
PEN1
 10
7.852
 20
1.948
 11
7.858
 21
1.925
  0
LINE
  8
PEN1
 10
7.858
 20
1.925
 11
7.872
 21
1.951
  0
LINE
  8
PEN1
 10
7.872
 20
1.951
 11
7.885
 21
1.928
  0
LINE
  8
PEN1
 10
7.885
 20
1.928
 11
7.842
 21
1.853
  0
LINE
  8
PEN1
 10
7.842
 20
1.853
 11
7.84
 21
1.84
  0
LINE
  8
PEN1
 10
7.84
 20
1.84
 11
7.865
 21
1.825
  0
LINE
  8
PEN1
 10
7.865
 20
1.825
 11
7.889
 21
1.766
  0
LINE
  8
PEN1
 10
7.889
 20
1.766
 11
7.92
 21
1.736
  0
LINE
  8
PEN1
 10
7.92
 20
1.736
 11
7.935
 21
1.715
  0
LINE
  8
PEN1
 10
7.935
 20
1.715
 11
7.959
 21
1.715
  0
LINE
  8
PEN1
 10
7.959
 20
1.715
 11
7.934
 21
1.75
  0
LINE
  8
PEN1
 10
7.934
 20
1.75
 11
7.954
 21
1.744
  0
LINE
  8
PEN1
 10
7.954
 20
1.744
 11
7.978
 21
1.751
  0
LINE
  8
PEN1
 10
7.978
 20
1.751
 11
7.966
 21
1.736
  0
LINE
  8
PEN1
 10
7.966
 20
1.736
 11
7.976
 21
1.705
  0
LINE
  8
PEN1
 10
7.976
 20
1.705
 11
7.987
 21
1.663
  0
LINE
  8
PEN1
 10
7.987
 20
1.663
 11
8.025
 21
1.645
  0
LINE
  8
PEN1
 10
8.025
 20
1.645
 11
8.034
 21
1.619
  0
LINE
  8
PEN1
 10
8.034
 20
1.619
 11
8.066
 21
1.539
  0
LINE
  8
PEN1
 10
8.066
 20
1.539
 11
8.106
 21
1.539
  0
LINE
  8
PEN1
 10
8.106
 20
1.539
 11
8.141
 21
1.52
  0
LINE
  8
PEN1
 10
8.141
 20
1.52
 11
8.199
 21
1.442
  0
LINE
  8
PEN1
 10
8.199
 20
1.442
 11
8.247
 21
1.434
  0
LINE
  8
PEN1
 10
8.247
 20
1.434
 11
8.248
 21
1.419
  0
LINE
  8
PEN1
 10
8.248
 20
1.419
 11
8.236
 21
1.41
  0
LINE
  8
PEN1
 10
8.236
 20
1.41
 11
8.199
 21
1.425
  0
LINE
  8
PEN1
 10
8.199
 20
1.425
 11
8.211
 21
1.392
  0
LINE
  8
PEN1
 10
8.211
 20
1.392
 11
8.256
 21
1.404
  0
LINE
  8
PEN1
 10
8.256
 20
1.404
 11
8.293
 21
1.405
  0
LINE
  8
PEN1
 10
8.293
 20
1.405
 11
8.313
 21
1.425
  0
LINE
  8
PEN1
 10
8.313
 20
1.425
 11
8.344
 21
1.427
  0
LINE
  8
PEN1
 10
8.344
 20
1.427
 11
8.362
 21
1.462
  0
LINE
  8
PEN1
 10
8.362
 20
1.462
 11
8.355
 21
1.51
  0
LINE
  8
PEN1
 10
8.355
 20
1.51
 11
8.371
 21
1.564
  0
LINE
  8
PEN1
 10
8.371
 20
1.564
 11
8.386
 21
1.558
  0
LINE
  8
PEN1
 10
8.386
 20
1.558
 11
8.372
 21
1.748
  0
LINE
  8
PEN1
 10
8.372
 20
1.748
 11
8.355
 21
1.805
  0
LINE
  8
PEN1
 10
8.355
 20
1.805
 11
8.186
 21
2.08
  0
LINE
  8
PEN1
 10
8.186
 20
2.08
 11
8.147
 21
2.169
  0
LINE
  8
PEN1
 10
8.147
 20
2.169
 11
8.164
 21
2.169
  0
LINE
  8
PEN1
 10
8.164
 20
2.169
 11
8.054
 21
2.345
  0
LINE
  8
PEN1
 10
8.054
 20
2.345
 11
7.978
 21
2.528
  0
LINE
  8
PEN1
 10
7.978
 20
2.528
 11
7.973
 21
2.56
  0
LINE
  8
PEN1
 10
7.973
 20
2.56
 11
7.953
 21
2.565
  0
LINE
  8
PEN1
 10
7.953
 20
2.565
 11
7.881
 21
2.578
  0
LINE
  8
PEN1
 10
7.881
 20
2.578
 11
7.861
 21
2.555
  0
LINE
  8
PEN1
 10
7.861
 20
2.555
 11
7.873
 21
2.475
  0
LINE
  8
PEN1
 10
7.873
 20
2.475
 11
7.842
 21
2.478
  0
LINE
  8
PEN1
 10
7.842
 20
2.478
 11
7.836
 21
2.514
  0
LINE
  8
PEN1
 10
7.836
 20
2.514
 11
7.341
 21
2.485
  0
LINE
  8
PEN1
 10
7.341
 20
2.485
 11
7.306
 21
2.543
  0
LINE
  8
PEN1
 10
7.306
 20
2.543
 11
6.827
 21
2.499
  0
LINE
  8
PEN1
 10
8.115
 20
1.249
 11
8.115
 21
1.249
  0
LINE
  8
PEN1
 10
8.115
 20
1.249
 11
8.12
 21
1.279
  0
LINE
  8
PEN1
 10
8.12
 20
1.279
 11
8.147
 21
1.283
  0
LINE
  8
PEN1
 10
8.147
 20
1.283
 11
8.15
 21
1.304
  0
LINE
  8
PEN1
 10
8.15
 20
1.304
 11
8.194
 21
1.281
  0
LINE
  8
PEN1
 10
8.194
 20
1.281
 11
8.151
 21
1.267
  0
LINE
  8
PEN1
 10
8.151
 20
1.267
 11
8.13
 21
1.273
  0
LINE
  8
PEN1
 10
8.13
 20
1.273
 11
8.137
 21
1.259
  0
LINE
  8
PEN1
 10
8.137
 20
1.259
 11
8.115
 21
1.249
  0
LINE
  8
PEN1
 10
8.226
 20
1.297
 11
8.226
 21
1.297
  0
LINE
  8
PEN1
 10
8.226
 20
1.297
 11
8.236
 21
1.295
  0
LINE
  8
PEN1
 10
8.236
 20
1.295
 11
8.29
 21
1.335
  0
LINE
  8
PEN1
 10
8.29
 20
1.335
 11
8.242
 21
1.307
  0
LINE
  8
PEN1
 10
8.242
 20
1.307
 11
8.226
 21
1.297
  0
LINE
  8
PEN1
 10
8.334
 20
1.377
 11
8.334
 21
1.377
  0
LINE
  8
PEN1
 10
8.334
 20
1.377
 11
8.356
 21
1.403
  0
LINE
  8
PEN1
 10
8.356
 20
1.403
 11
8.377
 21
1.458
  0
LINE
  8
PEN1
 10
8.377
 20
1.458
 11
8.363
 21
1.433
  0
LINE
  8
PEN1
 10
8.363
 20
1.433
 11
8.334
 21
1.377
  0
LINE
  8
PEN1
 10
7.106
 20
3.394
 11
7.106
 21
3.394
  0
LINE
  8
PEN1
 10
7.106
 20
3.394
 11
7.229
 21
2.944
  0
LINE
  8
PEN1
 10
7.229
 20
2.944
 11
7.275
 21
2.868
  0
LINE
  8
PEN1
 10
7.275
 20
2.868
 11
7.292
 21
2.812
  0
LINE
  8
PEN1
 10
7.292
 20
2.812
 11
7.272
 21
2.772
  0
LINE
  8
PEN1
 10
7.272
 20
2.772
 11
7.265
 21
2.712
  0
LINE
  8
PEN1
 10
7.265
 20
2.712
 11
7.306
 21
2.543
  0
LINE
  8
PEN1
 10
7.306
 20
2.543
 11
7.341
 21
2.485
  0
LINE
  8
PEN1
 10
7.341
 20
2.485
 11
7.836
 21
2.514
  0
LINE
  8
PEN1
 10
7.836
 20
2.514
 11
7.842
 21
2.478
  0
LINE
  8
PEN1
 10
7.842
 20
2.478
 11
7.873
 21
2.475
  0
LINE
  8
PEN1
 10
7.873
 20
2.475
 11
7.861
 21
2.555
  0
LINE
  8
PEN1
 10
7.861
 20
2.555
 11
7.881
 21
2.578
  0
LINE
  8
PEN1
 10
7.881
 20
2.578
 11
7.953
 21
2.565
  0
LINE
  8
PEN1
 10
7.953
 20
2.565
 11
7.965
 21
2.621
  0
LINE
  8
PEN1
 10
7.965
 20
2.621
 11
7.953
 21
2.625
  0
LINE
  8
PEN1
 10
7.953
 20
2.625
 11
7.97
 21
2.639
  0
LINE
  8
PEN1
 10
7.97
 20
2.639
 11
7.943
 21
2.654
  0
LINE
  8
PEN1
 10
7.943
 20
2.654
 11
7.958
 21
2.672
  0
LINE
  8
PEN1
 10
7.958
 20
2.672
 11
7.955
 21
2.699
  0
LINE
  8
PEN1
 10
7.955
 20
2.699
 11
7.987
 21
2.72
  0
LINE
  8
PEN1
 10
7.987
 20
2.72
 11
7.976
 21
2.749
  0
LINE
  8
PEN1
 10
7.976
 20
2.749
 11
7.992
 21
2.759
  0
LINE
  8
PEN1
 10
7.992
 20
2.759
 11
8.0
 21
2.784
  0
LINE
  8
PEN1
 10
8.0
 20
2.784
 11
7.986
 21
2.793
  0
LINE
  8
PEN1
 10
7.986
 20
2.793
 11
8.011
 21
2.813
  0
LINE
  8
PEN1
 10
8.011
 20
2.813
 11
7.999
 21
2.83
  0
LINE
  8
PEN1
 10
7.999
 20
2.83
 11
8.019
 21
2.83
  0
LINE
  8
PEN1
 10
8.019
 20
2.83
 11
8.04
 21
2.859
  0
LINE
  8
PEN1
 10
8.04
 20
2.859
 11
8.032
 21
2.868
  0
LINE
  8
PEN1
 10
8.032
 20
2.868
 11
8.001
 21
2.874
  0
LINE
  8
PEN1
 10
8.001
 20
2.874
 11
7.979
 21
2.901
  0
LINE
  8
PEN1
 10
7.979
 20
2.901
 11
7.942
 21
2.967
  0
LINE
  8
PEN1
 10
7.942
 20
2.967
 11
7.922
 21
2.976
  0
LINE
  8
PEN1
 10
7.922
 20
2.976
 11
7.879
 21
3.065
  0
LINE
  8
PEN1
 10
7.879
 20
3.065
 11
7.819
 21
3.102
  0
LINE
  8
PEN1
 10
7.819
 20
3.102
 11
7.776
 21
3.162
  0
LINE
  8
PEN1
 10
7.776
 20
3.162
 11
7.671
 21
3.238
  0
LINE
  8
PEN1
 10
7.671
 20
3.238
 11
7.621
 21
3.307
  0
LINE
  8
PEN1
 10
7.621
 20
3.307
 11
7.508
 21
3.38
  0
LINE
  8
PEN1
 10
7.508
 20
3.38
 11
7.544
 21
3.448
  0
LINE
  8
PEN1
 10
7.544
 20
3.448
 11
7.332
 21
3.423
  0
LINE
  8
PEN1
 10
7.332
 20
3.423
 11
7.106
 21
3.394
  0
LINE
  8
PEN1
 10
2.92
 20
2.083
 11
2.92
 21
2.083
  0
LINE
  8
PEN1
 10
2.92
 20
2.083
 11
2.957
 21
2.048
  0
LINE
  8
PEN1
 10
2.957
 20
2.048
 11
2.978
 21
2.049
  0
LINE
  8
PEN1
 10
2.978
 20
2.049
 11
3.011
 21
2.069
  0
LINE
  8
PEN1
 10
3.011
 20
2.069
 11
3.021
 21
2.113
  0
LINE
  8
PEN1
 10
3.021
 20
2.113
 11
2.998
 21
2.13
  0
LINE
  8
PEN1
 10
2.998
 20
2.13
 11
2.969
 21
2.125
  0
LINE
  8
PEN1
 10
2.969
 20
2.125
 11
2.92
 21
2.083
  0
LINE
  8
PEN1
 10
3.229
 20
1.986
 11
3.229
 21
1.986
  0
LINE
  8
PEN1
 10
3.229
 20
1.986
 11
3.255
 21
1.928
  0
LINE
  8
PEN1
 10
3.255
 20
1.928
 11
3.281
 21
1.929
  0
LINE
  8
PEN1
 10
3.281
 20
1.929
 11
3.284
 21
1.946
  0
LINE
  8
PEN1
 10
3.284
 20
1.946
 11
3.318
 21
1.912
  0
LINE
  8
PEN1
 10
3.318
 20
1.912
 11
3.346
 21
1.917
  0
LINE
  8
PEN1
 10
3.346
 20
1.917
 11
3.34
 21
1.95
  0
LINE
  8
PEN1
 10
3.34
 20
1.95
 11
3.313
 21
1.958
  0
LINE
  8
PEN1
 10
3.313
 20
1.958
 11
3.291
 21
2.011
  0
LINE
  8
PEN1
 10
3.291
 20
2.011
 11
3.229
 21
1.986
  0
LINE
  8
PEN1
 10
3.417
 20
1.88
 11
3.417
 21
1.88
  0
LINE
  8
PEN1
 10
3.417
 20
1.88
 11
3.43
 21
1.907
  0
LINE
  8
PEN1
 10
3.43
 20
1.907
 11
3.537
 21
1.895
  0
LINE
  8
PEN1
 10
3.537
 20
1.895
 11
3.514
 21
1.875
  0
LINE
  8
PEN1
 10
3.514
 20
1.875
 11
3.417
 21
1.88
  0
LINE
  8
PEN1
 10
3.47
 20
1.841
 11
3.47
 21
1.841
  0
LINE
  8
PEN1
 10
3.47
 20
1.841
 11
3.488
 21
1.806
  0
LINE
  8
PEN1
 10
3.488
 20
1.806
 11
3.518
 21
1.82
  0
LINE
  8
PEN1
 10
3.518
 20
1.82
 11
3.503
 21
1.841
  0
LINE
  8
PEN1
 10
3.503
 20
1.841
 11
3.47
 21
1.841
  0
LINE
  8
PEN1
 10
3.541
 20
1.847
 11
3.541
 21
1.847
  0
LINE
  8
PEN1
 10
3.541
 20
1.847
 11
3.561
 21
1.871
  0
LINE
  8
PEN1
 10
3.561
 20
1.871
 11
3.582
 21
1.847
  0
LINE
  8
PEN1
 10
3.582
 20
1.847
 11
3.633
 21
1.852
  0
LINE
  8
PEN1
 10
3.633
 20
1.852
 11
3.691
 21
1.812
  0
LINE
  8
PEN1
 10
3.691
 20
1.812
 11
3.669
 21
1.793
  0
LINE
  8
PEN1
 10
3.669
 20
1.793
 11
3.601
 21
1.78
  0
LINE
  8
PEN1
 10
3.601
 20
1.78
 11
3.588
 21
1.821
  0
LINE
  8
PEN1
 10
3.588
 20
1.821
 11
3.562
 21
1.821
  0
LINE
  8
PEN1
 10
3.562
 20
1.821
 11
3.541
 21
1.847
  0
LINE
  8
PEN1
 10
3.675
 20
1.596
 11
3.675
 21
1.596
  0
LINE
  8
PEN1
 10
3.675
 20
1.596
 11
3.709
 21
1.517
  0
LINE
  8
PEN1
 10
3.709
 20
1.517
 11
3.704
 21
1.454
  0
LINE
  8
PEN1
 10
3.704
 20
1.454
 11
3.756
 21
1.423
  0
LINE
  8
PEN1
 10
3.756
 20
1.423
 11
3.786
 21
1.471
  0
LINE
  8
PEN1
 10
3.786
 20
1.471
 11
3.893
 21
1.515
  0
LINE
  8
PEN1
 10
3.893
 20
1.515
 11
3.927
 21
1.55
  0
LINE
  8
PEN1
 10
3.927
 20
1.55
 11
3.839
 21
1.65
  0
LINE
  8
PEN1
 10
3.839
 20
1.65
 11
3.716
 21
1.708
  0
LINE
  8
PEN1
 10
3.716
 20
1.708
 11
3.705
 21
1.69
  0
LINE
  8
PEN1
 10
3.705
 20
1.69
 11
3.72
 21
1.648
  0
LINE
  8
PEN1
 10
3.72
 20
1.648
 11
3.675
 21
1.596
  0
LINE
  8
PEN1
 10
1.933
 20
5.231
 11
1.933
 21
5.231
  0
LINE
  8
PEN1
 10
1.933
 20
5.231
 11
2.015
 21
5.585
  0
LINE
  8
PEN1
 10
2.015
 20
5.585
 11
2.056
 21
5.679
  0
LINE
  8
PEN1
 10
2.056
 20
5.679
 11
2.019
 21
5.724
  0
LINE
  8
PEN1
 10
2.019
 20
5.724
 11
2.028
 21
5.765
  0
LINE
  8
PEN1
 10
2.028
 20
5.765
 11
2.094
 21
5.827
  0
LINE
  8
PEN1
 10
2.094
 20
5.827
 11
2.146
 21
5.91
  0
LINE
  8
PEN1
 10
2.146
 20
5.91
 11
2.194
 21
5.983
  0
LINE
  8
PEN1
 10
2.194
 20
5.983
 11
2.158
 21
6.037
  0
LINE
  8
PEN1
 10
2.158
 20
6.037
 11
2.143
 21
6.074
  0
LINE
  8
PEN1
 10
2.143
 20
6.074
 11
2.149
 21
6.166
  0
LINE
  8
PEN1
 10
2.149
 20
6.166
 11
2.274
 21
6.705
  0
LINE
  8
PEN1
 10
2.274
 20
6.705
 11
2.412
 21
6.674
  0
LINE
  8
PEN1
 10
2.412
 20
6.674
 11
2.366
 21
6.465
  0
LINE
  8
PEN1
 10
2.366
 20
6.465
 11
2.396
 21
6.39
  0
LINE
  8
PEN1
 10
2.396
 20
6.39
 11
2.399
 21
6.343
  0
LINE
  8
PEN1
 10
2.399
 20
6.343
 11
2.383
 21
6.335
  0
LINE
  8
PEN1
 10
2.383
 20
6.335
 11
2.436
 21
6.284
  0
LINE
  8
PEN1
 10
2.436
 20
6.284
 11
2.49
 21
6.151
  0
LINE
  8
PEN1
 10
2.49
 20
6.151
 11
2.509
 21
6.156
  0
LINE
  8
PEN1
 10
2.509
 20
6.156
 11
2.511
 21
6.136
  0
LINE
  8
PEN1
 10
2.511
 20
6.136
 11
2.537
 21
6.129
  0
LINE
  8
PEN1
 10
2.537
 20
6.129
 11
2.556
 21
6.126
  0
LINE
  8
PEN1
 10
2.556
 20
6.126
 11
2.508
 21
6.029
  0
LINE
  8
PEN1
 10
2.508
 20
6.029
 11
2.516
 21
5.965
  0
LINE
  8
PEN1
 10
2.516
 20
5.965
 11
2.477
 21
5.903
  0
LINE
  8
PEN1
 10
2.477
 20
5.903
 11
2.504
 21
5.875
  0
LINE
  8
PEN1
 10
2.504
 20
5.875
 11
2.574
 21
5.914
  0
LINE
  8
PEN1
 10
2.574
 20
5.914
 11
2.624
 21
5.703
  0
LINE
  8
PEN1
 10
2.624
 20
5.703
 11
2.656
 21
5.692
  0
LINE
  8
PEN1
 10
2.656
 20
5.692
 11
2.662
 21
5.628
  0
LINE
  8
PEN1
 10
2.662
 20
5.628
 11
2.689
 21
5.601
  0
LINE
  8
PEN1
 10
2.689
 20
5.601
 11
2.708
 21
5.625
  0
LINE
  8
PEN1
 10
2.708
 20
5.625
 11
2.754
 21
5.604
  0
LINE
  8
PEN1
 10
2.754
 20
5.604
 11
2.783
 21
5.627
  0
LINE
  8
PEN1
 10
2.783
 20
5.627
 11
2.877
 21
5.608
  0
LINE
  8
PEN1
 10
2.877
 20
5.608
 11
2.9
 21
5.603
  0
LINE
  8
PEN1
 10
2.9
 20
5.603
 11
2.921
 21
5.645
  0
LINE
  8
PEN1
 10
2.921
 20
5.645
 11
2.961
 21
5.577
  0
LINE
  8
PEN1
 10
2.961
 20
5.577
 11
2.873
 21
5.042
  0
LINE
  8
PEN1
 10
2.873
 20
5.042
 11
2.401
 21
5.129
  0
LINE
  8
PEN1
 10
2.401
 20
5.129
 11
1.933
 21
5.231
  0
LINE
  8
PEN1
 10
6.02
 20
4.461
 11
6.02
 21
4.461
  0
LINE
  8
PEN1
 10
6.02
 20
4.461
 11
6.032
 21
4.498
  0
LINE
  8
PEN1
 10
6.032
 20
4.498
 11
6.078
 21
4.573
  0
LINE
  8
PEN1
 10
6.078
 20
4.573
 11
6.102
 21
4.653
  0
LINE
  8
PEN1
 10
6.102
 20
4.653
 11
6.079
 21
4.712
  0
LINE
  8
PEN1
 10
6.079
 20
4.712
 11
6.195
 21
4.802
  0
LINE
  8
PEN1
 10
6.195
 20
4.802
 11
6.219
 21
4.848
  0
LINE
  8
PEN1
 10
6.219
 20
4.848
 11
6.219
 21
4.871
  0
LINE
  8
PEN1
 10
6.219
 20
4.871
 11
6.135
 21
4.969
  0
LINE
  8
PEN1
 10
6.135
 20
4.969
 11
6.587
 21
4.998
  0
LINE
  8
PEN1
 10
6.587
 20
4.998
 11
6.598
 21
4.924
  0
LINE
  8
PEN1
 10
6.598
 20
4.924
 11
6.644
 21
4.836
  0
LINE
  8
PEN1
 10
6.644
 20
4.836
 11
6.683
 21
4.371
  0
LINE
  8
PEN1
 10
6.683
 20
4.371
 11
6.674
 21
4.275
  0
LINE
  8
PEN1
 10
6.674
 20
4.275
 11
6.695
 21
4.218
  0
LINE
  8
PEN1
 10
6.695
 20
4.218
 11
6.669
 21
4.113
  0
LINE
  8
PEN1
 10
6.669
 20
4.113
 11
6.634
 21
4.066
  0
LINE
  8
PEN1
 10
6.634
 20
4.066
 11
6.617
 21
3.991
  0
LINE
  8
PEN1
 10
6.617
 20
3.991
 11
6.633
 21
3.969
  0
LINE
  8
PEN1
 10
6.633
 20
3.969
 11
6.619
 21
3.922
  0
LINE
  8
PEN1
 10
6.619
 20
3.922
 11
6.628
 21
3.906
  0
LINE
  8
PEN1
 10
6.628
 20
3.906
 11
6.574
 21
3.884
  0
LINE
  8
PEN1
 10
6.574
 20
3.884
 11
6.563
 21
3.807
  0
LINE
  8
PEN1
 10
6.563
 20
3.807
 11
6.486
 21
3.835
  0
LINE
  8
PEN1
 10
6.486
 20
3.835
 11
6.446
 21
3.796
  0
LINE
  8
PEN1
 10
6.446
 20
3.796
 11
6.448
 21
3.781
  0
LINE
  8
PEN1
 10
6.448
 20
3.781
 11
6.422
 21
3.783
  0
LINE
  8
PEN1
 10
6.422
 20
3.783
 11
6.395
 21
3.834
  0
LINE
  8
PEN1
 10
6.395
 20
3.834
 11
6.381
 21
3.904
  0
LINE
  8
PEN1
 10
6.381
 20
3.904
 11
6.352
 21
3.951
  0
LINE
  8
PEN1
 10
6.352
 20
3.951
 11
6.307
 21
3.969
  0
LINE
  8
PEN1
 10
6.307
 20
3.969
 11
6.25
 21
4.014
  0
LINE
  8
PEN1
 10
6.25
 20
4.014
 11
6.231
 21
4.076
  0
LINE
  8
PEN1
 10
6.231
 20
4.076
 11
6.263
 21
4.171
  0
LINE
  8
PEN1
 10
6.263
 20
4.171
 11
6.236
 21
4.19
  0
LINE
  8
PEN1
 10
6.236
 20
4.19
 11
6.169
 21
4.189
  0
LINE
  8
PEN1
 10
6.169
 20
4.189
 11
6.157
 21
4.25
  0
LINE
  8
PEN1
 10
6.157
 20
4.25
 11
6.046
 21
4.364
  0
LINE
  8
PEN1
 10
6.046
 20
4.364
 11
6.02
 21
4.461
  0
LINE
  8
PEN1
 10
6.617
 20
3.991
 11
6.617
 21
3.991
  0
LINE
  8
PEN1
 10
6.617
 20
3.991
 11
6.633
 21
3.969
  0
LINE
  8
PEN1
 10
6.633
 20
3.969
 11
6.649
 21
3.995
  0
LINE
  8
PEN1
 10
6.649
 20
3.995
 11
6.726
 21
4.008
  0
LINE
  8
PEN1
 10
6.726
 20
4.008
 11
6.753
 21
4.001
  0
LINE
  8
PEN1
 10
6.753
 20
4.001
 11
6.835
 21
4.03
  0
LINE
  8
PEN1
 10
6.835
 20
4.03
 11
6.864
 21
4.004
  0
LINE
  8
PEN1
 10
6.864
 20
4.004
 11
6.891
 21
4.066
  0
LINE
  8
PEN1
 10
6.891
 20
4.066
 11
6.917
 21
4.081
  0
LINE
  8
PEN1
 10
6.917
 20
4.081
 11
6.978
 21
4.047
  0
LINE
  8
PEN1
 10
6.978
 20
4.047
 11
6.986
 21
4.086
  0
LINE
  8
PEN1
 10
6.986
 20
4.086
 11
7.052
 21
4.168
  0
LINE
  8
PEN1
 10
7.052
 20
4.168
 11
7.066
 21
4.217
  0
LINE
  8
PEN1
 10
7.066
 20
4.217
 11
7.09
 21
4.21
  0
LINE
  8
PEN1
 10
7.09
 20
4.21
 11
7.151
 21
4.253
  0
LINE
  8
PEN1
 10
7.151
 20
4.253
 11
7.134
 21
4.288
  0
LINE
  8
PEN1
 10
7.134
 20
4.288
 11
7.143
 21
4.308
  0
LINE
  8
PEN1
 10
7.143
 20
4.308
 11
7.083
 21
4.873
  0
LINE
  8
PEN1
 10
7.083
 20
4.873
 11
7.076
 21
4.887
  0
LINE
  8
PEN1
 10
7.076
 20
4.887
 11
6.757
 21
4.852
  0
LINE
  8
PEN1
 10
6.757
 20
4.852
 11
6.696
 21
4.816
  0
LINE
  8
PEN1
 10
6.696
 20
4.816
 11
6.644
 21
4.836
  0
LINE
  8
PEN1
 10
6.644
 20
4.836
 11
6.683
 21
4.371
  0
LINE
  8
PEN1
 10
6.683
 20
4.371
 11
6.674
 21
4.275
  0
LINE
  8
PEN1
 10
6.674
 20
4.275
 11
6.695
 21
4.218
  0
LINE
  8
PEN1
 10
6.695
 20
4.218
 11
6.669
 21
4.113
  0
LINE
  8
PEN1
 10
6.669
 20
4.113
 11
6.634
 21
4.066
  0
LINE
  8
PEN1
 10
6.634
 20
4.066
 11
6.617
 21
3.991
  0
LINE
  8
PEN1
 10
5.19
 20
5.167
 11
5.19
 21
5.167
  0
LINE
  8
PEN1
 10
5.19
 20
5.167
 11
5.193
 21
5.114
  0
LINE
  8
PEN1
 10
5.193
 20
5.114
 11
5.212
 21
5.075
  0
LINE
  8
PEN1
 10
5.212
 20
5.075
 11
5.199
 21
5.037
  0
LINE
  8
PEN1
 10
5.199
 20
5.037
 11
5.211
 21
4.943
  0
LINE
  8
PEN1
 10
5.211
 20
4.943
 11
5.259
 21
4.808
  0
LINE
  8
PEN1
 10
5.259
 20
4.808
 11
5.26
 21
4.766
  0
LINE
  8
PEN1
 10
5.26
 20
4.766
 11
5.292
 21
4.704
  0
LINE
  8
PEN1
 10
5.292
 20
4.704
 11
5.307
 21
4.6
  0
LINE
  8
PEN1
 10
5.307
 20
4.6
 11
5.3
 21
4.569
  0
LINE
  8
PEN1
 10
5.3
 20
4.569
 11
5.319
 21
4.535
  0
LINE
  8
PEN1
 10
5.319
 20
4.535
 11
5.982
 21
4.549
  0
LINE
  8
PEN1
 10
5.982
 20
4.549
 11
6.032
 21
4.498
  0
LINE
  8
PEN1
 10
6.032
 20
4.498
 11
6.078
 21
4.573
  0
LINE
  8
PEN1
 10
6.078
 20
4.573
 11
6.102
 21
4.653
  0
LINE
  8
PEN1
 10
6.102
 20
4.653
 11
6.079
 21
4.712
  0
LINE
  8
PEN1
 10
6.079
 20
4.712
 11
6.195
 21
4.802
  0
LINE
  8
PEN1
 10
6.195
 20
4.802
 11
6.219
 21
4.848
  0
LINE
  8
PEN1
 10
6.219
 20
4.848
 11
6.219
 21
4.871
  0
LINE
  8
PEN1
 10
6.219
 20
4.871
 11
6.135
 21
4.969
  0
LINE
  8
PEN1
 10
6.135
 20
4.969
 11
6.049
 21
5.071
  0
LINE
  8
PEN1
 10
6.049
 20
5.071
 11
6.032
 21
5.181
  0
LINE
  8
PEN1
 10
6.032
 20
5.181
 11
5.214
 21
5.165
  0
LINE
  8
PEN1
 10
5.214
 20
5.165
 11
5.19
 21
5.167
  0
LINE
  8
PEN1
 10
4.234
 20
3.784
 11
4.234
 21
3.784
  0
LINE
  8
PEN1
 10
4.234
 20
3.784
 11
4.278
 21
4.441
  0
LINE
  8
PEN1
 10
4.278
 20
4.441
 11
4.755
 21
4.413
  0
LINE
  8
PEN1
 10
4.755
 20
4.413
 11
5.388
 21
4.406
  0
LINE
  8
PEN1
 10
5.388
 20
4.406
 11
5.422
 21
4.375
  0
LINE
  8
PEN1
 10
5.422
 20
4.375
 11
5.443
 21
4.382
  0
LINE
  8
PEN1
 10
5.443
 20
4.382
 11
5.462
 21
4.365
  0
LINE
  8
PEN1
 10
5.462
 20
4.365
 11
5.465
 21
4.348
  0
LINE
  8
PEN1
 10
5.465
 20
4.348
 11
5.447
 21
4.347
  0
LINE
  8
PEN1
 10
5.447
 20
4.347
 11
5.425
 21
4.301
  0
LINE
  8
PEN1
 10
5.425
 20
4.301
 11
5.475
 21
4.229
  0
LINE
  8
PEN1
 10
5.475
 20
4.229
 11
5.514
 21
4.217
  0
LINE
  8
PEN1
 10
5.514
 20
4.217
 11
5.509
 21
3.751
  0
LINE
  8
PEN1
 10
5.509
 20
3.751
 11
4.963
 21
3.749
  0
LINE
  8
PEN1
 10
4.963
 20
3.749
 11
4.234
 21
3.784
  0
LINE
  8
PEN1
 10
6.416
 20
3.67
 11
6.416
 21
3.67
  0
LINE
  8
PEN1
 10
6.416
 20
3.67
 11
6.427
 21
3.701
  0
LINE
  8
PEN1
 10
6.427
 20
3.701
 11
6.456
 21
3.705
  0
LINE
  8
PEN1
 10
6.456
 20
3.705
 11
6.464
 21
3.775
  0
LINE
  8
PEN1
 10
6.464
 20
3.775
 11
6.448
 21
3.781
  0
LINE
  8
PEN1
 10
6.448
 20
3.781
 11
6.446
 21
3.796
  0
LINE
  8
PEN1
 10
6.446
 20
3.796
 11
6.486
 21
3.835
  0
LINE
  8
PEN1
 10
6.486
 20
3.835
 11
6.563
 21
3.807
  0
LINE
  8
PEN1
 10
6.563
 20
3.807
 11
6.574
 21
3.884
  0
LINE
  8
PEN1
 10
6.574
 20
3.884
 11
6.628
 21
3.906
  0
LINE
  8
PEN1
 10
6.628
 20
3.906
 11
6.619
 21
3.922
  0
LINE
  8
PEN1
 10
6.619
 20
3.922
 11
6.633
 21
3.969
  0
LINE
  8
PEN1
 10
6.633
 20
3.969
 11
6.649
 21
3.995
  0
LINE
  8
PEN1
 10
6.649
 20
3.995
 11
6.726
 21
4.008
  0
LINE
  8
PEN1
 10
6.726
 20
4.008
 11
6.753
 21
4.001
  0
LINE
  8
PEN1
 10
6.753
 20
4.001
 11
6.835
 21
4.03
  0
LINE
  8
PEN1
 10
6.835
 20
4.03
 11
6.864
 21
4.004
  0
LINE
  8
PEN1
 10
6.864
 20
4.004
 11
6.891
 21
4.066
  0
LINE
  8
PEN1
 10
6.891
 20
4.066
 11
6.917
 21
4.081
  0
LINE
  8
PEN1
 10
6.917
 20
4.081
 11
6.978
 21
4.047
  0
LINE
  8
PEN1
 10
6.978
 20
4.047
 11
6.986
 21
4.086
  0
LINE
  8
PEN1
 10
6.986
 20
4.086
 11
7.052
 21
4.168
  0
LINE
  8
PEN1
 10
7.052
 20
4.168
 11
7.066
 21
4.217
  0
LINE
  8
PEN1
 10
7.066
 20
4.217
 11
7.09
 21
4.21
  0
LINE
  8
PEN1
 10
7.09
 20
4.21
 11
7.151
 21
4.253
  0
LINE
  8
PEN1
 10
7.151
 20
4.253
 11
7.134
 21
4.288
  0
LINE
  8
PEN1
 10
7.134
 20
4.288
 11
7.143
 21
4.308
  0
LINE
  8
PEN1
 10
7.143
 20
4.308
 11
7.195
 21
4.311
  0
LINE
  8
PEN1
 10
7.195
 20
4.311
 11
7.23
 21
4.298
  0
LINE
  8
PEN1
 10
7.23
 20
4.298
 11
7.249
 21
4.26
  0
LINE
  8
PEN1
 10
7.249
 20
4.26
 11
7.305
 21
4.251
  0
LINE
  8
PEN1
 10
7.305
 20
4.251
 11
7.34
 21
4.232
  0
LINE
  8
PEN1
 10
7.34
 20
4.232
 11
7.417
 21
4.236
  0
LINE
  8
PEN1
 10
7.417
 20
4.236
 11
7.454
 21
4.26
  0
LINE
  8
PEN1
 10
7.454
 20
4.26
 11
7.537
 21
4.206
  0
LINE
  8
PEN1
 10
7.537
 20
4.206
 11
7.567
 21
4.101
  0
LINE
  8
PEN1
 10
7.567
 20
4.101
 11
7.601
 21
4.064
  0
LINE
  8
PEN1
 10
7.601
 20
4.064
 11
7.666
 21
4.027
  0
LINE
  8
PEN1
 10
7.666
 20
4.027
 11
7.618
 21
3.969
  0
LINE
  8
PEN1
 10
7.618
 20
3.969
 11
7.577
 21
3.939
  0
LINE
  8
PEN1
 10
7.577
 20
3.939
 11
7.532
 21
3.885
  0
LINE
  8
PEN1
 10
7.532
 20
3.885
 11
7.531
 21
3.867
  0
LINE
  8
PEN1
 10
7.531
 20
3.867
 11
7.407
 21
3.785
  0
LINE
  8
PEN1
 10
7.407
 20
3.785
 11
6.718
 21
3.721
  0
LINE
  8
PEN1
 10
6.718
 20
3.721
 11
6.645
 21
3.724
  0
LINE
  8
PEN1
 10
6.645
 20
3.724
 11
6.648
 21
3.686
  0
LINE
  8
PEN1
 10
6.648
 20
3.686
 11
6.416
 21
3.67
  0
LINE
  8
PEN1
 10
5.623
 20
2.881
 11
5.623
 21
2.881
  0
LINE
  8
PEN1
 10
5.623
 20
2.881
 11
5.634
 21
2.653
  0
LINE
  8
PEN1
 10
5.634
 20
2.653
 11
5.66
 21
2.624
  0
LINE
  8
PEN1
 10
5.66
 20
2.624
 11
5.67
 21
2.565
  0
LINE
  8
PEN1
 10
5.67
 20
2.565
 11
5.723
 21
2.484
  0
LINE
  8
PEN1
 10
5.723
 20
2.484
 11
5.721
 21
2.414
  0
LINE
  8
PEN1
 10
5.721
 20
2.414
 11
5.69
 21
2.349
  0
LINE
  8
PEN1
 10
5.69
 20
2.349
 11
5.692
 21
2.313
  0
LINE
  8
PEN1
 10
5.692
 20
2.313
 11
5.702
 21
2.275
  0
LINE
  8
PEN1
 10
5.702
 20
2.275
 11
5.697
 21
2.237
  0
LINE
  8
PEN1
 10
5.697
 20
2.237
 11
5.68
 21
2.213
  0
LINE
  8
PEN1
 10
5.68
 20
2.213
 11
5.656
 21
2.184
  0
LINE
  8
PEN1
 10
5.656
 20
2.184
 11
5.672
 21
2.165
  0
LINE
  8
PEN1
 10
5.672
 20
2.165
 11
5.803
 21
2.182
  0
LINE
  8
PEN1
 10
5.803
 20
2.182
 11
5.907
 21
2.139
  0
LINE
  8
PEN1
 10
5.907
 20
2.139
 11
6.008
 21
2.145
  0
LINE
  8
PEN1
 10
6.008
 20
2.145
 11
5.995
 21
2.174
  0
LINE
  8
PEN1
 10
5.995
 20
2.174
 11
6.027
 21
2.199
  0
LINE
  8
PEN1
 10
6.027
 20
2.199
 11
6.097
 21
2.184
  0
LINE
  8
PEN1
 10
6.097
 20
2.184
 11
6.109
 21
2.134
  0
LINE
  8
PEN1
 10
6.109
 20
2.134
 11
6.128
 21
2.141
  0
LINE
  8
PEN1
 10
6.128
 20
2.141
 11
6.158
 21
2.129
  0
LINE
  8
PEN1
 10
6.158
 20
2.129
 11
6.187
 21
2.098
  0
LINE
  8
PEN1
 10
6.187
 20
2.098
 11
6.194
 21
2.071
  0
LINE
  8
PEN1
 10
6.194
 20
2.071
 11
6.224
 21
2.067
  0
LINE
  8
PEN1
 10
6.224
 20
2.067
 11
6.252
 21
2.047
  0
LINE
  8
PEN1
 10
6.252
 20
2.047
 11
6.276
 21
2.056
  0
LINE
  8
PEN1
 10
6.276
 20
2.056
 11
6.296
 21
2.079
  0
LINE
  8
PEN1
 10
6.296
 20
2.079
 11
6.294
 21
2.098
  0
LINE
  8
PEN1
 10
6.294
 20
2.098
 11
6.323
 21
2.073
  0
LINE
  8
PEN1
 10
6.323
 20
2.073
 11
6.339
 21
2.095
  0
LINE
  8
PEN1
 10
6.339
 20
2.095
 11
6.359
 21
2.052
  0
LINE
  8
PEN1
 10
6.359
 20
2.052
 11
6.39
 21
2.073
  0
LINE
  8
PEN1
 10
6.39
 20
2.073
 11
6.401
 21
2.086
  0
LINE
  8
PEN1
 10
6.401
 20
2.086
 11
6.39
 21
2.098
  0
LINE
  8
PEN1
 10
6.39
 20
2.098
 11
6.392
 21
2.137
  0
LINE
  8
PEN1
 10
6.392
 20
2.137
 11
6.403
 21
2.137
  0
LINE
  8
PEN1
 10
6.403
 20
2.137
 11
6.43
 21
2.134
  0
LINE
  8
PEN1
 10
6.43
 20
2.134
 11
6.437
 21
2.108
  0
LINE
  8
PEN1
 10
6.437
 20
2.108
 11
6.467
 21
2.11
  0
LINE
  8
PEN1
 10
6.467
 20
2.11
 11
6.494
 21
2.091
  0
LINE
  8
PEN1
 10
6.494
 20
2.091
 11
6.5
 21
2.096
  0
LINE
  8
PEN1
 10
6.5
 20
2.096
 11
6.511
 21
2.077
  0
LINE
  8
PEN1
 10
6.511
 20
2.077
 11
6.531
 21
2.065
  0
LINE
  8
PEN1
 10
6.531
 20
2.065
 11
6.522
 21
2.035
  0
LINE
  8
PEN1
 10
6.522
 20
2.035
 11
6.548
 21
2.063
  0
LINE
  8
PEN1
 10
6.548
 20
2.063
 11
6.567
 21
2.046
  0
LINE
  8
PEN1
 10
6.567
 20
2.046
 11
6.566
 21
2.067
  0
LINE
  8
PEN1
 10
6.566
 20
2.067
 11
6.589
 21
2.073
  0
LINE
  8
PEN1
 10
6.589
 20
2.073
 11
6.59
 21
2.088
  0
LINE
  8
PEN1
 10
6.59
 20
2.088
 11
6.565
 21
2.092
  0
LINE
  8
PEN1
 10
6.565
 20
2.092
 11
6.551
 21
2.108
  0
LINE
  8
PEN1
 10
6.551
 20
2.108
 11
6.529
 21
2.105
  0
LINE
  8
PEN1
 10
6.529
 20
2.105
 11
6.519
 21
2.125
  0
LINE
  8
PEN1
 10
6.519
 20
2.125
 11
6.494
 21
2.125
  0
LINE
  8
PEN1
 10
6.494
 20
2.125
 11
6.471
 21
2.169
  0
LINE
  8
PEN1
 10
6.471
 20
2.169
 11
6.485
 21
2.18
  0
LINE
  8
PEN1
 10
6.485
 20
2.18
 11
6.505
 21
2.191
  0
LINE
  8
PEN1
 10
6.505
 20
2.191
 11
6.51
 21
2.213
  0
LINE
  8
PEN1
 10
6.51
 20
2.213
 11
6.526
 21
2.216
  0
LINE
  8
PEN1
 10
6.526
 20
2.216
 11
6.551
 21
2.24
  0
LINE
  8
PEN1
 10
6.551
 20
2.24
 11
6.543
 21
2.248
  0
LINE
  8
PEN1
 10
6.543
 20
2.248
 11
6.544
 21
2.293
  0
LINE
  8
PEN1
 10
6.544
 20
2.293
 11
6.515
 21
2.271
  0
LINE
  8
PEN1
 10
6.515
 20
2.271
 11
6.487
 21
2.267
  0
LINE
  8
PEN1
 10
6.487
 20
2.267
 11
6.462
 21
2.228
  0
LINE
  8
PEN1
 10
6.462
 20
2.228
 11
6.423
 21
2.248
  0
LINE
  8
PEN1
 10
6.423
 20
2.248
 11
6.43
 21
2.264
  0
LINE
  8
PEN1
 10
6.43
 20
2.264
 11
6.447
 21
2.27
  0
LINE
  8
PEN1
 10
6.447
 20
2.27
 11
6.448
 21
2.263
  0
LINE
  8
PEN1
 10
6.448
 20
2.263
 11
6.459
 21
2.286
  0
LINE
  8
PEN1
 10
6.459
 20
2.286
 11
6.444
 21
2.279
  0
LINE
  8
PEN1
 10
6.444
 20
2.279
 11
6.437
 21
2.289
  0
LINE
  8
PEN1
 10
6.437
 20
2.289
 11
6.433
 21
2.278
  0
LINE
  8
PEN1
 10
6.433
 20
2.278
 11
6.414
 21
2.287
  0
LINE
  8
PEN1
 10
6.414
 20
2.287
 11
6.397
 21
2.264
  0
LINE
  8
PEN1
 10
6.397
 20
2.264
 11
6.368
 21
2.258
  0
LINE
  8
PEN1
 10
6.368
 20
2.258
 11
6.315
 21
2.27
  0
LINE
  8
PEN1
 10
6.315
 20
2.27
 11
6.311
 21
2.284
  0
LINE
  8
PEN1
 10
6.311
 20
2.284
 11
6.344
 21
2.332
  0
LINE
  8
PEN1
 10
6.344
 20
2.332
 11
6.376
 21
2.33
  0
LINE
  8
PEN1
 10
6.376
 20
2.33
 11
6.396
 21
2.309
  0
LINE
  8
PEN1
 10
6.396
 20
2.309
 11
6.478
 21
2.294
  0
LINE
  8
PEN1
 10
6.478
 20
2.294
 11
6.418
 21
2.396
  0
LINE
  8
PEN1
 10
6.418
 20
2.396
 11
6.428
 21
2.469
  0
LINE
  8
PEN1
 10
6.428
 20
2.469
 11
6.081
 21
2.455
  0
LINE
  8
PEN1
 10
6.081
 20
2.455
 11
6.083
 21
2.495
  0
LINE
  8
PEN1
 10
6.083
 20
2.495
 11
6.122
 21
2.615
  0
LINE
  8
PEN1
 10
6.122
 20
2.615
 11
6.182
 21
2.696
  0
LINE
  8
PEN1
 10
6.182
 20
2.696
 11
6.163
 21
2.719
  0
LINE
  8
PEN1
 10
6.163
 20
2.719
 11
6.17
 21
2.797
  0
LINE
  8
PEN1
 10
6.17
 20
2.797
 11
6.14
 21
2.888
  0
LINE
  8
PEN1
 10
6.14
 20
2.888
 11
5.623
 21
2.881
  0
LINE
  8
PEN1
 10
9.057
 20
6.038
 11
9.057
 21
6.038
  0
LINE
  8
PEN1
 10
9.057
 20
6.038
 11
9.094
 21
6.036
  0
LINE
  8
PEN1
 10
9.094
 20
6.036
 11
9.097
 21
6.1
  0
LINE
  8
PEN1
 10
9.097
 20
6.1
 11
9.141
 21
6.19
  0
LINE
  8
PEN1
 10
9.141
 20
6.19
 11
9.121
 21
6.254
  0
LINE
  8
PEN1
 10
9.121
 20
6.254
 11
9.139
 21
6.34
  0
LINE
  8
PEN1
 10
9.139
 20
6.34
 11
9.137
 21
6.373
  0
LINE
  8
PEN1
 10
9.137
 20
6.373
 11
9.209
 21
6.563
  0
LINE
  8
PEN1
 10
9.209
 20
6.563
 11
9.229
 21
6.563
  0
LINE
  8
PEN1
 10
9.229
 20
6.563
 11
9.239
 21
6.525
  0
LINE
  8
PEN1
 10
9.239
 20
6.525
 11
9.329
 21
6.559
  0
LINE
  8
PEN1
 10
9.329
 20
6.559
 11
9.33
 21
6.573
  0
LINE
  8
PEN1
 10
9.33
 20
6.573
 11
9.355
 21
6.58
  0
LINE
  8
PEN1
 10
9.355
 20
6.58
 11
9.402
 21
6.557
  0
LINE
  8
PEN1
 10
9.402
 20
6.557
 11
9.437
 21
6.526
  0
LINE
  8
PEN1
 10
9.437
 20
6.526
 11
9.519
 21
6.25
  0
LINE
  8
PEN1
 10
9.519
 20
6.25
 11
9.574
 21
6.249
  0
LINE
  8
PEN1
 10
9.574
 20
6.249
 11
9.583
 21
6.233
  0
LINE
  8
PEN1
 10
9.583
 20
6.233
 11
9.575
 21
6.222
  0
LINE
  8
PEN1
 10
9.575
 20
6.222
 11
9.616
 21
6.159
  0
LINE
  8
PEN1
 10
9.616
 20
6.159
 11
9.626
 21
6.173
  0
LINE
  8
PEN1
 10
9.626
 20
6.173
 11
9.67
 21
6.131
  0
LINE
  8
PEN1
 10
9.67
 20
6.131
 11
9.654
 21
6.121
  0
LINE
  8
PEN1
 10
9.654
 20
6.121
 11
9.657
 21
6.109
  0
LINE
  8
PEN1
 10
9.657
 20
6.109
 11
9.686
 21
6.11
  0
LINE
  8
PEN1
 10
9.686
 20
6.11
 11
9.665
 21
6.057
  0
LINE
  8
PEN1
 10
9.665
 20
6.057
 11
9.639
 21
6.063
  0
LINE
  8
PEN1
 10
9.639
 20
6.063
 11
9.616
 21
6.043
  0
LINE
  8
PEN1
 10
9.616
 20
6.043
 11
9.618
 21
6.022
  0
LINE
  8
PEN1
 10
9.618
 20
6.022
 11
9.6
 21
6.01
  0
LINE
  8
PEN1
 10
9.6
 20
6.01
 11
9.578
 21
6.016
  0
LINE
  8
PEN1
 10
9.578
 20
6.016
 11
9.579
 21
5.984
  0
LINE
  8
PEN1
 10
9.579
 20
5.984
 11
9.563
 21
5.993
  0
LINE
  8
PEN1
 10
9.563
 20
5.993
 11
9.557
 21
5.956
  0
LINE
  8
PEN1
 10
9.557
 20
5.956
 11
9.528
 21
5.988
  0
LINE
  8
PEN1
 10
9.528
 20
5.988
 11
9.505
 21
5.958
  0
LINE
  8
PEN1
 10
9.505
 20
5.958
 11
9.479
 21
5.946
  0
LINE
  8
PEN1
 10
9.479
 20
5.946
 11
9.473
 21
5.915
  0
LINE
  8
PEN1
 10
9.473
 20
5.915
 11
9.446
 21
5.922
  0
LINE
  8
PEN1
 10
9.446
 20
5.922
 11
9.457
 21
5.949
  0
LINE
  8
PEN1
 10
9.457
 20
5.949
 11
9.437
 21
5.973
  0
LINE
  8
PEN1
 10
9.437
 20
5.973
 11
9.417
 21
5.934
  0
LINE
  8
PEN1
 10
9.417
 20
5.934
 11
9.424
 21
5.854
  0
LINE
  8
PEN1
 10
9.424
 20
5.854
 11
9.411
 21
5.835
  0
LINE
  8
PEN1
 10
9.411
 20
5.835
 11
9.393
 21
5.832
  0
LINE
  8
PEN1
 10
9.393
 20
5.832
 11
9.378
 21
5.836
  0
LINE
  8
PEN1
 10
9.378
 20
5.836
 11
9.357
 21
5.787
  0
LINE
  8
PEN1
 10
9.357
 20
5.787
 11
9.33
 21
5.789
  0
LINE
  8
PEN1
 10
9.33
 20
5.789
 11
9.333
 21
5.749
  0
LINE
  8
PEN1
 10
9.333
 20
5.749
 11
9.315
 21
5.779
  0
LINE
  8
PEN1
 10
9.315
 20
5.779
 11
9.274
 21
5.746
  0
LINE
  8
PEN1
 10
9.274
 20
5.746
 11
9.267
 21
5.721
  0
LINE
  8
PEN1
 10
9.267
 20
5.721
 11
9.281
 21
5.704
  0
LINE
  8
PEN1
 10
9.281
 20
5.704
 11
9.263
 21
5.694
  0
LINE
  8
PEN1
 10
9.263
 20
5.694
 11
9.266
 21
5.665
  0
LINE
  8
PEN1
 10
9.266
 20
5.665
 11
9.248
 21
5.643
  0
LINE
  8
PEN1
 10
9.248
 20
5.643
 11
9.243
 21
5.582
  0
LINE
  8
PEN1
 10
9.243
 20
5.582
 11
9.232
 21
5.582
  0
LINE
  8
PEN1
 10
9.232
 20
5.582
 11
9.174
 21
5.664
  0
LINE
  8
PEN1
 10
9.174
 20
5.664
 11
9.057
 21
6.038
  0
LINE
  8
PEN1
 10
8.003
 20
4.564
 11
8.003
 21
4.564
  0
LINE
  8
PEN1
 10
8.003
 20
4.564
 11
8.023
 21
4.453
  0
LINE
  8
PEN1
 10
8.023
 20
4.453
 11
8.081
 21
4.523
  0
LINE
  8
PEN1
 10
8.081
 20
4.523
 11
8.174
 21
4.549
  0
LINE
  8
PEN1
 10
8.174
 20
4.549
 11
8.192
 21
4.578
  0
LINE
  8
PEN1
 10
8.192
 20
4.578
 11
8.243
 21
4.584
  0
LINE
  8
PEN1
 10
8.243
 20
4.584
 11
8.285
 21
4.565
  0
LINE
  8
PEN1
 10
8.285
 20
4.565
 11
8.309
 21
4.531
  0
LINE
  8
PEN1
 10
8.309
 20
4.531
 11
8.354
 21
4.518
  0
LINE
  8
PEN1
 10
8.354
 20
4.518
 11
8.38
 21
4.485
  0
LINE
  8
PEN1
 10
8.38
 20
4.485
 11
8.42
 21
4.467
  0
LINE
  8
PEN1
 10
8.42
 20
4.467
 11
8.438
 21
4.477
  0
LINE
  8
PEN1
 10
8.438
 20
4.477
 11
8.448
 21
4.456
  0
LINE
  8
PEN1
 10
8.448
 20
4.456
 11
8.439
 21
4.44
  0
LINE
  8
PEN1
 10
8.439
 20
4.44
 11
8.437
 21
4.415
  0
LINE
  8
PEN1
 10
8.437
 20
4.415
 11
8.409
 21
4.366
  0
LINE
  8
PEN1
 10
8.409
 20
4.366
 11
8.42
 21
4.333
  0
LINE
  8
PEN1
 10
8.42
 20
4.333
 11
8.454
 21
4.348
  0
LINE
  8
PEN1
 10
8.454
 20
4.348
 11
8.456
 21
4.364
  0
LINE
  8
PEN1
 10
8.456
 20
4.364
 11
8.483
 21
4.331
  0
LINE
  8
PEN1
 10
8.483
 20
4.331
 11
8.489
 21
4.347
  0
LINE
  8
PEN1
 10
8.489
 20
4.347
 11
8.507
 21
4.323
  0
LINE
  8
PEN1
 10
8.507
 20
4.323
 11
8.516
 21
4.335
  0
LINE
  8
PEN1
 10
8.516
 20
4.335
 11
8.546
 21
4.322
  0
LINE
  8
PEN1
 10
8.546
 20
4.322
 11
8.563
 21
4.329
  0
LINE
  8
PEN1
 10
8.563
 20
4.329
 11
8.59
 21
4.301
  0
LINE
  8
PEN1
 10
8.59
 20
4.301
 11
8.569
 21
4.343
  0
LINE
  8
PEN1
 10
8.569
 20
4.343
 11
8.515
 21
4.383
  0
LINE
  8
PEN1
 10
8.515
 20
4.383
 11
8.566
 21
4.358
  0
LINE
  8
PEN1
 10
8.566
 20
4.358
 11
8.535
 21
4.4
  0
LINE
  8
PEN1
 10
8.535
 20
4.4
 11
8.526
 21
4.437
  0
LINE
  8
PEN1
 10
8.526
 20
4.437
 11
8.53
 21
4.523
  0
LINE
  8
PEN1
 10
8.53
 20
4.523
 11
8.498
 21
4.542
  0
LINE
  8
PEN1
 10
8.498
 20
4.542
 11
8.563
 21
4.598
  0
LINE
  8
PEN1
 10
8.563
 20
4.598
 11
8.565
 21
4.632
  0
LINE
  8
PEN1
 10
8.565
 20
4.632
 11
8.601
 21
4.63
  0
LINE
  8
PEN1
 10
8.601
 20
4.63
 11
8.593
 21
4.599
  0
LINE
  8
PEN1
 10
8.593
 20
4.599
 11
8.568
 21
4.588
  0
LINE
  8
PEN1
 10
8.568
 20
4.588
 11
8.555
 21
4.554
  0
LINE
  8
PEN1
 10
8.555
 20
4.554
 11
8.563
 21
4.524
  0
LINE
  8
PEN1
 10
8.563
 20
4.524
 11
8.58
 21
4.536
  0
LINE
  8
PEN1
 10
8.58
 20
4.536
 11
8.571
 21
4.5
  0
LINE
  8
PEN1
 10
8.571
 20
4.5
 11
8.578
 21
4.482
  0
LINE
  8
PEN1
 10
8.578
 20
4.482
 11
8.583
 21
4.464
  0
LINE
  8
PEN1
 10
8.583
 20
4.464
 11
8.566
 21
4.473
  0
LINE
  8
PEN1
 10
8.566
 20
4.473
 11
8.56
 21
4.447
  0
LINE
  8
PEN1
 10
8.56
 20
4.447
 11
8.597
 21
4.455
  0
LINE
  8
PEN1
 10
8.597
 20
4.455
 11
8.594
 21
4.437
  0
LINE
  8
PEN1
 10
8.594
 20
4.437
 11
8.613
 21
4.424
  0
LINE
  8
PEN1
 10
8.613
 20
4.424
 11
8.577
 21
4.425
  0
LINE
  8
PEN1
 10
8.577
 20
4.425
 11
8.588
 21
4.371
  0
LINE
  8
PEN1
 10
8.588
 20
4.371
 11
8.629
 21
4.35
  0
LINE
  8
PEN1
 10
8.629
 20
4.35
 11
8.65
 21
4.376
  0
LINE
  8
PEN1
 10
8.65
 20
4.376
 11
8.652
 21
4.332
  0
LINE
  8
PEN1
 10
8.652
 20
4.332
 11
8.678
 21
4.341
  0
LINE
  8
PEN1
 10
8.678
 20
4.341
 11
8.665
 21
4.322
  0
LINE
  8
PEN1
 10
8.665
 20
4.322
 11
8.684
 21
4.322
  0
LINE
  8
PEN1
 10
8.684
 20
4.322
 11
8.668
 21
4.298
  0
LINE
  8
PEN1
 10
8.668
 20
4.298
 11
8.675
 21
4.291
  0
LINE
  8
PEN1
 10
8.675
 20
4.291
 11
8.71
 21
4.307
  0
LINE
  8
PEN1
 10
8.71
 20
4.307
 11
8.753
 21
4.33
  0
LINE
  8
PEN1
 10
8.753
 20
4.33
 11
8.767
 21
4.381
  0
LINE
  8
PEN1
 10
8.767
 20
4.381
 11
8.772
 21
4.351
  0
LINE
  8
PEN1
 10
8.772
 20
4.351
 11
8.767
 21
4.336
  0
LINE
  8
PEN1
 10
8.767
 20
4.336
 11
8.757
 21
4.31
  0
LINE
  8
PEN1
 10
8.757
 20
4.31
 11
8.761
 21
4.294
  0
LINE
  8
PEN1
 10
8.761
 20
4.294
 11
8.777
 21
4.337
  0
LINE
  8
PEN1
 10
8.777
 20
4.337
 11
8.784
 21
4.433
  0
LINE
  8
PEN1
 10
8.784
 20
4.433
 11
8.736
 21
4.423
  0
LINE
  8
PEN1
 10
8.736
 20
4.423
 11
8.675
 21
4.411
  0
LINE
  8
PEN1
 10
8.675
 20
4.411
 11
8.671
 21
4.432
  0
LINE
  8
PEN1
 10
8.671
 20
4.432
 11
8.604
 21
4.679
  0
LINE
  8
PEN1
 10
8.604
 20
4.679
 11
8.003
 21
4.564
  0
LINE
  8
PEN1
 10
8.859
 20
5.412
 11
8.859
 21
5.412
  0
LINE
  8
PEN1
 10
8.859
 20
5.412
 11
8.86
 21
5.256
  0
LINE
  8
PEN1
 10
8.86
 20
5.256
 11
9.128
 21
5.313
  0
LINE
  8
PEN1
 10
9.128
 20
5.313
 11
9.174
 21
5.329
  0
LINE
  8
PEN1
 10
9.174
 20
5.329
 11
9.193
 21
5.325
  0
LINE
  8
PEN1
 10
9.193
 20
5.325
 11
9.213
 21
5.282
  0
LINE
  8
PEN1
 10
9.213
 20
5.282
 11
9.243
 21
5.277
  0
LINE
  8
PEN1
 10
9.243
 20
5.277
 11
9.261
 21
5.241
  0
LINE
  8
PEN1
 10
9.261
 20
5.241
 11
9.279
 21
5.238
  0
LINE
  8
PEN1
 10
9.279
 20
5.238
 11
9.287
 21
5.264
  0
LINE
  8
PEN1
 10
9.287
 20
5.264
 11
9.301
 21
5.273
  0
LINE
  8
PEN1
 10
9.301
 20
5.273
 11
9.309
 21
5.3
  0
LINE
  8
PEN1
 10
9.309
 20
5.3
 11
9.317
 21
5.302
  0
LINE
  8
PEN1
 10
9.317
 20
5.302
 11
9.33
 21
5.261
  0
LINE
  8
PEN1
 10
9.33
 20
5.261
 11
9.356
 21
5.271
  0
LINE
  8
PEN1
 10
9.356
 20
5.271
 11
9.362
 21
5.288
  0
LINE
  8
PEN1
 10
9.362
 20
5.288
 11
9.397
 21
5.306
  0
LINE
  8
PEN1
 10
9.397
 20
5.306
 11
9.419
 21
5.312
  0
LINE
  8
PEN1
 10
9.419
 20
5.312
 11
9.434
 21
5.298
  0
LINE
  8
PEN1
 10
9.434
 20
5.298
 11
9.429
 21
5.338
  0
LINE
  8
PEN1
 10
9.429
 20
5.338
 11
9.401
 21
5.387
  0
LINE
  8
PEN1
 10
9.401
 20
5.387
 11
9.384
 21
5.395
  0
LINE
  8
PEN1
 10
9.384
 20
5.395
 11
9.366
 21
5.393
  0
LINE
  8
PEN1
 10
9.366
 20
5.393
 11
9.369
 21
5.382
  0
LINE
  8
PEN1
 10
9.369
 20
5.382
 11
9.38
 21
5.382
  0
LINE
  8
PEN1
 10
9.38
 20
5.382
 11
9.394
 21
5.381
  0
LINE
  8
PEN1
 10
9.394
 20
5.381
 11
9.408
 21
5.365
  0
LINE
  8
PEN1
 10
9.408
 20
5.365
 11
9.413
 21
5.347
  0
LINE
  8
PEN1
 10
9.413
 20
5.347
 11
9.404
 21
5.33
  0
LINE
  8
PEN1
 10
9.404
 20
5.33
 11
9.359
 21
5.311
  0
LINE
  8
PEN1
 10
9.359
 20
5.311
 11
9.335
 21
5.32
  0
LINE
  8
PEN1
 10
9.335
 20
5.32
 11
9.323
 21
5.347
  0
LINE
  8
PEN1
 10
9.323
 20
5.347
 11
9.301
 21
5.351
  0
LINE
  8
PEN1
 10
9.301
 20
5.351
 11
9.306
 21
5.366
  0
LINE
  8
PEN1
 10
9.306
 20
5.366
 11
9.282
 21
5.397
  0
LINE
  8
PEN1
 10
9.282
 20
5.397
 11
9.252
 21
5.409
  0
LINE
  8
PEN1
 10
9.252
 20
5.409
 11
9.25
 21
5.395
  0
LINE
  8
PEN1
 10
9.25
 20
5.395
 11
9.231
 21
5.4
  0
LINE
  8
PEN1
 10
9.231
 20
5.4
 11
9.225
 21
5.418
  0
LINE
  8
PEN1
 10
9.225
 20
5.418
 11
9.229
 21
5.435
  0
LINE
  8
PEN1
 10
9.229
 20
5.435
 11
9.246
 21
5.45
  0
LINE
  8
PEN1
 10
9.246
 20
5.45
 11
9.241
 21
5.463
  0
LINE
  8
PEN1
 10
9.241
 20
5.463
 11
9.265
 21
5.481
  0
LINE
  8
PEN1
 10
9.265
 20
5.481
 11
9.24
 21
5.502
  0
LINE
  8
PEN1
 10
9.24
 20
5.502
 11
9.229
 21
5.53
  0
LINE
  8
PEN1
 10
9.229
 20
5.53
 11
9.175
 21
5.488
  0
LINE
  8
PEN1
 10
9.175
 20
5.488
 11
8.984
 21
5.439
  0
LINE
  8
PEN1
 10
8.984
 20
5.439
 11
8.859
 21
5.412
  0
LINE
  8
PEN1
 10
9.319
 20
5.205
 11
9.319
 21
5.205
  0
LINE
  8
PEN1
 10
9.319
 20
5.205
 11
9.341
 21
5.248
  0
LINE
  8
PEN1
 10
9.341
 20
5.248
 11
9.371
 21
5.229
  0
LINE
  8
PEN1
 10
9.371
 20
5.229
 11
9.319
 21
5.205
  0
LINE
  8
PEN1
 10
9.416
 20
5.223
 11
9.416
 21
5.223
  0
LINE
  8
PEN1
 10
9.416
 20
5.223
 11
9.439
 21
5.254
  0
LINE
  8
PEN1
 10
9.439
 20
5.254
 11
9.457
 21
5.231
  0
LINE
  8
PEN1
 10
9.457
 20
5.231
 11
9.416
 21
5.223
  0
LINE
  8
PEN1
 10
6.124
 20
5.85
 11
6.124
 21
5.85
  0
LINE
  8
PEN1
 10
6.124
 20
5.85
 11
6.201
 21
5.796
  0
LINE
  8
PEN1
 10
6.201
 20
5.796
 11
6.39
 21
5.747
  0
LINE
  8
PEN1
 10
6.39
 20
5.747
 11
6.477
 21
5.736
  0
LINE
  8
PEN1
 10
6.477
 20
5.736
 11
6.49
 21
5.706
  0
LINE
  8
PEN1
 10
6.49
 20
5.706
 11
6.524
 21
5.695
  0
LINE
  8
PEN1
 10
6.524
 20
5.695
 11
6.573
 21
5.563
  0
LINE
  8
PEN1
 10
6.573
 20
5.563
 11
6.616
 21
5.665
  0
LINE
  8
PEN1
 10
6.616
 20
5.665
 11
6.625
 21
5.689
  0
LINE
  8
PEN1
 10
6.625
 20
5.689
 11
6.639
 21
5.704
  0
LINE
  8
PEN1
 10
6.639
 20
5.704
 11
6.638
 21
5.721
  0
LINE
  8
PEN1
 10
6.638
 20
5.721
 11
6.654
 21
5.748
  0
LINE
  8
PEN1
 10
6.654
 20
5.748
 11
6.658
 21
5.746
  0
LINE
  8
PEN1
 10
6.658
 20
5.746
 11
6.653
 21
5.73
  0
LINE
  8
PEN1
 10
6.653
 20
5.73
 11
6.656
 21
5.701
  0
LINE
  8
PEN1
 10
6.656
 20
5.701
 11
6.674
 21
5.709
  0
LINE
  8
PEN1
 10
6.674
 20
5.709
 11
6.682
 21
5.74
  0
LINE
  8
PEN1
 10
6.682
 20
5.74
 11
6.703
 21
5.737
  0
LINE
  8
PEN1
 10
6.703
 20
5.737
 11
6.716
 21
5.751
  0
LINE
  8
PEN1
 10
6.716
 20
5.751
 11
6.719
 21
5.743
  0
LINE
  8
PEN1
 10
6.719
 20
5.743
 11
6.696
 21
5.696
  0
LINE
  8
PEN1
 10
6.696
 20
5.696
 11
6.712
 21
5.689
  0
LINE
  8
PEN1
 10
6.712
 20
5.689
 11
6.726
 21
5.718
  0
LINE
  8
PEN1
 10
6.726
 20
5.718
 11
6.748
 21
5.73
  0
LINE
  8
PEN1
 10
6.748
 20
5.73
 11
6.759
 21
5.765
  0
LINE
  8
PEN1
 10
6.759
 20
5.765
 11
6.817
 21
5.775
  0
LINE
  8
PEN1
 10
6.817
 20
5.775
 11
6.845
 21
5.778
  0
LINE
  8
PEN1
 10
6.845
 20
5.778
 11
6.887
 21
5.809
  0
LINE
  8
PEN1
 10
6.887
 20
5.809
 11
6.95
 21
5.799
  0
LINE
  8
PEN1
 10
6.95
 20
5.799
 11
6.992
 21
5.769
  0
LINE
  8
PEN1
 10
6.992
 20
5.769
 11
6.995
 21
5.807
  0
LINE
  8
PEN1
 10
6.995
 20
5.807
 11
7.017
 21
5.808
  0
LINE
  8
PEN1
 10
7.017
 20
5.808
 11
7.069
 21
5.804
  0
LINE
  8
PEN1
 10
7.069
 20
5.804
 11
7.111
 21
5.815
  0
LINE
  8
PEN1
 10
7.111
 20
5.815
 11
7.056
 21
5.849
  0
LINE
  8
PEN1
 10
7.056
 20
5.849
 11
7.045
 21
5.904
  0
LINE
  8
PEN1
 10
7.045
 20
5.904
 11
7.002
 21
5.893
  0
LINE
  8
PEN1
 10
7.002
 20
5.893
 11
6.987
 21
5.904
  0
LINE
  8
PEN1
 10
6.987
 20
5.904
 11
6.969
 21
5.893
  0
LINE
  8
PEN1
 10
6.969
 20
5.893
 11
6.944
 21
5.899
  0
LINE
  8
PEN1
 10
6.944
 20
5.899
 11
6.932
 21
5.901
  0
LINE
  8
PEN1
 10
6.932
 20
5.901
 11
6.928
 21
5.932
  0
LINE
  8
PEN1
 10
6.928
 20
5.932
 11
6.937
 21
5.962
  0
LINE
  8
PEN1
 10
6.937
 20
5.962
 11
6.894
 21
5.953
  0
LINE
  8
PEN1
 10
6.894
 20
5.953
 11
6.855
 21
5.933
  0
LINE
  8
PEN1
 10
6.855
 20
5.933
 11
6.755
 21
5.919
  0
LINE
  8
PEN1
 10
6.755
 20
5.919
 11
6.69
 21
5.859
  0
LINE
  8
PEN1
 10
6.69
 20
5.859
 11
6.678
 21
5.872
  0
LINE
  8
PEN1
 10
6.678
 20
5.872
 11
6.658
 21
5.863
  0
LINE
  8
PEN1
 10
6.658
 20
5.863
 11
6.633
 21
5.881
  0
LINE
  8
PEN1
 10
6.633
 20
5.881
 11
6.617
 21
5.875
  0
LINE
  8
PEN1
 10
6.617
 20
5.875
 11
6.582
 21
5.869
  0
LINE
  8
PEN1
 10
6.582
 20
5.869
 11
6.532
 21
5.937
  0
LINE
  8
PEN1
 10
6.532
 20
5.937
 11
6.473
 21
5.949
  0
LINE
  8
PEN1
 10
6.473
 20
5.949
 11
6.456
 21
5.945
  0
LINE
  8
PEN1
 10
6.456
 20
5.945
 11
6.444
 21
5.929
  0
LINE
  8
PEN1
 10
6.444
 20
5.929
 11
6.454
 21
5.958
  0
LINE
  8
PEN1
 10
6.454
 20
5.958
 11
6.426
 21
5.935
  0
LINE
  8
PEN1
 10
6.426
 20
5.935
 11
6.414
 21
5.911
  0
LINE
  8
PEN1
 10
6.414
 20
5.911
 11
6.416
 21
5.952
  0
LINE
  8
PEN1
 10
6.416
 20
5.952
 11
6.444
 21
6.01
  0
LINE
  8
PEN1
 10
6.444
 20
6.01
 11
6.479
 21
6.051
  0
LINE
  8
PEN1
 10
6.479
 20
6.051
 11
6.513
 21
6.062
  0
LINE
  8
PEN1
 10
6.513
 20
6.062
 11
6.508
 21
6.071
  0
LINE
  8
PEN1
 10
6.508
 20
6.071
 11
6.45
 21
6.066
  0
LINE
  8
PEN1
 10
6.45
 20
6.066
 11
6.414
 21
6.046
  0
LINE
  8
PEN1
 10
6.414
 20
6.046
 11
6.402
 21
6.026
  0
LINE
  8
PEN1
 10
6.402
 20
6.026
 11
6.357
 21
5.991
  0
LINE
  8
PEN1
 10
6.357
 20
5.991
 11
6.339
 21
5.961
  0
LINE
  8
PEN1
 10
6.339
 20
5.961
 11
6.307
 21
5.952
  0
LINE
  8
PEN1
 10
6.307
 20
5.952
 11
6.295
 21
5.933
  0
LINE
  8
PEN1
 10
6.295
 20
5.933
 11
6.274
 21
5.922
  0
LINE
  8
PEN1
 10
6.274
 20
5.922
 11
6.215
 21
5.912
  0
LINE
  8
PEN1
 10
6.215
 20
5.912
 11
6.202
 21
5.899
  0
LINE
  8
PEN1
 10
6.202
 20
5.899
 11
6.174
 21
5.874
  0
LINE
  8
PEN1
 10
6.174
 20
5.874
 11
6.124
 21
5.85
  0
LINE
  8
PEN1
 10
6.757
 20
4.852
 11
6.757
 21
4.852
  0
LINE
  8
PEN1
 10
6.757
 20
4.852
 11
6.821
 21
4.962
  0
LINE
  8
PEN1
 10
6.821
 20
4.962
 11
6.833
 21
5.002
  0
LINE
  8
PEN1
 10
6.833
 20
5.002
 11
6.837
 21
5.079
  0
LINE
  8
PEN1
 10
6.837
 20
5.079
 11
6.822
 21
5.154
  0
LINE
  8
PEN1
 10
6.822
 20
5.154
 11
6.784
 21
5.226
  0
LINE
  8
PEN1
 10
6.784
 20
5.226
 11
6.767
 21
5.267
  0
LINE
  8
PEN1
 10
6.767
 20
5.267
 11
6.779
 21
5.303
  0
LINE
  8
PEN1
 10
6.779
 20
5.303
 11
6.761
 21
5.349
  0
LINE
  8
PEN1
 10
6.761
 20
5.349
 11
6.78
 21
5.381
  0
LINE
  8
PEN1
 10
6.78
 20
5.381
 11
6.795
 21
5.459
  0
LINE
  8
PEN1
 10
6.795
 20
5.459
 11
6.791
 21
5.496
  0
LINE
  8
PEN1
 10
6.791
 20
5.496
 11
6.816
 21
5.518
  0
LINE
  8
PEN1
 10
6.816
 20
5.518
 11
6.813
 21
5.543
  0
LINE
  8
PEN1
 10
6.813
 20
5.543
 11
6.853
 21
5.562
  0
LINE
  8
PEN1
 10
6.853
 20
5.562
 11
6.887
 21
5.618
  0
LINE
  8
PEN1
 10
6.887
 20
5.618
 11
6.882
 21
5.526
  0
LINE
  8
PEN1
 10
6.882
 20
5.526
 11
6.91
 21
5.545
  0
LINE
  8
PEN1
 10
6.91
 20
5.545
 11
6.909
 21
5.62
  0
LINE
  8
PEN1
 10
6.909
 20
5.62
 11
6.947
 21
5.662
  0
LINE
  8
PEN1
 10
6.947
 20
5.662
 11
6.973
 21
5.667
  0
LINE
  8
PEN1
 10
6.973
 20
5.667
 11
6.951
 21
5.68
  0
LINE
  8
PEN1
 10
6.951
 20
5.68
 11
6.943
 21
5.706
  0
LINE
  8
PEN1
 10
6.943
 20
5.706
 11
6.958
 21
5.744
  0
LINE
  8
PEN1
 10
6.958
 20
5.744
 11
6.992
 21
5.756
  0
LINE
  8
PEN1
 10
6.992
 20
5.756
 11
7.07
 21
5.733
  0
LINE
  8
PEN1
 10
7.07
 20
5.733
 11
7.099
 21
5.704
  0
LINE
  8
PEN1
 10
7.099
 20
5.704
 11
7.191
 21
5.684
  0
LINE
  8
PEN1
 10
7.191
 20
5.684
 11
7.209
 21
5.655
  0
LINE
  8
PEN1
 10
7.209
 20
5.655
 11
7.235
 21
5.623
  0
LINE
  8
PEN1
 10
7.235
 20
5.623
 11
7.211
 21
5.624
  0
LINE
  8
PEN1
 10
7.211
 20
5.624
 11
7.208
 21
5.605
  0
LINE
  8
PEN1
 10
7.208
 20
5.605
 11
7.236
 21
5.57
  0
LINE
  8
PEN1
 10
7.236
 20
5.57
 11
7.242
 21
5.509
  0
LINE
  8
PEN1
 10
7.242
 20
5.509
 11
7.242
 21
5.471
  0
LINE
  8
PEN1
 10
7.242
 20
5.471
 11
7.214
 21
5.427
  0
LINE
  8
PEN1
 10
7.214
 20
5.427
 11
7.211
 21
5.404
  0
LINE
  8
PEN1
 10
7.211
 20
5.404
 11
7.175
 21
5.386
  0
LINE
  8
PEN1
 10
7.175
 20
5.386
 11
7.167
 21
5.366
  0
LINE
  8
PEN1
 10
7.167
 20
5.366
 11
7.171
 21
5.32
  0
LINE
  8
PEN1
 10
7.171
 20
5.32
 11
7.21
 21
5.3
  0
LINE
  8
PEN1
 10
7.21
 20
5.3
 11
7.241
 21
5.337
  0
LINE
  8
PEN1
 10
7.241
 20
5.337
 11
7.263
 21
5.388
  0
LINE
  8
PEN1
 10
7.263
 20
5.388
 11
7.317
 21
5.419
  0
LINE
  8
PEN1
 10
7.317
 20
5.419
 11
7.353
 21
5.4
  0
LINE
  8
PEN1
 10
7.353
 20
5.4
 11
7.377
 21
5.345
  0
LINE
  8
PEN1
 10
7.377
 20
5.345
 11
7.408
 21
5.236
  0
LINE
  8
PEN1
 10
7.408
 20
5.236
 11
7.421
 21
5.2
  0
LINE
  8
PEN1
 10
7.421
 20
5.2
 11
7.413
 21
5.172
  0
LINE
  8
PEN1
 10
7.413
 20
5.172
 11
7.417
 21
5.126
  0
LINE
  8
PEN1
 10
7.417
 20
5.126
 11
7.406
 21
5.101
  0
LINE
  8
PEN1
 10
7.406
 20
5.101
 11
7.39
 21
5.126
  0
LINE
  8
PEN1
 10
7.39
 20
5.126
 11
7.373
 21
5.115
  0
LINE
  8
PEN1
 10
7.373
 20
5.115
 11
7.371
 21
5.073
  0
LINE
  8
PEN1
 10
7.371
 20
5.073
 11
7.364
 21
5.054
  0
LINE
  8
PEN1
 10
7.364
 20
5.054
 11
7.336
 21
5.035
  0
LINE
  8
PEN1
 10
7.336
 20
5.035
 11
7.335
 21
4.978
  0
LINE
  8
PEN1
 10
7.335
 20
4.978
 11
7.315
 21
4.954
  0
LINE
  8
PEN1
 10
7.315
 20
4.954
 11
7.298
 21
4.907
  0
LINE
  8
PEN1
 10
7.298
 20
4.907
 11
7.083
 21
4.873
  0
LINE
  8
PEN1
 10
7.083
 20
4.873
 11
7.076
 21
4.887
  0
LINE
  8
PEN1
 10
7.076
 20
4.887
 11
6.757
 21
4.852
  0
LINE
  8
PEN1
 10
5.111
 20
6.358
 11
5.111
 21
6.358
  0
LINE
  8
PEN1
 10
5.111
 20
6.358
 11
5.119
 21
6.179
  0
LINE
  8
PEN1
 10
5.119
 20
6.179
 11
5.163
 21
6.034
  0
LINE
  8
PEN1
 10
5.163
 20
6.034
 11
5.169
 21
5.847
  0
LINE
  8
PEN1
 10
5.169
 20
5.847
 11
5.2
 21
5.696
  0
LINE
  8
PEN1
 10
5.2
 20
5.696
 11
5.16
 21
5.62
  0
LINE
  8
PEN1
 10
5.16
 20
5.62
 11
5.217
 21
5.563
  0
LINE
  8
PEN1
 10
5.217
 20
5.563
 11
5.214
 21
5.165
  0
LINE
  8
PEN1
 10
5.214
 20
5.165
 11
6.032
 21
5.181
  0
LINE
  8
PEN1
 10
6.032
 20
5.181
 11
6.019
 21
5.258
  0
LINE
  8
PEN1
 10
6.019
 20
5.258
 11
5.994
 21
5.287
  0
LINE
  8
PEN1
 10
5.994
 20
5.287
 11
5.931
 21
5.328
  0
LINE
  8
PEN1
 10
5.931
 20
5.328
 11
5.887
 21
5.376
  0
LINE
  8
PEN1
 10
5.887
 20
5.376
 11
5.777
 21
5.445
  0
LINE
  8
PEN1
 10
5.777
 20
5.445
 11
5.78
 21
5.562
  0
LINE
  8
PEN1
 10
5.78
 20
5.562
 11
5.756
 21
5.636
  0
LINE
  8
PEN1
 10
5.756
 20
5.636
 11
5.845
 21
5.749
  0
LINE
  8
PEN1
 10
5.845
 20
5.749
 11
5.84
 21
5.859
  0
LINE
  8
PEN1
 10
5.84
 20
5.859
 11
5.861
 21
5.878
  0
LINE
  8
PEN1
 10
5.861
 20
5.878
 11
5.971
 21
5.97
  0
LINE
  8
PEN1
 10
5.971
 20
5.97
 11
6.027
 21
6.038
  0
LINE
  8
PEN1
 10
6.027
 20
6.038
 11
6.099
 21
6.095
  0
LINE
  8
PEN1
 10
6.099
 20
6.095
 11
6.245
 21
6.17
  0
LINE
  8
PEN1
 10
6.245
 20
6.17
 11
6.191
 21
6.165
  0
LINE
  8
PEN1
 10
6.191
 20
6.165
 11
6.141
 21
6.189
  0
LINE
  8
PEN1
 10
6.141
 20
6.189
 11
6.06
 21
6.181
  0
LINE
  8
PEN1
 10
6.06
 20
6.181
 11
6.043
 21
6.212
  0
LINE
  8
PEN1
 10
6.043
 20
6.212
 11
6.017
 21
6.199
  0
LINE
  8
PEN1
 10
6.017
 20
6.199
 11
5.961
 21
6.166
  0
LINE
  8
PEN1
 10
5.961
 20
6.166
 11
5.922
 21
6.177
  0
LINE
  8
PEN1
 10
5.922
 20
6.177
 11
5.906
 21
6.195
  0
LINE
  8
PEN1
 10
5.906
 20
6.195
 11
5.876
 21
6.204
  0
LINE
  8
PEN1
 10
5.876
 20
6.204
 11
5.862
 21
6.228
  0
LINE
  8
PEN1
 10
5.862
 20
6.228
 11
5.834
 21
6.224
  0
LINE
  8
PEN1
 10
5.834
 20
6.224
 11
5.832
 21
6.203
  0
LINE
  8
PEN1
 10
5.832
 20
6.203
 11
5.819
 21
6.198
  0
LINE
  8
PEN1
 10
5.819
 20
6.198
 11
5.798
 21
6.244
  0
LINE
  8
PEN1
 10
5.798
 20
6.244
 11
5.771
 21
6.245
  0
LINE
  8
PEN1
 10
5.771
 20
6.245
 11
5.78
 21
6.267
  0
LINE
  8
PEN1
 10
5.78
 20
6.267
 11
5.714
 21
6.28
  0
LINE
  8
PEN1
 10
5.714
 20
6.28
 11
5.69
 21
6.283
  0
LINE
  8
PEN1
 10
5.69
 20
6.283
 11
5.613
 21
6.252
  0
LINE
  8
PEN1
 10
5.613
 20
6.252
 11
5.601
 21
6.28
  0
LINE
  8
PEN1
 10
5.601
 20
6.28
 11
5.481
 21
6.305
  0
LINE
  8
PEN1
 10
5.481
 20
6.305
 11
5.461
 21
6.428
  0
LINE
  8
PEN1
 10
5.461
 20
6.428
 11
5.411
 21
6.438
  0
LINE
  8
PEN1
 10
5.411
 20
6.438
 11
5.41
 21
6.357
  0
LINE
  8
PEN1
 10
5.41
 20
6.357
 11
5.111
 21
6.358
  0
LINE
  8
PEN1
 10
6.081
 20
2.455
 11
6.081
 21
2.455
  0
LINE
  8
PEN1
 10
6.081
 20
2.455
 11
6.083
 21
2.495
  0
LINE
  8
PEN1
 10
6.083
 20
2.495
 11
6.122
 21
2.615
  0
LINE
  8
PEN1
 10
6.122
 20
2.615
 11
6.182
 21
2.696
  0
LINE
  8
PEN1
 10
6.182
 20
2.696
 11
6.163
 21
2.719
  0
LINE
  8
PEN1
 10
6.163
 20
2.719
 11
6.17
 21
2.797
  0
LINE
  8
PEN1
 10
6.17
 20
2.797
 11
6.14
 21
2.888
  0
LINE
  8
PEN1
 10
6.14
 20
2.888
 11
6.129
 21
3.007
  0
LINE
  8
PEN1
 10
6.129
 20
3.007
 11
6.174
 21
3.136
  0
LINE
  8
PEN1
 10
6.174
 20
3.136
 11
6.238
 21
3.227
  0
LINE
  8
PEN1
 10
6.238
 20
3.227
 11
6.235
 21
3.252
  0
LINE
  8
PEN1
 10
6.235
 20
3.252
 11
6.283
 21
3.332
  0
LINE
  8
PEN1
 10
6.283
 20
3.332
 11
6.651
 21
3.356
  0
LINE
  8
PEN1
 10
6.651
 20
3.356
 11
6.667
 21
3.336
  0
LINE
  8
PEN1
 10
6.667
 20
3.336
 11
6.651
 21
2.677
  0
LINE
  8
PEN1
 10
6.651
 20
2.677
 11
6.691
 21
2.358
  0
LINE
  8
PEN1
 10
6.691
 20
2.358
 11
6.675
 21
2.344
  0
LINE
  8
PEN1
 10
6.675
 20
2.344
 11
6.652
 21
2.358
  0
LINE
  8
PEN1
 10
6.652
 20
2.358
 11
6.623
 21
2.344
  0
LINE
  8
PEN1
 10
6.623
 20
2.344
 11
6.598
 21
2.361
  0
LINE
  8
PEN1
 10
6.598
 20
2.361
 11
6.596
 21
2.35
  0
LINE
  8
PEN1
 10
6.596
 20
2.35
 11
6.567
 21
2.347
  0
LINE
  8
PEN1
 10
6.567
 20
2.347
 11
6.528
 21
2.328
  0
LINE
  8
PEN1
 10
6.528
 20
2.328
 11
6.515
 21
2.338
  0
LINE
  8
PEN1
 10
6.515
 20
2.338
 11
6.496
 21
2.303
  0
LINE
  8
PEN1
 10
6.496
 20
2.303
 11
6.478
 21
2.294
  0
LINE
  8
PEN1
 10
6.478
 20
2.294
 11
6.418
 21
2.396
  0
LINE
  8
PEN1
 10
6.418
 20
2.396
 11
6.428
 21
2.469
  0
LINE
  8
PEN1
 10
6.428
 20
2.469
 11
6.081
 21
2.455
  0
LINE
  8
PEN1
 10
5.319
 20
4.535
 11
5.319
 21
4.535
  0
LINE
  8
PEN1
 10
5.319
 20
4.535
 11
5.388
 21
4.406
  0
LINE
  8
PEN1
 10
5.388
 20
4.406
 11
5.422
 21
4.375
  0
LINE
  8
PEN1
 10
5.422
 20
4.375
 11
5.443
 21
4.382
  0
LINE
  8
PEN1
 10
5.443
 20
4.382
 11
5.462
 21
4.365
  0
LINE
  8
PEN1
 10
5.462
 20
4.365
 11
5.465
 21
4.348
  0
LINE
  8
PEN1
 10
5.465
 20
4.348
 11
5.447
 21
4.347
  0
LINE
  8
PEN1
 10
5.447
 20
4.347
 11
5.425
 21
4.301
  0
LINE
  8
PEN1
 10
5.425
 20
4.301
 11
5.475
 21
4.229
  0
LINE
  8
PEN1
 10
5.475
 20
4.229
 11
5.514
 21
4.217
  0
LINE
  8
PEN1
 10
5.514
 20
4.217
 11
5.509
 21
3.751
  0
LINE
  8
PEN1
 10
5.509
 20
3.751
 11
5.512
 21
3.638
  0
LINE
  8
PEN1
 10
5.512
 20
3.638
 11
6.274
 21
3.663
  0
LINE
  8
PEN1
 10
6.274
 20
3.663
 11
6.284
 21
3.595
  0
LINE
  8
PEN1
 10
6.284
 20
3.595
 11
6.252
 21
3.552
  0
LINE
  8
PEN1
 10
6.252
 20
3.552
 11
6.368
 21
3.558
  0
LINE
  8
PEN1
 10
6.368
 20
3.558
 11
6.387
 21
3.595
  0
LINE
  8
PEN1
 10
6.387
 20
3.595
 11
6.39
 21
3.638
  0
LINE
  8
PEN1
 10
6.39
 20
3.638
 11
6.416
 21
3.67
  0
LINE
  8
PEN1
 10
6.416
 20
3.67
 11
6.427
 21
3.701
  0
LINE
  8
PEN1
 10
6.427
 20
3.701
 11
6.456
 21
3.705
  0
LINE
  8
PEN1
 10
6.456
 20
3.705
 11
6.464
 21
3.775
  0
LINE
  8
PEN1
 10
6.464
 20
3.775
 11
6.448
 21
3.781
  0
LINE
  8
PEN1
 10
6.448
 20
3.781
 11
6.422
 21
3.783
  0
LINE
  8
PEN1
 10
6.422
 20
3.783
 11
6.395
 21
3.834
  0
LINE
  8
PEN1
 10
6.395
 20
3.834
 11
6.381
 21
3.904
  0
LINE
  8
PEN1
 10
6.381
 20
3.904
 11
6.352
 21
3.951
  0
LINE
  8
PEN1
 10
6.352
 20
3.951
 11
6.307
 21
3.969
  0
LINE
  8
PEN1
 10
6.307
 20
3.969
 11
6.25
 21
4.014
  0
LINE
  8
PEN1
 10
6.25
 20
4.014
 11
6.231
 21
4.076
  0
LINE
  8
PEN1
 10
6.231
 20
4.076
 11
6.263
 21
4.171
  0
LINE
  8
PEN1
 10
6.263
 20
4.171
 11
6.236
 21
4.19
  0
LINE
  8
PEN1
 10
6.236
 20
4.19
 11
6.169
 21
4.189
  0
LINE
  8
PEN1
 10
6.169
 20
4.189
 11
6.157
 21
4.25
  0
LINE
  8
PEN1
 10
6.157
 20
4.25
 11
6.046
 21
4.364
  0
LINE
  8
PEN1
 10
6.046
 20
4.364
 11
6.02
 21
4.461
  0
LINE
  8
PEN1
 10
6.02
 20
4.461
 11
6.032
 21
4.498
  0
LINE
  8
PEN1
 10
6.032
 20
4.498
 11
5.982
 21
4.549
  0
LINE
  8
PEN1
 10
5.982
 20
4.549
 11
5.319
 21
4.535
  0
LINE
  8
PEN1
 10
2.366
 20
6.465
 11
2.366
 21
6.465
  0
LINE
  8
PEN1
 10
2.366
 20
6.465
 11
2.396
 21
6.39
  0
LINE
  8
PEN1
 10
2.396
 20
6.39
 11
2.399
 21
6.343
  0
LINE
  8
PEN1
 10
2.399
 20
6.343
 11
2.383
 21
6.335
  0
LINE
  8
PEN1
 10
2.383
 20
6.335
 11
2.436
 21
6.284
  0
LINE
  8
PEN1
 10
2.436
 20
6.284
 11
2.49
 21
6.151
  0
LINE
  8
PEN1
 10
2.49
 20
6.151
 11
2.509
 21
6.156
  0
LINE
  8
PEN1
 10
2.509
 20
6.156
 11
2.511
 21
6.136
  0
LINE
  8
PEN1
 10
2.511
 20
6.136
 11
2.537
 21
6.129
  0
LINE
  8
PEN1
 10
2.537
 20
6.129
 11
2.556
 21
6.126
  0
LINE
  8
PEN1
 10
2.556
 20
6.126
 11
2.508
 21
6.029
  0
LINE
  8
PEN1
 10
2.508
 20
6.029
 11
2.516
 21
5.965
  0
LINE
  8
PEN1
 10
2.516
 20
5.965
 11
2.477
 21
5.903
  0
LINE
  8
PEN1
 10
2.477
 20
5.903
 11
2.504
 21
5.875
  0
LINE
  8
PEN1
 10
2.504
 20
5.875
 11
2.574
 21
5.914
  0
LINE
  8
PEN1
 10
2.574
 20
5.914
 11
2.624
 21
5.703
  0
LINE
  8
PEN1
 10
2.624
 20
5.703
 11
2.656
 21
5.692
  0
LINE
  8
PEN1
 10
2.656
 20
5.692
 11
2.662
 21
5.628
  0
LINE
  8
PEN1
 10
2.662
 20
5.628
 11
2.689
 21
5.601
  0
LINE
  8
PEN1
 10
2.689
 20
5.601
 11
2.708
 21
5.625
  0
LINE
  8
PEN1
 10
2.708
 20
5.625
 11
2.754
 21
5.604
  0
LINE
  8
PEN1
 10
2.754
 20
5.604
 11
2.783
 21
5.627
  0
LINE
  8
PEN1
 10
2.783
 20
5.627
 11
2.877
 21
5.608
  0
LINE
  8
PEN1
 10
2.877
 20
5.608
 11
2.9
 21
5.603
  0
LINE
  8
PEN1
 10
2.9
 20
5.603
 11
2.921
 21
5.645
  0
LINE
  8
PEN1
 10
2.921
 20
5.645
 11
2.961
 21
5.577
  0
LINE
  8
PEN1
 10
2.961
 20
5.577
 11
2.98
 21
5.685
  0
LINE
  8
PEN1
 10
2.98
 20
5.685
 11
3.458
 21
5.614
  0
LINE
  8
PEN1
 10
3.458
 20
5.614
 11
4.047
 21
5.552
  0
LINE
  8
PEN1
 10
4.047
 20
5.552
 11
4.066
 21
5.754
  0
LINE
  8
PEN1
 10
4.066
 20
5.754
 11
4.125
 21
6.411
  0
LINE
  8
PEN1
 10
4.125
 20
6.411
 11
3.346
 21
6.503
  0
LINE
  8
PEN1
 10
3.346
 20
6.503
 11
2.957
 21
6.566
  0
LINE
  8
PEN1
 10
2.957
 20
6.566
 11
2.412
 21
6.674
  0
LINE
  8
PEN1
 10
2.412
 20
6.674
 11
2.366
 21
6.465
  0
LINE
  8
PEN1
 10
3.967
 20
4.684
 11
3.967
 21
4.684
  0
LINE
  8
PEN1
 10
3.967
 20
4.684
 11
4.007
 21
5.119
  0
LINE
  8
PEN1
 10
4.007
 20
5.119
 11
4.883
 21
5.065
  0
LINE
  8
PEN1
 10
4.883
 20
5.065
 11
4.942
 21
5.02
  0
LINE
  8
PEN1
 10
4.942
 20
5.02
 11
5.047
 21
5.025
  0
LINE
  8
PEN1
 10
5.047
 20
5.025
 11
5.096
 21
5.013
  0
LINE
  8
PEN1
 10
5.096
 20
5.013
 11
5.154
 21
4.988
  0
LINE
  8
PEN1
 10
5.154
 20
4.988
 11
5.184
 21
4.951
  0
LINE
  8
PEN1
 10
5.184
 20
4.951
 11
5.211
 21
4.943
  0
LINE
  8
PEN1
 10
5.211
 20
4.943
 11
5.259
 21
4.808
  0
LINE
  8
PEN1
 10
5.259
 20
4.808
 11
5.26
 21
4.766
  0
LINE
  8
PEN1
 10
5.26
 20
4.766
 11
5.292
 21
4.704
  0
LINE
  8
PEN1
 10
5.292
 20
4.704
 11
5.307
 21
4.6
  0
LINE
  8
PEN1
 10
5.307
 20
4.6
 11
5.3
 21
4.569
  0
LINE
  8
PEN1
 10
5.3
 20
4.569
 11
5.319
 21
4.535
  0
LINE
  8
PEN1
 10
5.319
 20
4.535
 11
5.388
 21
4.406
  0
LINE
  8
PEN1
 10
5.388
 20
4.406
 11
4.755
 21
4.413
  0
LINE
  8
PEN1
 10
4.755
 20
4.413
 11
4.278
 21
4.441
  0
LINE
  8
PEN1
 10
4.278
 20
4.441
 11
4.292
 21
4.657
  0
LINE
  8
PEN1
 10
4.292
 20
4.657
 11
3.967
 21
4.684
  0
LINE
  8
PEN1
 10
1.305
 20
4.724
 11
1.305
 21
4.724
  0
LINE
  8
PEN1
 10
1.305
 20
4.724
 11
1.355
 21
4.626
  0
LINE
  8
PEN1
 10
1.355
 20
4.626
 11
2.002
 21
3.651
  0
LINE
  8
PEN1
 10
2.002
 20
3.651
 11
2.027
 21
3.878
  0
LINE
  8
PEN1
 10
2.027
 20
3.878
 11
2.066
 21
3.891
  0
LINE
  8
PEN1
 10
2.066
 20
3.891
 11
2.132
 21
3.852
  0
LINE
  8
PEN1
 10
2.132
 20
3.852
 11
2.189
 21
4.054
  0
LINE
  8
PEN1
 10
2.189
 20
4.054
 11
2.401
 21
5.129
  0
LINE
  8
PEN1
 10
2.401
 20
5.129
 11
1.933
 21
5.231
  0
LINE
  8
PEN1
 10
1.933
 20
5.231
 11
1.468
 21
5.347
  0
LINE
  8
PEN1
 10
1.468
 20
5.347
 11
1.305
 21
4.724
  0
LINE
  8
PEN1
 10
8.958
 20
5.626
 11
8.958
 21
5.626
  0
LINE
  8
PEN1
 10
8.958
 20
5.626
 11
8.974
 21
5.758
  0
LINE
  8
PEN1
 10
8.974
 20
5.758
 11
9.006
 21
5.819
  0
LINE
  8
PEN1
 10
9.006
 20
5.819
 11
9.009
 21
5.958
  0
LINE
  8
PEN1
 10
9.009
 20
5.958
 11
9.008
 21
6.01
  0
LINE
  8
PEN1
 10
9.008
 20
6.01
 11
9.057
 21
6.038
  0
LINE
  8
PEN1
 10
9.057
 20
6.038
 11
9.174
 21
5.664
  0
LINE
  8
PEN1
 10
9.174
 20
5.664
 11
9.232
 21
5.582
  0
LINE
  8
PEN1
 10
9.232
 20
5.582
 11
9.237
 21
5.565
  0
LINE
  8
PEN1
 10
9.237
 20
5.565
 11
9.229
 21
5.53
  0
LINE
  8
PEN1
 10
9.229
 20
5.53
 11
9.175
 21
5.488
  0
LINE
  8
PEN1
 10
9.175
 20
5.488
 11
8.984
 21
5.439
  0
LINE
  8
PEN1
 10
8.984
 20
5.439
 11
8.958
 21
5.626
  0
LINE
  8
PEN1
 10
8.651
 20
4.678
 11
8.651
 21
4.678
  0
LINE
  8
PEN1
 10
8.651
 20
4.678
 11
8.663
 21
4.709
  0
LINE
  8
PEN1
 10
8.663
 20
4.709
 11
8.702
 21
4.735
  0
LINE
  8
PEN1
 10
8.702
 20
4.735
 11
8.723
 21
4.778
  0
LINE
  8
PEN1
 10
8.723
 20
4.778
 11
8.756
 21
4.81
  0
LINE
  8
PEN1
 10
8.756
 20
4.81
 11
8.659
 21
4.89
  0
LINE
  8
PEN1
 10
8.659
 20
4.89
 11
8.656
 21
4.966
  0
LINE
  8
PEN1
 10
8.656
 20
4.966
 11
8.701
 21
5.067
  0
LINE
  8
PEN1
 10
8.701
 20
5.067
 11
8.849
 21
5.017
  0
LINE
  8
PEN1
 10
8.849
 20
5.017
 11
8.851
 21
4.997
  0
LINE
  8
PEN1
 10
8.851
 20
4.997
 11
8.834
 21
4.939
  0
LINE
  8
PEN1
 10
8.834
 20
4.939
 11
8.817
 21
4.924
  0
LINE
  8
PEN1
 10
8.817
 20
4.924
 11
8.814
 21
4.895
  0
LINE
  8
PEN1
 10
8.814
 20
4.895
 11
8.83
 21
4.887
  0
LINE
  8
PEN1
 10
8.83
 20
4.887
 11
8.846
 21
4.89
  0
LINE
  8
PEN1
 10
8.846
 20
4.89
 11
8.861
 21
4.888
  0
LINE
  8
PEN1
 10
8.861
 20
4.888
 11
8.858
 21
4.901
  0
LINE
  8
PEN1
 10
8.858
 20
4.901
 11
8.865
 21
4.895
  0
LINE
  8
PEN1
 10
8.865
 20
4.895
 11
8.876
 21
4.86
  0
LINE
  8
PEN1
 10
8.876
 20
4.86
 11
8.879
 21
4.751
  0
LINE
  8
PEN1
 10
8.879
 20
4.751
 11
8.875
 21
4.779
  0
LINE
  8
PEN1
 10
8.875
 20
4.779
 11
8.866
 21
4.805
  0
LINE
  8
PEN1
 10
8.866
 20
4.805
 11
8.864
 21
4.79
  0
LINE
  8
PEN1
 10
8.864
 20
4.79
 11
8.869
 21
4.765
  0
LINE
  8
PEN1
 10
8.869
 20
4.765
 11
8.864
 21
4.751
  0
LINE
  8
PEN1
 10
8.864
 20
4.751
 11
8.866
 21
4.721
  0
LINE
  8
PEN1
 10
8.866
 20
4.721
 11
8.854
 21
4.69
  0
LINE
  8
PEN1
 10
8.854
 20
4.69
 11
8.841
 21
4.689
  0
LINE
  8
PEN1
 10
8.841
 20
4.689
 11
8.846
 21
4.664
  0
LINE
  8
PEN1
 10
8.846
 20
4.664
 11
8.823
 21
4.627
  0
LINE
  8
PEN1
 10
8.823
 20
4.627
 11
8.792
 21
4.542
  0
LINE
  8
PEN1
 10
8.792
 20
4.542
 11
8.777
 21
4.541
  0
LINE
  8
PEN1
 10
8.777
 20
4.541
 11
8.782
 21
4.574
  0
LINE
  8
PEN1
 10
8.782
 20
4.574
 11
8.773
 21
4.59
  0
LINE
  8
PEN1
 10
8.773
 20
4.59
 11
8.735
 21
4.587
  0
LINE
  8
PEN1
 10
8.735
 20
4.587
 11
8.68
 21
4.622
  0
LINE
  8
PEN1
 10
8.68
 20
4.622
 11
8.661
 21
4.636
  0
LINE
  8
PEN1
 10
8.661
 20
4.636
 11
8.651
 21
4.678
  0
LINE
  8
PEN1
 10
2.859
 20
2.691
 11
2.859
 21
2.691
  0
LINE
  8
PEN1
 10
2.859
 20
2.691
 11
3.01
 21
2.67
  0
LINE
  8
PEN1
 10
3.01
 20
2.67
 11
3.025
 21
2.763
  0
LINE
  8
PEN1
 10
3.025
 20
2.763
 11
3.331
 21
2.724
  0
LINE
  8
PEN1
 10
3.331
 20
2.724
 11
3.317
 21
2.769
  0
LINE
  8
PEN1
 10
3.317
 20
2.769
 11
3.365
 21
2.765
  0
LINE
  8
PEN1
 10
3.365
 20
2.765
 11
3.971
 21
2.707
  0
LINE
  8
PEN1
 10
3.971
 20
2.707
 11
4.061
 21
3.682
  0
LINE
  8
PEN1
 10
4.061
 20
3.682
 11
4.07
 21
3.796
  0
LINE
  8
PEN1
 10
4.07
 20
3.796
 11
3.555
 21
3.841
  0
LINE
  8
PEN1
 10
3.555
 20
3.841
 11
3.037
 21
3.909
  0
LINE
  8
PEN1
 10
3.037
 20
3.909
 11
2.859
 21
2.691
  0
LINE
  8
PEN1
 10
7.867
 20
5.104
 11
7.867
 21
5.104
  0
LINE
  8
PEN1
 10
7.867
 20
5.104
 11
7.9
 21
5.052
  0
LINE
  8
PEN1
 10
7.9
 20
5.052
 11
8.564
 21
5.179
  0
LINE
  8
PEN1
 10
8.564
 20
5.179
 11
8.61
 21
5.155
  0
LINE
  8
PEN1
 10
8.61
 20
5.155
 11
8.636
 21
5.104
  0
LINE
  8
PEN1
 10
8.636
 20
5.104
 11
8.701
 21
5.067
  0
LINE
  8
PEN1
 10
8.701
 20
5.067
 11
8.849
 21
5.017
  0
LINE
  8
PEN1
 10
8.849
 20
5.017
 11
8.851
 21
4.997
  0
LINE
  8
PEN1
 10
8.851
 20
4.997
 11
8.86
 21
4.977
  0
LINE
  8
PEN1
 10
8.86
 20
4.977
 11
8.87
 21
4.989
  0
LINE
  8
PEN1
 10
8.87
 20
4.989
 11
8.884
 21
5.032
  0
LINE
  8
PEN1
 10
8.884
 20
5.032
 11
8.885
 21
5.109
  0
LINE
  8
PEN1
 10
8.885
 20
5.109
 11
8.86
 21
5.256
  0
LINE
  8
PEN1
 10
8.86
 20
5.256
 11
8.859
 21
5.412
  0
LINE
  8
PEN1
 10
8.859
 20
5.412
 11
8.832
 21
5.533
  0
LINE
  8
PEN1
 10
8.832
 20
5.533
 11
8.788
 21
5.634
  0
LINE
  8
PEN1
 10
8.788
 20
5.634
 11
8.775
 21
5.734
  0
LINE
  8
PEN1
 10
8.775
 20
5.734
 11
8.733
 21
5.889
  0
LINE
  8
PEN1
 10
8.733
 20
5.889
 11
8.529
 21
5.838
  0
LINE
  8
PEN1
 10
8.529
 20
5.838
 11
8.515
 21
5.84
  0
LINE
  8
PEN1
 10
8.515
 20
5.84
 11
8.451
 21
5.79
  0
LINE
  8
PEN1
 10
8.451
 20
5.79
 11
8.395
 21
5.708
  0
LINE
  8
PEN1
 10
8.395
 20
5.708
 11
8.39
 21
5.674
  0
LINE
  8
PEN1
 10
8.39
 20
5.674
 11
8.364
 21
5.638
  0
LINE
  8
PEN1
 10
8.364
 20
5.638
 11
8.32
 21
5.597
  0
LINE
  8
PEN1
 10
8.32
 20
5.597
 11
8.339
 21
5.568
  0
LINE
  8
PEN1
 10
8.339
 20
5.568
 11
8.344
 21
5.589
  0
LINE
  8
PEN1
 10
8.344
 20
5.589
 11
8.358
 21
5.583
  0
LINE
  8
PEN1
 10
8.358
 20
5.583
 11
8.35
 21
5.573
  0
LINE
  8
PEN1
 10
8.35
 20
5.573
 11
8.36
 21
5.568
  0
LINE
  8
PEN1
 10
8.36
 20
5.568
 11
8.352
 21
5.548
  0
LINE
  8
PEN1
 10
8.352
 20
5.548
 11
8.344
 21
5.55
  0
LINE
  8
PEN1
 10
8.344
 20
5.55
 11
8.342
 21
5.541
  0
LINE
  8
PEN1
 10
8.342
 20
5.541
 11
8.363
 21
5.511
  0
LINE
  8
PEN1
 10
8.363
 20
5.511
 11
8.365
 21
5.485
  0
LINE
  8
PEN1
 10
8.365
 20
5.485
 11
8.333
 21
5.47
  0
LINE
  8
PEN1
 10
8.333
 20
5.47
 11
8.3
 21
5.42
  0
LINE
  8
PEN1
 10
8.3
 20
5.42
 11
8.264
 21
5.396
  0
LINE
  8
PEN1
 10
8.264
 20
5.396
 11
8.201
 21
5.391
  0
LINE
  8
PEN1
 10
8.201
 20
5.391
 11
8.178
 21
5.373
  0
LINE
  8
PEN1
 10
8.178
 20
5.373
 11
8.14
 21
5.39
  0
LINE
  8
PEN1
 10
8.14
 20
5.39
 11
8.03
 21
5.376
  0
LINE
  8
PEN1
 10
8.03
 20
5.376
 11
7.948
 21
5.343
  0
LINE
  8
PEN1
 10
7.948
 20
5.343
 11
7.952
 21
5.315
  0
LINE
  8
PEN1
 10
7.952
 20
5.315
 11
7.948
 21
5.301
  0
LINE
  8
PEN1
 10
7.948
 20
5.301
 11
7.953
 21
5.3
  0
LINE
  8
PEN1
 10
7.953
 20
5.3
 11
7.966
 21
5.273
  0
LINE
  8
PEN1
 10
7.966
 20
5.273
 11
7.978
 21
5.274
  0
LINE
  8
PEN1
 10
7.978
 20
5.274
 11
7.99
 21
5.246
  0
LINE
  8
PEN1
 10
7.99
 20
5.246
 11
7.989
 21
5.236
  0
LINE
  8
PEN1
 10
7.989
 20
5.236
 11
7.967
 21
5.221
  0
LINE
  8
PEN1
 10
7.967
 20
5.221
 11
7.957
 21
5.189
  0
LINE
  8
PEN1
 10
7.957
 20
5.189
 11
7.867
 21
5.104
  0
LINE
  8
PEN1
 10
8.814
 20
4.895
 11
8.814
 21
4.895
  0
LINE
  8
PEN1
 10
8.814
 20
4.895
 11
8.817
 21
4.924
  0
LINE
  8
PEN1
 10
8.817
 20
4.924
 11
8.834
 21
4.939
  0
LINE
  8
PEN1
 10
8.834
 20
4.939
 11
8.843
 21
4.93
  0
LINE
  8
PEN1
 10
8.843
 20
4.93
 11
8.827
 21
4.904
  0
LINE
  8
PEN1
 10
8.827
 20
4.904
 11
8.814
 21
4.895
  0
LINE
  8
PEN1
 10
8.846
 20
4.942
 11
8.846
 21
4.942
  0
LINE
  8
PEN1
 10
8.846
 20
4.942
 11
8.853
 21
4.926
  0
LINE
  8
PEN1
 10
8.853
 20
4.926
 11
8.861
 21
4.925
  0
LINE
  8
PEN1
 10
8.861
 20
4.925
 11
8.872
 21
4.941
  0
LINE
  8
PEN1
 10
8.872
 20
4.941
 11
8.883
 21
4.945
  0
LINE
  8
PEN1
 10
8.883
 20
4.945
 11
8.887
 21
4.94
  0
LINE
  8
PEN1
 10
8.887
 20
4.94
 11
8.869
 21
4.923
  0
LINE
  8
PEN1
 10
8.869
 20
4.923
 11
8.899
 21
4.935
  0
LINE
  8
PEN1
 10
8.899
 20
4.935
 11
8.902
 21
4.943
  0
LINE
  8
PEN1
 10
8.902
 20
4.943
 11
8.945
 21
4.962
  0
LINE
  8
PEN1
 10
8.945
 20
4.962
 11
8.981
 21
4.988
  0
LINE
  8
PEN1
 10
8.981
 20
4.988
 11
9.022
 21
5.004
  0
LINE
  8
PEN1
 10
9.022
 20
5.004
 11
9.056
 21
5.025
  0
LINE
  8
PEN1
 10
9.056
 20
5.025
 11
9.054
 21
5.02
  0
LINE
  8
PEN1
 10
9.054
 20
5.02
 11
8.988
 21
4.971
  0
LINE
  8
PEN1
 10
8.988
 20
4.971
 11
8.976
 21
4.967
  0
LINE
  8
PEN1
 10
8.976
 20
4.967
 11
8.985
 21
4.964
  0
LINE
  8
PEN1
 10
8.985
 20
4.964
 11
9.002
 21
4.975
  0
LINE
  8
PEN1
 10
9.002
 20
4.975
 11
9.102
 21
5.048
  0
LINE
  8
PEN1
 10
9.102
 20
5.048
 11
9.116
 21
5.063
  0
LINE
  8
PEN1
 10
9.116
 20
5.063
 11
9.163
 21
5.101
  0
LINE
  8
PEN1
 10
9.163
 20
5.101
 11
9.166
 21
5.111
  0
LINE
  8
PEN1
 10
9.166
 20
5.111
 11
9.157
 21
5.11
  0
LINE
  8
PEN1
 10
9.157
 20
5.11
 11
9.134
 21
5.088
  0
LINE
  8
PEN1
 10
9.134
 20
5.088
 11
9.122
 21
5.093
  0
LINE
  8
PEN1
 10
9.122
 20
5.093
 11
9.101
 21
5.079
  0
LINE
  8
PEN1
 10
9.101
 20
5.079
 11
9.096
 21
5.083
  0
LINE
  8
PEN1
 10
9.096
 20
5.083
 11
9.077
 21
5.04
  0
LINE
  8
PEN1
 10
9.077
 20
5.04
 11
9.07
 21
5.048
  0
LINE
  8
PEN1
 10
9.07
 20
5.048
 11
9.054
 21
5.048
  0
LINE
  8
PEN1
 10
9.054
 20
5.048
 11
9.083
 21
5.081
  0
LINE
  8
PEN1
 10
9.083
 20
5.081
 11
9.079
 21
5.089
  0
LINE
  8
PEN1
 10
9.079
 20
5.089
 11
9.101
 21
5.113
  0
LINE
  8
PEN1
 10
9.101
 20
5.113
 11
9.093
 21
5.112
  0
LINE
  8
PEN1
 10
9.093
 20
5.112
 11
9.05
 21
5.064
  0
LINE
  8
PEN1
 10
9.05
 20
5.064
 11
8.999
 21
5.044
  0
LINE
  8
PEN1
 10
8.999
 20
5.044
 11
8.972
 21
5.041
  0
LINE
  8
PEN1
 10
8.972
 20
5.041
 11
8.967
 21
5.029
  0
LINE
  8
PEN1
 10
8.967
 20
5.029
 11
8.934
 21
5.018
  0
LINE
  8
PEN1
 10
8.934
 20
5.018
 11
8.921
 21
5.021
  0
LINE
  8
PEN1
 10
8.921
 20
5.021
 11
8.921
 21
5.011
  0
LINE
  8
PEN1
 10
8.921
 20
5.011
 11
8.907
 21
5.011
  0
LINE
  8
PEN1
 10
8.907
 20
5.011
 11
8.898
 21
5.003
  0
LINE
  8
PEN1
 10
8.898
 20
5.003
 11
8.895
 21
4.988
  0
LINE
  8
PEN1
 10
8.895
 20
4.988
 11
8.888
 21
4.993
  0
LINE
  8
PEN1
 10
8.888
 20
4.993
 11
8.882
 21
4.976
  0
LINE
  8
PEN1
 10
8.882
 20
4.976
 11
8.859
 21
4.969
  0
LINE
  8
PEN1
 10
8.859
 20
4.969
 11
8.856
 21
4.957
  0
LINE
  8
PEN1
 10
8.856
 20
4.957
 11
8.846
 21
4.942
  0
LINE
  8
PEN1
 10
7.331
 20
3.472
 11
7.331
 21
3.472
  0
LINE
  8
PEN1
 10
7.331
 20
3.472
 11
7.332
 21
3.423
  0
LINE
  8
PEN1
 10
7.332
 20
3.423
 11
7.544
 21
3.448
  0
LINE
  8
PEN1
 10
7.544
 20
3.448
 11
7.669
 21
3.51
  0
LINE
  8
PEN1
 10
7.669
 20
3.51
 11
7.903
 21
3.537
  0
LINE
  8
PEN1
 10
7.903
 20
3.537
 11
8.0
 21
3.475
  0
LINE
  8
PEN1
 10
8.0
 20
3.475
 11
8.151
 21
3.497
  0
LINE
  8
PEN1
 10
8.151
 20
3.497
 11
8.382
 21
3.331
  0
LINE
  8
PEN1
 10
8.382
 20
3.331
 11
8.413
 21
3.35
  0
LINE
  8
PEN1
 10
8.413
 20
3.35
 11
8.471
 21
3.353
  0
LINE
  8
PEN1
 10
8.471
 20
3.353
 11
8.483
 21
3.397
  0
LINE
  8
PEN1
 10
8.483
 20
3.397
 11
8.494
 21
3.373
  0
LINE
  8
PEN1
 10
8.494
 20
3.373
 11
8.509
 21
3.449
  0
LINE
  8
PEN1
 10
8.509
 20
3.449
 11
8.54
 21
3.491
  0
LINE
  8
PEN1
 10
8.54
 20
3.491
 11
8.568
 21
3.512
  0
LINE
  8
PEN1
 10
8.568
 20
3.512
 11
8.553
 21
3.521
  0
LINE
  8
PEN1
 10
8.553
 20
3.521
 11
8.558
 21
3.538
  0
LINE
  8
PEN1
 10
8.558
 20
3.538
 11
8.544
 21
3.556
  0
LINE
  8
PEN1
 10
8.544
 20
3.556
 11
8.566
 21
3.536
  0
LINE
  8
PEN1
 10
8.566
 20
3.536
 11
8.561
 21
3.528
  0
LINE
  8
PEN1
 10
8.561
 20
3.528
 11
8.576
 21
3.52
  0
LINE
  8
PEN1
 10
8.576
 20
3.52
 11
8.592
 21
3.539
  0
LINE
  8
PEN1
 10
8.592
 20
3.539
 11
8.6
 21
3.542
  0
LINE
  8
PEN1
 10
8.6
 20
3.542
 11
8.593
 21
3.571
  0
LINE
  8
PEN1
 10
8.593
 20
3.571
 11
8.6
 21
3.572
  0
LINE
  8
PEN1
 10
8.6
 20
3.572
 11
8.611
 21
3.554
  0
LINE
  8
PEN1
 10
8.611
 20
3.554
 11
8.663
 21
3.582
  0
LINE
  8
PEN1
 10
8.663
 20
3.582
 11
8.705
 21
3.583
  0
LINE
  8
PEN1
 10
8.705
 20
3.583
 11
8.735
 21
3.638
  0
LINE
  8
PEN1
 10
8.735
 20
3.638
 11
8.725
 21
3.652
  0
LINE
  8
PEN1
 10
8.725
 20
3.652
 11
8.708
 21
3.632
  0
LINE
  8
PEN1
 10
8.708
 20
3.632
 11
8.702
 21
3.658
  0
LINE
  8
PEN1
 10
8.702
 20
3.658
 11
8.684
 21
3.64
  0
LINE
  8
PEN1
 10
8.684
 20
3.64
 11
8.692
 21
3.625
  0
LINE
  8
PEN1
 10
8.692
 20
3.625
 11
8.674
 21
3.633
  0
LINE
  8
PEN1
 10
8.674
 20
3.633
 11
8.671
 21
3.617
  0
LINE
  8
PEN1
 10
8.671
 20
3.617
 11
8.623
 21
3.619
  0
LINE
  8
PEN1
 10
8.623
 20
3.619
 11
8.59
 21
3.642
  0
LINE
  8
PEN1
 10
8.59
 20
3.642
 11
8.592
 21
3.656
  0
LINE
  8
PEN1
 10
8.592
 20
3.656
 11
8.643
 21
3.627
  0
LINE
  8
PEN1
 10
8.643
 20
3.627
 11
8.684
 21
3.671
  0
LINE
  8
PEN1
 10
8.684
 20
3.671
 11
8.663
 21
3.674
  0
LINE
  8
PEN1
 10
8.663
 20
3.674
 11
8.686
 21
3.707
  0
LINE
  8
PEN1
 10
8.686
 20
3.707
 11
8.661
 21
3.7
  0
LINE
  8
PEN1
 10
8.661
 20
3.7
 11
8.584
 21
3.729
  0
LINE
  8
PEN1
 10
8.584
 20
3.729
 11
8.622
 21
3.736
  0
LINE
  8
PEN1
 10
8.622
 20
3.736
 11
8.659
 21
3.722
  0
LINE
  8
PEN1
 10
8.659
 20
3.722
 11
8.661
 21
3.73
  0
LINE
  8
PEN1
 10
8.661
 20
3.73
 11
8.643
 21
3.751
  0
LINE
  8
PEN1
 10
8.643
 20
3.751
 11
8.658
 21
3.751
  0
LINE
  8
PEN1
 10
8.658
 20
3.751
 11
8.681
 21
3.762
  0
LINE
  8
PEN1
 10
8.681
 20
3.762
 11
8.667
 21
3.744
  0
LINE
  8
PEN1
 10
8.667
 20
3.744
 11
8.676
 21
3.724
  0
LINE
  8
PEN1
 10
8.676
 20
3.724
 11
8.694
 21
3.74
  0
LINE
  8
PEN1
 10
8.694
 20
3.74
 11
8.704
 21
3.722
  0
LINE
  8
PEN1
 10
8.704
 20
3.722
 11
8.721
 21
3.724
  0
LINE
  8
PEN1
 10
8.721
 20
3.724
 11
8.742
 21
3.726
  0
LINE
  8
PEN1
 10
8.742
 20
3.726
 11
8.763
 21
3.751
  0
LINE
  8
PEN1
 10
8.763
 20
3.751
 11
8.776
 21
3.793
  0
LINE
  8
PEN1
 10
8.776
 20
3.793
 11
8.8
 21
3.798
  0
LINE
  8
PEN1
 10
8.8
 20
3.798
 11
8.8
 21
3.819
  0
LINE
  8
PEN1
 10
8.8
 20
3.819
 11
8.784
 21
3.857
  0
LINE
  8
PEN1
 10
8.784
 20
3.857
 11
8.762
 21
3.857
  0
LINE
  8
PEN1
 10
8.762
 20
3.857
 11
8.739
 21
3.798
  0
LINE
  8
PEN1
 10
8.739
 20
3.798
 11
8.73
 21
3.828
  0
LINE
  8
PEN1
 10
8.73
 20
3.828
 11
8.725
 21
3.867
  0
LINE
  8
PEN1
 10
8.725
 20
3.867
 11
8.677
 21
3.844
  0
LINE
  8
PEN1
 10
8.677
 20
3.844
 11
8.617
 21
3.831
  0
LINE
  8
PEN1
 10
8.617
 20
3.831
 11
8.623
 21
3.859
  0
LINE
  8
PEN1
 10
8.623
 20
3.859
 11
8.656
 21
3.876
  0
LINE
  8
PEN1
 10
8.656
 20
3.876
 11
8.72
 21
3.902
  0
LINE
  8
PEN1
 10
8.72
 20
3.902
 11
8.697
 21
3.932
  0
LINE
  8
PEN1
 10
8.697
 20
3.932
 11
8.74
 21
3.911
  0
LINE
  8
PEN1
 10
8.74
 20
3.911
 11
8.727
 21
3.938
  0
LINE
  8
PEN1
 10
8.727
 20
3.938
 11
8.767
 21
3.902
  0
LINE
  8
PEN1
 10
8.767
 20
3.902
 11
8.736
 21
3.963
  0
LINE
  8
PEN1
 10
8.736
 20
3.963
 11
8.706
 21
3.989
  0
LINE
  8
PEN1
 10
8.706
 20
3.989
 11
8.182
 21
3.887
  0
LINE
  8
PEN1
 10
8.182
 20
3.887
 11
7.75
 21
3.831
  0
LINE
  8
PEN1
 10
7.75
 20
3.831
 11
7.743
 21
3.783
  0
LINE
  8
PEN1
 10
7.743
 20
3.783
 11
7.72
 21
3.767
  0
LINE
  8
PEN1
 10
7.72
 20
3.767
 11
7.69
 21
3.713
  0
LINE
  8
PEN1
 10
7.69
 20
3.713
 11
7.666
 21
3.717
  0
LINE
  8
PEN1
 10
7.666
 20
3.717
 11
7.639
 21
3.702
  0
LINE
  8
PEN1
 10
7.639
 20
3.702
 11
7.621
 21
3.675
  0
LINE
  8
PEN1
 10
7.621
 20
3.675
 11
7.595
 21
3.692
  0
LINE
  8
PEN1
 10
7.595
 20
3.692
 11
7.556
 21
3.658
  0
LINE
  8
PEN1
 10
7.556
 20
3.658
 11
7.551
 21
3.63
  0
LINE
  8
PEN1
 10
7.551
 20
3.63
 11
7.385
 21
3.531
  0
LINE
  8
PEN1
 10
7.385
 20
3.531
 11
7.375
 21
3.493
  0
LINE
  8
PEN1
 10
7.375
 20
3.493
 11
7.331
 21
3.472
  0
LINE
  8
PEN1
 10
4.066
 20
5.754
 11
4.066
 21
5.754
  0
LINE
  8
PEN1
 10
4.066
 20
5.754
 11
4.125
 21
6.411
  0
LINE
  8
PEN1
 10
4.125
 20
6.411
 11
4.683
 21
6.372
  0
LINE
  8
PEN1
 10
4.683
 20
6.372
 11
5.111
 21
6.358
  0
LINE
  8
PEN1
 10
5.111
 20
6.358
 11
5.119
 21
6.179
  0
LINE
  8
PEN1
 10
5.119
 20
6.179
 11
5.163
 21
6.034
  0
LINE
  8
PEN1
 10
5.163
 20
6.034
 11
5.169
 21
5.847
  0
LINE
  8
PEN1
 10
5.169
 20
5.847
 11
5.2
 21
5.696
  0
LINE
  8
PEN1
 10
5.2
 20
5.696
 11
4.603
 21
5.715
  0
LINE
  8
PEN1
 10
4.603
 20
5.715
 11
4.066
 21
5.754
  0
LINE
  8
PEN1
 10
7.083
 20
4.873
 11
7.083
 21
4.873
  0
LINE
  8
PEN1
 10
7.083
 20
4.873
 11
7.143
 21
4.308
  0
LINE
  8
PEN1
 10
7.143
 20
4.308
 11
7.195
 21
4.311
  0
LINE
  8
PEN1
 10
7.195
 20
4.311
 11
7.23
 21
4.298
  0
LINE
  8
PEN1
 10
7.23
 20
4.298
 11
7.249
 21
4.26
  0
LINE
  8
PEN1
 10
7.249
 20
4.26
 11
7.305
 21
4.251
  0
LINE
  8
PEN1
 10
7.305
 20
4.251
 11
7.34
 21
4.232
  0
LINE
  8
PEN1
 10
7.34
 20
4.232
 11
7.417
 21
4.236
  0
LINE
  8
PEN1
 10
7.417
 20
4.236
 11
7.454
 21
4.26
  0
LINE
  8
PEN1
 10
7.454
 20
4.26
 11
7.537
 21
4.206
  0
LINE
  8
PEN1
 10
7.537
 20
4.206
 11
7.591
 21
4.252
  0
LINE
  8
PEN1
 10
7.591
 20
4.252
 11
7.601
 21
4.341
  0
LINE
  8
PEN1
 10
7.601
 20
4.341
 11
7.635
 21
4.322
  0
LINE
  8
PEN1
 10
7.635
 20
4.322
 11
7.652
 21
4.398
  0
LINE
  8
PEN1
 10
7.652
 20
4.398
 11
7.743
 21
4.465
  0
LINE
  8
PEN1
 10
7.743
 20
4.465
 11
7.773
 21
4.504
  0
LINE
  8
PEN1
 10
7.773
 20
4.504
 11
7.794
 21
4.682
  0
LINE
  8
PEN1
 10
7.794
 20
4.682
 11
7.78
 21
4.719
  0
LINE
  8
PEN1
 10
7.78
 20
4.719
 11
7.804
 21
4.736
  0
LINE
  8
PEN1
 10
7.804
 20
4.736
 11
7.756
 21
5.021
  0
LINE
  8
PEN1
 10
7.756
 20
5.021
 11
7.685
 21
4.986
  0
LINE
  8
PEN1
 10
7.685
 20
4.986
 11
7.635
 21
4.957
  0
LINE
  8
PEN1
 10
7.635
 20
4.957
 11
7.615
 21
4.927
  0
LINE
  8
PEN1
 10
7.615
 20
4.927
 11
7.573
 21
4.889
  0
LINE
  8
PEN1
 10
7.573
 20
4.889
 11
7.528
 21
4.885
  0
LINE
  8
PEN1
 10
7.528
 20
4.885
 11
7.483
 21
4.863
  0
LINE
  8
PEN1
 10
7.483
 20
4.863
 11
7.46
 21
4.85
  0
LINE
  8
PEN1
 10
7.46
 20
4.85
 11
7.43
 21
4.867
  0
LINE
  8
PEN1
 10
7.43
 20
4.867
 11
7.389
 21
4.848
  0
LINE
  8
PEN1
 10
7.389
 20
4.848
 11
7.382
 21
4.856
  0
LINE
  8
PEN1
 10
7.382
 20
4.856
 11
7.421
 21
4.878
  0
LINE
  8
PEN1
 10
7.421
 20
4.878
 11
7.419
 21
4.88
  0
LINE
  8
PEN1
 10
7.419
 20
4.88
 11
7.399
 21
4.886
  0
LINE
  8
PEN1
 10
7.399
 20
4.886
 11
7.385
 21
4.872
  0
LINE
  8
PEN1
 10
7.385
 20
4.872
 11
7.319
 21
4.902
  0
LINE
  8
PEN1
 10
7.319
 20
4.902
 11
7.293
 21
4.889
  0
LINE
  8
PEN1
 10
7.293
 20
4.889
 11
7.298
 21
4.907
  0
LINE
  8
PEN1
 10
7.298
 20
4.907
 11
7.083
 21
4.873
  0
LINE
  8
PEN1
 10
4.061
 20
3.682
 11
4.061
 21
3.682
  0
LINE
  8
PEN1
 10
4.061
 20
3.682
 11
4.07
 21
3.796
  0
LINE
  8
PEN1
 10
4.07
 20
3.796
 11
4.234
 21
3.784
  0
LINE
  8
PEN1
 10
4.234
 20
3.784
 11
4.963
 21
3.749
  0
LINE
  8
PEN1
 10
4.963
 20
3.749
 11
5.509
 21
3.751
  0
LINE
  8
PEN1
 10
5.509
 20
3.751
 11
5.512
 21
3.638
  0
LINE
  8
PEN1
 10
5.512
 20
3.638
 11
5.547
 21
3.395
  0
LINE
  8
PEN1
 10
5.547
 20
3.395
 11
5.541
 21
3.017
  0
LINE
  8
PEN1
 10
5.541
 20
3.017
 11
5.495
 21
3.034
  0
LINE
  8
PEN1
 10
5.495
 20
3.034
 11
5.421
 21
3.084
  0
LINE
  8
PEN1
 10
5.421
 20
3.084
 11
5.392
 21
3.07
  0
LINE
  8
PEN1
 10
5.392
 20
3.07
 11
5.296
 21
3.061
  0
LINE
  8
PEN1
 10
5.296
 20
3.061
 11
5.201
 21
3.03
  0
LINE
  8
PEN1
 10
5.201
 20
3.03
 11
5.164
 21
3.066
  0
LINE
  8
PEN1
 10
5.164
 20
3.066
 11
5.116
 21
3.057
  0
LINE
  8
PEN1
 10
5.116
 20
3.057
 11
5.107
 21
3.083
  0
LINE
  8
PEN1
 10
5.107
 20
3.083
 11
5.072
 21
3.059
  0
LINE
  8
PEN1
 10
5.072
 20
3.059
 11
5.066
 21
3.029
  0
LINE
  8
PEN1
 10
5.066
 20
3.029
 11
5.054
 21
3.07
  0
LINE
  8
PEN1
 10
5.054
 20
3.07
 11
5.021
 21
3.048
  0
LINE
  8
PEN1
 10
5.021
 20
3.048
 11
4.967
 21
3.091
  0
LINE
  8
PEN1
 10
4.967
 20
3.091
 11
4.937
 21
3.059
  0
LINE
  8
PEN1
 10
4.937
 20
3.059
 11
4.917
 21
3.076
  0
LINE
  8
PEN1
 10
4.917
 20
3.076
 11
4.891
 21
3.129
  0
LINE
  8
PEN1
 10
4.891
 20
3.129
 11
4.845
 21
3.132
  0
LINE
  8
PEN1
 10
4.845
 20
3.132
 11
4.838
 21
3.116
  0
LINE
  8
PEN1
 10
4.838
 20
3.116
 11
4.806
 21
3.137
  0
LINE
  8
PEN1
 10
4.806
 20
3.137
 11
4.78
 21
3.128
  0
LINE
  8
PEN1
 10
4.78
 20
3.128
 11
4.744
 21
3.146
  0
LINE
  8
PEN1
 10
4.744
 20
3.146
 11
4.702
 21
3.15
  0
LINE
  8
PEN1
 10
4.702
 20
3.15
 11
4.703
 21
3.177
  0
LINE
  8
PEN1
 10
4.703
 20
3.177
 11
4.674
 21
3.203
  0
LINE
  8
PEN1
 10
4.674
 20
3.203
 11
4.664
 21
3.186
  0
LINE
  8
PEN1
 10
4.664
 20
3.186
 11
4.614
 21
3.188
  0
LINE
  8
PEN1
 10
4.614
 20
3.188
 11
4.563
 21
3.231
  0
LINE
  8
PEN1
 10
4.563
 20
3.231
 11
4.58
 21
3.652
  0
LINE
  8
PEN1
 10
4.58
 20
3.652
 11
4.061
 21
3.682
  0
LINE
  8
PEN1
 10
0.823
 20
5.528
 11
0.823
 21
5.528
  0
LINE
  8
PEN1
 10
0.823
 20
5.528
 11
0.845
 21
5.739
  0
LINE
  8
PEN1
 10
0.845
 20
5.739
 11
0.951
 21
5.91
  0
LINE
  8
PEN1
 10
0.951
 20
5.91
 11
1.12
 21
6.4
  0
LINE
  8
PEN1
 10
1.12
 20
6.4
 11
1.205
 21
6.373
  0
LINE
  8
PEN1
 10
1.205
 20
6.373
 11
1.209
 21
6.352
  0
LINE
  8
PEN1
 10
1.209
 20
6.352
 11
1.231
 21
6.349
  0
LINE
  8
PEN1
 10
1.231
 20
6.349
 11
1.274
 21
6.265
  0
LINE
  8
PEN1
 10
1.274
 20
6.265
 11
1.267
 21
6.237
  0
LINE
  8
PEN1
 10
1.267
 20
6.237
 11
1.334
 21
6.18
  0
LINE
  8
PEN1
 10
1.334
 20
6.18
 11
1.451
 21
6.184
  0
LINE
  8
PEN1
 10
1.451
 20
6.184
 11
1.538
 21
6.145
  0
LINE
  8
PEN1
 10
1.538
 20
6.145
 11
1.58
 21
6.153
  0
LINE
  8
PEN1
 10
1.58
 20
6.153
 11
1.843
 21
6.145
  0
LINE
  8
PEN1
 10
1.843
 20
6.145
 11
2.143
 21
6.074
  0
LINE
  8
PEN1
 10
2.143
 20
6.074
 11
2.158
 21
6.037
  0
LINE
  8
PEN1
 10
2.158
 20
6.037
 11
2.194
 21
5.983
  0
LINE
  8
PEN1
 10
2.194
 20
5.983
 11
2.146
 21
5.91
  0
LINE
  8
PEN1
 10
2.146
 20
5.91
 11
2.094
 21
5.827
  0
LINE
  8
PEN1
 10
2.094
 20
5.827
 11
2.028
 21
5.765
  0
LINE
  8
PEN1
 10
2.028
 20
5.765
 11
2.019
 21
5.724
  0
LINE
  8
PEN1
 10
2.019
 20
5.724
 11
2.056
 21
5.679
  0
LINE
  8
PEN1
 10
2.056
 20
5.679
 11
2.015
 21
5.585
  0
LINE
  8
PEN1
 10
2.015
 20
5.585
 11
1.933
 21
5.231
  0
LINE
  8
PEN1
 10
1.933
 20
5.231
 11
1.468
 21
5.347
  0
LINE
  8
PEN1
 10
1.468
 20
5.347
 11
0.823
 21
5.528
  0
LINE
  8
PEN1
 10
7.756
 20
5.021
 11
7.756
 21
5.021
  0
LINE
  8
PEN1
 10
7.756
 20
5.021
 11
7.804
 21
4.736
  0
LINE
  8
PEN1
 10
7.804
 20
4.736
 11
7.836
 21
4.536
  0
LINE
  8
PEN1
 10
7.836
 20
4.536
 11
8.003
 21
4.564
  0
LINE
  8
PEN1
 10
8.003
 20
4.564
 11
8.604
 21
4.679
  0
LINE
  8
PEN1
 10
8.604
 20
4.679
 11
8.628
 21
4.709
  0
LINE
  8
PEN1
 10
8.628
 20
4.709
 11
8.663
 21
4.709
  0
LINE
  8
PEN1
 10
8.663
 20
4.709
 11
8.702
 21
4.735
  0
LINE
  8
PEN1
 10
8.702
 20
4.735
 11
8.723
 21
4.778
  0
LINE
  8
PEN1
 10
8.723
 20
4.778
 11
8.756
 21
4.81
  0
LINE
  8
PEN1
 10
8.756
 20
4.81
 11
8.659
 21
4.89
  0
LINE
  8
PEN1
 10
8.659
 20
4.89
 11
8.656
 21
4.966
  0
LINE
  8
PEN1
 10
8.656
 20
4.966
 11
8.701
 21
5.067
  0
LINE
  8
PEN1
 10
8.701
 20
5.067
 11
8.636
 21
5.104
  0
LINE
  8
PEN1
 10
8.636
 20
5.104
 11
8.61
 21
5.155
  0
LINE
  8
PEN1
 10
8.61
 20
5.155
 11
8.564
 21
5.179
  0
LINE
  8
PEN1
 10
8.564
 20
5.179
 11
7.9
 21
5.052
  0
LINE
  8
PEN1
 10
7.9
 20
5.052
 11
7.867
 21
5.104
  0
LINE
  8
PEN1
 10
7.867
 20
5.104
 11
7.756
 21
5.021
  0
LINE
  8
PEN1
 10
9.128
 20
5.313
 11
9.128
 21
5.313
  0
LINE
  8
PEN1
 10
9.128
 20
5.313
 11
9.156
 21
5.17
  0
LINE
  8
PEN1
 10
9.156
 20
5.17
 11
9.162
 21
5.163
  0
LINE
  8
PEN1
 10
9.162
 20
5.163
 11
9.212
 21
5.192
  0
LINE
  8
PEN1
 10
9.212
 20
5.192
 11
9.205
 21
5.235
  0
LINE
  8
PEN1
 10
9.205
 20
5.235
 11
9.214
 21
5.255
  0
LINE
  8
PEN1
 10
9.214
 20
5.255
 11
9.227
 21
5.241
  0
LINE
  8
PEN1
 10
9.227
 20
5.241
 11
9.232
 21
5.21
  0
LINE
  8
PEN1
 10
9.232
 20
5.21
 11
9.243
 21
5.212
  0
LINE
  8
PEN1
 10
9.243
 20
5.212
 11
9.261
 21
5.241
  0
LINE
  8
PEN1
 10
9.261
 20
5.241
 11
9.243
 21
5.277
  0
LINE
  8
PEN1
 10
9.243
 20
5.277
 11
9.213
 21
5.282
  0
LINE
  8
PEN1
 10
9.213
 20
5.282
 11
9.193
 21
5.325
  0
LINE
  8
PEN1
 10
9.193
 20
5.325
 11
9.174
 21
5.329
  0
LINE
  8
PEN1
 10
9.174
 20
5.329
 11
9.128
 21
5.313
  0
LINE
  8
PEN1
 10
7.508
 20
3.38
 11
7.508
 21
3.38
  0
LINE
  8
PEN1
 10
7.508
 20
3.38
 11
7.544
 21
3.448
  0
LINE
  8
PEN1
 10
7.544
 20
3.448
 11
7.669
 21
3.51
  0
LINE
  8
PEN1
 10
7.669
 20
3.51
 11
7.903
 21
3.537
  0
LINE
  8
PEN1
 10
7.903
 20
3.537
 11
8.0
 21
3.475
  0
LINE
  8
PEN1
 10
8.0
 20
3.475
 11
8.151
 21
3.497
  0
LINE
  8
PEN1
 10
8.151
 20
3.497
 11
8.382
 21
3.331
  0
LINE
  8
PEN1
 10
8.382
 20
3.331
 11
8.315
 21
3.254
  0
LINE
  8
PEN1
 10
8.315
 20
3.254
 11
8.28
 21
3.202
  0
LINE
  8
PEN1
 10
8.28
 20
3.202
 11
8.284
 21
3.149
  0
LINE
  8
PEN1
 10
8.284
 20
3.149
 11
8.223
 21
3.098
  0
LINE
  8
PEN1
 10
8.223
 20
3.098
 11
8.176
 21
3.025
  0
LINE
  8
PEN1
 10
8.176
 20
3.025
 11
8.109
 21
2.985
  0
LINE
  8
PEN1
 10
8.109
 20
2.985
 11
8.081
 21
2.979
  0
LINE
  8
PEN1
 10
8.081
 20
2.979
 11
8.069
 21
2.931
  0
LINE
  8
PEN1
 10
8.069
 20
2.931
 11
8.03
 21
2.957
  0
LINE
  8
PEN1
 10
8.03
 20
2.957
 11
8.064
 21
2.913
  0
LINE
  8
PEN1
 10
8.064
 20
2.913
 11
8.032
 21
2.868
  0
LINE
  8
PEN1
 10
8.032
 20
2.868
 11
8.001
 21
2.874
  0
LINE
  8
PEN1
 10
8.001
 20
2.874
 11
7.979
 21
2.901
  0
LINE
  8
PEN1
 10
7.979
 20
2.901
 11
7.942
 21
2.967
  0
LINE
  8
PEN1
 10
7.942
 20
2.967
 11
7.922
 21
2.976
  0
LINE
  8
PEN1
 10
7.922
 20
2.976
 11
7.879
 21
3.065
  0
LINE
  8
PEN1
 10
7.879
 20
3.065
 11
7.819
 21
3.102
  0
LINE
  8
PEN1
 10
7.819
 20
3.102
 11
7.776
 21
3.162
  0
LINE
  8
PEN1
 10
7.776
 20
3.162
 11
7.671
 21
3.238
  0
LINE
  8
PEN1
 10
7.671
 20
3.238
 11
7.621
 21
3.307
  0
LINE
  8
PEN1
 10
7.621
 20
3.307
 11
7.508
 21
3.38
  0
LINE
  8
PEN1
 10
4.007
 20
5.119
 11
4.007
 21
5.119
  0
LINE
  8
PEN1
 10
4.007
 20
5.119
 11
4.047
 21
5.552
  0
LINE
  8
PEN1
 10
4.047
 20
5.552
 11
4.066
 21
5.754
  0
LINE
  8
PEN1
 10
4.066
 20
5.754
 11
4.603
 21
5.715
  0
LINE
  8
PEN1
 10
4.603
 20
5.715
 11
5.2
 21
5.696
  0
LINE
  8
PEN1
 10
5.2
 20
5.696
 11
5.16
 21
5.62
  0
LINE
  8
PEN1
 10
5.16
 20
5.62
 11
5.217
 21
5.563
  0
LINE
  8
PEN1
 10
5.217
 20
5.563
 11
5.214
 21
5.165
  0
LINE
  8
PEN1
 10
5.214
 20
5.165
 11
5.19
 21
5.167
  0
LINE
  8
PEN1
 10
5.19
 20
5.167
 11
5.193
 21
5.114
  0
LINE
  8
PEN1
 10
5.193
 20
5.114
 11
5.212
 21
5.075
  0
LINE
  8
PEN1
 10
5.212
 20
5.075
 11
5.199
 21
5.037
  0
LINE
  8
PEN1
 10
5.199
 20
5.037
 11
5.211
 21
4.943
  0
LINE
  8
PEN1
 10
5.211
 20
4.943
 11
5.184
 21
4.951
  0
LINE
  8
PEN1
 10
5.184
 20
4.951
 11
5.154
 21
4.988
  0
LINE
  8
PEN1
 10
5.154
 20
4.988
 11
5.096
 21
5.013
  0
LINE
  8
PEN1
 10
5.096
 20
5.013
 11
5.047
 21
5.025
  0
LINE
  8
PEN1
 10
5.047
 20
5.025
 11
4.942
 21
5.02
  0
LINE
  8
PEN1
 10
4.942
 20
5.02
 11
4.883
 21
5.065
  0
LINE
  8
PEN1
 10
4.883
 20
5.065
 11
4.007
 21
5.119
  0
LINE
  8
PEN1
 10
6.283
 20
3.332
 11
6.283
 21
3.332
  0
LINE
  8
PEN1
 10
6.283
 20
3.332
 11
6.308
 21
3.421
  0
LINE
  8
PEN1
 10
6.308
 20
3.421
 11
6.298
 21
3.428
  0
LINE
  8
PEN1
 10
6.298
 20
3.428
 11
6.342
 21
3.462
  0
LINE
  8
PEN1
 10
6.342
 20
3.462
 11
6.381
 21
3.541
  0
LINE
  8
PEN1
 10
6.381
 20
3.541
 11
6.368
 21
3.558
  0
LINE
  8
PEN1
 10
6.368
 20
3.558
 11
6.387
 21
3.595
  0
LINE
  8
PEN1
 10
6.387
 20
3.595
 11
6.39
 21
3.638
  0
LINE
  8
PEN1
 10
6.39
 20
3.638
 11
6.416
 21
3.67
  0
LINE
  8
PEN1
 10
6.416
 20
3.67
 11
6.648
 21
3.686
  0
LINE
  8
PEN1
 10
6.648
 20
3.686
 11
6.645
 21
3.724
  0
LINE
  8
PEN1
 10
6.645
 20
3.724
 11
6.718
 21
3.721
  0
LINE
  8
PEN1
 10
6.718
 20
3.721
 11
7.407
 21
3.785
  0
LINE
  8
PEN1
 10
7.407
 20
3.785
 11
7.75
 21
3.831
  0
LINE
  8
PEN1
 10
7.75
 20
3.831
 11
7.743
 21
3.783
  0
LINE
  8
PEN1
 10
7.743
 20
3.783
 11
7.72
 21
3.767
  0
LINE
  8
PEN1
 10
7.72
 20
3.767
 11
7.69
 21
3.713
  0
LINE
  8
PEN1
 10
7.69
 20
3.713
 11
7.666
 21
3.717
  0
LINE
  8
PEN1
 10
7.666
 20
3.717
 11
7.639
 21
3.702
  0
LINE
  8
PEN1
 10
7.639
 20
3.702
 11
7.621
 21
3.675
  0
LINE
  8
PEN1
 10
7.621
 20
3.675
 11
7.595
 21
3.692
  0
LINE
  8
PEN1
 10
7.595
 20
3.692
 11
7.556
 21
3.658
  0
LINE
  8
PEN1
 10
7.556
 20
3.658
 11
7.551
 21
3.63
  0
LINE
  8
PEN1
 10
7.551
 20
3.63
 11
7.385
 21
3.531
  0
LINE
  8
PEN1
 10
7.385
 20
3.531
 11
7.375
 21
3.493
  0
LINE
  8
PEN1
 10
7.375
 20
3.493
 11
7.331
 21
3.472
  0
LINE
  8
PEN1
 10
7.331
 20
3.472
 11
7.332
 21
3.423
  0
LINE
  8
PEN1
 10
7.332
 20
3.423
 11
7.106
 21
3.394
  0
LINE
  8
PEN1
 10
7.106
 20
3.394
 11
6.651
 21
3.356
  0
LINE
  8
PEN1
 10
6.651
 20
3.356
 11
6.283
 21
3.332
  0
LINE
  8
PEN1
 10
3.331
 20
2.724
 11
3.331
 21
2.724
  0
LINE
  8
PEN1
 10
3.331
 20
2.724
 11
3.317
 21
2.769
  0
LINE
  8
PEN1
 10
3.317
 20
2.769
 11
3.365
 21
2.765
  0
LINE
  8
PEN1
 10
3.365
 20
2.765
 11
3.971
 21
2.707
  0
LINE
  8
PEN1
 10
3.971
 20
2.707
 11
4.061
 21
3.682
  0
LINE
  8
PEN1
 10
4.061
 20
3.682
 11
4.58
 21
3.652
  0
LINE
  8
PEN1
 10
4.58
 20
3.652
 11
4.563
 21
3.231
  0
LINE
  8
PEN1
 10
4.563
 20
3.231
 11
4.614
 21
3.188
  0
LINE
  8
PEN1
 10
4.614
 20
3.188
 11
4.664
 21
3.186
  0
LINE
  8
PEN1
 10
4.664
 20
3.186
 11
4.674
 21
3.203
  0
LINE
  8
PEN1
 10
4.674
 20
3.203
 11
4.703
 21
3.177
  0
LINE
  8
PEN1
 10
4.703
 20
3.177
 11
4.702
 21
3.15
  0
LINE
  8
PEN1
 10
4.702
 20
3.15
 11
4.744
 21
3.146
  0
LINE
  8
PEN1
 10
4.744
 20
3.146
 11
4.78
 21
3.128
  0
LINE
  8
PEN1
 10
4.78
 20
3.128
 11
4.806
 21
3.137
  0
LINE
  8
PEN1
 10
4.806
 20
3.137
 11
4.838
 21
3.116
  0
LINE
  8
PEN1
 10
4.838
 20
3.116
 11
4.845
 21
3.132
  0
LINE
  8
PEN1
 10
4.845
 20
3.132
 11
4.891
 21
3.129
  0
LINE
  8
PEN1
 10
4.891
 20
3.129
 11
4.917
 21
3.076
  0
LINE
  8
PEN1
 10
4.917
 20
3.076
 11
4.937
 21
3.059
  0
LINE
  8
PEN1
 10
4.937
 20
3.059
 11
4.967
 21
3.091
  0
LINE
  8
PEN1
 10
4.967
 20
3.091
 11
5.021
 21
3.048
  0
LINE
  8
PEN1
 10
5.021
 20
3.048
 11
5.054
 21
3.07
  0
LINE
  8
PEN1
 10
5.054
 20
3.07
 11
5.066
 21
3.029
  0
LINE
  8
PEN1
 10
5.066
 20
3.029
 11
5.072
 21
3.059
  0
LINE
  8
PEN1
 10
5.072
 20
3.059
 11
5.107
 21
3.083
  0
LINE
  8
PEN1
 10
5.107
 20
3.083
 11
5.116
 21
3.057
  0
LINE
  8
PEN1
 10
5.116
 20
3.057
 11
5.164
 21
3.066
  0
LINE
  8
PEN1
 10
5.164
 20
3.066
 11
5.201
 21
3.03
  0
LINE
  8
PEN1
 10
5.201
 20
3.03
 11
5.296
 21
3.061
  0
LINE
  8
PEN1
 10
5.296
 20
3.061
 11
5.392
 21
3.07
  0
LINE
  8
PEN1
 10
5.392
 20
3.07
 11
5.421
 21
3.084
  0
LINE
  8
PEN1
 10
5.421
 20
3.084
 11
5.495
 21
3.034
  0
LINE
  8
PEN1
 10
5.495
 20
3.034
 11
5.541
 21
3.017
  0
LINE
  8
PEN1
 10
5.541
 20
3.017
 11
5.558
 21
2.996
  0
LINE
  8
PEN1
 10
5.558
 20
2.996
 11
5.62
 21
2.998
  0
LINE
  8
PEN1
 10
5.62
 20
2.998
 11
5.623
 21
2.881
  0
LINE
  8
PEN1
 10
5.623
 20
2.881
 11
5.634
 21
2.653
  0
LINE
  8
PEN1
 10
5.634
 20
2.653
 11
5.66
 21
2.624
  0
LINE
  8
PEN1
 10
5.66
 20
2.624
 11
5.67
 21
2.565
  0
LINE
  8
PEN1
 10
5.67
 20
2.565
 11
5.723
 21
2.484
  0
LINE
  8
PEN1
 10
5.723
 20
2.484
 11
5.721
 21
2.414
  0
LINE
  8
PEN1
 10
5.721
 20
2.414
 11
5.69
 21
2.349
  0
LINE
  8
PEN1
 10
5.69
 20
2.349
 11
5.692
 21
2.313
  0
LINE
  8
PEN1
 10
5.692
 20
2.313
 11
5.702
 21
2.275
  0
LINE
  8
PEN1
 10
5.702
 20
2.275
 11
5.697
 21
2.237
  0
LINE
  8
PEN1
 10
5.697
 20
2.237
 11
5.68
 21
2.213
  0
LINE
  8
PEN1
 10
5.68
 20
2.213
 11
5.656
 21
2.184
  0
LINE
  8
PEN1
 10
5.656
 20
2.184
 11
5.672
 21
2.165
  0
LINE
  8
PEN1
 10
5.672
 20
2.165
 11
5.576
 21
2.133
  0
LINE
  8
PEN1
 10
5.576
 20
2.133
 11
5.499
 21
2.089
  0
LINE
  8
PEN1
 10
5.499
 20
2.089
 11
5.545
 21
2.125
  0
LINE
  8
PEN1
 10
5.545
 20
2.125
 11
5.495
 21
2.126
  0
LINE
  8
PEN1
 10
5.495
 20
2.126
 11
5.51
 21
2.186
  0
LINE
  8
PEN1
 10
5.51
 20
2.186
 11
5.469
 21
2.152
  0
LINE
  8
PEN1
 10
5.469
 20
2.152
 11
5.449
 21
2.163
  0
LINE
  8
PEN1
 10
5.449
 20
2.163
 11
5.451
 21
2.123
  0
LINE
  8
PEN1
 10
5.451
 20
2.123
 11
5.468
 21
2.116
  0
LINE
  8
PEN1
 10
5.468
 20
2.116
 11
5.471
 21
2.079
  0
LINE
  8
PEN1
 10
5.471
 20
2.079
 11
5.441
 21
2.051
  0
LINE
  8
PEN1
 10
5.441
 20
2.051
 11
5.422
 21
2.053
  0
LINE
  8
PEN1
 10
5.422
 20
2.053
 11
5.417
 21
2.012
  0
LINE
  8
PEN1
 10
5.417
 20
2.012
 11
5.194
 21
1.876
  0
LINE
  8
PEN1
 10
5.194
 20
1.876
 11
5.197
 21
1.89
  0
LINE
  8
PEN1
 10
5.197
 20
1.89
 11
5.3
 21
1.956
  0
LINE
  8
PEN1
 10
5.3
 20
1.956
 11
5.22
 21
1.914
  0
LINE
  8
PEN1
 10
5.22
 20
1.914
 11
5.225
 21
1.953
  0
LINE
  8
PEN1
 10
5.225
 20
1.953
 11
5.204
 21
1.933
  0
LINE
  8
PEN1
 10
5.204
 20
1.933
 11
5.181
 21
1.945
  0
LINE
  8
PEN1
 10
5.181
 20
1.945
 11
5.172
 21
1.914
  0
LINE
  8
PEN1
 10
5.172
 20
1.914
 11
5.137
 21
1.945
  0
LINE
  8
PEN1
 10
5.137
 20
1.945
 11
5.139
 21
1.915
  0
LINE
  8
PEN1
 10
5.139
 20
1.915
 11
5.181
 21
1.888
  0
LINE
  8
PEN1
 10
5.181
 20
1.888
 11
5.133
 21
1.861
  0
LINE
  8
PEN1
 10
5.133
 20
1.861
 11
5.111
 21
1.896
  0
LINE
  8
PEN1
 10
5.111
 20
1.896
 11
5.095
 21
1.807
  0
LINE
  8
PEN1
 10
5.095
 20
1.807
 11
5.074
 21
1.843
  0
LINE
  8
PEN1
 10
5.074
 20
1.843
 11
5.031
 21
1.829
  0
LINE
  8
PEN1
 10
5.031
 20
1.829
 11
5.023
 21
1.806
  0
LINE
  8
PEN1
 10
5.023
 20
1.806
 11
5.044
 21
1.766
  0
LINE
  8
PEN1
 10
5.044
 20
1.766
 11
4.965
 21
1.761
  0
LINE
  8
PEN1
 10
4.965
 20
1.761
 11
4.993
 21
1.753
  0
LINE
  8
PEN1
 10
4.993
 20
1.753
 11
4.995
 21
1.714
  0
LINE
  8
PEN1
 10
4.995
 20
1.714
 11
5.012
 21
1.723
  0
LINE
  8
PEN1
 10
5.012
 20
1.723
 11
5.003
 21
1.695
  0
LINE
  8
PEN1
 10
5.003
 20
1.695
 11
4.968
 21
1.638
  0
LINE
  8
PEN1
 10
4.968
 20
1.638
 11
4.97
 21
1.666
  0
LINE
  8
PEN1
 10
4.97
 20
1.666
 11
4.946
 21
1.641
  0
LINE
  8
PEN1
 10
4.946
 20
1.641
 11
4.915
 21
1.677
  0
LINE
  8
PEN1
 10
4.915
 20
1.677
 11
4.922
 21
1.636
  0
LINE
  8
PEN1
 10
4.922
 20
1.636
 11
4.981
 21
1.63
  0
LINE
  8
PEN1
 10
4.981
 20
1.63
 11
4.957
 21
1.569
  0
LINE
  8
PEN1
 10
4.957
 20
1.569
 11
4.977
 21
1.45
  0
LINE
  8
PEN1
 10
4.977
 20
1.45
 11
5.03
 21
1.351
  0
LINE
  8
PEN1
 10
5.03
 20
1.351
 11
4.961
 21
1.347
  0
LINE
  8
PEN1
 10
4.961
 20
1.347
 11
4.894
 21
1.377
  0
LINE
  8
PEN1
 10
4.894
 20
1.377
 11
4.836
 21
1.376
  0
LINE
  8
PEN1
 10
4.836
 20
1.376
 11
4.752
 21
1.422
  0
LINE
  8
PEN1
 10
4.752
 20
1.422
 11
4.654
 21
1.457
  0
LINE
  8
PEN1
 10
4.654
 20
1.457
 11
4.644
 21
1.496
  0
LINE
  8
PEN1
 10
4.644
 20
1.496
 11
4.623
 21
1.553
  0
LINE
  8
PEN1
 10
4.623
 20
1.553
 11
4.59
 21
1.594
  0
LINE
  8
PEN1
 10
4.59
 20
1.594
 11
4.594
 21
1.638
  0
LINE
  8
PEN1
 10
4.594
 20
1.638
 11
4.576
 21
1.654
  0
LINE
  8
PEN1
 10
4.576
 20
1.654
 11
4.577
 21
1.714
  0
LINE
  8
PEN1
 10
4.577
 20
1.714
 11
4.519
 21
1.759
  0
LINE
  8
PEN1
 10
4.519
 20
1.759
 11
4.457
 21
1.851
  0
LINE
  8
PEN1
 10
4.457
 20
1.851
 11
4.353
 21
2.084
  0
LINE
  8
PEN1
 10
4.353
 20
2.084
 11
4.274
 21
2.145
  0
LINE
  8
PEN1
 10
4.274
 20
2.145
 11
4.249
 21
2.198
  0
LINE
  8
PEN1
 10
4.249
 20
2.198
 11
4.181
 21
2.207
  0
LINE
  8
PEN1
 10
4.181
 20
2.207
 11
4.125
 21
2.213
  0
LINE
  8
PEN1
 10
4.125
 20
2.213
 11
4.075
 21
2.236
  0
LINE
  8
PEN1
 10
4.075
 20
2.236
 11
4.059
 21
2.213
  0
LINE
  8
PEN1
 10
4.059
 20
2.213
 11
4.007
 21
2.213
  0
LINE
  8
PEN1
 10
4.007
 20
2.213
 11
3.96
 21
2.103
  0
LINE
  8
PEN1
 10
3.96
 20
2.103
 11
3.908
 21
2.055
  0
LINE
  8
PEN1
 10
3.908
 20
2.055
 11
3.878
 21
2.058
  0
LINE
  8
PEN1
 10
3.878
 20
2.058
 11
3.787
 21
2.128
  0
LINE
  8
PEN1
 10
3.787
 20
2.128
 11
3.747
 21
2.139
  0
LINE
  8
PEN1
 10
3.747
 20
2.139
 11
3.659
 21
2.219
  0
LINE
  8
PEN1
 10
3.659
 20
2.219
 11
3.635
 21
2.282
  0
LINE
  8
PEN1
 10
3.635
 20
2.282
 11
3.636
 21
2.348
  0
LINE
  8
PEN1
 10
3.636
 20
2.348
 11
3.594
 21
2.44
  0
LINE
  8
PEN1
 10
3.594
 20
2.44
 11
3.522
 21
2.499
  0
LINE
  8
PEN1
 10
3.522
 20
2.499
 11
3.422
 21
2.626
  0
LINE
  8
PEN1
 10
3.422
 20
2.626
 11
3.384
 21
2.647
  0
LINE
  8
PEN1
 10
3.384
 20
2.647
 11
3.358
 21
2.713
  0
LINE
  8
PEN1
 10
3.358
 20
2.713
 11
3.331
 21
2.724
  0
LINE
  8
PEN1
 10
2.189
 20
4.054
 11
2.189
 21
4.054
  0
LINE
  8
PEN1
 10
2.189
 20
4.054
 11
2.401
 21
5.129
  0
LINE
  8
PEN1
 10
2.401
 20
5.129
 11
2.873
 21
5.042
  0
LINE
  8
PEN1
 10
2.873
 20
5.042
 11
2.837
 21
4.826
  0
LINE
  8
PEN1
 10
2.837
 20
4.826
 11
3.16
 21
4.776
  0
LINE
  8
PEN1
 10
3.16
 20
4.776
 11
3.037
 21
3.909
  0
LINE
  8
PEN1
 10
3.037
 20
3.909
 11
2.189
 21
4.054
  0
LINE
  8
PEN1
 10
8.733
 20
5.889
 11
8.733
 21
5.889
  0
LINE
  8
PEN1
 10
8.733
 20
5.889
 11
8.775
 21
5.734
  0
LINE
  8
PEN1
 10
8.775
 20
5.734
 11
8.788
 21
5.634
  0
LINE
  8
PEN1
 10
8.788
 20
5.634
 11
8.832
 21
5.533
  0
LINE
  8
PEN1
 10
8.832
 20
5.533
 11
8.859
 21
5.412
  0
LINE
  8
PEN1
 10
8.859
 20
5.412
 11
8.984
 21
5.439
  0
LINE
  8
PEN1
 10
8.984
 20
5.439
 11
8.958
 21
5.626
  0
LINE
  8
PEN1
 10
8.958
 20
5.626
 11
8.974
 21
5.758
  0
LINE
  8
PEN1
 10
8.974
 20
5.758
 11
9.006
 21
5.819
  0
LINE
  8
PEN1
 10
9.006
 20
5.819
 11
9.009
 21
5.958
  0
LINE
  8
PEN1
 10
9.009
 20
5.958
 11
8.733
 21
5.889
  0
LINE
  8
PEN1
 10
7.407
 20
3.785
 11
7.407
 21
3.785
  0
LINE
  8
PEN1
 10
7.407
 20
3.785
 11
7.531
 21
3.867
  0
LINE
  8
PEN1
 10
7.531
 20
3.867
 11
7.532
 21
3.885
  0
LINE
  8
PEN1
 10
7.532
 20
3.885
 11
7.577
 21
3.939
  0
LINE
  8
PEN1
 10
7.577
 20
3.939
 11
7.618
 21
3.969
  0
LINE
  8
PEN1
 10
7.618
 20
3.969
 11
7.666
 21
4.027
  0
LINE
  8
PEN1
 10
7.666
 20
4.027
 11
7.714
 21
3.969
  0
LINE
  8
PEN1
 10
7.714
 20
3.969
 11
7.775
 21
3.998
  0
LINE
  8
PEN1
 10
7.775
 20
3.998
 11
7.8
 21
3.98
  0
LINE
  8
PEN1
 10
7.8
 20
3.98
 11
7.837
 21
3.998
  0
LINE
  8
PEN1
 10
7.837
 20
3.998
 11
7.86
 21
4.03
  0
LINE
  8
PEN1
 10
7.86
 20
4.03
 11
7.926
 21
4.041
  0
LINE
  8
PEN1
 10
7.926
 20
4.041
 11
7.961
 21
4.088
  0
LINE
  8
PEN1
 10
7.961
 20
4.088
 11
7.943
 21
4.101
  0
LINE
  8
PEN1
 10
7.943
 20
4.101
 11
8.006
 21
4.243
  0
LINE
  8
PEN1
 10
8.006
 20
4.243
 11
8.02
 21
4.316
  0
LINE
  8
PEN1
 10
8.02
 20
4.316
 11
8.08
 21
4.287
  0
LINE
  8
PEN1
 10
8.08
 20
4.287
 11
8.109
 21
4.37
  0
LINE
  8
PEN1
 10
8.109
 20
4.37
 11
8.141
 21
4.375
  0
LINE
  8
PEN1
 10
8.141
 20
4.375
 11
8.186
 21
4.455
  0
LINE
  8
PEN1
 10
8.186
 20
4.455
 11
8.2
 21
4.54
  0
LINE
  8
PEN1
 10
8.2
 20
4.54
 11
8.294
 21
4.487
  0
LINE
  8
PEN1
 10
8.294
 20
4.487
 11
8.309
 21
4.531
  0
LINE
  8
PEN1
 10
8.309
 20
4.531
 11
8.354
 21
4.518
  0
LINE
  8
PEN1
 10
8.354
 20
4.518
 11
8.38
 21
4.485
  0
LINE
  8
PEN1
 10
8.38
 20
4.485
 11
8.42
 21
4.467
  0
LINE
  8
PEN1
 10
8.42
 20
4.467
 11
8.439
 21
4.44
  0
LINE
  8
PEN1
 10
8.439
 20
4.44
 11
8.437
 21
4.415
  0
LINE
  8
PEN1
 10
8.437
 20
4.415
 11
8.409
 21
4.366
  0
LINE
  8
PEN1
 10
8.409
 20
4.366
 11
8.42
 21
4.333
  0
LINE
  8
PEN1
 10
8.42
 20
4.333
 11
8.454
 21
4.348
  0
LINE
  8
PEN1
 10
8.454
 20
4.348
 11
8.468
 21
4.327
  0
LINE
  8
PEN1
 10
8.468
 20
4.327
 11
8.481
 21
4.313
  0
LINE
  8
PEN1
 10
8.481
 20
4.313
 11
8.539
 21
4.308
  0
LINE
  8
PEN1
 10
8.539
 20
4.308
 11
8.556
 21
4.288
  0
LINE
  8
PEN1
 10
8.556
 20
4.288
 11
8.612
 21
4.273
  0
LINE
  8
PEN1
 10
8.612
 20
4.273
 11
8.598
 21
4.258
  0
LINE
  8
PEN1
 10
8.598
 20
4.258
 11
8.603
 21
4.225
  0
LINE
  8
PEN1
 10
8.603
 20
4.225
 11
8.607
 21
4.21
  0
LINE
  8
PEN1
 10
8.607
 20
4.21
 11
8.586
 21
4.216
  0
LINE
  8
PEN1
 10
8.586
 20
4.216
 11
8.55
 21
4.236
  0
LINE
  8
PEN1
 10
8.55
 20
4.236
 11
8.491
 21
4.276
  0
LINE
  8
PEN1
 10
8.491
 20
4.276
 11
8.573
 21
4.199
  0
LINE
  8
PEN1
 10
8.573
 20
4.199
 11
8.617
 21
4.197
  0
LINE
  8
PEN1
 10
8.617
 20
4.197
 11
8.592
 21
4.184
  0
LINE
  8
PEN1
 10
8.592
 20
4.184
 11
8.634
 21
4.163
  0
LINE
  8
PEN1
 10
8.634
 20
4.163
 11
8.633
 21
4.146
  0
LINE
  8
PEN1
 10
8.633
 20
4.146
 11
8.618
 21
4.161
  0
LINE
  8
PEN1
 10
8.618
 20
4.161
 11
8.601
 21
4.16
  0
LINE
  8
PEN1
 10
8.601
 20
4.16
 11
8.606
 21
4.145
  0
LINE
  8
PEN1
 10
8.606
 20
4.145
 11
8.618
 21
4.134
  0
LINE
  8
PEN1
 10
8.618
 20
4.134
 11
8.601
 21
4.125
  0
LINE
  8
PEN1
 10
8.601
 20
4.125
 11
8.555
 21
4.158
  0
LINE
  8
PEN1
 10
8.555
 20
4.158
 11
8.537
 21
4.173
  0
LINE
  8
PEN1
 10
8.537
 20
4.173
 11
8.548
 21
4.152
  0
LINE
  8
PEN1
 10
8.548
 20
4.152
 11
8.593
 21
4.119
  0
LINE
  8
PEN1
 10
8.593
 20
4.119
 11
8.612
 21
4.117
  0
LINE
  8
PEN1
 10
8.612
 20
4.117
 11
8.632
 21
4.109
  0
LINE
  8
PEN1
 10
8.632
 20
4.109
 11
8.63
 21
4.097
  0
LINE
  8
PEN1
 10
8.63
 20
4.097
 11
8.642
 21
4.097
  0
LINE
  8
PEN1
 10
8.642
 20
4.097
 11
8.645
 21
4.087
  0
LINE
  8
PEN1
 10
8.645
 20
4.087
 11
8.626
 21
4.072
  0
LINE
  8
PEN1
 10
8.626
 20
4.072
 11
8.591
 21
4.087
  0
LINE
  8
PEN1
 10
8.591
 20
4.087
 11
8.583
 21
4.104
  0
LINE
  8
PEN1
 10
8.583
 20
4.104
 11
8.539
 21
4.109
  0
LINE
  8
PEN1
 10
8.539
 20
4.109
 11
8.531
 21
4.123
  0
LINE
  8
PEN1
 10
8.531
 20
4.123
 11
8.516
 21
4.105
  0
LINE
  8
PEN1
 10
8.516
 20
4.105
 11
8.574
 21
4.091
  0
LINE
  8
PEN1
 10
8.574
 20
4.091
 11
8.578
 21
4.075
  0
LINE
  8
PEN1
 10
8.578
 20
4.075
 11
8.628
 21
4.052
  0
LINE
  8
PEN1
 10
8.628
 20
4.052
 11
8.643
 21
4.052
  0
LINE
  8
PEN1
 10
8.643
 20
4.052
 11
8.647
 21
4.07
  0
LINE
  8
PEN1
 10
8.647
 20
4.07
 11
8.666
 21
4.065
  0
LINE
  8
PEN1
 10
8.666
 20
4.065
 11
8.699
 21
4.068
  0
LINE
  8
PEN1
 10
8.699
 20
4.068
 11
8.737
 21
3.998
  0
LINE
  8
PEN1
 10
8.737
 20
3.998
 11
8.712
 21
4.009
  0
LINE
  8
PEN1
 10
8.712
 20
4.009
 11
8.706
 21
3.989
  0
LINE
  8
PEN1
 10
8.706
 20
3.989
 11
8.182
 21
3.887
  0
LINE
  8
PEN1
 10
8.182
 20
3.887
 11
7.75
 21
3.831
  0
LINE
  8
PEN1
 10
7.75
 20
3.831
 11
7.407
 21
3.785
  0
LINE
  8
PEN1
 10
8.68
 20
4.209
 11
8.68
 21
4.209
  0
LINE
  8
PEN1
 10
8.68
 20
4.209
 11
8.679
 21
4.143
  0
LINE
  8
PEN1
 10
8.679
 20
4.143
 11
8.695
 21
4.116
  0
LINE
  8
PEN1
 10
8.695
 20
4.116
 11
8.707
 21
4.195
  0
LINE
  8
PEN1
 10
8.707
 20
4.195
 11
8.732
 21
4.228
  0
LINE
  8
PEN1
 10
8.732
 20
4.228
 11
8.753
 21
4.33
  0
LINE
  8
PEN1
 10
8.753
 20
4.33
 11
8.71
 21
4.307
  0
LINE
  8
PEN1
 10
8.71
 20
4.307
 11
8.68
 21
4.209
  0
LINE
  8
PEN1
 10
1.15
 20
6.768
 11
1.15
 21
6.768
  0
LINE
  8
PEN1
 10
1.15
 20
6.768
 11
1.167
 21
6.73
  0
LINE
  8
PEN1
 10
1.167
 20
6.73
 11
1.164
 21
6.682
  0
LINE
  8
PEN1
 10
1.164
 20
6.682
 11
1.159
 21
6.637
  0
LINE
  8
PEN1
 10
1.159
 20
6.637
 11
1.166
 21
6.618
  0
LINE
  8
PEN1
 10
1.166
 20
6.618
 11
1.157
 21
6.555
  0
LINE
  8
PEN1
 10
1.157
 20
6.555
 11
1.177
 21
6.568
  0
LINE
  8
PEN1
 10
1.177
 20
6.568
 11
1.204
 21
6.543
  0
LINE
  8
PEN1
 10
1.204
 20
6.543
 11
1.173
 21
6.539
  0
LINE
  8
PEN1
 10
1.173
 20
6.539
 11
1.155
 21
6.542
  0
LINE
  8
PEN1
 10
1.155
 20
6.542
 11
1.152
 21
6.516
  0
LINE
  8
PEN1
 10
1.152
 20
6.516
 11
1.15
 21
6.5
  0
LINE
  8
PEN1
 10
1.15
 20
6.5
 11
1.178
 21
6.5
  0
LINE
  8
PEN1
 10
1.178
 20
6.5
 11
1.182
 21
6.488
  0
LINE
  8
PEN1
 10
1.182
 20
6.488
 11
1.159
 21
6.478
  0
LINE
  8
PEN1
 10
1.159
 20
6.478
 11
1.164
 21
6.453
  0
LINE
  8
PEN1
 10
1.164
 20
6.453
 11
1.148
 21
6.425
  0
LINE
  8
PEN1
 10
1.148
 20
6.425
 11
1.138
 21
6.426
  0
LINE
  8
PEN1
 10
1.138
 20
6.426
 11
1.149
 21
6.468
  0
LINE
  8
PEN1
 10
1.149
 20
6.468
 11
1.143
 21
6.48
  0
LINE
  8
PEN1
 10
1.143
 20
6.48
 11
1.124
 21
6.417
  0
LINE
  8
PEN1
 10
1.124
 20
6.417
 11
1.155
 21
6.396
  0
LINE
  8
PEN1
 10
1.155
 20
6.396
 11
1.205
 21
6.373
  0
LINE
  8
PEN1
 10
1.205
 20
6.373
 11
1.209
 21
6.352
  0
LINE
  8
PEN1
 10
1.209
 20
6.352
 11
1.231
 21
6.349
  0
LINE
  8
PEN1
 10
1.231
 20
6.349
 11
1.274
 21
6.265
  0
LINE
  8
PEN1
 10
1.274
 20
6.265
 11
1.267
 21
6.237
  0
LINE
  8
PEN1
 10
1.267
 20
6.237
 11
1.334
 21
6.18
  0
LINE
  8
PEN1
 10
1.334
 20
6.18
 11
1.451
 21
6.184
  0
LINE
  8
PEN1
 10
1.451
 20
6.184
 11
1.538
 21
6.145
  0
LINE
  8
PEN1
 10
1.538
 20
6.145
 11
1.58
 21
6.153
  0
LINE
  8
PEN1
 10
1.58
 20
6.153
 11
1.843
 21
6.145
  0
LINE
  8
PEN1
 10
1.843
 20
6.145
 11
2.143
 21
6.074
  0
LINE
  8
PEN1
 10
2.143
 20
6.074
 11
2.149
 21
6.166
  0
LINE
  8
PEN1
 10
2.149
 20
6.166
 11
2.274
 21
6.705
  0
LINE
  8
PEN1
 10
2.274
 20
6.705
 11
1.478
 21
6.913
  0
LINE
  8
PEN1
 10
1.478
 20
6.913
 11
1.469
 21
6.909
  0
LINE
  8
PEN1
 10
1.469
 20
6.909
 11
1.474
 21
6.897
  0
LINE
  8
PEN1
 10
1.474
 20
6.897
 11
1.466
 21
6.892
  0
LINE
  8
PEN1
 10
1.466
 20
6.892
 11
1.474
 21
6.881
  0
LINE
  8
PEN1
 10
1.474
 20
6.881
 11
1.471
 21
6.869
  0
LINE
  8
PEN1
 10
1.471
 20
6.869
 11
1.474
 21
6.855
  0
LINE
  8
PEN1
 10
1.474
 20
6.855
 11
1.486
 21
6.86
  0
LINE
  8
PEN1
 10
1.486
 20
6.86
 11
1.499
 21
6.853
  0
LINE
  8
PEN1
 10
1.499
 20
6.853
 11
1.493
 21
6.83
  0
LINE
  8
PEN1
 10
1.493
 20
6.83
 11
1.497
 21
6.819
  0
LINE
  8
PEN1
 10
1.497
 20
6.819
 11
1.482
 21
6.789
  0
LINE
  8
PEN1
 10
1.482
 20
6.789
 11
1.463
 21
6.808
  0
LINE
  8
PEN1
 10
1.463
 20
6.808
 11
1.456
 21
6.805
  0
LINE
  8
PEN1
 10
1.456
 20
6.805
 11
1.456
 21
6.791
  0
LINE
  8
PEN1
 10
1.456
 20
6.791
 11
1.47
 21
6.788
  0
LINE
  8
PEN1
 10
1.47
 20
6.788
 11
1.487
 21
6.754
  0
LINE
  8
PEN1
 10
1.487
 20
6.754
 11
1.479
 21
6.711
  0
LINE
  8
PEN1
 10
1.479
 20
6.711
 11
1.486
 21
6.696
  0
LINE
  8
PEN1
 10
1.486
 20
6.696
 11
1.496
 21
6.693
  0
LINE
  8
PEN1
 10
1.496
 20
6.693
 11
1.49
 21
6.685
  0
LINE
  8
PEN1
 10
1.49
 20
6.685
 11
1.479
 21
6.681
  0
LINE
  8
PEN1
 10
1.479
 20
6.681
 11
1.456
 21
6.653
  0
LINE
  8
PEN1
 10
1.456
 20
6.653
 11
1.456
 21
6.644
  0
LINE
  8
PEN1
 10
1.456
 20
6.644
 11
1.45
 21
6.627
  0
LINE
  8
PEN1
 10
1.45
 20
6.627
 11
1.444
 21
6.625
  0
LINE
  8
PEN1
 10
1.444
 20
6.625
 11
1.451
 21
6.611
  0
LINE
  8
PEN1
 10
1.451
 20
6.611
 11
1.441
 21
6.608
  0
LINE
  8
PEN1
 10
1.441
 20
6.608
 11
1.44
 21
6.559
  0
LINE
  8
PEN1
 10
1.44
 20
6.559
 11
1.421
 21
6.553
  0
LINE
  8
PEN1
 10
1.421
 20
6.553
 11
1.421
 21
6.539
  0
LINE
  8
PEN1
 10
1.421
 20
6.539
 11
1.407
 21
6.556
  0
LINE
  8
PEN1
 10
1.407
 20
6.556
 11
1.405
 21
6.547
  0
LINE
  8
PEN1
 10
1.405
 20
6.547
 11
1.373
 21
6.518
  0
LINE
  8
PEN1
 10
1.373
 20
6.518
 11
1.362
 21
6.522
  0
LINE
  8
PEN1
 10
1.362
 20
6.522
 11
1.356
 21
6.536
  0
LINE
  8
PEN1
 10
1.356
 20
6.536
 11
1.352
 21
6.527
  0
LINE
  8
PEN1
 10
1.352
 20
6.527
 11
1.345
 21
6.534
  0
LINE
  8
PEN1
 10
1.345
 20
6.534
 11
1.339
 21
6.513
  0
LINE
  8
PEN1
 10
1.339
 20
6.513
 11
1.335
 21
6.515
  0
LINE
  8
PEN1
 10
1.335
 20
6.515
 11
1.337
 21
6.53
  0
LINE
  8
PEN1
 10
1.337
 20
6.53
 11
1.326
 21
6.528
  0
LINE
  8
PEN1
 10
1.326
 20
6.528
 11
1.339
 21
6.541
  0
LINE
  8
PEN1
 10
1.339
 20
6.541
 11
1.322
 21
6.542
  0
LINE
  8
PEN1
 10
1.322
 20
6.542
 11
1.335
 21
6.55
  0
LINE
  8
PEN1
 10
1.335
 20
6.55
 11
1.32
 21
6.554
  0
LINE
  8
PEN1
 10
1.32
 20
6.554
 11
1.327
 21
6.564
  0
LINE
  8
PEN1
 10
1.327
 20
6.564
 11
1.341
 21
6.554
  0
LINE
  8
PEN1
 10
1.341
 20
6.554
 11
1.349
 21
6.568
  0
LINE
  8
PEN1
 10
1.349
 20
6.568
 11
1.373
 21
6.581
  0
LINE
  8
PEN1
 10
1.373
 20
6.581
 11
1.361
 21
6.552
  0
LINE
  8
PEN1
 10
1.361
 20
6.552
 11
1.366
 21
6.538
  0
LINE
  8
PEN1
 10
1.366
 20
6.538
 11
1.375
 21
6.565
  0
LINE
  8
PEN1
 10
1.375
 20
6.565
 11
1.397
 21
6.576
  0
LINE
  8
PEN1
 10
1.397
 20
6.576
 11
1.386
 21
6.558
  0
LINE
  8
PEN1
 10
1.386
 20
6.558
 11
1.398
 21
6.548
  0
LINE
  8
PEN1
 10
1.398
 20
6.548
 11
1.398
 21
6.563
  0
LINE
  8
PEN1
 10
1.398
 20
6.563
 11
1.41
 21
6.575
  0
LINE
  8
PEN1
 10
1.41
 20
6.575
 11
1.422
 21
6.595
  0
LINE
  8
PEN1
 10
1.422
 20
6.595
 11
1.419
 21
6.61
  0
LINE
  8
PEN1
 10
1.419
 20
6.61
 11
1.398
 21
6.609
  0
LINE
  8
PEN1
 10
1.398
 20
6.609
 11
1.402
 21
6.628
  0
LINE
  8
PEN1
 10
1.402
 20
6.628
 11
1.413
 21
6.617
  0
LINE
  8
PEN1
 10
1.413
 20
6.617
 11
1.414
 21
6.648
  0
LINE
  8
PEN1
 10
1.414
 20
6.648
 11
1.441
 21
6.646
  0
LINE
  8
PEN1
 10
1.441
 20
6.646
 11
1.443
 21
6.676
  0
LINE
  8
PEN1
 10
1.443
 20
6.676
 11
1.433
 21
6.691
  0
LINE
  8
PEN1
 10
1.433
 20
6.691
 11
1.432
 21
6.664
  0
LINE
  8
PEN1
 10
1.432
 20
6.664
 11
1.425
 21
6.67
  0
LINE
  8
PEN1
 10
1.425
 20
6.67
 11
1.407
 21
6.656
  0
LINE
  8
PEN1
 10
1.407
 20
6.656
 11
1.395
 21
6.639
  0
LINE
  8
PEN1
 10
1.395
 20
6.639
 11
1.38
 21
6.638
  0
LINE
  8
PEN1
 10
1.38
 20
6.638
 11
1.352
 21
6.62
  0
LINE
  8
PEN1
 10
1.352
 20
6.62
 11
1.331
 21
6.595
  0
LINE
  8
PEN1
 10
1.331
 20
6.595
 11
1.369
 21
6.594
  0
LINE
  8
PEN1
 10
1.369
 20
6.594
 11
1.336
 21
6.586
  0
LINE
  8
PEN1
 10
1.336
 20
6.586
 11
1.32
 21
6.592
  0
LINE
  8
PEN1
 10
1.32
 20
6.592
 11
1.352
 21
6.638
  0
LINE
  8
PEN1
 10
1.352
 20
6.638
 11
1.375
 21
6.649
  0
LINE
  8
PEN1
 10
1.375
 20
6.649
 11
1.399
 21
6.678
  0
LINE
  8
PEN1
 10
1.399
 20
6.678
 11
1.404
 21
6.662
  0
LINE
  8
PEN1
 10
1.404
 20
6.662
 11
1.418
 21
6.676
  0
LINE
  8
PEN1
 10
1.418
 20
6.676
 11
1.432
 21
6.707
  0
LINE
  8
PEN1
 10
1.432
 20
6.707
 11
1.428
 21
6.728
  0
LINE
  8
PEN1
 10
1.428
 20
6.728
 11
1.423
 21
6.712
  0
LINE
  8
PEN1
 10
1.423
 20
6.712
 11
1.415
 21
6.714
  0
LINE
  8
PEN1
 10
1.415
 20
6.714
 11
1.422
 21
6.737
  0
LINE
  8
PEN1
 10
1.422
 20
6.737
 11
1.412
 21
6.737
  0
LINE
  8
PEN1
 10
1.412
 20
6.737
 11
1.41
 21
6.717
  0
LINE
  8
PEN1
 10
1.41
 20
6.717
 11
1.4
 21
6.711
  0
LINE
  8
PEN1
 10
1.4
 20
6.711
 11
1.399
 21
6.732
  0
LINE
  8
PEN1
 10
1.399
 20
6.732
 11
1.391
 21
6.737
  0
LINE
  8
PEN1
 10
1.391
 20
6.737
 11
1.384
 21
6.727
  0
LINE
  8
PEN1
 10
1.384
 20
6.727
 11
1.371
 21
6.756
  0
LINE
  8
PEN1
 10
1.371
 20
6.756
 11
1.344
 21
6.757
  0
LINE
  8
PEN1
 10
1.344
 20
6.757
 11
1.243
 21
6.808
  0
LINE
  8
PEN1
 10
1.243
 20
6.808
 11
1.172
 21
6.872
  0
LINE
  8
PEN1
 10
1.172
 20
6.872
 11
1.151
 21
6.826
  0
LINE
  8
PEN1
 10
1.151
 20
6.826
 11
1.15
 21
6.768
  0
LINE
  8
PEN1
 10
1.394
 20
6.836
 11
1.394
 21
6.836
  0
LINE
  8
PEN1
 10
1.394
 20
6.836
 11
1.437
 21
6.864
  0
LINE
  8
PEN1
 10
1.437
 20
6.864
 11
1.447
 21
6.837
  0
LINE
  8
PEN1
 10
1.447
 20
6.837
 11
1.438
 21
6.801
  0
LINE
  8
PEN1
 10
1.438
 20
6.801
 11
1.394
 21
6.836
  0
LINE
  8
PEN1
 10
1.43
 20
6.758
 11
1.43
 21
6.758
  0
LINE
  8
PEN1
 10
1.43
 20
6.758
 11
1.453
 21
6.783
  0
LINE
  8
PEN1
 10
1.453
 20
6.783
 11
1.468
 21
6.768
  0
LINE
  8
PEN1
 10
1.468
 20
6.768
 11
1.458
 21
6.693
  0
LINE
  8
PEN1
 10
1.458
 20
6.693
 11
1.43
 21
6.758
  0
LINE
  8
PEN1
 10
7.537
 20
4.206
 11
7.537
 21
4.206
  0
LINE
  8
PEN1
 10
7.537
 20
4.206
 11
7.567
 21
4.101
  0
LINE
  8
PEN1
 10
7.567
 20
4.101
 11
7.601
 21
4.064
  0
LINE
  8
PEN1
 10
7.601
 20
4.064
 11
7.666
 21
4.027
  0
LINE
  8
PEN1
 10
7.666
 20
4.027
 11
7.714
 21
3.969
  0
LINE
  8
PEN1
 10
7.714
 20
3.969
 11
7.775
 21
3.998
  0
LINE
  8
PEN1
 10
7.775
 20
3.998
 11
7.8
 21
3.98
  0
LINE
  8
PEN1
 10
7.8
 20
3.98
 11
7.837
 21
3.998
  0
LINE
  8
PEN1
 10
7.837
 20
3.998
 11
7.86
 21
4.03
  0
LINE
  8
PEN1
 10
7.86
 20
4.03
 11
7.926
 21
4.041
  0
LINE
  8
PEN1
 10
7.926
 20
4.041
 11
7.961
 21
4.088
  0
LINE
  8
PEN1
 10
7.961
 20
4.088
 11
7.943
 21
4.101
  0
LINE
  8
PEN1
 10
7.943
 20
4.101
 11
8.006
 21
4.243
  0
LINE
  8
PEN1
 10
8.006
 20
4.243
 11
8.02
 21
4.316
  0
LINE
  8
PEN1
 10
8.02
 20
4.316
 11
8.08
 21
4.287
  0
LINE
  8
PEN1
 10
8.08
 20
4.287
 11
8.109
 21
4.37
  0
LINE
  8
PEN1
 10
8.109
 20
4.37
 11
8.141
 21
4.375
  0
LINE
  8
PEN1
 10
8.141
 20
4.375
 11
8.186
 21
4.455
  0
LINE
  8
PEN1
 10
8.186
 20
4.455
 11
8.2
 21
4.54
  0
LINE
  8
PEN1
 10
8.2
 20
4.54
 11
8.294
 21
4.487
  0
LINE
  8
PEN1
 10
8.294
 20
4.487
 11
8.309
 21
4.531
  0
LINE
  8
PEN1
 10
8.309
 20
4.531
 11
8.285
 21
4.565
  0
LINE
  8
PEN1
 10
8.285
 20
4.565
 11
8.243
 21
4.584
  0
LINE
  8
PEN1
 10
8.243
 20
4.584
 11
8.192
 21
4.578
  0
LINE
  8
PEN1
 10
8.192
 20
4.578
 11
8.174
 21
4.549
  0
LINE
  8
PEN1
 10
8.174
 20
4.549
 11
8.081
 21
4.523
  0
LINE
  8
PEN1
 10
8.081
 20
4.523
 11
8.023
 21
4.453
  0
LINE
  8
PEN1
 10
8.023
 20
4.453
 11
8.003
 21
4.564
  0
LINE
  8
PEN1
 10
8.003
 20
4.564
 11
7.836
 21
4.536
  0
LINE
  8
PEN1
 10
7.836
 20
4.536
 11
7.804
 21
4.736
  0
LINE
  8
PEN1
 10
7.804
 20
4.736
 11
7.78
 21
4.719
  0
LINE
  8
PEN1
 10
7.78
 20
4.719
 11
7.794
 21
4.682
  0
LINE
  8
PEN1
 10
7.794
 20
4.682
 11
7.773
 21
4.504
  0
LINE
  8
PEN1
 10
7.773
 20
4.504
 11
7.743
 21
4.465
  0
LINE
  8
PEN1
 10
7.743
 20
4.465
 11
7.652
 21
4.398
  0
LINE
  8
PEN1
 10
7.652
 20
4.398
 11
7.635
 21
4.322
  0
LINE
  8
PEN1
 10
7.635
 20
4.322
 11
7.601
 21
4.341
  0
LINE
  8
PEN1
 10
7.601
 20
4.341
 11
7.591
 21
4.252
  0
LINE
  8
PEN1
 10
7.591
 20
4.252
 11
7.537
 21
4.206
  0
LINE
  8
PEN1
 10
5.756
 20
5.636
 11
5.756
 21
5.636
  0
LINE
  8
PEN1
 10
5.756
 20
5.636
 11
5.78
 21
5.562
  0
LINE
  8
PEN1
 10
5.78
 20
5.562
 11
5.777
 21
5.445
  0
LINE
  8
PEN1
 10
5.777
 20
5.445
 11
5.887
 21
5.376
  0
LINE
  8
PEN1
 10
5.887
 20
5.376
 11
5.931
 21
5.328
  0
LINE
  8
PEN1
 10
5.931
 20
5.328
 11
5.994
 21
5.287
  0
LINE
  8
PEN1
 10
5.994
 20
5.287
 11
6.019
 21
5.258
  0
LINE
  8
PEN1
 10
6.019
 20
5.258
 11
6.032
 21
5.181
  0
LINE
  8
PEN1
 10
6.032
 20
5.181
 11
6.049
 21
5.071
  0
LINE
  8
PEN1
 10
6.049
 20
5.071
 11
6.135
 21
4.969
  0
LINE
  8
PEN1
 10
6.135
 20
4.969
 11
6.587
 21
4.998
  0
LINE
  8
PEN1
 10
6.587
 20
4.998
 11
6.561
 21
5.147
  0
LINE
  8
PEN1
 10
6.561
 20
5.147
 11
6.577
 21
5.301
  0
LINE
  8
PEN1
 10
6.577
 20
5.301
 11
6.603
 21
5.369
  0
LINE
  8
PEN1
 10
6.603
 20
5.369
 11
6.6
 21
5.432
  0
LINE
  8
PEN1
 10
6.6
 20
5.432
 11
6.657
 21
5.57
  0
LINE
  8
PEN1
 10
6.657
 20
5.57
 11
6.667
 21
5.606
  0
LINE
  8
PEN1
 10
6.667
 20
5.606
 11
6.65
 21
5.612
  0
LINE
  8
PEN1
 10
6.65
 20
5.612
 11
6.627
 21
5.584
  0
LINE
  8
PEN1
 10
6.627
 20
5.584
 11
6.609
 21
5.512
  0
LINE
  8
PEN1
 10
6.609
 20
5.512
 11
6.572
 21
5.506
  0
LINE
  8
PEN1
 10
6.572
 20
5.506
 11
6.555
 21
5.464
  0
LINE
  8
PEN1
 10
6.555
 20
5.464
 11
6.517
 21
5.434
  0
LINE
  8
PEN1
 10
6.517
 20
5.434
 11
6.521
 21
5.48
  0
LINE
  8
PEN1
 10
6.521
 20
5.48
 11
6.545
 21
5.528
  0
LINE
  8
PEN1
 10
6.545
 20
5.528
 11
6.571
 21
5.543
  0
LINE
  8
PEN1
 10
6.571
 20
5.543
 11
6.573
 21
5.563
  0
LINE
  8
PEN1
 10
6.573
 20
5.563
 11
6.524
 21
5.695
  0
LINE
  8
PEN1
 10
6.524
 20
5.695
 11
6.49
 21
5.706
  0
LINE
  8
PEN1
 10
6.49
 20
5.706
 11
6.477
 21
5.736
  0
LINE
  8
PEN1
 10
6.477
 20
5.736
 11
6.39
 21
5.747
  0
LINE
  8
PEN1
 10
6.39
 20
5.747
 11
6.201
 21
5.796
  0
LINE
  8
PEN1
 10
6.201
 20
5.796
 11
6.124
 21
5.85
  0
LINE
  8
PEN1
 10
6.124
 20
5.85
 11
6.081
 21
5.87
  0
LINE
  8
PEN1
 10
6.081
 20
5.87
 11
6.055
 21
5.851
  0
LINE
  8
PEN1
 10
6.055
 20
5.851
 11
6.046
 21
5.855
  0
LINE
  8
PEN1
 10
6.046
 20
5.855
 11
6.059
 21
5.87
  0
LINE
  8
PEN1
 10
6.059
 20
5.87
 11
6.06
 21
5.895
  0
LINE
  8
PEN1
 10
6.06
 20
5.895
 11
6.068
 21
5.903
  0
LINE
  8
PEN1
 10
6.068
 20
5.903
 11
6.069
 21
5.921
  0
LINE
  8
PEN1
 10
6.069
 20
5.921
 11
6.057
 21
5.928
  0
LINE
  8
PEN1
 10
6.057
 20
5.928
 11
5.951
 21
5.88
  0
LINE
  8
PEN1
 10
5.951
 20
5.88
 11
5.912
 21
5.865
  0
LINE
  8
PEN1
 10
5.912
 20
5.865
 11
5.896
 21
5.863
  0
LINE
  8
PEN1
 10
5.896
 20
5.863
 11
5.869
 21
5.877
  0
LINE
  8
PEN1
 10
5.869
 20
5.877
 11
5.864
 21
5.865
  0
LINE
  8
PEN1
 10
5.864
 20
5.865
 11
5.861
 21
5.878
  0
LINE
  8
PEN1
 10
5.861
 20
5.878
 11
5.84
 21
5.859
  0
LINE
  8
PEN1
 10
5.84
 20
5.859
 11
5.845
 21
5.749
  0
LINE
  8
PEN1
 10
5.845
 20
5.749
 11
5.756
 21
5.636
  0
LINE
  8
PEN1
 10
2.837
 20
4.826
 11
2.837
 21
4.826
  0
LINE
  8
PEN1
 10
2.837
 20
4.826
 11
2.873
 21
5.042
  0
LINE
  8
PEN1
 10
2.873
 20
5.042
 11
2.961
 21
5.577
  0
LINE
  8
PEN1
 10
2.961
 20
5.577
 11
2.98
 21
5.685
  0
LINE
  8
PEN1
 10
2.98
 20
5.685
 11
3.458
 21
5.614
  0
LINE
  8
PEN1
 10
3.458
 20
5.614
 11
4.047
 21
5.552
  0
LINE
  8
PEN1
 10
4.047
 20
5.552
 11
4.007
 21
5.119
  0
LINE
  8
PEN1
 10
4.007
 20
5.119
 11
3.967
 21
4.684
  0
LINE
  8
PEN1
 10
3.967
 20
4.684
 11
3.16
 21
4.776
  0
LINE
  8
PEN1
 10
3.16
 20
4.776
 11
2.837
 21
4.826
  0
LINE
  8
PEN1
 10
8.871
 20
4.33
 11
8.727
 21
4.363
  0
LINE
  8
PEN1
 10
8.847
 20
4.494
 11
8.719
 21
4.486
  0
LINE
  8
PEN1
 10
9.291
 20
5.1
 11
9.176
 21
5.219
  0
LINE
  8
PEN1
 10
8.359
 20
4.414
 11
8.437
 21
4.461
  0
TEXT
  8
0
 10
1.357966
 20
6.349696
 40
0.078
  1
WASHINGTON
  0
TEXT
  8
0
 10
1.227978
 20
5.759283
 40
0.078
  1
OREGON
  0
TEXT
  8
0
 10
3.059919
 20
6.000231
 40
0.078
  1
MONTANA
  0
TEXT
  8
0
 10
2.239884
 20
5.487068
 40
0.078
  1
IDAHO
  0
TEXT
  8
0
 10
3.18645
 20
5.116451
 40
0.078
  1
WYOMING
  0
TEXT
  8
0
 10
1.634538
 20
4.681458
 40
0.078
  1
NEVADA
  0
TEXT
  8
0
 10
2.573844
 20
4.452926
 40
0.078
  1
UTAH
  0
TEXT
  8
0
 10
1.094532
 20
3.826647
 40
0.078
  1
CALIFORNIA
  0
TEXT
  8
0
 10
2.24749
 20
3.387056
 40
0.078
  1
ARIZONA
  0
TEXT
  8
0
 10
1.804975
 20
2.164387
 40
0.078
  1
ALASKA
  0
TEXT
  8
0
 10
3.585059
 20
1.128406
 40
0.078
  1
HAWAII
  0
TEXT
  8
0
 10
3.124913
 20
3.233016
 40
0.078
  1
NEW MEXICO
  0
TEXT
  8
0
 10
3.374173
 20
4.219796
 40
0.078
  1
COLORADO
  0
TEXT
  8
0
 10
4.187985
 20
5.995632
 40
0.078
  1
NORTH DAKOTA
  0
TEXT
  8
0
 10
5.237574
 20
5.995632
 40
0.078
  1
MINNESOTA
  0
TEXT
  8
0
 10
4.204234
 20
5.237384
 40
0.078
  1
SOUTH DAKOTA
  0
TEXT
  8
0
 10
5.610255
 20
4.810959
 40
0.078
  1
IOWA
  0
TEXT
  8
0
 10
5.617069
 20
3.931441
 40
0.078
  1
MISSOURI
  0
TEXT
  8
0
 10
4.654354
 20
4.056751
 40
0.078
  1
KANSAS
  0
TEXT
  8
0
 10
4.479322
 20
4.685922
 40
0.078
  1
NEBRASKA
  0
TEXT
  8
0
 10
4.759797
 20
3.396253
 40
0.078
  1
OKLAHOMA
  0
TEXT
  8
0
 10
4.51434
 20
2.565813
 40
0.078
  1
TEXAS
  0
TEXT
  8
0
 10
5.855712
 20
2.596161
 40
0.078
  1
LA
  0
TEXT
  8
0
 10
5.62028
 20
3.347052
 40
0.078
  1
ARKANSAS
  0
TEXT
  8
0
 10
5.848452
 20
5.510979
 40
0.078
  1
WISCONSIN
  0
TEXT
  8
0
 10
6.130901
 20
4.464422
 40
0.078
  1
ILLINOIS
  0
TEXT
  8
0
 10
6.87073
 20
4.532016
 40
0.078
  1
IN
  0
TEXT
  8
0
 10
6.852407
 20
5.153697
 40
0.078
  1
MICHIGAN
  0
TEXT
  8
0
 10
7.328801
 20
4.612485
 40
0.078
  1
OHIO
  0
TEXT
  8
0
 10
7.70805
 20
4.169675
 40
0.078
  1
WV
  0
TEXT
  8
0
 10
6.802278
 20
3.876768
 40
0.078
  1
KENTUCKY
  0
TEXT
  8
0
 10
6.557512
 20
3.513968
 40
0.078
  1
TENNESSEE
  0
TEXT
  8
0
 10
6.353541
 20
2.966318
 40
0.078
  1
MS
  0
TEXT
  8
0
 10
6.718961
 20
2.800322
 40
0.078
  1
ALABAMA
  0
TEXT
  8
0
 10
7.36683
 20
2.91114
 40
0.078
  1
GEORGIA
  0
TEXT
  8
0
 10
8.022996
 20
1.852167
 40
0.078
  1
FL
  0
TEXT
  8
0
 10
7.833319
 20
4.778636
 40
0.078
  1
PENNSYLVANIA
  0
TEXT
  8
0
 10
8.212793
 20
4.329346
 40
0.078
  1
DC
  0
TEXT
  8
0
 10
7.999655
 20
3.996929
 40
0.078
  1
VIRGINIA
  0
TEXT
  8
0
 10
7.736399
 20
3.621566
 40
0.078
  1
NO. CAROLINA
  0
TEXT
  8
0
 10
7.884278
 20
3.363494
 40
0.078
  1
SO.
  0
TEXT
  8
0
 10
7.708309
 20
3.235758
 40
0.078
  1
CAROLINA
  0
TEXT
  8
0
 10
8.698406
 20
4.636986
 40
0.078
  1
NJ
  0
TEXT
  8
0
 10
8.883506
 20
4.45858
 40
0.078
  1
DE
  0
TEXT
  8
0
 10
8.897393
 20
4.292555
 40
0.078
  1
MD
  0
TEXT
  8
0
 10
8.204825
 20
5.243431
 40
0.078
  1
NEW YORK
  0
TEXT
  8
0
 10
9.319548
 20
5.015908
 40
0.078
  1
RI
  0
TEXT
  8
0
 10
8.820097
 20
5.735416
 40
0.078
  1
VT
  0
TEXT
  8
0
 10
8.954077
 20
5.169754
 40
0.078
  1
CT
  0
TEXT
  8
0
 10
9.014201
 20
5.342071
 40
0.078
  1
MA
  0
TEXT
  8
0
 10
9.004892
 20
5.545036
 40
0.078
  1
NH
  0
TEXT
  8
0
 10
9.213187
 20
6.073961
 40
0.078
  1
MAINE
  0
ENDSEC
  0
EOF
