0
SECTION
2
HEADER
9
$LTSCALE
40
20.0000000
9
$LIMMIN
10
0.0000000
20
0.0000000
9
$LIMMAX
10
297.0000000
20
210.0000000
9
$EXTMIN
10
0.0479600
20
0.9600000
9
$EXTMAX
10
3.9178801
20
7.4175601
9
$SNAPMODE
70
0
9
$SNAPUNIT
10
10.0000000
20
10.0000000
9
$GRIDMODE
70
0
9
$GRIDUNIT
10
10.0000000
20
10.0000000
9
$ORTHOMODE
70
0
9
$TEXTSTYLE
7
txt
9
$CLAYER
8
1
9
$CECOLOR
62
7
9
$CELTYPE
6
CONTINUOUS
9
$PLINEWID
40
0.0000000
9
$OSMODE
70
0
9
$FILLMODE
70
1
9
$CHAMFERA
40
10.0000000
9
$CHAMFERB
40
10.0000000
9
$COORDS
70
2
9
$FILLETRAD
40
10.0000000
9
$INSBASE
10
0.0000000
20
0.0000000
9
$SPLFRAME
70
0
9
$SPLINESEGS
70
8
0
ENDSEC
0
SECTION
2
TABLES
0
TABLE
2
LTYPE
70
9
0
LTYPE
2
DISCONTINUE
70
0
3
__ __ __ __ __ __ __ __ __ __ __ __ __ __ __
72
65
73
2
40
0.7500000
49
0.5000000
49
-0.2500000
0
LTYPE
2
CACHE
70
0
3
_ _ _ _ _ _ _ _ _ _ _ _ _ _ _ _ _ _ _ _ _ _ 
72
65
73
2
40
0.2500000
49
0.1250000
49
-0.1250000
0
LTYPE
2
AXES
70
0
3
____ _ ____ _ ____ _ ____ _ ____ _ ____ _ __
72
65
73
4
40
2.0000000
49
1.2500000
49
-0.2500000
49
0.2500000
49
-0.2500000
0
LTYPE
2
FANTOME
70
0
3
_____ _ _ _____ _ _ _____ _ _ _____ _ _ ____
72
65
73
6
40
2.5000000
49
1.2500000
49
-0.2500000
49
0.2500000
49
-0.2500000
49
0.2500000
49
-0.2500000
0
LTYPE
2
POINTILLE
70
0
3
............................................
72
65
73
2
40
0.2500000
49
0.0000000
49
-0.2500000
0
LTYPE
2
MIXTE
70
0
3
__ . __ . __ . __ . __ . __ . __ . __ . __ .
72
65
73
4
40
1.0000000
49
0.5000000
49
-0.2500000
49
0.0000000
49
-0.2500000
0
LTYPE
2
BORDURE
70
0
3
__ __ . __ __ . __ __ . __ __ . __ __ . __ _
72
65
73
6
40
1.7500000
49
0.5000000
49
-0.2500000
49
0.5000000
49
-0.2500000
49
0.0000000
49
-0.2500000
0
LTYPE
2
DIVISE
70
0
3
__ . . __ . . __ . . __ . . __ . . __ . . __
72
65
73
6
40
1.2500000
49
0.5000000
49
-0.2500000
49
0.0000000
49
-0.2500000
49
0.0000000
49
-0.2500000
0
LTYPE
2
POINTILLES
70
0
3
fermer
72
65
73
2
40
0.1000000
49
0.0500000
49
-0.0500000
0
ENDTAB
0
TABLE
2
STYLE
70
1
0
STYLE
2
STANDARD
70
0
40
0.0000000
41
1.0000000
50
0.0000000
71
0
42
0.2000000
3
txt
4

0
ENDTAB
0
TABLE
2
LAYER
70
10
0
LAYER
2
1
70
0
62
7
6
CONTINUOUS
0
LAYER
2
2
70
0
62
7
6
CONTINUOUS
0
LAYER
2
3
70
0
62
7
6
CONTINUOUS
0
LAYER
2
4
70
0
62
7
6
CONTINUOUS
0
LAYER
2
5
70
0
62
7
6
CONTINUOUS
0
LAYER
2
6
70
0
62
7
6
CONTINUOUS
0
LAYER
2
7
70
0
62
7
6
CONTINUOUS
0
LAYER
2
8
70
0
62
7
6
CONTINUOUS
0
LAYER
2
9
70
0
62
7
6
CONTINUOUS
0
LAYER
2
10
70
0
62
7
6
CONTINUOUS
0
ENDTAB
0
ENDSEC
0
SECTION
2
ENTITIES
0
POLYLINE
8
1
62
15
70
0
66
1
40
0.0000000
41
0.0000000
0
VERTEX
8
1
10
1.0024000
20
7.2240000
0
VERTEX
8
1
10
1.5347199
20
7.3691602
0
VERTEX
8
1
10
2.2242401
20
7.4175601
0
VERTEX
8
1
10
2.3694401
20
7.2603202
0
VERTEX
8
1
10
2.5750799
20
6.9820399
0
VERTEX
8
1
10
2.8774800
20
6.8368802
0
VERTEX
8
1
10
2.8351600
20
6.8247600
0
VERTEX
8
1
10
2.6295199
20
6.6977601
0
VERTEX
8
1
10
2.6899600
20
6.6445599
0
VERTEX
8
1
10
2.6960800
20
6.5586400
0
VERTEX
8
1
10
2.6416399
20
6.4836402
0
VERTEX
8
1
10
2.5448401
20
6.4376402
0
VERTEX
8
1
10
2.4988799
20
6.4292402
0
VERTEX
8
1
10
2.3415599
20
6.2646799
0
VERTEX
8
1
10
2.3936000
20
6.1775599
0
VERTEX
8
1
10
2.5993199
20
6.1170802
0
VERTEX
8
1
10
2.7142000
20
5.8872399
0
VERTEX
8
1
10
3.1315601
20
5.6029201
0
VERTEX
8
1
10
3.6275599
20
5.1565599
0
VERTEX
8
1
10
3.7968800
20
4.9509201
0
VERTEX
8
1
10
3.8211200
20
4.6968799
0
VERTEX
8
1
10
3.7122400
20
4.4912000
0
VERTEX
8
1
10
3.4823599
20
4.3460398
0
VERTEX
8
1
10
3.2525201
20
4.1766801
0
VERTEX
8
1
10
3.1073599
20
3.9226401
0
VERTEX
8
1
10
2.9984400
20
3.7653601
0
VERTEX
8
1
10
3.0105600
20
3.3903601
0
VERTEX
8
1
10
3.1194401
20
2.8822401
0
VERTEX
8
1
10
3.3371999
20
2.4479599
0
VERTEX
8
1
10
3.3371999
20
2.2907200
0
VERTEX
8
1
10
3.4944799
20
2.0366800
0
VERTEX
8
1
10
3.7363999
20
1.8068000
0
VERTEX
8
1
10
3.8936400
20
1.6132400
0
VERTEX
8
1
10
3.9178801
20
1.2503200
0
VERTEX
8
1
10
2.3330801
20
1.1535600
0
VERTEX
8
1
10
2.3330801
20
1.3955200
0
VERTEX
8
1
10
2.2847600
20
1.5406801
0
VERTEX
8
1
10
2.1154001
20
2.4479599
0
VERTEX
8
1
10
1.8613200
20
2.3995600
0
VERTEX
8
1
10
1.6315200
20
1.7946800
0
VERTEX
8
1
10
1.6677600
20
1.4318000
0
VERTEX
8
1
10
1.5710000
20
1.1656400
0
VERTEX
8
1
10
1.3532400
20
1.0326000
0
VERTEX
8
1
10
0.9189600
20
1.0204800
0
VERTEX
8
1
10
0.3866800
20
0.9842400
0
VERTEX
8
1
10
0.1689200
20
0.9600000
0
VERTEX
8
1
10
0.0479600
20
1.3471200
0
VERTEX
8
1
10
0.2173200
20
1.4923199
0
VERTEX
8
1
10
0.3987600
20
1.7342000
0
VERTEX
8
1
10
0.3987600
20
1.9882400
0
VERTEX
8
1
10
0.5802400
20
2.2060399
0
VERTEX
8
1
10
0.6648800
20
2.5314400
0
VERTEX
8
1
10
0.7133200
20
2.7612801
0
VERTEX
8
1
10
0.8342800
20
2.9548399
0
VERTEX
8
1
10
0.9310400
20
3.3178000
0
VERTEX
8
1
10
0.9310400
20
3.5234399
0
VERTEX
8
1
10
0.8342800
20
3.7291200
0
VERTEX
8
1
10
0.5923200
20
3.8863599
0
VERTEX
8
1
10
0.3866800
20
4.0798802
0
VERTEX
8
1
10
0.3140800
20
4.2492399
0
VERTEX
8
1
10
0.3140800
20
4.4912000
0
VERTEX
8
1
10
0.4834400
20
4.7089601
0
VERTEX
8
1
10
0.5076400
20
5.0234799
0
VERTEX
8
1
10
0.5560400
20
5.1444802
0
VERTEX
8
1
10
0.6770000
20
5.1807599
0
VERTEX
8
1
10
0.8100800
20
5.3501201
0
VERTEX
8
1
10
0.8705600
20
5.4710798
0
VERTEX
8
1
10
0.9480000
20
5.6210799
0
VERTEX
8
1
10
1.0447600
20
5.7553601
0
VERTEX
8
1
10
1.0629200
20
5.9054399
0
VERTEX
8
1
10
1.1234400
20
5.9900799
0
VERTEX
8
1
10
1.2298400
20
6.0336399
0
VERTEX
8
1
10
1.1548400
20
6.1230798
0
VERTEX
8
1
10
0.9419600
20
6.1110401
0
VERTEX
8
1
10
0.9322800
20
6.2259598
0
VERTEX
8
1
10
0.9661600
20
6.2925200
0
VERTEX
8
1
10
0.7374800
20
6.3166800
0
VERTEX
8
1
10
0.7496000
20
6.4739599
0
VERTEX
8
1
10
0.8342800
20
6.6675601
0
VERTEX
8
1
10
0.9722400
20
6.7945199
0
VERTEX
8
1
10
0.9782000
20
7.0304399
0
VERTEX
8
1
10
1.0024000
20
7.2240000
0
SEQEND
8
1
0
POLYLINE
8
1
62
15
70
0
66
1
40
0.0000000
41
0.0000000
0
VERTEX
8
1
10
0.4230000
20
1.7342000
0
VERTEX
8
1
10
0.5318400
20
1.7463200
0
VERTEX
8
1
10
0.6407200
20
1.7463200
0
VERTEX
8
1
10
0.7374800
20
1.7342000
0
VERTEX
8
1
10
0.8826400
20
1.6979200
0
VERTEX
8
1
10
0.9903200
20
1.6737601
0
VERTEX
8
1
10
1.1355200
20
1.6495600
0
VERTEX
8
1
10
1.2443600
20
1.6011200
0
VERTEX
8
1
10
1.4016401
20
1.5286000
0
VERTEX
8
1
10
1.5468000
20
1.4559600
0
VERTEX
8
1
10
1.6436000
20
1.4438800
0
SEQEND
8
1
0
POLYLINE
8
1
62
15
70
0
66
1
40
0.0000000
41
0.0000000
0
VERTEX
8
1
10
0.0479600
20
1.3592000
0
VERTEX
8
1
10
0.1810000
20
1.3713599
0
VERTEX
8
1
10
0.3382800
20
1.3713599
0
VERTEX
8
1
10
0.5318400
20
1.3471200
0
VERTEX
8
1
10
0.7012000
20
1.3350400
0
VERTEX
8
1
10
0.8826400
20
1.3108000
0
VERTEX
8
1
10
1.0145200
20
1.2987601
0
VERTEX
8
1
10
1.1355200
20
1.2987601
0
VERTEX
8
1
10
1.2806799
20
1.3108000
0
VERTEX
8
1
10
1.4258400
20
1.3108000
0
VERTEX
8
1
10
1.5347199
20
1.3229200
0
VERTEX
8
1
10
1.5951999
20
1.3229200
0
SEQEND
8
1
0
POLYLINE
8
1
62
15
70
0
66
1
40
0.0000000
41
0.0000000
0
VERTEX
8
1
10
2.2968400
20
1.5043600
0
VERTEX
8
1
10
2.4299200
20
1.4923199
0
VERTEX
8
1
10
2.4783199
20
1.5648800
0
VERTEX
8
1
10
2.5750799
20
1.6132400
0
VERTEX
8
1
10
2.7444401
20
1.7221200
0
VERTEX
8
1
10
2.9016800
20
1.7705200
0
VERTEX
8
1
10
3.1194401
20
1.8431200
0
VERTEX
8
1
10
3.2646401
20
1.9277600
0
VERTEX
8
1
10
3.3855600
20
1.9640800
0
VERTEX
8
1
10
3.4944799
20
2.0124800
0
SEQEND
8
1
0
POLYLINE
8
1
62
15
70
0
66
1
40
0.0000000
41
0.0000000
0
VERTEX
8
1
10
2.3391600
20
1.4136400
0
VERTEX
8
1
10
2.4177999
20
1.4196800
0
VERTEX
8
1
10
2.5387599
20
1.4196800
0
VERTEX
8
1
10
2.6355600
20
1.4196800
0
VERTEX
8
1
10
2.7444401
20
1.4196800
0
VERTEX
8
1
10
2.8049200
20
1.4196800
0
VERTEX
8
1
10
2.9258800
20
1.4075600
0
VERTEX
8
1
10
3.0347600
20
1.4196800
0
VERTEX
8
1
10
3.1860001
20
1.4499201
0
VERTEX
8
1
10
3.2767601
20
1.4802001
0
SEQEND
8
1
0
POLYLINE
8
1
62
15
70
0
66
1
40
0.0000000
41
0.0000000
0
VERTEX
8
1
10
3.2767601
20
1.4802001
0
VERTEX
8
1
10
3.3009200
20
1.4862400
0
VERTEX
8
1
10
3.3565600
20
1.4983200
0
VERTEX
8
1
10
3.4219201
20
1.5043600
0
SEQEND
8
1
0
POLYLINE
8
1
62
15
70
0
66
1
40
0.0000000
41
0.0000000
0
VERTEX
8
1
10
3.4219201
20
1.5043600
0
VERTEX
8
1
10
3.4860401
20
1.5200800
0
VERTEX
8
1
10
3.5428400
20
1.5491600
0
VERTEX
8
1
10
3.5670800
20
1.5648800
0
SEQEND
8
1
0
POLYLINE
8
1
62
15
70
0
66
1
40
0.0000000
41
0.0000000
0
VERTEX
8
1
10
3.5670800
20
1.5648800
0
VERTEX
8
1
10
3.7363999
20
1.6011200
0
VERTEX
8
1
10
3.8694799
20
1.6132400
0
SEQEND
8
1
0
POLYLINE
8
1
62
15
70
0
66
1
40
0.0000000
41
0.0000000
0
VERTEX
8
1
10
0.9310400
20
3.4992001
0
VERTEX
8
1
10
1.0629200
20
3.4750400
0
VERTEX
8
1
10
1.1475600
20
3.4750400
0
VERTEX
8
1
10
1.3532400
20
3.4629200
0
VERTEX
8
1
10
1.5710000
20
3.4992001
0
VERTEX
8
1
10
1.7524400
20
3.5234399
0
VERTEX
8
1
10
1.8855600
20
3.5838799
0
VERTEX
8
1
10
2.0669601
20
3.6201999
0
VERTEX
8
1
10
2.2242401
20
3.6323199
0
VERTEX
8
1
10
2.3572800
20
3.6564801
0
VERTEX
8
1
10
2.5025201
20
3.6564801
0
VERTEX
8
1
10
2.6960800
20
3.6564801
0
VERTEX
8
1
10
2.9138000
20
3.6686001
0
VERTEX
8
1
10
3.0105600
20
3.7049201
0
SEQEND
8
1
0
POLYLINE
8
1
62
15
70
0
66
1
40
0.0000000
41
0.0000000
0
VERTEX
8
1
10
0.9419600
20
3.0999999
0
VERTEX
8
1
10
1.0266401
20
3.1484001
0
VERTEX
8
1
10
1.1355200
20
3.2210000
0
VERTEX
8
1
10
1.2564800
20
3.3056400
0
VERTEX
8
1
10
1.2927600
20
3.3661599
0
SEQEND
8
1
0
POLYLINE
8
1
62
15
70
0
66
1
40
0.0000000
41
0.0000000
0
VERTEX
8
1
10
2.5871601
20
3.6081200
0
VERTEX
8
1
10
2.6718400
20
3.5234399
0
VERTEX
8
1
10
2.7323201
20
3.4750400
0
VERTEX
8
1
10
2.7807200
20
3.4145601
0
VERTEX
8
1
10
2.9258800
20
3.3420000
0
VERTEX
8
1
10
3.0105600
20
3.3056400
0
SEQEND
8
1
0
POLYLINE
8
1
62
15
70
0
66
1
40
0.0000000
41
0.0000000
0
VERTEX
8
1
10
1.9823600
20
3.5234399
0
VERTEX
8
1
10
1.9581200
20
3.3782799
0
VERTEX
8
1
10
1.9097199
20
3.3056400
0
VERTEX
8
1
10
1.7888000
20
3.1968000
0
VERTEX
8
1
10
1.7161601
20
3.0757999
0
VERTEX
8
1
10
1.7524400
20
2.9911599
0
VERTEX
8
1
10
1.8734000
20
3.0153201
0
VERTEX
8
1
10
1.9823600
20
3.0516400
0
VERTEX
8
1
10
2.1154001
20
3.0879200
0
VERTEX
8
1
10
2.1274800
20
3.1847200
0
VERTEX
8
1
10
2.1154001
20
3.2814801
0
VERTEX
8
1
10
2.1395600
20
3.3420000
0
VERTEX
8
1
10
2.2242401
20
3.4508400
0
VERTEX
8
1
10
2.1637199
20
3.5234399
0
VERTEX
8
1
10
2.0548799
20
3.5234399
0
VERTEX
8
1
10
1.9823600
20
3.5234399
0
SEQEND
8
1
0
POLYLINE
8
1
62
15
70
0
66
1
40
0.0000000
41
0.0000000
0
VERTEX
8
1
10
1.0992000
20
5.3622398
0
VERTEX
8
1
10
1.1234400
20
5.1202402
0
VERTEX
8
1
10
1.0629200
20
4.9387598
0
VERTEX
8
1
10
0.9782000
20
4.6484399
0
VERTEX
8
1
10
0.8947600
20
4.4548802
0
VERTEX
8
1
10
0.8342800
20
4.2613201
0
VERTEX
8
1
10
0.8221600
20
3.9710000
0
VERTEX
8
1
10
0.8221600
20
3.8137600
0
VERTEX
8
1
10
0.7980000
20
3.7532799
0
SEQEND
8
1
0
POLYLINE
8
1
62
15
70
0
66
1
40
0.0000000
41
0.0000000
0
VERTEX
8
1
10
2.7686400
20
5.7118802
0
VERTEX
8
1
10
2.6960800
20
5.6513600
0
VERTEX
8
1
10
2.7202401
20
5.5436802
0
VERTEX
8
1
10
2.8170400
20
5.4590001
0
VERTEX
8
1
10
2.8654001
20
5.2654400
0
VERTEX
8
1
10
2.8654001
20
5.0114398
0
VERTEX
8
1
10
2.8774800
20
4.8904400
0
VERTEX
8
1
10
2.9621999
20
4.7452402
0
VERTEX
8
1
10
3.0468800
20
4.5879598
0
VERTEX
8
1
10
3.1194401
20
4.3340001
0
VERTEX
8
1
10
3.1194401
20
4.1887999
0
VERTEX
8
1
10
3.1436801
20
4.1040802
0
VERTEX
8
1
10
3.1678400
20
4.0315199
0
SEQEND
8
1
0
POLYLINE
8
1
62
15
70
0
66
1
40
0.0000000
41
0.0000000
0
VERTEX
8
1
10
1.1657600
20
6.1110401
0
VERTEX
8
1
10
1.1596800
20
6.1230798
0
VERTEX
8
1
10
1.2443600
20
6.0263200
0
VERTEX
8
1
10
1.3532400
20
5.9779601
0
VERTEX
8
1
10
1.4621201
20
5.9416800
0
VERTEX
8
1
10
1.6073200
20
5.9537601
0
VERTEX
8
1
10
1.7888000
20
5.9779601
0
VERTEX
8
1
10
1.9339200
20
6.0022001
0
VERTEX
8
1
10
2.0186000
20
6.0505600
0
VERTEX
8
1
10
2.1758800
20
6.1230798
0
VERTEX
8
1
10
2.2726800
20
6.1836400
0
VERTEX
8
1
10
2.3028800
20
6.2017598
0
VERTEX
8
1
10
2.3391600
20
6.2501998
0
SEQEND
8
1
0
POLYLINE
8
1
62
15
70
0
66
1
40
0.0000000
41
0.0000000
0
VERTEX
8
1
10
2.4904001
20
6.8247600
0
VERTEX
8
1
10
2.5266800
20
6.7643600
0
VERTEX
8
1
10
2.6113601
20
6.7038002
0
VERTEX
8
1
10
2.6718400
20
6.6675601
0
VERTEX
8
1
10
2.6960800
20
6.5707998
0
VERTEX
8
1
10
2.6476800
20
6.4739599
0
VERTEX
8
1
10
2.5871601
20
6.4497600
0
VERTEX
8
1
10
2.5266800
20
6.4497600
0
SEQEND
8
1
0
POLYLINE
8
1
62
15
70
0
66
1
40
0.0000000
41
0.0000000
0
VERTEX
8
1
10
1.0024000
20
6.4376402
0
VERTEX
8
1
10
1.0024000
20
6.3530002
0
VERTEX
8
1
10
0.9661600
20
6.2682800
0
SEQEND
8
1
0
POLYLINE
8
1
62
15
70
0
66
1
40
0.0000000
41
0.0000000
0
VERTEX
8
1
10
0.7616800
20
6.3288002
0
VERTEX
8
1
10
0.8705600
20
6.3650799
0
VERTEX
8
1
10
0.9661600
20
6.4134798
0
VERTEX
8
1
10
1.0629200
20
6.4739599
0
VERTEX
8
1
10
1.1355200
20
6.5102401
0
VERTEX
8
1
10
1.2564800
20
6.5828800
0
VERTEX
8
1
10
1.3774400
20
6.6191201
0
VERTEX
8
1
10
1.5105200
20
6.6553998
0
VERTEX
8
1
10
1.6677600
20
6.7038002
0
VERTEX
8
1
10
1.8250400
20
6.7522001
0
VERTEX
8
1
10
1.9944000
20
6.8005600
0
VERTEX
8
1
10
2.2484400
20
6.8247600
0
VERTEX
8
1
10
2.4177999
20
6.8368802
0
VERTEX
8
1
10
2.6113601
20
6.8247600
0
VERTEX
8
1
10
2.8290801
20
6.8247600
0
SEQEND
8
1
0
POLYLINE
8
1
62
15
70
0
66
1
40
0.0000000
41
0.0000000
0
VERTEX
8
1
10
1.5347199
20
6.5828800
0
VERTEX
8
1
10
1.5588800
20
6.5102401
0
VERTEX
8
1
10
1.5347199
20
6.4376402
0
VERTEX
8
1
10
1.4984000
20
6.3772001
0
VERTEX
8
1
10
1.4258400
20
6.3530002
0
VERTEX
8
1
10
1.3411200
20
6.3530002
0
VERTEX
8
1
10
1.3895200
20
6.2562399
0
SEQEND
8
1
0
POLYLINE
8
1
62
15
70
0
66
1
40
0.0000000
41
0.0000000
0
VERTEX
8
1
10
1.5347199
20
6.3288002
0
VERTEX
8
1
10
1.5951999
20
6.2925200
0
VERTEX
8
1
10
1.6677600
20
6.2803998
0
VERTEX
8
1
10
1.7524400
20
6.2682800
0
VERTEX
8
1
10
1.8492000
20
6.2682800
0
VERTEX
8
1
10
1.9460000
20
6.2803998
0
VERTEX
8
1
10
2.0186000
20
6.3166800
0
VERTEX
8
1
10
2.1274800
20
6.3650799
0
SEQEND
8
1
0
POLYLINE
8
1
62
15
70
0
66
1
40
0.0000000
41
0.0000000
0
VERTEX
8
1
10
2.0064800
20
6.2682800
0
VERTEX
8
1
10
1.9701999
20
6.1836400
0
VERTEX
8
1
10
1.8976400
20
6.0990000
0
VERTEX
8
1
10
1.8250400
20
6.0505600
0
VERTEX
8
1
10
1.6919600
20
6.0505600
0
VERTEX
8
1
10
1.6073200
20
6.0868802
0
VERTEX
8
1
10
1.5710000
20
6.1594400
0
VERTEX
8
1
10
1.5710000
20
6.3045998
0
SEQEND
8
1
0
POLYLINE
8
1
62
15
70
0
66
1
40
0.0000000
41
0.0000000
0
VERTEX
8
1
10
1.8371201
20
6.2562399
0
VERTEX
8
1
10
1.8613200
20
6.1473198
0
VERTEX
8
1
10
1.8008800
20
6.1230798
0
VERTEX
8
1
10
1.7161601
20
6.1594400
0
VERTEX
8
1
10
1.7161601
20
6.2441201
0
VERTEX
8
1
10
1.7888000
20
6.1836400
0
SEQEND
8
1
0
POLYLINE
8
1
62
15
70
0
66
1
40
0.0000000
41
0.0000000
0
VERTEX
8
1
10
1.6556400
20
6.6917200
0
VERTEX
8
1
10
1.6436000
20
6.6191201
0
VERTEX
8
1
10
1.7040800
20
6.5586400
0
VERTEX
8
1
10
1.7645600
20
6.5102401
0
VERTEX
8
1
10
1.8492000
20
6.5102401
0
VERTEX
8
1
10
1.9097199
20
6.5223598
0
VERTEX
8
1
10
1.9701999
20
6.5223598
0
VERTEX
8
1
10
2.0306799
20
6.5344400
0
VERTEX
8
1
10
2.0912001
20
6.5707998
0
VERTEX
8
1
10
2.1516800
20
6.6191201
0
VERTEX
8
1
10
2.1879599
20
6.6917200
0
VERTEX
8
1
10
2.1637199
20
6.7643600
0
SEQEND
8
1
0
POLYLINE
8
1
62
15
70
0
66
1
40
0.0000000
41
0.0000000
0
VERTEX
8
1
10
1.2806799
20
5.7723198
0
VERTEX
8
1
10
1.4137599
20
5.7118802
0
VERTEX
8
1
10
1.6436000
20
5.6392002
0
VERTEX
8
1
10
1.8492000
20
5.5678802
0
VERTEX
8
1
10
1.5830801
20
5.7602401
0
VERTEX
8
1
10
1.4742399
20
5.8569999
0
VERTEX
8
1
10
1.3290401
20
5.9900799
0
SEQEND
8
1
0
POLYLINE
8
1
62
15
70
0
66
1
40
0.0000000
41
0.0000000
0
VERTEX
8
1
10
2.1395600
20
6.0990000
0
VERTEX
8
1
10
2.0548799
20
5.9054399
0
VERTEX
8
1
10
1.9218400
20
5.6513600
0
VERTEX
8
1
10
1.8492000
20
5.5908799
0
VERTEX
8
1
10
1.9218400
20
5.5194802
0
SEQEND
8
1
0
POLYLINE
8
1
62
15
70
0
66
1
40
0.0000000
41
0.0000000
0
VERTEX
8
1
10
2.4299200
20
6.1230798
0
VERTEX
8
1
10
2.2726800
20
5.9054399
0
VERTEX
8
1
10
2.0791199
20
5.6755600
0
VERTEX
8
1
10
2.0064800
20
5.5678802
0
SEQEND
8
1
0
POLYLINE
8
1
62
15
70
0
66
1
40
0.0000000
41
0.0000000
0
VERTEX
8
1
10
1.5105200
20
5.8449202
0
VERTEX
8
1
10
1.6436000
20
5.8449202
0
VERTEX
8
1
10
1.7403600
20
5.8569999
0
VERTEX
8
1
10
1.8855600
20
5.9175200
0
VERTEX
8
1
10
2.0427599
20
5.9416800
0
SEQEND
8
1
0
POLYLINE
8
1
62
15
70
0
66
1
40
0.0000000
41
0.0000000
0
VERTEX
8
1
10
1.5951999
20
5.7602401
0
VERTEX
8
1
10
1.7040800
20
5.7602401
0
VERTEX
8
1
10
1.8250400
20
5.7723198
0
VERTEX
8
1
10
1.9097199
20
5.7965202
0
VERTEX
8
1
10
1.9944000
20
5.8207202
0
SEQEND
8
1
0
POLYLINE
8
1
62
15
70
0
66
1
40
0.0000000
41
0.0000000
0
VERTEX
8
1
10
1.9339200
20
5.6634402
0
VERTEX
8
1
10
1.7403600
20
5.6634402
0
SEQEND
8
1
0
POLYLINE
8
1
62
15
70
0
66
1
40
0.0000000
41
0.0000000
0
VERTEX
8
1
10
1.6073200
20
4.5637999
0
VERTEX
8
1
10
1.7888000
20
4.6000800
0
VERTEX
8
1
10
1.9701999
20
4.6484399
0
VERTEX
8
1
10
2.1758800
20
4.6847601
0
VERTEX
8
1
10
2.3936000
20
4.7089601
0
VERTEX
8
1
10
2.5387599
20
4.7089601
0
VERTEX
8
1
10
2.7202401
20
4.7211199
0
VERTEX
8
1
10
2.6355600
20
4.8662400
0
VERTEX
8
1
10
2.5387599
20
5.0114398
0
VERTEX
8
1
10
2.4177999
20
5.1807599
0
VERTEX
8
1
10
2.3572800
20
5.3017602
0
VERTEX
8
1
10
2.2484400
20
5.3743200
0
VERTEX
8
1
10
2.1032801
20
5.3380399
0
VERTEX
8
1
10
1.9218400
20
5.3137999
0
VERTEX
8
1
10
1.7766401
20
5.3017602
0
VERTEX
8
1
10
1.6315200
20
5.2291198
0
VERTEX
8
1
10
1.4862800
20
5.2049999
0
VERTEX
8
1
10
1.4258400
20
5.1323199
0
VERTEX
8
1
10
1.3895200
20
5.0355601
0
VERTEX
8
1
10
1.3774400
20
4.9266801
0
VERTEX
8
1
10
1.3653200
20
4.8178802
0
VERTEX
8
1
10
1.3411200
20
4.6968799
0
VERTEX
8
1
10
1.3532400
20
4.5759201
0
VERTEX
8
1
10
1.3411200
20
4.4791198
0
VERTEX
8
1
10
1.4742399
20
4.5395999
0
VERTEX
8
1
10
1.6073200
20
4.5637999
0
SEQEND
8
1
0
POLYLINE
8
1
62
15
70
0
66
1
40
0.0000000
41
0.0000000
0
VERTEX
8
1
10
1.5843199
20
4.9254799
0
VERTEX
8
1
10
1.5964000
20
4.9000802
0
VERTEX
8
1
10
1.6157600
20
4.8832002
0
VERTEX
8
1
10
1.6375600
20
4.8698802
0
VERTEX
8
1
10
1.6617200
20
4.8541598
0
VERTEX
8
1
10
1.6847200
20
4.8480802
0
VERTEX
8
1
10
1.7161601
20
4.8347998
0
VERTEX
8
1
10
1.7476400
20
4.8347998
0
VERTEX
8
1
10
1.8020800
20
4.8347998
0
VERTEX
8
1
10
1.8637600
20
4.8311601
0
SEQEND
8
1
0
POLYLINE
8
1
62
15
70
0
66
1
40
0.0000000
41
0.0000000
0
VERTEX
8
1
10
1.8625600
20
4.8347998
0
VERTEX
8
1
10
1.9327199
20
4.8347998
0
VERTEX
8
1
10
1.9665999
20
4.8347998
0
VERTEX
8
1
10
1.9859200
20
4.8360000
0
VERTEX
8
1
10
2.0585201
20
4.8468800
0
SEQEND
8
1
0
POLYLINE
8
1
62
15
70
0
66
1
40
0.0000000
41
0.0000000
0
VERTEX
8
1
10
2.0585201
20
4.8468800
0
VERTEX
8
1
10
2.0682001
20
4.8480802
0
VERTEX
8
1
10
2.0899601
20
4.8517199
0
VERTEX
8
1
10
2.1154001
20
4.8565998
0
SEQEND
8
1
0
POLYLINE
8
1
62
15
70
0
66
1
40
0.0000000
41
0.0000000
0
VERTEX
8
1
10
2.1154001
20
4.8565998
0
VERTEX
8
1
10
2.1468401
20
4.8662400
0
VERTEX
8
1
10
2.1710000
20
4.8747201
0
VERTEX
8
1
10
2.1818800
20
4.8783598
0
SEQEND
8
1
0
POLYLINE
8
1
62
15
70
0
66
1
40
0.0000000
41
0.0000000
0
VERTEX
8
1
10
2.1818800
20
4.8783598
0
VERTEX
8
1
10
2.2146001
20
4.9037199
0
VERTEX
8
1
10
2.2678001
20
4.9497199
0
VERTEX
8
1
10
2.2956400
20
4.9751201
0
SEQEND
8
1
0
POLYLINE
8
1
62
15
70
0
66
1
40
0.0000000
41
0.0000000
0
VERTEX
8
1
10
2.2956400
20
4.9751201
0
VERTEX
8
1
10
2.3113999
20
5.0222802
0
VERTEX
8
1
10
2.2920401
20
5.0779200
0
VERTEX
8
1
10
2.1443999
20
5.1190400
0
VERTEX
8
1
10
1.9085200
20
5.1226802
0
VERTEX
8
1
10
1.7403600
20
5.0851998
0
VERTEX
8
1
10
1.6266800
20
5.0174398
0
VERTEX
8
1
10
1.5939600
20
4.9811201
0
VERTEX
8
1
10
1.5891600
20
4.9206400
0
SEQEND
8
1
0
ENDSEC
0
EOF
