  0
SECTION
  2
HEADER
  9
$ACADVER
  1
AC1004
  9
$EXTMIN
 10
9.8321
 20
0.1406
  9
$EXTMAX
 10
17.4878
 20
5.8251
  9
$LIMMIN
 10
9.8321
 20
0.1406
  9
$LIMMAX
 10
17.4878
 20
5.8251
  9
$INSBASE
 10
0.0
 20
0.0
  9
$VIEWCTR
 10
7.21903
 20
4.5
  9
$VIEWSIZE
 40
9.0
  9
$SNAPMODE
 70
     0
  9
$SNAPUNIT
 10
1.0
 20
1.0
  9
$SNAPBASE
 10
0.0
 20
0.0
  9
$SNAPANG
 50
0.0
  9
$SNAPSTYLE
 70
     0
  9
$SNAPISOPAIR
 70
     0
  9
$GRIDMODE
 70
     0
  9
$GRIDUNIT
 10
0.0
 20
0.0
  9
$ORTHOMODE
 70
     0
  9
$REGENMODE
 70
     1
  9
$FILLMODE
 70
     1
  9
$QTEXTMODE
 70
     0
  9
$DRAGMODE
 70
     2
  9
$LTSCALE
 40
1.0
  9
$OSMODE
 70
     0
  9
$ATTMODE
 70
     1
  9
$TEXTSIZE
 40
0.2
  9
$TRACEWID
 40
0.05
  9
$TEXTSTYLE
  7
STANDARD
  9
$CLAYER
  8
0
  9
$CELTYPE
  6
BYLAYER
  9
$CECOLOR
 62
   256
  9
$DIMSCALE
 40
1.0
  9
$DIMASZ
 40
0.18
  9
$DIMEXO
 40
0.0625
  9
$DIMDLI
 40
0.38
  9
$DIMRND
 40
0.0
  9
$DIMDLE
 40
0.0
  9
$DIMEXE
 40
0.18
  9
$DIMTP
 40
0.0
  9
$DIMTM
 40
0.0
  9
$DIMTXT
 40
0.18
  9
$DIMCEN
 40
0.09
  9
$DIMTSZ
 40
0.0
  9
$DIMTOL
 70
     0
  9
$DIMLIM
 70
     0
  9
$DIMTIH
 70
     1
  9
$DIMTOH
 70
     1
  9
$DIMSE1
 70
     0
  9
$DIMSE2
 70
     0
  9
$DIMTAD
 70
     0
  9
$DIMZIN
 70
     0
  9
$DIMBLK
  1

  9
$DIMASO
 70
     1
  9
$DIMSHO
 70
     0
  9
$DIMPOST
  1

  9
$DIMAPOST
  1

  9
$DIMALT
 70
     0
  9
$DIMALTD
 70
     2
  9
$DIMALTF
 40
25.4
  9
$DIMLFAC
 40
1.0
  9
$LUNITS
 70
     2
  9
$LUPREC
 70
     4
  9
$AXISMODE
 70
     0
  9
$AXISUNIT
 10
0.0
 20
0.0
  9
$SKETCHINC
 40
0.1
  9
$FILLETRAD
 40
0.0
  9
$AUNITS
 70
     0
  9
$AUPREC
 70
     0
  9
$MENU
  1
acad
  9
$ELEVATION
 40
0.0
  9
$THICKNESS
 40
0.0
  9
$VIEWDIR
 10
0.0
 20
0.0
 30
1.0
  9
$LIMCHECK
 70
     0
  9
$BLIPMODE
 70
     1
  9
$CHAMFERA
 40
0.0
  9
$CHAMFERB
 40
0.0
  9
$FASTZOOM
 70
     1
  9
$SKPOLY
 70
     0
  9
$TDCREATE
 40
2447222.5666886573
  9
$TDUPDATE
 40
2447222.5666886573
  9
$TDINDWG
 40
0.0000000000
  9
$TDUSRTIMER
 40
0.0000000000
  9
$USRTIMER
 70
     1
  9
$ANGBASE
 50
0.0
  9
$ANGDIR
 70
     0
  9
$PDMODE
 70
     0
  9
$PDSIZE
 40
0.0
  9
$PLINEWID
 40
0.0
  9
$COORDS
 70
     0
  9
$SPLFRAME
 70
     0
  9
$SPLINESEGS
 70
     8
  9
$ATTDIA
 70
     0
  9
$ATTREQ
 70
     1
  9
$USERI1
 70
     0
  9
$USERI2
 70
     0
  9
$USERI3
 70
     0
  9
$USERI4
 70
     0
  9
$USERI5
 70
     0
  9
$USERR1
 40
0.0
  9
$USERR2
 40
0.0
  9
$USERR3
 40
0.0
  9
$USERR4
 40
0.0
  9
$USERR5
 40
0.0
  0
ENDSEC
  0
SECTION
  2
TABLES
  0
TABLE
  2
LTYPE
 70
     13
  0
LTYPE
  2
CONTINUOUS
 70
    64
  3
Solid line
 72
    65
 73
     0
 40
0.0
  0
LTYPE
  2
DASHED
 70
    64
  3
__ __ __ __ __ __ __ __ __ __ __ __ __ __ __
 72
    65
 73
     2
 40
0.75
 49
0.5
 49
-0.25
  0
LTYPE
  2
HIDDEN
 70
    64
  3
_ _ _ _ _ _ _ _ _ _ _ _ _ _ _ _ _ _ _ _ _ _ _
 72
    65
 73
     2
 40
0.375
 49
0.25
 49
-0.125
  0
LTYPE
  2
CENTER
 70
    64
  3
____ _ ____ _ ____ _ ____ _ ____ _ ____ _ ____
 72
    65
 73
     4
 40
2.0
 49
1.25
 49
-0.25
 49
0.25
 49
-0.25
  0
LTYPE
  2
PHANTOM
 70
    64
  3
_____ _ _ _____ _ _ _____ _ _ _____ _ _ ____
 72
    65
 73
     6
 40
2.5
 49
1.25
 49
-0.25
 49
0.25
 49
-0.25
 49
0.25
 49
-0.25
  0
LTYPE
  2
DOT
 70
    64
  3
...............................................
 72
    65
 73
     2
 40
0.25
 49
0.0
 49
-0.25
  0
LTYPE
  2
DASHDOT
 70
    64
  3
__ . __ . __ . __ . __ . __ . __ . __ . __ . __
 72
    65
 73
     4
 40
1.0
 49
0.5
 49
-0.25
 49
0.0
 49
-0.25
  0
LTYPE
  2
BORDER
 70
    64
  3
__ __ . __ __ . __ __ . __ __ . __ __ . __ __
 72
    65
 73
     6
 40
1.75
 49
0.5
 49
-0.25
 49
0.5
 49
-0.25
 49
0.0
 49
-0.25
  0
LTYPE
  2
DIVIDE
 70
    64
  3
__ . . __ . . __ . . __ . . __ . . __ . . __
 72
    65
 73
     6
 40
1.25
 49
0.5
 49
-0.25
 49
0.0
 49
-0.25
 49
0.0
 49
-0.25
  0
LTYPE
  2
DCTYPE1
 70
    64
  3
__ . . __ . . __ . . __ . . __ . . __ . . __
 72
    65
 73
     8
 40
2.5
 49
0.5
 49
-0.25
 49
0.125
 49
-0.25
 49
0.25
 49
-0.25
 49
0.125
 49
-0.25
  0
LTYPE
  2
DCTYPE2
 70
    64
  3
__ . . __ . . __ . . __ . . __ . . __ . . __
 72
    65
 73
     6
 40
2.05
 49
1.0
 49
-0.3
 49
0.15
 49
-0.15
 49
0.15
 49
-0.3
  0
LTYPE
  2
DCTYPE3
 70
    64
  3
__ . . __ . . __ . . __ . . __ . . __ . . __
 72
    65
 73
     6
 40
2.5
 49
0.8
 49
-0.2
 49
0.8
 49
-0.2
 49
0.3
 49
-0.2
  0
LTYPE
  2
DCTYPE4
 70
    64
  3
__ . . __ . . __ . . __ . . __ . . __ . . __
 72
    65
 73
     10
 40
3.97
 49
1.75
 49
-0.3
 49
0.3
 49
-0.3
 49
0.06
 49
-0.3
 49
0.06
 49
-0.3
 49
0.3
 49
-0.3
  0
ENDTAB
  0
TABLE
  2
LAYER
 70
    153
  0
LAYER
  2
0
 70
 64
 62
     1
  6
CONTINUOUS
  0
ENDTAB
  0
ENDSEC
  0
SECTION
  2
BLOCKS
  0
ENDSEC
  0
SECTION
  2
ENTITIES
  0
CIRCLE
  8
0
 62
     1
  6
CONTINUOUS
 10
16.0576
 20
3.2521
 40
0.4000
  0
CIRCLE
  8
0
 62
     1
  6
CONTINUOUS
 10
16.0576
 20
3.2521
 40
0.1000
  0
POLYLINE
  8
0
 62
     1
 66
     1
  6
CONTINUOUS
 40
0.0200
 41
0.0200
  0
VERTEX
  8
0
 62
     1
  6
CONTINUOUS
 10
13.4186
 20
1.3581
  0
VERTEX
  8
0
 62
     1
  6
CONTINUOUS
 10
13.4186
 20
0.1612
  0
VERTEX
  8
0
 62
     1
  6
CONTINUOUS
 10
17.4085
 20
0.1612
  0
VERTEX
  8
0
 62
     1
  6
CONTINUOUS
 10
17.4085
 20
1.3581
  0
VERTEX
  8
0
 62
     1
  6
CONTINUOUS
 10
13.4186
 20
1.3581
  0
SEQEND
  8
0
  0
POLYLINE
  8
0
 62
     1
 66
     1
  6
CONTINUOUS
 40
0.0200
 41
0.0200
  0
VERTEX
  8
0
 62
     1
  6
CONTINUOUS
 10
13.4186
 20
0.8594
  0
VERTEX
  8
0
 62
     1
  6
CONTINUOUS
 10
17.4085
 20
0.8594
  0
SEQEND
  8
0
  0
TEXT
  8
0
 62
     1
 10
13.4685
 20
0.5103
 40
0.2992
 50
0.0000
 51
0.0000
  1
Astro Flight
 72
     5
 11
16.7103
 21
0.5103
  0
POLYLINE
  8
0
 62
     1
 66
     1
  6
CONTINUOUS
 40
0.0200
 41
0.0200
  0
VERTEX
  8
0
 62
     1
  6
CONTINUOUS
 10
13.4186
 20
0.4604
  0
VERTEX
  8
0
 62
     1
  6
CONTINUOUS
 10
17.4085
 20
0.4604
  0
SEQEND
  8
0
  0
POLYLINE
  8
0
 62
     1
 66
     1
  6
CONTINUOUS
 40
0.0200
 41
0.0200
  0
VERTEX
  8
0
 62
     1
  6
CONTINUOUS
 10
13.3437
 20
4.4107
  0
VERTEX
  8
0
 62
     1
  6
CONTINUOUS
 10
13.3437
 20
4.4107
  0
VERTEX
  8
0
 62
     1
  6
CONTINUOUS
 10
13.3437
 20
4.4107
  0
VERTEX
  8
0
 62
     1
  6
CONTINUOUS
 10
13.3437
 20
4.4107
  0
VERTEX
  8
0
 62
     1
  6
CONTINUOUS
 10
13.3437
 20
4.4107
  0
SEQEND
  8
0
  0
POLYLINE
  8
0
 62
     1
 66
     1
  6
CONTINUOUS
 40
0.0200
 41
0.0200
  0
VERTEX
  8
0
 62
     1
  6
CONTINUOUS
 10
13.3438
 20
4.8108
  0
VERTEX
  8
0
 62
     1
  6
CONTINUOUS
 10
13.3438
 20
4.0108
  0
VERTEX
  8
0
 62
     1
  6
CONTINUOUS
 10
13.4688
 20
4.0108
  0
VERTEX
  8
0
 62
     1
  6
CONTINUOUS
 10
13.4688
 20
4.8108
  0
VERTEX
  8
0
 62
     1
  6
CONTINUOUS
 10
13.3438
 20
4.8108
  0
SEQEND
  8
0
  0
POLYLINE
  8
0
 62
     1
 66
     1
  6
CONTINUOUS
 40
0.0200
 41
0.0200
  0
VERTEX
  8
0
 62
     1
  6
CONTINUOUS
 10
10.4473
 20
4.4080
  0
VERTEX
  8
0
 62
     1
  6
CONTINUOUS
 10
10.4473
 20
4.4080
  0
VERTEX
  8
0
 62
     1
  6
CONTINUOUS
 10
10.4473
 20
4.4080
  0
VERTEX
  8
0
 62
     1
  6
CONTINUOUS
 10
10.4473
 20
4.4080
  0
VERTEX
  8
0
 62
     1
  6
CONTINUOUS
 10
10.4473
 20
4.4080
  0
SEQEND
  8
0
  0
POLYLINE
  8
0
 62
     1
 66
     1
  6
CONTINUOUS
 40
0.0200
 41
0.0200
  0
VERTEX
  8
0
 62
     1
  6
CONTINUOUS
 10
10.4471
 20
4.0080
  0
VERTEX
  8
0
 62
     1
  6
CONTINUOUS
 10
10.4471
 20
4.8080
  0
VERTEX
  8
0
 62
     1
  6
CONTINUOUS
 10
10.3221
 20
4.8080
  0
VERTEX
  8
0
 62
     1
  6
CONTINUOUS
 10
10.3221
 20
4.0080
  0
VERTEX
  8
0
 62
     1
  6
CONTINUOUS
 10
10.4471
 20
4.0080
  0
SEQEND
  8
0
  0
POLYLINE
  8
0
 62
     1
 66
     1
  6
CONTINUOUS
 40
0.0200
 41
0.0200
  0
VERTEX
  8
0
 62
     1
  6
CONTINUOUS
 10
13.4938
 20
4.5108
  0
VERTEX
  8
0
 62
     1
  6
CONTINUOUS
 10
13.4938
 20
4.2608
  0
VERTEX
  8
0
 62
     1
  6
CONTINUOUS
 10
13.6938
 20
4.2608
  0
VERTEX
  8
0
 62
     1
  6
CONTINUOUS
 10
13.6938
 20
4.5108
  0
VERTEX
  8
0
 62
     1
  6
CONTINUOUS
 10
13.4938
 20
4.5108
  0
SEQEND
  8
0
  0
POLYLINE
  8
0
 62
     1
 66
     1
  6
CONTINUOUS
 40
0.0200
 41
0.0200
  0
VERTEX
  8
0
 62
     1
  6
CONTINUOUS
 10
10.4473
 20
4.4080
  0
VERTEX
  8
0
 62
     1
  6
CONTINUOUS
 10
10.4473
 20
4.4080
  0
VERTEX
  8
0
 62
     1
  6
CONTINUOUS
 10
10.4473
 20
4.4080
  0
VERTEX
  8
0
 62
     1
  6
CONTINUOUS
 10
10.4473
 20
4.4080
  0
VERTEX
  8
0
 62
     1
  6
CONTINUOUS
 10
10.4473
 20
4.4080
  0
SEQEND
  8
0
  0
POLYLINE
  8
0
 62
     1
 66
     1
  6
CONTINUOUS
 40
0.0200
 41
0.0200
  0
VERTEX
  8
0
 62
     1
  6
CONTINUOUS
 10
10.4471
 20
4.0080
  0
VERTEX
  8
0
 62
     1
  6
CONTINUOUS
 10
10.4471
 20
4.8080
  0
VERTEX
  8
0
 62
     1
  6
CONTINUOUS
 10
10.3221
 20
4.8080
  0
VERTEX
  8
0
 62
     1
  6
CONTINUOUS
 10
10.3221
 20
4.0080
  0
VERTEX
  8
0
 62
     1
  6
CONTINUOUS
 10
10.4471
 20
4.0080
  0
SEQEND
  8
0
  0
POLYLINE
  8
0
 62
     1
 66
     1
  6
CONTINUOUS
 40
0.0200
 41
0.0200
  0
VERTEX
  8
0
 62
     1
  6
CONTINUOUS
 10
10.2971
 20
4.3080
  0
VERTEX
  8
0
 62
     1
  6
CONTINUOUS
 10
10.2971
 20
4.5580
  0
VERTEX
  8
0
 62
     1
  6
CONTINUOUS
 10
10.0971
 20
4.5580
  0
VERTEX
  8
0
 62
     1
  6
CONTINUOUS
 10
10.0971
 20
4.3080
  0
VERTEX
  8
0
 62
     1
  6
CONTINUOUS
 10
10.2971
 20
4.3080
  0
SEQEND
  8
0
  0
TEXT
  8
0
 62
     1
 10
10.8912
 20
4.5098
 40
0.4987
  1
Astro Flight
 72
     5
 11
12.6368
 21
4.5098
  0
TEXT
  8
0
 62
     1
 10
13.5433
 20
0.9136
 40
0.4220
 50
0.0000
 51
0.0000
  1
Cobalt 60
 72
     5
 11
16.8795
 21
0.9136
  0
TEXT
  8
0
 62
     1
 10
13.4305
 20
0.1884
 40
0.2390
 50
0.0000
 51
0.0000
  1
Bill Bowne  APR '94
 72
     5
 11
17.3791
 21
0.1884
  0
POLYLINE
  8
0
 62
     1
 66
     1
  6
CONTINUOUS
 40
0.0200
 41
0.0200
  0
VERTEX
  8
0
 62
     1
  6
CONTINUOUS
 10
13.3437
 20
4.4107
  0
VERTEX
  8
0
 62
     1
  6
CONTINUOUS
 10
13.3437
 20
3.4107
  0
SEQEND
  8
0
  0
POLYLINE
  8
0
 62
     1
 66
     1
  6
CONTINUOUS
 40
0.0200
 41
0.0200
  0
VERTEX
  8
0
 62
     1
  6
CONTINUOUS
 10
13.3437
 20
3.4107
  0
VERTEX
  8
0
 62
     1
  6
CONTINUOUS
 10
13.3437
 20
5.4107
  0
VERTEX
  8
0
 62
     1
  6
CONTINUOUS
 10
10.4437
 20
5.4107
  0
VERTEX
  8
0
 62
     1
  6
CONTINUOUS
 10
10.4437
 20
3.4107
  0
VERTEX
  8
0
 62
     1
  6
CONTINUOUS
 10
13.3437
 20
3.4107
  0
SEQEND
  8
0
  0
POLYLINE
  8
0
 62
     1
 66
     1
  6
CONTINUOUS
 40
0.0200
 41
0.0200
  0
VERTEX
  8
0
 62
     1
  6
CONTINUOUS
 10
10.4437
 20
5.4107
  0
VERTEX
  8
0
 62
     1
  6
CONTINUOUS
 10
10.6937
 20
5.4107
  0
VERTEX
  8
0
 62
     1
  6
CONTINUOUS
 10
10.6937
 20
3.4107
  0
VERTEX
  8
0
 62
     1
  6
CONTINUOUS
 10
12.5437
 20
3.4107
  0
VERTEX
  8
0
 62
     1
  6
CONTINUOUS
 10
12.5437
 20
5.4107
  0
SEQEND
  8
0
  0
POLYLINE
  8
0
 62
     1
 66
     1
  6
CONTINUOUS
 40
0.0200
 41
0.0200
  0
VERTEX
  8
0
 62
     1
  6
CONTINUOUS
 10
13.2533
 20
5.5601
  0
VERTEX
  8
0
 62
     1
  6
CONTINUOUS
 10
13.2533
 20
5.8101
  0
VERTEX
  8
0
 62
     1
  6
CONTINUOUS
 10
12.7533
 20
5.8101
  0
VERTEX
  8
0
 62
     1
  6
CONTINUOUS
 10
12.7533
 20
5.5601
  0
VERTEX
  8
0
 62
     1
  6
CONTINUOUS
 10
13.2533
 20
5.5601
  0
SEQEND
  8
0
  0
POLYLINE
  8
0
 62
     1
 66
     1
  6
CONTINUOUS
 40
0.0200
 41
0.0200
  0
VERTEX
  8
0
 62
     1
  6
CONTINUOUS
 10
13.2533
 20
5.4101
  0
VERTEX
  8
0
 62
     1
  6
CONTINUOUS
 10
13.2533
 20
5.4368
  0
SEQEND
  8
0
  0
POLYLINE
  8
0
 62
     1
 66
     1
  6
CONTINUOUS
 40
0.0200
 41
0.0200
  0
VERTEX
  8
0
 62
     1
  6
CONTINUOUS
 10
13.2533
 20
5.4368
  0
VERTEX
  8
0
 62
     1
  6
CONTINUOUS
 10
13.2533
 20
5.5601
  0
VERTEX
  8
0
 62
     1
  6
CONTINUOUS
 10
12.8033
 20
5.5601
  0
VERTEX
  8
0
 62
     1
  6
CONTINUOUS
 10
12.8033
 20
5.4368
  0
SEQEND
  8
0
  0
POLYLINE
  8
0
 62
     1
 66
     1
  6
CONTINUOUS
 40
0.0200
 41
0.0200
  0
VERTEX
  8
0
 62
     1
  6
CONTINUOUS
 10
12.8033
 20
5.4368
  0
VERTEX
  8
0
 62
     1
  6
CONTINUOUS
 10
12.8033
 20
5.4101
  0
VERTEX
  8
0
 62
     1
  6
CONTINUOUS
 10
13.2533
 20
5.4101
  0
SEQEND
  8
0
  0
POLYLINE
  8
0
 62
     1
 66
     1
  6
CONTINUOUS
 40
0.0200
 41
0.0200
  0
VERTEX
  8
0
 62
     1
  6
CONTINUOUS
 10
13.2699
 20
5.4100
  0
VERTEX
  8
0
 62
     1
  6
CONTINUOUS
 10
12.7058
 20
5.4100
  0
SEQEND
  8
0
  0
POLYLINE
  8
0
 62
     1
 66
     1
  6
CONTINUOUS
 40
0.0200
 41
0.0200
  0
VERTEX
  8
0
 62
     1
  6
CONTINUOUS
 10
16.2187
 20
4.3675
  0
VERTEX
  8
0
 62
     1
  6
CONTINUOUS
 10
16.2187
 20
4.6175
  0
VERTEX
  8
0
 62
     1
  6
CONTINUOUS
 10
15.7187
 20
4.6175
  0
VERTEX
  8
0
 62
     1
  6
CONTINUOUS
 10
15.7187
 20
4.3675
  0
VERTEX
  8
0
 62
     1
  6
CONTINUOUS
 10
16.2187
 20
4.3675
  0
SEQEND
  8
0
  0
POLYLINE
  8
0
 62
     1
 66
     1
  6
CONTINUOUS
 40
0.0200
 41
0.0200
  0
VERTEX
  8
0
 62
     1
  6
CONTINUOUS
 10
16.2187
 20
4.2175
  0
VERTEX
  8
0
 62
     1
  6
CONTINUOUS
 10
16.2187
 20
4.2442
  0
SEQEND
  8
0
  0
POLYLINE
  8
0
 62
     1
 66
     1
  6
CONTINUOUS
 40
0.0200
 41
0.0200
  0
VERTEX
  8
0
 62
     1
  6
CONTINUOUS
 10
16.2187
 20
4.2442
  0
VERTEX
  8
0
 62
     1
  6
CONTINUOUS
 10
16.2187
 20
4.3675
  0
VERTEX
  8
0
 62
     1
  6
CONTINUOUS
 10
15.7687
 20
4.3675
  0
VERTEX
  8
0
 62
     1
  6
CONTINUOUS
 10
15.7687
 20
4.2442
  0
SEQEND
  8
0
  0
POLYLINE
  8
0
 62
     1
 66
     1
  6
CONTINUOUS
 40
0.0200
 41
0.0200
  0
VERTEX
  8
0
 62
     1
  6
CONTINUOUS
 10
15.7687
 20
4.2442
  0
VERTEX
  8
0
 62
     1
  6
CONTINUOUS
 10
15.7687
 20
4.2175
  0
VERTEX
  8
0
 62
     1
  6
CONTINUOUS
 10
16.2187
 20
4.2175
  0
SEQEND
  8
0
  0
CIRCLE
  8
0
 62
     1
  6
CONTINUOUS
 10
16.0576
 20
3.2521
 40
1.0000
  0
POLYLINE
  8
0
 62
     1
 66
     1
  6
CONTINUOUS
 40
0.0200
 41
0.0200
  0
VERTEX
  8
0
 62
     1
  6
CONTINUOUS
 10
15.7992
 20
2.1013
  0
VERTEX
  8
0
 62
     1
  6
CONTINUOUS
 10
15.7992
 20
1.8513
  0
VERTEX
  8
0
 62
     1
  6
CONTINUOUS
 10
16.2992
 20
1.8513
  0
VERTEX
  8
0
 62
     1
  6
CONTINUOUS
 10
16.2992
 20
2.1013
  0
VERTEX
  8
0
 62
     1
  6
CONTINUOUS
 10
15.7992
 20
2.1013
  0
SEQEND
  8
0
  0
POLYLINE
  8
0
 62
     1
 66
     1
  6
CONTINUOUS
 40
0.0200
 41
0.0200
  0
VERTEX
  8
0
 62
     1
  6
CONTINUOUS
 10
15.7992
 20
2.2513
  0
VERTEX
  8
0
 62
     1
  6
CONTINUOUS
 10
15.7992
 20
2.2246
  0
SEQEND
  8
0
  0
POLYLINE
  8
0
 62
     1
 66
     1
  6
CONTINUOUS
 40
0.0200
 41
0.0200
  0
VERTEX
  8
0
 62
     1
  6
CONTINUOUS
 10
15.7992
 20
2.2246
  0
VERTEX
  8
0
 62
     1
  6
CONTINUOUS
 10
15.7992
 20
2.1013
  0
VERTEX
  8
0
 62
     1
  6
CONTINUOUS
 10
16.2492
 20
2.1013
  0
VERTEX
  8
0
 62
     1
  6
CONTINUOUS
 10
16.2492
 20
2.2246
  0
SEQEND
  8
0
  0
POLYLINE
  8
0
 62
     1
 66
     1
  6
CONTINUOUS
 40
0.0200
 41
0.0200
  0
VERTEX
  8
0
 62
     1
  6
CONTINUOUS
 10
16.2492
 20
2.2246
  0
VERTEX
  8
0
 62
     1
  6
CONTINUOUS
 10
16.2492
 20
2.2513
  0
VERTEX
  8
0
 62
     1
  6
CONTINUOUS
 10
15.7992
 20
2.2513
  0
SEQEND
  8
0
  0
POLYLINE
  8
0
 62
     1
 66
     1
  6
CONTINUOUS
 40
0.0200
 41
0.0200
  0
VERTEX
  8
0
 62
     1
  6
CONTINUOUS
 10
12.6726
 20
3.2455
  0
VERTEX
  8
0
 62
     1
  6
CONTINUOUS
 10
12.6726
 20
2.9955
  0
VERTEX
  8
0
 62
     1
  6
CONTINUOUS
 10
13.1726
 20
2.9955
  0
VERTEX
  8
0
 62
     1
  6
CONTINUOUS
 10
13.1726
 20
3.2455
  0
VERTEX
  8
0
 62
     1
  6
CONTINUOUS
 10
12.6726
 20
3.2455
  0
SEQEND
  8
0
  0
POLYLINE
  8
0
 62
     1
 66
     1
  6
CONTINUOUS
 40
0.0200
 41
0.0200
  0
VERTEX
  8
0
 62
     1
  6
CONTINUOUS
 10
12.6726
 20
3.3955
  0
VERTEX
  8
0
 62
     1
  6
CONTINUOUS
 10
12.6726
 20
3.3688
  0
SEQEND
  8
0
  0
POLYLINE
  8
0
 62
     1
 66
     1
  6
CONTINUOUS
 40
0.0200
 41
0.0200
  0
VERTEX
  8
0
 62
     1
  6
CONTINUOUS
 10
12.6726
 20
3.3688
  0
VERTEX
  8
0
 62
     1
  6
CONTINUOUS
 10
12.6726
 20
3.2455
  0
VERTEX
  8
0
 62
     1
  6
CONTINUOUS
 10
13.1226
 20
3.2455
  0
VERTEX
  8
0
 62
     1
  6
CONTINUOUS
 10
13.1226
 20
3.3688
  0
SEQEND
  8
0
  0
POLYLINE
  8
0
 62
     1
 66
     1
  6
CONTINUOUS
 40
0.0200
 41
0.0200
  0
VERTEX
  8
0
 62
     1
  6
CONTINUOUS
 10
13.1226
 20
3.3688
  0
VERTEX
  8
0
 62
     1
  6
CONTINUOUS
 10
13.1226
 20
3.3955
  0
VERTEX
  8
0
 62
     1
  6
CONTINUOUS
 10
12.6726
 20
3.3955
  0
SEQEND
  8
0
  0
POLYLINE
  8
0
 62
     1
 66
     1
  6
CONTINUOUS
 40
0.0200
 41
0.0200
  0
VERTEX
  8
0
 62
     1
  6
CONTINUOUS
 10
17.2228
 20
3.0727
  0
VERTEX
  8
0
 62
     1
  6
CONTINUOUS
 10
17.4728
 20
3.0727
  0
VERTEX
  8
0
 62
     1
  6
CONTINUOUS
 10
17.4728
 20
3.5727
  0
VERTEX
  8
0
 62
     1
  6
CONTINUOUS
 10
17.2228
 20
3.5727
  0
VERTEX
  8
0
 62
     1
  6
CONTINUOUS
 10
17.2228
 20
3.0727
  0
SEQEND
  8
0
  0
POLYLINE
  8
0
 62
     1
 66
     1
  6
CONTINUOUS
 40
0.0200
 41
0.0200
  0
VERTEX
  8
0
 62
     1
  6
CONTINUOUS
 10
17.0728
 20
3.0727
  0
VERTEX
  8
0
 62
     1
  6
CONTINUOUS
 10
17.0995
 20
3.0727
  0
SEQEND
  8
0
  0
POLYLINE
  8
0
 62
     1
 66
     1
  6
CONTINUOUS
 40
0.0200
 41
0.0200
  0
VERTEX
  8
0
 62
     1
  6
CONTINUOUS
 10
17.0995
 20
3.0727
  0
VERTEX
  8
0
 62
     1
  6
CONTINUOUS
 10
17.2228
 20
3.0727
  0
VERTEX
  8
0
 62
     1
  6
CONTINUOUS
 10
17.2228
 20
3.5227
  0
VERTEX
  8
0
 62
     1
  6
CONTINUOUS
 10
17.0995
 20
3.5227
  0
SEQEND
  8
0
  0
POLYLINE
  8
0
 62
     1
 66
     1
  6
CONTINUOUS
 40
0.0200
 41
0.0200
  0
VERTEX
  8
0
 62
     1
  6
CONTINUOUS
 10
17.0995
 20
3.5227
  0
VERTEX
  8
0
 62
     1
  6
CONTINUOUS
 10
17.0728
 20
3.5227
  0
VERTEX
  8
0
 62
     1
  6
CONTINUOUS
 10
17.0728
 20
3.0727
  0
SEQEND
  8
0
  0
POLYLINE
  8
0
 62
     1
 66
     1
  6
CONTINUOUS
 40
0.0200
 41
0.0200
  0
VERTEX
  8
0
 62
     1
  6
CONTINUOUS
 10
14.9083
 20
3.5088
  0
VERTEX
  8
0
 62
     1
  6
CONTINUOUS
 10
14.6583
 20
3.5088
  0
VERTEX
  8
0
 62
     1
  6
CONTINUOUS
 10
14.6583
 20
3.0088
  0
VERTEX
  8
0
 62
     1
  6
CONTINUOUS
 10
14.9083
 20
3.0088
  0
VERTEX
  8
0
 62
     1
  6
CONTINUOUS
 10
14.9083
 20
3.5088
  0
SEQEND
  8
0
  0
POLYLINE
  8
0
 62
     1
 66
     1
  6
CONTINUOUS
 40
0.0200
 41
0.0200
  0
VERTEX
  8
0
 62
     1
  6
CONTINUOUS
 10
15.0583
 20
3.5088
  0
VERTEX
  8
0
 62
     1
  6
CONTINUOUS
 10
15.0316
 20
3.5088
  0
SEQEND
  8
0
  0
POLYLINE
  8
0
 62
     1
 66
     1
  6
CONTINUOUS
 40
0.0200
 41
0.0200
  0
VERTEX
  8
0
 62
     1
  6
CONTINUOUS
 10
15.0316
 20
3.5088
  0
VERTEX
  8
0
 62
     1
  6
CONTINUOUS
 10
14.9083
 20
3.5088
  0
VERTEX
  8
0
 62
     1
  6
CONTINUOUS
 10
14.9083
 20
3.0588
  0
VERTEX
  8
0
 62
     1
  6
CONTINUOUS
 10
15.0316
 20
3.0588
  0
SEQEND
  8
0
  0
POLYLINE
  8
0
 62
     1
 66
     1
  6
CONTINUOUS
 40
0.0200
 41
0.0200
  0
VERTEX
  8
0
 62
     1
  6
CONTINUOUS
 10
15.0316
 20
3.0588
  0
VERTEX
  8
0
 62
     1
  6
CONTINUOUS
 10
15.0583
 20
3.0588
  0
VERTEX
  8
0
 62
     1
  6
CONTINUOUS
 10
15.0583
 20
3.5088
  0
SEQEND
  8
0
  0
CIRCLE
  8
0
 62
     1
  6
CONTINUOUS
 10
13.0115
 20
4.4109
 40
0.2750
  0
POLYLINE
  8
0
 62
     1
 66
     1
  6
CONTINUOUS
 40
0.0200
 41
0.0200
  0
VERTEX
  8
0
 62
     1
  6
CONTINUOUS
 10
12.8437
 20
4.3112
  0
VERTEX
  8
0
 62
     1
  6
CONTINUOUS
 10
12.8851
 20
4.2619
  0
VERTEX
  8
0
 62
     1
  6
CONTINUOUS
 10
13.1814
 20
4.5105
  0
VERTEX
  8
0
 62
     1
  6
CONTINUOUS
 10
13.1400
 20
4.5599
  0
VERTEX
  8
0
 62
     1
  6
CONTINUOUS
 10
12.8437
 20
4.3112
  0
SEQEND
  8
0
  0
POLYLINE
  8
0
 62
     1
 66
     1
  6
CONTINUOUS
 40
0.0200
 41
0.0200
  0
VERTEX
  8
0
 62
     1
  6
CONTINUOUS
 10
10.0971
 20
4.4369
  0
VERTEX
  8
0
 62
     1
  6
CONTINUOUS
 10
10.0971
 20
4.7369
  0
VERTEX
  8
0
 62
     1
  6
CONTINUOUS
 10
10.0971
 20
4.1369
  0
SEQEND
  8
0
  0
POLYLINE
  8
0
 62
     1
 66
     1
  6
CONTINUOUS
 40
0.0200
 41
0.0200
  0
VERTEX
  8
0
 62
     1
  6
CONTINUOUS
 10
10.0971
 20
4.1369
  0
VERTEX
  8
0
 62
     1
  6
CONTINUOUS
 10
10.0971
 20
4.7369
  0
VERTEX
  8
0
 62
     1
  6
CONTINUOUS
 10
9.8471
 20
4.7369
  0
VERTEX
  8
0
 62
     1
  6
CONTINUOUS
 10
9.8471
 20
4.1369
  0
VERTEX
  8
0
 62
     1
  6
CONTINUOUS
 10
10.0971
 20
4.1369
  0
SEQEND
  8
0
  0
POLYLINE
  8
0
 62
     1
 66
     1
  6
CONTINUOUS
 40
0.0200
 41
0.0200
  0
VERTEX
  8
0
 62
     1
  6
CONTINUOUS
 10
9.8632
 20
4.6204
  0
VERTEX
  8
0
 62
     1
  6
CONTINUOUS
 10
10.0889
 20
4.6204
  0
SEQEND
  8
0
  0
POLYLINE
  8
0
 62
     1
 66
     1
  6
CONTINUOUS
 40
0.0200
 41
0.0200
  0
VERTEX
  8
0
 62
     1
  6
CONTINUOUS
 10
9.8471
 20
4.3142
  0
VERTEX
  8
0
 62
     1
  6
CONTINUOUS
 10
10.0889
 20
4.3142
  0
SEQEND
  8
0
  0
ENDSEC
  0
EOF
