  0
SECTION
  2
HEADER
  9
$ACADVER
  1
AC1006
  0
ENDSEC
  0
SECTION
  2
TABLES
  0
TABLE
  2
LTYPE
 70
    25
  0
LTYPE
  2
CONTINUOUS
 70
    64
  3
Solid line
 72
    64
 73
     0
 40
0.000000
  0
LTYPE
  2
DASHDOT
 70
    64
  3
__ . __ . __ . __ . __ . __ . __ . __ . __ . __
 72
    65
 73
     4
 40
1.000000
 49
0.500000
 49
-0.250000
 49
0.000000
 49
-0.250000
  0
LTYPE
  2
DASHED
 70
    64
  3
__ __ __ __ __ __ __ __ __ __ __ __ __ __ __ __
 72
    65
 73
     2
 40
0.750000
 49
0.500000
 49
-0.250000
  0
LTYPE
  2
DIVIDE
 70
    64
  3
____ . . ____ . . ____ . . ____ . . ____ . . __
 72
    65
 73
     6
 40
1.250000
 49
0.500000
 49
-0.250000
 49
0.000000
 49
-0.250000
 49
0.000000
 49
-0.250000
  0
LTYPE
  2
DOT
 70
    64
  3
. . . . . . . . . . . . . . . . . . . . . . . . 
 72
    65
 73
     2
 40
0.250000
 49
0.000000
 49
-0.250000
  0
ENDTAB
  0
ENDSEC
  0
SECTION
  2
ENTITIES
  0
LINE
  8
0
 62
     7
  6
CONTINUOUS
 10
285.755426
 20
327.908037
 30
0.000000
 11
285.685614
 21
319.800053
 31
0.000000
  0
LINE
  8
0
 62
     7
  6
CONTINUOUS
 10
270.514181
 20
257.694881
 30
0.000000
 11
275.769408
 21
314.980096
 31
0.000000
  0
LINE
  8
0
 62
     7
  6
CONTINUOUS
 10
308.881534
 20
253.490341
 30
0.000000
 11
295.957008
 21
244.328667
 31
0.000000
  0
ARC
  8
0
 62
     7
  6
CONTINUOUS
 10
40.885661
 20
61.756677
 30
0.000000
 40
30.334186
 50
239.197651
 51
290.766535
  0
ARC
  8
0
 62
     7
  6
CONTINUOUS
 10
45.349137
 20
59.376136
 30
0.000000
 40
32.570202
 50
234.197652
 51
296.466109
  0
ARC
  8
0
 62
     7
  6
CONTINUOUS
 10
3.754506
 20
-2.863891
 30
0.000000
 40
42.376777
 50
58.079202
 51
93.063131
  0
LINE
  8
0
 62
     7
  6
CONTINUOUS
 10
210.848976
 20
188.009830
 30
0.000000
 11
216.725095
 21
183.969306
 31
0.000000
  0
ARC
  8
0
 62
     7
  6
CONTINUOUS
 10
123.395896
 20
110.096138
 30
0.000000
 40
4.227188
 50
207.312606
 51
284.238541
  0
ARC
  8
0
 62
     7
  6
CONTINUOUS
 10
102.016774
 20
91.743855
 30
0.000000
 40
14.393648
 50
8.256050
 51
93.171642
  0
ARC
  8
0
 62
     7
  6
CONTINUOUS
 10
107.038488
 20
102.380851
 30
0.000000
 40
13.241119
 50
38.604335
 51
97.810706
  0
ARC
  8
0
 62
     7
  6
CONTINUOUS
 10
107.848928
 20
101.193944
 30
0.000000
 40
11.908200
 50
37.844436
 51
105.974920
  0
LINE
  8
0
 62
     7
  6
CONTINUOUS
 10
119.585494
 20
108.214822
 30
0.000000
 11
117.386064
 21
110.642483
 31
0.000000
  0
ARC
  8
0
 62
     7
  6
CONTINUOUS
 10
150.317448
 20
153.107127
 30
0.000000
 40
30.988246
 50
63.832878
 51
95.651130
  0
LINE
  8
0
 62
     7
  6
CONTINUOUS
 10
153.914830
 20
188.273961
 30
0.000000
 11
147.884554
 21
211.283421
 31
0.000000
  0
LINE
  8
0
 62
     7
  6
CONTINUOUS
 10
147.010225
 20
211.942853
 30
0.000000
 11
149.161038
 21
213.685649
 31
0.000000
  0
LINE
  8
0
 62
     7
  6
CONTINUOUS
 10
146.137894
 20
210.636004
 30
0.000000
 11
147.010225
 21
211.942853
 31
0.000000
  0
LINE
  8
0
 62
     7
  6
CONTINUOUS
 10
146.050666
 20
209.422440
 30
0.000000
 11
146.137894
 21
210.636004
 31
0.000000
  0
LINE
  8
0
 62
     7
  6
CONTINUOUS
 10
151.895271
 20
187.018902
 30
0.000000
 11
146.050666
 21
209.422440
 31
0.000000
  0
LINE
  8
0
 62
     7
  6
CONTINUOUS
 10
144.218777
 20
210.542648
 30
0.000000
 11
148.544785
 21
214.015352
 31
0.000000
  0
LINE
  8
0
 62
     7
  6
CONTINUOUS
 10
143.259218
 20
208.955705
 30
0.000000
 11
144.218777
 21
210.542648
 31
0.000000
  0
LINE
  8
0
 62
     7
  6
CONTINUOUS
 10
142.910293
 20
206.622029
 30
0.000000
 11
143.259218
 21
208.955705
 31
0.000000
  0
LINE
  8
0
 62
     7
  6
CONTINUOUS
 10
148.580417
 20
184.871867
 30
0.000000
 11
142.910293
 21
206.622029
 31
0.000000
  0
LINE
  8
0
 62
     7
  6
CONTINUOUS
 10
143.695371
 20
211.196072
 30
0.000000
 11
147.758653
 21
214.481022
 31
0.000000
  0
LINE
  8
0
 62
     7
  6
CONTINUOUS
 10
141.252861
 20
208.488970
 30
0.000000
 11
143.695371
 21
211.196072
 31
0.000000
  0
LINE
  8
0
 62
     7
  6
CONTINUOUS
 10
140.642251
 20
205.875249
 30
0.000000
 11
141.252861
 21
208.488970
 31
0.000000
  0
LINE
  8
0
 62
     7
  6
CONTINUOUS
 10
146.225135
 20
183.378317
 30
0.000000
 11
140.642251
 21
205.875249
 31
0.000000
  0
LINE
  8
0
 62
     7
  6
CONTINUOUS
 10
143.608131
 20
212.222899
 30
0.000000
 11
147.758653
 21
214.481022
 31
0.000000
  0
LINE
  8
0
 62
     7
  6
CONTINUOUS
 10
140.903936
 20
209.889223
 30
0.000000
 11
143.608131
 21
212.222899
 31
0.000000
  0
LINE
  8
0
 62
     7
  6
CONTINUOUS
 10
138.548641
 20
205.968581
 30
0.000000
 11
140.903936
 21
209.889223
 31
0.000000
  0
LINE
  8
0
 62
     7
  6
CONTINUOUS
 10
143.957092
 20
181.978064
 30
0.000000
 11
138.548641
 21
205.968581
 31
0.000000
  0
ARC
  8
0
 62
     7
  6
CONTINUOUS
 10
230.251159
 20
240.429995
 30
0.000000
 40
11.530551
 50
63.726403
 51
119.710636
  0
ARC
  8
0
 62
     7
  6
CONTINUOUS
 10
303.428863
 20
157.933831
 30
0.000000
 40
121.734830
 50
123.885466
 51
138.466526
  0
ARC
  8
0
 62
     7
  6
CONTINUOUS
 10
223.650423
 20
226.255691
 30
0.000000
 40
16.874144
 50
132.728498
 51
192.005442
  0
ARC
  8
0
 62
     7
  6
CONTINUOUS
 10
73.473495
 20
60.828785
 30
0.000000
 40
68.792482
 50
46.299274
 51
102.032637
  0
LINE
  8
0
 62
     7
  6
CONTINUOUS
 10
208.614689
 20
205.942492
 30
0.000000
 11
206.623919
 21
206.014702
 31
0.000000
  0
LINE
  8
0
 62
     7
  6
CONTINUOUS
 10
237.298306
 20
195.702008
 30
0.000000
 11
235.313083
 21
194.300798
 31
0.000000
  0
LINE
  8
0
 62
     7
  6
CONTINUOUS
 10
246.971141
 20
204.154496
 30
0.000000
 11
244.816936
 21
202.617671
 31
0.000000
  0
LINE
  8
0
 62
     7
  6
CONTINUOUS
 10
247.815906
 20
203.566862
 30
0.000000
 11
246.971141
 21
204.154496
 31
0.000000
  0
LINE
  8
0
 62
     7
  6
CONTINUOUS
 10
245.894051
 20
202.354545
 30
0.000000
 11
247.815906
 21
203.566862
 31
0.000000
  0
LINE
  8
0
 62
     7
  6
CONTINUOUS
 10
247.182320
 20
201.487665
 30
0.000000
 11
245.894051
 21
202.354545
 31
0.000000
  0
LINE
  8
0
 62
     7
  6
CONTINUOUS
 10
248.914143
 20
202.662884
 30
0.000000
 11
247.182320
 21
201.487665
 31
0.000000
  0
LINE
  8
0
 62
     7
  6
CONTINUOUS
 10
249.677468
 20
202.109175
 30
0.000000
 11
248.914143
 21
202.662884
 31
0.000000
  0
LINE
  8
0
 62
     7
  6
CONTINUOUS
 10
247.604727
 20
200.674064
 30
0.000000
 11
249.677468
 21
202.109175
 31
0.000000
  0
ARC
  8
0
 62
     7
  6
CONTINUOUS
 10
234.165576
 20
193.169399
 30
0.000000
 40
1.553690
 50
330.416740
 51
474.636293
  0
ARC
  8
0
 62
     7
  6
CONTINUOUS
 10
239.210447
 20
197.284494
 30
0.000000
 40
2.033570
 50
349.744017
 51
474.010375
  0
LINE
  8
0
 62
     7
  6
CONTINUOUS
 10
193.463312
 20
166.534941
 30
0.000000
 11
196.256020
 21
169.035516
 31
0.000000
  0
ARC
  8
0
 62
     7
  6
CONTINUOUS
 10
188.615219
 20
162.330511
 30
0.000000
 40
2.346368
 50
354.251422
 51
471.474899
  0
ARC
  8
0
 62
     7
  6
CONTINUOUS
 10
192.490516
 20
164.746218
 30
0.000000
 40
2.036145
 50
11.291139
 51
113.250165
  0
ARC
  8
0
 62
     7
  6
CONTINUOUS
 10
194.831204
 20
166.175843
 30
0.000000
 40
3.202742
 50
355.660927
 51
482.474072
  0
LINE
  8
0
 62
     7
  6
CONTINUOUS
 10
162.085625
 20
133.572794
 30
0.000000
 11
159.514307
 21
138.221493
 31
0.000000
  0
LINE
  8
0
 62
     7
  6
CONTINUOUS
 10
164.512306
 20
128.073735
 30
0.000000
 11
162.085625
 21
133.572794
 31
0.000000
  0
ARC
  8
0
 62
     7
  6
CONTINUOUS
 10
116.509688
 20
104.391375
 30
0.000000
 40
54.726420
 50
38.137314
 51
100.178009
  0
LINE
  8
0
 62
     7
  6
CONTINUOUS
 10
223.836071
 20
218.386185
 30
0.000000
 11
219.486893
 21
218.536322
 31
0.000000
  0
LINE
  8
0
 62
     7
  6
CONTINUOUS
 10
223.274865
 20
220.938404
 30
0.000000
 11
223.836071
 21
218.386185
 31
0.000000
  0
ARC
  8
0
 62
     7
  6
CONTINUOUS
 10
229.526663
 20
185.041794
 30
0.000000
 40
38.333910
 50
26.543158
 51
64.312556
  0
LINE
  8
0
 62
     7
  6
CONTINUOUS
 10
294.351728
 20
255.252176
 30
0.000000
 11
281.388663
 21
246.944835
 31
0.000000
  0
ARC
  8
0
 62
     7
  6
CONTINUOUS
 10
107.078675
 20
101.387343
 30
0.000000
 40
10.190170
 50
26.760941
 51
109.676172
  0
ARC
  8
0
 62
     7
  6
CONTINUOUS
 10
122.196950
 20
95.452132
 30
0.000000
 40
6.101567
 50
196.144387
 51
298.823208
  0
ARC
  8
0
 62
     7
  6
CONTINUOUS
 10
219.789758
 20
179.887675
 30
0.000000
 40
44.633234
 50
20.063988
 51
109.871120
  0
ARC
  8
0
 62
     7
  6
CONTINUOUS
 10
113.374560
 20
69.967598
 30
0.000000
 40
2.404483
 50
168.050111
 51
283.624753
  0
ARC
  8
0
 62
     7
  6
CONTINUOUS
 10
126.442924
 20
101.853848
 30
0.000000
 40
6.400465
 50
208.123978
 51
271.832540
  0
ARC
  8
0
 62
     7
  6
CONTINUOUS
 10
128.867679
 20
115.318845
 30
0.000000
 40
13.449739
 50
210.579896
 51
256.941116
  0
ARC
  8
0
 62
     7
  6
CONTINUOUS
 10
110.644857
 20
87.144075
 30
0.000000
 40
3.883812
 50
359.366360
 51
465.756337
  0
ARC
  8
0
 62
     7
  6
CONTINUOUS
 10
284.735600
 20
243.028843
 30
0.000000
 40
13.794599
 50
58.305322
 51
100.176697
  0
ARC
  8
0
 62
     7
  6
CONTINUOUS
 10
288.100002
 20
245.956523
 30
0.000000
 40
13.878933
 50
43.675832
 51
107.104217
  0
ARC
  8
0
 62
     7
  6
CONTINUOUS
 10
292.215230
 20
246.543551
 30
0.000000
 40
16.965873
 50
33.977831
 51
112.444687
  0
ARC
  8
0
 62
     7
  6
CONTINUOUS
 10
295.615822
 20
247.693820
 30
0.000000
 40
18.167438
 50
38.599175
 51
120.256053
  0
ARC
  8
0
 62
     7
  6
CONTINUOUS
 10
281.936279
 20
249.097126
 30
0.000000
 40
5.392099
 50
43.796081
 51
101.620866
  0
ARC
  8
0
 62
     7
  6
CONTINUOUS
 10
280.481935
 20
249.015154
 30
0.000000
 40
3.408687
 50
39.479480
 51
131.456143
  0
LINE
  8
0
 62
     7
  6
CONTINUOUS
 10
281.388663
 20
246.944835
 30
0.000000
 11
279.763955
 21
248.954644
 31
0.000000
  0
LINE
  8
0
 62
     7
  6
CONTINUOUS
 10
310.719358
 20
252.925841
 30
0.000000
 11
308.881534
 21
253.490341
 31
0.000000
  0
ARC
  8
0
 62
     7
  6
CONTINUOUS
 10
298.271789
 20
227.247369
 30
0.000000
 40
28.298436
 50
68.117880
 51
122.607264
  0
ARC
  8
0
 62
     7
  6
CONTINUOUS
 10
312.984093
 20
253.565918
 30
0.000000
 40
6.270200
 50
30.023862
 51
119.413550
  0
ARC
  8
0
 62
     7
  6
CONTINUOUS
 10
26.545470
 20
72.959137
 30
0.000000
 40
32.486362
 50
254.924380
 51
287.994626
  0
ARC
  8
0
 62
     7
  6
CONTINUOUS
 10
19.830821
 20
61.330983
 30
0.000000
 40
19.816226
 50
219.765448
 51
264.977571
  0
LINE
  8
0
 62
     7
  6
CONTINUOUS
 10
2.838168
 20
40.962895
 30
0.000000
 11
2.104629
 21
40.962895
 31
0.000000
  0
LINE
  8
0
 62
     7
  6
CONTINUOUS
 10
4.158572
 20
40.962895
 30
0.000000
 11
2.838168
 21
40.962895
 31
0.000000
  0
LINE
  8
0
 62
     7
  6
CONTINUOUS
 10
5.625650
 20
40.805882
 30
0.000000
 11
4.158572
 21
40.962895
 31
0.000000
  0
LINE
  8
0
 62
     7
  6
CONTINUOUS
 10
8.559873
 20
40.334917
 30
0.000000
 11
5.625650
 21
40.805882
 31
0.000000
  0
LINE
  8
0
 62
     7
  6
CONTINUOUS
 10
12.814434
 20
39.392959
 30
0.000000
 11
8.559873
 21
40.334917
 31
0.000000
  0
LINE
  8
0
 62
     7
  6
CONTINUOUS
 10
17.532958
 20
38.442475
 30
0.000000
 11
12.814434
 21
39.392959
 31
0.000000
  0
LINE
  8
0
 62
     7
  6
CONTINUOUS
 10
21.172919
 20
37.432629
 30
0.000000
 11
17.532958
 21
38.442475
 31
0.000000
  0
LINE
  8
0
 62
     7
  6
CONTINUOUS
 10
25.364973
 20
35.793182
 30
0.000000
 11
21.172919
 21
37.432629
 31
0.000000
  0
LINE
  8
0
 62
     7
  6
CONTINUOUS
 10
163.257574
 20
201.553177
 30
0.000000
 11
164.203034
 21
197.567241
 31
0.000000
  0
LINE
  8
0
 62
     7
  6
CONTINUOUS
 10
169.254603
 20
214.335948
 30
0.000000
 11
171.007173
 21
211.357302
 31
0.000000
  0
LINE
  8
0
 62
     7
  6
CONTINUOUS
 10
176.677297
 20
213.232745
 30
0.000000
 11
178.532998
 21
209.040559
 31
0.000000
  0
ARC
  8
0
 62
     7
  6
CONTINUOUS
 10
183.492567
 20
190.362545
 30
0.000000
 40
14.480624
 50
54.836963
 51
117.614901
  0
LINE
  8
0
 62
     7
  6
CONTINUOUS
 10
153.452649
 20
217.312511
 30
0.000000
 11
152.836432
 21
217.689329
 31
0.000000
  0
LINE
  8
0
 62
     7
  6
CONTINUOUS
 10
266.919730
 20
317.659922
 30
0.000000
 11
266.680718
 21
317.966808
 31
0.000000
  0
LINE
  8
0
 62
     7
  6
CONTINUOUS
 10
284.891259
 20
328.093975
 30
0.000000
 11
265.294611
 21
317.250718
 31
0.000000
  0
LINE
  8
0
 62
     7
  6
CONTINUOUS
 10
285.790356
 20
327.908037
 30
0.000000
 11
284.891259
 21
328.093975
 31
0.000000
  0
LINE
  8
0
 62
     7
  6
CONTINUOUS
 10
275.515838
 20
322.905266
 30
0.000000
 11
276.117933
 21
322.640553
 31
0.000000
  0
ARC
  8
0
 62
     7
  6
CONTINUOUS
 10
228.090438
 20
231.961495
 30
0.000000
 40
16.530604
 50
68.979501
 51
123.165605
  0
ARC
  8
0
 62
     7
  6
CONTINUOUS
 10
225.009570
 20
232.455772
 30
0.000000
 40
13.530769
 50
55.779399
 51
137.042432
  0
ARC
  8
0
 62
     7
  6
CONTINUOUS
 10
221.654688
 20
223.388981
 30
0.000000
 40
17.841365
 50
59.564003
 51
121.603814
  0
ARC
  8
0
 62
     7
  6
CONTINUOUS
 10
215.391262
 20
215.877957
 30
0.000000
 40
15.508437
 50
61.411583
 51
123.302086
  0
ARC
  8
0
 62
     7
  6
CONTINUOUS
 10
235.030300
 20
251.376056
 30
0.000000
 40
5.764895
 50
64.387278
 51
128.004411
  0
ARC
  8
0
 62
     7
  6
CONTINUOUS
 10
232.993312
 20
242.994034
 30
0.000000
 40
11.317274
 50
72.100358
 51
131.873959
  0
ARC
  8
0
 62
     7
  6
CONTINUOUS
 10
218.255161
 20
218.417555
 30
0.000000
 40
17.919888
 50
54.774651
 51
124.172798
  0
ARC
  8
0
 62
     7
  6
CONTINUOUS
 10
288.711738
 20
248.643060
 30
0.000000
 40
3.794163
 50
327.624968
 51
598.205234
  0
ARC
  8
0
 62
     7
  6
CONTINUOUS
 10
276.833805
 20
231.345254
 30
0.000000
 40
6.600632
 50
142.763822
 51
293.721056
  0
ARC
  8
0
 62
     7
  6
CONTINUOUS
 10
290.626907
 20
240.046346
 30
0.000000
 40
6.648577
 50
333.042182
 51
488.418467
  0
CIRCLE
  8
0
 62
     7
  6
CONTINUOUS
 10
297.087753
 20
250.305482
 30
0.000000
 40
4.116801
  0
ARC
  8
0
 62
     7
  6
CONTINUOUS
 10
313.268306
 20
237.769402
 30
0.000000
 40
6.609481
 50
31.132252
 51
330.900781
  0
ARC
  8
0
 62
     7
  6
CONTINUOUS
 10
284.743715
 20
219.256287
 30
0.000000
 40
6.003498
 50
125.891315
 51
313.666438
  0
ARC
  8
0
 62
     7
  6
CONTINUOUS
 10
261.627611
 20
211.322033
 30
0.000000
 40
22.140536
 50
354.041244
 51
461.218632
  0
ARC
  8
0
 62
     7
  6
CONTINUOUS
 10
270.846210
 20
213.532024
 30
0.000000
 40
7.526909
 50
240.571612
 51
526.493657
  0
ARC
  8
0
 62
     7
  6
CONTINUOUS
 10
260.206549
 20
223.789247
 30
0.000000
 40
7.257895
 50
286.313088
 51
559.016669
  0
ARC
  8
0
 62
     7
  6
CONTINUOUS
 10
249.955867
 20
204.276775
 30
0.000000
 40
17.463584
 50
355.877281
 51
462.236276
  0
ARC
  8
0
 62
     7
  6
CONTINUOUS
 10
316.177745
 20
226.388580
 30
0.000000
 40
4.704690
 50
338.092752
 51
404.873943
  0
ARC
  8
0
 62
     7
  6
CONTINUOUS
 10
318.810821
 20
227.050458
 30
0.000000
 40
6.032193
 50
315.127142
 51
426.356500
  0
ARC
  8
0
 62
     7
  6
CONTINUOUS
 10
318.298304
 20
227.648653
 30
0.000000
 40
8.915861
 50
336.158934
 51
419.081174
  0
ARC
  8
0
 62
     7
  6
CONTINUOUS
 10
319.640519
 20
229.752715
 30
0.000000
 40
10.769670
 50
335.978945
 51
419.670865
  0
ARC
  8
0
 62
     7
  6
CONTINUOUS
 10
323.042830
 20
231.741087
 30
0.000000
 40
10.108643
 50
325.097060
 51
431.518730
  0
ARC
  8
0
 62
     7
  6
CONTINUOUS
 10
322.583968
 20
232.708930
 30
0.000000
 40
13.277177
 50
335.868979
 51
431.499113
  0
ARC
  8
0
 62
     7
  6
CONTINUOUS
 10
-1.198692
 20
4.381489
 30
0.000000
 40
28.837784
 50
23.298248
 51
86.773407
  0
ARC
  8
0
 62
     7
  6
CONTINUOUS
 10
7.252875
 20
13.321754
 30
0.000000
 40
25.174678
 50
8.036031
 51
104.288068
  0
ARC
  8
0
 62
     7
  6
CONTINUOUS
 10
2.141611
 20
8.239183
 30
0.000000
 40
26.361945
 50
16.787649
 51
93.332752
  0
ARC
  8
0
 62
     7
  6
CONTINUOUS
 10
253.342555
 20
149.514578
 30
0.000000
 40
6.950743
 50
28.390448
 51
74.544958
  0
ARC
  8
0
 62
     7
  6
CONTINUOUS
 10
245.999762
 20
147.477783
 30
0.000000
 40
2.561262
 50
67.808704
 51
258.296745
  0
ARC
  8
0
 62
     7
  6
CONTINUOUS
 10
272.413508
 20
159.650103
 30
0.000000
 40
2.661280
 50
174.034873
 51
248.815950
  0
ARC
  8
0
 62
     7
  6
CONTINUOUS
 10
259.956177
 20
158.715470
 30
0.000000
 40
2.935511
 50
39.007678
 51
132.452941
  0
ARC
  8
0
 62
     7
  6
CONTINUOUS
 10
254.153939
 20
144.429629
 30
0.000000
 40
2.698625
 50
25.848641
 51
200.497252
  0
ARC
  8
0
 62
     7
  6
CONTINUOUS
 10
253.812148
 20
145.225389
 30
0.000000
 40
8.344649
 50
15.929488
 51
208.395601
  0
ARC
  8
0
 62
     7
  6
CONTINUOUS
 10
278.870987
 20
159.966738
 30
0.000000
 40
2.776156
 50
218.739841
 51
305.230690
  0
ARC
  8
0
 62
     7
  6
CONTINUOUS
 10
261.411708
 20
163.062636
 30
0.000000
 40
3.166585
 50
43.206551
 51
186.854318
  0
ARC
  8
0
 62
     7
  6
CONTINUOUS
 10
278.522171
 20
160.490410
 30
0.000000
 40
2.511534
 50
35.312672
 51
178.340146
  0
ARC
  8
0
 62
     7
  6
CONTINUOUS
 10
17.489108
 20
33.100369
 30
0.000000
 40
17.326883
 50
184.167732
 51
272.243363
  0
LINE
  8
0
 62
     7
  6
CONTINUOUS
 10
5.204810
 20
51.363598
 30
0.000000
 11
35.616991
 21
102.298468
 31
0.000000
  0
LINE
  8
0
 62
     7
  6
CONTINUOUS
 10
0.958471
 20
37.731491
 30
0.000000
 11
5.204810
 21
51.363598
 31
0.000000
  0
LINE
  8
0
 62
     7
  6
CONTINUOUS
 10
0.250754
 20
31.672785
 30
0.000000
 11
0.958471
 21
37.731491
 31
0.000000
  0
LINE
  8
0
 62
     7
  6
CONTINUOUS
 10
27.144289
 20
15.768634
 30
0.000000
 11
17.943860
 21
15.768634
 31
0.000000
  0
LINE
  8
0
 62
     7
  6
CONTINUOUS
 10
12.989803
 20
40.760845
 30
0.000000
 11
2.726726
 21
42.973682
 31
0.000000
  0
LINE
  8
0
 62
     7
  6
CONTINUOUS
 10
21.482481
 20
38.488836
 30
0.000000
 11
12.989803
 21
40.760845
 31
0.000000
  0
LINE
  8
0
 62
     7
  6
CONTINUOUS
 10
34.221530
 20
34.702136
 30
0.000000
 11
21.482481
 21
38.488836
 31
0.000000
  0
LINE
  8
0
 62
     7
  6
CONTINUOUS
 10
39.883340
 20
34.702136
 30
0.000000
 11
34.221530
 21
34.702136
 31
0.000000
  0
LINE
  8
0
 62
     7
  6
CONTINUOUS
 10
50.273875
 20
36.334710
 30
0.000000
 11
39.883340
 21
34.702136
 31
0.000000
  0
LINE
  8
0
 62
     7
  6
CONTINUOUS
 10
36.728112
 20
42.061868
 30
0.000000
 11
40.912077
 21
43.916103
 31
0.000000
  0
LINE
  8
0
 62
     7
  6
CONTINUOUS
 10
37.021562
 20
46.614693
 30
0.000000
 11
43.758267
 21
50.736813
 31
0.000000
  0
LINE
  8
0
 62
     7
  6
CONTINUOUS
 10
32.806095
 20
45.304890
 30
0.000000
 11
37.021562
 21
46.614693
 31
0.000000
  0
LINE
  8
0
 62
     7
  6
CONTINUOUS
 10
24.313384
 20
43.790199
 30
0.000000
 11
32.806095
 21
45.304890
 31
0.000000
  0
LINE
  8
0
 62
     7
  6
CONTINUOUS
 10
20.590050
 20
43.631803
 30
0.000000
 11
24.313384
 21
43.790199
 31
0.000000
  0
LINE
  8
0
 62
     7
  6
CONTINUOUS
 10
14.405239
 20
45.304890
 30
0.000000
 11
20.590050
 21
43.631803
 31
0.000000
  0
LINE
  8
0
 62
     7
  6
CONTINUOUS
 10
9.451182
 20
46.819550
 30
0.000000
 11
14.405239
 21
45.304890
 31
0.000000
  0
LINE
  8
0
 62
     7
  6
CONTINUOUS
 10
5.354919
 20
51.293793
 30
0.000000
 11
9.451182
 21
46.819550
 31
0.000000
  0
LINE
  8
0
 62
     7
  6
CONTINUOUS
 10
25.021102
 20
44.547544
 30
0.000000
 11
28.559757
 21
50.606250
 31
0.000000
  0
LINE
  8
0
 62
     7
  6
CONTINUOUS
 10
10.866617
 20
48.334244
 30
0.000000
 11
25.021102
 21
44.547544
 31
0.000000
  0
LINE
  8
0
 62
     7
  6
CONTINUOUS
 10
14.405239
 20
53.635607
 30
0.000000
 11
10.866617
 21
48.334244
 31
0.000000
  0
LINE
  8
0
 62
     7
  6
CONTINUOUS
 10
28.610905
 20
50.625634
 30
0.000000
 11
14.405239
 21
53.635607
 31
0.000000
  0
LINE
  8
0
 62
     7
  6
CONTINUOUS
 10
35.636999
 20
64.238363
 30
0.000000
 11
38.525855
 21
68.732681
 31
0.000000
  0
LINE
  8
0
 62
     7
  6
CONTINUOUS
 10
23.605668
 20
67.267708
 30
0.000000
 11
35.636999
 21
64.238363
 31
0.000000
  0
LINE
  8
0
 62
     7
  6
CONTINUOUS
 10
25.728853
 20
71.054414
 30
0.000000
 11
23.605668
 21
67.267708
 31
0.000000
  0
LINE
  8
0
 62
     7
  6
CONTINUOUS
 10
38.525855
 20
68.732681
 30
0.000000
 11
25.728853
 21
71.054414
 31
0.000000
  0
LINE
  8
0
 62
     7
  6
CONTINUOUS
 10
46.252864
 20
21.070029
 30
0.000000
 11
60.032237
 21
26.507433
 31
0.000000
  0
LINE
  8
0
 62
     7
  6
CONTINUOUS
 10
41.298805
 20
19.555335
 30
0.000000
 11
46.252864
 21
21.070029
 31
0.000000
  0
LINE
  8
0
 62
     7
  6
CONTINUOUS
 10
34.221530
 20
17.283328
 30
0.000000
 11
41.298805
 21
19.555335
 31
0.000000
  0
LINE
  8
0
 62
     7
  6
CONTINUOUS
 10
27.144289
 20
15.768634
 30
0.000000
 11
34.221530
 21
17.283328
 31
0.000000
  0
LINE
  8
0
 62
     7
  6
CONTINUOUS
 10
208.614689
 20
205.942492
 30
0.000000
 11
166.128074
 21
176.382003
 31
0.000000
  0
LINE
  8
0
 62
     7
  6
CONTINUOUS
 10
228.472537
 20
217.356428
 30
0.000000
 11
233.917674
 21
217.357833
 31
0.000000
  0
LINE
  8
0
 62
     7
  6
CONTINUOUS
 10
303.825302
 20
236.149975
 30
0.000000
 11
292.473693
 21
247.804618
 31
0.000000
  0
POINT
  8
0
 62
     7
 10
312.691815
 20
252.951348
 30
0.000000
  0
POINT
  8
0
 62
     7
 10
315.522698
 20
254.466033
 30
0.000000
  0
POINT
  8
0
 62
     7
 10
318.353606
 20
255.980742
 30
0.000000
  0
POINT
  8
0
 62
     7
 10
318.353606
 20
247.650000
 30
0.000000
  0
POINT
  8
0
 62
     7
 10
321.184489
 20
249.164685
 30
0.000000
  0
POINT
  8
0
 62
     7
 10
324.015421
 20
251.436687
 30
0.000000
  0
LINE
  8
0
 62
     7
  6
CONTINUOUS
 10
263.045741
 20
193.052582
 30
0.000000
 11
261.725328
 21
195.229290
 31
0.000000
  0
LINE
  8
0
 62
     7
  6
CONTINUOUS
 10
230.850807
 20
185.507681
 30
0.000000
 11
192.522018
 21
158.415161
 31
0.000000
  0
LINE
  8
0
 62
     7
  6
CONTINUOUS
 10
215.698946
 20
191.512886
 30
0.000000
 11
173.977716
 21
162.070643
 31
0.000000
  0
LINE
  8
0
 62
     7
  6
CONTINUOUS
 10
211.349817
 20
197.367955
 30
0.000000
 11
169.023658
 21
170.401360
 31
0.000000
  0
LINE
  8
0
 62
     7
  6
CONTINUOUS
 10
185.543338
 20
212.239879
 30
0.000000
 11
176.368038
 21
205.510324
 31
0.000000
  0
LINE
  8
0
 62
     7
  6
CONTINUOUS
 10
160.163661
 20
198.904538
 30
0.000000
 11
163.057247
 21
194.173274
 31
0.000000
  0
LINE
  8
0
 62
     7
  6
CONTINUOUS
 10
158.749322
 20
197.706355
 30
0.000000
 11
161.496889
 21
193.105376
 31
0.000000
  0
LINE
  8
0
 62
     7
  6
CONTINUOUS
 10
172.038118
 20
200.104586
 30
0.000000
 11
160.626484
 21
205.934620
 31
0.000000
  0
LINE
  8
0
 62
     7
  6
CONTINUOUS
 10
160.904047
 20
208.599283
 30
0.000000
 11
159.636973
 21
212.084148
 31
0.000000
  0
LINE
  8
0
 62
     7
  6
CONTINUOUS
 10
149.769964
 20
213.343082
 30
0.000000
 11
147.774531
 21
214.462830
 31
0.000000
  0
LINE
  8
0
 62
     7
  6
CONTINUOUS
 10
159.357654
 20
218.859097
 30
0.000000
 11
154.624137
 21
218.863845
 31
0.000000
  0
LINE
  8
0
 62
     7
  6
CONTINUOUS
 10
158.470535
 20
215.852353
 30
0.000000
 11
159.357654
 21
218.859097
 31
0.000000
  0
LINE
  8
0
 62
     7
  6
CONTINUOUS
 10
382.681583
 20
181.564390
 30
0.000000
 11
368.139472
 21
170.680837
 31
0.000000
  0
LINE
  8
0
 62
     7
  6
CONTINUOUS
 10
286.908578
 20
227.529087
 30
0.000000
 11
285.225977
 21
229.310083
 31
0.000000
  0
LINE
  8
0
 62
     7
  6
CONTINUOUS
 10
288.629160
 20
156.769246
 30
0.000000
 11
288.204453
 21
158.653773
 31
0.000000
  0
LINE
  8
0
 62
     7
  6
CONTINUOUS
 10
292.923545
 20
161.894345
 30
0.000000
 11
291.079181
 21
157.062591
 31
0.000000
  0
LINE
  8
0
 62
     7
  6
CONTINUOUS
 10
293.583219
 20
157.526589
 30
0.000000
 11
292.923545
 21
161.894345
 31
0.000000
  0
LINE
  8
0
 62
     7
  6
CONTINUOUS
 10
297.324245
 20
164.806256
 30
0.000000
 11
296.531246
 21
161.093546
 31
0.000000
  0
LINE
  8
0
 62
     7
  6
CONTINUOUS
 10
299.245034
 20
162.070643
 30
0.000000
 11
297.324245
 21
164.806256
 31
0.000000
  0
LINE
  8
0
 62
     7
  6
CONTINUOUS
 10
302.710980
 20
168.471475
 30
0.000000
 11
300.660500
 21
161.313300
 31
0.000000
  0
LINE
  8
0
 62
     7
  6
CONTINUOUS
 10
304.199116
 20
161.313300
 30
0.000000
 11
302.710980
 21
168.471475
 31
0.000000
  0
LINE
  8
0
 62
     7
  6
CONTINUOUS
 10
309.881836
 20
161.420234
 30
0.000000
 11
309.257310
 21
159.988200
 31
0.000000
  0
LINE
  8
0
 62
     7
  6
CONTINUOUS
 10
310.773957
 20
160.274616
 30
0.000000
 11
309.881836
 21
161.420234
 31
0.000000
  0
LINE
  8
0
 62
     7
  6
CONTINUOUS
 10
316.280913
 20
166.012662
 30
0.000000
 11
313.896538
 21
160.751985
 31
0.000000
  0
LINE
  8
0
 62
     7
  6
CONTINUOUS
 10
317.286689
 20
161.324794
 30
0.000000
 11
316.280913
 21
166.012662
 31
0.000000
  0
LINE
  8
0
 62
     7
  6
CONTINUOUS
 10
306.295233
 20
170.869270
 30
0.000000
 11
304.906825
 21
168.886687
 31
0.000000
  0
LINE
  8
0
 62
     7
  6
CONTINUOUS
 10
307.737757
 20
168.886687
 30
0.000000
 11
306.295233
 21
170.869270
 31
0.000000
  0
LINE
  8
0
 62
     7
  6
CONTINUOUS
 10
312.286849
 20
174.906366
 30
0.000000
 11
309.860931
 21
168.886687
 31
0.000000
  0
LINE
  8
0
 62
     7
  6
CONTINUOUS
 10
313.399548
 20
168.129345
 30
0.000000
 11
312.286849
 21
174.906366
 31
0.000000
  0
LINE
  8
0
 62
     7
  6
CONTINUOUS
 10
320.587651
 20
169.057837
 30
0.000000
 11
319.769072
 21
165.857330
 31
0.000000
  0
LINE
  8
0
 62
     7
  6
CONTINUOUS
 10
321.184489
 20
166.614697
 30
0.000000
 11
320.587651
 21
169.057837
 31
0.000000
  0
LINE
  8
0
 62
     7
  6
CONTINUOUS
 10
325.441448
 20
172.510340
 30
0.000000
 11
324.015421
 21
166.614697
 31
0.000000
  0
LINE
  8
0
 62
     7
  6
CONTINUOUS
 10
327.554037
 20
165.100000
 30
0.000000
 11
325.441448
 21
172.510340
 31
0.000000
  0
LINE
  8
0
 62
     7
  6
CONTINUOUS
 10
335.338979
 20
167.372003
 30
0.000000
 11
334.631270
 21
165.100000
 31
0.000000
  0
LINE
  8
0
 62
     7
  6
CONTINUOUS
 10
336.046736
 20
165.100000
 30
0.000000
 11
335.338979
 21
167.372003
 31
0.000000
  0
LINE
  8
0
 62
     7
  6
CONTINUOUS
 10
338.542126
 20
165.790244
 30
0.000000
 11
339.040546
 21
170.033311
 31
0.000000
  0
LINE
  8
0
 62
     7
  6
CONTINUOUS
 10
341.269382
 20
166.545479
 30
0.000000
 11
339.040546
 21
170.033311
 31
0.000000
  0
LINE
  8
0
 62
     7
  6
CONTINUOUS
 10
317.481736
 20
178.392200
 30
0.000000
 11
316.938164
 21
174.945402
 31
0.000000
  0
LINE
  8
0
 62
     7
  6
CONTINUOUS
 10
319.061315
 20
175.702756
 30
0.000000
 11
317.481736
 21
178.392200
 31
0.000000
  0
LINE
  8
0
 62
     7
  6
CONTINUOUS
 10
322.323155
 20
181.650710
 30
0.000000
 11
319.873935
 21
173.735859
 31
0.000000
  0
LINE
  8
0
 62
     7
  6
CONTINUOUS
 10
324.723130
 20
174.945402
 30
0.000000
 11
322.323155
 21
181.650710
 31
0.000000
  0
LINE
  8
0
 62
     7
  6
CONTINUOUS
 10
329.687652
 20
175.454310
 30
0.000000
 11
328.261770
 21
172.673399
 31
0.000000
  0
LINE
  8
0
 62
     7
  6
CONTINUOUS
 10
331.800363
 20
171.916045
 30
0.000000
 11
329.687652
 21
175.454310
 31
0.000000
  0
LINE
  8
0
 62
     7
  6
CONTINUOUS
 10
335.162221
 20
179.405413
 30
0.000000
 11
336.234418
 21
171.832184
 31
0.000000
  0
LINE
  8
0
 62
     7
  6
CONTINUOUS
 10
333.716961
 20
173.846159
 30
0.000000
 11
335.162221
 21
179.405413
 31
0.000000
  0
LINE
  8
0
 62
     7
  6
CONTINUOUS
 10
345.247168
 20
174.188060
 30
0.000000
 11
345.247168
 21
170.401360
 31
0.000000
  0
LINE
  8
0
 62
     7
  6
CONTINUOUS
 10
346.662585
 20
169.644042
 30
0.000000
 11
345.247168
 21
174.188060
 31
0.000000
  0
LINE
  8
0
 62
     7
  6
CONTINUOUS
 10
349.082205
 20
177.092897
 30
0.000000
 11
348.785808
 21
169.644042
 31
0.000000
  0
LINE
  8
0
 62
     7
  6
CONTINUOUS
 10
352.324401
 20
169.644042
 30
0.000000
 11
349.082205
 21
177.092897
 31
0.000000
  0
LINE
  8
0
 62
     7
  6
CONTINUOUS
 10
357.612038
 20
170.967253
 30
0.000000
 11
356.630678
 21
169.153302
 31
0.000000
  0
LINE
  8
0
 62
     7
  6
CONTINUOUS
 10
358.861065
 20
169.439706
 30
0.000000
 11
357.612038
 21
170.967253
 31
0.000000
  0
LINE
  8
0
 62
     7
  6
CONTINUOUS
 10
362.205798
 20
174.675966
 30
0.000000
 11
360.817075
 21
171.916045
 31
0.000000
  0
LINE
  8
0
 62
     7
  6
CONTINUOUS
 10
363.767912
 20
170.012551
 30
0.000000
 11
362.205798
 21
174.675966
 31
0.000000
  0
LINE
  8
0
 62
     7
  6
CONTINUOUS
 10
318.446478
 20
191.684157
 30
0.000000
 11
309.153174
 21
184.033462
 31
0.000000
  0
LINE
  8
0
 62
     7
  6
CONTINUOUS
 10
319.756694
 20
185.677123
 30
0.000000
 11
318.446478
 21
191.684157
 31
0.000000
  0
LINE
  8
0
 62
     7
  6
CONTINUOUS
 10
312.825915
 20
187.006160
 30
0.000000
 11
309.153174
 21
193.121570
 31
0.000000
  0
LINE
  8
0
 62
     7
  6
CONTINUOUS
 10
326.427532
 20
184.395867
 30
0.000000
 11
312.825915
 21
187.006160
 31
0.000000
  0
LINE
  8
0
 62
     7
  6
CONTINUOUS
 10
326.412513
 20
184.398725
 30
0.000000
 11
326.138596
 21
181.761459
 31
0.000000
  0
LINE
  8
0
 62
     7
  6
CONTINUOUS
 10
329.677212
 20
181.004104
 30
0.000000
 11
326.412513
 21
184.398725
 31
0.000000
  0
LINE
  8
0
 62
     7
  6
CONTINUOUS
 10
333.702306
 20
189.297445
 30
0.000000
 11
333.215853
 21
181.761459
 31
0.000000
  0
LINE
  8
0
 62
     7
  6
CONTINUOUS
 10
335.338979
 20
182.518801
 30
0.000000
 11
333.702306
 21
189.297445
 31
0.000000
  0
LINE
  8
0
 62
     7
  6
CONTINUOUS
 10
340.482681
 20
183.187365
 30
0.000000
 11
340.293085
 21
178.732114
 31
0.000000
  0
LINE
  8
0
 62
     7
  6
CONTINUOUS
 10
342.416260
 20
178.732114
 30
0.000000
 11
340.482681
 21
183.187365
 31
0.000000
  0
LINE
  8
0
 62
     7
  6
CONTINUOUS
 10
346.283660
 20
187.293994
 30
0.000000
 11
344.539411
 21
178.732114
 31
0.000000
  0
LINE
  8
0
 62
     7
  6
CONTINUOUS
 10
348.078051
 20
180.246798
 30
0.000000
 11
346.283660
 21
187.293994
 31
0.000000
  0
LINE
  8
0
 62
     7
  6
CONTINUOUS
 10
355.114007
 20
181.277973
 30
0.000000
 11
353.739866
 21
177.217405
 31
0.000000
  0
LINE
  8
0
 62
     7
  6
CONTINUOUS
 10
355.863017
 20
177.217405
 30
0.000000
 11
355.114007
 21
181.277973
 31
0.000000
  0
LINE
  8
0
 62
     7
  6
CONTINUOUS
 10
360.433450
 20
185.073187
 30
0.000000
 11
358.693949
 21
177.217405
 31
0.000000
  0
LINE
  8
0
 62
     7
  6
CONTINUOUS
 10
361.524832
 20
178.732114
 30
0.000000
 11
360.433450
 21
185.073187
 31
0.000000
  0
LINE
  8
0
 62
     7
  6
CONTINUOUS
 10
365.641441
 20
177.363726
 30
0.000000
 11
364.355716
 21
175.702756
 31
0.000000
  0
LINE
  8
0
 62
     7
  6
CONTINUOUS
 10
367.186599
 20
175.702756
 30
0.000000
 11
365.641441
 21
177.363726
 31
0.000000
  0
LINE
  8
0
 62
     7
  6
CONTINUOUS
 10
372.899283
 20
183.116693
 30
0.000000
 11
369.309798
 21
175.702756
 31
0.000000
  0
LINE
  8
0
 62
     7
  6
CONTINUOUS
 10
372.140681
 20
176.460099
 30
0.000000
 11
372.899283
 21
183.116693
 31
0.000000
  0
LINE
  8
0
 62
     7
  6
CONTINUOUS
 10
375.679322
 20
176.460099
 30
0.000000
 11
374.263904
 21
174.188060
 31
0.000000
  0
LINE
  8
0
 62
     7
  6
CONTINUOUS
 10
377.802497
 20
173.430742
 30
0.000000
 11
375.679322
 21
176.460099
 31
0.000000
  0
LINE
  8
0
 62
     7
  6
CONTINUOUS
 10
382.700332
 20
181.578427
 30
0.000000
 11
379.217962
 21
174.188060
 31
0.000000
  0
LINE
  8
0
 62
     7
  6
CONTINUOUS
 10
382.756555
 20
175.702756
 30
0.000000
 11
382.700332
 21
181.578427
 31
0.000000
  0
LINE
  8
0
 62
     7
  6
CONTINUOUS
 10
392.055648
 20
180.110130
 30
0.000000
 11
388.418394
 21
173.430742
 31
0.000000
  0
LINE
  8
0
 62
     7
  6
CONTINUOUS
 10
392.584467
 20
174.022263
 30
0.000000
 11
392.055648
 21
180.110130
 31
0.000000
  0
LINE
  8
0
 62
     7
  6
CONTINUOUS
 10
159.357654
 20
218.859097
 30
0.000000
 11
162.595550
 21
222.455244
 31
0.000000
  0
LINE
  8
0
 62
     7
  6
CONTINUOUS
 10
168.315937
 20
221.900433
 30
0.000000
 11
162.347346
 21
218.528134
 31
0.000000
  0
LINE
  8
0
 62
     7
  6
CONTINUOUS
 10
166.192751
 20
218.113770
 30
0.000000
 11
168.315937
 21
221.900433
 31
0.000000
  0
LINE
  8
0
 62
     7
  6
CONTINUOUS
 10
172.709879
 20
221.457534
 30
0.000000
 11
167.427898
 21
217.924852
 31
0.000000
  0
LINE
  8
0
 62
     7
  6
CONTINUOUS
 10
171.213387
 20
217.535268
 30
0.000000
 11
172.709879
 21
221.457534
 31
0.000000
  0
LINE
  8
0
 62
     7
  6
CONTINUOUS
 10
178.739163
 20
220.844902
 30
0.000000
 11
173.942350
 21
217.194761
 31
0.000000
  0
LINE
  8
0
 62
     7
  6
CONTINUOUS
 10
176.780416
 20
216.873342
 30
0.000000
 11
178.739163
 21
220.844902
 31
0.000000
  0
LINE
  8
0
 62
     7
  6
CONTINUOUS
 10
185.056558
 20
220.256396
 30
0.000000
 11
179.639520
 21
216.599061
 31
0.000000
  0
LINE
  8
0
 62
     7
  6
CONTINUOUS
 10
182.349516
 20
216.252716
 30
0.000000
 11
185.056558
 21
220.256396
 31
0.000000
  0
LINE
  8
0
 62
     7
  6
CONTINUOUS
 10
191.670859
 20
219.628430
 30
0.000000
 11
185.364667
 21
215.922988
 31
0.000000
  0
LINE
  8
0
 62
     7
  6
CONTINUOUS
 10
188.819943
 20
215.499080
 30
0.000000
 11
191.670859
 21
219.628430
 31
0.000000
  0
LINE
  8
0
 62
     7
  6
CONTINUOUS
 10
196.835672
 20
219.123495
 30
0.000000
 11
190.646648
 21
215.310671
 31
0.000000
  0
LINE
  8
0
 62
     7
  6
CONTINUOUS
 10
274.474671
 20
258.252744
 30
0.000000
 11
269.943625
 21
257.613806
 31
0.000000
  0
LINE
  8
0
 62
     7
  6
CONTINUOUS
 10
285.090544
 20
266.583462
 30
0.000000
 11
274.474671
 21
258.252744
 31
0.000000
  0
LINE
  8
0
 62
     7
  6
CONTINUOUS
 10
259.612448
 20
308.237121
 30
0.000000
 11
231.167818
 21
225.952681
 31
0.000000
  0
LINE
  8
0
 62
     7
  6
CONTINUOUS
 10
238.910902
 20
227.742833
 30
0.000000
 11
227.535288
 21
230.249051
 31
0.000000
  0
LINE
  8
0
 62
     7
  6
CONTINUOUS
 10
239.819034
 20
236.847050
 30
0.000000
 11
230.430000
 21
237.928476
 31
0.000000
  0
LINE
  8
0
 62
     7
  6
CONTINUOUS
 10
242.304445
 20
244.570319
 30
0.000000
 11
233.605460
 21
246.155881
 31
0.000000
  0
LINE
  8
0
 62
     7
  6
CONTINUOUS
 10
244.885489
 20
252.191268
 30
0.000000
 11
236.461536
 21
253.739502
 31
0.000000
  0
LINE
  8
0
 62
     7
  6
CONTINUOUS
 10
247.678874
 20
260.375725
 30
0.000000
 11
239.379865
 21
261.351635
 31
0.000000
  0
LINE
  8
0
 62
     7
  6
CONTINUOUS
 10
250.468699
 20
268.749318
 30
0.000000
 11
242.627051
 21
269.612855
 31
0.000000
  0
LINE
  8
0
 62
     7
  6
CONTINUOUS
 10
253.078835
 20
276.514566
 30
0.000000
 11
245.637187
 21
277.901206
 31
0.000000
  0
LINE
  8
0
 62
     7
  6
CONTINUOUS
 10
255.783103
 20
284.772177
 30
0.000000
 11
248.279031
 21
284.720993
 31
0.000000
  0
LINE
  8
0
 62
     7
  6
CONTINUOUS
 10
258.196982
 20
292.333028
 30
0.000000
 11
251.412779
 21
293.055295
 31
0.000000
  0
LINE
  8
0
 62
     7
  6
CONTINUOUS
 10
260.801741
 20
299.809462
 30
0.000000
 11
254.396996
 21
300.372097
 31
0.000000
  0
LINE
  8
0
 62
     7
  6
CONTINUOUS
 10
263.669541
 20
308.299956
 30
0.000000
 11
257.489249
 21
308.237121
 31
0.000000
  0
LINE
  8
0
 62
     7
  6
CONTINUOUS
 10
271.740002
 20
309.739621
 30
0.000000
 11
263.858797
 21
308.994463
 31
0.000000
  0
LINE
  8
0
 62
     7
  6
CONTINUOUS
 10
270.934625
 20
303.747836
 30
0.000000
 11
261.614288
 21
302.162225
 31
0.000000
  0
LINE
  8
0
 62
     7
  6
CONTINUOUS
 10
270.026468
 20
297.610153
 30
0.000000
 11
259.612448
 21
296.119716
 31
0.000000
  0
LINE
  8
0
 62
     7
  6
CONTINUOUS
 10
269.166153
 20
291.574741
 30
0.000000
 11
257.790563
 21
290.807516
 31
0.000000
  0
LINE
  8
0
 62
     7
  6
CONTINUOUS
 10
258.650903
 20
285.437059
 30
0.000000
 11
256.022091
 21
285.232469
 31
0.000000
  0
LINE
  8
0
 62
     7
  6
CONTINUOUS
 10
267.827862
 20
282.368205
 30
0.000000
 11
254.301411
 21
280.220032
 31
0.000000
  0
LINE
  8
0
 62
     7
  6
CONTINUOUS
 10
256.356663
 20
277.202339
 30
0.000000
 11
253.078835
 21
276.514566
 31
0.000000
  0
LINE
  8
0
 62
     7
  6
CONTINUOUS
 10
254.779361
 20
271.115792
 30
0.000000
 11
251.042574
 21
270.472759
 31
0.000000
  0
LINE
  8
0
 62
     7
  6
CONTINUOUS
 10
265.772586
 20
268.046938
 30
0.000000
 11
249.320441
 21
265.157701
 31
0.000000
  0
LINE
  8
0
 62
     7
  6
CONTINUOUS
 10
264.960063
 20
262.881047
 30
0.000000
 11
247.040517
 21
258.423882
 31
0.000000
  0
LINE
  8
0
 62
     7
  6
CONTINUOUS
 10
264.004137
 20
256.027323
 30
0.000000
 11
244.885489
 21
252.191268
 31
0.000000
  0
LINE
  8
0
 62
     7
  6
CONTINUOUS
 10
258.698720
 20
249.173575
 30
0.000000
 11
242.925821
 21
246.309311
 31
0.000000
  0
LINE
  8
0
 62
     7
  6
CONTINUOUS
 10
257.694978
 20
243.189323
 30
0.000000
 11
240.679374
 21
239.353292
 31
0.000000
  0
LINE
  8
0
 62
     7
  6
CONTINUOUS
 10
244.598684
 20
233.931676
 30
0.000000
 11
239.723425
 21
233.369040
 31
0.000000
  0
LINE
  8
0
 62
     7
  6
CONTINUOUS
 10
207.927013
 20
224.529560
 30
0.000000
 11
207.853132
 21
222.853984
 31
0.000000
  0
LINE
  8
0
 62
     7
  6
CONTINUOUS
 10
210.071722
 20
224.929827
 30
0.000000
 11
207.927013
 21
224.529560
 31
0.000000
  0
LINE
  8
0
 62
     7
  6
CONTINUOUS
 10
217.148955
 20
227.201830
 30
0.000000
 11
210.071722
 21
224.929827
 31
0.000000
  0
LINE
  8
0
 62
     7
  6
CONTINUOUS
 10
222.810746
 20
229.473832
 30
0.000000
 11
217.148955
 21
227.201830
 31
0.000000
  0
LINE
  8
0
 62
     7
  6
CONTINUOUS
 10
228.591255
 20
233.149819
 30
0.000000
 11
222.810746
 21
229.473832
 31
0.000000
  0
LINE
  8
0
 62
     7
  6
CONTINUOUS
 10
283.675078
 20
209.025686
 30
0.000000
 11
278.262109
 21
212.356079
 31
0.000000
  0
LINE
  8
0
 62
     7
  6
CONTINUOUS
 10
236.148837
 20
196.097514
 30
0.000000
 11
233.511885
 21
194.625257
 31
0.000000
  0
LINE
  8
0
 62
     7
  6
CONTINUOUS
 10
190.963138
 20
162.070643
 30
0.000000
 11
193.946834
 21
155.050250
 31
0.000000
  0
LINE
  8
0
 62
     7
  6
CONTINUOUS
 10
211.349817
 20
197.367955
 30
0.000000
 11
209.474690
 21
203.147157
 31
0.000000
  0
LINE
  8
0
 62
     7
  6
CONTINUOUS
 10
209.474690
 20
203.147157
 30
0.000000
 11
208.614689
 21
205.942492
 31
0.000000
  0
LINE
  8
0
 62
     7
  6
CONTINUOUS
 10
166.900471
 20
174.945402
 30
0.000000
 11
209.474690
 21
203.147157
 31
0.000000
  0
LINE
  8
0
 62
     7
  6
CONTINUOUS
 10
302.482675
 20
255.250432
 30
0.000000
 11
292.473693
 21
247.804618
 31
0.000000
  0
LINE
  8
0
 62
     7
  6
CONTINUOUS
 10
303.629165
 20
243.033373
 30
0.000000
 11
299.275507
 21
246.852835
 31
0.000000
  0
LINE
  8
0
 62
     7
  6
CONTINUOUS
 10
307.737757
 20
246.892658
 30
0.000000
 11
303.864544
 21
249.958750
 31
0.000000
  0
LINE
  8
0
 62
     7
  6
CONTINUOUS
 10
301.368209
 20
240.833943
 30
0.000000
 11
307.737757
 21
246.892658
 31
0.000000
  0
LINE
  8
0
 62
     7
  6
CONTINUOUS
 10
297.121883
 20
245.377973
 30
0.000000
 11
301.368209
 21
240.833943
 31
0.000000
  0
LINE
  8
0
 62
     7
  6
CONTINUOUS
 10
303.854806
 20
249.994963
 30
0.000000
 11
297.121883
 21
245.377973
 31
0.000000
  0
LINE
  8
0
 62
     7
  6
CONTINUOUS
 10
286.461899
 20
263.483384
 30
0.000000
 11
279.582935
 21
252.344675
 31
0.000000
  0
LINE
  8
0
 62
     7
  6
CONTINUOUS
 10
321.184489
 20
238.561940
 30
0.000000
 11
321.184489
 21
236.289889
 31
0.000000
  0
LINE
  8
0
 62
     7
  6
CONTINUOUS
 10
333.680529
 20
205.128419
 30
0.000000
 11
318.892599
 21
197.316880
 31
0.000000
  0
LINE
  8
0
 62
     7
  6
CONTINUOUS
 10
333.215853
 20
205.238974
 30
0.000000
 11
309.145931
 21
193.120734
 31
0.000000
  0
LINE
  8
0
 62
     7
  6
CONTINUOUS
 10
428.895139
 20
181.087021
 30
0.000000
 11
333.215853
 21
205.238974
 31
0.000000
  0
CIRCLE
  8
0
 62
     7
  6
CONTINUOUS
 10
108.004515
 20
77.436262
 30
0.000000
 40
6.549154
  0
CIRCLE
  8
0
 62
     7
  6
CONTINUOUS
 10
108.461815
 20
77.248634
 30
0.000000
 40
1.820657
  0
LINE
  8
0
 62
     7
  6
CONTINUOUS
 10
261.735623
 20
162.827985
 30
0.000000
 11
262.443332
 21
159.041286
 31
0.000000
  0
LINE
  8
0
 62
     7
  6
CONTINUOUS
 10
258.258776
 20
162.689924
 30
0.000000
 11
261.735623
 21
162.827985
 31
0.000000
  0
LINE
  8
0
 62
     7
  6
CONTINUOUS
 10
257.489249
 20
157.526589
 30
0.000000
 11
258.258776
 21
162.689924
 31
0.000000
  0
LINE
  8
0
 62
     7
  6
CONTINUOUS
 10
256.781540
 20
157.526589
 30
0.000000
 11
248.996575
 21
152.225241
 31
0.000000
  0
LINE
  8
0
 62
     7
  6
CONTINUOUS
 10
258.904739
 20
157.526589
 30
0.000000
 11
256.781540
 21
157.526589
 31
0.000000
  0
LINE
  8
0
 62
     7
  6
CONTINUOUS
 10
260.320157
 20
156.011928
 30
0.000000
 11
258.904739
 21
157.526589
 31
0.000000
  0
LINE
  8
0
 62
     7
  6
CONTINUOUS
 10
260.320157
 20
153.739889
 30
0.000000
 11
260.320157
 21
156.011928
 31
0.000000
  0
LINE
  8
0
 62
     7
  6
CONTINUOUS
 10
258.466031
 20
152.076933
 30
0.000000
 11
260.320157
 21
153.739889
 31
0.000000
  0
LINE
  8
0
 62
     7
  6
CONTINUOUS
 10
268.812880
 20
164.342658
 30
0.000000
 11
260.888267
 21
158.879122
 31
0.000000
  0
LINE
  8
0
 62
     7
  6
CONTINUOUS
 10
270.228297
 20
162.827985
 30
0.000000
 11
268.812880
 21
164.342658
 31
0.000000
  0
LINE
  8
0
 62
     7
  6
CONTINUOUS
 10
264.014626
 20
159.233631
 30
0.000000
 11
270.228297
 21
162.827985
 31
0.000000
  0
LINE
  8
0
 62
     7
  6
CONTINUOUS
 10
275.890112
 20
160.555946
 30
0.000000
 11
276.597821
 21
158.283943
 31
0.000000
  0
LINE
  8
0
 62
     7
  6
CONTINUOUS
 10
257.616979
 20
158.502474
 30
0.000000
 11
275.890112
 21
160.555946
 31
0.000000
  0
LINE
  8
0
 62
     7
  6
CONTINUOUS
 10
265.274239
 20
156.011928
 30
0.000000
 11
263.082948
 21
159.122845
 31
0.000000
  0
LINE
  8
0
 62
     7
  6
CONTINUOUS
 10
276.597821
 20
158.283943
 30
0.000000
 11
260.349467
 21
154.941063
 31
0.000000
  0
LINE
  8
0
 62
     7
  6
CONTINUOUS
 10
416.494200
 20
179.273093
 30
0.000000
 11
317.858069
 21
197.483137
 31
0.000000
  0
LINE
  8
0
 62
     7
  6
CONTINUOUS
 10
383.573729
 20
192.543407
 30
0.000000
 11
374.919848
 21
187.006160
 31
0.000000
  0
LINE
  8
0
 62
     7
  6
CONTINUOUS
 10
377.802497
 20
186.305501
 30
0.000000
 11
383.573729
 21
192.543407
 31
0.000000
  0
LINE
  8
0
 62
     7
  6
CONTINUOUS
 10
400.792300
 20
188.151779
 30
0.000000
 11
393.387446
 21
183.569246
 31
0.000000
  0
LINE
  8
0
 62
     7
  6
CONTINUOUS
 10
396.063882
 20
182.996437
 30
0.000000
 11
400.792300
 21
188.151779
 31
0.000000
  0
LINE
  8
0
 62
     7
  6
CONTINUOUS
 10
286.402964
 20
245.219383
 30
0.000000
 11
271.578699
 21
235.339293
 31
0.000000
  0
LINE
  8
0
 62
     7
  6
CONTINUOUS
 10
233.376114
 20
190.762242
 30
0.000000
 11
235.714222
 21
183.996824
 31
0.000000
  0
LINE
  8
0
 62
     7
  6
CONTINUOUS
 10
210.470462
 20
200.020955
 30
0.000000
 11
235.144126
 21
195.521193
 31
0.000000
  0
LINE
  8
0
 62
     7
  6
CONTINUOUS
 10
206.387741
 20
207.531228
 30
0.000000
 11
243.254072
 21
201.758857
 31
0.000000
  0
LINE
  8
0
 62
     7
  6
CONTINUOUS
 10
210.071722
 20
212.055031
 30
0.000000
 11
252.502805
 21
206.291357
 31
0.000000
  0
LINE
  8
0
 62
     7
  6
CONTINUOUS
 10
309.860931
 20
259.010087
 30
0.000000
 11
304.971259
 21
254.723623
 31
0.000000
  0
LINE
  8
0
 62
     7
  6
CONTINUOUS
 10
318.353606
 20
256.738060
 30
0.000000
 11
321.942946
 21
255.928443
 31
0.000000
  0
LINE
  8
0
 62
     7
  6
CONTINUOUS
 10
310.568640
 20
252.951348
 30
0.000000
 11
318.353606
 21
256.738060
 31
0.000000
  0
LINE
  8
0
 62
     7
  6
CONTINUOUS
 10
301.550416
 20
254.365796
 30
0.000000
 11
294.804486
 21
255.296239
 31
0.000000
  0
LINE
  8
0
 62
     7
  6
CONTINUOUS
 10
309.860931
 20
251.436687
 30
0.000000
 11
301.550416
 21
254.365796
 31
0.000000
  0
LINE
  8
0
 62
     7
  6
CONTINUOUS
 10
322.599955
 20
243.105946
 30
0.000000
 11
309.860931
 21
251.436687
 31
0.000000
  0
LINE
  8
0
 62
     7
  6
CONTINUOUS
 10
325.044525
 20
239.004065
 30
0.000000
 11
322.599955
 21
243.105946
 31
0.000000
  0
LINE
  8
0
 62
     7
  6
CONTINUOUS
 10
334.700864
 20
227.280919
 30
0.000000
 11
321.986015
 21
222.426806
 31
0.000000
  0
LINE
  8
0
 62
     7
  6
CONTINUOUS
 10
77.019415
 20
123.446329
 30
0.000000
 11
82.681218
 21
126.475674
 31
0.000000
  0
LINE
  8
0
 62
     7
  6
CONTINUOUS
 10
70.649891
 20
124.961014
 30
0.000000
 11
77.019415
 21
123.446329
 31
0.000000
  0
LINE
  8
0
 62
     7
  6
CONTINUOUS
 10
75.603979
 20
127.990371
 30
0.000000
 11
70.649891
 21
124.961014
 31
0.000000
  0
LINE
  8
0
 62
     7
  6
CONTINUOUS
 10
82.737059
 20
126.455702
 30
0.000000
 11
75.603979
 21
127.990371
 31
0.000000
  0
LINE
  8
0
 62
     7
  6
CONTINUOUS
 10
86.927555
 20
120.416972
 30
0.000000
 11
92.589364
 21
123.446329
 31
0.000000
  0
LINE
  8
0
 62
     7
  6
CONTINUOUS
 10
79.525827
 20
122.359137
 30
0.000000
 11
86.927555
 21
120.416972
 31
0.000000
  0
LINE
  8
0
 62
     7
  6
CONTINUOUS
 10
84.624177
 20
125.455654
 30
0.000000
 11
79.525827
 21
122.359137
 31
0.000000
  0
LINE
  8
0
 62
     7
  6
CONTINUOUS
 10
92.527092
 20
123.442598
 30
0.000000
 11
84.624177
 21
125.455654
 31
0.000000
  0
LINE
  8
0
 62
     7
  6
CONTINUOUS
 10
49.418159
 20
121.931668
 30
0.000000
 11
52.956778
 21
124.203671
 31
0.000000
  0
LINE
  8
0
 62
     7
  6
CONTINUOUS
 10
46.587254
 20
119.659617
 30
0.000000
 11
49.418159
 21
121.931668
 31
0.000000
  0
LINE
  8
0
 62
     7
  6
CONTINUOUS
 10
44.464071
 20
115.115612
 30
0.000000
 11
46.587254
 21
119.659617
 31
0.000000
  0
LINE
  8
0
 62
     7
  6
CONTINUOUS
 10
35.616991
 20
102.298468
 30
0.000000
 11
44.464071
 21
115.115612
 31
0.000000
  0
LINE
  8
0
 62
     7
  6
CONTINUOUS
 10
78.434881
 20
50.741734
 30
0.000000
 11
50.125877
 21
36.352278
 31
0.000000
  0
LINE
  8
0
 62
     7
  6
CONTINUOUS
 10
85.512119
 20
53.013770
 30
0.000000
 11
78.434881
 21
50.741734
 31
0.000000
  0
LINE
  8
0
 62
     7
  6
CONTINUOUS
 10
93.297085
 20
53.013770
 30
0.000000
 11
85.512119
 21
53.013770
 31
0.000000
  0
LINE
  8
0
 62
     7
  6
CONTINUOUS
 10
103.205219
 20
53.013770
 30
0.000000
 11
93.297085
 21
53.013770
 31
0.000000
  0
LINE
  8
0
 62
     7
  6
CONTINUOUS
 10
129.391048
 20
67.403196
 30
0.000000
 11
103.205219
 21
53.013770
 31
0.000000
  0
LINE
  8
0
 62
     7
  6
CONTINUOUS
 10
190.255393
 20
112.086218
 30
0.000000
 11
129.391048
 21
67.403196
 31
0.000000
  0
LINE
  8
0
 62
     7
  6
CONTINUOUS
 10
198.040383
 20
115.872930
 30
0.000000
 11
190.255393
 21
112.086218
 31
0.000000
  0
LINE
  8
0
 62
     7
  6
CONTINUOUS
 10
76.311694
 20
45.440374
 30
0.000000
 11
51.541313
 21
33.322924
 31
0.000000
  0
LINE
  8
0
 62
     7
  6
CONTINUOUS
 10
87.635306
 20
49.984388
 30
0.000000
 11
76.311694
 21
45.440374
 31
0.000000
  0
LINE
  8
0
 62
     7
  6
CONTINUOUS
 10
93.297085
 20
50.741734
 30
0.000000
 11
87.635306
 21
49.984388
 31
0.000000
  0
LINE
  8
0
 62
     7
  6
CONTINUOUS
 10
101.789790
 20
52.256428
 30
0.000000
 11
93.297085
 21
50.741734
 31
0.000000
  0
LINE
  8
0
 62
     7
  6
CONTINUOUS
 10
130.098793
 20
67.403196
 30
0.000000
 11
101.789790
 21
52.256428
 31
0.000000
  0
LINE
  8
0
 62
     7
  6
CONTINUOUS
 10
192.378580
 20
110.571558
 30
0.000000
 11
130.098793
 21
67.403196
 31
0.000000
  0
LINE
  8
0
 62
     7
  6
CONTINUOUS
 10
199.088211
 20
114.525507
 30
0.000000
 11
192.378580
 21
110.571558
 31
0.000000
  0
LINE
  8
0
 62
     7
  6
CONTINUOUS
 10
127.975607
 20
65.131187
 30
0.000000
 11
60.034023
 21
30.293569
 31
0.000000
  0
LINE
  8
0
 62
     7
  6
CONTINUOUS
 10
135.052851
 20
68.160538
 30
0.000000
 11
127.975607
 21
65.131187
 31
0.000000
  0
LINE
  8
0
 62
     7
  6
CONTINUOUS
 10
193.794009
 20
109.814215
 30
0.000000
 11
135.052851
 21
68.160538
 31
0.000000
  0
LINE
  8
0
 62
     7
  6
CONTINUOUS
 10
199.881247
 20
113.146521
 30
0.000000
 11
193.794009
 21
109.814215
 31
0.000000
  0
LINE
  8
0
 62
     7
  6
CONTINUOUS
 10
188.916691
 20
96.143338
 30
0.000000
 11
60.034023
 21
26.506870
 31
0.000000
  0
LINE
  8
0
 62
     7
  6
CONTINUOUS
 10
201.566415
 20
111.343204
 30
0.000000
 11
196.808275
 21
108.266938
 31
0.000000
  0
LINE
  8
0
 62
     7
  6
CONTINUOUS
 10
195.917196
 20
109.056873
 30
0.000000
 11
203.073881
 21
102.492557
 31
0.000000
  0
LINE
  8
0
 62
     7
  6
CONTINUOUS
 10
184.417256
 20
114.101199
 30
0.000000
 11
195.917196
 21
109.056873
 31
0.000000
  0
LINE
  8
0
 62
     7
  6
CONTINUOUS
 10
196.732929
 20
119.617226
 30
0.000000
 11
184.417256
 21
114.101199
 31
0.000000
  0
LINE
  8
0
 62
     7
  6
CONTINUOUS
 10
68.526734
 20
46.197719
 30
0.000000
 11
55.079929
 21
40.138977
 31
0.000000
  0
LINE
  8
0
 62
     7
  6
CONTINUOUS
 10
62.864925
 20
54.528436
 30
0.000000
 11
68.526734
 21
46.197719
 31
0.000000
  0
LINE
  8
0
 62
     7
  6
CONTINUOUS
 10
50.125877
 20
47.712380
 30
0.000000
 11
62.864925
 21
54.528436
 31
0.000000
  0
LINE
  8
0
 62
     7
  6
CONTINUOUS
 10
55.079929
 20
40.138977
 30
0.000000
 11
50.125877
 21
47.712380
 31
0.000000
  0
LINE
  8
0
 62
     7
  6
CONTINUOUS
 10
57.910837
 20
56.800439
 30
0.000000
 11
49.378533
 21
52.968539
 31
0.000000
  0
LINE
  8
0
 62
     7
  6
CONTINUOUS
 10
55.079929
 20
60.587139
 30
0.000000
 11
57.910837
 21
56.800439
 31
0.000000
  0
LINE
  8
0
 62
     7
  6
CONTINUOUS
 10
51.541313
 20
62.859178
 30
0.000000
 11
55.079929
 21
60.587139
 31
0.000000
  0
LINE
  8
0
 62
     7
  6
CONTINUOUS
 10
43.756353
 20
56.800439
 30
0.000000
 11
51.541313
 21
62.859178
 31
0.000000
  0
LINE
  8
0
 62
     7
  6
CONTINUOUS
 10
49.418159
 20
53.013770
 30
0.000000
 11
43.756353
 21
56.800439
 31
0.000000
  0
LINE
  8
0
 62
     7
  6
CONTINUOUS
 10
109.574755
 20
90.880748
 30
0.000000
 11
43.756353
 21
50.741734
 31
0.000000
  0
LINE
  8
0
 62
     7
  6
CONTINUOUS
 10
113.113372
 20
80.277991
 30
0.000000
 11
114.528838
 21
87.094042
 31
0.000000
  0
LINE
  8
0
 62
     7
  6
CONTINUOUS
 10
110.990221
 20
70.432583
 30
0.000000
 11
113.113372
 21
80.277991
 31
0.000000
  0
LINE
  8
0
 62
     7
  6
CONTINUOUS
 10
149.915086
 20
85.579351
 30
0.000000
 11
113.990026
 21
67.630804
 31
0.000000
  0
LINE
  8
0
 62
     7
  6
CONTINUOUS
 10
94.712551
 20
71.947244
 30
0.000000
 11
40.925448
 21
43.925680
 31
0.000000
  0
LINE
  8
0
 62
     7
  6
CONTINUOUS
 10
106.036139
 20
58.315136
 30
0.000000
 11
94.712551
 21
71.947244
 31
0.000000
  0
LINE
  8
0
 62
     7
  6
CONTINUOUS
 10
151.330516
 20
86.336700
 30
0.000000
 11
106.036139
 21
58.315136
 31
0.000000
  0
LINE
  8
0
 62
     7
  6
CONTINUOUS
 10
194.627437
 20
122.693504
 30
0.000000
 11
151.330516
 21
86.336700
 31
0.000000
  0
LINE
  8
0
 62
     7
  6
CONTINUOUS
 10
191.157954
 20
130.331059
 30
0.000000
 11
150.622807
 21
86.336700
 31
0.000000
  0
LINE
  8
0
 62
     7
  6
CONTINUOUS
 10
189.671029
 20
133.937706
 30
0.000000
 11
149.915086
 21
85.579351
 31
0.000000
  0
LINE
  8
0
 62
     7
  6
CONTINUOUS
 10
41.633166
 20
110.571558
 30
0.000000
 11
42.337977
 21
109.087867
 31
0.000000
  0
LINE
  8
0
 62
     7
  6
CONTINUOUS
 10
39.510013
 20
107.542212
 30
0.000000
 11
41.633166
 21
110.571558
 31
0.000000
  0
LINE
  8
0
 62
     7
  6
CONTINUOUS
 10
39.510013
 20
104.512855
 30
0.000000
 11
39.510013
 21
107.542212
 31
0.000000
  0
LINE
  8
0
 62
     7
  6
CONTINUOUS
 10
42.340884
 20
109.056873
 30
0.000000
 11
39.510013
 21
104.512855
 31
0.000000
  0
LINE
  8
0
 62
     7
  6
CONTINUOUS
 10
44.464071
 20
104.512855
 30
0.000000
 11
41.633166
 21
99.968807
 31
0.000000
  0
LINE
  8
0
 62
     7
  6
CONTINUOUS
 10
42.340884
 20
106.784858
 30
0.000000
 11
44.464071
 21
104.512855
 31
0.000000
  0
LINE
  8
0
 62
     7
  6
CONTINUOUS
 10
38.094547
 20
101.483468
 30
0.000000
 11
42.340884
 21
106.784858
 31
0.000000
  0
LINE
  8
0
 62
     7
  6
CONTINUOUS
 10
41.585252
 20
100.054521
 30
0.000000
 11
38.094547
 21
101.483468
 31
0.000000
  0
LINE
  8
0
 62
     7
  6
CONTINUOUS
 10
45.171789
 20
102.240816
 30
0.000000
 11
48.002690
 21
97.696798
 31
0.000000
  0
LINE
  8
0
 62
     7
  6
CONTINUOUS
 10
43.048635
 20
99.211459
 30
0.000000
 11
45.171789
 21
102.240816
 31
0.000000
  0
LINE
  8
0
 62
     7
  6
CONTINUOUS
 10
44.464071
 20
91.638060
 30
0.000000
 11
43.048635
 21
99.211459
 31
0.000000
  0
LINE
  8
0
 62
     7
  6
CONTINUOUS
 10
46.587254
 20
91.638060
 30
0.000000
 11
44.464071
 21
91.638060
 31
0.000000
  0
LINE
  8
0
 62
     7
  6
CONTINUOUS
 10
48.002690
 20
97.696798
 30
0.000000
 11
46.587254
 21
91.638060
 31
0.000000
  0
LINE
  8
0
 62
     7
  6
CONTINUOUS
 10
55.079929
 20
101.483468
 30
0.000000
 11
47.294972
 21
88.608702
 31
0.000000
  0
LINE
  8
0
 62
     7
  6
CONTINUOUS
 10
60.741744
 20
95.424759
 30
0.000000
 11
67.818983
 21
94.667411
 31
0.000000
  0
LINE
  8
0
 62
     7
  6
CONTINUOUS
 10
55.787686
 20
90.123399
 30
0.000000
 11
60.741744
 21
95.424759
 31
0.000000
  0
LINE
  8
0
 62
     7
  6
CONTINUOUS
 10
57.910837
 20
87.851360
 30
0.000000
 11
55.787686
 21
90.123399
 31
0.000000
  0
LINE
  8
0
 62
     7
  6
CONTINUOUS
 10
68.526734
 20
89.366057
 30
0.000000
 11
57.910837
 21
87.851360
 31
0.000000
  0
LINE
  8
0
 62
     7
  6
CONTINUOUS
 10
67.818983
 20
94.667411
 30
0.000000
 11
68.526734
 21
89.366057
 31
0.000000
  0
LINE
  8
0
 62
     7
  6
CONTINUOUS
 10
71.357605
 20
94.667411
 30
0.000000
 11
79.814260
 21
95.451538
 31
0.000000
  0
LINE
  8
0
 62
     7
  6
CONTINUOUS
 10
72.065357
 20
89.366057
 30
0.000000
 11
71.357605
 21
94.667411
 31
0.000000
  0
LINE
  8
0
 62
     7
  6
CONTINUOUS
 10
84.096653
 20
89.366057
 30
0.000000
 11
72.065357
 21
89.366057
 31
0.000000
  0
LINE
  8
0
 62
     7
  6
CONTINUOUS
 10
79.850316
 20
95.424759
 30
0.000000
 11
84.096653
 21
89.366057
 31
0.000000
  0
LINE
  8
0
 62
     7
  6
CONTINUOUS
 10
92.589364
 20
95.424759
 30
0.000000
 11
89.050742
 21
99.968807
 31
0.000000
  0
LINE
  8
0
 62
     7
  6
CONTINUOUS
 10
86.219840
 20
90.123399
 30
0.000000
 11
92.589364
 21
95.424759
 31
0.000000
  0
LINE
  8
0
 62
     7
  6
CONTINUOUS
 10
83.388939
 20
97.696798
 30
0.000000
 11
86.219840
 21
90.123399
 31
0.000000
  0
LINE
  8
0
 62
     7
  6
CONTINUOUS
 10
89.062369
 20
99.939448
 30
0.000000
 11
83.388939
 21
97.696798
 31
0.000000
  0
LINE
  8
0
 62
     7
  6
CONTINUOUS
 10
125.144711
 20
90.123399
 30
0.000000
 11
187.490227
 21
139.029426
 31
0.000000
  0
LINE
  8
0
 62
     7
  6
CONTINUOUS
 10
55.079929
 20
101.483468
 30
0.000000
 11
101.162448
 21
106.143679
 31
0.000000
  0
LINE
  8
0
 62
     7
  6
CONTINUOUS
 10
44.703794
 20
115.532059
 30
0.000000
 11
55.079929
 21
101.483468
 31
0.000000
  0
LINE
  8
0
 62
     7
  6
CONTINUOUS
 10
82.608838
 20
108.574804
 30
0.000000
 11
104.570277
 21
112.626725
 31
0.000000
  0
LINE
  8
0
 62
     7
  6
CONTINUOUS
 10
59.326302
 20
106.784858
 30
0.000000
 11
82.608838
 21
108.574804
 31
0.000000
  0
LINE
  8
0
 62
     7
  6
CONTINUOUS
 10
48.413787
 20
121.055644
 30
0.000000
 11
59.326302
 21
106.784858
 31
0.000000
  0
LINE
  8
0
 62
     7
  6
CONTINUOUS
 10
55.787686
 20
104.512855
 30
0.000000
 11
46.478125
 21
119.214453
 31
0.000000
  0
LINE
  8
0
 62
     7
  6
CONTINUOUS
 10
81.472886
 20
106.548862
 30
0.000000
 11
55.787686
 21
104.512855
 31
0.000000
  0
LINE
  8
0
 62
     7
  6
CONTINUOUS
 10
103.618215
 20
110.897361
 30
0.000000
 11
81.472886
 21
106.548862
 31
0.000000
  0
LINE
  8
0
 62
     7
  6
CONTINUOUS
 10
120.798186
 20
98.836815
 30
0.000000
 11
116.097758
 21
105.998823
 31
0.000000
  0
LINE
  8
0
 62
     7
  6
CONTINUOUS
 10
184.593602
 20
139.350433
 30
0.000000
 11
126.560177
 21
95.424759
 31
0.000000
  0
LINE
  8
0
 62
     7
  6
CONTINUOUS
 10
178.931799
 20
152.225241
 30
0.000000
 11
120.898362
 21
110.571558
 31
0.000000
  0
LINE
  8
0
 62
     7
  6
CONTINUOUS
 10
124.436990
 20
106.027516
 30
0.000000
 11
120.898362
 21
110.571558
 31
0.000000
  0
LINE
  8
0
 62
     7
  6
CONTINUOUS
 10
125.852420
 20
102.240816
 30
0.000000
 11
124.436990
 21
106.027516
 31
0.000000
  0
LINE
  8
0
 62
     7
  6
CONTINUOUS
 10
184.556492
 20
141.442021
 30
0.000000
 11
125.852420
 21
102.240816
 31
0.000000
  0
LINE
  8
0
 62
     7
  6
CONTINUOUS
 10
162.654146
 20
182.518801
 30
0.000000
 11
86.722371
 21
128.448991
 31
0.000000
  0
LINE
  8
0
 62
     7
  6
CONTINUOUS
 10
124.436990
 20
106.027516
 30
0.000000
 11
180.347252
 21
146.923844
 31
0.000000
  0
LINE
  8
0
 62
     7
  6
CONTINUOUS
 10
101.492878
 20
114.454678
 30
0.000000
 11
105.392247
 21
115.480221
 31
0.000000
  0
LINE
  8
0
 62
     7
  6
CONTINUOUS
 10
83.388939
 20
110.571558
 30
0.000000
 11
101.492878
 21
114.454678
 31
0.000000
  0
LINE
  8
0
 62
     7
  6
CONTINUOUS
 10
61.449459
 20
109.814215
 30
0.000000
 11
83.388939
 21
110.571558
 31
0.000000
  0
LINE
  8
0
 62
     7
  6
CONTINUOUS
 10
51.541313
 20
121.931668
 30
0.000000
 11
61.449459
 21
109.814215
 31
0.000000
  0
LINE
  8
0
 62
     7
  6
CONTINUOUS
 10
52.956778
 20
124.203671
 30
0.000000
 11
51.541313
 21
121.931668
 31
0.000000
  0
LINE
  8
0
 62
     7
  6
CONTINUOUS
 10
159.198991
 20
191.587422
 30
0.000000
 11
52.956778
 21
124.203671
 31
0.000000
  0
CIRCLE
  8
0
 62
     7
  6
CONTINUOUS
 10
263.099469
 20
163.017884
 30
0.000000
 40
2.183051
  0
CIRCLE
  8
0
 62
     7
  6
CONTINUOUS
 10
280.954920
 20
159.798628
 30
0.000000
 40
2.150229
  0
ARC
  8
0
 62
     7
  6
CONTINUOUS
 10
243.398104
 20
147.737942
 30
0.000000
 40
7.174850
 50
38.712785
 51
286.683994
  0
ARC
  8
0
 62
     7
  6
CONTINUOUS
 10
302.917460
 20
229.790867
 30
0.000000
 40
6.461947
 50
328.811263
 51
477.309575
  0
LINE
  8
0
 62
     7
  6
CONTINUOUS
 10
261.725328
 20
195.229290
 30
0.000000
 11
184.556492
 21
141.442021
 31
0.000000
  0
LINE
  8
0
 62
     7
  6
CONTINUOUS
 10
183.885857
 20
142.379815
 30
0.000000
 11
261.404175
 21
195.267454
 31
0.000000
  0
LINE
  8
0
 62
     7
  6
CONTINUOUS
 10
256.781540
 20
195.393560
 30
0.000000
 11
181.762706
 21
144.651830
 31
0.000000
  0
LINE
  8
0
 62
     7
  6
CONTINUOUS
 10
261.725328
 20
195.229290
 30
0.000000
 11
256.781540
 21
195.393560
 31
0.000000
  0
LINE
  8
0
 62
     7
  6
CONTINUOUS
 10
181.054998
 20
146.166526
 30
0.000000
 11
259.370045
 21
200.384632
 31
0.000000
  0
LINE
  8
0
 62
     7
  6
CONTINUOUS
 10
188.296682
 20
151.159632
 30
0.000000
 11
179.689347
 21
154.018155
 31
0.000000
  0
LINE
  8
0
 62
     7
  6
CONTINUOUS
 10
190.654993
 20
157.258473
 30
0.000000
 11
180.347252
 21
149.953190
 31
0.000000
  0
LINE
  8
0
 62
     7
  6
CONTINUOUS
 10
186.822693
 20
159.046070
 30
0.000000
 11
190.654993
 21
157.258473
 31
0.000000
  0
LINE
  8
0
 62
     7
  6
CONTINUOUS
 10
192.276345
 20
153.893598
 30
0.000000
 11
189.082790
 21
160.728513
 31
0.000000
  0
LINE
  8
0
 62
     7
  6
CONTINUOUS
 10
195.027740
 20
160.150169
 30
0.000000
 11
199.793510
 21
159.098646
 31
0.000000
  0
LINE
  8
0
 62
     7
  6
CONTINUOUS
 10
195.027740
 20
160.150169
 30
0.000000
 11
190.963138
 21
162.070643
 31
0.000000
  0
LINE
  8
0
 62
     7
  6
CONTINUOUS
 10
200.530480
 20
164.040787
 30
0.000000
 11
205.117640
 21
162.827985
 31
0.000000
  0
LINE
  8
0
 62
     7
  6
CONTINUOUS
 10
212.902581
 20
168.129345
 30
0.000000
 11
204.313619
 21
170.244768
 31
0.000000
  0
LINE
  8
0
 62
     7
  6
CONTINUOUS
 10
210.651338
 20
174.711223
 30
0.000000
 11
218.393913
 21
171.958145
 31
0.000000
  0
LINE
  8
0
 62
     7
  6
CONTINUOUS
 10
223.376893
 20
175.485013
 30
0.000000
 11
215.333489
 21
178.088209
 31
0.000000
  0
LINE
  8
0
 62
     7
  6
CONTINUOUS
 10
228.752219
 20
179.179858
 30
0.000000
 11
220.748081
 21
181.908991
 31
0.000000
  0
LINE
  8
0
 62
     7
  6
CONTINUOUS
 10
230.850807
 20
185.507681
 30
0.000000
 11
227.199141
 21
186.445572
 31
0.000000
  0
LINE
  8
0
 62
     7
  6
CONTINUOUS
 10
235.724565
 20
183.991034
 30
0.000000
 11
230.850807
 21
185.507681
 31
0.000000
  0
LINE
  8
0
 62
     7
  6
CONTINUOUS
 10
236.960706
 20
184.847935
 30
0.000000
 11
234.595007
 21
191.588778
 31
0.000000
  0
LINE
  8
0
 62
     7
  6
CONTINUOUS
 10
248.760300
 20
192.907653
 30
0.000000
 11
237.931940
 21
194.797981
 31
0.000000
  0
LINE
  8
0
 62
     7
  6
CONTINUOUS
 10
248.760300
 20
192.907653
 30
0.000000
 11
245.028140
 21
199.137239
 31
0.000000
  0
LINE
  8
0
 62
     7
  6
CONTINUOUS
 10
247.604727
 20
200.674064
 30
0.000000
 11
250.823983
 21
194.379887
 31
0.000000
  0
LINE
  8
0
 62
     7
  6
CONTINUOUS
 10
257.085955
 20
198.719145
 30
0.000000
 11
247.604727
 21
200.674064
 31
0.000000
  0
LINE
  8
0
 62
     7
  6
CONTINUOUS
 10
228.472537
 20
217.356428
 30
0.000000
 11
227.750585
 21
220.537919
 31
0.000000
  0
LINE
  8
0
 62
     7
  6
CONTINUOUS
 10
236.883506
 20
219.737363
 30
0.000000
 11
222.596757
 21
220.988861
 31
0.000000
  0
LINE
  8
0
 62
     7
  6
CONTINUOUS
 10
169.976253
 20
181.129448
 30
0.000000
 11
168.945308
 21
184.108118
 31
0.000000
  0
LINE
  8
0
 62
     7
  6
CONTINUOUS
 10
176.920233
 20
185.833776
 30
0.000000
 11
175.841592
 21
188.981645
 31
0.000000
  0
LINE
  8
0
 62
     7
  6
CONTINUOUS
 10
183.195783
 20
190.030952
 30
0.000000
 11
182.313278
 21
193.388680
 31
0.000000
  0
LINE
  8
0
 62
     7
  6
CONTINUOUS
 10
188.686908
 20
193.808434
 30
0.000000
 11
187.424522
 21
196.908257
 31
0.000000
  0
LINE
  8
0
 62
     7
  6
CONTINUOUS
 10
195.118020
 20
198.143368
 30
0.000000
 11
193.898920
 21
201.014656
 31
0.000000
  0
LINE
  8
0
 62
     7
  6
CONTINUOUS
 10
201.414499
 20
202.554715
 30
0.000000
 11
200.415480
 21
205.870283
 31
0.000000
  0
LINE
  8
0
 62
     7
  6
CONTINUOUS
 10
206.623919
 20
206.014702
 30
0.000000
 11
206.018602
 21
209.528490
 31
0.000000
  0
LINE
  8
0
 62
     7
  6
CONTINUOUS
 10
212.194872
 20
213.569716
 30
0.000000
 11
213.610338
 21
209.025686
 31
0.000000
  0
LINE
  8
0
 62
     7
  6
CONTINUOUS
 10
218.224253
 20
217.785689
 30
0.000000
 11
221.015071
 21
207.139343
 31
0.000000
  0
LINE
  8
0
 62
     7
  6
CONTINUOUS
 10
235.062178
 20
183.155632
 30
0.000000
 11
235.044834
 21
183.223349
 31
0.000000
  0
LINE
  8
0
 62
     7
  6
CONTINUOUS
 10
245.283478
 20
202.950512
 30
0.000000
 11
242.857366
 21
214.587653
 31
0.000000
  0
LINE
  8
0
 62
     7
  6
CONTINUOUS
 10
259.370045
 20
200.384632
 30
0.000000
 11
234.077573
 21
222.139421
 31
0.000000
  0
LINE
  8
0
 62
     7
  6
CONTINUOUS
 10
165.485042
 20
177.974747
 30
0.000000
 11
206.623919
 21
206.014702
 31
0.000000
  0
LINE
  8
0
 62
     7
  6
CONTINUOUS
 10
224.933920
 20
222.657775
 30
0.000000
 11
164.069564
 21
181.004104
 31
0.000000
  0
LINE
  8
0
 62
     7
  6
CONTINUOUS
 10
224.348636
 20
224.287279
 30
0.000000
 11
224.933920
 21
222.657775
 31
0.000000
  0
LINE
  8
0
 62
     7
  6
CONTINUOUS
 10
162.654146
 20
182.518801
 30
0.000000
 11
224.348636
 21
224.287279
 31
0.000000
  0
LINE
  8
0
 62
     7
  6
CONTINUOUS
 10
179.048458
 20
204.848373
 30
0.000000
 11
158.739087
 21
208.930246
 31
0.000000
  0
LINE
  8
0
 62
     7
  6
CONTINUOUS
 10
176.100903
 20
206.753659
 30
0.000000
 11
176.677297
 21
213.232745
 31
0.000000
  0
LINE
  8
0
 62
     7
  6
CONTINUOUS
 10
172.562287
 20
209.783028
 30
0.000000
 11
173.977716
 21
206.753659
 31
0.000000
  0
LINE
  8
0
 62
     7
  6
CONTINUOUS
 10
172.562287
 20
206.753659
 30
0.000000
 11
172.562287
 21
209.783028
 31
0.000000
  0
LINE
  8
0
 62
     7
  6
CONTINUOUS
 10
169.023658
 20
209.025686
 30
0.000000
 11
169.254603
 21
214.446261
 31
0.000000
  0
LINE
  8
0
 62
     7
  6
CONTINUOUS
 10
166.161781
 20
211.357302
 30
0.000000
 11
167.608192
 21
208.268344
 31
0.000000
  0
LINE
  8
0
 62
     7
  6
CONTINUOUS
 10
165.485042
 20
208.268344
 30
0.000000
 11
166.161781
 21
211.357302
 31
0.000000
  0
LINE
  8
0
 62
     7
  6
CONTINUOUS
 10
164.069564
 20
215.084376
 30
0.000000
 11
165.275728
 21
212.137221
 31
0.000000
  0
LINE
  8
0
 62
     7
  6
CONTINUOUS
 10
162.654146
 20
210.540371
 30
0.000000
 11
164.069564
 21
215.084376
 31
0.000000
  0
LINE
  8
0
 62
     7
  6
CONTINUOUS
 10
162.965913
 20
208.047669
 30
0.000000
 11
164.069564
 21
204.481656
 31
0.000000
  0
LINE
  8
0
 62
     7
  6
CONTINUOUS
 10
161.934968
 20
205.289698
 30
0.000000
 11
162.965913
 21
208.047669
 31
0.000000
  0
LINE
  8
0
 62
     7
  6
CONTINUOUS
 10
169.151509
 20
206.944490
 30
0.000000
 11
170.439100
 21
202.209629
 31
0.000000
  0
LINE
  8
0
 62
     7
  6
CONTINUOUS
 10
168.154053
 20
203.068068
 30
0.000000
 11
169.151509
 21
206.944490
 31
0.000000
  0
LINE
  8
0
 62
     7
  6
CONTINUOUS
 10
162.654146
 20
196.908257
 30
0.000000
 11
163.257574
 21
201.553177
 31
0.000000
  0
LINE
  8
0
 62
     7
  6
CONTINUOUS
 10
157.700052
 20
210.540371
 30
0.000000
 11
166.367994
 21
196.464038
 31
0.000000
  0
LINE
  8
0
 62
     7
  6
CONTINUOUS
 10
163.422413
 20
215.169376
 30
0.000000
 11
157.700052
 21
210.540371
 31
0.000000
  0
LINE
  8
0
 62
     7
  6
CONTINUOUS
 10
169.023658
 20
214.327082
 30
0.000000
 11
160.697870
 21
205.841287
 31
0.000000
  0
LINE
  8
0
 62
     7
  6
CONTINUOUS
 10
163.257574
 20
201.553177
 30
0.000000
 11
176.574215
 21
213.453395
 31
0.000000
  0
LINE
  8
0
 62
     7
  6
CONTINUOUS
 10
189.357810
 20
211.688266
 30
0.000000
 11
158.470535
 21
215.852353
 31
0.000000
  0
LINE
  8
0
 62
     7
  6
CONTINUOUS
 10
159.357654
 20
218.859097
 30
0.000000
 11
194.189988
 21
214.910308
 31
0.000000
  0
LINE
  8
0
 62
     7
  6
CONTINUOUS
 10
159.198991
 20
191.587422
 30
0.000000
 11
200.022735
 21
218.803747
 31
0.000000
  0
LINE
  8
0
 62
     7
  6
CONTINUOUS
 10
147.884554
 20
211.283421
 30
0.000000
 11
153.452649
 21
217.312511
 31
0.000000
  0
LINE
  8
0
 62
     7
  6
CONTINUOUS
 10
154.624137
 20
218.863845
 30
0.000000
 11
147.758653
 21
214.481022
 31
0.000000
  0
LINE
  8
0
 62
     7
  6
CONTINUOUS
 10
160.530947
 20
222.657775
 30
0.000000
 11
154.624137
 21
218.863845
 31
0.000000
  0
LINE
  8
0
 62
     7
  6
CONTINUOUS
 10
200.022735
 20
218.803747
 30
0.000000
 11
160.530947
 21
222.657775
 31
0.000000
  0
LINE
  8
0
 62
     7
  6
CONTINUOUS
 10
204.409907
 20
221.900433
 30
0.000000
 11
200.022735
 21
218.803747
 31
0.000000
  0
LINE
  8
0
 62
     7
  6
CONTINUOUS
 10
235.557012
 20
258.986299
 30
0.000000
 11
239.379865
 21
261.351635
 31
0.000000
  0
LINE
  8
0
 62
     7
  6
CONTINUOUS
 10
315.522698
 20
239.319234
 30
0.000000
 11
326.846305
 21
245.377973
 31
0.000000
  0
LINE
  8
0
 62
     7
  6
CONTINUOUS
 10
320.886978
 20
232.078712
 30
0.000000
 11
315.522698
 21
239.319234
 31
0.000000
  0
LINE
  8
0
 62
     7
  6
CONTINUOUS
 10
290.559808
 20
229.773475
 30
0.000000
 11
288.670897
 21
231.636176
 31
0.000000
  0
LINE
  8
0
 62
     7
  6
CONTINUOUS
 10
265.274239
 20
235.532571
 30
0.000000
 11
281.388663
 21
246.944835
 31
0.000000
  0
LINE
  8
0
 62
     7
  6
CONTINUOUS
 10
296.412285
 20
236.989410
 30
0.000000
 11
279.464410
 21
225.333460
 31
0.000000
  0
LINE
  8
0
 62
     7
  6
CONTINUOUS
 10
298.540087
 20
234.653628
 30
0.000000
 11
296.412285
 21
236.989410
 31
0.000000
  0
LINE
  8
0
 62
     7
  6
CONTINUOUS
 10
281.233294
 20
224.104053
 30
0.000000
 11
299.904490
 21
235.501541
 31
0.000000
  0
LINE
  8
0
 62
     7
  6
CONTINUOUS
 10
288.920834
 20
214.912197
 30
0.000000
 11
308.432651
 21
226.424043
 31
0.000000
  0
LINE
  8
0
 62
     7
  6
CONTINUOUS
 10
238.380677
 20
195.393560
 30
0.000000
 11
236.148837
 21
196.097514
 31
0.000000
  0
LINE
  8
0
 62
     7
  6
CONTINUOUS
 10
237.295303
 20
195.729441
 30
0.000000
 11
240.297324
 21
198.956424
 31
0.000000
  0
LINE
  8
0
 62
     7
  6
CONTINUOUS
 10
238.380677
 20
199.180272
 30
0.000000
 11
236.148837
 21
196.097514
 31
0.000000
  0
LINE
  8
0
 62
     7
  6
CONTINUOUS
 10
244.816936
 20
202.617671
 30
0.000000
 11
238.380677
 21
199.180272
 31
0.000000
  0
LINE
  8
0
 62
     7
  6
CONTINUOUS
 10
247.604727
 20
200.674064
 30
0.000000
 11
244.816936
 21
202.617671
 31
0.000000
  0
LINE
  8
0
 62
     7
  6
CONTINUOUS
 10
241.211585
 20
196.908257
 30
0.000000
 11
247.604727
 21
200.674064
 31
0.000000
  0
LINE
  8
0
 62
     7
  6
CONTINUOUS
 10
238.380677
 20
195.393560
 30
0.000000
 11
241.211585
 21
196.908257
 31
0.000000
  0
LINE
  8
0
 62
     7
  6
CONTINUOUS
 10
235.566532
 20
192.357190
 30
0.000000
 11
238.380677
 21
195.393560
 31
0.000000
  0
LINE
  8
0
 62
     7
  6
CONTINUOUS
 10
190.114522
 20
164.145952
 30
0.000000
 11
193.463312
 21
166.534941
 31
0.000000
  0
LINE
  8
0
 62
     7
  6
CONTINUOUS
 10
190.963138
 20
162.070643
 30
0.000000
 11
178.224090
 21
152.982583
 31
0.000000
  0
LINE
  8
0
 62
     7
  6
CONTINUOUS
 10
194.501754
 20
165.100000
 30
0.000000
 11
190.963138
 21
162.070643
 31
0.000000
  0
LINE
  8
0
 62
     7
  6
CONTINUOUS
 10
198.040383
 20
165.857330
 30
0.000000
 11
194.501754
 21
165.100000
 31
0.000000
  0
LINE
  8
0
 62
     7
  6
CONTINUOUS
 10
235.566532
 20
192.357190
 30
0.000000
 11
198.040383
 21
165.857330
 31
0.000000
  0
LINE
  8
0
 62
     7
  6
CONTINUOUS
 10
193.086300
 20
168.886687
 30
0.000000
 11
233.426619
 21
194.636218
 31
0.000000
  0
LINE
  8
0
 62
     7
  6
CONTINUOUS
 10
191.670859
 20
166.614697
 30
0.000000
 11
193.086300
 21
168.886687
 31
0.000000
  0
LINE
  8
0
 62
     7
  6
CONTINUOUS
 10
187.424522
 20
164.342658
 30
0.000000
 11
191.670859
 21
166.614697
 31
0.000000
  0
LINE
  8
0
 62
     7
  6
CONTINUOUS
 10
176.808612
 20
156.769246
 30
0.000000
 11
187.424522
 21
164.342658
 31
0.000000
  0
LINE
  8
0
 62
     7
  6
CONTINUOUS
 10
180.289225
 20
168.047398
 30
0.000000
 11
170.081721
 21
171.063081
 31
0.000000
  0
LINE
  8
0
 62
     7
  6
CONTINUOUS
 10
185.301335
 20
172.673399
 30
0.000000
 11
175.743561
 21
174.606287
 31
0.000000
  0
LINE
  8
0
 62
     7
  6
CONTINUOUS
 10
192.366856
 20
176.583977
 30
0.000000
 11
182.464904
 21
178.934415
 31
0.000000
  0
LINE
  8
0
 62
     7
  6
CONTINUOUS
 10
197.928641
 20
181.015174
 30
0.000000
 11
189.213233
 21
183.195056
 31
0.000000
  0
LINE
  8
0
 62
     7
  6
CONTINUOUS
 10
203.896396
 20
185.207421
 30
0.000000
 11
195.131028
 21
186.976463
 31
0.000000
  0
LINE
  8
0
 62
     7
  6
CONTINUOUS
 10
210.087491
 20
188.682875
 30
0.000000
 11
200.010551
 21
190.127603
 31
0.000000
  0
LINE
  8
0
 62
     7
  6
CONTINUOUS
 10
215.020039
 20
192.440712
 30
0.000000
 11
206.320255
 21
194.135510
 31
0.000000
  0
LINE
  8
0
 62
     7
  6
CONTINUOUS
 10
173.977716
 20
173.430742
 30
0.000000
 11
171.330179
 21
177.851196
 31
0.000000
  0
LINE
  8
0
 62
     7
  6
CONTINUOUS
 10
181.304159
 20
167.221988
 30
0.000000
 11
173.977716
 21
173.430742
 31
0.000000
  0
LINE
  8
0
 62
     7
  6
CONTINUOUS
 10
187.068366
 20
164.093375
 30
0.000000
 11
181.304159
 21
167.221988
 31
0.000000
  0
LINE
  8
0
 62
     7
  6
CONTINUOUS
 10
186.716764
 20
171.158702
 30
0.000000
 11
192.423744
 21
167.878852
 31
0.000000
  0
LINE
  8
0
 62
     7
  6
CONTINUOUS
 10
180.541633
 20
177.706764
 30
0.000000
 11
186.716764
 21
171.158702
 31
0.000000
  0
LINE
  8
0
 62
     7
  6
CONTINUOUS
 10
178.224090
 20
182.518801
 30
0.000000
 11
180.541633
 21
177.706764
 31
0.000000
  0
LINE
  8
0
 62
     7
  6
CONTINUOUS
 10
187.222463
 20
181.967406
 30
0.000000
 11
184.421907
 21
186.516898
 31
0.000000
  0
LINE
  8
0
 62
     7
  6
CONTINUOUS
 10
193.258989
 20
175.660111
 30
0.000000
 11
187.222463
 21
181.967406
 31
0.000000
  0
LINE
  8
0
 62
     7
  6
CONTINUOUS
 10
198.909140
 20
172.610685
 30
0.000000
 11
193.258989
 21
175.660111
 31
0.000000
  0
LINE
  8
0
 62
     7
  6
CONTINUOUS
 10
198.748104
 20
180.246798
 30
0.000000
 11
204.657566
 21
176.291020
 31
0.000000
  0
LINE
  8
0
 62
     7
  6
CONTINUOUS
 10
192.992314
 20
185.650332
 30
0.000000
 11
198.748104
 21
180.246798
 31
0.000000
  0
LINE
  8
0
 62
     7
  6
CONTINUOUS
 10
190.124272
 20
190.308151
 30
0.000000
 11
192.992314
 21
185.650332
 31
0.000000
  0
LINE
  8
0
 62
     7
  6
CONTINUOUS
 10
199.268360
 20
189.682063
 30
0.000000
 11
196.777233
 21
194.683381
 31
0.000000
  0
LINE
  8
0
 62
     7
  6
CONTINUOUS
 10
205.117640
 20
184.033462
 30
0.000000
 11
199.268360
 21
189.682063
 31
0.000000
  0
LINE
  8
0
 62
     7
  6
CONTINUOUS
 10
210.779431
 20
180.246798
 30
0.000000
 11
205.117640
 21
184.033462
 31
0.000000
  0
LINE
  8
0
 62
     7
  6
CONTINUOUS
 10
205.033149
 20
193.331307
 30
0.000000
 11
210.848976
 21
188.009830
 31
0.000000
  0
LINE
  8
0
 62
     7
  6
CONTINUOUS
 10
202.777363
 20
198.684990
 30
0.000000
 11
205.033149
 21
193.331307
 31
0.000000
  0
LINE
  8
0
 62
     7
  6
CONTINUOUS
 10
215.698946
 20
191.512886
 30
0.000000
 11
211.349817
 21
197.367955
 31
0.000000
  0
LINE
  8
0
 62
     7
  6
CONTINUOUS
 10
223.494619
 20
188.332957
 30
0.000000
 11
215.698946
 21
191.512886
 31
0.000000
  0
LINE
  8
0
 62
     7
  6
CONTINUOUS
 10
275.119568
 20
166.079204
 30
0.000000
 11
270.769882
 21
174.259046
 31
0.000000
  0
LINE
  8
0
 62
     7
  6
CONTINUOUS
 10
285.090544
 20
171.916045
 30
0.000000
 11
282.259661
 21
180.246798
 31
0.000000
  0
LINE
  8
0
 62
     7
  6
CONTINUOUS
 10
207.948523
 20
131.777070
 30
0.000000
 11
215.344971
 21
127.706764
 31
0.000000
  0
LINE
  8
0
 62
     7
  6
CONTINUOUS
 10
199.646111
 20
149.582355
 30
0.000000
 11
207.948523
 21
131.777070
 31
0.000000
  0
LINE
  8
0
 62
     7
  6
CONTINUOUS
 10
214.318047
 20
136.321076
 30
0.000000
 11
224.266786
 21
131.604007
 31
0.000000
  0
LINE
  8
0
 62
     7
  6
CONTINUOUS
 10
205.836685
 20
153.788433
 30
0.000000
 11
214.318047
 21
136.321076
 31
0.000000
  0
LINE
  8
0
 62
     7
  6
CONTINUOUS
 10
220.687571
 20
140.865130
 30
0.000000
 11
212.194872
 21
158.283943
 31
0.000000
  0
LINE
  8
0
 62
     7
  6
CONTINUOUS
 10
232.494409
 20
135.210618
 30
0.000000
 11
220.687571
 21
140.865130
 31
0.000000
  0
LINE
  8
0
 62
     7
  6
CONTINUOUS
 10
226.943246
 20
145.181909
 30
0.000000
 11
241.463144
 21
139.058772
 31
0.000000
  0
LINE
  8
0
 62
     7
  6
CONTINUOUS
 10
218.564396
 20
162.827985
 30
0.000000
 11
226.943246
 21
145.181909
 31
0.000000
  0
LINE
  8
0
 62
     7
  6
CONTINUOUS
 10
249.760724
 20
233.573631
 30
0.000000
 11
267.493314
 21
310.754990
 31
0.000000
  0
LINE
  8
0
 62
     7
  6
CONTINUOUS
 10
275.379703
 20
314.795683
 30
0.000000
 11
263.908552
 21
309.015998
 31
0.000000
  0
LINE
  8
0
 62
     7
  6
CONTINUOUS
 10
239.088434
 20
234.775229
 30
0.000000
 11
266.824145
 21
317.659922
 31
0.000000
  0
LINE
  8
0
 62
     7
  6
CONTINUOUS
 10
241.919294
 20
228.716538
 30
0.000000
 11
239.088434
 21
234.775229
 31
0.000000
  0
LINE
  8
0
 62
     7
  6
CONTINUOUS
 10
265.274239
 20
309.751830
 30
0.000000
 11
243.403796
 21
229.635281
 31
0.000000
  0
LINE
  8
0
 62
     7
  6
CONTINUOUS
 10
269.452909
 20
311.829101
 30
0.000000
 11
256.786821
 21
238.074591
 31
0.000000
  0
LINE
  8
0
 62
     7
  6
CONTINUOUS
 10
261.853275
 20
241.296875
 30
0.000000
 11
272.225171
 21
313.210073
 31
0.000000
  0
LINE
  8
0
 62
     7
  6
CONTINUOUS
 10
276.117933
 20
322.640553
 30
0.000000
 11
268.810288
 21
245.683381
 31
0.000000
  0
LINE
  8
0
 62
     7
  6
CONTINUOUS
 10
285.090544
 20
284.759605
 30
0.000000
 11
272.320732
 21
282.675115
 31
0.000000
  0
LINE
  8
0
 62
     7
  6
CONTINUOUS
 10
285.685614
 20
319.800053
 30
0.000000
 11
275.372557
 21
314.802078
 31
0.000000
  0
LINE
  8
0
 62
     7
  6
CONTINUOUS
 10
241.919294
 20
228.716538
 30
0.000000
 11
278.013311
 21
251.436687
 31
0.000000
  0
LINE
  8
0
 62
     7
  6
CONTINUOUS
 10
232.011153
 20
225.687145
 30
0.000000
 11
241.919294
 21
228.716538
 31
0.000000
  0
LINE
  8
0
 62
     7
  6
CONTINUOUS
 10
226.349386
 20
227.201830
 30
0.000000
 11
232.011153
 21
225.687145
 31
0.000000
  0
LINE
  8
0
 62
     7
  6
CONTINUOUS
 10
251.119725
 20
292.333028
 30
0.000000
 11
226.349386
 21
227.201830
 31
0.000000
  0
LINE
  8
0
 62
     7
  6
CONTINUOUS
 10
257.489249
 20
308.237121
 30
0.000000
 11
251.119725
 21
292.333028
 31
0.000000
  0
LINE
  8
0
 62
     7
  6
CONTINUOUS
 10
265.274239
 20
317.325229
 30
0.000000
 11
257.489249
 21
308.237121
 31
0.000000
  0
LINE
  8
0
 62
     7
  6
CONTINUOUS
 10
285.790356
 20
327.908037
 30
0.000000
 11
266.871937
 21
317.608763
 31
0.000000
  0
LINE
  8
0
 62
     7
  6
CONTINUOUS
 10
285.090544
 20
266.583462
 30
0.000000
 11
285.685614
 21
319.800053
 31
0.000000
  0
LINE
  8
0
 62
     7
  6
CONTINUOUS
 10
278.013311
 20
251.436687
 30
0.000000
 11
285.090544
 21
266.583462
 31
0.000000
  0
LINE
  8
0
 62
     7
  6
CONTINUOUS
 10
271.845640
 20
244.026190
 30
0.000000
 11
278.102163
 21
239.584819
 31
0.000000
  0
LINE
  8
0
 62
     7
  6
CONTINUOUS
 10
268.562532
 20
241.904953
 30
0.000000
 11
273.642067
 21
236.668136
 31
0.000000
  0
LINE
  8
0
 62
     7
  6
CONTINUOUS
 10
316.011428
 20
226.596367
 30
0.000000
 11
309.067714
 21
231.666673
 31
0.000000
  0
LINE
  8
0
 62
     7
  6
CONTINUOUS
 10
311.018322
 20
223.657133
 30
0.000000
 11
308.024367
 21
226.132806
 31
0.000000
  0
LINE
  8
0
 62
     7
  6
CONTINUOUS
 10
300.811556
 20
221.913272
 30
0.000000
 11
303.306680
 21
219.094112
 31
0.000000
  0
LINE
  8
0
 62
     7
  6
CONTINUOUS
 10
299.133364
 20
216.666983
 30
0.000000
 11
296.699404
 21
219.440675
 31
0.000000
  0
LINE
  8
0
 62
     7
  6
CONTINUOUS
 10
283.675078
 20
210.540371
 30
0.000000
 11
267.430987
 21
204.154230
 31
0.000000
  0
LINE
  8
0
 62
     7
  6
CONTINUOUS
 10
267.359020
 20
205.578949
 30
0.000000
 11
283.726916
 21
211.984226
 31
0.000000
  0
LINE
  8
0
 62
     7
  6
CONTINUOUS
 10
283.453168
 20
214.997245
 30
0.000000
 11
267.251081
 21
206.811141
 31
0.000000
  0
LINE
  8
0
 62
     7
  6
CONTINUOUS
 10
265.343954
 20
212.510115
 30
0.000000
 11
281.185065
 21
221.692767
 31
0.000000
  0
LINE
  8
0
 62
     7
  6
CONTINUOUS
 10
276.531498
 20
227.635064
 30
0.000000
 11
260.198289
 21
218.401567
 31
0.000000
  0
LINE
  8
0
 62
     7
  6
CONTINUOUS
 10
254.658342
 20
221.143115
 30
0.000000
 11
267.537207
 21
232.656681
 31
0.000000
  0
LINE
  8
0
 62
     7
  6
CONTINUOUS
 10
262.807457
 20
233.410656
 30
0.000000
 11
250.345305
 21
221.756329
 31
0.000000
  0
LINE
  8
0
 62
     7
  6
CONTINUOUS
 10
261.725328
 20
195.229290
 30
0.000000
 11
318.353606
 21
227.959172
 31
0.000000
  0
LINE
  8
0
 62
     7
  6
CONTINUOUS
 10
184.593602
 20
139.350433
 30
0.000000
 11
263.045741
 21
193.052582
 31
0.000000
  0
LINE
  8
0
 62
     7
  6
CONTINUOUS
 10
407.751080
 20
186.433315
 30
0.000000
 11
400.613822
 21
182.137187
 31
0.000000
  0
LINE
  8
0
 62
     7
  6
CONTINUOUS
 10
403.290330
 20
181.659854
 30
0.000000
 11
407.751080
 21
186.433315
 31
0.000000
  0
LINE
  8
0
 62
     7
  6
CONTINUOUS
 10
390.264890
 20
190.729492
 30
0.000000
 11
381.700175
 21
185.669566
 31
0.000000
  0
LINE
  8
0
 62
     7
  6
CONTINUOUS
 10
384.287445
 20
185.287697
 30
0.000000
 11
390.264890
 21
190.729492
 31
0.000000
  0
LINE
  8
0
 62
     7
  6
CONTINUOUS
 10
336.200336
 20
204.477127
 30
0.000000
 11
323.799422
 21
196.457667
 31
0.000000
  0
LINE
  8
0
 62
     7
  6
CONTINUOUS
 10
326.654310
 20
195.884846
 30
0.000000
 11
336.200336
 21
204.477127
 31
0.000000
  0
LINE
  8
0
 62
     7
  6
CONTINUOUS
 10
342.445401
 20
202.854139
 30
0.000000
 11
329.776818
 21
195.407501
 31
0.000000
  0
LINE
  8
0
 62
     7
  6
CONTINUOUS
 10
334.059188
 20
194.548251
 30
0.000000
 11
342.445401
 21
202.854139
 31
0.000000
  0
LINE
  8
0
 62
     7
  6
CONTINUOUS
 10
350.028732
 20
200.944748
 30
0.000000
 11
337.895461
 21
193.784502
 31
0.000000
  0
LINE
  8
0
 62
     7
  6
CONTINUOUS
 10
340.571896
 20
193.211705
 30
0.000000
 11
350.028732
 21
200.944748
 31
0.000000
  0
LINE
  8
0
 62
     7
  6
CONTINUOUS
 10
356.184606
 20
199.417225
 30
0.000000
 11
345.211099
 21
192.352467
 31
0.000000
  0
LINE
  8
0
 62
     7
  6
CONTINUOUS
 10
347.798344
 20
191.970574
 30
0.000000
 11
356.184606
 21
199.417225
 31
0.000000
  0
LINE
  8
0
 62
     7
  6
CONTINUOUS
 10
364.124770
 20
197.412369
 30
0.000000
 11
351.723856
 21
191.206825
 31
0.000000
  0
LINE
  8
0
 62
     7
  6
CONTINUOUS
 10
355.738509
 20
190.538539
 30
0.000000
 11
364.124770
 21
197.412369
 31
0.000000
  0
LINE
  8
0
 62
     7
  6
CONTINUOUS
 10
370.012977
 20
195.980310
 30
0.000000
 11
359.574782
 21
189.774790
 31
0.000000
  0
LINE
  8
0
 62
     7
  6
CONTINUOUS
 10
362.340456
 20
189.297445
 30
0.000000
 11
370.012977
 21
195.980310
 31
0.000000
  0
LINE
  8
0
 62
     7
  6
CONTINUOUS
 10
377.774712
 20
193.975454
 30
0.000000
 11
366.478890
 21
188.577516
 31
0.000000
  0
LINE
  8
0
 62
     7
  6
CONTINUOUS
 10
371.975745
 20
187.578982
 30
0.000000
 11
377.774712
 21
193.975454
 31
0.000000
  0
LINE
  8
0
 62
     7
  6
CONTINUOUS
 10
395.796214
 20
189.488373
 30
0.000000
 11
388.480575
 21
184.428483
 31
0.000000
  0
LINE
  8
0
 62
     7
  6
CONTINUOUS
 10
390.541569
 20
184.033462
 30
0.000000
 11
395.796214
 21
189.488373
 31
0.000000
  0
LINE
  8
0
 62
     7
  6
CONTINUOUS
 10
412.747142
 20
185.192233
 30
0.000000
 11
407.305032
 21
180.991557
 31
0.000000
  0
LINE
  8
0
 62
     7
  6
CONTINUOUS
 10
409.981467
 20
180.514224
 30
0.000000
 11
412.747142
 21
185.192233
 31
0.000000
  0
LINE
  8
0
 62
     7
  6
CONTINUOUS
 10
419.705922
 20
183.378317
 30
0.000000
 11
413.817716
 21
179.750438
 31
0.000000
  0
LINE
  8
0
 62
     7
  6
CONTINUOUS
 10
416.504955
 20
179.284926
 30
0.000000
 11
419.705922
 21
183.378317
 31
0.000000
  0
LINE
  8
0
 62
     7
  6
CONTINUOUS
 10
415.361081
 20
176.450288
 30
0.000000
 11
416.504955
 21
179.284926
 31
0.000000
  0
LINE
  8
0
 62
     7
  6
CONTINUOUS
 10
426.575513
 20
181.659854
 30
0.000000
 11
417.297106
 21
175.549810
 31
0.000000
  0
LINE
  8
0
 62
     7
  6
CONTINUOUS
 10
333.702306
 20
189.297445
 30
0.000000
 11
283.049801
 21
155.259273
 31
0.000000
  0
LINE
  8
0
 62
     7
  6
CONTINUOUS
 10
307.383805
 20
159.701807
 30
0.000000
 11
346.281698
 21
187.292565
 31
0.000000
  0
LINE
  8
0
 62
     7
  6
CONTINUOUS
 10
360.466951
 20
185.096781
 30
0.000000
 11
329.776818
 21
163.520578
 31
0.000000
  0
LINE
  8
0
 62
     7
  6
CONTINUOUS
 10
354.846388
 20
168.866909
 30
0.000000
 11
372.867866
 21
183.091901
 31
0.000000
  0
LINE
  8
0
 62
     7
  6
CONTINUOUS
 10
391.959990
 20
180.036843
 30
0.000000
 11
382.235487
 21
172.590216
 31
0.000000
  0
LINE
  8
0
 62
     7
  6
CONTINUOUS
 10
282.967369
 20
155.254586
 30
0.000000
 11
252.518332
 21
162.896864
 31
0.000000
  0
LINE
  8
0
 62
     7
  6
CONTINUOUS
 10
304.172034
 20
159.224450
 30
0.000000
 11
262.332001
 21
169.155445
 31
0.000000
  0
LINE
  8
0
 62
     7
  6
CONTINUOUS
 10
329.677212
 20
163.585291
 30
0.000000
 11
270.769882
 21
174.259046
 31
0.000000
  0
LINE
  8
0
 62
     7
  6
CONTINUOUS
 10
349.493517
 20
168.129345
 30
0.000000
 11
282.967369
 21
180.246798
 31
0.000000
  0
LINE
  8
0
 62
     7
  6
CONTINUOUS
 10
324.854445
 20
218.110136
 30
0.000000
 11
345.954877
 21
216.599061
 31
0.000000
  0
LINE
  8
0
 62
     7
  6
CONTINUOUS
 10
329.677212
 20
203.724314
 30
0.000000
 11
320.902069
 21
217.851843
 31
0.000000
  0
LINE
  8
0
 62
     7
  6
CONTINUOUS
 10
326.138596
 20
202.209629
 30
0.000000
 11
317.070351
 21
215.688676
 31
0.000000
  0
LINE
  8
0
 62
     7
  6
CONTINUOUS
 10
318.892599
 20
197.316880
 30
0.000000
 11
311.984058
 21
212.812374
 31
0.000000
  0
LINE
  8
0
 62
     7
  6
CONTINUOUS
 10
321.279009
 20
199.240322
 30
0.000000
 11
306.436722
 21
220.938743
 31
0.000000
  0
LINE
  8
0
 62
     7
  6
CONTINUOUS
 10
314.246323
 20
195.682629
 30
0.000000
 11
302.762334
 21
218.754332
 31
0.000000
  0
LINE
  8
0
 62
     7
  6
CONTINUOUS
 10
309.145931
 20
193.120734
 30
0.000000
 11
302.195992
 21
207.268744
 31
0.000000
  0
LINE
  8
0
 62
     7
  6
CONTINUOUS
 10
304.288403
 20
190.670217
 30
0.000000
 11
293.282050
 21
213.397972
 31
0.000000
  0
LINE
  8
0
 62
     7
  6
CONTINUOUS
 10
299.465587
 20
188.219701
 30
0.000000
 11
291.622728
 21
201.269401
 31
0.000000
  0
LINE
  8
0
 62
     7
  6
CONTINUOUS
 10
282.079585
 20
206.948851
 30
0.000000
 11
294.046490
 21
185.522700
 31
0.000000
  0
LINE
  8
0
 62
     7
  6
CONTINUOUS
 10
288.561820
 20
182.915107
 30
0.000000
 11
277.045541
 21
203.913983
 31
0.000000
  0
LINE
  8
0
 62
     7
  6
CONTINUOUS
 10
282.329036
 20
180.042596
 30
0.000000
 11
270.735291
 21
200.347945
 31
0.000000
  0
LINE
  8
0
 62
     7
  6
CONTINUOUS
 10
266.197608
 20
186.842714
 30
0.000000
 11
323.858793
 21
219.563003
 31
0.000000
  0
LINE
  8
0
 62
     7
  6
CONTINUOUS
 10
263.045741
 20
193.052582
 30
0.000000
 11
272.223403
 21
175.162213
 31
0.000000
  0
LINE
  8
0
 62
     7
  6
CONTINUOUS
 10
266.057573
 20
171.424117
 30
0.000000
 11
257.567200
 21
189.181839
 31
0.000000
  0
LINE
  8
0
 62
     7
  6
CONTINUOUS
 10
251.231274
 20
184.932995
 30
0.000000
 11
259.730682
 21
167.552188
 31
0.000000
  0
LINE
  8
0
 62
     7
  6
CONTINUOUS
 10
252.518332
 20
162.896864
 30
0.000000
 11
245.020582
 21
180.553381
 31
0.000000
  0
LINE
  8
0
 62
     7
  6
CONTINUOUS
 10
246.074975
 20
158.547675
 30
0.000000
 11
238.643936
 21
176.254479
 31
0.000000
  0
LINE
  8
0
 62
     7
  6
CONTINUOUS
 10
269.072723
 20
150.167566
 30
0.000000
 11
243.596783
 21
156.744357
 31
0.000000
  0
LINE
  8
0
 62
     7
  6
CONTINUOUS
 10
231.503142
 20
171.489133
 30
0.000000
 11
239.796143
 21
154.497231
 31
0.000000
  0
LINE
  8
0
 62
     7
  6
CONTINUOUS
 10
234.080455
 20
150.167566
 30
0.000000
 11
225.158931
 21
167.033881
 31
0.000000
  0
LINE
  8
0
 62
     7
  6
CONTINUOUS
 10
251.725284
 20
143.484677
 30
0.000000
 11
234.080455
 21
150.167566
 31
0.000000
  0
LINE
  8
0
 62
     7
  6
CONTINUOUS
 10
201.566415
 20
127.573063
 30
0.000000
 11
206.914284
 21
124.042465
 31
0.000000
  0
LINE
  8
0
 62
     7
  6
CONTINUOUS
 10
194.518008
 20
146.143902
 30
0.000000
 11
201.566415
 21
127.573063
 31
0.000000
  0
LINE
  8
0
 62
     7
  6
CONTINUOUS
 10
194.501754
 20
122.688974
 30
0.000000
 11
186.716764
 21
140.865130
 31
0.000000
  0
LINE
  8
0
 62
     7
  6
CONTINUOUS
 10
198.329500
 20
120.311176
 30
0.000000
 11
194.501754
 21
122.688974
 31
0.000000
  0
LINE
  8
0
 62
     7
  6
CONTINUOUS
 10
295.706393
 20
186.305501
 30
0.000000
 11
309.153174
 21
193.121570
 31
0.000000
  0
LINE
  8
0
 62
     7
  6
CONTINUOUS
 10
273.059229
 20
175.702756
 30
0.000000
 11
295.706393
 21
186.305501
 31
0.000000
  0
LINE
  8
0
 62
     7
  6
CONTINUOUS
 10
253.242924
 20
163.585291
 30
0.000000
 11
273.059229
 21
175.702756
 31
0.000000
  0
LINE
  8
0
 62
     7
  6
CONTINUOUS
 10
194.501754
 20
122.688974
 30
0.000000
 11
253.242924
 21
163.585291
 31
0.000000
  0
LINE
  8
0
 62
     7
  6
CONTINUOUS
 10
256.073832
 20
145.409172
 30
0.000000
 11
196.732929
 21
119.617226
 31
0.000000
  0
LINE
  8
0
 62
     7
  6
CONTINUOUS
 10
285.090544
 20
156.011928
 30
0.000000
 11
256.073832
 21
145.409172
 31
0.000000
  0
LINE
  8
0
 62
     7
  6
CONTINUOUS
 10
343.831702
 20
165.857330
 30
0.000000
 11
285.090544
 21
156.011928
 31
0.000000
  0
LINE
  8
0
 62
     7
  6
CONTINUOUS
 10
349.493517
 20
168.129345
 30
0.000000
 11
343.831702
 21
165.857330
 31
0.000000
  0
LINE
  8
0
 62
     7
  6
CONTINUOUS
 10
394.080185
 20
174.188060
 30
0.000000
 11
349.493517
 21
168.129345
 31
0.000000
  0
LINE
  8
0
 62
     7
  6
CONTINUOUS
 10
400.792300
 20
178.700272
 30
0.000000
 11
394.080185
 21
174.188060
 31
0.000000
  0
LINE
  8
0
 62
     7
  6
CONTINUOUS
 10
415.311908
 20
176.460099
 30
0.000000
 11
309.153174
 21
193.121570
 31
0.000000
  0
LINE
  8
0
 62
     7
  6
CONTINUOUS
 10
420.723011
 20
173.873762
 30
0.000000
 11
415.311908
 21
176.460099
 31
0.000000
  0
LINE
  8
0
 62
     7
  6
CONTINUOUS
 10
202.458584
 20
111.767512
 30
0.000000
 11
209.958430
 21
105.580159
 31
0.000000
  0
LINE
  8
0
 62
     7
  6
CONTINUOUS
 10
207.723949
 20
114.982117
 30
0.000000
 11
217.002912
 21
108.739475
 31
0.000000
  0
LINE
  8
0
 62
     7
  6
CONTINUOUS
 10
213.610338
 20
118.144957
 30
0.000000
 11
224.068518
 21
111.979672
 31
0.000000
  0
LINE
  8
0
 62
     7
  6
CONTINUOUS
 10
219.806012
 20
122.057000
 30
0.000000
 11
231.800507
 21
115.586307
 31
0.000000
  0
LINE
  8
0
 62
     7
  6
CONTINUOUS
 10
226.249344
 20
125.875807
 30
0.000000
 11
240.028154
 21
119.086857
 31
0.000000
  0
LINE
  8
0
 62
     7
  6
CONTINUOUS
 10
233.981333
 20
130.437157
 30
0.000000
 11
248.057557
 21
122.905652
 31
0.000000
  0
LINE
  8
0
 62
     7
  6
CONTINUOUS
 10
246.165667
 20
137.835785
 30
0.000000
 11
256.780814
 21
126.724411
 31
0.000000
  0
LINE
  8
0
 62
     7
  6
CONTINUOUS
 10
255.463816
 20
141.336685
 30
0.000000
 11
264.618925
 21
130.094409
 31
0.000000
  0
LINE
  8
0
 62
     7
  6
CONTINUOUS
 10
263.199075
 20
144.249153
 30
0.000000
 11
271.883841
 21
133.352556
 31
0.000000
  0
LINE
  8
0
 62
     7
  6
CONTINUOUS
 10
273.208881
 20
148.018048
 30
0.000000
 11
281.835922
 21
136.798094
 31
0.000000
  0
LINE
  8
0
 62
     7
  6
CONTINUOUS
 10
284.382835
 20
152.225241
 30
0.000000
 11
293.583219
 21
140.865130
 31
0.000000
  0
LINE
  8
0
 62
     7
  6
CONTINUOUS
 10
293.557397
 20
153.455955
 30
0.000000
 11
298.216439
 21
141.681347
 31
0.000000
  0
LINE
  8
0
 62
     7
  6
CONTINUOUS
 10
303.993605
 20
154.832858
 30
0.000000
 11
310.238670
 21
143.758340
 31
0.000000
  0
LINE
  8
0
 62
     7
  6
CONTINUOUS
 10
315.770043
 20
156.551321
 30
0.000000
 11
322.239561
 21
145.877070
 31
0.000000
  0
LINE
  8
0
 62
     7
  6
CONTINUOUS
 10
328.261770
 20
158.283943
 30
0.000000
 11
333.285446
 21
147.808977
 31
0.000000
  0
LINE
  8
0
 62
     7
  6
CONTINUOUS
 10
337.984651
 20
159.510867
 30
0.000000
 11
343.337594
 21
149.582016
 31
0.000000
  0
LINE
  8
0
 62
     7
  6
CONTINUOUS
 10
349.233116
 20
161.221058
 30
0.000000
 11
355.470890
 21
151.586896
 31
0.000000
  0
LINE
  8
0
 62
     7
  6
CONTINUOUS
 10
361.524832
 20
162.827985
 30
0.000000
 11
367.187568
 21
153.738375
 31
0.000000
  0
LINE
  8
0
 62
     7
  6
CONTINUOUS
 10
373.492391
 20
164.475292
 30
0.000000
 11
377.863927
 21
155.596607
 31
0.000000
  0
LINE
  8
0
 62
     7
  6
CONTINUOUS
 10
387.838439
 20
166.576291
 30
0.000000
 11
390.971460
 21
157.898138
 31
0.000000
  0
LINE
  8
0
 62
     7
  6
CONTINUOUS
 10
399.034243
 20
168.129345
 30
0.000000
 11
401.864255
 21
159.803255
 31
0.000000
  0
LINE
  8
0
 62
     7
  6
CONTINUOUS
 10
403.988326
 20
170.401360
 30
0.000000
 11
410.695184
 21
165.907327
 31
0.000000
  0
LINE
  8
0
 62
     7
  6
CONTINUOUS
 10
420.723011
 20
173.873762
 30
0.000000
 11
416.115492
 21
169.774933
 31
0.000000
  0
LINE
  8
0
 62
     7
  6
CONTINUOUS
 10
410.357850
 20
173.430742
 30
0.000000
 11
416.115492
 21
169.774933
 31
0.000000
  0
LINE
  8
0
 62
     7
  6
CONTINUOUS
 10
399.034243
 20
168.129345
 30
0.000000
 11
410.357850
 21
173.430742
 31
0.000000
  0
LINE
  8
0
 62
     7
  6
CONTINUOUS
 10
284.382835
 20
152.225241
 30
0.000000
 11
399.034243
 21
168.129345
 31
0.000000
  0
LINE
  8
0
 62
     7
  6
CONTINUOUS
 10
246.165667
 20
137.835785
 30
0.000000
 11
284.382835
 21
152.225241
 31
0.000000
  0
LINE
  8
0
 62
     7
  6
CONTINUOUS
 10
201.578999
 20
111.328912
 30
0.000000
 11
246.165667
 21
137.835785
 31
0.000000
  0
LINE
  8
0
 62
     7
  6
CONTINUOUS
 10
271.883841
 20
133.352556
 30
0.000000
 11
188.916691
 21
96.143338
 31
0.000000
  0
LINE
  8
0
 62
     7
  6
CONTINUOUS
 10
293.583219
 20
140.865130
 30
0.000000
 11
271.883841
 21
133.352556
 31
0.000000
  0
LINE
  8
0
 62
     7
  6
CONTINUOUS
 10
401.864255
 20
159.803255
 30
0.000000
 11
293.583219
 21
140.865130
 31
0.000000
  0
LINE
  8
0
 62
     7
  6
CONTINUOUS
 10
416.115492
 20
169.774933
 30
0.000000
 11
401.864255
 21
159.803255
 31
0.000000
  0
LINE
  8
0
 62
     7
  6
CONTINUOUS
 10
428.758713
 20
181.004104
 30
0.000000
 11
420.723011
 21
173.873762
 31
0.000000
  0
LINE
  8
0
 62
     7
  6
CONTINUOUS
 10
267.402937
 20
202.851765
 30
0.000000
 11
283.675078
 21
209.025686
 31
0.000000
  0
LINE
  8
0
 62
     7
  6
CONTINUOUS
 10
263.857829
 20
202.017139
 30
0.000000
 11
267.402937
 21
202.851765
 31
0.000000
  0
LINE
  8
0
 62
     7
  6
CONTINUOUS
 10
246.165667
 20
221.143115
 30
0.000000
 11
246.165667
 21
219.628430
 31
0.000000
  0
LINE
  8
0
 62
     7
  6
CONTINUOUS
 10
261.027890
 20
237.047231
 30
0.000000
 11
246.165667
 21
221.143115
 31
0.000000
  0
LINE
  8
0
 62
     7
  6
CONTINUOUS
 10
283.022453
 20
251.085522
 30
0.000000
 11
261.027890
 21
237.047231
 31
0.000000
  0
LINE
  8
0
 62
     7
  6
CONTINUOUS
 10
313.399548
 20
251.436687
 30
0.000000
 11
310.568640
 21
252.951348
 31
0.000000
  0
LINE
  8
0
 62
     7
  6
CONTINUOUS
 10
321.892222
 20
255.980742
 30
0.000000
 11
313.399548
 21
251.436687
 31
0.000000
  0
LINE
  8
0
 62
     7
  6
CONTINUOUS
 10
324.723130
 20
253.708690
 30
0.000000
 11
321.892222
 21
255.980742
 31
0.000000
  0
LINE
  8
0
 62
     7
  6
CONTINUOUS
 10
327.554037
 20
255.223399
 30
0.000000
 11
324.723130
 21
253.708690
 31
0.000000
  0
LINE
  8
0
 62
     7
  6
CONTINUOUS
 10
329.677212
 20
252.194054
 30
0.000000
 11
327.554037
 21
255.223399
 31
0.000000
  0
LINE
  8
0
 62
     7
  6
CONTINUOUS
 10
327.554037
 20
250.679345
 30
0.000000
 11
329.677212
 21
252.194054
 31
0.000000
  0
LINE
  8
0
 62
     7
  6
CONTINUOUS
 10
326.138596
 20
240.833943
 30
0.000000
 11
327.554037
 21
250.679345
 31
0.000000
  0
LINE
  8
0
 62
     7
  6
CONTINUOUS
 10
318.353606
 20
227.959172
 30
0.000000
 11
326.138596
 21
240.833943
 31
0.000000
  0
LINE
  8
0
 62
     7
  6
CONTINUOUS
 10
333.252285
 20
205.247235
 30
0.000000
 11
318.353606
 21
227.959172
 31
0.000000
  0
LINE
  8
0
 62
     7
  6
CONTINUOUS
 10
345.954877
 20
216.599061
 30
0.000000
 11
333.252285
 21
205.247235
 31
0.000000
  0
LINE
  8
0
 62
     7
  6
CONTINUOUS
 10
335.488606
 20
204.670162
 30
0.000000
 11
345.954877
 21
216.599061
 31
0.000000
  0
LINE
  8
0
 62
     7
  6
CONTINUOUS
 10
377.713185
 20
171.963983
 30
0.000000
 11
295.706393
 21
186.305501
 31
0.000000
  0
LINE
  8
0
 62
     7
  6
CONTINUOUS
 10
372.075036
 20
171.197859
 30
0.000000
 11
371.342595
 21
173.078110
 31
0.000000
  0
LINE
  8
0
 62
     7
  6
CONTINUOUS
 10
297.829592
 20
177.974747
 30
0.000000
 11
294.998685
 21
186.305501
 31
0.000000
  0
LINE
  8
0
 62
     7
  6
CONTINUOUS
 10
196.788061
 20
165.589323
 30
0.000000
 11
200.530480
 21
164.040787
 31
0.000000
  0
LINE
  8
0
 62
     7
  6
CONTINUOUS
 10
225.929548
 20
189.850754
 30
0.000000
 11
221.310716
 21
205.024598
 31
0.000000
  0
LINE
  8
0
 62
     7
  6
CONTINUOUS
 10
218.665262
 20
190.302895
 30
0.000000
 11
214.015425
 21
206.225639
 31
0.000000
  0
LINE
  8
0
 62
     7
  6
CONTINUOUS
 10
232.307017
 20
193.921557
 30
0.000000
 11
224.962964
 21
222.619115
 31
0.000000
  0
LINE
  8
0
 62
     7
  6
CONTINUOUS
 10
234.772564
 20
184.287286
 30
0.000000
 11
233.144999
 21
190.647169
 31
0.000000
  0
LINE
  8
0
 62
     7
  6
CONTINUOUS
 10
241.407455
 20
187.949017
 30
0.000000
 11
239.375868
 21
195.926050
 31
0.000000
  0
LINE
  8
0
 62
     7
  6
CONTINUOUS
 10
238.527204
 20
199.258489
 30
0.000000
 11
233.230168
 21
220.057401
 31
0.000000
  0
LINE
  8
0
 62
     7
  6
CONTINUOUS
 10
245.694911
 20
212.147056
 30
0.000000
 11
215.979549
 21
216.434488
 31
0.000000
  0
POINT
  8
0
 62
     7
 10
0.000000
 20
0.000000
 30
0.000000
  0
POINT
  8
0
 62
     7
 10
0.000000
 20
0.000000
 30
0.000000
  0
ENDSEC
  0
EOF
