0
SECTION
2
HEADER
9
$LTSCALE
40
0.5000000
9
$LIMMIN
10
0.0000000
20
0.0000000
9
$LIMMAX
10
12.0000000
20
9.0000000
9
$EXTMIN
10
-0.0469128
20
-0.0421749
9
$EXTMAX
10
12.4030876
20
8.4078255
9
$SNAPMODE
70
0
9
$SNAPUNIT
10
1.0000000
20
1.0000000
9
$GRIDMODE
70
0
9
$GRIDUNIT
10
1.0000000
20
1.0000000
9
$ORTHOMODE
70
0
9
$TEXTSTYLE
7
txt
9
$CLAYER
8
1
9
$CECOLOR
62
7
9
$CELTYPE
6
CONTINUOUS
9
$PLINEWID
40
0.0000000
9
$OSMODE
70
0
9
$FILLMODE
70
0
9
$CHAMFERA
40
0.5000000
9
$CHAMFERB
40
0.5000000
9
$COORDS
70
2
9
$FILLETRAD
40
0.5000000
9
$INSBASE
10
0.0000000
20
0.0000000
9
$SPLFRAME
70
0
9
$SPLINESEGS
70
8
0
ENDSEC
0
SECTION
2
TABLES
0
TABLE
2
LTYPE
70
9
0
LTYPE
2
DISCONTINUE
70
0
3
__ __ __ __ __ __ __ __ __ __ __ __ __ __ __
72
65
73
2
40
0.7500000
49
0.5000000
49
-0.2500000
0
LTYPE
2
CACHE
70
0
3
_ _ _ _ _ _ _ _ _ _ _ _ _ _ _ _ _ _ _ _ _ _ 
72
65
73
2
40
0.2500000
49
0.1250000
49
-0.1250000
0
LTYPE
2
AXES
70
0
3
____ _ ____ _ ____ _ ____ _ ____ _ ____ _ __
72
65
73
4
40
2.0000000
49
1.2500000
49
-0.2500000
49
0.2500000
49
-0.2500000
0
LTYPE
2
FANTOME
70
0
3
_____ _ _ _____ _ _ _____ _ _ _____ _ _ ____
72
65
73
6
40
2.5000000
49
1.2500000
49
-0.2500000
49
0.2500000
49
-0.2500000
49
0.2500000
49
-0.2500000
0
LTYPE
2
POINTILLE
70
0
3
............................................
72
65
73
2
40
0.2500000
49
0.0000000
49
-0.2500000
0
LTYPE
2
MIXTE
70
0
3
__ . __ . __ . __ . __ . __ . __ . __ . __ .
72
65
73
4
40
1.0000000
49
0.5000000
49
-0.2500000
49
0.0000000
49
-0.2500000
0
LTYPE
2
BORDURE
70
0
3
__ __ . __ __ . __ __ . __ __ . __ __ . __ _
72
65
73
6
40
1.7500000
49
0.5000000
49
-0.2500000
49
0.5000000
49
-0.2500000
49
0.0000000
49
-0.2500000
0
LTYPE
2
DIVISE
70
0
3
__ . . __ . . __ . . __ . . __ . . __ . . __
72
65
73
6
40
1.2500000
49
0.5000000
49
-0.2500000
49
0.0000000
49
-0.2500000
49
0.0000000
49
-0.2500000
0
LTYPE
2
POINTILLES
70
0
3
fermer
72
65
73
2
40
0.1000000
49
0.0500000
49
-0.0500000
0
ENDTAB
0
TABLE
2
STYLE
70
1
0
STYLE
2
SCRIPTC
70
0
40
0.0000000
41
1.0000000
50
0.0000000
71
0
42
0.0000000
3
SCRIPTC
4

0
ENDTAB
0
TABLE
2
LAYER
70
10
0
LAYER
2
1
70
0
62
7
6
CONTINUOUS
0
LAYER
2
2
70
0
62
7
6
CONTINUOUS
0
LAYER
2
3
70
0
62
7
6
CONTINUOUS
0
LAYER
2
4
70
0
62
7
6
CONTINUOUS
0
LAYER
2
5
70
0
62
7
6
CONTINUOUS
0
LAYER
2
6
70
0
62
7
6
CONTINUOUS
0
LAYER
2
7
70
0
62
7
6
CONTINUOUS
0
LAYER
2
8
70
0
62
7
6
CONTINUOUS
0
LAYER
2
9
70
0
62
7
6
CONTINUOUS
0
LAYER
2
10
70
0
62
7
6
CONTINUOUS
0
ENDTAB
0
ENDSEC
0
SECTION
2
ENTITIES
0
CIRCLE
8
1
62
7
10
6.3530703
20
4.1578274
40
1.9999976
0
CIRCLE
8
1
62
7
10
6.3530884
20
4.1578093
40
2.1920590
0
POLYLINE
8
1
62
7
70
1
66
1
40
0.1450000
41
0.1450000
0
VERTEX
8
1
10
3.3394060
20
4.1578250
42
-1.0000000
0
VERTEX
8
1
10
9.3667688
20
4.1578250
42
-1.0000000
0
SEQEND
8
1
0
SOLID
8
1
62
1
10
6.3530793
20
4.1578183
11
5.8284192
21
4.6824799
12
6.3530726
22
6.1578264
13
6.3530726
23
6.1578264
0
SOLID
8
1
62
7
10
6.3530703
20
4.1578274
11
4.3530726
21
4.1578264
12
5.8284192
22
4.6824799
13
5.8284192
23
4.6824799
0
SOLID
8
1
62
1
10
6.3530793
20
4.1578183
11
5.8284178
21
3.6331582
12
4.3530712
22
4.1578116
13
4.3530712
23
4.1578116
0
SOLID
8
1
62
7
10
6.3530703
20
4.1578093
11
6.3530712
21
2.1578116
12
5.8284178
22
3.6331582
13
5.8284178
23
3.6331582
0
SOLID
8
1
62
1
10
5.9703875
20
3.2339315
11
6.0979490
21
2.8752255
12
5.5877051
22
2.3100524
13
5.5877051
23
2.3100524
0
LINE
8
1
62
7
10
6.0979671
20
2.8752074
11
5.7810745
21
1.2727728
0
POLYLINE
8
1
62
1
70
1
66
1
40
0.0000000
41
0.0000000
0
VERTEX
8
1
10
5.4460177
20
1.2107115
42
-0.0152981
0
VERTEX
8
1
10
5.8275361
20
1.0632738
42
-0.0664493
0
VERTEX
8
1
10
6.1617255
20
0.8723442
42
-0.2078502
0
VERTEX
8
1
10
6.3504734
20
0.6398517
0
VERTEX
8
1
10
6.3495617
20
1.0717454
42
-0.0807323
0
VERTEX
8
1
10
5.4460177
20
1.2107117
0
SEQEND
8
1
0
POLYLINE
8
1
62
1
70
1
66
1
40
0.0000000
41
0.0000000
0
VERTEX
8
1
10
5.4490023
20
7.1084805
42
0.0152981
0
VERTEX
8
1
10
5.8311000
20
7.2544117
42
0.0664493
0
VERTEX
8
1
10
6.1660395
20
7.4440212
42
0.2078502
0
VERTEX
8
1
10
6.3557034
20
7.6757665
0
VERTEX
8
1
10
6.3530874
20
7.2438803
42
0.0807322
0
VERTEX
8
1
10
5.4490023
20
7.1084805
0
SEQEND
8
1
0
SOLID
8
1
62
7
10
5.9703889
20
5.0817060
11
5.5877056
21
6.0055857
12
6.0979500
22
5.4404125
13
6.0979500
23
5.4404125
0
LINE
8
1
62
7
10
6.0979590
20
5.4404092
11
5.7775044
21
7.0421357
0
POLYLINE
8
1
62
7
70
1
66
1
40
0.1000000
41
0.1000000
0
VERTEX
8
1
10
0.0530872
20
0.0578251
0
VERTEX
8
1
10
12.3030872
20
0.0578251
0
VERTEX
8
1
10
12.3030872
20
8.3078251
0
VERTEX
8
1
10
0.0530872
20
8.3078251
0
SEQEND
8
1
0
POLYLINE
8
1
62
1
70
1
66
1
40
0.0000000
41
0.0000000
0
VERTEX
8
1
10
3.4059906
20
5.0648799
42
-0.0152981
0
VERTEX
8
1
10
3.2585533
20
4.6833620
42
-0.0664493
0
VERTEX
8
1
10
3.0676234
20
4.3491726
42
-0.2078502
0
VERTEX
8
1
10
2.8351309
20
4.1604242
0
VERTEX
8
1
10
3.2670245
20
4.1613359
42
-0.0807322
0
VERTEX
8
1
10
3.4059906
20
5.0648799
0
SEQEND
8
1
0
POLYLINE
8
1
62
7
70
1
66
1
40
0.0000000
41
0.0000000
0
VERTEX
8
1
10
2.3530872
20
4.3578253
42
0.0511902
0
VERTEX
8
1
10
2.2659347
20
4.6743526
42
0.1749480
0
VERTEX
8
1
10
2.1532888
20
4.7636170
0
VERTEX
8
1
10
2.3530872
20
7.5578251
0
SEQEND
8
1
0
POLYLINE
8
1
62
1
70
1
66
1
40
0.0000000
41
0.0000000
0
VERTEX
8
1
10
2.3530872
20
4.3578253
42
-0.0511903
0
VERTEX
8
1
10
2.4402399
20
4.6743526
42
-0.1749480
0
VERTEX
8
1
10
2.5528855
20
4.7636170
0
VERTEX
8
1
10
2.3530872
20
7.5578251
0
SEQEND
8
1
0
SOLID
8
1
62
1
10
5.4291925
20
4.5405102
11
5.0704865
21
4.4129486
12
4.5053134
22
4.9231925
13
4.5053134
23
4.9231925
0
LINE
8
1
62
7
10
5.0704865
20
4.4129305
11
3.4680519
21
4.7298231
0
POLYLINE
8
1
62
1
70
1
66
1
40
0.0000000
41
0.0000000
0
VERTEX
8
1
10
3.4024172
20
3.2537231
42
0.0152981
0
VERTEX
8
1
10
3.2564859
20
3.6358209
42
0.0664493
0
VERTEX
8
1
10
3.0668764
20
3.9707601
42
0.2078502
0
VERTEX
8
1
10
2.8351309
20
4.1604242
0
VERTEX
8
1
10
3.2670174
20
4.1578083
42
0.0807322
0
VERTEX
8
1
10
3.4024172
20
3.2537231
0
SEQEND
8
1
0
POLYLINE
8
1
62
7
70
1
66
1
40
0.0000000
41
0.0000000
0
VERTEX
8
1
10
2.3530872
20
3.9578249
42
-0.0511902
0
VERTEX
8
1
10
2.2659347
20
3.6412973
42
-0.1749480
0
VERTEX
8
1
10
2.1532888
20
3.5520332
0
VERTEX
8
1
10
2.3530872
20
0.7578249
0
SEQEND
8
1
0
POLYLINE
8
1
62
1
70
1
66
1
40
0.0000000
41
0.0000000
0
VERTEX
8
1
10
2.3530872
20
3.9578249
42
0.0511903
0
VERTEX
8
1
10
2.4402397
20
3.6412973
42
0.1749480
0
VERTEX
8
1
10
2.5528855
20
3.5520332
0
VERTEX
8
1
10
2.3530872
20
0.7578249
0
SEQEND
8
1
0
POLYLINE
8
1
62
1
70
1
66
1
40
0.0000000
41
0.0000000
0
VERTEX
8
1
10
2.3530872
20
4.1578250
0
VERTEX
8
1
10
2.5530872
20
4.1578250
42
1.0000000
0
VERTEX
8
1
10
2.1530871
20
4.1578250
0
SEQEND
8
1
0
POLYLINE
8
1
62
7
70
1
66
1
40
0.0000000
41
0.0000000
0
VERTEX
8
1
10
2.1530871
20
4.1578250
0
VERTEX
8
1
10
2.5530872
20
4.1578250
42
-1.0000001
0
VERTEX
8
1
10
2.1530871
20
4.1578250
0
SEQEND
8
1
0
TEXT
8
1
62
7
40
0.2240000
50
45.7694255
1
SW
7
SCRIPTC
72
0
10
4.4362030
20
2.0609560
0
LINE
8
1
62
7
10
5.6265569
20
3.0704706
11
4.7205610
21
1.7112833
0
LINE
8
1
62
7
10
5.5877295
20
2.3100281
11
5.5111799
21
2.1252589
0
TEXT
8
1
62
7
40
0.3200000
1
COMPASS
7
SCRIPTC
72
0
10
3.0000327
20
0.7760069
0
POLYLINE
8
1
62
1
70
1
66
1
40
0.0000000
41
0.0000000
0
VERTEX
8
1
10
4.0174084
20
2.1395929
42
-0.0390959
0
VERTEX
8
1
10
4.0512872
20
2.0232310
42
-0.1555743
0
VERTEX
8
1
10
4.0423717
20
1.8463603
0
VERTEX
8
1
10
4.1709023
20
1.9756377
42
-0.0128972
0
VERTEX
8
1
10
4.0174084
20
2.1395926
0
SEQEND
8
1
0
POLYLINE
8
1
62
1
70
1
66
1
40
0.0000000
41
0.0000000
0
VERTEX
8
1
10
4.3348575
20
1.8221440
42
0.0390959
0
VERTEX
8
1
10
4.2184954
20
1.8560227
42
0.1555744
0
VERTEX
8
1
10
4.0416250
20
1.8471073
0
VERTEX
8
1
10
4.1709023
20
1.9756377
42
0.0128972
0
VERTEX
8
1
10
4.3348570
20
1.8221443
0
SEQEND
8
1
0
TEXT
8
1
62
7
40
0.1600000
50
66.2853057
1
SSW
7
SCRIPTC
72
0
10
5.3694773
20
1.5649568
0
LINE
8
1
62
7
10
5.0704880
20
3.9026802
11
3.4687619
21
3.5822256
0
LINE
8
1
62
7
10
5.2657537
20
3.4312708
11
3.9085844
21
2.5222554
0
LINE
8
1
62
7
10
4.5053196
20
3.3924212
11
4.3205385
21
3.3158987
0
TEXT
8
1
62
7
40
0.1600000
50
21.3830308
1
WSW
7
SCRIPTC
72
0
10
3.7542787
20
3.0351441
0
TEXT
8
1
62
7
40
0.4800000
1
W
7
SCRIPTC
72
0
10
3.5064635
20
3.9099565
0
LINE
8
1
62
7
10
4.3530712
20
4.1577935
11
4.1530724
21
4.1578083
0
SOLID
8
1
62
7
10
5.8284183
20
3.6331573
11
4.9388571
21
2.7435975
12
5.4291916
22
3.7751279
13
5.4291916
23
3.7751279
0
SOLID
8
1
62
1
10
5.8284183
20
3.6331573
11
5.9703884
21
3.2339325
12
4.9388566
22
2.7435966
13
4.9388566
23
2.7435966
0
SOLID
8
1
62
7
10
5.9703879
20
3.2339315
11
5.6265445
21
3.0704870
12
5.5877051
22
2.3100538
13
5.5877051
23
2.3100538
0
LINE
8
1
62
7
10
4.9388733
20
2.7435725
11
4.7974424
21
2.6021624
0
SOLID
8
1
62
7
10
5.4291916
20
3.7751279
11
4.5053120
21
3.3924446
12
5.0704851
22
3.9026892
13
5.0704851
23
3.9026892
0
SOLID
8
1
62
1
10
5.4291916
20
3.7751279
11
5.2657466
21
3.4312840
12
4.5053115
22
3.3924441
13
4.5053115
23
3.3924441
0
TEXT
8
1
62
7
40
0.1600000
50
293.0725436
1
NNW
7
SCRIPTC
72
0
10
5.1882114
20
6.7481441
0
LINE
8
1
62
7
10
5.2657499
20
4.8843408
11
3.9065626
21
5.7903366
0
TEXT
8
1
62
7
40
0.2240000
50
315.5088408
1
NW
7
SCRIPTC
72
0
10
4.2637329
20
6.0801172
0
LINE
8
1
62
7
10
4.5053072
20
4.9231682
11
4.3205385
21
4.9997177
0
TEXT
8
1
62
7
40
0.1600000
50
334.5275025
1
WNW
7
SCRIPTC
72
0
10
3.6789064
20
5.1988859
0
POLYLINE
8
1
62
1
70
1
66
1
40
0.0000000
41
0.0000000
0
VERTEX
8
1
10
4.0174232
20
6.1760402
42
0.0390959
0
VERTEX
8
1
10
4.0513020
20
6.2924023
42
0.1555744
0
VERTEX
8
1
10
4.0423865
20
6.4692726
0
VERTEX
8
1
10
4.1709166
20
6.3399954
42
0.0128972
0
VERTEX
8
1
10
4.0174232
20
6.1760406
0
SEQEND
8
1
0
POLYLINE
8
1
62
1
70
1
66
1
40
0.0000000
41
0.0000000
0
VERTEX
8
1
10
4.3348722
20
6.4934893
42
-0.0390959
0
VERTEX
8
1
10
4.2185102
20
6.4596105
42
-0.1555744
0
VERTEX
8
1
10
4.0416393
20
6.4685259
0
VERTEX
8
1
10
4.1709166
20
6.3399954
42
-0.0128972
0
VERTEX
8
1
10
4.3348718
20
6.4934893
0
SEQEND
8
1
0
LINE
8
1
62
7
10
5.6265497
20
5.2451434
11
4.7175341
21
6.6023130
0
SOLID
8
1
62
1
10
5.9703889
20
5.0817060
11
5.6265450
21
5.2451510
12
5.5877051
22
6.0055861
13
5.5877051
23
6.0055861
0
LINE
8
1
62
7
10
4.9388514
20
5.5720239
11
4.7974415
21
5.7134547
0
SOLID
8
1
62
1
10
5.8284183
20
4.6824794
11
5.4291935
21
4.5405092
12
4.9388576
22
5.5720410
13
4.9388576
23
5.5720410
0
SOLID
8
1
62
7
10
5.4291925
20
4.5405097
11
5.2657480
21
4.8843532
12
4.5053148
22
4.9231925
13
4.5053148
23
4.9231925
0
SOLID
8
1
62
7
10
5.8284183
20
4.6824794
11
4.9388585
21
5.5720406
12
5.9703889
22
5.0817060
13
5.9703889
23
5.0817060
0
LINE
8
1
62
7
10
5.5877004
20
6.0055780
11
5.5111780
21
6.1903586
0
SOLID
8
1
62
7
10
7.2769670
20
4.5405087
11
8.2008467
21
4.9231920
12
7.6356735
22
4.4129477
13
7.6356735
23
4.4129477
0
SOLID
8
1
62
1
10
6.3530793
20
4.1578183
11
6.8777409
21
4.6824784
12
8.3530874
22
4.1578250
13
8.3530874
23
4.1578250
0
POLYLINE
8
1
62
1
70
1
66
1
40
0.0000000
41
0.0000000
0
VERTEX
8
1
10
9.3037596
20
5.0618954
42
0.0152981
0
VERTEX
8
1
10
9.4496908
20
4.6797972
42
0.0664493
0
VERTEX
8
1
10
9.6393003
20
4.3448582
42
0.2078502
0
VERTEX
8
1
10
9.8710461
20
4.1551943
0
VERTEX
8
1
10
9.4391594
20
4.1578102
42
0.0807322
0
VERTEX
8
1
10
9.3037596
20
5.0618954
0
SEQEND
8
1
0
SOLID
8
1
62
7
10
6.3530884
20
4.1578274
11
6.3530874
21
6.1578250
12
6.8777409
22
4.6824784
13
6.8777409
23
4.6824784
0
POLYLINE
8
1
62
7
70
1
66
1
40
0.0000000
41
0.0000000
0
VERTEX
8
1
10
10.3530893
20
4.3578305
42
-0.0511903
0
VERTEX
8
1
10
10.4402409
20
4.6743584
42
-0.1749480
0
VERTEX
8
1
10
10.5528870
20
4.7636223
0
VERTEX
8
1
10
10.3530846
20
7.5578308
0
SEQEND
8
1
0
POLYLINE
8
1
62
1
70
1
66
1
40
0.0000000
41
0.0000000
0
VERTEX
8
1
10
10.3530893
20
4.3578305
42
0.0511903
0
VERTEX
8
1
10
10.2659359
20
4.6743579
42
0.1749480
0
VERTEX
8
1
10
10.1532898
20
4.7636223
0
VERTEX
8
1
10
10.3530846
20
7.5578308
0
SEQEND
8
1
0
LINE
8
1
62
7
10
7.6356883
20
4.4129381
11
9.2374153
21
4.7333932
0
TEXT
8
1
62
7
40
0.3200000
41
0.8000000
1
Edward C. Mack
7
SCRIPTC
72
0
10
7.1780872
20
0.7592237
0
TEXT
8
1
62
7
40
0.4800000
1
E
7
SCRIPTC
72
0
10
8.7154665
20
3.9099565
0
LINE
8
1
62
7
10
7.6356902
20
3.9026880
11
9.2381248
21
3.5857954
0
LINE
8
1
62
7
10
7.0796270
20
3.0704749
11
7.9886422
21
1.7133052
0
SOLID
8
1
62
1
10
6.3530793
20
4.1578183
11
6.8777394
21
3.6331568
12
6.3530860
22
2.1578102
13
6.3530860
23
2.1578102
0
LINE
8
1
62
7
10
6.6082177
20
2.8752091
11
6.9286723
21
1.2734827
0
LINE
8
1
62
7
10
7.1184764
20
2.3100405
11
7.1949992
21
2.1252599
0
TEXT
8
1
62
7
40
0.2240000
50
312.8917855
1
SE
7
SCRIPTC
72
0
10
7.9619646
20
2.4090090
0
POLYLINE
8
1
62
1
70
1
66
1
40
0.0000000
41
0.0000000
0
VERTEX
8
1
10
7.2571745
20
1.2071381
42
0.0152981
0
VERTEX
8
1
10
6.8750758
20
1.0612066
42
0.0664493
0
VERTEX
8
1
10
6.5401373
20
0.8715974
42
0.2078502
0
VERTEX
8
1
10
6.3504734
20
0.6398519
0
VERTEX
8
1
10
6.3530893
20
1.0717382
42
0.0807323
0
VERTEX
8
1
10
7.2571750
20
1.2071383
0
SEQEND
8
1
0
TEXT
8
1
62
7
40
0.4800000
1
S
7
SCRIPTC
72
0
10
6.1290522
20
1.3604481
0
TEXT
8
1
62
7
40
0.1600000
50
288.8897358
1
SSE
7
SCRIPTC
72
0
10
7.1585321
20
1.9474829
0
LINE
8
1
62
7
10
6.3531041
20
2.1577921
11
6.3530893
21
1.9577932
0
POLYLINE
8
1
62
1
70
1
66
1
40
0.0000000
41
0.0000000
0
VERTEX
8
1
10
8.6887531
20
2.1395783
42
0.0390959
0
VERTEX
8
1
10
8.6548748
20
2.0232162
42
0.1555744
0
VERTEX
8
1
10
8.6637907
20
1.8463458
0
VERTEX
8
1
10
8.5352602
20
1.9756231
42
0.0128973
0
VERTEX
8
1
10
8.6887541
20
2.1395781
0
SEQEND
8
1
0
POLYLINE
8
1
62
1
70
1
66
1
40
0.0000000
41
0.0000000
0
VERTEX
8
1
10
8.3713045
20
1.8221292
42
-0.0390959
0
VERTEX
8
1
10
8.4876661
20
1.8560081
42
-0.1555744
0
VERTEX
8
1
10
8.6645374
20
1.8470927
0
VERTEX
8
1
10
8.5352602
20
1.9756231
42
-0.0128971
0
VERTEX
8
1
10
8.3713055
20
1.8221296
0
SEQEND
8
1
0
SOLID
8
1
62
7
10
6.8777404
20
3.6331573
11
7.7673001
21
2.7435961
12
6.7357697
22
3.2339306
13
6.7357697
23
3.2339306
0
SOLID
8
1
62
1
10
6.8777404
20
3.6331573
11
7.2769651
21
3.7751274
12
7.7673011
22
2.7435956
13
7.7673011
23
2.7435956
0
SOLID
8
1
62
7
10
6.3530884
20
4.1578093
11
8.3530865
21
4.1578102
12
6.8777394
22
3.6331568
13
6.8777394
23
3.6331568
0
SOLID
8
1
62
7
10
7.2769661
20
3.7751269
11
7.4404106
21
3.4312835
12
8.2008438
22
3.3924441
13
8.2008438
23
3.3924441
0
SOLID
8
1
62
1
10
7.2769661
20
3.7751265
11
7.6356721
21
3.9026880
12
8.2008457
22
3.3924441
13
8.2008457
23
3.3924441
0
LINE
8
1
62
7
10
7.4404273
20
3.4312775
11
8.7996140
21
2.5252817
0
SOLID
8
1
62
7
10
6.7357697
20
3.2339306
11
7.1184530
21
2.3100510
12
6.6082087
22
2.8752241
13
6.6082087
23
2.8752241
0
SOLID
8
1
62
1
10
6.7357697
20
3.2339306
11
7.0796137
21
3.0704856
12
7.1184535
22
2.3100505
13
7.1184535
23
2.3100505
0
LINE
8
1
62
7
10
8.2008696
20
3.3924501
11
8.3856392
21
3.3159006
0
LINE
8
1
62
7
10
7.7673254
20
2.7435944
11
7.9087353
21
2.6021636
0
TEXT
8
1
62
7
40
0.1600000
50
336.9452802
1
ESE
7
SCRIPTC
72
0
10
8.4844265
20
3.1784601
0
LINE
8
1
62
7
10
8.3531055
20
4.1578250
11
8.5531044
21
4.1578102
0
POLYLINE
8
1
62
7
70
1
66
1
40
0.0000000
41
0.0000000
0
VERTEX
8
1
10
10.3530893
20
3.9578304
42
0.0511902
0
VERTEX
8
1
10
10.4402428
20
3.6413028
42
0.1749480
0
VERTEX
8
1
10
10.5528889
20
3.5520391
0
VERTEX
8
1
10
10.3530941
20
0.7578305
0
SEQEND
8
1
0
POLYLINE
8
1
62
1
70
1
66
1
40
0.0000000
41
0.0000000
0
VERTEX
8
1
10
10.3530893
20
3.9578304
42
-0.0511902
0
VERTEX
8
1
10
10.2659378
20
3.6413028
42
-0.1749480
0
VERTEX
8
1
10
10.1532917
20
3.5520384
0
VERTEX
8
1
10
10.3530941
20
0.7578305
0
SEQEND
8
1
0
POLYLINE
8
1
62
1
70
1
66
1
40
0.0000000
41
0.0000000
0
VERTEX
8
1
10
10.3530893
20
4.1578302
0
VERTEX
8
1
10
10.1530895
20
4.1578302
42
-1.0000000
0
VERTEX
8
1
10
10.5530891
20
4.1578307
0
SEQEND
8
1
0
POLYLINE
8
1
62
7
70
1
66
1
40
0.0000000
41
0.0000000
0
VERTEX
8
1
10
10.5530891
20
4.1578307
0
VERTEX
8
1
10
10.1530895
20
4.1578302
42
1.0000001
0
VERTEX
8
1
10
10.5530891
20
4.1578307
0
SEQEND
8
1
0
POLYLINE
8
1
62
1
70
1
66
1
40
0.0000000
41
0.0000000
0
VERTEX
8
1
10
9.3001862
20
3.2507386
42
-0.0152981
0
VERTEX
8
1
10
9.4476233
20
3.6322567
42
-0.0664493
0
VERTEX
8
1
10
9.6385536
20
3.9664462
42
-0.2078503
0
VERTEX
8
1
10
9.8710461
20
4.1551943
0
VERTEX
8
1
10
9.4391518
20
4.1542826
42
-0.0807322
0
VERTEX
8
1
10
9.3001862
20
3.2507389
0
SEQEND
8
1
0
LINE
8
1
62
7
10
6.6082096
20
5.4404111
11
6.9251022
21
7.0428457
0
TEXT
8
1
62
7
40
0.4800000
1
N
7
SCRIPTC
72
0
10
6.1471386
20
6.4830713
0
TEXT
8
1
62
7
40
0.1600000
50
66.4978202
1
NNE
7
SCRIPTC
72
0
10
7.3228226
20
6.2699852
0
SOLID
8
1
62
7
10
6.8777404
20
4.6824794
11
7.7673016
21
5.5720391
12
7.2769670
22
4.5405087
13
7.2769670
23
4.5405087
0
SOLID
8
1
62
1
10
7.2769670
20
4.5405087
11
7.4404120
21
4.8843527
12
8.2008476
22
4.9231925
13
8.2008476
23
4.9231925
0
SOLID
8
1
62
1
10
6.8777404
20
4.6824794
11
6.7357702
21
5.0817041
12
7.7673020
22
5.5720401
13
7.7673020
23
5.5720401
0
LINE
8
1
62
7
10
7.4404225
20
4.8843479
11
8.7975922
21
5.7933631
0
LINE
8
1
62
7
10
7.0796199
20
5.2451482
11
7.9856157
21
6.6043353
0
SOLID
8
1
62
7
10
6.7357707
20
5.0817051
11
7.0796142
21
5.2451496
12
7.1184535
22
6.0055828
13
7.1184535
23
6.0055828
0
SOLID
8
1
62
1
10
6.7357712
20
5.0817051
11
6.6082096
21
5.4404111
12
7.1184535
22
6.0055842
13
7.1184535
23
6.0055842
0
LINE
8
1
62
7
10
6.3530726
20
6.1578264
11
6.3530874
21
6.3578253
0
LINE
8
1
62
7
10
7.1184473
20
6.0055904
11
7.1949968
21
6.1903596
0
LINE
8
1
62
7
10
7.7673030
20
5.5720463
11
7.9087338
21
5.7134562
0
TEXT
8
1
62
7
40
0.1600000
50
24.9919115
1
ENE
7
SCRIPTC
72
0
10
8.5762005
20
4.9613466
0
LINE
8
1
62
7
10
8.2008572
20
4.9231973
11
8.3856373
21
4.9997201
0
TEXT
8
1
62
7
40
0.2240000
50
42.7839976
1
NE
7
SCRIPTC
72
0
10
8.1049128
20
5.7792997
0
POLYLINE
8
1
62
1
70
1
66
1
40
0.0000000
41
0.0000000
0
VERTEX
8
1
10
8.6887684
20
6.1760254
42
-0.0390959
0
VERTEX
8
1
10
8.6548891
20
6.2923875
42
-0.1555744
0
VERTEX
8
1
10
8.6638050
20
6.4692583
0
VERTEX
8
1
10
8.5352745
20
6.3399811
42
-0.0128972
0
VERTEX
8
1
10
8.6887684
20
6.1760263
0
SEQEND
8
1
0
POLYLINE
8
1
62
1
70
1
66
1
40
0.0000000
41
0.0000000
0
VERTEX
8
1
10
8.3713188
20
6.4934745
42
0.0390959
0
VERTEX
8
1
10
8.4876804
20
6.4595962
42
0.1555744
0
VERTEX
8
1
10
8.6645517
20
6.4685116
0
VERTEX
8
1
10
8.5352745
20
6.3399811
42
0.0128972
0
VERTEX
8
1
10
8.3713198
20
6.4934745
0
SEQEND
8
1
0
POLYLINE
8
1
62
1
70
1
66
1
40
0.0000000
41
0.0000000
0
VERTEX
8
1
10
7.2601590
20
7.1049070
42
-0.0152981
0
VERTEX
8
1
10
6.8786407
20
7.2523446
42
-0.0664493
0
VERTEX
8
1
10
6.5444512
20
7.4432745
42
-0.2078502
0
VERTEX
8
1
10
6.3557034
20
7.6757669
0
VERTEX
8
1
10
6.3566151
20
7.2438731
42
-0.0807322
0
VERTEX
8
1
10
7.2601590
20
7.1049070
0
SEQEND
8
1
0
ENDSEC
0
EOF
