  0
SECTION
  2
HEADER
  9
$ACADVER
  1
AC1006
  9
$EXTMIN
 10
-3.306161
 20
-0.376657
  9
$EXTMAX
 10
3.235980
 20
3.344043
  9
$LTSCALE
 40
0.000394
  9
$PDMODE
 70
    35
  9
$PDSIZE
 40
0.000315
  0
ENDSEC
  0
SECTION
  2
TABLES
  0
TABLE
  2
LTYPE
 70
     9
  0
LTYPE
  2
CONTINUOUS
 70
    64
  3
Solid line
 72
    65
 73
     0
 40
0.000000
  0
LTYPE
  2
DASHED
 70
    64
  3
__ __ __ __ __ __ __ __ __ __ __ __ __ __ __
 72
    65
 73
     2
 40
0.000003
 49
0.000002
 49
-0.000001
  0
LTYPE
  2
HIDDEN
 70
    64
  3
 _ _ _ _ _ _ _ _ _ _ _ _ _ _ _ _ _ _ _ _ _ _
 72
    65
 73
     2
 40
0.000001
 49
0.000001
 49
-0.000000
  0
LTYPE
  2
CENTER
 70
    64
  3
____ _ ____ _ ____ _ ____ _ ____ _ ____ _ ____
 72
    65
 73
     4
 40
0.000008
 49
0.000005
 49
-0.000001
 49
0.000001
 49
-0.000001
  0
LTYPE
  2
PHANTOM
 70
    64
  3
_____ _ _ _____ _ _ _____ _ _ _____ _ _ ____
 72
    65
 73
     6
 40
0.000010
 49
0.000005
 49
-0.000001
 49
0.000001
 49
-0.000001
 49
0.000001
 49
-0.000001
  0
LTYPE
  2
DOT
 70
    64
  3
...............................................
 72
    65
 73
     2
 40
0.000001
 49
0.000000
 49
-0.000001
  0
LTYPE
  2
DASHDOT
 70
    64
  3
__ . __ . __ . __ . __ . __ . __ . __ . __ . __
 72
    65
 73
     4
 40
0.000004
 49
0.000002
 49
-0.000001
 49
0.000000
 49
-0.000001
  0
LTYPE
  2
BORDER
 70
    64
  3
__ __ . __ __ . __ __ . __ __ . __ __ . __ __
 72
    65
 73
     6
 40
0.000007
 49
0.000002
 49
-0.000001
 49
0.000002
 49
-0.000001
 49
0.000000
 49
-0.000001
  0
LTYPE
  2
DIVIDE
 70
    64
  3
__ . . __ . . __ . . __ . . __ . . __ . . __
 72
    65
 73
     6
 40
0.000005
 49
0.000002
 49
-0.000001
 49
0.000000
 49
-0.000001
 49
0.000000
 49
-0.000001
  0
LTYPE
  2
DOTDOT
 70
    64
  3
 . .  . .  . .  . .  . .  . . 
 72
    65
 73
     5
 40
0.000002
 49
-0.000001
 49
0.000000
 49
-0.000001
 49
0.000000
 49
-0.000001
  0
ENDTAB
  0
TABLE
  2
STYLE
 70
     0
  0
ENDTAB
  0
TABLE
  2
LAYER
 70
     3
  0
LAYER
  2
FOREGROUND
 70
    64
 62
     7
  6
CONTINUOUS
  0
LAYER
  2
BACKGROUND
 70
    65
 62
    -7
  6
CONTINUOUS
  0
LAYER
  2
DESSIN
 70
    64
 62
     7
  6
CONTINUOUS
  0
ENDTAB
  0
ENDSEC
  0
SECTION
  2
ENTITIES
  0
POLYLINE
  8
DESSIN
 62
    39
  6
CONTINUOUS
 66
     1
 40
0.003000
 41
0.003000
  0
VERTEX
  8
DESSIN
 62
    39
  6
CONTINUOUS
 10
-1.762996
 20
0.079319
  0
VERTEX
  8
DESSIN
 62
    39
  6
CONTINUOUS
 10
-1.479315
 20
0.675031
  0
VERTEX
  8
DESSIN
 62
    39
  6
CONTINUOUS
 10
-1.181461
 20
0.930346
  0
VERTEX
  8
DESSIN
 62
    39
  6
CONTINUOUS
 10
-0.926161
 20
0.887787
  0
VERTEX
  8
DESSIN
 62
    39
  6
CONTINUOUS
 10
-0.770134
 20
0.561559
  0
VERTEX
  8
DESSIN
 62
    39
  6
CONTINUOUS
 10
-0.841051
 20
0.334630
  0
VERTEX
  8
DESSIN
 62
    39
  6
CONTINUOUS
 10
-1.110539
 20
0.050949
  0
VERTEX
  8
DESSIN
 62
    39
  6
CONTINUOUS
 10
-1.011059
 20
-0.076839
  0
SEQEND
  8
0
  0
POLYLINE
  8
DESSIN
 62
    39
  6
CONTINUOUS
 66
     1
 40
0.003000
 41
0.003000
  0
VERTEX
  8
DESSIN
 62
    39
  6
CONTINUOUS
 10
0.421295
 20
-0.119252
  0
VERTEX
  8
DESSIN
 62
    39
  6
CONTINUOUS
 10
0.336189
 20
0.079319
  0
VERTEX
  8
DESSIN
 62
    39
  6
CONTINUOUS
 10
0.506394
 20
0.348811
  0
VERTEX
  8
DESSIN
 62
    39
  6
CONTINUOUS
 10
0.690787
 20
0.490654
  0
VERTEX
  8
DESSIN
 62
    39
  6
CONTINUOUS
 10
1.116291
 20
0.362996
  0
VERTEX
  8
DESSIN
 62
    39
  6
CONTINUOUS
 10
1.144528
 20
0.079386
  0
SEQEND
  8
0
  0
POLYLINE
  8
DESSIN
 62
    39
  6
CONTINUOUS
 66
     1
 40
0.003000
 41
0.003000
  0
VERTEX
  8
DESSIN
 62
    39
  6
CONTINUOUS
 10
2.066606
 20
0.845236
  0
VERTEX
  8
DESSIN
 62
    39
  6
CONTINUOUS
 10
1.754551
 20
1.086362
  0
VERTEX
  8
DESSIN
 62
    39
  6
CONTINUOUS
 10
1.825469
 20
1.157280
  0
VERTEX
  8
DESSIN
 62
    39
  6
CONTINUOUS
 10
1.683650
 20
1.256563
  0
VERTEX
  8
DESSIN
 62
    39
  6
CONTINUOUS
 10
1.598539
 20
1.440953
  0
VERTEX
  8
DESSIN
 62
    39
  6
CONTINUOUS
 10
1.641091
 20
1.738807
  0
SEQEND
  8
0
  0
POLYLINE
  8
DESSIN
 62
    39
  6
CONTINUOUS
 66
     1
 40
0.003000
 41
0.003000
  0
VERTEX
  8
DESSIN
 62
    39
  6
CONTINUOUS
 10
2.279358
 20
1.639520
  0
VERTEX
  8
DESSIN
 62
    39
  6
CONTINUOUS
 10
2.080783
 20
1.398402
  0
VERTEX
  8
DESSIN
 62
    39
  6
CONTINUOUS
 10
2.137508
 20
1.313299
  0
VERTEX
  8
DESSIN
 62
    39
  6
CONTINUOUS
 10
2.378642
 20
1.313299
  0
VERTEX
  8
DESSIN
 62
    39
  6
CONTINUOUS
 10
2.662307
 20
1.370031
  0
SEQEND
  8
0
  0
POLYLINE
  8
DESSIN
 62
    39
  6
CONTINUOUS
 66
     1
 40
0.003000
 41
0.003000
  0
VERTEX
  8
DESSIN
 62
    39
  6
CONTINUOUS
 10
2.804154
 20
1.313299
  0
VERTEX
  8
DESSIN
 62
    39
  6
CONTINUOUS
 10
3.016906
 20
1.256563
  0
VERTEX
  8
DESSIN
 62
    39
  6
CONTINUOUS
 10
3.201287
 20
1.327480
  0
SEQEND
  8
0
  0
POLYLINE
  8
DESSIN
 62
    39
  6
CONTINUOUS
 66
     1
 40
0.003000
 41
0.003000
  0
VERTEX
  8
DESSIN
 62
    39
  6
CONTINUOUS
 10
2.321913
 20
1.653705
  0
VERTEX
  8
DESSIN
 62
    39
  6
CONTINUOUS
 10
2.633941
 20
1.880638
  0
VERTEX
  8
DESSIN
 62
    39
  6
CONTINUOUS
 10
2.875071
 20
2.150130
  0
VERTEX
  8
DESSIN
 62
    39
  6
CONTINUOUS
 10
3.016906
 20
2.277787
  0
SEQEND
  8
0
  0
POLYLINE
  8
DESSIN
 62
    39
  6
CONTINUOUS
 66
     1
 40
0.003000
 41
0.003000
 70
     1
  0
VERTEX
  8
DESSIN
 62
    39
  6
CONTINUOUS
 10
2.222957
 20
1.837622
  0
VERTEX
  8
DESSIN
 62
    39
  6
CONTINUOUS
 10
2.081122
 20
1.738335
  0
VERTEX
  8
DESSIN
 62
    39
  6
CONTINUOUS
 10
2.010205
 20
1.823445
  0
VERTEX
  8
DESSIN
 62
    39
  6
CONTINUOUS
 10
2.152039
 20
1.894350
  0
SEQEND
  8
0
  0
POLYLINE
  8
DESSIN
 62
    39
  6
CONTINUOUS
 66
     1
 40
0.003000
 41
0.003000
  0
VERTEX
  8
DESSIN
 62
    39
  6
CONTINUOUS
 10
-2.737315
 20
3.299850
  0
VERTEX
  8
DESSIN
 62
    39
  6
CONTINUOUS
 10
-2.935878
 20
2.860154
  0
VERTEX
  8
DESSIN
 62
    39
  6
CONTINUOUS
 10
-3.020988
 20
2.221906
  0
VERTEX
  8
DESSIN
 62
    39
  6
CONTINUOUS
 10
-2.992618
 20
1.810567
  0
VERTEX
  8
DESSIN
 62
    39
  6
CONTINUOUS
 10
-2.836591
 20
1.470157
  0
VERTEX
  8
DESSIN
 62
    39
  6
CONTINUOUS
 10
-2.737315
 20
1.385051
  0
VERTEX
  8
DESSIN
 62
    39
  6
CONTINUOUS
 10
-2.638020
 20
1.186488
  0
VERTEX
  8
DESSIN
 62
    39
  6
CONTINUOUS
 10
-2.496189
 20
1.073024
  0
VERTEX
  8
DESSIN
 62
    39
  6
CONTINUOUS
 10
-2.141602
 20
1.002094
  0
VERTEX
  8
DESSIN
 62
    39
  6
CONTINUOUS
 10
-1.602602
 20
1.101382
  0
VERTEX
  8
DESSIN
 62
    39
  6
CONTINUOUS
 10
-1.177102
 20
1.200661
  0
VERTEX
  8
DESSIN
 62
    39
  6
CONTINUOUS
 10
-1.106193
 20
1.285776
  0
VERTEX
  8
DESSIN
 62
    39
  6
CONTINUOUS
 10
-0.907618
 20
1.243217
  0
VERTEX
  8
DESSIN
 62
    39
  6
CONTINUOUS
 10
-0.865063
 20
1.314126
  0
VERTEX
  8
DESSIN
 62
    39
  6
CONTINUOUS
 10
-0.737417
 20
1.285776
  0
VERTEX
  8
DESSIN
 62
    39
  6
CONTINUOUS
 10
-0.609764
 20
1.314126
  0
VERTEX
  8
DESSIN
 62
    39
  6
CONTINUOUS
 10
-0.510472
 20
1.299949
  0
VERTEX
  8
DESSIN
 62
    39
  6
CONTINUOUS
 10
-0.340268
 20
1.356689
  0
VERTEX
  8
DESSIN
 62
    39
  6
CONTINUOUS
 10
-0.184248
 20
1.314126
  0
VERTEX
  8
DESSIN
 62
    39
  6
CONTINUOUS
 10
0.000142
 20
1.314126
  0
VERTEX
  8
DESSIN
 62
    39
  6
CONTINUOUS
 10
0.156161
 20
1.285776
  0
VERTEX
  8
DESSIN
 62
    39
  6
CONTINUOUS
 10
0.354732
 20
1.328319
  0
VERTEX
  8
DESSIN
 62
    39
  6
CONTINUOUS
 10
0.638390
 20
1.271583
  0
VERTEX
  8
DESSIN
 62
    39
  6
CONTINUOUS
 10
0.808606
 20
1.229031
  0
VERTEX
  8
DESSIN
 62
    39
  6
CONTINUOUS
 10
0.893709
 20
1.399240
  0
VERTEX
  8
DESSIN
 62
    39
  6
CONTINUOUS
 10
1.078102
 20
1.413417
  0
VERTEX
  8
DESSIN
 62
    39
  6
CONTINUOUS
 10
1.163197
 20
1.484343
  0
VERTEX
  8
DESSIN
 62
    39
  6
CONTINUOUS
 10
1.305031
 20
1.484343
  0
VERTEX
  8
DESSIN
 62
    39
  6
CONTINUOUS
 10
1.347587
 20
1.611992
  0
VERTEX
  8
DESSIN
 62
    39
  6
CONTINUOUS
 10
1.446878
 20
1.597815
  0
VERTEX
  8
DESSIN
 62
    39
  6
CONTINUOUS
 10
1.503606
 20
1.697098
  0
VERTEX
  8
DESSIN
 62
    39
  6
CONTINUOUS
 10
1.602886
 20
1.725465
  0
VERTEX
  8
DESSIN
 62
    39
  6
CONTINUOUS
 10
1.702181
 20
1.838929
  0
VERTEX
  8
DESSIN
 62
    39
  6
CONTINUOUS
 10
1.801465
 20
1.853106
  0
VERTEX
  8
DESSIN
 62
    39
  6
CONTINUOUS
 10
1.886567
 20
1.994953
  0
VERTEX
  8
DESSIN
 62
    39
  6
CONTINUOUS
 10
1.957480
 20
2.037508
  0
VERTEX
  8
DESSIN
 62
    39
  6
CONTINUOUS
 10
2.156055
 20
2.009138
  0
VERTEX
  8
DESSIN
 62
    39
  6
CONTINUOUS
 10
2.354630
 20
2.065866
  0
VERTEX
  8
DESSIN
 62
    39
  6
CONTINUOUS
 10
2.539020
 20
2.150976
  0
VERTEX
  8
DESSIN
 62
    39
  6
CONTINUOUS
 10
2.709217
 20
2.321177
  0
VERTEX
  8
DESSIN
 62
    39
  6
CONTINUOUS
 10
2.822697
 20
2.491382
  0
VERTEX
  8
DESSIN
 62
    39
  6
CONTINUOUS
 10
3.063807
 20
2.420465
  0
VERTEX
  8
DESSIN
 62
    39
  6
CONTINUOUS
 10
2.978705
 20
2.292803
  0
VERTEX
  8
DESSIN
 62
    39
  6
CONTINUOUS
 10
2.978705
 20
2.094240
  0
VERTEX
  8
DESSIN
 62
    39
  6
CONTINUOUS
 10
2.836870
 20
2.094240
  0
VERTEX
  8
DESSIN
 62
    39
  6
CONTINUOUS
 10
2.765953
 20
1.881488
  0
VERTEX
  8
DESSIN
 62
    39
  6
CONTINUOUS
 10
2.609929
 20
1.881488
  0
VERTEX
  8
DESSIN
 62
    39
  6
CONTINUOUS
 10
2.567382
 20
1.654555
  0
VERTEX
  8
DESSIN
 62
    39
  6
CONTINUOUS
 10
2.297894
 20
1.654555
  0
VERTEX
  8
DESSIN
 62
    39
  6
CONTINUOUS
 10
2.212791
 20
1.611992
  0
VERTEX
  8
DESSIN
 62
    39
  6
CONTINUOUS
 10
2.212791
 20
1.484343
  0
VERTEX
  8
DESSIN
 62
    39
  6
CONTINUOUS
 10
2.354630
 20
1.342500
  0
VERTEX
  8
DESSIN
 62
    39
  6
CONTINUOUS
 10
2.453917
 20
1.427606
  0
VERTEX
  8
DESSIN
 62
    39
  6
CONTINUOUS
 10
2.624114
 20
1.370866
  0
VERTEX
  8
DESSIN
 62
    39
  6
CONTINUOUS
 10
2.751768
 20
1.314126
  0
VERTEX
  8
DESSIN
 62
    39
  6
CONTINUOUS
 10
2.950335
 20
1.427606
  0
VERTEX
  8
DESSIN
 62
    39
  6
CONTINUOUS
 10
3.148913
 20
1.314126
  0
VERTEX
  8
DESSIN
 62
    39
  6
CONTINUOUS
 10
3.234016
 20
1.299949
  0
VERTEX
  8
DESSIN
 62
    39
  6
CONTINUOUS
 10
3.177280
 20
1.129752
  0
VERTEX
  8
DESSIN
 62
    39
  6
CONTINUOUS
 10
3.077992
 20
1.073024
  0
VERTEX
  8
DESSIN
 62
    39
  6
CONTINUOUS
 10
2.865252
 20
1.044654
  0
VERTEX
  8
DESSIN
 62
    39
  6
CONTINUOUS
 10
2.723406
 20
0.945366
  0
VERTEX
  8
DESSIN
 62
    39
  6
CONTINUOUS
 10
2.496461
 20
0.902815
  0
VERTEX
  8
DESSIN
 62
    39
  6
CONTINUOUS
 10
2.354630
 20
0.902815
  0
VERTEX
  8
DESSIN
 62
    39
  6
CONTINUOUS
 10
2.226969
 20
0.945366
  0
VERTEX
  8
DESSIN
 62
    39
  6
CONTINUOUS
 10
2.099327
 20
0.874441
  0
VERTEX
  8
DESSIN
 62
    39
  6
CONTINUOUS
 10
2.028406
 20
0.846071
  0
VERTEX
  8
DESSIN
 62
    39
  6
CONTINUOUS
 10
1.985854
 20
0.732606
  0
VERTEX
  8
DESSIN
 62
    39
  6
CONTINUOUS
 10
1.844016
 20
0.647504
  0
VERTEX
  8
DESSIN
 62
    39
  6
CONTINUOUS
 10
1.773102
 20
0.477299
  0
VERTEX
  8
DESSIN
 62
    39
  6
CONTINUOUS
 10
1.659634
 20
0.434744
  0
VERTEX
  8
DESSIN
 62
    39
  6
CONTINUOUS
 10
1.517795
 20
0.392201
  0
VERTEX
  8
DESSIN
 62
    39
  6
CONTINUOUS
 10
1.461055
 20
0.307098
  0
VERTEX
  8
DESSIN
 62
    39
  6
CONTINUOUS
 10
1.262480
 20
0.165264
  0
VERTEX
  8
DESSIN
 62
    39
  6
CONTINUOUS
 10
1.092276
 20
0.080150
  0
VERTEX
  8
DESSIN
 62
    39
  6
CONTINUOUS
 10
1.092276
 20
0.009244
  0
VERTEX
  8
DESSIN
 62
    39
  6
CONTINUOUS
 10
1.234114
 20
-0.061681
  0
VERTEX
  8
DESSIN
 62
    39
  6
CONTINUOUS
 10
1.347587
 20
-0.104232
  0
VERTEX
  8
DESSIN
 62
    39
  6
CONTINUOUS
 10
1.446878
 20
-0.203512
  0
SEQEND
  8
0
  0
POLYLINE
  8
DESSIN
 62
    39
  6
CONTINUOUS
 66
     1
 40
0.003000
 41
0.003000
  0
VERTEX
  8
DESSIN
 62
    39
  6
CONTINUOUS
 10
1.319213
 20
-0.203512
  0
VERTEX
  8
DESSIN
 62
    39
  6
CONTINUOUS
 10
1.333402
 20
-0.373720
  0
VERTEX
  8
DESSIN
 62
    39
  6
CONTINUOUS
 10
1.205740
 20
-0.288618
  0
VERTEX
  8
DESSIN
 62
    39
  6
CONTINUOUS
 10
1.063917
 20
-0.217697
  0
VERTEX
  8
DESSIN
 62
    39
  6
CONTINUOUS
 10
1.063917
 20
-0.331169
  0
VERTEX
  8
DESSIN
 62
    39
  6
CONTINUOUS
 10
0.922087
 20
-0.274433
  0
VERTEX
  8
DESSIN
 62
    39
  6
CONTINUOUS
 10
0.851157
 20
-0.331169
  0
VERTEX
  8
DESSIN
 62
    39
  6
CONTINUOUS
 10
0.794429
 20
-0.217697
  0
VERTEX
  8
DESSIN
 62
    39
  6
CONTINUOUS
 10
0.638390
 20
-0.246063
  0
VERTEX
  8
DESSIN
 62
    39
  6
CONTINUOUS
 10
0.454016
 20
-0.217697
  0
VERTEX
  8
DESSIN
 62
    39
  6
CONTINUOUS
 10
0.368913
 20
-0.146780
  0
VERTEX
  8
DESSIN
 62
    39
  6
CONTINUOUS
 10
-0.042413
 20
-0.203512
  0
VERTEX
  8
DESSIN
 62
    39
  6
CONTINUOUS
 10
-0.425370
 20
-0.246063
  0
VERTEX
  8
DESSIN
 62
    39
  6
CONTINUOUS
 10
-0.822516
 20
-0.217697
  0
VERTEX
  8
DESSIN
 62
    39
  6
CONTINUOUS
 10
-1.063630
 20
-0.075862
  0
VERTEX
  8
DESSIN
 62
    39
  6
CONTINUOUS
 10
-1.049457
 20
-0.175146
  0
VERTEX
  8
DESSIN
 62
    39
  6
CONTINUOUS
 10
-1.148740
 20
-0.132602
  0
VERTEX
  8
DESSIN
 62
    39
  6
CONTINUOUS
 10
-1.106193
 20
-0.231882
  0
VERTEX
  8
DESSIN
 62
    39
  6
CONTINUOUS
 10
-1.177102
 20
-0.160961
  0
VERTEX
  8
DESSIN
 62
    39
  6
CONTINUOUS
 10
-1.233843
 20
-0.288618
  0
VERTEX
  8
DESSIN
 62
    39
  6
CONTINUOUS
 10
-1.333126
 20
-0.189331
  0
VERTEX
  8
DESSIN
 62
    39
  6
CONTINUOUS
 10
-1.474961
 20
-0.132602
  0
VERTEX
  8
DESSIN
 62
    39
  6
CONTINUOUS
 10
-1.716083
 20
-0.132602
  0
VERTEX
  8
DESSIN
 62
    39
  6
CONTINUOUS
 10
-1.801193
 20
0.037598
  0
VERTEX
  8
DESSIN
 62
    39
  6
CONTINUOUS
 10
-1.928850
 20
0.051791
  0
VERTEX
  8
DESSIN
 62
    39
  6
CONTINUOUS
 10
-2.283433
 20
0.051791
  0
VERTEX
  8
DESSIN
 62
    39
  6
CONTINUOUS
 10
-2.666394
 20
0.108528
  0
VERTEX
  8
DESSIN
 62
    39
  6
CONTINUOUS
 10
-2.964252
 20
0.278720
  0
VERTEX
  8
DESSIN
 62
    39
  6
CONTINUOUS
 10
-3.106091
 20
0.519846
  0
VERTEX
  8
DESSIN
 62
    39
  6
CONTINUOUS
 10
-3.247917
 20
0.789339
  0
VERTEX
  8
DESSIN
 62
    39
  6
CONTINUOUS
 10
-3.304661
 20
1.200661
  0
VERTEX
  8
DESSIN
 62
    39
  6
CONTINUOUS
 10
-3.304661
 20
1.569441
  0
VERTEX
  8
DESSIN
 62
    39
  6
CONTINUOUS
 10
-3.304661
 20
2.179343
  0
VERTEX
  8
DESSIN
 62
    39
  6
CONTINUOUS
 10
-3.191181
 20
2.576480
  0
VERTEX
  8
DESSIN
 62
    39
  6
CONTINUOUS
 10
-3.049346
 20
3.044543
  0
VERTEX
  8
DESSIN
 62
    39
  6
CONTINUOUS
 10
-2.935878
 20
3.257299
  0
VERTEX
  8
DESSIN
 62
    39
  6
CONTINUOUS
 10
-2.822413
 20
3.342402
  0
VERTEX
  8
DESSIN
 62
    39
  6
CONTINUOUS
 10
-2.723126
 20
3.314035
  0
SEQEND
  8
0
  0
POLYLINE
  8
DESSIN
 62
    39
  6
CONTINUOUS
 66
     1
 40
0.003000
 41
0.003000
  0
VERTEX
  8
DESSIN
 62
    39
  6
CONTINUOUS
 10
1.312236
 20
-0.226130
  0
VERTEX
  8
DESSIN
 62
    39
  6
CONTINUOUS
 10
1.457626
 20
-0.240657
  0
SEQEND
  8
0
  0
ENDSEC
  0
EOF
