  0
SECTION
  2
HEADER
  9
$ACADVER
  1
AC1006
  9
$EXTMIN
 10
-0.874732
 20
-2.029197
  9
$EXTMAX
 10
2.705949
 20
0.620776
  9
$LTSCALE
 40
0.000394
  9
$PDMODE
 70
    35
  9
$PDSIZE
 40
0.000315
  0
ENDSEC
  0
SECTION
  2
TABLES
  0
TABLE
  2
LTYPE
 70
     9
  0
LTYPE
  2
CONTINUOUS
 70
    64
  3
Solid line
 72
    65
 73
     0
 40
0.000000
  0
LTYPE
  2
DASHED
 70
    64
  3
__ __ __ __ __ __ __ __ __ __ __ __ __ __ __
 72
    65
 73
     2
 40
0.000003
 49
0.000002
 49
-0.000001
  0
LTYPE
  2
HIDDEN
 70
    64
  3
 _ _ _ _ _ _ _ _ _ _ _ _ _ _ _ _ _ _ _ _ _ _
 72
    65
 73
     2
 40
0.000001
 49
0.000001
 49
-0.000000
  0
LTYPE
  2
CENTER
 70
    64
  3
____ _ ____ _ ____ _ ____ _ ____ _ ____ _ ____
 72
    65
 73
     4
 40
0.000008
 49
0.000005
 49
-0.000001
 49
0.000001
 49
-0.000001
  0
LTYPE
  2
PHANTOM
 70
    64
  3
_____ _ _ _____ _ _ _____ _ _ _____ _ _ ____
 72
    65
 73
     6
 40
0.000010
 49
0.000005
 49
-0.000001
 49
0.000001
 49
-0.000001
 49
0.000001
 49
-0.000001
  0
LTYPE
  2
DOT
 70
    64
  3
...............................................
 72
    65
 73
     2
 40
0.000001
 49
0.000000
 49
-0.000001
  0
LTYPE
  2
DASHDOT
 70
    64
  3
__ . __ . __ . __ . __ . __ . __ . __ . __ . __
 72
    65
 73
     4
 40
0.000004
 49
0.000002
 49
-0.000001
 49
0.000000
 49
-0.000001
  0
LTYPE
  2
BORDER
 70
    64
  3
__ __ . __ __ . __ __ . __ __ . __ __ . __ __
 72
    65
 73
     6
 40
0.000007
 49
0.000002
 49
-0.000001
 49
0.000002
 49
-0.000001
 49
0.000000
 49
-0.000001
  0
LTYPE
  2
DIVIDE
 70
    64
  3
__ . . __ . . __ . . __ . . __ . . __ . . __
 72
    65
 73
     6
 40
0.000005
 49
0.000002
 49
-0.000001
 49
0.000000
 49
-0.000001
 49
0.000000
 49
-0.000001
  0
LTYPE
  2
DOTDOT
 70
    64
  3
 . .  . .  . .  . .  . .  . . 
 72
    65
 73
     5
 40
0.000002
 49
-0.000001
 49
0.000000
 49
-0.000001
 49
0.000000
 49
-0.000001
  0
ENDTAB
  0
TABLE
  2
STYLE
 70
     0
  0
ENDTAB
  0
TABLE
  2
LAYER
 70
     3
  0
LAYER
  2
FOREGROUND
 70
    64
 62
     7
  6
CONTINUOUS
  0
LAYER
  2
BACKGROUND
 70
    65
 62
    -7
  6
CONTINUOUS
  0
LAYER
  2
7
 70
    64
 62
     7
  6
CONTINUOUS
  0
ENDTAB
  0
ENDSEC
  0
SECTION
  2
ENTITIES
  0
POLYLINE
  8
7
 62
     7
  6
CONTINUOUS
 66
     1
 40
0.003000
 41
0.003000
 70
     1
  0
VERTEX
  8
7
 62
     7
  6
CONTINUOUS
 10
-0.775000
 20
0.088933
  0
VERTEX
  8
7
 62
     7
  6
CONTINUOUS
 10
-0.775831
 20
0.094000
  0
VERTEX
  8
7
 62
     7
  6
CONTINUOUS
 10
-0.775831
 20
0.099063
  0
VERTEX
  8
7
 62
     7
  6
CONTINUOUS
 10
-0.776665
 20
0.102465
  0
VERTEX
  8
7
 62
     7
  6
CONTINUOUS
 10
-0.776665
 20
0.103331
  0
VERTEX
  8
7
 62
     7
  6
CONTINUOUS
 10
-0.775000
 20
0.101630
  0
VERTEX
  8
7
 62
     7
  6
CONTINUOUS
 10
-0.771598
 20
0.098232
  0
VERTEX
  8
7
 62
     7
  6
CONTINUOUS
 10
-0.767366
 20
0.094000
  0
VERTEX
  8
7
 62
     7
  6
CONTINUOUS
 10
-0.761433
 20
0.088063
  0
SEQEND
  8
0
  0
POLYLINE
  8
7
 62
     7
  6
CONTINUOUS
 66
     1
 40
0.003000
 41
0.003000
 70
     1
  0
VERTEX
  8
7
 62
     7
  6
CONTINUOUS
 10
-0.731799
 20
0.088063
  0
VERTEX
  8
7
 62
     7
  6
CONTINUOUS
 10
-0.726697
 20
0.094000
  0
VERTEX
  8
7
 62
     7
  6
CONTINUOUS
 10
-0.722465
 20
0.098232
  0
VERTEX
  8
7
 62
     7
  6
CONTINUOUS
 10
-0.719933
 20
0.101630
  0
VERTEX
  8
7
 62
     7
  6
CONTINUOUS
 10
-0.719098
 20
0.103331
  0
VERTEX
  8
7
 62
     7
  6
CONTINUOUS
 10
-0.717398
 20
0.101630
  0
VERTEX
  8
7
 62
     7
  6
CONTINUOUS
 10
-0.712299
 20
0.098232
  0
VERTEX
  8
7
 62
     7
  6
CONTINUOUS
 10
-0.705531
 20
0.094000
  0
VERTEX
  8
7
 62
     7
  6
CONTINUOUS
 10
-0.697898
 20
0.088063
  0
SEQEND
  8
0
  0
POLYLINE
  8
7
 62
     7
  6
CONTINUOUS
 66
     1
 40
0.003000
 41
0.003000
 70
     1
  0
VERTEX
  8
7
 62
     7
  6
CONTINUOUS
 10
-0.873232
 20
0.354031
  0
VERTEX
  8
7
 62
     7
  6
CONTINUOUS
 10
-0.873232
 20
0.406531
  0
VERTEX
  8
7
 62
     7
  6
CONTINUOUS
 10
-0.820732
 20
0.406531
  0
VERTEX
  8
7
 62
     7
  6
CONTINUOUS
 10
-0.705531
 20
0.410764
  0
VERTEX
  8
7
 62
     7
  6
CONTINUOUS
 10
-0.626764
 20
0.420098
  0
VERTEX
  8
7
 62
     7
  6
CONTINUOUS
 10
-0.591197
 20
0.437866
  0
VERTEX
  8
7
 62
     7
  6
CONTINUOUS
 10
-0.582732
 20
0.464130
  0
VERTEX
  8
7
 62
     7
  6
CONTINUOUS
 10
-0.595433
 20
0.521732
  0
VERTEX
  8
7
 62
     7
  6
CONTINUOUS
 10
-0.489531
 20
0.579331
  0
VERTEX
  8
7
 62
     7
  6
CONTINUOUS
 10
-0.295598
 20
0.597130
  0
VERTEX
  8
7
 62
     7
  6
CONTINUOUS
 10
-0.255764
 20
0.619130
  0
VERTEX
  8
7
 62
     7
  6
CONTINUOUS
 10
0.105866
 20
0.477697
  0
VERTEX
  8
7
 62
     7
  6
CONTINUOUS
 10
0.171933
 20
0.306598
  0
VERTEX
  8
7
 62
     7
  6
CONTINUOUS
 10
0.176165
 20
0.304063
  0
VERTEX
  8
7
 62
     7
  6
CONTINUOUS
 10
0.187165
 20
0.297264
  0
VERTEX
  8
7
 62
     7
  6
CONTINUOUS
 10
0.202398
 20
0.287965
  0
VERTEX
  8
7
 62
     7
  6
CONTINUOUS
 10
0.221063
 20
0.277799
  0
VERTEX
  8
7
 62
     7
  6
CONTINUOUS
 10
0.238831
 20
0.266799
  0
VERTEX
  8
7
 62
     7
  6
CONTINUOUS
 10
0.254098
 20
0.257465
  0
VERTEX
  8
7
 62
     7
  6
CONTINUOUS
 10
0.265098
 20
0.251531
  0
VERTEX
  8
7
 62
     7
  6
CONTINUOUS
 10
0.269331
 20
0.249000
  0
VERTEX
  8
7
 62
     7
  6
CONTINUOUS
 10
0.271866
 20
0.247299
  0
VERTEX
  8
7
 62
     7
  6
CONTINUOUS
 10
0.279496
 20
0.243933
  0
VERTEX
  8
7
 62
     7
  6
CONTINUOUS
 10
0.291366
 20
0.238831
  0
VERTEX
  8
7
 62
     7
  6
CONTINUOUS
 10
0.307433
 20
0.232063
  0
VERTEX
  8
7
 62
     7
  6
CONTINUOUS
 10
0.325232
 20
0.223598
  0
VERTEX
  8
7
 62
     7
  6
CONTINUOUS
 10
0.345563
 20
0.215130
  0
VERTEX
  8
7
 62
     7
  6
CONTINUOUS
 10
0.367563
 20
0.204965
  0
VERTEX
  8
7
 62
     7
  6
CONTINUOUS
 10
0.390465
 20
0.195630
  0
VERTEX
  8
7
 62
     7
  6
CONTINUOUS
 10
0.413331
 20
0.185465
  0
VERTEX
  8
7
 62
     7
  6
CONTINUOUS
 10
0.435331
 20
0.176165
  0
VERTEX
  8
7
 62
     7
  6
CONTINUOUS
 10
0.455665
 20
0.166831
  0
VERTEX
  8
7
 62
     7
  6
CONTINUOUS
 10
0.473465
 20
0.159232
  0
VERTEX
  8
7
 62
     7
  6
CONTINUOUS
 10
0.489531
 20
0.152433
  0
VERTEX
  8
7
 62
     7
  6
CONTINUOUS
 10
0.501398
 20
0.147366
  0
VERTEX
  8
7
 62
     7
  6
CONTINUOUS
 10
0.509031
 20
0.143965
  0
VERTEX
  8
7
 62
     7
  6
CONTINUOUS
 10
0.511563
 20
0.143130
  0
VERTEX
  8
7
 62
     7
  6
CONTINUOUS
 10
0.514098
 20
0.142264
  0
VERTEX
  8
7
 62
     7
  6
CONTINUOUS
 10
0.520031
 20
0.139732
  0
VERTEX
  8
7
 62
     7
  6
CONTINUOUS
 10
0.529366
 20
0.135500
  0
VERTEX
  8
7
 62
     7
  6
CONTINUOUS
 10
0.542063
 20
0.130433
  0
VERTEX
  8
7
 62
     7
  6
CONTINUOUS
 10
0.556465
 20
0.124500
  0
VERTEX
  8
7
 62
     7
  6
CONTINUOUS
 10
0.572563
 20
0.117697
  0
VERTEX
  8
7
 62
     7
  6
CONTINUOUS
 10
0.590331
 20
0.110098
  0
VERTEX
  8
7
 62
     7
  6
CONTINUOUS
 10
0.608965
 20
0.102465
  0
VERTEX
  8
7
 62
     7
  6
CONTINUOUS
 10
0.626764
 20
0.094831
  0
VERTEX
  8
7
 62
     7
  6
CONTINUOUS
 10
0.644563
 20
0.088063
  0
VERTEX
  8
7
 62
     7
  6
CONTINUOUS
 10
0.660630
 20
0.081299
  0
VERTEX
  8
7
 62
     7
  6
CONTINUOUS
 10
0.675031
 20
0.075366
  0
VERTEX
  8
7
 62
     7
  6
CONTINUOUS
 10
0.687732
 20
0.070299
  0
VERTEX
  8
7
 62
     7
  6
CONTINUOUS
 10
0.697063
 20
0.066898
  0
VERTEX
  8
7
 62
     7
  6
CONTINUOUS
 10
0.703000
 20
0.064366
  0
VERTEX
  8
7
 62
     7
  6
CONTINUOUS
 10
0.705531
 20
0.063500
  0
VERTEX
  8
7
 62
     7
  6
CONTINUOUS
 10
0.707232
 20
0.062665
  0
VERTEX
  8
7
 62
     7
  6
CONTINUOUS
 10
0.712299
 20
0.060965
  0
VERTEX
  8
7
 62
     7
  6
CONTINUOUS
 10
0.720764
 20
0.057563
  0
VERTEX
  8
7
 62
     7
  6
CONTINUOUS
 10
0.730933
 20
0.053331
  0
VERTEX
  8
7
 62
     7
  6
CONTINUOUS
 10
0.743630
 20
0.048264
  0
VERTEX
  8
7
 62
     7
  6
CONTINUOUS
 10
0.757197
 20
0.043165
  0
VERTEX
  8
7
 62
     7
  6
CONTINUOUS
 10
0.772433
 20
0.038098
  0
VERTEX
  8
7
 62
     7
  6
CONTINUOUS
 10
0.787697
 20
0.032165
  0
VERTEX
  8
7
 62
     7
  6
CONTINUOUS
 10
0.802098
 20
0.026232
  0
VERTEX
  8
7
 62
     7
  6
CONTINUOUS
 10
0.817331
 20
0.020299
  0
VERTEX
  8
7
 62
     7
  6
CONTINUOUS
 10
0.830898
 20
0.015232
  0
VERTEX
  8
7
 62
     7
  6
CONTINUOUS
 10
0.843598
 20
0.011000
  0
VERTEX
  8
7
 62
     7
  6
CONTINUOUS
 10
0.853764
 20
0.006764
  0
VERTEX
  8
7
 62
     7
  6
CONTINUOUS
 10
0.862232
 20
0.004232
  0
VERTEX
  8
7
 62
     7
  6
CONTINUOUS
 10
0.867299
 20
0.002531
  0
VERTEX
  8
7
 62
     7
  6
CONTINUOUS
 10
0.869000
 20
0.001665
  0
VERTEX
  8
7
 62
     7
  6
CONTINUOUS
 10
0.871531
 20
0.000831
  0
VERTEX
  8
7
 62
     7
  6
CONTINUOUS
 10
0.878331
 20
0.000000
  0
VERTEX
  8
7
 62
     7
  6
CONTINUOUS
 10
0.889331
 20
-0.002531
  0
VERTEX
  8
7
 62
     7
  6
CONTINUOUS
 10
0.902898
 20
-0.005063
  0
VERTEX
  8
7
 62
     7
  6
CONTINUOUS
 10
0.918965
 20
-0.008465
  0
VERTEX
  8
7
 62
     7
  6
CONTINUOUS
 10
0.937598
 20
-0.011831
  0
VERTEX
  8
7
 62
     7
  6
CONTINUOUS
 10
0.957098
 20
-0.015232
  0
VERTEX
  8
7
 62
     7
  6
CONTINUOUS
 10
0.977433
 20
-0.018630
  0
VERTEX
  8
7
 62
     7
  6
CONTINUOUS
 10
0.996898
 20
-0.022866
  0
VERTEX
  8
7
 62
     7
  6
CONTINUOUS
 10
1.016398
 20
-0.026232
  0
VERTEX
  8
7
 62
     7
  6
CONTINUOUS
 10
1.035031
 20
-0.029630
  0
VERTEX
  8
7
 62
     7
  6
CONTINUOUS
 10
1.051098
 20
-0.032165
  0
VERTEX
  8
7
 62
     7
  6
CONTINUOUS
 10
1.064665
 20
-0.034697
  0
VERTEX
  8
7
 62
     7
  6
CONTINUOUS
 10
1.075665
 20
-0.036398
  0
VERTEX
  8
7
 62
     7
  6
CONTINUOUS
 10
1.082433
 20
-0.038098
  0
VERTEX
  8
7
 62
     7
  6
CONTINUOUS
 10
1.085000
 20
-0.038098
  0
VERTEX
  8
7
 62
     7
  6
CONTINUOUS
 10
1.087531
 20
-0.038098
  0
VERTEX
  8
7
 62
     7
  6
CONTINUOUS
 10
1.094299
 20
-0.038098
  0
VERTEX
  8
7
 62
     7
  6
CONTINUOUS
 10
1.105331
 20
-0.037264
  0
VERTEX
  8
7
 62
     7
  6
CONTINUOUS
 10
1.119732
 20
-0.036398
  0
VERTEX
  8
7
 62
     7
  6
CONTINUOUS
 10
1.136665
 20
-0.035563
  0
VERTEX
  8
7
 62
     7
  6
CONTINUOUS
 10
1.155299
 20
-0.034697
  0
VERTEX
  8
7
 62
     7
  6
CONTINUOUS
 10
1.174764
 20
-0.033000
  0
VERTEX
  8
7
 62
     7
  6
CONTINUOUS
 10
1.195933
 20
-0.032165
  0
VERTEX
  8
7
 62
     7
  6
CONTINUOUS
 10
1.216264
 20
-0.030465
  0
VERTEX
  8
7
 62
     7
  6
CONTINUOUS
 10
1.235764
 20
-0.029630
  0
VERTEX
  8
7
 62
     7
  6
CONTINUOUS
 10
1.254398
 20
-0.027933
  0
VERTEX
  8
7
 62
     7
  6
CONTINUOUS
 10
1.271331
 20
-0.027098
  0
VERTEX
  8
7
 62
     7
  6
CONTINUOUS
 10
1.285732
 20
-0.026232
  0
VERTEX
  8
7
 62
     7
  6
CONTINUOUS
 10
1.296732
 20
-0.025398
  0
VERTEX
  8
7
 62
     7
  6
CONTINUOUS
 10
1.303500
 20
-0.024531
  0
VERTEX
  8
7
 62
     7
  6
CONTINUOUS
 10
1.306063
 20
-0.024531
  0
VERTEX
  8
7
 62
     7
  6
CONTINUOUS
 10
1.309433
 20
-0.024531
  0
VERTEX
  8
7
 62
     7
  6
CONTINUOUS
 10
1.318764
 20
-0.025398
  0
VERTEX
  8
7
 62
     7
  6
CONTINUOUS
 10
1.333165
 20
-0.026232
  0
VERTEX
  8
7
 62
     7
  6
CONTINUOUS
 10
1.352630
 20
-0.027098
  0
VERTEX
  8
7
 62
     7
  6
CONTINUOUS
 10
1.374665
 20
-0.027933
  0
VERTEX
  8
7
 62
     7
  6
CONTINUOUS
 10
1.399232
 20
-0.029630
  0
VERTEX
  8
7
 62
     7
  6
CONTINUOUS
 10
1.426331
 20
-0.030465
  0
VERTEX
  8
7
 62
     7
  6
CONTINUOUS
 10
1.454264
 20
-0.032165
  0
VERTEX
  8
7
 62
     7
  6
CONTINUOUS
 10
1.481398
 20
-0.033000
  0
VERTEX
  8
7
 62
     7
  6
CONTINUOUS
 10
1.508500
 20
-0.034697
  0
VERTEX
  8
7
 62
     7
  6
CONTINUOUS
 10
1.533063
 20
-0.035563
  0
VERTEX
  8
7
 62
     7
  6
CONTINUOUS
 10
1.555063
 20
-0.036398
  0
VERTEX
  8
7
 62
     7
  6
CONTINUOUS
 10
1.574563
 20
-0.037264
  0
VERTEX
  8
7
 62
     7
  6
CONTINUOUS
 10
1.588965
 20
-0.038098
  0
VERTEX
  8
7
 62
     7
  6
CONTINUOUS
 10
1.598264
 20
-0.038098
  0
VERTEX
  8
7
 62
     7
  6
CONTINUOUS
 10
1.601665
 20
-0.038098
  0
VERTEX
  8
7
 62
     7
  6
CONTINUOUS
 10
1.604197
 20
-0.038098
  0
VERTEX
  8
7
 62
     7
  6
CONTINUOUS
 10
1.611831
 20
-0.038933
  0
VERTEX
  8
7
 62
     7
  6
CONTINUOUS
 10
1.622831
 20
-0.039799
  0
VERTEX
  8
7
 62
     7
  6
CONTINUOUS
 10
1.638063
 20
-0.040630
  0
VERTEX
  8
7
 62
     7
  6
CONTINUOUS
 10
1.655866
 20
-0.041500
  0
VERTEX
  8
7
 62
     7
  6
CONTINUOUS
 10
1.675331
 20
-0.043165
  0
VERTEX
  8
7
 62
     7
  6
CONTINUOUS
 10
1.696531
 20
-0.044031
  0
VERTEX
  8
7
 62
     7
  6
CONTINUOUS
 10
1.718531
 20
-0.045732
  0
VERTEX
  8
7
 62
     7
  6
CONTINUOUS
 10
1.740563
 20
-0.046563
  0
VERTEX
  8
7
 62
     7
  6
CONTINUOUS
 10
1.761732
 20
-0.048264
  0
VERTEX
  8
7
 62
     7
  6
CONTINUOUS
 10
1.781232
 20
-0.049098
  0
VERTEX
  8
7
 62
     7
  6
CONTINUOUS
 10
1.799000
 20
-0.049965
  0
VERTEX
  8
7
 62
     7
  6
CONTINUOUS
 10
1.814264
 20
-0.050799
  0
VERTEX
  8
7
 62
     7
  6
CONTINUOUS
 10
1.825264
 20
-0.051665
  0
VERTEX
  8
7
 62
     7
  6
CONTINUOUS
 10
1.832898
 20
-0.051665
  0
VERTEX
  8
7
 62
     7
  6
CONTINUOUS
 10
1.835433
 20
-0.051665
  0
VERTEX
  8
7
 62
     7
  6
CONTINUOUS
 10
1.837130
 20
-0.052500
  0
VERTEX
  8
7
 62
     7
  6
CONTINUOUS
 10
1.843063
 20
-0.053331
  0
VERTEX
  8
7
 62
     7
  6
CONTINUOUS
 10
1.850665
 20
-0.055031
  0
VERTEX
  8
7
 62
     7
  6
CONTINUOUS
 10
1.861697
 20
-0.056732
  0
VERTEX
  8
7
 62
     7
  6
CONTINUOUS
 10
1.874398
 20
-0.059264
  0
VERTEX
  8
7
 62
     7
  6
CONTINUOUS
 10
1.888799
 20
-0.061799
  0
VERTEX
  8
7
 62
     7
  6
CONTINUOUS
 10
1.904031
 20
-0.064366
  0
VERTEX
  8
7
 62
     7
  6
CONTINUOUS
 10
1.919299
 20
-0.067732
  0
VERTEX
  8
7
 62
     7
  6
CONTINUOUS
 10
1.934531
 20
-0.070299
  0
VERTEX
  8
7
 62
     7
  6
CONTINUOUS
 10
1.949764
 20
-0.072831
  0
VERTEX
  8
7
 62
     7
  6
CONTINUOUS
 10
1.964165
 20
-0.075366
  0
VERTEX
  8
7
 62
     7
  6
CONTINUOUS
 10
1.976866
 20
-0.077898
  0
VERTEX
  8
7
 62
     7
  6
CONTINUOUS
 10
1.987898
 20
-0.079598
  0
VERTEX
  8
7
 62
     7
  6
CONTINUOUS
 10
1.995500
 20
-0.081299
  0
VERTEX
  8
7
 62
     7
  6
CONTINUOUS
 10
2.001433
 20
-0.082130
  0
VERTEX
  8
7
 62
     7
  6
CONTINUOUS
 10
2.003130
 20
-0.082130
  0
VERTEX
  8
7
 62
     7
  6
CONTINUOUS
 10
2.005665
 20
-0.083000
  0
VERTEX
  8
7
 62
     7
  6
CONTINUOUS
 10
2.011598
 20
-0.085531
  0
VERTEX
  8
7
 62
     7
  6
CONTINUOUS
 10
2.022630
 20
-0.089764
  0
VERTEX
  8
7
 62
     7
  6
CONTINUOUS
 10
2.035331
 20
-0.094000
  0
VERTEX
  8
7
 62
     7
  6
CONTINUOUS
 10
2.051433
 20
-0.099933
  0
VERTEX
  8
7
 62
     7
  6
CONTINUOUS
 10
2.068366
 20
-0.106697
  0
VERTEX
  8
7
 62
     7
  6
CONTINUOUS
 10
2.087000
 20
-0.113465
  0
VERTEX
  8
7
 62
     7
  6
CONTINUOUS
 10
2.106465
 20
-0.120264
  0
VERTEX
  8
7
 62
     7
  6
CONTINUOUS
 10
2.125965
 20
-0.127866
  0
VERTEX
  8
7
 62
     7
  6
CONTINUOUS
 10
2.144598
 20
-0.134665
  0
VERTEX
  8
7
 62
     7
  6
CONTINUOUS
 10
2.161531
 20
-0.140598
  0
VERTEX
  8
7
 62
     7
  6
CONTINUOUS
 10
2.177630
 20
-0.146500
  0
VERTEX
  8
7
 62
     7
  6
CONTINUOUS
 10
2.190331
 20
-0.150732
  0
VERTEX
  8
7
 62
     7
  6
CONTINUOUS
 10
2.201331
 20
-0.155000
  0
VERTEX
  8
7
 62
     7
  6
CONTINUOUS
 10
2.207264
 20
-0.156665
  0
VERTEX
  8
7
 62
     7
  6
CONTINUOUS
 10
2.209799
 20
-0.157531
  0
VERTEX
  8
7
 62
     7
  6
CONTINUOUS
 10
2.211500
 20
-0.160063
  0
VERTEX
  8
7
 62
     7
  6
CONTINUOUS
 10
2.217433
 20
-0.166000
  0
VERTEX
  8
7
 62
     7
  6
CONTINUOUS
 10
2.225898
 20
-0.175299
  0
VERTEX
  8
7
 62
     7
  6
CONTINUOUS
 10
2.236898
 20
-0.188031
  0
VERTEX
  8
7
 62
     7
  6
CONTINUOUS
 10
2.249598
 20
-0.202398
  0
VERTEX
  8
7
 62
     7
  6
CONTINUOUS
 10
2.264866
 20
-0.218500
  0
VERTEX
  8
7
 62
     7
  6
CONTINUOUS
 10
2.280098
 20
-0.235433
  0
VERTEX
  8
7
 62
     7
  6
CONTINUOUS
 10
2.296197
 20
-0.253232
  0
VERTEX
  8
7
 62
     7
  6
CONTINUOUS
 10
2.312299
 20
-0.271031
  0
VERTEX
  8
7
 62
     7
  6
CONTINUOUS
 10
2.327531
 20
-0.287965
  0
VERTEX
  8
7
 62
     7
  6
CONTINUOUS
 10
2.342799
 20
-0.304063
  0
VERTEX
  8
7
 62
     7
  6
CONTINUOUS
 10
2.355500
 20
-0.318465
  0
VERTEX
  8
7
 62
     7
  6
CONTINUOUS
 10
2.366500
 20
-0.330299
  0
VERTEX
  8
7
 62
     7
  6
CONTINUOUS
 10
2.374965
 20
-0.339630
  0
VERTEX
  8
7
 62
     7
  6
CONTINUOUS
 10
2.380898
 20
-0.345563
  0
VERTEX
  8
7
 62
     7
  6
CONTINUOUS
 10
2.382598
 20
-0.347264
  0
VERTEX
  8
7
 62
     7
  6
CONTINUOUS
 10
2.385130
 20
-0.355732
  0
VERTEX
  8
7
 62
     7
  6
CONTINUOUS
 10
2.391063
 20
-0.376063
  0
VERTEX
  8
7
 62
     7
  6
CONTINUOUS
 10
2.399531
 20
-0.404831
  0
VERTEX
  8
7
 62
     7
  6
CONTINUOUS
 10
2.408866
 20
-0.438732
  0
VERTEX
  8
7
 62
     7
  6
CONTINUOUS
 10
2.418165
 20
-0.471764
  0
VERTEX
  8
7
 62
     7
  6
CONTINUOUS
 10
2.426630
 20
-0.500563
  0
VERTEX
  8
7
 62
     7
  6
CONTINUOUS
 10
2.432563
 20
-0.520898
  0
VERTEX
  8
7
 62
     7
  6
CONTINUOUS
 10
2.435098
 20
-0.528500
  0
VERTEX
  8
7
 62
     7
  6
CONTINUOUS
 10
2.431732
 20
-0.552232
  0
VERTEX
  8
7
 62
     7
  6
CONTINUOUS
 10
2.424098
 20
-0.604732
  0
VERTEX
  8
7
 62
     7
  6
CONTINUOUS
 10
2.416465
 20
-0.656398
  0
VERTEX
  8
7
 62
     7
  6
CONTINUOUS
 10
2.413098
 20
-0.679264
  0
VERTEX
  8
7
 62
     7
  6
CONTINUOUS
 10
2.413098
 20
-0.691965
  0
VERTEX
  8
7
 62
     7
  6
CONTINUOUS
 10
2.413098
 20
-0.719933
  0
VERTEX
  8
7
 62
     7
  6
CONTINUOUS
 10
2.413098
 20
-0.748732
  0
VERTEX
  8
7
 62
     7
  6
CONTINUOUS
 10
2.413098
 20
-0.763965
  0
VERTEX
  8
7
 62
     7
  6
CONTINUOUS
 10
2.452898
 20
-0.913898
  0
VERTEX
  8
7
 62
     7
  6
CONTINUOUS
 10
2.455433
 20
-0.923197
  0
VERTEX
  8
7
 62
     7
  6
CONTINUOUS
 10
2.462197
 20
-0.947764
  0
VERTEX
  8
7
 62
     7
  6
CONTINUOUS
 10
2.471531
 20
-0.982500
  0
VERTEX
  8
7
 62
     7
  6
CONTINUOUS
 10
2.481697
 20
-1.022299
  0
VERTEX
  8
7
 62
     7
  6
CONTINUOUS
 10
2.491866
 20
-1.062130
  0
VERTEX
  8
7
 62
     7
  6
CONTINUOUS
 10
2.501165
 20
-1.096831
  0
VERTEX
  8
7
 62
     7
  6
CONTINUOUS
 10
2.507965
 20
-1.120563
  0
VERTEX
  8
7
 62
     7
  6
CONTINUOUS
 10
2.510500
 20
-1.129866
  0
VERTEX
  8
7
 62
     7
  6
CONTINUOUS
 10
2.507098
 20
-1.165465
  0
VERTEX
  8
7
 62
     7
  6
CONTINUOUS
 10
2.499465
 20
-1.243366
  0
VERTEX
  8
7
 62
     7
  6
CONTINUOUS
 10
2.491866
 20
-1.320465
  0
VERTEX
  8
7
 62
     7
  6
CONTINUOUS
 10
2.488465
 20
-1.355165
  0
VERTEX
  8
7
 62
     7
  6
CONTINUOUS
 10
2.491000
 20
-1.358563
  0
VERTEX
  8
7
 62
     7
  6
CONTINUOUS
 10
2.496933
 20
-1.366197
  0
VERTEX
  8
7
 62
     7
  6
CONTINUOUS
 10
2.506264
 20
-1.378898
  0
VERTEX
  8
7
 62
     7
  6
CONTINUOUS
 10
2.518965
 20
-1.395000
  0
VERTEX
  8
7
 62
     7
  6
CONTINUOUS
 10
2.533366
 20
-1.414465
  0
VERTEX
  8
7
 62
     7
  6
CONTINUOUS
 10
2.549465
 20
-1.435630
  0
VERTEX
  8
7
 62
     7
  6
CONTINUOUS
 10
2.567232
 20
-1.458531
  0
VERTEX
  8
7
 62
     7
  6
CONTINUOUS
 10
2.585866
 20
-1.482232
  0
VERTEX
  8
7
 62
     7
  6
CONTINUOUS
 10
2.603665
 20
-1.505933
  0
VERTEX
  8
7
 62
     7
  6
CONTINUOUS
 10
2.621433
 20
-1.527965
  0
VERTEX
  8
7
 62
     7
  6
CONTINUOUS
 10
2.637531
 20
-1.550000
  0
VERTEX
  8
7
 62
     7
  6
CONTINUOUS
 10
2.651933
 20
-1.568630
  0
VERTEX
  8
7
 62
     7
  6
CONTINUOUS
 10
2.664630
 20
-1.584732
  0
VERTEX
  8
7
 62
     7
  6
CONTINUOUS
 10
2.673965
 20
-1.597433
  0
VERTEX
  8
7
 62
     7
  6
CONTINUOUS
 10
2.679898
 20
-1.605031
  0
VERTEX
  8
7
 62
     7
  6
CONTINUOUS
 10
2.682433
 20
-1.607598
  0
VERTEX
  8
7
 62
     7
  6
CONTINUOUS
 10
2.685831
 20
-1.630465
  0
VERTEX
  8
7
 62
     7
  6
CONTINUOUS
 10
2.693433
 20
-1.681264
  0
VERTEX
  8
7
 62
     7
  6
CONTINUOUS
 10
2.701063
 20
-1.731264
  0
VERTEX
  8
7
 62
     7
  6
CONTINUOUS
 10
2.704465
 20
-1.753264
  0
VERTEX
  8
7
 62
     7
  6
CONTINUOUS
 10
2.701898
 20
-1.757500
  0
VERTEX
  8
7
 62
     7
  6
CONTINUOUS
 10
2.695130
 20
-1.769366
  0
VERTEX
  8
7
 62
     7
  6
CONTINUOUS
 10
2.685831
 20
-1.784598
  0
VERTEX
  8
7
 62
     7
  6
CONTINUOUS
 10
2.675665
 20
-1.802398
  0
VERTEX
  8
7
 62
     7
  6
CONTINUOUS
 10
2.665500
 20
-1.820197
  0
VERTEX
  8
7
 62
     7
  6
CONTINUOUS
 10
2.656165
 20
-1.836264
  0
VERTEX
  8
7
 62
     7
  6
CONTINUOUS
 10
2.649398
 20
-1.846433
  0
VERTEX
  8
7
 62
     7
  6
CONTINUOUS
 10
2.646866
 20
-1.850665
  0
VERTEX
  8
7
 62
     7
  6
CONTINUOUS
 10
2.642630
 20
-1.850665
  0
VERTEX
  8
7
 62
     7
  6
CONTINUOUS
 10
2.631598
 20
-1.851531
  0
VERTEX
  8
7
 62
     7
  6
CONTINUOUS
 10
2.616366
 20
-1.851531
  0
VERTEX
  8
7
 62
     7
  6
CONTINUOUS
 10
2.598563
 20
-1.851531
  0
VERTEX
  8
7
 62
     7
  6
CONTINUOUS
 10
2.579933
 20
-1.851531
  0
VERTEX
  8
7
 62
     7
  6
CONTINUOUS
 10
2.564697
 20
-1.851531
  0
VERTEX
  8
7
 62
     7
  6
CONTINUOUS
 10
2.553697
 20
-1.850665
  0
VERTEX
  8
7
 62
     7
  6
CONTINUOUS
 10
2.549465
 20
-1.850665
  0
VERTEX
  8
7
 62
     7
  6
CONTINUOUS
 10
2.549465
 20
-1.869299
  0
VERTEX
  8
7
 62
     7
  6
CONTINUOUS
 10
2.549465
 20
-1.908264
  0
VERTEX
  8
7
 62
     7
  6
CONTINUOUS
 10
2.549465
 20
-1.947232
  0
VERTEX
  8
7
 62
     7
  6
CONTINUOUS
 10
2.549465
 20
-1.965031
  0
VERTEX
  8
7
 62
     7
  6
CONTINUOUS
 10
2.546898
 20
-1.967563
  0
VERTEX
  8
7
 62
     7
  6
CONTINUOUS
 10
2.541000
 20
-1.973500
  0
VERTEX
  8
7
 62
     7
  6
CONTINUOUS
 10
2.532500
 20
-1.981098
  0
VERTEX
  8
7
 62
     7
  6
CONTINUOUS
 10
2.523197
 20
-1.990433
  0
VERTEX
  8
7
 62
     7
  6
CONTINUOUS
 10
2.513866
 20
-1.998898
  0
VERTEX
  8
7
 62
     7
  6
CONTINUOUS
 10
2.505398
 20
-2.006531
  0
VERTEX
  8
7
 62
     7
  6
CONTINUOUS
 10
2.499465
 20
-2.012465
  0
VERTEX
  8
7
 62
     7
  6
CONTINUOUS
 10
2.496933
 20
-2.014130
  0
VERTEX
  8
7
 62
     7
  6
CONTINUOUS
 10
2.495232
 20
-2.014130
  0
VERTEX
  8
7
 62
     7
  6
CONTINUOUS
 10
2.490165
 20
-2.015000
  0
VERTEX
  8
7
 62
     7
  6
CONTINUOUS
 10
2.482531
 20
-2.015000
  0
VERTEX
  8
7
 62
     7
  6
CONTINUOUS
 10
2.472366
 20
-2.015000
  0
VERTEX
  8
7
 62
     7
  6
CONTINUOUS
 10
2.459665
 20
-2.015831
  0
VERTEX
  8
7
 62
     7
  6
CONTINUOUS
 10
2.446965
 20
-2.015831
  0
VERTEX
  8
7
 62
     7
  6
CONTINUOUS
 10
2.432563
 20
-2.016697
  0
VERTEX
  8
7
 62
     7
  6
CONTINUOUS
 10
2.417331
 20
-2.016697
  0
VERTEX
  8
7
 62
     7
  6
CONTINUOUS
 10
2.402063
 20
-2.017531
  0
VERTEX
  8
7
 62
     7
  6
CONTINUOUS
 10
2.387665
 20
-2.017531
  0
VERTEX
  8
7
 62
     7
  6
CONTINUOUS
 10
2.374965
 20
-2.017531
  0
VERTEX
  8
7
 62
     7
  6
CONTINUOUS
 10
2.362264
 20
-2.018398
  0
VERTEX
  8
7
 62
     7
  6
CONTINUOUS
 10
2.352098
 20
-2.018398
  0
VERTEX
  8
7
 62
     7
  6
CONTINUOUS
 10
2.344465
 20
-2.018398
  0
VERTEX
  8
7
 62
     7
  6
CONTINUOUS
 10
2.339398
 20
-2.018398
  0
VERTEX
  8
7
 62
     7
  6
CONTINUOUS
 10
2.337697
 20
-2.018398
  0
VERTEX
  8
7
 62
     7
  6
CONTINUOUS
 10
2.336000
 20
-2.017531
  0
VERTEX
  8
7
 62
     7
  6
CONTINUOUS
 10
2.332630
 20
-2.014130
  0
VERTEX
  8
7
 62
     7
  6
CONTINUOUS
 10
2.326697
 20
-2.009063
  0
VERTEX
  8
7
 62
     7
  6
CONTINUOUS
 10
2.320764
 20
-2.003130
  0
VERTEX
  8
7
 62
     7
  6
CONTINUOUS
 10
2.314000
 20
-1.997197
  0
VERTEX
  8
7
 62
     7
  6
CONTINUOUS
 10
2.308063
 20
-1.992130
  0
VERTEX
  8
7
 62
     7
  6
CONTINUOUS
 10
2.304665
 20
-1.988732
  0
VERTEX
  8
7
 62
     7
  6
CONTINUOUS
 10
2.302965
 20
-1.987031
  0
VERTEX
  8
7
 62
     7
  6
CONTINUOUS
 10
2.305531
 20
-1.984500
  0
VERTEX
  8
7
 62
     7
  6
CONTINUOUS
 10
2.312299
 20
-1.977732
  0
VERTEX
  8
7
 62
     7
  6
CONTINUOUS
 10
2.321598
 20
-1.968398
  0
VERTEX
  8
7
 62
     7
  6
CONTINUOUS
 10
2.331764
 20
-1.956563
  0
VERTEX
  8
7
 62
     7
  6
CONTINUOUS
 10
2.341933
 20
-1.945531
  0
VERTEX
  8
7
 62
     7
  6
CONTINUOUS
 10
2.351264
 20
-1.935366
  0
VERTEX
  8
7
 62
     7
  6
CONTINUOUS
 10
2.358031
 20
-1.927764
  0
VERTEX
  8
7
 62
     7
  6
CONTINUOUS
 10
2.360563
 20
-1.925197
  0
VERTEX
  8
7
 62
     7
  6
CONTINUOUS
 10
2.362264
 20
-1.922665
  0
VERTEX
  8
7
 62
     7
  6
CONTINUOUS
 10
2.367331
 20
-1.915063
  0
VERTEX
  8
7
 62
     7
  6
CONTINUOUS
 10
2.374130
 20
-1.903197
  0
VERTEX
  8
7
 62
     7
  6
CONTINUOUS
 10
2.382598
 20
-1.890500
  0
VERTEX
  8
7
 62
     7
  6
CONTINUOUS
 10
2.391063
 20
-1.877764
  0
VERTEX
  8
7
 62
     7
  6
CONTINUOUS
 10
2.397831
 20
-1.866764
  0
VERTEX
  8
7
 62
     7
  6
CONTINUOUS
 10
2.402933
 20
-1.858299
  0
VERTEX
  8
7
 62
     7
  6
CONTINUOUS
 10
2.404598
 20
-1.854898
  0
VERTEX
  8
7
 62
     7
  6
CONTINUOUS
 10
2.402933
 20
-1.850665
  0
VERTEX
  8
7
 62
     7
  6
CONTINUOUS
 10
2.398697
 20
-1.839665
  0
VERTEX
  8
7
 62
     7
  6
CONTINUOUS
 10
2.391898
 20
-1.823563
  0
VERTEX
  8
7
 62
     7
  6
CONTINUOUS
 10
2.385130
 20
-1.804933
  0
VERTEX
  8
7
 62
     7
  6
CONTINUOUS
 10
2.377500
 20
-1.786299
  0
VERTEX
  8
7
 62
     7
  6
CONTINUOUS
 10
2.370732
 20
-1.769366
  0
VERTEX
  8
7
 62
     7
  6
CONTINUOUS
 10
2.366500
 20
-1.757500
  0
VERTEX
  8
7
 62
     7
  6
CONTINUOUS
 10
2.364799
 20
-1.753264
  0
VERTEX
  8
7
 62
     7
  6
CONTINUOUS
 10
2.362264
 20
-1.745665
  0
VERTEX
  8
7
 62
     7
  6
CONTINUOUS
 10
2.356331
 20
-1.725331
  0
VERTEX
  8
7
 62
     7
  6
CONTINUOUS
 10
2.347866
 20
-1.696531
  0
VERTEX
  8
7
 62
     7
  6
CONTINUOUS
 10
2.338563
 20
-1.663500
  0
VERTEX
  8
7
 62
     7
  6
CONTINUOUS
 10
2.328398
 20
-1.629598
  0
VERTEX
  8
7
 62
     7
  6
CONTINUOUS
 10
2.319898
 20
-1.600799
  0
VERTEX
  8
7
 62
     7
  6
CONTINUOUS
 10
2.314000
 20
-1.580500
  0
VERTEX
  8
7
 62
     7
  6
CONTINUOUS
 10
2.311433
 20
-1.572000
  0
VERTEX
  8
7
 62
     7
  6
CONTINUOUS
 10
2.309764
 20
-1.566933
  0
VERTEX
  8
7
 62
     7
  6
CONTINUOUS
 10
2.306366
 20
-1.554232
  0
VERTEX
  8
7
 62
     7
  6
CONTINUOUS
 10
2.302130
 20
-1.534732
  0
VERTEX
  8
7
 62
     7
  6
CONTINUOUS
 10
2.296197
 20
-1.512732
  0
VERTEX
  8
7
 62
     7
  6
CONTINUOUS
 10
2.290264
 20
-1.490697
  0
VERTEX
  8
7
 62
     7
  6
CONTINUOUS
 10
2.286031
 20
-1.472063
  0
VERTEX
  8
7
 62
     7
  6
CONTINUOUS
 10
2.282630
 20
-1.457665
  0
VERTEX
  8
7
 62
     7
  6
CONTINUOUS
 10
2.280965
 20
-1.452598
  0
VERTEX
  8
7
 62
     7
  6
CONTINUOUS
 10
2.279264
 20
-1.450898
  0
VERTEX
  8
7
 62
     7
  6
CONTINUOUS
 10
2.273331
 20
-1.444965
  0
VERTEX
  8
7
 62
     7
  6
CONTINUOUS
 10
2.265697
 20
-1.436500
  0
VERTEX
  8
7
 62
     7
  6
CONTINUOUS
 10
2.254697
 20
-1.424630
  0
VERTEX
  8
7
 62
     7
  6
CONTINUOUS
 10
2.242000
 20
-1.411098
  0
VERTEX
  8
7
 62
     7
  6
CONTINUOUS
 10
2.227598
 20
-1.395831
  0
VERTEX
  8
7
 62
     7
  6
CONTINUOUS
 10
2.212331
 20
-1.379732
  0
VERTEX
  8
7
 62
     7
  6
CONTINUOUS
 10
2.197098
 20
-1.362799
  0
VERTEX
  8
7
 62
     7
  6
CONTINUOUS
 10
2.181866
 20
-1.345866
  0
VERTEX
  8
7
 62
     7
  6
CONTINUOUS
 10
2.166598
 20
-1.328933
  0
VERTEX
  8
7
 62
     7
  6
CONTINUOUS
 10
2.152197
 20
-1.313665
  0
VERTEX
  8
7
 62
     7
  6
CONTINUOUS
 10
2.139500
 20
-1.300130
  0
VERTEX
  8
7
 62
     7
  6
CONTINUOUS
 10
2.128500
 20
-1.288264
  0
VERTEX
  8
7
 62
     7
  6
CONTINUOUS
 10
2.120866
 20
-1.279799
  0
VERTEX
  8
7
 62
     7
  6
CONTINUOUS
 10
2.114933
 20
-1.273866
  0
VERTEX
  8
7
 62
     7
  6
CONTINUOUS
 10
2.113232
 20
-1.271331
  0
VERTEX
  8
7
 62
     7
  6
CONTINUOUS
 10
2.111563
 20
-1.270465
  0
VERTEX
  8
7
 62
     7
  6
CONTINUOUS
 10
2.106465
 20
-1.266232
  0
VERTEX
  8
7
 62
     7
  6
CONTINUOUS
 10
2.098000
 20
-1.260331
  0
VERTEX
  8
7
 62
     7
  6
CONTINUOUS
 10
2.087000
 20
-1.252697
  0
VERTEX
  8
7
 62
     7
  6
CONTINUOUS
 10
2.072598
 20
-1.242531
  0
VERTEX
  8
7
 62
     7
  6
CONTINUOUS
 10
2.056500
 20
-1.230665
  0
VERTEX
  8
7
 62
     7
  6
CONTINUOUS
 10
2.037866
 20
-1.217965
  0
VERTEX
  8
7
 62
     7
  6
CONTINUOUS
 10
2.017531
 20
-1.202732
  0
VERTEX
  8
7
 62
     7
  6
CONTINUOUS
 10
1.994665
 20
-1.186630
  0
VERTEX
  8
7
 62
     7
  6
CONTINUOUS
 10
1.970965
 20
-1.169697
  0
VERTEX
  8
7
 62
     7
  6
CONTINUOUS
 10
1.945531
 20
-1.151063
  0
VERTEX
  8
7
 62
     7
  6
CONTINUOUS
 10
1.919299
 20
-1.132433
  0
VERTEX
  8
7
 62
     7
  6
CONTINUOUS
 10
1.892165
 20
-1.112098
  0
VERTEX
  8
7
 62
     7
  6
CONTINUOUS
 10
1.864232
 20
-1.091764
  0
VERTEX
  8
7
 62
     7
  6
CONTINUOUS
 10
1.835433
 20
-1.071433
  0
VERTEX
  8
7
 62
     7
  6
CONTINUOUS
 10
1.806630
 20
-1.051098
  0
VERTEX
  8
7
 62
     7
  6
CONTINUOUS
 10
1.777831
 20
-1.029933
  0
VERTEX
  8
7
 62
     7
  6
CONTINUOUS
 10
1.749031
 20
-1.009598
  0
VERTEX
  8
7
 62
     7
  6
CONTINUOUS
 10
1.721098
 20
-0.989264
  0
VERTEX
  8
7
 62
     7
  6
CONTINUOUS
 10
1.694000
 20
-0.969799
  0
VERTEX
  8
7
 62
     7
  6
CONTINUOUS
 10
1.667732
 20
-0.950331
  0
VERTEX
  8
7
 62
     7
  6
CONTINUOUS
 10
1.642299
 20
-0.932531
  0
VERTEX
  8
7
 62
     7
  6
CONTINUOUS
 10
1.618598
 20
-0.914732
  0
VERTEX
  8
7
 62
     7
  6
CONTINUOUS
 10
1.595732
 20
-0.898665
  0
VERTEX
  8
7
 62
     7
  6
CONTINUOUS
 10
1.575398
 20
-0.884264
  0
VERTEX
  8
7
 62
     7
  6
CONTINUOUS
 10
1.556764
 20
-0.870697
  0
VERTEX
  8
7
 62
     7
  6
CONTINUOUS
 10
1.540665
 20
-0.858831
  0
VERTEX
  8
7
 62
     7
  6
CONTINUOUS
 10
1.526264
 20
-0.848665
  0
VERTEX
  8
7
 62
     7
  6
CONTINUOUS
 10
1.515264
 20
-0.840197
  0
VERTEX
  8
7
 62
     7
  6
CONTINUOUS
 10
1.506799
 20
-0.834264
  0
VERTEX
  8
7
 62
     7
  6
CONTINUOUS
 10
1.501697
 20
-0.830898
  0
VERTEX
  8
7
 62
     7
  6
CONTINUOUS
 10
1.500031
 20
-0.829197
  0
VERTEX
  8
7
 62
     7
  6
CONTINUOUS
 10
1.495799
 20
-0.832598
  0
VERTEX
  8
7
 62
     7
  6
CONTINUOUS
 10
1.483063
 20
-0.841063
  0
VERTEX
  8
7
 62
     7
  6
CONTINUOUS
 10
1.466130
 20
-0.852063
  0
VERTEX
  8
7
 62
     7
  6
CONTINUOUS
 10
1.447500
 20
-0.865630
  0
VERTEX
  8
7
 62
     7
  6
CONTINUOUS
 10
1.428031
 20
-0.878331
  0
VERTEX
  8
7
 62
     7
  6
CONTINUOUS
 10
1.411098
 20
-0.889331
  0
VERTEX
  8
7
 62
     7
  6
CONTINUOUS
 10
1.398366
 20
-0.897799
  0
VERTEX
  8
7
 62
     7
  6
CONTINUOUS
 10
1.394130
 20
-0.900331
  0
VERTEX
  8
7
 62
     7
  6
CONTINUOUS
 10
1.389063
 20
-0.905433
  0
VERTEX
  8
7
 62
     7
  6
CONTINUOUS
 10
1.375500
 20
-0.918965
  0
VERTEX
  8
7
 62
     7
  6
CONTINUOUS
 10
1.356031
 20
-0.936764
  0
VERTEX
  8
7
 62
     7
  6
CONTINUOUS
 10
1.334866
 20
-0.957933
  0
VERTEX
  8
7
 62
     7
  6
CONTINUOUS
 10
1.312831
 20
-0.979098
  0
VERTEX
  8
7
 62
     7
  6
CONTINUOUS
 10
1.293366
 20
-0.996898
  0
VERTEX
  8
7
 62
     7
  6
CONTINUOUS
 10
1.279799
 20
-1.010465
  0
VERTEX
  8
7
 62
     7
  6
CONTINUOUS
 10
1.274732
 20
-1.014697
  0
VERTEX
  8
7
 62
     7
  6
CONTINUOUS
 10
1.273031
 20
-1.014697
  0
VERTEX
  8
7
 62
     7
  6
CONTINUOUS
 10
1.268799
 20
-1.015531
  0
VERTEX
  8
7
 62
     7
  6
CONTINUOUS
 10
1.262000
 20
-1.017232
  0
VERTEX
  8
7
 62
     7
  6
CONTINUOUS
 10
1.252697
 20
-1.018933
  0
VERTEX
  8
7
 62
     7
  6
CONTINUOUS
 10
1.241697
 20
-1.020630
  0
VERTEX
  8
7
 62
     7
  6
CONTINUOUS
 10
1.229831
 20
-1.022299
  0
VERTEX
  8
7
 62
     7
  6
CONTINUOUS
 10
1.217130
 20
-1.024000
  0
VERTEX
  8
7
 62
     7
  6
CONTINUOUS
 10
1.204433
 20
-1.026531
  0
VERTEX
  8
7
 62
     7
  6
CONTINUOUS
 10
1.191697
 20
-1.028232
  0
VERTEX
  8
7
 62
     7
  6
CONTINUOUS
 10
1.179000
 20
-1.029933
  0
VERTEX
  8
7
 62
     7
  6
CONTINUOUS
 10
1.167130
 20
-1.032465
  0
VERTEX
  8
7
 62
     7
  6
CONTINUOUS
 10
1.156130
 20
-1.033331
  0
VERTEX
  8
7
 62
     7
  6
CONTINUOUS
 10
1.146831
 20
-1.035031
  0
VERTEX
  8
7
 62
     7
  6
CONTINUOUS
 10
1.140031
 20
-1.035866
  0
VERTEX
  8
7
 62
     7
  6
CONTINUOUS
 10
1.135799
 20
-1.036697
  0
VERTEX
  8
7
 62
     7
  6
CONTINUOUS
 10
1.134098
 20
-1.036697
  0
VERTEX
  8
7
 62
     7
  6
CONTINUOUS
 10
1.131563
 20
-1.037563
  0
VERTEX
  8
7
 62
     7
  6
CONTINUOUS
 10
1.125630
 20
-1.038398
  0
VERTEX
  8
7
 62
     7
  6
CONTINUOUS
 10
1.116331
 20
-1.040933
  0
VERTEX
  8
7
 62
     7
  6
CONTINUOUS
 10
1.103630
 20
-1.043500
  0
VERTEX
  8
7
 62
     7
  6
CONTINUOUS
 10
1.089232
 20
-1.046866
  0
VERTEX
  8
7
 62
     7
  6
CONTINUOUS
 10
1.072299
 20
-1.050264
  0
VERTEX
  8
7
 62
     7
  6
CONTINUOUS
 10
1.054500
 20
-1.053665
  0
VERTEX
  8
7
 62
     7
  6
CONTINUOUS
 10
1.036697
 20
-1.057031
  0
VERTEX
  8
7
 62
     7
  6
CONTINUOUS
 10
1.018933
 20
-1.061264
  0
VERTEX
  8
7
 62
     7
  6
CONTINUOUS
 10
1.001130
 20
-1.064665
  0
VERTEX
  8
7
 62
     7
  6
CONTINUOUS
 10
0.984197
 20
-1.068063
  0
VERTEX
  8
7
 62
     7
  6
CONTINUOUS
 10
0.969799
 20
-1.070598
  0
VERTEX
  8
7
 62
     7
  6
CONTINUOUS
 10
0.957098
 20
-1.073130
  0
VERTEX
  8
7
 62
     7
  6
CONTINUOUS
 10
0.947764
 20
-1.074831
  0
VERTEX
  8
7
 62
     7
  6
CONTINUOUS
 10
0.941831
 20
-1.076531
  0
VERTEX
  8
7
 62
     7
  6
CONTINUOUS
 10
0.939299
 20
-1.076531
  0
VERTEX
  8
7
 62
     7
  6
CONTINUOUS
 10
0.937598
 20
-1.076531
  0
VERTEX
  8
7
 62
     7
  6
CONTINUOUS
 10
0.931697
 20
-1.077366
  0
VERTEX
  8
7
 62
     7
  6
CONTINUOUS
 10
0.923197
 20
-1.079063
  0
VERTEX
  8
7
 62
     7
  6
CONTINUOUS
 10
0.912197
 20
-1.079898
  0
VERTEX
  8
7
 62
     7
  6
CONTINUOUS
 10
0.899500
 20
-1.081598
  0
VERTEX
  8
7
 62
     7
  6
CONTINUOUS
 10
0.885098
 20
-1.084130
  0
VERTEX
  8
7
 62
     7
  6
CONTINUOUS
 10
0.869000
 20
-1.085831
  0
VERTEX
  8
7
 62
     7
  6
CONTINUOUS
 10
0.853764
 20
-1.087531
  0
VERTEX
  8
7
 62
     7
  6
CONTINUOUS
 10
0.837665
 20
-1.090063
  0
VERTEX
  8
7
 62
     7
  6
CONTINUOUS
 10
0.821563
 20
-1.091764
  0
VERTEX
  8
7
 62
     7
  6
CONTINUOUS
 10
0.807165
 20
-1.093465
  0
VERTEX
  8
7
 62
     7
  6
CONTINUOUS
 10
0.794465
 20
-1.095165
  0
VERTEX
  8
7
 62
     7
  6
CONTINUOUS
 10
0.783465
 20
-1.096831
  0
VERTEX
  8
7
 62
     7
  6
CONTINUOUS
 10
0.775000
 20
-1.097697
  0
VERTEX
  8
7
 62
     7
  6
CONTINUOUS
 10
0.769063
 20
-1.098531
  0
VERTEX
  8
7
 62
     7
  6
CONTINUOUS
 10
0.767366
 20
-1.098531
  0
VERTEX
  8
7
 62
     7
  6
CONTINUOUS
 10
0.648799
 20
-1.081598
  0
VERTEX
  8
7
 62
     7
  6
CONTINUOUS
 10
0.649630
 20
-1.089232
  0
VERTEX
  8
7
 62
     7
  6
CONTINUOUS
 10
0.650465
 20
-1.109563
  0
VERTEX
  8
7
 62
     7
  6
CONTINUOUS
 10
0.650465
 20
-1.137500
  0
VERTEX
  8
7
 62
     7
  6
CONTINUOUS
 10
0.650465
 20
-1.169697
  0
VERTEX
  8
7
 62
     7
  6
CONTINUOUS
 10
0.647933
 20
-1.201031
  0
VERTEX
  8
7
 62
     7
  6
CONTINUOUS
 10
0.642866
 20
-1.228965
  0
VERTEX
  8
7
 62
     7
  6
CONTINUOUS
 10
0.635232
 20
-1.247598
  0
VERTEX
  8
7
 62
     7
  6
CONTINUOUS
 10
0.622531
 20
-1.253531
  0
VERTEX
  8
7
 62
     7
  6
CONTINUOUS
 10
0.631831
 20
-1.262000
  0
VERTEX
  8
7
 62
     7
  6
CONTINUOUS
 10
0.633531
 20
-1.279799
  0
VERTEX
  8
7
 62
     7
  6
CONTINUOUS
 10
0.628465
 20
-1.305197
  0
VERTEX
  8
7
 62
     7
  6
CONTINUOUS
 10
0.619130
 20
-1.334000
  0
VERTEX
  8
7
 62
     7
  6
CONTINUOUS
 10
0.608130
 20
-1.362799
  0
VERTEX
  8
7
 62
     7
  6
CONTINUOUS
 10
0.596264
 20
-1.388197
  0
VERTEX
  8
7
 62
     7
  6
CONTINUOUS
 10
0.587799
 20
-1.407697
  0
VERTEX
  8
7
 62
     7
  6
CONTINUOUS
 10
0.582732
 20
-1.417000
  0
VERTEX
  8
7
 62
     7
  6
CONTINUOUS
 10
0.585264
 20
-1.419563
  0
VERTEX
  8
7
 62
     7
  6
CONTINUOUS
 10
0.589500
 20
-1.433098
  0
VERTEX
  8
7
 62
     7
  6
CONTINUOUS
 10
0.592898
 20
-1.453433
  0
VERTEX
  8
7
 62
     7
  6
CONTINUOUS
 10
0.597130
 20
-1.478831
  0
VERTEX
  8
7
 62
     7
  6
CONTINUOUS
 10
0.601366
 20
-1.505933
  0
VERTEX
  8
7
 62
     7
  6
CONTINUOUS
 10
0.604732
 20
-1.533063
  0
VERTEX
  8
7
 62
     7
  6
CONTINUOUS
 10
0.607264
 20
-1.555933
  0
VERTEX
  8
7
 62
     7
  6
CONTINUOUS
 10
0.608965
 20
-1.572000
  0
VERTEX
  8
7
 62
     7
  6
CONTINUOUS
 10
0.603898
 20
-1.584732
  0
VERTEX
  8
7
 62
     7
  6
CONTINUOUS
 10
0.590331
 20
-1.599130
  0
VERTEX
  8
7
 62
     7
  6
CONTINUOUS
 10
0.570000
 20
-1.614366
  0
VERTEX
  8
7
 62
     7
  6
CONTINUOUS
 10
0.548000
 20
-1.629598
  0
VERTEX
  8
7
 62
     7
  6
CONTINUOUS
 10
0.527665
 20
-1.644866
  0
VERTEX
  8
7
 62
     7
  6
CONTINUOUS
 10
0.512433
 20
-1.660098
  0
VERTEX
  8
7
 62
     7
  6
CONTINUOUS
 10
0.505630
 20
-1.674500
  0
VERTEX
  8
7
 62
     7
  6
CONTINUOUS
 10
0.510732
 20
-1.687197
  0
VERTEX
  8
7
 62
     7
  6
CONTINUOUS
 10
0.522563
 20
-1.706697
  0
VERTEX
  8
7
 62
     7
  6
CONTINUOUS
 10
0.533598
 20
-1.737165
  0
VERTEX
  8
7
 62
     7
  6
CONTINUOUS
 10
0.543764
 20
-1.774433
  0
VERTEX
  8
7
 62
     7
  6
CONTINUOUS
 10
0.552232
 20
-1.814264
  0
VERTEX
  8
7
 62
     7
  6
CONTINUOUS
 10
0.559000
 20
-1.853232
  0
VERTEX
  8
7
 62
     7
  6
CONTINUOUS
 10
0.564933
 20
-1.885398
  0
VERTEX
  8
7
 62
     7
  6
CONTINUOUS
 10
0.568331
 20
-1.908264
  0
VERTEX
  8
7
 62
     7
  6
CONTINUOUS
 10
0.569165
 20
-1.916732
  0
VERTEX
  8
7
 62
     7
  6
CONTINUOUS
 10
0.565764
 20
-1.935366
  0
VERTEX
  8
7
 62
     7
  6
CONTINUOUS
 10
0.559000
 20
-1.970098
  0
VERTEX
  8
7
 62
     7
  6
CONTINUOUS
 10
0.552232
 20
-1.995500
  0
VERTEX
  8
7
 62
     7
  6
CONTINUOUS
 10
0.551366
 20
-1.982799
  0
VERTEX
  8
7
 62
     7
  6
CONTINUOUS
 10
0.546299
 20
-2.000598
  0
VERTEX
  8
7
 62
     7
  6
CONTINUOUS
 10
0.535299
 20
-2.012465
  0
VERTEX
  8
7
 62
     7
  6
CONTINUOUS
 10
0.520031
 20
-2.020933
  0
VERTEX
  8
7
 62
     7
  6
CONTINUOUS
 10
0.503933
 20
-2.025165
  0
VERTEX
  8
7
 62
     7
  6
CONTINUOUS
 10
0.487000
 20
-2.027697
  0
VERTEX
  8
7
 62
     7
  6
CONTINUOUS
 10
0.472598
 20
-2.027697
  0
VERTEX
  8
7
 62
     7
  6
CONTINUOUS
 10
0.462433
 20
-2.027697
  0
VERTEX
  8
7
 62
     7
  6
CONTINUOUS
 10
0.459063
 20
-2.026866
  0
VERTEX
  8
7
 62
     7
  6
CONTINUOUS
 10
0.453965
 20
-2.026866
  0
VERTEX
  8
7
 62
     7
  6
CONTINUOUS
 10
0.439563
 20
-2.026000
  0
VERTEX
  8
7
 62
     7
  6
CONTINUOUS
 10
0.420098
 20
-2.025165
  0
VERTEX
  8
7
 62
     7
  6
CONTINUOUS
 10
0.397232
 20
-2.023465
  0
VERTEX
  8
7
 62
     7
  6
CONTINUOUS
 10
0.374366
 20
-2.021764
  0
VERTEX
  8
7
 62
     7
  6
CONTINUOUS
 10
0.354866
 20
-2.020063
  0
VERTEX
  8
7
 62
     7
  6
CONTINUOUS
 10
0.340465
 20
-2.019232
  0
VERTEX
  8
7
 62
     7
  6
CONTINUOUS
 10
0.335398
 20
-2.018398
  0
VERTEX
  8
7
 62
     7
  6
CONTINUOUS
 10
0.333697
 20
-2.001433
  0
VERTEX
  8
7
 62
     7
  6
CONTINUOUS
 10
0.328630
 20
-1.964165
  0
VERTEX
  8
7
 62
     7
  6
CONTINUOUS
 10
0.324398
 20
-1.926063
  0
VERTEX
  8
7
 62
     7
  6
CONTINUOUS
 10
0.321831
 20
-1.908264
  0
VERTEX
  8
7
 62
     7
  6
CONTINUOUS
 10
0.320130
 20
-1.876098
  0
VERTEX
  8
7
 62
     7
  6
CONTINUOUS
 10
0.317598
 20
-1.804933
  0
VERTEX
  8
7
 62
     7
  6
CONTINUOUS
 10
0.315063
 20
-1.732933
  0
VERTEX
  8
7
 62
     7
  6
CONTINUOUS
 10
0.313366
 20
-1.699898
  0
VERTEX
  8
7
 62
     7
  6
CONTINUOUS
 10
0.315063
 20
-1.630465
  0
VERTEX
  8
7
 62
     7
  6
CONTINUOUS
 10
0.317598
 20
-1.477165
  0
VERTEX
  8
7
 62
     7
  6
CONTINUOUS
 10
0.320130
 20
-1.323831
  0
VERTEX
  8
7
 62
     7
  6
CONTINUOUS
 10
0.321831
 20
-1.253531
  0
VERTEX
  8
7
 62
     7
  6
CONTINUOUS
 10
0.318465
 20
-1.246764
  0
VERTEX
  8
7
 62
     7
  6
CONTINUOUS
 10
0.310000
 20
-1.228130
  0
VERTEX
  8
7
 62
     7
  6
CONTINUOUS
 10
0.298130
 20
-1.202732
  0
VERTEX
  8
7
 62
     7
  6
CONTINUOUS
 10
0.284563
 20
-1.172232
  0
VERTEX
  8
7
 62
     7
  6
CONTINUOUS
 10
0.271031
 20
-1.142598
  0
VERTEX
  8
7
 62
     7
  6
CONTINUOUS
 10
0.259165
 20
-1.116331
  0
VERTEX
  8
7
 62
     7
  6
CONTINUOUS
 10
0.250697
 20
-1.097697
  0
VERTEX
  8
7
 62
     7
  6
CONTINUOUS
 10
0.247299
 20
-1.090063
  0
VERTEX
  8
7
 62
     7
  6
CONTINUOUS
 10
0.245598
 20
-1.079898
  0
VERTEX
  8
7
 62
     7
  6
CONTINUOUS
 10
0.241366
 20
-1.051965
  0
VERTEX
  8
7
 62
     7
  6
CONTINUOUS
 10
0.234598
 20
-1.012130
  0
VERTEX
  8
7
 62
     7
  6
CONTINUOUS
 10
0.227831
 20
-0.967264
  0
VERTEX
  8
7
 62
     7
  6
CONTINUOUS
 10
0.220197
 20
-0.921531
  0
VERTEX
  8
7
 62
     7
  6
CONTINUOUS
 10
0.213433
 20
-0.881697
  0
VERTEX
  8
7
 62
     7
  6
CONTINUOUS
 10
0.209197
 20
-0.853764
  0
VERTEX
  8
7
 62
     7
  6
CONTINUOUS
 10
0.207500
 20
-0.842732
  0
VERTEX
  8
7
 62
     7
  6
CONTINUOUS
 10
0.204098
 20
-0.836831
  0
VERTEX
  8
7
 62
     7
  6
CONTINUOUS
 10
0.196500
 20
-0.821563
  0
VERTEX
  8
7
 62
     7
  6
CONTINUOUS
 10
0.184630
 20
-0.799563
  0
VERTEX
  8
7
 62
     7
  6
CONTINUOUS
 10
0.171933
 20
-0.775000
  0
VERTEX
  8
7
 62
     7
  6
CONTINUOUS
 10
0.159232
 20
-0.749563
  0
VERTEX
  8
7
 62
     7
  6
CONTINUOUS
 10
0.147366
 20
-0.727563
  0
VERTEX
  8
7
 62
     7
  6
CONTINUOUS
 10
0.139732
 20
-0.711465
  0
VERTEX
  8
7
 62
     7
  6
CONTINUOUS
 10
0.136366
 20
-0.705531
  0
VERTEX
  8
7
 62
     7
  6
CONTINUOUS
 10
0.132965
 20
-0.697898
  0
VERTEX
  8
7
 62
     7
  6
CONTINUOUS
 10
0.124500
 20
-0.676732
  0
VERTEX
  8
7
 62
     7
  6
CONTINUOUS
 10
0.112630
 20
-0.647098
  0
VERTEX
  8
7
 62
     7
  6
CONTINUOUS
 10
0.099063
 20
-0.613197
  0
VERTEX
  8
7
 62
     7
  6
CONTINUOUS
 10
0.085531
 20
-0.579331
  0
VERTEX
  8
7
 62
     7
  6
CONTINUOUS
 10
0.073665
 20
-0.549697
  0
VERTEX
  8
7
 62
     7
  6
CONTINUOUS
 10
0.065197
 20
-0.528500
  0
VERTEX
  8
7
 62
     7
  6
CONTINUOUS
 10
0.061799
 20
-0.520031
  0
VERTEX
  8
7
 62
     7
  6
CONTINUOUS
 10
0.058433
 20
-0.520031
  0
VERTEX
  8
7
 62
     7
  6
CONTINUOUS
 10
0.049098
 20
-0.520898
  0
VERTEX
  8
7
 62
     7
  6
CONTINUOUS
 10
0.036398
 20
-0.520898
  0
VERTEX
  8
7
 62
     7
  6
CONTINUOUS
 10
0.022000
 20
-0.520898
  0
VERTEX
  8
7
 62
     7
  6
CONTINUOUS
 10
0.007598
 20
-0.520898
  0
VERTEX
  8
7
 62
     7
  6
CONTINUOUS
 10
-0.005063
 20
-0.520898
  0
VERTEX
  8
7
 62
     7
  6
CONTINUOUS
 10
-0.014366
 20
-0.520031
  0
VERTEX
  8
7
 62
     7
  6
CONTINUOUS
 10
-0.017764
 20
-0.520031
  0
VERTEX
  8
7
 62
     7
  6
CONTINUOUS
 10
-0.022000
 20
-0.520031
  0
VERTEX
  8
7
 62
     7
  6
CONTINUOUS
 10
-0.033000
 20
-0.519197
  0
VERTEX
  8
7
 62
     7
  6
CONTINUOUS
 10
-0.048264
 20
-0.517500
  0
VERTEX
  8
7
 62
     7
  6
CONTINUOUS
 10
-0.066031
 20
-0.515799
  0
VERTEX
  8
7
 62
     7
  6
CONTINUOUS
 10
-0.083831
 20
-0.514098
  0
VERTEX
  8
7
 62
     7
  6
CONTINUOUS
 10
-0.099063
 20
-0.512433
  0
VERTEX
  8
7
 62
     7
  6
CONTINUOUS
 10
-0.110098
 20
-0.511563
  0
VERTEX
  8
7
 62
     7
  6
CONTINUOUS
 10
-0.114331
 20
-0.510732
  0
VERTEX
  8
7
 62
     7
  6
CONTINUOUS
 10
-0.116031
 20
-0.504799
  0
VERTEX
  8
7
 62
     7
  6
CONTINUOUS
 10
-0.120264
 20
-0.487866
  0
VERTEX
  8
7
 62
     7
  6
CONTINUOUS
 10
-0.127031
 20
-0.464130
  0
VERTEX
  8
7
 62
     7
  6
CONTINUOUS
 10
-0.133799
 20
-0.436197
  0
VERTEX
  8
7
 62
     7
  6
CONTINUOUS
 10
-0.141433
 20
-0.409098
  0
VERTEX
  8
7
 62
     7
  6
CONTINUOUS
 10
-0.148197
 20
-0.384531
  0
VERTEX
  8
7
 62
     7
  6
CONTINUOUS
 10
-0.152433
 20
-0.367563
  0
VERTEX
  8
7
 62
     7
  6
CONTINUOUS
 10
-0.154130
 20
-0.360799
  0
VERTEX
  8
7
 62
     7
  6
CONTINUOUS
 10
-0.152433
 20
-0.335398
  0
VERTEX
  8
7
 62
     7
  6
CONTINUOUS
 10
-0.149898
 20
-0.279500
  0
VERTEX
  8
7
 62
     7
  6
CONTINUOUS
 10
-0.147366
 20
-0.223598
  0
VERTEX
  8
7
 62
     7
  6
CONTINUOUS
 10
-0.145665
 20
-0.197331
  0
VERTEX
  8
7
 62
     7
  6
CONTINUOUS
 10
-0.146500
 20
-0.184630
  0
VERTEX
  8
7
 62
     7
  6
CONTINUOUS
 10
-0.147366
 20
-0.155831
  0
VERTEX
  8
7
 62
     7
  6
CONTINUOUS
 10
-0.149063
 20
-0.127031
  0
VERTEX
  8
7
 62
     7
  6
CONTINUOUS
 10
-0.149898
 20
-0.113465
  0
VERTEX
  8
7
 62
     7
  6
CONTINUOUS
 10
-0.152433
 20
-0.111799
  0
VERTEX
  8
7
 62
     7
  6
CONTINUOUS
 10
-0.160063
 20
-0.106697
  0
VERTEX
  8
7
 62
     7
  6
CONTINUOUS
 10
-0.171063
 20
-0.099933
  0
VERTEX
  8
7
 62
     7
  6
CONTINUOUS
 10
-0.182933
 20
-0.092299
  0
VERTEX
  8
7
 62
     7
  6
CONTINUOUS
 10
-0.194799
 20
-0.083831
  0
VERTEX
  8
7
 62
     7
  6
CONTINUOUS
 10
-0.205799
 20
-0.077063
  0
VERTEX
  8
7
 62
     7
  6
CONTINUOUS
 10
-0.213433
 20
-0.071965
  0
VERTEX
  8
7
 62
     7
  6
CONTINUOUS
 10
-0.215965
 20
-0.069433
  0
VERTEX
  8
7
 62
     7
  6
CONTINUOUS
 10
-0.217665
 20
-0.068598
  0
VERTEX
  8
7
 62
     7
  6
CONTINUOUS
 10
-0.221898
 20
-0.067732
  0
VERTEX
  8
7
 62
     7
  6
CONTINUOUS
 10
-0.228665
 20
-0.065197
  0
VERTEX
  8
7
 62
     7
  6
CONTINUOUS
 10
-0.237130
 20
-0.061799
  0
VERTEX
  8
7
 62
     7
  6
CONTINUOUS
 10
-0.248165
 20
-0.057563
  0
VERTEX
  8
7
 62
     7
  6
CONTINUOUS
 10
-0.259165
 20
-0.053331
  0
VERTEX
  8
7
 62
     7
  6
CONTINUOUS
 10
-0.271866
 20
-0.048264
  0
VERTEX
  8
7
 62
     7
  6
CONTINUOUS
 10
-0.284563
 20
-0.043165
  0
VERTEX
  8
7
 62
     7
  6
CONTINUOUS
 10
-0.297264
 20
-0.038098
  0
VERTEX
  8
7
 62
     7
  6
CONTINUOUS
 10
-0.310000
 20
-0.033866
  0
VERTEX
  8
7
 62
     7
  6
CONTINUOUS
 10
-0.321000
 20
-0.028764
  0
VERTEX
  8
7
 62
     7
  6
CONTINUOUS
 10
-0.332000
 20
-0.024531
  0
VERTEX
  8
7
 62
     7
  6
CONTINUOUS
 10
-0.340465
 20
-0.021165
  0
VERTEX
  8
7
 62
     7
  6
CONTINUOUS
 10
-0.347264
 20
-0.018630
  0
VERTEX
  8
7
 62
     7
  6
CONTINUOUS
 10
-0.351500
 20
-0.016933
  0
VERTEX
  8
7
 62
     7
  6
CONTINUOUS
 10
-0.353165
 20
-0.016063
  0
VERTEX
  8
7
 62
     7
  6
CONTINUOUS
 10
-0.358264
 20
-0.016063
  0
VERTEX
  8
7
 62
     7
  6
CONTINUOUS
 10
-0.370130
 20
-0.016063
  0
VERTEX
  8
7
 62
     7
  6
CONTINUOUS
 10
-0.387898
 20
-0.015232
  0
VERTEX
  8
7
 62
     7
  6
CONTINUOUS
 10
-0.408232
 20
-0.014366
  0
VERTEX
  8
7
 62
     7
  6
CONTINUOUS
 10
-0.428563
 20
-0.013531
  0
VERTEX
  8
7
 62
     7
  6
CONTINUOUS
 10
-0.446366
 20
-0.012697
  0
VERTEX
  8
7
 62
     7
  6
CONTINUOUS
 10
-0.458197
 20
-0.012697
  0
VERTEX
  8
7
 62
     7
  6
CONTINUOUS
 10
-0.463299
 20
-0.011831
  0
VERTEX
  8
7
 62
     7
  6
CONTINUOUS
 10
-0.467531
 20
-0.012697
  0
VERTEX
  8
7
 62
     7
  6
CONTINUOUS
 10
-0.479398
 20
-0.015232
  0
VERTEX
  8
7
 62
     7
  6
CONTINUOUS
 10
-0.495465
 20
-0.017764
  0
VERTEX
  8
7
 62
     7
  6
CONTINUOUS
 10
-0.514098
 20
-0.021165
  0
VERTEX
  8
7
 62
     7
  6
CONTINUOUS
 10
-0.532732
 20
-0.024531
  0
VERTEX
  8
7
 62
     7
  6
CONTINUOUS
 10
-0.548831
 20
-0.027098
  0
VERTEX
  8
7
 62
     7
  6
CONTINUOUS
 10
-0.560697
 20
-0.028764
  0
VERTEX
  8
7
 62
     7
  6
CONTINUOUS
 10
-0.564933
 20
-0.029630
  0
VERTEX
  8
7
 62
     7
  6
CONTINUOUS
 10
-0.566630
 20
-0.029630
  0
VERTEX
  8
7
 62
     7
  6
CONTINUOUS
 10
-0.570866
 20
-0.030465
  0
VERTEX
  8
7
 62
     7
  6
CONTINUOUS
 10
-0.577630
 20
-0.030465
  0
VERTEX
  8
7
 62
     7
  6
CONTINUOUS
 10
-0.586098
 20
-0.031331
  0
VERTEX
  8
7
 62
     7
  6
CONTINUOUS
 10
-0.596264
 20
-0.032165
  0
VERTEX
  8
7
 62
     7
  6
CONTINUOUS
 10
-0.608130
 20
-0.033000
  0
VERTEX
  8
7
 62
     7
  6
CONTINUOUS
 10
-0.620000
 20
-0.033866
  0
VERTEX
  8
7
 62
     7
  6
CONTINUOUS
 10
-0.632697
 20
-0.034697
  0
VERTEX
  8
7
 62
     7
  6
CONTINUOUS
 10
-0.646232
 20
-0.035563
  0
VERTEX
  8
7
 62
     7
  6
CONTINUOUS
 10
-0.658098
 20
-0.036398
  0
VERTEX
  8
7
 62
     7
  6
CONTINUOUS
 10
-0.669965
 20
-0.036398
  0
VERTEX
  8
7
 62
     7
  6
CONTINUOUS
 10
-0.680130
 20
-0.037264
  0
VERTEX
  8
7
 62
     7
  6
CONTINUOUS
 10
-0.688598
 20
-0.038098
  0
VERTEX
  8
7
 62
     7
  6
CONTINUOUS
 10
-0.695366
 20
-0.038098
  0
VERTEX
  8
7
 62
     7
  6
CONTINUOUS
 10
-0.699598
 20
-0.038098
  0
VERTEX
  8
7
 62
     7
  6
CONTINUOUS
 10
-0.701299
 20
-0.038098
  0
VERTEX
  8
7
 62
     7
  6
CONTINUOUS
 10
-0.703831
 20
-0.037264
  0
VERTEX
  8
7
 62
     7
  6
CONTINUOUS
 10
-0.711465
 20
-0.034697
  0
VERTEX
  8
7
 62
     7
  6
CONTINUOUS
 10
-0.722465
 20
-0.030465
  0
VERTEX
  8
7
 62
     7
  6
CONTINUOUS
 10
-0.734331
 20
-0.025398
  0
VERTEX
  8
7
 62
     7
  6
CONTINUOUS
 10
-0.746197
 20
-0.021165
  0
VERTEX
  8
7
 62
     7
  6
CONTINUOUS
 10
-0.757197
 20
-0.016063
  0
VERTEX
  8
7
 62
     7
  6
CONTINUOUS
 10
-0.764831
 20
-0.013531
  0
VERTEX
  8
7
 62
     7
  6
CONTINUOUS
 10
-0.767366
 20
-0.011831
  0
VERTEX
  8
7
 62
     7
  6
CONTINUOUS
 10
-0.768197
 20
-0.000831
  0
VERTEX
  8
7
 62
     7
  6
CONTINUOUS
 10
-0.769063
 20
0.022866
  0
VERTEX
  8
7
 62
     7
  6
CONTINUOUS
 10
-0.770764
 20
0.047398
  0
VERTEX
  8
7
 62
     7
  6
CONTINUOUS
 10
-0.771598
 20
0.059264
  0
VERTEX
  8
7
 62
     7
  6
CONTINUOUS
 10
-0.772433
 20
0.066031
  0
VERTEX
  8
7
 62
     7
  6
CONTINUOUS
 10
-0.774130
 20
0.080433
  0
VERTEX
  8
7
 62
     7
  6
CONTINUOUS
 10
-0.775831
 20
0.095697
  0
VERTEX
  8
7
 62
     7
  6
CONTINUOUS
 10
-0.776665
 20
0.103331
  0
VERTEX
  8
7
 62
     7
  6
CONTINUOUS
 10
-0.775000
 20
0.101630
  0
VERTEX
  8
7
 62
     7
  6
CONTINUOUS
 10
-0.771598
 20
0.098232
  0
VERTEX
  8
7
 62
     7
  6
CONTINUOUS
 10
-0.766531
 20
0.093165
  0
VERTEX
  8
7
 62
     7
  6
CONTINUOUS
 10
-0.760598
 20
0.087232
  0
VERTEX
  8
7
 62
     7
  6
CONTINUOUS
 10
-0.755500
 20
0.082130
  0
VERTEX
  8
7
 62
     7
  6
CONTINUOUS
 10
-0.750433
 20
0.077063
  0
VERTEX
  8
7
 62
     7
  6
CONTINUOUS
 10
-0.747031
 20
0.073665
  0
VERTEX
  8
7
 62
     7
  6
CONTINUOUS
 10
-0.745331
 20
0.072831
  0
VERTEX
  8
7
 62
     7
  6
CONTINUOUS
 10
-0.744500
 20
0.073665
  0
VERTEX
  8
7
 62
     7
  6
CONTINUOUS
 10
-0.741098
 20
0.077063
  0
VERTEX
  8
7
 62
     7
  6
CONTINUOUS
 10
-0.736866
 20
0.082130
  0
VERTEX
  8
7
 62
     7
  6
CONTINUOUS
 10
-0.731799
 20
0.087232
  0
VERTEX
  8
7
 62
     7
  6
CONTINUOUS
 10
-0.727563
 20
0.093165
  0
VERTEX
  8
7
 62
     7
  6
CONTINUOUS
 10
-0.723331
 20
0.098232
  0
VERTEX
  8
7
 62
     7
  6
CONTINUOUS
 10
-0.719933
 20
0.101630
  0
VERTEX
  8
7
 62
     7
  6
CONTINUOUS
 10
-0.719098
 20
0.103331
  0
VERTEX
  8
7
 62
     7
  6
CONTINUOUS
 10
-0.717398
 20
0.101630
  0
VERTEX
  8
7
 62
     7
  6
CONTINUOUS
 10
-0.712299
 20
0.098232
  0
VERTEX
  8
7
 62
     7
  6
CONTINUOUS
 10
-0.705531
 20
0.093165
  0
VERTEX
  8
7
 62
     7
  6
CONTINUOUS
 10
-0.697063
 20
0.087232
  0
VERTEX
  8
7
 62
     7
  6
CONTINUOUS
 10
-0.688598
 20
0.082130
  0
VERTEX
  8
7
 62
     7
  6
CONTINUOUS
 10
-0.681831
 20
0.077063
  0
VERTEX
  8
7
 62
     7
  6
CONTINUOUS
 10
-0.676732
 20
0.073665
  0
VERTEX
  8
7
 62
     7
  6
CONTINUOUS
 10
-0.675031
 20
0.072831
  0
VERTEX
  8
7
 62
     7
  6
CONTINUOUS
 10
-0.671665
 20
0.077063
  0
VERTEX
  8
7
 62
     7
  6
CONTINUOUS
 10
-0.661500
 20
0.088063
  0
VERTEX
  8
7
 62
     7
  6
CONTINUOUS
 10
-0.647098
 20
0.104165
  0
VERTEX
  8
7
 62
     7
  6
CONTINUOUS
 10
-0.631000
 20
0.122799
  0
VERTEX
  8
7
 62
     7
  6
CONTINUOUS
 10
-0.614898
 20
0.141433
  0
VERTEX
  8
7
 62
     7
  6
CONTINUOUS
 10
-0.600500
 20
0.158366
  0
VERTEX
  8
7
 62
     7
  6
CONTINUOUS
 10
-0.590331
 20
0.170232
  0
VERTEX
  8
7
 62
     7
  6
CONTINUOUS
 10
-0.586965
 20
0.174465
  0
VERTEX
  8
7
 62
     7
  6
CONTINUOUS
 10
-0.592031
 20
0.174465
  0
VERTEX
  8
7
 62
     7
  6
CONTINUOUS
 10
-0.604732
 20
0.176165
  0
VERTEX
  8
7
 62
     7
  6
CONTINUOUS
 10
-0.623366
 20
0.177866
  0
VERTEX
  8
7
 62
     7
  6
CONTINUOUS
 10
-0.643697
 20
0.180398
  0
VERTEX
  8
7
 62
     7
  6
CONTINUOUS
 10
-0.664866
 20
0.182933
  0
VERTEX
  8
7
 62
     7
  6
CONTINUOUS
 10
-0.683500
 20
0.184630
  0
VERTEX
  8
7
 62
     7
  6
CONTINUOUS
 10
-0.696232
 20
0.186331
  0
VERTEX
  8
7
 62
     7
  6
CONTINUOUS
 10
-0.701299
 20
0.187165
  0
VERTEX
  8
7
 62
     7
  6
CONTINUOUS
 10
-0.706366
 20
0.188031
  0
VERTEX
  8
7
 62
     7
  6
CONTINUOUS
 10
-0.719098
 20
0.190563
  0
VERTEX
  8
7
 62
     7
  6
CONTINUOUS
 10
-0.737732
 20
0.193933
  0
VERTEX
  8
7
 62
     7
  6
CONTINUOUS
 10
-0.758898
 20
0.197331
  0
VERTEX
  8
7
 62
     7
  6
CONTINUOUS
 10
-0.780063
 20
0.201563
  0
VERTEX
  8
7
 62
     7
  6
CONTINUOUS
 10
-0.798697
 20
0.204965
  0
VERTEX
  8
7
 62
     7
  6
CONTINUOUS
 10
-0.811398
 20
0.208331
  0
VERTEX
  8
7
 62
     7
  6
CONTINUOUS
 10
-0.816500
 20
0.209197
  0
VERTEX
  8
7
 62
     7
  6
CONTINUOUS
 10
-0.817331
 20
0.210898
  0
VERTEX
  8
7
 62
     7
  6
CONTINUOUS
 10
-0.820732
 20
0.216799
  0
VERTEX
  8
7
 62
     7
  6
CONTINUOUS
 10
-0.824965
 20
0.225299
  0
VERTEX
  8
7
 62
     7
  6
CONTINUOUS
 10
-0.829197
 20
0.235433
  0
VERTEX
  8
7
 62
     7
  6
CONTINUOUS
 10
-0.834264
 20
0.244764
  0
VERTEX
  8
7
 62
     7
  6
CONTINUOUS
 10
-0.838500
 20
0.253232
  0
VERTEX
  8
7
 62
     7
  6
CONTINUOUS
 10
-0.841898
 20
0.259165
  0
VERTEX
  8
7
 62
     7
  6
CONTINUOUS
 10
-0.842732
 20
0.261697
  0
SEQEND
  8
0
  0
POLYLINE
  8
7
 62
     7
  6
CONTINUOUS
 66
     1
 40
0.003000
 41
0.003000
  0
VERTEX
  8
7
 62
     7
  6
CONTINUOUS
 10
-0.670799
 20
0.066031
  0
VERTEX
  8
7
 62
     7
  6
CONTINUOUS
 10
-0.498866
 20
0.066031
  0
VERTEX
  8
7
 62
     7
  6
CONTINUOUS
 10
-0.387898
 20
0.137197
  0
VERTEX
  8
7
 62
     7
  6
CONTINUOUS
 10
-0.387898
 20
0.189697
  0
VERTEX
  8
7
 62
     7
  6
CONTINUOUS
 10
-0.467531
 20
0.203264
  0
VERTEX
  8
7
 62
     7
  6
CONTINUOUS
 10
-0.569165
 20
0.172764
  0
SEQEND
  8
0
  0
POLYLINE
  8
7
 62
     7
  6
CONTINUOUS
 66
     1
 40
0.003000
 41
0.003000
  0
VERTEX
  8
7
 62
     7
  6
CONTINUOUS
 10
-0.260866
 20
0.587799
  0
VERTEX
  8
7
 62
     7
  6
CONTINUOUS
 10
-0.348098
 20
0.558165
  0
VERTEX
  8
7
 62
     7
  6
CONTINUOUS
 10
-0.418398
 20
0.559000
  0
VERTEX
  8
7
 62
     7
  6
CONTINUOUS
 10
-0.422630
 20
0.556465
  0
VERTEX
  8
7
 62
     7
  6
CONTINUOUS
 10
-0.433630
 20
0.548831
  0
VERTEX
  8
7
 62
     7
  6
CONTINUOUS
 10
-0.449732
 20
0.538665
  0
VERTEX
  8
7
 62
     7
  6
CONTINUOUS
 10
-0.467531
 20
0.527665
  0
VERTEX
  8
7
 62
     7
  6
CONTINUOUS
 10
-0.485299
 20
0.515799
  0
VERTEX
  8
7
 62
     7
  6
CONTINUOUS
 10
-0.500563
 20
0.506500
  0
VERTEX
  8
7
 62
     7
  6
CONTINUOUS
 10
-0.510732
 20
0.499697
  0
VERTEX
  8
7
 62
     7
  6
CONTINUOUS
 10
-0.514965
 20
0.497165
  0
VERTEX
  8
7
 62
     7
  6
CONTINUOUS
 10
-0.516665
 20
0.486165
  0
VERTEX
  8
7
 62
     7
  6
CONTINUOUS
 10
-0.520031
 20
0.463299
  0
VERTEX
  8
7
 62
     7
  6
CONTINUOUS
 10
-0.523433
 20
0.440433
  0
VERTEX
  8
7
 62
     7
  6
CONTINUOUS
 10
-0.524264
 20
0.430264
  0
VERTEX
  8
7
 62
     7
  6
CONTINUOUS
 10
-0.521732
 20
0.418398
  0
VERTEX
  8
7
 62
     7
  6
CONTINUOUS
 10
-0.515799
 20
0.392130
  0
VERTEX
  8
7
 62
     7
  6
CONTINUOUS
 10
-0.509866
 20
0.366732
  0
VERTEX
  8
7
 62
     7
  6
CONTINUOUS
 10
-0.506500
 20
0.355732
  0
VERTEX
  8
7
 62
     7
  6
CONTINUOUS
 10
-0.503098
 20
0.354031
  0
VERTEX
  8
7
 62
     7
  6
CONTINUOUS
 10
-0.492098
 20
0.350630
  0
VERTEX
  8
7
 62
     7
  6
CONTINUOUS
 10
-0.477697
 20
0.345563
  0
VERTEX
  8
7
 62
     7
  6
CONTINUOUS
 10
-0.460764
 20
0.339630
  0
VERTEX
  8
7
 62
     7
  6
CONTINUOUS
 10
-0.443799
 20
0.333697
  0
VERTEX
  8
7
 62
     7
  6
CONTINUOUS
 10
-0.428563
 20
0.328630
  0
VERTEX
  8
7
 62
     7
  6
CONTINUOUS
 10
-0.417563
 20
0.325232
  0
VERTEX
  8
7
 62
     7
  6
CONTINUOUS
 10
-0.413331
 20
0.324398
  0
VERTEX
  8
7
 62
     7
  6
CONTINUOUS
 10
-0.409933
 20
0.326063
  0
VERTEX
  8
7
 62
     7
  6
CONTINUOUS
 10
-0.399764
 20
0.332000
  0
VERTEX
  8
7
 62
     7
  6
CONTINUOUS
 10
-0.384531
 20
0.340465
  0
VERTEX
  8
7
 62
     7
  6
CONTINUOUS
 10
-0.367563
 20
0.350630
  0
VERTEX
  8
7
 62
     7
  6
CONTINUOUS
 10
-0.350630
 20
0.359965
  0
VERTEX
  8
7
 62
     7
  6
CONTINUOUS
 10
-0.336232
 20
0.369264
  0
VERTEX
  8
7
 62
     7
  6
CONTINUOUS
 10
-0.325232
 20
0.375197
  0
VERTEX
  8
7
 62
     7
  6
CONTINUOUS
 10
-0.321000
 20
0.377732
  0
VERTEX
  8
7
 62
     7
  6
CONTINUOUS
 10
-0.317598
 20
0.378598
  0
VERTEX
  8
7
 62
     7
  6
CONTINUOUS
 10
-0.308299
 20
0.381965
  0
VERTEX
  8
7
 62
     7
  6
CONTINUOUS
 10
-0.295598
 20
0.387063
  0
VERTEX
  8
7
 62
     7
  6
CONTINUOUS
 10
-0.280331
 20
0.392130
  0
VERTEX
  8
7
 62
     7
  6
CONTINUOUS
 10
-0.265098
 20
0.398063
  0
VERTEX
  8
7
 62
     7
  6
CONTINUOUS
 10
-0.251531
 20
0.403165
  0
VERTEX
  8
7
 62
     7
  6
CONTINUOUS
 10
-0.242232
 20
0.406531
  0
VERTEX
  8
7
 62
     7
  6
CONTINUOUS
 10
-0.238831
 20
0.408232
  0
VERTEX
  8
7
 62
     7
  6
CONTINUOUS
 10
-0.239697
 20
0.402299
  0
VERTEX
  8
7
 62
     7
  6
CONTINUOUS
 10
-0.243063
 20
0.387063
  0
VERTEX
  8
7
 62
     7
  6
CONTINUOUS
 10
-0.246465
 20
0.365898
  0
VERTEX
  8
7
 62
     7
  6
CONTINUOUS
 10
-0.251531
 20
0.341331
  0
VERTEX
  8
7
 62
     7
  6
CONTINUOUS
 10
-0.255764
 20
0.317598
  0
VERTEX
  8
7
 62
     7
  6
CONTINUOUS
 10
-0.260000
 20
0.296433
  0
VERTEX
  8
7
 62
     7
  6
CONTINUOUS
 10
-0.262563
 20
0.281197
  0
VERTEX
  8
7
 62
     7
  6
CONTINUOUS
 10
-0.263398
 20
0.276098
  0
VERTEX
  8
7
 62
     7
  6
CONTINUOUS
 10
-0.264232
 20
0.259165
  0
VERTEX
  8
7
 62
     7
  6
CONTINUOUS
 10
-0.264232
 20
0.221898
  0
VERTEX
  8
7
 62
     7
  6
CONTINUOUS
 10
-0.264232
 20
0.185465
  0
VERTEX
  8
7
 62
     7
  6
CONTINUOUS
 10
-0.263398
 20
0.169398
  0
VERTEX
  8
7
 62
     7
  6
CONTINUOUS
 10
-0.259165
 20
0.164299
  0
VERTEX
  8
7
 62
     7
  6
CONTINUOUS
 10
-0.248165
 20
0.151598
  0
VERTEX
  8
7
 62
     7
  6
CONTINUOUS
 10
-0.232063
 20
0.133799
  0
VERTEX
  8
7
 62
     7
  6
CONTINUOUS
 10
-0.214264
 20
0.113465
  0
VERTEX
  8
7
 62
     7
  6
CONTINUOUS
 10
-0.195630
 20
0.093165
  0
VERTEX
  8
7
 62
     7
  6
CONTINUOUS
 10
-0.179531
 20
0.076197
  0
VERTEX
  8
7
 62
     7
  6
CONTINUOUS
 10
-0.168531
 20
0.063500
  0
VERTEX
  8
7
 62
     7
  6
CONTINUOUS
 10
-0.164299
 20
0.059264
  0
VERTEX
  8
7
 62
     7
  6
CONTINUOUS
 10
-0.160063
 20
0.053331
  0
VERTEX
  8
7
 62
     7
  6
CONTINUOUS
 10
-0.147366
 20
0.037264
  0
VERTEX
  8
7
 62
     7
  6
CONTINUOUS
 10
-0.130433
 20
0.015232
  0
VERTEX
  8
7
 62
     7
  6
CONTINUOUS
 10
-0.110933
 20
-0.010130
  0
VERTEX
  8
7
 62
     7
  6
CONTINUOUS
 10
-0.092299
 20
-0.034697
  0
VERTEX
  8
7
 62
     7
  6
CONTINUOUS
 10
-0.075366
 20
-0.056732
  0
VERTEX
  8
7
 62
     7
  6
CONTINUOUS
 10
-0.062665
 20
-0.071965
  0
VERTEX
  8
7
 62
     7
  6
CONTINUOUS
 10
-0.058433
 20
-0.077898
  0
VERTEX
  8
7
 62
     7
  6
CONTINUOUS
 10
-0.054197
 20
-0.076197
  0
VERTEX
  8
7
 62
     7
  6
CONTINUOUS
 10
-0.041500
 20
-0.071130
  0
VERTEX
  8
7
 62
     7
  6
CONTINUOUS
 10
-0.024531
 20
-0.064366
  0
VERTEX
  8
7
 62
     7
  6
CONTINUOUS
 10
-0.005063
 20
-0.056732
  0
VERTEX
  8
7
 62
     7
  6
CONTINUOUS
 10
0.013531
 20
-0.048264
  0
VERTEX
  8
7
 62
     7
  6
CONTINUOUS
 10
0.030465
 20
-0.041500
  0
VERTEX
  8
7
 62
     7
  6
CONTINUOUS
 10
0.043165
 20
-0.036398
  0
VERTEX
  8
7
 62
     7
  6
CONTINUOUS
 10
0.047398
 20
-0.033866
  0
VERTEX
  8
7
 62
     7
  6
CONTINUOUS
 10
0.051665
 20
-0.026232
  0
VERTEX
  8
7
 62
     7
  6
CONTINUOUS
 10
0.061799
 20
-0.005063
  0
VERTEX
  8
7
 62
     7
  6
CONTINUOUS
 10
0.077063
 20
0.024531
  0
VERTEX
  8
7
 62
     7
  6
CONTINUOUS
 10
0.094000
 20
0.058433
  0
VERTEX
  8
7
 62
     7
  6
CONTINUOUS
 10
0.110933
 20
0.092299
  0
VERTEX
  8
7
 62
     7
  6
CONTINUOUS
 10
0.126197
 20
0.121965
  0
VERTEX
  8
7
 62
     7
  6
CONTINUOUS
 10
0.136366
 20
0.143130
  0
VERTEX
  8
7
 62
     7
  6
CONTINUOUS
 10
0.140598
 20
0.151598
  0
VERTEX
  8
7
 62
     7
  6
CONTINUOUS
 10
0.142264
 20
0.158366
  0
VERTEX
  8
7
 62
     7
  6
CONTINUOUS
 10
0.146500
 20
0.177000
  0
VERTEX
  8
7
 62
     7
  6
CONTINUOUS
 10
0.151598
 20
0.203264
  0
VERTEX
  8
7
 62
     7
  6
CONTINUOUS
 10
0.158366
 20
0.232898
  0
VERTEX
  8
7
 62
     7
  6
CONTINUOUS
 10
0.165130
 20
0.263398
  0
VERTEX
  8
7
 62
     7
  6
CONTINUOUS
 10
0.170232
 20
0.289665
  0
VERTEX
  8
7
 62
     7
  6
CONTINUOUS
 10
0.174465
 20
0.308299
  0
VERTEX
  8
7
 62
     7
  6
CONTINUOUS
 10
0.176165
 20
0.315063
  0
SEQEND
  8
0
  0
POLYLINE
  8
7
 62
     7
  6
CONTINUOUS
 66
     1
 40
0.003000
 41
0.003000
 70
     1
  0
VERTEX
  8
7
 62
     7
  6
CONTINUOUS
 10
-0.427732
 20
0.397232
  0
VERTEX
  8
7
 62
     7
  6
CONTINUOUS
 10
-0.420933
 20
0.396366
  0
VERTEX
  8
7
 62
     7
  6
CONTINUOUS
 10
-0.414165
 20
0.396366
  0
VERTEX
  8
7
 62
     7
  6
CONTINUOUS
 10
-0.407398
 20
0.395531
  0
VERTEX
  8
7
 62
     7
  6
CONTINUOUS
 10
-0.402299
 20
0.395531
  0
VERTEX
  8
7
 62
     7
  6
CONTINUOUS
 10
-0.398063
 20
0.394697
  0
VERTEX
  8
7
 62
     7
  6
CONTINUOUS
 10
-0.393831
 20
0.394697
  0
VERTEX
  8
7
 62
     7
  6
CONTINUOUS
 10
-0.392130
 20
0.394697
  0
VERTEX
  8
7
 62
     7
  6
CONTINUOUS
 10
-0.391299
 20
0.394697
  0
VERTEX
  8
7
 62
     7
  6
CONTINUOUS
 10
-0.390465
 20
0.395531
  0
VERTEX
  8
7
 62
     7
  6
CONTINUOUS
 10
-0.390465
 20
0.396366
  0
VERTEX
  8
7
 62
     7
  6
CONTINUOUS
 10
-0.389598
 20
0.397232
  0
SEQEND
  8
0
  0
POLYLINE
  8
7
 62
     7
  6
CONTINUOUS
 66
     1
 40
0.003000
 41
0.003000
 70
     1
  0
VERTEX
  8
7
 62
     7
  6
CONTINUOUS
 10
-0.480232
 20
0.459063
  0
VERTEX
  8
7
 62
     7
  6
CONTINUOUS
 10
-0.418398
 20
0.472598
  0
VERTEX
  8
7
 62
     7
  6
CONTINUOUS
 10
-0.365031
 20
0.448031
  0
VERTEX
  8
7
 62
     7
  6
CONTINUOUS
 10
-0.365898
 20
0.445500
  0
VERTEX
  8
7
 62
     7
  6
CONTINUOUS
 10
-0.369264
 20
0.439563
  0
VERTEX
  8
7
 62
     7
  6
CONTINUOUS
 10
-0.373500
 20
0.430264
  0
VERTEX
  8
7
 62
     7
  6
CONTINUOUS
 10
-0.377732
 20
0.420933
  0
VERTEX
  8
7
 62
     7
  6
CONTINUOUS
 10
-0.382831
 20
0.410764
  0
VERTEX
  8
7
 62
     7
  6
CONTINUOUS
 10
-0.387063
 20
0.402299
  0
VERTEX
  8
7
 62
     7
  6
CONTINUOUS
 10
-0.390465
 20
0.396366
  0
VERTEX
  8
7
 62
     7
  6
CONTINUOUS
 10
-0.391299
 20
0.394697
  0
VERTEX
  8
7
 62
     7
  6
CONTINUOUS
 10
-0.395531
 20
0.394697
  0
VERTEX
  8
7
 62
     7
  6
CONTINUOUS
 10
-0.404831
 20
0.395531
  0
VERTEX
  8
7
 62
     7
  6
CONTINUOUS
 10
-0.419232
 20
0.396366
  0
VERTEX
  8
7
 62
     7
  6
CONTINUOUS
 10
-0.435331
 20
0.398063
  0
VERTEX
  8
7
 62
     7
  6
CONTINUOUS
 10
-0.452264
 20
0.399764
  0
VERTEX
  8
7
 62
     7
  6
CONTINUOUS
 10
-0.466665
 20
0.401465
  0
VERTEX
  8
7
 62
     7
  6
CONTINUOUS
 10
-0.476000
 20
0.402299
  0
VERTEX
  8
7
 62
     7
  6
CONTINUOUS
 10
-0.480232
 20
0.403165
  0
VERTEX
  8
7
 62
     7
  6
CONTINUOUS
 10
-0.481933
 20
0.404000
  0
VERTEX
  8
7
 62
     7
  6
CONTINUOUS
 10
-0.486165
 20
0.406531
  0
VERTEX
  8
7
 62
     7
  6
CONTINUOUS
 10
-0.492933
 20
0.410764
  0
VERTEX
  8
7
 62
     7
  6
CONTINUOUS
 10
-0.499697
 20
0.415866
  0
VERTEX
  8
7
 62
     7
  6
CONTINUOUS
 10
-0.506500
 20
0.420933
  0
VERTEX
  8
7
 62
     7
  6
CONTINUOUS
 10
-0.513264
 20
0.425165
  0
VERTEX
  8
7
 62
     7
  6
CONTINUOUS
 10
-0.517500
 20
0.428563
  0
VERTEX
  8
7
 62
     7
  6
CONTINUOUS
 10
-0.519197
 20
0.429398
  0
VERTEX
  8
7
 62
     7
  6
CONTINUOUS
 10
-0.517500
 20
0.431098
  0
VERTEX
  8
7
 62
     7
  6
CONTINUOUS
 10
-0.512433
 20
0.433630
  0
VERTEX
  8
7
 62
     7
  6
CONTINUOUS
 10
-0.505630
 20
0.438732
  0
VERTEX
  8
7
 62
     7
  6
CONTINUOUS
 10
-0.498031
 20
0.444665
  0
VERTEX
  8
7
 62
     7
  6
CONTINUOUS
 10
-0.490398
 20
0.449732
  0
VERTEX
  8
7
 62
     7
  6
CONTINUOUS
 10
-0.484465
 20
0.454831
  0
VERTEX
  8
7
 62
     7
  6
CONTINUOUS
 10
-0.481063
 20
0.457366
  0
SEQEND
  8
0
  0
POLYLINE
  8
7
 62
     7
  6
CONTINUOUS
 66
     1
 40
0.003000
 41
0.003000
  0
VERTEX
  8
7
 62
     7
  6
CONTINUOUS
 10
2.611299
 20
-1.860831
  0
VERTEX
  8
7
 62
     7
  6
CONTINUOUS
 10
2.573165
 20
-1.728697
  0
VERTEX
  8
7
 62
     7
  6
CONTINUOUS
 10
2.516433
 20
-1.582165
  0
VERTEX
  8
7
 62
     7
  6
CONTINUOUS
 10
2.514732
 20
-1.579630
  0
VERTEX
  8
7
 62
     7
  6
CONTINUOUS
 10
2.511331
 20
-1.572866
  0
VERTEX
  8
7
 62
     7
  6
CONTINUOUS
 10
2.506264
 20
-1.563531
  0
VERTEX
  8
7
 62
     7
  6
CONTINUOUS
 10
2.500331
 20
-1.553366
  0
VERTEX
  8
7
 62
     7
  6
CONTINUOUS
 10
2.494398
 20
-1.543232
  0
VERTEX
  8
7
 62
     7
  6
CONTINUOUS
 10
2.489299
 20
-1.533898
  0
VERTEX
  8
7
 62
     7
  6
CONTINUOUS
 10
2.485933
 20
-1.527130
  0
VERTEX
  8
7
 62
     7
  6
CONTINUOUS
 10
2.484232
 20
-1.524563
  0
SEQEND
  8
0
  0
POLYLINE
  8
7
 62
     7
  6
CONTINUOUS
 66
     1
 40
0.003000
 41
0.003000
  0
VERTEX
  8
7
 62
     7
  6
CONTINUOUS
 10
1.504264
 20
-0.826665
  0
VERTEX
  8
7
 62
     7
  6
CONTINUOUS
 10
1.782063
 20
-0.693665
  0
SEQEND
  8
0
  0
POLYLINE
  8
7
 62
     7
  6
CONTINUOUS
 66
     1
 40
0.003000
 41
0.003000
  0
VERTEX
  8
7
 62
     7
  6
CONTINUOUS
 10
0.824965
 20
-0.760598
  0
VERTEX
  8
7
 62
     7
  6
CONTINUOUS
 10
0.661500
 20
-1.056197
  0
SEQEND
  8
0
  0
POLYLINE
  8
7
 62
     7
  6
CONTINUOUS
 66
     1
 40
0.003000
 41
0.003000
  0
VERTEX
  8
7
 62
     7
  6
CONTINUOUS
 10
0.204098
 20
-0.714866
  0
VERTEX
  8
7
 62
     7
  6
CONTINUOUS
 10
0.199031
 20
-0.419232
  0
VERTEX
  8
7
 62
     7
  6
CONTINUOUS
 10
0.247299
 20
-0.243063
  0
VERTEX
  8
7
 62
     7
  6
CONTINUOUS
 10
0.143130
 20
-0.405697
  0
VERTEX
  8
7
 62
     7
  6
CONTINUOUS
 10
0.138898
 20
-0.411630
  0
VERTEX
  8
7
 62
     7
  6
CONTINUOUS
 10
0.127866
 20
-0.426866
  0
VERTEX
  8
7
 62
     7
  6
CONTINUOUS
 10
0.112630
 20
-0.448031
  0
VERTEX
  8
7
 62
     7
  6
CONTINUOUS
 10
0.095697
 20
-0.472598
  0
VERTEX
  8
7
 62
     7
  6
CONTINUOUS
 10
0.078764
 20
-0.497165
  0
VERTEX
  8
7
 62
     7
  6
CONTINUOUS
 10
0.063500
 20
-0.518331
  0
VERTEX
  8
7
 62
     7
  6
CONTINUOUS
 10
0.053331
 20
-0.533598
  0
VERTEX
  8
7
 62
     7
  6
CONTINUOUS
 10
0.049098
 20
-0.539531
  0
SEQEND
  8
0
  0
POLYLINE
  8
7
 62
     7
  6
CONTINUOUS
 66
     1
 40
0.003000
 41
0.003000
  0
VERTEX
  8
7
 62
     7
  6
CONTINUOUS
 10
-0.873232
 20
0.344697
  0
VERTEX
  8
7
 62
     7
  6
CONTINUOUS
 10
-0.785165
 20
0.354031
  0
SEQEND
  8
0
  0
POLYLINE
  8
7
 62
    39
  6
CONTINUOUS
 66
     1
 40
0.003000
 41
0.003000
  0
VERTEX
  8
7
 62
    39
  6
CONTINUOUS
 10
-0.479248
 20
0.456961
  0
VERTEX
  8
7
 62
    39
  6
CONTINUOUS
 10
-0.366807
 20
0.446764
  0
SEQEND
  8
0
  0
POLYLINE
  8
7
 62
    39
  6
CONTINUOUS
 66
     1
 40
0.003000
 41
0.003000
  0
VERTEX
  8
7
 62
    39
  6
CONTINUOUS
 10
-0.501209
 20
0.440240
  0
VERTEX
  8
7
 62
    39
  6
CONTINUOUS
 10
-0.373720
 20
0.431472
  0
SEQEND
  8
0
  0
POLYLINE
  8
7
 62
    39
  6
CONTINUOUS
 66
     1
 40
0.003000
 41
0.003000
  0
VERTEX
  8
7
 62
    39
  6
CONTINUOUS
 10
-0.513205
 20
0.425760
  0
VERTEX
  8
7
 62
    39
  6
CONTINUOUS
 10
-0.383890
 20
0.412303
  0
SEQEND
  8
0
  0
ENDSEC
  0
EOF
