0
SECTION
2
HEADER
9
$LTSCALE
40
20.0000000
9
$LIMMIN
10
0.0000000
20
0.0000000
9
$LIMMAX
10
297.0000000
20
210.0000000
9
$EXTMIN
10
9.8306103
20
10.3086014
9
$EXTMAX
10
83.7815247
20
100.6805649
9
$SNAPMODE
70
0
9
$SNAPUNIT
10
10.0000000
20
10.0000000
9
$GRIDMODE
70
0
9
$GRIDUNIT
10
10.0000000
20
10.0000000
9
$ORTHOMODE
70
0
9
$TEXTSTYLE
7
txt
9
$CLAYER
8
1
9
$CECOLOR
62
7
9
$CELTYPE
6
CONTINUOUS
9
$PLINEWID
40
0.0000000
9
$OSMODE
70
0
9
$FILLMODE
70
0
9
$CHAMFERA
40
10.0000000
9
$CHAMFERB
40
10.0000000
9
$COORDS
70
1
9
$FILLETRAD
40
10.0000000
9
$INSBASE
10
0.0000000
20
0.0000000
9
$SPLFRAME
70
0
9
$SPLINESEGS
70
8
0
ENDSEC
0
SECTION
2
TABLES
0
TABLE
2
LTYPE
70
9
0
LTYPE
2
DISCONTINUE
70
0
3
__ __ __ __ __ __ __ __ __ __ __ __ __ __ __
72
65
73
2
40
0.7500000
49
0.5000000
49
-0.2500000
0
LTYPE
2
CACHE
70
0
3
_ _ _ _ _ _ _ _ _ _ _ _ _ _ _ _ _ _ _ _ _ _ 
72
65
73
2
40
0.2500000
49
0.1250000
49
-0.1250000
0
LTYPE
2
AXES
70
0
3
____ _ ____ _ ____ _ ____ _ ____ _ ____ _ __
72
65
73
4
40
2.0000000
49
1.2500000
49
-0.2500000
49
0.2500000
49
-0.2500000
0
LTYPE
2
FANTOME
70
0
3
_____ _ _ _____ _ _ _____ _ _ _____ _ _ ____
72
65
73
6
40
2.5000000
49
1.2500000
49
-0.2500000
49
0.2500000
49
-0.2500000
49
0.2500000
49
-0.2500000
0
LTYPE
2
POINTILLE
70
0
3
............................................
72
65
73
2
40
0.2500000
49
0.0000000
49
-0.2500000
0
LTYPE
2
MIXTE
70
0
3
__ . __ . __ . __ . __ . __ . __ . __ . __ .
72
65
73
4
40
1.0000000
49
0.5000000
49
-0.2500000
49
0.0000000
49
-0.2500000
0
LTYPE
2
BORDURE
70
0
3
__ __ . __ __ . __ __ . __ __ . __ __ . __ _
72
65
73
6
40
1.7500000
49
0.5000000
49
-0.2500000
49
0.5000000
49
-0.2500000
49
0.0000000
49
-0.2500000
0
LTYPE
2
DIVISE
70
0
3
__ . . __ . . __ . . __ . . __ . . __ . . __
72
65
73
6
40
1.2500000
49
0.5000000
49
-0.2500000
49
0.0000000
49
-0.2500000
49
0.0000000
49
-0.2500000
0
LTYPE
2
POINTILLES
70
0
3
fermer
72
65
73
2
40
0.1000000
49
0.0500000
49
-0.0500000
0
ENDTAB
0
TABLE
2
STYLE
70
1
0
STYLE
2
STANDARD
70
0
40
0.0000000
41
1.0000000
50
0.0000000
71
0
42
0.2000000
3
txt
4

0
ENDTAB
0
TABLE
2
LAYER
70
10
0
LAYER
2
1
70
0
62
7
6
CONTINUOUS
0
LAYER
2
2
70
0
62
7
6
CONTINUOUS
0
LAYER
2
3
70
0
62
7
6
CONTINUOUS
0
LAYER
2
4
70
0
62
7
6
CONTINUOUS
0
LAYER
2
5
70
0
62
7
6
CONTINUOUS
0
LAYER
2
6
70
0
62
7
6
CONTINUOUS
0
LAYER
2
7
70
0
62
7
6
CONTINUOUS
0
LAYER
2
8
70
0
62
7
6
CONTINUOUS
0
LAYER
2
9
70
0
62
7
6
CONTINUOUS
0
LAYER
2
10
70
0
62
7
6
CONTINUOUS
0
ENDTAB
0
ENDSEC
0
SECTION
2
BLOCKS
0
BLOCK
8
0
2
SKETCH-G1
70
0
10
0.0000000
20
0.0000000
0
ARC
8
10
62
7
10
13.5456009
20
12.2629032
40
1.9644868
50
279.7906124
51
353.9199942
0
ARC
8
10
62
7
10
13.6523314
20
11.7200289
40
1.4114271
50
195.4748094
51
279.2688406
0
LINE
8
10
62
7
10
52.1893387
20
22.2691326
11
43.7507973
21
19.7735558
0
LINE
8
10
62
7
10
52.6056938
20
20.7407379
11
43.3344650
21
17.9988575
0
ARC
8
10
62
7
10
61.7345314
20
-6.4841247
40
41.1886406
50
104.7850125
51
126.8423639
0
ARC
8
10
62
7
10
61.7345314
20
-9.7779732
40
41.1886406
50
104.7850193
51
126.8423639
0
ARC
8
10
62
7
10
61.7345314
20
-13.0717678
40
41.1886406
50
104.7850125
51
126.8423639
0
ARC
8
10
62
7
10
61.7345314
20
-16.3655910
40
41.1886406
50
104.7850193
51
126.8423639
0
ARC
8
10
62
7
10
15.7247171
20
17.6656609
40
3.3032954
50
134.7520781
51
241.1305123
0
ARC
8
10
62
7
10
14.4065332
20
15.8356667
40
0.1738122
50
200.1019074
51
42.7417802
0
ARC
8
10
62
7
10
16.3739414
20
17.6791229
40
3.7802057
50
110.3127119
51
141.9023026
0
ARC
8
10
62
7
10
12.5797653
20
25.8140812
40
5.0397663
50
356.8456101
51
29.4609384
0
ARC
8
10
62
7
10
16.6800613
20
28.1697807
40
0.3129788
50
23.1460972
51
144.8061029
0
ARC
8
10
62
7
10
16.6035824
20
27.0218525
40
0.2522982
50
13.4337339
51
138.9799652
0
ARC
8
10
62
7
10
25.5187798
20
19.5590019
40
12.6488953
50
135.9717314
51
140.3874760
0
ARC
8
10
62
7
10
10.9487295
20
26.4546185
40
6.7260976
50
312.5720780
51
352.1567399
0
ARC
8
10
62
7
10
20.6056576
20
24.3898029
40
5.8137808
50
146.2014833
51
196.1826356
0
ARC
8
10
62
7
10
19.4005032
20
24.5194950
40
4.0051990
50
138.2318273
51
168.0502202
0
ARC
8
10
62
7
10
18.7110214
20
24.4159641
40
3.3609788
50
163.8861954
51
202.1756485
0
ARC
8
10
62
7
10
14.6544628
20
25.2753983
40
2.3280878
50
293.9265085
51
345.3360037
0
ARC
8
10
62
7
10
14.1320868
20
25.8170300
40
2.9962857
50
337.8231781
51
24.9400020
0
ARC
8
10
62
7
10
17.3120899
20
17.7433586
40
5.5231538
50
114.4935731
51
174.3209349
0
ARC
8
10
62
7
10
15.8129568
20
17.7666264
40
4.0310307
50
172.5409057
51
233.7984135
0
LINE
8
10
62
7
10
14.0316038
20
16.7487450
11
14.5341682
21
15.9536247
0
ARC
8
10
62
7
10
15.4789972
20
17.1387634
40
1.3782294
50
353.1222008
51
89.1671019
0
ARC
8
10
62
7
10
14.6891851
20
16.7289085
40
2.1719539
50
291.8923962
51
6.4716499
0
ARC
8
10
62
7
10
14.8977699
20
15.9800911
40
1.4307566
50
237.5384338
51
276.5776914
0
LINE
8
10
62
7
10
15.4990387
20
14.7135963
11
15.4990387
21
18.5168400
0
ARC
8
10
62
7
10
15.2412796
20
17.2639351
40
1.3148310
50
97.8520221
51
203.0688460
0
LINE
8
10
62
7
10
15.0616760
20
18.5664463
11
15.0616760
21
14.5587587
0
ARC
8
10
62
7
10
14.7351332
20
16.2976418
40
2.2090633
50
233.8537653
51
278.5006082
0
ARC
8
10
62
7
10
14.2861633
20
17.2230148
40
3.2501838
50
291.9111929
51
354.7370214
0
ARC
8
10
62
7
10
13.0791807
20
12.4137535
40
0.9485376
50
40.6386728
51
139.3613220
0
ARC
8
10
62
7
10
12.9529419
20
12.3809624
40
1.0672319
50
312.7838685
51
37.5593844
0
ARC
8
10
62
7
10
12.9908905
20
12.4137793
40
1.0666983
50
269.3683721
51
310.0891950
0
ARC
8
10
62
7
10
14.1537018
20
12.1145668
40
2.0150075
50
152.9309954
51
202.5001235
0
ARC
8
10
62
7
10
13.6436949
20
11.5525417
40
0.6955790
50
197.1761413
51
281.7628705
0
ARC
8
10
62
7
10
13.7588081
20
12.1801500
40
1.3088620
50
271.1673347
51
354.5053414
0
LINE
8
10
62
7
10
15.0616760
20
14.1128616
11
15.0616760
21
12.0548267
0
LINE
8
10
62
7
10
15.4990387
20
14.2076035
11
15.4990387
21
12.0548267
0
ARC
8
10
62
7
10
15.0575609
20
17.3223534
40
2.4969218
50
350.8405078
51
79.8162246
0
LINE
8
10
62
7
10
15.4990387
20
19.7799568
11
15.4990387
21
21.5013409
0
LINE
8
10
62
7
10
15.0616760
20
19.8029957
11
15.0616760
21
21.2242260
0
ARC
8
10
62
7
10
15.7863636
20
17.5590572
40
2.3580852
50
107.8979736
51
229.1281897
0
LINE
8
10
62
7
10
34.4600868
20
28.3396034
11
34.0437279
21
28.3396034
0
LINE
8
10
62
7
10
34.0437279
20
20.7819099
11
34.0437279
21
28.3396034
0
LINE
8
10
62
7
10
24.6009007
20
23.0609512
11
24.6009007
21
14.8676481
0
LINE
8
10
62
7
10
24.6009007
20
23.0609512
11
24.1845684
21
23.0609512
0
LINE
8
10
62
7
10
24.1845684
20
15.5032578
11
24.1845684
21
23.0609512
0
ARC
8
10
62
7
10
33.1274490
20
21.7267647
40
4.5115738
50
7.7247194
51
72.8194403
0
ARC
8
10
62
7
10
33.3695374
20
19.2653522
40
1.6596868
50
66.0318510
51
148.1931118
0
ARC
8
10
62
7
10
33.1337509
20
19.0579624
40
1.5971267
50
137.3477139
51
215.4473208
0
ARC
8
10
62
7
10
32.8297119
20
19.1574287
40
1.4304771
50
225.8114771
51
314.1884559
0
ARC
8
10
62
7
10
32.5821877
20
19.6298428
40
1.9476975
50
309.7188894
51
15.3829760
0
ARC
8
10
62
7
10
23.5105801
20
13.9862423
40
1.6600170
50
66.0452109
51
148.1894645
0
ARC
8
10
62
7
10
23.2745113
20
13.7792578
40
1.5969995
50
137.3508968
51
215.4489463
0
ARC
8
10
62
7
10
22.9705753
20
13.8786736
40
1.4303756
50
225.8100428
51
314.1899313
0
ARC
8
10
62
7
10
22.7240429
20
14.3508081
40
1.9467322
50
309.7025243
51
15.3961838
0
ARC
8
10
62
7
10
34.2639236
20
27.9933777
40
0.3979418
50
352.9123227
51
60.4644136
0
ARC
8
10
62
7
10
37.7032127
20
29.1957111
40
3.2915606
50
202.3456792
51
225.6053147
0
ARC
8
10
62
7
10
31.7921734
20
21.9148788
40
6.1084714
50
28.6215816
51
53.7934156
0
ARC
8
10
62
7
10
32.0156174
20
21.2563324
40
5.6853833
50
355.8871706
51
10.9180770
0
ARC
8
10
62
7
10
37.7926178
20
20.8413219
40
0.1065276
50
176.0897217
51
338.2690802
0
ARC
8
10
62
7
10
31.7018776
20
21.7587700
40
6.2632337
50
351.2120154
51
29.4794482
0
LINE
8
10
62
7
10
34.4600868
20
26.0370178
11
34.4600868
21
20.1465054
0
LINE
8
10
62
7
10
43.3344650
20
17.9988575
11
43.3344650
21
26.8731098
0
LINE
8
10
62
7
10
43.7507973
20
19.7735558
11
43.7507973
21
26.2375011
0
ARC
8
10
62
7
10
44.4247856
20
27.7545147
40
1.6600170
50
246.0452159
51
328.1894421
0
ARC
8
10
62
7
10
44.6606522
20
27.9615765
40
1.5971774
50
317.3532651
51
35.4410252
0
ARC
8
10
62
7
10
44.9648438
20
27.8619556
40
1.4305025
50
45.8126435
51
134.1875357
0
ARC
8
10
62
7
10
45.2122154
20
27.3896694
40
1.9475195
50
129.7175184
51
195.3812495
0
CIRCLE
8
10
62
7
10
25.6359234
20
13.0433435
40
0.4273042
0
ARC
8
10
62
7
10
23.3307209
20
46.8604965
40
24.5619011
50
236.6579405
51
303.9201681
0
ARC
8
10
62
7
10
23.3307476
20
43.5666771
40
24.5619011
50
236.6967906
51
303.9201681
0
ARC
8
10
62
7
10
23.3307476
20
40.2728806
40
24.5619011
50
236.6968179
51
303.9201681
0
ARC
8
10
62
7
10
23.3307209
20
36.9790611
40
24.5619011
50
236.6968179
51
303.9201681
0
LINE
8
10
62
7
10
9.8445415
20
16.4599476
11
9.8445415
21
26.3322430
0
LINE
8
10
62
7
10
52.6056938
20
30.4426727
11
52.6056938
21
20.7407379
0
LINE
8
10
62
7
10
52.1893387
20
22.2691326
11
52.1893387
21
31.0780792
0
ARC
8
10
62
7
10
53.2799149
20
31.9592304
40
1.6596868
50
246.0317741
51
328.1930212
0
ARC
8
10
62
7
10
53.5152702
20
32.1666489
40
1.5974823
50
317.3574178
51
35.4375657
0
ARC
8
10
62
7
10
53.8197136
20
32.0671577
40
1.4304771
50
45.8115848
51
134.1885875
0
ARC
8
10
62
7
10
54.0338631
20
31.6169662
40
1.9092926
50
129.3744516
51
196.1695763
0
LINE
8
10
62
7
10
60.6002693
20
22.4276028
11
60.6002693
21
32.2625084
0
ARC
8
10
62
7
10
54.4909096
20
9.9554148
40
13.8935452
50
63.9135840
51
103.6019281
0
ARC
8
10
62
7
10
54.4908829
20
19.8370552
40
13.8933687
50
63.9131400
51
103.6020647
0
ARC
8
10
62
7
10
54.4909096
20
16.5430565
40
13.8935452
50
63.9135771
51
103.6019281
0
ARC
8
10
62
7
10
54.4909096
20
13.2492361
40
13.8935452
50
63.9135771
51
103.6019281
0
ENDBLK
8
0
0
ENDSEC
0
SECTION
2
ENTITIES
0
LINE
8
10
62
7
10
76.4758911
20
81.8955154
11
72.3678741
21
81.8955154
0
LINE
8
10
62
7
10
77.0164795
20
97.3177032
11
74.2056961
21
97.3177032
0
ARC
8
10
62
7
10
47.4529419
20
85.3216934
40
29.2899857
50
349.0752044
51
24.1032612
0
LINE
8
10
62
7
10
76.4731522
20
81.8906097
11
72.6229935
21
81.8906097
0
LINE
8
10
62
7
10
73.4430084
20
96.8176575
11
74.3164902
21
96.7119141
0
INSERT
8
1
2
SKETCH-G1
10
0.0000000
20
0.0000000
0
LINE
8
10
62
7
10
37.1895866
20
98.3865891
11
33.0168762
21
98.3865891
0
ARC
8
10
62
7
10
39.8359642
20
115.2015686
40
20.8010750
50
257.4626967
51
269.1115843
0
ARC
8
10
62
7
10
36.7772675
20
98.1675644
40
0.4160774
50
272.1737494
51
356.1407892
0
ARC
8
10
62
7
10
35.5818939
20
96.8114090
40
1.9326860
50
200.6361239
51
262.2285841
0
ARC
8
10
62
7
10
35.7810822
20
97.5033035
40
2.4324310
50
179.1284046
51
214.3657330
0
ARC
8
10
62
7
10
31.8917313
20
97.4756165
40
1.4586458
50
2.5418050
51
24.0075583
0
ARC
8
10
62
7
10
33.4691467
20
98.4447556
40
0.4484878
50
187.4844307
51
264.2011428
0
ARC
8
10
62
7
10
36.3283730
20
114.5316391
40
16.7862759
50
260.0359295
51
271.5862711
0
ARC
8
10
62
7
10
46.2269325
20
83.2376785
40
4.8029113
50
283.7511386
51
291.0995479
0
ARC
8
10
62
7
10
46.6363297
20
80.4001617
40
2.2757638
50
155.6752835
51
233.4303209
0
ARC
8
10
62
7
10
56.9132462
20
79.6519547
40
2.9390085
50
334.8927537
51
15.1987658
0
ARC
8
10
62
7
10
55.4311562
20
79.0677032
40
2.5312371
50
348.6507218
51
49.7261336
0
LINE
8
10
62
7
10
55.7847748
20
77.9519348
11
53.4234886
21
79.8872147
0
ARC
8
10
62
7
10
51.2916641
20
79.2348633
40
2.2294087
50
334.6787229
51
17.0146894
0
LINE
8
10
62
7
10
50.6540260
20
78.3637161
11
49.6919746
21
79.3107605
0
ARC
8
10
62
7
10
45.9836769
20
79.2281036
40
0.6576314
50
199.9697296
51
265.5800213
0
ARC
8
10
62
7
10
46.6508064
20
80.9519043
40
2.4853899
50
253.2131716
51
286.7868025
0
LINE
8
10
62
7
10
45.9330025
20
78.5724335
11
45.2804260
21
78.5724335
0
LINE
8
10
62
7
10
59.5745544
20
78.4048920
11
58.9623375
21
78.4048920
0
ARC
8
10
62
7
10
60.8236008
20
93.6909714
40
15.3989782
50
259.1044283
51
263.0577691
0
ARC
8
10
62
7
10
56.6519814
20
78.4969406
40
1.2346178
50
289.6645524
51
2.7971189
0
ARC
8
10
62
7
10
56.9070969
20
78.6312866
40
1.3068299
50
230.5237476
51
277.0472806
0
ARC
8
10
62
7
10
56.5712852
20
78.3543243
40
0.8834628
50
207.0936579
51
235.9228755
0
LINE
8
10
62
7
10
53.3068771
20
78.2813492
11
53.0153084
21
77.9107895
0
ARC
8
10
62
7
10
52.1304016
20
78.0772095
40
0.9004300
50
293.5795349
51
349.3489311
0
ARC
8
10
62
7
10
52.2719536
20
77.4997864
40
0.3305048
50
228.5817882
51
311.4182132
0
ARC
8
10
62
7
10
61.0398064
20
85.3518677
40
12.0981722
50
219.7086211
51
222.0296970
0
ARC
8
10
62
7
10
55.2664871
20
83.9208298
40
7.2219315
50
230.3069574
51
240.7040079
0
ARC
8
10
62
7
10
51.8891754
20
87.1325607
40
2.1326349
50
335.4963785
51
38.5417944
0
ARC
8
10
62
7
10
40.9126701
20
87.3248367
40
10.6863899
50
351.5195379
51
3.2955761
0
ARC
8
10
62
7
10
50.4353561
20
88.0851135
40
1.1552936
50
352.7422237
51
74.0137603
0
LINE
8
10
62
7
10
50.7535400
20
89.1957245
11
49.6653824
21
89.6829529
0
ARC
8
10
62
7
10
54.3150558
20
89.8301926
40
1.5645891
50
241.0300265
51
313.3837777
0
ARC
8
10
62
7
10
50.9237976
20
87.6295853
40
5.2616863
50
75.8015145
51
94.5599188
0
LINE
8
10
62
7
10
50.5054855
20
92.8746338
11
49.5620537
21
92.8746338
0
ARC
8
10
62
7
10
43.4963036
20
54.9310760
40
38.6446762
50
82.4147018
51
83.8719363
0
LINE
8
10
62
7
10
49.5620537
20
92.8746338
11
48.9086380
21
93.1949539
0
LINE
8
10
62
7
10
48.9086380
20
93.1949539
11
48.5974617
21
93.2375793
0
ARC
8
10
62
7
10
42.6569138
20
103.8493423
40
9.9460564
50
251.5140664
51
292.7312527
0
ARC
8
10
62
7
10
47.9832649
20
96.6614990
40
3.3262823
50
224.1712892
51
263.7588470
0
ARC
8
10
62
7
10
72.6553802
20
78.6579514
40
3.2328358
50
90.5741209
51
120.9752861
0
ARC
8
10
62
7
10
67.1893005
20
87.2729492
40
6.9714108
50
280.3898386
51
303.0525155
0
ARC
8
10
62
7
10
61.3154182
20
115.5929031
40
35.8925896
50
275.4540433
51
281.4597467
0
ARC
8
10
62
7
10
63.4544067
20
90.5900116
40
10.8023911
50
251.8738261
51
276.7650025
0
ARC
8
10
62
7
10
55.8592224
20
67.8282852
40
13.1933947
50
71.2794580
51
81.4983363
0
ARC
8
10
62
7
10
56.8634872
20
76.7648392
40
4.2193465
50
77.0409070
51
102.9590912
0
ARC
8
10
62
7
10
55.9355507
20
80.3298798
40
0.5471414
50
91.9151739
51
170.9575995
0
ARC
8
10
62
7
10
53.7637978
20
83.3730545
40
3.3773618
50
280.0141235
51
298.8844609
0
ARC
8
10
62
7
10
53.4048691
20
84.8522034
40
4.8973231
50
258.8598255
51
281.1401758
0
ARC
8
10
62
7
10
52.1649933
20
76.8592529
40
3.2014160
50
84.7369797
51
104.7617284
0
ARC
8
10
62
7
10
51.8221474
20
77.6573715
40
2.3457663
50
101.6295948
51
120.5037981
0
ARC
8
10
62
7
10
49.4894638
20
81.1920624
40
1.8960592
50
263.0820026
51
307.0343246
0
ARC
8
10
62
7
10
49.0000534
20
78.8482513
40
0.5302504
50
60.5104149
51
169.9119522
0
ARC
8
10
62
7
10
48.1190796
20
79.1261292
40
0.4037838
50
246.1695526
51
332.7313813
0
ARC
8
10
62
7
10
51.0268211
20
78.4905701
40
7.0634093
50
97.9971568
51
156.2301544
0
ARC
8
10
62
7
10
52.6785851
20
73.6142502
40
12.1598186
50
92.5744852
51
102.5124241
0
ARC
8
10
62
7
10
48.9122200
20
101.1600647
40
15.7313633
50
281.8117200
51
300.4982980
0
ARC
8
10
62
7
10
83.6794128
20
75.6221695
40
29.3417740
50
154.8104723
51
155.8958713
0
ARC
8
10
62
7
10
59.2413597
20
86.6674118
40
2.2429979
50
96.5799062
51
144.3748994
0
LINE
8
10
62
7
10
58.9843369
20
88.8956299
11
59.8326454
21
89.3564835
0
LINE
8
10
62
7
10
45.3655930
20
79.0034943
11
45.3655930
21
79.3554611
0
ARC
8
10
62
7
10
44.5419731
20
79.4495163
40
0.8289545
50
353.4856215
51
27.4501273
0
ARC
8
10
62
7
10
49.0911636
20
80.6476898
40
3.8998654
50
184.6945306
51
192.0783886
0
ARC
8
10
62
7
10
48.0446587
20
81.0013809
40
2.9188919
50
176.5435195
51
193.3274116
0
ARC
8
10
62
7
10
45.3037453
20
81.2585068
40
0.1908048
50
80.1789623
51
205.1706045
0
ARC
8
10
62
7
10
45.9771233
20
86.9040909
40
5.4950867
50
263.3030002
51
283.9345701
0
ARC
8
10
62
7
10
47.3572083
20
81.7237549
40
0.1632458
50
249.6331689
51
357.1529959
0
ARC
8
10
62
7
10
47.9451904
20
81.3627701
40
0.5523484
50
110.1637523
51
140.2922768
0
ARC
8
10
62
7
10
47.8061028
20
81.7982788
40
0.0975614
50
12.3482076
51
121.7307596
0
ARC
8
10
62
7
10
47.6396065
20
81.6606369
40
0.3060446
50
334.5869525
51
31.1926987
0
ARC
8
10
62
7
10
48.5372162
20
81.4361572
40
0.6281420
50
171.4707516
51
206.4221547
0
ARC
8
10
62
7
10
52.4946861
20
82.7711029
40
4.7996855
50
199.6558414
51
206.3725265
0
ARC
8
10
62
7
10
46.3405952
20
80.0449219
40
1.9468337
50
351.8680688
51
17.7691145
0
LINE
8
10
62
7
10
48.2678452
20
79.7695313
11
48.2678452
21
78.7757874
0
ARC
8
10
62
7
10
48.4285812
20
80.1361542
40
2.5521159
50
353.6151492
51
34.7658063
0
ARC
8
10
62
7
10
53.3140640
20
82.4246979
40
2.1337523
50
172.3318882
51
200.5915364
0
ARC
8
10
62
7
10
52.1421089
20
82.0637131
40
0.9127236
50
205.2585090
51
234.3231086
0
ARC
8
10
62
7
10
51.0911102
20
80.8875427
40
0.6767576
50
344.0141435
51
39.9680711
0
ARC
8
10
62
7
10
52.4826469
20
80.4400940
40
0.7855712
50
160.5899324
51
195.8901396
0
ARC
8
10
62
7
10
52.0399742
20
80.4691238
40
0.3968496
50
217.9606528
51
258.6108788
0
LINE
8
10
62
7
10
47.5056190
20
80.8460846
11
47.8427773
21
79.0242233
0
LINE
8
10
62
7
10
47.8427773
20
79.0242233
11
47.8280945
21
78.7343597
0
LINE
8
10
62
7
10
57.4181480
20
87.9739075
11
56.8961029
21
87.6052322
0
ARC
8
10
62
7
10
51.1266441
20
92.8629532
40
3.4786568
50
245.1507616
51
319.3686353
0
ARC
8
10
62
7
10
48.6780853
20
88.6558990
40
6.7318125
50
343.6682627
51
357.3304442
0
ARC
8
10
62
7
10
54.6423073
20
88.5054321
40
0.7775702
50
347.8942920
51
39.7713207
0
ARC
8
10
62
7
10
47.6548691
20
83.4737167
40
9.3864174
50
36.0902005
51
49.3732518
0
ARC
8
10
62
7
10
58.3558884
20
95.5929947
40
6.7833748
50
204.6408550
51
227.4256284
0
ARC
8
10
62
7
10
-158.9632263
20
11.5873680
40
226.2201233
50
21.0291348
51
21.3567755
0
ARC
8
10
62
7
10
41.8297348
20
85.9986038
40
6.0974479
50
349.0901762
51
18.3499367
0
ARC
8
10
62
7
10
50.1339607
20
89.4011078
40
2.9212031
50
183.2514209
51
210.5069493
0
ARC
8
10
62
7
10
41.9695358
20
89.1285706
40
5.2490115
50
1.1665760
51
21.8940092
0
ARC
8
10
62
7
10
48.2355652
20
91.6033707
40
1.4884654
50
175.7707929
51
200.3450622
0
ARC
8
10
62
7
10
50.7319298
20
88.1276093
40
5.3574696
50
110.1906906
51
137.9901479
0
LINE
8
10
62
7
10
39.8378677
20
94.7555084
11
39.5134315
21
94.4029846
0
ARC
8
10
62
7
10
37.9719582
20
98.2629395
40
0.7892542
50
146.0624069
51
188.9936976
0
ARC
8
10
62
7
10
38.3404083
20
68.9970398
40
29.7241726
50
86.5823739
51
91.9728139
0
ARC
8
10
62
7
10
39.3406372
20
111.6751328
40
13.0296659
50
273.3955609
51
287.2621017
0
ARC
8
10
62
7
10
44.8978004
20
93.9591141
40
5.5376573
50
77.0411187
51
107.7767993
0
ARC
8
10
62
7
10
47.1670647
20
106.0810852
40
6.8033905
50
261.3139398
51
285.7142442
0
ARC
8
10
62
7
10
51.6132584
20
93.0189056
40
7.0141592
50
97.5279023
51
111.7887363
0
ARC
8
10
62
7
10
50.8233185
20
98.9541779
40
1.0265664
50
62.7547058
51
97.2176000
0
ARC
8
10
62
7
10
51.9323807
20
101.7249374
40
1.9649186
50
251.0192875
51
291.9222032
0
ARC
8
10
62
7
10
193.8746490
20
-407.4808960
40
526.6663208
50
105.3072624
51
105.5523091
0
ARC
8
10
62
7
10
56.3322983
20
94.3538589
40
6.3267083
50
69.3024461
51
103.6685702
0
ARC
8
10
62
7
10
76.8127518
20
145.0776520
40
48.3775024
50
247.8442604
51
266.0057880
0
ARC
8
10
62
7
10
-9.4866943
20
82.7459030
40
67.8089828
50
12.5209414
51
13.4370124
0
ARC
8
10
62
7
10
53.9872398
20
97.8757477
40
2.5569925
50
14.2024452
51
60.4470922
0
CIRCLE
8
10
62
7
10
77.2326889
20
78.0780945
40
0.7934960
0
ARC
8
10
62
7
10
40.0436859
20
87.4053802
40
43.7378349
50
344.6227407
51
13.6729382
0
ARC
8
10
62
7
10
76.3409424
20
78.2037506
40
0.8289036
50
128.8884017
51
199.4866440
0
ARC
8
10
62
7
10
83.3861160
20
81.1012573
40
8.7756996
50
174.8393463
51
207.8210594
0
ARC
8
10
62
7
10
57.4550285
20
84.3923111
40
22.0904827
50
339.1912103
51
355.4189748
0
LINE
8
10
62
7
10
82.2056503
20
75.7876740
11
78.0975571
21
75.7876740
0
LINE
8
10
62
7
10
78.0975571
20
76.5512009
11
75.6278381
21
77.0070267
0
LINE
8
10
62
7
10
78.0975571
20
76.5512009
11
78.0975571
21
75.7876740
0
LINE
8
10
62
7
10
78.0975571
20
76.5511475
11
78.0975571
21
75.7876282
0
ARC
8
10
62
7
10
72.3373947
20
77.2359314
40
3.2954721
50
355.9904977
51
12.1090289
0
LINE
8
10
62
7
10
82.5299301
20
97.7757721
11
77.0164795
21
97.7757721
0
ARC
8
10
62
7
10
74.6323090
20
79.8977280
40
1.5848838
50
318.5672082
51
355.4014076
0
ARC
8
10
62
7
10
42.8146973
20
83.9622879
40
36.6845322
50
357.9155182
51
21.2920065
0
LINE
8
10
62
7
10
76.9951935
20
97.2832108
11
77.0164795
21
97.7757721
0
ENDSEC
0
EOF
