0
SECTION
2
HEADER
9
$LTSCALE
40
20.0000000
9
$LIMMIN
10
-200.0000000
20
-50.0000000
9
$LIMMAX
10
350.0000000
20
350.0000000
9
$EXTMIN
10
-178.7868042
20
-6.2899966
9
$EXTMAX
10
299.2131958
20
249.6281586
9
$SNAPMODE
70
0
9
$SNAPUNIT
10
5.0000000
20
5.0000000
9
$GRIDMODE
70
0
9
$GRIDUNIT
10
5.0000000
20
5.0000000
9
$ORTHOMODE
70
0
9
$TEXTSTYLE
7
txt
9
$CLAYER
8
1
9
$CECOLOR
62
7
9
$CELTYPE
6
CONTINUOUS
9
$PLINEWID
40
0.0000000
9
$OSMODE
70
0
9
$FILLMODE
70
0
9
$CHAMFERA
40
0.5000000
9
$CHAMFERB
40
0.5000000
9
$COORDS
70
2
9
$FILLETRAD
40
0.5000000
9
$INSBASE
10
0.0000000
20
0.0000000
9
$SPLFRAME
70
0
9
$SPLINESEGS
70
8
0
ENDSEC
0
SECTION
2
TABLES
0
TABLE
2
LTYPE
70
9
0
LTYPE
2
DISCONTINUE
70
0
3
__ __ __ __ __ __ __ __ __ __ __ __ __ __ __
72
65
73
2
40
0.7500000
49
0.5000000
49
-0.2500000
0
LTYPE
2
CACHE
70
0
3
_ _ _ _ _ _ _ _ _ _ _ _ _ _ _ _ _ _ _ _ _ _ 
72
65
73
2
40
0.2500000
49
0.1250000
49
-0.1250000
0
LTYPE
2
AXES
70
0
3
____ _ ____ _ ____ _ ____ _ ____ _ ____ _ __
72
65
73
4
40
2.0000000
49
1.2500000
49
-0.2500000
49
0.2500000
49
-0.2500000
0
LTYPE
2
FANTOME
70
0
3
_____ _ _ _____ _ _ _____ _ _ _____ _ _ ____
72
65
73
6
40
2.5000000
49
1.2500000
49
-0.2500000
49
0.2500000
49
-0.2500000
49
0.2500000
49
-0.2500000
0
LTYPE
2
POINTILLE
70
0
3
............................................
72
65
73
2
40
0.2500000
49
0.0000000
49
-0.2500000
0
LTYPE
2
MIXTE
70
0
3
__ . __ . __ . __ . __ . __ . __ . __ . __ .
72
65
73
4
40
1.0000000
49
0.5000000
49
-0.2500000
49
0.0000000
49
-0.2500000
0
LTYPE
2
BORDURE
70
0
3
__ __ . __ __ . __ __ . __ __ . __ __ . __ _
72
65
73
6
40
1.7500000
49
0.5000000
49
-0.2500000
49
0.5000000
49
-0.2500000
49
0.0000000
49
-0.2500000
0
LTYPE
2
DIVISE
70
0
3
__ . . __ . . __ . . __ . . __ . . __ . . __
72
65
73
6
40
1.2500000
49
0.5000000
49
-0.2500000
49
0.0000000
49
-0.2500000
49
0.0000000
49
-0.2500000
0
LTYPE
2
POINTILLES
70
0
3
fermer
72
65
73
2
40
0.1000000
49
0.0500000
49
-0.0500000
0
ENDTAB
0
TABLE
2
STYLE
70
3
0
STYLE
2
ITALICC
70
0
40
0.0000000
41
1.0000000
50
0.0000000
71
0
42
0.0000000
3
ITALICC
4

0
ENDTAB
0
TABLE
2
LAYER
70
10
0
LAYER
2
1
70
0
62
7
6
CONTINUOUS
0
LAYER
2
2
70
0
62
7
6
CONTINUOUS
0
LAYER
2
3
70
0
62
7
6
CONTINUOUS
0
LAYER
2
4
70
0
62
7
6
CONTINUOUS
0
LAYER
2
5
70
0
62
7
6
CONTINUOUS
0
LAYER
2
6
70
0
62
7
6
CONTINUOUS
0
LAYER
2
7
70
0
62
7
6
CONTINUOUS
0
LAYER
2
8
70
0
62
7
6
CONTINUOUS
0
LAYER
2
9
70
0
62
7
6
CONTINUOUS
0
LAYER
2
10
70
0
62
7
6
CONTINUOUS
0
ENDTAB
0
ENDSEC
0
SECTION
2
BLOCKS
0
BLOCK
8
0
2
HOUSE_EL-G1
70
0
10
0.0000000
20
0.0000000
0
LINE
8
1
62
3
10
66.1970901
20
88.9242401
11
70.1970901
21
88.9242401
0
LINE
8
1
62
3
10
72.1710587
20
88.9242401
11
76.1710587
21
88.9242401
0
LINE
8
1
62
3
10
72.1710587
20
84.9242401
11
76.1710587
21
84.9242401
0
LINE
8
1
62
3
10
66.1970901
20
84.9242401
11
70.1970901
21
84.9242401
0
INSERT
8
1
2
HOUSE_EL-G2
10
0.0000000
20
0.0000000
0
ENDBLK
8
0
0
BLOCK
8
0
2
HOUSE_EL-G2
70
0
10
0.0000000
20
0.0000000
0
LINE
8
1
62
3
10
76.1710587
20
84.9242401
11
76.1710587
21
88.9242401
0
LINE
8
1
62
3
10
72.1710587
20
88.9242401
11
72.1710587
21
84.9242401
0
LINE
8
1
62
3
10
66.1970901
20
88.9242401
11
66.1970901
21
84.9242401
0
LINE
8
1
62
3
10
70.1970901
20
84.9242401
11
70.1970901
21
88.9242401
0
LINE
8
1
62
3
10
72.1710587
20
90.9242401
11
72.1710587
21
94.9242401
0
ENDBLK
8
0
0
BLOCK
8
0
2
HOUSE_EL-G3
70
0
10
0.0000000
20
0.0000000
0
LINE
8
1
62
3
10
76.1710587
20
78.9242401
11
76.1710587
21
82.9242401
0
LINE
8
1
62
3
10
72.1710587
20
82.9242401
11
72.1710587
21
78.9242401
0
LINE
8
1
62
3
10
66.1970901
20
82.9242401
11
66.1970901
21
78.9242401
0
LINE
8
1
62
3
10
70.1970901
20
78.9242401
11
70.1970901
21
82.9242401
0
LINE
8
1
62
3
10
72.1710587
20
84.9242401
11
72.1710587
21
88.9242401
0
ENDBLK
8
0
0
BLOCK
8
0
2
HOUSE_EL-G4
70
0
10
0.0000000
20
0.0000000
0
INSERT
8
1
2
HOUSE_EL-G5
10
0.0000000
20
0.0000000
0
ENDBLK
8
0
0
BLOCK
8
0
2
HOUSE_EL-G5
70
0
10
0.0000000
20
0.0000000
0
LINE
8
1
62
7
10
-62.7340660
20
124.8589325
11
-78.7340622
21
124.8589325
0
LINE
8
1
62
7
10
-78.7340622
20
128.8589325
11
-62.7340660
21
128.8589325
0
LINE
8
1
62
7
10
-62.7340660
20
124.8589325
11
-62.7340660
21
128.8589325
0
LINE
8
1
62
7
10
-62.7340660
20
128.8589325
11
-60.7340660
21
126.8589325
0
LINE
8
1
62
7
10
-60.7340660
20
126.8589325
11
-60.7340660
21
122.8589325
0
ENDBLK
8
0
0
BLOCK
8
0
2
HOUSE_EL-G6
70
0
10
0.0000000
20
0.0000000
0
INSERT
8
1
2
HOUSE_EL-G7
10
0.0000000
20
0.0000000
0
INSERT
8
1
2
HOUSE_EL-G8
10
0.0000000
20
0.0000000
0
ENDBLK
8
0
0
BLOCK
8
0
2
HOUSE_EL-G7
70
0
10
0.0000000
20
0.0000000
0
INSERT
8
1
2
HOUSE_EL-G9
10
0.0000000
20
0.0000000
0
ENDBLK
8
0
0
BLOCK
8
0
2
HOUSE_EL-G8
70
0
10
0.0000000
20
0.0000000
0
INSERT
8
1
2
HOUSE_EL-G10
10
0.0000000
20
0.0000000
0
ENDBLK
8
0
0
BLOCK
8
0
2
HOUSE_EL-G9
70
0
10
0.0000000
20
0.0000000
0
INSERT
8
1
2
HOUSE_EL-G11
10
0.0000000
20
0.0000000
0
LINE
8
1
62
3
10
-92.7971954
20
120.8656769
11
-78.7972031
21
120.8656769
0
ENDBLK
8
0
0
BLOCK
8
0
2
HOUSE_EL-G10
70
0
10
0.0000000
20
0.0000000
0
INSERT
8
1
2
HOUSE_EL-G12
10
0.0000000
20
0.0000000
0
LINE
8
1
62
3
10
-108.7867966
20
120.8656769
11
-94.7867966
21
120.8656769
0
ENDBLK
8
0
0
BLOCK
8
0
2
HOUSE_EL-G11
70
0
10
0.0000000
20
0.0000000
0
INSERT
8
1
2
HOUSE_EL-G13
10
0.0000000
20
0.0000000
0
LINE
8
1
62
3
10
-90.7971878
20
88.8656769
11
-92.7971954
21
88.8656769
0
ENDBLK
8
0
0
BLOCK
8
0
2
HOUSE_EL-G12
70
0
10
0.0000000
20
0.0000000
0
INSERT
8
1
2
HOUSE_EL-G14
10
0.0000000
20
0.0000000
0
LINE
8
1
62
3
10
-106.7867966
20
88.8656769
11
-108.7867966
21
88.8656769
0
ENDBLK
8
0
0
BLOCK
8
0
2
HOUSE_EL-G13
70
0
10
0.0000000
20
0.0000000
0
INSERT
8
1
2
HOUSE_EL-G15
10
0.0000000
20
0.0000000
0
INSERT
8
1
2
HOUSE_EL-G16
10
0.0000000
20
0.0000000
0
LINE
8
1
62
3
10
-90.7971878
20
88.8656769
11
-78.7972031
21
88.8656769
0
LINE
8
1
62
3
10
-92.7971954
20
88.8652039
11
-92.7971954
21
120.8656769
0
LINE
8
1
62
3
10
-78.7972031
20
120.8656769
11
-78.7972031
21
88.8631287
0
ENDBLK
8
0
0
BLOCK
8
0
2
HOUSE_EL-G14
70
0
10
0.0000000
20
0.0000000
0
INSERT
8
1
2
HOUSE_EL-G17
10
0.0000000
20
0.0000000
0
INSERT
8
1
2
HOUSE_EL-G18
10
0.0000000
20
0.0000000
0
LINE
8
1
62
3
10
-106.7867966
20
88.8656769
11
-94.7867966
21
88.8656769
0
LINE
8
1
62
3
10
-108.7867966
20
88.8652039
11
-108.7867966
21
120.8656769
0
LINE
8
1
62
3
10
-94.7867966
20
120.8656769
11
-94.7867966
21
88.8631287
0
ENDBLK
8
0
0
BLOCK
8
0
2
HOUSE_EL-G15
70
0
10
0.0000000
20
0.0000000
0
INSERT
8
1
2
HOUSE_EL-G19
10
0.0000000
20
0.0000000
0
LINE
8
1
62
3
10
-86.7972031
20
118.8656769
11
-86.7972031
21
114.8656769
0
LINE
8
1
62
3
10
-90.7971878
20
114.8656769
11
-90.7971878
21
118.8656769
0
LINE
8
1
62
3
10
-86.7972031
20
112.8656769
11
-86.7972031
21
108.8656769
0
LINE
8
1
62
3
10
-86.7972031
20
108.8656769
11
-90.7971878
21
108.8656769
0
LINE
8
1
62
3
10
-90.7971878
20
108.8656769
11
-90.7971878
21
112.8656769
0
LINE
8
1
62
3
10
-90.7971878
20
106.8656769
11
-86.7972031
21
106.8656769
0
LINE
8
1
62
3
10
-86.7972031
20
106.8656769
11
-86.7972031
21
102.8656769
0
LINE
8
1
62
3
10
-90.7971878
20
102.8656769
11
-90.7971878
21
106.8656769
0
LINE
8
1
62
3
10
-86.7972031
20
102.8656769
11
-90.7971878
21
102.8656769
0
LINE
8
1
62
3
10
-90.7971878
20
100.8656769
11
-86.7972031
21
100.8656769
0
LINE
8
1
62
3
10
-86.7972031
20
100.8656769
11
-86.7972031
21
96.8656769
0
LINE
8
1
62
3
10
-86.7972031
20
96.8656769
11
-90.7971878
21
96.8656769
0
LINE
8
1
62
3
10
-90.7971878
20
96.8656769
11
-90.7971878
21
100.8656769
0
LINE
8
1
62
3
10
-90.7971878
20
94.8656769
11
-86.7972031
21
94.8656769
0
LINE
8
1
62
3
10
-86.7972031
20
94.8656769
11
-86.7972031
21
90.8656769
0
LINE
8
1
62
3
10
-90.7971878
20
90.8656769
11
-90.7971878
21
94.8656769
0
LINE
8
1
62
3
10
-86.7972031
20
90.8656769
11
-90.7971878
21
90.8656769
0
ENDBLK
8
0
0
BLOCK
8
0
2
HOUSE_EL-G16
70
0
10
0.0000000
20
0.0000000
0
INSERT
8
1
2
HOUSE_EL-G20
10
0.0000000
20
0.0000000
0
LINE
8
1
62
3
10
-80.8010941
20
118.8656769
11
-80.8010941
21
114.8656769
0
LINE
8
1
62
3
10
-84.8010941
20
114.8656769
11
-84.8010941
21
118.8656769
0
LINE
8
1
62
3
10
-80.8010941
20
112.8656769
11
-80.8010941
21
108.8656769
0
LINE
8
1
62
3
10
-80.8010941
20
108.8656769
11
-84.8010941
21
108.8656769
0
LINE
8
1
62
3
10
-84.8010941
20
108.8656769
11
-84.8010941
21
112.8656769
0
LINE
8
1
62
3
10
-84.8010941
20
106.8656769
11
-80.8010941
21
106.8656769
0
LINE
8
1
62
3
10
-80.8010941
20
106.8656769
11
-80.8010941
21
102.8656769
0
LINE
8
1
62
3
10
-84.8010941
20
102.8656769
11
-84.8010941
21
106.8656769
0
LINE
8
1
62
3
10
-80.8010941
20
102.8656769
11
-84.8010941
21
102.8656769
0
LINE
8
1
62
3
10
-84.8010941
20
100.8656769
11
-80.8010941
21
100.8656769
0
LINE
8
1
62
3
10
-80.8010941
20
100.8656769
11
-80.8010941
21
96.8656769
0
LINE
8
1
62
3
10
-80.8010941
20
96.8656769
11
-84.8010941
21
96.8656769
0
LINE
8
1
62
3
10
-84.8010941
20
96.8656769
11
-84.8010941
21
100.8656769
0
LINE
8
1
62
3
10
-84.8010941
20
94.8656769
11
-80.8010941
21
94.8656769
0
LINE
8
1
62
3
10
-80.8010941
20
94.8656769
11
-80.8010941
21
90.8656769
0
LINE
8
1
62
3
10
-84.8010941
20
90.8656769
11
-84.8010941
21
94.8656769
0
LINE
8
1
62
3
10
-80.8010941
20
90.8656769
11
-84.8010941
21
90.8656769
0
ENDBLK
8
0
0
BLOCK
8
0
2
HOUSE_EL-G17
70
0
10
0.0000000
20
0.0000000
0
INSERT
8
1
2
HOUSE_EL-G21
10
0.0000000
20
0.0000000
0
LINE
8
1
62
3
10
-102.7867966
20
118.8656769
11
-102.7867966
21
114.8656769
0
LINE
8
1
62
3
10
-106.7867966
20
114.8656769
11
-106.7867966
21
118.8656769
0
LINE
8
1
62
3
10
-102.7867966
20
112.8656769
11
-102.7867966
21
108.8656769
0
LINE
8
1
62
3
10
-102.7867966
20
108.8656769
11
-106.7867966
21
108.8656769
0
LINE
8
1
62
3
10
-106.7867966
20
108.8656769
11
-106.7867966
21
112.8656769
0
LINE
8
1
62
3
10
-106.7867966
20
106.8656769
11
-102.7867966
21
106.8656769
0
LINE
8
1
62
3
10
-102.7867966
20
106.8656769
11
-102.7867966
21
102.8656769
0
LINE
8
1
62
3
10
-106.7867966
20
102.8656769
11
-106.7867966
21
106.8656769
0
LINE
8
1
62
3
10
-102.7867966
20
102.8656769
11
-106.7867966
21
102.8656769
0
LINE
8
1
62
3
10
-106.7867966
20
100.8656769
11
-102.7867966
21
100.8656769
0
LINE
8
1
62
3
10
-102.7867966
20
100.8656769
11
-102.7867966
21
96.8656769
0
LINE
8
1
62
3
10
-102.7867966
20
96.8656769
11
-106.7867966
21
96.8656769
0
LINE
8
1
62
3
10
-106.7867966
20
96.8656769
11
-106.7867966
21
100.8656769
0
LINE
8
1
62
3
10
-106.7867966
20
94.8656769
11
-102.7867966
21
94.8656769
0
LINE
8
1
62
3
10
-102.7867966
20
94.8656769
11
-102.7867966
21
90.8656769
0
LINE
8
1
62
3
10
-106.7867966
20
90.8656769
11
-106.7867966
21
94.8656769
0
LINE
8
1
62
3
10
-102.7867966
20
90.8656769
11
-106.7867966
21
90.8656769
0
ENDBLK
8
0
0
BLOCK
8
0
2
HOUSE_EL-G18
70
0
10
0.0000000
20
0.0000000
0
INSERT
8
1
2
HOUSE_EL-G22
10
0.0000000
20
0.0000000
0
LINE
8
1
62
3
10
-96.7906952
20
118.8656769
11
-96.7906952
21
114.8656769
0
LINE
8
1
62
3
10
-100.7906952
20
114.8656769
11
-100.7906952
21
118.8656769
0
LINE
8
1
62
3
10
-96.7906952
20
112.8656769
11
-96.7906952
21
108.8656769
0
LINE
8
1
62
3
10
-96.7906952
20
108.8656769
11
-100.7906952
21
108.8656769
0
LINE
8
1
62
3
10
-100.7906952
20
108.8656769
11
-100.7906952
21
112.8656769
0
LINE
8
1
62
3
10
-100.7906952
20
106.8656769
11
-96.7906952
21
106.8656769
0
LINE
8
1
62
3
10
-96.7906952
20
106.8656769
11
-96.7906952
21
102.8656769
0
LINE
8
1
62
3
10
-100.7906952
20
102.8656769
11
-100.7906952
21
106.8656769
0
LINE
8
1
62
3
10
-96.7906952
20
102.8656769
11
-100.7906952
21
102.8656769
0
LINE
8
1
62
3
10
-100.7906952
20
100.8656769
11
-96.7906952
21
100.8656769
0
LINE
8
1
62
3
10
-96.7906952
20
100.8656769
11
-96.7906952
21
96.8656769
0
LINE
8
1
62
3
10
-96.7906952
20
96.8656769
11
-100.7906952
21
96.8656769
0
LINE
8
1
62
3
10
-100.7906952
20
96.8656769
11
-100.7906952
21
100.8656769
0
LINE
8
1
62
3
10
-100.7906952
20
94.8656769
11
-96.7906952
21
94.8656769
0
LINE
8
1
62
3
10
-96.7906952
20
94.8656769
11
-96.7906952
21
90.8656769
0
LINE
8
1
62
3
10
-100.7906952
20
90.8656769
11
-100.7906952
21
94.8656769
0
LINE
8
1
62
3
10
-96.7906952
20
90.8656769
11
-100.7906952
21
90.8656769
0
ENDBLK
8
0
0
BLOCK
8
0
2
HOUSE_EL-G19
70
0
10
0.0000000
20
0.0000000
0
LINE
8
1
62
3
10
-86.7972031
20
114.8656769
11
-90.7971878
21
114.8656769
0
LINE
8
1
62
3
10
-90.7971878
20
118.8656769
11
-86.7972031
21
118.8656769
0
LINE
8
1
62
3
10
-90.7971878
20
112.8656769
11
-86.7972031
21
112.8656769
0
ENDBLK
8
0
0
BLOCK
8
0
2
HOUSE_EL-G20
70
0
10
0.0000000
20
0.0000000
0
LINE
8
1
62
3
10
-80.8010941
20
114.8656769
11
-84.8010941
21
114.8656769
0
LINE
8
1
62
3
10
-84.8010941
20
118.8656769
11
-80.8010941
21
118.8656769
0
LINE
8
1
62
3
10
-84.8010941
20
112.8656769
11
-80.8010941
21
112.8656769
0
ENDBLK
8
0
0
BLOCK
8
0
2
HOUSE_EL-G21
70
0
10
0.0000000
20
0.0000000
0
LINE
8
1
62
3
10
-102.7867966
20
114.8656769
11
-106.7867966
21
114.8656769
0
LINE
8
1
62
3
10
-106.7867966
20
118.8656769
11
-102.7867966
21
118.8656769
0
LINE
8
1
62
3
10
-106.7867966
20
112.8656769
11
-102.7867966
21
112.8656769
0
ENDBLK
8
0
0
BLOCK
8
0
2
HOUSE_EL-G22
70
0
10
0.0000000
20
0.0000000
0
LINE
8
1
62
3
10
-96.7906952
20
114.8656769
11
-100.7906952
21
114.8656769
0
LINE
8
1
62
3
10
-100.7906952
20
118.8656769
11
-96.7906952
21
118.8656769
0
LINE
8
1
62
3
10
-100.7906952
20
112.8656769
11
-96.7906952
21
112.8656769
0
ENDBLK
8
0
0
BLOCK
8
0
2
HOUSE_EL-G23
70
0
10
0.0000000
20
0.0000000
0
INSERT
8
1
2
HOUSE_EL-G24
10
0.0000000
20
0.0000000
0
LINE
8
1
62
3
10
-19.6898460
20
85.8764191
11
-19.6898460
21
84.9037018
0
LINE
8
1
62
3
10
-21.6898460
20
85.8278046
11
-21.6898460
21
84.9523468
0
LINE
8
1
62
3
10
-7.6898456
20
85.8278046
11
-7.6898456
21
84.9523468
0
INSERT
8
1
2
HOUSE_EL-G25
10
0.0000000
20
0.0000000
0
ENDBLK
8
0
0
BLOCK
8
0
2
HOUSE_EL-G24
70
0
10
0.0000000
20
0.0000000
0
LINE
8
1
62
3
10
-17.6898460
20
85.8764191
11
-17.6898460
21
84.9523468
0
LINE
8
1
62
3
10
-18.6898460
20
84.9523468
11
-18.6898460
21
85.8278046
0
LINE
8
1
62
3
10
-16.6898460
20
85.8278046
11
-16.6898460
21
84.9523468
0
LINE
8
1
62
3
10
-14.6898451
20
85.8764191
11
-14.6898451
21
84.9037018
0
LINE
8
1
62
3
10
-15.6898451
20
85.8278046
11
-15.6898451
21
84.9523468
0
LINE
8
1
62
3
10
-13.6898451
20
85.8278046
11
-13.6898451
21
84.9523468
0
LINE
8
1
62
3
10
-12.6898451
20
85.8278046
11
-12.6898451
21
84.9037018
0
LINE
8
1
62
3
10
-11.6898451
20
85.7791595
11
-11.6898451
21
84.9523468
0
LINE
8
1
62
3
10
-10.6898451
20
85.8278046
11
-10.6898451
21
84.9037018
0
LINE
8
1
62
3
10
-9.6898451
20
85.8278046
11
-9.6898451
21
84.9037018
0
LINE
8
1
62
3
10
-8.6898451
20
85.8278046
11
-8.6898451
21
84.9037018
0
LINE
8
1
62
3
10
-6.6898456
20
84.9523468
11
-6.6898456
21
85.8278046
0
LINE
8
1
62
3
10
-4.6898456
20
84.9523468
11
-4.6898456
21
85.8278046
0
LINE
8
1
62
3
10
-5.6898456
20
84.9523468
11
-5.6898456
21
85.8278046
0
LINE
8
1
62
3
10
-20.6898460
20
84.9037018
11
-20.6898460
21
85.8764191
0
ENDBLK
8
0
0
BLOCK
8
0
2
HOUSE_EL-G25
70
0
10
0.0000000
20
0.0000000
0
LINE
8
1
62
3
10
-3.6776843
20
84.8978424
11
-22.6898460
21
84.8978424
0
LINE
8
1
62
3
10
-22.6898460
20
85.8978424
11
-3.6466327
21
85.8978424
0
ENDBLK
8
0
0
BLOCK
8
0
2
HOUSE_EL-G26
70
0
10
0.0000000
20
0.0000000
0
INSERT
8
1
2
HOUSE_EL-G27
10
0.0000000
20
0.0000000
0
LINE
8
1
62
3
10
-19.6898460
20
83.8764191
11
-19.6898460
21
82.9037018
0
LINE
8
1
62
3
10
-21.6898460
20
83.8278046
11
-21.6898460
21
82.9523468
0
LINE
8
1
62
3
10
-7.6898456
20
83.8278046
11
-7.6898456
21
82.9523468
0
INSERT
8
1
2
HOUSE_EL-G28
10
0.0000000
20
0.0000000
0
ENDBLK
8
0
0
BLOCK
8
0
2
HOUSE_EL-G27
70
0
10
0.0000000
20
0.0000000
0
LINE
8
1
62
3
10
-17.6898460
20
83.8764191
11
-17.6898460
21
82.9523468
0
LINE
8
1
62
3
10
-18.6898460
20
82.9523468
11
-18.6898460
21
83.8278046
0
LINE
8
1
62
3
10
-16.6898460
20
83.8278046
11
-16.6898460
21
82.9523468
0
LINE
8
1
62
3
10
-14.6898451
20
83.8764191
11
-14.6898451
21
82.9037018
0
LINE
8
1
62
3
10
-15.6898451
20
83.8278046
11
-15.6898451
21
82.9523468
0
LINE
8
1
62
3
10
-13.6898451
20
83.8278046
11
-13.6898451
21
82.9523468
0
LINE
8
1
62
3
10
-12.6898451
20
83.8278046
11
-12.6898451
21
82.9037018
0
LINE
8
1
62
3
10
-11.6898451
20
83.7791595
11
-11.6898451
21
82.9523468
0
LINE
8
1
62
3
10
-10.6898451
20
83.8278046
11
-10.6898451
21
82.9037018
0
LINE
8
1
62
3
10
-9.6898451
20
83.8278046
11
-9.6898451
21
82.9037018
0
LINE
8
1
62
3
10
-8.6898451
20
83.8278046
11
-8.6898451
21
82.9037018
0
LINE
8
1
62
3
10
-6.6898456
20
82.9523468
11
-6.6898456
21
83.8278046
0
LINE
8
1
62
3
10
-4.6898456
20
82.9523468
11
-4.6898456
21
83.8278046
0
LINE
8
1
62
3
10
-5.6898456
20
82.9523468
11
-5.6898456
21
83.8278046
0
LINE
8
1
62
3
10
-20.6898460
20
82.9037018
11
-20.6898460
21
83.8764191
0
ENDBLK
8
0
0
BLOCK
8
0
2
HOUSE_EL-G28
70
0
10
0.0000000
20
0.0000000
0
LINE
8
1
62
3
10
-3.6776843
20
82.8978424
11
-22.6898460
21
82.8978424
0
LINE
8
1
62
3
10
-22.6898460
20
83.8978424
11
-3.6466327
21
83.8978424
0
ENDBLK
8
0
0
BLOCK
8
0
2
HOUSE_EL-G29
70
0
10
0.0000000
20
0.0000000
0
INSERT
8
1
2
HOUSE_EL-G30
10
0.0000000
20
0.0000000
0
LINE
8
1
62
3
10
-19.6898460
20
81.8764191
11
-19.6898460
21
80.9037018
0
LINE
8
1
62
3
10
-21.6898460
20
81.8278046
11
-21.6898460
21
80.9523468
0
LINE
8
1
62
3
10
-7.6898456
20
81.8278046
11
-7.6898456
21
80.9523468
0
INSERT
8
1
2
HOUSE_EL-G31
10
0.0000000
20
0.0000000
0
ENDBLK
8
0
0
BLOCK
8
0
2
HOUSE_EL-G30
70
0
10
0.0000000
20
0.0000000
0
LINE
8
1
62
3
10
-17.6898460
20
81.8764191
11
-17.6898460
21
80.9523468
0
LINE
8
1
62
3
10
-18.6898460
20
80.9523468
11
-18.6898460
21
81.8278046
0
LINE
8
1
62
3
10
-16.6898460
20
81.8278046
11
-16.6898460
21
80.9523468
0
LINE
8
1
62
3
10
-14.6898451
20
81.8764191
11
-14.6898451
21
80.9037018
0
LINE
8
1
62
3
10
-15.6898451
20
81.8278046
11
-15.6898451
21
80.9523468
0
LINE
8
1
62
3
10
-13.6898451
20
81.8278046
11
-13.6898451
21
80.9523468
0
LINE
8
1
62
3
10
-12.6898451
20
81.8278046
11
-12.6898451
21
80.9037018
0
LINE
8
1
62
3
10
-11.6898451
20
81.7791595
11
-11.6898451
21
80.9523468
0
LINE
8
1
62
3
10
-10.6898451
20
81.8278046
11
-10.6898451
21
80.9037018
0
LINE
8
1
62
3
10
-9.6898451
20
81.8278046
11
-9.6898451
21
80.9037018
0
LINE
8
1
62
3
10
-8.6898451
20
81.8278046
11
-8.6898451
21
80.9037018
0
LINE
8
1
62
3
10
-6.6898456
20
80.9523468
11
-6.6898456
21
81.8278046
0
LINE
8
1
62
3
10
-4.6898456
20
80.9523468
11
-4.6898456
21
81.8278046
0
LINE
8
1
62
3
10
-5.6898456
20
80.9523468
11
-5.6898456
21
81.8278046
0
LINE
8
1
62
3
10
-20.6898460
20
80.9037018
11
-20.6898460
21
81.8764191
0
ENDBLK
8
0
0
BLOCK
8
0
2
HOUSE_EL-G31
70
0
10
0.0000000
20
0.0000000
0
LINE
8
1
62
3
10
-3.6776843
20
80.8978424
11
-22.6898460
21
80.8978424
0
LINE
8
1
62
3
10
-22.6898460
20
81.8978424
11
-3.6466327
21
81.8978424
0
ENDBLK
8
0
0
BLOCK
8
0
2
HOUSE_EL-G32
70
0
10
0.0000000
20
0.0000000
0
INSERT
8
1
2
HOUSE_EL-G33
10
0.0000000
20
0.0000000
0
LINE
8
1
62
3
10
-19.6898460
20
79.8764191
11
-19.6898460
21
78.9037018
0
LINE
8
1
62
3
10
-21.6898460
20
79.8278046
11
-21.6898460
21
78.9523468
0
LINE
8
1
62
3
10
-7.6898456
20
79.8278046
11
-7.6898456
21
78.9523468
0
INSERT
8
1
2
HOUSE_EL-G34
10
0.0000000
20
0.0000000
0
ENDBLK
8
0
0
BLOCK
8
0
2
HOUSE_EL-G33
70
0
10
0.0000000
20
0.0000000
0
LINE
8
1
62
3
10
-17.6898460
20
79.8764191
11
-17.6898460
21
78.9523468
0
LINE
8
1
62
3
10
-18.6898460
20
78.9523468
11
-18.6898460
21
79.8278046
0
LINE
8
1
62
3
10
-16.6898460
20
79.8278046
11
-16.6898460
21
78.9523468
0
LINE
8
1
62
3
10
-14.6898451
20
79.8764191
11
-14.6898451
21
78.9037018
0
LINE
8
1
62
3
10
-15.6898451
20
79.8278046
11
-15.6898451
21
78.9523468
0
LINE
8
1
62
3
10
-13.6898451
20
79.8278046
11
-13.6898451
21
78.9523468
0
LINE
8
1
62
3
10
-12.6898451
20
79.8278046
11
-12.6898451
21
78.9037018
0
LINE
8
1
62
3
10
-11.6898451
20
79.7791595
11
-11.6898451
21
78.9523468
0
LINE
8
1
62
3
10
-10.6898451
20
79.8278046
11
-10.6898451
21
78.9037018
0
LINE
8
1
62
3
10
-9.6898451
20
79.8278046
11
-9.6898451
21
78.9037018
0
LINE
8
1
62
3
10
-8.6898451
20
79.8278046
11
-8.6898451
21
78.9037018
0
LINE
8
1
62
3
10
-6.6898456
20
78.9523468
11
-6.6898456
21
79.8278046
0
LINE
8
1
62
3
10
-4.6898456
20
78.9523468
11
-4.6898456
21
79.8278046
0
LINE
8
1
62
3
10
-5.6898456
20
78.9523468
11
-5.6898456
21
79.8278046
0
LINE
8
1
62
3
10
-20.6898460
20
78.9037018
11
-20.6898460
21
79.8764191
0
ENDBLK
8
0
0
BLOCK
8
0
2
HOUSE_EL-G34
70
0
10
0.0000000
20
0.0000000
0
LINE
8
1
62
3
10
-3.6776843
20
78.8978424
11
-22.6898460
21
78.8978424
0
LINE
8
1
62
3
10
-22.6898460
20
79.8978424
11
-3.6466327
21
79.8978424
0
ENDBLK
8
0
0
BLOCK
8
0
2
HOUSE_EL-G35
70
0
10
0.0000000
20
0.0000000
0
INSERT
8
1
2
HOUSE_EL-G36
10
0.0000000
20
0.0000000
0
LINE
8
1
62
3
10
-19.6898460
20
77.8764191
11
-19.6898460
21
76.9037018
0
LINE
8
1
62
3
10
-21.6898460
20
77.8278046
11
-21.6898460
21
76.9523468
0
LINE
8
1
62
3
10
-7.6898456
20
77.8278046
11
-7.6898456
21
76.9523468
0
INSERT
8
1
2
HOUSE_EL-G37
10
0.0000000
20
0.0000000
0
ENDBLK
8
0
0
BLOCK
8
0
2
HOUSE_EL-G36
70
0
10
0.0000000
20
0.0000000
0
LINE
8
1
62
3
10
-17.6898460
20
77.8764191
11
-17.6898460
21
76.9523468
0
LINE
8
1
62
3
10
-18.6898460
20
76.9523468
11
-18.6898460
21
77.8278046
0
LINE
8
1
62
3
10
-16.6898460
20
77.8278046
11
-16.6898460
21
76.9523468
0
LINE
8
1
62
3
10
-14.6898451
20
77.8764191
11
-14.6898451
21
76.9037018
0
LINE
8
1
62
3
10
-15.6898451
20
77.8278046
11
-15.6898451
21
76.9523468
0
LINE
8
1
62
3
10
-13.6898451
20
77.8278046
11
-13.6898451
21
76.9523468
0
LINE
8
1
62
3
10
-12.6898451
20
77.8278046
11
-12.6898451
21
76.9037018
0
LINE
8
1
62
3
10
-11.6898451
20
77.7791595
11
-11.6898451
21
76.9523468
0
LINE
8
1
62
3
10
-10.6898451
20
77.8278046
11
-10.6898451
21
76.9037018
0
LINE
8
1
62
3
10
-9.6898451
20
77.8278046
11
-9.6898451
21
76.9037018
0
LINE
8
1
62
3
10
-8.6898451
20
77.8278046
11
-8.6898451
21
76.9037018
0
LINE
8
1
62
3
10
-6.6898456
20
76.9523468
11
-6.6898456
21
77.8278046
0
LINE
8
1
62
3
10
-4.6898456
20
76.9523468
11
-4.6898456
21
77.8278046
0
LINE
8
1
62
3
10
-5.6898456
20
76.9523468
11
-5.6898456
21
77.8278046
0
LINE
8
1
62
3
10
-20.6898460
20
76.9037018
11
-20.6898460
21
77.8764191
0
ENDBLK
8
0
0
BLOCK
8
0
2
HOUSE_EL-G37
70
0
10
0.0000000
20
0.0000000
0
LINE
8
1
62
3
10
-3.6776843
20
76.8978424
11
-22.6898460
21
76.8978424
0
LINE
8
1
62
3
10
-22.6898460
20
77.8978424
11
-3.6466327
21
77.8978424
0
ENDBLK
8
0
0
BLOCK
8
0
2
HOUSE_EL-G38
70
0
10
0.0000000
20
0.0000000
0
INSERT
8
1
2
HOUSE_EL-G39
10
0.0000000
20
0.0000000
0
LINE
8
1
62
3
10
-19.6898460
20
99.8764191
11
-19.6898460
21
98.9037018
0
LINE
8
1
62
3
10
-21.6898460
20
99.8278046
11
-21.6898460
21
98.9523468
0
LINE
8
1
62
3
10
-7.6898456
20
99.8278046
11
-7.6898456
21
98.9523468
0
INSERT
8
1
2
HOUSE_EL-G40
10
0.0000000
20
0.0000000
0
ENDBLK
8
0
0
BLOCK
8
0
2
HOUSE_EL-G39
70
0
10
0.0000000
20
0.0000000
0
LINE
8
1
62
3
10
-17.6898460
20
99.8764191
11
-17.6898460
21
98.9523468
0
LINE
8
1
62
3
10
-18.6898460
20
98.9523468
11
-18.6898460
21
99.8278046
0
LINE
8
1
62
3
10
-16.6898460
20
99.8278046
11
-16.6898460
21
98.9523468
0
LINE
8
1
62
3
10
-14.6898451
20
99.8764191
11
-14.6898451
21
98.9037018
0
LINE
8
1
62
3
10
-15.6898451
20
99.8278046
11
-15.6898451
21
98.9523468
0
LINE
8
1
62
3
10
-13.6898451
20
99.8278046
11
-13.6898451
21
98.9523468
0
LINE
8
1
62
3
10
-12.6898451
20
99.8278046
11
-12.6898451
21
98.9037018
0
LINE
8
1
62
3
10
-11.6898451
20
99.7791595
11
-11.6898451
21
98.9523468
0
LINE
8
1
62
3
10
-10.6898451
20
99.8278046
11
-10.6898451
21
98.9037018
0
LINE
8
1
62
3
10
-9.6898451
20
99.8278046
11
-9.6898451
21
98.9037018
0
LINE
8
1
62
3
10
-8.6898451
20
99.8278046
11
-8.6898451
21
98.9037018
0
LINE
8
1
62
3
10
-6.6898456
20
98.9523468
11
-6.6898456
21
99.8278046
0
LINE
8
1
62
3
10
-4.6898456
20
98.9523468
11
-4.6898456
21
99.8278046
0
LINE
8
1
62
3
10
-5.6898456
20
98.9523468
11
-5.6898456
21
99.8278046
0
LINE
8
1
62
3
10
-20.6898460
20
98.9037018
11
-20.6898460
21
99.8764191
0
ENDBLK
8
0
0
BLOCK
8
0
2
HOUSE_EL-G40
70
0
10
0.0000000
20
0.0000000
0
LINE
8
1
62
3
10
-3.6776843
20
98.8978424
11
-22.6898460
21
98.8978424
0
LINE
8
1
62
3
10
-22.6898460
20
99.8978424
11
-3.6466327
21
99.8978424
0
ENDBLK
8
0
0
BLOCK
8
0
2
HOUSE_EL-G41
70
0
10
0.0000000
20
0.0000000
0
INSERT
8
1
2
HOUSE_EL-G42
10
0.0000000
20
0.0000000
0
LINE
8
1
62
3
10
-19.6898460
20
97.8764191
11
-19.6898460
21
96.9037018
0
LINE
8
1
62
3
10
-21.6898460
20
97.8278046
11
-21.6898460
21
96.9523468
0
LINE
8
1
62
3
10
-7.6898456
20
97.8278046
11
-7.6898456
21
96.9523468
0
INSERT
8
1
2
HOUSE_EL-G43
10
0.0000000
20
0.0000000
0
ENDBLK
8
0
0
BLOCK
8
0
2
HOUSE_EL-G42
70
0
10
0.0000000
20
0.0000000
0
LINE
8
1
62
3
10
-17.6898460
20
97.8764191
11
-17.6898460
21
96.9523468
0
LINE
8
1
62
3
10
-18.6898460
20
96.9523468
11
-18.6898460
21
97.8278046
0
LINE
8
1
62
3
10
-16.6898460
20
97.8278046
11
-16.6898460
21
96.9523468
0
LINE
8
1
62
3
10
-14.6898451
20
97.8764191
11
-14.6898451
21
96.9037018
0
LINE
8
1
62
3
10
-15.6898451
20
97.8278046
11
-15.6898451
21
96.9523468
0
LINE
8
1
62
3
10
-13.6898451
20
97.8278046
11
-13.6898451
21
96.9523468
0
LINE
8
1
62
3
10
-12.6898451
20
97.8278046
11
-12.6898451
21
96.9037018
0
LINE
8
1
62
3
10
-11.6898451
20
97.7791595
11
-11.6898451
21
96.9523468
0
LINE
8
1
62
3
10
-10.6898451
20
97.8278046
11
-10.6898451
21
96.9037018
0
LINE
8
1
62
3
10
-9.6898451
20
97.8278046
11
-9.6898451
21
96.9037018
0
LINE
8
1
62
3
10
-8.6898451
20
97.8278046
11
-8.6898451
21
96.9037018
0
LINE
8
1
62
3
10
-6.6898456
20
96.9523468
11
-6.6898456
21
97.8278046
0
LINE
8
1
62
3
10
-4.6898456
20
96.9523468
11
-4.6898456
21
97.8278046
0
LINE
8
1
62
3
10
-5.6898456
20
96.9523468
11
-5.6898456
21
97.8278046
0
LINE
8
1
62
3
10
-20.6898460
20
96.9037018
11
-20.6898460
21
97.8764191
0
ENDBLK
8
0
0
BLOCK
8
0
2
HOUSE_EL-G43
70
0
10
0.0000000
20
0.0000000
0
LINE
8
1
62
3
10
-3.6776843
20
96.8978424
11
-22.6898460
21
96.8978424
0
LINE
8
1
62
3
10
-22.6898460
20
97.8978424
11
-3.6466327
21
97.8978424
0
ENDBLK
8
0
0
BLOCK
8
0
2
HOUSE_EL-G44
70
0
10
0.0000000
20
0.0000000
0
INSERT
8
1
2
HOUSE_EL-G45
10
0.0000000
20
0.0000000
0
LINE
8
1
62
3
10
-19.6898460
20
95.8764191
11
-19.6898460
21
94.9037018
0
LINE
8
1
62
3
10
-21.6898460
20
95.8278046
11
-21.6898460
21
94.9523468
0
LINE
8
1
62
3
10
-7.6898456
20
95.8278046
11
-7.6898456
21
94.9523468
0
INSERT
8
1
2
HOUSE_EL-G46
10
0.0000000
20
0.0000000
0
ENDBLK
8
0
0
BLOCK
8
0
2
HOUSE_EL-G45
70
0
10
0.0000000
20
0.0000000
0
LINE
8
1
62
3
10
-17.6898460
20
95.8764191
11
-17.6898460
21
94.9523468
0
LINE
8
1
62
3
10
-18.6898460
20
94.9523468
11
-18.6898460
21
95.8278046
0
LINE
8
1
62
3
10
-16.6898460
20
95.8278046
11
-16.6898460
21
94.9523468
0
LINE
8
1
62
3
10
-14.6898451
20
95.8764191
11
-14.6898451
21
94.9037018
0
LINE
8
1
62
3
10
-15.6898451
20
95.8278046
11
-15.6898451
21
94.9523468
0
LINE
8
1
62
3
10
-13.6898451
20
95.8278046
11
-13.6898451
21
94.9523468
0
LINE
8
1
62
3
10
-12.6898451
20
95.8278046
11
-12.6898451
21
94.9037018
0
LINE
8
1
62
3
10
-11.6898451
20
95.7791595
11
-11.6898451
21
94.9523468
0
LINE
8
1
62
3
10
-10.6898451
20
95.8278046
11
-10.6898451
21
94.9037018
0
LINE
8
1
62
3
10
-9.6898451
20
95.8278046
11
-9.6898451
21
94.9037018
0
LINE
8
1
62
3
10
-8.6898451
20
95.8278046
11
-8.6898451
21
94.9037018
0
LINE
8
1
62
3
10
-6.6898456
20
94.9523468
11
-6.6898456
21
95.8278046
0
LINE
8
1
62
3
10
-4.6898456
20
94.9523468
11
-4.6898456
21
95.8278046
0
LINE
8
1
62
3
10
-5.6898456
20
94.9523468
11
-5.6898456
21
95.8278046
0
LINE
8
1
62
3
10
-20.6898460
20
94.9037018
11
-20.6898460
21
95.8764191
0
ENDBLK
8
0
0
BLOCK
8
0
2
HOUSE_EL-G46
70
0
10
0.0000000
20
0.0000000
0
LINE
8
1
62
3
10
-3.6776843
20
94.8978424
11
-22.6898460
21
94.8978424
0
LINE
8
1
62
3
10
-22.6898460
20
95.8978424
11
-3.6466327
21
95.8978424
0
ENDBLK
8
0
0
BLOCK
8
0
2
HOUSE_EL-G47
70
0
10
0.0000000
20
0.0000000
0
INSERT
8
1
2
HOUSE_EL-G48
10
0.0000000
20
0.0000000
0
LINE
8
1
62
3
10
-19.6898460
20
93.8764191
11
-19.6898460
21
92.9037018
0
LINE
8
1
62
3
10
-21.6898460
20
93.8278046
11
-21.6898460
21
92.9523468
0
LINE
8
1
62
3
10
-7.6898456
20
93.8278046
11
-7.6898456
21
92.9523468
0
INSERT
8
1
2
HOUSE_EL-G49
10
0.0000000
20
0.0000000
0
ENDBLK
8
0
0
BLOCK
8
0
2
HOUSE_EL-G48
70
0
10
0.0000000
20
0.0000000
0
LINE
8
1
62
3
10
-17.6898460
20
93.8764191
11
-17.6898460
21
92.9523468
0
LINE
8
1
62
3
10
-18.6898460
20
92.9523468
11
-18.6898460
21
93.8278046
0
LINE
8
1
62
3
10
-16.6898460
20
93.8278046
11
-16.6898460
21
92.9523468
0
LINE
8
1
62
3
10
-14.6898451
20
93.8764191
11
-14.6898451
21
92.9037018
0
LINE
8
1
62
3
10
-15.6898451
20
93.8278046
11
-15.6898451
21
92.9523468
0
LINE
8
1
62
3
10
-13.6898451
20
93.8278046
11
-13.6898451
21
92.9523468
0
LINE
8
1
62
3
10
-12.6898451
20
93.8278046
11
-12.6898451
21
92.9037018
0
LINE
8
1
62
3
10
-11.6898451
20
93.7791595
11
-11.6898451
21
92.9523468
0
LINE
8
1
62
3
10
-10.6898451
20
93.8278046
11
-10.6898451
21
92.9037018
0
LINE
8
1
62
3
10
-9.6898451
20
93.8278046
11
-9.6898451
21
92.9037018
0
LINE
8
1
62
3
10
-8.6898451
20
93.8278046
11
-8.6898451
21
92.9037018
0
LINE
8
1
62
3
10
-6.6898456
20
92.9523468
11
-6.6898456
21
93.8278046
0
LINE
8
1
62
3
10
-4.6898456
20
92.9523468
11
-4.6898456
21
93.8278046
0
LINE
8
1
62
3
10
-5.6898456
20
92.9523468
11
-5.6898456
21
93.8278046
0
LINE
8
1
62
3
10
-20.6898460
20
92.9037018
11
-20.6898460
21
93.8764191
0
ENDBLK
8
0
0
BLOCK
8
0
2
HOUSE_EL-G49
70
0
10
0.0000000
20
0.0000000
0
LINE
8
1
62
3
10
-3.6776843
20
92.8978424
11
-22.6898460
21
92.8978424
0
LINE
8
1
62
3
10
-22.6898460
20
93.8978424
11
-3.6466327
21
93.8978424
0
ENDBLK
8
0
0
BLOCK
8
0
2
HOUSE_EL-G50
70
0
10
0.0000000
20
0.0000000
0
INSERT
8
1
2
HOUSE_EL-G51
10
0.0000000
20
0.0000000
0
LINE
8
1
62
3
10
-19.6898460
20
91.8764191
11
-19.6898460
21
90.9037018
0
LINE
8
1
62
3
10
-21.6898460
20
91.8278046
11
-21.6898460
21
90.9523468
0
LINE
8
1
62
3
10
-7.6898456
20
91.8278046
11
-7.6898456
21
90.9523468
0
INSERT
8
1
2
HOUSE_EL-G52
10
0.0000000
20
0.0000000
0
ENDBLK
8
0
0
BLOCK
8
0
2
HOUSE_EL-G51
70
0
10
0.0000000
20
0.0000000
0
LINE
8
1
62
3
10
-17.6898460
20
91.8764191
11
-17.6898460
21
90.9523468
0
LINE
8
1
62
3
10
-18.6898460
20
90.9523468
11
-18.6898460
21
91.8278046
0
LINE
8
1
62
3
10
-16.6898460
20
91.8278046
11
-16.6898460
21
90.9523468
0
LINE
8
1
62
3
10
-14.6898451
20
91.8764191
11
-14.6898451
21
90.9037018
0
LINE
8
1
62
3
10
-15.6898451
20
91.8278046
11
-15.6898451
21
90.9523468
0
LINE
8
1
62
3
10
-13.6898451
20
91.8278046
11
-13.6898451
21
90.9523468
0
LINE
8
1
62
3
10
-12.6898451
20
91.8278046
11
-12.6898451
21
90.9037018
0
LINE
8
1
62
3
10
-11.6898451
20
91.7791595
11
-11.6898451
21
90.9523468
0
LINE
8
1
62
3
10
-10.6898451
20
91.8278046
11
-10.6898451
21
90.9037018
0
LINE
8
1
62
3
10
-9.6898451
20
91.8278046
11
-9.6898451
21
90.9037018
0
LINE
8
1
62
3
10
-8.6898451
20
91.8278046
11
-8.6898451
21
90.9037018
0
LINE
8
1
62
3
10
-6.6898456
20
90.9523468
11
-6.6898456
21
91.8278046
0
LINE
8
1
62
3
10
-4.6898456
20
90.9523468
11
-4.6898456
21
91.8278046
0
LINE
8
1
62
3
10
-5.6898456
20
90.9523468
11
-5.6898456
21
91.8278046
0
LINE
8
1
62
3
10
-20.6898460
20
90.9037018
11
-20.6898460
21
91.8764191
0
ENDBLK
8
0
0
BLOCK
8
0
2
HOUSE_EL-G52
70
0
10
0.0000000
20
0.0000000
0
LINE
8
1
62
3
10
-3.6776843
20
90.8978424
11
-22.6898460
21
90.8978424
0
LINE
8
1
62
3
10
-22.6898460
20
91.8978424
11
-3.6466327
21
91.8978424
0
ENDBLK
8
0
0
BLOCK
8
0
2
HOUSE_EL-G53
70
0
10
0.0000000
20
0.0000000
0
INSERT
8
1
2
HOUSE_EL-G54
10
0.0000000
20
0.0000000
0
LINE
8
1
62
3
10
-19.6898460
20
89.8764191
11
-19.6898460
21
88.9037018
0
LINE
8
1
62
3
10
-21.6898460
20
89.8278046
11
-21.6898460
21
88.9523468
0
LINE
8
1
62
3
10
-7.6898456
20
89.8278046
11
-7.6898456
21
88.9523468
0
INSERT
8
1
2
HOUSE_EL-G55
10
0.0000000
20
0.0000000
0
ENDBLK
8
0
0
BLOCK
8
0
2
HOUSE_EL-G54
70
0
10
0.0000000
20
0.0000000
0
LINE
8
1
62
3
10
-17.6898460
20
89.8764191
11
-17.6898460
21
88.9523468
0
LINE
8
1
62
3
10
-18.6898460
20
88.9523468
11
-18.6898460
21
89.8278046
0
LINE
8
1
62
3
10
-16.6898460
20
89.8278046
11
-16.6898460
21
88.9523468
0
LINE
8
1
62
3
10
-14.6898451
20
89.8764191
11
-14.6898451
21
88.9037018
0
LINE
8
1
62
3
10
-15.6898451
20
89.8278046
11
-15.6898451
21
88.9523468
0
LINE
8
1
62
3
10
-13.6898451
20
89.8278046
11
-13.6898451
21
88.9523468
0
LINE
8
1
62
3
10
-12.6898451
20
89.8278046
11
-12.6898451
21
88.9037018
0
LINE
8
1
62
3
10
-11.6898451
20
89.7791595
11
-11.6898451
21
88.9523468
0
LINE
8
1
62
3
10
-10.6898451
20
89.8278046
11
-10.6898451
21
88.9037018
0
LINE
8
1
62
3
10
-9.6898451
20
89.8278046
11
-9.6898451
21
88.9037018
0
LINE
8
1
62
3
10
-8.6898451
20
89.8278046
11
-8.6898451
21
88.9037018
0
LINE
8
1
62
3
10
-6.6898456
20
88.9523468
11
-6.6898456
21
89.8278046
0
LINE
8
1
62
3
10
-4.6898456
20
88.9523468
11
-4.6898456
21
89.8278046
0
LINE
8
1
62
3
10
-5.6898456
20
88.9523468
11
-5.6898456
21
89.8278046
0
LINE
8
1
62
3
10
-20.6898460
20
88.9037018
11
-20.6898460
21
89.8764191
0
ENDBLK
8
0
0
BLOCK
8
0
2
HOUSE_EL-G55
70
0
10
0.0000000
20
0.0000000
0
LINE
8
1
62
3
10
-3.6776843
20
88.8978424
11
-22.6898460
21
88.8978424
0
LINE
8
1
62
3
10
-22.6898460
20
89.8978424
11
-3.6466327
21
89.8978424
0
ENDBLK
8
0
0
BLOCK
8
0
2
HOUSE_EL-G56
70
0
10
0.0000000
20
0.0000000
0
INSERT
8
1
2
HOUSE_EL-G57
10
0.0000000
20
0.0000000
0
LINE
8
1
62
3
10
-19.6898460
20
87.8764191
11
-19.6898460
21
86.9037018
0
LINE
8
1
62
3
10
-21.6898460
20
87.8278046
11
-21.6898460
21
86.9523468
0
LINE
8
1
62
3
10
-7.6898456
20
87.8278046
11
-7.6898456
21
86.9523468
0
INSERT
8
1
2
HOUSE_EL-G58
10
0.0000000
20
0.0000000
0
ENDBLK
8
0
0
BLOCK
8
0
2
HOUSE_EL-G57
70
0
10
0.0000000
20
0.0000000
0
LINE
8
1
62
3
10
-17.6898460
20
87.8764191
11
-17.6898460
21
86.9523468
0
LINE
8
1
62
3
10
-18.6898460
20
86.9523468
11
-18.6898460
21
87.8278046
0
LINE
8
1
62
3
10
-16.6898460
20
87.8278046
11
-16.6898460
21
86.9523468
0
LINE
8
1
62
3
10
-14.6898451
20
87.8764191
11
-14.6898451
21
86.9037018
0
LINE
8
1
62
3
10
-15.6898451
20
87.8278046
11
-15.6898451
21
86.9523468
0
LINE
8
1
62
3
10
-13.6898451
20
87.8278046
11
-13.6898451
21
86.9523468
0
LINE
8
1
62
3
10
-12.6898451
20
87.8278046
11
-12.6898451
21
86.9037018
0
LINE
8
1
62
3
10
-11.6898451
20
87.7791595
11
-11.6898451
21
86.9523468
0
LINE
8
1
62
3
10
-10.6898451
20
87.8278046
11
-10.6898451
21
86.9037018
0
LINE
8
1
62
3
10
-9.6898451
20
87.8278046
11
-9.6898451
21
86.9037018
0
LINE
8
1
62
3
10
-8.6898451
20
87.8278046
11
-8.6898451
21
86.9037018
0
LINE
8
1
62
3
10
-6.6898456
20
86.9523468
11
-6.6898456
21
87.8278046
0
LINE
8
1
62
3
10
-4.6898456
20
86.9523468
11
-4.6898456
21
87.8278046
0
LINE
8
1
62
3
10
-5.6898456
20
86.9523468
11
-5.6898456
21
87.8278046
0
LINE
8
1
62
3
10
-20.6898460
20
86.9037018
11
-20.6898460
21
87.8764191
0
ENDBLK
8
0
0
BLOCK
8
0
2
HOUSE_EL-G58
70
0
10
0.0000000
20
0.0000000
0
LINE
8
1
62
3
10
-3.6776843
20
86.8978424
11
-22.6898460
21
86.8978424
0
LINE
8
1
62
3
10
-22.6898460
20
87.8978424
11
-3.6466327
21
87.8978424
0
ENDBLK
8
0
0
BLOCK
8
0
2
HOUSE_EL-G59
70
0
10
0.0000000
20
0.0000000
0
LINE
8
1
62
7
10
-32.7240257
20
122.8379974
11
-60.7240257
21
122.8379974
0
LINE
8
1
62
7
10
-60.7240257
20
126.8379974
11
-32.7240257
21
126.8379974
0
LINE
8
1
62
7
10
-32.7240257
20
126.8379974
11
-32.7240257
21
122.8379974
0
ENDBLK
8
0
0
BLOCK
8
0
2
HOUSE_EL-G60
70
0
10
0.0000000
20
0.0000000
0
INSERT
8
1
2
HOUSE_EL-G61
10
0.0000000
20
0.0000000
0
LINE
8
1
62
3
10
-19.6898460
20
111.8764191
11
-19.6898460
21
110.9037018
0
LINE
8
1
62
3
10
-21.6898460
20
111.8278046
11
-21.6898460
21
110.9523468
0
LINE
8
1
62
3
10
-7.6898456
20
111.8278046
11
-7.6898456
21
110.9523468
0
INSERT
8
1
2
HOUSE_EL-G62
10
0.0000000
20
0.0000000
0
ENDBLK
8
0
0
BLOCK
8
0
2
HOUSE_EL-G61
70
0
10
0.0000000
20
0.0000000
0
LINE
8
1
62
3
10
-17.6898460
20
111.8764191
11
-17.6898460
21
110.9523468
0
LINE
8
1
62
3
10
-18.6898460
20
110.9523468
11
-18.6898460
21
111.8278046
0
LINE
8
1
62
3
10
-16.6898460
20
111.8278046
11
-16.6898460
21
110.9523468
0
LINE
8
1
62
3
10
-14.6898451
20
111.8764191
11
-14.6898451
21
110.9037018
0
LINE
8
1
62
3
10
-15.6898451
20
111.8278046
11
-15.6898451
21
110.9523468
0
LINE
8
1
62
3
10
-13.6898451
20
111.8278046
11
-13.6898451
21
110.9523468
0
LINE
8
1
62
3
10
-12.6898451
20
111.8278046
11
-12.6898451
21
110.9037018
0
LINE
8
1
62
3
10
-11.6898451
20
111.7791595
11
-11.6898451
21
110.9523468
0
LINE
8
1
62
3
10
-10.6898451
20
111.8278046
11
-10.6898451
21
110.9037018
0
LINE
8
1
62
3
10
-9.6898451
20
111.8278046
11
-9.6898451
21
110.9037018
0
LINE
8
1
62
3
10
-8.6898451
20
111.8278046
11
-8.6898451
21
110.9037018
0
LINE
8
1
62
3
10
-6.6898456
20
110.9523468
11
-6.6898456
21
111.8278046
0
LINE
8
1
62
3
10
-4.6898456
20
110.9523468
11
-4.6898456
21
111.8278046
0
LINE
8
1
62
3
10
-5.6898456
20
110.9523468
11
-5.6898456
21
111.8278046
0
LINE
8
1
62
3
10
-20.6898460
20
110.9037018
11
-20.6898460
21
111.8764191
0
ENDBLK
8
0
0
BLOCK
8
0
2
HOUSE_EL-G62
70
0
10
0.0000000
20
0.0000000
0
LINE
8
1
62
3
10
-3.6776843
20
110.8978424
11
-22.6898460
21
110.8978424
0
LINE
8
1
62
3
10
-22.6898460
20
111.8978424
11
-3.6466327
21
111.8978424
0
ENDBLK
8
0
0
BLOCK
8
0
2
HOUSE_EL-G63
70
0
10
0.0000000
20
0.0000000
0
INSERT
8
1
2
HOUSE_EL-G64
10
0.0000000
20
0.0000000
0
LINE
8
1
62
3
10
-19.6898460
20
109.8764191
11
-19.6898460
21
108.9037018
0
LINE
8
1
62
3
10
-21.6898460
20
109.8278046
11
-21.6898460
21
108.9523468
0
LINE
8
1
62
3
10
-7.6898456
20
109.8278046
11
-7.6898456
21
108.9523468
0
INSERT
8
1
2
HOUSE_EL-G65
10
0.0000000
20
0.0000000
0
ENDBLK
8
0
0
BLOCK
8
0
2
HOUSE_EL-G64
70
0
10
0.0000000
20
0.0000000
0
LINE
8
1
62
3
10
-17.6898460
20
109.8764191
11
-17.6898460
21
108.9523468
0
LINE
8
1
62
3
10
-18.6898460
20
108.9523468
11
-18.6898460
21
109.8278046
0
LINE
8
1
62
3
10
-16.6898460
20
109.8278046
11
-16.6898460
21
108.9523468
0
LINE
8
1
62
3
10
-14.6898451
20
109.8764191
11
-14.6898451
21
108.9037018
0
LINE
8
1
62
3
10
-15.6898451
20
109.8278046
11
-15.6898451
21
108.9523468
0
LINE
8
1
62
3
10
-13.6898451
20
109.8278046
11
-13.6898451
21
108.9523468
0
LINE
8
1
62
3
10
-12.6898451
20
109.8278046
11
-12.6898451
21
108.9037018
0
LINE
8
1
62
3
10
-11.6898451
20
109.7791595
11
-11.6898451
21
108.9523468
0
LINE
8
1
62
3
10
-10.6898451
20
109.8278046
11
-10.6898451
21
108.9037018
0
LINE
8
1
62
3
10
-9.6898451
20
109.8278046
11
-9.6898451
21
108.9037018
0
LINE
8
1
62
3
10
-8.6898451
20
109.8278046
11
-8.6898451
21
108.9037018
0
LINE
8
1
62
3
10
-6.6898456
20
108.9523468
11
-6.6898456
21
109.8278046
0
LINE
8
1
62
3
10
-4.6898456
20
108.9523468
11
-4.6898456
21
109.8278046
0
LINE
8
1
62
3
10
-5.6898456
20
108.9523468
11
-5.6898456
21
109.8278046
0
LINE
8
1
62
3
10
-20.6898460
20
108.9037018
11
-20.6898460
21
109.8764191
0
ENDBLK
8
0
0
BLOCK
8
0
2
HOUSE_EL-G65
70
0
10
0.0000000
20
0.0000000
0
LINE
8
1
62
3
10
-3.6776843
20
108.8978424
11
-22.6898460
21
108.8978424
0
LINE
8
1
62
3
10
-22.6898460
20
109.8978424
11
-3.6466327
21
109.8978424
0
ENDBLK
8
0
0
BLOCK
8
0
2
HOUSE_EL-G66
70
0
10
0.0000000
20
0.0000000
0
INSERT
8
1
2
HOUSE_EL-G67
10
0.0000000
20
0.0000000
0
LINE
8
1
62
3
10
-19.6898460
20
107.8764191
11
-19.6898460
21
106.9037018
0
LINE
8
1
62
3
10
-21.6898460
20
107.8278046
11
-21.6898460
21
106.9523468
0
LINE
8
1
62
3
10
-7.6898456
20
107.8278046
11
-7.6898456
21
106.9523468
0
INSERT
8
1
2
HOUSE_EL-G68
10
0.0000000
20
0.0000000
0
ENDBLK
8
0
0
BLOCK
8
0
2
HOUSE_EL-G67
70
0
10
0.0000000
20
0.0000000
0
LINE
8
1
62
3
10
-17.6898460
20
107.8764191
11
-17.6898460
21
106.9523468
0
LINE
8
1
62
3
10
-18.6898460
20
106.9523468
11
-18.6898460
21
107.8278046
0
LINE
8
1
62
3
10
-16.6898460
20
107.8278046
11
-16.6898460
21
106.9523468
0
LINE
8
1
62
3
10
-14.6898451
20
107.8764191
11
-14.6898451
21
106.9037018
0
LINE
8
1
62
3
10
-15.6898451
20
107.8278046
11
-15.6898451
21
106.9523468
0
LINE
8
1
62
3
10
-13.6898451
20
107.8278046
11
-13.6898451
21
106.9523468
0
LINE
8
1
62
3
10
-12.6898451
20
107.8278046
11
-12.6898451
21
106.9037018
0
LINE
8
1
62
3
10
-11.6898451
20
107.7791595
11
-11.6898451
21
106.9523468
0
LINE
8
1
62
3
10
-10.6898451
20
107.8278046
11
-10.6898451
21
106.9037018
0
LINE
8
1
62
3
10
-9.6898451
20
107.8278046
11
-9.6898451
21
106.9037018
0
LINE
8
1
62
3
10
-8.6898451
20
107.8278046
11
-8.6898451
21
106.9037018
0
LINE
8
1
62
3
10
-6.6898456
20
106.9523468
11
-6.6898456
21
107.8278046
0
LINE
8
1
62
3
10
-4.6898456
20
106.9523468
11
-4.6898456
21
107.8278046
0
LINE
8
1
62
3
10
-5.6898456
20
106.9523468
11
-5.6898456
21
107.8278046
0
LINE
8
1
62
3
10
-20.6898460
20
106.9037018
11
-20.6898460
21
107.8764191
0
ENDBLK
8
0
0
BLOCK
8
0
2
HOUSE_EL-G68
70
0
10
0.0000000
20
0.0000000
0
LINE
8
1
62
3
10
-3.6776843
20
106.8978424
11
-22.6898460
21
106.8978424
0
LINE
8
1
62
3
10
-22.6898460
20
107.8978424
11
-3.6466327
21
107.8978424
0
ENDBLK
8
0
0
BLOCK
8
0
2
HOUSE_EL-G69
70
0
10
0.0000000
20
0.0000000
0
INSERT
8
1
2
HOUSE_EL-G70
10
0.0000000
20
0.0000000
0
LINE
8
1
62
3
10
-19.6898460
20
105.8764191
11
-19.6898460
21
104.9037018
0
LINE
8
1
62
3
10
-21.6898460
20
105.8278046
11
-21.6898460
21
104.9523468
0
LINE
8
1
62
3
10
-7.6898456
20
105.8278046
11
-7.6898456
21
104.9523468
0
INSERT
8
1
2
HOUSE_EL-G71
10
0.0000000
20
0.0000000
0
ENDBLK
8
0
0
BLOCK
8
0
2
HOUSE_EL-G70
70
0
10
0.0000000
20
0.0000000
0
LINE
8
1
62
3
10
-17.6898460
20
105.8764191
11
-17.6898460
21
104.9523468
0
LINE
8
1
62
3
10
-18.6898460
20
104.9523468
11
-18.6898460
21
105.8278046
0
LINE
8
1
62
3
10
-16.6898460
20
105.8278046
11
-16.6898460
21
104.9523468
0
LINE
8
1
62
3
10
-14.6898451
20
105.8764191
11
-14.6898451
21
104.9037018
0
LINE
8
1
62
3
10
-15.6898451
20
105.8278046
11
-15.6898451
21
104.9523468
0
LINE
8
1
62
3
10
-13.6898451
20
105.8278046
11
-13.6898451
21
104.9523468
0
LINE
8
1
62
3
10
-12.6898451
20
105.8278046
11
-12.6898451
21
104.9037018
0
LINE
8
1
62
3
10
-11.6898451
20
105.7791595
11
-11.6898451
21
104.9523468
0
LINE
8
1
62
3
10
-10.6898451
20
105.8278046
11
-10.6898451
21
104.9037018
0
LINE
8
1
62
3
10
-9.6898451
20
105.8278046
11
-9.6898451
21
104.9037018
0
LINE
8
1
62
3
10
-8.6898451
20
105.8278046
11
-8.6898451
21
104.9037018
0
LINE
8
1
62
3
10
-6.6898456
20
104.9523468
11
-6.6898456
21
105.8278046
0
LINE
8
1
62
3
10
-4.6898456
20
104.9523468
11
-4.6898456
21
105.8278046
0
LINE
8
1
62
3
10
-5.6898456
20
104.9523468
11
-5.6898456
21
105.8278046
0
LINE
8
1
62
3
10
-20.6898460
20
104.9037018
11
-20.6898460
21
105.8764191
0
ENDBLK
8
0
0
BLOCK
8
0
2
HOUSE_EL-G71
70
0
10
0.0000000
20
0.0000000
0
LINE
8
1
62
3
10
-3.6776843
20
104.8978424
11
-22.6898460
21
104.8978424
0
LINE
8
1
62
3
10
-22.6898460
20
105.8978424
11
-3.6466327
21
105.8978424
0
ENDBLK
8
0
0
BLOCK
8
0
2
HOUSE_EL-G72
70
0
10
0.0000000
20
0.0000000
0
INSERT
8
1
2
HOUSE_EL-G73
10
0.0000000
20
0.0000000
0
LINE
8
1
62
3
10
-19.6898460
20
103.8764191
11
-19.6898460
21
102.9037018
0
LINE
8
1
62
3
10
-21.6898460
20
103.8278046
11
-21.6898460
21
102.9523468
0
LINE
8
1
62
3
10
-7.6898456
20
103.8278046
11
-7.6898456
21
102.9523468
0
INSERT
8
1
2
HOUSE_EL-G74
10
0.0000000
20
0.0000000
0
ENDBLK
8
0
0
BLOCK
8
0
2
HOUSE_EL-G73
70
0
10
0.0000000
20
0.0000000
0
LINE
8
1
62
3
10
-17.6898460
20
103.8764191
11
-17.6898460
21
102.9523468
0
LINE
8
1
62
3
10
-18.6898460
20
102.9523468
11
-18.6898460
21
103.8278046
0
LINE
8
1
62
3
10
-16.6898460
20
103.8278046
11
-16.6898460
21
102.9523468
0
LINE
8
1
62
3
10
-14.6898451
20
103.8764191
11
-14.6898451
21
102.9037018
0
LINE
8
1
62
3
10
-15.6898451
20
103.8278046
11
-15.6898451
21
102.9523468
0
LINE
8
1
62
3
10
-13.6898451
20
103.8278046
11
-13.6898451
21
102.9523468
0
LINE
8
1
62
3
10
-12.6898451
20
103.8278046
11
-12.6898451
21
102.9037018
0
LINE
8
1
62
3
10
-11.6898451
20
103.7791595
11
-11.6898451
21
102.9523468
0
LINE
8
1
62
3
10
-10.6898451
20
103.8278046
11
-10.6898451
21
102.9037018
0
LINE
8
1
62
3
10
-9.6898451
20
103.8278046
11
-9.6898451
21
102.9037018
0
LINE
8
1
62
3
10
-8.6898451
20
103.8278046
11
-8.6898451
21
102.9037018
0
LINE
8
1
62
3
10
-6.6898456
20
102.9523468
11
-6.6898456
21
103.8278046
0
LINE
8
1
62
3
10
-4.6898456
20
102.9523468
11
-4.6898456
21
103.8278046
0
LINE
8
1
62
3
10
-5.6898456
20
102.9523468
11
-5.6898456
21
103.8278046
0
LINE
8
1
62
3
10
-20.6898460
20
102.9037018
11
-20.6898460
21
103.8764191
0
ENDBLK
8
0
0
BLOCK
8
0
2
HOUSE_EL-G74
70
0
10
0.0000000
20
0.0000000
0
LINE
8
1
62
3
10
-3.6776843
20
102.8978424
11
-22.6898460
21
102.8978424
0
LINE
8
1
62
3
10
-22.6898460
20
103.8978424
11
-3.6466327
21
103.8978424
0
ENDBLK
8
0
0
BLOCK
8
0
2
HOUSE_EL-G75
70
0
10
0.0000000
20
0.0000000
0
INSERT
8
1
2
HOUSE_EL-G76
10
0.0000000
20
0.0000000
0
LINE
8
1
62
3
10
-19.6898460
20
101.8764191
11
-19.6898460
21
100.9037018
0
LINE
8
1
62
3
10
-21.6898460
20
101.8278046
11
-21.6898460
21
100.9523468
0
LINE
8
1
62
3
10
-7.6898456
20
101.8278046
11
-7.6898456
21
100.9523468
0
INSERT
8
1
2
HOUSE_EL-G77
10
0.0000000
20
0.0000000
0
ENDBLK
8
0
0
BLOCK
8
0
2
HOUSE_EL-G76
70
0
10
0.0000000
20
0.0000000
0
LINE
8
1
62
3
10
-17.6898460
20
101.8764191
11
-17.6898460
21
100.9523468
0
LINE
8
1
62
3
10
-18.6898460
20
100.9523468
11
-18.6898460
21
101.8278046
0
LINE
8
1
62
3
10
-16.6898460
20
101.8278046
11
-16.6898460
21
100.9523468
0
LINE
8
1
62
3
10
-14.6898451
20
101.8764191
11
-14.6898451
21
100.9037018
0
LINE
8
1
62
3
10
-15.6898451
20
101.8278046
11
-15.6898451
21
100.9523468
0
LINE
8
1
62
3
10
-13.6898451
20
101.8278046
11
-13.6898451
21
100.9523468
0
LINE
8
1
62
3
10
-12.6898451
20
101.8278046
11
-12.6898451
21
100.9037018
0
LINE
8
1
62
3
10
-11.6898451
20
101.7791595
11
-11.6898451
21
100.9523468
0
LINE
8
1
62
3
10
-10.6898451
20
101.8278046
11
-10.6898451
21
100.9037018
0
LINE
8
1
62
3
10
-9.6898451
20
101.8278046
11
-9.6898451
21
100.9037018
0
LINE
8
1
62
3
10
-8.6898451
20
101.8278046
11
-8.6898451
21
100.9037018
0
LINE
8
1
62
3
10
-6.6898456
20
100.9523468
11
-6.6898456
21
101.8278046
0
LINE
8
1
62
3
10
-4.6898456
20
100.9523468
11
-4.6898456
21
101.8278046
0
LINE
8
1
62
3
10
-5.6898456
20
100.9523468
11
-5.6898456
21
101.8278046
0
LINE
8
1
62
3
10
-20.6898460
20
100.9037018
11
-20.6898460
21
101.8764191
0
ENDBLK
8
0
0
BLOCK
8
0
2
HOUSE_EL-G77
70
0
10
0.0000000
20
0.0000000
0
LINE
8
1
62
3
10
-3.6776843
20
100.8978424
11
-22.6898460
21
100.8978424
0
LINE
8
1
62
3
10
-22.6898460
20
101.8978424
11
-3.6466327
21
101.8978424
0
ENDBLK
8
0
0
BLOCK
8
0
2
HOUSE_EL-G78
70
0
10
0.0000000
20
0.0000000
0
LINE
8
1
62
7
10
-32.7171593
20
126.8263397
11
-28.7171593
21
124.8263397
0
LINE
8
1
62
7
10
-28.7171593
20
124.8263397
11
-28.7171593
21
120.8263397
0
LINE
8
1
62
7
10
-28.7171593
20
120.8263397
11
-32.7171593
21
122.8263397
0
ENDBLK
8
0
0
BLOCK
8
0
2
HOUSE_EL-G79
70
0
10
0.0000000
20
0.0000000
0
LINE
8
1
62
3
10
37.2135963
20
103.8978424
11
37.2135963
21
105.8978424
0
LINE
8
1
62
3
10
37.2135963
20
97.8978424
11
37.2135963
21
99.8978424
0
LINE
8
1
62
3
10
37.2135963
20
96.8978424
11
39.2135963
21
96.8978424
0
LINE
8
1
62
3
10
34.1976814
20
96.8978424
11
36.1976967
21
96.8978424
0
LINE
8
1
62
3
10
39.2135963
20
91.8978424
11
39.2135963
21
93.8978424
0
LINE
8
1
62
3
10
36.1976967
20
91.8978424
11
36.1976967
21
93.8978424
0
LINE
8
1
62
3
10
36.1976967
20
96.8978424
11
36.1976967
21
94.8978424
0
LINE
8
1
62
3
10
36.1976967
20
99.8978424
11
36.1976967
21
97.8978424
0
LINE
8
1
62
3
10
36.1976967
20
102.8978424
11
36.1976967
21
100.8978424
0
LINE
8
1
62
3
10
36.1976967
20
105.8978424
11
36.1976967
21
103.8978424
0
LINE
8
1
62
3
10
36.1976967
20
108.8978424
11
36.1976967
21
106.8978424
0
LINE
8
1
62
3
10
37.2135963
20
106.8978424
11
37.2135963
21
108.8978424
0
LINE
8
1
62
3
10
39.2135963
20
108.8978424
11
39.2135963
21
106.8978424
0
LINE
8
1
62
3
10
39.2135963
20
105.8978424
11
39.2135963
21
103.8978424
0
LINE
8
1
62
3
10
39.2135963
20
102.8978424
11
39.2135963
21
100.8978424
0
LINE
8
1
62
3
10
37.2135963
20
100.8978424
11
37.2135963
21
102.8978424
0
LINE
8
1
62
3
10
39.2135963
20
99.8978424
11
39.2135963
21
97.8978424
0
LINE
8
1
62
3
10
39.2135963
20
96.8978424
11
39.2135963
21
94.8978424
0
LINE
8
1
62
3
10
39.2135963
20
93.8978424
11
37.2135963
21
93.8978424
0
LINE
8
1
62
3
10
37.2135963
20
93.8978424
11
37.2135963
21
91.8978424
0
LINE
8
1
62
3
10
40.1976967
20
109.8978424
11
40.1976967
21
90.8978424
0
LINE
8
1
62
3
10
36.1976967
20
93.8978424
11
34.1976814
21
93.8978424
0
LINE
8
1
62
3
10
34.1976814
20
93.8978424
11
34.1976814
21
91.8978424
0
LINE
8
1
62
3
10
34.1976814
20
97.8978424
11
34.1976814
21
99.8978424
0
LINE
8
1
62
3
10
34.1976814
20
100.8978424
11
34.1976814
21
102.8978424
0
LINE
8
1
62
3
10
34.1976814
20
103.8978424
11
34.1976814
21
105.8978424
0
LINE
8
1
62
3
10
34.1976814
20
106.8978424
11
34.1976814
21
108.8978424
0
ENDBLK
8
0
0
BLOCK
8
0
2
HOUSE_EL-G80
70
0
10
0.0000000
20
0.0000000
0
LINE
8
1
62
3
10
16.2135963
20
103.8978424
11
16.2135963
21
105.8978424
0
LINE
8
1
62
3
10
16.2135963
20
97.8978424
11
16.2135963
21
99.8978424
0
LINE
8
1
62
3
10
16.2135963
20
96.8978424
11
18.2135963
21
96.8978424
0
LINE
8
1
62
3
10
13.1976824
20
96.8978424
11
15.1976824
21
96.8978424
0
LINE
8
1
62
3
10
18.2135963
20
91.8978424
11
18.2135963
21
93.8978424
0
LINE
8
1
62
3
10
15.1976824
20
91.8978424
11
15.1976824
21
93.8978424
0
LINE
8
1
62
3
10
15.1976824
20
96.8978424
11
15.1976824
21
94.8978424
0
LINE
8
1
62
3
10
15.1976824
20
99.8978424
11
15.1976824
21
97.8978424
0
LINE
8
1
62
3
10
15.1976824
20
102.8978424
11
15.1976824
21
100.8978424
0
LINE
8
1
62
3
10
15.1976824
20
105.8978424
11
15.1976824
21
103.8978424
0
LINE
8
1
62
3
10
15.1976824
20
108.8978424
11
15.1976824
21
106.8978424
0
LINE
8
1
62
3
10
16.2135963
20
106.8978424
11
16.2135963
21
108.8978424
0
LINE
8
1
62
3
10
18.2135963
20
108.8978424
11
18.2135963
21
106.8978424
0
LINE
8
1
62
3
10
18.2135963
20
105.8978424
11
18.2135963
21
103.8978424
0
LINE
8
1
62
3
10
18.2135963
20
102.8978424
11
18.2135963
21
100.8978424
0
LINE
8
1
62
3
10
16.2135963
20
100.8978424
11
16.2135963
21
102.8978424
0
LINE
8
1
62
3
10
18.2135963
20
99.8978424
11
18.2135963
21
97.8978424
0
LINE
8
1
62
3
10
18.2135963
20
96.8978424
11
18.2135963
21
94.8978424
0
LINE
8
1
62
3
10
18.2135963
20
93.8978424
11
16.2135963
21
93.8978424
0
LINE
8
1
62
3
10
16.2135963
20
93.8978424
11
16.2135963
21
91.8978424
0
LINE
8
1
62
3
10
19.1976814
20
109.8978424
11
19.1976814
21
90.8978424
0
LINE
8
1
62
3
10
15.1976824
20
93.8978424
11
13.1976824
21
93.8978424
0
LINE
8
1
62
3
10
13.1976824
20
93.8978424
11
13.1976824
21
91.8978424
0
LINE
8
1
62
3
10
13.1976824
20
97.8978424
11
13.1976824
21
99.8978424
0
LINE
8
1
62
3
10
13.1976824
20
100.8978424
11
13.1976824
21
102.8978424
0
LINE
8
1
62
3
10
13.1976824
20
103.8978424
11
13.1976824
21
105.8978424
0
LINE
8
1
62
3
10
13.1976824
20
106.8978424
11
13.1976824
21
108.8978424
0
ENDBLK
8
0
0
BLOCK
8
0
2
HOUSE_EL-G81
70
0
10
0.0000000
20
0.0000000
0
LINE
8
1
62
3
10
26.2135963
20
103.8978424
11
26.2135963
21
105.8978424
0
LINE
8
1
62
3
10
26.2135963
20
97.8978424
11
26.2135963
21
99.8978424
0
LINE
8
1
62
3
10
26.2135963
20
96.8978424
11
28.2135963
21
96.8978424
0
LINE
8
1
62
3
10
23.1976814
20
96.8978424
11
25.1976814
21
96.8978424
0
LINE
8
1
62
3
10
28.2135963
20
91.8978424
11
28.2135963
21
93.8978424
0
LINE
8
1
62
3
10
25.1976814
20
91.8978424
11
25.1976814
21
93.8978424
0
LINE
8
1
62
3
10
25.1976814
20
96.8978424
11
25.1976814
21
94.8978424
0
LINE
8
1
62
3
10
25.1976814
20
99.8978424
11
25.1976814
21
97.8978424
0
LINE
8
1
62
3
10
25.1976814
20
102.8978424
11
25.1976814
21
100.8978424
0
LINE
8
1
62
3
10
25.1976814
20
105.8978424
11
25.1976814
21
103.8978424
0
LINE
8
1
62
3
10
25.1976814
20
108.8978424
11
25.1976814
21
106.8978424
0
LINE
8
1
62
3
10
26.2135963
20
106.8978424
11
26.2135963
21
108.8978424
0
LINE
8
1
62
3
10
28.2135963
20
108.8978424
11
28.2135963
21
106.8978424
0
LINE
8
1
62
3
10
28.2135963
20
105.8978424
11
28.2135963
21
103.8978424
0
LINE
8
1
62
3
10
28.2135963
20
102.8978424
11
28.2135963
21
100.8978424
0
LINE
8
1
62
3
10
26.2135963
20
100.8978424
11
26.2135963
21
102.8978424
0
LINE
8
1
62
3
10
28.2135963
20
99.8978424
11
28.2135963
21
97.8978424
0
LINE
8
1
62
3
10
28.2135963
20
96.8978424
11
28.2135963
21
94.8978424
0
LINE
8
1
62
3
10
28.2135963
20
93.8978424
11
26.2135963
21
93.8978424
0
LINE
8
1
62
3
10
26.2135963
20
93.8978424
11
26.2135963
21
91.8978424
0
LINE
8
1
62
3
10
29.1976814
20
109.8978424
11
29.1976814
21
90.8978424
0
LINE
8
1
62
3
10
25.1976814
20
93.8978424
11
23.1976814
21
93.8978424
0
LINE
8
1
62
3
10
23.1976814
20
93.8978424
11
23.1976814
21
91.8978424
0
LINE
8
1
62
3
10
23.1976814
20
97.8978424
11
23.1976814
21
99.8978424
0
LINE
8
1
62
3
10
23.1976814
20
100.8978424
11
23.1976814
21
102.8978424
0
LINE
8
1
62
3
10
23.1976814
20
103.8978424
11
23.1976814
21
105.8978424
0
LINE
8
1
62
3
10
23.1976814
20
106.8978424
11
23.1976814
21
108.8978424
0
ENDBLK
8
0
0
BLOCK
8
0
2
HOUSE_EL-G82
70
0
10
0.0000000
20
0.0000000
0
LINE
8
1
62
3
10
47.2135963
20
103.8978424
11
47.2135963
21
105.8978424
0
LINE
8
1
62
3
10
47.2135963
20
97.8978424
11
47.2135963
21
99.8978424
0
LINE
8
1
62
3
10
47.2135963
20
96.8978424
11
49.2135963
21
96.8978424
0
LINE
8
1
62
3
10
44.1976967
20
96.8978424
11
46.1976967
21
96.8978424
0
LINE
8
1
62
3
10
49.2135963
20
91.8978424
11
49.2135963
21
93.8978424
0
LINE
8
1
62
3
10
46.1976967
20
91.8978424
11
46.1976967
21
93.8978424
0
LINE
8
1
62
3
10
46.1976967
20
96.8978424
11
46.1976967
21
94.8978424
0
LINE
8
1
62
3
10
46.1976967
20
99.8978424
11
46.1976967
21
97.8978424
0
LINE
8
1
62
3
10
46.1976967
20
102.8978424
11
46.1976967
21
100.8978424
0
LINE
8
1
62
3
10
46.1976967
20
105.8978424
11
46.1976967
21
103.8978424
0
LINE
8
1
62
3
10
46.1976967
20
108.8978424
11
46.1976967
21
106.8978424
0
LINE
8
1
62
3
10
47.2135963
20
106.8978424
11
47.2135963
21
108.8978424
0
LINE
8
1
62
3
10
49.2135963
20
108.8978424
11
49.2135963
21
106.8978424
0
LINE
8
1
62
3
10
49.2135963
20
105.8978424
11
49.2135963
21
103.8978424
0
LINE
8
1
62
3
10
49.2135963
20
102.8978424
11
49.2135963
21
100.8978424
0
LINE
8
1
62
3
10
47.2135963
20
100.8978424
11
47.2135963
21
102.8978424
0
LINE
8
1
62
3
10
49.2135963
20
99.8978424
11
49.2135963
21
97.8978424
0
LINE
8
1
62
3
10
49.2135963
20
96.8978424
11
49.2135963
21
94.8978424
0
LINE
8
1
62
3
10
49.2135963
20
93.8978424
11
47.2135963
21
93.8978424
0
LINE
8
1
62
3
10
47.2135963
20
93.8978424
11
47.2135963
21
91.8978424
0
LINE
8
1
62
3
10
50.1976967
20
109.8978424
11
50.1976967
21
90.8978424
0
LINE
8
1
62
3
10
46.1976967
20
93.8978424
11
44.1976967
21
93.8978424
0
LINE
8
1
62
3
10
44.1976967
20
93.8978424
11
44.1976967
21
91.8978424
0
LINE
8
1
62
3
10
44.1976967
20
97.8978424
11
44.1976967
21
99.8978424
0
LINE
8
1
62
3
10
44.1976967
20
100.8978424
11
44.1976967
21
102.8978424
0
LINE
8
1
62
3
10
44.1976967
20
103.8978424
11
44.1976967
21
105.8978424
0
LINE
8
1
62
3
10
44.1976967
20
106.8978424
11
44.1976967
21
108.8978424
0
ENDBLK
8
0
0
BLOCK
8
0
2
HOUSE_EL-G83
70
0
10
0.0000000
20
0.0000000
0
INSERT
8
1
2
HOUSE_EL-G84
10
0.0000000
20
0.0000000
0
ENDBLK
8
0
0
BLOCK
8
0
2
HOUSE_EL-G84
70
0
10
0.0000000
20
0.0000000
0
LINE
8
1
62
7
10
40.1976967
20
88.8978424
11
40.1976967
21
78.8978424
0
LINE
8
1
62
7
10
38.1976967
20
86.8978424
11
38.1976967
21
80.8978424
0
LINE
8
1
62
7
10
38.1976967
20
80.8978424
11
35.1976814
21
80.8978424
0
LINE
8
1
62
7
10
35.1976814
20
80.8978424
11
35.1976814
21
86.8978424
0
LINE
8
1
62
7
10
35.1976814
20
86.8978424
11
38.1976967
21
86.8978424
0
LINE
8
1
62
7
10
33.1976814
20
88.8978424
11
40.1976967
21
88.8978424
0
LINE
8
1
62
7
10
33.1976814
20
78.8978424
11
33.1976814
21
88.8978424
0
LINE
8
1
62
7
10
40.1976967
20
78.8978424
11
33.1976814
21
78.8978424
0
ENDBLK
8
0
0
BLOCK
8
0
2
HOUSE_EL-G85
70
0
10
0.0000000
20
0.0000000
0
INSERT
8
1
2
HOUSE_EL-G86
10
0.0000000
20
0.0000000
0
ENDBLK
8
0
0
BLOCK
8
0
2
HOUSE_EL-G86
70
0
10
0.0000000
20
0.0000000
0
LINE
8
1
62
7
10
40.1976967
20
76.8978424
11
40.1976967
21
66.8978424
0
LINE
8
1
62
7
10
38.1976967
20
74.8978424
11
38.1976967
21
68.8978424
0
LINE
8
1
62
7
10
38.1976967
20
68.8978424
11
35.1976814
21
68.8978424
0
LINE
8
1
62
7
10
35.1976814
20
68.8978424
11
35.1976814
21
74.8978424
0
LINE
8
1
62
7
10
35.1976814
20
74.8978424
11
38.1976967
21
74.8978424
0
LINE
8
1
62
7
10
33.1976814
20
76.8978424
11
40.1976967
21
76.8978424
0
LINE
8
1
62
7
10
33.1976814
20
66.8978424
11
33.1976814
21
76.8978424
0
LINE
8
1
62
7
10
40.1976967
20
66.8978424
11
33.1976814
21
66.8978424
0
ENDBLK
8
0
0
BLOCK
8
0
2
HOUSE_EL-G87
70
0
10
0.0000000
20
0.0000000
0
INSERT
8
1
2
HOUSE_EL-G88
10
0.0000000
20
0.0000000
0
ENDBLK
8
0
0
BLOCK
8
0
2
HOUSE_EL-G88
70
0
10
0.0000000
20
0.0000000
0
LINE
8
1
62
7
10
29.1976814
20
88.8978424
11
29.1976814
21
78.8978424
0
LINE
8
1
62
7
10
27.1976814
20
86.8978424
11
27.1976814
21
80.8978424
0
LINE
8
1
62
7
10
27.1976814
20
80.8978424
11
24.1976814
21
80.8978424
0
LINE
8
1
62
7
10
24.1976814
20
80.8978424
11
24.1976814
21
86.8978424
0
LINE
8
1
62
7
10
24.1976814
20
86.8978424
11
27.1976814
21
86.8978424
0
LINE
8
1
62
7
10
22.1976814
20
88.8978424
11
29.1976814
21
88.8978424
0
LINE
8
1
62
7
10
22.1976814
20
78.8978424
11
22.1976814
21
88.8978424
0
LINE
8
1
62
7
10
29.1976814
20
78.8978424
11
22.1976814
21
78.8978424
0
ENDBLK
8
0
0
BLOCK
8
0
2
HOUSE_EL-G89
70
0
10
0.0000000
20
0.0000000
0
INSERT
8
1
2
HOUSE_EL-G90
10
0.0000000
20
0.0000000
0
ENDBLK
8
0
0
BLOCK
8
0
2
HOUSE_EL-G90
70
0
10
0.0000000
20
0.0000000
0
LINE
8
1
62
7
10
19.1976814
20
88.8978424
11
19.1976814
21
78.8978424
0
LINE
8
1
62
7
10
17.1976814
20
86.8978424
11
17.1976814
21
80.8978424
0
LINE
8
1
62
7
10
17.1976814
20
80.8978424
11
14.1976824
21
80.8978424
0
LINE
8
1
62
7
10
14.1976824
20
80.8978424
11
14.1976824
21
86.8978424
0
LINE
8
1
62
7
10
14.1976824
20
86.8978424
11
17.1976814
21
86.8978424
0
LINE
8
1
62
7
10
12.1976824
20
88.8978424
11
19.1976814
21
88.8978424
0
LINE
8
1
62
7
10
12.1976824
20
78.8978424
11
12.1976824
21
88.8978424
0
LINE
8
1
62
7
10
19.1976814
20
78.8978424
11
12.1976824
21
78.8978424
0
ENDBLK
8
0
0
BLOCK
8
0
2
HOUSE_EL-G91
70
0
10
0.0000000
20
0.0000000
0
INSERT
8
1
2
HOUSE_EL-G92
10
0.0000000
20
0.0000000
0
ENDBLK
8
0
0
BLOCK
8
0
2
HOUSE_EL-G92
70
0
10
0.0000000
20
0.0000000
0
LINE
8
1
62
7
10
19.1976814
20
76.8978424
11
19.1976814
21
66.8978424
0
LINE
8
1
62
7
10
17.1976814
20
74.8978424
11
17.1976814
21
68.8978424
0
LINE
8
1
62
7
10
17.1976814
20
68.8978424
11
14.1976824
21
68.8978424
0
LINE
8
1
62
7
10
14.1976824
20
68.8978424
11
14.1976824
21
74.8978424
0
LINE
8
1
62
7
10
14.1976824
20
74.8978424
11
17.1976814
21
74.8978424
0
LINE
8
1
62
7
10
12.1976824
20
76.8978424
11
19.1976814
21
76.8978424
0
LINE
8
1
62
7
10
12.1976824
20
66.8978424
11
12.1976824
21
76.8978424
0
LINE
8
1
62
7
10
19.1976814
20
66.8978424
11
12.1976824
21
66.8978424
0
ENDBLK
8
0
0
BLOCK
8
0
2
HOUSE_EL-G93
70
0
10
0.0000000
20
0.0000000
0
LINE
8
1
62
7
10
29.1976814
20
76.8978424
11
29.1976814
21
66.8978424
0
LINE
8
1
62
7
10
27.1976814
20
74.8978424
11
27.1976814
21
68.8978424
0
LINE
8
1
62
7
10
27.1976814
20
68.8978424
11
24.1976814
21
68.8978424
0
LINE
8
1
62
7
10
24.1976814
20
68.8978424
11
24.1976814
21
74.8978424
0
LINE
8
1
62
7
10
24.1976814
20
74.8978424
11
27.1976814
21
74.8978424
0
LINE
8
1
62
7
10
22.1976814
20
76.8978424
11
29.1976814
21
76.8978424
0
LINE
8
1
62
7
10
22.1976814
20
66.8978424
11
22.1976814
21
76.8978424
0
LINE
8
1
62
7
10
29.1976814
20
66.8978424
11
22.1976814
21
66.8978424
0
ENDBLK
8
0
0
BLOCK
8
0
2
HOUSE_EL-G94
70
0
10
0.0000000
20
0.0000000
0
INSERT
8
1
2
HOUSE_EL-G95
10
0.0000000
20
0.0000000
0
ENDBLK
8
0
0
BLOCK
8
0
2
HOUSE_EL-G95
70
0
10
0.0000000
20
0.0000000
0
LINE
8
1
62
7
10
50.1976967
20
88.8978424
11
50.1976967
21
78.8978424
0
LINE
8
1
62
7
10
48.1976967
20
86.8978424
11
48.1976967
21
80.8978424
0
LINE
8
1
62
7
10
48.1976967
20
80.8978424
11
45.1976967
21
80.8978424
0
LINE
8
1
62
7
10
45.1976967
20
80.8978424
11
45.1976967
21
86.8978424
0
LINE
8
1
62
7
10
45.1976967
20
86.8978424
11
48.1976967
21
86.8978424
0
LINE
8
1
62
7
10
43.1976967
20
88.8978424
11
50.1976967
21
88.8978424
0
LINE
8
1
62
7
10
43.1976967
20
78.8978424
11
43.1976967
21
88.8978424
0
LINE
8
1
62
7
10
50.1976967
20
78.8978424
11
43.1976967
21
78.8978424
0
ENDBLK
8
0
0
BLOCK
8
0
2
HOUSE_EL-G96
70
0
10
0.0000000
20
0.0000000
0
INSERT
8
1
2
HOUSE_EL-G97
10
0.0000000
20
0.0000000
0
ENDBLK
8
0
0
BLOCK
8
0
2
HOUSE_EL-G97
70
0
10
0.0000000
20
0.0000000
0
LINE
8
1
62
7
10
50.1976967
20
76.8978424
11
50.1976967
21
66.8978424
0
LINE
8
1
62
7
10
48.1976967
20
74.8978424
11
48.1976967
21
68.8978424
0
LINE
8
1
62
7
10
48.1976967
20
68.8978424
11
45.1976967
21
68.8978424
0
LINE
8
1
62
7
10
45.1976967
20
68.8978424
11
45.1976967
21
74.8978424
0
LINE
8
1
62
7
10
45.1976967
20
74.8978424
11
48.1976967
21
74.8978424
0
LINE
8
1
62
7
10
43.1976967
20
76.8978424
11
50.1976967
21
76.8978424
0
LINE
8
1
62
7
10
43.1976967
20
66.8978424
11
43.1976967
21
76.8978424
0
LINE
8
1
62
7
10
50.1976967
20
66.8978424
11
43.1976967
21
66.8978424
0
ENDBLK
8
0
0
BLOCK
8
0
2
HOUSE_EL-G98
70
0
10
0.0000000
20
0.0000000
0
INSERT
8
1
2
HOUSE_EL-G99
10
0.0000000
20
0.0000000
0
LINE
8
1
62
3
10
12.2132006
20
130.8656769
11
12.2132006
21
126.8656769
0
ENDBLK
8
0
0
BLOCK
8
0
2
HOUSE_EL-G99
70
0
10
0.0000000
20
0.0000000
0
INSERT
8
1
2
HOUSE_EL-G100
10
0.0000000
20
0.0000000
0
LINE
8
1
62
3
10
16.2131996
20
136.8656769
11
16.2131996
21
132.8656769
0
LINE
8
1
62
3
10
12.2132006
20
132.8656769
11
12.2132006
21
136.8656769
0
LINE
8
1
62
3
10
16.2131996
20
130.8656769
11
12.2132006
21
130.8656769
0
LINE
8
1
62
3
10
12.2132006
20
138.8656769
11
12.2132006
21
142.8656769
0
LINE
8
1
62
3
10
16.2131996
20
142.8656769
11
16.2131996
21
138.8656769
0
ENDBLK
8
0
0
BLOCK
8
0
2
HOUSE_EL-G100
70
0
10
0.0000000
20
0.0000000
0
INSERT
8
1
2
HOUSE_EL-G101
10
0.0000000
20
0.0000000
0
LINE
8
1
62
3
10
30.2131996
20
124.8656769
11
10.2132006
21
124.8656769
0
INSERT
8
1
2
HOUSE_EL-G102
10
0.0000000
20
0.0000000
0
LINE
8
1
62
3
10
30.2131996
20
144.8656769
11
30.2131996
21
124.8656769
0
LINE
8
1
62
3
10
30.2131996
20
144.8656769
11
10.2132006
21
144.8656769
0
LINE
8
1
62
3
10
16.2131996
20
138.8656769
11
12.2132006
21
138.8656769
0
LINE
8
1
62
3
10
12.2132006
20
142.8656769
11
16.2131996
21
142.8656769
0
LINE
8
1
62
3
10
16.2131996
20
132.8656769
11
12.2132006
21
132.8656769
0
LINE
8
1
62
3
10
12.2132006
20
136.8656769
11
16.2131996
21
136.8656769
0
LINE
8
1
62
3
10
12.2132006
20
130.8656769
11
16.2131996
21
130.8656769
0
LINE
8
1
62
3
10
16.2131996
20
126.8656769
11
16.2131996
21
130.8656769
0
LINE
8
1
62
3
10
12.2132006
20
126.8656769
11
16.2131996
21
126.8656769
0
LINE
8
1
62
3
10
10.2132006
20
124.8656769
11
10.2132006
21
144.8656769
0
ENDBLK
8
0
0
BLOCK
8
0
2
HOUSE_EL-G101
70
0
10
0.0000000
20
0.0000000
0
INSERT
8
1
2
HOUSE_EL-G103
10
0.0000000
20
0.0000000
0
ENDBLK
8
0
0
BLOCK
8
0
2
HOUSE_EL-G102
70
0
10
0.0000000
20
0.0000000
0
INSERT
8
1
2
HOUSE_EL-G104
10
0.0000000
20
0.0000000
0
ENDBLK
8
0
0
BLOCK
8
0
2
HOUSE_EL-G103
70
0
10
0.0000000
20
0.0000000
0
LINE
8
1
62
3
10
18.1741219
20
130.8656769
11
18.1741219
21
126.8656769
0
LINE
8
1
62
3
10
18.1741219
20
126.8656769
11
22.1741219
21
126.8656769
0
LINE
8
1
62
3
10
22.1741219
20
126.8656769
11
22.1741219
21
130.8656769
0
LINE
8
1
62
3
10
18.1741219
20
130.8656769
11
22.1741219
21
130.8656769
0
LINE
8
1
62
3
10
22.1741219
20
136.8656769
11
22.1741219
21
132.8656769
0
LINE
8
1
62
3
10
22.1741219
20
132.8656769
11
18.1741219
21
132.8656769
0
LINE
8
1
62
3
10
18.1741219
20
132.8656769
11
18.1741219
21
136.8656769
0
LINE
8
1
62
3
10
18.1741219
20
136.8656769
11
22.1741219
21
136.8656769
0
LINE
8
1
62
3
10
22.1741219
20
138.8656769
11
18.1741219
21
138.8656769
0
LINE
8
1
62
3
10
18.1741219
20
138.8656769
11
18.1741219
21
142.8656769
0
LINE
8
1
62
3
10
22.1741219
20
142.8656769
11
22.1741219
21
138.8656769
0
LINE
8
1
62
3
10
18.1741219
20
142.8656769
11
22.1741219
21
142.8656769
0
ENDBLK
8
0
0
BLOCK
8
0
2
HOUSE_EL-G104
70
0
10
0.0000000
20
0.0000000
0
LINE
8
1
62
3
10
24.1480751
20
130.8656769
11
24.1480751
21
126.8656769
0
LINE
8
1
62
3
10
24.1480751
20
126.8656769
11
28.1480751
21
126.8656769
0
LINE
8
1
62
3
10
28.1480751
20
126.8656769
11
28.1480751
21
130.8656769
0
LINE
8
1
62
3
10
24.1480751
20
130.8656769
11
28.1480751
21
130.8656769
0
LINE
8
1
62
3
10
28.1480751
20
136.8656769
11
28.1480751
21
132.8656769
0
LINE
8
1
62
3
10
28.1480751
20
132.8656769
11
24.1480751
21
132.8656769
0
LINE
8
1
62
3
10
24.1480751
20
132.8656769
11
24.1480751
21
136.8656769
0
LINE
8
1
62
3
10
24.1480751
20
136.8656769
11
28.1480751
21
136.8656769
0
LINE
8
1
62
3
10
28.1480751
20
138.8656769
11
24.1480751
21
138.8656769
0
LINE
8
1
62
3
10
24.1480751
20
138.8656769
11
24.1480751
21
142.8656769
0
LINE
8
1
62
3
10
28.1480751
20
142.8656769
11
28.1480751
21
138.8656769
0
LINE
8
1
62
3
10
24.1480751
20
142.8656769
11
28.1480751
21
142.8656769
0
ENDBLK
8
0
0
BLOCK
8
0
2
HOUSE_EL-G105
70
0
10
0.0000000
20
0.0000000
0
LINE
8
1
62
3
10
52.2897682
20
144.8656769
11
52.2897682
21
124.8656769
0
ENDBLK
8
0
0
BLOCK
8
0
2
HOUSE_EL-G106
70
0
10
0.0000000
20
0.0000000
0
INSERT
8
1
2
HOUSE_EL-G107
10
0.0000000
20
0.0000000
0
ENDBLK
8
0
0
BLOCK
8
0
2
HOUSE_EL-G107
70
0
10
0.0000000
20
0.0000000
0
LINE
8
1
62
3
10
44.2506752
20
126.8656769
11
44.2506752
21
130.8656769
0
LINE
8
1
62
3
10
44.2506752
20
136.8656769
11
44.2506752
21
132.8656769
0
LINE
8
1
62
3
10
46.2246437
20
132.8656769
11
46.2246437
21
136.8656769
0
LINE
8
1
62
3
10
46.2246437
20
130.8656769
11
46.2246437
21
126.8656769
0
LINE
8
1
62
3
10
46.2246437
20
130.8656769
11
50.2246437
21
130.8656769
0
LINE
8
1
62
3
10
50.2246437
20
132.8656769
11
46.2246437
21
132.8656769
0
LINE
8
1
62
3
10
46.2246437
20
136.8656769
11
50.2246437
21
136.8656769
0
LINE
8
1
62
3
10
50.2246437
20
136.8656769
11
50.2246437
21
132.8656769
0
LINE
8
1
62
3
10
50.2246437
20
126.8656769
11
50.2246437
21
130.8656769
0
LINE
8
1
62
3
10
46.2246437
20
126.8656769
11
50.2246437
21
126.8656769
0
LINE
8
1
62
3
10
40.2506752
20
130.8656769
11
44.2506752
21
130.8656769
0
LINE
8
1
62
3
10
40.2506752
20
130.8656769
11
40.2506752
21
126.8656769
0
LINE
8
1
62
3
10
40.2506752
20
126.8656769
11
44.2506752
21
126.8656769
0
LINE
8
1
62
3
10
40.2506752
20
132.8656769
11
40.2506752
21
136.8656769
0
LINE
8
1
62
3
10
40.2506752
20
136.8656769
11
44.2506752
21
136.8656769
0
LINE
8
1
62
3
10
44.2506752
20
132.8656769
11
40.2506752
21
132.8656769
0
ENDBLK
8
0
0
BLOCK
8
0
2
HOUSE_EL-G108
70
0
10
0.0000000
20
0.0000000
0
INSERT
8
1
2
HOUSE_EL-G109
10
0.0000000
20
0.0000000
0
INSERT
8
1
2
HOUSE_EL-G110
10
0.0000000
20
0.0000000
0
INSERT
8
1
2
HOUSE_EL-G111
10
0.0000000
20
0.0000000
0
INSERT
8
1
2
HOUSE_EL-G112
10
0.0000000
20
0.0000000
0
ENDBLK
8
0
0
BLOCK
8
0
2
HOUSE_EL-G109
70
0
10
0.0000000
20
0.0000000
0
LINE
8
1
62
7
10
144.3881226
20
60.5023346
11
114.3881302
21
60.5023346
0
INSERT
8
1
2
HOUSE_EL-G113
10
0.0000000
20
0.0000000
0
LINE
8
1
62
7
10
142.3881226
20
52.5023346
11
142.3881226
21
58.5023346
0
LINE
8
1
62
7
10
144.3881226
20
50.5023346
11
144.3881226
21
60.5023346
0
LINE
8
1
62
7
10
116.3881302
20
58.5023346
11
116.3881302
21
52.5023346
0
LINE
8
1
62
7
10
114.3881302
20
60.5023346
11
114.3881302
21
50.5023346
0
LINE
8
1
62
7
10
114.3881302
20
50.5023346
11
144.3881226
21
50.5023346
0
ENDBLK
8
0
0
BLOCK
8
0
2
HOUSE_EL-G110
70
0
10
0.0000000
20
0.0000000
0
LINE
8
1
62
7
10
178.3881226
20
60.5023346
11
148.3881226
21
60.5023346
0
INSERT
8
1
2
HOUSE_EL-G114
10
0.0000000
20
0.0000000
0
LINE
8
1
62
7
10
176.3881226
20
52.5023346
11
176.3881226
21
58.5023346
0
LINE
8
1
62
7
10
178.3881226
20
50.5023346
11
178.3881226
21
60.5023346
0
LINE
8
1
62
7
10
150.3881226
20
58.5023346
11
150.3881226
21
52.5023346
0
LINE
8
1
62
7
10
148.3881226
20
60.5023346
11
148.3881226
21
50.5023346
0
LINE
8
1
62
7
10
148.3881226
20
50.5023346
11
178.3881226
21
50.5023346
0
ENDBLK
8
0
0
BLOCK
8
0
2
HOUSE_EL-G111
70
0
10
0.0000000
20
0.0000000
0
LINE
8
1
62
7
10
212.3881226
20
60.5023346
11
182.3881226
21
60.5023346
0
INSERT
8
1
2
HOUSE_EL-G115
10
0.0000000
20
0.0000000
0
LINE
8
1
62
7
10
210.3881226
20
52.5023346
11
210.3881226
21
58.5023346
0
LINE
8
1
62
7
10
212.3881226
20
50.5023346
11
212.3881226
21
60.5023346
0
LINE
8
1
62
7
10
184.3881226
20
58.5023346
11
184.3881226
21
52.5023346
0
LINE
8
1
62
7
10
182.3881226
20
60.5023346
11
182.3881226
21
50.5023346
0
LINE
8
1
62
7
10
182.3881226
20
50.5023346
11
212.3881226
21
50.5023346
0
ENDBLK
8
0
0
BLOCK
8
0
2
HOUSE_EL-G112
70
0
10
0.0000000
20
0.0000000
0
LINE
8
1
62
7
10
246.3881226
20
60.5023346
11
216.3881226
21
60.5023346
0
INSERT
8
1
2
HOUSE_EL-G116
10
0.0000000
20
0.0000000
0
LINE
8
1
62
7
10
244.3881226
20
52.5023346
11
244.3881226
21
58.5023346
0
LINE
8
1
62
7
10
246.3881226
20
50.5023346
11
246.3881226
21
60.5023346
0
LINE
8
1
62
7
10
218.3881226
20
58.5023346
11
218.3881226
21
52.5023346
0
LINE
8
1
62
7
10
216.3881226
20
60.5023346
11
216.3881226
21
50.5023346
0
LINE
8
1
62
7
10
216.3881226
20
50.5023346
11
246.3881226
21
50.5023346
0
ENDBLK
8
0
0
BLOCK
8
0
2
HOUSE_EL-G113
70
0
10
0.0000000
20
0.0000000
0
LINE
8
1
62
7
10
142.3881226
20
58.5023346
11
116.3881302
21
58.5023346
0
LINE
8
1
62
7
10
116.3881302
20
52.5023346
11
142.3881226
21
52.5023346
0
ENDBLK
8
0
0
BLOCK
8
0
2
HOUSE_EL-G114
70
0
10
0.0000000
20
0.0000000
0
LINE
8
1
62
7
10
176.3881226
20
58.5023346
11
150.3881226
21
58.5023346
0
LINE
8
1
62
7
10
150.3881226
20
52.5023346
11
176.3881226
21
52.5023346
0
ENDBLK
8
0
0
BLOCK
8
0
2
HOUSE_EL-G115
70
0
10
0.0000000
20
0.0000000
0
LINE
8
1
62
7
10
210.3881226
20
58.5023346
11
184.3881226
21
58.5023346
0
LINE
8
1
62
7
10
184.3881226
20
52.5023346
11
210.3881226
21
52.5023346
0
ENDBLK
8
0
0
BLOCK
8
0
2
HOUSE_EL-G116
70
0
10
0.0000000
20
0.0000000
0
LINE
8
1
62
7
10
244.3881226
20
58.5023346
11
218.3881226
21
58.5023346
0
LINE
8
1
62
7
10
218.3881226
20
52.5023346
11
244.3881226
21
52.5023346
0
ENDBLK
8
0
0
BLOCK
8
0
2
HOUSE_EL-G117
70
0
10
0.0000000
20
0.0000000
0
INSERT
8
1
2
HOUSE_EL-G118
10
0.0000000
20
0.0000000
0
INSERT
8
1
2
HOUSE_EL-G119
10
0.0000000
20
0.0000000
0
INSERT
8
1
2
HOUSE_EL-G120
10
0.0000000
20
0.0000000
0
INSERT
8
1
2
HOUSE_EL-G121
10
0.0000000
20
0.0000000
0
ENDBLK
8
0
0
BLOCK
8
0
2
HOUSE_EL-G118
70
0
10
0.0000000
20
0.0000000
0
LINE
8
1
62
7
10
144.3881226
20
74.5023346
11
114.3881302
21
74.5023346
0
INSERT
8
1
2
HOUSE_EL-G122
10
0.0000000
20
0.0000000
0
LINE
8
1
62
7
10
142.3881226
20
66.5023346
11
142.3881226
21
72.5023346
0
LINE
8
1
62
7
10
144.3881226
20
64.5023346
11
144.3881226
21
74.5023346
0
LINE
8
1
62
7
10
116.3881302
20
72.5023346
11
116.3881302
21
66.5023346
0
LINE
8
1
62
7
10
114.3881302
20
74.5023346
11
114.3881302
21
64.5023346
0
LINE
8
1
62
7
10
114.3881302
20
64.5023346
11
144.3881226
21
64.5023346
0
ENDBLK
8
0
0
BLOCK
8
0
2
HOUSE_EL-G119
70
0
10
0.0000000
20
0.0000000
0
LINE
8
1
62
7
10
178.3881226
20
74.5023346
11
148.3881226
21
74.5023346
0
INSERT
8
1
2
HOUSE_EL-G123
10
0.0000000
20
0.0000000
0
LINE
8
1
62
7
10
176.3881226
20
66.5023346
11
176.3881226
21
72.5023346
0
LINE
8
1
62
7
10
178.3881226
20
64.5023346
11
178.3881226
21
74.5023346
0
LINE
8
1
62
7
10
150.3881226
20
72.5023346
11
150.3881226
21
66.5023346
0
LINE
8
1
62
7
10
148.3881226
20
74.5023346
11
148.3881226
21
64.5023346
0
LINE
8
1
62
7
10
148.3881226
20
64.5023346
11
178.3881226
21
64.5023346
0
ENDBLK
8
0
0
BLOCK
8
0
2
HOUSE_EL-G120
70
0
10
0.0000000
20
0.0000000
0
LINE
8
1
62
7
10
212.3881226
20
74.5023346
11
182.3881226
21
74.5023346
0
INSERT
8
1
2
HOUSE_EL-G124
10
0.0000000
20
0.0000000
0
LINE
8
1
62
7
10
210.3881226
20
66.5023346
11
210.3881226
21
72.5023346
0
LINE
8
1
62
7
10
212.3881226
20
64.5023346
11
212.3881226
21
74.5023346
0
LINE
8
1
62
7
10
184.3881226
20
72.5023346
11
184.3881226
21
66.5023346
0
LINE
8
1
62
7
10
182.3881226
20
74.5023346
11
182.3881226
21
64.5023346
0
LINE
8
1
62
7
10
182.3881226
20
64.5023346
11
212.3881226
21
64.5023346
0
ENDBLK
8
0
0
BLOCK
8
0
2
HOUSE_EL-G121
70
0
10
0.0000000
20
0.0000000
0
LINE
8
1
62
7
10
246.3881226
20
74.5023346
11
216.3881226
21
74.5023346
0
INSERT
8
1
2
HOUSE_EL-G125
10
0.0000000
20
0.0000000
0
LINE
8
1
62
7
10
244.3881226
20
66.5023346
11
244.3881226
21
72.5023346
0
LINE
8
1
62
7
10
246.3881226
20
64.5023346
11
246.3881226
21
74.5023346
0
LINE
8
1
62
7
10
218.3881226
20
72.5023346
11
218.3881226
21
66.5023346
0
LINE
8
1
62
7
10
216.3881226
20
74.5023346
11
216.3881226
21
64.5023346
0
LINE
8
1
62
7
10
216.3881226
20
64.5023346
11
246.3881226
21
64.5023346
0
ENDBLK
8
0
0
BLOCK
8
0
2
HOUSE_EL-G122
70
0
10
0.0000000
20
0.0000000
0
LINE
8
1
62
7
10
142.3881226
20
72.5023346
11
116.3881302
21
72.5023346
0
LINE
8
1
62
7
10
116.3881302
20
66.5023346
11
142.3881226
21
66.5023346
0
ENDBLK
8
0
0
BLOCK
8
0
2
HOUSE_EL-G123
70
0
10
0.0000000
20
0.0000000
0
LINE
8
1
62
7
10
176.3881226
20
72.5023346
11
150.3881226
21
72.5023346
0
LINE
8
1
62
7
10
150.3881226
20
66.5023346
11
176.3881226
21
66.5023346
0
ENDBLK
8
0
0
BLOCK
8
0
2
HOUSE_EL-G124
70
0
10
0.0000000
20
0.0000000
0
LINE
8
1
62
7
10
210.3881226
20
72.5023346
11
184.3881226
21
72.5023346
0
LINE
8
1
62
7
10
184.3881226
20
66.5023346
11
210.3881226
21
66.5023346
0
ENDBLK
8
0
0
BLOCK
8
0
2
HOUSE_EL-G125
70
0
10
0.0000000
20
0.0000000
0
LINE
8
1
62
7
10
244.3881226
20
72.5023346
11
218.3881226
21
72.5023346
0
LINE
8
1
62
7
10
218.3881226
20
66.5023346
11
244.3881226
21
66.5023346
0
ENDBLK
8
0
0
BLOCK
8
0
2
HOUSE_EL-G126
70
0
10
0.0000000
20
0.0000000
0
INSERT
8
1
2
HOUSE_EL-G127
10
0.0000000
20
0.0000000
0
INSERT
8
1
2
HOUSE_EL-G128
10
0.0000000
20
0.0000000
0
INSERT
8
1
2
HOUSE_EL-G129
10
0.0000000
20
0.0000000
0
INSERT
8
1
2
HOUSE_EL-G130
10
0.0000000
20
0.0000000
0
ENDBLK
8
0
0
BLOCK
8
0
2
HOUSE_EL-G127
70
0
10
0.0000000
20
0.0000000
0
LINE
8
1
62
7
10
144.3881226
20
88.5023346
11
114.3881302
21
88.5023346
0
INSERT
8
1
2
HOUSE_EL-G131
10
0.0000000
20
0.0000000
0
LINE
8
1
62
7
10
142.3881226
20
80.5023346
11
142.3881226
21
86.5023346
0
LINE
8
1
62
7
10
144.3881226
20
78.5023346
11
144.3881226
21
88.5023346
0
LINE
8
1
62
7
10
116.3881302
20
86.5023346
11
116.3881302
21
80.5023346
0
LINE
8
1
62
7
10
114.3881302
20
88.5023346
11
114.3881302
21
78.5023346
0
LINE
8
1
62
7
10
114.3881302
20
78.5023346
11
144.3881226
21
78.5023346
0
ENDBLK
8
0
0
BLOCK
8
0
2
HOUSE_EL-G128
70
0
10
0.0000000
20
0.0000000
0
LINE
8
1
62
7
10
178.3881226
20
88.5023346
11
148.3881226
21
88.5023346
0
INSERT
8
1
2
HOUSE_EL-G132
10
0.0000000
20
0.0000000
0
LINE
8
1
62
7
10
176.3881226
20
80.5023346
11
176.3881226
21
86.5023346
0
LINE
8
1
62
7
10
178.3881226
20
78.5023346
11
178.3881226
21
88.5023346
0
LINE
8
1
62
7
10
150.3881226
20
86.5023346
11
150.3881226
21
80.5023346
0
LINE
8
1
62
7
10
148.3881226
20
88.5023346
11
148.3881226
21
78.5023346
0
LINE
8
1
62
7
10
148.3881226
20
78.5023346
11
178.3881226
21
78.5023346
0
ENDBLK
8
0
0
BLOCK
8
0
2
HOUSE_EL-G129
70
0
10
0.0000000
20
0.0000000
0
LINE
8
1
62
7
10
212.3881226
20
88.5023346
11
182.3881226
21
88.5023346
0
INSERT
8
1
2
HOUSE_EL-G133
10
0.0000000
20
0.0000000
0
LINE
8
1
62
7
10
210.3881226
20
80.5023346
11
210.3881226
21
86.5023346
0
LINE
8
1
62
7
10
212.3881226
20
78.5023346
11
212.3881226
21
88.5023346
0
LINE
8
1
62
7
10
184.3881226
20
86.5023346
11
184.3881226
21
80.5023346
0
LINE
8
1
62
7
10
182.3881226
20
88.5023346
11
182.3881226
21
78.5023346
0
LINE
8
1
62
7
10
182.3881226
20
78.5023346
11
212.3881226
21
78.5023346
0
ENDBLK
8
0
0
BLOCK
8
0
2
HOUSE_EL-G130
70
0
10
0.0000000
20
0.0000000
0
LINE
8
1
62
7
10
246.3881226
20
88.5023346
11
216.3881226
21
88.5023346
0
INSERT
8
1
2
HOUSE_EL-G134
10
0.0000000
20
0.0000000
0
LINE
8
1
62
7
10
244.3881226
20
80.5023346
11
244.3881226
21
86.5023346
0
LINE
8
1
62
7
10
246.3881226
20
78.5023346
11
246.3881226
21
88.5023346
0
LINE
8
1
62
7
10
218.3881226
20
86.5023346
11
218.3881226
21
80.5023346
0
LINE
8
1
62
7
10
216.3881226
20
88.5023346
11
216.3881226
21
78.5023346
0
LINE
8
1
62
7
10
216.3881226
20
78.5023346
11
246.3881226
21
78.5023346
0
ENDBLK
8
0
0
BLOCK
8
0
2
HOUSE_EL-G131
70
0
10
0.0000000
20
0.0000000
0
LINE
8
1
62
7
10
142.3881226
20
86.5023346
11
116.3881302
21
86.5023346
0
LINE
8
1
62
7
10
116.3881302
20
80.5023346
11
142.3881226
21
80.5023346
0
ENDBLK
8
0
0
BLOCK
8
0
2
HOUSE_EL-G132
70
0
10
0.0000000
20
0.0000000
0
LINE
8
1
62
7
10
176.3881226
20
86.5023346
11
150.3881226
21
86.5023346
0
LINE
8
1
62
7
10
150.3881226
20
80.5023346
11
176.3881226
21
80.5023346
0
ENDBLK
8
0
0
BLOCK
8
0
2
HOUSE_EL-G133
70
0
10
0.0000000
20
0.0000000
0
LINE
8
1
62
7
10
210.3881226
20
86.5023346
11
184.3881226
21
86.5023346
0
LINE
8
1
62
7
10
184.3881226
20
80.5023346
11
210.3881226
21
80.5023346
0
ENDBLK
8
0
0
BLOCK
8
0
2
HOUSE_EL-G134
70
0
10
0.0000000
20
0.0000000
0
LINE
8
1
62
7
10
244.3881226
20
86.5023346
11
218.3881226
21
86.5023346
0
LINE
8
1
62
7
10
218.3881226
20
80.5023346
11
244.3881226
21
80.5023346
0
ENDBLK
8
0
0
BLOCK
8
0
2
HOUSE_EL-G135
70
0
10
0.0000000
20
0.0000000
0
LINE
8
1
62
7
10
144.3881226
20
102.5023346
11
114.3881302
21
102.5023346
0
INSERT
8
1
2
HOUSE_EL-G136
10
0.0000000
20
0.0000000
0
LINE
8
1
62
7
10
142.3881226
20
94.5023346
11
142.3881226
21
100.5023346
0
LINE
8
1
62
7
10
144.3881226
20
92.5023346
11
144.3881226
21
102.5023346
0
LINE
8
1
62
7
10
116.3881302
20
100.5023346
11
116.3881302
21
94.5023346
0
LINE
8
1
62
7
10
114.3881302
20
102.5023346
11
114.3881302
21
92.5023346
0
LINE
8
1
62
7
10
114.3881302
20
92.5023346
11
144.3881226
21
92.5023346
0
ENDBLK
8
0
0
BLOCK
8
0
2
HOUSE_EL-G136
70
0
10
0.0000000
20
0.0000000
0
LINE
8
1
62
7
10
142.3881226
20
100.5023346
11
116.3881302
21
100.5023346
0
LINE
8
1
62
7
10
116.3881302
20
94.5023346
11
142.3881226
21
94.5023346
0
ENDBLK
8
0
0
BLOCK
8
0
2
HOUSE_EL-G137
70
0
10
0.0000000
20
0.0000000
0
LINE
8
1
62
7
10
99.2132034
20
118.8656769
11
99.2132034
21
108.8656769
0
LINE
8
1
62
7
10
99.2132034
20
108.8656769
11
103.2132034
21
108.8656769
0
LINE
8
1
62
7
10
98.2132034
20
107.8656769
11
104.2132034
21
107.8656769
0
LINE
8
1
62
7
10
99.2132034
20
108.8656769
11
98.2132034
21
108.8656769
0
LINE
8
1
62
7
10
103.2132034
20
118.8656769
11
99.2132034
21
118.8656769
0
LINE
8
1
62
7
10
100.2132034
20
119.8656769
11
100.2132034
21
120.8656769
0
LINE
8
1
62
7
10
98.2132034
20
119.8656769
11
103.2132034
21
119.8656769
0
LINE
8
1
62
7
10
100.2132034
20
120.8656769
11
102.2132034
21
120.8656769
0
LINE
8
1
62
7
10
102.2132034
20
120.8656769
11
102.2132034
21
119.8656769
0
LINE
8
1
62
7
10
103.2132034
20
119.8656769
11
104.2132034
21
119.8656769
0
LINE
8
1
62
7
10
104.2132034
20
119.8656769
11
104.2132034
21
118.8656769
0
LINE
8
1
62
7
10
99.2132034
20
118.8656769
11
98.2132034
21
118.8656769
0
LINE
8
1
62
7
10
98.2132034
20
118.8656769
11
98.2132034
21
119.8656769
0
LINE
8
1
62
7
10
104.2132034
20
107.8656769
11
104.2132034
21
108.8656769
0
LINE
8
1
62
7
10
98.2132034
20
108.8656769
11
98.2132034
21
107.8656769
0
ENDBLK
8
0
0
BLOCK
8
0
2
HOUSE_EL-G138
70
0
10
0.0000000
20
0.0000000
0
LINE
8
1
62
7
10
178.3881226
20
102.5023346
11
148.3881226
21
102.5023346
0
INSERT
8
1
2
HOUSE_EL-G139
10
0.0000000
20
0.0000000
0
LINE
8
1
62
7
10
176.3881226
20
94.5023346
11
176.3881226
21
100.5023346
0
LINE
8
1
62
7
10
178.3881226
20
92.5023346
11
178.3881226
21
102.5023346
0
LINE
8
1
62
7
10
150.3881226
20
100.5023346
11
150.3881226
21
94.5023346
0
LINE
8
1
62
7
10
148.3881226
20
102.5023346
11
148.3881226
21
92.5023346
0
LINE
8
1
62
7
10
148.3881226
20
92.5023346
11
178.3881226
21
92.5023346
0
ENDBLK
8
0
0
BLOCK
8
0
2
HOUSE_EL-G139
70
0
10
0.0000000
20
0.0000000
0
LINE
8
1
62
7
10
176.3881226
20
100.5023346
11
150.3881226
21
100.5023346
0
LINE
8
1
62
7
10
150.3881226
20
94.5023346
11
176.3881226
21
94.5023346
0
ENDBLK
8
0
0
BLOCK
8
0
2
HOUSE_EL-G140
70
0
10
0.0000000
20
0.0000000
0
LINE
8
1
62
7
10
212.3881226
20
102.5023346
11
182.3881226
21
102.5023346
0
INSERT
8
1
2
HOUSE_EL-G141
10
0.0000000
20
0.0000000
0
LINE
8
1
62
7
10
210.3881226
20
94.5023346
11
210.3881226
21
100.5023346
0
LINE
8
1
62
7
10
212.3881226
20
92.5023346
11
212.3881226
21
102.5023346
0
LINE
8
1
62
7
10
184.3881226
20
100.5023346
11
184.3881226
21
94.5023346
0
LINE
8
1
62
7
10
182.3881226
20
102.5023346
11
182.3881226
21
92.5023346
0
LINE
8
1
62
7
10
182.3881226
20
92.5023346
11
212.3881226
21
92.5023346
0
ENDBLK
8
0
0
BLOCK
8
0
2
HOUSE_EL-G141
70
0
10
0.0000000
20
0.0000000
0
LINE
8
1
62
7
10
210.3881226
20
100.5023346
11
184.3881226
21
100.5023346
0
LINE
8
1
62
7
10
184.3881226
20
94.5023346
11
210.3881226
21
94.5023346
0
ENDBLK
8
0
0
BLOCK
8
0
2
HOUSE_EL-G142
70
0
10
0.0000000
20
0.0000000
0
LINE
8
1
62
7
10
178.3881226
20
116.5023346
11
148.3881226
21
116.5023346
0
INSERT
8
1
2
HOUSE_EL-G143
10
0.0000000
20
0.0000000
0
LINE
8
1
62
7
10
176.3881226
20
108.5023346
11
176.3881226
21
114.5023346
0
LINE
8
1
62
7
10
178.3881226
20
106.5023346
11
178.3881226
21
116.5023346
0
LINE
8
1
62
7
10
150.3881226
20
114.5023346
11
150.3881226
21
108.5023346
0
LINE
8
1
62
7
10
148.3881226
20
116.5023346
11
148.3881226
21
106.5023346
0
LINE
8
1
62
7
10
148.3881226
20
106.5023346
11
178.3881226
21
106.5023346
0
ENDBLK
8
0
0
BLOCK
8
0
2
HOUSE_EL-G143
70
0
10
0.0000000
20
0.0000000
0
LINE
8
1
62
7
10
176.3881226
20
114.5023346
11
150.3881226
21
114.5023346
0
LINE
8
1
62
7
10
150.3881226
20
108.5023346
11
176.3881226
21
108.5023346
0
ENDBLK
8
0
0
BLOCK
8
0
2
HOUSE_EL-G144
70
0
10
0.0000000
20
0.0000000
0
LINE
8
1
62
7
10
212.3881226
20
116.5023346
11
182.3881226
21
116.5023346
0
INSERT
8
1
2
HOUSE_EL-G145
10
0.0000000
20
0.0000000
0
LINE
8
1
62
7
10
210.3881226
20
108.5023346
11
210.3881226
21
114.5023346
0
LINE
8
1
62
7
10
212.3881226
20
106.5023346
11
212.3881226
21
116.5023346
0
LINE
8
1
62
7
10
184.3881226
20
114.5023346
11
184.3881226
21
108.5023346
0
LINE
8
1
62
7
10
182.3881226
20
116.5023346
11
182.3881226
21
106.5023346
0
LINE
8
1
62
7
10
182.3881226
20
106.5023346
11
212.3881226
21
106.5023346
0
ENDBLK
8
0
0
BLOCK
8
0
2
HOUSE_EL-G145
70
0
10
0.0000000
20
0.0000000
0
LINE
8
1
62
7
10
210.3881226
20
114.5023346
11
184.3881226
21
114.5023346
0
LINE
8
1
62
7
10
184.3881226
20
108.5023346
11
210.3881226
21
108.5023346
0
ENDBLK
8
0
0
BLOCK
8
0
2
HOUSE_EL-G146
70
0
10
0.0000000
20
0.0000000
0
LINE
8
1
62
7
10
246.3881226
20
102.5023346
11
216.3881226
21
102.5023346
0
INSERT
8
1
2
HOUSE_EL-G147
10
0.0000000
20
0.0000000
0
LINE
8
1
62
7
10
244.3881226
20
94.5023346
11
244.3881226
21
100.5023346
0
LINE
8
1
62
7
10
246.3881226
20
92.5023346
11
246.3881226
21
102.5023346
0
LINE
8
1
62
7
10
218.3881226
20
100.5023346
11
218.3881226
21
94.5023346
0
LINE
8
1
62
7
10
216.3881226
20
102.5023346
11
216.3881226
21
92.5023346
0
LINE
8
1
62
7
10
216.3881226
20
92.5023346
11
246.3881226
21
92.5023346
0
ENDBLK
8
0
0
BLOCK
8
0
2
HOUSE_EL-G147
70
0
10
0.0000000
20
0.0000000
0
LINE
8
1
62
7
10
244.3881226
20
100.5023346
11
218.3881226
21
100.5023346
0
LINE
8
1
62
7
10
218.3881226
20
94.5023346
11
244.3881226
21
94.5023346
0
ENDBLK
8
0
0
ENDSEC
0
SECTION
2
ENTITIES
0
TEXT
8
1
62
5
40
20.0000000
1
DELVIEW ARCHITECTURAL
7
ITALICC
72
0
10
-152.1146851
20
229.6281586
0
LINE
8
1
62
7
10
-36.7868004
20
162.8656769
11
99.2132034
21
162.8656769
0
LINE
8
1
62
7
10
-32.7868004
20
158.8656769
11
95.2132034
21
158.8656769
0
LINE
8
1
62
7
10
-30.7868004
20
168.8656769
11
99.2132034
21
168.8656769
0
INSERT
8
1
2
HOUSE_EL-G1
10
0.0000000
20
0.0000000
0
INSERT
8
1
2
HOUSE_EL-G3
10
0.0000000
20
0.0000000
0
LINE
8
1
62
7
10
59.2648048
20
65.5571747
11
83.2648087
21
65.5571747
0
LINE
8
1
62
3
10
72.1710587
20
82.9242401
11
76.1710587
21
82.9242401
0
LINE
8
1
62
3
10
72.1710587
20
78.9242401
11
76.1710587
21
78.9242401
0
LINE
8
1
62
3
10
78.1970901
20
76.9242401
11
64.1970901
21
76.9242401
0
LINE
8
1
62
3
10
76.1710587
20
90.9242401
11
72.1710587
21
90.9242401
0
LINE
8
1
62
3
10
72.1710587
20
94.9242401
11
76.1710587
21
94.9242401
0
LINE
8
1
62
3
10
72.1710587
20
104.9242401
11
76.1710587
21
104.9242401
0
LINE
8
1
62
3
10
76.1710587
20
106.9242401
11
72.1710587
21
106.9242401
0
LINE
8
1
62
3
10
72.1710587
20
110.9242401
11
76.1710587
21
110.9242401
0
LINE
8
1
62
3
10
72.1710587
20
100.9242401
11
76.1710587
21
100.9242401
0
LINE
8
1
62
3
10
64.1970901
20
112.9242401
11
78.1970901
21
112.9242401
0
LINE
8
1
62
3
10
78.1970901
20
98.9242401
11
64.1970901
21
98.9242401
0
LINE
8
1
62
3
10
64.1970901
20
96.9242401
11
78.1970901
21
96.9242401
0
LINE
8
1
62
7
10
55.2131996
20
212.8656769
11
143.2131958
21
172.8656769
0
LINE
8
1
62
7
10
31.2131996
20
196.8656769
11
91.2132034
21
168.8656769
0
LINE
8
1
62
7
10
69.2132034
20
126.8656769
11
81.2132034
21
126.8656769
0
LINE
8
1
62
7
10
77.2132034
20
138.8656769
11
67.2132034
21
136.8656769
0
LINE
8
1
62
7
10
77.2132034
20
132.8656769
11
67.2132034
21
130.8656769
0
LINE
8
1
62
7
10
79.2132034
20
128.8656769
11
69.2132034
21
126.8656769
0
LINE
8
1
62
7
10
55.2131996
20
156.8656769
11
87.2132034
21
156.8656769
0
LINE
8
1
62
7
10
87.2132034
20
152.8656769
11
55.2131996
21
152.8656769
0
LINE
8
1
62
7
10
57.2131996
20
148.8656769
11
85.2132034
21
148.8656769
0
LINE
8
1
62
7
10
-90.7867966
20
172.8656769
11
-22.7868004
21
138.8656769
0
LINE
8
1
62
7
10
-98.7867966
20
164.8656769
11
-60.7868004
21
144.8656769
0
LINE
8
1
62
7
10
-90.7867966
20
172.8656769
11
-172.7868042
21
140.8656769
0
LINE
8
1
62
7
10
-98.7867966
20
164.8656769
11
-148.7868042
21
144.8656769
0
LINE
8
1
62
7
10
-32.7868004
20
158.8656769
11
-22.7868004
21
148.8656769
0
LINE
8
1
62
7
10
-22.7868004
20
152.8656769
11
-22.7868004
21
148.8656769
0
LINE
8
1
62
7
10
5.2132001
20
152.8656769
11
7.2132001
21
148.8656769
0
LINE
8
1
62
7
10
5.2132001
20
148.8656769
11
5.2132001
21
152.8656769
0
LINE
8
1
62
7
10
9.2132006
20
152.8656769
11
9.2132006
21
148.8656769
0
LINE
8
1
62
7
10
9.2132006
20
148.8656769
11
7.2132001
21
152.8656769
0
LINE
8
1
62
7
10
57.2131996
20
152.8656769
11
57.2131996
21
148.8656769
0
LINE
8
1
62
7
10
55.2236061
20
152.8653107
11
53.2236061
21
148.8653107
0
LINE
8
1
62
7
10
53.2236061
20
148.8653107
11
53.2236061
21
152.8653107
0
LINE
8
1
62
7
10
57.2131996
20
152.8656769
11
55.2131996
21
148.8656769
0
LINE
8
1
62
7
10
-132.7868042
20
56.8656769
11
-60.7868004
21
56.8656769
0
LINE
8
1
62
7
10
-60.7868004
20
62.8656769
11
-132.7868042
21
62.8656769
0
LINE
8
1
62
7
10
-132.7868042
20
80.8656769
11
-60.7868004
21
80.8656769
0
LINE
8
1
62
7
10
-178.7868042
20
134.8656769
11
-60.7868004
21
134.8656769
0
LINE
8
1
62
7
10
-156.7868042
20
144.8656769
11
-58.7868004
21
144.8656769
0
LINE
8
1
62
7
10
-58.7868004
20
138.8656769
11
-156.7868042
21
138.8656769
0
INSERT
8
1
2
HOUSE_EL-G4
10
0.0000000
20
0.0000000
0
LINE
8
1
62
7
10
-62.7380180
20
82.8455353
11
-60.7380180
21
84.8455353
0
LINE
8
1
62
7
10
-62.7380180
20
86.8455353
11
-60.7380180
21
88.8455353
0
LINE
8
1
62
7
10
-62.7380180
20
90.8455353
11
-60.7380180
21
92.8455353
0
LINE
8
1
62
7
10
-62.7868004
20
78.8656769
11
-60.7868004
21
78.8656769
0
LINE
8
1
62
7
10
-62.7868004
20
64.8656769
11
-58.7868004
21
68.8656769
0
LINE
8
1
62
7
10
-60.7868004
20
62.8656769
11
-62.7868004
21
64.8656769
0
LINE
8
1
62
7
10
-62.7380180
20
122.8455353
11
-60.7380180
21
120.8455353
0
LINE
8
1
62
7
10
-60.7340660
20
122.8589325
11
-62.7340660
21
124.8589325
0
TEXT
8
1
62
5
40
8.0000000
1
PRINCIPAL: M.HIGGINSON
7
ITALICC
72
0
10
-163.8416138
20
6.4310808
0
LINE
8
1
62
7
10
-132.7868042
20
78.8656769
11
-62.7868004
21
78.8656769
0
LINE
8
1
62
7
10
-150.7868042
20
122.8656769
11
-130.7868042
21
122.8656769
0
LINE
8
1
62
7
10
-156.7868042
20
66.8656769
11
-130.7868042
21
66.8656769
0
LINE
8
1
62
7
10
-150.7566071
20
68.7821045
11
-130.7566071
21
68.7821045
0
LINE
8
1
62
7
10
-130.7868042
20
82.8656769
11
-132.7868042
21
80.8656769
0
LINE
8
1
62
7
10
-132.7868042
20
80.8656769
11
-130.7868042
21
80.8656769
0
LINE
8
1
62
7
10
-130.7868042
20
64.8656769
11
-132.7868042
21
62.8656769
0
LINE
8
1
62
7
10
-132.7868042
20
128.8589325
11
-114.7867966
21
128.8589325
0
LINE
8
1
62
7
10
-114.7867966
20
124.8589325
11
-132.7868042
21
124.8589325
0
LINE
8
1
62
7
10
-154.7868042
20
126.8656769
11
-154.7868042
21
68.8656769
0
LINE
8
1
62
7
10
-150.7868042
20
68.8656769
11
-150.7868042
21
126.8656769
0
LINE
8
1
62
7
10
-132.7868042
20
62.8656769
11
-132.7868042
21
56.8656769
0
LINE
8
1
62
7
10
-158.6854248
20
62.9959869
11
-132.6854248
21
62.9959869
0
LINE
8
1
62
7
10
-154.7868042
20
68.8656769
11
-150.7868042
21
68.8656769
0
LINE
8
1
62
7
10
-154.7868042
20
68.8656769
11
-156.7868042
21
68.8656769
0
LINE
8
1
62
7
10
-156.7868042
20
68.8656769
11
-156.7868042
21
66.8656769
0
LINE
8
1
62
7
10
-156.7868042
20
66.8656769
11
-154.7868042
21
66.8656769
0
LINE
8
1
62
7
10
-156.7868042
20
66.8656769
11
-154.7868042
21
66.8656769
0
LINE
8
1
62
7
10
-156.6854248
20
66.9959869
11
-158.6854248
21
66.9959869
0
LINE
8
1
62
7
10
-158.6854248
20
66.9959869
11
-158.6854248
21
62.9959869
0
LINE
8
1
62
7
10
-132.7868042
20
78.8656769
11
-132.7868042
21
80.8656769
0
LINE
8
1
62
7
10
-132.7871704
20
78.8656769
11
-132.7868042
21
78.8656769
0
LINE
8
1
62
7
10
-174.7868042
20
130.8656769
11
-140.7868042
21
130.8656769
0
LINE
8
1
62
7
10
-140.7868042
20
130.8656769
11
-154.7868042
21
134.8656769
0
LINE
8
1
62
7
10
-154.7868042
20
126.8656769
11
-132.7868042
21
126.8656769
0
LINE
8
1
62
7
10
-156.7868042
20
138.8656769
11
-156.7868042
21
144.8656769
0
LINE
8
1
62
7
10
-156.7868042
20
138.8656769
11
-156.7868042
21
140.8656769
0
LINE
8
1
62
7
10
-156.7868042
20
140.8656769
11
-178.7868042
21
140.8656769
0
LINE
8
1
62
7
10
-178.7868042
20
140.8656769
11
-178.7868042
21
134.8656769
0
LINE
8
1
62
7
10
-150.7868042
20
138.8656769
11
-154.7868042
21
138.8656769
0
LINE
8
1
62
7
10
-154.7868042
20
138.8656769
11
-154.7868042
21
134.8656769
0
LINE
8
1
62
7
10
-170.7868042
20
134.8656769
11
-174.7868042
21
134.8656769
0
LINE
8
1
62
7
10
-174.7868042
20
134.8656769
11
-174.7868042
21
130.8656769
0
LINE
8
1
62
7
10
-174.7868042
20
130.8656769
11
-154.7868042
21
126.8656769
0
LINE
8
1
62
7
10
-150.7868042
20
126.8656769
11
-150.7868042
21
122.8656769
0
LINE
8
1
62
7
10
-132.7868042
20
124.8589325
11
-132.7868042
21
128.8589325
0
LINE
8
1
62
7
10
-118.7867966
20
122.8656769
11
-118.7867966
21
90.8656769
0
LINE
8
1
62
7
10
-112.7867966
20
120.8656769
11
-112.7867966
21
84.8656769
0
LINE
8
1
62
7
10
-76.7380142
20
90.8455353
11
-76.7380142
21
122.8455353
0
LINE
8
1
62
7
10
-72.7380142
20
122.8455353
11
-72.7380142
21
90.8455353
0
LINE
8
1
62
7
10
-128.7868042
20
122.8656769
11
-128.7868042
21
86.8656769
0
LINE
8
1
62
7
10
-114.7867966
20
122.8656769
11
-114.7867966
21
86.8656769
0
LINE
8
1
62
7
10
-124.7867966
20
122.8656769
11
-124.7867966
21
90.8656769
0
LINE
8
1
62
7
10
-66.7380142
20
90.8455353
11
-66.7380142
21
122.8455353
0
LINE
8
1
62
7
10
-62.7380180
20
124.8455353
11
-62.7380180
21
82.8455353
0
INSERT
8
1
2
HOUSE_EL-G6
10
0.0000000
20
0.0000000
0
LINE
8
1
62
7
10
-62.7380180
20
82.8455353
11
-78.7380142
21
82.8455353
0
LINE
8
1
62
7
10
-78.7380142
20
86.8455353
11
-62.7380180
21
86.8455353
0
LINE
8
1
62
7
10
-62.7380180
20
90.8455353
11
-76.7380142
21
90.8455353
0
LINE
8
1
62
7
10
-72.7380142
20
90.8455353
11
-66.7380142
21
90.8455353
0
LINE
8
1
62
7
10
-130.7868042
20
64.8656769
11
-62.7868004
21
64.8656769
0
LINE
8
1
62
7
10
-114.7867966
20
86.8656769
11
-114.7867966
21
90.8656769
0
LINE
8
1
62
7
10
-114.7867966
20
90.8656769
11
-128.7868042
21
90.8656769
0
LINE
8
1
62
7
10
-128.7868042
20
86.8656769
11
-114.7867966
21
86.8656769
0
LINE
8
1
62
7
10
-114.7867966
20
86.8656769
11
-114.7867966
21
82.8656769
0
LINE
8
1
62
7
10
-114.7867966
20
82.8656769
11
-130.7868042
21
82.8656769
0
LINE
8
1
62
7
10
-130.7868042
20
82.8656769
11
-130.7868042
21
86.8656769
0
LINE
8
1
62
7
10
-130.7868042
20
86.8656769
11
-128.7868042
21
86.8656769
0
LINE
8
1
62
7
10
-114.7867966
20
90.8656769
11
-112.7867966
21
92.8656769
0
LINE
8
1
62
7
10
-114.7867966
20
86.8656769
11
-112.7867966
21
88.8656769
0
LINE
8
1
62
7
10
-114.7867966
20
82.8656769
11
-112.7867966
21
84.8656769
0
LINE
8
1
62
7
10
-78.7380142
20
82.8455353
11
-78.7380142
21
86.8455353
0
LINE
8
1
62
7
10
-76.7380142
20
90.8455353
11
-76.7380142
21
86.8455353
0
LINE
8
1
62
7
10
-112.7867966
20
84.8656769
11
-78.7867966
21
84.8656769
0
LINE
8
1
62
7
10
-130.7868042
20
78.8641510
11
-130.7868042
21
64.8656769
0
LINE
8
1
62
7
10
-62.7380180
20
86.8455353
11
-62.7380180
21
90.8455353
0
LINE
8
1
62
7
10
-62.7380180
20
86.8455353
11
-62.7380180
21
90.8455353
0
LINE
8
1
62
7
10
-62.7868004
20
64.8656769
11
-62.7868004
21
78.8637390
0
LINE
8
1
62
7
10
-62.7868004
20
80.8656769
11
-62.7868004
21
80.8622742
0
LINE
8
1
62
7
10
-62.7868004
20
78.8830261
11
-62.7868004
21
78.8656769
0
LINE
8
1
62
7
10
-76.7380142
20
122.8455353
11
-62.7380180
21
122.8455353
0
LINE
8
1
62
7
10
-130.7868042
20
122.8656769
11
-130.7868042
21
124.8656769
0
LINE
8
1
62
7
10
-130.7868042
20
122.8656769
11
-114.7867966
21
122.8656769
0
LINE
8
1
62
7
10
-114.7867966
20
122.8656769
11
-114.7867966
21
124.8656769
0
LINE
8
1
62
7
10
-114.7867966
20
122.8656769
11
-112.7867966
21
120.8656769
0
LINE
8
1
62
7
10
-112.7867966
20
120.8656769
11
-112.7867966
21
122.8656769
0
LINE
8
1
62
7
10
-130.7868042
20
122.8656769
11
-128.7868042
21
122.8656769
0
LINE
8
1
62
7
10
-128.7868042
20
122.8656769
11
-126.7867966
21
122.8656769
0
LINE
8
1
62
7
10
-120.7867966
20
122.8656769
11
-118.7867966
21
122.8656769
0
LINE
8
1
62
7
10
-128.7868042
20
122.8656769
11
-124.7867966
21
122.8656769
0
LINE
8
1
62
7
10
-114.7867966
20
122.8656769
11
-118.7867966
21
122.8656769
0
LINE
8
1
62
7
10
-76.7380142
20
122.8455353
11
-72.7380142
21
122.8455353
0
LINE
8
1
62
7
10
-76.7380142
20
122.8455353
11
-78.7380142
21
122.8455353
0
LINE
8
1
62
7
10
-78.7380142
20
122.8455353
11
-78.7380142
21
124.8455353
0
LINE
8
1
62
7
10
-112.7867966
20
122.8426971
11
-114.7867966
21
124.8426971
0
LINE
8
1
62
7
10
-114.7867966
20
128.8589325
11
-114.7867966
21
124.8589325
0
LINE
8
1
62
7
10
-114.7867966
20
128.8589325
11
-112.7867966
21
126.8589325
0
LINE
8
1
62
7
10
-112.7867966
20
126.8589325
11
-112.7867966
21
122.8589325
0
LINE
8
1
62
7
10
-112.7867966
20
126.8589325
11
-80.7321854
21
126.8589325
0
LINE
8
1
62
7
10
-78.7340622
20
124.8589325
11
-78.7340622
21
124.8621368
0
LINE
8
1
62
7
10
-78.7342758
20
128.8588409
11
-80.7342758
21
128.8588409
0
LINE
8
1
62
7
10
-80.7342758
20
128.8588409
11
-80.7342758
21
124.8588409
0
LINE
8
1
62
7
10
-80.7342758
20
124.8588409
11
-78.7342758
21
124.8588409
0
LINE
8
1
62
7
10
-112.7869492
20
122.8464203
11
-78.7869492
21
122.8464203
0
LINE
8
1
62
7
10
-62.7380180
20
122.8455353
11
-62.7380180
21
118.8455353
0
LINE
8
1
62
3
10
-108.7867966
20
108.8656769
11
-108.7867966
21
110.8656769
0
LINE
8
1
62
7
10
0.2132002
20
50.8656769
11
-0.7867998
21
48.8656769
0
LINE
8
1
62
7
10
68.2132034
20
48.8656769
11
66.2132034
21
50.8656769
0
LINE
8
1
62
7
10
-0.7867998
20
48.8656769
11
68.2132034
21
48.8656769
0
LINE
8
1
62
7
10
-0.7867998
20
44.8656769
11
68.2132034
21
44.8656769
0
LINE
8
1
62
7
10
-0.7867998
20
48.8656769
11
-0.7867998
21
44.8656769
0
LINE
8
1
62
7
10
68.2132034
20
44.8656769
11
68.2132034
21
48.8656769
0
LINE
8
1
62
7
10
1.2132002
20
56.8656769
11
64.2132034
21
56.8656769
0
LINE
8
1
62
7
10
0.2132002
20
54.8656769
11
66.2132034
21
54.8656769
0
LINE
8
1
62
7
10
0.2132002
20
50.8656769
11
66.2132034
21
50.8656769
0
LINE
8
1
62
7
10
1.2132002
20
60.8656769
11
63.2131996
21
60.8656769
0
LINE
8
1
62
7
10
4.6579328
20
66.2290497
11
58.3793678
21
66.2290497
0
LINE
8
1
62
7
10
7.2132001
20
144.8656769
11
5.2132001
21
148.8656769
0
LINE
8
1
62
7
10
7.2132001
20
144.8656769
11
5.2132001
21
144.8656769
0
LINE
8
1
62
7
10
-60.7380180
20
84.8455353
11
-60.7380180
21
124.8455353
0
LINE
8
1
62
7
10
-36.6898460
20
68.8713531
11
-36.6898460
21
122.8713531
0
LINE
8
1
62
7
10
-32.6898460
20
68.8713531
11
-32.6898460
21
118.8713531
0
LINE
8
1
62
7
10
-28.6898460
20
70.8713531
11
-28.6898460
21
120.8713531
0
LINE
8
1
62
3
10
-3.6898456
20
76.8978424
11
-3.6898456
21
112.8978424
0
LINE
8
1
62
3
10
-22.6898460
20
112.8978424
11
-22.6898460
21
76.8978424
0
LINE
8
1
62
7
10
5.2132001
20
142.8656769
11
5.2132001
21
66.8768768
0
LINE
8
1
62
7
10
3.2132001
20
144.8656769
11
3.2132001
21
64.8656769
0
LINE
8
1
62
7
10
-60.7868004
20
56.8656769
11
-60.7868004
21
62.8656769
0
LINE
8
1
62
7
10
-54.7868004
20
62.8656769
11
-58.7868004
21
58.8656769
0
LINE
8
1
62
7
10
-58.7868004
20
58.8656769
11
-60.7868004
21
56.8656769
0
LINE
8
1
62
7
10
-60.7868004
20
78.8656769
11
-60.7868004
21
80.8656769
0
LINE
8
1
62
7
10
-60.7380180
20
84.8455353
11
-58.7380180
21
84.8455353
0
LINE
8
1
62
7
10
-60.7868004
20
80.8656769
11
-56.7868004
21
84.8656769
0
LINE
8
1
62
7
10
-58.7380180
20
84.8455353
11
-56.7380180
21
84.8455353
0
LINE
8
1
62
7
10
-60.7868004
20
78.8656769
11
-56.7868004
21
82.8656769
0
LINE
8
1
62
7
10
-56.7868004
20
82.8656769
11
-56.7868004
21
84.8656769
0
LINE
8
1
62
7
10
-58.7868004
20
68.8656769
11
-58.7868004
21
78.8656769
0
LINE
8
1
62
7
10
-58.7868004
20
78.8656769
11
-58.7868004
21
80.8656769
0
LINE
8
1
62
7
10
-60.7868004
20
62.8656769
11
-56.7868004
21
66.8656769
0
LINE
8
1
62
7
10
-56.7868004
20
66.8656769
11
-54.7868004
21
68.8656769
0
LINE
8
1
62
7
10
-54.7868004
20
68.8656769
11
-56.7868004
21
68.8656769
0
LINE
8
1
62
7
10
-56.7868004
20
68.8656769
11
-58.7868004
21
68.8656769
0
LINE
8
1
62
7
10
-54.7868004
20
68.8656769
11
-54.7868004
21
62.8656769
0
LINE
8
1
62
7
10
-36.6898460
20
68.8713531
11
-54.6898460
21
68.8713531
0
LINE
8
1
62
7
10
-30.6898460
20
66.8713531
11
-54.6898460
21
66.8713531
0
LINE
8
1
62
7
10
-28.6898460
20
62.8713531
11
-52.6898460
21
62.8713531
0
LINE
8
1
62
7
10
-52.6898460
20
62.8713531
11
-54.6898460
21
62.8713531
0
LINE
8
1
62
7
10
-36.6898460
20
68.8713531
11
-32.6898460
21
68.8713531
0
LINE
8
1
62
7
10
-32.6898460
20
68.8713531
11
-28.6898460
21
70.8713531
0
LINE
8
1
62
7
10
-36.6898460
20
68.8713531
11
-36.6898460
21
74.8713531
0
LINE
8
1
62
7
10
-32.6898460
20
68.8713531
11
-30.6898460
21
68.8713531
0
LINE
8
1
62
7
10
-30.6898460
20
68.8713531
11
-30.6898460
21
66.8713531
0
LINE
8
1
62
7
10
-30.6898460
20
66.8713531
11
-28.6898460
21
66.8713531
0
LINE
8
1
62
7
10
-28.6898460
20
66.8713531
11
-28.6898460
21
62.8713531
0
LINE
8
1
62
7
10
-28.6898460
20
70.8713531
11
-26.6898460
21
70.8713531
0
LINE
8
1
62
7
10
-26.6898460
20
70.8713531
11
-30.6898460
21
68.8713531
0
LINE
8
1
62
7
10
-26.6898460
20
70.8713531
11
-26.6898460
21
68.8713531
0
LINE
8
1
62
7
10
-26.6898460
20
68.8713531
11
-30.6898460
21
66.8713531
0
LINE
8
1
62
7
10
-26.6898460
20
68.8713531
11
-24.6898460
21
68.8713531
0
LINE
8
1
62
7
10
-24.6898460
20
68.8713531
11
-28.6898460
21
66.8713531
0
LINE
8
1
62
7
10
-24.6898460
20
68.8713531
11
-24.6898460
21
64.8713531
0
LINE
8
1
62
7
10
-24.6898460
20
64.8713531
11
-28.6898460
21
62.8713531
0
LINE
8
1
62
7
10
-24.6898460
20
64.8713531
11
1.3101546
21
64.8713531
0
LINE
8
1
62
3
10
-21.6898460
20
76.8978424
11
-20.6898460
21
76.8978424
0
INSERT
8
1
2
HOUSE_EL-G23
10
0.0000000
20
0.0000000
0
INSERT
8
1
2
HOUSE_EL-G26
10
0.0000000
20
0.0000000
0
INSERT
8
1
2
HOUSE_EL-G29
10
0.0000000
20
0.0000000
0
INSERT
8
1
2
HOUSE_EL-G32
10
0.0000000
20
0.0000000
0
INSERT
8
1
2
HOUSE_EL-G35
10
0.0000000
20
0.0000000
0
LINE
8
1
62
3
10
-22.6898460
20
76.8978424
11
-3.6898456
21
76.8978424
0
INSERT
8
1
2
HOUSE_EL-G38
10
0.0000000
20
0.0000000
0
INSERT
8
1
2
HOUSE_EL-G41
10
0.0000000
20
0.0000000
0
INSERT
8
1
2
HOUSE_EL-G44
10
0.0000000
20
0.0000000
0
INSERT
8
1
2
HOUSE_EL-G47
10
0.0000000
20
0.0000000
0
INSERT
8
1
2
HOUSE_EL-G50
10
0.0000000
20
0.0000000
0
INSERT
8
1
2
HOUSE_EL-G53
10
0.0000000
20
0.0000000
0
INSERT
8
1
2
HOUSE_EL-G56
10
0.0000000
20
0.0000000
0
LINE
8
1
62
7
10
1.2132002
20
60.8656769
11
1.2132002
21
56.8656769
0
LINE
8
1
62
7
10
1.2132002
20
56.8656769
11
0.2132002
21
54.8656769
0
LINE
8
1
62
7
10
0.2132002
20
54.8656769
11
0.2132002
21
50.8656769
0
LINE
8
1
62
7
10
3.2132001
20
64.8656769
11
1.2132002
21
60.8656769
0
LINE
8
1
62
7
10
3.2132001
20
64.8656769
11
5.2132001
21
66.8656769
0
LINE
8
1
62
7
10
1.3101546
20
64.8713531
11
3.2122235
21
64.8713531
0
LINE
8
1
62
7
10
-58.7868004
20
144.8656769
11
-58.7868004
21
138.8656769
0
LINE
8
1
62
7
10
-60.7868004
20
134.8656769
11
-60.7868004
21
138.8656769
0
LINE
8
1
62
7
10
-58.7868004
20
144.8656769
11
-48.7868004
21
138.8656769
0
LINE
8
1
62
7
10
-48.7868004
20
138.8656769
11
-48.7868004
21
132.8656769
0
LINE
8
1
62
7
10
-48.7868004
20
132.8656769
11
-58.7868004
21
138.8656769
0
LINE
8
1
62
7
10
-48.7868004
20
138.8656769
11
-20.7868004
21
138.8656769
0
LINE
8
1
62
7
10
-20.7868004
20
132.8656769
11
-48.7868004
21
132.8656769
0
LINE
8
1
62
7
10
-60.7868004
20
134.8656769
11
-50.7868004
21
128.8656769
0
LINE
8
1
62
7
10
-50.7868004
20
128.8656769
11
-22.7868004
21
128.8656769
0
LINE
8
1
62
7
10
-50.7868004
20
128.8656769
11
-50.7868004
21
134.0619965
0
LINE
8
1
62
7
10
-50.7868004
20
134.0619965
11
-50.7868004
21
134.0656891
0
INSERT
8
1
2
HOUSE_EL-G59
10
0.0000000
20
0.0000000
0
LINE
8
1
62
3
10
-22.6898460
20
112.8978424
11
-22.6898460
21
111.8978424
0
LINE
8
1
62
3
10
-3.6776843
20
112.8978424
11
-22.6898460
21
112.8978424
0
INSERT
8
1
2
HOUSE_EL-G60
10
0.0000000
20
0.0000000
0
INSERT
8
1
2
HOUSE_EL-G63
10
0.0000000
20
0.0000000
0
INSERT
8
1
2
HOUSE_EL-G66
10
0.0000000
20
0.0000000
0
INSERT
8
1
2
HOUSE_EL-G69
10
0.0000000
20
0.0000000
0
INSERT
8
1
2
HOUSE_EL-G72
10
0.0000000
20
0.0000000
0
INSERT
8
1
2
HOUSE_EL-G75
10
0.0000000
20
0.0000000
0
LINE
8
1
62
3
10
-22.6898460
20
112.8978424
11
-21.6898460
21
112.8978424
0
LINE
8
1
62
3
10
-20.6898460
20
112.8978424
11
-19.6898460
21
112.8978424
0
LINE
8
1
62
7
10
-20.7868004
20
148.8656769
11
-20.7868004
21
138.8656769
0
LINE
8
1
62
7
10
-32.6898460
20
118.8713531
11
-32.6898460
21
122.8713531
0
INSERT
8
1
2
HOUSE_EL-G78
10
0.0000000
20
0.0000000
0
LINE
8
1
62
7
10
-20.7868004
20
138.8656769
11
-20.7868004
21
132.8656769
0
LINE
8
1
62
7
10
-20.7868004
20
138.8656769
11
-14.7867994
21
136.8656769
0
LINE
8
1
62
7
10
-14.7867994
20
136.8656769
11
-14.7867994
21
130.8656769
0
LINE
8
1
62
7
10
-14.7867994
20
130.8656769
11
-20.7868004
21
132.8656769
0
LINE
8
1
62
7
10
-22.7868004
20
128.8656769
11
-22.7868004
21
132.8656769
0
LINE
8
1
62
7
10
-22.7868004
20
128.8656769
11
-16.7868004
21
126.8656769
0
LINE
8
1
62
7
10
-16.7868004
20
126.8656769
11
-16.7868004
21
130.8656769
0
LINE
8
1
62
7
10
-16.7868004
20
130.8656769
11
-16.7868004
21
131.5395660
0
LINE
8
1
62
7
10
-16.7868004
20
126.8656769
11
-28.6721153
21
124.8567047
0
LINE
8
1
62
7
10
-22.7868004
20
148.8656769
11
5.2132001
21
148.8656769
0
LINE
8
1
62
7
10
-22.7868004
20
148.8656769
11
-20.7868004
21
148.8656769
0
LINE
8
1
62
7
10
5.2132001
20
144.8656769
11
5.2132001
21
142.8656769
0
LINE
8
1
62
7
10
5.2132001
20
148.8656769
11
3.2132001
21
148.8656769
0
LINE
8
1
62
7
10
5.2132001
20
144.8656769
11
3.2132001
21
148.8656769
0
LINE
8
1
62
7
10
3.2132001
20
148.8656769
11
3.2132001
21
144.8656769
0
LINE
8
1
62
7
10
59.2648048
20
67.5571747
11
59.2648048
21
145.5571747
0
LINE
8
1
62
7
10
57.2648048
20
141.5571747
11
57.2648048
21
67.5771484
0
INSERT
8
1
2
HOUSE_EL-G79
10
0.0000000
20
0.0000000
0
LINE
8
1
62
7
10
10.1976824
20
112.8978424
11
10.1976824
21
66.2805634
0
LINE
8
1
62
7
10
31.1976814
20
110.8978424
11
31.1976814
21
66.8573914
0
LINE
8
1
62
3
10
12.1976824
20
90.8978424
11
12.1976824
21
109.8978424
0
INSERT
8
1
2
HOUSE_EL-G80
10
0.0000000
20
0.0000000
0
LINE
8
1
62
3
10
22.1976814
20
90.8978424
11
22.1976814
21
109.8978424
0
INSERT
8
1
2
HOUSE_EL-G81
10
0.0000000
20
0.0000000
0
LINE
8
1
62
3
10
33.1976814
20
90.8978424
11
33.1976814
21
109.8978424
0
LINE
8
1
62
7
10
52.1976967
20
66.3836060
11
52.1976967
21
112.8978424
0
INSERT
8
1
2
HOUSE_EL-G82
10
0.0000000
20
0.0000000
0
LINE
8
1
62
3
10
43.1976967
20
90.8978424
11
43.1976967
21
109.8978424
0
LINE
8
1
62
3
10
64.1970901
20
98.9242401
11
64.1970901
21
112.9242401
0
LINE
8
1
62
7
10
64.2132034
20
56.8656769
11
64.2132034
21
60.8656769
0
LINE
8
1
62
7
10
66.2132034
20
54.8656769
11
64.2132034
21
56.8656769
0
LINE
8
1
62
7
10
66.2132034
20
54.8656769
11
66.2132034
21
54.8656769
0
LINE
8
1
62
7
10
66.2132034
20
50.8656769
11
66.2132034
21
54.8656769
0
INSERT
8
1
2
HOUSE_EL-G83
10
0.0000000
20
0.0000000
0
INSERT
8
1
2
HOUSE_EL-G85
10
0.0000000
20
0.0000000
0
LINE
8
1
62
3
10
40.1976967
20
90.8978424
11
33.1976814
21
90.8978424
0
LINE
8
1
62
3
10
37.2135963
20
99.8978424
11
39.2135963
21
99.8978424
0
LINE
8
1
62
3
10
39.2135963
20
97.8978424
11
37.2135963
21
97.8978424
0
LINE
8
1
62
3
10
39.2135963
20
94.8978424
11
37.2135963
21
94.8978424
0
LINE
8
1
62
3
10
37.2135963
20
91.8978424
11
39.2135963
21
91.8978424
0
INSERT
8
1
2
HOUSE_EL-G87
10
0.0000000
20
0.0000000
0
INSERT
8
1
2
HOUSE_EL-G89
10
0.0000000
20
0.0000000
0
LINE
8
1
62
7
10
30.7025795
20
84.9003448
11
30.7025795
21
88.9003448
0
LINE
8
1
62
7
10
29.7025795
20
88.9003448
11
29.7025795
21
84.9003448
0
LINE
8
1
62
7
10
32.7025795
20
84.9003448
11
32.7025795
21
88.9003448
0
LINE
8
1
62
7
10
31.7025795
20
88.9003448
11
31.7025795
21
84.9003448
0
INSERT
8
1
2
HOUSE_EL-G91
10
0.0000000
20
0.0000000
0
LINE
8
1
62
7
10
29.7025795
20
84.9003448
11
30.7025795
21
84.9003448
0
LINE
8
1
62
7
10
31.7025795
20
84.9003448
11
32.7025795
21
84.9003448
0
INSERT
8
1
2
HOUSE_EL-G93
10
0.0000000
20
0.0000000
0
LINE
8
1
62
7
10
31.1976814
20
66.8573914
11
31.1976814
21
66.8573914
0
LINE
8
1
62
7
10
31.1976814
20
66.8573914
11
31.1976814
21
66.3836060
0
LINE
8
1
62
7
10
30.7025795
20
88.9003448
11
29.7025795
21
88.9003448
0
LINE
8
1
62
7
10
32.7025795
20
88.9003448
11
31.7025795
21
88.9003448
0
LINE
8
1
62
3
10
14.1976824
20
93.8978424
11
15.2108049
21
93.8978424
0
LINE
8
1
62
3
10
17.2135963
20
93.8978424
11
18.2176094
21
93.8978424
0
LINE
8
1
62
3
10
18.2074471
20
96.8978424
11
17.2135963
21
96.8978424
0
LINE
8
1
62
3
10
15.1904802
20
96.8978424
11
14.1976824
21
96.8978424
0
LINE
8
1
62
3
10
19.1976814
20
90.8978424
11
12.1976824
21
90.8978424
0
LINE
8
1
62
3
10
16.2135963
20
99.8978424
11
18.2135963
21
99.8978424
0
LINE
8
1
62
3
10
18.2135963
20
97.8978424
11
16.2135963
21
97.8978424
0
LINE
8
1
62
3
10
16.2135963
20
94.8978424
11
16.2135963
21
96.8978424
0
LINE
8
1
62
3
10
18.2135963
20
94.8978424
11
16.2135963
21
94.8978424
0
LINE
8
1
62
3
10
15.1976824
20
94.8978424
11
13.1976824
21
94.8978424
0
LINE
8
1
62
3
10
13.1976824
20
94.8978424
11
13.1976824
21
96.8978424
0
LINE
8
1
62
3
10
15.1976824
20
97.8978424
11
13.1976824
21
97.8978424
0
LINE
8
1
62
3
10
13.1976824
20
99.8978424
11
15.1976824
21
99.8978424
0
LINE
8
1
62
3
10
16.2135963
20
91.8978424
11
18.2135963
21
91.8978424
0
LINE
8
1
62
3
10
13.1976824
20
91.8978424
11
15.1976824
21
91.8978424
0
LINE
8
1
62
3
10
29.1976814
20
90.8978424
11
22.1976814
21
90.8978424
0
LINE
8
1
62
3
10
26.2135963
20
99.8978424
11
28.2135963
21
99.8978424
0
LINE
8
1
62
3
10
28.2135963
20
97.8978424
11
26.2135963
21
97.8978424
0
LINE
8
1
62
3
10
26.2135963
20
94.8978424
11
26.2135963
21
96.8978424
0
LINE
8
1
62
3
10
28.2135963
20
94.8978424
11
26.2135963
21
94.8978424
0
LINE
8
1
62
3
10
25.1976814
20
94.8978424
11
23.1976814
21
94.8978424
0
LINE
8
1
62
3
10
23.1976814
20
94.8978424
11
23.1976814
21
96.8978424
0
LINE
8
1
62
3
10
25.1976814
20
97.8978424
11
23.1976814
21
97.8978424
0
LINE
8
1
62
3
10
23.1976814
20
99.8978424
11
25.1976814
21
99.8978424
0
LINE
8
1
62
3
10
26.2135963
20
91.8978424
11
28.2135963
21
91.8978424
0
LINE
8
1
62
3
10
23.1976814
20
91.8978424
11
25.1976814
21
91.8978424
0
LINE
8
1
62
3
10
37.2135963
20
94.8978424
11
37.2135963
21
96.8978424
0
LINE
8
1
62
3
10
36.1976967
20
94.8978424
11
34.1976814
21
94.8978424
0
LINE
8
1
62
3
10
34.1976814
20
94.8978424
11
34.1976814
21
96.8978424
0
LINE
8
1
62
3
10
36.1976967
20
97.8978424
11
34.1976814
21
97.8978424
0
LINE
8
1
62
3
10
34.1976814
20
99.8978424
11
36.1976967
21
99.8978424
0
LINE
8
1
62
3
10
34.1976814
20
91.8978424
11
36.1976967
21
91.8978424
0
INSERT
8
1
2
HOUSE_EL-G94
10
0.0000000
20
0.0000000
0
LINE
8
1
62
3
10
64.1970901
20
76.9242401
11
64.1970901
21
96.9242401
0
INSERT
8
1
2
HOUSE_EL-G96
10
0.0000000
20
0.0000000
0
LINE
8
1
62
7
10
59.2648048
20
65.5571747
11
63.2648048
21
61.5571747
0
LINE
8
1
62
7
10
63.2131996
20
60.8656769
11
63.2131996
21
60.8656769
0
LINE
8
1
62
7
10
63.2131996
20
60.8656769
11
64.3945084
21
60.7051697
0
LINE
8
1
62
7
10
64.3945084
20
60.7051697
11
63.2648048
21
61.5571747
0
LINE
8
1
62
7
10
59.2648048
20
67.5571747
11
59.2648048
21
65.5571747
0
LINE
8
1
62
7
10
59.2648048
20
65.5571747
11
57.2648048
21
67.5571747
0
LINE
8
1
62
3
10
66.1970901
20
82.9242401
11
70.1970901
21
82.9242401
0
LINE
8
1
62
3
10
66.1970901
20
78.9242401
11
70.1970901
21
78.9242401
0
LINE
8
1
62
3
10
50.1976967
20
90.8978424
11
43.1976967
21
90.8978424
0
LINE
8
1
62
3
10
47.2135963
20
99.8978424
11
49.2135963
21
99.8978424
0
LINE
8
1
62
3
10
49.2135963
20
97.8978424
11
47.2135963
21
97.8978424
0
LINE
8
1
62
3
10
49.2135963
20
94.8978424
11
47.2135963
21
94.8978424
0
LINE
8
1
62
3
10
47.2135963
20
91.8978424
11
49.2135963
21
91.8978424
0
LINE
8
1
62
3
10
47.2135963
20
94.8978424
11
47.2135963
21
96.8978424
0
LINE
8
1
62
3
10
46.1976967
20
94.8978424
11
44.1976967
21
94.8978424
0
LINE
8
1
62
3
10
44.1976967
20
94.8978424
11
44.1976967
21
96.8978424
0
LINE
8
1
62
3
10
46.1976967
20
97.8978424
11
44.1976967
21
97.8978424
0
LINE
8
1
62
3
10
44.1976967
20
99.8978424
11
46.1976967
21
99.8978424
0
LINE
8
1
62
3
10
44.1976967
20
91.8978424
11
46.1976967
21
91.8978424
0
LINE
8
1
62
3
10
70.1970901
20
94.9242401
11
70.1970901
21
90.9242401
0
LINE
8
1
62
3
10
66.1970901
20
90.9242401
11
66.1970901
21
94.9242401
0
LINE
8
1
62
3
10
66.1970901
20
94.9242401
11
70.1970901
21
94.9242401
0
LINE
8
1
62
3
10
70.1970901
20
90.9242401
11
66.1970901
21
90.9242401
0
LINE
8
1
62
7
10
52.1976662
20
122.8978424
11
52.1976662
21
112.8978424
0
LINE
8
1
62
7
10
10.1976824
20
112.8978424
11
10.1976824
21
122.8978424
0
LINE
8
1
62
7
10
52.1976662
20
112.8978424
11
10.1976824
21
112.8978424
0
LINE
8
1
62
7
10
52.1976967
20
110.8978424
11
10.1976824
21
110.8978424
0
LINE
8
1
62
3
10
39.2135963
20
100.8978424
11
37.2135963
21
100.8978424
0
LINE
8
1
62
3
10
37.2135963
20
102.8978424
11
39.2135963
21
102.8978424
0
LINE
8
1
62
3
10
37.2135963
20
105.8978424
11
39.2135963
21
105.8978424
0
LINE
8
1
62
3
10
39.2135963
20
106.8978424
11
37.2135963
21
106.8978424
0
LINE
8
1
62
3
10
37.2135963
20
108.8978424
11
39.2135963
21
108.8978424
0
LINE
8
1
62
3
10
39.2135963
20
103.8978424
11
37.2135963
21
103.8978424
0
LINE
8
1
62
3
10
33.1976814
20
109.8978424
11
40.1976967
21
109.8978424
0
LINE
8
1
62
7
10
10.1976824
20
110.8978424
11
31.1976814
21
110.8978424
0
LINE
8
1
62
7
10
10.1976824
20
110.8978424
11
10.2040911
21
110.8946381
0
LINE
8
1
62
7
10
13.2135973
20
110.8978424
11
13.2205858
21
110.8943634
0
LINE
8
1
62
3
10
18.2135963
20
100.8978424
11
16.2135963
21
100.8978424
0
LINE
8
1
62
3
10
15.1976824
20
100.8978424
11
13.1976824
21
100.8978424
0
LINE
8
1
62
3
10
13.1976824
20
102.8978424
11
15.1976824
21
102.8978424
0
LINE
8
1
62
3
10
16.2135963
20
102.8978424
11
18.2135963
21
102.8978424
0
LINE
8
1
62
3
10
16.2135963
20
105.8978424
11
18.2135963
21
105.8978424
0
LINE
8
1
62
3
10
18.2135963
20
106.8978424
11
16.2135963
21
106.8978424
0
LINE
8
1
62
3
10
16.2090187
20
108.9001312
11
16.2135963
21
108.8978424
0
LINE
8
1
62
3
10
16.2135963
20
108.8978424
11
18.2135963
21
108.8978424
0
LINE
8
1
62
3
10
13.1976824
20
108.8978424
11
15.1976824
21
108.8978424
0
LINE
8
1
62
3
10
15.1976824
20
106.8978424
11
13.1976824
21
106.8978424
0
LINE
8
1
62
3
10
13.1976824
20
105.8978424
11
15.1976824
21
105.8978424
0
LINE
8
1
62
3
10
18.2135963
20
103.8978424
11
16.2135963
21
103.8978424
0
LINE
8
1
62
3
10
15.1976824
20
103.8978424
11
13.1976824
21
103.8978424
0
LINE
8
1
62
3
10
12.1976824
20
109.8978424
11
19.1976814
21
109.8978424
0
LINE
8
1
62
3
10
28.2135963
20
100.8978424
11
26.2135963
21
100.8978424
0
LINE
8
1
62
3
10
25.1976814
20
100.8978424
11
23.1976814
21
100.8978424
0
LINE
8
1
62
3
10
23.1976814
20
102.8978424
11
25.1976814
21
102.8978424
0
LINE
8
1
62
3
10
26.2135963
20
102.8978424
11
28.2135963
21
102.8978424
0
LINE
8
1
62
3
10
26.2135963
20
105.8978424
11
28.2135963
21
105.8978424
0
LINE
8
1
62
3
10
28.2135963
20
106.8978424
11
26.2135963
21
106.8978424
0
LINE
8
1
62
3
10
26.2090187
20
108.9001312
11
26.2135963
21
108.8978424
0
LINE
8
1
62
3
10
26.2135963
20
108.8978424
11
28.2135963
21
108.8978424
0
LINE
8
1
62
3
10
23.1976814
20
108.8978424
11
25.1976814
21
108.8978424
0
LINE
8
1
62
3
10
25.1976814
20
106.8978424
11
23.1976814
21
106.8978424
0
LINE
8
1
62
3
10
23.1976814
20
105.8978424
11
25.1976814
21
105.8978424
0
LINE
8
1
62
3
10
28.2135963
20
103.8978424
11
26.2135963
21
103.8978424
0
LINE
8
1
62
3
10
25.1976814
20
103.8978424
11
23.1976814
21
103.8978424
0
LINE
8
1
62
3
10
22.1976814
20
109.8978424
11
29.1976814
21
109.8978424
0
LINE
8
1
62
3
10
36.1976967
20
100.8978424
11
34.1976814
21
100.8978424
0
LINE
8
1
62
3
10
34.1976814
20
102.8978424
11
36.1976967
21
102.8978424
0
LINE
8
1
62
3
10
37.2090187
20
108.9001312
11
37.2135963
21
108.8978424
0
LINE
8
1
62
3
10
34.1976814
20
108.8978424
11
36.1976967
21
108.8978424
0
LINE
8
1
62
3
10
36.1976967
20
106.8978424
11
34.1976814
21
106.8978424
0
LINE
8
1
62
3
10
34.1976814
20
105.8978424
11
36.1976967
21
105.8978424
0
LINE
8
1
62
3
10
36.1976967
20
103.8978424
11
34.1976814
21
103.8978424
0
LINE
8
1
62
3
10
49.2135963
20
100.8978424
11
47.2135963
21
100.8978424
0
LINE
8
1
62
3
10
47.2135963
20
102.8978424
11
49.2135963
21
102.8978424
0
LINE
8
1
62
3
10
47.2135963
20
105.8978424
11
49.2135963
21
105.8978424
0
LINE
8
1
62
3
10
49.2135963
20
106.8978424
11
47.2135963
21
106.8978424
0
LINE
8
1
62
3
10
47.2135963
20
108.8978424
11
49.2135963
21
108.8978424
0
LINE
8
1
62
3
10
49.2135963
20
103.8978424
11
47.2135963
21
103.8978424
0
LINE
8
1
62
3
10
43.1976967
20
109.8978424
11
50.1976967
21
109.8978424
0
LINE
8
1
62
3
10
46.1976967
20
100.8978424
11
44.1976967
21
100.8978424
0
LINE
8
1
62
3
10
44.1976967
20
102.8978424
11
46.1976967
21
102.8978424
0
LINE
8
1
62
3
10
47.2090187
20
108.9001312
11
47.2135963
21
108.8978424
0
LINE
8
1
62
3
10
44.1976967
20
108.8978424
11
46.1976967
21
108.8978424
0
LINE
8
1
62
3
10
46.1976967
20
106.8978424
11
44.1976967
21
106.8978424
0
LINE
8
1
62
3
10
44.1976967
20
105.8978424
11
46.1976967
21
105.8978424
0
LINE
8
1
62
3
10
46.1976967
20
103.8978424
11
44.1976967
21
103.8978424
0
LINE
8
1
62
7
10
52.1976967
20
112.8978424
11
52.1976967
21
110.8978424
0
LINE
8
1
62
3
10
70.1970901
20
100.9242401
11
70.1970901
21
104.9242401
0
LINE
8
1
62
3
10
70.1970901
20
110.9242401
11
70.1970901
21
106.9242401
0
LINE
8
1
62
3
10
72.1710587
20
106.9242401
11
72.1710587
21
110.9242401
0
LINE
8
1
62
3
10
72.1710587
20
104.9242401
11
72.1710587
21
100.9242401
0
LINE
8
1
62
3
10
66.1970901
20
104.9242401
11
70.1970901
21
104.9242401
0
LINE
8
1
62
3
10
66.1970901
20
104.9242401
11
66.1970901
21
100.9242401
0
LINE
8
1
62
3
10
66.1970901
20
100.9242401
11
70.1970901
21
100.9242401
0
LINE
8
1
62
3
10
66.1970901
20
106.9242401
11
66.1970901
21
110.9242401
0
LINE
8
1
62
3
10
66.1970901
20
110.9242401
11
70.1970901
21
110.9242401
0
LINE
8
1
62
3
10
70.1970901
20
106.9242401
11
66.1970901
21
106.9242401
0
LINE
8
1
62
3
10
64.1970901
20
112.9242401
11
64.1970901
21
112.9242401
0
LINE
8
1
62
7
10
9.2132006
20
148.8656769
11
53.2131996
21
148.8656769
0
LINE
8
1
62
7
10
10.1976824
20
122.8978424
11
52.1976662
21
122.8978424
0
LINE
8
1
62
3
10
52.2897682
20
124.8656769
11
32.2897530
21
124.8656769
0
LINE
8
1
62
3
10
52.2897682
20
144.8656769
11
32.2897530
21
144.8656769
0
LINE
8
1
62
3
10
38.2897682
20
130.8656769
11
34.2897530
21
130.8656769
0
LINE
8
1
62
3
10
38.2897682
20
138.8656769
11
34.2897530
21
138.8656769
0
LINE
8
1
62
3
10
34.2897530
20
142.8656769
11
38.2897682
21
142.8656769
0
LINE
8
1
62
3
10
38.2897682
20
132.8656769
11
34.2897530
21
132.8656769
0
LINE
8
1
62
3
10
34.2897530
20
136.8656769
11
38.2897682
21
136.8656769
0
LINE
8
1
62
3
10
34.2897530
20
130.8656769
11
38.2897682
21
130.8656769
0
LINE
8
1
62
3
10
34.2897530
20
126.8656769
11
38.2897682
21
126.8656769
0
INSERT
8
1
2
HOUSE_EL-G98
10
0.0000000
20
0.0000000
0
LINE
8
1
62
3
10
32.2897530
20
124.8656769
11
32.2897530
21
144.8656769
0
LINE
8
1
62
3
10
34.2897530
20
130.8656769
11
34.2897530
21
126.8656769
0
LINE
8
1
62
3
10
34.2897530
20
132.8656769
11
34.2897530
21
136.8656769
0
LINE
8
1
62
3
10
34.2897530
20
138.8656769
11
34.2897530
21
142.8656769
0
LINE
8
1
62
7
10
7.2132001
20
148.8656769
11
7.2132001
21
144.8656769
0
LINE
8
1
62
7
10
9.2132006
20
148.8656769
11
7.2132001
21
148.8656769
0
LINE
8
1
62
7
10
57.2131996
20
144.8656769
11
57.2131996
21
140.8656769
0
INSERT
8
1
2
HOUSE_EL-G105
10
0.0000000
20
0.0000000
0
LINE
8
1
62
3
10
50.2246437
20
138.8656769
11
46.2246437
21
138.8656769
0
LINE
8
1
62
3
10
46.2246437
20
142.8656769
11
50.2246437
21
142.8656769
0
INSERT
8
1
2
HOUSE_EL-G106
10
0.0000000
20
0.0000000
0
LINE
8
1
62
3
10
38.2897682
20
136.8656769
11
38.2897682
21
132.8656769
0
LINE
8
1
62
3
10
38.2897682
20
142.8656769
11
38.2897682
21
138.8656769
0
LINE
8
1
62
3
10
38.2897682
20
126.8656769
11
38.2897682
21
130.8656769
0
LINE
8
1
62
3
10
44.2506752
20
138.8656769
11
40.2506752
21
138.8656769
0
LINE
8
1
62
3
10
40.2506752
20
138.8656769
11
40.2506752
21
142.8656769
0
LINE
8
1
62
3
10
44.2506752
20
142.8656769
11
44.2506752
21
138.8656769
0
LINE
8
1
62
3
10
40.2506752
20
142.8656769
11
44.2506752
21
142.8656769
0
LINE
8
1
62
3
10
46.2246437
20
138.8656769
11
46.2246437
21
142.8656769
0
LINE
8
1
62
3
10
50.2246437
20
142.8656769
11
50.2246437
21
138.8656769
0
LINE
8
1
62
7
10
67.2132034
20
136.8656769
11
67.2132034
21
130.8656769
0
LINE
8
1
62
7
10
69.2132034
20
126.8656769
11
69.2132034
21
130.8656769
0
LINE
8
1
62
7
10
69.2132034
20
130.8656769
11
69.2132034
21
131.2698517
0
LINE
8
1
62
7
10
55.2131996
20
148.8656769
11
55.2131996
21
144.8656769
0
LINE
8
1
62
7
10
55.2131996
20
144.8656769
11
57.2131996
21
148.8656769
0
LINE
8
1
62
7
10
53.2236061
20
148.8653107
11
55.2236061
21
148.8653107
0
LINE
8
1
62
7
10
57.2131996
20
148.8656769
11
59.2131996
21
148.8656769
0
LINE
8
1
62
7
10
59.2131996
20
148.8656769
11
59.2131996
21
144.8656769
0
LINE
8
1
62
7
10
55.2131996
20
144.8656769
11
57.2131996
21
144.8656769
0
LINE
8
1
62
7
10
57.2131996
20
144.8656769
11
59.2131996
21
148.8656769
0
LINE
8
1
62
7
10
13.2132006
20
212.8656769
11
-86.7867966
21
172.8656769
0
LINE
8
1
62
7
10
31.2131996
20
196.8656769
11
-30.7868004
21
168.8656769
0
LINE
8
1
62
7
10
-24.7868004
20
156.8656769
11
7.2132001
21
156.8656769
0
LINE
8
1
62
7
10
7.2132001
20
152.8656769
11
-24.7868004
21
152.8656769
0
LINE
8
1
62
7
10
-36.7868004
20
168.8656769
11
-36.7868004
21
162.8656769
0
LINE
8
1
62
7
10
-30.7868004
20
162.8656769
11
-32.7868004
21
162.8656769
0
LINE
8
1
62
7
10
-32.7868004
20
162.8656769
11
-32.7868004
21
158.8656769
0
LINE
8
1
62
7
10
-30.7868004
20
168.8656769
11
-36.7868004
21
168.8656769
0
LINE
8
1
62
7
10
-32.7868004
20
158.8656769
11
-26.7868004
21
158.8656769
0
LINE
8
1
62
7
10
-32.7868004
20
158.8656769
11
-24.7868004
21
158.8656769
0
LINE
8
1
62
7
10
-24.7868004
20
152.8656769
11
-24.7868004
21
156.8656769
0
LINE
8
1
62
7
10
-24.7868004
20
152.8656769
11
-22.7868004
21
152.8656769
0
LINE
8
1
62
7
10
9.2132006
20
152.8656769
11
53.2131996
21
152.8656769
0
LINE
8
1
62
7
10
7.2132001
20
156.8656769
11
7.2132001
21
152.8656769
0
LINE
8
1
62
7
10
7.2132001
20
156.8656769
11
9.2132006
21
152.8656769
0
LINE
8
1
62
7
10
53.2131996
20
152.8656769
11
55.2131996
21
156.8656769
0
LINE
8
1
62
7
10
55.2131996
20
152.8656769
11
55.2131996
21
156.8656769
0
LINE
8
1
62
7
10
55.2131996
20
152.8656769
11
57.2131996
21
152.8656769
0
LINE
8
1
62
7
10
19.2131996
20
212.8656769
11
55.2131996
21
212.8656769
0
LINE
8
1
62
7
10
19.2131996
20
212.8656769
11
13.2132006
21
212.8656769
0
LINE
8
1
62
7
10
175.2131958
20
186.8656769
11
83.2132034
21
138.8656769
0
LINE
8
1
62
7
10
85.2132034
20
148.8656769
11
85.2132034
21
152.8656769
0
LINE
8
1
62
7
10
175.2131958
20
186.8656769
11
289.2131958
21
138.8656769
0
LINE
8
1
62
7
10
77.2132034
20
138.8656769
11
299.2131958
21
138.8656769
0
LINE
8
1
62
7
10
299.2131958
20
132.8656769
11
77.2132034
21
132.8656769
0
LINE
8
1
62
7
10
250.2082520
20
48.5023956
11
109.2132034
21
48.5023956
0
INSERT
8
1
2
HOUSE_EL-G108
10
0.0000000
20
0.0000000
0
LINE
8
1
62
7
10
297.2131958
20
128.8656769
11
79.2132034
21
128.8656769
0
ARC
8
1
62
7
10
180.3881226
20
-101.2672348
40
228.0416718
50
71.3300014
51
108.6699968
0
ARC
8
1
62
7
10
180.3881226
20
-105.2672348
40
228.0416718
50
72.1722116
51
107.6083873
0
LINE
8
1
62
7
10
253.2131958
20
126.8656769
11
109.5486221
21
126.8656769
0
INSERT
8
1
2
HOUSE_EL-G117
10
0.0000000
20
0.0000000
0
INSERT
8
1
2
HOUSE_EL-G126
10
0.0000000
20
0.0000000
0
TEXT
8
1
62
5
40
8.0000000
1
ARCHITECTS: SUSAN DINESEN
7
ITALICC
72
0
10
84.2281113
20
6.4310808
0
TEXT
8
1
62
5
40
8.0000000
1
CAD DRAFTING GRADE 9
7
ITALICC
72
0
10
109.4861298
20
21.4650822
0
TEXT
8
1
62
5
40
8.0000000
1
DEBRA BURTON
7
ITALICC
72
0
10
178.9456329
20
-6.2899966
0
LINE
8
1
62
7
10
110.3881302
20
110.7744293
11
110.3881302
21
48.7744293
0
LINE
8
1
62
7
10
83.2132034
20
48.8656769
11
83.2132034
21
52.4651337
0
LINE
8
1
62
7
10
93.2132034
20
46.8656769
11
93.2132034
21
50.8656769
0
LINE
8
1
62
7
10
107.2132034
20
50.8656769
11
107.2132034
21
46.8656769
0
LINE
8
1
62
7
10
93.2132034
20
46.8656769
11
83.2132034
21
48.8656769
0
LINE
8
1
62
7
10
107.2132034
20
46.8656769
11
93.2132034
21
46.8656769
0
LINE
8
1
62
7
10
109.2132034
20
48.5023956
11
107.2379227
21
48.5023956
0
LINE
8
1
62
7
10
110.3881302
20
48.7744293
11
110.3881302
21
48.5011597
0
INSERT
8
1
2
HOUSE_EL-G135
10
0.0000000
20
0.0000000
0
LINE
8
1
62
7
10
114.3881302
20
106.5023346
11
144.3881226
21
106.5023346
0
LINE
8
1
62
7
10
144.3881226
20
116.5023346
11
127.3285904
21
116.5023346
0
LINE
8
1
62
7
10
93.2132034
20
122.8656769
11
93.2132034
21
78.8656769
0
LINE
8
1
62
7
10
107.2132034
20
78.8656769
11
107.2132034
21
122.8656769
0
LINE
8
1
62
7
10
97.2132034
20
86.8656769
11
97.2132034
21
122.8656769
0
LINE
8
1
62
7
10
83.2648087
20
80.8526764
11
83.2648087
21
126.9672699
0
LINE
8
1
62
3
10
78.1970901
20
112.9242401
11
78.1970901
21
98.9242401
0
LINE
8
1
62
7
10
103.2132034
20
107.8656769
11
103.2132034
21
86.8656769
0
LINE
8
1
62
7
10
107.2132034
20
74.8656769
11
107.2132034
21
56.8656769
0
LINE
8
1
62
7
10
93.2132034
20
56.8656769
11
93.2132034
21
74.8656769
0
LINE
8
1
62
7
10
93.2132034
20
56.8656769
11
83.2132034
21
58.8656769
0
LINE
8
1
62
7
10
81.2132034
20
52.8656769
11
81.2132034
21
58.8656769
0
LINE
8
1
62
7
10
81.2132034
20
58.8656769
11
91.2132034
21
56.8656769
0
LINE
8
1
62
7
10
91.2132034
20
50.8656769
11
81.2132034
21
52.8656769
0
LINE
8
1
62
7
10
107.2132034
20
56.8656769
11
93.2132034
21
56.8656769
0
LINE
8
1
62
7
10
109.2132034
20
50.8656769
11
93.2132034
21
50.8656769
0
LINE
8
1
62
7
10
93.2132034
20
50.8656769
11
91.2132034
21
50.8656769
0
LINE
8
1
62
7
10
91.2132034
20
50.8656769
11
91.2132034
21
56.8656769
0
LINE
8
1
62
7
10
91.2132034
20
56.8656769
11
93.2132034
21
56.8656769
0
LINE
8
1
62
7
10
107.2132034
20
56.8656769
11
109.2132034
21
56.8656769
0
LINE
8
1
62
7
10
109.2132034
20
56.8656769
11
109.2132034
21
50.8656769
0
LINE
8
1
62
7
10
109.2132034
20
50.8656769
11
107.2132034
21
50.8656769
0
LINE
8
1
62
3
10
78.1970901
20
96.9242401
11
78.1970901
21
76.9242401
0
LINE
8
1
62
7
10
107.2132034
20
86.8656769
11
107.2132034
21
82.8656769
0
LINE
8
1
62
7
10
93.2132034
20
78.8656769
11
83.2132034
21
80.8656769
0
LINE
8
1
62
7
10
93.2132034
20
82.8656769
11
83.2132034
21
84.8656769
0
LINE
8
1
62
7
10
91.2132034
20
76.8656769
11
81.2132034
21
78.8656769
0
LINE
8
1
62
7
10
93.2132034
20
74.8656769
11
83.2132034
21
76.8656769
0
LINE
8
1
62
7
10
83.2132034
20
58.8656769
11
83.2132034
21
64.8656769
0
LINE
8
1
62
7
10
81.2132034
20
58.8656769
11
83.2132034
21
58.8656769
0
LINE
8
1
62
7
10
81.2132034
20
78.8656769
11
83.2132034
21
80.8656769
0
LINE
8
1
62
7
10
83.2132034
20
76.8656769
11
81.2132034
21
78.8656769
0
LINE
8
1
62
7
10
83.2648087
20
65.5571747
11
83.2648087
21
76.8562927
0
LINE
8
1
62
7
10
83.2132034
20
64.8656769
11
83.2132034
21
65.5554962
0
LINE
8
1
62
7
10
93.2132034
20
78.8656769
11
107.2132034
21
78.8656769
0
LINE
8
1
62
7
10
107.2132034
20
82.8656769
11
93.2132034
21
82.8656769
0
LINE
8
1
62
7
10
109.2132034
20
76.8656769
11
91.2132034
21
76.8656769
0
LINE
8
1
62
7
10
107.2132034
20
74.8656769
11
93.2132034
21
74.8656769
0
LINE
8
1
62
7
10
91.2132034
20
76.8656769
11
93.2132034
21
78.8656769
0
LINE
8
1
62
7
10
93.2132034
20
74.8656769
11
91.2132034
21
76.8656769
0
LINE
8
1
62
7
10
107.2132034
20
78.8656769
11
109.2132034
21
76.8656769
0
LINE
8
1
62
7
10
109.2132034
20
76.8656769
11
107.2132034
21
74.8656769
0
LINE
8
1
62
7
10
93.2132034
20
86.8656769
11
83.2132034
21
88.8656769
0
LINE
8
1
62
3
10
76.1710587
20
94.9242401
11
76.1710587
21
90.9242401
0
LINE
8
1
62
7
10
97.2132034
20
86.8656769
11
93.2132034
21
86.8656769
0
LINE
8
1
62
7
10
103.2132034
20
86.8656769
11
97.2132034
21
86.8656769
0
LINE
8
1
62
7
10
103.2132034
20
86.8656769
11
107.2132034
21
86.8656769
0
INSERT
8
1
2
HOUSE_EL-G137
10
0.0000000
20
0.0000000
0
LINE
8
1
62
7
10
103.2132034
20
118.8656769
11
103.2132034
21
108.8656769
0
LINE
8
1
62
3
10
76.1710587
20
110.9242401
11
76.1710587
21
106.9242401
0
LINE
8
1
62
3
10
76.1710587
20
100.9242401
11
76.1710587
21
104.9242401
0
LINE
8
1
62
7
10
104.2132034
20
108.8656769
11
103.2132034
21
108.8656769
0
LINE
8
1
62
7
10
107.3881302
20
114.7744293
11
107.3881302
21
114.7744293
0
LINE
8
1
62
7
10
107.3881302
20
114.7744293
11
107.2163467
21
114.6991425
0
LINE
8
1
62
7
10
111.4033890
20
112.0898590
11
110.3877640
21
111.7295074
0
LINE
8
1
62
7
10
110.3881302
20
110.7744293
11
110.3881302
21
111.7295074
0
LINE
8
1
62
7
10
116.3881302
20
108.5023346
11
142.3881226
21
108.5023346
0
LINE
8
1
62
7
10
142.3881226
20
114.5023346
11
119.5805435
21
114.5023346
0
LINE
8
1
62
7
10
114.3881302
20
112.9870453
11
114.3881302
21
106.5023346
0
LINE
8
1
62
7
10
116.3881302
20
113.5334625
11
116.3881302
21
108.5023346
0
LINE
8
1
62
7
10
142.3881226
20
108.5023346
11
142.3881226
21
114.5023346
0
LINE
8
1
62
7
10
83.2132034
20
148.8656769
11
83.2132034
21
138.8656769
0
LINE
8
1
62
7
10
81.2132034
20
126.8656769
11
93.2132034
21
128.8656769
0
LINE
8
1
62
7
10
93.2132034
20
124.8656769
11
83.2132034
21
122.8656769
0
LINE
8
1
62
7
10
93.2132034
20
122.8656769
11
83.2132034
21
120.8656769
0
LINE
8
1
62
7
10
77.2132034
20
132.8656769
11
77.2132034
21
138.8656769
0
LINE
8
1
62
7
10
79.2132034
20
128.8656769
11
79.2132034
21
132.8656769
0
LINE
8
1
62
7
10
83.2648087
20
128.8369293
11
83.2648087
21
128.8691559
0
LINE
8
1
62
7
10
93.2132034
20
128.8656769
11
109.2132034
21
128.8656769
0
LINE
8
1
62
7
10
109.2132034
20
124.8656769
11
93.2132034
21
124.8656769
0
LINE
8
1
62
7
10
107.2132034
20
122.8656769
11
93.2132034
21
122.8656769
0
LINE
8
1
62
7
10
93.2132034
20
124.8656769
11
93.2132034
21
128.8656769
0
LINE
8
1
62
7
10
93.2132034
20
122.8656769
11
93.2132034
21
124.8656769
0
LINE
8
1
62
7
10
103.2132034
20
122.8656769
11
103.2132034
21
119.8747711
0
LINE
8
1
62
7
10
103.2132034
20
122.8656769
11
103.2132034
21
119.8552399
0
LINE
8
1
62
7
10
104.2132034
20
118.8656769
11
103.0131912
21
118.8656769
0
LINE
8
1
62
7
10
98.2132034
20
119.8656769
11
100.2132034
21
119.8656769
0
LINE
8
1
62
7
10
109.2132034
20
128.8656769
11
109.2132034
21
124.8656769
0
LINE
8
1
62
7
10
109.2132034
20
124.8656769
11
107.2132034
21
124.8656769
0
LINE
8
1
62
7
10
107.2132034
20
124.8656769
11
107.2132034
21
122.8656769
0
LINE
8
1
62
7
10
107.2132034
20
122.8656769
11
103.2132034
21
122.8656769
0
LINE
8
1
62
7
10
85.2132034
20
148.8656769
11
83.2132034
21
148.8656769
0
INSERT
8
1
2
HOUSE_EL-G138
10
0.0000000
20
0.0000000
0
INSERT
8
1
2
HOUSE_EL-G140
10
0.0000000
20
0.0000000
0
INSERT
8
1
2
HOUSE_EL-G142
10
0.0000000
20
0.0000000
0
LINE
8
1
62
7
10
144.3881226
20
106.5023346
11
144.3881226
21
116.5023346
0
INSERT
8
1
2
HOUSE_EL-G144
10
0.0000000
20
0.0000000
0
LINE
8
1
62
7
10
250.2082520
20
79.0243835
11
250.2082520
21
48.5023956
0
LINE
8
1
62
7
10
253.2398376
20
48.7422943
11
253.2398376
21
52.0706329
0
LINE
8
1
62
7
10
259.2398376
20
46.7422943
11
259.2398376
21
50.7422943
0
LINE
8
1
62
7
10
273.2398376
20
50.7422943
11
273.2398376
21
46.7422943
0
LINE
8
1
62
7
10
273.2398376
20
46.7422943
11
259.2398376
21
46.7422943
0
LINE
8
1
62
7
10
259.2398376
20
46.7422943
11
253.2398376
21
48.7422943
0
LINE
8
1
62
7
10
250.2082520
20
48.5023956
11
253.2398376
21
48.7422943
0
LINE
8
1
62
7
10
297.2131958
20
128.8656769
11
275.2131958
21
126.8656769
0
LINE
8
1
62
7
10
259.2131958
20
122.8656769
11
259.2131958
21
78.8656769
0
LINE
8
1
62
7
10
273.2131958
20
78.8656769
11
273.2131958
21
122.8656769
0
LINE
8
1
62
7
10
263.2131958
20
86.8656769
11
263.2131958
21
122.8656769
0
LINE
8
1
62
7
10
254.2046204
20
88.8413544
11
254.2046204
21
121.1915131
0
INSERT
8
1
2
HOUSE_EL-G146
10
0.0000000
20
0.0000000
0
LINE
8
1
62
7
10
250.2082520
20
110.5023956
11
250.2082520
21
80.0463867
0
LINE
8
1
62
7
10
269.2131958
20
107.8701324
11
269.2131958
21
86.8656769
0
LINE
8
1
62
7
10
273.2398376
20
74.7422943
11
273.2398376
21
56.7422943
0
LINE
8
1
62
7
10
259.2398376
20
56.7522736
11
259.2398376
21
74.7522736
0
LINE
8
1
62
7
10
259.2398376
20
56.7522736
11
253.2398376
21
58.7522736
0
LINE
8
1
62
7
10
251.2398376
20
52.7422943
11
251.2398376
21
58.7422943
0
LINE
8
1
62
7
10
251.2398376
20
58.7422943
11
257.2398376
21
56.7422943
0
LINE
8
1
62
7
10
275.2398376
20
50.7422943
11
257.2398376
21
50.7422943
0
LINE
8
1
62
7
10
273.2398376
20
56.7522736
11
259.2398376
21
56.7522736
0
LINE
8
1
62
7
10
257.2398376
20
56.7422943
11
259.2398376
21
56.7422943
0
LINE
8
1
62
7
10
257.2398376
20
50.7422943
11
251.2398376
21
52.7422943
0
LINE
8
1
62
7
10
257.2398376
20
50.7422943
11
257.2398376
21
56.7422943
0
LINE
8
1
62
7
10
273.2398376
20
56.7422943
11
275.2398376
21
56.7422943
0
LINE
8
1
62
7
10
275.2398376
20
56.7422943
11
275.2398376
21
50.7422943
0
LINE
8
1
62
7
10
275.2398376
20
50.7422943
11
273.2398376
21
50.7422943
0
LINE
8
1
62
7
10
275.1158142
20
76.7839203
11
257.1158142
21
76.7839203
0
LINE
8
1
62
7
10
263.2131958
20
82.8656769
11
259.2131958
21
82.8656769
0
LINE
8
1
62
7
10
259.2131958
20
78.8656769
11
273.2131958
21
78.8656769
0
LINE
8
1
62
7
10
273.2164612
20
74.8796234
11
259.2164612
21
74.8796234
0
LINE
8
1
62
7
10
259.2131958
20
86.8656769
11
273.2131958
21
86.8656769
0
LINE
8
1
62
7
10
253.2131958
20
88.8656769
11
253.2131958
21
84.8656769
0
LINE
8
1
62
7
10
259.2131958
20
82.8656769
11
259.2131958
21
86.8656769
0
LINE
8
1
62
7
10
253.2131958
20
84.8656769
11
259.2131958
21
82.8656769
0
LINE
8
1
62
7
10
259.2131958
20
78.8656769
11
253.2131958
21
80.8656769
0
LINE
8
1
62
7
10
257.1158142
20
76.7839203
11
259.1158142
21
78.7839203
0
LINE
8
1
62
7
10
259.2164612
20
74.8796234
11
257.2164612
21
76.8796234
0
LINE
8
1
62
7
10
259.3132019
20
74.7606049
11
253.3132019
21
76.7606049
0
LINE
8
1
62
7
10
253.2398376
20
58.7522736
11
253.2398376
21
76.7522736
0
LINE
8
1
62
7
10
253.2398376
20
58.7522736
11
251.2398376
21
58.7522736
0
LINE
8
1
62
7
10
253.2131958
20
80.8656769
11
253.2131958
21
84.8656769
0
LINE
8
1
62
7
10
257.1859436
20
76.7839203
11
249.1859436
21
79.7839203
0
LINE
8
1
62
7
10
249.1859436
20
79.7839203
11
253.2352905
21
80.8305359
0
LINE
8
1
62
7
10
253.3132019
20
76.7606049
11
249.2086792
21
79.7593689
0
LINE
8
1
62
7
10
259.2131958
20
86.8656769
11
253.2131958
21
88.8656769
0
LINE
8
1
62
7
10
254.2046204
20
88.8413544
11
254.2046204
21
88.5395813
0
LINE
8
1
62
7
10
269.2131958
20
82.8656769
11
273.2131958
21
82.8656769
0
LINE
8
1
62
7
10
269.2131958
20
82.8656769
11
263.2131958
21
82.8656769
0
LINE
8
1
62
7
10
273.1404724
20
78.8072205
11
275.1404724
21
76.8072205
0
LINE
8
1
62
7
10
275.1158142
20
76.7839203
11
273.1158142
21
74.7839203
0
LINE
8
1
62
7
10
216.3881226
20
116.5023346
11
216.3881226
21
106.5023346
0
LINE
8
1
62
7
10
265.1126099
20
118.8656769
11
265.1126099
21
108.8656769
0
LINE
8
1
62
7
10
269.2131958
20
118.8573456
11
269.2131958
21
108.8448029
0
LINE
8
1
62
7
10
216.3881226
20
106.5023346
11
246.3881226
21
106.5023346
0
LINE
8
1
62
7
10
218.3881226
20
108.5023346
11
244.3881226
21
108.5023346
0
LINE
8
1
62
7
10
241.2436218
20
114.5023346
11
218.3881226
21
114.5023346
0
LINE
8
1
62
7
10
218.3881226
20
114.5023346
11
218.3881226
21
108.5023346
0
LINE
8
1
62
7
10
253.3881226
20
114.7744293
11
254.2038269
21
114.5139313
0
LINE
8
1
62
7
10
250.2082520
20
110.5023956
11
250.2082520
21
111.8094635
0
LINE
8
1
62
7
10
253.3881226
20
110.7744293
11
253.3919983
21
110.7731476
0
LINE
8
1
62
7
10
246.3881226
20
106.5023346
11
246.3881226
21
112.9959564
0
LINE
8
1
62
7
10
244.3881226
20
108.5023346
11
244.3881226
21
113.5571747
0
LINE
8
1
62
7
10
265.1126099
20
108.8656769
11
269.1126099
21
108.8656769
0
LINE
8
1
62
7
10
264.1126099
20
107.8656769
11
270.1126099
21
107.8656769
0
LINE
8
1
62
7
10
265.1126099
20
108.8656769
11
264.1126099
21
108.8656769
0
LINE
8
1
62
7
10
270.1126099
20
107.8656769
11
270.1126099
21
108.8656769
0
LINE
8
1
62
7
10
264.1126099
20
108.8656769
11
264.1126099
21
107.8656769
0
LINE
8
1
62
7
10
270.1126099
20
108.8656769
11
269.1126099
21
108.8656769
0
LINE
8
1
62
7
10
233.4741211
20
116.5023346
11
216.3881226
21
116.5023346
0
LINE
8
1
62
7
10
259.2131958
20
124.8656769
11
275.2131958
21
124.8656769
0
LINE
8
1
62
7
10
273.2131958
20
122.8656769
11
259.2131958
21
122.8656769
0
LINE
8
1
62
7
10
275.2131958
20
128.8656769
11
259.2131958
21
128.8656769
0
LINE
8
1
62
7
10
259.2131958
20
128.8656769
11
253.2131958
21
126.8656769
0
LINE
8
1
62
7
10
253.2131958
20
122.8656769
11
259.2131958
21
124.8656769
0
LINE
8
1
62
7
10
259.2131958
20
122.8656769
11
253.2131958
21
120.8656769
0
LINE
8
1
62
7
10
253.2131958
20
126.8656769
11
253.2131958
21
122.8656769
0
LINE
8
1
62
7
10
253.2131958
20
120.8656769
11
253.2131958
21
122.8656769
0
LINE
8
1
62
7
10
259.2131958
20
122.8656769
11
259.2131958
21
124.8656769
0
LINE
8
1
62
7
10
259.2131958
20
128.8656769
11
259.2131958
21
124.8656769
0
LINE
8
1
62
7
10
266.1126099
20
119.8656769
11
266.1126099
21
120.8656769
0
LINE
8
1
62
7
10
268.1126099
20
120.8656769
11
268.1126099
21
119.8656769
0
LINE
8
1
62
7
10
269.2131958
20
122.8656769
11
269.2131958
21
119.8763275
0
LINE
8
1
62
7
10
269.1126099
20
118.8656769
11
265.1126099
21
118.8656769
0
LINE
8
1
62
7
10
264.1126099
20
119.8656769
11
269.1126099
21
119.8656769
0
LINE
8
1
62
7
10
269.1126099
20
119.8656769
11
270.1126099
21
119.8656769
0
LINE
8
1
62
7
10
270.1126099
20
119.8656769
11
270.1126099
21
118.8656769
0
LINE
8
1
62
7
10
265.1126099
20
118.8656769
11
264.1126099
21
118.8656769
0
LINE
8
1
62
7
10
264.1126099
20
118.8656769
11
264.1126099
21
119.8656769
0
LINE
8
1
62
7
10
270.1126099
20
118.8656769
11
269.1126099
21
118.8656769
0
LINE
8
1
62
7
10
275.2131958
20
124.8656769
11
273.2131958
21
124.8656769
0
LINE
8
1
62
7
10
273.2131958
20
124.8656769
11
273.2131958
21
122.8656769
0
LINE
8
1
62
7
10
273.2131958
20
122.8656769
11
269.2131958
21
122.8656769
0
LINE
8
1
62
7
10
275.2131958
20
124.8656769
11
275.2131958
21
128.8656769
0
LINE
8
1
62
7
10
266.1126099
20
120.8656769
11
268.1126099
21
120.8656769
0
LINE
8
1
62
7
10
299.2131958
20
138.8656769
11
299.2131958
21
132.8656769
0
LINE
8
1
62
7
10
299.2131958
20
132.8656769
11
297.2131958
21
132.8656769
0
LINE
8
1
62
7
10
297.2131958
20
132.8656769
11
297.2131958
21
128.8656769
0
LINE
8
1
62
7
10
95.2132034
20
158.8656769
11
87.2132034
21
152.8656769
0
LINE
8
1
62
7
10
87.2132034
20
156.8656769
11
87.2132034
21
152.8656769
0
LINE
8
1
62
7
10
99.2132034
20
162.8656769
11
99.2132034
21
168.8656769
0
LINE
8
1
62
7
10
95.2132034
20
158.8656769
11
95.2132034
21
162.8656769
0
ENDSEC
0
EOF
