  0
SECTION
  2
HEADER
  9
$ACADVER
  1
AC1006
  9
$EXTMIN
 10
-1.228976
 20
1.591484
  9
$EXTMAX
 10
2.652646
 20
4.724016
  9
$LTSCALE
 40
0.000394
  9
$PDMODE
 70
    35
  9
$PDSIZE
 40
0.000315
  0
ENDSEC
  0
SECTION
  2
TABLES
  0
TABLE
  2
LTYPE
 70
     9
  0
LTYPE
  2
CONTINUOUS
 70
    64
  3
Solid line
 72
    65
 73
     0
 40
0.000000
  0
LTYPE
  2
DASHED
 70
    64
  3
__ __ __ __ __ __ __ __ __ __ __ __ __ __ __
 72
    65
 73
     2
 40
0.000003
 49
0.000002
 49
-0.000001
  0
LTYPE
  2
HIDDEN
 70
    64
  3
 _ _ _ _ _ _ _ _ _ _ _ _ _ _ _ _ _ _ _ _ _ _
 72
    65
 73
     2
 40
0.000001
 49
0.000001
 49
-0.000000
  0
LTYPE
  2
CENTER
 70
    64
  3
____ _ ____ _ ____ _ ____ _ ____ _ ____ _ ____
 72
    65
 73
     4
 40
0.000008
 49
0.000005
 49
-0.000001
 49
0.000001
 49
-0.000001
  0
LTYPE
  2
PHANTOM
 70
    64
  3
_____ _ _ _____ _ _ _____ _ _ _____ _ _ ____
 72
    65
 73
     6
 40
0.000010
 49
0.000005
 49
-0.000001
 49
0.000001
 49
-0.000001
 49
0.000001
 49
-0.000001
  0
LTYPE
  2
DOT
 70
    64
  3
...............................................
 72
    65
 73
     2
 40
0.000001
 49
0.000000
 49
-0.000001
  0
LTYPE
  2
DASHDOT
 70
    64
  3
__ . __ . __ . __ . __ . __ . __ . __ . __ . __
 72
    65
 73
     4
 40
0.000004
 49
0.000002
 49
-0.000001
 49
0.000000
 49
-0.000001
  0
LTYPE
  2
BORDER
 70
    64
  3
__ __ . __ __ . __ __ . __ __ . __ __ . __ __
 72
    65
 73
     6
 40
0.000007
 49
0.000002
 49
-0.000001
 49
0.000002
 49
-0.000001
 49
0.000000
 49
-0.000001
  0
LTYPE
  2
DIVIDE
 70
    64
  3
__ . . __ . . __ . . __ . . __ . . __ . . __
 72
    65
 73
     6
 40
0.000005
 49
0.000002
 49
-0.000001
 49
0.000000
 49
-0.000001
 49
0.000000
 49
-0.000001
  0
LTYPE
  2
DOTDOT
 70
    64
  3
 . .  . .  . .  . .  . .  . . 
 72
    65
 73
     5
 40
0.000002
 49
-0.000001
 49
0.000000
 49
-0.000001
 49
0.000000
 49
-0.000001
  0
ENDTAB
  0
TABLE
  2
STYLE
 70
     0
  0
ENDTAB
  0
TABLE
  2
LAYER
 70
     3
  0
LAYER
  2
FOREGROUND
 70
    64
 62
     7
  6
CONTINUOUS
  0
LAYER
  2
BACKGROUND
 70
    65
 62
    -7
  6
CONTINUOUS
  0
LAYER
  2
PLAN_1
 70
    64
 62
     7
  6
CONTINUOUS
  0
ENDTAB
  0
ENDSEC
  0
SECTION
  2
ENTITIES
  0
POLYLINE
  8
PLAN_1
 62
    39
  6
CONTINUOUS
 66
     1
 40
0.003000
 41
0.003000
 70
     1
  0
VERTEX
  8
PLAN_1
 62
    39
  6
CONTINUOUS
 10
-1.040079
 20
3.635591
  0
VERTEX
  8
PLAN_1
 62
    39
  6
CONTINUOUS
 10
-1.030709
 20
4.019764
  0
VERTEX
  8
PLAN_1
 62
    39
  6
CONTINUOUS
 10
-0.955748
 20
4.272756
  0
VERTEX
  8
PLAN_1
 62
    39
  6
CONTINUOUS
 10
-0.796457
 20
4.478898
  0
VERTEX
  8
PLAN_1
 62
    39
  6
CONTINUOUS
 10
-0.637165
 20
4.628819
  0
VERTEX
  8
PLAN_1
 62
    39
  6
CONTINUOUS
 10
-0.421654
 20
4.722520
  0
VERTEX
  8
PLAN_1
 62
    39
  6
CONTINUOUS
 10
-0.178031
 20
4.703780
  0
VERTEX
  8
PLAN_1
 62
    39
  6
CONTINUOUS
 10
-0.037480
 20
4.610079
  0
VERTEX
  8
PLAN_1
 62
    39
  6
CONTINUOUS
 10
0.084331
 20
4.516378
  0
VERTEX
  8
PLAN_1
 62
    39
  6
CONTINUOUS
 10
0.206142
 20
4.366457
  0
VERTEX
  8
PLAN_1
 62
    39
  6
CONTINUOUS
 10
0.281102
 20
4.188425
  0
VERTEX
  8
PLAN_1
 62
    39
  6
CONTINUOUS
 10
0.299843
 20
4.029134
  0
VERTEX
  8
PLAN_1
 62
    39
  6
CONTINUOUS
 10
0.327953
 20
3.804252
  0
VERTEX
  8
PLAN_1
 62
    39
  6
CONTINUOUS
 10
0.252992
 20
3.663701
  0
VERTEX
  8
PLAN_1
 62
    39
  6
CONTINUOUS
 10
0.281102
 20
3.616850
  0
VERTEX
  8
PLAN_1
 62
    39
  6
CONTINUOUS
 10
0.374803
 20
3.560630
  0
VERTEX
  8
PLAN_1
 62
    39
  6
CONTINUOUS
 10
0.402913
 20
3.420079
  0
VERTEX
  8
PLAN_1
 62
    39
  6
CONTINUOUS
 10
0.402913
 20
3.251417
  0
VERTEX
  8
PLAN_1
 62
    39
  6
CONTINUOUS
 10
0.449764
 20
3.138976
  0
VERTEX
  8
PLAN_1
 62
    39
  6
CONTINUOUS
 10
0.543465
 20
3.017165
  0
VERTEX
  8
PLAN_1
 62
    39
  6
CONTINUOUS
 10
0.655906
 20
2.951575
  0
VERTEX
  8
PLAN_1
 62
    39
  6
CONTINUOUS
 10
0.824567
 20
2.923465
  0
VERTEX
  8
PLAN_1
 62
    39
  6
CONTINUOUS
 10
0.787087
 20
2.839134
  0
VERTEX
  8
PLAN_1
 62
    39
  6
CONTINUOUS
 10
0.712126
 20
2.736063
  0
VERTEX
  8
PLAN_1
 62
    39
  6
CONTINUOUS
 10
0.805827
 20
2.773543
  0
VERTEX
  8
PLAN_1
 62
    39
  6
CONTINUOUS
 10
0.758976
 20
2.670472
  0
VERTEX
  8
PLAN_1
 62
    39
  6
CONTINUOUS
 10
0.655906
 20
2.595512
  0
VERTEX
  8
PLAN_1
 62
    39
  6
CONTINUOUS
 10
0.712126
 20
2.586142
  0
VERTEX
  8
PLAN_1
 62
    39
  6
CONTINUOUS
 10
0.599685
 20
2.473701
  0
VERTEX
  8
PLAN_1
 62
    39
  6
CONTINUOUS
 10
0.655906
 20
2.417480
  0
VERTEX
  8
PLAN_1
 62
    39
  6
CONTINUOUS
 10
0.552835
 20
2.333150
  0
VERTEX
  8
PLAN_1
 62
    39
  6
CONTINUOUS
 10
0.384173
 20
2.295669
  0
VERTEX
  8
PLAN_1
 62
    39
  6
CONTINUOUS
 10
0.337323
 20
2.295669
  0
VERTEX
  8
PLAN_1
 62
    39
  6
CONTINUOUS
 10
0.299843
 20
2.183228
  0
VERTEX
  8
PLAN_1
 62
    39
  6
CONTINUOUS
 10
0.149921
 20
2.005197
  0
VERTEX
  8
PLAN_1
 62
    39
  6
CONTINUOUS
 10
0.224882
 20
1.649134
  0
VERTEX
  8
PLAN_1
 62
    39
  6
CONTINUOUS
 10
0.037480
 20
1.667874
  0
VERTEX
  8
PLAN_1
 62
    39
  6
CONTINUOUS
 10
-0.056220
 20
1.677244
  0
VERTEX
  8
PLAN_1
 62
    39
  6
CONTINUOUS
 10
-0.356063
 20
1.686614
  0
VERTEX
  8
PLAN_1
 62
    39
  6
CONTINUOUS
 10
-0.459134
 20
1.658504
  0
VERTEX
  8
PLAN_1
 62
    39
  6
CONTINUOUS
 10
-0.440394
 20
1.967717
  0
VERTEX
  8
PLAN_1
 62
    39
  6
CONTINUOUS
 10
-0.609055
 20
2.023937
  0
VERTEX
  8
PLAN_1
 62
    39
  6
CONTINUOUS
 10
-0.730866
 20
2.108268
  0
VERTEX
  8
PLAN_1
 62
    39
  6
CONTINUOUS
 10
-0.758976
 20
2.033307
  0
VERTEX
  8
PLAN_1
 62
    39
  6
CONTINUOUS
 10
-0.871417
 20
2.164488
  0
VERTEX
  8
PLAN_1
 62
    39
  6
CONTINUOUS
 10
-0.908898
 20
2.248819
  0
VERTEX
  8
PLAN_1
 62
    39
  6
CONTINUOUS
 10
-0.927638
 20
2.192598
  0
VERTEX
  8
PLAN_1
 62
    39
  6
CONTINUOUS
 10
-1.002598
 20
2.361260
  0
VERTEX
  8
PLAN_1
 62
    39
  6
CONTINUOUS
 10
-1.040079
 20
2.483071
  0
VERTEX
  8
PLAN_1
 62
    39
  6
CONTINUOUS
 10
-1.058819
 20
2.361260
  0
VERTEX
  8
PLAN_1
 62
    39
  6
CONTINUOUS
 10
-1.152520
 20
2.567402
  0
VERTEX
  8
PLAN_1
 62
    39
  6
CONTINUOUS
 10
-1.208740
 20
2.801654
  0
VERTEX
  8
PLAN_1
 62
    39
  6
CONTINUOUS
 10
-1.227480
 20
3.092126
  0
VERTEX
  8
PLAN_1
 62
    39
  6
CONTINUOUS
 10
-1.199370
 20
3.354488
  0
VERTEX
  8
PLAN_1
 62
    39
  6
CONTINUOUS
 10
-1.124409
 20
3.513780
  0
SEQEND
  8
0
  0
POLYLINE
  8
PLAN_1
 62
    39
  6
CONTINUOUS
 66
     1
 40
0.003000
 41
0.003000
 70
     1
  0
VERTEX
  8
PLAN_1
 62
    39
  6
CONTINUOUS
 10
2.417480
 20
3.991654
  0
VERTEX
  8
PLAN_1
 62
    39
  6
CONTINUOUS
 10
2.389370
 20
3.813622
  0
VERTEX
  8
PLAN_1
 62
    39
  6
CONTINUOUS
 10
2.389370
 20
3.710551
  0
VERTEX
  8
PLAN_1
 62
    39
  6
CONTINUOUS
 10
2.558031
 20
3.513780
  0
VERTEX
  8
PLAN_1
 62
    39
  6
CONTINUOUS
 10
2.370630
 20
3.560630
  0
VERTEX
  8
PLAN_1
 62
    39
  6
CONTINUOUS
 10
2.501811
 20
3.363858
  0
VERTEX
  8
PLAN_1
 62
    39
  6
CONTINUOUS
 10
2.398740
 20
3.391969
  0
VERTEX
  8
PLAN_1
 62
    39
  6
CONTINUOUS
 10
2.473701
 20
3.298268
  0
VERTEX
  8
PLAN_1
 62
    39
  6
CONTINUOUS
 10
2.408110
 20
3.270157
  0
VERTEX
  8
PLAN_1
 62
    39
  6
CONTINUOUS
 10
2.651732
 20
3.082756
  0
VERTEX
  8
PLAN_1
 62
    39
  6
CONTINUOUS
 10
2.492441
 20
3.082756
  0
VERTEX
  8
PLAN_1
 62
    39
  6
CONTINUOUS
 10
2.567402
 20
2.942205
  0
VERTEX
  8
PLAN_1
 62
    39
  6
CONTINUOUS
 10
2.567402
 20
2.867244
  0
VERTEX
  8
PLAN_1
 62
    39
  6
CONTINUOUS
 10
2.436220
 20
2.867244
  0
VERTEX
  8
PLAN_1
 62
    39
  6
CONTINUOUS
 10
2.520551
 20
2.782913
  0
VERTEX
  8
PLAN_1
 62
    39
  6
CONTINUOUS
 10
2.436220
 20
2.745433
  0
VERTEX
  8
PLAN_1
 62
    39
  6
CONTINUOUS
 10
2.305039
 20
2.764173
  0
VERTEX
  8
PLAN_1
 62
    39
  6
CONTINUOUS
 10
2.398740
 20
2.651732
  0
VERTEX
  8
PLAN_1
 62
    39
  6
CONTINUOUS
 10
2.305039
 20
2.595512
  0
VERTEX
  8
PLAN_1
 62
    39
  6
CONTINUOUS
 10
2.211339
 20
2.651732
  0
VERTEX
  8
PLAN_1
 62
    39
  6
CONTINUOUS
 10
2.145748
 20
2.698583
  0
VERTEX
  8
PLAN_1
 62
    39
  6
CONTINUOUS
 10
2.192598
 20
2.595512
  0
VERTEX
  8
PLAN_1
 62
    39
  6
CONTINUOUS
 10
2.052047
 20
2.632992
  0
VERTEX
  8
PLAN_1
 62
    39
  6
CONTINUOUS
 10
1.920866
 20
2.689213
  0
VERTEX
  8
PLAN_1
 62
    39
  6
CONTINUOUS
 10
1.977087
 20
2.604882
  0
VERTEX
  8
PLAN_1
 62
    39
  6
CONTINUOUS
 10
1.808425
 20
2.642362
  0
VERTEX
  8
PLAN_1
 62
    39
  6
CONTINUOUS
 10
1.630394
 20
2.754803
  0
VERTEX
  8
PLAN_1
 62
    39
  6
CONTINUOUS
 10
1.611654
 20
2.689213
  0
VERTEX
  8
PLAN_1
 62
    39
  6
CONTINUOUS
 10
1.517953
 20
2.792283
  0
VERTEX
  8
PLAN_1
 62
    39
  6
CONTINUOUS
 10
1.442992
 20
2.904724
  0
VERTEX
  8
PLAN_1
 62
    39
  6
CONTINUOUS
 10
1.424252
 20
2.848504
  0
VERTEX
  8
PLAN_1
 62
    39
  6
CONTINUOUS
 10
1.358661
 20
3.054646
  0
VERTEX
  8
PLAN_1
 62
    39
  6
CONTINUOUS
 10
1.293071
 20
3.260787
  0
VERTEX
  8
PLAN_1
 62
    39
  6
CONTINUOUS
 10
1.255591
 20
3.513780
  0
VERTEX
  8
PLAN_1
 62
    39
  6
CONTINUOUS
 10
1.283701
 20
3.757402
  0
VERTEX
  8
PLAN_1
 62
    39
  6
CONTINUOUS
 10
1.349291
 20
3.991654
  0
VERTEX
  8
PLAN_1
 62
    39
  6
CONTINUOUS
 10
1.424252
 20
4.197795
  0
VERTEX
  8
PLAN_1
 62
    39
  6
CONTINUOUS
 10
1.433622
 20
4.113465
  0
VERTEX
  8
PLAN_1
 62
    39
  6
CONTINUOUS
 10
1.480472
 20
4.197795
  0
VERTEX
  8
PLAN_1
 62
    39
  6
CONTINUOUS
 10
1.480472
 20
4.057244
  0
VERTEX
  8
PLAN_1
 62
    39
  6
CONTINUOUS
 10
1.546063
 20
4.122835
  0
VERTEX
  8
PLAN_1
 62
    39
  6
CONTINUOUS
 10
1.583543
 20
3.935433
  0
VERTEX
  8
PLAN_1
 62
    39
  6
CONTINUOUS
 10
1.658504
 20
4.029134
  0
VERTEX
  8
PLAN_1
 62
    39
  6
CONTINUOUS
 10
1.705354
 20
3.907323
  0
VERTEX
  8
PLAN_1
 62
    39
  6
CONTINUOUS
 10
1.752205
 20
3.954173
  0
VERTEX
  8
PLAN_1
 62
    39
  6
CONTINUOUS
 10
1.799055
 20
3.926063
  0
VERTEX
  8
PLAN_1
 62
    39
  6
CONTINUOUS
 10
1.883386
 20
3.879213
  0
VERTEX
  8
PLAN_1
 62
    39
  6
CONTINUOUS
 10
1.948976
 20
3.832362
  0
VERTEX
  8
PLAN_1
 62
    39
  6
CONTINUOUS
 10
2.023937
 20
3.869843
  0
VERTEX
  8
PLAN_1
 62
    39
  6
CONTINUOUS
 10
2.080157
 20
3.944803
  0
VERTEX
  8
PLAN_1
 62
    39
  6
CONTINUOUS
 10
2.098898
 20
3.897953
  0
VERTEX
  8
PLAN_1
 62
    39
  6
CONTINUOUS
 10
2.155118
 20
3.935433
  0
VERTEX
  8
PLAN_1
 62
    39
  6
CONTINUOUS
 10
2.220709
 20
3.916693
  0
VERTEX
  8
PLAN_1
 62
    39
  6
CONTINUOUS
 10
2.314409
 20
3.935433
  0
SEQEND
  8
0
  0
POLYLINE
  8
PLAN_1
 62
    39
  6
CONTINUOUS
 66
     1
 40
0.003000
 41
0.003000
 70
     1
  0
VERTEX
  8
PLAN_1
 62
    39
  6
CONTINUOUS
 10
1.542657
 20
1.986420
  0
VERTEX
  8
PLAN_1
 62
    39
  6
CONTINUOUS
 10
1.541794
 20
1.961060
  0
VERTEX
  8
PLAN_1
 62
    39
  6
CONTINUOUS
 10
1.539322
 20
1.937449
  0
VERTEX
  8
PLAN_1
 62
    39
  6
CONTINUOUS
 10
1.535357
 20
1.915587
  0
VERTEX
  8
PLAN_1
 62
    39
  6
CONTINUOUS
 10
1.530014
 20
1.895475
  0
VERTEX
  8
PLAN_1
 62
    39
  6
CONTINUOUS
 10
1.523407
 20
1.877112
  0
VERTEX
  8
PLAN_1
 62
    39
  6
CONTINUOUS
 10
1.515652
 20
1.860498
  0
VERTEX
  8
PLAN_1
 62
    39
  6
CONTINUOUS
 10
1.506863
 20
1.845633
  0
VERTEX
  8
PLAN_1
 62
    39
  6
CONTINUOUS
 10
1.497155
 20
1.832518
  0
VERTEX
  8
PLAN_1
 62
    39
  6
CONTINUOUS
 10
1.486644
 20
1.821152
  0
VERTEX
  8
PLAN_1
 62
    39
  6
CONTINUOUS
 10
1.475444
 20
1.811534
  0
VERTEX
  8
PLAN_1
 62
    39
  6
CONTINUOUS
 10
1.463670
 20
1.803666
  0
VERTEX
  8
PLAN_1
 62
    39
  6
CONTINUOUS
 10
1.451436
 20
1.797548
  0
VERTEX
  8
PLAN_1
 62
    39
  6
CONTINUOUS
 10
1.438858
 20
1.793178
  0
VERTEX
  8
PLAN_1
 62
    39
  6
CONTINUOUS
 10
1.426051
 20
1.790557
  0
VERTEX
  8
PLAN_1
 62
    39
  6
CONTINUOUS
 10
1.413130
 20
1.789685
  0
VERTEX
  8
PLAN_1
 62
    39
  6
CONTINUOUS
 10
1.400209
 20
1.790562
  0
VERTEX
  8
PLAN_1
 62
    39
  6
CONTINUOUS
 10
1.387403
 20
1.793189
  0
VERTEX
  8
PLAN_1
 62
    39
  6
CONTINUOUS
 10
1.374828
 20
1.797564
  0
VERTEX
  8
PLAN_1
 62
    39
  6
CONTINUOUS
 10
1.362598
 20
1.803688
  0
VERTEX
  8
PLAN_1
 62
    39
  6
CONTINUOUS
 10
1.350828
 20
1.811561
  0
VERTEX
  8
PLAN_1
 62
    39
  6
CONTINUOUS
 10
1.339632
 20
1.821183
  0
VERTEX
  8
PLAN_1
 62
    39
  6
CONTINUOUS
 10
1.329127
 20
1.832553
  0
VERTEX
  8
PLAN_1
 62
    39
  6
CONTINUOUS
 10
1.319426
 20
1.845673
  0
VERTEX
  8
PLAN_1
 62
    39
  6
CONTINUOUS
 10
1.310645
 20
1.860541
  0
VERTEX
  8
PLAN_1
 62
    39
  6
CONTINUOUS
 10
1.302898
 20
1.877158
  0
VERTEX
  8
PLAN_1
 62
    39
  6
CONTINUOUS
 10
1.296301
 20
1.895524
  0
VERTEX
  8
PLAN_1
 62
    39
  6
CONTINUOUS
 10
1.290968
 20
1.915639
  0
VERTEX
  8
PLAN_1
 62
    39
  6
CONTINUOUS
 10
1.287015
 20
1.937502
  0
VERTEX
  8
PLAN_1
 62
    39
  6
CONTINUOUS
 10
1.284555
 20
1.961114
  0
VERTEX
  8
PLAN_1
 62
    39
  6
CONTINUOUS
 10
1.283705
 20
1.986475
  0
VERTEX
  8
PLAN_1
 62
    39
  6
CONTINUOUS
 10
1.284567
 20
2.011835
  0
VERTEX
  8
PLAN_1
 62
    39
  6
CONTINUOUS
 10
1.287037
 20
2.035447
  0
VERTEX
  8
PLAN_1
 62
    39
  6
CONTINUOUS
 10
1.291001
 20
2.057309
  0
VERTEX
  8
PLAN_1
 62
    39
  6
CONTINUOUS
 10
1.296343
 20
2.077422
  0
VERTEX
  8
PLAN_1
 62
    39
  6
CONTINUOUS
 10
1.302949
 20
2.095786
  0
VERTEX
  8
PLAN_1
 62
    39
  6
CONTINUOUS
 10
1.310703
 20
2.112401
  0
VERTEX
  8
PLAN_1
 62
    39
  6
CONTINUOUS
 10
1.319491
 20
2.127267
  0
VERTEX
  8
PLAN_1
 62
    39
  6
CONTINUOUS
 10
1.329197
 20
2.140384
  0
VERTEX
  8
PLAN_1
 62
    39
  6
CONTINUOUS
 10
1.339708
 20
2.151751
  0
VERTEX
  8
PLAN_1
 62
    39
  6
CONTINUOUS
 10
1.350908
 20
2.161370
  0
VERTEX
  8
PLAN_1
 62
    39
  6
CONTINUOUS
 10
1.362681
 20
2.169240
  0
VERTEX
  8
PLAN_1
 62
    39
  6
CONTINUOUS
 10
1.374915
 20
2.175360
  0
VERTEX
  8
PLAN_1
 62
    39
  6
CONTINUOUS
 10
1.387492
 20
2.179732
  0
VERTEX
  8
PLAN_1
 62
    39
  6
CONTINUOUS
 10
1.400299
 20
2.182355
  0
VERTEX
  8
PLAN_1
 62
    39
  6
CONTINUOUS
 10
1.413220
 20
2.183228
  0
VERTEX
  8
PLAN_1
 62
    39
  6
CONTINUOUS
 10
1.426141
 20
2.182353
  0
VERTEX
  8
PLAN_1
 62
    39
  6
CONTINUOUS
 10
1.438947
 20
2.179728
  0
VERTEX
  8
PLAN_1
 62
    39
  6
CONTINUOUS
 10
1.451523
 20
2.175355
  0
VERTEX
  8
PLAN_1
 62
    39
  6
CONTINUOUS
 10
1.463753
 20
2.169233
  0
VERTEX
  8
PLAN_1
 62
    39
  6
CONTINUOUS
 10
1.475524
 20
2.161361
  0
VERTEX
  8
PLAN_1
 62
    39
  6
CONTINUOUS
 10
1.486720
 20
2.151741
  0
VERTEX
  8
PLAN_1
 62
    39
  6
CONTINUOUS
 10
1.497226
 20
2.140372
  0
VERTEX
  8
PLAN_1
 62
    39
  6
CONTINUOUS
 10
1.506927
 20
2.127254
  0
VERTEX
  8
PLAN_1
 62
    39
  6
CONTINUOUS
 10
1.515710
 20
2.112387
  0
VERTEX
  8
PLAN_1
 62
    39
  6
CONTINUOUS
 10
1.523457
 20
2.095771
  0
VERTEX
  8
PLAN_1
 62
    39
  6
CONTINUOUS
 10
1.530055
 20
2.077406
  0
VERTEX
  8
PLAN_1
 62
    39
  6
CONTINUOUS
 10
1.535389
 20
2.057292
  0
VERTEX
  8
PLAN_1
 62
    39
  6
CONTINUOUS
 10
1.539344
 20
2.035429
  0
VERTEX
  8
PLAN_1
 62
    39
  6
CONTINUOUS
 10
1.541805
 20
2.011817
  0
VERTEX
  8
PLAN_1
 62
    39
  6
CONTINUOUS
 10
1.542657
 20
1.986457
  0
SEQEND
  8
0
  0
POLYLINE
  8
PLAN_1
 62
    39
  6
CONTINUOUS
 66
     1
 40
0.003000
 41
0.003000
 70
     1
  0
VERTEX
  8
PLAN_1
 62
    39
  6
CONTINUOUS
 10
1.770945
 20
2.089502
  0
VERTEX
  8
PLAN_1
 62
    39
  6
CONTINUOUS
 10
1.769753
 20
2.064006
  0
VERTEX
  8
PLAN_1
 62
    39
  6
CONTINUOUS
 10
1.766374
 20
2.041061
  0
VERTEX
  8
PLAN_1
 62
    39
  6
CONTINUOUS
 10
1.761039
 20
2.020666
  0
VERTEX
  8
PLAN_1
 62
    39
  6
CONTINUOUS
 10
1.753976
 20
2.002820
  0
VERTEX
  8
PLAN_1
 62
    39
  6
CONTINUOUS
 10
1.745418
 20
1.987525
  0
VERTEX
  8
PLAN_1
 62
    39
  6
CONTINUOUS
 10
1.735593
 20
1.974779
  0
VERTEX
  8
PLAN_1
 62
    39
  6
CONTINUOUS
 10
1.724733
 20
1.964583
  0
VERTEX
  8
PLAN_1
 62
    39
  6
CONTINUOUS
 10
1.713068
 20
1.956937
  0
VERTEX
  8
PLAN_1
 62
    39
  6
CONTINUOUS
 10
1.700827
 20
1.951841
  0
VERTEX
  8
PLAN_1
 62
    39
  6
CONTINUOUS
 10
1.688242
 20
1.949294
  0
VERTEX
  8
PLAN_1
 62
    39
  6
CONTINUOUS
 10
1.675542
 20
1.949297
  0
VERTEX
  8
PLAN_1
 62
    39
  6
CONTINUOUS
 10
1.662958
 20
1.951849
  0
VERTEX
  8
PLAN_1
 62
    39
  6
CONTINUOUS
 10
1.650720
 20
1.956951
  0
VERTEX
  8
PLAN_1
 62
    39
  6
CONTINUOUS
 10
1.639059
 20
1.964602
  0
VERTEX
  8
PLAN_1
 62
    39
  6
CONTINUOUS
 10
1.628204
 20
1.974803
  0
VERTEX
  8
PLAN_1
 62
    39
  6
CONTINUOUS
 10
1.618386
 20
1.987552
  0
VERTEX
  8
PLAN_1
 62
    39
  6
CONTINUOUS
 10
1.609836
 20
2.002852
  0
VERTEX
  8
PLAN_1
 62
    39
  6
CONTINUOUS
 10
1.602783
 20
2.020700
  0
VERTEX
  8
PLAN_1
 62
    39
  6
CONTINUOUS
 10
1.597458
 20
2.041098
  0
VERTEX
  8
PLAN_1
 62
    39
  6
CONTINUOUS
 10
1.594092
 20
2.064045
  0
VERTEX
  8
PLAN_1
 62
    39
  6
CONTINUOUS
 10
1.592913
 20
2.089541
  0
VERTEX
  8
PLAN_1
 62
    39
  6
CONTINUOUS
 10
1.594104
 20
2.115036
  0
VERTEX
  8
PLAN_1
 62
    39
  6
CONTINUOUS
 10
1.597481
 20
2.137982
  0
VERTEX
  8
PLAN_1
 62
    39
  6
CONTINUOUS
 10
1.602816
 20
2.158378
  0
VERTEX
  8
PLAN_1
 62
    39
  6
CONTINUOUS
 10
1.609877
 20
2.176224
  0
VERTEX
  8
PLAN_1
 62
    39
  6
CONTINUOUS
 10
1.618435
 20
2.191521
  0
VERTEX
  8
PLAN_1
 62
    39
  6
CONTINUOUS
 10
1.628258
 20
2.204268
  0
VERTEX
  8
PLAN_1
 62
    39
  6
CONTINUOUS
 10
1.639118
 20
2.214466
  0
VERTEX
  8
PLAN_1
 62
    39
  6
CONTINUOUS
 10
1.650783
 20
2.222114
  0
VERTEX
  8
PLAN_1
 62
    39
  6
CONTINUOUS
 10
1.663023
 20
2.227212
  0
VERTEX
  8
PLAN_1
 62
    39
  6
CONTINUOUS
 10
1.675608
 20
2.229760
  0
VERTEX
  8
PLAN_1
 62
    39
  6
CONTINUOUS
 10
1.688308
 20
2.229760
  0
VERTEX
  8
PLAN_1
 62
    39
  6
CONTINUOUS
 10
1.700892
 20
2.227209
  0
VERTEX
  8
PLAN_1
 62
    39
  6
CONTINUOUS
 10
1.713130
 20
2.222109
  0
VERTEX
  8
PLAN_1
 62
    39
  6
CONTINUOUS
 10
1.724792
 20
2.214459
  0
VERTEX
  8
PLAN_1
 62
    39
  6
CONTINUOUS
 10
1.735647
 20
2.204260
  0
VERTEX
  8
PLAN_1
 62
    39
  6
CONTINUOUS
 10
1.745466
 20
2.191512
  0
VERTEX
  8
PLAN_1
 62
    39
  6
CONTINUOUS
 10
1.754017
 20
2.176214
  0
VERTEX
  8
PLAN_1
 62
    39
  6
CONTINUOUS
 10
1.761071
 20
2.158366
  0
VERTEX
  8
PLAN_1
 62
    39
  6
CONTINUOUS
 10
1.766397
 20
2.137970
  0
VERTEX
  8
PLAN_1
 62
    39
  6
CONTINUOUS
 10
1.769765
 20
2.115023
  0
VERTEX
  8
PLAN_1
 62
    39
  6
CONTINUOUS
 10
1.770945
 20
2.089528
  0
SEQEND
  8
0
  0
POLYLINE
  8
PLAN_1
 62
    39
  6
CONTINUOUS
 66
     1
 40
0.003000
 41
0.003000
 70
     1
  0
VERTEX
  8
PLAN_1
 62
    39
  6
CONTINUOUS
 10
1.621024
 20
1.592913
  0
VERTEX
  8
PLAN_1
 62
    39
  6
CONTINUOUS
 10
1.499213
 20
1.630394
  0
VERTEX
  8
PLAN_1
 62
    39
  6
CONTINUOUS
 10
1.461732
 20
1.724094
  0
VERTEX
  8
PLAN_1
 62
    39
  6
CONTINUOUS
 10
1.508583
 20
1.817795
  0
VERTEX
  8
PLAN_1
 62
    39
  6
CONTINUOUS
 10
1.658504
 20
1.892756
  0
VERTEX
  8
PLAN_1
 62
    39
  6
CONTINUOUS
 10
1.780315
 20
1.920866
  0
VERTEX
  8
PLAN_1
 62
    39
  6
CONTINUOUS
 10
1.892756
 20
1.920866
  0
VERTEX
  8
PLAN_1
 62
    39
  6
CONTINUOUS
 10
1.986457
 20
1.883386
  0
VERTEX
  8
PLAN_1
 62
    39
  6
CONTINUOUS
 10
2.089528
 20
1.827165
  0
VERTEX
  8
PLAN_1
 62
    39
  6
CONTINUOUS
 10
2.089528
 20
1.780315
  0
VERTEX
  8
PLAN_1
 62
    39
  6
CONTINUOUS
 10
1.902126
 20
1.733465
  0
VERTEX
  8
PLAN_1
 62
    39
  6
CONTINUOUS
 10
1.761575
 20
1.667874
  0
SEQEND
  8
0
  0
ENDSEC
  0
EOF
