  0
SECTION
  2
HEADER
  9
$ACADVER
  1
AC1003
  9
$INSBASE
 10
0.0
 20
0.0
  9
$EXTMIN
 10
-150
 20
-150
  9
$EXTMAX
 10
150
 20
150
  9
$LIMMIN
 10
0.0
 20
0.0
  9
$LIMMAX
 10
300.0
 20
225.0
  9
$VIEWCTR
 10
7.378144
 20
4.5
  9
$VIEWSIZE
 40
9.0
  9
$SNAPMODE
 70
     0
  9
$SNAPUNIT
 10
1.0
 20
1.0
  9
$SNAPBASE
 10
0.0
 20
0.0
  9
$SNAPANG
 50
0.0
  9
$SNAPSTYLE
 70
     0
  9
$SNAPISOPAIR
 70
     0
  9
$GRIDMODE
 70
     0
  9
$GRIDUNIT
 10
0.0
 20
0.0
  9
$ORTHOMODE
 70
     0
  9
$REGENMODE
 70
     1
  9
$FILLMODE
 70
     1
  9
$QTEXTMODE
 70
     0
  9
$DRAGMODE
 70
     2
  9
$LTSCALE
 40
1.0
  9
$OSMODE
 70
     0
  9
$ATTMODE
 70
     1
  9
$TEXTSIZE
 40
0.2
  9
$TRACEWID
 40
0.05
  9
$TEXTSTYLE
  7
STANDARD
  9
$CLAYER
  8
0
  9
$CELTYPE
  6
BYLAYER
  9
$CECOLOR
 62
   256
  9
$DIMSCALE
 40
1.0
  9
$DIMASZ
 40
0.18
  9
$DIMEXO
 40
0.0625
  9
$DIMDLI
 40
0.38
  9
$DIMRND
 40
0.0
  9
$DIMDLE
 40
0.0
  9
$DIMEXE
 40
0.18
  9
$DIMTP
 40
0.0
  9
$DIMTM
 40
0.0
  9
$DIMTXT
 40
0.18
  9
$DIMCEN
 40
0.09
  9
$DIMTSZ
 40
0.0
  9
$DIMTOL
 70
     0
  9
$DIMLIM
 70
     0
  9
$DIMTIH
 70
     1
  9
$DIMTOH
 70
     1
  9
$DIMSE1
 70
     0
  9
$DIMSE2
 70
     0
  9
$DIMTAD
 70
     0
  9
$DIMZIN
 70
     0
  9
$DIMBLK
  1

  9
$DIMASO
 70
     1
  9
$DIMSHO
 70
     0
  9
$DIMPOST
  1

  9
$DIMAPOST
  1

  9
$DIMALT
 70
     0
  9
$DIMALTD
 70
     2
  9
$DIMALTF
 40
25.4
  9
$DIMLFAC
 40
1.0
  9
$LUNITS
 70
     2
  9
$LUPREC
 70
     4
  9
$AXISMODE
 70
     0
  9
$AXISUNIT
 10
0.0
 20
0.0
  9
$SKETCHINC
 40
0.1
  9
$FILLETRAD
 40
0.0
  9
$AUNITS
 70
     0
  9
$AUPREC
 70
     0
  9
$MENU
  1
ACAD
  9
$ELEVATION
 40
0.0
  9
$THICKNESS
 40
0.0
  9
$VIEWDIR
 10
0.0
 20
0.0
 30
1.0
  9
$LIMCHECK
 70
     0
  9
$BLIPMODE
 70
     1
  9
$CHAMFERA
 40
0.0
  9
$CHAMFERB
 40
0.0
  9
$FASTZOOM
 70
     1
  9
$SKPOLY
 70
     0
  9
$TDCREATE
 40
2447732.6512363921
  9
$TDUPDATE
 40
2447732.6512363921
  9
$TDINDWG
 40
0.0000000000
  9
$TDUSRTIMER
 40
0.0000000000
  9
$USRTIMER
 70
     1
  9
$ANGBASE
 50
0.0
  9
$ANGDIR
 70
     0
  9
$PDMODE
 70
     0
  9
$PDSIZE
 40
0.0
  9
$PLINEWID
 40
0.0
  9
$COORDS
 70
     0
  9
$USERI1
 70
     0
  9
$USERI2
 70
     0
  9
$USERI3
 70
     0
  9
$USERI4
 70
     0
  9
$USERI5
 70
     0
  9
$USERR1
 40
0.0
  9
$USERR2
 40
0.0
  9
$USERR3
 40
0.0
  9
$USERR4
 40
0.0
  9
$USERR5
 40
0.0
  0
ENDSEC
  0
SECTION
  2
TABLES
  0
TABLE
  2
LTYPE
  70
     2
  0
LTYPE
  2
CONTINUOUS
 70
    64
  3
Solid line
 72
    65
 73
     0
 40
0.0
  0
ENDTAB
  0
TABLE
  2
LAYER
 70
     9
  0
LAYER
  2
0
 70
     0
 62
     7
  6
CONTINUOUS
  0
LAYER
  2
1
 70
     0
 62
     1
  6
CONTINUOUS
  0
LAYER
  2
2
 70
     0
 62
     2
  6
CONTINUOUS
  0
LAYER
  2
3
 70
     0
 62
     3
  6
CONTINUOUS
  0
LAYER
  2
4
 70
     0
 62
     4
  6
CONTINUOUS
  0
LAYER
  2
5
 70
     0
 62
     5
  6
CONTINUOUS
  0
LAYER
  2
6
 70
     0
 62
     6
  6
CONTINUOUS
  0
LAYER
  2
7
 70
     0
 62
     7
  6
CONTINUOUS
  0
LAYER
  2
8
 70
     0
 62
     7
  6
CONTINUOUS
  0
ENDTAB
  0
TABLE
  2
STYLE
 70
     5
  0
STYLE
  2
STANDARD
 70
     0
 40
0.0
 41
1.0
 50
0.0
 71
     0
 42
0.2
  3
TXT
  4

  0
STYLE
  2
GREEK
 70
     0
 40
0.0
 41
1.0
 50
0.0
 71
     0
 42
0.2
  3
GREEKC
  4

  0
STYLE
  2
ITALICC
 70
     0
 40
0.0
 41
1.0
 50
0.0
 71
     0
 42
0.2
  3
ITALICC
  4

  0
STYLE
  2
MONOTXT
 70
     0
 40
0.0
 41
1.0
 50
0.0
 71
     0
 42
0.2
  3
MONOTXT
  4

  0
STYLE
  2
GOTHICE
 70
     0
 40
0.0
 41
1.0
 50
0.0
 71
     0
 42
0.2
  3
GOTHICE
  4

  0
ENDTAB
  0
TABLE
  2
VIEW
 70
     0
  0
ENDTAB
  0
ENDSEC
  0
SECTION
  2
BLOCKS
  0
ENDSEC
  0
SECTION
  2
ENTITIES
  0
POLYLINE
  8
7
  6
CONTINUOUS
 66
  1
  0
VERTEX
  8
7
  10
43.400
  20
-79.304
  0
VERTEX
  8
7
  10
41.570
  20
-76.128
  0
VERTEX
  8
7
  10
50.032
  20
-68.962
  0
VERTEX
  8
7
  10
59.027
  20
-58.874
  0
VERTEX
  8
7
  10
64.846
  20
-50.667
  0
VERTEX
  8
7
  10
69.089
  20
-40.579
  0
VERTEX
  8
7
  10
72.266
  20
-31.559
  0
VERTEX
  8
7
  10
71.986
  20
-25.714
  0
VERTEX
  8
7
  10
71.478
  20
-23.072
  0
VERTEX
  8
7
  10
68.810
  20
-21.217
  0
VERTEX
  8
7
  10
71.732
  20
-18.574
  0
VERTEX
  8
7
  10
75.696
  20
-14.331
  0
VERTEX
  8
7
  10
75.696
  20
-11.409
  0
SEQEND
  0
POLYLINE
  8
7
  6
CONTINUOUS
 66
  1
  0
VERTEX
  8
7
  10
66.955
  20
-45.610
  0
VERTEX
  8
7
  10
63.550
  20
-50.108
  0
VERTEX
  8
7
  10
57.756
  20
-52.725
  0
VERTEX
  8
7
  10
57.680
  20
-52.751
  0
VERTEX
  8
7
  10
57.502
  20
-52.776
  0
VERTEX
  8
7
  10
57.197
  20
-52.801
  0
VERTEX
  8
7
  10
56.842
  20
-52.852
  0
VERTEX
  8
7
  10
56.384
  20
-52.929
  0
VERTEX
  8
7
  10
55.902
  20
-53.005
  0
VERTEX
  8
7
  10
55.368
  20
-53.056
  0
VERTEX
  8
7
  10
54.834
  20
-53.132
  0
VERTEX
  8
7
  10
54.275
  20
-53.208
  0
VERTEX
  8
7
  10
53.767
  20
-53.284
  0
VERTEX
  8
7
  10
53.259
  20
-53.335
  0
VERTEX
  8
7
  10
52.827
  20
-53.411
  0
VERTEX
  8
7
  10
52.471
  20
-53.462
  0
VERTEX
  8
7
  10
52.192
  20
-53.488
  0
VERTEX
  8
7
  10
51.988
  20
-53.513
  0
VERTEX
  8
7
  10
51.938
  20
-53.513
  0
VERTEX
  8
7
  10
51.887
  20
-53.513
  0
VERTEX
  8
7
  10
51.709
  20
-53.538
  0
VERTEX
  8
7
  10
51.455
  20
-53.538
  0
VERTEX
  8
7
  10
51.150
  20
-53.564
  0
VERTEX
  8
7
  10
50.743
  20
-53.589
  0
VERTEX
  8
7
  10
50.337
  20
-53.615
  0
VERTEX
  8
7
  10
49.879
  20
-53.640
  0
VERTEX
  8
7
  10
49.397
  20
-53.665
  0
VERTEX
  8
7
  10
48.939
  20
-53.691
  0
VERTEX
  8
7
  10
48.482
  20
-53.716
  0
VERTEX
  8
7
  10
48.050
  20
-53.742
  0
VERTEX
  8
7
  10
47.669
  20
-53.767
  0
VERTEX
  8
7
  10
47.364
  20
-53.767
  0
VERTEX
  8
7
  10
47.110
  20
-53.792
  0
VERTEX
  8
7
  10
46.957
  20
-53.792
  0
VERTEX
  8
7
  10
46.906
  20
-53.792
  0
VERTEX
  8
7
  10
46.779
  20
-53.843
  0
VERTEX
  8
7
  10
46.449
  20
-53.970
  0
VERTEX
  8
7
  10
45.941
  20
-54.199
  0
VERTEX
  8
7
  10
45.280
  20
-54.479
  0
VERTEX
  8
7
  10
44.492
  20
-54.783
  0
VERTEX
  8
7
  10
43.628
  20
-55.139
  0
VERTEX
  8
7
  10
42.688
  20
-55.520
  0
VERTEX
  8
7
  10
41.748
  20
-55.927
  0
VERTEX
  8
7
  10
40.783
  20
-56.308
  0
VERTEX
  8
7
  10
39.842
  20
-56.689
  0
VERTEX
  8
7
  10
38.978
  20
-57.045
  0
VERTEX
  8
7
  10
38.191
  20
-57.375
  0
VERTEX
  8
7
  10
37.530
  20
-57.655
  0
VERTEX
  8
7
  10
37.022
  20
-57.858
  0
VERTEX
  8
7
  10
36.717
  20
-57.985
  0
VERTEX
  8
7
  10
36.590
  20
-58.036
  0
VERTEX
  8
7
  10
38.953
  20
-61.492
  0
VERTEX
  8
7
  10
38.877
  20
-61.568
  0
VERTEX
  8
7
  10
38.724
  20
-61.746
  0
VERTEX
  8
7
  10
38.521
  20
-62.000
  0
VERTEX
  8
7
  10
38.267
  20
-62.305
  0
VERTEX
  8
7
  10
38.038
  20
-62.584
  0
VERTEX
  8
7
  10
37.835
  20
-62.838
  0
VERTEX
  8
7
  10
37.683
  20
-63.016
  0
VERTEX
  8
7
  10
37.632
  20
-63.067
  0
VERTEX
  8
7
  10
37.505
  20
-63.118
  0
VERTEX
  8
7
  10
37.174
  20
-63.194
  0
VERTEX
  8
7
  10
36.692
  20
-63.347
  0
VERTEX
  8
7
  10
36.158
  20
-63.474
  0
VERTEX
  8
7
  10
35.624
  20
-63.626
  0
VERTEX
  8
7
  10
35.167
  20
-63.753
  0
VERTEX
  8
7
  10
34.862
  20
-63.829
  0
VERTEX
  8
7
  10
34.735
  20
-63.855
  0
VERTEX
  8
7
  10
34.659
  20
-63.982
  0
VERTEX
  8
7
  10
34.506
  20
-64.338
  0
VERTEX
  8
7
  10
34.303
  20
-64.795
  0
VERTEX
  8
7
  10
34.049
  20
-65.329
  0
VERTEX
  8
7
  10
33.820
  20
-65.862
  0
VERTEX
  8
7
  10
33.617
  20
-66.345
  0
VERTEX
  8
7
  10
33.464
  20
-66.650
  0
VERTEX
  8
7
  10
33.414
  20
-66.777
  0
VERTEX
  8
7
  10
33.439
  20
-67.133
  0
VERTEX
  8
7
  10
33.541
  20
-67.844
  0
VERTEX
  8
7
  10
33.617
  20
-68.581
  0
VERTEX
  8
7
  10
33.668
  20
-68.911
  0
VERTEX
  8
7
  10
29.170
  20
-69.166
  0
VERTEX
  8
7
  10
29.069
  20
-69.115
  0
VERTEX
  8
7
  10
28.814
  20
-68.937
  0
VERTEX
  8
7
  10
28.484
  20
-68.683
  0
VERTEX
  8
7
  10
28.103
  20
-68.403
  0
VERTEX
  8
7
  10
27.722
  20
-68.098
  0
VERTEX
  8
7
  10
27.366
  20
-67.844
  0
VERTEX
  8
7
  10
27.137
  20
-67.666
  0
VERTEX
  8
7
  10
27.061
  20
-67.590
  0
VERTEX
  8
7
  10
26.934
  20
-67.488
  0
VERTEX
  8
7
  10
26.629
  20
-67.184
  0
VERTEX
  8
7
  10
26.197
  20
-66.752
  0
VERTEX
  8
7
  10
25.714
  20
-66.269
  0
VERTEX
  8
7
  10
25.232
  20
-65.786
  0
VERTEX
  8
7
  10
24.800
  20
-65.354
  0
VERTEX
  8
7
  10
24.495
  20
-65.049
  0
VERTEX
  8
7
  10
24.393
  20
-64.922
  0
VERTEX
  8
7
  10
24.291
  20
-64.922
  0
VERTEX
  8
7
  10
24.037
  20
-64.897
  0
VERTEX
  8
7
  10
23.656
  20
-64.846
  0
VERTEX
  8
7
  10
23.148
  20
-64.770
  0
VERTEX
  8
7
  10
22.538
  20
-64.693
  0
VERTEX
  8
7
  10
21.878
  20
-64.592
  0
VERTEX
  8
7
  10
21.141
  20
-64.515
  0
VERTEX
  8
7
  10
20.404
  20
-64.414
  0
VERTEX
  8
7
  10
19.667
  20
-64.312
  0
VERTEX
  8
7
  10
18.955
  20
-64.211
  0
VERTEX
  8
7
  10
18.295
  20
-64.109
  0
VERTEX
  8
7
  10
17.685
  20
-64.033
  0
VERTEX
  8
7
  10
17.177
  20
-63.956
  0
VERTEX
  8
7
  10
16.796
  20
-63.906
  0
VERTEX
  8
7
  10
16.541
  20
-63.880
  0
VERTEX
  8
7
  10
16.465
  20
-63.855
  0
VERTEX
  8
7
  10
16.491
  20
-63.779
  0
VERTEX
  8
7
  10
16.618
  20
-63.575
  0
VERTEX
  8
7
  10
16.796
  20
-63.296
  0
VERTEX
  8
7
  10
16.973
  20
-62.940
  0
VERTEX
  8
7
  10
17.177
  20
-62.610
  0
VERTEX
  8
7
  10
17.355
  20
-62.305
  0
VERTEX
  8
7
  10
17.482
  20
-62.076
  0
VERTEX
  8
7
  10
17.532
  20
-62.000
  0
VERTEX
  8
7
  10
17.634
  20
-62.000
  0
VERTEX
  8
7
  10
17.888
  20
-61.974
  0
VERTEX
  8
7
  10
18.269
  20
-61.949
  0
VERTEX
  8
7
  10
18.701
  20
-61.898
  0
VERTEX
  8
7
  10
19.133
  20
-61.847
  0
VERTEX
  8
7
  10
19.514
  20
-61.797
  0
VERTEX
  8
7
  10
19.794
  20
-61.771
  0
VERTEX
  8
7
  10
19.896
  20
-61.746
  0
VERTEX
  8
7
  10
19.946
  20
-61.746
  0
VERTEX
  8
7
  10
20.099
  20
-61.771
  0
VERTEX
  8
7
  10
20.328
  20
-61.797
  0
VERTEX
  8
7
  10
20.632
  20
-61.847
  0
VERTEX
  8
7
  10
20.988
  20
-61.898
  0
VERTEX
  8
7
  10
21.395
  20
-61.924
  0
VERTEX
  8
7
  10
21.827
  20
-61.974
  0
VERTEX
  8
7
  10
22.259
  20
-62.025
  0
VERTEX
  8
7
  10
22.716
  20
-62.076
  0
VERTEX
  8
7
  10
23.148
  20
-62.127
  0
VERTEX
  8
7
  10
23.555
  20
-62.178
  0
VERTEX
  8
7
  10
23.910
  20
-62.203
  0
VERTEX
  8
7
  10
24.215
  20
-62.254
  0
VERTEX
  8
7
  10
24.469
  20
-62.254
  0
VERTEX
  8
7
  10
24.622
  20
-62.279
  0
VERTEX
  8
7
  10
24.673
  20
-62.279
  0
VERTEX
  8
7
  10
24.774
  20
-62.356
  0
VERTEX
  8
7
  10
25.028
  20
-62.534
  0
VERTEX
  8
7
  10
25.410
  20
-62.788
  0
VERTEX
  8
7
  10
25.841
  20
-63.093
  0
VERTEX
  8
7
  10
26.299
  20
-63.372
  0
VERTEX
  8
7
  10
26.680
  20
-63.626
  0
VERTEX
  8
7
  10
26.960
  20
-63.804
  0
VERTEX
  8
7
  10
27.061
  20
-63.855
  0
VERTEX
  8
7
  10
27.163
  20
-63.956
  0
VERTEX
  8
7
  10
27.468
  20
-64.160
  0
VERTEX
  8
7
  10
27.874
  20
-64.465
  0
VERTEX
  8
7
  10
28.357
  20
-64.820
  0
VERTEX
  8
7
  10
28.840
  20
-65.151
  0
VERTEX
  8
7
  10
29.272
  20
-65.456
  0
VERTEX
  8
7
  10
29.577
  20
-65.659
  0
VERTEX
  8
7
  10
29.704
  20
-65.735
  0
VERTEX
  8
7
  10
29.780
  20
-65.735
  0
VERTEX
  8
7
  10
29.983
  20
-65.761
  0
VERTEX
  8
7
  10
30.263
  20
-65.761
  0
VERTEX
  8
7
  10
30.619
  20
-65.761
  0
VERTEX
  8
7
  10
30.949
  20
-65.761
  0
VERTEX
  8
7
  10
31.254
  20
-65.761
  0
VERTEX
  8
7
  10
31.482
  20
-65.735
  0
VERTEX
  8
7
  10
31.559
  20
-65.735
  0
VERTEX
  8
7
  10
31.610
  20
-65.583
  0
VERTEX
  8
7
  10
31.762
  20
-65.176
  0
VERTEX
  8
7
  10
31.965
  20
-64.566
  0
VERTEX
  8
7
  10
32.194
  20
-63.880
  0
VERTEX
  8
7
  10
32.448
  20
-63.194
  0
VERTEX
  8
7
  10
32.651
  20
-62.610
  0
VERTEX
  8
7
  10
32.804
  20
-62.178
  0
VERTEX
  8
7
  10
32.880
  20
-62.000
  0
VERTEX
  8
7
  10
32.829
  20
-61.314
  0
VERTEX
  8
7
  10
32.728
  20
-59.764
  0
VERTEX
  8
7
  10
32.626
  20
-58.214
  0
VERTEX
  8
7
  10
32.601
  20
-57.502
  0
VERTEX
  8
7
  10
32.550
  20
-57.299
  0
VERTEX
  8
7
  10
32.423
  20
-56.765
  0
VERTEX
  8
7
  10
32.245
  20
-56.003
  0
VERTEX
  8
7
  10
32.067
  20
-55.139
  0
VERTEX
  8
7
  10
31.864
  20
-54.250
  0
VERTEX
  8
7
  10
31.711
  20
-53.488
  0
VERTEX
  8
7
  10
31.584
  20
-52.929
  0
VERTEX
  8
7
  10
31.559
  20
-52.725
  0
VERTEX
  8
7
  10
31.508
  20
-52.725
  0
VERTEX
  8
7
  10
31.355
  20
-52.751
  0
VERTEX
  8
7
  10
31.127
  20
-52.776
  0
VERTEX
  8
7
  10
30.847
  20
-52.827
  0
VERTEX
  8
7
  10
30.492
  20
-52.878
  0
VERTEX
  8
7
  10
30.110
  20
-52.903
  0
VERTEX
  8
7
  10
29.704
  20
-52.954
  0
VERTEX
  8
7
  10
29.297
  20
-53.005
  0
VERTEX
  8
7
  10
28.865
  20
-53.056
  0
VERTEX
  8
7
  10
28.459
  20
-53.106
  0
VERTEX
  8
7
  10
28.078
  20
-53.157
  0
VERTEX
  8
7
  10
27.747
  20
-53.183
  0
VERTEX
  8
7
  10
27.468
  20
-53.233
  0
VERTEX
  8
7
  10
27.239
  20
-53.233
  0
VERTEX
  8
7
  10
27.112
  20
-53.259
  0
VERTEX
  8
7
  10
27.061
  20
-53.259
  0
VERTEX
  8
7
  10
27.010
  20
-53.259
  0
VERTEX
  8
7
  10
26.858
  20
-53.284
  0
VERTEX
  8
7
  10
26.655
  20
-53.310
  0
VERTEX
  8
7
  10
26.375
  20
-53.360
  0
VERTEX
  8
7
  10
26.070
  20
-53.411
  0
VERTEX
  8
7
  10
25.689
  20
-53.437
  0
VERTEX
  8
7
  10
25.308
  20
-53.488
  0
VERTEX
  8
7
  10
24.927
  20
-53.538
  0
VERTEX
  8
7
  10
24.520
  20
-53.589
  0
VERTEX
  8
7
  10
24.139
  20
-53.640
  0
VERTEX
  8
7
  10
23.783
  20
-53.691
  0
VERTEX
  8
7
  10
23.478
  20
-53.716
  0
VERTEX
  8
7
  10
23.199
  20
-53.767
  0
VERTEX
  8
7
  10
22.996
  20
-53.767
  0
VERTEX
  8
7
  10
22.869
  20
-53.792
  0
VERTEX
  8
7
  10
22.818
  20
-53.792
  0
VERTEX
  8
7
  10
22.741
  20
-53.767
  0
VERTEX
  8
7
  10
22.513
  20
-53.716
  0
VERTEX
  8
7
  10
22.208
  20
-53.640
  0
VERTEX
  8
7
  10
21.878
  20
-53.538
  0
VERTEX
  8
7
  10
21.522
  20
-53.437
  0
VERTEX
  8
7
  10
21.242
  20
-53.360
  0
VERTEX
  8
7
  10
21.039
  20
-53.284
  0
VERTEX
  8
7
  10
20.963
  20
-53.259
  0
VERTEX
  8
7
  10
20.836
  20
-53.157
  0
VERTEX
  8
7
  10
20.480
  20
-52.852
  0
VERTEX
  8
7
  10
20.023
  20
-52.446
  0
VERTEX
  8
7
  10
19.489
  20
-51.963
  0
VERTEX
  8
7
  10
18.955
  20
-51.480
  0
VERTEX
  8
7
  10
18.473
  20
-51.048
  0
VERTEX
  8
7
  10
18.168
  20
-50.743
  0
VERTEX
  8
7
  10
18.041
  20
-50.616
  0
VERTEX
  8
7
  10
18.041
  20
-50.413
  0
VERTEX
  8
7
  10
18.041
  20
-49.956
  0
VERTEX
  8
7
  10
18.041
  20
-49.473
  0
VERTEX
  8
7
  10
18.041
  20
-49.269
  0
VERTEX
  8
7
  10
14.610
  20
-50.616
  0
VERTEX
  8
7
  10
14.432
  20
-50.565
  0
VERTEX
  8
7
  10
14.026
  20
-50.413
  0
VERTEX
  8
7
  10
13.416
  20
-50.210
  0
VERTEX
  8
7
  10
12.730
  20
-49.956
  0
VERTEX
  8
7
  10
12.044
  20
-49.701
  0
VERTEX
  8
7
  10
11.459
  20
-49.498
  0
VERTEX
  8
7
  10
11.053
  20
-49.346
  0
VERTEX
  8
7
  10
10.900
  20
-49.269
  0
VERTEX
  8
7
  10
10.824
  20
-49.168
  0
VERTEX
  8
7
  10
10.646
  20
-48.914
  0
VERTEX
  8
7
  10
10.392
  20
-48.533
  0
VERTEX
  8
7
  10
10.087
  20
-48.101
  0
VERTEX
  8
7
  10
9.808
  20
-47.643
  0
VERTEX
  8
7
  10
9.554
  20
-47.262
  0
VERTEX
  8
7
  10
9.376
  20
-46.983
  0
VERTEX
  8
7
  10
9.325
  20
-46.881
  0
VERTEX
  8
7
  10
9.350
  20
-46.169
  0
VERTEX
  8
7
  10
9.427
  20
-44.543
  0
VERTEX
  8
7
  10
9.528
  20
-42.917
  0
VERTEX
  8
7
  10
9.579
  20
-42.180
  0
VERTEX
  8
7
  10
9.528
  20
-42.155
  0
VERTEX
  8
7
  10
9.376
  20
-42.078
  0
VERTEX
  8
7
  10
9.147
  20
-41.977
  0
VERTEX
  8
7
  10
8.868
  20
-41.850
  0
VERTEX
  8
7
  10
8.512
  20
-41.697
  0
VERTEX
  8
7
  10
8.131
  20
-41.494
  0
VERTEX
  8
7
  10
7.724
  20
-41.316
  0
VERTEX
  8
7
  10
7.318
  20
-41.113
  0
VERTEX
  8
7
  10
6.886
  20
-40.910
  0
VERTEX
  8
7
  10
6.479
  20
-40.732
  0
VERTEX
  8
7
  10
6.098
  20
-40.528
  0
VERTEX
  8
7
  10
5.768
  20
-40.376
  0
VERTEX
  8
7
  10
5.488
  20
-40.249
  0
VERTEX
  8
7
  10
5.259
  20
-40.147
  0
VERTEX
  8
7
  10
5.132
  20
-40.071
  0
VERTEX
  8
7
  10
5.082
  20
-40.046
  0
VERTEX
  8
7
  10
5.132
  20
-39.944
  0
VERTEX
  8
7
  10
5.310
  20
-39.715
  0
VERTEX
  8
7
  10
5.564
  20
-39.385
  0
VERTEX
  8
7
  10
5.844
  20
-38.978
  0
VERTEX
  8
7
  10
6.149
  20
-38.597
  0
VERTEX
  8
7
  10
6.403
  20
-38.267
  0
VERTEX
  8
7
  10
6.581
  20
-38.038
  0
VERTEX
  8
7
  10
6.657
  20
-37.937
  0
VERTEX
  8
7
  10
6.784
  20
-37.860
  0
VERTEX
  8
7
  10
7.140
  20
-37.683
  0
VERTEX
  8
7
  10
7.648
  20
-37.428
  0
VERTEX
  8
7
  10
8.232
  20
-37.124
  0
VERTEX
  8
7
  10
8.817
  20
-36.844
  0
VERTEX
  8
7
  10
9.325
  20
-36.590
  0
VERTEX
  8
7
  10
9.681
  20
-36.412
  0
VERTEX
  8
7
  10
9.833
  20
-36.336
  0
VERTEX
  8
7
  10
9.884
  20
-36.005
  0
VERTEX
  8
7
  10
10.062
  20
-35.142
  0
VERTEX
  8
7
  10
10.316
  20
-33.896
  0
VERTEX
  8
7
  10
10.621
  20
-32.473
  0
VERTEX
  8
7
  10
10.900
  20
-31.076
  0
VERTEX
  8
7
  10
11.180
  20
-29.831
  0
VERTEX
  8
7
  10
11.358
  20
-28.967
  0
VERTEX
  8
7
  10
11.434
  20
-28.637
  0
VERTEX
  8
7
  10
11.510
  20
-28.637
  0
VERTEX
  8
7
  10
11.714
  20
-28.637
  0
VERTEX
  8
7
  10
12.069
  20
-28.662
  0
VERTEX
  8
7
  10
12.501
  20
-28.687
  0
VERTEX
  8
7
  10
13.009
  20
-28.713
  0
VERTEX
  8
7
  10
13.594
  20
-28.713
  0
VERTEX
  8
7
  10
14.204
  20
-28.738
  0
VERTEX
  8
7
  10
14.864
  20
-28.764
  0
VERTEX
  8
7
  10
15.500
  20
-28.814
  0
VERTEX
  8
7
  10
16.135
  20
-28.840
  0
VERTEX
  8
7
  10
16.719
  20
-28.840
  0
VERTEX
  8
7
  10
17.227
  20
-28.865
  0
VERTEX
  8
7
  10
17.685
  20
-28.891
  0
VERTEX
  8
7
  10
18.015
  20
-28.916
  0
VERTEX
  8
7
  10
18.244
  20
-28.916
  0
VERTEX
  8
7
  10
18.320
  20
-28.916
  0
VERTEX
  8
7
  10
18.346
  20
-29.145
  0
VERTEX
  8
7
  10
18.473
  20
-29.704
  0
VERTEX
  8
7
  10
18.625
  20
-30.517
  0
VERTEX
  8
7
  10
18.828
  20
-31.432
  0
VERTEX
  8
7
  10
19.006
  20
-32.346
  0
VERTEX
  8
7
  10
19.184
  20
-33.160
  0
VERTEX
  8
7
  10
19.311
  20
-33.719
  0
VERTEX
  8
7
  10
19.362
  20
-33.947
  0
VERTEX
  8
7
  10
19.413
  20
-33.947
  0
VERTEX
  8
7
  10
19.540
  20
-33.947
  0
VERTEX
  8
7
  10
19.743
  20
-33.947
  0
VERTEX
  8
7
  10
20.023
  20
-33.947
  0
VERTEX
  8
7
  10
20.328
  20
-33.947
  0
VERTEX
  8
7
  10
20.683
  20
-33.947
  0
VERTEX
  8
7
  10
21.064
  20
-33.947
  0
VERTEX
  8
7
  10
21.471
  20
-33.947
  0
VERTEX
  8
7
  10
21.852
  20
-33.947
  0
VERTEX
  8
7
  10
22.233
  20
-33.947
  0
VERTEX
  8
7
  10
22.614
  20
-33.947
  0
VERTEX
  8
7
  10
22.919
  20
-33.947
  0
VERTEX
  8
7
  10
23.199
  20
-33.947
  0
VERTEX
  8
7
  10
23.402
  20
-33.947
  0
VERTEX
  8
7
  10
23.555
  20
-33.947
  0
VERTEX
  8
7
  10
23.605
  20
-33.947
  0
VERTEX
  8
7
  10
23.682
  20
-33.947
  0
VERTEX
  8
7
  10
23.885
  20
-33.947
  0
VERTEX
  8
7
  10
24.164
  20
-33.947
  0
VERTEX
  8
7
  10
24.520
  20
-33.947
  0
VERTEX
  8
7
  10
24.850
  20
-33.947
  0
VERTEX
  8
7
  10
25.155
  20
-33.947
  0
VERTEX
  8
7
  10
25.384
  20
-33.947
  0
VERTEX
  8
7
  10
25.460
  20
-33.947
  0
VERTEX
  8
7
  10
25.562
  20
-33.846
  0
VERTEX
  8
7
  10
25.816
  20
-33.617
  0
VERTEX
  8
7
  10
26.197
  20
-33.287
  0
VERTEX
  8
7
  10
26.629
  20
-32.880
  0
VERTEX
  8
7
  10
27.087
  20
-32.499
  0
VERTEX
  8
7
  10
27.468
  20
-32.169
  0
VERTEX
  8
7
  10
27.747
  20
-31.940
  0
VERTEX
  8
7
  10
27.849
  20
-31.838
  0
VERTEX
  8
7
  10
27.976
  20
-31.762
  0
VERTEX
  8
7
  10
28.281
  20
-31.533
  0
VERTEX
  8
7
  10
28.738
  20
-31.254
  0
VERTEX
  8
7
  10
29.272
  20
-30.898
  0
VERTEX
  8
7
  10
29.805
  20
-30.542
  0
VERTEX
  8
7
  10
30.288
  20
-30.263
  0
VERTEX
  8
7
  10
30.619
  20
-30.034
  0
VERTEX
  8
7
  10
30.746
  20
-29.958
  0
VERTEX
  8
7
  10
30.873
  20
-30.009
  0
VERTEX
  8
7
  10
31.178
  20
-30.136
  0
VERTEX
  8
7
  10
31.660
  20
-30.288
  0
VERTEX
  8
7
  10
32.194
  20
-30.491
  0
VERTEX
  8
7
  10
32.728
  20
-30.695
  0
VERTEX
  8
7
  10
33.185
  20
-30.847
  0
VERTEX
  8
7
  10
33.541
  20
-30.974
  0
VERTEX
  8
7
  10
33.668
  20
-31.025
  0
VERTEX
  8
7
  10
33.617
  20
-30.695
  0
VERTEX
  8
7
  10
33.541
  20
-29.856
  0
VERTEX
  8
7
  10
33.388
  20
-28.687
  0
VERTEX
  8
7
  10
33.261
  20
-27.315
  0
VERTEX
  8
7
  10
33.109
  20
-25.943
  0
VERTEX
  8
7
  10
32.982
  20
-24.774
  0
VERTEX
  8
7
  10
32.905
  20
-23.936
  0
VERTEX
  8
7
  10
32.880
  20
-23.605
  0
VERTEX
  8
7
  10
32.905
  20
-23.275
  0
VERTEX
  8
7
  10
33.033
  20
-22.437
  0
VERTEX
  8
7
  10
33.185
  20
-21.268
  0
VERTEX
  8
7
  10
33.388
  20
-19.896
  0
VERTEX
  8
7
  10
33.566
  20
-18.523
  0
VERTEX
  8
7
  10
33.744
  20
-17.355
  0
VERTEX
  8
7
  10
33.871
  20
-16.516
  0
VERTEX
  8
7
  10
33.922
  20
-16.186
  0
VERTEX
  8
7
  10
33.896
  20
-15.449
  0
VERTEX
  8
7
  10
33.896
  20
-13.797
  0
VERTEX
  8
7
  10
33.896
  20
-12.145
  0
VERTEX
  8
7
  10
33.922
  20
-11.409
  0
VERTEX
  8
7
  10
34.023
  20
-11.282
  0
VERTEX
  8
7
  10
34.278
  20
-10.951
  0
VERTEX
  8
7
  10
34.659
  20
-10.494
  0
VERTEX
  8
7
  10
35.091
  20
-9.935
  0
VERTEX
  8
7
  10
35.548
  20
-9.401
  0
VERTEX
  8
7
  10
35.929
  20
-8.944
  0
VERTEX
  8
7
  10
36.209
  20
-8.613
  0
VERTEX
  8
7
  10
36.310
  20
-8.486
  0
VERTEX
  8
7
  10
36.361
  20
-8.461
  0
VERTEX
  8
7
  10
36.488
  20
-8.410
  0
VERTEX
  8
7
  10
36.692
  20
-8.309
  0
VERTEX
  8
7
  10
36.971
  20
-8.207
  0
VERTEX
  8
7
  10
37.276
  20
-8.054
  0
VERTEX
  8
7
  10
37.632
  20
-7.902
  0
VERTEX
  8
7
  10
38.013
  20
-7.724
  0
VERTEX
  8
7
  10
38.419
  20
-7.546
  0
VERTEX
  8
7
  10
38.801
  20
-7.394
  0
VERTEX
  8
7
  10
39.182
  20
-7.216
  0
VERTEX
  8
7
  10
39.563
  20
-7.063
  0
VERTEX
  8
7
  10
39.868
  20
-6.911
  0
VERTEX
  8
7
  10
40.147
  20
-6.809
  0
VERTEX
  8
7
  10
40.351
  20
-6.708
  0
VERTEX
  8
7
  10
40.503
  20
-6.657
  0
VERTEX
  8
7
  10
40.554
  20
-6.632
  0
VERTEX
  8
7
  10
40.605
  20
-6.632
  0
VERTEX
  8
7
  10
40.757
  20
-6.657
  0
VERTEX
  8
7
  10
40.986
  20
-6.708
  0
VERTEX
  8
7
  10
41.291
  20
-6.759
  0
VERTEX
  8
7
  10
41.646
  20
-6.809
  0
VERTEX
  8
7
  10
42.028
  20
-6.886
  0
VERTEX
  8
7
  10
42.460
  20
-6.962
  0
VERTEX
  8
7
  10
42.917
  20
-7.013
  0
VERTEX
  8
7
  10
43.349
  20
-7.089
  0
VERTEX
  8
7
  10
43.781
  20
-7.165
  0
VERTEX
  8
7
  10
44.187
  20
-7.241
  0
VERTEX
  8
7
  10
44.543
  20
-7.292
  0
VERTEX
  8
7
  10
44.848
  20
-7.343
  0
VERTEX
  8
7
  10
45.102
  20
-7.394
  0
VERTEX
  8
7
  10
45.255
  20
-7.419
  0
VERTEX
  8
7
  10
45.306
  20
-7.419
  0
VERTEX
  8
7
  10
45.458
  20
-7.445
  0
VERTEX
  8
7
  10
45.865
  20
-7.546
  0
VERTEX
  8
7
  10
46.449
  20
-7.673
  0
VERTEX
  8
7
  10
47.135
  20
-7.826
  0
VERTEX
  8
7
  10
47.821
  20
-7.978
  0
VERTEX
  8
7
  10
48.431
  20
-8.105
  0
VERTEX
  8
7
  10
48.838
  20
-8.207
  0
VERTEX
  8
7
  10
49.015
  20
-8.232
  0
VERTEX
  8
7
  10
49.041
  20
-8.105
  0
VERTEX
  8
7
  10
49.117
  20
-7.724
  0
VERTEX
  8
7
  10
49.244
  20
-7.216
  0
VERTEX
  8
7
  10
49.397
  20
-6.632
  0
VERTEX
  8
7
  10
49.524
  20
-6.047
  0
VERTEX
  8
7
  10
49.676
  20
-5.539
  0
VERTEX
  8
7
  10
49.752
  20
-5.158
  0
VERTEX
  8
7
  10
49.803
  20
-5.031
  0
VERTEX
  8
7
  10
49.752
  20
-5.005
  0
VERTEX
  8
7
  10
49.574
  20
-4.954
  0
VERTEX
  8
7
  10
49.320
  20
-4.853
  0
VERTEX
  8
7
  10
49.015
  20
-4.751
  0
VERTEX
  8
7
  10
48.609
  20
-4.599
  0
VERTEX
  8
7
  10
48.202
  20
-4.446
  0
VERTEX
  8
7
  10
47.745
  20
-4.268
  0
VERTEX
  8
7
  10
47.262
  20
-4.091
  0
VERTEX
  8
7
  10
46.805
  20
-3.938
  0
VERTEX
  8
7
  10
46.347
  20
-3.760
  0
VERTEX
  8
7
  10
45.915
  20
-3.608
  0
VERTEX
  8
7
  10
45.534
  20
-3.455
  0
VERTEX
  8
7
  10
45.229
  20
-3.354
  0
VERTEX
  8
7
  10
44.975
  20
-3.252
  0
VERTEX
  8
7
  10
44.823
  20
-3.201
  0
VERTEX
  8
7
  10
44.772
  20
-3.176
  0
VERTEX
  8
7
  10
44.721
  20
-3.176
  0
VERTEX
  8
7
  10
44.594
  20
-3.150
  0
VERTEX
  8
7
  10
44.365
  20
-3.100
  0
VERTEX
  8
7
  10
44.111
  20
-3.049
  0
VERTEX
  8
7
  10
43.781
  20
-2.998
  0
VERTEX
  8
7
  10
43.425
  20
-2.922
  0
VERTEX
  8
7
  10
43.044
  20
-2.845
  0
VERTEX
  8
7
  10
42.637
  20
-2.769
  0
VERTEX
  8
7
  10
42.256
  20
-2.718
  0
VERTEX
  8
7
  10
41.875
  20
-2.642
  0
VERTEX
  8
7
  10
41.519
  20
-2.566
  0
VERTEX
  8
7
  10
41.189
  20
-2.515
  0
VERTEX
  8
7
  10
40.935
  20
-2.464
  0
VERTEX
  8
7
  10
40.732
  20
-2.413
  0
VERTEX
  8
7
  10
40.605
  20
-2.388
  0
VERTEX
  8
7
  10
40.554
  20
-2.388
  0
VERTEX
  8
7
  10
40.503
  20
-2.388
  0
VERTEX
  8
7
  10
40.351
  20
-2.388
  0
VERTEX
  8
7
  10
40.147
  20
-2.363
  0
VERTEX
  8
7
  10
39.868
  20
-2.337
  0
VERTEX
  8
7
  10
39.563
  20
-2.337
  0
VERTEX
  8
7
  10
39.182
  20
-2.312
  0
VERTEX
  8
7
  10
38.801
  20
-2.286
  0
VERTEX
  8
7
  10
38.419
  20
-2.261
  0
VERTEX
  8
7
  10
38.013
  20
-2.236
  0
VERTEX
  8
7
  10
37.632
  20
-2.210
  0
VERTEX
  8
7
  10
37.276
  20
-2.185
  0
VERTEX
  8
7
  10
36.971
  20
-2.185
  0
VERTEX
  8
7
  10
36.692
  20
-2.159
  0
VERTEX
  8
7
  10
36.488
  20
-2.134
  0
VERTEX
  8
7
  10
36.361
  20
-2.134
  0
VERTEX
  8
7
  10
36.310
  20
-2.134
  0
VERTEX
  8
7
  10
36.387
  20
-2.083
  0
VERTEX
  8
7
  10
36.564
  20
-1.981
  0
VERTEX
  8
7
  10
36.869
  20
-1.804
  0
VERTEX
  8
7
  10
37.251
  20
-1.600
  0
VERTEX
  8
7
  10
37.708
  20
-1.321
  0
VERTEX
  8
7
  10
38.216
  20
-1.041
  0
VERTEX
  8
7
  10
38.775
  20
-0.736
  0
VERTEX
  8
7
  10
39.334
  20
-0.406
  0
VERTEX
  8
7
  10
39.919
  20
-0.076
  0
VERTEX
  8
7
  10
40.452
  20
0.228
  0
VERTEX
  8
7
  10
40.986
  20
0.508
  0
VERTEX
  8
7
  10
41.443
  20
0.787
  0
VERTEX
  8
7
  10
41.824
  20
0.990
  0
VERTEX
  8
7
  10
42.129
  20
1.168
  0
VERTEX
  8
7
  10
42.333
  20
1.270
  0
VERTEX
  8
7
  10
42.409
  20
1.321
  0
VERTEX
  8
7
  10
42.460
  20
1.321
  0
VERTEX
  8
7
  10
42.637
  20
1.372
  0
VERTEX
  8
7
  10
42.892
  20
1.422
  0
VERTEX
  8
7
  10
43.222
  20
1.499
  0
VERTEX
  8
7
  10
43.628
  20
1.575
  0
VERTEX
  8
7
  10
44.060
  20
1.651
  0
VERTEX
  8
7
  10
44.543
  20
1.753
  0
VERTEX
  8
7
  10
45.026
  20
1.854
  0
VERTEX
  8
7
  10
45.534
  20
1.956
  0
VERTEX
  8
7
  10
45.992
  20
2.058
  0
VERTEX
  8
7
  10
46.449
  20
2.134
  0
VERTEX
  8
7
  10
46.856
  20
2.210
  0
VERTEX
  8
7
  10
47.186
  20
2.286
  0
VERTEX
  8
7
  10
47.465
  20
2.337
  0
VERTEX
  8
7
  10
47.618
  20
2.388
  0
VERTEX
  8
7
  10
47.694
  20
2.388
  0
VERTEX
  8
7
  10
47.796
  20
2.388
  0
VERTEX
  8
7
  10
48.101
  20
2.337
  0
VERTEX
  8
7
  10
48.507
  20
2.312
  0
VERTEX
  8
7
  10
48.990
  20
2.261
  0
VERTEX
  8
7
  10
49.473
  20
2.210
  0
VERTEX
  8
7
  10
49.905
  20
2.185
  0
VERTEX
  8
7
  10
50.210
  20
2.134
  0
VERTEX
  8
7
  10
50.337
  20
2.134
  0
VERTEX
  8
7
  10
50.464
  20
2.109
  0
VERTEX
  8
7
  10
50.820
  20
2.007
  0
VERTEX
  8
7
  10
51.328
  20
1.880
  0
VERTEX
  8
7
  10
51.912
  20
1.727
  0
VERTEX
  8
7
  10
52.497
  20
1.575
  0
VERTEX
  8
7
  10
53.005
  20
1.448
  0
VERTEX
  8
7
  10
53.361
  20
1.346
  0
VERTEX
  8
7
  10
53.513
  20
1.321
  0
VERTEX
  8
7
  10
53.564
  20
1.372
  0
VERTEX
  8
7
  10
53.716
  20
1.550
  0
VERTEX
  8
7
  10
53.970
  20
1.804
  0
VERTEX
  8
7
  10
54.275
  20
2.159
  0
VERTEX
  8
7
  10
54.656
  20
2.541
  0
VERTEX
  8
7
  10
55.088
  20
2.998
  0
VERTEX
  8
7
  10
55.546
  20
3.481
  0
VERTEX
  8
7
  10
56.003
  20
3.989
  0
VERTEX
  8
7
  10
56.486
  20
4.472
  0
VERTEX
  8
7
  10
56.943
  20
4.954
  0
VERTEX
  8
7
  10
57.350
  20
5.412
  0
VERTEX
  8
7
  10
57.756
  20
5.793
  0
VERTEX
  8
7
  10
58.061
  20
6.149
  0
VERTEX
  8
7
  10
58.315
  20
6.403
  0
VERTEX
  8
7
  10
58.493
  20
6.581
  0
VERTEX
  8
7
  10
58.544
  20
6.632
  0
VERTEX
  8
7
  10
58.493
  20
6.352
  0
VERTEX
  8
7
  10
58.417
  20
5.590
  0
VERTEX
  8
7
  10
58.265
  20
4.522
  0
VERTEX
  8
7
  10
58.138
  20
3.328
  0
VERTEX
  8
7
  10
57.985
  20
2.109
  0
VERTEX
  8
7
  10
57.858
  20
1.041
  0
VERTEX
  8
7
  10
57.782
  20
0.279
  0
VERTEX
  8
7
  10
57.756
  20
0.000
  0
VERTEX
  8
7
  10
57.833
  20
-0.076
  0
VERTEX
  8
7
  10
58.036
  20
-0.279
  0
VERTEX
  8
7
  10
58.315
  20
-0.584
  0
VERTEX
  8
7
  10
58.671
  20
-0.914
  0
VERTEX
  8
7
  10
59.002
  20
-1.270
  0
VERTEX
  8
7
  10
59.306
  20
-1.575
  0
VERTEX
  8
7
  10
59.535
  20
-1.778
  0
VERTEX
  8
7
  10
59.611
  20
-1.854
  0
VERTEX
  8
7
  10
59.738
  20
-1.931
  0
VERTEX
  8
7
  10
60.094
  20
-2.109
  0
VERTEX
  8
7
  10
60.602
  20
-2.363
  0
VERTEX
  8
7
  10
61.187
  20
-2.642
  0
VERTEX
  8
7
  10
61.771
  20
-2.947
  0
VERTEX
  8
7
  10
62.279
  20
-3.201
  0
VERTEX
  8
7
  10
62.635
  20
-3.379
  0
VERTEX
  8
7
  10
62.788
  20
-3.455
  0
VERTEX
  8
7
  10
62.838
  20
-3.506
  0
VERTEX
  8
7
  10
62.965
  20
-3.684
  0
VERTEX
  8
7
  10
63.169
  20
-3.913
  0
VERTEX
  8
7
  10
63.423
  20
-4.243
  0
VERTEX
  8
7
  10
63.753
  20
-4.624
  0
VERTEX
  8
7
  10
64.084
  20
-5.056
  0
VERTEX
  8
7
  10
64.465
  20
-5.513
  0
VERTEX
  8
7
  10
64.871
  20
-5.971
  0
VERTEX
  8
7
  10
65.252
  20
-6.428
  0
VERTEX
  8
7
  10
65.634
  20
-6.886
  0
VERTEX
  8
7
  10
65.989
  20
-7.318
  0
VERTEX
  8
7
  10
66.294
  20
-7.699
  0
VERTEX
  8
7
  10
66.574
  20
-8.029
  0
VERTEX
  8
7
  10
66.777
  20
-8.258
  0
VERTEX
  8
7
  10
66.904
  20
-8.436
  0
VERTEX
  8
7
  10
66.955
  20
-8.486
  0
VERTEX
  8
7
  10
66.497
  20
-2.922
  0
VERTEX
  8
7
  10
66.370
  20
-2.693
  0
VERTEX
  8
7
  10
66.066
  20
-2.083
  0
VERTEX
  8
7
  10
65.634
  20
-1.245
  0
VERTEX
  8
7
  10
65.151
  20
-0.254
  0
VERTEX
  8
7
  10
64.668
  20
0.711
  0
VERTEX
  8
7
  10
64.236
  20
1.550
  0
VERTEX
  8
7
  10
63.931
  20
2.159
  0
VERTEX
  8
7
  10
63.829
  20
2.388
  0
VERTEX
  8
7
  10
63.652
  20
2.642
  0
VERTEX
  8
7
  10
63.194
  20
3.354
  0
VERTEX
  8
7
  10
62.559
  20
4.319
  0
VERTEX
  8
7
  10
61.822
  20
5.437
  0
VERTEX
  8
7
  10
61.111
  20
6.555
  0
VERTEX
  8
7
  10
60.475
  20
7.546
  0
VERTEX
  8
7
  10
60.018
  20
8.232
  0
VERTEX
  8
7
  10
59.865
  20
8.486
  0
VERTEX
  8
7
  10
59.993
  20
8.436
  0
VERTEX
  8
7
  10
60.348
  20
8.309
  0
VERTEX
  8
7
  10
60.856
  20
8.156
  0
VERTEX
  8
7
  10
61.441
  20
7.953
  0
VERTEX
  8
7
  10
62.025
  20
7.750
  0
VERTEX
  8
7
  10
62.534
  20
7.597
  0
VERTEX
  8
7
  10
62.889
  20
7.470
  0
VERTEX
  8
7
  10
63.042
  20
7.419
  0
VERTEX
  8
7
  10
63.194
  20
7.216
  0
VERTEX
  8
7
  10
63.575
  20
6.708
  0
VERTEX
  8
7
  10
64.109
  20
5.996
  0
VERTEX
  8
7
  10
64.744
  20
5.183
  0
VERTEX
  8
7
  10
65.379
  20
4.345
  0
VERTEX
  8
7
  10
65.938
  20
3.633
  0
VERTEX
  8
7
  10
66.345
  20
3.125
  0
VERTEX
  8
7
  10
66.497
  20
2.922
  0
VERTEX
  8
7
  10
66.574
  20
2.744
  0
VERTEX
  8
7
  10
66.802
  20
2.261
  0
VERTEX
  8
7
  10
67.133
  20
1.575
  0
VERTEX
  8
7
  10
67.514
  20
0.813
  0
VERTEX
  8
7
  10
67.895
  20
0.025
  0
VERTEX
  8
7
  10
68.225
  20
-0.660
  0
VERTEX
  8
7
  10
68.454
  20
-1.143
  0
VERTEX
  8
7
  10
68.556
  20
-1.321
  0
VERTEX
  8
7
  10
70.665
  20
-8.486
  0
VERTEX
  8
7
  10
73.841
  20
-7.419
  0
VERTEX
  8
7
  10
76.230
  20
-4.243
  0
VERTEX
  8
7
  10
78.618
  20
-0.787
  0
VERTEX
  8
7
  10
79.152
  20
-4.777
  0
VERTEX
  8
7
  10
77.830
  20
-9.808
  0
VERTEX
  8
7
  10
75.696
  20
-11.409
  0
SEQEND
  0
POLYLINE
  8
7
  6
CONTINUOUS
 66
  1
  0
VERTEX
  8
7
  10
10.062
  20
-36.336
  0
VERTEX
  8
7
  10
13.772
  20
-34.481
  0
VERTEX
  8
7
  10
14.814
  20
-31.305
  0
VERTEX
  8
7
  10
14.814
  20
-34.735
  0
VERTEX
  8
7
  10
16.948
  20
-34.735
  0
VERTEX
  8
7
  10
19.311
  20
-33.947
  0
SEQEND
  0
POLYLINE
  8
7
  6
CONTINUOUS
 66
  1
  0
VERTEX
  8
7
  10
19.845
  20
-37.657
  0
VERTEX
  8
7
  10
18.549
  20
-42.155
  0
VERTEX
  8
7
  10
19.845
  20
-42.383
  0
VERTEX
  8
7
  10
19.946
  20
-42.231
  0
VERTEX
  8
7
  10
20.175
  20
-41.850
  0
VERTEX
  8
7
  10
20.531
  20
-41.316
  0
VERTEX
  8
7
  10
20.912
  20
-40.681
  0
VERTEX
  8
7
  10
21.293
  20
-40.046
  0
VERTEX
  8
7
  10
21.649
  20
-39.487
  0
VERTEX
  8
7
  10
21.878
  20
-39.105
  0
VERTEX
  8
7
  10
21.979
  20
-38.953
  0
SEQEND
  0
POLYLINE
  8
7
  6
CONTINUOUS
 66
  1
  0
VERTEX
  8
7
  10
19.311
  20
-42.180
  0
VERTEX
  8
7
  10
17.990
  20
-45.356
  0
SEQEND
  0
POLYLINE
  8
7
  6
CONTINUOUS
 66
  1
  0
VERTEX
  8
7
  10
28.840
  20
-41.570
  0
VERTEX
  8
7
  10
28.865
  20
-41.697
  0
VERTEX
  8
7
  10
28.865
  20
-41.774
  0
VERTEX
  8
7
  10
28.891
  20
-41.824
  0
VERTEX
  8
7
  10
28.891
  20
-41.850
  0
VERTEX
  8
7
  10
29.069
  20
-41.519
  0
VERTEX
  8
7
  10
28.840
  20
-41.570
  0
SEQEND
  0
POLYLINE
  8
7
  6
CONTINUOUS
 66
  1
  0
VERTEX
  8
7
  10
28.840
  20
-41.570
  0
VERTEX
  8
7
  10
28.840
  20
-41.494
  0
VERTEX
  8
7
  10
28.840
  20
-41.392
  0
VERTEX
  8
7
  10
28.814
  20
-41.291
  0
VERTEX
  8
7
  10
28.814
  20
-41.189
  0
VERTEX
  8
7
  10
29.246
  20
-41.164
  0
VERTEX
  8
7
  10
29.069
  20
-41.519
  0
VERTEX
  8
7
  10
28.840
  20
-41.570
  0
SEQEND
  0
POLYLINE
  8
7
  6
CONTINUOUS
 66
  1
  0
VERTEX
  8
7
  10
28.814
  20
-41.189
  0
VERTEX
  8
7
  10
28.789
  20
-41.087
  0
VERTEX
  8
7
  10
28.789
  20
-40.986
  0
VERTEX
  8
7
  10
28.789
  20
-40.910
  0
VERTEX
  8
7
  10
28.764
  20
-40.808
  0
VERTEX
  8
7
  10
29.450
  20
-40.783
  0
VERTEX
  8
7
  10
29.246
  20
-41.164
  0
VERTEX
  8
7
  10
28.814
  20
-41.189
  0
SEQEND
  0
POLYLINE
  8
7
  6
CONTINUOUS
 66
  1
  0
VERTEX
  8
7
  10
28.764
  20
-40.808
  0
VERTEX
  8
7
  10
28.764
  20
-40.706
  0
VERTEX
  8
7
  10
28.764
  20
-40.605
  0
VERTEX
  8
7
  10
28.738
  20
-40.503
  0
VERTEX
  8
7
  10
28.738
  20
-40.401
  0
VERTEX
  8
7
  10
29.653
  20
-40.427
  0
VERTEX
  8
7
  10
29.450
  20
-40.783
  0
VERTEX
  8
7
  10
28.764
  20
-40.808
  0
SEQEND
  0
POLYLINE
  8
7
  6
CONTINUOUS
 66
  1
  0
VERTEX
  8
7
  10
26.299
  20
-40.452
  0
VERTEX
  8
7
  10
26.273
  20
-40.478
  0
VERTEX
  8
7
  10
26.273
  20
-40.503
  0
VERTEX
  8
7
  10
26.248
  20
-40.528
  0
VERTEX
  8
7
  10
26.248
  20
-40.528
  0
VERTEX
  8
7
  10
26.248
  20
-40.528
  0
VERTEX
  8
7
  10
26.299
  20
-40.503
  0
VERTEX
  8
7
  10
26.350
  20
-40.478
  0
VERTEX
  8
7
  10
26.426
  20
-40.452
  0
VERTEX
  8
7
  10
26.299
  20
-40.452
  0
SEQEND
  0
POLYLINE
  8
7
  6
CONTINUOUS
 66
  1
  0
VERTEX
  8
7
  10
26.299
  20
-40.452
  0
VERTEX
  8
7
  10
26.350
  20
-40.376
  0
VERTEX
  8
7
  10
26.426
  20
-40.274
  0
VERTEX
  8
7
  10
26.502
  20
-40.173
  0
VERTEX
  8
7
  10
26.604
  20
-40.046
  0
VERTEX
  8
7
  10
27.137
  20
-40.046
  0
VERTEX
  8
7
  10
26.909
  20
-40.147
  0
VERTEX
  8
7
  10
26.731
  20
-40.274
  0
VERTEX
  8
7
  10
26.553
  20
-40.376
  0
VERTEX
  8
7
  10
26.426
  20
-40.452
  0
VERTEX
  8
7
  10
26.299
  20
-40.452
  0
SEQEND
  0
POLYLINE
  8
7
  6
CONTINUOUS
 66
  1
  0
VERTEX
  8
7
  10
28.738
  20
-40.401
  0
VERTEX
  8
7
  10
28.713
  20
-40.300
  0
VERTEX
  8
7
  10
28.713
  20
-40.198
  0
VERTEX
  8
7
  10
28.713
  20
-40.122
  0
VERTEX
  8
7
  10
28.687
  20
-40.020
  0
VERTEX
  8
7
  10
29.856
  20
-40.046
  0
VERTEX
  8
7
  10
29.653
  20
-40.427
  0
VERTEX
  8
7
  10
28.738
  20
-40.401
  0
SEQEND
  0
POLYLINE
  8
7
  6
CONTINUOUS
 66
  1
  0
VERTEX
  8
7
  10
26.604
  20
-40.046
  0
VERTEX
  8
7
  10
26.655
  20
-39.969
  0
VERTEX
  8
7
  10
26.731
  20
-39.868
  0
VERTEX
  8
7
  10
26.807
  20
-39.792
  0
VERTEX
  8
7
  10
26.883
  20
-39.690
  0
VERTEX
  8
7
  10
27.823
  20
-39.665
  0
VERTEX
  8
7
  10
27.646
  20
-39.766
  0
VERTEX
  8
7
  10
27.493
  20
-39.842
  0
VERTEX
  8
7
  10
27.315
  20
-39.944
  0
VERTEX
  8
7
  10
27.137
  20
-40.046
  0
VERTEX
  8
7
  10
26.604
  20
-40.046
  0
SEQEND
  0
POLYLINE
  8
7
  6
CONTINUOUS
 66
  1
  0
VERTEX
  8
7
  10
28.687
  20
-40.020
  0
VERTEX
  8
7
  10
28.687
  20
-39.919
  0
VERTEX
  8
7
  10
28.687
  20
-39.842
  0
VERTEX
  8
7
  10
28.662
  20
-39.741
  0
VERTEX
  8
7
  10
28.662
  20
-39.665
  0
VERTEX
  8
7
  10
30.060
  20
-39.665
  0
VERTEX
  8
7
  10
29.856
  20
-40.046
  0
VERTEX
  8
7
  10
28.687
  20
-40.020
  0
SEQEND
  0
POLYLINE
  8
7
  6
CONTINUOUS
 66
  1
  0
VERTEX
  8
7
  10
26.883
  20
-39.690
  0
VERTEX
  8
7
  10
26.934
  20
-39.588
  0
VERTEX
  8
7
  10
27.010
  20
-39.487
  0
VERTEX
  8
7
  10
27.087
  20
-39.410
  0
VERTEX
  8
7
  10
27.163
  20
-39.309
  0
VERTEX
  8
7
  10
28.484
  20
-39.283
  0
VERTEX
  8
7
  10
28.357
  20
-39.360
  0
VERTEX
  8
7
  10
28.205
  20
-39.461
  0
VERTEX
  8
7
  10
28.027
  20
-39.563
  0
VERTEX
  8
7
  10
27.823
  20
-39.665
  0
VERTEX
  8
7
  10
26.883
  20
-39.690
  0
SEQEND
  0
POLYLINE
  8
7
  6
CONTINUOUS
 66
  1
  0
VERTEX
  8
7
  10
28.662
  20
-39.665
  0
VERTEX
  8
7
  10
28.637
  20
-39.512
  0
VERTEX
  8
7
  10
28.637
  20
-39.410
  0
VERTEX
  8
7
  10
28.637
  20
-39.309
  0
VERTEX
  8
7
  10
28.637
  20
-39.233
  0
VERTEX
  8
7
  10
30.263
  20
-39.309
  0
VERTEX
  8
7
  10
30.060
  20
-39.665
  0
VERTEX
  8
7
  10
28.662
  20
-39.665
  0
SEQEND
  0
POLYLINE
  8
7
  6
CONTINUOUS
 66
  1
  0
VERTEX
  8
7
  10
27.163
  20
-39.309
  0
VERTEX
  8
7
  10
27.214
  20
-39.233
  0
VERTEX
  8
7
  10
27.290
  20
-39.131
  0
VERTEX
  8
7
  10
27.366
  20
-39.029
  0
VERTEX
  8
7
  10
27.442
  20
-38.928
  0
VERTEX
  8
7
  10
30.466
  20
-38.928
  0
VERTEX
  8
7
  10
30.263
  20
-39.309
  0
VERTEX
  8
7
  10
28.637
  20
-39.233
  0
VERTEX
  8
7
  10
28.637
  20
-39.207
  0
VERTEX
  8
7
  10
28.637
  20
-39.207
  0
VERTEX
  8
7
  10
28.637
  20
-39.207
  0
VERTEX
  8
7
  10
28.637
  20
-39.207
  0
VERTEX
  8
7
  10
28.637
  20
-39.207
  0
VERTEX
  8
7
  10
28.611
  20
-39.233
  0
VERTEX
  8
7
  10
28.560
  20
-39.258
  0
VERTEX
  8
7
  10
28.484
  20
-39.283
  0
VERTEX
  8
7
  10
27.163
  20
-39.309
  0
SEQEND
  0
POLYLINE
  8
7
  6
CONTINUOUS
 66
  1
  0
VERTEX
  8
7
  10
27.442
  20
-38.928
  0
VERTEX
  8
7
  10
27.493
  20
-38.851
  0
VERTEX
  8
7
  10
27.569
  20
-38.750
  0
VERTEX
  8
7
  10
27.646
  20
-38.674
  0
VERTEX
  8
7
  10
27.696
  20
-38.572
  0
VERTEX
  8
7
  10
30.644
  20
-38.572
  0
VERTEX
  8
7
  10
30.466
  20
-38.928
  0
VERTEX
  8
7
  10
27.442
  20
-38.928
  0
SEQEND
  0
POLYLINE
  8
7
  6
CONTINUOUS
 66
  1
  0
VERTEX
  8
7
  10
27.696
  20
-38.572
  0
VERTEX
  8
7
  10
27.798
  20
-38.470
  0
VERTEX
  8
7
  10
27.874
  20
-38.369
  0
VERTEX
  8
7
  10
27.951
  20
-38.292
  0
VERTEX
  8
7
  10
28.001
  20
-38.191
  0
VERTEX
  8
7
  10
30.847
  20
-38.191
  0
VERTEX
  8
7
  10
30.644
  20
-38.572
  0
VERTEX
  8
7
  10
27.696
  20
-38.572
  0
SEQEND
  0
POLYLINE
  8
7
  6
CONTINUOUS
 66
  1
  0
VERTEX
  8
7
  10
28.001
  20
-38.191
  0
VERTEX
  8
7
  10
28.078
  20
-38.089
  0
VERTEX
  8
7
  10
28.154
  20
-37.987
  0
VERTEX
  8
7
  10
28.230
  20
-37.886
  0
VERTEX
  8
7
  10
28.306
  20
-37.784
  0
VERTEX
  8
7
  10
31.025
  20
-37.810
  0
VERTEX
  8
7
  10
31.000
  20
-37.911
  0
VERTEX
  8
7
  10
30.847
  20
-38.191
  0
VERTEX
  8
7
  10
28.001
  20
-38.191
  0
SEQEND
  0
POLYLINE
  8
7
  6
CONTINUOUS
 66
  1
  0
VERTEX
  8
7
  10
28.306
  20
-37.784
  0
VERTEX
  8
7
  10
28.408
  20
-37.683
  0
VERTEX
  8
7
  10
28.484
  20
-37.581
  0
VERTEX
  8
7
  10
28.535
  20
-37.505
  0
VERTEX
  8
7
  10
28.560
  20
-37.428
  0
VERTEX
  8
7
  10
31.076
  20
-37.454
  0
VERTEX
  8
7
  10
31.025
  20
-37.810
  0
VERTEX
  8
7
  10
28.306
  20
-37.784
  0
SEQEND
  0
POLYLINE
  8
7
  6
CONTINUOUS
 66
  1
  0
VERTEX
  8
7
  10
28.560
  20
-37.428
  0
VERTEX
  8
7
  10
28.586
  20
-37.403
  0
VERTEX
  8
7
  10
28.586
  20
-37.403
  0
VERTEX
  8
7
  10
28.611
  20
-37.378
  0
VERTEX
  8
7
  10
28.611
  20
-37.378
  0
VERTEX
  8
7
  10
28.916
  20
-37.073
  0
VERTEX
  8
7
  10
31.127
  20
-37.073
  0
VERTEX
  8
7
  10
31.076
  20
-37.454
  0
VERTEX
  8
7
  10
28.560
  20
-37.428
  0
SEQEND
  0
POLYLINE
  8
7
  6
CONTINUOUS
 66
  1
  0
VERTEX
  8
7
  10
28.916
  20
-37.073
  0
VERTEX
  8
7
  10
29.272
  20
-36.717
  0
VERTEX
  8
7
  10
31.178
  20
-36.717
  0
VERTEX
  8
7
  10
31.127
  20
-37.073
  0
VERTEX
  8
7
  10
28.916
  20
-37.073
  0
SEQEND
  0
POLYLINE
  8
7
  6
CONTINUOUS
 66
  1
  0
VERTEX
  8
7
  10
29.272
  20
-36.717
  0
VERTEX
  8
7
  10
29.653
  20
-36.336
  0
VERTEX
  8
7
  10
31.228
  20
-36.336
  0
VERTEX
  8
7
  10
31.178
  20
-36.717
  0
VERTEX
  8
7
  10
29.272
  20
-36.717
  0
SEQEND
  0
POLYLINE
  8
7
  6
CONTINUOUS
 66
  1
  0
VERTEX
  8
7
  10
29.653
  20
-36.336
  0
VERTEX
  8
7
  10
30.034
  20
-35.955
  0
VERTEX
  8
7
  10
31.279
  20
-35.955
  0
VERTEX
  8
7
  10
31.228
  20
-36.336
  0
VERTEX
  8
7
  10
29.653
  20
-36.336
  0
SEQEND
  0
POLYLINE
  8
7
  6
CONTINUOUS
 66
  1
  0
VERTEX
  8
7
  10
30.034
  20
-35.955
  0
VERTEX
  8
7
  10
30.390
  20
-35.599
  0
VERTEX
  8
7
  10
31.330
  20
-35.599
  0
VERTEX
  8
7
  10
31.279
  20
-35.955
  0
VERTEX
  8
7
  10
30.034
  20
-35.955
  0
SEQEND
  0
POLYLINE
  8
7
  6
CONTINUOUS
 66
  1
  0
VERTEX
  8
7
  10
30.390
  20
-35.599
  0
VERTEX
  8
7
  10
30.771
  20
-35.218
  0
VERTEX
  8
7
  10
31.406
  20
-35.218
  0
VERTEX
  8
7
  10
31.330
  20
-35.599
  0
VERTEX
  8
7
  10
30.390
  20
-35.599
  0
SEQEND
  0
POLYLINE
  8
7
  6
CONTINUOUS
 66
  1
  0
VERTEX
  8
7
  10
30.771
  20
-35.218
  0
VERTEX
  8
7
  10
31.152
  20
-34.837
  0
VERTEX
  8
7
  10
31.457
  20
-34.837
  0
VERTEX
  8
7
  10
31.406
  20
-35.218
  0
VERTEX
  8
7
  10
30.771
  20
-35.218
  0
SEQEND
  0
POLYLINE
  8
7
  6
CONTINUOUS
 66
  1
  0
VERTEX
  8
7
  10
31.152
  20
-34.837
  0
VERTEX
  8
7
  10
31.508
  20
-34.481
  0
VERTEX
  8
7
  10
31.457
  20
-34.837
  0
VERTEX
  8
7
  10
31.152
  20
-34.837
  0
SEQEND
  0
POLYLINE
  8
7
  6
CONTINUOUS
 66
  1
  0
VERTEX
  8
7
  10
31.508
  20
-34.481
  0
VERTEX
  8
7
  10
31.000
  20
-37.911
  0
VERTEX
  8
7
  10
28.891
  20
-41.850
  0
VERTEX
  8
7
  10
28.840
  20
-41.443
  0
VERTEX
  8
7
  10
28.738
  20
-40.554
  0
VERTEX
  8
7
  10
28.662
  20
-39.639
  0
VERTEX
  8
7
  10
28.637
  20
-39.207
  0
VERTEX
  8
7
  10
28.535
  20
-39.283
  0
VERTEX
  8
7
  10
28.255
  20
-39.436
  0
VERTEX
  8
7
  10
27.874
  20
-39.639
  0
VERTEX
  8
7
  10
27.417
  20
-39.893
  0
VERTEX
  8
7
  10
26.985
  20
-40.122
  0
VERTEX
  8
7
  10
26.604
  20
-40.325
  0
VERTEX
  8
7
  10
26.350
  20
-40.478
  0
VERTEX
  8
7
  10
26.248
  20
-40.528
  0
VERTEX
  8
7
  10
26.350
  20
-40.401
  0
VERTEX
  8
7
  10
26.604
  20
-40.046
  0
VERTEX
  8
7
  10
26.985
  20
-39.537
  0
VERTEX
  8
7
  10
27.417
  20
-38.953
  0
VERTEX
  8
7
  10
27.849
  20
-38.369
  0
VERTEX
  8
7
  10
28.230
  20
-37.886
  0
VERTEX
  8
7
  10
28.510
  20
-37.505
  0
VERTEX
  8
7
  10
28.611
  20
-37.378
  0
VERTEX
  8
7
  10
31.508
  20
-34.481
  0
SEQEND
  0
POLYLINE
  8
7
  6
CONTINUOUS
 66
  1
  0
VERTEX
  8
7
  10
34.405
  20
-39.258
  0
VERTEX
  8
7
  10
35.472
  20
-31.838
  0
VERTEX
  8
7
  10
39.182
  20
-32.880
  0
VERTEX
  8
7
  10
42.892
  20
-34.735
  0
VERTEX
  8
7
  10
49.244
  20
-38.445
  0
VERTEX
  8
7
  10
51.353
  20
-42.129
  0
VERTEX
  8
7
  10
51.480
  20
-41.977
  0
VERTEX
  8
7
  10
51.810
  20
-41.570
  0
VERTEX
  8
7
  10
52.268
  20
-40.986
  0
VERTEX
  8
7
  10
52.801
  20
-40.300
  0
VERTEX
  8
7
  10
53.335
  20
-39.614
  0
VERTEX
  8
7
  10
53.792
  20
-39.029
  0
VERTEX
  8
7
  10
54.123
  20
-38.597
  0
VERTEX
  8
7
  10
54.250
  20
-38.445
  0
VERTEX
  8
7
  10
56.918
  20
-31.559
  0
VERTEX
  8
7
  10
57.960
  20
-25.206
  0
VERTEX
  8
7
  10
56.384
  20
-20.429
  0
VERTEX
  8
7
  10
53.462
  20
-18.295
  0
VERTEX
  8
7
  10
50.286
  20
-18.828
  0
VERTEX
  8
7
  10
47.897
  20
-20.429
  0
VERTEX
  8
7
  10
45.788
  20
-18.041
  0
VERTEX
  8
7
  10
43.679
  20
-16.186
  0
VERTEX
  8
7
  10
41.291
  20
-16.973
  0
VERTEX
  8
7
  10
37.327
  20
-19.362
  0
VERTEX
  8
7
  10
35.472
  20
-22.284
  0
VERTEX
  8
7
  10
34.938
  20
-24.393
  0
SEQEND
  0
POLYLINE
  8
7
  6
CONTINUOUS
 66
  1
  0
VERTEX
  8
7
  10
42.358
  20
-10.875
  0
VERTEX
  8
7
  10
47.110
  20
-9.020
  0
VERTEX
  8
7
  10
48.710
  20
-8.741
  0
VERTEX
  8
7
  10
49.752
  20
-11.917
  0
SEQEND
  0
POLYLINE
  8
7
  6
CONTINUOUS
 66
  1
  0
VERTEX
  8
7
  10
55.317
  20
-15.118
  0
VERTEX
  8
7
  10
59.561
  20
-13.797
  0
VERTEX
  8
7
  10
61.415
  20
-15.322
  0
VERTEX
  8
7
  10
61.415
  20
-16.338
  0
VERTEX
  8
7
  10
61.415
  20
-18.523
  0
VERTEX
  8
7
  10
61.415
  20
-20.734
  0
VERTEX
  8
7
  10
61.415
  20
-21.725
  0
SEQEND
  0
POLYLINE
  8
7
  6
CONTINUOUS
 66
  1
  0
VERTEX
  8
7
  10
50.286
  20
-4.497
  0
VERTEX
  8
7
  10
56.384
  20
-7.673
  0
VERTEX
  8
7
  10
62.991
  20
-11.358
  0
VERTEX
  8
7
  10
63.093
  20
-11.536
  0
VERTEX
  8
7
  10
63.372
  20
-11.993
  0
VERTEX
  8
7
  10
63.753
  20
-12.628
  0
VERTEX
  8
7
  10
64.185
  20
-13.365
  0
VERTEX
  8
7
  10
64.617
  20
-14.077
  0
VERTEX
  8
7
  10
64.998
  20
-14.712
  0
VERTEX
  8
7
  10
65.278
  20
-15.169
  0
VERTEX
  8
7
  10
65.379
  20
-15.322
  0
VERTEX
  8
7
  10
65.456
  20
-14.890
  0
VERTEX
  8
7
  10
65.659
  20
-13.899
  0
VERTEX
  8
7
  10
65.837
  20
-12.882
  0
VERTEX
  8
7
  10
65.913
  20
-12.425
  0
VERTEX
  8
7
  10
65.964
  20
-12.349
  0
VERTEX
  8
7
  10
66.116
  20
-12.095
  0
VERTEX
  8
7
  10
66.320
  20
-11.764
  0
VERTEX
  8
7
  10
66.574
  20
-11.383
  0
VERTEX
  8
7
  10
66.828
  20
-10.977
  0
VERTEX
  8
7
  10
67.031
  20
-10.646
  0
VERTEX
  8
7
  10
67.184
  20
-10.392
  0
VERTEX
  8
7
  10
67.234
  20
-10.291
  0
VERTEX
  8
7
  10
67.412
  20
-10.240
  0
VERTEX
  8
7
  10
67.844
  20
-10.087
  0
VERTEX
  8
7
  10
68.479
  20
-9.884
  0
VERTEX
  8
7
  10
69.216
  20
-9.655
  0
VERTEX
  8
7
  10
69.953
  20
-9.401
  0
VERTEX
  8
7
  10
70.588
  20
-9.198
  0
VERTEX
  8
7
  10
71.020
  20
-9.045
  0
VERTEX
  8
7
  10
71.198
  20
-8.995
  0
SEQEND
  0
POLYLINE
  8
7
  6
CONTINUOUS
 66
  1
  0
VERTEX
  8
7
  10
48.965
  20
-7.953
  0
VERTEX
  8
7
  10
51.887
  20
-9.528
  0
VERTEX
  8
7
  10
53.996
  20
-6.632
  0
VERTEX
  8
7
  10
55.317
  20
-6.886
  0
VERTEX
  8
7
  10
53.742
  20
-10.036
  0
VERTEX
  8
7
  10
53.869
  20
-10.113
  0
VERTEX
  8
7
  10
54.224
  20
-10.291
  0
VERTEX
  8
7
  10
54.758
  20
-10.570
  0
VERTEX
  8
7
  10
55.470
  20
-10.926
  0
VERTEX
  8
7
  10
56.308
  20
-11.332
  0
VERTEX
  8
7
  10
57.248
  20
-11.815
  0
VERTEX
  8
7
  10
58.265
  20
-12.298
  0
VERTEX
  8
7
  10
59.306
  20
-12.832
  0
VERTEX
  8
7
  10
60.323
  20
-13.340
  0
VERTEX
  8
7
  10
61.339
  20
-13.848
  0
VERTEX
  8
7
  10
62.279
  20
-14.305
  0
VERTEX
  8
7
  10
63.118
  20
-14.712
  0
VERTEX
  8
7
  10
63.829
  20
-15.068
  0
VERTEX
  8
7
  10
64.363
  20
-15.347
  0
VERTEX
  8
7
  10
64.719
  20
-15.525
  0
VERTEX
  8
7
  10
64.846
  20
-15.576
  0
VERTEX
  8
7
  10
64.922
  20
-15.550
  0
VERTEX
  8
7
  10
65.176
  20
-15.474
  0
VERTEX
  8
7
  10
65.532
  20
-15.373
  0
VERTEX
  8
7
  10
66.015
  20
-15.220
  0
VERTEX
  8
7
  10
66.574
  20
-15.042
  0
VERTEX
  8
7
  10
67.184
  20
-14.839
  0
VERTEX
  8
7
  10
67.870
  20
-14.636
  0
VERTEX
  8
7
  10
68.556
  20
-14.407
  0
VERTEX
  8
7
  10
69.242
  20
-14.204
  0
VERTEX
  8
7
  10
69.928
  20
-13.975
  0
VERTEX
  8
7
  10
70.538
  20
-13.772
  0
VERTEX
  8
7
  10
71.097
  20
-13.594
  0
VERTEX
  8
7
  10
71.579
  20
-13.441
  0
VERTEX
  8
7
  10
71.935
  20
-13.314
  0
VERTEX
  8
7
  10
72.189
  20
-13.238
  0
VERTEX
  8
7
  10
72.266
  20
-13.213
  0
VERTEX
  8
7
  10
72.443
  20
-13.035
  0
VERTEX
  8
7
  10
72.875
  20
-12.527
  0
VERTEX
  8
7
  10
73.511
  20
-11.790
  0
VERTEX
  8
7
  10
74.248
  20
-10.977
  0
VERTEX
  8
7
  10
74.984
  20
-10.138
  0
VERTEX
  8
7
  10
75.620
  20
-9.401
  0
VERTEX
  8
7
  10
76.052
  20
-8.893
  0
VERTEX
  8
7
  10
76.230
  20
-8.690
  0
VERTEX
  8
7
  10
76.255
  20
-8.486
  0
VERTEX
  8
7
  10
76.357
  20
-7.927
  0
VERTEX
  8
7
  10
76.484
  20
-7.114
  0
VERTEX
  8
7
  10
76.636
  20
-6.200
  0
VERTEX
  8
7
  10
76.763
  20
-5.285
  0
VERTEX
  8
7
  10
76.890
  20
-4.497
  0
VERTEX
  8
7
  10
76.992
  20
-3.913
  0
VERTEX
  8
7
  10
77.017
  20
-3.709
  0
SEQEND
  0
POLYLINE
  8
7
  6
CONTINUOUS
 66
  1
  0
VERTEX
  8
7
  10
66.167
  20
-13.518
  0
VERTEX
  8
7
  10
69.623
  20
-11.942
  0
VERTEX
  8
7
  10
74.908
  20
-8.486
  0
SEQEND
  0
POLYLINE
  8
7
  6
CONTINUOUS
 66
  1
  0
VERTEX
  8
7
  10
66.955
  20
-17.227
  0
VERTEX
  8
7
  10
75.975
  20
-12.730
  0
SEQEND
  0
POLYLINE
  8
7
  6
CONTINUOUS
 66
  1
  0
VERTEX
  8
7
  10
20.658
  20
-53.310
  0
VERTEX
  8
7
  10
21.700
  20
-57.274
  0
VERTEX
  8
7
  10
19.616
  20
-61.238
  0
SEQEND
  0
POLYLINE
  8
7
  6
CONTINUOUS
 66
  1
  0
VERTEX
  8
7
  10
22.487
  20
-57.020
  0
VERTEX
  8
7
  10
24.622
  20
-53.843
  0
SEQEND
  0
POLYLINE
  8
7
  6
CONTINUOUS
 66
  1
  0
VERTEX
  8
7
  10
28.332
  20
-58.087
  0
VERTEX
  8
7
  10
32.016
  20
-53.310
  0
SEQEND
  0
POLYLINE
  8
7
  6
CONTINUOUS
 66
  1
  0
VERTEX
  8
7
  10
41.291
  20
-33.693
  0
VERTEX
  8
7
  10
42.612
  20
-31.025
  0
VERTEX
  8
7
  10
40.808
  20
-29.450
  0
VERTEX
  8
7
  10
43.146
  20
-28.916
  0
VERTEX
  8
7
  10
40.274
  20
-27.595
  0
VERTEX
  8
7
  10
40.224
  20
-27.646
  0
VERTEX
  8
7
  10
40.147
  20
-27.798
  0
VERTEX
  8
7
  10
39.995
  20
-28.001
  0
VERTEX
  8
7
  10
39.868
  20
-28.255
  0
VERTEX
  8
7
  10
39.715
  20
-28.510
  0
VERTEX
  8
7
  10
39.588
  20
-28.713
  0
VERTEX
  8
7
  10
39.512
  20
-28.865
  0
VERTEX
  8
7
  10
39.487
  20
-28.916
  0
VERTEX
  8
7
  10
39.410
  20
-28.967
  0
VERTEX
  8
7
  10
39.233
  20
-29.069
  0
VERTEX
  8
7
  10
38.978
  20
-29.246
  0
VERTEX
  8
7
  10
38.674
  20
-29.424
  0
VERTEX
  8
7
  10
38.394
  20
-29.628
  0
VERTEX
  8
7
  10
38.140
  20
-29.805
  0
VERTEX
  8
7
  10
37.962
  20
-29.907
  0
VERTEX
  8
7
  10
37.911
  20
-29.958
  0
VERTEX
  8
7
  10
37.886
  20
-30.263
  0
VERTEX
  8
7
  10
37.886
  20
-30.898
  0
VERTEX
  8
7
  10
37.886
  20
-31.533
  0
VERTEX
  8
7
  10
37.886
  20
-31.838
  0
SEQEND
  0
POLYLINE
  8
7
  6
CONTINUOUS
 66
  1
  0
VERTEX
  8
7
  10
47.643
  20
-36.336
  0
VERTEX
  8
7
  10
48.965
  20
-33.160
  0
VERTEX
  8
7
  10
47.440
  20
-32.626
  0
VERTEX
  8
7
  10
47.415
  20
-32.372
  0
VERTEX
  8
7
  10
47.415
  20
-31.813
  0
VERTEX
  8
7
  10
47.415
  20
-31.279
  0
VERTEX
  8
7
  10
47.440
  20
-31.025
  0
VERTEX
  8
7
  10
47.491
  20
-31.051
  0
VERTEX
  8
7
  10
47.618
  20
-31.101
  0
VERTEX
  8
7
  10
47.821
  20
-31.203
  0
VERTEX
  8
7
  10
48.075
  20
-31.279
  0
VERTEX
  8
7
  10
48.304
  20
-31.381
  0
VERTEX
  8
7
  10
48.507
  20
-31.482
  0
VERTEX
  8
7
  10
48.660
  20
-31.533
  0
VERTEX
  8
7
  10
48.710
  20
-31.559
  0
VERTEX
  8
7
  10
47.897
  20
-29.450
  0
VERTEX
  8
7
  10
46.119
  20
-30.491
  0
VERTEX
  8
7
  10
46.042
  20
-30.568
  0
VERTEX
  8
7
  10
45.890
  20
-30.746
  0
VERTEX
  8
7
  10
45.687
  20
-31.000
  0
VERTEX
  8
7
  10
45.433
  20
-31.279
  0
VERTEX
  8
7
  10
45.178
  20
-31.584
  0
VERTEX
  8
7
  10
44.975
  20
-31.838
  0
VERTEX
  8
7
  10
44.823
  20
-32.016
  0
VERTEX
  8
7
  10
44.772
  20
-32.092
  0
VERTEX
  8
7
  10
44.747
  20
-32.601
  0
VERTEX
  8
7
  10
44.747
  20
-33.668
  0
VERTEX
  8
7
  10
44.747
  20
-34.760
  0
VERTEX
  8
7
  10
44.747
  20
-35.269
  0
SEQEND
  0
ENDSEC
  0
EOF
