  0
SECTION
  2
HEADER
  9
$ACADVER
  1
AC1003
  9
$INSBASE
 10
0.0
 20
0.0
  9
$EXTMIN
 10
-6
 20
-6
  9
$EXTMAX
 10
6
 20
6
  9
$LIMMIN
 10
0.0
 20
0.0
  9
$LIMMAX
 10
12.0
 20
9.0
  9
$VIEWCTR
 10
7.378144
 20
4.5
  9
$VIEWSIZE
 40
9.0
  9
$SNAPMODE
 70
     0
  9
$SNAPUNIT
 10
1.0
 20
1.0
  9
$SNAPBASE
 10
0.0
 20
0.0
  9
$SNAPANG
 50
0.0
  9
$SNAPSTYLE
 70
     0
  9
$SNAPISOPAIR
 70
     0
  9
$GRIDMODE
 70
     0
  9
$GRIDUNIT
 10
0.0
 20
0.0
  9
$ORTHOMODE
 70
     0
  9
$REGENMODE
 70
     1
  9
$FILLMODE
 70
     1
  9
$QTEXTMODE
 70
     0
  9
$DRAGMODE
 70
     2
  9
$LTSCALE
 40
1.0
  9
$OSMODE
 70
     0
  9
$ATTMODE
 70
     1
  9
$TEXTSIZE
 40
0.2
  9
$TRACEWID
 40
0.05
  9
$TEXTSTYLE
  7
STANDARD
  9
$CLAYER
  8
0
  9
$CELTYPE
  6
BYLAYER
  9
$CECOLOR
 62
   256
  9
$DIMSCALE
 40
1.0
  9
$DIMASZ
 40
0.18
  9
$DIMEXO
 40
0.0625
  9
$DIMDLI
 40
0.38
  9
$DIMRND
 40
0.0
  9
$DIMDLE
 40
0.0
  9
$DIMEXE
 40
0.18
  9
$DIMTP
 40
0.0
  9
$DIMTM
 40
0.0
  9
$DIMTXT
 40
0.18
  9
$DIMCEN
 40
0.09
  9
$DIMTSZ
 40
0.0
  9
$DIMTOL
 70
     0
  9
$DIMLIM
 70
     0
  9
$DIMTIH
 70
     1
  9
$DIMTOH
 70
     1
  9
$DIMSE1
 70
     0
  9
$DIMSE2
 70
     0
  9
$DIMTAD
 70
     0
  9
$DIMZIN
 70
     0
  9
$DIMBLK
  1

  9
$DIMASO
 70
     1
  9
$DIMSHO
 70
     0
  9
$DIMPOST
  1

  9
$DIMAPOST
  1

  9
$DIMALT
 70
     0
  9
$DIMALTD
 70
     2
  9
$DIMALTF
 40
25.4
  9
$DIMLFAC
 40
1.0
  9
$LUNITS
 70
     2
  9
$LUPREC
 70
     4
  9
$AXISMODE
 70
     0
  9
$AXISUNIT
 10
0.0
 20
0.0
  9
$SKETCHINC
 40
0.1
  9
$FILLETRAD
 40
0.0
  9
$AUNITS
 70
     0
  9
$AUPREC
 70
     0
  9
$MENU
  1
ACAD
  9
$ELEVATION
 40
0.0
  9
$THICKNESS
 40
0.0
  9
$VIEWDIR
 10
0.0
 20
0.0
 30
1.0
  9
$LIMCHECK
 70
     0
  9
$BLIPMODE
 70
     1
  9
$CHAMFERA
 40
0.0
  9
$CHAMFERB
 40
0.0
  9
$FASTZOOM
 70
     1
  9
$SKPOLY
 70
     0
  9
$TDCREATE
 40
2447732.6512363921
  9
$TDUPDATE
 40
2447732.6512363921
  9
$TDINDWG
 40
0.0000000000
  9
$TDUSRTIMER
 40
0.0000000000
  9
$USRTIMER
 70
     1
  9
$ANGBASE
 50
0.0
  9
$ANGDIR
 70
     0
  9
$PDMODE
 70
     0
  9
$PDSIZE
 40
0.0
  9
$PLINEWID
 40
0.0
  9
$COORDS
 70
     0
  9
$USERI1
 70
     0
  9
$USERI2
 70
     0
  9
$USERI3
 70
     0
  9
$USERI4
 70
     0
  9
$USERI5
 70
     0
  9
$USERR1
 40
0.0
  9
$USERR2
 40
0.0
  9
$USERR3
 40
0.0
  9
$USERR4
 40
0.0
  9
$USERR5
 40
0.0
  0
ENDSEC
  0
SECTION
  2
TABLES
  0
TABLE
  2
LTYPE
  70
     2
  0
LTYPE
  2
CONTINUOUS
 70
    64
  3
Solid line
 72
    65
 73
     0
 40
0.0
  0
ENDTAB
  0
TABLE
  2
LAYER
 70
     9
  0
LAYER
  2
0
 70
     0
 62
     7
  6
CONTINUOUS
  0
LAYER
  2
1
 70
     0
 62
     1
  6
CONTINUOUS
  0
LAYER
  2
2
 70
     0
 62
     2
  6
CONTINUOUS
  0
LAYER
  2
3
 70
     0
 62
     3
  6
CONTINUOUS
  0
LAYER
  2
4
 70
     0
 62
     4
  6
CONTINUOUS
  0
LAYER
  2
5
 70
     0
 62
     5
  6
CONTINUOUS
  0
LAYER
  2
6
 70
     0
 62
     6
  6
CONTINUOUS
  0
LAYER
  2
7
 70
     0
 62
     7
  6
CONTINUOUS
  0
LAYER
  2
8
 70
     0
 62
     7
  6
CONTINUOUS
  0
ENDTAB
  0
TABLE
  2
STYLE
 70
     5
  0
STYLE
  2
STANDARD
 70
     0
 40
0.0
 41
1.0
 50
0.0
 71
     0
 42
0.2
  3
TXT
  4

  0
STYLE
  2
GREEK
 70
     0
 40
0.0
 41
1.0
 50
0.0
 71
     0
 42
0.2
  3
GREEKC
  4

  0
STYLE
  2
ITALICC
 70
     0
 40
0.0
 41
1.0
 50
0.0
 71
     0
 42
0.2
  3
ITALICC
  4

  0
STYLE
  2
MONOTXT
 70
     0
 40
0.0
 41
1.0
 50
0.0
 71
     0
 42
0.2
  3
MONOTXT
  4

  0
STYLE
  2
GOTHICE
 70
     0
 40
0.0
 41
1.0
 50
0.0
 71
     0
 42
0.2
  3
GOTHICE
  4

  0
ENDTAB
  0
TABLE
  2
VIEW
 70
     0
  0
ENDTAB
  0
ENDSEC
  0
SECTION
  2
BLOCKS
  0
ENDSEC
  0
SECTION
  2
ENTITIES
  0
POLYLINE
  8
7
  6
CONTINUOUS
 66
  1
  0
VERTEX
  8
7
  10
-3.432
  20
0.616
  0
VERTEX
  8
7
  10
-2.847
  20
0.964
  0
VERTEX
  8
7
  10
-3.136
  20
0.885
  0
VERTEX
  8
7
  10
-2.615
  20
1.211
  0
VERTEX
  8
7
  10
-2.355
  20
1.349
  0
VERTEX
  8
7
  10
-2.232
  20
1.334
  0
VERTEX
  8
7
  10
-2.160
  20
1.291
  0
VERTEX
  8
7
  10
-2.059
  20
1.240
  0
VERTEX
  8
7
  10
-1.922
  20
1.175
  0
VERTEX
  8
7
  10
-1.763
  20
1.066
  0
VERTEX
  8
7
  10
-1.633
  20
1.015
  0
VERTEX
  8
7
  10
-1.546
  20
0.964
  0
VERTEX
  8
7
  10
-1.373
  20
1.022
  0
VERTEX
  8
7
  10
-1.214
  20
1.080
  0
VERTEX
  8
7
  10
-1.077
  20
1.117
  0
VERTEX
  8
7
  10
-0.874
  20
1.117
  0
VERTEX
  8
7
  10
-0.636
  20
1.117
  0
VERTEX
  8
7
  10
-0.296
  20
1.037
  0
VERTEX
  8
7
  10
-0.051
  20
1.015
  0
VERTEX
  8
7
  10
0.101
  20
1.044
  0
VERTEX
  8
7
  10
0.311
  20
1.095
  0
VERTEX
  8
7
  10
0.101
  20
1.109
  0
VERTEX
  8
7
  10
0.000
  20
1.247
  0
VERTEX
  8
7
  10
0.260
  20
1.233
  0
VERTEX
  8
7
  10
0.079
  20
1.349
  0
VERTEX
  8
7
  10
0.361
  20
1.414
  0
VERTEX
  8
7
  10
0.152
  20
1.457
  0
VERTEX
  8
7
  10
0.426
  20
1.544
  0
VERTEX
  8
7
  10
0.506
  20
1.675
  0
VERTEX
  8
7
  10
0.708
  20
1.733
  0
VERTEX
  8
7
  10
0.983
  20
1.979
  0
VERTEX
  8
7
  10
1.250
  20
2.095
  0
VERTEX
  8
7
  10
1.467
  20
2.168
  0
VERTEX
  8
7
  10
1.878
  20
2.211
  0
VERTEX
  8
7
  10
2.023
  20
2.204
  0
VERTEX
  8
7
  10
2.124
  20
2.262
  0
VERTEX
  8
7
  10
2.110
  20
2.182
  0
VERTEX
  8
7
  10
2.247
  20
2.248
  0
VERTEX
  8
7
  10
2.189
  20
2.074
  0
VERTEX
  8
7
  10
2.211
  20
1.987
  0
VERTEX
  8
7
  10
2.211
  20
1.885
  0
VERTEX
  8
7
  10
2.298
  20
1.784
  0
VERTEX
  8
7
  10
2.334
  20
1.740
  0
VERTEX
  8
7
  10
2.326
  20
1.639
  0
VERTEX
  8
7
  10
2.391
  20
1.465
  0
VERTEX
  8
7
  10
2.500
  20
1.327
  0
VERTEX
  8
7
  10
2.587
  20
1.218
  0
VERTEX
  8
7
  10
2.623
  20
1.088
  0
VERTEX
  8
7
  10
2.594
  20
0.993
  0
VERTEX
  8
7
  10
2.521
  20
0.906
  0
VERTEX
  8
7
  10
2.413
  20
0.914
  0
VERTEX
  8
7
  10
2.334
  20
0.928
  0
VERTEX
  8
7
  10
2.276
  20
0.979
  0
VERTEX
  8
7
  10
2.095
  20
1.095
  0
VERTEX
  8
7
  10
1.929
  20
1.240
  0
VERTEX
  8
7
  10
1.835
  20
1.291
  0
VERTEX
  8
7
  10
1.705
  20
1.247
  0
VERTEX
  8
7
  10
1.604
  20
1.059
  0
VERTEX
  8
7
  10
1.510
  20
0.798
  0
VERTEX
  8
7
  10
1.474
  20
0.653
  0
VERTEX
  8
7
  10
1.524
  20
0.531
  0
VERTEX
  8
7
  10
1.526
  20
0.523
  0
VERTEX
  8
7
  10
1.532
  20
0.503
  0
VERTEX
  8
7
  10
1.540
  20
0.475
  0
VERTEX
  8
7
  10
1.550
  20
0.443
  0
VERTEX
  8
7
  10
1.559
  20
0.411
  0
VERTEX
  8
7
  10
1.567
  20
0.384
  0
VERTEX
  8
7
  10
1.573
  20
0.364
  0
VERTEX
  8
7
  10
1.575
  20
0.357
  0
VERTEX
  8
7
  10
1.573
  20
0.348
  0
VERTEX
  8
7
  10
1.569
  20
0.325
  0
VERTEX
  8
7
  10
1.564
  20
0.292
  0
VERTEX
  8
7
  10
1.557
  20
0.255
  0
VERTEX
  8
7
  10
1.550
  20
0.218
  0
VERTEX
  8
7
  10
1.545
  20
0.185
  0
VERTEX
  8
7
  10
1.541
  20
0.162
  0
VERTEX
  8
7
  10
1.539
  20
0.154
  0
VERTEX
  8
7
  10
1.535
  20
0.148
  0
VERTEX
  8
7
  10
1.524
  20
0.133
  0
VERTEX
  8
7
  10
1.509
  20
0.112
  0
VERTEX
  8
7
  10
1.492
  20
0.088
  0
VERTEX
  8
7
  10
1.475
  20
0.064
  0
VERTEX
  8
7
  10
1.460
  20
0.044
  0
VERTEX
  8
7
  10
1.449
  20
0.029
  0
VERTEX
  8
7
  10
1.445
  20
0.024
  0
VERTEX
  8
7
  10
1.449
  20
0.019
  0
VERTEX
  8
7
  10
1.460
  20
0.005
  0
VERTEX
  8
7
  10
1.475
  20
-0.013
  0
VERTEX
  8
7
  10
1.492
  20
-0.035
  0
VERTEX
  8
7
  10
1.509
  20
-0.056
  0
VERTEX
  8
7
  10
1.524
  20
-0.074
  0
VERTEX
  8
7
  10
1.535
  20
-0.087
  0
VERTEX
  8
7
  10
1.539
  20
-0.092
  0
VERTEX
  8
7
  10
1.546
  20
-0.098
  0
VERTEX
  8
7
  10
1.564
  20
-0.113
  0
VERTEX
  8
7
  10
1.589
  20
-0.134
  0
VERTEX
  8
7
  10
1.619
  20
-0.158
  0
VERTEX
  8
7
  10
1.648
  20
-0.182
  0
VERTEX
  8
7
  10
1.673
  20
-0.203
  0
VERTEX
  8
7
  10
1.691
  20
-0.218
  0
VERTEX
  8
7
  10
1.698
  20
-0.223
  0
VERTEX
  8
7
  10
1.700
  20
-0.225
  0
VERTEX
  8
7
  10
1.707
  20
-0.230
  0
VERTEX
  8
7
  10
1.717
  20
-0.237
  0
VERTEX
  8
7
  10
1.730
  20
-0.246
  0
VERTEX
  8
7
  10
1.745
  20
-0.257
  0
VERTEX
  8
7
  10
1.762
  20
-0.270
  0
VERTEX
  8
7
  10
1.780
  20
-0.283
  0
VERTEX
  8
7
  10
1.799
  20
-0.296
  0
VERTEX
  8
7
  10
1.818
  20
-0.310
  0
VERTEX
  8
7
  10
1.836
  20
-0.323
  0
VERTEX
  8
7
  10
1.853
  20
-0.335
  0
VERTEX
  8
7
  10
1.868
  20
-0.346
  0
VERTEX
  8
7
  10
1.881
  20
-0.355
  0
VERTEX
  8
7
  10
1.891
  20
-0.362
  0
VERTEX
  8
7
  10
1.898
  20
-0.367
  0
VERTEX
  8
7
  10
1.900
  20
-0.368
  0
VERTEX
  8
7
  10
1.903
  20
-0.370
  0
VERTEX
  8
7
  10
1.910
  20
-0.375
  0
VERTEX
  8
7
  10
1.921
  20
-0.382
  0
VERTEX
  8
7
  10
1.933
  20
-0.390
  0
VERTEX
  8
7
  10
1.944
  20
-0.398
  0
VERTEX
  8
7
  10
1.955
  20
-0.405
  0
VERTEX
  8
7
  10
1.962
  20
-0.409
  0
VERTEX
  8
7
  10
1.965
  20
-0.411
  0
VERTEX
  8
7
  10
1.970
  20
-0.441
  0
VERTEX
  8
7
  10
1.980
  20
-0.506
  0
VERTEX
  8
7
  10
1.989
  20
-0.571
  0
VERTEX
  8
7
  10
1.994
  20
-0.600
  0
VERTEX
  8
7
  10
1.990
  20
-0.610
  0
VERTEX
  8
7
  10
1.979
  20
-0.636
  0
VERTEX
  8
7
  10
1.964
  20
-0.672
  0
VERTEX
  8
7
  10
1.947
  20
-0.713
  0
VERTEX
  8
7
  10
1.930
  20
-0.755
  0
VERTEX
  8
7
  10
1.915
  20
-0.790
  0
VERTEX
  8
7
  10
1.904
  20
-0.816
  0
VERTEX
  8
7
  10
1.900
  20
-0.825
  0
VERTEX
  8
7
  10
1.895
  20
-0.835
  0
VERTEX
  8
7
  10
1.882
  20
-0.859
  0
VERTEX
  8
7
  10
1.864
  20
-0.894
  0
VERTEX
  8
7
  10
1.843
  20
-0.934
  0
VERTEX
  8
7
  10
1.821
  20
-0.974
  0
VERTEX
  8
7
  10
1.803
  20
-1.009
  0
VERTEX
  8
7
  10
1.790
  20
-1.033
  0
VERTEX
  8
7
  10
1.785
  20
-1.042
  0
VERTEX
  8
7
  10
1.783
  20
-1.045
  0
VERTEX
  8
7
  10
1.777
  20
-1.054
  0
VERTEX
  8
7
  10
1.769
  20
-1.066
  0
VERTEX
  8
7
  10
1.760
  20
-1.079
  0
VERTEX
  8
7
  10
1.750
  20
-1.093
  0
VERTEX
  8
7
  10
1.742
  20
-1.104
  0
VERTEX
  8
7
  10
1.736
  20
-1.112
  0
VERTEX
  8
7
  10
1.734
  20
-1.115
  0
VERTEX
  8
7
  10
1.729
  20
-1.117
  0
VERTEX
  8
7
  10
1.717
  20
-1.123
  0
VERTEX
  8
7
  10
1.700
  20
-1.132
  0
VERTEX
  8
7
  10
1.680
  20
-1.141
  0
VERTEX
  8
7
  10
1.660
  20
-1.150
  0
VERTEX
  8
7
  10
1.643
  20
-1.158
  0
VERTEX
  8
7
  10
1.631
  20
-1.163
  0
VERTEX
  8
7
  10
1.626
  20
-1.165
  0
VERTEX
  8
7
  10
1.623
  20
-1.169
  0
VERTEX
  8
7
  10
1.614
  20
-1.178
  0
VERTEX
  8
7
  10
1.601
  20
-1.191
  0
VERTEX
  8
7
  10
1.586
  20
-1.206
  0
VERTEX
  8
7
  10
1.571
  20
-1.220
  0
VERTEX
  8
7
  10
1.559
  20
-1.233
  0
VERTEX
  8
7
  10
1.549
  20
-1.242
  0
VERTEX
  8
7
  10
1.546
  20
-1.245
  0
VERTEX
  8
7
  10
1.543
  20
-1.247
  0
VERTEX
  8
7
  10
1.534
  20
-1.250
  0
VERTEX
  8
7
  10
1.521
  20
-1.255
  0
VERTEX
  8
7
  10
1.507
  20
-1.260
  0
VERTEX
  8
7
  10
1.492
  20
-1.266
  0
VERTEX
  8
7
  10
1.479
  20
-1.270
  0
VERTEX
  8
7
  10
1.470
  20
-1.273
  0
VERTEX
  8
7
  10
1.467
  20
-1.274
  0
VERTEX
  8
7
  10
1.465
  20
-1.275
  0
VERTEX
  8
7
  10
1.459
  20
-1.276
  0
VERTEX
  8
7
  10
1.450
  20
-1.278
  0
VERTEX
  8
7
  10
1.438
  20
-1.280
  0
VERTEX
  8
7
  10
1.423
  20
-1.283
  0
VERTEX
  8
7
  10
1.408
  20
-1.286
  0
VERTEX
  8
7
  10
1.391
  20
-1.289
  0
VERTEX
  8
7
  10
1.373
  20
-1.293
  0
VERTEX
  8
7
  10
1.355
  20
-1.296
  0
VERTEX
  8
7
  10
1.338
  20
-1.299
  0
VERTEX
  8
7
  10
1.323
  20
-1.302
  0
VERTEX
  8
7
  10
1.308
  20
-1.305
  0
VERTEX
  8
7
  10
1.296
  20
-1.307
  0
VERTEX
  8
7
  10
1.287
  20
-1.309
  0
VERTEX
  8
7
  10
1.281
  20
-1.310
  0
VERTEX
  8
7
  10
1.279
  20
-1.310
  0
VERTEX
  8
7
  10
1.284
  20
-1.286
  0
VERTEX
  8
7
  10
1.294
  20
-1.231
  0
VERTEX
  8
7
  10
1.303
  20
-1.176
  0
VERTEX
  8
7
  10
1.308
  20
-1.151
  0
VERTEX
  8
7
  10
1.311
  20
-1.146
  0
VERTEX
  8
7
  10
1.318
  20
-1.133
  0
VERTEX
  8
7
  10
1.329
  20
-1.115
  0
VERTEX
  8
7
  10
1.341
  20
-1.094
  0
VERTEX
  8
7
  10
1.352
  20
-1.072
  0
VERTEX
  8
7
  10
1.363
  20
-1.054
  0
VERTEX
  8
7
  10
1.370
  20
-1.040
  0
VERTEX
  8
7
  10
1.373
  20
-1.035
  0
VERTEX
  8
7
  10
1.377
  20
-1.034
  0
VERTEX
  8
7
  10
1.388
  20
-1.032
  0
VERTEX
  8
7
  10
1.403
  20
-1.029
  0
VERTEX
  8
7
  10
1.420
  20
-1.025
  0
VERTEX
  8
7
  10
1.437
  20
-1.021
  0
VERTEX
  8
7
  10
1.452
  20
-1.017
  0
VERTEX
  8
7
  10
1.463
  20
-1.014
  0
VERTEX
  8
7
  10
1.467
  20
-1.013
  0
VERTEX
  8
7
  10
1.471
  20
-1.013
  0
VERTEX
  8
7
  10
1.480
  20
-1.012
  0
VERTEX
  8
7
  10
1.494
  20
-1.011
  0
VERTEX
  8
7
  10
1.510
  20
-1.010
  0
VERTEX
  8
7
  10
1.526
  20
-1.009
  0
VERTEX
  8
7
  10
1.540
  20
-1.008
  0
VERTEX
  8
7
  10
1.549
  20
-1.007
  0
VERTEX
  8
7
  10
1.553
  20
-1.006
  0
VERTEX
  8
7
  10
1.557
  20
-1.002
  0
VERTEX
  8
7
  10
1.568
  20
-0.990
  0
VERTEX
  8
7
  10
1.583
  20
-0.972
  0
VERTEX
  8
7
  10
1.600
  20
-0.952
  0
VERTEX
  8
7
  10
1.617
  20
-0.932
  0
VERTEX
  8
7
  10
1.632
  20
-0.915
  0
VERTEX
  8
7
  10
1.643
  20
-0.902
  0
VERTEX
  8
7
  10
1.647
  20
-0.897
  0
VERTEX
  8
7
  10
1.650
  20
-0.890
  0
VERTEX
  8
7
  10
1.660
  20
-0.873
  0
VERTEX
  8
7
  10
1.672
  20
-0.847
  0
VERTEX
  8
7
  10
1.687
  20
-0.818
  0
VERTEX
  8
7
  10
1.702
  20
-0.789
  0
VERTEX
  8
7
  10
1.715
  20
-0.763
  0
VERTEX
  8
7
  10
1.724
  20
-0.745
  0
VERTEX
  8
7
  10
1.727
  20
-0.738
  0
VERTEX
  8
7
  10
1.730
  20
-0.732
  0
VERTEX
  8
7
  10
1.738
  20
-0.715
  0
VERTEX
  8
7
  10
1.750
  20
-0.690
  0
VERTEX
  8
7
  10
1.763
  20
-0.662
  0
VERTEX
  8
7
  10
1.776
  20
-0.634
  0
VERTEX
  8
7
  10
1.788
  20
-0.609
  0
VERTEX
  8
7
  10
1.796
  20
-0.592
  0
VERTEX
  8
7
  10
1.799
  20
-0.585
  0
VERTEX
  8
7
  10
1.796
  20
-0.581
  0
VERTEX
  8
7
  10
1.788
  20
-0.569
  0
VERTEX
  8
7
  10
1.776
  20
-0.552
  0
VERTEX
  8
7
  10
1.763
  20
-0.532
  0
VERTEX
  8
7
  10
1.750
  20
-0.512
  0
VERTEX
  8
7
  10
1.738
  20
-0.494
  0
VERTEX
  8
7
  10
1.730
  20
-0.482
  0
VERTEX
  8
7
  10
1.727
  20
-0.477
  0
VERTEX
  8
7
  10
1.725
  20
-0.477
  0
VERTEX
  8
7
  10
1.720
  20
-0.476
  0
VERTEX
  8
7
  10
1.712
  20
-0.475
  0
VERTEX
  8
7
  10
1.701
  20
-0.473
  0
VERTEX
  8
7
  10
1.688
  20
-0.471
  0
VERTEX
  8
7
  10
1.674
  20
-0.469
  0
VERTEX
  8
7
  10
1.659
  20
-0.466
  0
VERTEX
  8
7
  10
1.644
  20
-0.463
  0
VERTEX
  8
7
  10
1.629
  20
-0.461
  0
VERTEX
  8
7
  10
1.614
  20
-0.458
  0
VERTEX
  8
7
  10
1.600
  20
-0.455
  0
VERTEX
  8
7
  10
1.587
  20
-0.453
  0
VERTEX
  8
7
  10
1.576
  20
-0.451
  0
VERTEX
  8
7
  10
1.568
  20
-0.450
  0
VERTEX
  8
7
  10
1.563
  20
-0.449
  0
VERTEX
  8
7
  10
1.561
  20
-0.448
  0
VERTEX
  8
7
  10
1.558
  20
-0.448
  0
VERTEX
  8
7
  10
1.551
  20
-0.446
  0
VERTEX
  8
7
  10
1.540
  20
-0.444
  0
VERTEX
  8
7
  10
1.526
  20
-0.442
  0
VERTEX
  8
7
  10
1.509
  20
-0.438
  0
VERTEX
  8
7
  10
1.490
  20
-0.435
  0
VERTEX
  8
7
  10
1.470
  20
-0.431
  0
VERTEX
  8
7
  10
1.449
  20
-0.427
  0
VERTEX
  8
7
  10
1.428
  20
-0.423
  0
VERTEX
  8
7
  10
1.408
  20
-0.419
  0
VERTEX
  8
7
  10
1.389
  20
-0.415
  0
VERTEX
  8
7
  10
1.372
  20
-0.411
  0
VERTEX
  8
7
  10
1.358
  20
-0.409
  0
VERTEX
  8
7
  10
1.347
  20
-0.406
  0
VERTEX
  8
7
  10
1.340
  20
-0.405
  0
VERTEX
  8
7
  10
1.337
  20
-0.404
  0
VERTEX
  8
7
  10
1.331
  20
-0.400
  0
VERTEX
  8
7
  10
1.315
  20
-0.388
  0
VERTEX
  8
7
  10
1.293
  20
-0.370
  0
VERTEX
  8
7
  10
1.268
  20
-0.350
  0
VERTEX
  8
7
  10
1.243
  20
-0.330
  0
VERTEX
  8
7
  10
1.221
  20
-0.313
  0
VERTEX
  8
7
  10
1.205
  20
-0.300
  0
VERTEX
  8
7
  10
1.199
  20
-0.295
  0
VERTEX
  8
7
  10
1.192
  20
-0.297
  0
VERTEX
  8
7
  10
1.174
  20
-0.300
  0
VERTEX
  8
7
  10
1.149
  20
-0.305
  0
VERTEX
  8
7
  10
1.120
  20
-0.310
  0
VERTEX
  8
7
  10
1.090
  20
-0.316
  0
VERTEX
  8
7
  10
1.065
  20
-0.320
  0
VERTEX
  8
7
  10
1.047
  20
-0.323
  0
VERTEX
  8
7
  10
1.040
  20
-0.324
  0
VERTEX
  8
7
  10
1.040
  20
-0.346
  0
VERTEX
  8
7
  10
1.040
  20
-0.394
  0
VERTEX
  8
7
  10
1.040
  20
-0.441
  0
VERTEX
  8
7
  10
1.040
  20
-0.462
  0
VERTEX
  8
7
  10
1.043
  20
-0.471
  0
VERTEX
  8
7
  10
1.053
  20
-0.494
  0
VERTEX
  8
7
  10
1.065
  20
-0.527
  0
VERTEX
  8
7
  10
1.080
  20
-0.564
  0
VERTEX
  8
7
  10
1.095
  20
-0.601
  0
VERTEX
  8
7
  10
1.108
  20
-0.634
  0
VERTEX
  8
7
  10
1.117
  20
-0.657
  0
VERTEX
  8
7
  10
1.120
  20
-0.665
  0
VERTEX
  8
7
  10
1.124
  20
-0.672
  0
VERTEX
  8
7
  10
1.134
  20
-0.688
  0
VERTEX
  8
7
  10
1.148
  20
-0.712
  0
VERTEX
  8
7
  10
1.164
  20
-0.738
  0
VERTEX
  8
7
  10
1.179
  20
-0.765
  0
VERTEX
  8
7
  10
1.193
  20
-0.788
  0
VERTEX
  8
7
  10
1.203
  20
-0.804
  0
VERTEX
  8
7
  10
1.207
  20
-0.810
  0
VERTEX
  8
7
  10
1.209
  20
-0.818
  0
VERTEX
  8
7
  10
1.215
  20
-0.838
  0
VERTEX
  8
7
  10
1.223
  20
-0.866
  0
VERTEX
  8
7
  10
1.232
  20
-0.898
  0
VERTEX
  8
7
  10
1.241
  20
-0.930
  0
VERTEX
  8
7
  10
1.249
  20
-0.957
  0
VERTEX
  8
7
  10
1.255
  20
-0.977
  0
VERTEX
  8
7
  10
1.257
  20
-0.984
  0
VERTEX
  8
7
  10
1.255
  20
-0.990
  0
VERTEX
  8
7
  10
1.251
  20
-1.004
  0
VERTEX
  8
7
  10
1.246
  20
-1.024
  0
VERTEX
  8
7
  10
1.239
  20
-1.046
  0
VERTEX
  8
7
  10
1.232
  20
-1.069
  0
VERTEX
  8
7
  10
1.227
  20
-1.088
  0
VERTEX
  8
7
  10
1.223
  20
-1.102
  0
VERTEX
  8
7
  10
1.221
  20
-1.107
  0
VERTEX
  8
7
  10
1.216
  20
-1.111
  0
VERTEX
  8
7
  10
1.202
  20
-1.122
  0
VERTEX
  8
7
  10
1.182
  20
-1.138
  0
VERTEX
  8
7
  10
1.160
  20
-1.155
  0
VERTEX
  8
7
  10
1.137
  20
-1.173
  0
VERTEX
  8
7
  10
1.117
  20
-1.188
  0
VERTEX
  8
7
  10
1.103
  20
-1.198
  0
VERTEX
  8
7
  10
1.098
  20
-1.202
  0
VERTEX
  8
7
  10
1.096
  20
-1.203
  0
VERTEX
  8
7
  10
1.090
  20
-1.206
  0
VERTEX
  8
7
  10
1.080
  20
-1.210
  0
VERTEX
  8
7
  10
1.068
  20
-1.215
  0
VERTEX
  8
7
  10
1.053
  20
-1.221
  0
VERTEX
  8
7
  10
1.036
  20
-1.228
  0
VERTEX
  8
7
  10
1.019
  20
-1.235
  0
VERTEX
  8
7
  10
1.001
  20
-1.242
  0
VERTEX
  8
7
  10
0.982
  20
-1.250
  0
VERTEX
  8
7
  10
0.965
  20
-1.257
  0
VERTEX
  8
7
  10
0.948
  20
-1.263
  0
VERTEX
  8
7
  10
0.933
  20
-1.269
  0
VERTEX
  8
7
  10
0.921
  20
-1.274
  0
VERTEX
  8
7
  10
0.911
  20
-1.278
  0
VERTEX
  8
7
  10
0.905
  20
-1.280
  0
VERTEX
  8
7
  10
0.903
  20
-1.281
  0
VERTEX
  8
7
  10
0.900
  20
-1.282
  0
VERTEX
  8
7
  10
0.893
  20
-1.284
  0
VERTEX
  8
7
  10
0.882
  20
-1.286
  0
VERTEX
  8
7
  10
0.867
  20
-1.290
  0
VERTEX
  8
7
  10
0.849
  20
-1.293
  0
VERTEX
  8
7
  10
0.830
  20
-1.298
  0
VERTEX
  8
7
  10
0.809
  20
-1.302
  0
VERTEX
  8
7
  10
0.788
  20
-1.307
  0
VERTEX
  8
7
  10
0.766
  20
-1.312
  0
VERTEX
  8
7
  10
0.745
  20
-1.317
  0
VERTEX
  8
7
  10
0.726
  20
-1.321
  0
VERTEX
  8
7
  10
0.708
  20
-1.325
  0
VERTEX
  8
7
  10
0.693
  20
-1.328
  0
VERTEX
  8
7
  10
0.682
  20
-1.330
  0
VERTEX
  8
7
  10
0.675
  20
-1.332
  0
VERTEX
  8
7
  10
0.672
  20
-1.332
  0
VERTEX
  8
7
  10
0.670
  20
-1.332
  0
VERTEX
  8
7
  10
0.665
  20
-1.332
  0
VERTEX
  8
7
  10
0.656
  20
-1.332
  0
VERTEX
  8
7
  10
0.645
  20
-1.333
  0
VERTEX
  8
7
  10
0.632
  20
-1.333
  0
VERTEX
  8
7
  10
0.617
  20
-1.333
  0
VERTEX
  8
7
  10
0.602
  20
-1.333
  0
VERTEX
  8
7
  10
0.586
  20
-1.333
  0
VERTEX
  8
7
  10
0.569
  20
-1.333
  0
VERTEX
  8
7
  10
0.554
  20
-1.333
  0
VERTEX
  8
7
  10
0.539
  20
-1.333
  0
VERTEX
  8
7
  10
0.526
  20
-1.333
  0
VERTEX
  8
7
  10
0.515
  20
-1.332
  0
VERTEX
  8
7
  10
0.506
  20
-1.332
  0
VERTEX
  8
7
  10
0.501
  20
-1.332
  0
VERTEX
  8
7
  10
0.499
  20
-1.332
  0
VERTEX
  8
7
  10
0.494
  20
-1.333
  0
VERTEX
  8
7
  10
0.480
  20
-1.336
  0
VERTEX
  8
7
  10
0.460
  20
-1.340
  0
VERTEX
  8
7
  10
0.438
  20
-1.344
  0
VERTEX
  8
7
  10
0.415
  20
-1.348
  0
VERTEX
  8
7
  10
0.395
  20
-1.351
  0
VERTEX
  8
7
  10
0.381
  20
-1.353
  0
VERTEX
  8
7
  10
0.376
  20
-1.354
  0
VERTEX
  8
7
  10
0.369
  20
-1.355
  0
VERTEX
  8
7
  10
0.352
  20
-1.358
  0
VERTEX
  8
7
  10
0.328
  20
-1.362
  0
VERTEX
  8
7
  10
0.300
  20
-1.366
  0
VERTEX
  8
7
  10
0.272
  20
-1.370
  0
VERTEX
  8
7
  10
0.248
  20
-1.373
  0
VERTEX
  8
7
  10
0.231
  20
-1.375
  0
VERTEX
  8
7
  10
0.224
  20
-1.376
  0
VERTEX
  8
7
  10
0.227
  20
-1.368
  0
VERTEX
  8
7
  10
0.235
  20
-1.345
  0
VERTEX
  8
7
  10
0.247
  20
-1.312
  0
VERTEX
  8
7
  10
0.260
  20
-1.275
  0
VERTEX
  8
7
  10
0.273
  20
-1.238
  0
VERTEX
  8
7
  10
0.285
  20
-1.205
  0
VERTEX
  8
7
  10
0.293
  20
-1.182
  0
VERTEX
  8
7
  10
0.296
  20
-1.173
  0
VERTEX
  8
7
  10
0.299
  20
-1.171
  0
VERTEX
  8
7
  10
0.307
  20
-1.166
  0
VERTEX
  8
7
  10
0.319
  20
-1.158
  0
VERTEX
  8
7
  10
0.332
  20
-1.148
  0
VERTEX
  8
7
  10
0.345
  20
-1.139
  0
VERTEX
  8
7
  10
0.357
  20
-1.131
  0
VERTEX
  8
7
  10
0.365
  20
-1.125
  0
VERTEX
  8
7
  10
0.368
  20
-1.122
  0
VERTEX
  8
7
  10
0.373
  20
-1.123
  0
VERTEX
  8
7
  10
0.386
  20
-1.124
  0
VERTEX
  8
7
  10
0.405
  20
-1.125
  0
VERTEX
  8
7
  10
0.426
  20
-1.126
  0
VERTEX
  8
7
  10
0.447
  20
-1.127
  0
VERTEX
  8
7
  10
0.466
  20
-1.128
  0
VERTEX
  8
7
  10
0.479
  20
-1.129
  0
VERTEX
  8
7
  10
0.484
  20
-1.129
  0
VERTEX
  8
7
  10
0.486
  20
-1.131
  0
VERTEX
  8
7
  10
0.493
  20
-1.134
  0
VERTEX
  8
7
  10
0.502
  20
-1.139
  0
VERTEX
  8
7
  10
0.513
  20
-1.144
  0
VERTEX
  8
7
  10
0.524
  20
-1.150
  0
VERTEX
  8
7
  10
0.533
  20
-1.154
  0
VERTEX
  8
7
  10
0.540
  20
-1.157
  0
VERTEX
  8
7
  10
0.542
  20
-1.158
  0
VERTEX
  8
7
  10
0.544
  20
-1.160
  0
VERTEX
  8
7
  10
0.549
  20
-1.164
  0
VERTEX
  8
7
  10
0.556
  20
-1.170
  0
VERTEX
  8
7
  10
0.564
  20
-1.177
  0
VERTEX
  8
7
  10
0.571
  20
-1.183
  0
VERTEX
  8
7
  10
0.578
  20
-1.189
  0
VERTEX
  8
7
  10
0.583
  20
-1.193
  0
VERTEX
  8
7
  10
0.585
  20
-1.194
  0
VERTEX
  8
7
  10
0.590
  20
-1.193
  0
VERTEX
  8
7
  10
0.603
  20
-1.190
  0
VERTEX
  8
7
  10
0.622
  20
-1.186
  0
VERTEX
  8
7
  10
0.643
  20
-1.180
  0
VERTEX
  8
7
  10
0.664
  20
-1.175
  0
VERTEX
  8
7
  10
0.683
  20
-1.170
  0
VERTEX
  8
7
  10
0.696
  20
-1.167
  0
VERTEX
  8
7
  10
0.701
  20
-1.165
  0
VERTEX
  8
7
  10
0.706
  20
-1.163
  0
VERTEX
  8
7
  10
0.720
  20
-1.158
  0
VERTEX
  8
7
  10
0.740
  20
-1.150
  0
VERTEX
  8
7
  10
0.763
  20
-1.141
  0
VERTEX
  8
7
  10
0.785
  20
-1.132
  0
VERTEX
  8
7
  10
0.805
  20
-1.123
  0
VERTEX
  8
7
  10
0.819
  20
-1.117
  0
VERTEX
  8
7
  10
0.824
  20
-1.115
  0
VERTEX
  8
7
  10
0.830
  20
-1.113
  0
VERTEX
  8
7
  10
0.847
  20
-1.106
  0
VERTEX
  8
7
  10
0.870
  20
-1.097
  0
VERTEX
  8
7
  10
0.896
  20
-1.087
  0
VERTEX
  8
7
  10
0.922
  20
-1.076
  0
VERTEX
  8
7
  10
0.946
  20
-1.067
  0
VERTEX
  8
7
  10
0.962
  20
-1.060
  0
VERTEX
  8
7
  10
0.968
  20
-1.057
  0
VERTEX
  8
7
  10
0.970
  20
-1.054
  0
VERTEX
  8
7
  10
0.977
  20
-1.047
  0
VERTEX
  8
7
  10
0.986
  20
-1.037
  0
VERTEX
  8
7
  10
0.997
  20
-1.025
  0
VERTEX
  8
7
  10
1.008
  20
-1.013
  0
VERTEX
  8
7
  10
1.017
  20
-1.002
  0
VERTEX
  8
7
  10
1.024
  20
-0.994
  0
VERTEX
  8
7
  10
1.026
  20
-0.991
  0
VERTEX
  8
7
  10
1.024
  20
-0.989
  0
VERTEX
  8
7
  10
1.019
  20
-0.982
  0
VERTEX
  8
7
  10
1.011
  20
-0.971
  0
VERTEX
  8
7
  10
1.000
  20
-0.957
  0
VERTEX
  8
7
  10
0.987
  20
-0.940
  0
VERTEX
  8
7
  10
0.973
  20
-0.921
  0
VERTEX
  8
7
  10
0.958
  20
-0.901
  0
VERTEX
  8
7
  10
0.943
  20
-0.880
  0
VERTEX
  8
7
  10
0.928
  20
-0.859
  0
VERTEX
  8
7
  10
0.913
  20
-0.839
  0
VERTEX
  8
7
  10
0.899
  20
-0.820
  0
VERTEX
  8
7
  10
0.886
  20
-0.803
  0
VERTEX
  8
7
  10
0.875
  20
-0.788
  0
VERTEX
  8
7
  10
0.867
  20
-0.777
  0
VERTEX
  8
7
  10
0.862
  20
-0.770
  0
VERTEX
  8
7
  10
0.860
  20
-0.767
  0
VERTEX
  8
7
  10
0.854
  20
-0.757
  0
VERTEX
  8
7
  10
0.837
  20
-0.731
  0
VERTEX
  8
7
  10
0.814
  20
-0.694
  0
VERTEX
  8
7
  10
0.788
  20
-0.652
  0
VERTEX
  8
7
  10
0.761
  20
-0.609
  0
VERTEX
  8
7
  10
0.738
  20
-0.572
  0
VERTEX
  8
7
  10
0.721
  20
-0.545
  0
VERTEX
  8
7
  10
0.715
  20
-0.535
  0
VERTEX
  8
7
  10
0.713
  20
-0.533
  0
VERTEX
  8
7
  10
0.707
  20
-0.526
  0
VERTEX
  8
7
  10
0.698
  20
-0.515
  0
VERTEX
  8
7
  10
0.686
  20
-0.500
  0
VERTEX
  8
7
  10
0.671
  20
-0.483
  0
VERTEX
  8
7
  10
0.656
  20
-0.465
  0
VERTEX
  8
7
  10
0.639
  20
-0.444
  0
VERTEX
  8
7
  10
0.621
  20
-0.423
  0
VERTEX
  8
7
  10
0.603
  20
-0.402
  0
VERTEX
  8
7
  10
0.586
  20
-0.382
  0
VERTEX
  8
7
  10
0.571
  20
-0.363
  0
VERTEX
  8
7
  10
0.556
  20
-0.346
  0
VERTEX
  8
7
  10
0.544
  20
-0.331
  0
VERTEX
  8
7
  10
0.535
  20
-0.320
  0
VERTEX
  8
7
  10
0.529
  20
-0.313
  0
VERTEX
  8
7
  10
0.527
  20
-0.310
  0
VERTEX
  8
7
  10
0.523
  20
-0.307
  0
VERTEX
  8
7
  10
0.511
  20
-0.297
  0
VERTEX
  8
7
  10
0.495
  20
-0.283
  0
VERTEX
  8
7
  10
0.477
  20
-0.267
  0
VERTEX
  8
7
  10
0.458
  20
-0.251
  0
VERTEX
  8
7
  10
0.442
  20
-0.237
  0
VERTEX
  8
7
  10
0.430
  20
-0.227
  0
VERTEX
  8
7
  10
0.426
  20
-0.223
  0
VERTEX
  8
7
  10
0.423
  20
-0.224
  0
VERTEX
  8
7
  10
0.416
  20
-0.228
  0
VERTEX
  8
7
  10
0.404
  20
-0.234
  0
VERTEX
  8
7
  10
0.389
  20
-0.241
  0
VERTEX
  8
7
  10
0.371
  20
-0.249
  0
VERTEX
  8
7
  10
0.351
  20
-0.258
  0
VERTEX
  8
7
  10
0.329
  20
-0.268
  0
VERTEX
  8
7
  10
0.307
  20
-0.278
  0
VERTEX
  8
7
  10
0.285
  20
-0.288
  0
VERTEX
  8
7
  10
0.263
  20
-0.298
  0
VERTEX
  8
7
  10
0.243
  20
-0.307
  0
VERTEX
  8
7
  10
0.225
  20
-0.316
  0
VERTEX
  8
7
  10
0.210
  20
-0.322
  0
VERTEX
  8
7
  10
0.198
  20
-0.328
  0
VERTEX
  8
7
  10
0.191
  20
-0.331
  0
VERTEX
  8
7
  10
0.188
  20
-0.332
  0
VERTEX
  8
7
  10
0.184
  20
-0.332
  0
VERTEX
  8
7
  10
0.173
  20
-0.333
  0
VERTEX
  8
7
  10
0.155
  20
-0.334
  0
VERTEX
  8
7
  10
0.133
  20
-0.336
  0
VERTEX
  8
7
  10
0.106
  20
-0.338
  0
VERTEX
  8
7
  10
0.076
  20
-0.339
  0
VERTEX
  8
7
  10
0.044
  20
-0.341
  0
VERTEX
  8
7
  10
0.011
  20
-0.343
  0
VERTEX
  8
7
  10
-0.022
  20
-0.345
  0
VERTEX
  8
7
  10
-0.054
  20
-0.347
  0
VERTEX
  8
7
  10
-0.084
  20
-0.349
  0
VERTEX
  8
7
  10
-0.111
  20
-0.350
  0
VERTEX
  8
7
  10
-0.133
  20
-0.352
  0
VERTEX
  8
7
  10
-0.151
  20
-0.352
  0
VERTEX
  8
7
  10
-0.162
  20
-0.353
  0
VERTEX
  8
7
  10
-0.166
  20
-0.353
  0
VERTEX
  8
7
  10
-0.168
  20
-0.353
  0
VERTEX
  8
7
  10
-0.175
  20
-0.352
  0
VERTEX
  8
7
  10
-0.185
  20
-0.351
  0
VERTEX
  8
7
  10
-0.199
  20
-0.349
  0
VERTEX
  8
7
  10
-0.215
  20
-0.347
  0
VERTEX
  8
7
  10
-0.232
  20
-0.345
  0
VERTEX
  8
7
  10
-0.251
  20
-0.342
  0
VERTEX
  8
7
  10
-0.271
  20
-0.339
  0
VERTEX
  8
7
  10
-0.291
  20
-0.337
  0
VERTEX
  8
7
  10
-0.310
  20
-0.334
  0
VERTEX
  8
7
  10
-0.327
  20
-0.331
  0
VERTEX
  8
7
  10
-0.343
  20
-0.329
  0
VERTEX
  8
7
  10
-0.357
  20
-0.327
  0
VERTEX
  8
7
  10
-0.367
  20
-0.326
  0
VERTEX
  8
7
  10
-0.374
  20
-0.325
  0
VERTEX
  8
7
  10
-0.376
  20
-0.324
  0
VERTEX
  8
7
  10
-0.380
  20
-0.325
  0
VERTEX
  8
7
  10
-0.389
  20
-0.326
  0
VERTEX
  8
7
  10
-0.403
  20
-0.327
  0
VERTEX
  8
7
  10
-0.419
  20
-0.329
  0
VERTEX
  8
7
  10
-0.435
  20
-0.330
  0
VERTEX
  8
7
  10
-0.449
  20
-0.331
  0
VERTEX
  8
7
  10
-0.458
  20
-0.332
  0
VERTEX
  8
7
  10
-0.462
  20
-0.332
  0
VERTEX
  8
7
  10
-0.465
  20
-0.337
  0
VERTEX
  8
7
  10
-0.472
  20
-0.349
  0
VERTEX
  8
7
  10
-0.483
  20
-0.367
  0
VERTEX
  8
7
  10
-0.494
  20
-0.387
  0
VERTEX
  8
7
  10
-0.506
  20
-0.407
  0
VERTEX
  8
7
  10
-0.517
  20
-0.424
  0
VERTEX
  8
7
  10
-0.524
  20
-0.436
  0
VERTEX
  8
7
  10
-0.527
  20
-0.440
  0
VERTEX
  8
7
  10
-0.531
  20
-0.448
  0
VERTEX
  8
7
  10
-0.542
  20
-0.470
  0
VERTEX
  8
7
  10
-0.557
  20
-0.501
  0
VERTEX
  8
7
  10
-0.574
  20
-0.535
  0
VERTEX
  8
7
  10
-0.591
  20
-0.570
  0
VERTEX
  8
7
  10
-0.606
  20
-0.600
  0
VERTEX
  8
7
  10
-0.617
  20
-0.621
  0
VERTEX
  8
7
  10
-0.621
  20
-0.629
  0
VERTEX
  8
7
  10
-0.623
  20
-0.653
  0
VERTEX
  8
7
  10
-0.628
  20
-0.706
  0
VERTEX
  8
7
  10
-0.634
  20
-0.758
  0
VERTEX
  8
7
  10
-0.636
  20
-0.781
  0
VERTEX
  8
7
  10
-0.632
  20
-0.790
  0
VERTEX
  8
7
  10
-0.622
  20
-0.813
  0
VERTEX
  8
7
  10
-0.608
  20
-0.846
  0
VERTEX
  8
7
  10
-0.592
  20
-0.883
  0
VERTEX
  8
7
  10
-0.577
  20
-0.920
  0
VERTEX
  8
7
  10
-0.563
  20
-0.953
  0
VERTEX
  8
7
  10
-0.553
  20
-0.976
  0
VERTEX
  8
7
  10
-0.549
  20
-0.984
  0
VERTEX
  8
7
  10
-0.542
  20
-0.990
  0
VERTEX
  8
7
  10
-0.525
  20
-1.005
  0
VERTEX
  8
7
  10
-0.501
  20
-1.026
  0
VERTEX
  8
7
  10
-0.473
  20
-1.050
  0
VERTEX
  8
7
  10
-0.445
  20
-1.074
  0
VERTEX
  8
7
  10
-0.421
  20
-1.095
  0
VERTEX
  8
7
  10
-0.404
  20
-1.110
  0
VERTEX
  8
7
  10
-0.397
  20
-1.115
  0
VERTEX
  8
7
  10
-0.391
  20
-1.120
  0
VERTEX
  8
7
  10
-0.376
  20
-1.131
  0
VERTEX
  8
7
  10
-0.354
  20
-1.148
  0
VERTEX
  8
7
  10
-0.328
  20
-1.166
  0
VERTEX
  8
7
  10
-0.303
  20
-1.185
  0
VERTEX
  8
7
  10
-0.281
  20
-1.201
  0
VERTEX
  8
7
  10
-0.266
  20
-1.212
  0
VERTEX
  8
7
  10
-0.260
  20
-1.216
  0
VERTEX
  8
7
  10
-0.256
  20
-1.223
  0
VERTEX
  8
7
  10
-0.245
  20
-1.242
  0
VERTEX
  8
7
  10
-0.230
  20
-1.267
  0
VERTEX
  8
7
  10
-0.213
  20
-1.297
  0
VERTEX
  8
7
  10
-0.196
  20
-1.326
  0
VERTEX
  8
7
  10
-0.181
  20
-1.352
  0
VERTEX
  8
7
  10
-0.170
  20
-1.369
  0
VERTEX
  8
7
  10
-0.166
  20
-1.376
  0
VERTEX
  8
7
  10
-0.161
  20
-1.383
  0
VERTEX
  8
7
  10
-0.148
  20
-1.399
  0
VERTEX
  8
7
  10
-0.130
  20
-1.423
  0
VERTEX
  8
7
  10
-0.108
  20
-1.449
  0
VERTEX
  8
7
  10
-0.087
  20
-1.476
  0
VERTEX
  8
7
  10
-0.069
  20
-1.499
  0
VERTEX
  8
7
  10
-0.056
  20
-1.515
  0
VERTEX
  8
7
  10
-0.051
  20
-1.521
  0
VERTEX
  8
7
  10
-0.049
  20
-1.532
  0
VERTEX
  8
7
  10
-0.045
  20
-1.559
  0
VERTEX
  8
7
  10
-0.039
  20
-1.597
  0
VERTEX
  8
7
  10
-0.032
  20
-1.641
  0
VERTEX
  8
7
  10
-0.026
  20
-1.685
  0
VERTEX
  8
7
  10
-0.020
  20
-1.723
  0
VERTEX
  8
7
  10
-0.016
  20
-1.750
  0
VERTEX
  8
7
  10
-0.014
  20
-1.760
  0
VERTEX
  8
7
  10
-0.019
  20
-1.760
  0
VERTEX
  8
7
  10
-0.032
  20
-1.758
  0
VERTEX
  8
7
  10
-0.051
  20
-1.756
  0
VERTEX
  8
7
  10
-0.072
  20
-1.753
  0
VERTEX
  8
7
  10
-0.093
  20
-1.750
  0
VERTEX
  8
7
  10
-0.112
  20
-1.748
  0
VERTEX
  8
7
  10
-0.125
  20
-1.746
  0
VERTEX
  8
7
  10
-0.130
  20
-1.745
  0
VERTEX
  8
7
  10
-0.134
  20
-1.742
  0
VERTEX
  8
7
  10
-0.146
  20
-1.733
  0
VERTEX
  8
7
  10
-0.162
  20
-1.721
  0
VERTEX
  8
7
  10
-0.180
  20
-1.706
  0
VERTEX
  8
7
  10
-0.199
  20
-1.692
  0
VERTEX
  8
7
  10
-0.215
  20
-1.679
  0
VERTEX
  8
7
  10
-0.227
  20
-1.670
  0
VERTEX
  8
7
  10
-0.231
  20
-1.666
  0
VERTEX
  8
7
  10
-0.234
  20
-1.663
  0
VERTEX
  8
7
  10
-0.241
  20
-1.656
  0
VERTEX
  8
7
  10
-0.252
  20
-1.646
  0
VERTEX
  8
7
  10
-0.263
  20
-1.634
  0
VERTEX
  8
7
  10
-0.275
  20
-1.622
  0
VERTEX
  8
7
  10
-0.286
  20
-1.611
  0
VERTEX
  8
7
  10
-0.293
  20
-1.603
  0
VERTEX
  8
7
  10
-0.296
  20
-1.600
  0
VERTEX
  8
7
  10
-0.293
  20
-1.587
  0
VERTEX
  8
7
  10
-0.285
  20
-1.557
  0
VERTEX
  8
7
  10
-0.278
  20
-1.527
  0
VERTEX
  8
7
  10
-0.275
  20
-1.513
  0
VERTEX
  8
7
  10
-0.282
  20
-1.506
  0
VERTEX
  8
7
  10
-0.300
  20
-1.489
  0
VERTEX
  8
7
  10
-0.325
  20
-1.463
  0
VERTEX
  8
7
  10
-0.354
  20
-1.434
  0
VERTEX
  8
7
  10
-0.383
  20
-1.405
  0
VERTEX
  8
7
  10
-0.408
  20
-1.379
  0
VERTEX
  8
7
  10
-0.426
  20
-1.361
  0
VERTEX
  8
7
  10
-0.433
  20
-1.354
  0
VERTEX
  8
7
  10
-0.435
  20
-1.352
  0
VERTEX
  8
7
  10
-0.441
  20
-1.346
  0
VERTEX
  8
7
  10
-0.450
  20
-1.336
  0
VERTEX
  8
7
  10
-0.462
  20
-1.324
  0
VERTEX
  8
7
  10
-0.477
  20
-1.309
  0
VERTEX
  8
7
  10
-0.492
  20
-1.293
  0
VERTEX
  8
7
  10
-0.509
  20
-1.275
  0
VERTEX
  8
7
  10
-0.527
  20
-1.257
  0
VERTEX
  8
7
  10
-0.545
  20
-1.238
  0
VERTEX
  8
7
  10
-0.562
  20
-1.221
  0
VERTEX
  8
7
  10
-0.577
  20
-1.204
  0
VERTEX
  8
7
  10
-0.592
  20
-1.189
  0
VERTEX
  8
7
  10
-0.604
  20
-1.177
  0
VERTEX
  8
7
  10
-0.613
  20
-1.167
  0
VERTEX
  8
7
  10
-0.619
  20
-1.160
  0
VERTEX
  8
7
  10
-0.621
  20
-1.158
  0
VERTEX
  8
7
  10
-0.624
  20
-1.156
  0
VERTEX
  8
7
  10
-0.631
  20
-1.150
  0
VERTEX
  8
7
  10
-0.642
  20
-1.140
  0
VERTEX
  8
7
  10
-0.656
  20
-1.128
  0
VERTEX
  8
7
  10
-0.673
  20
-1.113
  0
VERTEX
  8
7
  10
-0.692
  20
-1.097
  0
VERTEX
  8
7
  10
-0.712
  20
-1.079
  0
VERTEX
  8
7
  10
-0.733
  20
-1.061
  0
VERTEX
  8
7
  10
-0.754
  20
-1.042
  0
VERTEX
  8
7
  10
-0.774
  20
-1.025
  0
VERTEX
  8
7
  10
-0.793
  20
-1.008
  0
VERTEX
  8
7
  10
-0.810
  20
-0.993
  0
VERTEX
  8
7
  10
-0.824
  20
-0.981
  0
VERTEX
  8
7
  10
-0.835
  20
-0.971
  0
VERTEX
  8
7
  10
-0.842
  20
-0.964
  0
VERTEX
  8
7
  10
-0.845
  20
-0.962
  0
VERTEX
  8
7
  10
-0.852
  20
-0.956
  0
VERTEX
  8
7
  10
-0.869
  20
-0.939
  0
VERTEX
  8
7
  10
-0.893
  20
-0.915
  0
VERTEX
  8
7
  10
-0.921
  20
-0.887
  0
VERTEX
  8
7
  10
-0.949
  20
-0.859
  0
VERTEX
  8
7
  10
-0.973
  20
-0.834
  0
VERTEX
  8
7
  10
-0.990
  20
-0.817
  0
VERTEX
  8
7
  10
-0.997
  20
-0.810
  0
VERTEX
  8
7
  10
-0.993
  20
-0.793
  0
VERTEX
  8
7
  10
-0.983
  20
-0.748
  0
VERTEX
  8
7
  10
-0.969
  20
-0.684
  0
VERTEX
  8
7
  10
-0.953
  20
-0.611
  0
VERTEX
  8
7
  10
-0.938
  20
-0.538
  0
VERTEX
  8
7
  10
-0.924
  20
-0.474
  0
VERTEX
  8
7
  10
-0.914
  20
-0.428
  0
VERTEX
  8
7
  10
-0.910
  20
-0.411
  0
VERTEX
  8
7
  10
-0.914
  20
-0.418
  0
VERTEX
  8
7
  10
-0.926
  20
-0.435
  0
VERTEX
  8
7
  10
-0.942
  20
-0.460
  0
VERTEX
  8
7
  10
-0.960
  20
-0.488
  0
VERTEX
  8
7
  10
-0.979
  20
-0.516
  0
VERTEX
  8
7
  10
-0.995
  20
-0.541
  0
VERTEX
  8
7
  10
-1.007
  20
-0.558
  0
VERTEX
  8
7
  10
-1.011
  20
-0.564
  0
VERTEX
  8
7
  10
-1.016
  20
-0.569
  0
VERTEX
  8
7
  10
-1.028
  20
-0.581
  0
VERTEX
  8
7
  10
-1.045
  20
-0.599
  0
VERTEX
  8
7
  10
-1.065
  20
-0.619
  0
VERTEX
  8
7
  10
-1.086
  20
-0.639
  0
VERTEX
  8
7
  10
-1.103
  20
-0.656
  0
VERTEX
  8
7
  10
-1.115
  20
-0.668
  0
VERTEX
  8
7
  10
-1.120
  20
-0.672
  0
VERTEX
  8
7
  10
-1.119
  20
-0.691
  0
VERTEX
  8
7
  10
-1.116
  20
-0.731
  0
VERTEX
  8
7
  10
-1.114
  20
-0.770
  0
VERTEX
  8
7
  10
-1.113
  20
-0.788
  0
VERTEX
  8
7
  10
-1.108
  20
-0.794
  0
VERTEX
  8
7
  10
-1.094
  20
-0.809
  0
VERTEX
  8
7
  10
-1.074
  20
-0.830
  0
VERTEX
  8
7
  10
-1.051
  20
-0.854
  0
VERTEX
  8
7
  10
-1.029
  20
-0.878
  0
VERTEX
  8
7
  10
-1.009
  20
-0.899
  0
VERTEX
  8
7
  10
-0.995
  20
-0.914
  0
VERTEX
  8
7
  10
-0.990
  20
-0.919
  0
VERTEX
  8
7
  10
-0.988
  20
-0.921
  0
VERTEX
  8
7
  10
-0.983
  20
-0.928
  0
VERTEX
  8
7
  10
-0.975
  20
-0.938
  0
VERTEX
  8
7
  10
-0.964
  20
-0.950
  0
VERTEX
  8
7
  10
-0.951
  20
-0.965
  0
VERTEX
  8
7
  10
-0.937
  20
-0.982
  0
VERTEX
  8
7
  10
-0.922
  20
-0.999
  0
VERTEX
  8
7
  10
-0.907
  20
-1.018
  0
VERTEX
  8
7
  10
-0.892
  20
-1.036
  0
VERTEX
  8
7
  10
-0.877
  20
-1.054
  0
VERTEX
  8
7
  10
-0.863
  20
-1.070
  0
VERTEX
  8
7
  10
-0.850
  20
-1.085
  0
VERTEX
  8
7
  10
-0.839
  20
-1.097
  0
VERTEX
  8
7
  10
-0.831
  20
-1.107
  0
VERTEX
  8
7
  10
-0.826
  20
-1.113
  0
VERTEX
  8
7
  10
-0.824
  20
-1.115
  0
VERTEX
  8
7
  10
-0.820
  20
-1.120
  0
VERTEX
  8
7
  10
-0.809
  20
-1.132
  0
VERTEX
  8
7
  10
-0.794
  20
-1.150
  0
VERTEX
  8
7
  10
-0.777
  20
-1.170
  0
VERTEX
  8
7
  10
-0.760
  20
-1.190
  0
VERTEX
  8
7
  10
-0.745
  20
-1.207
  0
VERTEX
  8
7
  10
-0.734
  20
-1.219
  0
VERTEX
  8
7
  10
-0.730
  20
-1.223
  0
VERTEX
  8
7
  10
-0.728
  20
-1.230
  0
VERTEX
  8
7
  10
-0.721
  20
-1.247
  0
VERTEX
  8
7
  10
-0.712
  20
-1.272
  0
VERTEX
  8
7
  10
-0.701
  20
-1.300
  0
VERTEX
  8
7
  10
-0.690
  20
-1.328
  0
VERTEX
  8
7
  10
-0.681
  20
-1.353
  0
VERTEX
  8
7
  10
-0.674
  20
-1.370
  0
VERTEX
  8
7
  10
-0.672
  20
-1.376
  0
VERTEX
  8
7
  10
-0.667
  20
-1.400
  0
VERTEX
  8
7
  10
-0.657
  20
-1.453
  0
VERTEX
  8
7
  10
-0.648
  20
-1.505
  0
VERTEX
  8
7
  10
-0.643
  20
-1.528
  0
VERTEX
  8
7
  10
-0.645
  20
-1.536
  0
VERTEX
  8
7
  10
-0.651
  20
-1.555
  0
VERTEX
  8
7
  10
-0.659
  20
-1.582
  0
VERTEX
  8
7
  10
-0.668
  20
-1.612
  0
VERTEX
  8
7
  10
-0.678
  20
-1.643
  0
VERTEX
  8
7
  10
-0.686
  20
-1.669
  0
VERTEX
  8
7
  10
-0.692
  20
-1.688
  0
VERTEX
  8
7
  10
-0.694
  20
-1.695
  0
VERTEX
  8
7
  10
-0.698
  20
-1.695
  0
VERTEX
  8
7
  10
-0.710
  20
-1.693
  0
VERTEX
  8
7
  10
-0.726
  20
-1.691
  0
VERTEX
  8
7
  10
-0.744
  20
-1.688
  0
VERTEX
  8
7
  10
-0.763
  20
-1.685
  0
VERTEX
  8
7
  10
-0.779
  20
-1.683
  0
VERTEX
  8
7
  10
-0.791
  20
-1.681
  0
VERTEX
  8
7
  10
-0.795
  20
-1.680
  0
VERTEX
  8
7
  10
-0.799
  20
-1.676
  0
VERTEX
  8
7
  10
-0.810
  20
-1.664
  0
VERTEX
  8
7
  10
-0.825
  20
-1.646
  0
VERTEX
  8
7
  10
-0.842
  20
-1.626
  0
VERTEX
  8
7
  10
-0.859
  20
-1.606
  0
VERTEX
  8
7
  10
-0.874
  20
-1.589
  0
VERTEX
  8
7
  10
-0.885
  20
-1.576
  0
VERTEX
  8
7
  10
-0.889
  20
-1.571
  0
VERTEX
  8
7
  10
-0.887
  20
-1.565
  0
VERTEX
  8
7
  10
-0.883
  20
-1.550
  0
VERTEX
  8
7
  10
-0.878
  20
-1.528
  0
VERTEX
  8
7
  10
-0.871
  20
-1.503
  0
VERTEX
  8
7
  10
-0.864
  20
-1.478
  0
VERTEX
  8
7
  10
-0.859
  20
-1.456
  0
VERTEX
  8
7
  10
-0.855
  20
-1.440
  0
VERTEX
  8
7
  10
-0.853
  20
-1.434
  0
VERTEX
  8
7
  10
-0.851
  20
-1.431
  0
VERTEX
  8
7
  10
-0.844
  20
-1.422
  0
VERTEX
  8
7
  10
-0.835
  20
-1.409
  0
VERTEX
  8
7
  10
-0.824
  20
-1.395
  0
VERTEX
  8
7
  10
-0.813
  20
-1.380
  0
VERTEX
  8
7
  10
-0.804
  20
-1.367
  0
VERTEX
  8
7
  10
-0.797
  20
-1.358
  0
VERTEX
  8
7
  10
-0.795
  20
-1.354
  0
VERTEX
  8
7
  10
-0.800
  20
-1.348
  0
VERTEX
  8
7
  10
-0.814
  20
-1.331
  0
VERTEX
  8
7
  10
-0.834
  20
-1.307
  0
VERTEX
  8
7
  10
-0.856
  20
-1.279
  0
VERTEX
  8
7
  10
-0.879
  20
-1.251
  0
VERTEX
  8
7
  10
-0.899
  20
-1.226
  0
VERTEX
  8
7
  10
-0.913
  20
-1.209
  0
VERTEX
  8
7
  10
-0.918
  20
-1.202
  0
VERTEX
  8
7
  10
-0.921
  20
-1.199
  0
VERTEX
  8
7
  10
-0.929
  20
-1.192
  0
VERTEX
  8
7
  10
-0.942
  20
-1.180
  0
VERTEX
  8
7
  10
-0.959
  20
-1.164
  0
VERTEX
  8
7
  10
-0.978
  20
-1.145
  0
VERTEX
  8
7
  10
-1.000
  20
-1.125
  0
VERTEX
  8
7
  10
-1.024
  20
-1.102
  0
VERTEX
  8
7
  10
-1.048
  20
-1.079
  0
VERTEX
  8
7
  10
-1.072
  20
-1.056
  0
VERTEX
  8
7
  10
-1.096
  20
-1.034
  0
VERTEX
  8
7
  10
-1.118
  20
-1.013
  0
VERTEX
  8
7
  10
-1.137
  20
-0.994
  0
VERTEX
  8
7
  10
-1.154
  20
-0.978
  0
VERTEX
  8
7
  10
-1.167
  20
-0.966
  0
VERTEX
  8
7
  10
-1.175
  20
-0.958
  0
VERTEX
  8
7
  10
-1.178
  20
-0.955
  0
VERTEX
  8
7
  10
-1.182
  20
-0.952
  0
VERTEX
  8
7
  10
-1.192
  20
-0.943
  0
VERTEX
  8
7
  10
-1.207
  20
-0.929
  0
VERTEX
  8
7
  10
-1.228
  20
-0.910
  0
VERTEX
  8
7
  10
-1.252
  20
-0.888
  0
VERTEX
  8
7
  10
-1.279
  20
-0.864
  0
VERTEX
  8
7
  10
-1.307
  20
-0.838
  0
VERTEX
  8
7
  10
-1.337
  20
-0.811
  0
VERTEX
  8
7
  10
-1.367
  20
-0.784
  0
VERTEX
  8
7
  10
-1.395
  20
-0.757
  0
VERTEX
  8
7
  10
-1.422
  20
-0.733
  0
VERTEX
  8
7
  10
-1.446
  20
-0.711
  0
VERTEX
  8
7
  10
-1.467
  20
-0.692
  0
VERTEX
  8
7
  10
-1.482
  20
-0.678
  0
VERTEX
  8
7
  10
-1.492
  20
-0.668
  0
VERTEX
  8
7
  10
-1.496
  20
-0.665
  0
VERTEX
  8
7
  10
-1.493
  20
-0.652
  0
VERTEX
  8
7
  10
-1.485
  20
-0.622
  0
VERTEX
  8
7
  10
-1.477
  20
-0.592
  0
VERTEX
  8
7
  10
-1.474
  20
-0.578
  0
VERTEX
  8
7
  10
-1.469
  20
-0.574
  0
VERTEX
  8
7
  10
-1.457
  20
-0.562
  0
VERTEX
  8
7
  10
-1.440
  20
-0.544
  0
VERTEX
  8
7
  10
-1.420
  20
-0.524
  0
VERTEX
  8
7
  10
-1.400
  20
-0.504
  0
VERTEX
  8
7
  10
-1.383
  20
-0.487
  0
VERTEX
  8
7
  10
-1.371
  20
-0.474
  0
VERTEX
  8
7
  10
-1.366
  20
-0.469
  0
VERTEX
  8
7
  10
-1.363
  20
-0.464
  0
VERTEX
  8
7
  10
-1.356
  20
-0.449
  0
VERTEX
  8
7
  10
-1.345
  20
-0.429
  0
VERTEX
  8
7
  10
-1.333
  20
-0.405
  0
VERTEX
  8
7
  10
-1.321
  20
-0.381
  0
VERTEX
  8
7
  10
-1.310
  20
-0.360
  0
VERTEX
  8
7
  10
-1.303
  20
-0.345
  0
VERTEX
  8
7
  10
-1.300
  20
-0.339
  0
VERTEX
  8
7
  10
-1.299
  20
-0.324
  0
VERTEX
  8
7
  10
-1.296
  20
-0.289
  0
VERTEX
  8
7
  10
-1.294
  20
-0.253
  0
VERTEX
  8
7
  10
-1.293
  20
-0.237
  0
VERTEX
  8
7
  10
-1.295
  20
-0.236
  0
VERTEX
  8
7
  10
-1.302
  20
-0.231
  0
VERTEX
  8
7
  10
-1.312
  20
-0.224
  0
VERTEX
  8
7
  10
-1.325
  20
-0.215
  0
VERTEX
  8
7
  10
-1.340
  20
-0.204
  0
VERTEX
  8
7
  10
-1.357
  20
-0.192
  0
VERTEX
  8
7
  10
-1.376
  20
-0.179
  0
VERTEX
  8
7
  10
-1.394
  20
-0.165
  0
VERTEX
  8
7
  10
-1.413
  20
-0.152
  0
VERTEX
  8
7
  10
-1.432
  20
-0.139
  0
VERTEX
  8
7
  10
-1.449
  20
-0.126
  0
VERTEX
  8
7
  10
-1.464
  20
-0.115
  0
VERTEX
  8
7
  10
-1.477
  20
-0.106
  0
VERTEX
  8
7
  10
-1.487
  20
-0.099
  0
VERTEX
  8
7
  10
-1.494
  20
-0.094
  0
VERTEX
  8
7
  10
-1.496
  20
-0.092
  0
VERTEX
  8
7
  10
-1.498
  20
-0.089
  0
VERTEX
  8
7
  10
-1.504
  20
-0.080
  0
VERTEX
  8
7
  10
-1.513
  20
-0.066
  0
VERTEX
  8
7
  10
-1.524
  20
-0.048
  0
VERTEX
  8
7
  10
-1.538
  20
-0.027
  0
VERTEX
  8
7
  10
-1.553
  20
-0.003
  0
VERTEX
  8
7
  10
-1.569
  20
0.022
  0
VERTEX
  8
7
  10
-1.586
  20
0.049
  0
VERTEX
  8
7
  10
-1.603
  20
0.075
  0
VERTEX
  8
7
  10
-1.619
  20
0.101
  0
VERTEX
  8
7
  10
-1.634
  20
0.125
  0
VERTEX
  8
7
  10
-1.648
  20
0.146
  0
VERTEX
  8
7
  10
-1.659
  20
0.164
  0
VERTEX
  8
7
  10
-1.668
  20
0.179
  0
VERTEX
  8
7
  10
-1.674
  20
0.188
  0
VERTEX
  8
7
  10
-1.676
  20
0.191
  0
VERTEX
  8
7
  10
-1.682
  20
0.196
  0
VERTEX
  8
7
  10
-1.697
  20
0.210
  0
VERTEX
  8
7
  10
-1.719
  20
0.229
  0
VERTEX
  8
7
  10
-1.744
  20
0.252
  0
VERTEX
  8
7
  10
-1.770
  20
0.274
  0
VERTEX
  8
7
  10
-1.792
  20
0.294
  0
VERTEX
  8
7
  10
-1.807
  20
0.308
  0
VERTEX
  8
7
  10
-1.813
  20
0.314
  0
VERTEX
  8
7
  10
-1.819
  20
0.316
  0
VERTEX
  8
7
  10
-1.836
  20
0.320
  0
VERTEX
  8
7
  10
-1.859
  20
0.327
  0
VERTEX
  8
7
  10
-1.885
  20
0.335
  0
VERTEX
  8
7
  10
-1.912
  20
0.343
  0
VERTEX
  8
7
  10
-1.935
  20
0.350
  0
VERTEX
  8
7
  10
-1.952
  20
0.355
  0
VERTEX
  8
7
  10
-1.958
  20
0.357
  0
VERTEX
  8
7
  10
-1.962
  20
0.353
  0
VERTEX
  8
7
  10
-1.973
  20
0.343
  0
VERTEX
  8
7
  10
-1.989
  20
0.326
  0
VERTEX
  8
7
  10
-2.011
  20
0.306
  0
VERTEX
  8
7
  10
-2.037
  20
0.281
  0
VERTEX
  8
7
  10
-2.066
  20
0.253
  0
VERTEX
  8
7
  10
-2.096
  20
0.224
  0
VERTEX
  8
7
  10
-2.128
  20
0.193
  0
VERTEX
  8
7
  10
-2.160
  20
0.163
  0
VERTEX
  8
7
  10
-2.190
  20
0.133
  0
VERTEX
  8
7
  10
-2.219
  20
0.106
  0
VERTEX
  8
7
  10
-2.245
  20
0.081
  0
VERTEX
  8
7
  10
-2.267
  20
0.061
  0
VERTEX
  8
7
  10
-2.283
  20
0.045
  0
VERTEX
  8
7
  10
-2.294
  20
0.034
  0
VERTEX
  8
7
  10
-2.298
  20
0.031
  0
VERTEX
  8
7
  10
-2.293
  20
0.057
  0
VERTEX
  8
7
  10
-2.283
  20
0.114
  0
VERTEX
  8
7
  10
-2.274
  20
0.171
  0
VERTEX
  8
7
  10
-2.269
  20
0.198
  0
VERTEX
  8
7
  10
-2.271
  20
0.196
  0
VERTEX
  8
7
  10
-2.276
  20
0.193
  0
VERTEX
  8
7
  10
-2.283
  20
0.188
  0
VERTEX
  8
7
  10
-2.290
  20
0.183
  0
VERTEX
  8
7
  10
-2.298
  20
0.177
  0
VERTEX
  8
7
  10
-2.305
  20
0.173
  0
VERTEX
  8
7
  10
-2.310
  20
0.170
  0
VERTEX
  8
7
  10
-2.312
  20
0.169
  0
VERTEX
  8
7
  10
-2.318
  20
0.163
  0
VERTEX
  8
7
  10
-2.334
  20
0.147
  0
VERTEX
  8
7
  10
-2.358
  20
0.125
  0
VERTEX
  8
7
  10
-2.384
  20
0.099
  0
VERTEX
  8
7
  10
-2.410
  20
0.074
  0
VERTEX
  8
7
  10
-2.433
  20
0.052
  0
VERTEX
  8
7
  10
-2.450
  20
0.037
  0
VERTEX
  8
7
  10
-2.456
  20
0.031
  0
VERTEX
  8
7
  10
-2.452
  20
0.040
  0
VERTEX
  8
7
  10
-2.441
  20
0.063
  0
VERTEX
  8
7
  10
-2.427
  20
0.097
  0
VERTEX
  8
7
  10
-2.409
  20
0.135
  0
VERTEX
  8
7
  10
-2.392
  20
0.174
  0
VERTEX
  8
7
  10
-2.378
  20
0.208
  0
VERTEX
  8
7
  10
-2.367
  20
0.232
  0
VERTEX
  8
7
  10
-2.363
  20
0.241
  0
VERTEX
  8
7
  10
-2.368
  20
0.240
  0
VERTEX
  8
7
  10
-2.380
  20
0.238
  0
VERTEX
  8
7
  10
-2.397
  20
0.236
  0
VERTEX
  8
7
  10
-2.417
  20
0.233
  0
VERTEX
  8
7
  10
-2.437
  20
0.231
  0
VERTEX
  8
7
  10
-2.454
  20
0.229
  0
VERTEX
  8
7
  10
-2.466
  20
0.227
  0
VERTEX
  8
7
  10
-2.471
  20
0.227
  0
VERTEX
  8
7
  10
-2.475
  20
0.225
  0
VERTEX
  8
7
  10
-2.487
  20
0.219
  0
VERTEX
  8
7
  10
-2.504
  20
0.209
  0
VERTEX
  8
7
  10
-2.527
  20
0.197
  0
VERTEX
  8
7
  10
-2.555
  20
0.183
  0
VERTEX
  8
7
  10
-2.585
  20
0.166
  0
VERTEX
  8
7
  10
-2.618
  20
0.149
  0
VERTEX
  8
7
  10
-2.651
  20
0.132
  0
VERTEX
  8
7
  10
-2.685
  20
0.114
  0
VERTEX
  8
7
  10
-2.718
  20
0.097
  0
VERTEX
  8
7
  10
-2.748
  20
0.081
  0
VERTEX
  8
7
  10
-2.776
  20
0.067
  0
VERTEX
  8
7
  10
-2.799
  20
0.055
  0
VERTEX
  8
7
  10
-2.816
  20
0.046
  0
VERTEX
  8
7
  10
-2.828
  20
0.040
  0
VERTEX
  8
7
  10
-2.832
  20
0.038
  0
VERTEX
  8
7
  10
-2.830
  20
0.049
  0
VERTEX
  8
7
  10
-2.825
  20
0.078
  0
VERTEX
  8
7
  10
-2.818
  20
0.120
  0
VERTEX
  8
7
  10
-2.810
  20
0.168
  0
VERTEX
  8
7
  10
-2.803
  20
0.216
  0
VERTEX
  8
7
  10
-2.796
  20
0.258
  0
VERTEX
  8
7
  10
-2.791
  20
0.287
  0
VERTEX
  8
7
  10
-2.789
  20
0.299
  0
VERTEX
  8
7
  10
-2.791
  20
0.297
  0
VERTEX
  8
7
  10
-2.798
  20
0.291
  0
VERTEX
  8
7
  10
-2.808
  20
0.281
  0
VERTEX
  8
7
  10
-2.822
  20
0.269
  0
VERTEX
  8
7
  10
-2.837
  20
0.255
  0
VERTEX
  8
7
  10
-2.855
  20
0.239
  0
VERTEX
  8
7
  10
-2.874
  20
0.222
  0
VERTEX
  8
7
  10
-2.893
  20
0.204
  0
VERTEX
  8
7
  10
-2.913
  20
0.187
  0
VERTEX
  8
7
  10
-2.932
  20
0.170
  0
VERTEX
  8
7
  10
-2.950
  20
0.154
  0
VERTEX
  8
7
  10
-2.965
  20
0.140
  0
VERTEX
  8
7
  10
-2.979
  20
0.128
  0
VERTEX
  8
7
  10
-2.989
  20
0.119
  0
VERTEX
  8
7
  10
-2.996
  20
0.113
  0
VERTEX
  8
7
  10
-2.998
  20
0.111
  0
VERTEX
  8
7
  10
-2.994
  20
0.123
  0
VERTEX
  8
7
  10
-2.982
  20
0.157
  0
VERTEX
  8
7
  10
-2.966
  20
0.204
  0
VERTEX
  8
7
  10
-2.947
  20
0.259
  0
VERTEX
  8
7
  10
-2.929
  20
0.313
  0
VERTEX
  8
7
  10
-2.913
  20
0.361
  0
VERTEX
  8
7
  10
-2.901
  20
0.395
  0
VERTEX
  8
7
  10
-2.897
  20
0.408
  0
VERTEX
  8
7
  10
-2.900
  20
0.406
  0
VERTEX
  8
7
  10
-2.909
  20
0.401
  0
VERTEX
  8
7
  10
-2.922
  20
0.394
  0
VERTEX
  8
7
  10
-2.940
  20
0.384
  0
VERTEX
  8
7
  10
-2.961
  20
0.372
  0
VERTEX
  8
7
  10
-2.984
  20
0.359
  0
VERTEX
  8
7
  10
-3.009
  20
0.345
  0
VERTEX
  8
7
  10
-3.034
  20
0.331
  0
VERTEX
  8
7
  10
-3.060
  20
0.317
  0
VERTEX
  8
7
  10
-3.085
  20
0.303
  0
VERTEX
  8
7
  10
-3.108
  20
0.291
  0
VERTEX
  8
7
  10
-3.129
  20
0.279
  0
VERTEX
  8
7
  10
-3.147
  20
0.270
  0
VERTEX
  8
7
  10
-3.160
  20
0.262
  0
VERTEX
  8
7
  10
-3.169
  20
0.258
  0
VERTEX
  8
7
  10
-3.172
  20
0.256
  0
VERTEX
  8
7
  10
-3.169
  20
0.260
  0
VERTEX
  8
7
  10
-3.160
  20
0.270
  0
VERTEX
  8
7
  10
-3.145
  20
0.286
  0
VERTEX
  8
7
  10
-3.127
  20
0.307
  0
VERTEX
  8
7
  10
-3.105
  20
0.333
  0
VERTEX
  8
7
  10
-3.081
  20
0.361
  0
VERTEX
  8
7
  10
-3.054
  20
0.391
  0
VERTEX
  8
7
  10
-3.027
  20
0.422
  0
VERTEX
  8
7
  10
-3.001
  20
0.453
  0
VERTEX
  8
7
  10
-2.974
  20
0.483
  0
VERTEX
  8
7
  10
-2.950
  20
0.511
  0
VERTEX
  8
7
  10
-2.928
  20
0.536
  0
VERTEX
  8
7
  10
-2.910
  20
0.558
  0
VERTEX
  8
7
  10
-2.895
  20
0.574
  0
VERTEX
  8
7
  10
-2.886
  20
0.585
  0
VERTEX
  8
7
  10
-2.883
  20
0.589
  0
VERTEX
  8
7
  10
-2.889
  20
0.586
  0
VERTEX
  8
7
  10
-2.904
  20
0.576
  0
VERTEX
  8
7
  10
-2.929
  20
0.562
  0
VERTEX
  8
7
  10
-2.961
  20
0.543
  0
VERTEX
  8
7
  10
-2.999
  20
0.521
  0
VERTEX
  8
7
  10
-3.041
  20
0.497
  0
VERTEX
  8
7
  10
-3.086
  20
0.470
  0
VERTEX
  8
7
  10
-3.132
  20
0.443
  0
VERTEX
  8
7
  10
-3.178
  20
0.416
  0
VERTEX
  8
7
  10
-3.223
  20
0.390
  0
VERTEX
  8
7
  10
-3.265
  20
0.366
  0
VERTEX
  8
7
  10
-3.303
  20
0.344
  0
VERTEX
  8
7
  10
-3.335
  20
0.325
  0
VERTEX
  8
7
  10
-3.360
  20
0.311
  0
VERTEX
  8
7
  10
-3.375
  20
0.302
  0
VERTEX
  8
7
  10
-3.381
  20
0.299
  0
VERTEX
  8
7
  10
-3.377
  20
0.303
  0
VERTEX
  8
7
  10
-3.365
  20
0.315
  0
VERTEX
  8
7
  10
-3.347
  20
0.333
  0
VERTEX
  8
7
  10
-3.323
  20
0.356
  0
VERTEX
  8
7
  10
-3.296
  20
0.384
  0
VERTEX
  8
7
  10
-3.265
  20
0.415
  0
VERTEX
  8
7
  10
-3.231
  20
0.448
  0
VERTEX
  8
7
  10
-3.197
  20
0.483
  0
VERTEX
  8
7
  10
-3.163
  20
0.517
  0
VERTEX
  8
7
  10
-3.129
  20
0.550
  0
VERTEX
  8
7
  10
-3.098
  20
0.581
  0
VERTEX
  8
7
  10
-3.070
  20
0.609
  0
VERTEX
  8
7
  10
-3.047
  20
0.633
  0
VERTEX
  8
7
  10
-3.029
  20
0.651
  0
VERTEX
  8
7
  10
-3.017
  20
0.663
  0
VERTEX
  8
7
  10
-3.013
  20
0.667
  0
VERTEX
  8
7
  10
-3.403
  20
0.510
  0
VERTEX
  8
7
  10
-3.401
  20
0.512
  0
VERTEX
  8
7
  10
-3.394
  20
0.516
  0
VERTEX
  8
7
  10
-3.384
  20
0.524
  0
VERTEX
  8
7
  10
-3.371
  20
0.534
  0
VERTEX
  8
7
  10
-3.356
  20
0.546
  0
VERTEX
  8
7
  10
-3.339
  20
0.559
  0
VERTEX
  8
7
  10
-3.321
  20
0.573
  0
VERTEX
  8
7
  10
-3.302
  20
0.588
  0
VERTEX
  8
7
  10
-3.283
  20
0.603
  0
VERTEX
  8
7
  10
-3.265
  20
0.617
  0
VERTEX
  8
7
  10
-3.248
  20
0.630
  0
VERTEX
  8
7
  10
-3.233
  20
0.642
  0
VERTEX
  8
7
  10
-3.220
  20
0.652
  0
VERTEX
  8
7
  10
-3.210
  20
0.660
  0
VERTEX
  8
7
  10
-3.203
  20
0.665
  0
VERTEX
  8
7
  10
-3.201
  20
0.667
  0
SEQEND
  0
POLYLINE
  8
7
  6
CONTINUOUS
 66
  1
  0
VERTEX
  8
7
  10
-3.432
  20
0.616
  0
VERTEX
  8
7
  10
-2.847
  20
0.964
  0
VERTEX
  8
7
  10
-3.136
  20
0.885
  0
VERTEX
  8
7
  10
-2.615
  20
1.211
  0
VERTEX
  8
7
  10
-2.355
  20
1.349
  0
VERTEX
  8
7
  10
-2.232
  20
1.334
  0
VERTEX
  8
7
  10
-2.160
  20
1.291
  0
VERTEX
  8
7
  10
-2.059
  20
1.240
  0
VERTEX
  8
7
  10
-1.922
  20
1.175
  0
VERTEX
  8
7
  10
-1.763
  20
1.066
  0
VERTEX
  8
7
  10
-1.633
  20
1.015
  0
VERTEX
  8
7
  10
-1.546
  20
0.964
  0
VERTEX
  8
7
  10
-1.373
  20
1.022
  0
VERTEX
  8
7
  10
-1.214
  20
1.080
  0
VERTEX
  8
7
  10
-1.077
  20
1.117
  0
VERTEX
  8
7
  10
-0.874
  20
1.117
  0
VERTEX
  8
7
  10
-0.636
  20
1.117
  0
VERTEX
  8
7
  10
-0.296
  20
1.037
  0
VERTEX
  8
7
  10
-0.051
  20
1.015
  0
VERTEX
  8
7
  10
0.101
  20
1.044
  0
VERTEX
  8
7
  10
0.311
  20
1.095
  0
VERTEX
  8
7
  10
0.101
  20
1.109
  0
VERTEX
  8
7
  10
0.000
  20
1.247
  0
VERTEX
  8
7
  10
0.260
  20
1.233
  0
VERTEX
  8
7
  10
0.079
  20
1.349
  0
VERTEX
  8
7
  10
0.361
  20
1.414
  0
VERTEX
  8
7
  10
0.152
  20
1.457
  0
VERTEX
  8
7
  10
0.426
  20
1.544
  0
VERTEX
  8
7
  10
0.506
  20
1.675
  0
VERTEX
  8
7
  10
0.708
  20
1.733
  0
VERTEX
  8
7
  10
0.983
  20
1.979
  0
VERTEX
  8
7
  10
1.250
  20
2.095
  0
VERTEX
  8
7
  10
1.467
  20
2.168
  0
VERTEX
  8
7
  10
1.878
  20
2.211
  0
VERTEX
  8
7
  10
2.023
  20
2.204
  0
VERTEX
  8
7
  10
2.124
  20
2.262
  0
VERTEX
  8
7
  10
2.110
  20
2.182
  0
VERTEX
  8
7
  10
2.247
  20
2.248
  0
VERTEX
  8
7
  10
2.189
  20
2.074
  0
VERTEX
  8
7
  10
2.211
  20
1.987
  0
VERTEX
  8
7
  10
2.211
  20
1.885
  0
VERTEX
  8
7
  10
2.298
  20
1.784
  0
VERTEX
  8
7
  10
2.334
  20
1.740
  0
VERTEX
  8
7
  10
2.326
  20
1.639
  0
VERTEX
  8
7
  10
2.391
  20
1.465
  0
VERTEX
  8
7
  10
2.500
  20
1.327
  0
VERTEX
  8
7
  10
2.587
  20
1.218
  0
VERTEX
  8
7
  10
2.623
  20
1.088
  0
VERTEX
  8
7
  10
2.594
  20
0.993
  0
VERTEX
  8
7
  10
2.521
  20
0.906
  0
VERTEX
  8
7
  10
2.413
  20
0.914
  0
VERTEX
  8
7
  10
2.334
  20
0.928
  0
VERTEX
  8
7
  10
2.276
  20
0.979
  0
VERTEX
  8
7
  10
2.095
  20
1.095
  0
VERTEX
  8
7
  10
1.929
  20
1.240
  0
VERTEX
  8
7
  10
1.835
  20
1.291
  0
VERTEX
  8
7
  10
1.705
  20
1.247
  0
VERTEX
  8
7
  10
1.604
  20
1.059
  0
VERTEX
  8
7
  10
1.510
  20
0.798
  0
VERTEX
  8
7
  10
1.474
  20
0.653
  0
VERTEX
  8
7
  10
1.524
  20
0.531
  0
VERTEX
  8
7
  10
1.526
  20
0.523
  0
VERTEX
  8
7
  10
1.532
  20
0.503
  0
VERTEX
  8
7
  10
1.540
  20
0.475
  0
VERTEX
  8
7
  10
1.550
  20
0.443
  0
VERTEX
  8
7
  10
1.559
  20
0.411
  0
VERTEX
  8
7
  10
1.567
  20
0.384
  0
VERTEX
  8
7
  10
1.573
  20
0.364
  0
VERTEX
  8
7
  10
1.575
  20
0.357
  0
VERTEX
  8
7
  10
1.573
  20
0.348
  0
VERTEX
  8
7
  10
1.569
  20
0.325
  0
VERTEX
  8
7
  10
1.564
  20
0.292
  0
VERTEX
  8
7
  10
1.557
  20
0.255
  0
VERTEX
  8
7
  10
1.550
  20
0.218
  0
VERTEX
  8
7
  10
1.545
  20
0.185
  0
VERTEX
  8
7
  10
1.541
  20
0.162
  0
VERTEX
  8
7
  10
1.539
  20
0.154
  0
VERTEX
  8
7
  10
1.535
  20
0.148
  0
VERTEX
  8
7
  10
1.524
  20
0.133
  0
VERTEX
  8
7
  10
1.509
  20
0.112
  0
VERTEX
  8
7
  10
1.492
  20
0.088
  0
VERTEX
  8
7
  10
1.475
  20
0.064
  0
VERTEX
  8
7
  10
1.460
  20
0.044
  0
VERTEX
  8
7
  10
1.449
  20
0.029
  0
VERTEX
  8
7
  10
1.445
  20
0.024
  0
VERTEX
  8
7
  10
1.449
  20
0.019
  0
VERTEX
  8
7
  10
1.460
  20
0.005
  0
VERTEX
  8
7
  10
1.475
  20
-0.013
  0
VERTEX
  8
7
  10
1.492
  20
-0.035
  0
VERTEX
  8
7
  10
1.509
  20
-0.056
  0
VERTEX
  8
7
  10
1.524
  20
-0.074
  0
VERTEX
  8
7
  10
1.535
  20
-0.087
  0
VERTEX
  8
7
  10
1.539
  20
-0.092
  0
VERTEX
  8
7
  10
1.546
  20
-0.098
  0
VERTEX
  8
7
  10
1.564
  20
-0.113
  0
VERTEX
  8
7
  10
1.589
  20
-0.134
  0
VERTEX
  8
7
  10
1.619
  20
-0.158
  0
VERTEX
  8
7
  10
1.648
  20
-0.182
  0
VERTEX
  8
7
  10
1.673
  20
-0.203
  0
VERTEX
  8
7
  10
1.691
  20
-0.218
  0
VERTEX
  8
7
  10
1.698
  20
-0.223
  0
VERTEX
  8
7
  10
1.700
  20
-0.225
  0
VERTEX
  8
7
  10
1.707
  20
-0.230
  0
VERTEX
  8
7
  10
1.717
  20
-0.237
  0
VERTEX
  8
7
  10
1.730
  20
-0.246
  0
VERTEX
  8
7
  10
1.745
  20
-0.257
  0
VERTEX
  8
7
  10
1.762
  20
-0.270
  0
VERTEX
  8
7
  10
1.780
  20
-0.283
  0
VERTEX
  8
7
  10
1.799
  20
-0.296
  0
VERTEX
  8
7
  10
1.818
  20
-0.310
  0
VERTEX
  8
7
  10
1.836
  20
-0.323
  0
VERTEX
  8
7
  10
1.853
  20
-0.335
  0
VERTEX
  8
7
  10
1.868
  20
-0.346
  0
VERTEX
  8
7
  10
1.881
  20
-0.355
  0
VERTEX
  8
7
  10
1.891
  20
-0.362
  0
VERTEX
  8
7
  10
1.898
  20
-0.367
  0
VERTEX
  8
7
  10
1.900
  20
-0.368
  0
VERTEX
  8
7
  10
1.903
  20
-0.370
  0
VERTEX
  8
7
  10
1.910
  20
-0.375
  0
VERTEX
  8
7
  10
1.921
  20
-0.382
  0
VERTEX
  8
7
  10
1.933
  20
-0.390
  0
VERTEX
  8
7
  10
1.944
  20
-0.398
  0
VERTEX
  8
7
  10
1.955
  20
-0.405
  0
VERTEX
  8
7
  10
1.962
  20
-0.409
  0
VERTEX
  8
7
  10
1.965
  20
-0.411
  0
VERTEX
  8
7
  10
1.970
  20
-0.441
  0
VERTEX
  8
7
  10
1.980
  20
-0.506
  0
VERTEX
  8
7
  10
1.989
  20
-0.571
  0
VERTEX
  8
7
  10
1.994
  20
-0.600
  0
VERTEX
  8
7
  10
1.990
  20
-0.610
  0
VERTEX
  8
7
  10
1.979
  20
-0.636
  0
VERTEX
  8
7
  10
1.964
  20
-0.672
  0
VERTEX
  8
7
  10
1.947
  20
-0.713
  0
VERTEX
  8
7
  10
1.930
  20
-0.755
  0
VERTEX
  8
7
  10
1.915
  20
-0.790
  0
VERTEX
  8
7
  10
1.904
  20
-0.816
  0
VERTEX
  8
7
  10
1.900
  20
-0.825
  0
VERTEX
  8
7
  10
1.895
  20
-0.835
  0
VERTEX
  8
7
  10
1.882
  20
-0.859
  0
VERTEX
  8
7
  10
1.864
  20
-0.894
  0
VERTEX
  8
7
  10
1.843
  20
-0.934
  0
VERTEX
  8
7
  10
1.821
  20
-0.974
  0
VERTEX
  8
7
  10
1.803
  20
-1.009
  0
VERTEX
  8
7
  10
1.790
  20
-1.033
  0
VERTEX
  8
7
  10
1.785
  20
-1.042
  0
VERTEX
  8
7
  10
1.783
  20
-1.045
  0
VERTEX
  8
7
  10
1.777
  20
-1.054
  0
VERTEX
  8
7
  10
1.769
  20
-1.066
  0
VERTEX
  8
7
  10
1.760
  20
-1.079
  0
VERTEX
  8
7
  10
1.750
  20
-1.093
  0
VERTEX
  8
7
  10
1.742
  20
-1.104
  0
VERTEX
  8
7
  10
1.736
  20
-1.112
  0
VERTEX
  8
7
  10
1.734
  20
-1.115
  0
VERTEX
  8
7
  10
1.729
  20
-1.117
  0
VERTEX
  8
7
  10
1.717
  20
-1.123
  0
VERTEX
  8
7
  10
1.700
  20
-1.132
  0
VERTEX
  8
7
  10
1.680
  20
-1.141
  0
VERTEX
  8
7
  10
1.660
  20
-1.150
  0
VERTEX
  8
7
  10
1.643
  20
-1.158
  0
VERTEX
  8
7
  10
1.631
  20
-1.163
  0
VERTEX
  8
7
  10
1.626
  20
-1.165
  0
VERTEX
  8
7
  10
1.623
  20
-1.169
  0
VERTEX
  8
7
  10
1.614
  20
-1.178
  0
VERTEX
  8
7
  10
1.601
  20
-1.191
  0
VERTEX
  8
7
  10
1.586
  20
-1.206
  0
VERTEX
  8
7
  10
1.571
  20
-1.220
  0
VERTEX
  8
7
  10
1.559
  20
-1.233
  0
VERTEX
  8
7
  10
1.549
  20
-1.242
  0
VERTEX
  8
7
  10
1.546
  20
-1.245
  0
VERTEX
  8
7
  10
1.543
  20
-1.247
  0
VERTEX
  8
7
  10
1.534
  20
-1.250
  0
VERTEX
  8
7
  10
1.521
  20
-1.255
  0
VERTEX
  8
7
  10
1.507
  20
-1.260
  0
VERTEX
  8
7
  10
1.492
  20
-1.266
  0
VERTEX
  8
7
  10
1.479
  20
-1.270
  0
VERTEX
  8
7
  10
1.470
  20
-1.273
  0
VERTEX
  8
7
  10
1.467
  20
-1.274
  0
VERTEX
  8
7
  10
1.465
  20
-1.275
  0
VERTEX
  8
7
  10
1.459
  20
-1.276
  0
VERTEX
  8
7
  10
1.450
  20
-1.278
  0
VERTEX
  8
7
  10
1.438
  20
-1.280
  0
VERTEX
  8
7
  10
1.423
  20
-1.283
  0
VERTEX
  8
7
  10
1.408
  20
-1.286
  0
VERTEX
  8
7
  10
1.391
  20
-1.289
  0
VERTEX
  8
7
  10
1.373
  20
-1.293
  0
VERTEX
  8
7
  10
1.355
  20
-1.296
  0
VERTEX
  8
7
  10
1.338
  20
-1.299
  0
VERTEX
  8
7
  10
1.323
  20
-1.302
  0
VERTEX
  8
7
  10
1.308
  20
-1.305
  0
VERTEX
  8
7
  10
1.296
  20
-1.307
  0
VERTEX
  8
7
  10
1.287
  20
-1.309
  0
VERTEX
  8
7
  10
1.281
  20
-1.310
  0
VERTEX
  8
7
  10
1.279
  20
-1.310
  0
VERTEX
  8
7
  10
1.284
  20
-1.286
  0
VERTEX
  8
7
  10
1.294
  20
-1.231
  0
VERTEX
  8
7
  10
1.303
  20
-1.176
  0
VERTEX
  8
7
  10
1.308
  20
-1.151
  0
VERTEX
  8
7
  10
1.311
  20
-1.146
  0
VERTEX
  8
7
  10
1.318
  20
-1.133
  0
VERTEX
  8
7
  10
1.329
  20
-1.115
  0
VERTEX
  8
7
  10
1.341
  20
-1.094
  0
VERTEX
  8
7
  10
1.352
  20
-1.072
  0
VERTEX
  8
7
  10
1.363
  20
-1.054
  0
VERTEX
  8
7
  10
1.370
  20
-1.040
  0
VERTEX
  8
7
  10
1.373
  20
-1.035
  0
VERTEX
  8
7
  10
1.377
  20
-1.034
  0
VERTEX
  8
7
  10
1.388
  20
-1.032
  0
VERTEX
  8
7
  10
1.403
  20
-1.029
  0
VERTEX
  8
7
  10
1.420
  20
-1.025
  0
VERTEX
  8
7
  10
1.437
  20
-1.021
  0
VERTEX
  8
7
  10
1.452
  20
-1.017
  0
VERTEX
  8
7
  10
1.463
  20
-1.014
  0
VERTEX
  8
7
  10
1.467
  20
-1.013
  0
VERTEX
  8
7
  10
1.471
  20
-1.013
  0
VERTEX
  8
7
  10
1.480
  20
-1.012
  0
VERTEX
  8
7
  10
1.494
  20
-1.011
  0
VERTEX
  8
7
  10
1.510
  20
-1.010
  0
VERTEX
  8
7
  10
1.526
  20
-1.009
  0
VERTEX
  8
7
  10
1.540
  20
-1.008
  0
VERTEX
  8
7
  10
1.549
  20
-1.007
  0
VERTEX
  8
7
  10
1.553
  20
-1.006
  0
VERTEX
  8
7
  10
1.557
  20
-1.002
  0
VERTEX
  8
7
  10
1.568
  20
-0.990
  0
VERTEX
  8
7
  10
1.583
  20
-0.972
  0
VERTEX
  8
7
  10
1.600
  20
-0.952
  0
VERTEX
  8
7
  10
1.617
  20
-0.932
  0
VERTEX
  8
7
  10
1.632
  20
-0.915
  0
VERTEX
  8
7
  10
1.643
  20
-0.902
  0
VERTEX
  8
7
  10
1.647
  20
-0.897
  0
VERTEX
  8
7
  10
1.650
  20
-0.890
  0
VERTEX
  8
7
  10
1.660
  20
-0.873
  0
VERTEX
  8
7
  10
1.672
  20
-0.847
  0
VERTEX
  8
7
  10
1.687
  20
-0.818
  0
VERTEX
  8
7
  10
1.702
  20
-0.789
  0
VERTEX
  8
7
  10
1.715
  20
-0.763
  0
VERTEX
  8
7
  10
1.724
  20
-0.745
  0
VERTEX
  8
7
  10
1.727
  20
-0.738
  0
VERTEX
  8
7
  10
1.730
  20
-0.732
  0
VERTEX
  8
7
  10
1.738
  20
-0.715
  0
VERTEX
  8
7
  10
1.750
  20
-0.690
  0
VERTEX
  8
7
  10
1.763
  20
-0.662
  0
VERTEX
  8
7
  10
1.776
  20
-0.634
  0
VERTEX
  8
7
  10
1.788
  20
-0.609
  0
VERTEX
  8
7
  10
1.796
  20
-0.592
  0
VERTEX
  8
7
  10
1.799
  20
-0.585
  0
VERTEX
  8
7
  10
1.796
  20
-0.581
  0
VERTEX
  8
7
  10
1.788
  20
-0.569
  0
VERTEX
  8
7
  10
1.776
  20
-0.552
  0
VERTEX
  8
7
  10
1.763
  20
-0.532
  0
VERTEX
  8
7
  10
1.750
  20
-0.512
  0
VERTEX
  8
7
  10
1.738
  20
-0.494
  0
VERTEX
  8
7
  10
1.730
  20
-0.482
  0
VERTEX
  8
7
  10
1.727
  20
-0.477
  0
VERTEX
  8
7
  10
1.725
  20
-0.477
  0
VERTEX
  8
7
  10
1.720
  20
-0.476
  0
VERTEX
  8
7
  10
1.712
  20
-0.475
  0
VERTEX
  8
7
  10
1.701
  20
-0.473
  0
VERTEX
  8
7
  10
1.688
  20
-0.471
  0
VERTEX
  8
7
  10
1.674
  20
-0.469
  0
VERTEX
  8
7
  10
1.659
  20
-0.466
  0
VERTEX
  8
7
  10
1.644
  20
-0.463
  0
VERTEX
  8
7
  10
1.629
  20
-0.461
  0
VERTEX
  8
7
  10
1.614
  20
-0.458
  0
VERTEX
  8
7
  10
1.600
  20
-0.455
  0
VERTEX
  8
7
  10
1.587
  20
-0.453
  0
VERTEX
  8
7
  10
1.576
  20
-0.451
  0
VERTEX
  8
7
  10
1.568
  20
-0.450
  0
VERTEX
  8
7
  10
1.563
  20
-0.449
  0
VERTEX
  8
7
  10
1.561
  20
-0.448
  0
VERTEX
  8
7
  10
1.558
  20
-0.448
  0
VERTEX
  8
7
  10
1.551
  20
-0.446
  0
VERTEX
  8
7
  10
1.540
  20
-0.444
  0
VERTEX
  8
7
  10
1.526
  20
-0.442
  0
VERTEX
  8
7
  10
1.509
  20
-0.438
  0
VERTEX
  8
7
  10
1.490
  20
-0.435
  0
VERTEX
  8
7
  10
1.470
  20
-0.431
  0
VERTEX
  8
7
  10
1.449
  20
-0.427
  0
VERTEX
  8
7
  10
1.428
  20
-0.423
  0
VERTEX
  8
7
  10
1.408
  20
-0.419
  0
VERTEX
  8
7
  10
1.389
  20
-0.415
  0
VERTEX
  8
7
  10
1.372
  20
-0.411
  0
VERTEX
  8
7
  10
1.358
  20
-0.409
  0
VERTEX
  8
7
  10
1.347
  20
-0.406
  0
VERTEX
  8
7
  10
1.340
  20
-0.405
  0
VERTEX
  8
7
  10
1.337
  20
-0.404
  0
VERTEX
  8
7
  10
1.331
  20
-0.400
  0
VERTEX
  8
7
  10
1.315
  20
-0.388
  0
VERTEX
  8
7
  10
1.293
  20
-0.370
  0
VERTEX
  8
7
  10
1.268
  20
-0.350
  0
VERTEX
  8
7
  10
1.243
  20
-0.330
  0
VERTEX
  8
7
  10
1.221
  20
-0.313
  0
VERTEX
  8
7
  10
1.205
  20
-0.300
  0
VERTEX
  8
7
  10
1.199
  20
-0.295
  0
VERTEX
  8
7
  10
1.192
  20
-0.297
  0
VERTEX
  8
7
  10
1.174
  20
-0.300
  0
VERTEX
  8
7
  10
1.149
  20
-0.305
  0
VERTEX
  8
7
  10
1.120
  20
-0.310
  0
VERTEX
  8
7
  10
1.090
  20
-0.316
  0
VERTEX
  8
7
  10
1.065
  20
-0.320
  0
VERTEX
  8
7
  10
1.047
  20
-0.323
  0
VERTEX
  8
7
  10
1.040
  20
-0.324
  0
VERTEX
  8
7
  10
1.040
  20
-0.346
  0
VERTEX
  8
7
  10
1.040
  20
-0.394
  0
VERTEX
  8
7
  10
1.040
  20
-0.441
  0
VERTEX
  8
7
  10
1.040
  20
-0.462
  0
VERTEX
  8
7
  10
1.043
  20
-0.471
  0
VERTEX
  8
7
  10
1.053
  20
-0.494
  0
VERTEX
  8
7
  10
1.065
  20
-0.527
  0
VERTEX
  8
7
  10
1.080
  20
-0.564
  0
VERTEX
  8
7
  10
1.095
  20
-0.601
  0
VERTEX
  8
7
  10
1.108
  20
-0.634
  0
VERTEX
  8
7
  10
1.117
  20
-0.657
  0
VERTEX
  8
7
  10
1.120
  20
-0.665
  0
VERTEX
  8
7
  10
1.124
  20
-0.672
  0
VERTEX
  8
7
  10
1.134
  20
-0.688
  0
VERTEX
  8
7
  10
1.148
  20
-0.712
  0
VERTEX
  8
7
  10
1.164
  20
-0.738
  0
VERTEX
  8
7
  10
1.179
  20
-0.765
  0
VERTEX
  8
7
  10
1.193
  20
-0.788
  0
VERTEX
  8
7
  10
1.203
  20
-0.804
  0
VERTEX
  8
7
  10
1.207
  20
-0.810
  0
VERTEX
  8
7
  10
1.209
  20
-0.818
  0
VERTEX
  8
7
  10
1.215
  20
-0.838
  0
VERTEX
  8
7
  10
1.223
  20
-0.866
  0
VERTEX
  8
7
  10
1.232
  20
-0.898
  0
VERTEX
  8
7
  10
1.241
  20
-0.930
  0
VERTEX
  8
7
  10
1.249
  20
-0.957
  0
VERTEX
  8
7
  10
1.255
  20
-0.977
  0
VERTEX
  8
7
  10
1.257
  20
-0.984
  0
VERTEX
  8
7
  10
1.255
  20
-0.990
  0
VERTEX
  8
7
  10
1.251
  20
-1.004
  0
VERTEX
  8
7
  10
1.246
  20
-1.024
  0
VERTEX
  8
7
  10
1.239
  20
-1.046
  0
VERTEX
  8
7
  10
1.232
  20
-1.069
  0
VERTEX
  8
7
  10
1.227
  20
-1.088
  0
VERTEX
  8
7
  10
1.223
  20
-1.102
  0
VERTEX
  8
7
  10
1.221
  20
-1.107
  0
VERTEX
  8
7
  10
1.216
  20
-1.111
  0
VERTEX
  8
7
  10
1.202
  20
-1.122
  0
VERTEX
  8
7
  10
1.182
  20
-1.138
  0
VERTEX
  8
7
  10
1.160
  20
-1.155
  0
VERTEX
  8
7
  10
1.137
  20
-1.173
  0
VERTEX
  8
7
  10
1.117
  20
-1.188
  0
VERTEX
  8
7
  10
1.103
  20
-1.198
  0
VERTEX
  8
7
  10
1.098
  20
-1.202
  0
VERTEX
  8
7
  10
1.096
  20
-1.203
  0
VERTEX
  8
7
  10
1.090
  20
-1.206
  0
VERTEX
  8
7
  10
1.080
  20
-1.210
  0
VERTEX
  8
7
  10
1.068
  20
-1.215
  0
VERTEX
  8
7
  10
1.053
  20
-1.221
  0
VERTEX
  8
7
  10
1.036
  20
-1.228
  0
VERTEX
  8
7
  10
1.019
  20
-1.235
  0
VERTEX
  8
7
  10
1.001
  20
-1.242
  0
VERTEX
  8
7
  10
0.982
  20
-1.250
  0
VERTEX
  8
7
  10
0.965
  20
-1.257
  0
VERTEX
  8
7
  10
0.948
  20
-1.263
  0
VERTEX
  8
7
  10
0.933
  20
-1.269
  0
VERTEX
  8
7
  10
0.921
  20
-1.274
  0
VERTEX
  8
7
  10
0.911
  20
-1.278
  0
VERTEX
  8
7
  10
0.905
  20
-1.280
  0
VERTEX
  8
7
  10
0.903
  20
-1.281
  0
VERTEX
  8
7
  10
0.900
  20
-1.282
  0
VERTEX
  8
7
  10
0.893
  20
-1.284
  0
VERTEX
  8
7
  10
0.882
  20
-1.286
  0
VERTEX
  8
7
  10
0.867
  20
-1.290
  0
VERTEX
  8
7
  10
0.849
  20
-1.293
  0
VERTEX
  8
7
  10
0.830
  20
-1.298
  0
VERTEX
  8
7
  10
0.809
  20
-1.302
  0
VERTEX
  8
7
  10
0.788
  20
-1.307
  0
VERTEX
  8
7
  10
0.766
  20
-1.312
  0
VERTEX
  8
7
  10
0.745
  20
-1.317
  0
VERTEX
  8
7
  10
0.726
  20
-1.321
  0
VERTEX
  8
7
  10
0.708
  20
-1.325
  0
VERTEX
  8
7
  10
0.693
  20
-1.328
  0
VERTEX
  8
7
  10
0.682
  20
-1.330
  0
VERTEX
  8
7
  10
0.675
  20
-1.332
  0
VERTEX
  8
7
  10
0.672
  20
-1.332
  0
VERTEX
  8
7
  10
0.670
  20
-1.332
  0
VERTEX
  8
7
  10
0.665
  20
-1.332
  0
VERTEX
  8
7
  10
0.656
  20
-1.332
  0
VERTEX
  8
7
  10
0.645
  20
-1.333
  0
VERTEX
  8
7
  10
0.632
  20
-1.333
  0
VERTEX
  8
7
  10
0.617
  20
-1.333
  0
VERTEX
  8
7
  10
0.602
  20
-1.333
  0
VERTEX
  8
7
  10
0.586
  20
-1.333
  0
VERTEX
  8
7
  10
0.569
  20
-1.333
  0
VERTEX
  8
7
  10
0.554
  20
-1.333
  0
VERTEX
  8
7
  10
0.539
  20
-1.333
  0
VERTEX
  8
7
  10
0.526
  20
-1.333
  0
VERTEX
  8
7
  10
0.515
  20
-1.332
  0
VERTEX
  8
7
  10
0.506
  20
-1.332
  0
VERTEX
  8
7
  10
0.501
  20
-1.332
  0
VERTEX
  8
7
  10
0.499
  20
-1.332
  0
VERTEX
  8
7
  10
0.494
  20
-1.333
  0
VERTEX
  8
7
  10
0.480
  20
-1.336
  0
VERTEX
  8
7
  10
0.460
  20
-1.340
  0
VERTEX
  8
7
  10
0.438
  20
-1.344
  0
VERTEX
  8
7
  10
0.415
  20
-1.348
  0
VERTEX
  8
7
  10
0.395
  20
-1.351
  0
VERTEX
  8
7
  10
0.381
  20
-1.353
  0
VERTEX
  8
7
  10
0.376
  20
-1.354
  0
VERTEX
  8
7
  10
0.369
  20
-1.355
  0
VERTEX
  8
7
  10
0.352
  20
-1.358
  0
VERTEX
  8
7
  10
0.328
  20
-1.362
  0
VERTEX
  8
7
  10
0.300
  20
-1.366
  0
VERTEX
  8
7
  10
0.272
  20
-1.370
  0
VERTEX
  8
7
  10
0.248
  20
-1.373
  0
VERTEX
  8
7
  10
0.231
  20
-1.375
  0
VERTEX
  8
7
  10
0.224
  20
-1.376
  0
VERTEX
  8
7
  10
0.227
  20
-1.368
  0
VERTEX
  8
7
  10
0.235
  20
-1.345
  0
VERTEX
  8
7
  10
0.247
  20
-1.312
  0
VERTEX
  8
7
  10
0.260
  20
-1.275
  0
VERTEX
  8
7
  10
0.273
  20
-1.238
  0
VERTEX
  8
7
  10
0.285
  20
-1.205
  0
VERTEX
  8
7
  10
0.293
  20
-1.182
  0
VERTEX
  8
7
  10
0.296
  20
-1.173
  0
VERTEX
  8
7
  10
0.299
  20
-1.171
  0
VERTEX
  8
7
  10
0.307
  20
-1.166
  0
VERTEX
  8
7
  10
0.319
  20
-1.158
  0
VERTEX
  8
7
  10
0.332
  20
-1.148
  0
VERTEX
  8
7
  10
0.345
  20
-1.139
  0
VERTEX
  8
7
  10
0.357
  20
-1.131
  0
VERTEX
  8
7
  10
0.365
  20
-1.125
  0
VERTEX
  8
7
  10
0.368
  20
-1.122
  0
VERTEX
  8
7
  10
0.373
  20
-1.123
  0
VERTEX
  8
7
  10
0.386
  20
-1.124
  0
VERTEX
  8
7
  10
0.405
  20
-1.125
  0
VERTEX
  8
7
  10
0.426
  20
-1.126
  0
VERTEX
  8
7
  10
0.447
  20
-1.127
  0
VERTEX
  8
7
  10
0.466
  20
-1.128
  0
VERTEX
  8
7
  10
0.479
  20
-1.129
  0
VERTEX
  8
7
  10
0.484
  20
-1.129
  0
VERTEX
  8
7
  10
0.486
  20
-1.131
  0
VERTEX
  8
7
  10
0.493
  20
-1.134
  0
VERTEX
  8
7
  10
0.502
  20
-1.139
  0
VERTEX
  8
7
  10
0.513
  20
-1.144
  0
VERTEX
  8
7
  10
0.524
  20
-1.150
  0
VERTEX
  8
7
  10
0.533
  20
-1.154
  0
VERTEX
  8
7
  10
0.540
  20
-1.157
  0
VERTEX
  8
7
  10
0.542
  20
-1.158
  0
VERTEX
  8
7
  10
0.544
  20
-1.160
  0
VERTEX
  8
7
  10
0.549
  20
-1.164
  0
VERTEX
  8
7
  10
0.556
  20
-1.170
  0
VERTEX
  8
7
  10
0.564
  20
-1.177
  0
VERTEX
  8
7
  10
0.571
  20
-1.183
  0
VERTEX
  8
7
  10
0.578
  20
-1.189
  0
VERTEX
  8
7
  10
0.583
  20
-1.193
  0
VERTEX
  8
7
  10
0.585
  20
-1.194
  0
VERTEX
  8
7
  10
0.590
  20
-1.193
  0
VERTEX
  8
7
  10
0.603
  20
-1.190
  0
VERTEX
  8
7
  10
0.622
  20
-1.186
  0
VERTEX
  8
7
  10
0.643
  20
-1.180
  0
VERTEX
  8
7
  10
0.664
  20
-1.175
  0
VERTEX
  8
7
  10
0.683
  20
-1.170
  0
VERTEX
  8
7
  10
0.696
  20
-1.167
  0
VERTEX
  8
7
  10
0.701
  20
-1.165
  0
VERTEX
  8
7
  10
0.706
  20
-1.163
  0
VERTEX
  8
7
  10
0.720
  20
-1.158
  0
VERTEX
  8
7
  10
0.740
  20
-1.150
  0
VERTEX
  8
7
  10
0.763
  20
-1.141
  0
VERTEX
  8
7
  10
0.785
  20
-1.132
  0
VERTEX
  8
7
  10
0.805
  20
-1.123
  0
VERTEX
  8
7
  10
0.819
  20
-1.117
  0
VERTEX
  8
7
  10
0.824
  20
-1.115
  0
VERTEX
  8
7
  10
0.830
  20
-1.113
  0
VERTEX
  8
7
  10
0.847
  20
-1.106
  0
VERTEX
  8
7
  10
0.870
  20
-1.097
  0
VERTEX
  8
7
  10
0.896
  20
-1.087
  0
VERTEX
  8
7
  10
0.922
  20
-1.076
  0
VERTEX
  8
7
  10
0.946
  20
-1.067
  0
VERTEX
  8
7
  10
0.962
  20
-1.060
  0
VERTEX
  8
7
  10
0.968
  20
-1.057
  0
VERTEX
  8
7
  10
0.970
  20
-1.054
  0
VERTEX
  8
7
  10
0.977
  20
-1.047
  0
VERTEX
  8
7
  10
0.986
  20
-1.037
  0
VERTEX
  8
7
  10
0.997
  20
-1.025
  0
VERTEX
  8
7
  10
1.008
  20
-1.013
  0
VERTEX
  8
7
  10
1.017
  20
-1.002
  0
VERTEX
  8
7
  10
1.024
  20
-0.994
  0
VERTEX
  8
7
  10
1.026
  20
-0.991
  0
VERTEX
  8
7
  10
1.024
  20
-0.989
  0
VERTEX
  8
7
  10
1.019
  20
-0.982
  0
VERTEX
  8
7
  10
1.011
  20
-0.971
  0
VERTEX
  8
7
  10
1.000
  20
-0.957
  0
VERTEX
  8
7
  10
0.987
  20
-0.940
  0
VERTEX
  8
7
  10
0.973
  20
-0.921
  0
VERTEX
  8
7
  10
0.958
  20
-0.901
  0
VERTEX
  8
7
  10
0.943
  20
-0.880
  0
VERTEX
  8
7
  10
0.928
  20
-0.859
  0
VERTEX
  8
7
  10
0.913
  20
-0.839
  0
VERTEX
  8
7
  10
0.899
  20
-0.820
  0
VERTEX
  8
7
  10
0.886
  20
-0.803
  0
VERTEX
  8
7
  10
0.875
  20
-0.788
  0
VERTEX
  8
7
  10
0.867
  20
-0.777
  0
VERTEX
  8
7
  10
0.862
  20
-0.770
  0
VERTEX
  8
7
  10
0.860
  20
-0.767
  0
VERTEX
  8
7
  10
0.854
  20
-0.757
  0
VERTEX
  8
7
  10
0.837
  20
-0.731
  0
VERTEX
  8
7
  10
0.814
  20
-0.694
  0
VERTEX
  8
7
  10
0.788
  20
-0.652
  0
VERTEX
  8
7
  10
0.761
  20
-0.609
  0
VERTEX
  8
7
  10
0.738
  20
-0.572
  0
VERTEX
  8
7
  10
0.721
  20
-0.545
  0
VERTEX
  8
7
  10
0.715
  20
-0.535
  0
VERTEX
  8
7
  10
0.713
  20
-0.533
  0
VERTEX
  8
7
  10
0.707
  20
-0.526
  0
VERTEX
  8
7
  10
0.698
  20
-0.515
  0
VERTEX
  8
7
  10
0.686
  20
-0.500
  0
VERTEX
  8
7
  10
0.671
  20
-0.483
  0
VERTEX
  8
7
  10
0.656
  20
-0.465
  0
VERTEX
  8
7
  10
0.639
  20
-0.444
  0
VERTEX
  8
7
  10
0.621
  20
-0.423
  0
VERTEX
  8
7
  10
0.603
  20
-0.402
  0
VERTEX
  8
7
  10
0.586
  20
-0.382
  0
VERTEX
  8
7
  10
0.571
  20
-0.363
  0
VERTEX
  8
7
  10
0.556
  20
-0.346
  0
VERTEX
  8
7
  10
0.544
  20
-0.331
  0
VERTEX
  8
7
  10
0.535
  20
-0.320
  0
VERTEX
  8
7
  10
0.529
  20
-0.313
  0
VERTEX
  8
7
  10
0.527
  20
-0.310
  0
VERTEX
  8
7
  10
0.523
  20
-0.307
  0
VERTEX
  8
7
  10
0.511
  20
-0.297
  0
VERTEX
  8
7
  10
0.495
  20
-0.283
  0
VERTEX
  8
7
  10
0.477
  20
-0.267
  0
VERTEX
  8
7
  10
0.458
  20
-0.251
  0
VERTEX
  8
7
  10
0.442
  20
-0.237
  0
VERTEX
  8
7
  10
0.430
  20
-0.227
  0
VERTEX
  8
7
  10
0.426
  20
-0.223
  0
VERTEX
  8
7
  10
0.423
  20
-0.224
  0
VERTEX
  8
7
  10
0.416
  20
-0.228
  0
VERTEX
  8
7
  10
0.404
  20
-0.234
  0
VERTEX
  8
7
  10
0.389
  20
-0.241
  0
VERTEX
  8
7
  10
0.371
  20
-0.249
  0
VERTEX
  8
7
  10
0.351
  20
-0.258
  0
VERTEX
  8
7
  10
0.329
  20
-0.268
  0
VERTEX
  8
7
  10
0.307
  20
-0.278
  0
VERTEX
  8
7
  10
0.285
  20
-0.288
  0
VERTEX
  8
7
  10
0.263
  20
-0.298
  0
VERTEX
  8
7
  10
0.243
  20
-0.307
  0
VERTEX
  8
7
  10
0.225
  20
-0.316
  0
VERTEX
  8
7
  10
0.210
  20
-0.322
  0
VERTEX
  8
7
  10
0.198
  20
-0.328
  0
VERTEX
  8
7
  10
0.191
  20
-0.331
  0
VERTEX
  8
7
  10
0.188
  20
-0.332
  0
VERTEX
  8
7
  10
0.184
  20
-0.332
  0
VERTEX
  8
7
  10
0.173
  20
-0.333
  0
VERTEX
  8
7
  10
0.155
  20
-0.334
  0
VERTEX
  8
7
  10
0.133
  20
-0.336
  0
VERTEX
  8
7
  10
0.106
  20
-0.338
  0
VERTEX
  8
7
  10
0.076
  20
-0.339
  0
VERTEX
  8
7
  10
0.044
  20
-0.341
  0
VERTEX
  8
7
  10
0.011
  20
-0.343
  0
VERTEX
  8
7
  10
-0.022
  20
-0.345
  0
VERTEX
  8
7
  10
-0.054
  20
-0.347
  0
VERTEX
  8
7
  10
-0.084
  20
-0.349
  0
VERTEX
  8
7
  10
-0.111
  20
-0.350
  0
VERTEX
  8
7
  10
-0.133
  20
-0.352
  0
VERTEX
  8
7
  10
-0.151
  20
-0.352
  0
VERTEX
  8
7
  10
-0.162
  20
-0.353
  0
VERTEX
  8
7
  10
-0.166
  20
-0.353
  0
VERTEX
  8
7
  10
-0.168
  20
-0.353
  0
VERTEX
  8
7
  10
-0.175
  20
-0.352
  0
VERTEX
  8
7
  10
-0.185
  20
-0.351
  0
VERTEX
  8
7
  10
-0.199
  20
-0.349
  0
VERTEX
  8
7
  10
-0.215
  20
-0.347
  0
VERTEX
  8
7
  10
-0.232
  20
-0.345
  0
VERTEX
  8
7
  10
-0.251
  20
-0.342
  0
VERTEX
  8
7
  10
-0.271
  20
-0.339
  0
VERTEX
  8
7
  10
-0.291
  20
-0.337
  0
VERTEX
  8
7
  10
-0.310
  20
-0.334
  0
VERTEX
  8
7
  10
-0.327
  20
-0.331
  0
VERTEX
  8
7
  10
-0.343
  20
-0.329
  0
VERTEX
  8
7
  10
-0.357
  20
-0.327
  0
VERTEX
  8
7
  10
-0.367
  20
-0.326
  0
VERTEX
  8
7
  10
-0.374
  20
-0.325
  0
VERTEX
  8
7
  10
-0.376
  20
-0.324
  0
VERTEX
  8
7
  10
-0.380
  20
-0.325
  0
VERTEX
  8
7
  10
-0.389
  20
-0.326
  0
VERTEX
  8
7
  10
-0.403
  20
-0.327
  0
VERTEX
  8
7
  10
-0.419
  20
-0.329
  0
VERTEX
  8
7
  10
-0.435
  20
-0.330
  0
VERTEX
  8
7
  10
-0.449
  20
-0.331
  0
VERTEX
  8
7
  10
-0.458
  20
-0.332
  0
VERTEX
  8
7
  10
-0.462
  20
-0.332
  0
VERTEX
  8
7
  10
-0.465
  20
-0.337
  0
VERTEX
  8
7
  10
-0.472
  20
-0.349
  0
VERTEX
  8
7
  10
-0.483
  20
-0.367
  0
VERTEX
  8
7
  10
-0.494
  20
-0.387
  0
VERTEX
  8
7
  10
-0.506
  20
-0.407
  0
VERTEX
  8
7
  10
-0.517
  20
-0.424
  0
VERTEX
  8
7
  10
-0.524
  20
-0.436
  0
VERTEX
  8
7
  10
-0.527
  20
-0.440
  0
VERTEX
  8
7
  10
-0.531
  20
-0.448
  0
VERTEX
  8
7
  10
-0.542
  20
-0.470
  0
VERTEX
  8
7
  10
-0.557
  20
-0.501
  0
VERTEX
  8
7
  10
-0.574
  20
-0.535
  0
VERTEX
  8
7
  10
-0.591
  20
-0.570
  0
VERTEX
  8
7
  10
-0.606
  20
-0.600
  0
VERTEX
  8
7
  10
-0.617
  20
-0.621
  0
VERTEX
  8
7
  10
-0.621
  20
-0.629
  0
VERTEX
  8
7
  10
-0.623
  20
-0.653
  0
VERTEX
  8
7
  10
-0.628
  20
-0.706
  0
VERTEX
  8
7
  10
-0.634
  20
-0.758
  0
VERTEX
  8
7
  10
-0.636
  20
-0.781
  0
VERTEX
  8
7
  10
-0.632
  20
-0.790
  0
VERTEX
  8
7
  10
-0.622
  20
-0.813
  0
VERTEX
  8
7
  10
-0.608
  20
-0.846
  0
VERTEX
  8
7
  10
-0.592
  20
-0.883
  0
VERTEX
  8
7
  10
-0.577
  20
-0.920
  0
VERTEX
  8
7
  10
-0.563
  20
-0.953
  0
VERTEX
  8
7
  10
-0.553
  20
-0.976
  0
VERTEX
  8
7
  10
-0.549
  20
-0.984
  0
VERTEX
  8
7
  10
-0.542
  20
-0.990
  0
VERTEX
  8
7
  10
-0.525
  20
-1.005
  0
VERTEX
  8
7
  10
-0.501
  20
-1.026
  0
VERTEX
  8
7
  10
-0.473
  20
-1.050
  0
VERTEX
  8
7
  10
-0.445
  20
-1.074
  0
VERTEX
  8
7
  10
-0.421
  20
-1.095
  0
VERTEX
  8
7
  10
-0.404
  20
-1.110
  0
VERTEX
  8
7
  10
-0.397
  20
-1.115
  0
VERTEX
  8
7
  10
-0.391
  20
-1.120
  0
VERTEX
  8
7
  10
-0.376
  20
-1.131
  0
VERTEX
  8
7
  10
-0.354
  20
-1.148
  0
VERTEX
  8
7
  10
-0.328
  20
-1.166
  0
VERTEX
  8
7
  10
-0.303
  20
-1.185
  0
VERTEX
  8
7
  10
-0.281
  20
-1.201
  0
VERTEX
  8
7
  10
-0.266
  20
-1.212
  0
VERTEX
  8
7
  10
-0.260
  20
-1.216
  0
VERTEX
  8
7
  10
-0.256
  20
-1.223
  0
VERTEX
  8
7
  10
-0.245
  20
-1.242
  0
VERTEX
  8
7
  10
-0.230
  20
-1.267
  0
VERTEX
  8
7
  10
-0.213
  20
-1.297
  0
VERTEX
  8
7
  10
-0.196
  20
-1.326
  0
VERTEX
  8
7
  10
-0.181
  20
-1.352
  0
VERTEX
  8
7
  10
-0.170
  20
-1.369
  0
VERTEX
  8
7
  10
-0.166
  20
-1.376
  0
VERTEX
  8
7
  10
-0.161
  20
-1.383
  0
VERTEX
  8
7
  10
-0.148
  20
-1.399
  0
VERTEX
  8
7
  10
-0.130
  20
-1.423
  0
VERTEX
  8
7
  10
-0.108
  20
-1.449
  0
VERTEX
  8
7
  10
-0.087
  20
-1.476
  0
VERTEX
  8
7
  10
-0.069
  20
-1.499
  0
VERTEX
  8
7
  10
-0.056
  20
-1.515
  0
VERTEX
  8
7
  10
-0.051
  20
-1.521
  0
VERTEX
  8
7
  10
-0.049
  20
-1.532
  0
VERTEX
  8
7
  10
-0.045
  20
-1.559
  0
VERTEX
  8
7
  10
-0.039
  20
-1.597
  0
VERTEX
  8
7
  10
-0.032
  20
-1.641
  0
VERTEX
  8
7
  10
-0.026
  20
-1.685
  0
VERTEX
  8
7
  10
-0.020
  20
-1.723
  0
VERTEX
  8
7
  10
-0.016
  20
-1.750
  0
VERTEX
  8
7
  10
-0.014
  20
-1.760
  0
VERTEX
  8
7
  10
-0.019
  20
-1.760
  0
VERTEX
  8
7
  10
-0.032
  20
-1.758
  0
VERTEX
  8
7
  10
-0.051
  20
-1.756
  0
VERTEX
  8
7
  10
-0.072
  20
-1.753
  0
VERTEX
  8
7
  10
-0.093
  20
-1.750
  0
VERTEX
  8
7
  10
-0.112
  20
-1.748
  0
VERTEX
  8
7
  10
-0.125
  20
-1.746
  0
VERTEX
  8
7
  10
-0.130
  20
-1.745
  0
VERTEX
  8
7
  10
-0.134
  20
-1.742
  0
VERTEX
  8
7
  10
-0.146
  20
-1.733
  0
VERTEX
  8
7
  10
-0.162
  20
-1.721
  0
VERTEX
  8
7
  10
-0.180
  20
-1.706
  0
VERTEX
  8
7
  10
-0.199
  20
-1.692
  0
VERTEX
  8
7
  10
-0.215
  20
-1.679
  0
VERTEX
  8
7
  10
-0.227
  20
-1.670
  0
VERTEX
  8
7
  10
-0.231
  20
-1.666
  0
VERTEX
  8
7
  10
-0.234
  20
-1.663
  0
VERTEX
  8
7
  10
-0.241
  20
-1.656
  0
VERTEX
  8
7
  10
-0.252
  20
-1.646
  0
VERTEX
  8
7
  10
-0.263
  20
-1.634
  0
VERTEX
  8
7
  10
-0.275
  20
-1.622
  0
VERTEX
  8
7
  10
-0.286
  20
-1.611
  0
VERTEX
  8
7
  10
-0.293
  20
-1.603
  0
VERTEX
  8
7
  10
-0.296
  20
-1.600
  0
VERTEX
  8
7
  10
-0.293
  20
-1.587
  0
VERTEX
  8
7
  10
-0.285
  20
-1.557
  0
VERTEX
  8
7
  10
-0.278
  20
-1.527
  0
VERTEX
  8
7
  10
-0.275
  20
-1.513
  0
VERTEX
  8
7
  10
-0.282
  20
-1.506
  0
VERTEX
  8
7
  10
-0.300
  20
-1.489
  0
VERTEX
  8
7
  10
-0.325
  20
-1.463
  0
VERTEX
  8
7
  10
-0.354
  20
-1.434
  0
VERTEX
  8
7
  10
-0.383
  20
-1.405
  0
VERTEX
  8
7
  10
-0.408
  20
-1.379
  0
VERTEX
  8
7
  10
-0.426
  20
-1.361
  0
VERTEX
  8
7
  10
-0.433
  20
-1.354
  0
VERTEX
  8
7
  10
-0.435
  20
-1.352
  0
VERTEX
  8
7
  10
-0.441
  20
-1.346
  0
VERTEX
  8
7
  10
-0.450
  20
-1.336
  0
VERTEX
  8
7
  10
-0.462
  20
-1.324
  0
VERTEX
  8
7
  10
-0.477
  20
-1.309
  0
VERTEX
  8
7
  10
-0.492
  20
-1.293
  0
VERTEX
  8
7
  10
-0.509
  20
-1.275
  0
VERTEX
  8
7
  10
-0.527
  20
-1.257
  0
VERTEX
  8
7
  10
-0.545
  20
-1.238
  0
VERTEX
  8
7
  10
-0.562
  20
-1.221
  0
VERTEX
  8
7
  10
-0.577
  20
-1.204
  0
VERTEX
  8
7
  10
-0.592
  20
-1.189
  0
VERTEX
  8
7
  10
-0.604
  20
-1.177
  0
VERTEX
  8
7
  10
-0.613
  20
-1.167
  0
VERTEX
  8
7
  10
-0.619
  20
-1.160
  0
VERTEX
  8
7
  10
-0.621
  20
-1.158
  0
VERTEX
  8
7
  10
-0.624
  20
-1.156
  0
VERTEX
  8
7
  10
-0.631
  20
-1.150
  0
VERTEX
  8
7
  10
-0.642
  20
-1.140
  0
VERTEX
  8
7
  10
-0.656
  20
-1.128
  0
VERTEX
  8
7
  10
-0.673
  20
-1.113
  0
VERTEX
  8
7
  10
-0.692
  20
-1.097
  0
VERTEX
  8
7
  10
-0.712
  20
-1.079
  0
VERTEX
  8
7
  10
-0.733
  20
-1.061
  0
VERTEX
  8
7
  10
-0.754
  20
-1.042
  0
VERTEX
  8
7
  10
-0.774
  20
-1.025
  0
VERTEX
  8
7
  10
-0.793
  20
-1.008
  0
VERTEX
  8
7
  10
-0.810
  20
-0.993
  0
VERTEX
  8
7
  10
-0.824
  20
-0.981
  0
VERTEX
  8
7
  10
-0.835
  20
-0.971
  0
VERTEX
  8
7
  10
-0.842
  20
-0.964
  0
VERTEX
  8
7
  10
-0.845
  20
-0.962
  0
VERTEX
  8
7
  10
-0.852
  20
-0.956
  0
VERTEX
  8
7
  10
-0.869
  20
-0.939
  0
VERTEX
  8
7
  10
-0.893
  20
-0.915
  0
VERTEX
  8
7
  10
-0.921
  20
-0.887
  0
VERTEX
  8
7
  10
-0.949
  20
-0.859
  0
VERTEX
  8
7
  10
-0.973
  20
-0.834
  0
VERTEX
  8
7
  10
-0.990
  20
-0.817
  0
VERTEX
  8
7
  10
-0.997
  20
-0.810
  0
VERTEX
  8
7
  10
-0.993
  20
-0.793
  0
VERTEX
  8
7
  10
-0.983
  20
-0.748
  0
VERTEX
  8
7
  10
-0.969
  20
-0.684
  0
VERTEX
  8
7
  10
-0.953
  20
-0.611
  0
VERTEX
  8
7
  10
-0.938
  20
-0.538
  0
VERTEX
  8
7
  10
-0.924
  20
-0.474
  0
VERTEX
  8
7
  10
-0.914
  20
-0.428
  0
VERTEX
  8
7
  10
-0.910
  20
-0.411
  0
VERTEX
  8
7
  10
-0.914
  20
-0.418
  0
VERTEX
  8
7
  10
-0.926
  20
-0.435
  0
VERTEX
  8
7
  10
-0.942
  20
-0.460
  0
VERTEX
  8
7
  10
-0.960
  20
-0.488
  0
VERTEX
  8
7
  10
-0.979
  20
-0.516
  0
VERTEX
  8
7
  10
-0.995
  20
-0.541
  0
VERTEX
  8
7
  10
-1.007
  20
-0.558
  0
VERTEX
  8
7
  10
-1.011
  20
-0.564
  0
VERTEX
  8
7
  10
-1.016
  20
-0.569
  0
VERTEX
  8
7
  10
-1.028
  20
-0.581
  0
VERTEX
  8
7
  10
-1.045
  20
-0.599
  0
VERTEX
  8
7
  10
-1.065
  20
-0.619
  0
VERTEX
  8
7
  10
-1.086
  20
-0.639
  0
VERTEX
  8
7
  10
-1.103
  20
-0.656
  0
VERTEX
  8
7
  10
-1.115
  20
-0.668
  0
VERTEX
  8
7
  10
-1.120
  20
-0.672
  0
VERTEX
  8
7
  10
-1.119
  20
-0.691
  0
VERTEX
  8
7
  10
-1.116
  20
-0.731
  0
VERTEX
  8
7
  10
-1.114
  20
-0.770
  0
VERTEX
  8
7
  10
-1.113
  20
-0.788
  0
VERTEX
  8
7
  10
-1.108
  20
-0.794
  0
VERTEX
  8
7
  10
-1.094
  20
-0.809
  0
VERTEX
  8
7
  10
-1.074
  20
-0.830
  0
VERTEX
  8
7
  10
-1.051
  20
-0.854
  0
VERTEX
  8
7
  10
-1.029
  20
-0.878
  0
VERTEX
  8
7
  10
-1.009
  20
-0.899
  0
VERTEX
  8
7
  10
-0.995
  20
-0.914
  0
VERTEX
  8
7
  10
-0.990
  20
-0.919
  0
VERTEX
  8
7
  10
-0.988
  20
-0.921
  0
VERTEX
  8
7
  10
-0.983
  20
-0.928
  0
VERTEX
  8
7
  10
-0.975
  20
-0.938
  0
VERTEX
  8
7
  10
-0.964
  20
-0.950
  0
VERTEX
  8
7
  10
-0.951
  20
-0.965
  0
VERTEX
  8
7
  10
-0.937
  20
-0.982
  0
VERTEX
  8
7
  10
-0.922
  20
-0.999
  0
VERTEX
  8
7
  10
-0.907
  20
-1.018
  0
VERTEX
  8
7
  10
-0.892
  20
-1.036
  0
VERTEX
  8
7
  10
-0.877
  20
-1.054
  0
VERTEX
  8
7
  10
-0.863
  20
-1.070
  0
VERTEX
  8
7
  10
-0.850
  20
-1.085
  0
VERTEX
  8
7
  10
-0.839
  20
-1.097
  0
VERTEX
  8
7
  10
-0.831
  20
-1.107
  0
VERTEX
  8
7
  10
-0.826
  20
-1.113
  0
VERTEX
  8
7
  10
-0.824
  20
-1.115
  0
VERTEX
  8
7
  10
-0.820
  20
-1.120
  0
VERTEX
  8
7
  10
-0.809
  20
-1.132
  0
VERTEX
  8
7
  10
-0.794
  20
-1.150
  0
VERTEX
  8
7
  10
-0.777
  20
-1.170
  0
VERTEX
  8
7
  10
-0.760
  20
-1.190
  0
VERTEX
  8
7
  10
-0.745
  20
-1.207
  0
VERTEX
  8
7
  10
-0.734
  20
-1.219
  0
VERTEX
  8
7
  10
-0.730
  20
-1.223
  0
VERTEX
  8
7
  10
-0.728
  20
-1.230
  0
VERTEX
  8
7
  10
-0.721
  20
-1.247
  0
VERTEX
  8
7
  10
-0.712
  20
-1.272
  0
VERTEX
  8
7
  10
-0.701
  20
-1.300
  0
VERTEX
  8
7
  10
-0.690
  20
-1.328
  0
VERTEX
  8
7
  10
-0.681
  20
-1.353
  0
VERTEX
  8
7
  10
-0.674
  20
-1.370
  0
VERTEX
  8
7
  10
-0.672
  20
-1.376
  0
VERTEX
  8
7
  10
-0.667
  20
-1.400
  0
VERTEX
  8
7
  10
-0.657
  20
-1.453
  0
VERTEX
  8
7
  10
-0.648
  20
-1.505
  0
VERTEX
  8
7
  10
-0.643
  20
-1.528
  0
VERTEX
  8
7
  10
-0.645
  20
-1.536
  0
VERTEX
  8
7
  10
-0.651
  20
-1.555
  0
VERTEX
  8
7
  10
-0.659
  20
-1.582
  0
VERTEX
  8
7
  10
-0.668
  20
-1.612
  0
VERTEX
  8
7
  10
-0.678
  20
-1.643
  0
VERTEX
  8
7
  10
-0.686
  20
-1.669
  0
VERTEX
  8
7
  10
-0.692
  20
-1.688
  0
VERTEX
  8
7
  10
-0.694
  20
-1.695
  0
VERTEX
  8
7
  10
-0.698
  20
-1.695
  0
VERTEX
  8
7
  10
-0.710
  20
-1.693
  0
VERTEX
  8
7
  10
-0.726
  20
-1.691
  0
VERTEX
  8
7
  10
-0.744
  20
-1.688
  0
VERTEX
  8
7
  10
-0.763
  20
-1.685
  0
VERTEX
  8
7
  10
-0.779
  20
-1.683
  0
VERTEX
  8
7
  10
-0.791
  20
-1.681
  0
VERTEX
  8
7
  10
-0.795
  20
-1.680
  0
VERTEX
  8
7
  10
-0.799
  20
-1.676
  0
VERTEX
  8
7
  10
-0.810
  20
-1.664
  0
VERTEX
  8
7
  10
-0.825
  20
-1.646
  0
VERTEX
  8
7
  10
-0.842
  20
-1.626
  0
VERTEX
  8
7
  10
-0.859
  20
-1.606
  0
VERTEX
  8
7
  10
-0.874
  20
-1.589
  0
VERTEX
  8
7
  10
-0.885
  20
-1.576
  0
VERTEX
  8
7
  10
-0.889
  20
-1.571
  0
VERTEX
  8
7
  10
-0.887
  20
-1.565
  0
VERTEX
  8
7
  10
-0.883
  20
-1.550
  0
VERTEX
  8
7
  10
-0.878
  20
-1.528
  0
VERTEX
  8
7
  10
-0.871
  20
-1.503
  0
VERTEX
  8
7
  10
-0.864
  20
-1.478
  0
VERTEX
  8
7
  10
-0.859
  20
-1.456
  0
VERTEX
  8
7
  10
-0.855
  20
-1.440
  0
VERTEX
  8
7
  10
-0.853
  20
-1.434
  0
VERTEX
  8
7
  10
-0.851
  20
-1.431
  0
VERTEX
  8
7
  10
-0.844
  20
-1.422
  0
VERTEX
  8
7
  10
-0.835
  20
-1.409
  0
VERTEX
  8
7
  10
-0.824
  20
-1.395
  0
VERTEX
  8
7
  10
-0.813
  20
-1.380
  0
VERTEX
  8
7
  10
-0.804
  20
-1.367
  0
VERTEX
  8
7
  10
-0.797
  20
-1.358
  0
VERTEX
  8
7
  10
-0.795
  20
-1.354
  0
VERTEX
  8
7
  10
-0.800
  20
-1.348
  0
VERTEX
  8
7
  10
-0.814
  20
-1.331
  0
VERTEX
  8
7
  10
-0.834
  20
-1.307
  0
VERTEX
  8
7
  10
-0.856
  20
-1.279
  0
VERTEX
  8
7
  10
-0.879
  20
-1.251
  0
VERTEX
  8
7
  10
-0.899
  20
-1.226
  0
VERTEX
  8
7
  10
-0.913
  20
-1.209
  0
VERTEX
  8
7
  10
-0.918
  20
-1.202
  0
VERTEX
  8
7
  10
-0.921
  20
-1.199
  0
VERTEX
  8
7
  10
-0.929
  20
-1.192
  0
VERTEX
  8
7
  10
-0.942
  20
-1.180
  0
VERTEX
  8
7
  10
-0.959
  20
-1.164
  0
VERTEX
  8
7
  10
-0.978
  20
-1.145
  0
VERTEX
  8
7
  10
-1.000
  20
-1.125
  0
VERTEX
  8
7
  10
-1.024
  20
-1.102
  0
VERTEX
  8
7
  10
-1.048
  20
-1.079
  0
VERTEX
  8
7
  10
-1.072
  20
-1.056
  0
VERTEX
  8
7
  10
-1.096
  20
-1.034
  0
VERTEX
  8
7
  10
-1.118
  20
-1.013
  0
VERTEX
  8
7
  10
-1.137
  20
-0.994
  0
VERTEX
  8
7
  10
-1.154
  20
-0.978
  0
VERTEX
  8
7
  10
-1.167
  20
-0.966
  0
VERTEX
  8
7
  10
-1.175
  20
-0.958
  0
VERTEX
  8
7
  10
-1.178
  20
-0.955
  0
VERTEX
  8
7
  10
-1.182
  20
-0.952
  0
VERTEX
  8
7
  10
-1.192
  20
-0.943
  0
VERTEX
  8
7
  10
-1.207
  20
-0.929
  0
VERTEX
  8
7
  10
-1.228
  20
-0.910
  0
VERTEX
  8
7
  10
-1.252
  20
-0.888
  0
VERTEX
  8
7
  10
-1.279
  20
-0.864
  0
VERTEX
  8
7
  10
-1.307
  20
-0.838
  0
VERTEX
  8
7
  10
-1.337
  20
-0.811
  0
VERTEX
  8
7
  10
-1.367
  20
-0.784
  0
VERTEX
  8
7
  10
-1.395
  20
-0.757
  0
VERTEX
  8
7
  10
-1.422
  20
-0.733
  0
VERTEX
  8
7
  10
-1.446
  20
-0.711
  0
VERTEX
  8
7
  10
-1.467
  20
-0.692
  0
VERTEX
  8
7
  10
-1.482
  20
-0.678
  0
VERTEX
  8
7
  10
-1.492
  20
-0.668
  0
VERTEX
  8
7
  10
-1.496
  20
-0.665
  0
VERTEX
  8
7
  10
-1.493
  20
-0.652
  0
VERTEX
  8
7
  10
-1.485
  20
-0.622
  0
VERTEX
  8
7
  10
-1.477
  20
-0.592
  0
VERTEX
  8
7
  10
-1.474
  20
-0.578
  0
VERTEX
  8
7
  10
-1.469
  20
-0.574
  0
VERTEX
  8
7
  10
-1.457
  20
-0.562
  0
VERTEX
  8
7
  10
-1.440
  20
-0.544
  0
VERTEX
  8
7
  10
-1.420
  20
-0.524
  0
VERTEX
  8
7
  10
-1.400
  20
-0.504
  0
VERTEX
  8
7
  10
-1.383
  20
-0.487
  0
VERTEX
  8
7
  10
-1.371
  20
-0.474
  0
VERTEX
  8
7
  10
-1.366
  20
-0.469
  0
VERTEX
  8
7
  10
-1.363
  20
-0.464
  0
VERTEX
  8
7
  10
-1.356
  20
-0.449
  0
VERTEX
  8
7
  10
-1.345
  20
-0.429
  0
VERTEX
  8
7
  10
-1.333
  20
-0.405
  0
VERTEX
  8
7
  10
-1.321
  20
-0.381
  0
VERTEX
  8
7
  10
-1.310
  20
-0.360
  0
VERTEX
  8
7
  10
-1.303
  20
-0.345
  0
VERTEX
  8
7
  10
-1.300
  20
-0.339
  0
VERTEX
  8
7
  10
-1.299
  20
-0.324
  0
VERTEX
  8
7
  10
-1.296
  20
-0.289
  0
VERTEX
  8
7
  10
-1.294
  20
-0.253
  0
VERTEX
  8
7
  10
-1.293
  20
-0.237
  0
VERTEX
  8
7
  10
-1.295
  20
-0.236
  0
VERTEX
  8
7
  10
-1.302
  20
-0.231
  0
VERTEX
  8
7
  10
-1.312
  20
-0.224
  0
VERTEX
  8
7
  10
-1.325
  20
-0.215
  0
VERTEX
  8
7
  10
-1.340
  20
-0.204
  0
VERTEX
  8
7
  10
-1.357
  20
-0.192
  0
VERTEX
  8
7
  10
-1.376
  20
-0.179
  0
VERTEX
  8
7
  10
-1.394
  20
-0.165
  0
VERTEX
  8
7
  10
-1.413
  20
-0.152
  0
VERTEX
  8
7
  10
-1.432
  20
-0.139
  0
VERTEX
  8
7
  10
-1.449
  20
-0.126
  0
VERTEX
  8
7
  10
-1.464
  20
-0.115
  0
VERTEX
  8
7
  10
-1.477
  20
-0.106
  0
VERTEX
  8
7
  10
-1.487
  20
-0.099
  0
VERTEX
  8
7
  10
-1.494
  20
-0.094
  0
VERTEX
  8
7
  10
-1.496
  20
-0.092
  0
VERTEX
  8
7
  10
-1.498
  20
-0.089
  0
VERTEX
  8
7
  10
-1.504
  20
-0.080
  0
VERTEX
  8
7
  10
-1.513
  20
-0.066
  0
VERTEX
  8
7
  10
-1.524
  20
-0.048
  0
VERTEX
  8
7
  10
-1.538
  20
-0.027
  0
VERTEX
  8
7
  10
-1.553
  20
-0.003
  0
VERTEX
  8
7
  10
-1.569
  20
0.022
  0
VERTEX
  8
7
  10
-1.586
  20
0.049
  0
VERTEX
  8
7
  10
-1.603
  20
0.075
  0
VERTEX
  8
7
  10
-1.619
  20
0.101
  0
VERTEX
  8
7
  10
-1.634
  20
0.125
  0
VERTEX
  8
7
  10
-1.648
  20
0.146
  0
VERTEX
  8
7
  10
-1.659
  20
0.164
  0
VERTEX
  8
7
  10
-1.668
  20
0.179
  0
VERTEX
  8
7
  10
-1.674
  20
0.188
  0
VERTEX
  8
7
  10
-1.676
  20
0.191
  0
VERTEX
  8
7
  10
-1.682
  20
0.196
  0
VERTEX
  8
7
  10
-1.697
  20
0.210
  0
VERTEX
  8
7
  10
-1.719
  20
0.229
  0
VERTEX
  8
7
  10
-1.744
  20
0.252
  0
VERTEX
  8
7
  10
-1.770
  20
0.274
  0
VERTEX
  8
7
  10
-1.792
  20
0.294
  0
VERTEX
  8
7
  10
-1.807
  20
0.308
  0
VERTEX
  8
7
  10
-1.813
  20
0.314
  0
VERTEX
  8
7
  10
-1.819
  20
0.316
  0
VERTEX
  8
7
  10
-1.836
  20
0.320
  0
VERTEX
  8
7
  10
-1.859
  20
0.327
  0
VERTEX
  8
7
  10
-1.885
  20
0.335
  0
VERTEX
  8
7
  10
-1.912
  20
0.343
  0
VERTEX
  8
7
  10
-1.935
  20
0.350
  0
VERTEX
  8
7
  10
-1.952
  20
0.355
  0
VERTEX
  8
7
  10
-1.958
  20
0.357
  0
VERTEX
  8
7
  10
-1.962
  20
0.353
  0
VERTEX
  8
7
  10
-1.973
  20
0.343
  0
VERTEX
  8
7
  10
-1.989
  20
0.326
  0
VERTEX
  8
7
  10
-2.011
  20
0.306
  0
VERTEX
  8
7
  10
-2.037
  20
0.281
  0
VERTEX
  8
7
  10
-2.066
  20
0.253
  0
VERTEX
  8
7
  10
-2.096
  20
0.224
  0
VERTEX
  8
7
  10
-2.128
  20
0.193
  0
VERTEX
  8
7
  10
-2.160
  20
0.163
  0
VERTEX
  8
7
  10
-2.190
  20
0.133
  0
VERTEX
  8
7
  10
-2.219
  20
0.106
  0
VERTEX
  8
7
  10
-2.245
  20
0.081
  0
VERTEX
  8
7
  10
-2.267
  20
0.061
  0
VERTEX
  8
7
  10
-2.283
  20
0.045
  0
VERTEX
  8
7
  10
-2.294
  20
0.034
  0
VERTEX
  8
7
  10
-2.298
  20
0.031
  0
VERTEX
  8
7
  10
-2.293
  20
0.057
  0
VERTEX
  8
7
  10
-2.283
  20
0.114
  0
VERTEX
  8
7
  10
-2.274
  20
0.171
  0
VERTEX
  8
7
  10
-2.269
  20
0.198
  0
VERTEX
  8
7
  10
-2.271
  20
0.196
  0
VERTEX
  8
7
  10
-2.276
  20
0.193
  0
VERTEX
  8
7
  10
-2.283
  20
0.188
  0
VERTEX
  8
7
  10
-2.290
  20
0.183
  0
VERTEX
  8
7
  10
-2.298
  20
0.177
  0
VERTEX
  8
7
  10
-2.305
  20
0.173
  0
VERTEX
  8
7
  10
-2.310
  20
0.170
  0
VERTEX
  8
7
  10
-2.312
  20
0.169
  0
VERTEX
  8
7
  10
-2.318
  20
0.163
  0
VERTEX
  8
7
  10
-2.334
  20
0.147
  0
VERTEX
  8
7
  10
-2.358
  20
0.125
  0
VERTEX
  8
7
  10
-2.384
  20
0.099
  0
VERTEX
  8
7
  10
-2.410
  20
0.074
  0
VERTEX
  8
7
  10
-2.433
  20
0.052
  0
VERTEX
  8
7
  10
-2.450
  20
0.037
  0
VERTEX
  8
7
  10
-2.456
  20
0.031
  0
VERTEX
  8
7
  10
-2.452
  20
0.040
  0
VERTEX
  8
7
  10
-2.441
  20
0.063
  0
VERTEX
  8
7
  10
-2.427
  20
0.097
  0
VERTEX
  8
7
  10
-2.409
  20
0.135
  0
VERTEX
  8
7
  10
-2.392
  20
0.174
  0
VERTEX
  8
7
  10
-2.378
  20
0.208
  0
VERTEX
  8
7
  10
-2.367
  20
0.232
  0
VERTEX
  8
7
  10
-2.363
  20
0.241
  0
VERTEX
  8
7
  10
-2.368
  20
0.240
  0
VERTEX
  8
7
  10
-2.380
  20
0.238
  0
VERTEX
  8
7
  10
-2.397
  20
0.236
  0
VERTEX
  8
7
  10
-2.417
  20
0.233
  0
VERTEX
  8
7
  10
-2.437
  20
0.231
  0
VERTEX
  8
7
  10
-2.454
  20
0.229
  0
VERTEX
  8
7
  10
-2.466
  20
0.227
  0
VERTEX
  8
7
  10
-2.471
  20
0.227
  0
VERTEX
  8
7
  10
-2.475
  20
0.225
  0
VERTEX
  8
7
  10
-2.487
  20
0.219
  0
VERTEX
  8
7
  10
-2.504
  20
0.209
  0
VERTEX
  8
7
  10
-2.527
  20
0.197
  0
VERTEX
  8
7
  10
-2.555
  20
0.183
  0
VERTEX
  8
7
  10
-2.585
  20
0.166
  0
VERTEX
  8
7
  10
-2.618
  20
0.149
  0
VERTEX
  8
7
  10
-2.651
  20
0.132
  0
VERTEX
  8
7
  10
-2.685
  20
0.114
  0
VERTEX
  8
7
  10
-2.718
  20
0.097
  0
VERTEX
  8
7
  10
-2.748
  20
0.081
  0
VERTEX
  8
7
  10
-2.776
  20
0.067
  0
VERTEX
  8
7
  10
-2.799
  20
0.055
  0
VERTEX
  8
7
  10
-2.816
  20
0.046
  0
VERTEX
  8
7
  10
-2.828
  20
0.040
  0
VERTEX
  8
7
  10
-2.832
  20
0.038
  0
VERTEX
  8
7
  10
-2.830
  20
0.049
  0
VERTEX
  8
7
  10
-2.825
  20
0.078
  0
VERTEX
  8
7
  10
-2.818
  20
0.120
  0
VERTEX
  8
7
  10
-2.810
  20
0.168
  0
VERTEX
  8
7
  10
-2.803
  20
0.216
  0
VERTEX
  8
7
  10
-2.796
  20
0.258
  0
VERTEX
  8
7
  10
-2.791
  20
0.287
  0
VERTEX
  8
7
  10
-2.789
  20
0.299
  0
VERTEX
  8
7
  10
-2.791
  20
0.297
  0
VERTEX
  8
7
  10
-2.798
  20
0.291
  0
VERTEX
  8
7
  10
-2.808
  20
0.281
  0
VERTEX
  8
7
  10
-2.822
  20
0.269
  0
VERTEX
  8
7
  10
-2.837
  20
0.255
  0
VERTEX
  8
7
  10
-2.855
  20
0.239
  0
VERTEX
  8
7
  10
-2.874
  20
0.222
  0
VERTEX
  8
7
  10
-2.893
  20
0.204
  0
VERTEX
  8
7
  10
-2.913
  20
0.187
  0
VERTEX
  8
7
  10
-2.932
  20
0.170
  0
VERTEX
  8
7
  10
-2.950
  20
0.154
  0
VERTEX
  8
7
  10
-2.965
  20
0.140
  0
VERTEX
  8
7
  10
-2.979
  20
0.128
  0
VERTEX
  8
7
  10
-2.989
  20
0.119
  0
VERTEX
  8
7
  10
-2.996
  20
0.113
  0
VERTEX
  8
7
  10
-2.998
  20
0.111
  0
VERTEX
  8
7
  10
-2.994
  20
0.123
  0
VERTEX
  8
7
  10
-2.982
  20
0.157
  0
VERTEX
  8
7
  10
-2.966
  20
0.204
  0
VERTEX
  8
7
  10
-2.947
  20
0.259
  0
VERTEX
  8
7
  10
-2.929
  20
0.313
  0
VERTEX
  8
7
  10
-2.913
  20
0.361
  0
VERTEX
  8
7
  10
-2.901
  20
0.395
  0
VERTEX
  8
7
  10
-2.897
  20
0.408
  0
VERTEX
  8
7
  10
-2.900
  20
0.406
  0
VERTEX
  8
7
  10
-2.909
  20
0.401
  0
VERTEX
  8
7
  10
-2.922
  20
0.394
  0
VERTEX
  8
7
  10
-2.940
  20
0.384
  0
VERTEX
  8
7
  10
-2.961
  20
0.372
  0
VERTEX
  8
7
  10
-2.984
  20
0.359
  0
VERTEX
  8
7
  10
-3.009
  20
0.345
  0
VERTEX
  8
7
  10
-3.034
  20
0.331
  0
VERTEX
  8
7
  10
-3.060
  20
0.317
  0
VERTEX
  8
7
  10
-3.085
  20
0.303
  0
VERTEX
  8
7
  10
-3.108
  20
0.291
  0
VERTEX
  8
7
  10
-3.129
  20
0.279
  0
VERTEX
  8
7
  10
-3.147
  20
0.270
  0
VERTEX
  8
7
  10
-3.160
  20
0.262
  0
VERTEX
  8
7
  10
-3.169
  20
0.258
  0
VERTEX
  8
7
  10
-3.172
  20
0.256
  0
VERTEX
  8
7
  10
-3.169
  20
0.260
  0
VERTEX
  8
7
  10
-3.160
  20
0.270
  0
VERTEX
  8
7
  10
-3.145
  20
0.286
  0
VERTEX
  8
7
  10
-3.127
  20
0.307
  0
VERTEX
  8
7
  10
-3.105
  20
0.333
  0
VERTEX
  8
7
  10
-3.081
  20
0.361
  0
VERTEX
  8
7
  10
-3.054
  20
0.391
  0
VERTEX
  8
7
  10
-3.027
  20
0.422
  0
VERTEX
  8
7
  10
-3.001
  20
0.453
  0
VERTEX
  8
7
  10
-2.974
  20
0.483
  0
VERTEX
  8
7
  10
-2.950
  20
0.511
  0
VERTEX
  8
7
  10
-2.928
  20
0.536
  0
VERTEX
  8
7
  10
-2.910
  20
0.558
  0
VERTEX
  8
7
  10
-2.895
  20
0.574
  0
VERTEX
  8
7
  10
-2.886
  20
0.585
  0
VERTEX
  8
7
  10
-2.883
  20
0.589
  0
VERTEX
  8
7
  10
-2.889
  20
0.586
  0
VERTEX
  8
7
  10
-2.904
  20
0.576
  0
VERTEX
  8
7
  10
-2.929
  20
0.562
  0
VERTEX
  8
7
  10
-2.961
  20
0.543
  0
VERTEX
  8
7
  10
-2.999
  20
0.521
  0
VERTEX
  8
7
  10
-3.041
  20
0.497
  0
VERTEX
  8
7
  10
-3.086
  20
0.470
  0
VERTEX
  8
7
  10
-3.132
  20
0.443
  0
VERTEX
  8
7
  10
-3.178
  20
0.416
  0
VERTEX
  8
7
  10
-3.223
  20
0.390
  0
VERTEX
  8
7
  10
-3.265
  20
0.366
  0
VERTEX
  8
7
  10
-3.303
  20
0.344
  0
VERTEX
  8
7
  10
-3.335
  20
0.325
  0
VERTEX
  8
7
  10
-3.360
  20
0.311
  0
VERTEX
  8
7
  10
-3.375
  20
0.302
  0
VERTEX
  8
7
  10
-3.381
  20
0.299
  0
VERTEX
  8
7
  10
-3.377
  20
0.303
  0
VERTEX
  8
7
  10
-3.365
  20
0.315
  0
VERTEX
  8
7
  10
-3.347
  20
0.333
  0
VERTEX
  8
7
  10
-3.323
  20
0.356
  0
VERTEX
  8
7
  10
-3.296
  20
0.384
  0
VERTEX
  8
7
  10
-3.265
  20
0.415
  0
VERTEX
  8
7
  10
-3.231
  20
0.448
  0
VERTEX
  8
7
  10
-3.197
  20
0.483
  0
VERTEX
  8
7
  10
-3.163
  20
0.517
  0
VERTEX
  8
7
  10
-3.129
  20
0.550
  0
VERTEX
  8
7
  10
-3.098
  20
0.581
  0
VERTEX
  8
7
  10
-3.070
  20
0.609
  0
VERTEX
  8
7
  10
-3.047
  20
0.633
  0
VERTEX
  8
7
  10
-3.029
  20
0.651
  0
VERTEX
  8
7
  10
-3.017
  20
0.663
  0
VERTEX
  8
7
  10
-3.013
  20
0.667
  0
VERTEX
  8
7
  10
-3.403
  20
0.510
  0
VERTEX
  8
7
  10
-3.401
  20
0.512
  0
VERTEX
  8
7
  10
-3.394
  20
0.516
  0
VERTEX
  8
7
  10
-3.384
  20
0.524
  0
VERTEX
  8
7
  10
-3.371
  20
0.534
  0
VERTEX
  8
7
  10
-3.356
  20
0.546
  0
VERTEX
  8
7
  10
-3.339
  20
0.559
  0
VERTEX
  8
7
  10
-3.321
  20
0.573
  0
VERTEX
  8
7
  10
-3.302
  20
0.588
  0
VERTEX
  8
7
  10
-3.283
  20
0.603
  0
VERTEX
  8
7
  10
-3.265
  20
0.617
  0
VERTEX
  8
7
  10
-3.248
  20
0.630
  0
VERTEX
  8
7
  10
-3.233
  20
0.642
  0
VERTEX
  8
7
  10
-3.220
  20
0.652
  0
VERTEX
  8
7
  10
-3.210
  20
0.660
  0
VERTEX
  8
7
  10
-3.203
  20
0.665
  0
VERTEX
  8
7
  10
-3.201
  20
0.667
  0
SEQEND
  0
POLYLINE
  8
7
  6
CONTINUOUS
 66
  1
  0
VERTEX
  8
7
  10
1.951
  20
1.842
  0
VERTEX
  8
7
  10
2.212
  20
1.727
  0
VERTEX
  8
7
  10
2.110
  20
1.611
  0
VERTEX
  8
7
  10
1.951
  20
1.842
  0
SEQEND
  0
POLYLINE
  8
7
  6
CONTINUOUS
 66
  1
  0
VERTEX
  8
7
  10
-1.576
  20
0.928
  0
VERTEX
  8
7
  10
-1.690
  20
0.668
  0
VERTEX
  8
7
  10
-1.747
  20
0.350
  0
VERTEX
  8
7
  10
-1.745
  20
0.336
  0
VERTEX
  8
7
  10
-1.741
  20
0.306
  0
VERTEX
  8
7
  10
-1.736
  20
0.276
  0
VERTEX
  8
7
  10
-1.734
  20
0.262
  0
SEQEND
  0
POLYLINE
  8
7
  6
CONTINUOUS
 66
  1
  0
VERTEX
  8
7
  10
-0.737
  20
0.914
  0
VERTEX
  8
7
  10
-0.924
  20
0.567
  0
VERTEX
  8
7
  10
-0.865
  20
0.234
  0
VERTEX
  8
7
  10
-0.863
  20
0.230
  0
VERTEX
  8
7
  10
-0.857
  20
0.220
  0
VERTEX
  8
7
  10
-0.848
  20
0.204
  0
VERTEX
  8
7
  10
-0.836
  20
0.184
  0
VERTEX
  8
7
  10
-0.822
  20
0.159
  0
VERTEX
  8
7
  10
-0.807
  20
0.132
  0
VERTEX
  8
7
  10
-0.790
  20
0.103
  0
VERTEX
  8
7
  10
-0.772
  20
0.074
  0
VERTEX
  8
7
  10
-0.755
  20
0.044
  0
VERTEX
  8
7
  10
-0.738
  20
0.015
  0
VERTEX
  8
7
  10
-0.722
  20
-0.012
  0
VERTEX
  8
7
  10
-0.708
  20
-0.036
  0
VERTEX
  8
7
  10
-0.696
  20
-0.057
  0
VERTEX
  8
7
  10
-0.687
  20
-0.072
  0
VERTEX
  8
7
  10
-0.681
  20
-0.082
  0
VERTEX
  8
7
  10
-0.679
  20
-0.086
  0
SEQEND
  0
POLYLINE
  8
7
  6
CONTINUOUS
 66
  1
  0
VERTEX
  8
7
  10
0.607
  20
1.131
  0
VERTEX
  8
7
  10
0.232
  20
0.799
  0
VERTEX
  8
7
  10
0.306
  20
0.350
  0
VERTEX
  8
7
  10
0.311
  20
0.326
  0
VERTEX
  8
7
  10
0.326
  20
0.263
  0
VERTEX
  8
7
  10
0.346
  20
0.175
  0
VERTEX
  8
7
  10
0.370
  20
0.074
  0
VERTEX
  8
7
  10
0.394
  20
-0.028
  0
VERTEX
  8
7
  10
0.415
  20
-0.116
  0
VERTEX
  8
7
  10
0.429
  20
-0.178
  0
VERTEX
  8
7
  10
0.435
  20
-0.202
  0
SEQEND
  0
POLYLINE
  8
7
  6
CONTINUOUS
 66
  1
  0
VERTEX
  8
7
  10
1.792
  20
1.943
  0
VERTEX
  8
7
  10
1.836
  20
1.654
  0
VERTEX
  8
7
  10
1.737
  20
1.496
  0
VERTEX
  8
7
  10
1.741
  20
1.464
  0
VERTEX
  8
7
  10
1.751
  20
1.394
  0
VERTEX
  8
7
  10
1.760
  20
1.324
  0
VERTEX
  8
7
  10
1.765
  20
1.292
  0
SEQEND
  0
POLYLINE
  8
7
  6
CONTINUOUS
 66
  1
  0
VERTEX
  8
7
  10
1.446
  20
0.073
  0
VERTEX
  8
7
  10
1.331
  20
-0.086
  0
VERTEX
  8
7
  10
1.216
  20
-0.201
  0
VERTEX
  8
7
  10
1.214
  20
-0.205
  0
VERTEX
  8
7
  10
1.211
  20
-0.215
  0
VERTEX
  8
7
  10
1.206
  20
-0.229
  0
VERTEX
  8
7
  10
1.201
  20
-0.245
  0
VERTEX
  8
7
  10
1.195
  20
-0.261
  0
VERTEX
  8
7
  10
1.191
  20
-0.275
  0
VERTEX
  8
7
  10
1.187
  20
-0.285
  0
VERTEX
  8
7
  10
1.186
  20
-0.289
  0
SEQEND
  0
POLYLINE
  8
7
  6
CONTINUOUS
 66
  1
  0
VERTEX
  8
7
  10
0.809
  20
0.827
  0
VERTEX
  8
7
  10
1.185
  20
0.567
  0
VERTEX
  8
7
  10
1.344
  20
0.278
  0
VERTEX
  8
7
  10
1.346
  20
0.267
  0
VERTEX
  8
7
  10
1.353
  20
0.239
  0
VERTEX
  8
7
  10
1.362
  20
0.199
  0
VERTEX
  8
7
  10
1.373
  20
0.154
  0
VERTEX
  8
7
  10
1.384
  20
0.108
  0
VERTEX
  8
7
  10
1.393
  20
0.069
  0
VERTEX
  8
7
  10
1.400
  20
0.041
  0
VERTEX
  8
7
  10
1.402
  20
0.030
  0
SEQEND
  0
POLYLINE
  8
7
  6
CONTINUOUS
 66
  1
  0
VERTEX
  8
7
  10
2.284
  20
1.334
  0
VERTEX
  8
7
  10
2.414
  20
1.103
  0
VERTEX
  8
7
  10
2.472
  20
0.944
  0
SEQEND
  0
ENDSEC
  0
EOF
