  0
SECTION
  2
HEADER
  9
$ACADVER
  1
AC1009
  9
$INSBASE
 10
0.0
 20
0.0
 30
0.0
  9
$EXTMIN
 10
-12.656786
 20
-1.022235
 30
0.0
  9
$EXTMAX
 10
8.908041
 20
11.735525
 30
0.0
  9
$LIMMIN
 10
-10.0
 20
-10.0
  9
$LIMMAX
 10
12.0
 20
9.0
  9
$ORTHOMODE
 70
     1
  9
$REGENMODE
 70
     1
  9
$FILLMODE
 70
     1
  9
$QTEXTMODE
 70
     0
  9
$MIRRTEXT
 70
     1
  9
$DRAGMODE
 70
     2
  9
$LTSCALE
 40
1.0
  9
$OSMODE
 70
     0
  9
$ATTMODE
 70
     1
  9
$TEXTSIZE
 40
0.1
  9
$TRACEWID
 40
0.05
  9
$TEXTSTYLE
  7
TXT
  9
$CLAYER
  8
0
  9
$CELTYPE
  6
BYLAYER
  9
$CECOLOR
 62
   256
  9
$DIMSCALE
 40
1.0
  9
$DIMASZ
 40
0.18
  9
$DIMEXO
 40
0.0625
  9
$DIMDLI
 40
0.38
  9
$DIMRND
 40
0.0
  9
$DIMDLE
 40
0.0
  9
$DIMEXE
 40
0.18
  9
$DIMTP
 40
0.0
  9
$DIMTM
 40
0.0
  9
$DIMTXT
 40
0.18
  9
$DIMCEN
 40
0.09
  9
$DIMTSZ
 40
0.0
  9
$DIMTOL
 70
     0
  9
$DIMLIM
 70
     0
  9
$DIMTIH
 70
     1
  9
$DIMTOH
 70
     1
  9
$DIMSE1
 70
     0
  9
$DIMSE2
 70
     0
  9
$DIMTAD
 70
     0
  9
$DIMZIN
 70
     0
  9
$DIMBLK
  1

  9
$DIMASO
 70
     1
  9
$DIMSHO
 70
     1
  9
$DIMPOST
  1

  9
$DIMAPOST
  1

  9
$DIMALT
 70
     0
  9
$DIMALTD
 70
     2
  9
$DIMALTF
 40
25.4
  9
$DIMLFAC
 40
1.0
  9
$DIMTOFL
 70
     0
  9
$DIMTVP
 40
0.0
  9
$DIMTIX
 70
     0
  9
$DIMSOXD
 70
     0
  9
$DIMSAH
 70
     0
  9
$DIMBLK1
  1

  9
$DIMBLK2
  1

  9
$DIMSTYLE
  2
*UNNAMED
  9
$DIMCLRD
 70
     0
  9
$DIMCLRE
 70
     0
  9
$DIMCLRT
 70
     0
  9
$DIMTFAC
 40
1.0
  9
$DIMGAP
 40
0.09
  9
$LUNITS
 70
     2
  9
$LUPREC
 70
     4
  9
$SKETCHINC
 40
0.1
  9
$FILLETRAD
 40
0.0
  9
$AUNITS
 70
     0
  9
$AUPREC
 70
     0
  9
$MENU
  1
acad
  9
$ELEVATION
 40
0.0
  9
$PELEVATION
 40
0.0
  9
$THICKNESS
 40
0.0
  9
$LIMCHECK
 70
     0
  9
$BLIPMODE
 70
     1
  9
$CHAMFERA
 40
0.0
  9
$CHAMFERB
 40
0.0
  9
$SKPOLY
 70
     0
  9
$TDCREATE
 40
2449631.769371990
  9
$TDUPDATE
 40
2449639.381407870
  9
$TDINDWG
 40
0.2938063657
  9
$TDUSRTIMER
 40
0.2938063657
  9
$USRTIMER
 70
     1
  9
$ANGBASE
 50
0.0
  9
$ANGDIR
 70
     0
  9
$PDMODE
 70
     0
  9
$PDSIZE
 40
0.0
  9
$PLINEWID
 40
0.0
  9
$COORDS
 70
     1
  9
$SPLFRAME
 70
     0
  9
$SPLINETYPE
 70
     6
  9
$SPLINESEGS
 70
     8
  9
$ATTDIA
 70
     0
  9
$ATTREQ
 70
     1
  9
$HANDLING
 70
     1
  9
$HANDSEED
  5
7F3
  9
$SURFTAB1
 70
     6
  9
$SURFTAB2
 70
     6
  9
$SURFTYPE
 70
     6
  9
$SURFU
 70
     6
  9
$SURFV
 70
     6
  9
$UCSNAME
  2

  9
$UCSORG
 10
0.0
 20
0.0
 30
0.0
  9
$UCSXDIR
 10
1.0
 20
0.0
 30
0.0
  9
$UCSYDIR
 10
0.0
 20
1.0
 30
0.0
  9
$PUCSNAME
  2

  9
$PUCSORG
 10
0.0
 20
0.0
 30
0.0
  9
$PUCSXDIR
 10
1.0
 20
0.0
 30
0.0
  9
$PUCSYDIR
 10
0.0
 20
1.0
 30
0.0
  9
$USERI1
 70
     0
  9
$USERI2
 70
     0
  9
$USERI3
 70
     0
  9
$USERI4
 70
     0
  9
$USERI5
 70
     0
  9
$USERR1
 40
0.0
  9
$USERR2
 40
0.0
  9
$USERR3
 40
0.0
  9
$USERR4
 40
0.0
  9
$USERR5
 40
0.0
  9
$WORLDVIEW
 70
     1
  9
$SHADEDGE
 70
     3
  9
$SHADEDIF
 70
    70
  9
$TILEMODE
 70
     1
  9
$MAXACTVP
 70
    16
  9
$PINSBASE
 10
0.0
 20
0.0
 30
0.0
  9
$PLIMCHECK
 70
     0
  9
$PEXTMIN
 10
1.000000E+20
 20
1.000000E+20
 30
1.000000E+20
  9
$PEXTMAX
 10
-1.000000E+20
 20
-1.000000E+20
 30
-1.000000E+20
  9
$PLIMMIN
 10
0.0
 20
0.0
  9
$PLIMMAX
 10
12.0
 20
9.0
  9
$UNITMODE
 70
     0
  9
$VISRETAIN
 70
     0
  9
$PLINEGEN
 70
     0
  9
$PSLTSCALE
 70
     1
  9
$TREEDEPTH
 70
  3020
  9
$DWGCODEPAGE
  3
ascii
  0
ENDSEC
  0
SECTION
  2
TABLES
  0
TABLE
  2
VPORT
 70
     2
  0
VPORT
  2
*ACTIVE
 70
     0
 10
0.0
 20
0.0
 11
1.0
 21
1.0
 12
-1.56278
 22
4.9977
 13
0.0
 23
0.0
 14
1.0
 24
1.0
 15
0.0
 25
0.0
 16
0.0
 26
0.0
 36
1.0
 17
0.0
 27
0.0
 37
0.0
 40
17.822754
 41
1.387409
 42
50.0
 43
0.0
 44
0.0
 50
0.0
 51
0.0
 71
     0
 72
   100
 73
     1
 74
     1
 75
     0
 76
     0
 77
     0
 78
     0
  0
ENDTAB
  0
TABLE
  2
LTYPE
 70
     1
  0
LTYPE
  2
CONTINUOUS
 70
    64
  3
Solid line
 72
    65
 73
     0
 40
0.0
  0
ENDTAB
  0
TABLE
  2
LAYER
 70
     3
  0
LAYER
  2
0
 70
    64
 62
     7
  6
CONTINUOUS
  0
LAYER
  2
ERRORS
 70
    64
 62
     1
  6
CONTINUOUS
  0
LAYER
  2
AME_FRZ
 70
    65
 62
     7
  6
CONTINUOUS
  0
ENDTAB
  0
TABLE
  2
STYLE
 70
     3
  0
STYLE
  2
STANDARD
 70
    64
 40
0.08
 41
0.75
 50
0.0
 71
     0
 42
0.08
  3
TXT.shx
  4

  0
STYLE
  2
ROMAND
 70
    64
 40
0.15
 41
0.8
 50
0.0
 71
     0
 42
0.15
  3
ROMAND.SHX
  4

  0
STYLE
  2
TXT
 70
    64
 40
0.1
 41
1.0
 50
0.0
 71
     0
 42
0.1
  3
txt.shx
  4

  0
ENDTAB
  0
TABLE
  2
VIEW
 70
     0
  0
ENDTAB
  0
TABLE
  2
UCS
 70
     0
  0
ENDTAB
  0
TABLE
  2
APPID
 70
     2
  0
APPID
  2
ACAD
 70
    64
  0
APPID
  2
AME_SOL
 70
    64
  0
ENDTAB
  0
TABLE
  2
DIMSTYLE
 70
     0
  0
ENDTAB
  0
ENDSEC
  0
SECTION
  2
BLOCKS
  0
BLOCK
  8
0
  5
65C
  2
AME_NIL
 70
    64
 10
0.0
 20
0.0
 30
0.0
  1
AME_NIL
  3
AME_NIL
  0
ENDBLK
  8
0
  5
65D
  0
BLOCK
  8
0
  5
65F
  2
AME_SOL
 70
    64
 10
0.0
 20
0.0
 30
0.0
  1
AME_SOL
  3
AME_SOL
  0
ENDBLK
  8
0
  5
660
  0
ENDSEC
  0
SECTION
  2
ENTITIES
  0
TEXT
  8
0
  5
1
 10
-9.391848
 20
10.837438
 30
0.0
 40
0.25
  1
Polyline PRO + Utilities
 41
0.8
  7
ROMAND
  0
TEXT
  8
0
  5
2
 10
-9.207543
 20
10.540282
 30
0.0
 40
0.15
  1
Polyline Creation / Error Location
 41
0.8
  7
ROMAND
  0
TEXT
  8
0
 62
     3
  5
3
 10
-11.310591
 20
9.436132
 30
0.0
 40
0.175
  1
Polyline PRO + Utilities
 41
0.8
  7
ROMAND
  0
TEXT
  8
0
  5
4
 10
-10.523888
 20
9.193275
 30
0.0
 40
0.15
  1
Santa Clara, CA  for the purpose of rapidly finding and correcting
 41
0.8
  7
ROMAND
  0
TEXT
  8
0
  5
5
 10
-10.523888
 20
8.950418
 30
0.0
 40
0.15
  1
boundary errors found within AutoCAD drawings (for applications of 
 41
0.8
  7
ROMAND
  0
TEXT
  8
0
  5
6
 10
-10.523888
 20
8.707561
 30
0.0
 40
0.15
  1
converting AutoCAD files to GERBER Data, and creating complex hatch
 41
0.8
  7
ROMAND
  0
TEXT
  8
0
  5
7
 10
-10.523888
 20
8.464703
 30
0.0
 40
0.15
  1
boundaries).
 41
0.8
  7
ROMAND
  0
TEXT
  8
0
 62
     3
  5
8
 10
-10.939455
 20
7.978989
 30
0.0
 40
0.175
  1
*Polyline PRO 
 41
0.8
  7
ROMAND
  0
TEXT
  8
0
  5
9
 10
-10.939455
 20
7.736132
 30
0.0
 40
0.15
  1
 containing all entities.  Then sit back, and let Polyline PRO go to work.
 41
0.8
  7
ROMAND
  0
TEXT
  8
0
  5
A
 10
-10.939455
 20
7.493275
 30
0.0
 40
0.15
  1
 It will create closed polylines for all entities found within your 
 41
0.8
  7
ROMAND
  0
TEXT
  8
0
  5
B
 10
-10.939455
 20
7.250418
 30
0.0
 40
0.15
  1
 specified tolerance factor, or locate any errors found and mark their
 41
0.8
  7
ROMAND
  0
TEXT
  8
0
  5
C
 10
-10.939455
 20
7.007561
 30
0.0
 40
0.15
  1
 exact locations!
 41
0.8
  7
ROMAND
  0
TEXT
  8
0
  5
D
 10
-11.4234
 20
3.952822
 30
0.0
 40
0.2
  1
Utilities included:
 41
0.8
  7
ROMAND
  0
TEXT
  8
0
 62
     3
  5
E
 10
-10.892907
 20
3.667006
 30
0.0
 40
0.15
  1
*Error Finder 
 41
0.8
  7
ROMAND
  0
TEXT
  8
0
  5
F
 10
-10.892907
 20
3.424149
 30
0.0
 40
0.15
  1
 locations.  Simply pick a window around the area of the drawing you
 41
0.8
  7
ROMAND
  0
TEXT
  8
0
  5
10
 10
-10.892907
 20
3.181291
 30
0.0
 40
0.15
  1
 wish to examine.
 41
0.8
  7
ROMAND
  0
TEXT
  8
0
 62
     3
  5
11
 10
-10.892907
 20
2.695577
 30
0.0
 40
0.15
  1
*Polyline Check
 41
0.8
  7
ROMAND
  0
TEXT
  8
0
  5
12
 10
-10.892907
 20
2.45272
 30
0.0
 40
0.15
  1
 the endpoints of those polylines.  Simply pick a window around the 
 41
0.8
  7
ROMAND
  0
TEXT
  8
0
  5
13
 10
-10.892907
 20
2.209863
 30
0.0
 40
0.15
  1
 area of the drawing you wish to examine.
 41
0.8
  7
ROMAND
  0
TEXT
  8
0
 62
     3
  5
14
 10
-10.892907
 20
1.724149
 30
0.0
 40
0.15
  1
*Boundary Clean 
 41
0.8
  7
ROMAND
  0
TEXT
  8
0
  5
15
 10
-10.892907
 20
1.481291
 30
0.0
 40
0.15
  1
 left on the drawing.
 41
0.8
  7
ROMAND
  0
TEXT
  8
0
  5
16
 10
-12.156161
 20
0.334657
 30
0.0
 40
0.1
  1
*Polyline PRO runs with AutoCAD versions 10+*
 41
0.8
  7
ROMAND
  0
TEXT
  8
0
  5
17
 10
-12.156161
 20
0.179927
 30
0.0
 40
0.1
  1
*AutoCAD is a registered trademark of AutoDESK Inc.*
 41
0.8
  7
ROMAND
  0
TEXT
  8
0
  5
18
 10
-12.152886
 20
0.003735
 30
0.0
 40
0.1
  1
*GERBER is a registered trademark of Gerber Scientific Inc.*
 41
0.8
  7
ROMAND
  0
TEXT
  8
0
  5
19
 10
-8.718019
 20
9.423848
 30
0.0
 40
0.15
  1
--- was developed by Innovative C.A.D located in
 41
0.8
  7
ROMAND
  0
TEXT
  8
0
  5
1A
 10
-9.257085
 20
7.977236
 30
0.0
 40
0.15
  1
-  simply enter a tolerance factor and select a window
 41
0.8
  7
ROMAND
  0
LINE
  8
0
  5
1B
 10
-11.431207
 20
3.904533
 30
0.0
 11
-9.267475
 21
3.904533
 31
0.0
  0
TEXT
  8
0
  5
1C
 10
-9.568084
 20
3.646779
 30
0.0
 40
0.15
  1
- locates any boundary errors and marks their exact
 41
0.8
  7
ROMAND
  0
TEXT
  8
0
  5
1D
 10
-9.338815
 20
2.701679
 30
0.0
 40
0.15
  1
- locates any polylines that are not closed, and marks
 41
0.8
  7
ROMAND
  0
TEXT
  8
0
  5
1E
 10
-9.20985
 20
1.713621
 30
0.0
 40
0.15
  1
- eliminates any excess lines, arcs, or points that are
 41
0.8
  7
ROMAND
  0
LINE
  8
0
  5
1F
 10
-11.638657
 20
4.703618
 30
0.0
 11
-11.638657
 21
6.715359
 31
0.0
  0
LINE
  8
0
  5
20
 10
-11.638657
 20
6.715359
 30
0.0
 11
-9.019136
 21
6.715359
 31
0.0
  0
LINE
  8
0
  5
21
 10
-9.019136
 20
6.715359
 30
0.0
 11
-9.019136
 21
4.703618
 31
0.0
  0
LINE
  8
0
  5
22
 10
-9.019136
 20
4.703618
 30
0.0
 11
-11.638657
 21
4.703618
 31
0.0
  0
LINE
  8
0
  5
23
 10
-9.24295
 20
6.715359
 30
0.0
 11
-9.24295
 21
5.006214
 31
0.0
  0
LINE
  8
0
  5
24
 10
-11.638657
 20
5.006214
 30
0.0
 11
-9.019136
 21
5.006214
 31
0.0
  0
TEXT
  8
0
  5
25
 10
-9.225233
 20
6.201612
 30
0.0
 40
0.034
  1
 -----
 41
0.75
  0
TEXT
  8
0
  5
26
 10
-9.225233
 20
6.167635
 30
0.0
 40
0.034
  1
 -ICD-
 41
0.75
  0
TEXT
  8
0
  5
27
 10
-9.225233
 20
6.135721
 30
0.0
 40
0.034
  1
 -----
 41
0.75
  0
TEXT
  8
0
  5
28
 10
-9.225233
 20
5.997635
 30
0.0
 40
0.034
  1
 PL-PRO
 41
0.75
  0
TEXT
  8
0
  5
29
 10
-9.225233
 20
5.940968
 30
0.0
 40
0.034
  1
ERR_FIND
 41
0.75
  0
TEXT
  8
0
  5
2A
 10
-9.225233
 20
5.884302
 30
0.0
 40
0.034
  1
 PL_CHK
 41
0.75
  0
TEXT
  8
0
  5
2B
 10
-9.214913
 20
5.827635
 30
0.0
 40
0.034
  1
B_CLEAN
 41
0.75
  0
TEXT
  8
0
  5
2C
 10
-9.225233
 20
5.652421
 30
0.0
 40
0.034
  1
  EXIT
 41
0.75
  0
LINE
  8
0
  5
2E
 10
-1.651555
 20
9.826103
 30
0.0
 11
-1.659055
 21
9.826103
 31
0.0
  0
LINE
  8
0
  5
2F
 10
-1.659055
 20
9.825803
 30
0.0
 11
-1.659055
 21
10.353442
 31
0.0
  0
ARC
  8
0
  5
30
 10
-1.351532
 20
10.353481
 30
0.0
 40
0.307523
 50
125.805017
 51
180.007187
  0
LINE
  8
0
  5
31
 10
-1.531442
 20
10.602886
 30
0.0
 11
-0.639962
 21
11.245726
 31
0.0
  0
ARC
  8
0
  5
32
 10
-0.284635
 20
10.752998
 30
0.0
 40
0.607485
 50
48.270342
 51
125.796912
  0
LINE
  8
0
  5
33
 10
0.119717
 20
11.20636
 30
0.0
 11
0.833717
 21
10.56958
 31
0.0
  0
ARC
  8
0
  5
34
 10
0.629059
 20
10.34008
 30
0.0
 40
0.307498
 50
306.537818
 51
48.274946
  0
LINE
  8
0
  5
35
 10
0.812129
 20
10.093016
 30
0.0
 11
0.38415
 21
9.775976
 31
0.0
  0
ARC
  8
0
  5
36
 10
0.558269
 20
9.540975
 30
0.0
 40
0.292477
 50
126.535817
 51
178.2908
  0
LINE
  8
0
  5
37
 10
0.265922
 20
9.549699
 30
0.0
 11
0.250562
 21
9.034778
 31
0.0
  0
ARC
  8
0
  5
38
 10
0.842832
 20
9.017041
 30
0.0
 40
0.592536
 50
178.284666
 51
233.045835
  0
LINE
  8
0
  5
39
 10
0.486614
 20
8.543536
 30
0.0
 11
1.587013
 21
7.715836
 31
0.0
  0
LINE
  8
0
  5
3A
 10
-1.651755
 20
9.825803
 30
0.0
 11
-1.651755
 21
10.353443
 31
0.0
  0
ARC
  8
0
  5
3B
 10
-1.351533
 20
10.353481
 30
0.0
 40
0.300022
 50
125.80514
 51
180.007401
  0
LINE
  8
0
  5
3C
 10
-1.527055
 20
10.596803
 30
0.0
 11
-0.635575
 21
11.239643
 31
0.0
  0
ARC
  8
0
  5
3D
 10
-0.284635
 20
10.752998
 30
0.0
 40
0.599985
 50
48.270332
 51
125.796923
  0
LINE
  8
0
  5
3E
 10
0.114725
 20
11.200763
 30
0.0
 11
0.828725
 21
10.563983
 31
0.0
  0
ARC
  8
0
  5
3F
 10
0.62906
 20
10.34008
 30
0.0
 40
0.299998
 50
306.53791
 51
48.275078
  0
LINE
  8
0
  5
40
 10
0.807665
 20
10.099043
 30
0.0
 11
0.379685
 21
9.782003
 31
0.0
  0
ARC
  8
0
  5
41
 10
0.558269
 20
9.540975
 30
0.0
 40
0.299977
 50
126.535756
 51
178.290807
  0
LINE
  8
0
  5
42
 10
0.258425
 20
9.549923
 30
0.0
 11
0.243065
 21
9.035003
 31
0.0
  0
ARC
  8
0
  5
43
 10
0.842832
 20
9.017041
 30
0.0
 40
0.600036
 50
178.284666
 51
233.045863
  0
LINE
  8
0
  5
44
 10
0.482105
 20
8.537543
 30
0.0
 11
1.582505
 21
7.709843
 31
0.0
  0
LINE
  8
0
  5
45
 10
1.632097
 20
7.775773
 30
0.0
 11
1.627589
 21
7.76978
 31
0.0
  0
LINE
  8
0
  5
46
 10
1.627589
 20
7.76978
 30
0.0
 11
0.527191
 21
8.597478
 31
0.0
  0
ARC
  8
0
  5
47
 10
0.842832
 20
9.017041
 30
0.0
 40
0.525036
 50
178.284666
 51
233.045562
  0
LINE
  8
0
  5
48
 10
0.318031
 20
9.032758
 30
0.0
 11
0.333392
 21
9.547686
 31
0.0
  0
ARC
  8
0
  5
49
 10
0.558268
 20
9.540976
 30
0.0
 40
0.224976
 50
126.53649
 51
178.290718
  0
LINE
  8
0
  5
4A
 10
0.424332
 20
9.721739
 30
0.0
 11
0.852309
 21
10.038777
 31
0.0
  0
ARC
  8
0
  5
4B
 10
0.629054
 20
10.34008
 30
0.0
 40
0.375002
 50
306.53712
 51
48.273988
  0
LINE
  8
0
  5
4C
 10
0.878643
 20
10.619957
 30
0.0
 11
0.164646
 21
11.256735
 31
0.0
  0
ARC
  8
0
  5
4D
 10
-0.284635
 20
10.752998
 30
0.0
 40
0.674985
 50
48.27042
 51
125.796819
  0
LINE
  8
0
  5
4E
 10
-0.679443
 20
11.300475
 30
0.0
 11
-1.570922
 21
10.657636
 31
0.0
  0
ARC
  8
0
  5
4F
 10
-1.351521
 20
10.353475
 30
0.0
 40
0.375034
 50
125.804086
 51
180.005618
  0
LINE
  8
0
  5
50
 10
-1.726555
 20
10.353438
 30
0.0
 11
-1.726555
 21
9.825803
 31
0.0
  0
LINE
  8
0
  5
51
 10
-1.726555
 20
9.825803
 30
0.0
 11
-1.734055
 21
9.825803
 31
0.0
  0
LINE
  8
0
  5
52
 10
-1.734255
 20
9.825803
 30
0.0
 11
-1.734255
 21
10.353438
 31
0.0
  0
ARC
  8
0
  5
53
 10
-1.35152
 20
10.353475
 30
0.0
 40
0.382535
 50
125.803998
 51
180.005475
  0
LINE
  8
0
  5
54
 10
-1.575308
 20
10.663719
 30
0.0
 11
-0.683829
 21
11.306559
 31
0.0
  0
ARC
  8
0
  5
55
 10
-0.284635
 20
10.752998
 30
0.0
 40
0.682485
 50
48.270428
 51
125.79681
  0
LINE
  8
0
  5
56
 10
0.169638
 20
11.262333
 30
0.0
 11
0.883635
 21
10.625555
 31
0.0
  0
ARC
  8
0
  5
57
 10
0.629053
 20
10.34008
 30
0.0
 40
0.382502
 50
306.537054
 51
48.273901
  0
LINE
  8
0
  5
58
 10
0.856773
 20
10.03275
 30
0.0
 11
0.428796
 21
9.715713
 31
0.0
  0
ARC
  8
0
  5
59
 10
0.558268
 20
9.540976
 30
0.0
 40
0.217476
 50
126.536583
 51
178.290706
  0
LINE
  8
0
  5
5A
 10
0.340888
 20
9.547463
 30
0.0
 11
0.325528
 21
9.032533
 31
0.0
  0
ARC
  8
0
  5
5B
 10
0.842832
 20
9.017041
 30
0.0
 40
0.517536
 50
178.284666
 51
233.045529
  0
LINE
  8
0
  5
5C
 10
0.5317
 20
8.603472
 30
0.0
 11
1.632097
 21
7.775773
 31
0.0
  0
LINE
  8
0
  5
5D
 10
1.62308
 20
7.763786
 30
0.0
 11
1.618572
 21
7.757792
 31
0.0
  0
LINE
  8
0
  5
5E
 10
1.618572
 20
7.757792
 30
0.0
 11
0.518174
 21
8.585491
 31
0.0
  0
ARC
  8
0
  5
5F
 10
0.842832
 20
9.017041
 30
0.0
 40
0.540036
 50
178.284666
 51
233.045627
  0
LINE
  8
0
  5
60
 10
0.303038
 20
9.033207
 30
0.0
 11
0.318398
 21
9.548134
 31
0.0
  0
ARC
  8
0
  5
61
 10
0.558268
 20
9.540976
 30
0.0
 40
0.239977
 50
126.536317
 51
178.290739
  0
LINE
  8
0
  5
62
 10
0.415402
 20
9.733792
 30
0.0
 11
0.84338
 21
10.05083
 31
0.0
  0
ARC
  8
0
  5
63
 10
0.629055
 20
10.34008
 30
0.0
 40
0.360001
 50
306.537258
 51
48.274172
  0
LINE
  8
0
  5
64
 10
0.86866
 20
10.608762
 30
0.0
 11
0.154661
 21
11.245541
 31
0.0
  0
ARC
  8
0
  5
65
 10
-0.284635
 20
10.752998
 30
0.0
 40
0.659985
 50
48.270404
 51
125.796838
  0
LINE
  8
0
  5
66
 10
-0.670669
 20
11.288309
 30
0.0
 11
-1.562148
 21
10.645469
 31
0.0
  0
ARC
  8
0
  5
67
 10
-1.351523
 20
10.353476
 30
0.0
 40
0.360032
 50
125.80427
 51
180.005921
  0
LINE
  8
0
  5
68
 10
-1.711555
 20
10.353439
 30
0.0
 11
-1.711555
 21
9.825803
 31
0.0
  0
LINE
  8
0
  5
69
 10
-1.711555
 20
9.825803
 30
0.0
 11
-1.719055
 21
9.825803
 31
0.0
  0
LINE
  8
0
  5
6A
 10
-1.719055
 20
9.825803
 30
0.0
 11
-1.719055
 21
10.353439
 31
0.0
  0
ARC
  8
0
  5
6B
 10
-1.351522
 20
10.353476
 30
0.0
 40
0.367533
 50
125.804177
 51
180.005767
  0
LINE
  8
0
  5
6C
 10
-1.566535
 20
10.651553
 30
0.0
 11
-0.675056
 21
11.294392
 31
0.0
  0
ARC
  8
0
  5
6D
 10
-0.284635
 20
10.752998
 30
0.0
 40
0.667485
 50
48.270412
 51
125.796829
  0
LINE
  8
0
  5
6E
 10
0.159653
 20
11.251138
 30
0.0
 11
0.873652
 21
10.61436
 31
0.0
  0
ARC
  8
0
  5
6F
 10
0.629055
 20
10.34008
 30
0.0
 40
0.367501
 50
306.537188
 51
48.274078
  0
LINE
  8
0
  5
70
 10
0.847844
 20
10.044804
 30
0.0
 11
0.419867
 21
9.727766
 31
0.0
  0
ARC
  8
0
  5
71
 10
0.558268
 20
9.540976
 30
0.0
 40
0.232476
 50
126.536402
 51
178.290729
  0
LINE
  8
0
  5
72
 10
0.326045
 20
9.54791
 30
0.0
 11
0.310685
 21
9.032982
 31
0.0
  0
ARC
  8
0
  5
73
 10
0.842832
 20
9.017041
 30
0.0
 40
0.532536
 50
178.284666
 51
233.045595
  0
LINE
  8
0
  5
74
 10
0.522682
 20
8.591484
 30
0.0
 11
1.62308
 21
7.763786
 31
0.0
  0
LINE
  8
0
  5
75
 10
1.614064
 20
7.751799
 30
0.0
 11
1.609555
 21
7.745805
 31
0.0
  0
LINE
  8
0
  5
76
 10
1.609555
 20
7.745805
 30
0.0
 11
0.509157
 21
8.573504
 31
0.0
  0
ARC
  8
0
  5
77
 10
0.842832
 20
9.017041
 30
0.0
 40
0.555036
 50
178.284666
 51
233.04569
  0
LINE
  8
0
  5
78
 10
0.288045
 20
9.033656
 30
0.0
 11
0.303405
 21
9.548581
 31
0.0
  0
ARC
  8
0
  5
79
 10
0.558268
 20
9.540976
 30
0.0
 40
0.254977
 50
126.536159
 51
178.290758
  0
LINE
  8
0
  5
7A
 10
0.406473
 20
9.745845
 30
0.0
 11
0.834451
 21
10.062883
 31
0.0
  0
ARC
  8
0
  5
7B
 10
0.629056
 20
10.34008
 30
0.0
 40
0.345
 50
306.537405
 51
48.274371
  0
LINE
  8
0
  5
7C
 10
0.858676
 20
10.597567
 30
0.0
 11
0.144677
 21
11.234346
 31
0.0
  0
ARC
  8
0
  5
7D
 10
-0.284635
 20
10.752998
 30
0.0
 40
0.644985
 50
48.270387
 51
125.796858
  0
LINE
  8
0
  5
7E
 10
-0.661896
 20
11.276142
 30
0.0
 11
-1.553375
 21
10.633303
 31
0.0
  0
ARC
  8
0
  5
7F
 10
-1.351525
 20
10.353478
 30
0.0
 40
0.345029
 50
125.804466
 51
180.006247
  0
LINE
  8
0
  5
80
 10
-1.696755
 20
10.35344
 30
0.0
 11
-1.696755
 21
9.825803
 31
0.0
  0
LINE
  8
0
  5
81
 10
-1.696555
 20
9.825503
 30
0.0
 11
-1.704055
 21
9.825503
 31
0.0
  0
LINE
  8
0
  5
82
 10
-1.704055
 20
9.825803
 30
0.0
 11
-1.704055
 21
10.353439
 31
0.0
  0
ARC
  8
0
  5
83
 10
-1.351524
 20
10.353477
 30
0.0
 40
0.352531
 50
125.804367
 51
180.006081
  0
LINE
  8
0
  5
84
 10
-1.557762
 20
10.639386
 30
0.0
 11
-0.666282
 21
11.282226
 31
0.0
  0
ARC
  8
0
  5
85
 10
-0.284635
 20
10.752998
 30
0.0
 40
0.652485
 50
48.270395
 51
125.796848
  0
LINE
  8
0
  5
86
 10
0.149669
 20
11.239943
 30
0.0
 11
0.863668
 21
10.603165
 31
0.0
  0
ARC
  8
0
  5
87
 10
0.629056
 20
10.34008
 30
0.0
 40
0.3525
 50
306.53733
 51
48.274269
  0
LINE
  8
0
  5
88
 10
0.838916
 20
10.056857
 30
0.0
 11
0.410938
 21
9.739818
 31
0.0
  0
ARC
  8
0
  5
89
 10
0.558268
 20
9.540976
 30
0.0
 40
0.247477
 50
126.536236
 51
178.290749
  0
LINE
  8
0
  5
8A
 10
0.310902
 20
9.548357
 30
0.0
 11
0.295542
 21
9.033431
 31
0.0
  0
ARC
  8
0
  5
8B
 10
0.842832
 20
9.017041
 30
0.0
 40
0.547536
 50
178.284666
 51
233.045659
  0
LINE
  8
0
  5
8C
 10
0.513665
 20
8.579497
 30
0.0
 11
1.614064
 21
7.751799
 31
0.0
  0
LINE
  8
0
  5
8D
 10
1.605047
 20
7.739811
 30
0.0
 11
1.600538
 21
7.733817
 31
0.0
  0
LINE
  8
0
  5
8E
 10
1.600538
 20
7.733817
 30
0.0
 11
0.500139
 21
8.561517
 31
0.0
  0
ARC
  8
0
  5
8F
 10
0.842832
 20
9.017041
 30
0.0
 40
0.570036
 50
178.284666
 51
233.04575
  0
LINE
  8
0
  5
90
 10
0.273052
 20
9.034105
 30
0.0
 11
0.288412
 21
9.549028
 31
0.0
  0
ARC
  8
0
  5
91
 10
0.558268
 20
9.540975
 30
0.0
 40
0.269977
 50
126.536014
 51
178.290776
  0
LINE
  8
0
  5
92
 10
0.397544
 20
9.757897
 30
0.0
 11
0.825523
 21
10.074936
 31
0.0
  0
ARC
  8
0
  5
93
 10
0.629058
 20
10.34008
 30
0.0
 40
0.329999
 50
306.537562
 51
48.274586
  0
LINE
  8
0
  5
94
 10
0.848692
 20
10.586372
 30
0.0
 11
0.134693
 21
11.223152
 31
0.0
  0
ARC
  8
0
  5
95
 10
-0.284635
 20
10.752998
 30
0.0
 40
0.629985
 50
48.270369
 51
125.796879
  0
LINE
  8
0
  5
96
 10
-0.653122
 20
11.263976
 30
0.0
 11
-1.544602
 21
10.621136
 31
0.0
  0
ARC
  8
0
  5
97
 10
-1.351528
 20
10.353479
 30
0.0
 40
0.330027
 50
125.804676
 51
180.0066
  0
LINE
  8
0
  5
98
 10
-1.681555
 20
10.353441
 30
0.0
 11
-1.681555
 21
9.825803
 31
0.0
  0
LINE
  8
0
  5
99
 10
-1.681555
 20
9.825803
 30
0.0
 11
-1.689055
 21
9.825803
 31
0.0
  0
LINE
  8
0
  5
9A
 10
-1.689055
 20
9.825803
 30
0.0
 11
-1.689055
 21
10.35344
 31
0.0
  0
ARC
  8
0
  5
9B
 10
-1.351527
 20
10.353478
 30
0.0
 40
0.337528
 50
125.804569
 51
180.00642
  0
LINE
  8
0
  5
9C
 10
-1.548988
 20
10.627219
 30
0.0
 11
-0.657509
 21
11.270059
 31
0.0
  0
ARC
  8
0
  5
9D
 10
-0.284635
 20
10.752998
 30
0.0
 40
0.637485
 50
48.270378
 51
125.796869
  0
LINE
  8
0
  5
9E
 10
0.139685
 20
11.228749
 30
0.0
 11
0.853684
 21
10.59197
 31
0.0
  0
ARC
  8
0
  5
9F
 10
0.629057
 20
10.34008
 30
0.0
 40
0.3375
 50
306.537482
 51
48.274476
  0
LINE
  8
0
  5
A0
 10
0.829987
 20
10.06891
 30
0.0
 11
0.402008
 21
9.751871
 31
0.0
  0
ARC
  8
0
  5
A1
 10
0.558268
 20
9.540975
 30
0.0
 40
0.262477
 50
126.536085
 51
178.290767
  0
LINE
  8
0
  5
A2
 10
0.295908
 20
9.548804
 30
0.0
 11
0.280548
 21
9.03388
 31
0.0
  0
ARC
  8
0
  5
A3
 10
0.842832
 20
9.017041
 30
0.0
 40
0.562536
 50
178.284666
 51
233.04572
  0
LINE
  8
0
  5
A4
 10
0.504648
 20
8.56751
 30
0.0
 11
1.605047
 21
7.739811
 31
0.0
  0
LINE
  8
0
  5
A5
 10
1.59603
 20
7.727824
 30
0.0
 11
1.591522
 21
7.72183
 31
0.0
  0
LINE
  8
0
  5
A6
 10
1.591522
 20
7.72183
 30
0.0
 11
0.491122
 21
8.54953
 31
0.0
  0
ARC
  8
0
  5
A7
 10
0.842832
 20
9.017041
 30
0.0
 40
0.585036
 50
178.284666
 51
233.045807
  0
LINE
  8
0
  5
A8
 10
0.258208
 20
9.034554
 30
0.0
 11
0.273568
 21
9.549475
 31
0.0
  0
ARC
  8
0
  5
A9
 10
0.558269
 20
9.540975
 30
0.0
 40
0.284977
 50
126.53588
 51
178.290792
  0
LINE
  8
0
  5
AA
 10
0.388614
 20
9.76995
 30
0.0
 11
0.816594
 21
10.086989
 31
0.0
  0
ARC
  8
0
  5
AB
 10
0.629059
 20
10.34008
 30
0.0
 40
0.314998
 50
306.537729
 51
48.274821
  0
LINE
  8
0
  5
AC
 10
0.838709
 20
10.575178
 30
0.0
 11
0.124709
 21
11.211957
 31
0.0
  0
ARC
  8
0
  5
AD
 10
-0.284635
 20
10.752998
 30
0.0
 40
0.614985
 50
48.270351
 51
125.796901
  0
LINE
  8
0
  5
AE
 10
-0.644348
 20
11.251809
 30
0.0
 11
-1.535828
 21
10.608969
 31
0.0
  0
ARC
  8
0
  5
AF
 10
-1.35153
 20
10.35348
 30
0.0
 40
0.315025
 50
125.804899
 51
180.006983
  0
LINE
  8
0
  5
B0
 10
-1.666555
 20
10.353442
 30
0.0
 11
-1.666555
 21
9.825803
 31
0.0
  0
LINE
  8
0
  5
B1
 10
-1.666555
 20
9.825803
 30
0.0
 11
-1.674055
 21
9.825803
 31
0.0
  0
LINE
  8
0
  5
B2
 10
-1.674055
 20
9.825803
 30
0.0
 11
-1.674055
 21
10.353441
 31
0.0
  0
ARC
  8
0
  5
B3
 10
-1.351529
 20
10.353479
 30
0.0
 40
0.322526
 50
125.804785
 51
180.006788
  0
ARC
  8
0
  5
B4
 10
-0.284635
 20
10.752998
 30
0.0
 40
0.622485
 50
48.27036
 51
125.79689
  0
LINE
  8
0
  5
B5
 10
0.129701
 20
11.217554
 30
0.0
 11
0.843701
 21
10.580775
 31
0.0
  0
ARC
  8
0
  5
B6
 10
0.629058
 20
10.34008
 30
0.0
 40
0.322499
 50
306.537644
 51
48.274701
  0
LINE
  8
0
  5
B7
 10
0.821058
 20
10.080963
 30
0.0
 11
0.393079
 21
9.763924
 31
0.0
  0
ARC
  8
0
  5
B8
 10
0.558269
 20
9.540975
 30
0.0
 40
0.277477
 50
126.535946
 51
178.290784
  0
LINE
  8
0
  5
B9
 10
0.280915
 20
9.549252
 30
0.0
 11
0.265555
 21
9.034329
 31
0.0
  0
ARC
  8
0
  5
BA
 10
0.842832
 20
9.017041
 30
0.0
 40
0.577536
 50
178.284666
 51
233.045779
  0
LINE
  8
0
  5
BB
 10
0.495631
 20
8.555523
 30
0.0
 11
1.59603
 21
7.727824
 31
0.0
  0
LINE
  8
0
  5
BC
 10
1.577997
 20
7.703849
 30
0.0
 11
1.573488
 21
7.697855
 31
0.0
  0
LINE
  8
0
  5
BD
 10
1.573488
 20
7.697855
 30
0.0
 11
0.473088
 21
8.525555
 31
0.0
  0
ARC
  8
0
  5
BE
 10
0.842833
 20
9.017042
 30
0.0
 40
0.615037
 50
178.284802
 51
233.045916
  0
LINE
  8
0
  5
BF
 10
0.228072
 20
9.035451
 30
0.0
 11
0.243432
 21
9.55037
 31
0.0
  0
ARC
  8
0
  5
C0
 10
0.558269
 20
9.540975
 30
0.0
 40
0.314977
 50
126.535769
 51
178.290821
  0
LINE
  8
0
  5
C1
 10
0.370755
 20
9.794055
 30
0.0
 11
0.798735
 21
10.111095
 31
0.0
  0
ARC
  8
0
  5
C2
 10
0.62906
 20
10.34008
 30
0.0
 40
0.284998
 50
306.538105
 51
48.275078
  0
LINE
  8
0
  5
C3
 10
0.818742
 20
10.552787
 30
0.0
 11
0.104741
 21
11.189568
 31
0.0
  0
ARC
  8
0
  5
C4
 10
-0.284635
 20
10.752997
 30
0.0
 40
0.584985
 50
48.270313
 51
125.796903
  0
LINE
  8
0
  5
C5
 10
-0.626801
 20
11.227476
 30
0.0
 11
-1.518281
 21
10.584637
 31
0.0
  0
ARC
  8
0
  5
C6
 10
-1.351533
 20
10.353481
 30
0.0
 40
0.285022
 50
125.8054
 51
180.007401
  0
LINE
  8
0
  5
C7
 10
-1.636555
 20
10.353445
 30
0.0
 11
-1.636555
 21
9.825803
 31
0.0
  0
LINE
  8
0
  5
C8
 10
-1.636555
 20
9.825803
 30
0.0
 11
-1.644055
 21
9.825803
 31
0.0
  0
LINE
  8
0
  5
C9
 10
-1.644055
 20
9.825803
 30
0.0
 11
-1.644055
 21
10.353444
 31
0.0
  0
ARC
  8
0
  5
CA
 10
-1.351533
 20
10.353481
 30
0.0
 40
0.292522
 50
125.805267
 51
180.007401
  0
LINE
  8
0
  5
CB
 10
-1.522668
 20
10.59072
 30
0.0
 11
-0.631188
 21
11.233559
 31
0.0
  0
ARC
  8
0
  5
CC
 10
-0.284635
 20
10.752997
 30
0.0
 40
0.592485
 50
48.270323
 51
125.796913
  0
LINE
  8
0
  5
CD
 10
0.109733
 20
11.195165
 30
0.0
 11
0.823733
 21
10.558385
 31
0.0
  0
ARC
  8
0
  5
CE
 10
0.62906
 20
10.34008
 30
0.0
 40
0.292498
 50
306.538005
 51
48.275078
  0
LINE
  8
0
  5
CF
 10
0.8032
 20
10.105069
 30
0.0
 11
0.37522
 21
9.788029
 31
0.0
  0
ARC
  8
0
  5
D0
 10
0.558269
 20
9.540975
 30
0.0
 40
0.307477
 50
126.535763
 51
178.290814
  0
LINE
  8
0
  5
D1
 10
0.250928
 20
9.550146
 30
0.0
 11
0.235568
 21
9.035227
 31
0.0
  0
ARC
  8
0
  5
D2
 10
0.842832
 20
9.017042
 30
0.0
 40
0.607536
 50
178.284735
 51
233.045889
  0
LINE
  8
0
  5
D3
 10
0.477597
 20
8.531549
 30
0.0
 11
1.577997
 21
7.703849
 31
0.0
  0
LINE
  8
0
  5
D4
 10
1.56898
 20
7.691861
 30
0.0
 11
1.564472
 21
7.685868
 31
0.0
  0
LINE
  8
0
  5
D5
 10
1.564472
 20
7.685868
 30
0.0
 11
0.464072
 21
8.513568
 31
0.0
  0
ARC
  8
0
  5
D6
 10
0.842834
 20
9.017042
 30
0.0
 40
0.630038
 50
178.284932
 51
233.045967
  0
LINE
  8
0
  5
D7
 10
0.213078
 20
9.035899
 30
0.0
 11
0.228438
 21
9.550817
 31
0.0
  0
ARC
  8
0
  5
D8
 10
0.558269
 20
9.540975
 30
0.0
 40
0.329977
 50
126.535782
 51
178.290834
  0
LINE
  8
0
  5
D9
 10
0.361825
 20
9.806107
 30
0.0
 11
0.789806
 21
10.123148
 31
0.0
  0
ARC
  8
0
  5
DA
 10
0.62906
 20
10.34008
 30
0.0
 40
0.269998
 50
306.538316
 51
48.275078
  0
LINE
  8
0
  5
DB
 10
0.808758
 20
10.541592
 30
0.0
 11
0.094757
 21
11.178373
 31
0.0
  0
ARC
  8
0
  5
DC
 10
-0.284635
 20
10.752997
 30
0.0
 40
0.569986
 50
48.270292
 51
125.796883
  0
LINE
  8
0
  5
DD
 10
-0.618028
 20
11.21531
 30
0.0
 11
-1.509506
 21
10.572471
 31
0.0
  0
ARC
  8
0
  5
DE
 10
-1.351533
 20
10.353481
 30
0.0
 40
0.270022
 50
125.805682
 51
180.007401
  0
LINE
  8
0
  5
DF
 10
-1.621555
 20
10.353446
 30
0.0
 11
-1.621555
 21
9.825803
 31
0.0
  0
LINE
  8
0
  5
E0
 10
-1.621555
 20
9.825803
 30
0.0
 11
-1.629055
 21
9.825803
 31
0.0
  0
LINE
  8
0
  5
E1
 10
-1.629055
 20
9.825803
 30
0.0
 11
-1.629055
 21
10.353445
 31
0.0
  0
ARC
  8
0
  5
E2
 10
-1.351533
 20
10.353481
 30
0.0
 40
0.277522
 50
125.805538
 51
180.007401
  0
LINE
  8
0
  5
E3
 10
-1.513893
 20
10.578554
 30
0.0
 11
-0.622414
 21
11.221393
 31
0.0
  0
ARC
  8
0
  5
E4
 10
-0.284635
 20
10.752997
 30
0.0
 40
0.577486
 50
48.270303
 51
125.796893
  0
LINE
  8
0
  5
E5
 10
0.099749
 20
11.183971
 30
0.0
 11
0.81375
 21
10.54719
 31
0.0
  0
ARC
  8
0
  5
E6
 10
0.62906
 20
10.34008
 30
0.0
 40
0.277498
 50
306.538208
 51
48.275078
  0
LINE
  8
0
  5
E7
 10
0.794271
 20
10.117121
 30
0.0
 11
0.36629
 21
9.800081
 31
0.0
  0
LINE
  8
0
  5
E8
 10
0.235935
 20
9.550593
 30
0.0
 11
0.220575
 21
9.035675
 31
0.0
  0
ARC
  8
0
  5
E9
 10
0.842833
 20
9.017042
 30
0.0
 40
0.622537
 50
178.284867
 51
233.045942
  0
LINE
  8
0
  5
EA
 10
0.46858
 20
8.519561
 30
0.0
 11
1.56898
 21
7.691861
 31
0.0
  0
LINE
  8
0
  5
EB
 10
1.559963
 20
7.679874
 30
0.0
 11
1.555455
 21
7.67388
 31
0.0
  0
LINE
  8
0
  5
EC
 10
1.555455
 20
7.67388
 30
0.0
 11
0.455055
 21
8.50158
 31
0.0
  0
ARC
  8
0
  5
ED
 10
0.842835
 20
9.017043
 30
0.0
 40
0.645039
 50
178.285056
 51
233.046016
  0
LINE
  8
0
  5
EE
 10
0.198085
 20
9.036347
 30
0.0
 11
0.213445
 21
9.551264
 31
0.0
  0
ARC
  8
0
  5
EF
 10
0.558269
 20
9.540975
 30
0.0
 40
0.344978
 50
126.535794
 51
178.290846
  0
LINE
  8
0
  5
F0
 10
0.352895
 20
9.818159
 30
0.0
 11
0.780876
 21
10.1352
 31
0.0
  0
ARC
  8
0
  5
F1
 10
0.62906
 20
10.34008
 30
0.0
 40
0.254998
 50
306.538546
 51
48.275078
  0
LINE
  8
0
  5
F2
 10
0.798775
 20
10.530397
 30
0.0
 11
0.084773
 21
11.167179
 31
0.0
  0
ARC
  8
0
  5
F3
 10
-0.284635
 20
10.752997
 30
0.0
 40
0.554986
 50
48.270271
 51
125.796862
  0
LINE
  8
0
  5
F4
 10
-0.609254
 20
11.203143
 30
0.0
 11
-1.500732
 21
10.560305
 31
0.0
  0
ARC
  8
0
  5
F5
 10
-1.351533
 20
10.353481
 30
0.0
 40
0.255022
 50
125.805989
 51
180.007401
  0
LINE
  8
0
  5
F6
 10
-1.606555
 20
10.353448
 30
0.0
 11
-1.606555
 21
9.825803
 31
0.0
  0
LINE
  8
0
  5
F7
 10
-1.606555
 20
9.826103
 30
0.0
 11
-1.614055
 21
9.826103
 31
0.0
  0
LINE
  8
0
  5
F8
 10
-1.614055
 20
9.825803
 30
0.0
 11
-1.614055
 21
10.353447
 31
0.0
  0
ARC
  8
0
  5
F9
 10
-1.351533
 20
10.353481
 30
0.0
 40
0.262522
 50
125.805832
 51
180.007401
  0
LINE
  8
0
  5
FA
 10
-1.505119
 20
10.566388
 30
0.0
 11
-0.613641
 21
11.209227
 31
0.0
  0
ARC
  8
0
  5
FB
 10
-0.284635
 20
10.752997
 30
0.0
 40
0.562486
 50
48.270282
 51
125.796872
  0
LINE
  8
0
  5
FC
 10
0.089765
 20
11.172776
 30
0.0
 11
0.803767
 21
10.535995
 31
0.0
  0
ARC
  8
0
  5
FD
 10
0.62906
 20
10.34008
 30
0.0
 40
0.262498
 50
306.538429
 51
48.275078
  0
LINE
  8
0
  5
FE
 10
0.785341
 20
10.129174
 30
0.0
 11
0.35736
 21
9.812133
 31
0.0
  0
ARC
  8
0
  5
FF
 10
0.558269
 20
9.540975
 30
0.0
 40
0.337478
 50
126.535788
 51
178.29084
  0
LINE
  8
0
  5
100
 10
0.220942
 20
9.551041
 30
0.0
 11
0.205582
 21
9.036123
 31
0.0
  0
ARC
  8
0
  5
101
 10
0.842835
 20
9.017043
 30
0.0
 40
0.637538
 50
178.284995
 51
233.045992
  0
LINE
  8
0
  5
102
 10
0.459563
 20
8.507574
 30
0.0
 11
1.559963
 21
7.679874
 31
0.0
  0
LINE
  8
0
  5
103
 10
1.550946
 20
7.667887
 30
0.0
 11
1.546438
 21
7.661893
 31
0.0
  0
LINE
  8
0
  5
104
 10
1.546438
 20
7.661893
 30
0.0
 11
0.446038
 21
8.489593
 31
0.0
  0
ARC
  8
0
  5
105
 10
0.842836
 20
9.017043
 30
0.0
 40
0.66004
 50
178.285176
 51
233.046064
  0
LINE
  8
0
  5
106
 10
0.183092
 20
9.036795
 30
0.0
 11
0.198452
 21
9.551712
 31
0.0
  0
ARC
  8
0
  5
107
 10
0.558269
 20
9.540975
 30
0.0
 40
0.359978
 50
126.535805
 51
178.290857
  0
LINE
  8
0
  5
108
 10
0.343966
 20
9.830212
 30
0.0
 11
0.771947
 21
10.147253
 31
0.0
  0
ARC
  8
0
  5
109
 10
0.62906
 20
10.34008
 30
0.0
 40
0.239998
 50
306.538797
 51
48.275078
  0
LINE
  8
0
  5
10A
 10
0.788792
 20
10.519202
 30
0.0
 11
0.074789
 21
11.155984
 31
0.0
  0
ARC
  8
0
  5
10B
 10
-0.284635
 20
10.753096
 30
0.0
 40
0.539986
 50
48.270249
 51
125.79684
  0
LINE
  8
0
  5
10C
 10
-0.60048
 20
11.190977
 30
0.0
 11
-1.491957
 21
10.548139
 31
0.0
  0
ARC
  8
0
  5
10D
 10
-1.351533
 20
10.353481
 30
0.0
 40
0.240022
 50
125.806323
 51
180.007401
  0
LINE
  8
0
  5
10E
 10
-1.591755
 20
10.35345
 30
0.0
 11
-1.591755
 21
9.825803
 31
0.0
  0
LINE
  8
0
  5
10F
 10
-1.591555
 20
9.825803
 30
0.0
 11
-1.599055
 21
9.825803
 31
0.0
  0
LINE
  8
0
  5
110
 10
-1.599055
 20
9.825803
 30
0.0
 11
-1.599055
 21
10.353449
 31
0.0
  0
ARC
  8
0
  5
111
 10
-1.351533
 20
10.353481
 30
0.0
 40
0.247522
 50
125.806152
 51
180.007401
  0
LINE
  8
0
  5
112
 10
-1.496344
 20
10.554222
 30
0.0
 11
-0.604867
 21
11.19706
 31
0.0
  0
ARC
  8
0
  5
113
 10
-0.284635
 20
10.752996
 30
0.0
 40
0.547486
 50
48.27026
 51
125.796851
  0
LINE
  8
0
  5
114
 10
0.079781
 20
11.161581
 30
0.0
 11
0.793783
 21
10.524799
 31
0.0
  0
ARC
  8
0
  5
115
 10
0.62906
 20
10.34008
 30
0.0
 40
0.247498
 50
306.538669
 51
48.275078
  0
LINE
  8
0
  5
116
 10
0.776412
 20
10.141226
 30
0.0
 11
0.34843
 21
9.824186
 31
0.0
  0
ARC
  8
0
  5
117
 10
0.558269
 20
9.540975
 30
0.0
 40
0.352478
 50
126.5358
 51
178.290851
  0
LINE
  8
0
  5
118
 10
0.205948
 20
9.551488
 30
0.0
 11
0.190588
 21
9.036571
 31
0.0
  0
ARC
  8
0
  5
119
 10
0.842836
 20
9.017043
 30
0.0
 40
0.652539
 50
178.285117
 51
233.046041
  0
LINE
  8
0
  5
11A
 10
0.450546
 20
8.495587
 30
0.0
 11
1.550946
 21
7.667887
 31
0.0
  0
LINE
  8
0
  5
11B
 10
1.528263
 20
7.638059
 30
0.0
 11
1.523755
 21
7.632066
 31
0.0
  0
LINE
  8
0
  5
11C
 10
1.523896
 20
7.631924
 30
0.0
 11
0.423496
 21
8.459624
 31
0.0
  0
ARC
  8
0
  5
11D
 10
0.842839
 20
9.017045
 30
0.0
 40
0.697543
 50
178.285457
 51
233.046176
  0
LINE
  8
0
  5
11E
 10
0.145609
 20
9.037915
 30
0.0
 11
0.160968
 21
9.55283
 31
0.0
  0
ARC
  8
0
  5
11F
 10
0.55827
 20
9.540975
 30
0.0
 40
0.397478
 50
126.53583
 51
178.290882
  0
LINE
  8
0
  5
120
 10
0.321641
 20
9.860342
 30
0.0
 11
0.749623
 21
10.177384
 31
0.0
  0
ARC
  8
0
  5
121
 10
0.62906
 20
10.34008
 30
0.0
 40
0.202498
 50
306.539542
 51
48.275078
  0
LINE
  8
0
  5
122
 10
0.763833
 20
10.491214
 30
0.0
 11
0.049829
 21
11.127997
 31
0.0
  0
ARC
  8
0
  5
123
 10
-0.284635
 20
10.752995
 30
0.0
 40
0.502487
 50
48.270189
 51
125.79678
  0
LINE
  8
0
  5
124
 10
-0.578546
 20
11.160561
 30
0.0
 11
-1.470021
 21
10.517724
 31
0.0
  0
ARC
  8
0
  5
125
 10
-1.351533
 20
10.353481
 30
0.0
 40
0.202522
 50
125.807317
 51
180.007401
  0
LINE
  8
0
  5
126
 10
-1.554055
 20
10.353455
 30
0.0
 11
-1.554055
 21
9.825803
 31
0.0
  0
LINE
  8
0
  5
127
 10
-1.554055
 20
9.825803
 30
0.0
 11
-1.561555
 21
9.825803
 31
0.0
  0
LINE
  8
0
  5
128
 10
-1.561555
 20
9.825803
 30
0.0
 11
-1.561555
 21
10.353454
 31
0.0
  0
ARC
  8
0
  5
129
 10
-1.351533
 20
10.353481
 30
0.0
 40
0.210022
 50
125.807097
 51
180.007401
  0
LINE
  8
0
  5
12A
 10
-1.474408
 20
10.523807
 30
0.0
 11
-0.582933
 21
11.166644
 31
0.0
  0
ARC
  8
0
  5
12B
 10
-0.284635
 20
10.752996
 30
0.0
 40
0.509987
 50
48.270202
 51
125.796792
  0
LINE
  8
0
  5
12C
 10
0.054821
 20
11.133595
 30
0.0
 11
0.768825
 21
10.496811
 31
0.0
  0
ARC
  8
0
  5
12D
 10
0.62906
 20
10.34008
 30
0.0
 40
0.209998
 50
306.539377
 51
48.275078
  0
LINE
  8
0
  5
12E
 10
0.754087
 20
10.171357
 30
0.0
 11
0.326106
 21
9.854316
 31
0.0
  0
ARC
  8
0
  5
12F
 10
0.55827
 20
9.540975
 30
0.0
 40
0.389978
 50
126.535825
 51
178.290877
  0
LINE
  8
0
  5
130
 10
0.168465
 20
9.552606
 30
0.0
 11
0.153105
 21
9.037691
 31
0.0
  0
ARC
  8
0
  5
131
 10
0.842838
 20
9.017044
 30
0.0
 40
0.690042
 50
178.285403
 51
233.046154
  0
LINE
  8
0
  5
132
 10
0.428005
 20
8.465618
 30
0.0
 11
1.528405
 21
7.637918
 31
0.0
  0
LINE
  8
0
  5
133
 10
1.519247
 20
7.626072
 30
0.0
 11
1.514738
 21
7.620078
 31
0.0
  0
LINE
  8
0
  5
134
 10
1.51488
 20
7.619937
 30
0.0
 11
0.41448
 21
8.447637
 31
0.0
  0
ARC
  8
0
  5
135
 10
0.84284
 20
9.017045
 30
0.0
 40
0.712544
 50
178.285562
 51
233.046219
  0
LINE
  8
0
  5
136
 10
0.130615
 20
9.038363
 30
0.0
 11
0.145975
 21
9.553277
 31
0.0
  0
ARC
  8
0
  5
137
 10
0.55827
 20
9.540975
 30
0.0
 40
0.412478
 50
126.535839
 51
178.290891
  0
LINE
  8
0
  5
138
 10
0.312711
 20
9.872395
 30
0.0
 11
0.740693
 21
10.189436
 31
0.0
  0
ARC
  8
0
  5
139
 10
0.62906
 20
10.34008
 30
0.0
 40
0.187498
 50
306.539901
 51
48.275078
  0
LINE
  8
0
  5
13A
 10
0.75385
 20
10.480018
 30
0.0
 11
0.039845
 21
11.116803
 31
0.0
  0
ARC
  8
0
  5
13B
 10
-0.284635
 20
10.752995
 30
0.0
 40
0.487487
 50
48.270164
 51
125.796754
  0
LINE
  8
0
  5
13C
 10
-0.569772
 20
11.148394
 30
0.0
 11
-1.461246
 21
10.505559
 31
0.0
  0
ARC
  8
0
  5
13D
 10
-1.351533
 20
10.353481
 30
0.0
 40
0.187522
 50
125.807796
 51
180.007401
  0
LINE
  8
0
  5
13E
 10
-1.539055
 20
10.353457
 30
0.0
 11
-1.539055
 21
9.825803
 31
0.0
  0
LINE
  8
0
  5
13F
 10
-1.539055
 20
9.826257
 30
0.0
 11
-1.546555
 21
9.826257
 31
0.0
  0
LINE
  8
0
  5
140
 10
-1.546555
 20
9.825803
 30
0.0
 11
-1.546555
 21
10.353456
 31
0.0
  0
ARC
  8
0
  5
141
 10
-1.351533
 20
10.353481
 30
0.0
 40
0.195022
 50
125.80755
 51
180.007401
  0
LINE
  8
0
  5
142
 10
-1.465633
 20
10.511642
 30
0.0
 11
-0.574159
 21
11.154478
 31
0.0
  0
ARC
  8
0
  5
143
 10
-0.284635
 20
10.752995
 30
0.0
 40
0.494987
 50
48.270177
 51
125.796767
  0
LINE
  8
0
  5
144
 10
0.044837
 20
11.1224
 30
0.0
 11
0.758842
 21
10.485616
 31
0.0
  0
ARC
  8
0
  5
145
 10
0.62906
 20
10.34008
 30
0.0
 40
0.194998
 50
306.539716
 51
48.275078
  0
LINE
  8
0
  5
146
 10
0.745158
 20
10.18341
 30
0.0
 11
0.317176
 21
9.866369
 31
0.0
  0
ARC
  8
0
  5
147
 10
0.55827
 20
9.540975
 30
0.0
 40
0.404978
 50
126.535835
 51
178.290886
  0
LINE
  8
0
  5
148
 10
0.153472
 20
9.553053
 30
0.0
 11
0.138112
 21
9.038139
 31
0.0
  0
ARC
  8
0
  5
149
 10
0.842839
 20
9.017045
 30
0.0
 40
0.705043
 50
178.28551
 51
233.046198
  0
LINE
  8
0
  5
14A
 10
0.418988
 20
8.453631
 30
0.0
 11
1.519388
 21
7.625931
 31
0.0
  0
LINE
  8
0
  5
14B
 10
1.510371
 20
7.613943
 30
0.0
 11
1.505863
 21
7.607949
 31
0.0
  0
LINE
  8
0
  5
14C
 10
1.505863
 20
7.607949
 30
0.0
 11
0.405463
 21
8.435649
 31
0.0
  0
ARC
  8
0
  5
14D
 10
0.842841
 20
9.017046
 30
0.0
 40
0.727545
 50
178.285663
 51
233.04626
  0
LINE
  8
0
  5
14E
 10
0.115772
 20
9.038811
 30
0.0
 11
0.131132
 21
9.553724
 31
0.0
  0
ARC
  8
0
  5
14F
 10
0.55827
 20
9.540975
 30
0.0
 40
0.427478
 50
126.535848
 51
178.2909
  0
LINE
  8
0
  5
150
 10
0.303781
 20
9.884447
 30
0.0
 11
0.731763
 21
10.201488
 31
0.0
  0
ARC
  8
0
  5
151
 10
0.62906
 20
10.34008
 30
0.0
 40
0.172498
 50
306.540306
 51
48.275078
  0
LINE
  8
0
  5
152
 10
0.743867
 20
10.468823
 30
0.0
 11
0.029861
 21
11.105608
 31
0.0
  0
ARC
  8
0
  5
153
 10
-0.284635
 20
10.752995
 30
0.0
 40
0.472487
 50
48.270137
 51
125.796727
  0
LINE
  8
0
  5
154
 10
-0.560999
 20
11.136228
 30
0.0
 11
-1.452471
 21
10.493393
 31
0.0
  0
ARC
  8
0
  5
155
 10
-1.351533
 20
10.353481
 30
0.0
 40
0.172522
 50
125.808336
 51
180.007401
  0
LINE
  8
0
  5
156
 10
-1.524255
 20
10.353459
 30
0.0
 11
-1.524255
 21
9.825803
 31
0.0
  0
LINE
  8
0
  5
157
 10
-1.524055
 20
9.825803
 30
0.0
 11
-1.531555
 21
9.825803
 31
0.0
  0
LINE
  8
0
  5
158
 10
-1.531555
 20
9.825803
 30
0.0
 11
-1.531555
 21
10.353458
 31
0.0
  0
ARC
  8
0
  5
159
 10
-1.351533
 20
10.353481
 30
0.0
 40
0.180022
 50
125.808058
 51
180.007401
  0
LINE
  8
0
  5
15A
 10
-1.456859
 20
10.499476
 30
0.0
 11
-0.565385
 21
11.142311
 31
0.0
  0
ARC
  8
0
  5
15B
 10
-0.284635
 20
10.752995
 30
0.0
 40
0.479987
 50
48.27015
 51
125.796741
  0
LINE
  8
0
  5
15C
 10
0.034677
 20
11.111382
 30
0.0
 11
0.748682
 21
10.474598
 31
0.0
  0
ARC
  8
0
  5
15D
 10
0.62906
 20
10.34008
 30
0.0
 40
0.179998
 50
306.540097
 51
48.275078
  0
LINE
  8
0
  5
15E
 10
0.73644
 20
10.195674
 30
0.0
 11
0.308458
 21
9.878633
 31
0.0
  0
ARC
  8
0
  5
15F
 10
0.55827
 20
9.540975
 30
0.0
 40
0.419978
 50
126.535844
 51
178.290895
  0
LINE
  8
0
  5
160
 10
0.138478
 20
9.553501
 30
0.0
 11
0.123119
 21
9.038587
 31
0.0
  0
ARC
  8
0
  5
161
 10
0.84284
 20
9.017045
 30
0.0
 40
0.720044
 50
178.285613
 51
233.04624
  0
LINE
  8
0
  5
162
 10
0.409971
 20
8.441643
 30
0.0
 11
1.510371
 21
7.613943
 31
0.0
  0
LINE
  8
0
  5
163
 10
1.501213
 20
7.602097
 30
0.0
 11
1.496705
 21
7.596103
 31
0.0
  0
LINE
  8
0
  5
164
 10
1.496846
 20
7.595962
 30
0.0
 11
0.396446
 21
8.423662
 31
0.0
  0
ARC
  8
0
  5
165
 10
0.842842
 20
9.017046
 30
0.0
 40
0.742546
 50
178.285761
 51
233.0463
  0
LINE
  8
0
  5
166
 10
0.100629
 20
9.039259
 30
0.0
 11
0.115988
 21
9.554171
 31
0.0
  0
ARC
  8
0
  5
167
 10
0.55827
 20
9.540975
 30
0.0
 40
0.442479
 50
126.535856
 51
178.290908
  0
LINE
  8
0
  5
168
 10
0.294851
 20
9.896499
 30
0.0
 11
0.722833
 21
10.213541
 31
0.0
  0
ARC
  8
0
  5
169
 10
0.62906
 20
10.34008
 30
0.0
 40
0.157498
 50
306.540767
 51
48.275078
  0
LINE
  8
0
  5
16A
 10
0.733883
 20
10.457628
 30
0.0
 11
0.019877
 21
11.094413
 31
0.0
  0
ARC
  8
0
  5
16B
 10
-0.284635
 20
10.752994
 30
0.0
 40
0.457488
 50
48.270109
 51
125.796699
  0
LINE
  8
0
  5
16C
 10
-0.552225
 20
11.124061
 30
0.0
 11
-1.443697
 21
10.481227
 31
0.0
  0
ARC
  8
0
  5
16D
 10
-1.351533
 20
10.353481
 30
0.0
 40
0.157522
 50
125.808952
 51
180.007401
  0
LINE
  8
0
  5
16E
 10
-1.509055
 20
10.353461
 30
0.0
 11
-1.509055
 21
9.825803
 31
0.0
  0
LINE
  8
0
  5
16F
 10
-1.509055
 20
9.826103
 30
0.0
 11
-1.516555
 21
9.826103
 31
0.0
  0
LINE
  8
0
  5
170
 10
-1.516755
 20
9.825803
 30
0.0
 11
-1.516755
 21
10.35346
 31
0.0
  0
ARC
  8
0
  5
171
 10
-1.351533
 20
10.353481
 30
0.0
 40
0.165022
 50
125.808633
 51
180.007401
  0
LINE
  8
0
  5
172
 10
-1.448084
 20
10.48731
 30
0.0
 11
-0.556612
 21
11.130145
 31
0.0
  0
ARC
  8
0
  5
173
 10
-0.284635
 20
10.752994
 30
0.0
 40
0.464988
 50
48.270123
 51
125.796713
  0
LINE
  8
0
  5
174
 10
0.024869
 20
11.100011
 30
0.0
 11
0.738875
 21
10.463226
 31
0.0
  0
ARC
  8
0
  5
175
 10
0.62906
 20
10.34008
 30
0.0
 40
0.164998
 50
306.540529
 51
48.275078
  0
LINE
  8
0
  5
176
 10
0.727298
 20
10.207515
 30
0.0
 11
0.299316
 21
9.890473
 31
0.0
  0
ARC
  8
0
  5
177
 10
0.55827
 20
9.540975
 30
0.0
 40
0.434978
 50
126.535852
 51
178.290904
  0
LINE
  8
0
  5
178
 10
0.123485
 20
9.553948
 30
0.0
 11
0.108125
 21
9.039035
 31
0.0
  0
ARC
  8
0
  5
179
 10
0.842841
 20
9.017046
 30
0.0
 40
0.735045
 50
178.285713
 51
233.04628
  0
LINE
  8
0
  5
17A
 10
0.400955
 20
8.429656
 30
0.0
 11
1.501355
 21
7.601956
 31
0.0
  0
LINE
  8
0
  5
17B
 10
1.492338
 20
7.589968
 30
0.0
 11
1.487829
 21
7.583974
 31
0.0
  0
LINE
  8
0
  5
17C
 10
1.487829
 20
7.583974
 30
0.0
 11
0.387429
 21
8.411674
 31
0.0
  0
ARC
  8
0
  5
17D
 10
0.842843
 20
9.017047
 30
0.0
 40
0.757547
 50
178.285856
 51
233.046339
  0
LINE
  8
0
  5
17E
 10
0.085635
 20
9.039707
 30
0.0
 11
0.100995
 21
9.554619
 31
0.0
  0
ARC
  8
0
  5
17F
 10
0.55827
 20
9.540975
 30
0.0
 40
0.457479
 50
126.535864
 51
178.290916
  0
LINE
  8
0
  5
180
 10
0.285921
 20
9.908551
 30
0.0
 11
0.713903
 21
10.225593
 31
0.0
  0
ARC
  8
0
  5
181
 10
0.62906
 20
10.34008
 30
0.0
 40
0.142498
 50
306.5413
 51
48.275078
  0
LINE
  8
0
  5
182
 10
0.7239
 20
10.446433
 30
0.0
 11
0.009894
 21
11.083219
 31
0.0
  0
ARC
  8
0
  5
183
 10
-0.284635
 20
10.752994
 30
0.0
 40
0.442488
 50
48.270079
 51
125.796669
  0
LINE
  8
0
  5
184
 10
-0.543451
 20
11.111895
 30
0.0
 11
-1.434922
 21
10.469062
 31
0.0
  0
ARC
  8
0
  5
185
 10
-1.351533
 20
10.353481
 30
0.0
 40
0.142522
 50
125.809662
 51
180.007401
  0
LINE
  8
0
  5
186
 10
-1.494055
 20
10.353463
 30
0.0
 11
-1.494055
 21
9.825803
 31
0.0
  0
LINE
  8
0
  5
187
 10
-1.494055
 20
9.826103
 30
0.0
 11
-1.501555
 21
9.826103
 31
0.0
  0
LINE
  8
0
  5
188
 10
-1.501555
 20
9.825803
 30
0.0
 11
-1.501555
 21
10.353462
 31
0.0
  0
ARC
  8
0
  5
189
 10
-1.351533
 20
10.353481
 30
0.0
 40
0.150022
 50
125.809293
 51
180.007401
  0
LINE
  8
0
  5
18A
 10
-1.439309
 20
10.475145
 30
0.0
 11
-0.547838
 21
11.117978
 31
0.0
  0
ARC
  8
0
  5
18B
 10
-0.284635
 20
10.752994
 30
0.0
 40
0.449988
 50
48.270094
 51
125.796684
  0
LINE
  8
0
  5
18C
 10
0.014709
 20
11.088993
 30
0.0
 11
0.728715
 21
10.452207
 31
0.0
  0
ARC
  8
0
  5
18D
 10
0.62906
 20
10.34008
 30
0.0
 40
0.149998
 50
306.541023
 51
48.275078
  0
LINE
  8
0
  5
18E
 10
0.718368
 20
10.219567
 30
0.0
 11
0.290386
 21
9.902525
 31
0.0
  0
ARC
  8
0
  5
18F
 10
0.55827
 20
9.540975
 30
0.0
 40
0.449979
 50
126.53586
 51
178.290912
  0
LINE
  8
0
  5
190
 10
0.108642
 20
9.554395
 30
0.0
 11
0.093282
 21
9.039483
 31
0.0
  0
ARC
  8
0
  5
191
 10
0.842842
 20
9.017046
 30
0.0
 40
0.750046
 50
178.285809
 51
233.04632
  0
LINE
  8
0
  5
192
 10
0.391938
 20
8.417668
 30
0.0
 11
1.492338
 21
7.589968
 31
0.0
  0
LINE
  8
0
  5
193
 10
1.483321
 20
7.577981
 30
0.0
 11
1.478813
 21
7.571987
 31
0.0
  0
LINE
  8
0
  5
194
 10
1.478813
 20
7.571987
 30
0.0
 11
0.378413
 21
8.399687
 31
0.0
  0
ARC
  8
0
  5
195
 10
0.842844
 20
9.017047
 30
0.0
 40
0.772548
 50
178.285947
 51
233.046376
  0
LINE
  8
0
  5
196
 10
0.070642
 20
9.040155
 30
0.0
 11
0.086002
 21
9.555066
 31
0.0
  0
ARC
  8
0
  5
197
 10
0.55827
 20
9.540974
 30
0.0
 40
0.472479
 50
126.535871
 51
178.290923
  0
LINE
  8
0
  5
198
 10
0.276991
 20
9.920604
 30
0.0
 11
0.704974
 21
10.237645
 31
0.0
  0
ARC
  8
0
  5
199
 10
0.62906
 20
10.34008
 30
0.0
 40
0.127498
 50
306.541923
 51
48.275078
  0
LINE
  8
0
  5
19A
 10
0.713917
 20
10.435237
 30
0.0
 11
-0.00009
 21
11.072024
 31
0.0
  0
ARC
  8
0
  5
19B
 10
-0.284635
 20
10.752994
 30
0.0
 40
0.427488
 50
48.270048
 51
125.796638
  0
LINE
  8
0
  5
19C
 10
-0.534678
 20
11.099728
 30
0.0
 11
-1.426147
 21
10.456896
 31
0.0
  0
ARC
  8
0
  5
19D
 10
-1.351533
 20
10.353481
 30
0.0
 40
0.127522
 50
125.810494
 51
180.007401
  0
LINE
  8
0
  5
19E
 10
-1.479055
 20
10.353465
 30
0.0
 11
-1.479055
 21
9.825803
 31
0.0
  0
LINE
  8
0
  5
19F
 10
-1.479055
 20
9.826103
 30
0.0
 11
-1.486555
 21
9.826103
 31
0.0
  0
LINE
  8
0
  5
1A0
 10
-1.486555
 20
9.825803
 30
0.0
 11
-1.486555
 21
10.353464
 31
0.0
  0
ARC
  8
0
  5
1A1
 10
-1.351533
 20
10.353481
 30
0.0
 40
0.135022
 50
125.810061
 51
180.007401
  0
LINE
  8
0
  5
1A2
 10
-1.430534
 20
10.462979
 30
0.0
 11
-0.539064
 21
11.105812
 31
0.0
  0
ARC
  8
0
  5
1A3
 10
-0.284635
 20
10.752994
 30
0.0
 40
0.434988
 50
48.270063
 51
125.796654
  0
LINE
  8
0
  5
1A4
 10
0.004902
 20
11.077621
 30
0.0
 11
0.718908
 21
10.440835
 31
0.0
  0
ARC
  8
0
  5
1A5
 10
0.62906
 20
10.34008
 30
0.0
 40
0.134998
 50
306.541598
 51
48.275078
  0
LINE
  8
0
  5
1A6
 10
0.709439
 20
10.231619
 30
0.0
 11
0.281456
 21
9.914578
 31
0.0
  0
ARC
  8
0
  5
1A7
 10
0.55827
 20
9.540974
 30
0.0
 40
0.464979
 50
126.535868
 51
178.290919
  0
LINE
  8
0
  5
1A8
 10
0.093498
 20
9.554842
 30
0.0
 11
0.078139
 21
9.039931
 31
0.0
  0
ARC
  8
0
  5
1A9
 10
0.842843
 20
9.017047
 30
0.0
 40
0.765047
 50
178.285902
 51
233.046358
  0
LINE
  8
0
  5
1AA
 10
0.382921
 20
8.405681
 30
0.0
 11
1.483321
 21
7.577981
 31
0.0
  0
LINE
  8
0
  5
1AB
 10
1.474304
 20
7.565993
 30
0.0
 11
1.469796
 21
7.56
 31
0.0
  0
LINE
  8
0
  5
1AC
 10
1.469796
 20
7.56
 30
0.0
 11
0.369396
 21
8.3877
 31
0.0
  0
ARC
  8
0
  5
1AD
 10
0.842845
 20
9.017048
 30
0.0
 40
0.787549
 50
178.286036
 51
233.046413
  0
LINE
  8
0
  5
1AE
 10
0.055649
 20
9.040603
 30
0.0
 11
0.071008
 21
9.555513
 31
0.0
  0
ARC
  8
0
  5
1AF
 10
0.55827
 20
9.540974
 30
0.0
 40
0.487479
 50
126.535878
 51
178.29093
  0
LINE
  8
0
  5
1B0
 10
0.268062
 20
9.932656
 30
0.0
 11
0.696044
 21
10.249697
 31
0.0
  0
ARC
  8
0
  5
1B1
 10
0.62906
 20
10.34008
 30
0.0
 40
0.112498
 50
306.542668
 51
48.275078
  0
LINE
  8
0
  5
1B2
 10
0.703933
 20
10.424042
 30
0.0
 11
-0.010074
 21
11.060829
 31
0.0
  0
ARC
  8
0
  5
1B3
 10
-0.284635
 20
10.752993
 30
0.0
 40
0.412489
 50
48.270015
 51
125.796605
  0
LINE
  8
0
  5
1B4
 10
-0.525904
 20
11.087562
 30
0.0
 11
-1.417372
 21
10.444731
 31
0.0
  0
ARC
  8
0
  5
1B5
 10
-1.351533
 20
10.353481
 30
0.0
 40
0.112522
 50
125.811487
 51
180.007401
  0
LINE
  8
0
  5
1B6
 10
-1.464055
 20
10.353467
 30
0.0
 11
-1.464055
 21
9.825803
 31
0.0
  0
LINE
  8
0
  5
1B7
 10
-1.464055
 20
9.826103
 30
0.0
 11
-1.471555
 21
9.826103
 31
0.0
  0
LINE
  8
0
  5
1B8
 10
-1.471555
 20
9.825803
 30
0.0
 11
-1.471555
 21
10.353466
 31
0.0
  0
ARC
  8
0
  5
1B9
 10
-1.351533
 20
10.353481
 30
0.0
 40
0.120022
 50
125.810967
 51
180.007401
  0
LINE
  8
0
  5
1BA
 10
-1.421759
 20
10.450813
 30
0.0
 11
-0.530291
 21
11.093645
 31
0.0
  0
ARC
  8
0
  5
1BB
 10
-0.284635
 20
10.751993
 30
0.0
 40
0.419988
 50
48.270031
 51
125.796622
  0
LINE
  8
0
  5
1BC
 10
-0.005259
 20
11.066603
 30
0.0
 11
0.708748
 21
10.429817
 31
0.0
  0
ARC
  8
0
  5
1BD
 10
0.62906
 20
10.34008
 30
0.0
 40
0.119998
 50
306.542278
 51
48.275078
  0
LINE
  8
0
  5
1BE
 10
0.700424
 20
10.243587
 30
0.0
 11
0.272442
 21
9.926545
 31
0.0
  0
ARC
  8
0
  5
1BF
 10
0.55827
 20
9.540974
 30
0.0
 40
0.479979
 50
126.535875
 51
178.290927
  0
LINE
  8
0
  5
1C0
 10
0.078505
 20
9.55529
 30
0.0
 11
0.063145
 21
9.040379
 31
0.0
  0
ARC
  8
0
  5
1C1
 10
0.842844
 20
9.017047
 30
0.0
 40
0.780048
 50
178.285992
 51
233.046395
  0
LINE
  8
0
  5
1C2
 10
0.373904
 20
8.393693
 30
0.0
 11
1.474304
 21
7.565993
 31
0.0
  0
LINE
  8
0
  5
1C3
 10
1.465288
 20
7.554006
 30
0.0
 11
1.460779
 21
7.548012
 31
0.0
  0
LINE
  8
0
  5
1C4
 10
1.460779
 20
7.548012
 30
0.0
 11
0.360379
 21
8.375712
 31
0.0
  0
ARC
  8
0
  5
1C5
 10
0.842846
 20
9.017048
 30
0.0
 40
0.802549
 50
178.286121
 51
233.046449
  0
LINE
  8
0
  5
1C6
 10
0.040655
 20
9.041051
 30
0.0
 11
0.056015
 21
9.55596
 31
0.0
  0
ARC
  8
0
  5
1C7
 10
0.558271
 20
9.540974
 30
0.0
 40
0.502479
 50
126.535885
 51
178.290937
  0
LINE
  8
0
  5
1C8
 10
0.259132
 20
9.944708
 30
0.0
 11
0.687113
 21
10.26175
 31
0.0
  0
ARC
  8
0
  5
1C9
 10
0.62906
 20
10.34008
 30
0.0
 40
0.097498
 50
306.543579
 51
48.275078
  0
LINE
  8
0
  5
1CA
 10
0.69395
 20
10.412847
 30
0.0
 11
-0.020058
 21
11.049635
 31
0.0
  0
ARC
  8
0
  5
1CB
 10
-0.284635
 20
10.752993
 30
0.0
 40
0.397489
 50
48.26998
 51
125.79657
  0
LINE
  8
0
  5
1CC
 10
-0.51713
 20
11.075395
 30
0.0
 11
-1.408597
 21
10.432565
 31
0.0
  0
ARC
  8
0
  5
1CD
 10
-1.351533
 20
10.353481
 30
0.0
 40
0.097522
 50
125.812702
 51
180.007401
  0
LINE
  8
0
  5
1CE
 10
-1.449055
 20
10.353469
 30
0.0
 11
-1.449055
 21
9.825803
 31
0.0
  0
LINE
  8
0
  5
1CF
 10
-1.449055
 20
9.825803
 30
0.0
 11
-1.456555
 21
9.825803
 31
0.0
  0
LINE
  8
0
  5
1D0
 10
-1.456555
 20
9.825803
 30
0.0
 11
-1.456555
 21
10.353468
 31
0.0
  0
ARC
  8
0
  5
1D1
 10
-1.351533
 20
10.353481
 30
0.0
 40
0.105022
 50
125.812062
 51
180.007401
  0
LINE
  8
0
  5
1D2
 10
-1.412984
 20
10.438648
 30
0.0
 11
-0.521517
 21
11.081479
 31
0.0
  0
ARC
  8
0
  5
1D3
 10
-0.284635
 20
10.752993
 30
0.0
 40
0.404989
 50
48.269998
 51
125.796588
  0
LINE
  8
0
  5
1D4
 10
-0.015066
 20
11.055232
 30
0.0
 11
0.698942
 21
10.418445
 31
0.0
  0
ARC
  8
0
  5
1D5
 10
0.62906
 20
10.34008
 30
0.0
 40
0.104998
 50
306.543099
 51
48.275078
  0
LINE
  8
0
  5
1D6
 10
0.691579
 20
10.255724
 30
0.0
 11
0.263597
 21
9.938682
 31
0.0
  0
ARC
  8
0
  5
1D7
 10
0.55827
 20
9.540974
 30
0.0
 40
0.494979
 50
126.535882
 51
178.290933
  0
LINE
  8
0
  5
1D8
 10
0.063512
 20
9.555737
 30
0.0
 11
0.048152
 21
9.040827
 31
0.0
  0
ARC
  8
0
  5
1D9
 10
0.842845
 20
9.017048
 30
0.0
 40
0.795049
 50
178.286079
 51
233.046431
  0
LINE
  8
0
  5
1DA
 10
0.364888
 20
8.381706
 30
0.0
 11
1.465288
 21
7.554006
 31
0.0
  0
LINE
  8
0
  5
1DB
 10
0.288676
 20
11.045625
 30
0.0
 11
0.338061
 21
11.00158
 31
0.0
  0
LINE
  8
0
  5
1DC
 10
0.303555
 20
9.548581
 30
0.0
 11
0.288195
 21
9.033656
 31
0.0
  0
TEXT
  8
0
  5
1DD
 10
-1.657757
 20
6.688629
 30
0.0
 40
0.1
  1
EXAMPLE: THIS SAMPLE CIRCUIT CONTAINS
  0
TEXT
  8
0
  5
1DE
 10
-1.657757
 20
6.521962
 30
0.0
 40
0.1
  1
56 BOUNDARY ERRORS!!!  
  0
TEXT
  8
0
  5
1DF
 10
-1.657757
 20
5.814958
 30
0.0
 40
0.1
  1
USING  Polyline PRO YOU CAN EASILY FIND
  0
TEXT
  8
0
  5
1E0
 10
-1.657757
 20
5.648291
 30
0.0
 40
0.1
  1
and correct these errors with MINIMUM EFFORT!
  0
LINE
  8
0
  5
1E1
 10
1.587013
 20
7.715836
 30
0.0
 11
1.582505
 21
7.709843
 31
0.0
  0
TEXT
  8
0
  5
1E2
 10
-1.640039
 20
6.237123
 30
0.0
 40
0.1
  1
How much valuable editing time would be used to 
  0
TEXT
  8
0
  5
1E3
 10
-1.640039
 20
6.070456
 30
0.0
 40
0.1
  1
locate every boundary error and then fix them?
  0
LINE
  8
0
  5
1E4
 10
6.014567
 20
9.548581
 30
0.0
 11
5.999207
 21
9.033656
 31
0.0
  0
LINE
  8
0
  5
1E5
 10
5.999688
 20
11.045625
 30
0.0
 11
6.049073
 21
11.00158
 31
0.0
  0
LINE
  8
0
  5
1E6
 10
6.084917
 20
8.393693
 30
0.0
 11
7.185317
 21
7.565993
 31
0.0
  0
ARC
  8
0
  5
1E7
 10
6.553857
 20
9.017047
 30
0.0
 40
0.780048
 50
178.285992
 51
233.046395
  0
LINE
  8
0
  5
1E8
 10
5.789517
 20
9.55529
 30
0.0
 11
5.774158
 21
9.040379
 31
0.0
  0
ARC
  8
0
  5
1E9
 10
6.269283
 20
9.540974
 30
0.0
 40
0.479979
 50
126.535875
 51
178.290927
  0
LINE
  8
0
  5
1EA
 10
6.411436
 20
10.243587
 30
0.0
 11
5.983454
 21
9.926545
 31
0.0
  0
ARC
  8
0
  5
1EB
 10
6.340072
 20
10.34008
 30
0.0
 40
0.119998
 50
306.542278
 51
48.275078
  0
LINE
  8
0
  5
1EC
 10
5.705753
 20
11.066603
 30
0.0
 11
6.419761
 21
10.429817
 31
0.0
  0
ARC
  8
0
  5
1ED
 10
5.426377
 20
10.751993
 30
0.0
 40
0.419988
 50
48.270031
 51
125.796622
  0
LINE
  8
0
  5
1EE
 10
4.289253
 20
10.450813
 30
0.0
 11
5.180721
 21
11.093645
 31
0.0
  0
ARC
  8
0
  5
1EF
 10
4.359479
 20
10.353481
 30
0.0
 40
0.120022
 50
125.810967
 51
180.007401
  0
LINE
  8
0
  5
1F0
 10
4.239457
 20
9.825803
 30
0.0
 11
4.239457
 21
10.353466
 31
0.0
  0
LINE
  8
0
  5
1F1
 10
4.246957
 20
9.826103
 30
0.0
 11
4.239457
 21
9.826103
 31
0.0
  0
LINE
  8
0
  5
1F2
 10
4.246957
 20
10.353467
 30
0.0
 11
4.246957
 21
9.825803
 31
0.0
  0
ARC
  8
0
  5
1F3
 10
4.359479
 20
10.353481
 30
0.0
 40
0.112522
 50
125.811487
 51
180.007401
  0
LINE
  8
0
  5
1F4
 10
5.185108
 20
11.087562
 30
0.0
 11
4.29364
 21
10.444731
 31
0.0
  0
ARC
  8
0
  5
1F5
 10
5.426377
 20
10.752993
 30
0.0
 40
0.412489
 50
48.270015
 51
125.796605
  0
LINE
  8
0
  5
1F6
 10
6.414946
 20
10.424042
 30
0.0
 11
5.700938
 21
11.060829
 31
0.0
  0
ARC
  8
0
  5
1F7
 10
6.340072
 20
10.34008
 30
0.0
 40
0.112498
 50
306.542668
 51
48.275078
  0
LINE
  8
0
  5
1F8
 10
5.979074
 20
9.932656
 30
0.0
 11
6.407056
 21
10.249697
 31
0.0
  0
ARC
  8
0
  5
1F9
 10
6.269283
 20
9.540974
 30
0.0
 40
0.487479
 50
126.535878
 51
178.29093
  0
LINE
  8
0
  5
1FA
 10
5.766661
 20
9.040603
 30
0.0
 11
5.782021
 21
9.555513
 31
0.0
  0
ARC
  8
0
  5
1FB
 10
6.553857
 20
9.017048
 30
0.0
 40
0.787549
 50
178.286036
 51
233.046413
  0
LINE
  8
0
  5
1FC
 10
7.180808
 20
7.56
 30
0.0
 11
6.080408
 21
8.3877
 31
0.0
  0
LINE
  8
0
  5
1FD
 10
7.185317
 20
7.565993
 30
0.0
 11
7.180808
 21
7.56
 31
0.0
  0
LINE
  8
0
  5
1FE
 10
6.120983
 20
8.441643
 30
0.0
 11
7.221383
 21
7.613943
 31
0.0
  0
ARC
  8
0
  5
1FF
 10
6.553853
 20
9.017045
 30
0.0
 40
0.720044
 50
178.285613
 51
233.04624
  0
LINE
  8
0
  5
200
 10
5.849491
 20
9.553501
 30
0.0
 11
5.834131
 21
9.038587
 31
0.0
  0
ARC
  8
0
  5
201
 10
6.269282
 20
9.540975
 30
0.0
 40
0.419978
 50
126.535844
 51
178.290895
  0
LINE
  8
0
  5
202
 10
6.447452
 20
10.195674
 30
0.0
 11
6.01947
 21
9.878633
 31
0.0
  0
ARC
  8
0
  5
203
 10
6.340072
 20
10.34008
 30
0.0
 40
0.179998
 50
306.540097
 51
48.275078
  0
LINE
  8
0
  5
204
 10
5.745689
 20
11.111382
 30
0.0
 11
6.459694
 21
10.474598
 31
0.0
  0
ARC
  8
0
  5
205
 10
5.426377
 20
10.752995
 30
0.0
 40
0.479987
 50
48.27015
 51
125.796741
  0
LINE
  8
0
  5
206
 10
4.254153
 20
10.499476
 30
0.0
 11
5.145627
 21
11.142311
 31
0.0
  0
ARC
  8
0
  5
207
 10
4.359479
 20
10.353481
 30
0.0
 40
0.180022
 50
125.808058
 51
180.007401
  0
LINE
  8
0
  5
208
 10
4.179457
 20
9.825803
 30
0.0
 11
4.179457
 21
10.353458
 31
0.0
  0
LINE
  8
0
  5
209
 10
4.186957
 20
9.825803
 30
0.0
 11
4.179457
 21
9.825803
 31
0.0
  0
LINE
  8
0
  5
20A
 10
4.186757
 20
10.353459
 30
0.0
 11
4.186757
 21
9.825803
 31
0.0
  0
ARC
  8
0
  5
20B
 10
4.359479
 20
10.353481
 30
0.0
 40
0.172522
 50
125.808336
 51
180.007401
  0
LINE
  8
0
  5
20C
 10
5.150014
 20
11.136228
 30
0.0
 11
4.258541
 21
10.493393
 31
0.0
  0
ARC
  8
0
  5
20D
 10
5.426377
 20
10.752995
 30
0.0
 40
0.472487
 50
48.270137
 51
125.796727
  0
LINE
  8
0
  5
20E
 10
6.454879
 20
10.468823
 30
0.0
 11
5.740874
 21
11.105608
 31
0.0
  0
ARC
  8
0
  5
20F
 10
6.340072
 20
10.34008
 30
0.0
 40
0.172498
 50
306.540306
 51
48.275078
  0
LINE
  8
0
  5
210
 10
6.014793
 20
9.884447
 30
0.0
 11
6.442775
 21
10.201488
 31
0.0
  0
ARC
  8
0
  5
211
 10
6.269282
 20
9.540975
 30
0.0
 40
0.427478
 50
126.535848
 51
178.2909
  0
LINE
  8
0
  5
212
 10
5.826784
 20
9.038811
 30
0.0
 11
5.842144
 21
9.553724
 31
0.0
  0
ARC
  8
0
  5
213
 10
6.553853
 20
9.017046
 30
0.0
 40
0.727545
 50
178.285663
 51
233.04626
  0
LINE
  8
0
  5
214
 10
7.216875
 20
7.607949
 30
0.0
 11
6.116475
 21
8.435649
 31
0.0
  0
LINE
  8
0
  5
215
 10
7.221383
 20
7.613943
 30
0.0
 11
7.216875
 21
7.607949
 31
0.0
  0
LINE
  8
0
  5
216
 10
6.179592
 20
8.519561
 30
0.0
 11
7.279992
 21
7.691861
 31
0.0
  0
ARC
  8
0
  5
217
 10
6.553846
 20
9.017042
 30
0.0
 40
0.622537
 50
178.284867
 51
233.045942
  0
LINE
  8
0
  5
218
 10
5.946947
 20
9.550593
 30
0.0
 11
5.931587
 21
9.035675
 31
0.0
  0
LINE
  8
0
  5
219
 10
6.505283
 20
10.117121
 30
0.0
 11
6.077302
 21
9.800081
 31
0.0
  0
ARC
  8
0
  5
21A
 10
6.340072
 20
10.34008
 30
0.0
 40
0.277498
 50
306.538208
 51
48.275078
  0
LINE
  8
0
  5
21B
 10
5.810761
 20
11.183971
 30
0.0
 11
6.524762
 21
10.54719
 31
0.0
  0
ARC
  8
0
  5
21C
 10
5.426377
 20
10.752997
 30
0.0
 40
0.577486
 50
48.270303
 51
125.796893
  0
LINE
  8
0
  5
21D
 10
4.197119
 20
10.578554
 30
0.0
 11
5.088598
 21
11.221393
 31
0.0
  0
ARC
  8
0
  5
21E
 10
4.359479
 20
10.353481
 30
0.0
 40
0.277522
 50
125.805538
 51
180.007401
  0
LINE
  8
0
  5
21F
 10
4.081957
 20
9.825803
 30
0.0
 11
4.081957
 21
10.353445
 31
0.0
  0
LINE
  8
0
  5
220
 10
4.089457
 20
9.825803
 30
0.0
 11
4.081957
 21
9.825803
 31
0.0
  0
LINE
  8
0
  5
221
 10
4.089457
 20
10.353446
 30
0.0
 11
4.089457
 21
9.825803
 31
0.0
  0
ARC
  8
0
  5
222
 10
4.359479
 20
10.353481
 30
0.0
 40
0.270022
 50
125.805682
 51
180.007401
  0
LINE
  8
0
  5
223
 10
5.092985
 20
11.21531
 30
0.0
 11
4.201506
 21
10.572471
 31
0.0
  0
ARC
  8
0
  5
224
 10
5.426377
 20
10.752997
 30
0.0
 40
0.569986
 50
48.270292
 51
125.796883
  0
LINE
  8
0
  5
225
 10
6.519771
 20
10.541592
 30
0.0
 11
5.805769
 21
11.178373
 31
0.0
  0
ARC
  8
0
  5
226
 10
6.340072
 20
10.34008
 30
0.0
 40
0.269998
 50
306.538316
 51
48.275078
  0
LINE
  8
0
  5
227
 10
6.072837
 20
9.806107
 30
0.0
 11
6.500818
 21
10.123148
 31
0.0
  0
ARC
  8
0
  5
228
 10
6.269281
 20
9.540975
 30
0.0
 40
0.329977
 50
126.535782
 51
178.290834
  0
LINE
  8
0
  5
229
 10
5.924091
 20
9.035899
 30
0.0
 11
5.939451
 21
9.550817
 31
0.0
  0
ARC
  8
0
  5
22A
 10
6.553846
 20
9.017042
 30
0.0
 40
0.630038
 50
178.284932
 51
233.045967
  0
LINE
  8
0
  5
22B
 10
7.275484
 20
7.685868
 30
0.0
 11
6.175084
 21
8.513568
 31
0.0
  0
LINE
  8
0
  5
22C
 10
7.279992
 20
7.691861
 30
0.0
 11
7.275484
 21
7.685868
 31
0.0
  0
LINE
  8
0
  5
22D
 10
6.206643
 20
8.555523
 30
0.0
 11
7.307042
 21
7.727824
 31
0.0
  0
ARC
  8
0
  5
22E
 10
6.553844
 20
9.017041
 30
0.0
 40
0.577536
 50
178.284666
 51
233.045779
  0
LINE
  8
0
  5
22F
 10
5.991927
 20
9.549252
 30
0.0
 11
5.976567
 21
9.034329
 31
0.0
  0
ARC
  8
0
  5
230
 10
6.269281
 20
9.540975
 30
0.0
 40
0.277477
 50
126.535946
 51
178.290784
  0
LINE
  8
0
  5
231
 10
6.53207
 20
10.080963
 30
0.0
 11
6.104091
 21
9.763924
 31
0.0
  0
ARC
  8
0
  5
232
 10
6.34007
 20
10.34008
 30
0.0
 40
0.322499
 50
306.537644
 51
48.274701
  0
LINE
  8
0
  5
233
 10
5.840713
 20
11.217554
 30
0.0
 11
6.554713
 21
10.580775
 31
0.0
  0
ARC
  8
0
  5
234
 10
5.426377
 20
10.752998
 30
0.0
 40
0.622485
 50
48.27036
 51
125.79689
  0
ARC
  8
0
  5
235
 10
4.359483
 20
10.353479
 30
0.0
 40
0.322526
 50
125.804785
 51
180.006788
  0
LINE
  8
0
  5
236
 10
4.036957
 20
9.825803
 30
0.0
 11
4.036957
 21
10.353441
 31
0.0
  0
LINE
  8
0
  5
237
 10
4.044457
 20
9.825803
 30
0.0
 11
4.036957
 21
9.825803
 31
0.0
  0
LINE
  8
0
  5
238
 10
4.044457
 20
10.353442
 30
0.0
 11
4.044457
 21
9.825803
 31
0.0
  0
ARC
  8
0
  5
239
 10
4.359482
 20
10.35348
 30
0.0
 40
0.315025
 50
125.804899
 51
180.006983
  0
LINE
  8
0
  5
23A
 10
5.066664
 20
11.251809
 30
0.0
 11
4.175184
 21
10.608969
 31
0.0
  0
ARC
  8
0
  5
23B
 10
5.426377
 20
10.752998
 30
0.0
 40
0.614985
 50
48.270351
 51
125.796901
  0
LINE
  8
0
  5
23C
 10
6.549721
 20
10.575178
 30
0.0
 11
5.835721
 21
11.211957
 31
0.0
  0
ARC
  8
0
  5
23D
 10
6.340071
 20
10.34008
 30
0.0
 40
0.314998
 50
306.537729
 51
48.274821
  0
LINE
  8
0
  5
23E
 10
6.099627
 20
9.76995
 30
0.0
 11
6.527606
 21
10.086989
 31
0.0
  0
ARC
  8
0
  5
23F
 10
6.269281
 20
9.540975
 30
0.0
 40
0.284977
 50
126.53588
 51
178.290792
  0
LINE
  8
0
  5
240
 10
5.969221
 20
9.034554
 30
0.0
 11
5.984581
 21
9.549475
 31
0.0
  0
ARC
  8
0
  5
241
 10
6.553844
 20
9.017041
 30
0.0
 40
0.585036
 50
178.284666
 51
233.045807
  0
LINE
  8
0
  5
242
 10
7.302534
 20
7.72183
 30
0.0
 11
6.202134
 21
8.54953
 31
0.0
  0
LINE
  8
0
  5
243
 10
7.307042
 20
7.727824
 30
0.0
 11
7.302534
 21
7.72183
 31
0.0
  0
POLYLINE
  8
0
 62
     3
  5
244
 66
     1
 10
0.0
 20
0.0
 30
0.0
  0
VERTEX
  8
0
 62
     3
  5
245
 10
7.343109
 20
7.775773
 30
0.0
  0
VERTEX
  8
0
 62
     3
  5
246
 10
7.338601
 20
7.76978
 30
0.0
  0
VERTEX
  8
0
 62
     3
  5
247
 10
6.238203
 20
8.597478
 30
0.0
 42
-0.243593
  0
VERTEX
  8
0
 62
     3
  5
248
 10
6.029044
 20
9.032758
 30
0.0
  0
VERTEX
  8
0
 62
     3
  5
249
 10
6.044404
 20
9.547686
 30
0.0
 42
-0.229739
  0
VERTEX
  8
0
 62
     3
  5
24A
 10
6.135344
 20
9.721739
 30
0.0
  0
VERTEX
  8
0
 62
     3
  5
24B
 10
6.563321
 20
10.038777
 30
0.0
 42
0.475567
  0
VERTEX
  8
0
 62
     3
  5
24C
 10
6.589656
 20
10.619957
 30
0.0
  0
VERTEX
  8
0
 62
     3
  5
24D
 10
5.875658
 20
11.256735
 30
0.0
 42
0.351795
  0
VERTEX
  8
0
 62
     3
  5
24E
 10
5.03157
 20
11.300475
 30
0.0
  0
VERTEX
  8
0
 62
     3
  5
24F
 10
4.140091
 20
10.657636
 30
0.0
 42
0.241009
  0
VERTEX
  8
0
 62
     3
  5
250
 10
3.984457
 20
10.353438
 30
0.0
  0
VERTEX
  8
0
 62
     3
  5
251
 10
3.984457
 20
9.825803
 30
0.0
  0
VERTEX
  8
0
 62
     3
  5
252
 10
3.976957
 20
9.825803
 30
0.0
  0
VERTEX
  8
0
 62
     3
  5
253
 10
3.976757
 20
10.353438
 30
0.0
 42
-0.241009
  0
VERTEX
  8
0
 62
     3
  5
254
 10
4.135704
 20
10.663719
 30
0.0
  0
VERTEX
  8
0
 62
     3
  5
255
 10
5.027183
 20
11.306559
 30
0.0
 42
-0.351795
  0
VERTEX
  8
0
 62
     3
  5
256
 10
5.88065
 20
11.262333
 30
0.0
  0
VERTEX
  8
0
 62
     3
  5
257
 10
6.594648
 20
10.625555
 30
0.0
 42
-0.475567
  0
VERTEX
  8
0
 62
     3
  5
258
 10
6.567785
 20
10.03275
 30
0.0
  0
VERTEX
  8
0
 62
     3
  5
259
 10
6.139809
 20
9.715713
 30
0.0
 42
0.229738
  0
VERTEX
  8
0
 62
     3
  5
25A
 10
6.051901
 20
9.547463
 30
0.0
  0
VERTEX
  8
0
 62
     3
  5
25B
 10
6.03654
 20
9.032533
 30
0.0
 42
0.243593
  0
VERTEX
  8
0
 62
     3
  5
25C
 10
6.242712
 20
8.603472
 30
0.0
  0
VERTEX
  8
0
 62
     3
  5
25D
 10
7.343109
 20
7.775773
 30
0.0
  0
SEQEND
  8
0
 62
     3
  5
25E
  0
POLYLINE
  8
0
 62
     3
  5
25F
 66
     1
 10
0.0
 20
0.0
 30
0.0
  0
VERTEX
  8
0
 62
     3
  5
260
 10
7.334092
 20
7.763786
 30
0.0
  0
VERTEX
  8
0
 62
     3
  5
261
 10
7.329584
 20
7.757792
 30
0.0
  0
VERTEX
  8
0
 62
     3
  5
262
 10
6.229186
 20
8.585491
 30
0.0
 42
-0.243593
  0
VERTEX
  8
0
 62
     3
  5
263
 10
6.01405
 20
9.033207
 30
0.0
  0
VERTEX
  8
0
 62
     3
  5
264
 10
6.029411
 20
9.548134
 30
0.0
 42
-0.22974
  0
VERTEX
  8
0
 62
     3
  5
265
 10
6.126415
 20
9.733792
 30
0.0
  0
VERTEX
  8
0
 62
     3
  5
266
 10
6.554392
 20
10.05083
 30
0.0
 42
0.475567
  0
VERTEX
  8
0
 62
     3
  5
267
 10
6.579672
 20
10.608762
 30
0.0
  0
VERTEX
  8
0
 62
     3
  5
268
 10
5.865674
 20
11.245541
 30
0.0
 42
0.351795
  0
VERTEX
  8
0
 62
     3
  5
269
 10
5.040343
 20
11.288309
 30
0.0
  0
VERTEX
  8
0
 62
     3
  5
26A
 10
4.148864
 20
10.645469
 30
0.0
 42
0.24101
  0
VERTEX
  8
0
 62
     3
  5
26B
 10
3.999457
 20
10.353439
 30
0.0
  0
VERTEX
  8
0
 62
     3
  5
26C
 10
3.999457
 20
9.825803
 30
0.0
  0
VERTEX
  8
0
 62
     3
  5
26D
 10
3.991957
 20
9.825803
 30
0.0
  0
VERTEX
  8
0
 62
     3
  5
26E
 10
3.991957
 20
10.353439
 30
0.0
 42
-0.241009
  0
VERTEX
  8
0
 62
     3
  5
26F
 10
4.144477
 20
10.651553
 30
0.0
  0
VERTEX
  8
0
 62
     3
  5
270
 10
5.035956
 20
11.294392
 30
0.0
 42
-0.351795
  0
VERTEX
  8
0
 62
     3
  5
271
 10
5.870666
 20
11.251138
 30
0.0
  0
VERTEX
  8
0
 62
     3
  5
272
 10
6.584664
 20
10.61436
 30
0.0
 42
-0.475567
  0
VERTEX
  8
0
 62
     3
  5
273
 10
6.558857
 20
10.044804
 30
0.0
  0
VERTEX
  8
0
 62
     3
  5
274
 10
6.130879
 20
9.727766
 30
0.0
 42
0.229739
  0
VERTEX
  8
0
 62
     3
  5
275
 10
6.036907
 20
9.54791
 30
0.0
  0
VERTEX
  8
0
 62
     3
  5
276
 10
6.021697
 20
9.032982
 30
0.0
 42
0.243593
  0
VERTEX
  8
0
 62
     3
  5
277
 10
6.233695
 20
8.591484
 30
0.0
  0
VERTEX
  8
0
 62
     3
  5
278
 10
7.334092
 20
7.763786
 30
0.0
  0
SEQEND
  8
0
 62
     3
  5
279
  0
POLYLINE
  8
0
 62
     3
  5
27A
 66
     1
 10
0.0
 20
0.0
 30
0.0
  0
VERTEX
  8
0
 62
     3
  5
27B
 10
7.325076
 20
7.751799
 30
0.0
  0
VERTEX
  8
0
 62
     3
  5
27C
 10
7.320567
 20
7.745805
 30
0.0
  0
VERTEX
  8
0
 62
     3
  5
27D
 10
6.220169
 20
8.573504
 30
0.0
 42
-0.243594
  0
VERTEX
  8
0
 62
     3
  5
27E
 10
5.999057
 20
9.033656
 30
0.0
  0
VERTEX
  8
0
 62
     3
  5
27F
 10
6.014417
 20
9.548581
 30
0.0
 42
-0.229741
  0
VERTEX
  8
0
 62
     3
  5
280
 10
6.117485
 20
9.745845
 30
0.0
  0
VERTEX
  8
0
 62
     3
  5
281
 10
6.545463
 20
10.062883
 30
0.0
 42
0.475567
  0
VERTEX
  8
0
 62
     3
  5
282
 10
6.569688
 20
10.597567
 30
0.0
  0
VERTEX
  8
0
 62
     3
  5
283
 10
5.85569
 20
11.234346
 30
0.0
 42
0.351795
  0
VERTEX
  8
0
 62
     3
  5
284
 10
5.049117
 20
11.276142
 30
0.0
  0
VERTEX
  8
0
 62
     3
  5
285
 10
4.157637
 20
10.633303
 30
0.0
 42
0.24101
  0
VERTEX
  8
0
 62
     3
  5
286
 10
4.014457
 20
10.35344
 30
0.0
  0
VERTEX
  8
0
 62
     3
  5
287
 10
4.014257
 20
9.825803
 30
0.0
  0
VERTEX
  8
0
 62
     3
  5
288
 10
4.006957
 20
9.825503
 30
0.0
  0
VERTEX
  8
0
 62
     3
  5
289
 10
4.006957
 20
10.353439
 30
0.0
 42
-0.24101
  0
VERTEX
  8
0
 62
     3
  5
28A
 10
4.153251
 20
10.639386
 30
0.0
  0
VERTEX
  8
0
 62
     3
  5
28B
 10
5.04473
 20
11.282226
 30
0.0
 42
-0.351795
  0
VERTEX
  8
0
 62
     3
  5
28C
 10
5.860682
 20
11.239943
 30
0.0
  0
VERTEX
  8
0
 62
     3
  5
28D
 10
6.57468
 20
10.603165
 30
0.0
 42
-0.475567
  0
VERTEX
  8
0
 62
     3
  5
28E
 10
6.549928
 20
10.056857
 30
0.0
  0
VERTEX
  8
0
 62
     3
  5
28F
 10
6.12195
 20
9.739818
 30
0.0
 42
0.22974
  0
VERTEX
  8
0
 62
     3
  5
290
 10
6.021914
 20
9.548357
 30
0.0
  0
VERTEX
  8
0
 62
     3
  5
291
 10
6.006554
 20
9.033431
 30
0.0
 42
0.243593
  0
VERTEX
  8
0
 62
     3
  5
292
 10
6.224677
 20
8.579497
 30
0.0
  0
VERTEX
  8
0
 62
     3
  5
293
 10
7.325076
 20
7.751799
 30
0.0
  0
SEQEND
  8
0
 62
     3
  5
294
  0
POLYLINE
  8
0
 62
     3
  5
295
 66
     1
 10
0.0
 20
0.0
 30
0.0
  0
VERTEX
  8
0
 62
     3
  5
296
 10
7.316059
 20
7.739811
 30
0.0
  0
VERTEX
  8
0
 62
     3
  5
297
 10
7.311551
 20
7.733817
 30
0.0
  0
VERTEX
  8
0
 62
     3
  5
298
 10
6.211152
 20
8.561517
 30
0.0
 42
-0.243594
  0
VERTEX
  8
0
 62
     3
  5
299
 10
5.984064
 20
9.034105
 30
0.0
  0
VERTEX
  8
0
 62
     3
  5
29A
 10
5.999424
 20
9.549028
 30
0.0
 42
-0.229741
  0
VERTEX
  8
0
 62
     3
  5
29B
 10
6.108556
 20
9.757897
 30
0.0
  0
VERTEX
  8
0
 62
     3
  5
29C
 10
6.536535
 20
10.074936
 30
0.0
 42
0.475568
  0
VERTEX
  8
0
 62
     3
  5
29D
 10
6.559705
 20
10.586372
 30
0.0
  0
VERTEX
  8
0
 62
     3
  5
29E
 10
5.845705
 20
11.223152
 30
0.0
 42
0.351795
  0
VERTEX
  8
0
 62
     3
  5
29F
 10
5.05789
 20
11.263976
 30
0.0
  0
VERTEX
  8
0
 62
     3
  5
2A0
 10
4.166411
 20
10.621136
 30
0.0
 42
0.241011
  0
VERTEX
  8
0
 62
     3
  5
2A1
 10
4.029457
 20
10.353441
 30
0.0
  0
VERTEX
  8
0
 62
     3
  5
2A2
 10
4.029457
 20
9.825803
 30
0.0
  0
VERTEX
  8
0
 62
     3
  5
2A3
 10
4.021957
 20
9.825803
 30
0.0
  0
VERTEX
  8
0
 62
     3
  5
2A4
 10
4.021957
 20
10.35344
 30
0.0
 42
-0.24101
  0
VERTEX
  8
0
 62
     3
  5
2A5
 10
4.162024
 20
10.627219
 30
0.0
  0
VERTEX
  8
0
 62
     3
  5
2A6
 10
5.053503
 20
11.270059
 30
0.0
 42
-0.351795
  0
VERTEX
  8
0
 62
     3
  5
2A7
 10
5.850697
 20
11.228749
 30
0.0
  0
VERTEX
  8
0
 62
     3
  5
2A8
 10
6.564696
 20
10.59197
 30
0.0
 42
-0.475568
  0
VERTEX
  8
0
 62
     3
  5
2A9
 10
6.540999
 20
10.06891
 30
0.0
  0
VERTEX
  8
0
 62
     3
  5
2AA
 10
6.113021
 20
9.751871
 30
0.0
 42
0.229741
  0
VERTEX
  8
0
 62
     3
  5
2AB
 10
6.006921
 20
9.548804
 30
0.0
  0
VERTEX
  8
0
 62
     3
  5
2AC
 10
5.99156
 20
9.03388
 30
0.0
 42
0.243594
  0
VERTEX
  8
0
 62
     3
  5
2AD
 10
6.21566
 20
8.56751
 30
0.0
  0
VERTEX
  8
0
 62
     3
  5
2AE
 10
7.316059
 20
7.739811
 30
0.0
  0
SEQEND
  8
0
 62
     3
  5
2AF
  0
POLYLINE
  8
0
 62
     3
  5
2B0
 66
     1
 10
0.0
 20
0.0
 30
0.0
  0
VERTEX
  8
0
 62
     3
  5
2B1
 10
7.289009
 20
7.703849
 30
0.0
  0
VERTEX
  8
0
 62
     3
  5
2B2
 10
7.284501
 20
7.697855
 30
0.0
  0
VERTEX
  8
0
 62
     3
  5
2B3
 10
6.184101
 20
8.525555
 30
0.0
 42
-0.243594
  0
VERTEX
  8
0
 62
     3
  5
2B4
 10
5.939084
 20
9.035451
 30
0.0
  0
VERTEX
  8
0
 62
     3
  5
2B5
 10
5.954444
 20
9.55037
 30
0.0
 42
-0.229743
  0
VERTEX
  8
0
 62
     3
  5
2B6
 10
6.081767
 20
9.794055
 30
0.0
  0
VERTEX
  8
0
 62
     3
  5
2B7
 10
6.509748
 20
10.111095
 30
0.0
 42
0.475568
  0
VERTEX
  8
0
 62
     3
  5
2B8
 10
6.529754
 20
10.552787
 30
0.0
  0
VERTEX
  8
0
 62
     3
  5
2B9
 10
5.815753
 20
11.189568
 30
0.0
 42
0.351796
  0
VERTEX
  8
0
 62
     3
  5
2BA
 10
5.084211
 20
11.227476
 30
0.0
  0
VERTEX
  8
0
 62
     3
  5
2BB
 10
4.192732
 20
10.584637
 30
0.0
 42
0.241011
  0
VERTEX
  8
0
 62
     3
  5
2BC
 10
4.074457
 20
10.353445
 30
0.0
  0
VERTEX
  8
0
 62
     3
  5
2BD
 10
4.074457
 20
9.825803
 30
0.0
  0
VERTEX
  8
0
 62
     3
  5
2BE
 10
4.066957
 20
9.825803
 30
0.0
  0
VERTEX
  8
0
 62
     3
  5
2BF
 10
4.066957
 20
10.353444
 30
0.0
 42
-0.241012
  0
VERTEX
  8
0
 62
     3
  5
2C0
 10
4.188344
 20
10.59072
 30
0.0
  0
VERTEX
  8
0
 62
     3
  5
2C1
 10
5.079824
 20
11.233559
 30
0.0
 42
-0.351796
  0
VERTEX
  8
0
 62
     3
  5
2C2
 10
5.820745
 20
11.195165
 30
0.0
  0
VERTEX
  8
0
 62
     3
  5
2C3
 10
6.534746
 20
10.558385
 30
0.0
 42
-0.475568
  0
VERTEX
  8
0
 62
     3
  5
2C4
 10
6.514212
 20
10.105069
 30
0.0
  0
VERTEX
  8
0
 62
     3
  5
2C5
 10
6.086232
 20
9.788029
 30
0.0
 42
0.229743
  0
VERTEX
  8
0
 62
     3
  5
2C6
 10
5.961941
 20
9.550146
 30
0.0
  0
VERTEX
  8
0
 62
     3
  5
2C7
 10
5.946581
 20
9.035227
 30
0.0
 42
0.243594
  0
VERTEX
  8
0
 62
     3
  5
2C8
 10
6.188609
 20
8.531549
 30
0.0
  0
VERTEX
  8
0
 62
     3
  5
2C9
 10
7.289009
 20
7.703849
 30
0.0
  0
SEQEND
  8
0
 62
     3
  5
2CA
  0
POLYLINE
  8
0
 62
     3
  5
2CB
 66
     1
 10
0.0
 20
0.0
 30
0.0
  0
VERTEX
  8
0
 62
     3
  5
2CC
 10
7.270975
 20
7.679874
 30
0.0
  0
VERTEX
  8
0
 62
     3
  5
2CD
 10
7.266467
 20
7.67388
 30
0.0
  0
VERTEX
  8
0
 62
     3
  5
2CE
 10
6.166067
 20
8.50158
 30
0.0
 42
-0.243593
  0
VERTEX
  8
0
 62
     3
  5
2CF
 10
5.909097
 20
9.036347
 30
0.0
  0
VERTEX
  8
0
 62
     3
  5
2D0
 10
5.924457
 20
9.551264
 30
0.0
 42
-0.229743
  0
VERTEX
  8
0
 62
     3
  5
2D1
 10
6.063908
 20
9.818159
 30
0.0
  0
VERTEX
  8
0
 62
     3
  5
2D2
 10
6.491889
 20
10.1352
 30
0.0
 42
0.475565
  0
VERTEX
  8
0
 62
     3
  5
2D3
 10
6.509787
 20
10.530397
 30
0.0
  0
VERTEX
  8
0
 62
     3
  5
2D4
 10
5.795785
 20
11.167179
 30
0.0
 42
0.351796
  0
VERTEX
  8
0
 62
     3
  5
2D5
 10
5.101758
 20
11.203143
 30
0.0
  0
VERTEX
  8
0
 62
     3
  5
2D6
 10
4.210281
 20
10.560305
 30
0.0
 42
0.241008
  0
VERTEX
  8
0
 62
     3
  5
2D7
 10
4.104457
 20
10.353448
 30
0.0
  0
VERTEX
  8
0
 62
     3
  5
2D8
 10
4.104457
 20
9.825803
 30
0.0
  0
VERTEX
  8
0
 62
     3
  5
2D9
 10
4.096957
 20
9.825674
 30
0.0
  0
VERTEX
  8
0
 62
     3
  5
2DA
 10
4.096957
 20
10.353447
 30
0.0
 42
-0.241009
  0
VERTEX
  8
0
 62
     3
  5
2DB
 10
4.205893
 20
10.566388
 30
0.0
  0
VERTEX
  8
0
 62
     3
  5
2DC
 10
5.097371
 20
11.209227
 30
0.0
 42
-0.351796
  0
VERTEX
  8
0
 62
     3
  5
2DD
 10
5.800777
 20
11.172776
 30
0.0
  0
VERTEX
  8
0
 62
     3
  5
2DE
 10
6.514779
 20
10.535995
 30
0.0
 42
-0.475566
  0
VERTEX
  8
0
 62
     3
  5
2DF
 10
6.496353
 20
10.129174
 30
0.0
  0
VERTEX
  8
0
 62
     3
  5
2E0
 10
6.068373
 20
9.812133
 30
0.0
 42
0.229743
  0
VERTEX
  8
0
 62
     3
  5
2E1
 10
5.931954
 20
9.551041
 30
0.0
  0
VERTEX
  8
0
 62
     3
  5
2E2
 10
5.916594
 20
9.036123
 30
0.0
 42
0.243593
  0
VERTEX
  8
0
 62
     3
  5
2E3
 10
6.170575
 20
8.507574
 30
0.0
  0
VERTEX
  8
0
 62
     3
  5
2E4
 10
7.270975
 20
7.679874
 30
0.0
  0
SEQEND
  8
0
 62
     3
  5
2E5
  0
POLYLINE
  8
0
 62
     3
  5
2E6
 66
     1
 10
0.0
 20
0.0
 30
0.0
  0
VERTEX
  8
0
 62
     3
  5
2E7
 10
7.261959
 20
7.667887
 30
0.0
  0
VERTEX
  8
0
 62
     3
  5
2E8
 10
7.25745
 20
7.661893
 30
0.0
  0
VERTEX
  8
0
 62
     3
  5
2E9
 10
6.15705
 20
8.489593
 30
0.0
 42
-0.243593
  0
VERTEX
  8
0
 62
     3
  5
2EA
 10
5.894104
 20
9.036795
 30
0.0
  0
VERTEX
  8
0
 62
     3
  5
2EB
 10
5.909464
 20
9.551712
 30
0.0
 42
-0.229743
  0
VERTEX
  8
0
 62
     3
  5
2EC
 10
6.054978
 20
9.830212
 30
0.0
  0
VERTEX
  8
0
 62
     3
  5
2ED
 10
6.482959
 20
10.147253
 30
0.0
 42
0.475564
  0
VERTEX
  8
0
 62
     3
  5
2EE
 10
6.499804
 20
10.519202
 30
0.0
  0
VERTEX
  8
0
 62
     3
  5
2EF
 10
5.785801
 20
11.155984
 30
0.0
 42
0.351796
  0
VERTEX
  8
0
 62
     3
  5
2F0
 10
5.110532
 20
11.191077
 30
0.0
  0
VERTEX
  8
0
 62
     3
  5
2F1
 10
4.219055
 20
10.548139
 30
0.0
 42
0.241007
  0
VERTEX
  8
0
 62
     3
  5
2F2
 10
4.119457
 20
10.35345
 30
0.0
  0
VERTEX
  8
0
 62
     3
  5
2F3
 10
4.119257
 20
9.825803
 30
0.0
  0
VERTEX
  8
0
 62
     3
  5
2F4
 10
4.111957
 20
9.825803
 30
0.0
  0
VERTEX
  8
0
 62
     3
  5
2F5
 10
4.111957
 20
10.353449
 30
0.0
 42
-0.241008
  0
VERTEX
  8
0
 62
     3
  5
2F6
 10
4.214668
 20
10.554222
 30
0.0
  0
VERTEX
  8
0
 62
     3
  5
2F7
 10
5.106145
 20
11.19706
 30
0.0
 42
-0.351796
  0
VERTEX
  8
0
 62
     3
  5
2F8
 10
5.790793
 20
11.161581
 30
0.0
  0
VERTEX
  8
0
 62
     3
  5
2F9
 10
6.504796
 20
10.524799
 30
0.0
 42
-0.475565
  0
VERTEX
  8
0
 62
     3
  5
2FA
 10
6.487424
 20
10.141226
 30
0.0
  0
VERTEX
  8
0
 62
     3
  5
2FB
 10
6.059443
 20
9.824186
 30
0.0
 42
0.229743
  0
VERTEX
  8
0
 62
     3
  5
2FC
 10
5.916961
 20
9.551488
 30
0.0
  0
VERTEX
  8
0
 62
     3
  5
2FD
 10
5.901601
 20
9.036571
 30
0.0
 42
0.243593
  0
VERTEX
  8
0
 62
     3
  5
2FE
 10
6.161559
 20
8.495587
 30
0.0
  0
VERTEX
  8
0
 62
     3
  5
2FF
 10
7.261959
 20
7.667887
 30
0.0
  0
SEQEND
  8
0
 62
     3
  5
300
  0
POLYLINE
  8
0
 62
     3
  5
301
 66
     1
 10
0.0
 20
0.0
 30
0.0
  0
VERTEX
  8
0
 62
     3
  5
302
 10
7.20335
 20
7.589968
 30
0.0
  0
VERTEX
  8
0
 62
     3
  5
303
 10
7.198842
 20
7.583974
 30
0.0
  0
VERTEX
  8
0
 62
     3
  5
304
 10
6.098442
 20
8.411674
 30
0.0
 42
-0.243591
  0
VERTEX
  8
0
 62
     3
  5
305
 10
5.796648
 20
9.039707
 30
0.0
  0
VERTEX
  8
0
 62
     3
  5
306
 10
5.812007
 20
9.554619
 30
0.0
 42
-0.229743
  0
VERTEX
  8
0
 62
     3
  5
307
 10
5.996934
 20
9.908551
 30
0.0
  0
VERTEX
  8
0
 62
     3
  5
308
 10
6.424916
 20
10.225593
 30
0.0
 42
0.47555
  0
VERTEX
  8
0
 62
     3
  5
309
 10
6.434912
 20
10.446433
 30
0.0
  0
VERTEX
  8
0
 62
     3
  5
30A
 10
5.720906
 20
11.083219
 30
0.0
 42
0.351796
  0
VERTEX
  8
0
 62
     3
  5
30B
 10
5.167561
 20
11.111895
 30
0.0
  0
VERTEX
  8
0
 62
     3
  5
30C
 10
4.27609
 20
10.469062
 30
0.0
 42
0.240991
  0
VERTEX
  8
0
 62
     3
  5
30D
 10
4.216957
 20
10.353463
 30
0.0
  0
VERTEX
  8
0
 62
     3
  5
30E
 10
4.216957
 20
9.825803
 30
0.0
  0
VERTEX
  8
0
 62
     3
  5
30F
 10
4.209457
 20
9.826103
 30
0.0
  0
VERTEX
  8
0
 62
     3
  5
310
 10
4.209457
 20
10.353462
 30
0.0
 42
-0.240993
  0
VERTEX
  8
0
 62
     3
  5
311
 10
4.271703
 20
10.475145
 30
0.0
  0
VERTEX
  8
0
 62
     3
  5
312
 10
5.163174
 20
11.117978
 30
0.0
 42
-0.351796
  0
VERTEX
  8
0
 62
     3
  5
313
 10
5.725898
 20
11.088816
 30
0.0
  0
VERTEX
  8
0
 62
     3
  5
314
 10
6.439727
 20
10.452207
 30
0.0
 42
-0.475552
  0
VERTEX
  8
0
 62
     3
  5
315
 10
6.429381
 20
10.219567
 30
0.0
  0
VERTEX
  8
0
 62
     3
  5
316
 10
6.001398
 20
9.902525
 30
0.0
 42
0.229743
  0
VERTEX
  8
0
 62
     3
  5
317
 10
5.819504
 20
9.554395
 30
0.0
  0
VERTEX
  8
0
 62
     3
  5
318
 10
5.804294
 20
9.039483
 30
0.0
 42
0.243591
  0
VERTEX
  8
0
 62
     3
  5
319
 10
6.10295
 20
8.417668
 30
0.0
  0
VERTEX
  8
0
 62
     3
  5
31A
 10
7.20335
 20
7.589968
 30
0.0
  0
SEQEND
  8
0
 62
     3
  5
31B
  0
POLYLINE
  8
0
 62
     3
  5
31C
 66
     1
 10
0.0
 20
0.0
 30
0.0
  0
VERTEX
  8
0
 62
     3
  5
31D
 10
7.194333
 20
7.577981
 30
0.0
  0
VERTEX
  8
0
 62
     3
  5
31E
 10
7.189825
 20
7.571987
 30
0.0
  0
VERTEX
  8
0
 62
     3
  5
31F
 10
6.089425
 20
8.399687
 30
0.0
 42
-0.243591
  0
VERTEX
  8
0
 62
     3
  5
320
 10
5.781654
 20
9.040155
 30
0.0
  0
VERTEX
  8
0
 62
     3
  5
321
 10
5.797014
 20
9.555066
 30
0.0
 42
-0.229743
  0
VERTEX
  8
0
 62
     3
  5
322
 10
5.988004
 20
9.920604
 30
0.0
  0
VERTEX
  8
0
 62
     3
  5
323
 10
6.415986
 20
10.237645
 30
0.0
 42
0.475547
  0
VERTEX
  8
0
 62
     3
  5
324
 10
6.424929
 20
10.435237
 30
0.0
  0
VERTEX
  8
0
 62
     3
  5
325
 10
5.710922
 20
11.072024
 30
0.0
 42
0.351796
  0
VERTEX
  8
0
 62
     3
  5
326
 10
5.176335
 20
11.099728
 30
0.0
  0
VERTEX
  8
0
 62
     3
  5
327
 10
4.284865
 20
10.456896
 30
0.0
 42
0.240988
  0
VERTEX
  8
0
 62
     3
  5
328
 10
4.231957
 20
10.353465
 30
0.0
  0
VERTEX
  8
0
 62
     3
  5
329
 10
4.231957
 20
9.825803
 30
0.0
  0
VERTEX
  8
0
 62
     3
  5
32A
 10
4.224457
 20
9.826103
 30
0.0
  0
VERTEX
  8
0
 62
     3
  5
32B
 10
4.224457
 20
10.353464
 30
0.0
 42
-0.24099
  0
VERTEX
  8
0
 62
     3
  5
32C
 10
4.280478
 20
10.462979
 30
0.0
  0
VERTEX
  8
0
 62
     3
  5
32D
 10
5.171948
 20
11.105812
 30
0.0
 42
-0.351796
  0
VERTEX
  8
0
 62
     3
  5
32E
 10
5.715914
 20
11.077621
 30
0.0
  0
VERTEX
  8
0
 62
     3
  5
32F
 10
6.429921
 20
10.440835
 30
0.0
 42
-0.475549
  0
VERTEX
  8
0
 62
     3
  5
330
 10
6.420451
 20
10.231619
 30
0.0
  0
VERTEX
  8
0
 62
     3
  5
331
 10
5.992469
 20
9.914578
 30
0.0
 42
0.229743
  0
VERTEX
  8
0
 62
     3
  5
332
 10
5.804511
 20
9.554842
 30
0.0
  0
VERTEX
  8
0
 62
     3
  5
333
 10
5.789151
 20
9.039931
 30
0.0
 42
0.243591
  0
VERTEX
  8
0
 62
     3
  5
334
 10
6.093933
 20
8.405681
 30
0.0
  0
VERTEX
  8
0
 62
     3
  5
335
 10
7.194333
 20
7.577981
 30
0.0
  0
SEQEND
  8
0
 62
     3
  5
336
  0
POLYLINE
  8
0
 62
     3
  5
337
 66
     1
 10
0.0
 20
0.0
 30
0.0
  0
VERTEX
  8
0
 62
     3
  5
338
 10
7.1763
 20
7.554006
 30
0.0
  0
VERTEX
  8
0
 62
     3
  5
339
 10
7.171791
 20
7.548012
 30
0.0
  0
VERTEX
  8
0
 62
     3
  5
33A
 10
6.071391
 20
8.375712
 30
0.0
 42
-0.24359
  0
VERTEX
  8
0
 62
     3
  5
33B
 10
5.751668
 20
9.041051
 30
0.0
  0
VERTEX
  8
0
 62
     3
  5
33C
 10
5.767027
 20
9.55596
 30
0.0
 42
-0.229743
  0
VERTEX
  8
0
 62
     3
  5
33D
 10
5.970144
 20
9.944708
 30
0.0
  0
VERTEX
  8
0
 62
     3
  5
33E
 10
6.398126
 20
10.26175
 30
0.0
 42
0.475538
  0
VERTEX
  8
0
 62
     3
  5
33F
 10
6.404962
 20
10.412847
 30
0.0
  0
VERTEX
  8
0
 62
     3
  5
340
 10
5.690954
 20
11.049635
 30
0.0
 42
0.351796
  0
VERTEX
  8
0
 62
     3
  5
341
 10
5.193882
 20
11.075395
 30
0.0
  0
VERTEX
  8
0
 62
     3
  5
342
 10
4.302415
 20
10.432565
 30
0.0
 42
0.240977
  0
VERTEX
  8
0
 62
     3
  5
343
 10
4.261957
 20
10.353469
 30
0.0
  0
VERTEX
  8
0
 62
     3
  5
344
 10
4.261957
 20
9.825803
 30
0.0
  0
VERTEX
  8
0
 62
     3
  5
345
 10
4.254457
 20
9.825803
 30
0.0
  0
VERTEX
  8
0
 62
     3
  5
346
 10
4.254457
 20
10.353468
 30
0.0
 42
-0.24098
  0
VERTEX
  8
0
 62
     3
  5
347
 10
4.298028
 20
10.438648
 30
0.0
  0
VERTEX
  8
0
 62
     3
  5
348
 10
5.189495
 20
11.081479
 30
0.0
 42
-0.351796
  0
VERTEX
  8
0
 62
     3
  5
349
 10
5.695946
 20
11.055232
 30
0.0
  0
VERTEX
  8
0
 62
     3
  5
34A
 10
6.409954
 20
10.418445
 30
0.0
 42
-0.475541
  0
VERTEX
  8
0
 62
     3
  5
34B
 10
6.402591
 20
10.255724
 30
0.0
  0
VERTEX
  8
0
 62
     3
  5
34C
 10
5.974609
 20
9.938682
 30
0.0
 42
0.229743
  0
VERTEX
  8
0
 62
     3
  5
34D
 10
5.774524
 20
9.555737
 30
0.0
  0
VERTEX
  8
0
 62
     3
  5
34E
 10
5.759164
 20
9.040827
 30
0.0
 42
0.24359
  0
VERTEX
  8
0
 62
     3
  5
34F
 10
6.0759
 20
8.381706
 30
0.0
  0
VERTEX
  8
0
 62
     3
  5
350
 10
7.1763
 20
7.554006
 30
0.0
  0
SEQEND
  8
0
 62
     3
  5
351
  0
POLYLINE
  8
0
 62
     3
  5
352
 66
     1
 10
0.0
 20
0.0
 30
0.0
  0
VERTEX
  8
0
 62
     3
  5
353
 10
7.212367
 20
7.601956
 30
0.0
  0
VERTEX
  8
0
 62
     3
  5
354
 10
7.207858
 20
7.595962
 30
0.0
  0
VERTEX
  8
0
 62
     3
  5
355
 10
6.107458
 20
8.423662
 30
0.0
 42
-0.243591
  0
VERTEX
  8
0
 62
     3
  5
356
 10
5.811641
 20
9.039259
 30
0.0
  0
VERTEX
  8
0
 62
     3
  5
357
 10
5.827001
 20
9.554171
 30
0.0
 42
-0.229743
  0
VERTEX
  8
0
 62
     3
  5
358
 10
6.005863
 20
9.896499
 30
0.0
  0
VERTEX
  8
0
 62
     3
  5
359
 10
6.433846
 20
10.213541
 30
0.0
 42
0.475553
  0
VERTEX
  8
0
 62
     3
  5
35A
 10
6.444896
 20
10.457628
 30
0.0
  0
VERTEX
  8
0
 62
     3
  5
35B
 10
5.73089
 20
11.094413
 30
0.0
 42
0.351796
  0
VERTEX
  8
0
 62
     3
  5
35C
 10
5.158787
 20
11.124061
 30
0.0
  0
VERTEX
  8
0
 62
     3
  5
35D
 10
4.267316
 20
10.481227
 30
0.0
 42
0.240995
  0
VERTEX
  8
0
 62
     3
  5
35E
 10
4.201957
 20
10.353461
 30
0.0
  0
VERTEX
  8
0
 62
     3
  5
35F
 10
4.201957
 20
9.825803
 30
0.0
  0
VERTEX
  8
0
 62
     3
  5
360
 10
4.194457
 20
9.826103
 30
0.0
  0
VERTEX
  8
0
 62
     3
  5
361
 10
4.194257
 20
10.35346
 30
0.0
 42
-0.240996
  0
VERTEX
  8
0
 62
     3
  5
362
 10
4.262928
 20
10.48731
 30
0.0
  0
VERTEX
  8
0
 62
     3
  5
363
 10
5.1544
 20
11.130145
 30
0.0
 42
-0.351796
  0
VERTEX
  8
0
 62
     3
  5
364
 10
5.735882
 20
11.100011
 30
0.0
  0
VERTEX
  8
0
 62
     3
  5
365
 10
6.449887
 20
10.463226
 30
0.0
 42
-0.475555
  0
VERTEX
  8
0
 62
     3
  5
366
 10
6.43831
 20
10.207515
 30
0.0
  0
VERTEX
  8
0
 62
     3
  5
367
 10
6.010328
 20
9.890473
 30
0.0
 42
0.229743
  0
VERTEX
  8
0
 62
     3
  5
368
 10
5.834497
 20
9.553948
 30
0.0
  0
VERTEX
  8
0
 62
     3
  5
369
 10
5.819137
 20
9.039035
 30
0.0
 42
0.243591
  0
VERTEX
  8
0
 62
     3
  5
36A
 10
6.111967
 20
8.429656
 30
0.0
  0
VERTEX
  8
0
 62
     3
  5
36B
 10
7.212367
 20
7.601956
 30
0.0
  0
SEQEND
  8
0
 62
     3
  5
36C
  0
POLYLINE
  8
0
 62
     3
  5
36D
 66
     1
 10
0.0
 20
0.0
 30
0.0
  0
VERTEX
  8
0
 62
     3
  5
36E
 10
7.2304
 20
7.625931
 30
0.0
  0
VERTEX
  8
0
 62
     3
  5
36F
 10
7.225892
 20
7.619937
 30
0.0
  0
VERTEX
  8
0
 62
     3
  5
370
 10
6.125492
 20
8.447637
 30
0.0
 42
-0.243592
  0
VERTEX
  8
0
 62
     3
  5
371
 10
5.841627
 20
9.038363
 30
0.0
  0
VERTEX
  8
0
 62
     3
  5
372
 10
5.856987
 20
9.553277
 30
0.0
 42
-0.229743
  0
VERTEX
  8
0
 62
     3
  5
373
 10
6.023723
 20
9.872395
 30
0.0
  0
VERTEX
  8
0
 62
     3
  5
374
 10
6.451705
 20
10.189436
 30
0.0
 42
0.475558
  0
VERTEX
  8
0
 62
     3
  5
375
 10
6.464862
 20
10.480018
 30
0.0
  0
VERTEX
  8
0
 62
     3
  5
376
 10
5.750858
 20
11.116803
 30
0.0
 42
0.351796
  0
VERTEX
  8
0
 62
     3
  5
377
 10
5.14124
 20
11.148394
 30
0.0
  0
VERTEX
  8
0
 62
     3
  5
378
 10
4.249766
 20
10.505559
 30
0.0
 42
0.241
  0
VERTEX
  8
0
 62
     3
  5
379
 10
4.171957
 20
10.353457
 30
0.0
  0
VERTEX
  8
0
 62
     3
  5
37A
 10
4.171957
 20
9.825803
 30
0.0
  0
VERTEX
  8
0
 62
     3
  5
37B
 10
4.164457
 20
9.826257
 30
0.0
  0
VERTEX
  8
0
 62
     3
  5
37C
 10
4.164457
 20
10.353456
 30
0.0
 42
-0.241001
  0
VERTEX
  8
0
 62
     3
  5
37D
 10
4.245379
 20
10.511642
 30
0.0
  0
VERTEX
  8
0
 62
     3
  5
37E
 10
5.136853
 20
11.154478
 30
0.0
 42
-0.351796
  0
VERTEX
  8
0
 62
     3
  5
37F
 10
5.75585
 20
11.1224
 30
0.0
  0
VERTEX
  8
0
 62
     3
  5
380
 10
6.469854
 20
10.485616
 30
0.0
 42
-0.475559
  0
VERTEX
  8
0
 62
     3
  5
381
 10
6.45617
 20
10.18341
 30
0.0
  0
VERTEX
  8
0
 62
     3
  5
382
 10
6.028188
 20
9.866369
 30
0.0
 42
0.229743
  0
VERTEX
  8
0
 62
     3
  5
383
 10
5.864484
 20
9.553053
 30
0.0
  0
VERTEX
  8
0
 62
     3
  5
384
 10
5.849124
 20
9.038139
 30
0.0
 42
0.243592
  0
VERTEX
  8
0
 62
     3
  5
385
 10
6.13
 20
8.453631
 30
0.0
  0
VERTEX
  8
0
 62
     3
  5
386
 10
7.2304
 20
7.625931
 30
0.0
  0
SEQEND
  8
0
 62
     3
  5
387
  0
POLYLINE
  8
0
 62
     3
  5
388
 66
     1
 10
0.0
 20
0.0
 30
0.0
  0
VERTEX
  8
0
 62
     3
  5
389
 10
7.239417
 20
7.637918
 30
0.0
  0
VERTEX
  8
0
 62
     3
  5
38A
 10
7.234909
 20
7.631924
 30
0.0
  0
VERTEX
  8
0
 62
     3
  5
38B
 10
6.134509
 20
8.459624
 30
0.0
 42
-0.243592
  0
VERTEX
  8
0
 62
     3
  5
38C
 10
5.856621
 20
9.037915
 30
0.0
  0
VERTEX
  8
0
 62
     3
  5
38D
 10
5.871981
 20
9.55283
 30
0.0
 42
-0.229743
  0
VERTEX
  8
0
 62
     3
  5
38E
 10
6.032653
 20
9.860342
 30
0.0
  0
VERTEX
  8
0
 62
     3
  5
38F
 10
6.460635
 20
10.177384
 30
0.0
 42
0.47556
  0
VERTEX
  8
0
 62
     3
  5
390
 10
6.474846
 20
10.491214
 30
0.0
  0
VERTEX
  8
0
 62
     3
  5
391
 10
5.760842
 20
11.127997
 30
0.0
 42
0.351796
  0
VERTEX
  8
0
 62
     3
  5
392
 10
5.132466
 20
11.160561
 30
0.0
  0
VERTEX
  8
0
 62
     3
  5
393
 10
4.240991
 20
10.517724
 30
0.0
 42
0.241002
  0
VERTEX
  8
0
 62
     3
  5
394
 10
4.156957
 20
10.353455
 30
0.0
  0
VERTEX
  8
0
 62
     3
  5
395
 10
4.156957
 20
9.825803
 30
0.0
  0
VERTEX
  8
0
 62
     3
  5
396
 10
4.149457
 20
9.825803
 30
0.0
  0
VERTEX
  8
0
 62
     3
  5
397
 10
4.149457
 20
10.353454
 30
0.0
 42
-0.241003
  0
VERTEX
  8
0
 62
     3
  5
398
 10
4.236604
 20
10.523807
 30
0.0
  0
VERTEX
  8
0
 62
     3
  5
399
 10
5.128079
 20
11.166644
 30
0.0
 42
-0.351796
  0
VERTEX
  8
0
 62
     3
  5
39A
 10
5.765834
 20
11.133595
 30
0.0
  0
VERTEX
  8
0
 62
     3
  5
39B
 10
6.479837
 20
10.496811
 30
0.0
 42
-0.475561
  0
VERTEX
  8
0
 62
     3
  5
39C
 10
6.4651
 20
10.171357
 30
0.0
  0
VERTEX
  8
0
 62
     3
  5
39D
 10
6.037118
 20
9.854316
 30
0.0
 42
0.229743
  0
VERTEX
  8
0
 62
     3
  5
39E
 10
5.879477
 20
9.552606
 30
0.0
  0
VERTEX
  8
0
 62
     3
  5
39F
 10
5.864117
 20
9.037691
 30
0.0
 42
0.243592
  0
VERTEX
  8
0
 62
     3
  5
3A0
 10
6.139017
 20
8.465618
 30
0.0
  0
VERTEX
  8
0
 62
     3
  5
3A1
 10
7.239417
 20
7.637918
 30
0.0
  0
SEQEND
  8
0
 62
     3
  5
3A2
  0
POLYLINE
  8
0
 62
     3
  5
3A3
 66
     1
 10
0.0
 20
0.0
 30
0.0
  0
VERTEX
  8
0
 62
     3
  5
3A4
 10
4.059257
 20
9.825803
 30
0.0
  0
VERTEX
  8
0
 62
     3
  5
3A5
 10
4.051957
 20
9.825803
 30
0.0
  0
VERTEX
  8
0
 62
     3
  5
3A6
 10
4.051957
 20
10.353442
 30
0.0
 42
-0.241012
  0
VERTEX
  8
0
 62
     3
  5
3A7
 10
4.179571
 20
10.602886
 30
0.0
  0
VERTEX
  8
0
 62
     3
  5
3A8
 10
5.07105
 20
11.245726
 30
0.0
 42
-0.351795
  0
VERTEX
  8
0
 62
     3
  5
3A9
 10
5.830729
 20
11.20636
 30
0.0
  0
VERTEX
  8
0
 62
     3
  5
3AA
 10
6.544729
 20
10.56958
 30
0.0
 42
-0.475568
  0
VERTEX
  8
0
 62
     3
  5
3AB
 10
6.523142
 20
10.093016
 30
0.0
  0
VERTEX
  8
0
 62
     3
  5
3AC
 10
6.095162
 20
9.775976
 30
0.0
 42
0.229742
  0
VERTEX
  8
0
 62
     3
  5
3AD
 10
5.976934
 20
9.549699
 30
0.0
  0
VERTEX
  8
0
 62
     3
  5
3AE
 10
5.961574
 20
9.034778
 30
0.0
 42
0.243594
  0
VERTEX
  8
0
 62
     3
  5
3AF
 10
6.197626
 20
8.543536
 30
0.0
  0
VERTEX
  8
0
 62
     3
  5
3B0
 10
7.298026
 20
7.715836
 30
0.0
  0
VERTEX
  8
0
 62
     3
  5
3B1
 10
7.293517
 20
7.709843
 30
0.0
  0
VERTEX
  8
0
 62
     3
  5
3B2
 10
6.193117
 20
8.537543
 30
0.0
 42
-0.243594
  0
VERTEX
  8
0
 62
     3
  5
3B3
 10
5.954077
 20
9.035003
 30
0.0
  0
VERTEX
  8
0
 62
     3
  5
3B4
 10
5.969437
 20
9.549923
 30
0.0
 42
-0.229743
  0
VERTEX
  8
0
 62
     3
  5
3B5
 10
6.090697
 20
9.782003
 30
0.0
  0
VERTEX
  8
0
 62
     3
  5
3B6
 10
6.518677
 20
10.099043
 30
0.0
 42
0.475569
  0
VERTEX
  8
0
 62
     3
  5
3B7
 10
6.539737
 20
10.563983
 30
0.0
  0
VERTEX
  8
0
 62
     3
  5
3B8
 10
5.825737
 20
11.200763
 30
0.0
 42
0.351796
  0
VERTEX
  8
0
 62
     3
  5
3B9
 10
5.075437
 20
11.239643
 30
0.0
  0
VERTEX
  8
0
 62
     3
  5
3BA
 10
4.183957
 20
10.596803
 30
0.0
 42
0.241012
  0
VERTEX
  8
0
 62
     3
  5
3BB
 10
4.059457
 20
10.353443
 30
0.0
  0
VERTEX
  8
0
 62
     3
  5
3BC
 10
4.059257
 20
9.825803
 30
0.0
  0
SEQEND
  8
0
 62
     3
  5
3BD
  0
TEXT
  8
0
  5
3BE
 10
3.766309
 20
7.269733
 30
0.0
 40
0.1
  1
Polyline PRO IN ACTION:
  0
TEXT
  8
0
  5
3BF
 10
3.766309
 20
6.69188
 30
0.0
 40
0.1
  1
In less than 20 seconds, over 45 boundary
  0
TEXT
  8
0
  5
3C0
 10
3.766309
 20
6.525214
 30
0.0
 40
0.1
  1
errors have been corrected, and the 
  0
TEXT
  8
0
  5
3C1
 10
3.766309
 20
6.358547
 30
0.0
 40
0.1
  1
11 errors left have been located by the
  0
TEXT
  8
0
  5
3C2
 10
3.766309
 20
6.19188
 30
0.0
 40
0.1
  1
error markers!!
  0
TEXT
  8
0
  5
3C3
 10
3.744653
 20
6.966754
 30
0.0
 40
0.1
  1
SETTING THE TOLERANCE FACTOR TO 0.001"
  0
TEXT
  8
0
  5
3C4
 10
3.744653
 20
5.863045
 30
0.0
 40
0.1
  1
Note: The lines/arcs that were corrected
  0
TEXT
  8
0
  5
3C5
 10
3.744653
 20
5.696378
 30
0.0
 40
0.1
  1
and converted to closed polylines by Polyline PRO 
  0
TEXT
  8
0
  5
3C6
 10
3.744653
 20
5.529711
 30
0.0
 40
0.1
  1
are green ( this gives an excellent visual aid
  0
TEXT
  8
0
  5
3C7
 10
3.744653
 20
5.363045
 30
0.0
 40
0.1
  1
for the user to see what has been completed.)
  0
POLYLINE
  8
0
 62
     3
  5
3C8
 66
     1
 10
0.0
 20
0.0
 30
0.0
  0
VERTEX
  8
0
 62
     3
  5
3C9
 10
1.359287
 20
3.158408
 30
0.0
  0
VERTEX
  8
0
 62
     3
  5
3CA
 10
1.351987
 20
3.158408
 30
0.0
  0
VERTEX
  8
0
 62
     3
  5
3CB
 10
1.351987
 20
3.686047
 30
0.0
 42
-0.241012
  0
VERTEX
  8
0
 62
     3
  5
3CC
 10
1.4796
 20
3.935491
 30
0.0
  0
VERTEX
  8
0
 62
     3
  5
3CD
 10
2.37108
 20
4.578331
 30
0.0
 42
-0.351795
  0
VERTEX
  8
0
 62
     3
  5
3CE
 10
3.130759
 20
4.538965
 30
0.0
  0
VERTEX
  8
0
 62
     3
  5
3CF
 10
3.844759
 20
3.902185
 30
0.0
 42
-0.475568
  0
VERTEX
  8
0
 62
     3
  5
3D0
 10
3.823171
 20
3.425621
 30
0.0
  0
VERTEX
  8
0
 62
     3
  5
3D1
 10
3.395192
 20
3.108582
 30
0.0
 42
0.229742
  0
VERTEX
  8
0
 62
     3
  5
3D2
 10
3.276964
 20
2.882304
 30
0.0
  0
VERTEX
  8
0
 62
     3
  5
3D3
 10
3.261604
 20
2.367383
 30
0.0
 42
0.243594
  0
VERTEX
  8
0
 62
     3
  5
3D4
 10
3.497656
 20
1.876141
 30
0.0
  0
VERTEX
  8
0
 62
     3
  5
3D5
 10
4.598055
 20
1.048442
 30
0.0
  0
VERTEX
  8
0
 62
     3
  5
3D6
 10
4.593547
 20
1.042448
 30
0.0
  0
VERTEX
  8
0
 62
     3
  5
3D7
 10
3.493147
 20
1.870148
 30
0.0
 42
-0.243594
  0
VERTEX
  8
0
 62
     3
  5
3D8
 10
3.254107
 20
2.367608
 30
0.0
  0
VERTEX
  8
0
 62
     3
  5
3D9
 10
3.269467
 20
2.882528
 30
0.0
 42
-0.229743
  0
VERTEX
  8
0
 62
     3
  5
3DA
 10
3.390727
 20
3.114608
 30
0.0
  0
VERTEX
  8
0
 62
     3
  5
3DB
 10
3.818707
 20
3.431648
 30
0.0
 42
0.475569
  0
VERTEX
  8
0
 62
     3
  5
3DC
 10
3.839767
 20
3.896588
 30
0.0
  0
VERTEX
  8
0
 62
     3
  5
3DD
 10
3.125767
 20
4.533368
 30
0.0
 42
0.351796
  0
VERTEX
  8
0
 62
     3
  5
3DE
 10
2.375467
 20
4.572248
 30
0.0
  0
VERTEX
  8
0
 62
     3
  5
3DF
 10
1.483987
 20
3.929408
 30
0.0
 42
0.241012
  0
VERTEX
  8
0
 62
     3
  5
3E0
 10
1.359487
 20
3.686048
 30
0.0
  0
VERTEX
  8
0
 62
     3
  5
3E1
 10
1.359287
 20
3.158408
 30
0.0
  0
SEQEND
  8
0
 62
     3
  5
3E2
  0
POLYLINE
  8
0
 62
     3
  5
3E3
 66
     1
 10
0.0
 20
0.0
 30
0.0
  0
VERTEX
  8
0
 62
     3
  5
3E4
 10
4.539447
 20
0.970523
 30
0.0
  0
VERTEX
  8
0
 62
     3
  5
3E5
 10
4.534938
 20
0.96453
 30
0.0
  0
VERTEX
  8
0
 62
     3
  5
3E6
 10
3.434538
 20
1.79223
 30
0.0
 42
-0.243592
  0
VERTEX
  8
0
 62
     3
  5
3E7
 10
3.156651
 20
2.37052
 30
0.0
  0
VERTEX
  8
0
 62
     3
  5
3E8
 10
3.17201
 20
2.885435
 30
0.0
 42
-0.229743
  0
VERTEX
  8
0
 62
     3
  5
3E9
 10
3.332683
 20
3.192948
 30
0.0
  0
VERTEX
  8
0
 62
     3
  5
3EA
 10
3.760665
 20
3.509989
 30
0.0
 42
0.47556
  0
VERTEX
  8
0
 62
     3
  5
3EB
 10
3.774875
 20
3.823819
 30
0.0
  0
VERTEX
  8
0
 62
     3
  5
3EC
 10
3.060871
 20
4.460603
 30
0.0
 42
0.351796
  0
VERTEX
  8
0
 62
     3
  5
3ED
 10
2.432496
 20
4.493166
 30
0.0
  0
VERTEX
  8
0
 62
     3
  5
3EE
 10
1.541021
 20
3.85033
 30
0.0
 42
0.241002
  0
VERTEX
  8
0
 62
     3
  5
3EF
 10
1.456987
 20
3.686061
 30
0.0
  0
VERTEX
  8
0
 62
     3
  5
3F0
 10
1.456987
 20
3.158408
 30
0.0
  0
VERTEX
  8
0
 62
     3
  5
3F1
 10
1.449487
 20
3.158408
 30
0.0
  0
VERTEX
  8
0
 62
     3
  5
3F2
 10
1.449487
 20
3.68606
 30
0.0
 42
-0.241003
  0
VERTEX
  8
0
 62
     3
  5
3F3
 10
1.536634
 20
3.856413
 30
0.0
  0
VERTEX
  8
0
 62
     3
  5
3F4
 10
2.428109
 20
4.499249
 30
0.0
 42
-0.351796
  0
VERTEX
  8
0
 62
     3
  5
3F5
 10
3.065863
 20
4.4662
 30
0.0
  0
VERTEX
  8
0
 62
     3
  5
3F6
 10
3.779867
 20
3.829417
 30
0.0
 42
-0.475561
  0
VERTEX
  8
0
 62
     3
  5
3F7
 10
3.765129
 20
3.503963
 30
0.0
  0
VERTEX
  8
0
 62
     3
  5
3F8
 10
3.337148
 20
3.186922
 30
0.0
 42
0.229743
  0
VERTEX
  8
0
 62
     3
  5
3F9
 10
3.179507
 20
2.885211
 30
0.0
  0
VERTEX
  8
0
 62
     3
  5
3FA
 10
3.164147
 20
2.370296
 30
0.0
 42
0.243592
  0
VERTEX
  8
0
 62
     3
  5
3FB
 10
3.439047
 20
1.798223
 30
0.0
  0
VERTEX
  8
0
 62
     3
  5
3FC
 10
4.539447
 20
0.970523
 30
0.0
  0
SEQEND
  8
0
 62
     3
  5
3FD
  0
POLYLINE
  8
0
 62
     3
  5
3FE
 66
     1
 10
0.0
 20
0.0
 30
0.0
  0
VERTEX
  8
0
 62
     3
  5
3FF
 10
4.53043
 20
0.958536
 30
0.0
  0
VERTEX
  8
0
 62
     3
  5
400
 10
4.525922
 20
0.952542
 30
0.0
  0
VERTEX
  8
0
 62
     3
  5
401
 10
3.425522
 20
1.780242
 30
0.0
 42
-0.243592
  0
VERTEX
  8
0
 62
     3
  5
402
 10
3.141657
 20
2.370968
 30
0.0
  0
VERTEX
  8
0
 62
     3
  5
403
 10
3.157017
 20
2.885882
 30
0.0
 42
-0.229743
  0
VERTEX
  8
0
 62
     3
  5
404
 10
3.323753
 20
3.205
 30
0.0
  0
VERTEX
  8
0
 62
     3
  5
405
 10
3.751735
 20
3.522041
 30
0.0
 42
0.475558
  0
VERTEX
  8
0
 62
     3
  5
406
 10
3.764892
 20
3.812624
 30
0.0
  0
VERTEX
  8
0
 62
     3
  5
407
 10
3.050887
 20
4.449408
 30
0.0
 42
0.351796
  0
VERTEX
  8
0
 62
     3
  5
408
 10
2.44127
 20
4.481
 30
0.0
  0
VERTEX
  8
0
 62
     3
  5
409
 10
1.549796
 20
3.838164
 30
0.0
 42
0.241
  0
VERTEX
  8
0
 62
     3
  5
40A
 10
1.471987
 20
3.686062
 30
0.0
  0
VERTEX
  8
0
 62
     3
  5
40B
 10
1.471987
 20
3.158408
 30
0.0
  0
VERTEX
  8
0
 62
     3
  5
40C
 10
1.464487
 20
3.158862
 30
0.0
  0
VERTEX
  8
0
 62
     3
  5
40D
 10
1.464487
 20
3.686062
 30
0.0
 42
-0.241001
  0
VERTEX
  8
0
 62
     3
  5
40E
 10
1.545409
 20
3.844247
 30
0.0
  0
VERTEX
  8
0
 62
     3
  5
40F
 10
2.436883
 20
4.487083
 30
0.0
 42
-0.351796
  0
VERTEX
  8
0
 62
     3
  5
410
 10
3.055879
 20
4.455005
 30
0.0
  0
VERTEX
  8
0
 62
     3
  5
411
 10
3.769884
 20
3.818221
 30
0.0
 42
-0.475559
  0
VERTEX
  8
0
 62
     3
  5
412
 10
3.7562
 20
3.516015
 30
0.0
  0
VERTEX
  8
0
 62
     3
  5
413
 10
3.328218
 20
3.198974
 30
0.0
 42
0.229743
  0
VERTEX
  8
0
 62
     3
  5
414
 10
3.164514
 20
2.885659
 30
0.0
  0
VERTEX
  8
0
 62
     3
  5
415
 10
3.149154
 20
2.370744
 30
0.0
 42
0.243592
  0
VERTEX
  8
0
 62
     3
  5
416
 10
3.43003
 20
1.786236
 30
0.0
  0
VERTEX
  8
0
 62
     3
  5
417
 10
4.53043
 20
0.958536
 30
0.0
  0
SEQEND
  8
0
 62
     3
  5
418
  0
POLYLINE
  8
0
 62
     3
  5
419
 66
     1
 10
0.0
 20
0.0
 30
0.0
  0
VERTEX
  8
0
 62
     3
  5
41A
 10
4.512397
 20
0.934561
 30
0.0
  0
VERTEX
  8
0
 62
     3
  5
41B
 10
4.507888
 20
0.928567
 30
0.0
  0
VERTEX
  8
0
 62
     3
  5
41C
 10
3.407488
 20
1.756267
 30
0.0
 42
-0.243591
  0
VERTEX
  8
0
 62
     3
  5
41D
 10
3.111671
 20
2.371864
 30
0.0
  0
VERTEX
  8
0
 62
     3
  5
41E
 10
3.12703
 20
2.886777
 30
0.0
 42
-0.229743
  0
VERTEX
  8
0
 62
     3
  5
41F
 10
3.305893
 20
3.229105
 30
0.0
  0
VERTEX
  8
0
 62
     3
  5
420
 10
3.733875
 20
3.546146
 30
0.0
 42
0.475553
  0
VERTEX
  8
0
 62
     3
  5
421
 10
3.744925
 20
3.790233
 30
0.0
  0
VERTEX
  8
0
 62
     3
  5
422
 10
3.03092
 20
4.427019
 30
0.0
 42
0.351796
  0
VERTEX
  8
0
 62
     3
  5
423
 10
2.458817
 20
4.456667
 30
0.0
  0
VERTEX
  8
0
 62
     3
  5
424
 10
1.567345
 20
3.813833
 30
0.0
 42
0.240995
  0
VERTEX
  8
0
 62
     3
  5
425
 10
1.501987
 20
3.686066
 30
0.0
  0
VERTEX
  8
0
 62
     3
  5
426
 10
1.501987
 20
3.158408
 30
0.0
  0
VERTEX
  8
0
 62
     3
  5
427
 10
1.494487
 20
3.158708
 30
0.0
  0
VERTEX
  8
0
 62
     3
  5
428
 10
1.494287
 20
3.686065
 30
0.0
 42
-0.240996
  0
VERTEX
  8
0
 62
     3
  5
429
 10
1.562958
 20
3.819916
 30
0.0
  0
VERTEX
  8
0
 62
     3
  5
42A
 10
2.45443
 20
4.46275
 30
0.0
 42
-0.351796
  0
VERTEX
  8
0
 62
     3
  5
42B
 10
3.035911
 20
4.432616
 30
0.0
  0
VERTEX
  8
0
 62
     3
  5
42C
 10
3.749917
 20
3.795831
 30
0.0
 42
-0.475555
  0
VERTEX
  8
0
 62
     3
  5
42D
 10
3.73834
 20
3.54012
 30
0.0
  0
VERTEX
  8
0
 62
     3
  5
42E
 10
3.310358
 20
3.223078
 30
0.0
 42
0.229743
  0
VERTEX
  8
0
 62
     3
  5
42F
 10
3.134527
 20
2.886553
 30
0.0
  0
VERTEX
  8
0
 62
     3
  5
430
 10
3.119167
 20
2.37164
 30
0.0
 42
0.243591
  0
VERTEX
  8
0
 62
     3
  5
431
 10
3.411997
 20
1.762261
 30
0.0
  0
VERTEX
  8
0
 62
     3
  5
432
 10
4.512397
 20
0.934561
 30
0.0
  0
SEQEND
  8
0
 62
     3
  5
433
  0
POLYLINE
  8
0
 62
     3
  5
434
 66
     1
 10
0.0
 20
0.0
 30
0.0
  0
VERTEX
  8
0
 62
     3
  5
435
 10
4.47633
 20
0.886611
 30
0.0
  0
VERTEX
  8
0
 62
     3
  5
436
 10
4.471821
 20
0.880618
 30
0.0
  0
VERTEX
  8
0
 62
     3
  5
437
 10
3.371421
 20
1.708318
 30
0.0
 42
-0.24359
  0
VERTEX
  8
0
 62
     3
  5
438
 10
3.051697
 20
2.373656
 30
0.0
  0
VERTEX
  8
0
 62
     3
  5
439
 10
3.067057
 20
2.888566
 30
0.0
 42
-0.229743
  0
VERTEX
  8
0
 62
     3
  5
43A
 10
3.270174
 20
3.277314
 30
0.0
  0
VERTEX
  8
0
 62
     3
  5
43B
 10
3.698156
 20
3.594355
 30
0.0
 42
0.475538
  0
VERTEX
  8
0
 62
     3
  5
43C
 10
3.704992
 20
3.745452
 30
0.0
  0
VERTEX
  8
0
 62
     3
  5
43D
 10
2.990984
 20
4.38224
 30
0.0
 42
0.351796
  0
VERTEX
  8
0
 62
     3
  5
43E
 10
2.493912
 20
4.408001
 30
0.0
  0
VERTEX
  8
0
 62
     3
  5
43F
 10
1.602445
 20
3.765171
 30
0.0
 42
0.240977
  0
VERTEX
  8
0
 62
     3
  5
440
 10
1.561987
 20
3.686074
 30
0.0
  0
VERTEX
  8
0
 62
     3
  5
441
 10
1.561987
 20
3.158408
 30
0.0
  0
VERTEX
  8
0
 62
     3
  5
442
 10
1.554487
 20
3.158408
 30
0.0
  0
VERTEX
  8
0
 62
     3
  5
443
 10
1.554487
 20
3.686073
 30
0.0
 42
-0.24098
  0
VERTEX
  8
0
 62
     3
  5
444
 10
1.598058
 20
3.771253
 30
0.0
  0
VERTEX
  8
0
 62
     3
  5
445
 10
2.489525
 20
4.414084
 30
0.0
 42
-0.351796
  0
VERTEX
  8
0
 62
     3
  5
446
 10
2.995976
 20
4.387837
 30
0.0
  0
VERTEX
  8
0
 62
     3
  5
447
 10
3.709984
 20
3.75105
 30
0.0
 42
-0.475541
  0
VERTEX
  8
0
 62
     3
  5
448
 10
3.702621
 20
3.588329
 30
0.0
  0
VERTEX
  8
0
 62
     3
  5
449
 10
3.274639
 20
3.271287
 30
0.0
 42
0.229743
  0
VERTEX
  8
0
 62
     3
  5
44A
 10
3.074554
 20
2.888342
 30
0.0
  0
VERTEX
  8
0
 62
     3
  5
44B
 10
3.059194
 20
2.373432
 30
0.0
 42
0.24359
  0
VERTEX
  8
0
 62
     3
  5
44C
 10
3.37593
 20
1.714311
 30
0.0
  0
VERTEX
  8
0
 62
     3
  5
44D
 10
4.47633
 20
0.886611
 30
0.0
  0
SEQEND
  8
0
 62
     3
  5
44E
  0
POLYLINE
  8
0
 62
     3
  5
44F
 66
     1
 10
0.0
 20
0.0
 30
0.0
  0
VERTEX
  8
0
 62
     3
  5
450
 10
4.494363
 20
0.910586
 30
0.0
  0
VERTEX
  8
0
 62
     3
  5
451
 10
4.489855
 20
0.904592
 30
0.0
  0
VERTEX
  8
0
 62
     3
  5
452
 10
3.389455
 20
1.732292
 30
0.0
 42
-0.243591
  0
VERTEX
  8
0
 62
     3
  5
453
 10
3.081684
 20
2.37276
 30
0.0
  0
VERTEX
  8
0
 62
     3
  5
454
 10
3.097044
 20
2.887671
 30
0.0
 42
-0.229743
  0
VERTEX
  8
0
 62
     3
  5
455
 10
3.288033
 20
3.253209
 30
0.0
  0
VERTEX
  8
0
 62
     3
  5
456
 10
3.716016
 20
3.570251
 30
0.0
 42
0.475547
  0
VERTEX
  8
0
 62
     3
  5
457
 10
3.724959
 20
3.767843
 30
0.0
  0
VERTEX
  8
0
 62
     3
  5
458
 10
3.010952
 20
4.404629
 30
0.0
 42
0.351796
  0
VERTEX
  8
0
 62
     3
  5
459
 10
2.476364
 20
4.432334
 30
0.0
  0
VERTEX
  8
0
 62
     3
  5
45A
 10
1.584895
 20
3.789502
 30
0.0
 42
0.240988
  0
VERTEX
  8
0
 62
     3
  5
45B
 10
1.531987
 20
3.68607
 30
0.0
  0
VERTEX
  8
0
 62
     3
  5
45C
 10
1.531987
 20
3.158408
 30
0.0
  0
VERTEX
  8
0
 62
     3
  5
45D
 10
1.524487
 20
3.158708
 30
0.0
  0
VERTEX
  8
0
 62
     3
  5
45E
 10
1.524487
 20
3.686069
 30
0.0
 42
-0.24099
  0
VERTEX
  8
0
 62
     3
  5
45F
 10
1.580508
 20
3.795584
 30
0.0
  0
VERTEX
  8
0
 62
     3
  5
460
 10
2.471978
 20
4.438417
 30
0.0
 42
-0.351796
  0
VERTEX
  8
0
 62
     3
  5
461
 10
3.015944
 20
4.410227
 30
0.0
  0
VERTEX
  8
0
 62
     3
  5
462
 10
3.72995
 20
3.77344
 30
0.0
 42
-0.475549
  0
VERTEX
  8
0
 62
     3
  5
463
 10
3.720481
 20
3.564225
 30
0.0
  0
VERTEX
  8
0
 62
     3
  5
464
 10
3.292498
 20
3.247183
 30
0.0
 42
0.229743
  0
VERTEX
  8
0
 62
     3
  5
465
 10
3.10454
 20
2.887448
 30
0.0
  0
VERTEX
  8
0
 62
     3
  5
466
 10
3.089181
 20
2.372536
 30
0.0
 42
0.243591
  0
VERTEX
  8
0
 62
     3
  5
467
 10
3.393963
 20
1.738286
 30
0.0
  0
VERTEX
  8
0
 62
     3
  5
468
 10
4.494363
 20
0.910586
 30
0.0
  0
SEQEND
  8
0
 62
     3
  5
469
  0
POLYLINE
  8
0
 62
     3
  5
46A
 66
     1
 10
0.0
 20
0.0
 30
0.0
  0
VERTEX
  8
0
 62
     3
  5
46B
 10
4.50338
 20
0.922574
 30
0.0
  0
VERTEX
  8
0
 62
     3
  5
46C
 10
4.498871
 20
0.91658
 30
0.0
  0
VERTEX
  8
0
 62
     3
  5
46D
 10
3.398471
 20
1.74428
 30
0.0
 42
-0.243591
  0
VERTEX
  8
0
 62
     3
  5
46E
 10
3.096677
 20
2.372312
 30
0.0
  0
VERTEX
  8
0
 62
     3
  5
46F
 10
3.112037
 20
2.887224
 30
0.0
 42
-0.229743
  0
VERTEX
  8
0
 62
     3
  5
470
 10
3.296963
 20
3.241157
 30
0.0
  0
VERTEX
  8
0
 62
     3
  5
471
 10
3.724946
 20
3.558198
 30
0.0
 42
0.47555
  0
VERTEX
  8
0
 62
     3
  5
472
 10
3.734942
 20
3.779038
 30
0.0
  0
VERTEX
  8
0
 62
     3
  5
473
 10
3.020936
 20
4.415824
 30
0.0
 42
0.351796
  0
VERTEX
  8
0
 62
     3
  5
474
 10
2.467591
 20
4.4445
 30
0.0
  0
VERTEX
  8
0
 62
     3
  5
475
 10
1.57612
 20
3.801667
 30
0.0
 42
0.240991
  0
VERTEX
  8
0
 62
     3
  5
476
 10
1.516987
 20
3.686068
 30
0.0
  0
VERTEX
  8
0
 62
     3
  5
477
 10
1.516987
 20
3.158408
 30
0.0
  0
VERTEX
  8
0
 62
     3
  5
478
 10
1.509487
 20
3.158708
 30
0.0
  0
VERTEX
  8
0
 62
     3
  5
479
 10
1.509487
 20
3.686067
 30
0.0
 42
-0.240993
  0
VERTEX
  8
0
 62
     3
  5
47A
 10
1.571733
 20
3.80775
 30
0.0
  0
VERTEX
  8
0
 62
     3
  5
47B
 10
2.463204
 20
4.450584
 30
0.0
 42
-0.351796
  0
VERTEX
  8
0
 62
     3
  5
47C
 10
3.025928
 20
4.421421
 30
0.0
  0
VERTEX
  8
0
 62
     3
  5
47D
 10
3.739757
 20
3.784812
 30
0.0
 42
-0.475552
  0
VERTEX
  8
0
 62
     3
  5
47E
 10
3.72941
 20
3.552172
 30
0.0
  0
VERTEX
  8
0
 62
     3
  5
47F
 10
3.301428
 20
3.235131
 30
0.0
 42
0.229743
  0
VERTEX
  8
0
 62
     3
  5
480
 10
3.119534
 20
2.887
 30
0.0
  0
VERTEX
  8
0
 62
     3
  5
481
 10
3.104324
 20
2.372088
 30
0.0
 42
0.243591
  0
VERTEX
  8
0
 62
     3
  5
482
 10
3.40298
 20
1.750274
 30
0.0
  0
VERTEX
  8
0
 62
     3
  5
483
 10
4.50338
 20
0.922574
 30
0.0
  0
SEQEND
  8
0
 62
     3
  5
484
  0
POLYLINE
  8
0
 62
     3
  5
485
 66
     1
 10
0.0
 20
0.0
 30
0.0
  0
VERTEX
  8
0
 62
     3
  5
486
 10
4.561989
 20
1.000492
 30
0.0
  0
VERTEX
  8
0
 62
     3
  5
487
 10
4.55748
 20
0.994498
 30
0.0
  0
VERTEX
  8
0
 62
     3
  5
488
 10
3.45708
 20
1.822198
 30
0.0
 42
-0.243593
  0
VERTEX
  8
0
 62
     3
  5
489
 10
3.194134
 20
2.3694
 30
0.0
  0
VERTEX
  8
0
 62
     3
  5
48A
 10
3.209494
 20
2.884317
 30
0.0
 42
-0.229743
  0
VERTEX
  8
0
 62
     3
  5
48B
 10
3.355008
 20
3.162817
 30
0.0
  0
VERTEX
  8
0
 62
     3
  5
48C
 10
3.782989
 20
3.479858
 30
0.0
 42
0.475564
  0
VERTEX
  8
0
 62
     3
  5
48D
 10
3.799834
 20
3.851807
 30
0.0
  0
VERTEX
  8
0
 62
     3
  5
48E
 10
3.085831
 20
4.488589
 30
0.0
 42
0.351796
  0
VERTEX
  8
0
 62
     3
  5
48F
 10
2.410562
 20
4.523682
 30
0.0
  0
VERTEX
  8
0
 62
     3
  5
490
 10
1.519085
 20
3.880744
 30
0.0
 42
0.241007
  0
VERTEX
  8
0
 62
     3
  5
491
 10
1.419487
 20
3.686056
 30
0.0
  0
VERTEX
  8
0
 62
     3
  5
492
 10
1.419287
 20
3.158408
 30
0.0
  0
VERTEX
  8
0
 62
     3
  5
493
 10
1.411987
 20
3.158408
 30
0.0
  0
VERTEX
  8
0
 62
     3
  5
494
 10
1.411987
 20
3.686055
 30
0.0
 42
-0.241008
  0
VERTEX
  8
0
 62
     3
  5
495
 10
1.514698
 20
3.886827
 30
0.0
  0
VERTEX
  8
0
 62
     3
  5
496
 10
2.406175
 20
4.529665
 30
0.0
 42
-0.351796
  0
VERTEX
  8
0
 62
     3
  5
497
 10
3.090823
 20
4.494187
 30
0.0
  0
VERTEX
  8
0
 62
     3
  5
498
 10
3.804825
 20
3.857405
 30
0.0
 42
-0.475565
  0
VERTEX
  8
0
 62
     3
  5
499
 10
3.787454
 20
3.473832
 30
0.0
  0
VERTEX
  8
0
 62
     3
  5
49A
 10
3.359473
 20
3.156791
 30
0.0
 42
0.229743
  0
VERTEX
  8
0
 62
     3
  5
49B
 10
3.21699
 20
2.884093
 30
0.0
  0
VERTEX
  8
0
 62
     3
  5
49C
 10
3.201631
 20
2.369176
 30
0.0
 42
0.243593
  0
VERTEX
  8
0
 62
     3
  5
49D
 10
3.461589
 20
1.828192
 30
0.0
  0
VERTEX
  8
0
 62
     3
  5
49E
 10
4.561989
 20
1.000492
 30
0.0
  0
SEQEND
  8
0
 62
     3
  5
49F
  0
POLYLINE
  8
0
 62
     3
  5
4A0
 66
     1
 10
0.0
 20
0.0
 30
0.0
  0
VERTEX
  8
0
 62
     3
  5
4A1
 10
4.571005
 20
1.012479
 30
0.0
  0
VERTEX
  8
0
 62
     3
  5
4A2
 10
4.566497
 20
1.006486
 30
0.0
  0
VERTEX
  8
0
 62
     3
  5
4A3
 10
3.466097
 20
1.834186
 30
0.0
 42
-0.243593
  0
VERTEX
  8
0
 62
     3
  5
4A4
 10
3.209127
 20
2.368952
 30
0.0
  0
VERTEX
  8
0
 62
     3
  5
4A5
 10
3.224487
 20
2.88387
 30
0.0
 42
-0.229743
  0
VERTEX
  8
0
 62
     3
  5
4A6
 10
3.363937
 20
3.150765
 30
0.0
  0
VERTEX
  8
0
 62
     3
  5
4A7
 10
3.791918
 20
3.467805
 30
0.0
 42
0.475565
  0
VERTEX
  8
0
 62
     3
  5
4A8
 10
3.809817
 20
3.863002
 30
0.0
  0
VERTEX
  8
0
 62
     3
  5
4A9
 10
3.095815
 20
4.499784
 30
0.0
 42
0.351796
  0
VERTEX
  8
0
 62
     3
  5
4AA
 10
2.401788
 20
4.535749
 30
0.0
  0
VERTEX
  8
0
 62
     3
  5
4AB
 10
1.51031
 20
3.89291
 30
0.0
 42
0.241008
  0
VERTEX
  8
0
 62
     3
  5
4AC
 10
1.404487
 20
3.686054
 30
0.0
  0
VERTEX
  8
0
 62
     3
  5
4AD
 10
1.404487
 20
3.158408
 30
0.0
  0
VERTEX
  8
0
 62
     3
  5
4AE
 10
1.396987
 20
3.15828
 30
0.0
  0
VERTEX
  8
0
 62
     3
  5
4AF
 10
1.396987
 20
3.686053
 30
0.0
 42
-0.241009
  0
VERTEX
  8
0
 62
     3
  5
4B0
 10
1.505923
 20
3.898993
 30
0.0
  0
VERTEX
  8
0
 62
     3
  5
4B1
 10
2.397401
 20
4.541832
 30
0.0
 42
-0.351796
  0
VERTEX
  8
0
 62
     3
  5
4B2
 10
3.100807
 20
4.505381
 30
0.0
  0
VERTEX
  8
0
 62
     3
  5
4B3
 10
3.814809
 20
3.8686
 30
0.0
 42
-0.475566
  0
VERTEX
  8
0
 62
     3
  5
4B4
 10
3.796383
 20
3.461779
 30
0.0
  0
VERTEX
  8
0
 62
     3
  5
4B5
 10
3.368402
 20
3.144739
 30
0.0
 42
0.229743
  0
VERTEX
  8
0
 62
     3
  5
4B6
 10
3.231984
 20
2.883646
 30
0.0
  0
VERTEX
  8
0
 62
     3
  5
4B7
 10
3.216624
 20
2.368728
 30
0.0
 42
0.243593
  0
VERTEX
  8
0
 62
     3
  5
4B8
 10
3.470605
 20
1.840179
 30
0.0
  0
VERTEX
  8
0
 62
     3
  5
4B9
 10
4.571005
 20
1.012479
 30
0.0
  0
SEQEND
  8
0
 62
     3
  5
4BA
  0
POLYLINE
  8
0
 62
     3
  5
4BB
 66
     1
 10
0.0
 20
0.0
 30
0.0
  0
VERTEX
  8
0
 62
     3
  5
4BC
 10
4.589039
 20
1.036454
 30
0.0
  0
VERTEX
  8
0
 62
     3
  5
4BD
 10
4.58453
 20
1.030461
 30
0.0
  0
VERTEX
  8
0
 62
     3
  5
4BE
 10
3.48413
 20
1.858161
 30
0.0
 42
-0.243594
  0
VERTEX
  8
0
 62
     3
  5
4BF
 10
3.239114
 20
2.368056
 30
0.0
  0
VERTEX
  8
0
 62
     3
  5
4C0
 10
3.254474
 20
2.882975
 30
0.0
 42
-0.229743
  0
VERTEX
  8
0
 62
     3
  5
4C1
 10
3.381797
 20
3.12666
 30
0.0
  0
VERTEX
  8
0
 62
     3
  5
4C2
 10
3.809778
 20
3.4437
 30
0.0
 42
0.475568
  0
VERTEX
  8
0
 62
     3
  5
4C3
 10
3.829784
 20
3.885393
 30
0.0
  0
VERTEX
  8
0
 62
     3
  5
4C4
 10
3.115783
 20
4.522173
 30
0.0
 42
0.351796
  0
VERTEX
  8
0
 62
     3
  5
4C5
 10
2.384241
 20
4.560082
 30
0.0
  0
VERTEX
  8
0
 62
     3
  5
4C6
 10
1.492761
 20
3.917242
 30
0.0
 42
0.241011
  0
VERTEX
  8
0
 62
     3
  5
4C7
 10
1.374487
 20
3.68605
 30
0.0
  0
VERTEX
  8
0
 62
     3
  5
4C8
 10
1.374487
 20
3.158408
 30
0.0
  0
VERTEX
  8
0
 62
     3
  5
4C9
 10
1.366987
 20
3.158408
 30
0.0
  0
VERTEX
  8
0
 62
     3
  5
4CA
 10
1.366987
 20
3.686049
 30
0.0
 42
-0.241012
  0
VERTEX
  8
0
 62
     3
  5
4CB
 10
1.488374
 20
3.923325
 30
0.0
  0
VERTEX
  8
0
 62
     3
  5
4CC
 10
2.379854
 20
4.566165
 30
0.0
 42
-0.351796
  0
VERTEX
  8
0
 62
     3
  5
4CD
 10
3.120775
 20
4.527771
 30
0.0
  0
VERTEX
  8
0
 62
     3
  5
4CE
 10
3.834775
 20
3.89099
 30
0.0
 42
-0.475568
  0
VERTEX
  8
0
 62
     3
  5
4CF
 10
3.814242
 20
3.437674
 30
0.0
  0
VERTEX
  8
0
 62
     3
  5
4D0
 10
3.386262
 20
3.120634
 30
0.0
 42
0.229743
  0
VERTEX
  8
0
 62
     3
  5
4D1
 10
3.26197
 20
2.882752
 30
0.0
  0
VERTEX
  8
0
 62
     3
  5
4D2
 10
3.24661
 20
2.367832
 30
0.0
 42
0.243594
  0
VERTEX
  8
0
 62
     3
  5
4D3
 10
3.488639
 20
1.864154
 30
0.0
  0
VERTEX
  8
0
 62
     3
  5
4D4
 10
4.589039
 20
1.036454
 30
0.0
  0
SEQEND
  8
0
 62
     3
  5
4D5
  0
POLYLINE
  8
0
 62
     3
  5
4D6
 66
     1
 10
0.0
 20
0.0
 30
0.0
  0
VERTEX
  8
0
 62
     3
  5
4D7
 10
4.616089
 20
1.072417
 30
0.0
  0
VERTEX
  8
0
 62
     3
  5
4D8
 10
4.611581
 20
1.066423
 30
0.0
  0
VERTEX
  8
0
 62
     3
  5
4D9
 10
3.511181
 20
1.894122
 30
0.0
 42
-0.243594
  0
VERTEX
  8
0
 62
     3
  5
4DA
 10
3.284094
 20
2.36671
 30
0.0
  0
VERTEX
  8
0
 62
     3
  5
4DB
 10
3.299454
 20
2.881633
 30
0.0
 42
-0.229741
  0
VERTEX
  8
0
 62
     3
  5
4DC
 10
3.408586
 20
3.090503
 30
0.0
  0
VERTEX
  8
0
 62
     3
  5
4DD
 10
3.836565
 20
3.407542
 30
0.0
 42
0.475568
  0
VERTEX
  8
0
 62
     3
  5
4DE
 10
3.859734
 20
3.918978
 30
0.0
  0
VERTEX
  8
0
 62
     3
  5
4DF
 10
3.145735
 20
4.555757
 30
0.0
 42
0.351795
  0
VERTEX
  8
0
 62
     3
  5
4E0
 10
2.35792
 20
4.596581
 30
0.0
  0
VERTEX
  8
0
 62
     3
  5
4E1
 10
1.46644
 20
3.953741
 30
0.0
 42
0.241011
  0
VERTEX
  8
0
 62
     3
  5
4E2
 10
1.329487
 20
3.686046
 30
0.0
  0
VERTEX
  8
0
 62
     3
  5
4E3
 10
1.329487
 20
3.158408
 30
0.0
  0
VERTEX
  8
0
 62
     3
  5
4E4
 10
1.321987
 20
3.158408
 30
0.0
  0
VERTEX
  8
0
 62
     3
  5
4E5
 10
1.321987
 20
3.686046
 30
0.0
 42
-0.24101
  0
VERTEX
  8
0
 62
     3
  5
4E6
 10
1.462054
 20
3.959825
 30
0.0
  0
VERTEX
  8
0
 62
     3
  5
4E7
 10
2.353533
 20
4.602664
 30
0.0
 42
-0.351795
  0
VERTEX
  8
0
 62
     3
  5
4E8
 10
3.150727
 20
4.561354
 30
0.0
  0
VERTEX
  8
0
 62
     3
  5
4E9
 10
3.864726
 20
3.924575
 30
0.0
 42
-0.475568
  0
VERTEX
  8
0
 62
     3
  5
4EA
 10
3.841029
 20
3.401515
 30
0.0
  0
VERTEX
  8
0
 62
     3
  5
4EB
 10
3.41305
 20
3.084476
 30
0.0
 42
0.229741
  0
VERTEX
  8
0
 62
     3
  5
4EC
 10
3.30695
 20
2.88141
 30
0.0
  0
VERTEX
  8
0
 62
     3
  5
4ED
 10
3.29159
 20
2.366485
 30
0.0
 42
0.243594
  0
VERTEX
  8
0
 62
     3
  5
4EE
 10
3.51569
 20
1.900116
 30
0.0
  0
VERTEX
  8
0
 62
     3
  5
4EF
 10
4.616089
 20
1.072417
 30
0.0
  0
SEQEND
  8
0
 62
     3
  5
4F0
  0
POLYLINE
  8
0
 62
     3
  5
4F1
 66
     1
 10
0.0
 20
0.0
 30
0.0
  0
VERTEX
  8
0
 62
     3
  5
4F2
 10
4.625106
 20
1.084404
 30
0.0
  0
VERTEX
  8
0
 62
     3
  5
4F3
 10
4.620597
 20
1.07841
 30
0.0
  0
VERTEX
  8
0
 62
     3
  5
4F4
 10
3.520199
 20
1.906109
 30
0.0
 42
-0.243594
  0
VERTEX
  8
0
 62
     3
  5
4F5
 10
3.299087
 20
2.366261
 30
0.0
  0
VERTEX
  8
0
 62
     3
  5
4F6
 10
3.314447
 20
2.881186
 30
0.0
 42
-0.229741
  0
VERTEX
  8
0
 62
     3
  5
4F7
 10
3.417515
 20
3.07845
 30
0.0
  0
VERTEX
  8
0
 62
     3
  5
4F8
 10
3.845493
 20
3.395489
 30
0.0
 42
0.475567
  0
VERTEX
  8
0
 62
     3
  5
4F9
 10
3.869718
 20
3.930173
 30
0.0
  0
VERTEX
  8
0
 62
     3
  5
4FA
 10
3.155719
 20
4.566952
 30
0.0
 42
0.351795
  0
VERTEX
  8
0
 62
     3
  5
4FB
 10
2.349147
 20
4.608748
 30
0.0
  0
VERTEX
  8
0
 62
     3
  5
4FC
 10
1.457667
 20
3.965908
 30
0.0
 42
0.24101
  0
VERTEX
  8
0
 62
     3
  5
4FD
 10
1.314487
 20
3.686045
 30
0.0
  0
VERTEX
  8
0
 62
     3
  5
4FE
 10
1.314287
 20
3.158408
 30
0.0
  0
VERTEX
  8
0
 62
     3
  5
4FF
 10
1.306987
 20
3.158108
 30
0.0
  0
VERTEX
  8
0
 62
     3
  5
500
 10
1.306987
 20
3.686045
 30
0.0
 42
-0.24101
  0
VERTEX
  8
0
 62
     3
  5
501
 10
1.45328
 20
3.971991
 30
0.0
  0
VERTEX
  8
0
 62
     3
  5
502
 10
2.34476
 20
4.614831
 30
0.0
 42
-0.351795
  0
VERTEX
  8
0
 62
     3
  5
503
 10
3.160711
 20
4.572549
 30
0.0
  0
VERTEX
  8
0
 62
     3
  5
504
 10
3.87471
 20
3.93577
 30
0.0
 42
-0.475567
  0
VERTEX
  8
0
 62
     3
  5
505
 10
3.849958
 20
3.389462
 30
0.0
  0
VERTEX
  8
0
 62
     3
  5
506
 10
3.42198
 20
3.072424
 30
0.0
 42
0.22974
  0
VERTEX
  8
0
 62
     3
  5
507
 10
3.321944
 20
2.880963
 30
0.0
  0
VERTEX
  8
0
 62
     3
  5
508
 10
3.306584
 20
2.366036
 30
0.0
 42
0.243593
  0
VERTEX
  8
0
 62
     3
  5
509
 10
3.524707
 20
1.912103
 30
0.0
  0
VERTEX
  8
0
 62
     3
  5
50A
 10
4.625106
 20
1.084404
 30
0.0
  0
SEQEND
  8
0
 62
     3
  5
50B
  0
POLYLINE
  8
0
 62
     3
  5
50C
 66
     1
 10
0.0
 20
0.0
 30
0.0
  0
VERTEX
  8
0
 62
     3
  5
50D
 10
4.634122
 20
1.096391
 30
0.0
  0
VERTEX
  8
0
 62
     3
  5
50E
 10
4.629614
 20
1.090398
 30
0.0
  0
VERTEX
  8
0
 62
     3
  5
50F
 10
3.529216
 20
1.918096
 30
0.0
 42
-0.243593
  0
VERTEX
  8
0
 62
     3
  5
510
 10
3.31408
 20
2.365812
 30
0.0
  0
VERTEX
  8
0
 62
     3
  5
511
 10
3.32944
 20
2.880739
 30
0.0
 42
-0.22974
  0
VERTEX
  8
0
 62
     3
  5
512
 10
3.426444
 20
3.066397
 30
0.0
  0
VERTEX
  8
0
 62
     3
  5
513
 10
3.854422
 20
3.383435
 30
0.0
 42
0.475567
  0
VERTEX
  8
0
 62
     3
  5
514
 10
3.879702
 20
3.941368
 30
0.0
  0
VERTEX
  8
0
 62
     3
  5
515
 10
3.165703
 20
4.578146
 30
0.0
 42
0.351795
  0
VERTEX
  8
0
 62
     3
  5
516
 10
2.340373
 20
4.620914
 30
0.0
  0
VERTEX
  8
0
 62
     3
  5
517
 10
1.448894
 20
3.978075
 30
0.0
 42
0.24101
  0
VERTEX
  8
0
 62
     3
  5
518
 10
1.299487
 20
3.686044
 30
0.0
  0
VERTEX
  8
0
 62
     3
  5
519
 10
1.299487
 20
3.158408
 30
0.0
  0
VERTEX
  8
0
 62
     3
  5
51A
 10
1.291987
 20
3.158408
 30
0.0
  0
VERTEX
  8
0
 62
     3
  5
51B
 10
1.291987
 20
3.686044
 30
0.0
 42
-0.241009
  0
VERTEX
  8
0
 62
     3
  5
51C
 10
1.444507
 20
3.984158
 30
0.0
  0
VERTEX
  8
0
 62
     3
  5
51D
 10
2.335986
 20
4.626998
 30
0.0
 42
-0.351795
  0
VERTEX
  8
0
 62
     3
  5
51E
 10
3.170696
 20
4.583743
 30
0.0
  0
VERTEX
  8
0
 62
     3
  5
51F
 10
3.884694
 20
3.946965
 30
0.0
 42
-0.475567
  0
VERTEX
  8
0
 62
     3
  5
520
 10
3.858886
 20
3.377409
 30
0.0
  0
VERTEX
  8
0
 62
     3
  5
521
 10
3.430909
 20
3.060371
 30
0.0
 42
0.229739
  0
VERTEX
  8
0
 62
     3
  5
522
 10
3.336937
 20
2.880515
 30
0.0
  0
VERTEX
  8
0
 62
     3
  5
523
 10
3.321727
 20
2.365587
 30
0.0
 42
0.243593
  0
VERTEX
  8
0
 62
     3
  5
524
 10
3.533724
 20
1.92409
 30
0.0
  0
VERTEX
  8
0
 62
     3
  5
525
 10
4.634122
 20
1.096391
 30
0.0
  0
SEQEND
  8
0
 62
     3
  5
526
  0
POLYLINE
  8
0
 62
     3
  5
527
 66
     1
 10
0.0
 20
0.0
 30
0.0
  0
VERTEX
  8
0
 62
     3
  5
528
 10
4.643139
 20
1.108379
 30
0.0
  0
VERTEX
  8
0
 62
     3
  5
529
 10
4.638631
 20
1.102385
 30
0.0
  0
VERTEX
  8
0
 62
     3
  5
52A
 10
3.538233
 20
1.930083
 30
0.0
 42
-0.243593
  0
VERTEX
  8
0
 62
     3
  5
52B
 10
3.329073
 20
2.365363
 30
0.0
  0
VERTEX
  8
0
 62
     3
  5
52C
 10
3.344434
 20
2.880292
 30
0.0
 42
-0.229739
  0
VERTEX
  8
0
 62
     3
  5
52D
 10
3.435374
 20
3.054345
 30
0.0
  0
VERTEX
  8
0
 62
     3
  5
52E
 10
3.863351
 20
3.371382
 30
0.0
 42
0.475567
  0
VERTEX
  8
0
 62
     3
  5
52F
 10
3.889686
 20
3.952562
 30
0.0
  0
VERTEX
  8
0
 62
     3
  5
530
 10
3.175688
 20
4.589341
 30
0.0
 42
0.351795
  0
VERTEX
  8
0
 62
     3
  5
531
 10
2.3316
 20
4.633081
 30
0.0
  0
VERTEX
  8
0
 62
     3
  5
532
 10
1.44012
 20
3.990241
 30
0.0
 42
0.241009
  0
VERTEX
  8
0
 62
     3
  5
533
 10
1.284487
 20
3.686044
 30
0.0
  0
VERTEX
  8
0
 62
     3
  5
534
 10
1.284487
 20
3.158408
 30
0.0
  0
VERTEX
  8
0
 62
     3
  5
535
 10
1.276987
 20
3.158408
 30
0.0
  0
VERTEX
  8
0
 62
     3
  5
536
 10
1.276787
 20
3.686043
 30
0.0
 42
-0.241009
  0
VERTEX
  8
0
 62
     3
  5
537
 10
1.435734
 20
3.996325
 30
0.0
  0
VERTEX
  8
0
 62
     3
  5
538
 10
2.327213
 20
4.639164
 30
0.0
 42
-0.351795
  0
VERTEX
  8
0
 62
     3
  5
539
 10
3.18068
 20
4.594938
 30
0.0
  0
VERTEX
  8
0
 62
     3
  5
53A
 10
3.894677
 20
3.95816
 30
0.0
 42
-0.475567
  0
VERTEX
  8
0
 62
     3
  5
53B
 10
3.867815
 20
3.365356
 30
0.0
  0
VERTEX
  8
0
 62
     3
  5
53C
 10
3.439838
 20
3.048318
 30
0.0
 42
0.229738
  0
VERTEX
  8
0
 62
     3
  5
53D
 10
3.35193
 20
2.880068
 30
0.0
  0
VERTEX
  8
0
 62
     3
  5
53E
 10
3.33657
 20
2.365138
 30
0.0
 42
0.243593
  0
VERTEX
  8
0
 62
     3
  5
53F
 10
3.542742
 20
1.936077
 30
0.0
  0
VERTEX
  8
0
 62
     3
  5
540
 10
4.643139
 20
1.108379
 30
0.0
  0
SEQEND
  8
0
 62
     3
  5
541
  0
POLYLINE
  8
0
 62
     3
  5
542
 66
     1
 10
0.0
 20
0.0
 30
0.0
  0
VERTEX
  8
0
 62
     3
  5
543
 10
3.377332
 20
3.132686
 30
0.0
 42
0.229743
  0
VERTEX
  8
0
 62
     3
  5
544
 10
3.246977
 20
2.883199
 30
0.0
  0
VERTEX
  8
0
 62
     3
  5
545
 10
3.231617
 20
2.36828
 30
0.0
 42
0.243594
  0
VERTEX
  8
0
 62
     3
  5
546
 10
3.479622
 20
1.852167
 30
0.0
  0
VERTEX
  8
0
 62
     3
  5
547
 10
4.580022
 20
1.024467
 30
0.0
  0
VERTEX
  8
0
 62
     3
  5
548
 10
4.575514
 20
1.018473
 30
0.0
  0
VERTEX
  8
0
 62
     3
  5
549
 10
3.475114
 20
1.846173
 30
0.0
 42
-0.243594
  0
VERTEX
  8
0
 62
     3
  5
54A
 10
3.22412
 20
2.368504
 30
0.0
  0
VERTEX
  8
0
 62
     3
  5
54B
 10
3.23948
 20
2.883422
 30
0.0
 42
-0.229743
  0
VERTEX
  8
0
 62
     3
  5
54C
 10
3.372867
 20
3.138713
 30
0.0
  0
VERTEX
  8
0
 62
     3
  5
54D
 10
3.800848
 20
3.455753
 30
0.0
 42
0.475566
  0
VERTEX
  8
0
 62
     3
  5
54E
 10
3.8198
 20
3.874197
 30
0.0
  0
VERTEX
  8
0
 62
     3
  5
54F
 10
3.105799
 20
4.510979
 30
0.0
 42
0.351796
  0
VERTEX
  8
0
 62
     3
  5
550
 10
2.393014
 20
4.547915
 30
0.0
  0
VERTEX
  8
0
 62
     3
  5
551
 10
1.501536
 20
3.905076
 30
0.0
 42
0.24101
  0
VERTEX
  8
0
 62
     3
  5
552
 10
1.389487
 20
3.686052
 30
0.0
  0
VERTEX
  8
0
 62
     3
  5
553
 10
1.389487
 20
3.158408
 30
0.0
  0
VERTEX
  8
0
 62
     3
  5
554
 10
1.381987
 20
3.158408
 30
0.0
  0
VERTEX
  8
0
 62
     3
  5
555
 10
1.381987
 20
3.686051
 30
0.0
 42
-0.241011
  0
VERTEX
  8
0
 62
     3
  5
556
 10
1.497149
 20
3.911159
 30
0.0
  0
VERTEX
  8
0
 62
     3
  5
557
 10
2.388628
 20
4.553998
 30
0.0
 42
-0.351796
  0
VERTEX
  8
0
 62
     3
  5
558
 10
3.110791
 20
4.516576
 30
0.0
  0
VERTEX
  8
0
 62
     3
  5
559
 10
3.824792
 20
3.879795
 30
0.0
 42
-0.475567
  0
VERTEX
  8
0
 62
     3
  5
55A
 10
3.805313
 20
3.449727
 30
0.0
  0
VERTEX
  8
0
 62
     3
  5
55B
 10
3.377332
 20
3.132686
 30
0.0
  0
SEQEND
  8
0
 62
     3
  5
55C
  0
POLYLINE
  8
0
 62
     3
  5
55D
 66
     1
 10
0.0
 20
0.0
 30
0.0
  0
VERTEX
  8
0
 62
     3
  5
55E
 10
2.362307
 20
4.590498
 30
0.0
  0
VERTEX
  8
0
 62
     3
  5
55F
 10
1.470827
 20
3.947658
 30
0.0
 42
0.241011
  0
VERTEX
  8
0
 62
     3
  5
560
 10
1.336987
 20
3.686047
 30
0.0
  0
VERTEX
  8
0
 62
     3
  5
561
 10
1.336987
 20
3.158408
 30
0.0
  0
VERTEX
  8
0
 62
     3
  5
562
 10
1.344487
 20
3.158408
 30
0.0
  0
VERTEX
  8
0
 62
     3
  5
563
 10
1.344487
 20
3.686047
 30
0.0
 42
-0.241012
  0
VERTEX
  8
0
 62
     3
  5
564
 10
1.475214
 20
3.941575
 30
0.0
  0
VERTEX
  8
0
 62
     3
  5
565
 10
2.366694
 20
4.584415
 30
0.0
 42
-0.351795
  0
VERTEX
  8
0
 62
     3
  5
566
 10
3.135751
 20
4.544562
 30
0.0
  0
VERTEX
  8
0
 62
     3
  5
567
 10
3.849751
 20
3.907783
 30
0.0
 42
-0.475568
  0
VERTEX
  8
0
 62
     3
  5
568
 10
3.827636
 20
3.419595
 30
0.0
  0
VERTEX
  8
0
 62
     3
  5
569
 10
3.399656
 20
3.102555
 30
0.0
 42
0.238299
  0
VERTEX
  8
0
 62
     3
  5
56A
 10
3.284335
 20
2.872834
 30
0.0
  0
VERTEX
  8
0
 62
     3
  5
56B
 10
3.26925
 20
2.367159
 30
0.0
 42
0.243594
  0
VERTEX
  8
0
 62
     3
  5
56C
 10
3.502164
 20
1.882135
 30
0.0
  0
VERTEX
  8
0
 62
     3
  5
56D
 10
4.602564
 20
1.054435
 30
0.0
  0
VERTEX
  8
0
 62
     3
  5
56E
 10
4.607072
 20
1.060429
 30
0.0
  0
VERTEX
  8
0
 62
     3
  5
56F
 10
3.506673
 20
1.888129
 30
0.0
 42
-0.243594
  0
VERTEX
  8
0
 62
     3
  5
570
 10
3.276597
 20
2.366934
 30
0.0
  0
VERTEX
  8
0
 62
     3
  5
571
 10
3.291957
 20
2.881857
 30
0.0
 42
-0.229742
  0
VERTEX
  8
0
 62
     3
  5
572
 10
3.404121
 20
3.096529
 30
0.0
  0
VERTEX
  8
0
 62
     3
  5
573
 10
3.8321
 20
3.413568
 30
0.0
 42
0.475568
  0
VERTEX
  8
0
 62
     3
  5
574
 10
3.854743
 20
3.91338
 30
0.0
  0
VERTEX
  8
0
 62
     3
  5
575
 10
3.140743
 20
4.55016
 30
0.0
 42
0.351795
  0
VERTEX
  8
0
 62
     3
  5
576
 10
2.362307
 20
4.590498
 30
0.0
  0
SEQEND
  8
0
 62
     3
  5
577
  0
POLYLINE
  8
0
 62
     3
  5
578
 66
     1
 10
0.0
 20
0.0
 30
0.0
  0
VERTEX
  8
0
 62
     3
  5
579
 10
3.421013
 20
1.774248
 30
0.0
  0
VERTEX
  8
0
 62
     3
  5
57A
 10
4.521413
 20
0.946548
 30
0.0
  0
VERTEX
  8
0
 62
     3
  5
57B
 10
4.516905
 20
0.940555
 30
0.0
  0
VERTEX
  8
0
 62
     3
  5
57C
 10
3.416505
 20
1.768255
 30
0.0
 42
-0.243592
  0
VERTEX
  8
0
 62
     3
  5
57D
 10
3.126664
 20
2.371416
 30
0.0
  0
VERTEX
  8
0
 62
     3
  5
57E
 10
3.141836
 20
2.875006
 30
0.0
 42
-0.236727
  0
VERTEX
  8
0
 62
     3
  5
57F
 10
3.314823
 20
3.217052
 30
0.0
  0
VERTEX
  8
0
 62
     3
  5
580
 10
3.742805
 20
3.534094
 30
0.0
 42
0.475556
  0
VERTEX
  8
0
 62
     3
  5
581
 10
3.754909
 20
3.801428
 30
0.0
  0
VERTEX
  8
0
 62
     3
  5
582
 10
3.040903
 20
4.438213
 30
0.0
 42
0.351796
  0
VERTEX
  8
0
 62
     3
  5
583
 10
2.450043
 20
4.468833
 30
0.0
  0
VERTEX
  8
0
 62
     3
  5
584
 10
1.558571
 20
3.825998
 30
0.0
 42
0.240998
  0
VERTEX
  8
0
 62
     3
  5
585
 10
1.486987
 20
3.686064
 30
0.0
  0
VERTEX
  8
0
 62
     3
  5
586
 10
1.486787
 20
3.158408
 30
0.0
  0
VERTEX
  8
0
 62
     3
  5
587
 10
1.479487
 20
3.158408
 30
0.0
  0
VERTEX
  8
0
 62
     3
  5
588
 10
1.479487
 20
3.686063
 30
0.0
 42
-0.240999
  0
VERTEX
  8
0
 62
     3
  5
589
 10
1.554183
 20
3.832081
 30
0.0
  0
VERTEX
  8
0
 62
     3
  5
58A
 10
2.445657
 20
4.474916
 30
0.0
 42
-0.351796
  0
VERTEX
  8
0
 62
     3
  5
58B
 10
3.045895
 20
4.443811
 30
0.0
  0
VERTEX
  8
0
 62
     3
  5
58C
 10
3.759724
 20
3.807203
 30
0.0
 42
-0.48242
  0
VERTEX
  8
0
 62
     3
  5
58D
 10
3.744015
 20
3.525711
 30
0.0
  0
VERTEX
  8
0
 62
     3
  5
58E
 10
3.3195
 20
3.211238
 30
0.0
 42
0.229743
  0
VERTEX
  8
0
 62
     3
  5
58F
 10
3.14952
 20
2.886106
 30
0.0
  0
VERTEX
  8
0
 62
     3
  5
590
 10
3.134161
 20
2.371192
 30
0.0
 42
0.243592
  0
VERTEX
  8
0
 62
     3
  5
591
 10
3.421013
 20
1.774248
 30
0.0
  0
SEQEND
  8
0
 62
     3
  5
592
  0
POLYLINE
  8
0
 62
     3
  5
593
 66
     1
 10
0.0
 20
0.0
 30
0.0
  0
VERTEX
  8
0
 62
     3
  5
594
 10
3.384946
 20
1.726299
 30
0.0
  0
VERTEX
  8
0
 62
     3
  5
595
 10
4.485346
 20
0.898599
 30
0.0
  0
VERTEX
  8
0
 62
     3
  5
596
 10
4.480838
 20
0.892605
 30
0.0
  0
VERTEX
  8
0
 62
     3
  5
597
 10
3.380438
 20
1.720305
 30
0.0
 42
-0.243591
  0
VERTEX
  8
0
 62
     3
  5
598
 10
3.066691
 20
2.373208
 30
0.0
  0
VERTEX
  8
0
 62
     3
  5
599
 10
3.08205
 20
2.888119
 30
0.0
 42
-0.229743
  0
VERTEX
  8
0
 62
     3
  5
59A
 10
3.279104
 20
3.265261
 30
0.0
  0
VERTEX
  8
0
 62
     3
  5
59B
 10
3.707086
 20
3.582303
 30
0.0
 42
0.475543
  0
VERTEX
  8
0
 62
     3
  5
59C
 10
3.714976
 20
3.756648
 30
0.0
  0
VERTEX
  8
0
 62
     3
  5
59D
 10
3.000968
 20
4.393435
 30
0.0
 42
0.351796
  0
VERTEX
  8
0
 62
     3
  5
59E
 10
2.485138
 20
4.420167
 30
0.0
  0
VERTEX
  8
0
 62
     3
  5
59F
 10
1.59367
 20
3.777336
 30
0.0
 42
0.240983
  0
VERTEX
  8
0
 62
     3
  5
5A0
 10
1.546987
 20
3.686072
 30
0.0
  0
VERTEX
  8
0
 62
     3
  5
5A1
 10
1.546987
 20
3.158408
 30
0.0
  0
VERTEX
  8
0
 62
     3
  5
5A2
 10
1.539487
 20
3.158708
 30
0.0
  0
VERTEX
  8
0
 62
     3
  5
5A3
 10
1.539487
 20
3.686071
 30
0.0
 42
-0.240985
  0
VERTEX
  8
0
 62
     3
  5
5A4
 10
1.589283
 20
3.783419
 30
0.0
  0
VERTEX
  8
0
 62
     3
  5
5A5
 10
2.480751
 20
4.425251
 30
0.0
 42
-0.351796
  0
VERTEX
  8
0
 62
     3
  5
5A6
 10
3.00596
 20
4.398032
 30
0.0
  0
VERTEX
  8
0
 62
     3
  5
5A7
 10
3.71979
 20
3.762422
 30
0.0
 42
-0.475545
  0
VERTEX
  8
0
 62
     3
  5
5A8
 10
3.711551
 20
3.576277
 30
0.0
  0
VERTEX
  8
0
 62
     3
  5
5A9
 10
3.283569
 20
3.259235
 30
0.0
 42
0.229743
  0
VERTEX
  8
0
 62
     3
  5
5AA
 10
3.089547
 20
2.887895
 30
0.0
  0
VERTEX
  8
0
 62
     3
  5
5AB
 10
3.074187
 20
2.372984
 30
0.0
 42
0.243591
  0
VERTEX
  8
0
 62
     3
  5
5AC
 10
3.384946
 20
1.726299
 30
0.0
  0
SEQEND
  8
0
 62
     3
  5
5AD
  0
TEXT
  8
0
  5
5AE
 10
0.38726
 20
0.794578
 30
0.0
 40
0.1
  1
FINALLY: 
  0
TEXT
  8
0
  5
5AF
 10
0.38726
 20
0.627911
 30
0.0
 40
0.1
  1
Since all remaining errors have been located by Polyline PRO, it is 
  0
TEXT
  8
0
  5
5B0
 10
0.38726
 20
0.461244
 30
0.0
 40
0.1
  1
time to fix them using commands such as fillet (radius 0), and many 
  0
TEXT
  8
0
  5
5B1
 10
0.38726
 20
0.294578
 30
0.0
 40
0.1
  1
other fast editing techniques that are explained the Polyline PRO
  0
TEXT
  8
0
  5
5B2
 10
0.38726
 20
0.127911
 30
0.0
 40
0.1
  1
instruction manual (under HELPFUL HINTS).
  0
TEXT
  8
0
  5
5B3
 10
0.38726
 20
-0.086271
 30
0.0
 40
0.1
  1
ESTIMATE JOB TIME with Polyline PRO: Under 5 minutes!
  0
LINE
  8
0
  5
5B4
 10
-2.153294
 20
5.039334
 30
0.0
 11
8.421761
 21
5.039334
 31
0.0
  0
LINE
  8
0
  5
5B5
 10
8.421761
 20
5.039334
 30
0.0
 11
8.421761
 21
11.735525
 31
0.0
  0
LINE
  8
0
  5
5B6
 10
8.421761
 20
11.735525
 30
0.0
 11
-2.153294
 21
11.735525
 31
0.0
  0
LINE
  8
0
  5
5B7
 10
-2.153294
 20
11.735525
 30
0.0
 11
-2.153294
 21
5.039334
 31
0.0
  0
LINE
  8
0
  5
5B8
 10
-2.153294
 20
5.039334
 30
0.0
 11
-2.153294
 21
-0.323966
 31
0.0
  0
LINE
  8
0
  5
5B9
 10
-2.153294
 20
-0.323966
 30
0.0
 11
8.421761
 21
-0.323966
 31
0.0
  0
LINE
  8
0
  5
5BA
 10
8.421761
 20
-0.323966
 30
0.0
 11
8.421761
 21
5.039334
 31
0.0
  0
LINE
  8
0
  5
5BB
 10
3.134233
 20
5.039334
 30
0.0
 11
3.134233
 21
11.735525
 31
0.0
  0
TEXT
  8
0
  5
5BC
 10
2.197404
 20
10.942138
 30
0.0
 40
0.4
  1
1
  0
CIRCLE
  8
0
  5
5BD
 10
2.260918
 20
11.132551
 30
0.0
 40
0.342001
  0
CIRCLE
  8
0
  5
5BE
 10
7.754866
 20
11.227757
 30
0.0
 40
0.342001
  0
TEXT
  8
0
  5
5BF
 10
7.627838
 20
11.037344
 30
0.0
 40
0.4
  1
2
  0
TEXT
  8
0
  5
5C0
 10
-1.613427
 20
4.245946
 30
0.0
 40
0.4
  1
3
  0
CIRCLE
  8
0
  5
5C1
 10
-1.486399
 20
4.436359
 30
0.0
 40
0.342001
  0
CIRCLE
  8
ERRORS
  5
5C2
 10
5.999207
 20
9.033656
 30
0.0
 40
0.015
  0
CIRCLE
  8
ERRORS
  5
5C3
 10
5.999688
 20
11.045625
 30
0.0
 40
0.015
  0
CIRCLE
  8
ERRORS
  5
5C4
 10
5.999688
 20
11.045625
 30
0.0
 40
0.015
  0
CIRCLE
  8
ERRORS
  5
5C5
 10
5.70593
 20
11.065427
 30
0.0
 40
0.015
  0
CIRCLE
  8
ERRORS
  5
5C6
 10
5.180721
 20
11.092645
 30
0.0
 40
0.015
  0
CIRCLE
  8
ERRORS
  5
5C7
 10
5.705753
 20
11.066603
 30
0.0
 40
0.015
  0
CIRCLE
  8
ERRORS
  5
5C8
 10
5.180721
 20
11.093645
 30
0.0
 40
0.015
  0
CIRCLE
  8
ERRORS
  5
5C9
 10
6.44724
 20
10.195462
 30
0.0
 40
0.015
  0
CIRCLE
  8
ERRORS
  5
5CA
 10
5.841994
 20
9.553724
 30
0.0
 40
0.015
  0
CIRCLE
  8
ERRORS
  5
5CB
 10
6.447452
 20
10.195674
 30
0.0
 40
0.015
  0
CIRCLE
  8
ERRORS
  5
5CC
 10
5.842144
 20
9.553724
 30
0.0
 40
0.015
  0
CIRCLE
  8
ERRORS
  5
5CD
 10
5.946947
 20
9.550593
 30
0.0
 40
0.015
  0
CIRCLE
  8
ERRORS
  5
5CE
 10
6.077302
 20
9.800081
 30
0.0
 40
0.015
  0
CIRCLE
  8
ERRORS
  5
5CF
 10
4.170797
 20
10.615053
 30
0.0
 40
0.015
  0
CIRCLE
  8
ERRORS
  5
5D0
 10
5.984431
 20
9.549475
 30
0.0
 40
0.015
  0
CIRCLE
  8
ERRORS
  5
5D1
 10
5.062277
 20
11.257892
 30
0.0
 40
0.015
  0
CIRCLE
  8
ERRORS
  5
5D2
 10
5.984581
 20
9.549475
 30
0.0
 40
0.015
  0
TEXT
  8
0
  5
5D3
 10
5.34003
 20
6.185193
 30
0.0
 40
0.1
  1
(RED CIRCLES)
  0
LINE
  8
0
  5
5D4
 10
-2.153294
 20
-0.323966
 30
0.0
 11
-12.511429
 21
-0.323966
 31
0.0
  0
LINE
  8
0
  5
5D5
 10
-12.511429
 20
-0.323966
 30
0.0
 11
-12.511429
 21
11.735525
 31
0.0
  0
LINE
  8
0
  5
5D6
 10
-2.153294
 20
11.735525
 30
0.0
 11
-12.511429
 21
11.735525
 31
0.0
  0
TEXT
  8
0
  5
5D8
 10
-6.225233
 20
5.652421
 30
0.0
 40
0.034
  1
  EXIT
 41
0.75
  0
TEXT
  8
0
  5
5D9
 10
-6.214913
 20
5.827635
 30
0.0
 40
0.034
  1
B_CLEAN
 41
0.75
  0
TEXT
  8
0
  5
5DA
 10
-6.225233
 20
5.884302
 30
0.0
 40
0.034
  1
 PL_CHK
 41
0.75
  0
TEXT
  8
0
  5
5DB
 10
-6.225233
 20
5.940968
 30
0.0
 40
0.034
  1
ERR_FIND
 41
0.75
  0
TEXT
  8
0
  5
5DC
 10
-6.225233
 20
5.997635
 30
0.0
 40
0.034
  1
 PL-PRO
 41
0.75
  0
TEXT
  8
0
  5
5DD
 10
-6.225233
 20
6.135721
 30
0.0
 40
0.034
  1
 -----
 41
0.75
  0
TEXT
  8
0
  5
5DE
 10
-6.225233
 20
6.167635
 30
0.0
 40
0.034
  1
 -ICD-
 41
0.75
  0
TEXT
  8
0
  5
5DF
 10
-6.225233
 20
6.201612
 30
0.0
 40
0.034
  1
 -----
 41
0.75
  0
LINE
  8
0
  5
5E0
 10
-8.638657
 20
5.006214
 30
0.0
 11
-6.019136
 21
5.006214
 31
0.0
  0
LINE
  8
0
  5
5E1
 10
-6.24295
 20
6.715359
 30
0.0
 11
-6.24295
 21
5.006214
 31
0.0
  0
LINE
  8
0
  5
5E2
 10
-6.019136
 20
4.703618
 30
0.0
 11
-8.638657
 21
4.703618
 31
0.0
  0
LINE
  8
0
  5
5E3
 10
-6.019136
 20
6.715359
 30
0.0
 11
-6.019136
 21
4.703618
 31
0.0
  0
LINE
  8
0
  5
5E4
 10
-8.638657
 20
6.715359
 30
0.0
 11
-6.019136
 21
6.715359
 31
0.0
  0
LINE
  8
0
  5
5E5
 10
-8.638657
 20
4.703618
 30
0.0
 11
-8.638657
 21
6.715359
 31
0.0
  0
TEXT
  8
0
  5
5E7
 10
-3.225233
 20
5.652421
 30
0.0
 40
0.034
  1
  EXIT
 41
0.75
  0
TEXT
  8
0
  5
5E8
 10
-3.214913
 20
5.827635
 30
0.0
 40
0.034
  1
B_CLEAN
 41
0.75
  0
TEXT
  8
0
  5
5E9
 10
-3.225233
 20
5.884302
 30
0.0
 40
0.034
  1
 PL_CHK
 41
0.75
  0
TEXT
  8
0
  5
5EA
 10
-3.225233
 20
5.940968
 30
0.0
 40
0.034
  1
ERR_FIND
 41
0.75
  0
TEXT
  8
0
  5
5EB
 10
-3.225233
 20
5.997635
 30
0.0
 40
0.034
  1
 PL-PRO
 41
0.75
  0
TEXT
  8
0
  5
5EC
 10
-3.225233
 20
6.135721
 30
0.0
 40
0.034
  1
 -----
 41
0.75
  0
TEXT
  8
0
  5
5ED
 10
-3.225233
 20
6.167635
 30
0.0
 40
0.034
  1
 -ICD-
 41
0.75
  0
TEXT
  8
0
  5
5EE
 10
-3.225233
 20
6.201612
 30
0.0
 40
0.034
  1
 -----
 41
0.75
  0
LINE
  8
0
  5
5EF
 10
-5.638657
 20
5.006214
 30
0.0
 11
-3.019136
 21
5.006214
 31
0.0
  0
LINE
  8
0
  5
5F0
 10
-3.24295
 20
6.715359
 30
0.0
 11
-3.24295
 21
5.006214
 31
0.0
  0
LINE
  8
0
  5
5F1
 10
-3.019136
 20
4.703618
 30
0.0
 11
-5.638657
 21
4.703618
 31
0.0
  0
LINE
  8
0
  5
5F2
 10
-3.019136
 20
6.715359
 30
0.0
 11
-3.019136
 21
4.703618
 31
0.0
  0
LINE
  8
0
  5
5F3
 10
-5.638657
 20
6.715359
 30
0.0
 11
-3.019136
 21
6.715359
 31
0.0
  0
LINE
  8
0
  5
5F4
 10
-5.638657
 20
4.703618
 30
0.0
 11
-5.638657
 21
6.715359
 31
0.0
  0
TEXT
  8
0
 62
     1
  5
5F5
 10
-1.248904
 20
5.188203
 30
0.0
 40
0.1
  1
*Try locating some of the boundary errors above.*
 41
0.75
  7
TXT
  0
ARC
  8
0
  5
5F6
 10
-10.547208
 20
5.858113
 30
0.0
 40
0.691851
 50
75.0
 51
90.0
  0
LINE
  8
0
  5
5F7
 10
-11.293419
 20
6.608759
 30
0.0
 11
-11.293419
 21
5.112405
 31
0.0
  0
LINE
  8
0
  5
5F8
 10
-11.293419
 20
5.112405
 30
0.0
 11
-9.786171
 21
5.112405
 31
0.0
  0
LINE
  8
0
  5
5F9
 10
-9.786171
 20
5.112405
 30
0.0
 11
-9.786171
 21
6.608759
 31
0.0
  0
LINE
  8
0
  5
5FA
 10
-9.786171
 20
6.608759
 30
0.0
 11
-11.233648
 21
6.608759
 31
0.0
  0
ARC
  8
0
  5
5FB
 10
-10.547208
 20
5.858113
 30
0.0
 40
0.167908
 50
90.0
 51
105.0
  0
ARC
  8
0
  5
5FC
 10
-10.547208
 20
5.858113
 30
0.0
 40
0.266857
 50
75.0
 51
90.0
  0
ARC
  8
0
  5
5FD
 10
-10.547208
 20
5.858113
 30
0.0
 40
0.375576
 50
75.0
 51
90.0
  0
LINE
  8
0
  5
5FE
 10
-10.547208
 20
6.026021
 30
0.0
 11
-10.547208
 21
6.12497
 31
0.0
  0
LINE
  8
0
  5
5FF
 10
-10.50375
 20
6.020299
 30
0.0
 11
-10.47814
 21
6.115877
 31
0.0
  0
LINE
  8
0
  5
600
 10
-10.547208
 20
6.23369
 30
0.0
 11
-10.547208
 21
6.549964
 31
0.0
  0
LINE
  8
0
  5
601
 10
-10.450001
 20
6.220892
 30
0.0
 11
-10.368143
 21
6.52639
 31
0.0
  0
LINE
  8
0
  5
602
 10
-10.644414
 20
6.220892
 30
0.0
 11
-10.726272
 21
6.52639
 31
0.0
  0
LINE
  8
0
  5
603
 10
-10.734996
 20
6.183372
 30
0.0
 11
-10.893133
 21
6.457274
 31
0.0
  0
LINE
  8
0
  5
604
 10
-10.590665
 20
6.020299
 30
0.0
 11
-10.616275
 21
6.115877
 31
0.0
  0
LINE
  8
0
  5
605
 10
-10.631161
 20
6.003525
 30
0.0
 11
-10.680636
 21
6.089218
 31
0.0
  0
ARC
  8
0
  5
606
 10
-10.547208
 20
5.858113
 30
0.0
 40
0.375576
 50
105.0
 51
120.0
  0
ARC
  8
0
  5
607
 10
-10.547208
 20
5.858113
 30
0.0
 40
0.266857
 50
105.0
 51
120.0
  0
ARC
  8
0
  5
608
 10
-10.547208
 20
5.858113
 30
0.0
 40
0.691851
 50
105.0
 51
120.0
  0
LINE
  8
0
  5
609
 10
-10.81278
 20
6.123686
 30
0.0
 11
-11.03642
 21
6.347326
 31
0.0
  0
LINE
  8
0
  5
60A
 10
-10.872466
 20
6.045901
 30
0.0
 11
-11.146368
 21
6.204039
 31
0.0
  0
LINE
  8
0
  5
60B
 10
-10.665936
 20
5.976842
 30
0.0
 11
-10.735904
 21
6.046809
 31
0.0
  0
LINE
  8
0
  5
60C
 10
-10.69262
 20
5.942067
 30
0.0
 11
-10.778312
 21
5.991542
 31
0.0
  0
ARC
  8
0
  5
60D
 10
-10.547208
 20
5.858113
 30
0.0
 40
0.375576
 50
135.0
 51
150.0
  0
ARC
  8
0
  5
60E
 10
-10.547208
 20
5.858113
 30
0.0
 40
0.266857
 50
135.0
 51
150.0
  0
ARC
  8
0
  5
60F
 10
-10.547208
 20
5.858113
 30
0.0
 40
0.691851
 50
135.0
 51
150.0
  0
LINE
  8
0
  5
610
 10
-10.909987
 20
5.935319
 30
0.0
 11
-11.215485
 21
6.017177
 31
0.0
  0
LINE
  8
0
  5
611
 10
-10.922784
 20
5.858113
 30
0.0
 11
-11.239059
 21
5.858113
 31
0.0
  0
LINE
  8
0
  5
612
 10
-10.709394
 20
5.901571
 30
0.0
 11
-10.804972
 21
5.927181
 31
0.0
  0
LINE
  8
0
  5
613
 10
-10.715115
 20
5.858113
 30
0.0
 11
-10.814064
 21
5.858113
 31
0.0
  0
ARC
  8
0
  5
614
 10
-10.547208
 20
5.858113
 30
0.0
 40
0.375576
 50
165.0
 51
180.0
  0
ARC
  8
0
  5
615
 10
-10.547208
 20
5.858113
 30
0.0
 40
0.266857
 50
165.0
 51
180.0
  0
ARC
  8
0
  5
616
 10
-10.547208
 20
5.858113
 30
0.0
 40
0.691851
 50
165.0
 51
180.0
  0
LINE
  8
0
  5
617
 10
-10.909987
 20
5.760907
 30
0.0
 11
-11.215485
 21
5.679049
 31
0.0
  0
LINE
  8
0
  5
618
 10
-10.872466
 20
5.670325
 30
0.0
 11
-11.146368
 21
5.512187
 31
0.0
  0
LINE
  8
0
  5
619
 10
-10.709394
 20
5.814655
 30
0.0
 11
-10.804972
 21
5.789045
 31
0.0
  0
LINE
  8
0
  5
61A
 10
-10.69262
 20
5.774159
 30
0.0
 11
-10.778312
 21
5.724685
 31
0.0
  0
ARC
  8
0
  5
61B
 10
-10.547208
 20
5.858113
 30
0.0
 40
0.375576
 50
195.0
 51
210.0
  0
ARC
  8
0
  5
61C
 10
-10.547208
 20
5.858113
 30
0.0
 40
0.266857
 50
195.0
 51
210.0
  0
ARC
  8
0
  5
61D
 10
-10.547208
 20
5.858113
 30
0.0
 40
0.691851
 50
195.0
 51
210.0
  0
LINE
  8
0
  5
61E
 10
-10.81278
 20
5.59254
 30
0.0
 11
-11.03642
 21
5.3689
 31
0.0
  0
LINE
  8
0
  5
61F
 10
-10.734996
 20
5.532854
 30
0.0
 11
-10.893133
 21
5.258952
 31
0.0
  0
LINE
  8
0
  5
620
 10
-10.665936
 20
5.739384
 30
0.0
 11
-10.735904
 21
5.669417
 31
0.0
  0
LINE
  8
0
  5
621
 10
-10.631161
 20
5.712701
 30
0.0
 11
-10.680636
 21
5.627008
 31
0.0
  0
ARC
  8
0
  5
622
 10
-10.547208
 20
5.858113
 30
0.0
 40
0.375576
 50
225.0
 51
240.0
  0
ARC
  8
0
  5
623
 10
-10.547208
 20
5.858113
 30
0.0
 40
0.266857
 50
225.0
 51
240.0
  0
ARC
  8
0
  5
624
 10
-10.547208
 20
5.858113
 30
0.0
 40
0.691851
 50
225.0
 51
240.0
  0
LINE
  8
0
  5
625
 10
-10.644414
 20
5.495334
 30
0.0
 11
-10.726272
 21
5.189836
 31
0.0
  0
LINE
  8
0
  5
626
 10
-10.547208
 20
5.482537
 30
0.0
 11
-10.547208
 21
5.166262
 31
0.0
  0
LINE
  8
0
  5
627
 10
-10.590665
 20
5.695927
 30
0.0
 11
-10.616275
 21
5.600349
 31
0.0
  0
LINE
  8
0
  5
628
 10
-10.547208
 20
5.690205
 30
0.0
 11
-10.547208
 21
5.591256
 31
0.0
  0
ARC
  8
0
  5
629
 10
-10.547208
 20
5.858113
 30
0.0
 40
0.375576
 50
255.0
 51
270.0
  0
ARC
  8
0
  5
62A
 10
-10.547208
 20
5.858113
 30
0.0
 40
0.266857
 50
255.0
 51
270.0
  0
ARC
  8
0
  5
62B
 10
-10.547208
 20
5.858113
 30
0.0
 40
0.691851
 50
255.0
 51
270.0
  0
LINE
  8
0
  5
62C
 10
-10.450001
 20
5.495334
 30
0.0
 11
-10.368143
 21
5.189836
 31
0.0
  0
LINE
  8
0
  5
62D
 10
-10.359419
 20
5.532854
 30
0.0
 11
-10.201282
 21
5.258952
 31
0.0
  0
LINE
  8
0
  5
62E
 10
-10.50375
 20
5.695927
 30
0.0
 11
-10.47814
 21
5.600349
 31
0.0
  0
LINE
  8
0
  5
62F
 10
-10.463254
 20
5.712701
 30
0.0
 11
-10.413779
 21
5.627008
 31
0.0
  0
ARC
  8
0
  5
630
 10
-10.547208
 20
5.858113
 30
0.0
 40
0.375576
 50
285.0
 51
300.0
  0
ARC
  8
0
  5
631
 10
-10.547208
 20
5.858113
 30
0.0
 40
0.266857
 50
285.0
 51
300.0
  0
ARC
  8
0
  5
632
 10
-10.543735
 20
5.838417
 30
0.0
 40
0.691851
 50
285.0
 51
300.0
  0
LINE
  8
0
  5
633
 10
-10.281635
 20
5.59254
 30
0.0
 11
-10.057995
 21
5.3689
 31
0.0
  0
LINE
  8
0
  5
634
 10
-10.221949
 20
5.670325
 30
0.0
 11
-9.948047
 21
5.512187
 31
0.0
  0
LINE
  8
0
  5
635
 10
-10.428479
 20
5.739384
 30
0.0
 11
-10.358511
 21
5.669417
 31
0.0
  0
LINE
  8
0
  5
636
 10
-10.401795
 20
5.774159
 30
0.0
 11
-10.316103
 21
5.724685
 31
0.0
  0
ARC
  8
0
  5
637
 10
-10.547208
 20
5.858113
 30
0.0
 40
0.375576
 50
315.0
 51
330.0
  0
ARC
  8
0
  5
638
 10
-10.547208
 20
5.858113
 30
0.0
 40
0.266857
 50
315.0
 51
330.0
  0
ARC
  8
0
  5
639
 10
-10.547208
 20
5.858113
 30
0.0
 40
0.691851
 50
315.0
 51
330.0
  0
LINE
  8
0
  5
63A
 10
-10.184429
 20
5.755907
 30
0.0
 11
-9.87893
 21
5.674049
 31
0.0
  0
LINE
  8
0
  5
63B
 10
-10.171631
 20
5.858113
 30
0.0
 11
-9.855356
 21
5.858113
 31
0.0
  0
LINE
  8
0
  5
63C
 10
-10.385021
 20
5.814655
 30
0.0
 11
-10.289444
 21
5.789045
 31
0.0
  0
LINE
  8
0
  5
63D
 10
-10.3793
 20
5.858113
 30
0.0
 11
-10.280351
 21
5.858113
 31
0.0
  0
ARC
  8
0
  5
63E
 10
-10.547208
 20
5.858113
 30
0.0
 40
0.375576
 50
345.0
 51
0.0
  0
ARC
  8
0
  5
63F
 10
-10.547208
 20
5.858113
 30
0.0
 40
0.266857
 50
345.0
 51
0.0
  0
ARC
  8
0
  5
640
 10
-10.547208
 20
5.858113
 30
0.0
 40
0.691851
 50
345.0
 51
0.0
  0
LINE
  8
0
  5
641
 10
-10.184429
 20
5.955319
 30
0.0
 11
-9.87893
 21
6.037177
 31
0.0
  0
LINE
  8
0
  5
642
 10
-10.221949
 20
6.045901
 30
0.0
 11
-9.948047
 21
6.204039
 31
0.0
  0
LINE
  8
0
  5
643
 10
-10.385021
 20
5.901571
 30
0.0
 11
-10.289444
 21
5.927181
 31
0.0
  0
LINE
  8
0
  5
644
 10
-10.401795
 20
5.942067
 30
0.0
 11
-10.316103
 21
5.991542
 31
0.0
  0
ARC
  8
0
  5
645
 10
-10.547208
 20
5.858113
 30
0.0
 40
0.375576
 50
15.0
 51
30.0
  0
ARC
  8
0
  5
646
 10
-10.547208
 20
5.858113
 30
0.0
 40
0.266857
 50
15.0
 51
30.0
  0
ARC
  8
0
  5
647
 10
-10.547208
 20
5.858113
 30
0.0
 40
0.691851
 50
15.0
 51
30.0
  0
LINE
  8
0
  5
648
 10
-10.281635
 20
6.123686
 30
0.0
 11
-10.057995
 21
6.347326
 31
0.0
  0
LINE
  8
0
  5
649
 10
-10.359419
 20
6.183372
 30
0.0
 11
-10.201282
 21
6.457274
 31
0.0
  0
LINE
  8
0
  5
64A
 10
-10.428479
 20
5.976842
 30
0.0
 11
-10.358511
 21
6.046809
 31
0.0
  0
LINE
  8
0
  5
64B
 10
-10.463254
 20
6.003525
 30
0.0
 11
-10.413779
 21
6.089218
 31
0.0
  0
ARC
  8
0
  5
64C
 10
-10.547208
 20
5.858113
 30
0.0
 40
0.375576
 50
45.0
 51
60.0
  0
ARC
  8
0
  5
64D
 10
-10.547208
 20
5.858113
 30
0.0
 40
0.266857
 50
45.0
 51
60.0
  0
ARC
  8
0
  5
64E
 10
-10.547208
 20
5.858113
 30
0.0
 40
0.691851
 50
45.0
 51
60.0
  0
ARC
  8
0
  5
64F
 10
-10.547208
 20
5.858113
 30
0.0
 40
0.167908
 50
0.0
 51
15.0
  0
ARC
  8
0
  5
650
 10
-10.547208
 20
5.858113
 30
0.0
 40
0.167908
 50
30.0
 51
45.0
  0
ARC
  8
0
  5
651
 10
-10.547208
 20
5.858113
 30
0.0
 40
0.167908
 50
60.0
 51
75.0
  0
ARC
  8
0
  5
652
 10
-10.547208
 20
5.858113
 30
0.0
 40
0.167908
 50
120.0
 51
135.0
  0
ARC
  8
0
  5
653
 10
-10.547208
 20
5.858113
 30
0.0
 40
0.167908
 50
150.0
 51
165.0
  0
ARC
  8
0
  5
654
 10
-10.547208
 20
5.858113
 30
0.0
 40
0.167908
 50
180.0
 51
195.0
  0
ARC
  8
0
  5
655
 10
-10.547208
 20
5.858113
 30
0.0
 40
0.167908
 50
210.0
 51
225.0
  0
ARC
  8
0
  5
656
 10
-10.547208
 20
5.858113
 30
0.0
 40
0.167908
 50
240.0
 51
255.0
  0
ARC
  8
0
  5
657
 10
-10.547208
 20
5.858113
 30
0.0
 40
0.167908
 50
270.0
 51
285.0
  0
ARC
  8
0
  5
658
 10
-10.547208
 20
5.858113
 30
0.0
 40
0.167908
 50
300.0
 51
315.0
  0
ARC
  8
0
  5
659
 10
-10.547208
 20
5.858113
 30
0.0
 40
0.167908
 50
330.0
 51
345.0
  0
LINE
  8
0
  5
65A
 10
-9.786171
 20
5.112405
 30
0.0
 11
-9.786171
 21
5.053628
 31
0.0
  0
LINE
  8
0
  5
65B
 10
-9.786171
 20
5.112405
 30
0.0
 11
-9.691812
 21
5.112405
 31
0.0
  0
INSERT
  8
AME_FRZ
  5
65E
  2
AME_NIL
 10
0.0
 20
0.0
 30
0.0
  0
INSERT
  8
AME_FRZ
  5
661
  2
AME_SOL
 10
0.0
 20
0.0
 30
0.0
1001
AME_SOL
1000
R2.1
1000
AME2
1000
sq cm
1070
     3
1070
     0
1070
     3
1000
wire
1040
45.0
1000
U
1040
1.0
1000
cm
1000
gm
1000
MILD_STEEL
1070
    25
1000
CSG
1070
     1
1070
     3
1070
     3
1070
     3
1070
     0
1000
cu cm
1070
     1
1070
     0
1005
65E
  0
TEXT
  8
0
  5
662
 10
-11.586037
 20
4.92305
 30
0.0
 40
0.045
  1
Polyline PRO    ***All Rights Reserved***
 41
0.75
  7
TXT
  0
TEXT
  8
0
  5
663
 10
-11.586037
 20
4.839717
 30
0.0
 40
0.045
  1
Color of Error Markers: Red/Yellow/Green/White <Red>:
 41
0.75
  7
TXT
  0
TEXT
  8
0
  5
664
 10
-11.586037
 20
4.749395
 30
0.0
 40
0.045
  1
Enter Tolerance <0.0001>:
 41
0.75
  7
TXT
  0
LINE
  8
0
  5
665
 10
-6.786171
 20
5.112405
 30
0.0
 11
-6.691812
 21
5.112405
 31
0.0
  0
LINE
  8
0
  5
666
 10
-6.786171
 20
5.112405
 30
0.0
 11
-6.786171
 21
5.053628
 31
0.0
  0
ARC
  8
0
  5
672
 10
-7.547208
 20
5.858113
 30
0.0
 40
0.691851
 50
45.0
 51
60.0
  0
ARC
  8
0
 62
     7
  5
674
 10
-7.547208
 20
5.858113
 30
0.0
 40
0.375576
 50
45.0
 51
60.0
  0
LINE
  8
0
  5
677
 10
-7.359419
 20
6.183372
 30
0.0
 11
-7.201282
 21
6.457274
 31
0.0
  0
LINE
  8
0
  5
678
 10
-7.281635
 20
6.123686
 30
0.0
 11
-7.057995
 21
6.347326
 31
0.0
  0
ARC
  8
0
  5
679
 10
-7.547208
 20
5.858113
 30
0.0
 40
0.691851
 50
15.0
 51
30.0
  0
ARC
  8
0
  5
67B
 10
-7.547208
 20
5.858113
 30
0.0
 40
0.375576
 50
15.0
 51
30.0
  0
LINE
  8
0
  5
67E
 10
-7.221949
 20
6.045901
 30
0.0
 11
-6.948047
 21
6.204039
 31
0.0
  0
LINE
  8
0
  5
67F
 10
-7.184429
 20
5.955319
 30
0.0
 11
-6.87893
 21
6.037177
 31
0.0
  0
ARC
  8
0
  5
680
 10
-7.547208
 20
5.858113
 30
0.0
 40
0.691851
 50
345.0
 51
0.0
  0
ARC
  8
0
  5
682
 10
-7.547208
 20
5.858113
 30
0.0
 40
0.375576
 50
345.0
 51
0.0
  0
LINE
  8
0
  5
685
 10
-7.171631
 20
5.858113
 30
0.0
 11
-6.855356
 21
5.858113
 31
0.0
  0
ARC
  8
0
  5
687
 10
-7.547208
 20
5.858113
 30
0.0
 40
0.691851
 50
315.0
 51
330.0
  0
ARC
  8
0
  5
689
 10
-7.547208
 20
5.858113
 30
0.0
 40
0.375576
 50
315.0
 51
330.0
  0
LINE
  8
0
  5
68C
 10
-7.221949
 20
5.670325
 30
0.0
 11
-6.948047
 21
5.512187
 31
0.0
  0
LINE
  8
0
  5
68D
 10
-7.281635
 20
5.59254
 30
0.0
 11
-7.057995
 21
5.3689
 31
0.0
  0
ARC
  8
0
  5
68E
 10
-7.543735
 20
5.838417
 30
0.0
 40
0.691851
 50
285.0
 51
300.0
  0
ARC
  8
0
  5
690
 10
-7.547208
 20
5.858113
 30
0.0
 40
0.375576
 50
285.0
 51
300.0
  0
LINE
  8
0
  5
693
 10
-7.359419
 20
5.532854
 30
0.0
 11
-7.201282
 21
5.258952
 31
0.0
  0
LINE
  8
0
  5
694
 10
-7.450001
 20
5.495334
 30
0.0
 11
-7.368143
 21
5.189836
 31
0.0
  0
ARC
  8
0
  5
695
 10
-7.547208
 20
5.858113
 30
0.0
 40
0.691851
 50
255.0
 51
270.0
  0
ARC
  8
0
  5
697
 10
-7.547208
 20
5.858113
 30
0.0
 40
0.375576
 50
255.0
 51
270.0
  0
LINE
  8
0
  5
69A
 10
-7.547208
 20
5.482537
 30
0.0
 11
-7.547208
 21
5.166262
 31
0.0
  0
LINE
  8
0
  5
69B
 10
-7.644414
 20
5.495334
 30
0.0
 11
-7.726272
 21
5.189836
 31
0.0
  0
ARC
  8
0
  5
69C
 10
-7.547208
 20
5.858113
 30
0.0
 40
0.691851
 50
225.0
 51
240.0
  0
ARC
  8
0
  5
69E
 10
-7.547208
 20
5.858113
 30
0.0
 40
0.375576
 50
225.0
 51
240.0
  0
LINE
  8
0
  5
6A1
 10
-7.734996
 20
5.532854
 30
0.0
 11
-7.893133
 21
5.258952
 31
0.0
  0
LINE
  8
0
  5
6A2
 10
-7.81278
 20
5.59254
 30
0.0
 11
-8.03642
 21
5.3689
 31
0.0
  0
ARC
  8
0
  5
6A3
 10
-7.547208
 20
5.858113
 30
0.0
 40
0.691851
 50
195.0
 51
210.0
  0
ARC
  8
0
  5
6A5
 10
-7.547208
 20
5.858113
 30
0.0
 40
0.375576
 50
195.0
 51
210.0
  0
LINE
  8
0
  5
6A8
 10
-7.872466
 20
5.670325
 30
0.0
 11
-8.146368
 21
5.512187
 31
0.0
  0
LINE
  8
0
  5
6A9
 10
-7.909987
 20
5.760907
 30
0.0
 11
-8.215485
 21
5.679049
 31
0.0
  0
ARC
  8
0
  5
6AA
 10
-7.547208
 20
5.858113
 30
0.0
 40
0.691851
 50
165.0
 51
180.0
  0
ARC
  8
0
  5
6AC
 10
-7.547208
 20
5.858113
 30
0.0
 40
0.375576
 50
165.0
 51
180.0
  0
LINE
  8
0
  5
6AF
 10
-7.922784
 20
5.858113
 30
0.0
 11
-8.239059
 21
5.858113
 31
0.0
  0
LINE
  8
0
  5
6B0
 10
-7.909987
 20
5.935319
 30
0.0
 11
-8.215485
 21
6.017177
 31
0.0
  0
ARC
  8
0
  5
6B1
 10
-7.547208
 20
5.858113
 30
0.0
 40
0.691851
 50
135.0
 51
150.0
  0
ARC
  8
0
  5
6B3
 10
-7.547208
 20
5.858113
 30
0.0
 40
0.375576
 50
135.0
 51
150.0
  0
LINE
  8
0
  5
6B6
 10
-7.872466
 20
6.045901
 30
0.0
 11
-8.146368
 21
6.204039
 31
0.0
  0
LINE
  8
0
  5
6B7
 10
-7.81278
 20
6.123686
 30
0.0
 11
-8.03642
 21
6.347326
 31
0.0
  0
ARC
  8
0
  5
6B8
 10
-7.547208
 20
5.858113
 30
0.0
 40
0.691851
 50
105.0
 51
120.0
  0
ARC
  8
0
  5
6BA
 10
-7.547208
 20
5.858113
 30
0.0
 40
0.375576
 50
105.0
 51
120.0
  0
LINE
  8
0
  5
6BD
 10
-7.734996
 20
6.183372
 30
0.0
 11
-7.893133
 21
6.457274
 31
0.0
  0
LINE
  8
0
  5
6BE
 10
-7.644414
 20
6.220892
 30
0.0
 11
-7.726272
 21
6.52639
 31
0.0
  0
LINE
  8
0
  5
6BF
 10
-7.450001
 20
6.220892
 30
0.0
 11
-7.368143
 21
6.52639
 31
0.0
  0
LINE
  8
0
  5
6C0
 10
-7.547208
 20
6.23369
 30
0.0
 11
-7.547208
 21
6.549964
 31
0.0
  0
ARC
  8
0
  5
6C3
 10
-7.547208
 20
5.858113
 30
0.0
 40
0.375576
 50
75.0
 51
90.0
  0
LINE
  8
0
  5
6C6
 10
-6.786171
 20
6.608759
 30
0.0
 11
-8.233648
 21
6.608759
 31
0.0
  0
LINE
  8
0
  5
6C7
 10
-6.786171
 20
5.112405
 30
0.0
 11
-6.786171
 21
6.608759
 31
0.0
  0
LINE
  8
0
  5
6C8
 10
-8.293419
 20
5.112405
 30
0.0
 11
-6.786171
 21
5.112405
 31
0.0
  0
LINE
  8
0
  5
6C9
 10
-8.293419
 20
6.608759
 30
0.0
 11
-8.293419
 21
5.112405
 31
0.0
  0
ARC
  8
0
  5
6CA
 10
-7.547208
 20
5.858113
 30
0.0
 40
0.691851
 50
75.0
 51
90.0
  0
CIRCLE
  8
ERRORS
 62
     1
  5
6CB
 10
-8.293419
 20
6.608759
 30
0.0
 40
0.025946
  0
CIRCLE
  8
ERRORS
 62
     1
  5
6CC
 10
-8.233648
 20
6.608759
 30
0.0
 40
0.025946
  0
CIRCLE
  8
ERRORS
 62
     1
  5
6CD
 10
-8.215485
 20
6.037177
 30
0.0
 40
0.025946
  0
CIRCLE
  8
ERRORS
 62
     1
  5
6CE
 10
-8.215485
 20
6.017177
 30
0.0
 40
0.025946
  0
CIRCLE
  8
ERRORS
 62
     1
  5
6CF
 10
-7.909987
 20
5.935319
 30
0.0
 40
0.025946
  0
CIRCLE
  8
ERRORS
 62
     1
  5
6D0
 10
-7.909987
 20
5.955319
 30
0.0
 40
0.025946
  0
CIRCLE
  8
ERRORS
 62
     1
  5
6D1
 10
-7.201282
 20
5.258952
 30
0.0
 40
0.025946
  0
CIRCLE
  8
ERRORS
 62
     1
  5
6D2
 10
-7.197809
 20
5.239256
 30
0.0
 40
0.025946
  0
CIRCLE
  8
ERRORS
 62
     1
  5
6D3
 10
-7.36467
 20
5.17014
 30
0.0
 40
0.025946
  0
CIRCLE
  8
ERRORS
 62
     1
  5
6D4
 10
-7.368143
 20
5.189836
 30
0.0
 40
0.025946
  0
CIRCLE
  8
ERRORS
 62
     1
  5
6D5
 10
-6.691812
 20
5.112405
 30
0.0
 40
0.025946
  0
CIRCLE
  8
ERRORS
 62
     1
  5
6D6
 10
-6.786171
 20
5.053628
 30
0.0
 40
0.025946
  0
LINE
  8
0
  5
6D7
 10
-6.87893
 20
5.679049
 30
0.0
 11
-7.184429
 21
5.760907
 31
0.0
  0
POLYLINE
  8
0
 62
     3
  5
6E0
 66
     1
 10
0.0
 20
0.0
 30
0.0
  0
VERTEX
  8
0
 62
     3
  5
6E1
 10
-7.3161
 20
5.724732
 30
0.0
 42
-0.065543
  0
VERTEX
  8
0
 62
     3
  5
6E2
 10
-7.3585
 20
5.669432
 30
0.0
  0
VERTEX
  8
0
 62
     3
  5
6E3
 10
-7.4285
 20
5.739432
 30
0.0
 42
-0.065543
  0
VERTEX
  8
0
 62
     3
  5
6E4
 10
-7.4633
 20
5.712732
 30
0.0
  0
VERTEX
  8
0
 62
     3
  5
6E5
 10
-7.4138
 20
5.627032
 30
0.0
 42
-0.065543
  0
VERTEX
  8
0
 62
     3
  5
6E6
 10
-7.4781
 20
5.600332
 30
0.0
  0
VERTEX
  8
0
 62
     3
  5
6E7
 10
-7.5037
 20
5.695932
 30
0.0
 42
-0.065543
  0
VERTEX
  8
0
 62
     3
  5
6E8
 10
-7.5472
 20
5.690232
 30
0.0
  0
VERTEX
  8
0
 62
     3
  5
6E9
 10
-7.5472
 20
5.591232
 30
0.0
 42
-0.065543
  0
VERTEX
  8
0
 62
     3
  5
6EA
 10
-7.6163
 20
5.600332
 30
0.0
  0
VERTEX
  8
0
 62
     3
  5
6EB
 10
-7.5907
 20
5.695932
 30
0.0
 42
-0.065543
  0
VERTEX
  8
0
 62
     3
  5
6EC
 10
-7.6312
 20
5.712732
 30
0.0
  0
VERTEX
  8
0
 62
     3
  5
6ED
 10
-7.6806
 20
5.627032
 30
0.0
 42
-0.065543
  0
VERTEX
  8
0
 62
     3
  5
6EE
 10
-7.7359
 20
5.669432
 30
0.0
  0
VERTEX
  8
0
 62
     3
  5
6EF
 10
-7.6659
 20
5.739432
 30
0.0
 42
-0.065543
  0
VERTEX
  8
0
 62
     3
  5
6F0
 10
-7.6926
 20
5.774132
 30
0.0
  0
VERTEX
  8
0
 62
     3
  5
6F1
 10
-7.7783
 20
5.724732
 30
0.0
 42
-0.065543
  0
VERTEX
  8
0
 62
     3
  5
6F2
 10
-7.805
 20
5.789032
 30
0.0
  0
VERTEX
  8
0
 62
     3
  5
6F3
 10
-7.7094
 20
5.814632
 30
0.0
 42
-0.065543
  0
VERTEX
  8
0
 62
     3
  5
6F4
 10
-7.7151
 20
5.858132
 30
0.0
  0
VERTEX
  8
0
 62
     3
  5
6F5
 10
-7.8141
 20
5.858132
 30
0.0
 42
-0.065543
  0
VERTEX
  8
0
 62
     3
  5
6F6
 10
-7.805
 20
5.927132
 30
0.0
  0
VERTEX
  8
0
 62
     3
  5
6F7
 10
-7.7094
 20
5.901532
 30
0.0
 42
-0.065543
  0
VERTEX
  8
0
 62
     3
  5
6F8
 10
-7.6926
 20
5.942032
 30
0.0
  0
VERTEX
  8
0
 62
     3
  5
6F9
 10
-7.7783
 20
5.991532
 30
0.0
 42
-0.065543
  0
VERTEX
  8
0
 62
     3
  5
6FA
 10
-7.7359
 20
6.046832
 30
0.0
  0
VERTEX
  8
0
 62
     3
  5
6FB
 10
-7.6659
 20
5.976832
 30
0.0
 42
-0.065543
  0
VERTEX
  8
0
 62
     3
  5
6FC
 10
-7.6312
 20
6.003532
 30
0.0
  0
VERTEX
  8
0
 62
     3
  5
6FD
 10
-7.6806
 20
6.089232
 30
0.0
 42
-0.065543
  0
VERTEX
  8
0
 62
     3
  5
6FE
 10
-7.6163
 20
6.115832
 30
0.0
  0
VERTEX
  8
0
 62
     3
  5
6FF
 10
-7.5907
 20
6.020332
 30
0.0
 42
-0.065543
  0
VERTEX
  8
0
 62
     3
  5
700
 10
-7.5472
 20
6.026032
 30
0.0
  0
VERTEX
  8
0
 62
     3
  5
701
 10
-7.5472
 20
6.124932
 30
0.0
 42
-0.065543
  0
VERTEX
  8
0
 62
     3
  5
702
 10
-7.4781
 20
6.115832
 30
0.0
  0
VERTEX
  8
0
 62
     3
  5
703
 10
-7.5037
 20
6.020332
 30
0.0
 42
-0.065543
  0
VERTEX
  8
0
 62
     3
  5
704
 10
-7.4633
 20
6.003532
 30
0.0
  0
VERTEX
  8
0
 62
     3
  5
705
 10
-7.4138
 20
6.089232
 30
0.0
 42
-0.065543
  0
VERTEX
  8
0
 62
     3
  5
706
 10
-7.3585
 20
6.046832
 30
0.0
  0
VERTEX
  8
0
 62
     3
  5
707
 10
-7.4285
 20
5.976832
 30
0.0
 42
-0.065543
  0
VERTEX
  8
0
 62
     3
  5
708
 10
-7.4018
 20
5.942032
 30
0.0
  0
VERTEX
  8
0
 62
     3
  5
709
 10
-7.3161
 20
5.991532
 30
0.0
 42
-0.065543
  0
VERTEX
  8
0
 62
     3
  5
70A
 10
-7.2894
 20
5.927132
 30
0.0
  0
VERTEX
  8
0
 62
     3
  5
70B
 10
-7.385
 20
5.901532
 30
0.0
 42
-0.065543
  0
VERTEX
  8
0
 62
     3
  5
70C
 10
-7.3793
 20
5.858132
 30
0.0
  0
VERTEX
  8
0
 62
     3
  5
70D
 10
-7.2804
 20
5.858132
 30
0.0
 42
-0.065543
  0
VERTEX
  8
0
 62
     3
  5
70E
 10
-7.2894
 20
5.789032
 30
0.0
  0
VERTEX
  8
0
 62
     3
  5
70F
 10
-7.385
 20
5.814632
 30
0.0
 42
-0.065543
  0
VERTEX
  8
0
 62
     3
  5
710
 10
-7.4018
 20
5.774132
 30
0.0
  0
VERTEX
  8
0
 62
     3
  5
711
 10
-7.3161
 20
5.724732
 30
0.0
  0
SEQEND
  8
0
 62
     3
  5
712
  0
TEXT
  8
0
  5
713
 10
-8.589498
 20
4.913098
 30
0.0
 40
0.05
  1
Errors Detected!
 41
0.8
  7
TXT
  0
TEXT
  8
0
  5
714
 10
-8.589498
 20
4.746431
 30
0.0
 40
0.05
  1
Command:
 41
0.8
  7
TXT
  0
POLYLINE
  8
0
 62
     3
  5
715
 66
     1
 10
0.0
 20
0.0
 30
0.0
  0
VERTEX
  8
0
 62
     3
  5
716
 10
-4.3161
 20
5.724732
 30
0.0
 42
-0.065543
  0
VERTEX
  8
0
 62
     3
  5
717
 10
-4.3585
 20
5.669432
 30
0.0
  0
VERTEX
  8
0
 62
     3
  5
718
 10
-4.4285
 20
5.739432
 30
0.0
 42
-0.065543
  0
VERTEX
  8
0
 62
     3
  5
719
 10
-4.4633
 20
5.712732
 30
0.0
  0
VERTEX
  8
0
 62
     3
  5
71A
 10
-4.4138
 20
5.627032
 30
0.0
 42
-0.065543
  0
VERTEX
  8
0
 62
     3
  5
71B
 10
-4.4781
 20
5.600332
 30
0.0
  0
VERTEX
  8
0
 62
     3
  5
71C
 10
-4.5037
 20
5.695932
 30
0.0
 42
-0.065543
  0
VERTEX
  8
0
 62
     3
  5
71D
 10
-4.5472
 20
5.690232
 30
0.0
  0
VERTEX
  8
0
 62
     3
  5
71E
 10
-4.5472
 20
5.591232
 30
0.0
 42
-0.065543
  0
VERTEX
  8
0
 62
     3
  5
71F
 10
-4.6163
 20
5.600332
 30
0.0
  0
VERTEX
  8
0
 62
     3
  5
720
 10
-4.5907
 20
5.695932
 30
0.0
 42
-0.065543
  0
VERTEX
  8
0
 62
     3
  5
721
 10
-4.6312
 20
5.712732
 30
0.0
  0
VERTEX
  8
0
 62
     3
  5
722
 10
-4.6806
 20
5.627032
 30
0.0
 42
-0.065543
  0
VERTEX
  8
0
 62
     3
  5
723
 10
-4.7359
 20
5.669432
 30
0.0
  0
VERTEX
  8
0
 62
     3
  5
724
 10
-4.6659
 20
5.739432
 30
0.0
 42
-0.065543
  0
VERTEX
  8
0
 62
     3
  5
725
 10
-4.6926
 20
5.774132
 30
0.0
  0
VERTEX
  8
0
 62
     3
  5
726
 10
-4.7783
 20
5.724732
 30
0.0
 42
-0.065543
  0
VERTEX
  8
0
 62
     3
  5
727
 10
-4.805
 20
5.789032
 30
0.0
  0
VERTEX
  8
0
 62
     3
  5
728
 10
-4.7094
 20
5.814632
 30
0.0
 42
-0.065543
  0
VERTEX
  8
0
 62
     3
  5
729
 10
-4.7151
 20
5.858132
 30
0.0
  0
VERTEX
  8
0
 62
     3
  5
72A
 10
-4.8141
 20
5.858132
 30
0.0
 42
-0.065543
  0
VERTEX
  8
0
 62
     3
  5
72B
 10
-4.805
 20
5.927132
 30
0.0
  0
VERTEX
  8
0
 62
     3
  5
72C
 10
-4.7094
 20
5.901532
 30
0.0
 42
-0.065543
  0
VERTEX
  8
0
 62
     3
  5
72D
 10
-4.6926
 20
5.942032
 30
0.0
  0
VERTEX
  8
0
 62
     3
  5
72E
 10
-4.7783
 20
5.991532
 30
0.0
 42
-0.065543
  0
VERTEX
  8
0
 62
     3
  5
72F
 10
-4.7359
 20
6.046832
 30
0.0
  0
VERTEX
  8
0
 62
     3
  5
730
 10
-4.6659
 20
5.976832
 30
0.0
 42
-0.065543
  0
VERTEX
  8
0
 62
     3
  5
731
 10
-4.6312
 20
6.003532
 30
0.0
  0
VERTEX
  8
0
 62
     3
  5
732
 10
-4.6806
 20
6.089232
 30
0.0
 42
-0.065543
  0
VERTEX
  8
0
 62
     3
  5
733
 10
-4.6163
 20
6.115832
 30
0.0
  0
VERTEX
  8
0
 62
     3
  5
734
 10
-4.5907
 20
6.020332
 30
0.0
 42
-0.065543
  0
VERTEX
  8
0
 62
     3
  5
735
 10
-4.5472
 20
6.026032
 30
0.0
  0
VERTEX
  8
0
 62
     3
  5
736
 10
-4.5472
 20
6.124932
 30
0.0
 42
-0.065543
  0
VERTEX
  8
0
 62
     3
  5
737
 10
-4.4781
 20
6.115832
 30
0.0
  0
VERTEX
  8
0
 62
     3
  5
738
 10
-4.5037
 20
6.020332
 30
0.0
 42
-0.065543
  0
VERTEX
  8
0
 62
     3
  5
739
 10
-4.4633
 20
6.003532
 30
0.0
  0
VERTEX
  8
0
 62
     3
  5
73A
 10
-4.4138
 20
6.089232
 30
0.0
 42
-0.065543
  0
VERTEX
  8
0
 62
     3
  5
73B
 10
-4.3585
 20
6.046832
 30
0.0
  0
VERTEX
  8
0
 62
     3
  5
73C
 10
-4.4285
 20
5.976832
 30
0.0
 42
-0.065543
  0
VERTEX
  8
0
 62
     3
  5
73D
 10
-4.4018
 20
5.942032
 30
0.0
  0
VERTEX
  8
0
 62
     3
  5
73E
 10
-4.3161
 20
5.991532
 30
0.0
 42
-0.065543
  0
VERTEX
  8
0
 62
     3
  5
73F
 10
-4.2894
 20
5.927132
 30
0.0
  0
VERTEX
  8
0
 62
     3
  5
740
 10
-4.385
 20
5.901532
 30
0.0
 42
-0.065543
  0
VERTEX
  8
0
 62
     3
  5
741
 10
-4.3793
 20
5.858132
 30
0.0
  0
VERTEX
  8
0
 62
     3
  5
742
 10
-4.2804
 20
5.858132
 30
0.0
 42
-0.065543
  0
VERTEX
  8
0
 62
     3
  5
743
 10
-4.2894
 20
5.789032
 30
0.0
  0
VERTEX
  8
0
 62
     3
  5
744
 10
-4.385
 20
5.814632
 30
0.0
 42
-0.065543
  0
VERTEX
  8
0
 62
     3
  5
745
 10
-4.4018
 20
5.774132
 30
0.0
  0
VERTEX
  8
0
 62
     3
  5
746
 10
-4.3161
 20
5.724732
 30
0.0
  0
SEQEND
  8
0
 62
     3
  5
747
  0
POLYLINE
  8
0
 62
     3
  5
791
 66
     1
 10
0.0
 20
0.0
 30
0.0
  0
VERTEX
  8
0
 62
     3
  5
792
 10
-4.1844
 20
5.760932
 30
0.0
  0
VERTEX
  8
0
 62
     3
  5
793
 10
-3.8789
 20
5.679032
 30
0.0
 42
0.065543
  0
VERTEX
  8
0
 62
     3
  5
794
 10
-3.8554
 20
5.858132
 30
0.0
  0
VERTEX
  8
0
 62
     3
  5
795
 10
-4.1716
 20
5.858132
 30
0.0
 42
-0.065543
  0
VERTEX
  8
0
 62
     3
  5
796
 10
-4.1844
 20
5.760932
 30
0.0
  0
SEQEND
  8
0
 62
     3
  5
797
  0
POLYLINE
  8
0
 62
     3
  5
798
 66
     1
 10
0.0
 20
0.0
 30
0.0
  0
VERTEX
  8
0
 62
     3
  5
799
 10
-5.2934
 20
5.112432
 30
0.0
  0
VERTEX
  8
0
 62
     3
  5
79A
 10
-3.7862
 20
5.112432
 30
0.0
  0
VERTEX
  8
0
 62
     3
  5
79B
 10
-3.7862
 20
6.608732
 30
0.0
  0
VERTEX
  8
0
 62
     3
  5
79C
 10
-5.2934
 20
6.608732
 30
0.0
  0
VERTEX
  8
0
 62
     3
  5
79D
 10
-5.2934
 20
5.112432
 30
0.0
  0
SEQEND
  8
0
 62
     3
  5
79E
  0
POLYLINE
  8
0
 62
     3
  5
79F
 66
     1
 10
0.0
 20
0.0
 30
0.0
  0
VERTEX
  8
0
 62
     3
  5
7A0
 10
-5.2155
 20
5.679032
 30
0.0
 42
0.065543
  0
VERTEX
  8
0
 62
     3
  5
7A1
 10
-5.1464
 20
5.512232
 30
0.0
  0
VERTEX
  8
0
 62
     3
  5
7A2
 10
-4.8725
 20
5.670332
 30
0.0
 42
-0.065543
  0
VERTEX
  8
0
 62
     3
  5
7A3
 10
-4.91
 20
5.760932
 30
0.0
  0
VERTEX
  8
0
 62
     3
  5
7A4
 10
-5.2155
 20
5.679032
 30
0.0
  0
SEQEND
  8
0
 62
     3
  5
7A5
  0
POLYLINE
  8
0
 62
     3
  5
7A6
 66
     1
 10
0.0
 20
0.0
 30
0.0
  0
VERTEX
  8
0
 62
     3
  5
7A7
 10
-5.0364
 20
5.368932
 30
0.0
 42
0.065543
  0
VERTEX
  8
0
 62
     3
  5
7A8
 10
-4.8931
 20
5.258932
 30
0.0
  0
VERTEX
  8
0
 62
     3
  5
7A9
 10
-4.735
 20
5.532832
 30
0.0
 42
-0.065543
  0
VERTEX
  8
0
 62
     3
  5
7AA
 10
-4.8128
 20
5.592532
 30
0.0
  0
VERTEX
  8
0
 62
     3
  5
7AB
 10
-5.0364
 20
5.368932
 30
0.0
  0
SEQEND
  8
0
 62
     3
  5
7AC
  0
POLYLINE
  8
0
 62
     3
  5
7AD
 66
     1
 10
0.0
 20
0.0
 30
0.0
  0
VERTEX
  8
0
 62
     3
  5
7AE
 10
-4.7263
 20
5.189832
 30
0.0
 42
0.065543
  0
VERTEX
  8
0
 62
     3
  5
7AF
 10
-4.5472
 20
5.166232
 30
0.0
  0
VERTEX
  8
0
 62
     3
  5
7B0
 10
-4.5472
 20
5.482532
 30
0.0
 42
-0.065543
  0
VERTEX
  8
0
 62
     3
  5
7B1
 10
-4.6444
 20
5.495332
 30
0.0
  0
VERTEX
  8
0
 62
     3
  5
7B2
 10
-4.7263
 20
5.189832
 30
0.0
  0
SEQEND
  8
0
 62
     3
  5
7B3
  0
POLYLINE
  8
0
 62
     3
  5
7B4
 66
     1
 10
0.0
 20
0.0
 30
0.0
  0
VERTEX
  8
0
 62
     3
  5
7B5
 10
-4.3681
 20
5.189832
 30
0.0
 42
0.065543
  0
VERTEX
  8
0
 62
     3
  5
7B6
 10
-4.2013
 20
5.258932
 30
0.0
  0
VERTEX
  8
0
 62
     3
  5
7B7
 10
-4.3594
 20
5.532832
 30
0.0
 42
-0.065543
  0
VERTEX
  8
0
 62
     3
  5
7B8
 10
-4.45
 20
5.495332
 30
0.0
  0
VERTEX
  8
0
 62
     3
  5
7B9
 10
-4.3681
 20
5.189832
 30
0.0
  0
SEQEND
  8
0
 62
     3
  5
7BA
  0
POLYLINE
  8
0
 62
     3
  5
7BB
 66
     1
 10
0.0
 20
0.0
 30
0.0
  0
VERTEX
  8
0
 62
     3
  5
7BC
 10
-3.8789
 20
6.037132
 30
0.0
 42
0.065543
  0
VERTEX
  8
0
 62
     3
  5
7BD
 10
-3.948
 20
6.204032
 30
0.0
  0
VERTEX
  8
0
 62
     3
  5
7BE
 10
-4.2219
 20
6.045932
 30
0.0
 42
-0.065543
  0
VERTEX
  8
0
 62
     3
  5
7BF
 10
-4.1844
 20
5.955332
 30
0.0
  0
VERTEX
  8
0
 62
     3
  5
7C0
 10
-3.8789
 20
6.037132
 30
0.0
  0
SEQEND
  8
0
 62
     3
  5
7C1
  0
POLYLINE
  8
0
 62
     3
  5
7C2
 66
     1
 10
0.0
 20
0.0
 30
0.0
  0
VERTEX
  8
0
 62
     3
  5
7C3
 10
-4.058
 20
6.347332
 30
0.0
 42
0.065543
  0
VERTEX
  8
0
 62
     3
  5
7C4
 10
-4.2013
 20
6.457232
 30
0.0
  0
VERTEX
  8
0
 62
     3
  5
7C5
 10
-4.3594
 20
6.183332
 30
0.0
 42
-0.065543
  0
VERTEX
  8
0
 62
     3
  5
7C6
 10
-4.2816
 20
6.123732
 30
0.0
  0
VERTEX
  8
0
 62
     3
  5
7C7
 10
-4.058
 20
6.347332
 30
0.0
  0
SEQEND
  8
0
 62
     3
  5
7C8
  0
POLYLINE
  8
0
 62
     3
  5
7C9
 66
     1
 10
0.0
 20
0.0
 30
0.0
  0
VERTEX
  8
0
 62
     3
  5
7CA
 10
-4.058
 20
5.368932
 30
0.0
 42
0.065543
  0
VERTEX
  8
0
 62
     3
  5
7CB
 10
-3.948
 20
5.512232
 30
0.0
  0
VERTEX
  8
0
 62
     3
  5
7CC
 10
-4.2219
 20
5.670332
 30
0.0
 42
-0.065543
  0
VERTEX
  8
0
 62
     3
  5
7CD
 10
-4.2816
 20
5.592532
 30
0.0
  0
VERTEX
  8
0
 62
     3
  5
7CE
 10
-4.058
 20
5.368932
 30
0.0
  0
SEQEND
  8
0
 62
     3
  5
7CF
  0
POLYLINE
  8
0
 62
     3
  5
7D0
 66
     1
 10
0.0
 20
0.0
 30
0.0
  0
VERTEX
  8
0
 62
     3
  5
7D1
 10
-5.2391
 20
5.858132
 30
0.0
 42
-0.065543
  0
VERTEX
  8
0
 62
     3
  5
7D2
 10
-5.2155
 20
6.037132
 30
0.0
  0
VERTEX
  8
0
 62
     3
  5
7D3
 10
-4.91
 20
5.955332
 30
0.0
 42
0.065543
  0
VERTEX
  8
0
 62
     3
  5
7D4
 10
-4.9228
 20
5.858132
 30
0.0
  0
VERTEX
  8
0
 62
     3
  5
7D5
 10
-5.2391
 20
5.858132
 30
0.0
  0
SEQEND
  8
0
 62
     3
  5
7D6
  0
POLYLINE
  8
0
 62
     3
  5
7D7
 66
     1
 10
0.0
 20
0.0
 30
0.0
  0
VERTEX
  8
0
 62
     3
  5
7D8
 10
-5.0364
 20
6.347332
 30
0.0
 42
0.065543
  0
VERTEX
  8
0
 62
     3
  5
7D9
 10
-5.1464
 20
6.204032
 30
0.0
  0
VERTEX
  8
0
 62
     3
  5
7DA
 10
-4.8725
 20
6.045932
 30
0.0
 42
-0.065543
  0
VERTEX
  8
0
 62
     3
  5
7DB
 10
-4.8128
 20
6.123732
 30
0.0
  0
VERTEX
  8
0
 62
     3
  5
7DC
 10
-5.0364
 20
6.347332
 30
0.0
  0
SEQEND
  8
0
 62
     3
  5
7DD
  0
POLYLINE
  8
0
 62
     3
  5
7DE
 66
     1
 10
0.0
 20
0.0
 30
0.0
  0
VERTEX
  8
0
 62
     3
  5
7DF
 10
-4.7263
 20
6.526432
 30
0.0
 42
0.065543
  0
VERTEX
  8
0
 62
     3
  5
7E0
 10
-4.8931
 20
6.457232
 30
0.0
  0
VERTEX
  8
0
 62
     3
  5
7E1
 10
-4.735
 20
6.183332
 30
0.0
 42
-0.065543
  0
VERTEX
  8
0
 62
     3
  5
7E2
 10
-4.6444
 20
6.220932
 30
0.0
  0
VERTEX
  8
0
 62
     3
  5
7E3
 10
-4.7263
 20
6.526432
 30
0.0
  0
SEQEND
  8
0
 62
     3
  5
7E4
  0
POLYLINE
  8
0
 62
     3
  5
7E5
 66
     1
 10
0.0
 20
0.0
 30
0.0
  0
VERTEX
  8
0
 62
     3
  5
7E6
 10
-4.5472
 20
6.549932
 30
0.0
  0
VERTEX
  8
0
 62
     3
  5
7E7
 10
-4.5472
 20
6.233732
 30
0.0
 42
-0.065543
  0
VERTEX
  8
0
 62
     3
  5
7E8
 10
-4.45
 20
6.220932
 30
0.0
  0
VERTEX
  8
0
 62
     3
  5
7E9
 10
-4.3681
 20
6.526432
 30
0.0
 42
0.065543
  0
VERTEX
  8
0
 62
     3
  5
7EA
 10
-4.5472
 20
6.549932
 30
0.0
  0
SEQEND
  8
0
 62
     3
  5
7EB
  0
TEXT
  8
0
  5
7EC
 10
-5.594541
 20
4.909962
 30
0.0
 40
0.05
  1
ALL LINES/ARCS ARE CLOSED!
 41
0.8
  7
TXT
  0
TEXT
  8
0
  5
7ED
 10
-5.594541
 20
4.743295
 30
0.0
 40
0.05
  1
Command:
 41
0.8
  7
TXT
  0
TEXT
  8
0
 62
     3
  5
7EE
 10
-12.656786
 20
-0.845793
 30
0.0
 40
0.35
  1
To order Polyline Pro:
 41
0.8
  7
TXT
  0
TEXT
  8
0
  5
7EF
 10
-6.996592
 20
-0.844927
 30
0.0
 40
0.3
  1
Print out file ORDER.TXT (complete form and mail/fax to Innovative C.A.D)
 41
0.8
  7
TXT
  0
LINE
  8
0
  5
7F0
 10
-1.680004
 20
6.490808
 30
0.0
 11
-1.466355
 21
6.490808
 31
0.0
  0
LINE
  8
0
  5
7F1
 10
-1.648353
 20
6.451271
 30
0.0
 11
-1.513833
 21
6.451271
 31
0.0
  0
TEXT
  8
0
  5
7F2
 10
1.830517
 20
-0.229044
 30
0.0
 40
0.1
  1
without Polyline PRO: Over 20 minutes!
  7
TXT
  0
ENDSEC
  0
EOF
