  0
SECTION
  2
HEADER
  9
$ACADVER
  1
AC1006
  9
$EXTMIN
 10
-3.213827
 20
-1.115516
  9
$EXTMAX
 10
2.898047
 20
1.932457
  9
$LTSCALE
 40
0.000394
  9
$PDMODE
 70
    35
  9
$PDSIZE
 40
0.000315
  0
ENDSEC
  0
SECTION
  2
TABLES
  0
TABLE
  2
LTYPE
 70
     9
  0
LTYPE
  2
CONTINUOUS
 70
    64
  3
Solid line
 72
    65
 73
     0
 40
0.000000
  0
LTYPE
  2
DASHED
 70
    64
  3
__ __ __ __ __ __ __ __ __ __ __ __ __ __ __
 72
    65
 73
     2
 40
0.000003
 49
0.000002
 49
-0.000001
  0
LTYPE
  2
HIDDEN
 70
    64
  3
 _ _ _ _ _ _ _ _ _ _ _ _ _ _ _ _ _ _ _ _ _ _
 72
    65
 73
     2
 40
0.000001
 49
0.000001
 49
-0.000000
  0
LTYPE
  2
CENTER
 70
    64
  3
____ _ ____ _ ____ _ ____ _ ____ _ ____ _ ____
 72
    65
 73
     4
 40
0.000008
 49
0.000005
 49
-0.000001
 49
0.000001
 49
-0.000001
  0
LTYPE
  2
PHANTOM
 70
    64
  3
_____ _ _ _____ _ _ _____ _ _ _____ _ _ ____
 72
    65
 73
     6
 40
0.000010
 49
0.000005
 49
-0.000001
 49
0.000001
 49
-0.000001
 49
0.000001
 49
-0.000001
  0
LTYPE
  2
DOT
 70
    64
  3
...............................................
 72
    65
 73
     2
 40
0.000001
 49
0.000000
 49
-0.000001
  0
LTYPE
  2
DASHDOT
 70
    64
  3
__ . __ . __ . __ . __ . __ . __ . __ . __ . __
 72
    65
 73
     4
 40
0.000004
 49
0.000002
 49
-0.000001
 49
0.000000
 49
-0.000001
  0
LTYPE
  2
BORDER
 70
    64
  3
__ __ . __ __ . __ __ . __ __ . __ __ . __ __
 72
    65
 73
     6
 40
0.000007
 49
0.000002
 49
-0.000001
 49
0.000002
 49
-0.000001
 49
0.000000
 49
-0.000001
  0
LTYPE
  2
DIVIDE
 70
    64
  3
__ . . __ . . __ . . __ . . __ . . __ . . __
 72
    65
 73
     6
 40
0.000005
 49
0.000002
 49
-0.000001
 49
0.000000
 49
-0.000001
 49
0.000000
 49
-0.000001
  0
LTYPE
  2
DOTDOT
 70
    64
  3
 . .  . .  . .  . .  . .  . . 
 72
    65
 73
     5
 40
0.000002
 49
-0.000001
 49
0.000000
 49
-0.000001
 49
0.000000
 49
-0.000001
  0
ENDTAB
  0
TABLE
  2
STYLE
 70
     0
  0
ENDTAB
  0
TABLE
  2
LAYER
 70
     3
  0
LAYER
  2
FOREGROUND
 70
    64
 62
     7
  6
CONTINUOUS
  0
LAYER
  2
BACKGROUND
 70
    65
 62
    -7
  6
CONTINUOUS
  0
LAYER
  2
COUCHE1
 70
    64
 62
     7
  6
CONTINUOUS
  0
ENDTAB
  0
ENDSEC
  0
SECTION
  2
ENTITIES
  0
POLYLINE
  8
COUCHE1
 62
    39
  6
CONTINUOUS
 66
     1
 40
0.003000
 41
0.003000
 70
     1
  0
VERTEX
  8
COUCHE1
 62
    39
  6
CONTINUOUS
 10
0.575575
 20
-0.612709
  0
VERTEX
  8
COUCHE1
 62
    39
  6
CONTINUOUS
 10
2.079496
 20
-0.464173
  0
VERTEX
  8
COUCHE1
 62
    39
  6
CONTINUOUS
 10
2.135197
 20
-0.668409
  0
VERTEX
  8
COUCHE1
 62
    39
  6
CONTINUOUS
 10
2.283732
 20
-0.816945
  0
VERTEX
  8
COUCHE1
 62
    39
  6
CONTINUOUS
 10
2.543669
 20
-0.798378
  0
VERTEX
  8
COUCHE1
 62
    39
  6
CONTINUOUS
 10
2.692205
 20
-0.686976
  0
VERTEX
  8
COUCHE1
 62
    39
  6
CONTINUOUS
 10
2.766472
 20
-0.408472
  0
VERTEX
  8
COUCHE1
 62
    39
  6
CONTINUOUS
 10
2.803606
 20
-0.278504
  0
VERTEX
  8
COUCHE1
 62
    39
  6
CONTINUOUS
 10
2.896441
 20
-0.315638
  0
VERTEX
  8
COUCHE1
 62
    39
  6
CONTINUOUS
 10
2.877874
 20
0.037134
  0
VERTEX
  8
COUCHE1
 62
    39
  6
CONTINUOUS
 10
2.766472
 20
0.501307
  0
VERTEX
  8
COUCHE1
 62
    39
  6
CONTINUOUS
 10
2.636504
 20
0.649843
  0
VERTEX
  8
COUCHE1
 62
    39
  6
CONTINUOUS
 10
2.450835
 20
0.705543
  0
VERTEX
  8
COUCHE1
 62
    39
  6
CONTINUOUS
 10
2.339433
 20
1.058315
  0
VERTEX
  8
COUCHE1
 62
    39
  6
CONTINUOUS
 10
2.023795
 20
1.485354
  0
VERTEX
  8
COUCHE1
 62
    39
  6
CONTINUOUS
 10
1.652457
 20
1.726724
  0
VERTEX
  8
COUCHE1
 62
    39
  6
CONTINUOUS
 10
1.076882
 20
1.856693
  0
VERTEX
  8
COUCHE1
 62
    39
  6
CONTINUOUS
 10
0.464173
 20
1.930961
  0
VERTEX
  8
COUCHE1
 62
    39
  6
CONTINUOUS
 10
-0.129969
 20
1.912394
  0
VERTEX
  8
COUCHE1
 62
    39
  6
CONTINUOUS
 10
-0.705543
 20
1.819559
  0
VERTEX
  8
COUCHE1
 62
    39
  6
CONTINUOUS
 10
-1.076882
 20
1.652457
  0
VERTEX
  8
COUCHE1
 62
    39
  6
CONTINUOUS
 10
-1.299685
 20
1.355386
  0
VERTEX
  8
COUCHE1
 62
    39
  6
CONTINUOUS
 10
-1.466787
 20
1.058315
  0
VERTEX
  8
COUCHE1
 62
    39
  6
CONTINUOUS
 10
-1.819559
 20
0.984047
  0
VERTEX
  8
COUCHE1
 62
    39
  6
CONTINUOUS
 10
-2.153764
 20
0.854079
  0
VERTEX
  8
COUCHE1
 62
    39
  6
CONTINUOUS
 10
-2.376567
 20
0.705543
  0
VERTEX
  8
COUCHE1
 62
    39
  6
CONTINUOUS
 10
-2.692205
 20
0.668409
  0
VERTEX
  8
COUCHE1
 62
    39
  6
CONTINUOUS
 10
-2.915008
 20
0.594142
  0
VERTEX
  8
COUCHE1
 62
    39
  6
CONTINUOUS
 10
-3.082110
 20
0.427039
  0
VERTEX
  8
COUCHE1
 62
    39
  6
CONTINUOUS
 10
-3.174945
 20
0.204236
  0
VERTEX
  8
COUCHE1
 62
    39
  6
CONTINUOUS
 10
-3.156378
 20
0.000000
  0
VERTEX
  8
COUCHE1
 62
    39
  6
CONTINUOUS
 10
-3.212079
 20
-0.129969
  0
VERTEX
  8
COUCHE1
 62
    39
  6
CONTINUOUS
 10
-3.063543
 20
-0.297071
  0
VERTEX
  8
COUCHE1
 62
    39
  6
CONTINUOUS
 10
-2.989276
 20
-0.501307
  0
VERTEX
  8
COUCHE1
 62
    39
  6
CONTINUOUS
 10
-2.915008
 20
-0.761244
  0
VERTEX
  8
COUCHE1
 62
    39
  6
CONTINUOUS
 10
-2.729339
 20
-0.909780
  0
VERTEX
  8
COUCHE1
 62
    39
  6
CONTINUOUS
 10
-2.487969
 20
-0.909780
  0
VERTEX
  8
COUCHE1
 62
    39
  6
CONTINUOUS
 10
-2.320866
 20
-0.854079
  0
VERTEX
  8
COUCHE1
 62
    39
  6
CONTINUOUS
 10
-2.153764
 20
-0.761244
  0
VERTEX
  8
COUCHE1
 62
    39
  6
CONTINUOUS
 10
-2.060929
 20
-0.649843
  0
VERTEX
  8
COUCHE1
 62
    39
  6
CONTINUOUS
 10
-1.838126
 20
-0.649843
  0
VERTEX
  8
COUCHE1
 62
    39
  6
CONTINUOUS
 10
-1.485354
 20
-0.724110
  0
VERTEX
  8
COUCHE1
 62
    39
  6
CONTINUOUS
 10
-1.206850
 20
-0.686976
  0
VERTEX
  8
COUCHE1
 62
    39
  6
CONTINUOUS
 10
-0.946913
 20
-0.686976
  0
VERTEX
  8
COUCHE1
 62
    39
  6
CONTINUOUS
 10
-0.724110
 20
-0.575575
  0
VERTEX
  8
COUCHE1
 62
    39
  6
CONTINUOUS
 10
-0.761244
 20
-0.779811
  0
VERTEX
  8
COUCHE1
 62
    39
  6
CONTINUOUS
 10
-0.649843
 20
-1.002614
  0
VERTEX
  8
COUCHE1
 62
    39
  6
CONTINUOUS
 10
-0.464173
 20
-1.114016
  0
VERTEX
  8
COUCHE1
 62
    39
  6
CONTINUOUS
 10
-0.259937
 20
-1.114016
  0
VERTEX
  8
COUCHE1
 62
    39
  6
CONTINUOUS
 10
0.000000
 20
-1.095449
  0
VERTEX
  8
COUCHE1
 62
    39
  6
CONTINUOUS
 10
0.222803
 20
-0.854079
  0
VERTEX
  8
COUCHE1
 62
    39
  6
CONTINUOUS
 10
0.297071
 20
-0.519874
  0
VERTEX
  8
COUCHE1
 62
    39
  6
CONTINUOUS
 10
0.278504
 20
-0.259937
  0
VERTEX
  8
COUCHE1
 62
    39
  6
CONTINUOUS
 10
0.148535
 20
0.018567
  0
VERTEX
  8
COUCHE1
 62
    39
  6
CONTINUOUS
 10
-0.111402
 20
0.167102
  0
VERTEX
  8
COUCHE1
 62
    39
  6
CONTINUOUS
 10
-0.259937
 20
0.185669
  0
VERTEX
  8
COUCHE1
 62
    39
  6
CONTINUOUS
 10
0.018567
 20
0.278504
  0
VERTEX
  8
COUCHE1
 62
    39
  6
CONTINUOUS
 10
0.241370
 20
0.204236
  0
VERTEX
  8
COUCHE1
 62
    39
  6
CONTINUOUS
 10
0.352772
 20
-0.018567
  0
VERTEX
  8
COUCHE1
 62
    39
  6
CONTINUOUS
 10
0.464173
 20
-0.297071
  0
VERTEX
  8
COUCHE1
 62
    39
  6
CONTINUOUS
 10
0.519874
 20
-0.519874
  0
SEQEND
  8
0
  0
POLYLINE
  8
COUCHE1
 62
    39
  6
CONTINUOUS
 66
     1
 40
0.003000
 41
0.003000
  0
VERTEX
  8
COUCHE1
 62
    39
  6
CONTINUOUS
 10
-2.172331
 20
0.204236
  0
VERTEX
  8
COUCHE1
 62
    39
  6
CONTINUOUS
 10
-2.265165
 20
0.129969
  0
VERTEX
  8
COUCHE1
 62
    39
  6
CONTINUOUS
 10
-2.302299
 20
-0.037134
  0
SEQEND
  8
0
  0
POLYLINE
  8
COUCHE1
 62
    39
  6
CONTINUOUS
 66
     1
 40
0.003000
 41
0.003000
  0
VERTEX
  8
COUCHE1
 62
    39
  6
CONTINUOUS
 10
-3.156378
 20
0.000000
  0
VERTEX
  8
COUCHE1
 62
    39
  6
CONTINUOUS
 10
-2.525102
 20
-0.111402
  0
SEQEND
  8
0
  0
POLYLINE
  8
COUCHE1
 62
    39
  6
CONTINUOUS
 66
     1
 40
0.003000
 41
0.003000
  0
VERTEX
  8
COUCHE1
 62
    39
  6
CONTINUOUS
 10
-3.082110
 20
-0.241370
  0
VERTEX
  8
COUCHE1
 62
    39
  6
CONTINUOUS
 10
-2.246598
 20
-0.389906
  0
VERTEX
  8
COUCHE1
 62
    39
  6
CONTINUOUS
 10
-1.819559
 20
-0.371339
  0
VERTEX
  8
COUCHE1
 62
    39
  6
CONTINUOUS
 10
-0.742677
 20
-0.408472
  0
VERTEX
  8
COUCHE1
 62
    39
  6
CONTINUOUS
 10
-0.631276
 20
-0.278504
  0
VERTEX
  8
COUCHE1
 62
    39
  6
CONTINUOUS
 10
-0.854079
 20
-0.129969
  0
VERTEX
  8
COUCHE1
 62
    39
  6
CONTINUOUS
 10
-1.689591
 20
-0.111402
  0
SEQEND
  8
0
  0
POLYLINE
  8
COUCHE1
 62
    39
  6
CONTINUOUS
 66
     1
 40
0.003000
 41
0.003000
 70
     1
  0
VERTEX
  8
COUCHE1
 62
    39
  6
CONTINUOUS
 10
0.092835
 20
-0.519950
  0
VERTEX
  8
COUCHE1
 62
    39
  6
CONTINUOUS
 10
0.092125
 20
-0.557924
  0
VERTEX
  8
COUCHE1
 62
    39
  6
CONTINUOUS
 10
0.090094
 20
-0.594045
  0
VERTEX
  8
COUCHE1
 62
    39
  6
CONTINUOUS
 10
0.086809
 20
-0.628313
  0
VERTEX
  8
COUCHE1
 62
    39
  6
CONTINUOUS
 10
0.082336
 20
-0.660729
  0
VERTEX
  8
COUCHE1
 62
    39
  6
CONTINUOUS
 10
0.076741
 20
-0.691292
  0
VERTEX
  8
COUCHE1
 62
    39
  6
CONTINUOUS
 10
0.070089
 20
-0.720002
  0
VERTEX
  8
COUCHE1
 62
    39
  6
CONTINUOUS
 10
0.062447
 20
-0.746860
  0
VERTEX
  8
COUCHE1
 62
    39
  6
CONTINUOUS
 10
0.053882
 20
-0.771865
  0
VERTEX
  8
COUCHE1
 62
    39
  6
CONTINUOUS
 10
0.044457
 20
-0.795017
  0
VERTEX
  8
COUCHE1
 62
    39
  6
CONTINUOUS
 10
0.034241
 20
-0.816317
  0
VERTEX
  8
COUCHE1
 62
    39
  6
CONTINUOUS
 10
0.023299
 20
-0.835764
  0
VERTEX
  8
COUCHE1
 62
    39
  6
CONTINUOUS
 10
0.011697
 20
-0.853358
  0
VERTEX
  8
COUCHE1
 62
    39
  6
CONTINUOUS
 10
-0.000499
 20
-0.869100
  0
VERTEX
  8
COUCHE1
 62
    39
  6
CONTINUOUS
 10
-0.013223
 20
-0.882990
  0
VERTEX
  8
COUCHE1
 62
    39
  6
CONTINUOUS
 10
-0.026408
 20
-0.895027
  0
VERTEX
  8
COUCHE1
 62
    39
  6
CONTINUOUS
 10
-0.039989
 20
-0.905211
  0
VERTEX
  8
COUCHE1
 62
    39
  6
CONTINUOUS
 10
-0.053901
 20
-0.913543
  0
VERTEX
  8
COUCHE1
 62
    39
  6
CONTINUOUS
 10
-0.068075
 20
-0.920023
  0
VERTEX
  8
COUCHE1
 62
    39
  6
CONTINUOUS
 10
-0.082448
 20
-0.924650
  0
VERTEX
  8
COUCHE1
 62
    39
  6
CONTINUOUS
 10
-0.096951
 20
-0.927424
  0
VERTEX
  8
COUCHE1
 62
    39
  6
CONTINUOUS
 10
-0.111521
 20
-0.928346
  0
VERTEX
  8
COUCHE1
 62
    39
  6
CONTINUOUS
 10
-0.126090
 20
-0.927416
  0
VERTEX
  8
COUCHE1
 62
    39
  6
CONTINUOUS
 10
-0.140592
 20
-0.924633
  0
VERTEX
  8
COUCHE1
 62
    39
  6
CONTINUOUS
 10
-0.154961
 20
-0.919998
  0
VERTEX
  8
COUCHE1
 62
    39
  6
CONTINUOUS
 10
-0.169132
 20
-0.913511
  0
VERTEX
  8
COUCHE1
 62
    39
  6
CONTINUOUS
 10
-0.183039
 20
-0.905171
  0
VERTEX
  8
COUCHE1
 62
    39
  6
CONTINUOUS
 10
-0.196614
 20
-0.894980
  0
VERTEX
  8
COUCHE1
 62
    39
  6
CONTINUOUS
 10
-0.209792
 20
-0.882935
  0
VERTEX
  8
COUCHE1
 62
    39
  6
CONTINUOUS
 10
-0.222508
 20
-0.869039
  0
VERTEX
  8
COUCHE1
 62
    39
  6
CONTINUOUS
 10
-0.234695
 20
-0.853290
  0
VERTEX
  8
COUCHE1
 62
    39
  6
CONTINUOUS
 10
-0.246287
 20
-0.835689
  0
VERTEX
  8
COUCHE1
 62
    39
  6
CONTINUOUS
 10
-0.257217
 20
-0.816236
  0
VERTEX
  8
COUCHE1
 62
    39
  6
CONTINUOUS
 10
-0.267421
 20
-0.794930
  0
VERTEX
  8
COUCHE1
 62
    39
  6
CONTINUOUS
 10
-0.276832
 20
-0.771773
  0
VERTEX
  8
COUCHE1
 62
    39
  6
CONTINUOUS
 10
-0.285383
 20
-0.746763
  0
VERTEX
  8
COUCHE1
 62
    39
  6
CONTINUOUS
 10
-0.293009
 20
-0.719901
  0
VERTEX
  8
COUCHE1
 62
    39
  6
CONTINUOUS
 10
-0.299644
 20
-0.691187
  0
VERTEX
  8
COUCHE1
 62
    39
  6
CONTINUOUS
 10
-0.305222
 20
-0.660621
  0
VERTEX
  8
COUCHE1
 62
    39
  6
CONTINUOUS
 10
-0.309676
 20
-0.628203
  0
VERTEX
  8
COUCHE1
 62
    39
  6
CONTINUOUS
 10
-0.312941
 20
-0.593933
  0
VERTEX
  8
COUCHE1
 62
    39
  6
CONTINUOUS
 10
-0.314950
 20
-0.557810
  0
VERTEX
  8
COUCHE1
 62
    39
  6
CONTINUOUS
 10
-0.315638
 20
-0.519836
  0
VERTEX
  8
COUCHE1
 62
    39
  6
CONTINUOUS
 10
-0.315638
 20
-0.519836
  0
VERTEX
  8
COUCHE1
 62
    39
  6
CONTINUOUS
 10
-0.314930
 20
-0.481862
  0
VERTEX
  8
COUCHE1
 62
    39
  6
CONTINUOUS
 10
-0.312901
 20
-0.445741
  0
VERTEX
  8
COUCHE1
 62
    39
  6
CONTINUOUS
 10
-0.309618
 20
-0.411472
  0
VERTEX
  8
COUCHE1
 62
    39
  6
CONTINUOUS
 10
-0.305146
 20
-0.379055
  0
VERTEX
  8
COUCHE1
 62
    39
  6
CONTINUOUS
 10
-0.299552
 20
-0.348491
  0
VERTEX
  8
COUCHE1
 62
    39
  6
CONTINUOUS
 10
-0.292902
 20
-0.319779
  0
VERTEX
  8
COUCHE1
 62
    39
  6
CONTINUOUS
 10
-0.285261
 20
-0.292920
  0
VERTEX
  8
COUCHE1
 62
    39
  6
CONTINUOUS
 10
-0.276696
 20
-0.267914
  0
VERTEX
  8
COUCHE1
 62
    39
  6
CONTINUOUS
 10
-0.267273
 20
-0.244760
  0
VERTEX
  8
COUCHE1
 62
    39
  6
CONTINUOUS
 10
-0.257058
 20
-0.223458
  0
VERTEX
  8
COUCHE1
 62
    39
  6
CONTINUOUS
 10
-0.246117
 20
-0.204009
  0
VERTEX
  8
COUCHE1
 62
    39
  6
CONTINUOUS
 10
-0.234516
 20
-0.186412
  0
VERTEX
  8
COUCHE1
 62
    39
  6
CONTINUOUS
 10
-0.222321
 20
-0.170668
  0
VERTEX
  8
COUCHE1
 62
    39
  6
CONTINUOUS
 10
-0.209597
 20
-0.156776
  0
VERTEX
  8
COUCHE1
 62
    39
  6
CONTINUOUS
 10
-0.196412
 20
-0.144737
  0
VERTEX
  8
COUCHE1
 62
    39
  6
CONTINUOUS
 10
-0.182832
 20
-0.134550
  0
VERTEX
  8
COUCHE1
 62
    39
  6
CONTINUOUS
 10
-0.168921
 20
-0.126216
  0
VERTEX
  8
COUCHE1
 62
    39
  6
CONTINUOUS
 10
-0.154746
 20
-0.119733
  0
VERTEX
  8
COUCHE1
 62
    39
  6
CONTINUOUS
 10
-0.140374
 20
-0.115104
  0
VERTEX
  8
COUCHE1
 62
    39
  6
CONTINUOUS
 10
-0.125871
 20
-0.112327
  0
VERTEX
  8
COUCHE1
 62
    39
  6
CONTINUOUS
 10
-0.111301
 20
-0.111402
  0
VERTEX
  8
COUCHE1
 62
    39
  6
CONTINUOUS
 10
-0.096732
 20
-0.112329
  0
VERTEX
  8
COUCHE1
 62
    39
  6
CONTINUOUS
 10
-0.082230
 20
-0.115109
  0
VERTEX
  8
COUCHE1
 62
    39
  6
CONTINUOUS
 10
-0.067860
 20
-0.119742
  0
VERTEX
  8
COUCHE1
 62
    39
  6
CONTINUOUS
 10
-0.053689
 20
-0.126226
  0
VERTEX
  8
COUCHE1
 62
    39
  6
CONTINUOUS
 10
-0.039782
 20
-0.134563
  0
VERTEX
  8
COUCHE1
 62
    39
  6
CONTINUOUS
 10
-0.026207
 20
-0.144753
  0
VERTEX
  8
COUCHE1
 62
    39
  6
CONTINUOUS
 10
-0.013028
 20
-0.156795
  0
VERTEX
  8
COUCHE1
 62
    39
  6
CONTINUOUS
 10
-0.000311
 20
-0.170689
  0
VERTEX
  8
COUCHE1
 62
    39
  6
CONTINUOUS
 10
0.011876
 20
-0.186435
  0
VERTEX
  8
COUCHE1
 62
    39
  6
CONTINUOUS
 10
0.023469
 20
-0.204034
  0
VERTEX
  8
COUCHE1
 62
    39
  6
CONTINUOUS
 10
0.034401
 20
-0.223485
  0
VERTEX
  8
COUCHE1
 62
    39
  6
CONTINUOUS
 10
0.044605
 20
-0.244789
  0
VERTEX
  8
COUCHE1
 62
    39
  6
CONTINUOUS
 10
0.054017
 20
-0.267945
  0
VERTEX
  8
COUCHE1
 62
    39
  6
CONTINUOUS
 10
0.062569
 20
-0.292953
  0
VERTEX
  8
COUCHE1
 62
    39
  6
CONTINUOUS
 10
0.070197
 20
-0.319813
  0
VERTEX
  8
COUCHE1
 62
    39
  6
CONTINUOUS
 10
0.076833
 20
-0.348526
  0
VERTEX
  8
COUCHE1
 62
    39
  6
CONTINUOUS
 10
0.082412
 20
-0.379091
  0
VERTEX
  8
COUCHE1
 62
    39
  6
CONTINUOUS
 10
0.086868
 20
-0.411508
  0
VERTEX
  8
COUCHE1
 62
    39
  6
CONTINUOUS
 10
0.090134
 20
-0.445778
  0
VERTEX
  8
COUCHE1
 62
    39
  6
CONTINUOUS
 10
0.092145
 20
-0.481900
  0
VERTEX
  8
COUCHE1
 62
    39
  6
CONTINUOUS
 10
0.092835
 20
-0.519874
  0
SEQEND
  8
0
  0
POLYLINE
  8
COUCHE1
 62
    39
  6
CONTINUOUS
 66
     1
 40
0.003000
 41
0.003000
 70
     1
  0
VERTEX
  8
COUCHE1
 62
    39
  6
CONTINUOUS
 10
2.710772
 20
-0.204298
  0
VERTEX
  8
COUCHE1
 62
    39
  6
CONTINUOUS
 10
2.709898
 20
-0.241400
  0
VERTEX
  8
COUCHE1
 62
    39
  6
CONTINUOUS
 10
2.707399
 20
-0.276318
  0
VERTEX
  8
COUCHE1
 62
    39
  6
CONTINUOUS
 10
2.703372
 20
-0.309054
  0
VERTEX
  8
COUCHE1
 62
    39
  6
CONTINUOUS
 10
2.697917
 20
-0.339607
  0
VERTEX
  8
COUCHE1
 62
    39
  6
CONTINUOUS
 10
2.691131
 20
-0.367977
  0
VERTEX
  8
COUCHE1
 62
    39
  6
CONTINUOUS
 10
2.683115
 20
-0.394165
  0
VERTEX
  8
COUCHE1
 62
    39
  6
CONTINUOUS
 10
2.673965
 20
-0.418170
  0
VERTEX
  8
COUCHE1
 62
    39
  6
CONTINUOUS
 10
2.663781
 20
-0.439991
  0
VERTEX
  8
COUCHE1
 62
    39
  6
CONTINUOUS
 10
2.652661
 20
-0.459631
  0
VERTEX
  8
COUCHE1
 62
    39
  6
CONTINUOUS
 10
2.640704
 20
-0.477087
  0
VERTEX
  8
COUCHE1
 62
    39
  6
CONTINUOUS
 10
2.628008
 20
-0.492361
  0
VERTEX
  8
COUCHE1
 62
    39
  6
CONTINUOUS
 10
2.614673
 20
-0.505452
  0
VERTEX
  8
COUCHE1
 62
    39
  6
CONTINUOUS
 10
2.600796
 20
-0.516361
  0
VERTEX
  8
COUCHE1
 62
    39
  6
CONTINUOUS
 10
2.586475
 20
-0.525087
  0
VERTEX
  8
COUCHE1
 62
    39
  6
CONTINUOUS
 10
2.571811
 20
-0.531631
  0
VERTEX
  8
COUCHE1
 62
    39
  6
CONTINUOUS
 10
2.556901
 20
-0.535991
  0
VERTEX
  8
COUCHE1
 62
    39
  6
CONTINUOUS
 10
2.541843
 20
-0.538170
  0
VERTEX
  8
COUCHE1
 62
    39
  6
CONTINUOUS
 10
2.526737
 20
-0.538166
  0
VERTEX
  8
COUCHE1
 62
    39
  6
CONTINUOUS
 10
2.511681
 20
-0.535980
  0
VERTEX
  8
COUCHE1
 62
    39
  6
CONTINUOUS
 10
2.496773
 20
-0.531611
  0
VERTEX
  8
COUCHE1
 62
    39
  6
CONTINUOUS
 10
2.482112
 20
-0.525060
  0
VERTEX
  8
COUCHE1
 62
    39
  6
CONTINUOUS
 10
2.467797
 20
-0.516326
  0
VERTEX
  8
COUCHE1
 62
    39
  6
CONTINUOUS
 10
2.453926
 20
-0.505410
  0
VERTEX
  8
COUCHE1
 62
    39
  6
CONTINUOUS
 10
2.440598
 20
-0.492312
  0
VERTEX
  8
COUCHE1
 62
    39
  6
CONTINUOUS
 10
2.427911
 20
-0.477031
  0
VERTEX
  8
COUCHE1
 62
    39
  6
CONTINUOUS
 10
2.415964
 20
-0.459568
  0
VERTEX
  8
COUCHE1
 62
    39
  6
CONTINUOUS
 10
2.404855
 20
-0.439923
  0
VERTEX
  8
COUCHE1
 62
    39
  6
CONTINUOUS
 10
2.394684
 20
-0.418096
  0
VERTEX
  8
COUCHE1
 62
    39
  6
CONTINUOUS
 10
2.385548
 20
-0.394086
  0
VERTEX
  8
COUCHE1
 62
    39
  6
CONTINUOUS
 10
2.377546
 20
-0.367895
  0
VERTEX
  8
COUCHE1
 62
    39
  6
CONTINUOUS
 10
2.370777
 20
-0.339521
  0
VERTEX
  8
COUCHE1
 62
    39
  6
CONTINUOUS
 10
2.365340
 20
-0.308965
  0
VERTEX
  8
COUCHE1
 62
    39
  6
CONTINUOUS
 10
2.361332
 20
-0.276227
  0
VERTEX
  8
COUCHE1
 62
    39
  6
CONTINUOUS
 10
2.358852
 20
-0.241307
  0
VERTEX
  8
COUCHE1
 62
    39
  6
CONTINUOUS
 10
2.358000
 20
-0.204205
  0
VERTEX
  8
COUCHE1
 62
    39
  6
CONTINUOUS
 10
2.358000
 20
-0.204205
  0
VERTEX
  8
COUCHE1
 62
    39
  6
CONTINUOUS
 10
2.358872
 20
-0.167104
  0
VERTEX
  8
COUCHE1
 62
    39
  6
CONTINUOUS
 10
2.361370
 20
-0.132184
  0
VERTEX
  8
COUCHE1
 62
    39
  6
CONTINUOUS
 10
2.365395
 20
-0.099448
  0
VERTEX
  8
COUCHE1
 62
    39
  6
CONTINUOUS
 10
2.370848
 20
-0.068894
  0
VERTEX
  8
COUCHE1
 62
    39
  6
CONTINUOUS
 10
2.377632
 20
-0.040523
  0
VERTEX
  8
COUCHE1
 62
    39
  6
CONTINUOUS
 10
2.385648
 20
-0.014334
  0
VERTEX
  8
COUCHE1
 62
    39
  6
CONTINUOUS
 10
2.394796
 20
0.009673
  0
VERTEX
  8
COUCHE1
 62
    39
  6
CONTINUOUS
 10
2.404979
 20
0.031496
  0
VERTEX
  8
COUCHE1
 62
    39
  6
CONTINUOUS
 10
2.416098
 20
0.051137
  0
VERTEX
  8
COUCHE1
 62
    39
  6
CONTINUOUS
 10
2.428054
 20
0.068596
  0
VERTEX
  8
COUCHE1
 62
    39
  6
CONTINUOUS
 10
2.440749
 20
0.083872
  0
VERTEX
  8
COUCHE1
 62
    39
  6
CONTINUOUS
 10
2.454084
 20
0.096966
  0
VERTEX
  8
COUCHE1
 62
    39
  6
CONTINUOUS
 10
2.467961
 20
0.107877
  0
VERTEX
  8
COUCHE1
 62
    39
  6
CONTINUOUS
 10
2.482281
 20
0.116605
  0
VERTEX
  8
COUCHE1
 62
    39
  6
CONTINUOUS
 10
2.496945
 20
0.123151
  0
VERTEX
  8
COUCHE1
 62
    39
  6
CONTINUOUS
 10
2.511855
 20
0.127515
  0
VERTEX
  8
COUCHE1
 62
    39
  6
CONTINUOUS
 10
2.526912
 20
0.129696
  0
VERTEX
  8
COUCHE1
 62
    39
  6
CONTINUOUS
 10
2.542018
 20
0.129695
  0
VERTEX
  8
COUCHE1
 62
    39
  6
CONTINUOUS
 10
2.557075
 20
0.127511
  0
VERTEX
  8
COUCHE1
 62
    39
  6
CONTINUOUS
 10
2.571983
 20
0.123145
  0
VERTEX
  8
COUCHE1
 62
    39
  6
CONTINUOUS
 10
2.586644
 20
0.116596
  0
VERTEX
  8
COUCHE1
 62
    39
  6
CONTINUOUS
 10
2.600959
 20
0.107865
  0
VERTEX
  8
COUCHE1
 62
    39
  6
CONTINUOUS
 10
2.614831
 20
0.096952
  0
VERTEX
  8
COUCHE1
 62
    39
  6
CONTINUOUS
 10
2.628160
 20
0.083856
  0
VERTEX
  8
COUCHE1
 62
    39
  6
CONTINUOUS
 10
2.640847
 20
0.068577
  0
VERTEX
  8
COUCHE1
 62
    39
  6
CONTINUOUS
 10
2.652795
 20
0.051117
  0
VERTEX
  8
COUCHE1
 62
    39
  6
CONTINUOUS
 10
2.663905
 20
0.031474
  0
VERTEX
  8
COUCHE1
 62
    39
  6
CONTINUOUS
 10
2.674077
 20
0.009648
  0
VERTEX
  8
COUCHE1
 62
    39
  6
CONTINUOUS
 10
2.683214
 20
-0.014360
  0
VERTEX
  8
COUCHE1
 62
    39
  6
CONTINUOUS
 10
2.691217
 20
-0.040550
  0
VERTEX
  8
COUCHE1
 62
    39
  6
CONTINUOUS
 10
2.697988
 20
-0.068923
  0
VERTEX
  8
COUCHE1
 62
    39
  6
CONTINUOUS
 10
2.703427
 20
-0.099478
  0
VERTEX
  8
COUCHE1
 62
    39
  6
CONTINUOUS
 10
2.707436
 20
-0.132215
  0
VERTEX
  8
COUCHE1
 62
    39
  6
CONTINUOUS
 10
2.709917
 20
-0.167134
  0
VERTEX
  8
COUCHE1
 62
    39
  6
CONTINUOUS
 10
2.710772
 20
-0.204236
  0
SEQEND
  8
0
  0
POLYLINE
  8
COUCHE1
 62
    39
  6
CONTINUOUS
 66
     1
 40
0.003000
 41
0.003000
 70
     1
  0
VERTEX
  8
COUCHE1
 62
    39
  6
CONTINUOUS
 10
-2.729339
 20
0.278476
  0
VERTEX
  8
COUCHE1
 62
    39
  6
CONTINUOUS
 10
-2.731788
 20
0.250256
  0
VERTEX
  8
COUCHE1
 62
    39
  6
CONTINUOUS
 10
-2.738741
 20
0.225007
  0
VERTEX
  8
COUCHE1
 62
    39
  6
CONTINUOUS
 10
-2.749698
 20
0.202729
  0
VERTEX
  8
COUCHE1
 62
    39
  6
CONTINUOUS
 10
-2.764157
 20
0.183422
  0
VERTEX
  8
COUCHE1
 62
    39
  6
CONTINUOUS
 10
-2.781620
 20
0.167086
  0
VERTEX
  8
COUCHE1
 62
    39
  6
CONTINUOUS
 10
-2.801584
 20
0.153721
  0
VERTEX
  8
COUCHE1
 62
    39
  6
CONTINUOUS
 10
-2.823550
 20
0.143327
  0
VERTEX
  8
COUCHE1
 62
    39
  6
CONTINUOUS
 10
-2.847017
 20
0.135904
  0
VERTEX
  8
COUCHE1
 62
    39
  6
CONTINUOUS
 10
-2.871484
 20
0.131451
  0
VERTEX
  8
COUCHE1
 62
    39
  6
CONTINUOUS
 10
-2.896452
 20
0.129969
  0
VERTEX
  8
COUCHE1
 62
    39
  6
CONTINUOUS
 10
-2.921420
 20
0.131457
  0
VERTEX
  8
COUCHE1
 62
    39
  6
CONTINUOUS
 10
-2.945887
 20
0.135916
  0
VERTEX
  8
COUCHE1
 62
    39
  6
CONTINUOUS
 10
-2.969353
 20
0.143345
  0
VERTEX
  8
COUCHE1
 62
    39
  6
CONTINUOUS
 10
-2.991317
 20
0.153745
  0
VERTEX
  8
COUCHE1
 62
    39
  6
CONTINUOUS
 10
-3.011280
 20
0.167115
  0
VERTEX
  8
COUCHE1
 62
    39
  6
CONTINUOUS
 10
-3.028739
 20
0.183455
  0
VERTEX
  8
COUCHE1
 62
    39
  6
CONTINUOUS
 10
-3.043196
 20
0.202766
  0
VERTEX
  8
COUCHE1
 62
    39
  6
CONTINUOUS
 10
-3.054149
 20
0.225046
  0
VERTEX
  8
COUCHE1
 62
    39
  6
CONTINUOUS
 10
-3.061098
 20
0.250297
  0
VERTEX
  8
COUCHE1
 62
    39
  6
CONTINUOUS
 10
-3.063543
 20
0.278518
  0
VERTEX
  8
COUCHE1
 62
    39
  6
CONTINUOUS
 10
-3.063543
 20
0.278518
  0
VERTEX
  8
COUCHE1
 62
    39
  6
CONTINUOUS
 10
-3.061097
 20
0.306738
  0
VERTEX
  8
COUCHE1
 62
    39
  6
CONTINUOUS
 10
-3.054146
 20
0.331988
  0
VERTEX
  8
COUCHE1
 62
    39
  6
CONTINUOUS
 10
-3.043192
 20
0.354266
  0
VERTEX
  8
COUCHE1
 62
    39
  6
CONTINUOUS
 10
-3.028734
 20
0.373575
  0
VERTEX
  8
COUCHE1
 62
    39
  6
CONTINUOUS
 10
-3.011274
 20
0.389912
  0
VERTEX
  8
COUCHE1
 62
    39
  6
CONTINUOUS
 10
-2.991311
 20
0.403279
  0
VERTEX
  8
COUCHE1
 62
    39
  6
CONTINUOUS
 10
-2.969346
 20
0.413675
  0
VERTEX
  8
COUCHE1
 62
    39
  6
CONTINUOUS
 10
-2.945880
 20
0.421100
  0
VERTEX
  8
COUCHE1
 62
    39
  6
CONTINUOUS
 10
-2.921413
 20
0.425555
  0
VERTEX
  8
COUCHE1
 62
    39
  6
CONTINUOUS
 10
-2.896445
 20
0.427039
  0
VERTEX
  8
COUCHE1
 62
    39
  6
CONTINUOUS
 10
-2.871477
 20
0.425553
  0
VERTEX
  8
COUCHE1
 62
    39
  6
CONTINUOUS
 10
-2.847009
 20
0.421096
  0
VERTEX
  8
COUCHE1
 62
    39
  6
CONTINUOUS
 10
-2.823543
 20
0.413669
  0
VERTEX
  8
COUCHE1
 62
    39
  6
CONTINUOUS
 10
-2.801577
 20
0.403271
  0
VERTEX
  8
COUCHE1
 62
    39
  6
CONTINUOUS
 10
-2.781614
 20
0.389902
  0
VERTEX
  8
COUCHE1
 62
    39
  6
CONTINUOUS
 10
-2.764152
 20
0.373564
  0
VERTEX
  8
COUCHE1
 62
    39
  6
CONTINUOUS
 10
-2.749694
 20
0.354254
  0
VERTEX
  8
COUCHE1
 62
    39
  6
CONTINUOUS
 10
-2.738738
 20
0.331975
  0
VERTEX
  8
COUCHE1
 62
    39
  6
CONTINUOUS
 10
-2.731786
 20
0.306724
  0
VERTEX
  8
COUCHE1
 62
    39
  6
CONTINUOUS
 10
-2.729339
 20
0.278504
  0
SEQEND
  8
0
  0
POLYLINE
  8
COUCHE1
 62
    39
  6
CONTINUOUS
 66
     1
 40
0.003000
 41
0.003000
 70
     1
  0
VERTEX
  8
COUCHE1
 62
    39
  6
CONTINUOUS
 10
-0.891213
 20
0.111374
  0
VERTEX
  8
COUCHE1
 62
    39
  6
CONTINUOUS
 10
-0.893662
 20
0.083154
  0
VERTEX
  8
COUCHE1
 62
    39
  6
CONTINUOUS
 10
-0.900615
 20
0.057905
  0
VERTEX
  8
COUCHE1
 62
    39
  6
CONTINUOUS
 10
-0.911572
 20
0.035627
  0
VERTEX
  8
COUCHE1
 62
    39
  6
CONTINUOUS
 10
-0.926031
 20
0.016320
  0
VERTEX
  8
COUCHE1
 62
    39
  6
CONTINUOUS
 10
-0.943494
 20
-0.000016
  0
VERTEX
  8
COUCHE1
 62
    39
  6
CONTINUOUS
 10
-0.963458
 20
-0.013381
  0
VERTEX
  8
COUCHE1
 62
    39
  6
CONTINUOUS
 10
-0.985424
 20
-0.023775
  0
VERTEX
  8
COUCHE1
 62
    39
  6
CONTINUOUS
 10
-1.008891
 20
-0.031199
  0
VERTEX
  8
COUCHE1
 62
    39
  6
CONTINUOUS
 10
-1.033359
 20
-0.035652
  0
VERTEX
  8
COUCHE1
 62
    39
  6
CONTINUOUS
 10
-1.058326
 20
-0.037134
  0
VERTEX
  8
COUCHE1
 62
    39
  6
CONTINUOUS
 10
-1.083294
 20
-0.035645
  0
VERTEX
  8
COUCHE1
 62
    39
  6
CONTINUOUS
 10
-1.107761
 20
-0.031187
  0
VERTEX
  8
COUCHE1
 62
    39
  6
CONTINUOUS
 10
-1.131227
 20
-0.023757
  0
VERTEX
  8
COUCHE1
 62
    39
  6
CONTINUOUS
 10
-1.153191
 20
-0.013358
  0
VERTEX
  8
COUCHE1
 62
    39
  6
CONTINUOUS
 10
-1.173154
 20
0.000013
  0
VERTEX
  8
COUCHE1
 62
    39
  6
CONTINUOUS
 10
-1.190613
 20
0.016353
  0
VERTEX
  8
COUCHE1
 62
    39
  6
CONTINUOUS
 10
-1.205070
 20
0.035663
  0
VERTEX
  8
COUCHE1
 62
    39
  6
CONTINUOUS
 10
-1.216023
 20
0.057944
  0
VERTEX
  8
COUCHE1
 62
    39
  6
CONTINUOUS
 10
-1.222972
 20
0.083195
  0
VERTEX
  8
COUCHE1
 62
    39
  6
CONTINUOUS
 10
-1.225417
 20
0.111415
  0
VERTEX
  8
COUCHE1
 62
    39
  6
CONTINUOUS
 10
-1.225417
 20
0.111415
  0
VERTEX
  8
COUCHE1
 62
    39
  6
CONTINUOUS
 10
-1.222971
 20
0.139636
  0
VERTEX
  8
COUCHE1
 62
    39
  6
CONTINUOUS
 10
-1.216020
 20
0.164885
  0
VERTEX
  8
COUCHE1
 62
    39
  6
CONTINUOUS
 10
-1.205066
 20
0.187164
  0
VERTEX
  8
COUCHE1
 62
    39
  6
CONTINUOUS
 10
-1.190608
 20
0.206472
  0
VERTEX
  8
COUCHE1
 62
    39
  6
CONTINUOUS
 10
-1.173148
 20
0.222810
  0
VERTEX
  8
COUCHE1
 62
    39
  6
CONTINUOUS
 10
-1.153185
 20
0.236176
  0
VERTEX
  8
COUCHE1
 62
    39
  6
CONTINUOUS
 10
-1.131220
 20
0.246572
  0
VERTEX
  8
COUCHE1
 62
    39
  6
CONTINUOUS
 10
-1.107754
 20
0.253998
  0
VERTEX
  8
COUCHE1
 62
    39
  6
CONTINUOUS
 10
-1.083287
 20
0.258453
  0
VERTEX
  8
COUCHE1
 62
    39
  6
CONTINUOUS
 10
-1.058319
 20
0.259937
  0
VERTEX
  8
COUCHE1
 62
    39
  6
CONTINUOUS
 10
-1.033351
 20
0.258451
  0
VERTEX
  8
COUCHE1
 62
    39
  6
CONTINUOUS
 10
-1.008883
 20
0.253994
  0
VERTEX
  8
COUCHE1
 62
    39
  6
CONTINUOUS
 10
-0.985417
 20
0.246566
  0
VERTEX
  8
COUCHE1
 62
    39
  6
CONTINUOUS
 10
-0.963451
 20
0.236168
  0
VERTEX
  8
COUCHE1
 62
    39
  6
CONTINUOUS
 10
-0.943488
 20
0.222800
  0
VERTEX
  8
COUCHE1
 62
    39
  6
CONTINUOUS
 10
-0.926026
 20
0.206461
  0
VERTEX
  8
COUCHE1
 62
    39
  6
CONTINUOUS
 10
-0.911568
 20
0.187152
  0
VERTEX
  8
COUCHE1
 62
    39
  6
CONTINUOUS
 10
-0.900612
 20
0.164872
  0
VERTEX
  8
COUCHE1
 62
    39
  6
CONTINUOUS
 10
-0.893660
 20
0.139622
  0
VERTEX
  8
COUCHE1
 62
    39
  6
CONTINUOUS
 10
-0.891213
 20
0.111402
  0
SEQEND
  8
0
  0
POLYLINE
  8
COUCHE1
 62
    39
  6
CONTINUOUS
 66
     1
 40
0.003000
 41
0.003000
  0
VERTEX
  8
COUCHE1
 62
    39
  6
CONTINUOUS
 10
-2.358000
 20
0.724110
  0
VERTEX
  8
COUCHE1
 62
    39
  6
CONTINUOUS
 10
-2.543669
 20
0.389906
  0
VERTEX
  8
COUCHE1
 62
    39
  6
CONTINUOUS
 10
-2.562236
 20
0.111402
  0
VERTEX
  8
COUCHE1
 62
    39
  6
CONTINUOUS
 10
-2.450835
 20
-0.185669
  0
VERTEX
  8
COUCHE1
 62
    39
  6
CONTINUOUS
 10
-2.265165
 20
-0.222803
  0
VERTEX
  8
COUCHE1
 62
    39
  6
CONTINUOUS
 10
-1.893827
 20
-0.222803
  0
VERTEX
  8
COUCHE1
 62
    39
  6
CONTINUOUS
 10
-1.596756
 20
-0.037134
  0
VERTEX
  8
COUCHE1
 62
    39
  6
CONTINUOUS
 10
-1.299685
 20
0.259937
  0
VERTEX
  8
COUCHE1
 62
    39
  6
CONTINUOUS
 10
-0.872646
 20
0.519874
  0
VERTEX
  8
COUCHE1
 62
    39
  6
CONTINUOUS
 10
-0.612709
 20
0.668409
  0
VERTEX
  8
COUCHE1
 62
    39
  6
CONTINUOUS
 10
-0.148535
 20
0.724110
  0
VERTEX
  8
COUCHE1
 62
    39
  6
CONTINUOUS
 10
0.334205
 20
0.798378
  0
VERTEX
  8
COUCHE1
 62
    39
  6
CONTINUOUS
 10
0.352772
 20
0.965480
  0
VERTEX
  8
COUCHE1
 62
    39
  6
CONTINUOUS
 10
0.204236
 20
1.021181
  0
VERTEX
  8
COUCHE1
 62
    39
  6
CONTINUOUS
 10
-0.278504
 20
1.114016
  0
VERTEX
  8
COUCHE1
 62
    39
  6
CONTINUOUS
 10
-0.724110
 20
1.114016
  0
VERTEX
  8
COUCHE1
 62
    39
  6
CONTINUOUS
 10
-1.243984
 20
1.114016
  0
VERTEX
  8
COUCHE1
 62
    39
  6
CONTINUOUS
 10
-1.485354
 20
1.058315
  0
SEQEND
  8
0
  0
POLYLINE
  8
COUCHE1
 62
    39
  6
CONTINUOUS
 66
     1
 40
0.003000
 41
0.003000
  0
VERTEX
  8
COUCHE1
 62
    39
  6
CONTINUOUS
 10
0.259937
 20
1.002614
  0
VERTEX
  8
COUCHE1
 62
    39
  6
CONTINUOUS
 10
0.427039
 20
1.169717
  0
VERTEX
  8
COUCHE1
 62
    39
  6
CONTINUOUS
 10
0.482740
 20
1.373953
  0
VERTEX
  8
COUCHE1
 62
    39
  6
CONTINUOUS
 10
0.519874
 20
1.596756
  0
VERTEX
  8
COUCHE1
 62
    39
  6
CONTINUOUS
 10
0.315638
 20
1.726724
  0
VERTEX
  8
COUCHE1
 62
    39
  6
CONTINUOUS
 10
0.074268
 20
1.726724
  0
VERTEX
  8
COUCHE1
 62
    39
  6
CONTINUOUS
 10
-0.259937
 20
1.782425
  0
VERTEX
  8
COUCHE1
 62
    39
  6
CONTINUOUS
 10
-0.891213
 20
1.708157
  0
SEQEND
  8
0
  0
POLYLINE
  8
COUCHE1
 62
    39
  6
CONTINUOUS
 66
     1
 40
0.003000
 41
0.003000
  0
VERTEX
  8
COUCHE1
 62
    39
  6
CONTINUOUS
 10
1.763858
 20
1.652457
  0
VERTEX
  8
COUCHE1
 62
    39
  6
CONTINUOUS
 10
1.373953
 20
1.652457
  0
VERTEX
  8
COUCHE1
 62
    39
  6
CONTINUOUS
 10
0.891213
 20
1.615323
  0
VERTEX
  8
COUCHE1
 62
    39
  6
CONTINUOUS
 10
0.631276
 20
1.485354
  0
VERTEX
  8
COUCHE1
 62
    39
  6
CONTINUOUS
 10
0.575575
 20
1.188283
  0
VERTEX
  8
COUCHE1
 62
    39
  6
CONTINUOUS
 10
0.501307
 20
0.779811
  0
VERTEX
  8
COUCHE1
 62
    39
  6
CONTINUOUS
 10
0.501307
 20
0.445606
  0
VERTEX
  8
COUCHE1
 62
    39
  6
CONTINUOUS
 10
0.519874
 20
0.148535
  0
SEQEND
  8
0
  0
POLYLINE
  8
COUCHE1
 62
    39
  6
CONTINUOUS
 66
     1
 40
0.003000
 41
0.003000
  0
VERTEX
  8
COUCHE1
 62
    39
  6
CONTINUOUS
 10
0.594142
 20
-0.612709
  0
VERTEX
  8
COUCHE1
 62
    39
  6
CONTINUOUS
 10
0.594142
 20
-0.297071
  0
VERTEX
  8
COUCHE1
 62
    39
  6
CONTINUOUS
 10
0.482740
 20
0.148535
  0
VERTEX
  8
COUCHE1
 62
    39
  6
CONTINUOUS
 10
0.129969
 20
0.427039
  0
VERTEX
  8
COUCHE1
 62
    39
  6
CONTINUOUS
 10
-0.185669
 20
0.575575
  0
VERTEX
  8
COUCHE1
 62
    39
  6
CONTINUOUS
 10
-0.742677
 20
0.594142
  0
SEQEND
  8
0
  0
POLYLINE
  8
COUCHE1
 62
    39
  6
CONTINUOUS
 66
     1
 40
0.003000
 41
0.003000
  0
VERTEX
  8
COUCHE1
 62
    39
  6
CONTINUOUS
 10
-0.761244
 20
-0.612709
  0
VERTEX
  8
COUCHE1
 62
    39
  6
CONTINUOUS
 10
-0.482740
 20
-0.352772
  0
VERTEX
  8
COUCHE1
 62
    39
  6
CONTINUOUS
 10
-0.445606
 20
-0.018567
  0
VERTEX
  8
COUCHE1
 62
    39
  6
CONTINUOUS
 10
-0.259937
 20
0.222803
  0
SEQEND
  8
0
  0
POLYLINE
  8
COUCHE1
 62
    39
  6
CONTINUOUS
 66
     1
 40
0.003000
 41
0.003000
  0
VERTEX
  8
COUCHE1
 62
    39
  6
CONTINUOUS
 10
0.594142
 20
-0.445606
  0
VERTEX
  8
COUCHE1
 62
    39
  6
CONTINUOUS
 10
2.023795
 20
-0.278504
  0
VERTEX
  8
COUCHE1
 62
    39
  6
CONTINUOUS
 10
2.172331
 20
0.259937
  0
VERTEX
  8
COUCHE1
 62
    39
  6
CONTINUOUS
 10
2.302299
 20
0.631276
  0
VERTEX
  8
COUCHE1
 62
    39
  6
CONTINUOUS
 10
2.469402
 20
0.686976
  0
SEQEND
  8
0
  0
POLYLINE
  8
COUCHE1
 62
    39
  6
CONTINUOUS
 66
     1
 40
0.003000
 41
0.003000
  0
VERTEX
  8
COUCHE1
 62
    39
  6
CONTINUOUS
 10
1.745291
 20
-0.278504
  0
VERTEX
  8
COUCHE1
 62
    39
  6
CONTINUOUS
 10
1.745291
 20
0.464173
  0
VERTEX
  8
COUCHE1
 62
    39
  6
CONTINUOUS
 10
1.671024
 20
0.965480
  0
VERTEX
  8
COUCHE1
 62
    39
  6
CONTINUOUS
 10
1.485354
 20
1.671024
  0
SEQEND
  8
0
  0
POLYLINE
  8
COUCHE1
 62
    39
  6
CONTINUOUS
 66
     1
 40
0.003000
 41
0.003000
  0
VERTEX
  8
COUCHE1
 62
    39
  6
CONTINUOUS
 10
1.689591
 20
0.724110
  0
VERTEX
  8
COUCHE1
 62
    39
  6
CONTINUOUS
 10
1.541055
 20
0.686976
  0
SEQEND
  8
0
  0
POLYLINE
  8
COUCHE1
 62
    39
  6
CONTINUOUS
 66
     1
 40
0.003000
 41
0.003000
  0
VERTEX
  8
COUCHE1
 62
    39
  6
CONTINUOUS
 10
1.652457
 20
0.984047
  0
VERTEX
  8
COUCHE1
 62
    39
  6
CONTINUOUS
 10
1.448220
 20
0.835512
  0
VERTEX
  8
COUCHE1
 62
    39
  6
CONTINUOUS
 10
1.225417
 20
0.835512
  0
VERTEX
  8
COUCHE1
 62
    39
  6
CONTINUOUS
 10
0.965480
 20
0.835512
  0
VERTEX
  8
COUCHE1
 62
    39
  6
CONTINUOUS
 10
0.649843
 20
0.872646
  0
VERTEX
  8
COUCHE1
 62
    39
  6
CONTINUOUS
 10
0.575575
 20
1.039748
  0
SEQEND
  8
0
  0
POLYLINE
  8
COUCHE1
 62
    39
  6
CONTINUOUS
 66
     1
 40
0.003000
 41
0.003000
  0
VERTEX
  8
COUCHE1
 62
    39
  6
CONTINUOUS
 10
1.671024
 20
0.891213
  0
VERTEX
  8
COUCHE1
 62
    39
  6
CONTINUOUS
 10
1.930961
 20
0.835512
  0
VERTEX
  8
COUCHE1
 62
    39
  6
CONTINUOUS
 10
2.172331
 20
0.835512
  0
VERTEX
  8
COUCHE1
 62
    39
  6
CONTINUOUS
 10
2.320866
 20
0.891213
  0
VERTEX
  8
COUCHE1
 62
    39
  6
CONTINUOUS
 10
2.339433
 20
1.021181
  0
SEQEND
  8
0
  0
POLYLINE
  8
COUCHE1
 62
    39
  6
CONTINUOUS
 66
     1
 40
0.003000
 41
0.003000
  0
VERTEX
  8
COUCHE1
 62
    39
  6
CONTINUOUS
 10
2.079496
 20
-0.464173
  0
VERTEX
  8
COUCHE1
 62
    39
  6
CONTINUOUS
 10
2.209465
 20
-0.389906
  0
VERTEX
  8
COUCHE1
 62
    39
  6
CONTINUOUS
 10
2.302299
 20
-0.148535
  0
VERTEX
  8
COUCHE1
 62
    39
  6
CONTINUOUS
 10
2.339433
 20
0.204236
  0
VERTEX
  8
COUCHE1
 62
    39
  6
CONTINUOUS
 10
2.469402
 20
0.352772
  0
VERTEX
  8
COUCHE1
 62
    39
  6
CONTINUOUS
 10
2.747906
 20
0.278504
  0
VERTEX
  8
COUCHE1
 62
    39
  6
CONTINUOUS
 10
2.747906
 20
0.074268
  0
VERTEX
  8
COUCHE1
 62
    39
  6
CONTINUOUS
 10
2.822173
 20
-0.297071
  0
SEQEND
  8
0
  0
POLYLINE
  8
COUCHE1
 62
    39
  6
CONTINUOUS
 66
     1
 40
0.003000
 41
0.003000
  0
VERTEX
  8
COUCHE1
 62
    39
  6
CONTINUOUS
 10
2.376567
 20
0.278504
  0
VERTEX
  8
COUCHE1
 62
    39
  6
CONTINUOUS
 10
2.636504
 20
0.222803
  0
VERTEX
  8
COUCHE1
 62
    39
  6
CONTINUOUS
 10
2.785039
 20
0.037134
  0
SEQEND
  8
0
  0
POLYLINE
  8
COUCHE1
 62
    39
  6
CONTINUOUS
 66
     1
 40
0.003000
 41
0.003000
  0
VERTEX
  8
COUCHE1
 62
    39
  6
CONTINUOUS
 10
-2.042362
 20
-0.668409
  0
VERTEX
  8
COUCHE1
 62
    39
  6
CONTINUOUS
 10
-3.007843
 20
-0.482740
  0
SEQEND
  8
0
  0
ENDSEC
  0
EOF
